<!-- Generated by IcoMoon.io -->
<svg version="1.1" xmlns="http://www.w3.org/2000/svg" width="33" height="32" viewBox="0 0 33 32">
<title>bladeborn-grymwatch</title>
<path d="M14.999 29.693c0 0.688 0 1.375 0 2.063-0.018 0.092-0.049 0.174-0.092 0.248l0.002-0.004c-0.075-0.053-0.192-0.090-0.222-0.162-0.169-0.376-0.316-0.789-0.47-1.187 0-0.026 0-0.064 0-0.094-0.323-0.883-0.774-1.552-1.818-1.803-1.007-0.25-1.893-0.65-2.683-1.18l0.030 0.019c-0.692-0.382-1.286-0.778-1.843-1.217l0.029 0.022c-0.121-0.11-0.283-0.177-0.46-0.177-0.084 0-0.165 0.015-0.24 0.043l0.005-0.002c-0.56 0.139-1.127 0.297-1.661 0.473-0.259 0.086-0.376 0-0.346-0.237 0.055-0.391 0.154-0.745 0.292-1.077l-0.011 0.029c0.129-0.233 0.205-0.511 0.205-0.807 0-0.436-0.165-0.833-0.436-1.133l0.001 0.001c-0.868-1.108-1.353-2.442-1.781-3.757-0.173-0.553-0.291-1.194-0.33-1.857l-0.001-0.022c0-0.007 0-0.014 0-0.022 0-0.24-0.156-0.443-0.372-0.514l-0.004-0.001c-0.753-0.268-1.383-0.55-1.987-0.872l0.079 0.038c-0.286-0.169-0.575-0.323-0.864-0.485 0.259-0.174 0.563-0.351 0.878-0.51l0.050-0.023c0.684-0.233 1.416-0.402 1.984-0.894 0.109-0.082 0.188-0.199 0.221-0.334l0.001-0.004c0.188-2.363 1.183-4.392 2.585-6.248 0.141-0.148 0.227-0.349 0.227-0.571 0-0.098-0.017-0.193-0.049-0.281l0.002 0.006c-0.184-0.545-0.376-1.093-0.496-1.653-0.094-0.376 0.049-0.481 0.428-0.376 0.522 0.158 1.060 0.274 1.571 0.462 0.092 0.038 0.2 0.061 0.313 0.061 0.195 0 0.374-0.067 0.516-0.179l-0.002 0.001c0.404-0.232 0.75-0.469 1.076-0.73l-0.016 0.013c0.751-0.721 1.818-0.834 2.653-1.401 0.257-0.132 0.561-0.209 0.883-0.209 0.032 0 0.063 0.001 0.095 0.002l-0.004-0c0.413-0.022 0.759-0.291 0.892-0.662l0.002-0.007c0.222-0.466 0.376-0.954 0.586-1.435 0.064-0.203 0.131-0.372 0.21-0.535l-0.010 0.024c0.088-0.126 0.184-0.237 0.289-0.337l0.001-0.001c0.053 0.118 0.092 0.255 0.112 0.398l0.001 0.008c0 1.247 0 2.499 0 3.757 0 0.549-0.045 0.586-0.624 0.706-1.34 0.284-2.527 0.721-3.625 1.302l0.075-0.036c-0.57 0.333-1.062 0.706-1.506 1.13l0.003-0.003c-0.646 0.583-1.242 1.176-1.808 1.798l-0.018 0.021c-0.184 0.221-0.36 0.466-0.518 0.724l-0.016 0.027c-0.255 0.356-0.505 0.763-0.725 1.188l-0.026 0.056c-0.16 0.385-0.309 0.85-0.42 1.328l-0.012 0.062c-0.225 0.819-0.62 1.597-0.53 2.487 0.012 0.154 0.018 0.334 0.018 0.515s-0.007 0.361-0.020 0.538l0.001-0.024c-0.002 0.076-0.004 0.165-0.004 0.255 0 1.394 0.313 2.715 0.873 3.896l-0.024-0.055c0.624 1.506 1.505 2.789 2.601 3.852l0.003 0.003c0.859 0.824 1.85 1.519 2.938 2.048l0.068 0.030c0.673 0.339 1.454 0.601 2.275 0.744l0.051 0.007c0.060 0 0.124 0 0.184 0 0.751 0.15 0.778 0.203 0.781 0.958 0 0.594 0 1.187 0 1.781z"></path>
<path d="M17.775 29.61c0-0.624 0-1.247 0-1.879 0-0.496 0.139-0.751 0.575-0.751 0.703 0 1.281-0.376 1.927-0.545 1.193-0.385 2.22-0.992 3.080-1.779l-0.006 0.006c0.888-0.682 1.637-1.493 2.232-2.412l0.023-0.037c0.376-0.605 0.616-1.266 0.981-1.879s0.376-1.398 0.669-2.059c0.051-0.15 0.081-0.323 0.081-0.503 0-0.047-0.002-0.093-0.006-0.138l0 0.006c0-0.751-0.038-1.503 0-2.254 0.086-1.326-0.312-2.525-0.785-3.757-0.747-1.724-1.845-3.172-3.212-4.306l-0.019-0.015c-0.647-0.616-1.411-1.117-2.255-1.463l-0.048-0.018c-0.932-0.327-1.852-0.804-2.882-0.815-0.282 0-0.376-0.12-0.376-0.376 0-0.845 0-1.687 0-2.529 0-0.657 0-1.315 0-1.969 0-0.053 0.056-0.105 0.086-0.158 0.038 0.038 0.109 0.071 0.113 0.113 0.131 0.864 0.695 1.559 0.947 2.375 0.056 0.237 0.244 0.419 0.481 0.465l0.004 0.001c1.233 0.353 2.301 0.795 3.306 1.339l-0.086-0.043c0.677 0.337 1.26 0.712 1.796 1.142l-0.019-0.015c0.53 0.492 1.044 0.436 1.623 0.293 0.353-0.090 0.695-0.218 1.048-0.319s0.406-0.056 0.327 0.376c-0.031 0.457-0.12 0.883-0.258 1.286l0.010-0.035c-0.316 0.642-0.086 1.101 0.278 1.608 0.739 1.002 1.316 2.177 1.662 3.446l0.017 0.074c0.123 0.412 0.234 0.92 0.312 1.439l0.008 0.064c0.020 0.662 0.457 1.218 1.056 1.413l0.011 0.003c0.774 0.271 1.537 0.582 2.299 0.879 0.059 0.030 0.109 0.061 0.157 0.096l-0.003-0.002c-0.041 0.038-0.075 0.094-0.128 0.116-0.751 0.319-1.503 0.631-2.254 0.954-0.488 0.21-0.879 0.425-0.966 1.093-0.171 0.897-0.405 1.686-0.707 2.439l0.031-0.087c-0.31 1.022-0.769 1.912-1.361 2.697l0.016-0.022c-0.271 0.342-0.458 0.774-0.751 1.127-0.061 0.090-0.098 0.202-0.098 0.322 0 0.091 0.021 0.176 0.058 0.253l-0.002-0.003c0.161 0.48 0.292 1.049 0.37 1.635l0.005 0.049c0.056 0.376-0.030 0.421-0.402 0.319-0.436-0.116-0.879-0.229-1.308-0.376-0.117-0.044-0.253-0.070-0.394-0.070-0.304 0-0.581 0.118-0.786 0.311l0.001-0.001c-0.861 0.691-1.855 1.265-2.93 1.677l-0.076 0.025c-0.635 0.214-1.274 0.413-1.879 0.654-0.247 0.096-0.428 0.312-0.473 0.574l-0.001 0.004c-0.251 0.706-0.528 1.306-0.853 1.875l0.030-0.057c-0.075 0.162-0.128 0.331-0.195 0.496-0.047-0.173-0.085-0.379-0.104-0.59l-0.001-0.015c-0.004-0.582 0.004-1.165 0.004-1.77z"></path>
<path d="M18.718 21.134c0-0.218 0-0.44 0-0.657 0.026-0.402-0.026-0.47-0.376-0.428-0.030 0-0.071 0-0.090 0-0.417 0.349-0.966 0.308-1.431 0.507-0.13 0.089-0.29 0.141-0.462 0.141-0.197 0-0.378-0.069-0.52-0.184l0.002 0.001c-0.331-0.24-0.887-0.128-1.292-0.395-0.135-0.090-0.357-0.049-0.537-0.064 0 0.158 0.049 0.316 0.053 0.473 0 0.376 0 0.751 0 1.127 0 0.071-0.075 0.135-0.113 0.203-0.053-0.034-0.132-0.056-0.15-0.101-0.162-0.376-0.488-0.83-0.286-1.206s0-0.567-0.21-0.751-0.432-0.338-0.65-0.507c-0.571-0.436-0.969-0.954-0.872-1.732-0-0.025-0.001-0.055-0.001-0.085 0-0.488 0.055-0.963 0.159-1.419l-0.008 0.043c0.18-0.518-0.090-1.078-0.312-1.582-0.14-0.343-0.221-0.74-0.221-1.157 0-0.324 0.049-0.637 0.14-0.932l-0.006 0.022c0.193-0.688 0.48-1.289 0.851-1.828l-0.013 0.020c0.256-0.386 0.59-0.7 0.982-0.924l0.014-0.007c0.92-0.593 2.044-0.945 3.25-0.945 0.119 0 0.237 0.003 0.355 0.010l-0.016-0.001c0.293 0.025 0.563 0.087 0.817 0.183l-0.021-0.007c0.697 0.225 1.299 0.496 1.863 0.824l-0.045-0.024c0.768 0.503 1.304 1.305 1.444 2.236l0.002 0.018c0.024 0.133 0.058 0.25 0.102 0.363l-0.005-0.013c0.109 0.279 0.172 0.602 0.172 0.939 0 0.451-0.112 0.875-0.31 1.247l0.007-0.014c-0.099 0.193-0.188 0.419-0.253 0.655l-0.006 0.025c-0.022 0.067-0.035 0.144-0.035 0.223 0 0.102 0.021 0.2 0.060 0.288l-0.002-0.005c0.376 0.537 0.282 1.127 0.259 1.713-0.009 0.42-0.084 0.819-0.215 1.192l0.008-0.027c-0.148 0.274-0.326 0.509-0.533 0.714l-0 0c0 0.019-0.064 0-0.086 0.026-0.358 0.205-0.663 0.455-0.921 0.748l-0.003 0.004c-0.162 0.256-0.071 0.665-0.12 1.003-0.048 0.307-0.111 0.574-0.191 0.834l0.011-0.041c0 0.071-0.094 0.124-0.143 0.184-0.037-0.074-0.066-0.16-0.082-0.25l-0.001-0.006c0-0.218 0-0.436 0-0.654zM14.961 17.407c0 0.12-0.041 0.237-0.053 0.353 0 0.297-0.147 0.646-0.030 0.875 0.29 0.502 0.605 0.936 0.958 1.335l-0.007-0.009s0.376-0.147 0.376-0.252c0.032-0.222 0.050-0.478 0.050-0.738 0-0.13-0.005-0.259-0.014-0.387l0.001 0.017c-0.049-0.981-0.229-1.15-1.191-1.191h-0.094c0.064-0.101 0.101-0.229 0.188-0.293 0.169-0.12 0.376-0.165 0.376-0.458s-0.199-0.376-0.376-0.56c-0.695-0.646-1.525-0.549-2.348-0.53-0.071 0-0.188 0.068-0.203 0.124-0 0.004-0 0.009-0 0.014 0 0.087 0.034 0.165 0.091 0.223l-0-0c0.376 0.398 0.8 0.774 1.172 1.191 0.19 0.213 0.465 0.346 0.771 0.346 0.125 0 0.245-0.022 0.355-0.063l-0.007 0.002zM19.327 15.555c-0.688-0.132-1.232 0.229-1.732 0.669-0.113 0.093-0.184 0.233-0.184 0.389s0.071 0.296 0.183 0.388l0.001 0.001c0.131 0.117 0.278 0.223 0.434 0.313l0.013 0.007c0.13 0.055 0.281 0.087 0.44 0.087 0.286 0 0.548-0.104 0.749-0.276l-0.002 0.001c0.249-0.35 0.499-0.753 0.722-1.172l0.029-0.060c0.038-0.064-0.079-0.286-0.177-0.331-0.076-0.016-0.163-0.025-0.252-0.025-0.074 0-0.147 0.006-0.218 0.018l0.008-0.001zM17.944 18.301c0.005-0.073 0.009-0.158 0.009-0.244s-0.003-0.171-0.009-0.256l0.001 0.011c-0.049-0.293-0.248-0.376-0.534-0.376s-0.609-0.030-0.703 0.301c-0.124 0.436 0.041 0.902-0.173 1.356-0.094 0.188 0.079 0.518 0.165 0.751 0.019 0.060 0.237 0.124 0.263 0.098 0.24-0.271 0.44-0.59 0.699-0.838 0.19-0.156 0.31-0.391 0.31-0.654 0-0.053-0.005-0.105-0.014-0.155l0.001 0.005z"></path>
<path d="M15.649 20.725c0.090 0.068 0.252 0.124 0.263 0.199 0.079 0.635-0.064 1.292 0.203 1.912 0 0.002 0 0.005 0 0.007 0 0.060-0.031 0.113-0.078 0.143l-0.001 0c-0.038 0-0.113-0.034-0.154-0.071-0.481-0.413-0.751-1.533-0.492-2.040 0.034-0.053 0.154-0.086 0.259-0.15z"></path>
<path d="M18.016 20.514c0.143 0.083 0.323 0.131 0.327 0.195 0.030 0.338 0.316 0.631 0.060 1.029-0.18 0.286-0.15 0.706-0.541 0.875-0.030-0.301-0.071-0.601-0.083-0.902-0.009-0.138-0.014-0.3-0.014-0.462s0.005-0.324 0.015-0.484l-0.001 0.022c0.019-0.086 0.147-0.165 0.237-0.274z"></path>
<path d="M14.833 20.582c0.030 0.045 0.158 0.18 0.135 0.214-0.376 0.537 0 1.056 0.026 1.582-0.017 0.092-0.049 0.174-0.092 0.248l0.002-0.004c-0.075-0.049-0.184-0.086-0.218-0.158-0.155-0.297-0.309-0.655-0.437-1.024l-0.017-0.058c-0.009-0.040-0.014-0.086-0.014-0.134 0-0.35 0.269-0.638 0.612-0.666l0.002-0z"></path>
<path d="M17.441 21.551c0.006 0.054 0.010 0.116 0.010 0.178 0 0.402-0.146 0.769-0.387 1.052l0.002-0.002-0.143 0.218c-0.030-0.083-0.094-0.169-0.086-0.248 0.026-0.376 0.079-0.725 0.113-1.090 0-0.143 0.064-0.323 0-0.432-0.184-0.319 0.053-0.376 0.252-0.428 0.049 0 0.177 0.188 0.214 0.312 0.020 0.094 0.031 0.203 0.031 0.314 0 0.044-0.002 0.088-0.005 0.131l0-0.006z"></path>
</svg>
