<!-- Generated by IcoMoon.io -->
<svg version="1.1" xmlns="http://www.w3.org/2000/svg" width="33" height="32" viewBox="0 0 33 32">
<title>bladeborn-dreadpageant</title>
<path d="M17.667 29.612c0-0.685 0-1.37 0-2.055-0.005-0.028-0.008-0.061-0.008-0.094 0-0.29 0.232-0.525 0.52-0.531h0.001c0.060 0 0.112-0.075 0.168-0.071 1.010 0.067 1.815-0.565 2.713-0.857 0.761-0.276 1.415-0.678 1.969-1.186l-0.004 0.004c0.869-0.782 1.66-1.608 2.386-2.49l0.031-0.039c0.398-0.509 0.731-1.096 0.969-1.728l0.015-0.046c0.43-1.089 0.846-2.189 0.782-3.398-0.019-0.265-0.029-0.575-0.029-0.887s0.011-0.622 0.032-0.928l-0.002 0.041c0.138-1.77-0.423-3.368-1.295-4.842-1.016-1.767-2.435-3.198-4.138-4.2l-0.053-0.029c-1.123-0.629-2.335-0.921-3.544-1.25-0.311-0.086-0.513-0.127-0.509-0.498 0-1.43 0-2.863 0-4.296 0-0.075 0.071-0.153 0.109-0.232 0.050 0.064 0.097 0.136 0.138 0.212l0.004 0.008c0.287 0.562 0.588 1.26 0.847 1.978l0.043 0.137c0.091 0.361 0.38 0.635 0.743 0.703l0.006 0.001c1.923 0.5 3.599 1.365 5.028 2.523l-0.025-0.019c0.152 0.127 0.349 0.205 0.564 0.205 0.102 0 0.2-0.017 0.292-0.049l-0.006 0.002c0.528-0.157 1.070-0.254 1.613-0.374 0.277-0.056 0.4 0.086 0.322 0.374-0.131 0.475-0.288 0.943-0.412 1.418-0.038 0.119-0.060 0.257-0.060 0.399 0 0.338 0.123 0.648 0.327 0.887l-0.002-0.002c1.024 1.337 1.763 2.947 2.096 4.701l0.011 0.070c0.034 0.18 0.165 0.374 0.142 0.528-0.127 0.842 0.509 1.033 1.067 1.291s1.123 0.513 1.695 0.748c0.205 0.066 0.446 0.118 0.695 0.145l0.016 0.001c-0.236 0.12-0.468 0.243-0.704 0.374-0.561 0.332-1.21 0.613-1.894 0.809l-0.059 0.015c-0.468 0.101-0.711 0.442-0.805 0.995-0.306 1.753-0.884 3.32-1.695 4.737l0.037-0.071c-0.303 0.532-0.603 0.985-0.931 1.415l0.022-0.030c-0.116 0.144-0.187 0.329-0.187 0.53 0 0.119 0.025 0.233 0.069 0.336l-0.002-0.005c0.102 0.358 0.202 0.815 0.275 1.28l0.009 0.071c0.101 0.531 0 0.674-0.535 0.539-0.48-0.145-0.88-0.3-1.267-0.481l0.058 0.024c-0.093-0.039-0.201-0.062-0.314-0.062-0.207 0-0.395 0.076-0.54 0.202l0.001-0.001c-1.040 0.704-2.069 1.43-3.278 1.826-0.128 0.028-0.241 0.077-0.34 0.144l0.003-0.002c-0.591 0.513-1.647 0.138-2.017 1.074-0.296 0.748-0.617 1.471-0.932 2.204-0.044 0.082-0.093 0.154-0.148 0.219l0.002-0.002c-0.034-0.082-0.101-0.161-0.101-0.243 0-0.715 0-1.433 0-2.148z"></path>
<path d="M14.935 2.474c0 0.685 0 1.37 0 2.054 0 0.288-0.094 0.43-0.415 0.487-2.64 0.431-4.91 1.767-6.529 3.674l-0.013 0.016c-1.030 1.129-1.798 2.515-2.197 4.050l-0.015 0.067c-0.004 0.033-0.012 0.064-0.023 0.092l0.001-0.002c-0.689 1.336-0.52 2.777-0.513 4.195 0.029 0.366 0.094 0.705 0.192 1.030l-0.009-0.034c0.516 2.245 1.467 4.274 3.192 5.83 1.089 0.98 2.204 1.961 3.705 2.365 0.644 0.172 1.22 0.531 1.927 0.588s0.696 0.172 0.7 0.842c0 1.246 0 2.492 0 3.742-0.015 0.13-0.044 0.25-0.086 0.362l0.003-0.010c-0.079-0.079-0.191-0.142-0.232-0.239-0.183-0.419-0.337-0.853-0.513-1.28-0.117-0.35-0.264-0.653-0.444-0.933l0.010 0.016c-0.172-0.198-0.397-0.347-0.652-0.424l-0.010-0.003c-1.36-0.4-2.546-0.936-3.638-1.609l0.064 0.037c-0.609-0.332-1.133-0.686-1.621-1.082l0.020 0.015c-0.108-0.061-0.238-0.097-0.376-0.097-0.071 0-0.14 0.010-0.206 0.028l0.005-0.001c-0.483 0.086-0.954 0.232-1.437 0.329-0.089 0.009-0.193 0.014-0.298 0.014s-0.208-0.005-0.31-0.015l0.013 0.001c0.019-0.23 0.048-0.438 0.088-0.641l-0.006 0.035c0.053-0.232 0.125-0.436 0.217-0.628l-0.008 0.018c0.129-0.22 0.205-0.484 0.205-0.767 0-0.383-0.14-0.733-0.371-1.002l0.002 0.002c-0.597-0.762-1.092-1.643-1.442-2.594l-0.022-0.067c-0.294-0.811-0.561-1.793-0.752-2.803l-0.019-0.123c-0.112-0.655-0.509-0.849-1.018-1.048q-0.988-0.374-1.946-0.838c-0.191-0.094-0.247-0.269 0.034-0.374 0.748-0.303 1.478-0.614 2.219-0.924 0.398-0.149 0.68-0.518 0.7-0.956l0-0.002c0.307-2.183 1.174-4.122 2.451-5.719l-0.018 0.023c0.197-0.198 0.319-0.471 0.319-0.773 0-0.155-0.032-0.302-0.090-0.435l0.003 0.007c-0.183-0.449-0.221-0.958-0.374-1.426-0.090-0.296 0-0.445 0.277-0.415 0.396 0.032 0.762 0.112 1.109 0.234l-0.031-0.009c0.221 0.104 0.479 0.165 0.752 0.165 0.49 0 0.933-0.196 1.257-0.513l-0 0c0.855-0.678 1.858-1.216 2.947-1.558l0.065-0.018c0.27-0.122 0.59-0.234 0.922-0.317l0.040-0.009c0.808-0.12 1.123-0.704 1.343-1.362 0.153-0.434 0.314-0.864 0.49-1.287 0.064-0.105 0.14-0.195 0.227-0.272l0.001-0.001c0.047 0.092 0.085 0.198 0.107 0.31l0.001 0.008c0.030 0.666 0.022 1.321 0.022 1.976z"></path>
<path d="M12.799 18.195c0.075-1.171 0.18-2.335 0.932-3.327 0.086-0.116 0.056-0.322 0.082-0.486-0.123-0.030-0.264-0.047-0.409-0.047-0.033 0-0.065 0.001-0.097 0.003l0.005-0c-0.228 0.043-0.431 0.12-0.616 0.226l0.010-0.005c-0.142 0.090-0.314 0.143-0.499 0.143-0.206 0-0.397-0.066-0.552-0.179l0.003 0.002c-0.258-0.165-0.52-0.318-0.778-0.475 0.226-0.053 0.513-0.101 0.804-0.135l0.038-0.004c0.005 0 0.012 0 0.018 0 0.679 0 1.251-0.46 1.42-1.086l0.002-0.010c0.054-0.156 0.086-0.335 0.086-0.522 0-0.559-0.281-1.052-0.709-1.346l-0.006-0.004-0.064-0.071c-0.894-0.588-1.022-0.584-1.871 0.045-0.088 0.049-0.19 0.092-0.297 0.121l-0.010 0.002c0-0.146-0.060-0.322 0-0.43 0.546-0.943 2.013-1.239 2.994-0.748 0.639 0.261 1.129 0.774 1.353 1.413l0.005 0.017c0.089 0.256 0.14 0.55 0.14 0.857 0 0.346-0.065 0.676-0.184 0.98l0.006-0.018c-0.037 0.094 0.030 0.232 0.049 0.348 0.121-0.034 0.227-0.081 0.323-0.141l-0.005 0.003c0.739-0.654 1.649-1.133 2.654-1.362l0.041-0.008c1.497-0.258 3.020-0.292 4.446 0.415 0.109 0.056 0.161 0.217 0.239 0.329-0.142 0.037-0.322 0.15-0.415 0.097-1.022-0.546-2.002-0.299-3.050-0.022-0.887 0.244-1.663 0.593-2.37 1.043l0.035-0.021c-0.138 0.076-0.253 0.178-0.342 0.3l-0.002 0.003c-0.079 0.12-0.157 0.326-0.105 0.415s0.284 0.299 0.419 0.284c0.29-0.041 0.551-0.132 0.786-0.264l-0.011 0.006c0.553-0.327 1.22-0.52 1.931-0.52s1.378 0.193 1.949 0.53l-0.018-0.010c1.004 0.497 1.752 1.384 2.052 2.457l0.007 0.027c0.659 2.586-0.7 4.783-3.080 5.273-2.534 0.524-4.3-0.778-5.026-3.136-0.099-0.294-0.156-0.634-0.156-0.986 0-0.504 0.117-0.981 0.326-1.405l-0.008 0.019c0.123-0.197 0.211-0.43 0.249-0.678l0.001-0.010c-0.012-0.205-0.109-0.386-0.257-0.508l-0.001-0.001c-0.075-0.060-0.333 0.049-0.46 0.146-0.102 0.11-0.18 0.242-0.226 0.389l-0.002 0.007c-0.689 1.564-1.018 3.158-0.494 4.865 0.089 0.342 0.167 0.762 0.217 1.19l0.004 0.045c-0.322-0.323-0.607-0.684-0.846-1.075l-0.014-0.025c-0.408-0.802-0.646-1.75-0.646-2.753 0-0.064 0.001-0.127 0.003-0.19l-0 0.009zM22.154 18.195c0.049-1.587-1.546-2.911-2.994-2.923-1.347 0-2.915 1.605-2.923 2.956s1.624 3.046 2.994 2.971c1.471-0.075 3.005-1.392 2.919-2.998z"></path>
<path d="M21.668 18.266c0 0.008 0 0.018 0 0.028 0 1.331-1.079 2.41-2.41 2.41-0.030 0-0.061-0.001-0.091-0.002l0.004 0c-1.164 0.019-2.391-1.078-2.41-2.552 0-1.149 1.22-2.459 2.511-2.406s2.526 1.194 2.395 2.522z"></path>
</svg>
