<!-- Generated by IcoMoon.io -->
<svg version="1.1" xmlns="http://www.w3.org/2000/svg" width="33" height="32" viewBox="0 0 33 32">
<title>bladeborn-thundrik</title>
<path d="M14.838 2.387c0 0.657 0 1.313 0 1.97 0 0.375-0.086 0.66-0.548 0.691-1.242 0.086-2.323 0.679-3.426 1.167-0.597 0.292-1.108 0.662-1.546 1.103l-0 0c-0.968 0.916-1.963 1.813-2.646 3.002-0.913 1.461-1.499 3.213-1.616 5.091l-0.002 0.032c-0.008 0.163-0.013 0.354-0.013 0.546 0 1.726 0.381 3.363 1.063 4.831l-0.030-0.071c0.716 1.649 1.816 3.016 3.193 4.030l0.027 0.019c0.972 0.698 1.925 1.419 3.085 1.775 0.509 0.174 1.139 0.339 1.785 0.462l0.091 0.014c0.428 0.068 0.593 0.24 0.589 0.66 0 1.343 0 2.687 0 4.030 0 0.098-0.094 0.191-0.146 0.285-0.051-0.079-0.104-0.173-0.153-0.271l-0.008-0.018c-0.315-0.912-0.66-1.684-1.062-2.42l0.041 0.082c-0.221-0.349-0.803-0.563-1.261-0.664-1.585-0.425-2.966-1.137-4.15-2.085l0.022 0.017c-0.462-0.334-0.799-0.48-1.332-0.248-0.356 0.158-0.807 0.101-1.16 0.263-0.582 0.27-0.484-0.109-0.45-0.409 0.019-0.292 0.093-0.563 0.212-0.808l-0.006 0.013c0.48-0.826 0.139-1.501-0.319-2.18-1.039-1.453-1.742-3.213-1.962-5.12l-0.005-0.051c-0.079-0.721-0.63-0.822-1.126-1.055-0.574-0.274-1.148-0.54-1.715-0.829-0.225-0.113-0.439-0.263 0-0.439 0.567-0.233 1.126-0.514 1.692-0.728 0.672-0.248 1.085-0.548 1.182-1.404 0.253-1.707 0.847-3.236 1.712-4.575l-0.027 0.045c0.281-0.477 0.649-0.901 0.923-1.381 0.045-0.112 0.071-0.242 0.071-0.378 0-0.103-0.015-0.203-0.043-0.297l0.002 0.007c-0.12-0.537-0.278-1.062-0.435-1.587-0.116-0.375 0.094-0.428 0.375-0.375 0.26 0.030 0.497 0.096 0.717 0.194l-0.015-0.006c0.983 0.525 1.775 0.161 2.601-0.413 1.163-0.807 2.391-1.501 3.843-1.7 0.433-0.050 0.78-0.365 0.877-0.777l0.001-0.007c0.218-0.732 0.522-1.441 0.803-2.154 0.038-0.094 0.139-0.161 0.214-0.244 0.044 0.091 0.077 0.198 0.093 0.309l0.001 0.006c-0.011 0.664-0.015 1.351-0.015 2.049z"></path>
<path d="M17.676 29.959c0-0.822 0.049-1.644-0.023-2.458-0.034-0.375 0.064-0.42 0.345-0.458 1.546-0.198 2.937-0.731 4.142-1.524l-0.037 0.023c1.371-0.87 2.509-1.981 3.382-3.284l0.026-0.041c0.63-0.957 1.143-2.063 1.48-3.244l0.021-0.085c0.138-0.697 0.234-1.517 0.266-2.353l0.001-0.030c0.031-0.291 0.049-0.629 0.049-0.971 0-1.581-0.38-3.073-1.054-4.39l0.025 0.055c-0.796-1.634-1.918-2.997-3.291-4.048l-0.027-0.020c-1.36-1.050-3.014-1.786-4.818-2.071l-0.061-0.008c-0.33-0.053-0.398-0.184-0.417-0.473-0.045-0.773-0.139-1.539-0.176-2.308-0.030-0.627 0-1.25 0-1.876 0.023-0.116 0.065-0.219 0.122-0.312l-0.002 0.004c0.079 0.079 0.188 0.143 0.229 0.236 0.323 0.551 0.614 1.19 0.838 1.859l0.021 0.073c0.154 0.645 0.567 0.781 1.066 0.961 1.153 0.39 2.085 0.771 2.99 1.199l-0.172-0.073c0.663 0.338 1.235 0.737 1.743 1.202l-0.006-0.005c0.237 0.206 0.549 0.332 0.891 0.332 0.176 0 0.345-0.034 0.5-0.095l-0.009 0.003c0.522-0.135 1.040-0.281 1.557-0.424-0.035 0.538-0.136 1.041-0.297 1.516l0.012-0.041c-0.413 0.867 0.056 1.501 0.465 2.124 0.962 1.368 1.615 3.019 1.823 4.807l0.005 0.049c0.012 0.51 0.348 0.938 0.81 1.086l0.008 0.002c0.668 0.225 1.317 0.51 1.963 0.792 0.225 0.117 0.418 0.242 0.598 0.382l-0.009-0.007c-0.195 0.086-0.375 0.173-0.582 0.251-0.645 0.263-1.317 0.48-1.933 0.803-0.364 0.149-0.635 0.459-0.726 0.84l-0.002 0.008c-0.311 1.336-0.499 2.728-1.25 3.933-0.45 0.724-0.852 1.482-1.332 2.184-0.153 0.181-0.246 0.418-0.246 0.675 0 0.119 0.020 0.234 0.057 0.341l-0.002-0.007c0.105 0.319 0.169 0.653 0.263 0.976 0.244 0.848 0.169 1.024-0.574 0.698-1.287-0.567-2.214-0.124-3.175 0.645-1.103 0.882-2.507 1.126-3.779 1.655-0.324 0.079-0.574 0.331-0.648 0.651l-0.001 0.006c-0.248 0.704-0.53 1.306-0.864 1.874l0.027-0.050c-0.038 0.079-0.086 0.154-0.128 0.229-0.032-0.090-0.057-0.195-0.071-0.304l-0.001-0.007c0-0.499 0-0.998 0-1.501z"></path>
<path d="M20.291 19.901c0.088 0.109 0.177 0.231 0.26 0.358l0.010 0.017c0.158 0.251 0.477 0.664 0.417 0.751-0.288 0.372-0.657 0.668-1.082 0.863l-0.018 0.007c-0.357 0.135-0.642-0.24-0.822-0.589s-0.375-0.751-0.619-1.126c-0.056-0.090-0.225-0.113-0.345-0.169 0.017 0.121 0.046 0.23 0.086 0.333l-0.003-0.010c0.27 0.522 0.522 1.051 0.833 1.542s-0.071 0.634-0.349 0.777c-0.094 0.052-0.205 0.083-0.324 0.083-0.281 0-0.522-0.172-0.624-0.416l-0.002-0.004c-0.029-0.139-0.062-0.257-0.104-0.372l0.006 0.019c-0.075-0.154-0.176-0.296-0.266-0.443-0.019 0.154-0.049 0.308-0.064 0.458s0 0.188 0 0.281c0 1.257 0 1.238-1.295 1.197-0.514 0-0.751-0.195-0.724-0.721s0-1.126 0-1.685l0.135-0.086-0.083-0.083-0.086 0.135c-0.054 0.359-0.127 0.675-0.223 0.98l0.012-0.046c-0.098 0.263-0.285 0.694-0.432 0.694-0.406-0.051-0.774-0.174-1.104-0.357l0.016 0.008c-0.038 0 0-0.274 0.049-0.375 0.131-0.278 0.319-0.529 0.435-0.807s0.233-0.683 0.345-1.024l-0.034 0.038 0.214-0.413-0.026 0.038 0.214-0.413-0.030 0.038 0.221-0.221-0.030 0.034c0.946-0.6 2.293-0.518 3.002 0.188l0.090 0.308c0.038-0.030 0.109-0.079 0.105-0.090-0.055-0.098-0.109-0.18-0.166-0.259l0.005 0.007c0.049-0.203 0.094-0.409 0.146-0.612 0.124-0.48-0.079-0.698-0.555-0.702l0.038 0.030c-0.503-0.597-0.413-0.612 0.263-0.946 0.994-0.495 1.651 0.026 2.357 0.525 0.353 0.248 0.694 0.514 1.024 0.796 0.251 0.21 0.657 0.439 0.672 0.683-0.041 0.472-0.16 0.906-0.344 1.304l0.010-0.024c0 0.038-0.263 0.053-0.375 0-0.285-0.158-0.548-0.349-0.822-0.529l-0.938-0.938-0.086-0.135-0.079 0.083 0.131 0.086 0.751 0.751zM18.79 18.4l0.086 0.131 0.079-0.083-0.131-0.083-0.086-0.135-0.079 0.083zM17.214 20.67c-0.030 0.049-0.083 0.098-0.083 0.146s0.049 0.101 0.079 0.154c0.030-0.049 0.083-0.098 0.083-0.146s-0.049-0.101-0.079-0.154z"></path>
<path d="M15.413 13.146c0.068 0.158 0.090 0.375 0.206 0.465 0.447 0.338 0.657 0.597-0.060 0.844-0.090 0.030-0.109 0.251-0.161 0.375l0.030-0.034c-0.345 0.424-0.672 0.871-1.051 1.265-0.085 0.056-0.19 0.090-0.303 0.090-0.079 0-0.154-0.017-0.222-0.046l0.004 0.001c-0.246-0.174-0.462-0.36-0.659-0.565l-0.001-0.002-0.086-0.135-0.079 0.083 0.131 0.086c0.191 0.968-0.375 1.467-1.126 1.843-0.245 0.144-0.454 0.289-0.653 0.448l0.011-0.009c-0.183-0.225-0.342-0.48-0.468-0.755l-0.009-0.022c-0.507-1.738-0.661-3.865 1.197-5.378 0.221-0.184 0.409-0.402 0.691-0.101q-0.375 0.203 0 0.405l0.090 0.311c0.038-0.030 0.109-0.079 0.105-0.090-0.055-0.098-0.109-0.18-0.166-0.259l0.005 0.007v-0.341h0.938l-0.038-0.034 0.443 0.375 0.154-0.57-0.030 0.038 0.221-0.221-0.038 0.034c0.957-0.034 0.968-0.041 0.983-0.916 0-0.188 0-0.375 0-0.563 0-0.904 0.154-1.017 1.032-0.957 0.439 0.026 0.619 0.218 0.604 0.642 0 0.218 0 0.435 0 0.653 0 0.57-0.060 1.077 0.751 1.257 0.488 0.113 0.465 0.439 0.068 0.837-0.327 0.358-0.666 0.688-1.024 0.997l-0.015 0.013c-0.177 0.121-0.396 0.194-0.632 0.194-0.042 0-0.083-0.002-0.124-0.007l0.005 0c-0.252-0.068-0.472-0.173-0.667-0.312l0.006 0.004-0.563-0.563-0.375-0.188-0.086-0.135-0.079 0.083 0.131 0.086 0.375 0.188 0.375 0.375zM12.632 14.238v-0.533l0.15-0.608-0.124-0.023c-0.023 0.173-0.045 0.341-0.064 0.514-0.001 0.013-0.001 0.029-0.001 0.045s0.001 0.032 0.002 0.047l-0-0.002c-0.296 0.195-0.293 0.375 0 0.589-0.004 0.053-0.007 0.114-0.007 0.176s0.003 0.124 0.008 0.184l-0.001-0.008c0.033 0.111 0.074 0.207 0.124 0.296l-0.004-0.008c0.034-0.109 0.113-0.221 0.094-0.319-0.042-0.135-0.102-0.252-0.179-0.356l0.002 0.003zM15.311 14.197c-0.285-0.235-0.602-0.466-0.933-0.678l-0.039-0.024c-0.167-0.059-0.359-0.093-0.559-0.094h-0c0.060 0.214 0.064 0.48 0.199 0.627 0.189 0.185 0.422 0.325 0.683 0.402l0.012 0.003c0.109 0.038 0.281-0.094 0.638-0.236z"></path>
<path d="M14.324 20.051c-0.319 0.473-0.649 0.938-0.953 1.422s-0.514 0.57-1.021 0.263l-0.308-0.195c-0.661-0.45-0.675-0.608-0.124-1.212 0.12-0.135 0.225-0.285 0.338-0.432l0.188-0.184 0.563-0.563c0.029 0.006 0.062 0.010 0.096 0.010 0.263 0 0.477-0.213 0.477-0.477 0-0.034-0.004-0.067-0.010-0.099l0.001 0.003 0.135-0.086-0.083-0.083-0.086 0.135-1.313 1.313c-0.213 0.084-0.395 0.176-0.566 0.282l0.015-0.008c-0.477 0.349-0.522 0.341-0.773-0.218s-0.184-0.987 0.375-1.392c0.694-0.507 1.389-1.013 2.098-1.501 0.191-0.131 0.473-0.296 0.653-0.248 0.521 0.184 0.958 0.379 1.377 0.604l-0.053-0.026-0.308 0.657 0.038-0.030c-0.713 0.255-0.751 0.319-0.338 0.841 0.053 0.092 0.094 0.199 0.119 0.312l0.001 0.007 0.030-0.034-0.221 0.221 0.030-0.038-0.214 0.413 0.026-0.038-0.214 0.413z"></path>
<path d="M19.56 15.39c0.751-0.732 0.462-1.617 0.375-2.477-0.016-0.128-0.025-0.276-0.025-0.426s0.009-0.298 0.027-0.443l-0.002 0.017c0.086-0.544 0.199-0.589 0.582-0.263 0.873 0.71 1.434 1.775 1.463 2.971l0 0.005c-0.017 0.943-0.167 1.844-0.431 2.695l0.018-0.068c-0.090 0.375-0.357 0.495-0.702 0.27-0.131-0.083-0.21-0.263-0.345-0.311-1.013-0.349-1.268-1.040-0.942-2.008z"></path>
<path d="M19.59 15.356c-0.198 0.221-0.41 0.42-0.639 0.6l-0.011 0.008c-0.165 0.109-0.503 0.221-0.6 0.139-0.366-0.331-0.697-0.685-0.996-1.066l-0.014-0.018c-0.131-0.161-0.154-0.488-0.3-0.548-0.672-0.266-0.417-0.552-0.071-0.867 0.675-0.615 1.355-1.223 2.023-1.843 0.394-0.375 0.537-0.206 0.548 0.244 0.026 1.126 0.357 2.252 0.030 3.377zM18.955 13.746c-0.176-0.203-0.259-0.375-0.375-0.432-0.289-0.113-1.182 0.518-1.197 0.829 0 0.071 0.083 0.21 0.124 0.21 0.024 0.001 0.052 0.001 0.081 0.001 0.307 0 0.605-0.039 0.89-0.111l-0.025 0.005c0.173-0.064 0.3-0.3 0.503-0.503z"></path>
<path d="M15.398 14.842c0.198-0.084 0.433-0.158 0.676-0.209l0.026-0.005c0.221-0.026 0.619-0.034 0.66 0.068 0.32 0.651 0.718 1.209 1.191 1.694l-0.001-0.001c0.026 0.026-0.101 0.229-0.195 0.296-0.334 0.255-0.691 0.477-1.028 0.728-0.125 0.107-0.288 0.172-0.467 0.172s-0.342-0.065-0.468-0.173l0.001 0.001c-0.258-0.205-0.547-0.405-0.849-0.587l-0.037-0.021c-0.375-0.188-0.462-0.341-0.116-0.649s0.837-0.698 0.638-1.336z"></path>
<path d="M13.758 11.649c-0.191-0.236-0.338-0.552-0.585-0.691-0.533-0.3-0.375-0.597-0.030-0.833 0.373-0.239 0.818-0.489 1.277-0.714l0.082-0.036c0.394-0.21 0.574 0.056 0.687 0.345 0.176 0.447-0.049 0.912-0.518 1.231-0.094 0.060-0.135 0.195-0.199 0.3l0.038-0.034-0.221 0.221 0.030-0.038-0.597 0.195z"></path>
<path d="M17.33 10.268c0-0.874 0.326-1.096 0.994-0.837 0.185 0.068 0.345 0.157 0.489 0.266l-0.005-0.003c0.308 0.248 0.867 0.582 0.826 0.751-0.086 0.375-0.503 0.657-0.788 0.976-0.038 0.045-0.124 0.101-0.146 0.090-0.466-0.281-0.861-0.555-1.239-0.85l0.027 0.021c-0.135-0.094-0.143-0.36-0.158-0.413z"></path>
<path d="M15.034 18.021h2.481l-0.038-0.030c-0.041 0.12-0.083 0.341-0.131 0.341-0.713 0.023-1.43 0.023-2.143 0-0.049 0-0.090-0.221-0.131-0.341z"></path>
</svg>
