<!-- Generated by IcoMoon.io -->
<svg version="1.1" xmlns="http://www.w3.org/2000/svg" width="1024" height="1024" viewBox="0 0 1024 1024">
<title></title>
<g id="icomoon-ignore">
</g>
<path fill="#000" d="M554.498 85.394l0.411 75.433 35.603 9.762c355.298 97.397 355.253 597.378-0.060 683.071l-38.155 9.203 1.304 75.716c0.718 41.647 3.114 74.611 5.32 73.256 2.208-1.355 4.014-4.861 4.014-7.793 0-2.929 4.87-16.022 10.827-29.094 5.952-13.073 13.025-29.546 15.708-36.611 3.697-9.722 13.75-15.765 41.344-24.856 42.588-14.036 72.422-28.18 116.398-55.177 36.429-22.365 37.339-22.5 73.090-10.807 33.52 10.962 33.593 10.858 22.343-32.040-7.52-28.672-8.066-37.501-2.781-44.967 42.874-60.553 71.138-126.48 79.299-184.958l3.606-25.858 40.794-18.762c22.433-10.321 46.717-21.092 53.96-23.933 12.128-4.763 9.8-6.553-29.428-22.649-67.029-27.506-63.581-24.071-71.479-71.142-7.729-46.063-25.787-90.181-56.69-138.488l-20.194-31.568 9.449-36.418c11.534-44.471 11.886-44.094-30.439-32.815l-34.336 9.148-39.84-26.66c-39.244-26.262-98.362-55.258-112.744-55.295-21.004-0.058-41.111-21.185-55.801-58.629-20.959-53.421-21.984-51.851-21.523 32.933zM444.238 55.933l-19.713 43.81-36.469 11.033c-20.057 6.068-46.1 16.898-57.87 24.068-11.771 7.174-36.226 21.702-54.348 32.289l-32.946 19.251-35.465-8.909c-42.517-10.678-42.045-10.995-32.209 21.682 11.084 36.833 9.886 48.797-7.427 74.179-36.669 53.772-60.483 111.875-68.108 166.169l-3.664 26.091-38.084 17.114c-20.943 9.414-44.101 19.675-51.459 22.807-12.574 5.349-10.281 7.15 38.266 30.025l51.638 24.33 3.58 23.080c7.689 49.612 28.632 105.665 57.308 153.38 22.706 37.78 23.831 45.371 12.334 83.271-9.94 32.768-10.904 32.087 30.668 21.644l34.605-8.691 41.188 26.886c22.656 14.792 60.955 34.329 85.11 43.424 24.155 9.091 49.059 18.681 55.339 21.307 7.449 3.118 16.308 17.468 25.481 41.289 23.306 60.527 24.463 59.34 24.55-25.237l0.080-77.806-37.42-8.782c-348.050-81.683-357.562-562.469-13.41-677.742l48.156-16.129 1.577-37.939c0.867-20.866 0.867-54.085 0-73.821l-1.577-35.879-19.713 43.808zM508.091 247.993c-2.208 2.208-4.163 23.474-4.345 47.263-0.685 89.722-6.027 117.838-25.925 136.424-34.294 32.036-13.231 80.341 35.145 80.601 46.875 0.249 65.465-49.662 31.24-83.883-15.142-15.142-18.803-22.979-19.13-40.932-0.779-42.947-13.018-143.443-16.985-139.473zM287.733 340.614c-2.677 4.331 8.356 42.193 15.816 54.26 1.8 2.912 7.061 2.444 12.799-1.14 20.263-12.654 35.62 11.549 45.803 72.19 4.112 24.499 13.807 23.62 20.407-1.847 2.588-9.995 9.516-24.92 15.391-33.172l10.682-15.004-11.744-24.263c-15.027-31.039-12.468-32.819 23.017-16.032 35.562 16.823 72.322 8.667 66.069-14.659-1.732-6.455-3.182-14.747-3.222-18.429-0.088-7.988-190.109-9.846-195.017-1.905zM537.196 355.725c2.342 28.058 29.273 34.966 69.253 17.764 32.751-14.091 34.134-13.193 20.609 13.332-12.57 24.661-13.009 33.684-2.313 47.829 4.378 5.795 10.456 19.797 13.503 31.113 7.52 27.92 17.391 22.645 22.369-11.949 6.859-47.68 18.298-65.991 38.809-62.145 16.244 3.047 17.606 2.009 25.935-19.8 14.464-37.882 19.096-36.037-90.518-36.037h-99.309l1.659 19.895zM429.912 426.052c-11.501 11.501-23.96 31.076-28.093 44.141l-7.427 23.481-32.103 3.87c-17.657 2.131-57.385 5.832-88.283 8.228l-56.182 4.351 53.505 3.85c29.428 2.117 68.91 5.635 87.74 7.824l34.238 3.981 6.526 22.258c10.523 35.906 27.9 55.342 64.195 71.799l33.074 14.996 3.779 76.562c2.076 42.109 6.054 78.847 8.838 81.641 3.185 3.198 5.046-0.765 5.023-10.698-0.024-8.684 2.734-46.325 6.121-83.65l6.158-67.865 33.817-16.646c34.369-16.921 51.416-34.662 61.731-64.255 7.881-22.605 32.943-32.043 86.823-32.697 23.916-0.293 56.732-2.171 72.915-4.173l29.428-3.644-48.152-3.921c-26.485-2.158-67.020-5.424-90.072-7.261-31.797-2.532-42.608-5.42-44.785-11.971-9.702-29.164-26.495-56.246-42.406-68.381-22.527-17.181-28.342-13.41-12.455 8.079 33.425 45.213-6.637 118.549-64.76 118.549-59.6 0-95.874-84.191-55.501-128.804 17.575-19.42-2.838-10.5-23.691 10.352zM622.11 589.467c-6.385 10.328-17.95 23.397-25.703 29.047-13.669 9.957-13.935 11.191-8.642 40.379 7.132 39.348 4.672 40.406-25.299 10.888l-25.177-24.796-3.054 15.304c-1.679 8.416-3.606 28.213-4.284 43.996l-1.231 28.692 39.787 1.597c45.105 1.814 49.962 0.381 42.142-12.415-4.119-6.738-1.271-27.102 10.918-78.119 17.976-75.243 18.054-82.905 0.543-54.574zM386.367 586.486c0 6.225 6.243 37.939 13.871 70.471 11.033 47.054 12.539 60.753 7.369 66.982-5.593 6.742-1.619 7.833 28.497 7.833 19.247 0 38.805 1.459 43.46 3.246 7.285 2.798 8.465-2.743 8.465-39.813 0-51.928-3.003-54.705-29.646-27.419-27.577 28.242-30.91 26.903-28.147-11.296 2.033-28.102 0.847-33.691-8.795-41.468-6.128-4.945-16.528-15.938-23.108-24.425-10.891-14.047-11.966-14.417-11.966-4.112z"></path>
</svg>
