<!-- Generated by IcoMoon.io -->
<svg version="1.1" xmlns="http://www.w3.org/2000/svg" width="1024" height="1024" viewBox="0 0 1024 1024">
<title></title>
<g id="icomoon-ignore">
</g>
<path fill="#000" d="M938.367 15.919c-39.024 30.884-92.274 90.012-108.559 120.539-24.331 45.607-34.61 43.502-76.139-15.596-25.168-35.814-52.535-64.22-76.531-79.436-32.103-20.358-32.376-15.615-1.282 22.425 72.553 88.765 84.834 211.101 27.271 271.627-12.005 12.624-17.292 12.913-41.36 2.265-63.75-28.199-155.617-28.551-222.376-0.85-74.51 30.916-93.294 7.775-93.147-114.733 0.094-78.572 4.235-96.284 33.827-144.738 23.87-39.090 23.337-37.744 11.967-30.295-14.081 9.227-55.184 57.877-82.093 97.165-40.704 59.428-60.776 56.927-97.461-12.153-28.933-54.482-85.589-96.199-131.065-96.502-21.701-0.145-24.778 6.651-4.572 10.099 48.708 8.317 97.896 64.141 85.973 97.573-6.194 17.369-12.826 18.059-46.971 4.892-47.45-18.299-44.847-3.321 3.366 19.363 105.69 49.73 173.778 136.745 125.478 160.364-20.524 10.038-71.069-2.574-86.935-21.691-6.138-7.399-19.275-7.889-19.275-0.721 0 15.468 57.993 51.226 108.206 66.722 30.12 9.293 45.143 17.76 61.084 34.423l11.216 11.724-14.074 14.414c-16.738 17.141-17.282 19.805-4.048 19.805 31.161 0 65.098 53.493 50.837 80.138-2.139 3.997-5.509 24.274-7.491 45.060-1.979 20.786-6.48 43.837-10.004 51.224l-6.403 13.428 22.728 35.532c20.81 32.536 24.722 36.538 46.392 47.433 31.234 15.703 37.71 22.094 44.057 43.468 2.928 9.861 8.164 23.42 11.636 30.132 3.47 6.712 7.135 24.498 8.142 39.532 3.946 58.818 3.472 57.522 28.925 78.791 29.2 24.399 27.81 26.859 33.339-59.081 5.66-87.948 7.867-102.388 15.883-103.93 9.094-1.753 10.854 16.536 10.9 113.274l0.043 85.521 15.39-15.028c30.107-29.398 44.232-56.614 52.656-101.449 10.817-57.585 33.048-91.177 75.015-113.361 23.119-12.221 26.914-19.807 35.904-71.739l7.073-40.872-9.568-14.033c-26.907-39.473-12.974-108.444 29.253-144.819 14.825-12.77 17.784-17.237 14.936-22.558-11.901-22.238 3.75-50.658 30.207-54.853 63.258-10.031 106.232-33.868 127.947-70.965l7.438-12.71-11.248 7.161c-6.187 3.942-14.676 10.164-18.867 13.831-38.247 33.48-100.937 23.053-100.937-16.789 0-38.427 67.223-120.391 98.739-120.391 2.098 0 13.562-3.647 25.475-8.102 23.85-8.926 22.566-12.136-6.529-16.332-24.316-3.507-33.885-13.357-33.885-34.879 0-27.519 13.256-49.261 64.28-105.426 13.331-14.676 9.492-13.086-14.763 6.109zM663.844 622.616c16.121 20.496 1.914 38.667-36.632 46.847-56.604 12.012-59.479-21.772-4.138-48.605 21.89-10.616 31.358-10.208 40.77 1.758zM461.229 632.217c31.524 19.375 39.502 51.789 11.653 47.336-33.91-5.422-63.964-23.619-63.964-38.725 0-21.567 24.634-25.623 52.311-8.61zM664.949 782.040c-25.873 29.394-30.576 66.758-20.020 159.014 4.51 39.398 4.373 41.537-3.735 58.287-10.817 22.342-7.957 24.765 8.829 7.481 34.864-35.901 57.668-102.779 57.798-169.514 0.136-70.523-13.722-88.387-42.873-55.269zM367.944 798.266c-27.484 58.716-9.137 167.913 36.158 215.191 11.512 12.017 22.636 14.4 17.852 3.825-6.282-13.892-6.377-79.888-0.141-98.892 11.364-34.631 15.203-104.491 7.75-141.072-1.579-7.75-3.951-8.572-24.775-8.572h-23.029l-13.816 29.52z"></path>
</svg>
