<!-- Generated by IcoMoon.io -->
<svg version="1.1" xmlns="http://www.w3.org/2000/svg" width="33" height="32" viewBox="0 0 33 32">
<title>bladeborn-sepulchral</title>
<path d="M17.764 29.51c0-0.717 0-1.435 0-2.156 0-0.259 0.071-0.376 0.357-0.413 2.295-0.302 4.303-1.346 5.817-2.88l0.001-0.001c0.595-0.573 1.142-1.186 1.639-1.839l0.029-0.039c0.808-1.17 1.406-2.55 1.705-4.039l0.012-0.070c0.009-0.084 0.014-0.183 0.014-0.282s-0.005-0.197-0.015-0.294l0.001 0.012c0-0.875-0.034-1.75 0-2.629 0.064-1.236-0.346-2.34-0.815-3.448-0.532-1.239-1.251-2.297-2.135-3.194l0.001 0.001c-0.83-0.844-1.789-1.558-2.845-2.111l-0.063-0.030c-0.73-0.384-1.578-0.71-2.466-0.933l-0.080-0.017c-0.207-0.053-0.417-0.083-0.627-0.116-0.417-0.068-0.537-0.169-0.541-0.601 0-1.405 0-2.81 0-4.218 0-0.075 0.071-0.154 0.105-0.229 0.038 0.079 0.079 0.158 0.113 0.24 0.376 0.8 0.721 1.6 1.071 2.404 0.068 0.16 0.205 0.279 0.372 0.322l0.004 0.001c1.007 0.346 2.070 0.537 3.005 1.101 0.739 0.415 1.366 0.828 1.963 1.278l-0.043-0.031c0.578 0.466 1.127 0.586 1.773 0.222 0.083-0.045 0.184-0.154 0.237-0.131 0.406 0.162 0.751-0.436 1.127-0.109-0.079 0.349-0.146 0.702-0.237 1.048s-0.203 0.578-0.248 0.871c-0.029 0.090-0.046 0.194-0.046 0.301 0 0.249 0.090 0.478 0.238 0.655l-0.001-0.002c0.588 0.722 1.080 1.553 1.439 2.453l0.023 0.064c0.2 0.452 0.389 0.997 0.535 1.56l0.017 0.078c0.158 0.453 0.289 0.99 0.37 1.544l0.006 0.049c0.019 0.417 0.297 0.764 0.677 0.885l0.007 0.002c0.533 0.222 1.059 0.47 1.593 0.699 0.135 0.060 0.289 0.086 0.428 0.15 0.218 0.105 0.432 0.225 0.646 0.338-0.178 0.102-0.39 0.204-0.61 0.292l-0.036 0.013c-0.804 0.267-1.503 0.796-2.348 0.965-0.162 0.075-0.281 0.219-0.319 0.394l-0.001 0.004c-0.136 1.079-0.4 2.060-0.779 2.981l0.028-0.077c-0.342 0.781-0.699 1.563-1.089 2.321-0.222 0.436-0.541 0.819-0.781 1.243-0.102 0.139-0.163 0.313-0.163 0.502 0 0.128 0.028 0.25 0.079 0.36l-0.002-0.005c0.152 0.449 0.283 0.987 0.369 1.541l0.007 0.056c0.056 0.252-0.075 0.376-0.259 0.331-0.516-0.111-0.955-0.241-1.38-0.398l0.069 0.022c-0.162-0.074-0.352-0.117-0.551-0.117-0.342 0-0.655 0.127-0.893 0.337l0.002-0.001c-1.099 0.945-2.455 1.622-3.95 1.911l-0.054 0.009c-0.163 0.048-0.304 0.105-0.438 0.175l0.013-0.006c-0.451 0.173-0.856 0.308-0.947 0.932-0.064 0.454-0.402 0.871-0.612 1.307-0.105 0.218-0.192 0.447-0.289 0.672-0.034 0.079-0.075 0.158-0.116 0.237-0.034-0.079-0.101-0.158-0.101-0.24 0-0.751 0-1.503 0-2.254z"></path>
<path d="M14.984 29.686c0 0.717 0 1.435 0 2.156 0 0.053-0.056 0.101-0.086 0.154-0.038-0.041-0.098-0.075-0.116-0.124-0.195-0.481-0.376-0.962-0.575-1.442-0.119-0.327-0.245-0.602-0.391-0.864l0.016 0.031c-0.225-0.392-0.609-0.671-1.061-0.75l-0.009-0.001c-1.51-0.339-2.832-0.993-3.948-1.893l0.018 0.014c-0.294-0.226-0.625-0.435-0.975-0.611l-0.036-0.016c-0.109-0.055-0.237-0.088-0.372-0.088-0.058 0-0.115 0.006-0.17 0.017l0.005-0.001c-0.586 0.143-1.164 0.327-1.747 0.492-0.229 0.064-0.376-0.056-0.323-0.282 0.136-0.528 0.277-0.961 0.442-1.382l-0.028 0.083c0.207-0.526 0.289-1.007-0.188-1.435-0.092-0.080-0.167-0.178-0.219-0.288l-0.002-0.005c-0.473-1.022-1.078-1.976-1.45-3.054-0.286-0.766-0.508-1.662-0.628-2.59l-0.007-0.062c-0.032-0.137-0.118-0.251-0.234-0.318l-0.002-0.001c-0.661-0.319-1.333-0.612-1.998-0.924-0.244-0.113-0.47-0.278-0.721-0.376s-0.158-0.214-0.034-0.308c0.14-0.101 0.299-0.191 0.469-0.261l0.015-0.006c0.778-0.334 1.563-0.654 2.34-0.995 0.092-0.061 0.156-0.159 0.169-0.273l0-0.002c0.030-1.409 0.571-2.678 1.127-3.922 0.439-0.892 0.918-1.658 1.463-2.37l-0.025 0.033c0.154-0.18 0.248-0.416 0.248-0.673 0-0.063-0.006-0.125-0.017-0.186l0.001 0.006c-0.12-0.593-0.304-1.172-0.455-1.762-0.005-0.050-0.009-0.107-0.009-0.165s0.003-0.116 0.009-0.172l-0.001 0.007c0.123 0.007 0.238 0.022 0.35 0.044l-0.016-0.003c0.526 0.135 1.048 0.304 1.581 0.409 0.041 0.004 0.090 0.006 0.138 0.006 0.203 0 0.397-0.040 0.575-0.111l-0.010 0.004c0.178-0.076 0.332-0.172 0.468-0.288l-0.003 0.002c0.926-0.658 1.985-1.232 3.111-1.671l0.1-0.034c0.428-0.171 0.952-0.334 1.49-0.458l0.077-0.015c0.249-0.026 0.449-0.207 0.503-0.443l0.001-0.004c0.162-0.526 0.376-1.033 0.56-1.544 0-0.060 0-0.131 0.045-0.177 0.139-0.203 0.285-0.398 0.428-0.594 0.053 0.191 0.096 0.418 0.119 0.651l0.001 0.017q0 1.735 0 3.471c0 0.56-0.056 0.522-0.612 0.725s-1.277 0.079-1.878 0.447c-0.503 0.319-1.127 0.458-1.638 0.751-0.549 0.321-1.024 0.673-1.456 1.072l0.006-0.005c-0.696 0.567-1.311 1.183-1.86 1.855l-0.018 0.023c-0.751 1.029-1.503 2.096-1.72 3.381-0.083 0.526-0.342 0.965-0.439 1.503-0.099 0.557-0.156 1.199-0.156 1.854 0 1.283 0.218 2.516 0.619 3.663l-0.024-0.078c0.372 1.065 0.827 1.986 1.38 2.838l-0.031-0.051c0.35 0.516 0.745 0.962 1.19 1.353l0.008 0.007c0.526 0.512 1.090 0.994 1.684 1.437l0.044 0.032c1.027 0.824 2.293 1.393 3.678 1.592l0.041 0.005c0.14 0.013 0.268 0.037 0.391 0.071l-0.016-0.004c0.808 0.229 0.808 0.233 0.811 1.074 0 0.593 0 1.191 0 1.784z"></path>
<path d="M21.603 14.631c-0.131 0.856-0.267 1.672-0.376 2.487-0.017 0.096-0.027 0.207-0.027 0.32 0 0.175 0.024 0.344 0.068 0.505l-0.003-0.013c0.050 0.13 0.078 0.279 0.078 0.436 0 0.319-0.119 0.61-0.316 0.831l0.001-0.001c-0.297 0.526-0.853 0.875-1.49 0.875-0.069 0-0.138-0.004-0.205-0.012l0.008 0.001c-0.349-0.034-0.56 0.214-0.597 0.642-0.030 0.342 0.026 0.691 0 1.029-0.026 0.188-0.177 0.5-0.293 0.511-0.702 0.064-1.296 0.62-2.051 0.436-0.62-0.15-1.255-0.244-1.878-0.424-0.146-0.041-0.282-0.323-0.308-0.507-0.049-0.376 0-0.751 0-1.127 0-0.443-0.12-0.541-0.548-0.571-0.124 0-0.252 0-0.376 0-0.3 0-0.594 0.053-0.875-0.203-0.409-0.401-0.741-0.878-0.973-1.41l-0.011-0.029c-0.004-0.017-0.006-0.037-0.006-0.057 0-0.076 0.029-0.144 0.077-0.195l-0 0c0.462-0.443 0.282-0.965 0.195-1.476-0.13-0.521-0.228-1.137-0.272-1.768l-0.002-0.035c0-1.104 0.12-2.201 0.838-3.125 0.021-0.022 0.038-0.048 0.048-0.077l0.001-0.002c0.316-1.469 1.604-1.728 2.731-2.137 0.408-0.128 0.878-0.202 1.365-0.202 0.063 0 0.125 0.001 0.188 0.004l-0.009-0c0.462 0.028 0.894 0.096 1.31 0.202l-0.048-0.010c0.030 0 0.075 0.177 0.053 0.195-0.214 0.173-0.409 0.334-0.331 0.665 0 0.045-0.244 0.146-0.376 0.233-0.080 0.056-0.15 0.112-0.216 0.171l0.002-0.002c0.098 0.005 0.191 0.022 0.278 0.051l-0.007-0.002c0.043 0.042 0.072 0.098 0.079 0.16l0 0.001c-0.071 0.049-0.165 0.079-0.24 0.124-0.154 0.098-0.304 0.203-0.454 0.308 0.068 0.083 0.135 0.169 0.199 0.255 0 0-0.038 0.045-0.060 0.068l-0.439 0.417c0.248 0.105 0.402-0.101 0.597-0.177 0.255-0.101 0.522-0.169 0.751-0.282 0.083-0.038 0.124-0.165 0.188-0.252-0.646-0.312 0-0.376 0.094-0.567s0.086-0.353 0.169-0.515 0.331-0.327 0.3-0.409c-0.105-0.252 0.034-0.319 0.177-0.24 0.397 0.165 0.738 0.355 1.054 0.579l-0.017-0.011c0.65 0.528 1.125 1.25 1.339 2.076l0.006 0.027c0.105 0.406 0.424 0.725 0.436 1.179 0.037 0.395 0.099 0.753 0.187 1.101l-0.011-0.049zM17.388 17.076c0.009 0.291 0.046 0.569 0.107 0.837l-0.006-0.029c0.056 0.174 0.162 0.318 0.302 0.419l0.002 0.002c0.248 0.095 0.534 0.151 0.833 0.151 0.361 0 0.704-0.080 1.010-0.224l-0.015 0.006c0.239-0.129 0.398-0.377 0.398-0.663 0-0.006-0-0.012-0-0.018l0 0.001c0-0.012 0-0.027 0-0.041 0-0.402-0.063-0.79-0.18-1.153l0.007 0.027c-0.090-0.233-0.199-0.233-0.376-0.285-0.605-0.177-1.029 0.293-1.548 0.413-0.342 0.075-0.642 0.297-0.537 0.56zM14.428 18.511c0.684 0 0.849-0.158 1.093-0.954 0.060-0.135 0.094-0.292 0.094-0.458 0-0.012-0-0.024-0.001-0.036l0 0.002c-0.057-0.244-0.241-0.435-0.476-0.502l-0.005-0.001c-0.346-0.124-0.669-0.308-1.018-0.402-0.107-0.037-0.23-0.059-0.359-0.059s-0.252 0.021-0.367 0.061l0.008-0.002c-0.511 0.255-0.631 1.273-0.267 1.72 0.331 0.349 0.783 0.582 1.288 0.63l0.008 0.001zM17.196 19.893c-0.105-0.327-0.244-0.725-0.376-1.127-0.071-0.259-0.27-0.199-0.447-0.207s-0.237 0.101-0.282 0.278c-0.094 0.349-0.267 0.68-0.349 1.029 0.002 0.184 0.042 0.358 0.112 0.515l-0.003-0.008c0.161-0.023 0.305-0.061 0.442-0.114l-0.014 0.005c0.143-0.068 0.203-0.289 0.447-0.098s0.47 0.071 0.47-0.274z"></path>
</svg>
