<!-- Generated by IcoMoon.io -->
<svg version="1.1" xmlns="http://www.w3.org/2000/svg" width="33" height="32" viewBox="0 0 33 32">
<title>bladeborn-magore</title>
<path d="M17.752 29.583c0-0.655 0.034-1.317 0-1.972-0.034-0.482 0.203-0.647 0.61-0.753 0.651-0.177 1.299-0.376 1.942-0.591 1.143-0.425 2.131-0.992 3.007-1.692l-0.021 0.017c0.903-0.676 1.673-1.469 2.304-2.365l0.022-0.033c0.437-0.642 0.824-1.376 1.126-2.153l0.026-0.075c0.209-0.531 0.409-1.182 0.561-1.85l0.018-0.096c0.156-0.645 0.246-1.387 0.246-2.149 0-0.813-0.102-1.602-0.294-2.355l0.014 0.066c-0.7-3.227-2.698-5.89-5.408-7.462l-0.054-0.029c-1.017-0.611-2.213-1.041-3.49-1.214l-0.048-0.005c-0.376-0.053-0.561-0.151-0.557-0.557 0-1.348 0-2.695 0-4.039 0-0.090 0.105-0.181 0.158-0.267 0.075 0.053 0.181 0.090 0.215 0.162 0.279 0.621 0.587 1.238 0.802 1.882 0.11 0.456 0.486 0.8 0.95 0.861l0.006 0.001c1.747 0.431 3.273 1.198 4.575 2.236l-0.024-0.018c0.282 0.248 0.654 0.399 1.061 0.399 0.213 0 0.416-0.041 0.602-0.116l-0.011 0.004c0.346-0.132 0.704-0.237 1.062-0.343s0.444-0.023 0.437 0.346c-0.008 0.196-0.041 0.381-0.098 0.557l0.004-0.014c-0.13 0.468-0.259 0.843-0.405 1.21l0.028-0.080c-0.043 0.104-0.068 0.225-0.068 0.352 0 0.267 0.111 0.508 0.29 0.679l0 0c0.791 0.984 1.406 2.147 1.774 3.416l0.017 0.070c0.244 0.663 0.44 1.443 0.554 2.25l0.007 0.062c0.041 0.422 0.376 0.67 0.806 0.821 0.843 0.305 1.675 0.636 2.511 0.96 0.045 0.019 0.079 0.072 0.12 0.109-0.049 0.038-0.090 0.094-0.143 0.105-0.885 0.196-1.551 0.896-2.477 1.016-0.45 0.074-0.793 0.449-0.817 0.909l-0 0.002c-0.182 1.050-0.443 1.98-0.787 2.868l0.035-0.101c-0.393 1.155-0.951 2.154-1.656 3.030l0.015-0.019c-0.316 0.425-0.531 0.783-0.309 1.344 0.126 0.397 0.218 0.861 0.258 1.339l0.002 0.024c0.072 0.437-0.049 0.542-0.489 0.418-0.416-0.105-0.769-0.223-1.109-0.365l0.051 0.019c-0.153-0.082-0.334-0.131-0.527-0.131-0.306 0-0.583 0.122-0.787 0.319l0-0c-1.174 1.129-2.68 1.637-4.175 2.1-0.798 0.252-1.276 0.625-1.506 1.423-0.239 0.679-0.479 1.237-0.751 1.776l0.039-0.086c-0.045 0.079-0.096 0.147-0.155 0.207l0-0c-0.044-0.074-0.076-0.16-0.093-0.251l-0.001-0.005c0-0.719 0-1.438 0-2.161z"></path>
<path d="M14.933 1.558c0.087 0.614 0.181 1.223 0.248 1.837 0.009 0.127 0.014 0.274 0.014 0.423s-0.005 0.297-0.015 0.443l0.001-0.020c0.001 0.015 0.002 0.032 0.002 0.049 0 0.308-0.249 0.557-0.557 0.557-0.003 0-0.007-0-0.010-0h0.001c-2.718 0.35-4.875 1.739-6.64 3.742-1.019 1.138-1.797 2.514-2.24 4.033l-0.018 0.074c-0.252 0.881-0.271 1.769-0.478 2.635-0.102 0.429 0.064 0.918 0.098 1.381 0.207 2.688 1.352 5.074 3.104 6.864l-0.002-0.002c0.821 0.85 1.764 1.574 2.804 2.145l0.061 0.031c0.795 0.393 1.724 0.733 2.693 0.974l0.097 0.020c0.802 0.215 0.798 0.173 0.907 0.998 0.045 0.274 0.071 0.589 0.071 0.911s-0.026 0.637-0.075 0.945l0.004-0.034c-0.075 0.437 0.132 0.915 0.143 1.374 0 0.305 0.177 0.685-0.207 0.915-0.126-0.186-0.258-0.408-0.379-0.636l-0.020-0.041c-0.25-0.467-0.494-1.024-0.696-1.6l-0.026-0.086c-0.071-0.273-0.281-0.484-0.548-0.556l-0.005-0.001c-0.787-0.275-1.596-0.493-2.371-0.798-0.499-0.216-0.925-0.454-1.325-0.729l0.027 0.017c-0.576-0.376-1.129-0.753-1.694-1.129-0.113-0.098-0.262-0.158-0.425-0.158-0.093 0-0.181 0.019-0.26 0.054l0.004-0.002c-0.38 0.123-0.864 0.246-1.359 0.341l-0.083 0.013c-0.156 0.023-0.338 0.036-0.522 0.038h-0.001c-0-0.007-0-0.016-0-0.024 0-0.168 0.015-0.333 0.044-0.493l-0.003 0.017c0.083-0.331 0.207-0.651 0.297-0.979 0.061-0.169 0.096-0.365 0.096-0.568 0-0.38-0.122-0.732-0.329-1.018l0.003 0.005c-0.861-1.309-1.57-2.82-2.047-4.43l-0.031-0.121c-0.032-0.137-0.051-0.294-0.051-0.456 0-0.069 0.003-0.137 0.010-0.204l-0.001 0.009c0.001-0.023 0.002-0.050 0.002-0.077 0-0.622-0.417-1.147-0.986-1.31l-0.010-0.002c-0.693-0.271-1.359-0.61-2.033-0.926-0.097-0.062-0.18-0.134-0.251-0.217l-0.001-0.001c0.066-0.055 0.14-0.106 0.218-0.15l0.008-0.004c0.425-0.188 0.851-0.376 1.28-0.553 0.122-0.057 0.267-0.11 0.417-0.15l0.019-0.004c0.873-0.207 1.269-0.787 1.336-1.649 0.15-1.053 0.451-2.004 0.883-2.879l-0.025 0.055c0.358-0.959 0.837-1.788 1.432-2.519l-0.013 0.016c0.216-0.211 0.349-0.506 0.349-0.831 0-0.165-0.034-0.322-0.096-0.464l0.003 0.008c-0.123-0.366-0.217-0.795-0.265-1.237l-0.002-0.027c-0.009-0.040-0.015-0.087-0.015-0.134 0-0.114 0.031-0.221 0.084-0.313l-0.002 0.003c0.053-0.064 0.267-0.023 0.407 0 0.301 0.042 0.573 0.114 0.83 0.216l-0.025-0.008c0.216 0.124 0.474 0.197 0.75 0.197 0.396 0 0.756-0.15 1.028-0.397l-0.001 0.001c1.182-0.918 2.594-1.6 4.134-1.948l0.071-0.014c0.843-0.2 1.107-0.794 1.397-1.43 0.203-0.444 0.376-0.907 0.553-1.355 0.030-0.079 0.117-0.132 0.177-0.196 0.047 0.066 0.082 0.145 0.101 0.229l0.001 0.004c0 0.437 0 0.877 0 1.314z"></path>
<path d="M18.129 18.547c0-0.629 0.030-1.257-0.019-1.882 0-0.237-0.233-0.459-0.358-0.689-0.162 0.215-0.44 0.414-0.463 0.64-0.109 1.11-0.143 2.232-0.215 3.346-0.002 0.025-0.003 0.055-0.003 0.085 0 0.296 0.116 0.564 0.305 0.763l-0-0c0.376 0.433 0.339 0.632 0.041 1.069s-0.478 0.794-0.753 1.182c-0.047 0.030-0.104 0.049-0.166 0.049-0.038 0-0.074-0.007-0.107-0.019l0.002 0.001c-0.343-0.583-0.678-1.171-0.99-1.773-0.034-0.064 0.056-0.222 0.124-0.309 0.214-0.295 0.343-0.664 0.343-1.063 0-0.060-0.003-0.12-0.009-0.179l0.001 0.007c0-0.719 0.023-1.442 0-2.161-0.031-0.5-0.112-0.966-0.237-1.414l0.011 0.047c-0.082-0.153-0.237-0.258-0.416-0.271l-0.002-0c-0.174 0.048-0.311 0.173-0.375 0.335l-0.001 0.004c-0.027 0.127-0.043 0.273-0.043 0.423 0 0.082 0.005 0.163 0.014 0.242l-0.001-0.010c0 1.095 0 2.191 0 3.286-0.015 0.098-0.043 0.187-0.082 0.269l0.002-0.006c-0.105-0.045-0.248-0.064-0.309-0.143-0.346-0.459-0.655-0.839-0.493-1.566 0.203-0.926 0.056-1.931 0.053-2.902 0.001-0.011 0.001-0.025 0.001-0.038 0-0.116-0.039-0.223-0.104-0.309l0.001 0.001c-0.149-0.115-0.317-0.22-0.494-0.308l-0.018-0.008c-0.083 0.158-0.226 0.312-0.23 0.474-0.026 0.719 0 1.442 0 2.161 0 0.252 0 0.501 0 0.753s-0.12 0.267-0.301 0.136c-0.049-0.038-0.090-0.087-0.139-0.128-0.335-0.275-0.802-0.489-0.964-0.847s0.030-0.821 0.019-1.242c-0.023-0.681-0.094-1.363-0.113-2.044 0.017-0.137 0.098-0.252 0.212-0.315l0.002-0.001c0.221-0.081 0.491-0.157 0.769-0.212l0.037-0.006c0.46-0.127 0.839-0.418 1.076-0.805l0.005-0.008c0.113-0.177 0.072-0.407-0.188-0.403-0.546 0-1.129-0.184-1.615 0.252-0.184 0.166-0.346 0.026-0.376-0.207 0-0.158 0-0.316 0-0.471 0-0.301-0.166-0.719-0.023-0.877 0.286-0.328 0.516 0.147 0.79 0.237 0.956 0.305 2.259-0.045 2.729-0.753 0.241-0.343 0.222-0.572-0.128-0.753-0.254-0.135-0.551-0.228-0.866-0.263l-0.011-0.001c-0.196-0.012-0.426-0.018-0.657-0.018s-0.461 0.007-0.688 0.020l0.031-0.001c-0.049-0.009-0.106-0.014-0.164-0.014-0.264 0-0.503 0.108-0.676 0.281l-0 0c-0.203 0.226-0.474 0.075-0.512-0.237-0.008-0.099-0.013-0.213-0.013-0.329s0.005-0.231 0.014-0.344l-0.001 0.015c0-0.433 0-0.418 0.478-0.279 0.181 0.048 0.389 0.076 0.604 0.076 0.014 0 0.028-0 0.042-0l-0.002 0c0.595 0 1.19 0 1.784 0 0.188 0 0.444 0.049 0.546-0.049 0.489-0.467 0.79-0.181 1.156 0.173 0.501 0.486 0.557 0.482 1.035-0.026 0.339-0.376 0.64-0.546 1.129-0.241 0.164 0.089 0.358 0.141 0.565 0.141 0.021 0 0.042-0.001 0.063-0.002l-0.003 0c0.843 0 1.686 0 2.53-0.053 0.203 0 0.29 0 0.305 0.203 0.004 0.056 0.006 0.122 0.006 0.188s-0.002 0.132-0.006 0.197l0-0.009c0 0.245-0.049 0.489-0.075 0.734-0.182-0.099-0.395-0.191-0.617-0.263l-0.027-0.008c-0.945-0.237-1.882-0.331-2.816 0.105-0.376 0.173-0.399 0.433-0.158 0.753 0.307 0.481 0.838 0.795 1.442 0.795 0.022 0 0.045-0 0.067-0.001l-0.003 0c0.617-0.030 1.25 0.083 1.814-0.301 0.136-0.090 0.301-0.087 0.264 0.177-0.034 0.216-0.060 0.476-0.071 0.739l-0 0.014c-0.026 0.655 0 0.621-0.681 0.471-0.23-0.046-0.495-0.073-0.767-0.073-0.156 0-0.309 0.009-0.46 0.026l0.019-0.002c-0.343 0.026-0.376 0.309-0.162 0.599 0.354 0.452 0.873 0.583 1.37 0.753 0.636 0.215 0.572 0.196 0.538 0.809-0.011 0.203-0.018 0.441-0.018 0.68 0 0.578 0.038 1.147 0.112 1.705l-0.007-0.066c0.060 0.444 0.019 0.715-0.403 0.896-0.169 0.101-0.316 0.206-0.452 0.323l0.004-0.004c-0.188 0.128-0.376 0.248-0.576 0.376-0.048-0.215-0.079-0.465-0.086-0.721l-0-0.005c0.038-0.583 0.136-1.167 0.166-1.754 0-0 0-0.001 0-0.001 0-0.257-0.055-0.501-0.155-0.721l0.004 0.011c-0.094-0.162-0.206-0.3-0.334-0.421l-0.001-0.001c-0.192 0.147-0.361 0.306-0.512 0.481l-0.004 0.004c-0.079 0.109-0.038 0.301-0.038 0.459 0 0.753-0.023 1.506 0 2.259 0.009 0.286 0.087 0.552 0.219 0.784l-0.004-0.008c0.062 0.072 0.099 0.166 0.099 0.269 0 0.124-0.054 0.235-0.14 0.31l-0 0c-0.294 0.309-0.576 0.625-0.866 0.941-0.049-0.444-0.109-0.885-0.143-1.329-0.019-0.279 0-0.561 0-0.843z"></path>
</svg>
