<!-- Generated by IcoMoon.io -->
<svg version="1.1" xmlns="http://www.w3.org/2000/svg" width="33" height="32" viewBox="0 0 33 32">
<title>bladeborn-hedkrakka</title>
<path d="M17.764 29.493c0-0.654 0-1.312 0-1.969 0-0.349 0.038-0.537 0.477-0.598 1.26-0.194 2.391-0.604 3.406-1.194l-0.046 0.025c1.455-0.771 2.665-1.823 3.595-3.094l0.021-0.029c0.616-0.834 1.146-1.789 1.546-2.809l0.029-0.085c0.282-0.804 0.613-1.601 0.556-2.495-0.045-0.778-0.034-1.563 0-2.345 0.005-0.085 0.008-0.184 0.008-0.283 0-0.711-0.141-1.388-0.396-2.007l0.013 0.035c-0.447-1.075-0.774-2.225-1.503-3.138s-1.432-1.879-2.507-2.462c-0.672-0.383-1.247-0.771-1.79-1.196l0.032 0.024c-0.481-0.376-1.079-0.395-1.605-0.631-0.436-0.16-0.967-0.307-1.513-0.413l-0.070-0.011c-0.090-0.026-0.165-0.154-0.21-0.252-0.008-0.042-0.013-0.090-0.013-0.139s0.005-0.097 0.014-0.144l-0.001 0.005c0-1.315 0-2.631 0-3.938 0.015-0.13 0.044-0.248 0.086-0.36l-0.003 0.010 0.162 0.376c0.207 0.391 0.417 0.865 0.594 1.354l0.026 0.082c0.286 0.988 1.090 1.266 1.928 1.503 1.228 0.316 2.3 0.853 3.226 1.571l-0.020-0.015c0.333 0.256 0.709 0.504 1.102 0.726l0.048 0.025c0.094 0.046 0.205 0.072 0.321 0.072 0.066 0 0.13-0.009 0.191-0.025l-0.005 0.001c0.594-0.143 1.176-0.327 1.766-0.47 0.169-0.041 0.376-0.056 0.252 0.278s-0.105 0.804-0.267 1.157c-0.443 0.955 0.034 1.635 0.594 2.311 0.078 0.084 0.147 0.179 0.203 0.282l0.004 0.007c0.646 1.417 1.368 2.804 1.503 4.412-0 0.012-0.001 0.026-0.001 0.040 0 0.541 0.389 0.992 0.903 1.087l0.007 0.001c0.299 0.117 0.546 0.234 0.785 0.366l-0.033-0.017c0.541 0.207 1.090 0.376 1.639 0.575l0.165 0.071-0.154 0.162c-0.534 0.507-1.266 0.605-1.879 0.925-0.079 0.041-0.18 0.038-0.267 0.071-0.657 0.238-1.13 0.829-1.195 1.538l-0 0.007c-0.323 1.684-0.808 3.333-1.902 4.728-0.249 0.329-0.497 0.703-0.723 1.092l-0.029 0.054c-0.022 0.060-0.035 0.13-0.035 0.203s0.013 0.143 0.037 0.207l-0.001-0.004c0.141 0.661 0.303 1.221 0.499 1.765l-0.029-0.092c0.169 0.421-0.038 0.421-0.308 0.376-0.433-0.045-0.829-0.128-1.207-0.248l0.042 0.012c-0.173-0.081-0.375-0.128-0.588-0.128-0.333 0-0.639 0.115-0.88 0.307l0.003-0.002c-0.571 0.387-1.243 0.789-1.938 1.154l-0.118 0.056c-0.719 0.411-1.554 0.724-2.441 0.894l-0.051 0.008c-0.405 0.046-0.731 0.341-0.822 0.726l-0.001 0.006c-0.252 0.722-0.609 1.406-0.924 2.105-0.036 0.048-0.078 0.089-0.126 0.123l-0.002 0.001c-0.030-0.053-0.083-0.109-0.083-0.162 0-0.718 0-1.436 0-2.157z"></path>
<path d="M14.995 2.394c0 0.564 0 1.127 0 1.691s-0.041 0.522-0.571 0.778c-0.725 0.353-1.533 0.376-2.274 0.699-1.213 0.525-2.257 1.196-3.173 2.006l0.012-0.011c-0.413 0.376-0.808 0.782-1.191 1.195-0.613 0.685-1.135 1.47-1.535 2.324l-0.025 0.059c-0.318 0.73-0.608 1.601-0.823 2.502l-0.022 0.11c-0.085 0.295-0.138 0.636-0.146 0.988l-0 0.005c-0.023 0.688 0 1.375 0 2.067 0.023 0.973 0.229 1.892 0.586 2.732l-0.018-0.049c0.514 1.74 1.473 3.217 2.745 4.347l0.009 0.008c0.599 0.596 1.264 1.126 1.982 1.58l0.048 0.028c1.037 0.598 2.067 1.221 3.307 1.312 0.21 0 0.406 0.143 0.616 0.177 0.376 0.064 0.489 0.316 0.485 0.669 0 1.375 0 2.755 0 4.134-0.015 0.096-0.044 0.182-0.085 0.26l0.002-0.005c-0.094-0.071-0.252-0.132-0.271-0.222-0.221-0.897-0.55-1.686-0.98-2.408l0.022 0.040c-0.114-0.24-0.315-0.423-0.561-0.513l-0.007-0.002c-0.342-0.124-0.718-0.15-1.067-0.263-1.212-0.424-2.262-0.972-3.216-1.647l0.040 0.027c-0.402-0.271-0.891-0.406-1.206-0.819-0.053-0.068-0.271-0.060-0.376-0.023-0.556 0.165-1.105 0.357-1.661 0.534-0.349 0.109-0.481 0.023-0.41-0.323 0.086-0.497 0.217-0.938 0.391-1.357l-0.015 0.042c0.096-0.163 0.153-0.358 0.153-0.568 0-0.304-0.12-0.579-0.315-0.782l0 0c-0.71-0.857-1.075-1.917-1.548-2.916-0.381-0.879-0.648-1.898-0.749-2.966l-0.003-0.040c-0.017-0.215-0.157-0.393-0.35-0.465l-0.004-0.001c-0.579-0.278-1.15-0.564-1.725-0.849-0.162-0.079-0.331-0.147-0.489-0.229s-0.583-0.248-0.571-0.334c0.045-0.376 0.428-0.334 0.699-0.447 0.654-0.263 1.285-0.586 1.935-0.857 0.295-0.094 0.505-0.364 0.507-0.684v-0c0.053-0.541 0.248-1.067 0.342-1.608 0.225-0.973 0.556-1.83 0.989-2.624l-0.027 0.054c0.313-0.634 0.689-1.179 1.132-1.662l-0.005 0.005c0.215-0.196 0.349-0.477 0.349-0.789 0-0.141-0.027-0.275-0.077-0.398l0.003 0.007c-0.169-0.489-0.323-0.985-0.466-1.503-0.090-0.301 0.098-0.507 0.376-0.436 0.564 0.143 1.127 0.271 1.676 0.466 0.073 0.033 0.158 0.052 0.248 0.052 0.163 0 0.311-0.063 0.421-0.165l-0 0c0.566-0.435 1.203-0.843 1.875-1.195l0.072-0.034c0.83-0.446 1.794-0.831 2.804-1.105l0.097-0.023c0.371-0.067 0.668-0.326 0.787-0.669l0.002-0.007c0.263-0.65 0.537-1.304 0.816-1.95 0.041-0.086 0.154-0.143 0.229-0.214 0.060 0.094 0.165 0.188 0.169 0.282 0 0.658 0 1.315 0 1.969z"></path>
<path d="M18.7 14.927c-0.774-0.286-1.503-0.237-2.082 0.376-0.259 0.274-0.466 0.252-0.68-0.023-0.522-0.669-1.18-0.613-1.879-0.376l-0.056 0.053c-0.451 0.064-0.913 0.101-1.357 0.199-0.376 0.079-0.522 0.436-0.624 0.722s-0.188 0.605-0.59 0.567c-0.446-0.021-0.801-0.388-0.801-0.837 0-0.004 0-0.008 0-0.013v0.001c0-0.060 0-0.124 0-0.184 0-0.812 0-0.827-0.812-1.015-0.274-0.064-0.455-0.177-0.496-0.462-0.113-0.77 0.827-1.879 1.608-1.819 0.312 0.057 0.581 0.209 0.785 0.424l0.001 0.001c0.203 0.199 0.064 0.447-0.124 0.658-0.075 0.086-0.12 0.334-0.068 0.376 0.128 0.105 0.376 0.229 0.474 0.177 0.185-0.073 0.398-0.116 0.622-0.116s0.437 0.042 0.634 0.12l-0.012-0.004c0.661 0.15 1.36 0.162 1.841-0.53 0.162-0.229 0.286-0.376 0.090-0.639-0.029-0.055-0.046-0.12-0.046-0.188 0-0.029 0.003-0.057 0.009-0.085l-0 0.003c0.184-1.274-0.609-2.131-1.274-3.048-0.049-0.083-0.092-0.179-0.125-0.279l-0.003-0.010c0.13 0.014 0.244 0.032 0.356 0.057l-0.021-0.004c0.84 0.201 1.544 0.688 2.019 1.35l0.007 0.010c0.15 0.222 0.241 0.241 0.41 0.075s0.455-0.428 0.661-0.661c0.338-0.434 0.857-0.715 1.441-0.729l0.002-0h0.301c-0.049 0.109-0.068 0.248-0.147 0.319-0.344 0.34-0.628 0.739-0.835 1.181l-0.011 0.025c-0.192 0.336-0.305 0.738-0.305 1.166 0 0.025 0 0.049 0.001 0.074l-0-0.004c0.001 0.017 0.001 0.037 0.001 0.058 0 0.239-0.044 0.467-0.125 0.677l0.004-0.013c-0.031 0.064-0.049 0.139-0.049 0.219 0 0.146 0.061 0.277 0.158 0.371l0 0c0.184 0.203 0.316 0.564 0.519 0.605 0.209 0.050 0.449 0.079 0.695 0.079s0.486-0.029 0.716-0.083l-0.021 0.004c0.179-0.078 0.387-0.124 0.607-0.124 0.198 0 0.387 0.037 0.561 0.105l-0.011-0.004c0.083 0.041 0.226 0 0.327-0.053s0.376-0.098 0.162-0.35c-0.089-0.109-0.169-0.233-0.235-0.364l-0.005-0.012c-0.037-0.053-0.059-0.119-0.059-0.19 0-0.014 0.001-0.027 0.002-0.041l-0 0.002c0.24-0.312 0.59-0.53 0.99-0.596l0.009-0.001c0.526 0.038 1.481 0.887 1.575 1.402 0.105 0.575-0.060 0.812-0.628 0.891-0.665 0.094-0.924 0.443-0.853 1.127 0.014 0.053 0.021 0.115 0.021 0.178 0 0.415-0.337 0.752-0.752 0.752-0.041 0-0.081-0.003-0.12-0.009l0.004 0.001c-0.226-0.019-0.297-0.12-0.349-0.338-0.173-0.703-0.451-0.917-1.127-0.985-0.352-0.051-0.653-0.114-0.948-0.193l0.057 0.013z"></path>
<path d="M18.753 14.98c0.266 0.743 0.534 1.687 0.747 2.651l0.031 0.167c0.103 0.354 0.162 0.761 0.162 1.182s-0.059 0.828-0.17 1.213l0.008-0.031c-0.158 0.526-0.256 1.067-0.398 1.597-0.064 0.256-0.161 0.482-0.288 0.687l0.006-0.010c-0.064 0.105-0.248 0.135-0.376 0.199-0.060-0.090-0.105-0.196-0.13-0.309l-0.001-0.006c0-0.312 0-0.628 0-0.94-0.060-0.673-0.158-1.342-0.226-2.014-0.086-0.849-0.628-1.451-1.127-2.078-0.752-0.936-0.665-1.191 0.188-1.996 0.492-0.462 1.007-0.312 1.53-0.376z"></path>
<path d="M14.059 14.927c0.481 0.034 0.943-0.049 1.402 0.323 0.733 0.594 0.906 1.293 0.308 2.029-0.173 0.218-0.376 0.406-0.567 0.616-0.53 0.609-0.631 1.383-0.752 2.127s-0.132 1.409-0.203 2.112c-0.037 0.175-0.086 0.329-0.149 0.475l0.006-0.016c-0.135-0.124-0.323-0.226-0.376-0.376-0.132-0.304-0.192-0.643-0.293-0.962-0.212-0.648-0.335-1.394-0.335-2.169 0-0.519 0.055-1.025 0.159-1.512l-0.008 0.047c0.033-0.617 0.168-1.194 0.389-1.726l-0.013 0.035c-0.203-0.451 0.425-0.564 0.376-0.947z"></path>
<path d="M18.719 13.664c-0.036 0.006-0.077 0.009-0.12 0.009-0.398 0-0.729-0.289-0.793-0.669l-0.001-0.005c-0.098-0.312 0.098-0.925 0.451-1.022 0.977-0.267 1.654-0.917 2.315-1.612 0.038-0.034 0.128-0.064 0.158-0.045 0.044 0.037 0.072 0.093 0.072 0.155 0 0.002-0 0.005-0 0.007v-0c-0.042 0.364-0.116 0.695-0.221 1.012l0.010-0.035c-0.233 0.582-0.485 1.077-0.776 1.545l0.024-0.042c-0.248 0.395-0.556 0.823-1.12 0.703z"></path>
<path d="M13.792 13.653c-0.132-0.007-0.252-0.053-0.351-0.125l0.002 0.001c-0.825-0.73-1.379-1.751-1.502-2.9l-0.002-0.020c0-0.098 0.079-0.199 0.12-0.297 0.084 0.046 0.156 0.101 0.218 0.165l0 0c0.448 0.632 1.065 1.118 1.785 1.396l0.027 0.009c0.181 0.059 0.334 0.16 0.454 0.292l0.001 0.001c0.173 0.207 0.579 0.319 0.338 0.752s-0.38 0.778-1.090 0.725z"></path>
</svg>
