<!-- Generated by IcoMoon.io -->
<svg version="1.1" xmlns="http://www.w3.org/2000/svg" width="33" height="32" viewBox="0 0 33 32">
<title>bladeborn-steelheart</title>
<path d="M17.863 29.656c0.015-0.268 0.024-0.582 0.024-0.897s-0.009-0.629-0.026-0.941l0.002 0.043c-0.068-0.613 0.345-0.708 0.757-0.848 0.962-0.329 1.988-0.534 2.877-0.996 2.54-1.271 4.488-3.412 5.48-6.023l0.025-0.076c0.469-1.167 0.741-2.521 0.741-3.937 0-0.388-0.020-0.771-0.060-1.149l0.004 0.047c-0.214-2.080-0.976-3.95-2.137-5.504l0.021 0.029c-0.986-1.397-2.255-2.529-3.729-3.33l-0.057-0.029c-0.96-0.458-2.094-0.871-3.271-1.178l-0.136-0.030c-0.379-0.11-0.515-0.212-0.511-0.591 0-1.291 0-2.582 0-3.877 0.008-0.13 0.025-0.25 0.052-0.367l-0.003 0.015c0.107 0.097 0.2 0.205 0.28 0.323l0.004 0.006c0.245 0.467 0.489 1.031 0.694 1.614l0.029 0.094c0.116 0.485 0.508 0.853 0.996 0.934l0.007 0.001c1.749 0.467 3.277 1.231 4.606 2.242l-0.032-0.023c0.305 0.258 0.703 0.414 1.137 0.414 0.189 0 0.371-0.030 0.541-0.084l-0.013 0.003c0.352-0.102 0.712-0.186 1.068-0.269s0.481 0.14 0.405 0.428c-0.155 0.571-0.31 1.032-0.488 1.482l0.034-0.096c-0.040 0.1-0.064 0.216-0.064 0.337 0 0.236 0.089 0.451 0.235 0.614l-0.001-0.001c1.246 1.757 2.177 3.661 2.393 5.846 0.017 0.453 0.312 0.833 0.719 0.975l0.008 0.002 2.491 0.969c0.057 0.019 0.117 0.030 0.178 0.045-0.061 0.068-0.11 0.163-0.186 0.193-0.674 0.292-1.348 0.587-2.037 0.848-0.68 0.193-1.176 0.791-1.215 1.51l-0 0.004c-0.175 1.623-0.761 3.083-1.65 4.308l0.018-0.026c-0.329 0.443-0.663 0.951-0.969 1.478l-0.042 0.078c-0.071 0.117-0.114 0.258-0.114 0.409 0 0.039 0.003 0.077 0.008 0.114l-0-0.004c0.133 0.564 0.299 1.136 0.469 1.681 0.106 0.341-0.026 0.515-0.348 0.451-0.497-0.088-0.94-0.227-1.357-0.416l0.035 0.014c-0.473-0.231-0.757-0.117-1.177 0.182-1.405 1.034-2.889 1.942-4.627 2.306-0.466 0.099-0.837 0.431-0.989 0.865l-0.003 0.009q-0.379 0.886-0.814 1.761c-0.066 0.118-0.13 0.217-0.199 0.312l0.006-0.009c-0.032-0.117-0.057-0.256-0.071-0.398l-0.001-0.010c-0.023-0.617-0.019-1.249-0.019-1.878z"></path>
<path d="M5.982 7.247c-0.136-0.583-0.265-1.060-0.352-1.545-0.011-0.11-0.017-0.238-0.017-0.367s0.006-0.257 0.018-0.383l-0.001 0.016c0.204 0.045 0.413 0.080 0.613 0.14s0.458 0.193 0.697 0.257c0.174 0.058 0.373 0.091 0.581 0.091 0.493 0 0.942-0.189 1.279-0.498l-0.001 0.001c1.017-0.834 2.24-1.455 3.581-1.778l0.062-0.013c1.083-0.257 1.673-0.795 1.867-1.893 0.068-0.398 0.409-0.757 0.625-1.113 0.095 0.388 0.17 0.853 0.21 1.329l0.002 0.034c0 0.924 0 1.851-0.064 2.771-0.048 0.215-0.193 0.388-0.386 0.475l-0.004 0.002c-0.78 0.284-1.59 0.496-2.378 0.757-2.408 0.84-4.165 2.476-5.497 4.6-0.834 1.379-1.38 3.019-1.512 4.775l-0.002 0.037c-0.042 0.36-0.066 0.777-0.066 1.2 0 2.648 0.933 5.078 2.489 6.978l-0.016-0.020c1.157 1.477 2.686 2.613 4.447 3.275l0.070 0.023c0.693 0.25 1.424 0.379 2.135 0.591 0.469 0.133 0.909 0.299 0.814 0.939-0.086 0.435-0.144 0.944-0.162 1.464l-0 0.017c0 0.647 0.106 1.295 0.144 1.946-0.006 0.226-0.032 0.442-0.076 0.652l0.004-0.023c-0.147-0.129-0.273-0.277-0.374-0.442l-0.005-0.008c-0.182-0.385-0.35-0.842-0.478-1.315l-0.014-0.059c-0.208-0.833-0.757-1.174-1.556-1.344-1.143-0.251-2.151-0.705-3.033-1.324l0.027 0.018c-0.542-0.437-1.149-0.842-1.791-1.191l-0.064-0.032c-0.329-0.148-0.829 0.072-1.249 0.144-0.117 0.019-0.216 0.117-0.333 0.151-0.307 0.095-0.617 0.174-0.928 0.257 0.024-0.35 0.093-0.676 0.201-0.984l-0.008 0.026c0.168-0.318 0.266-0.696 0.266-1.096 0-0.578-0.205-1.107-0.546-1.52l0.003 0.004c-0.984-1.401-1.658-3.088-1.887-4.913l-0.006-0.054c-0.022-0.651-0.484-1.189-1.096-1.327l-0.009-0.002c-0.762-0.261-1.409-0.549-2.025-0.886l0.068 0.034c-0.078-0.052-0.146-0.112-0.203-0.18l-0.001-0.001c0.076-0.068 0.14-0.167 0.231-0.204 0.447-0.216 1.010-0.445 1.588-0.643l0.116-0.034c0.728-0.186 1.271-0.803 1.344-1.556l0.001-0.007c0.332-2.063 1.139-3.893 2.305-5.437l-0.022 0.031c0.149-0.241 0.277-0.52 0.371-0.813l0.008-0.027z"></path>
<path d="M16.678 18.802c0 1.196 0 2.397 0 3.593 0 0.526 0.125 1.045 0.174 1.571 0.030 0.329 0 0.681-0.439 0.685s-0.485-0.348-0.443-0.678c0.405-3.010 0.091-6.031 0.17-9.045-0.009-0.694-0.082-1.365-0.212-2.016l0.012 0.070c-0.024-0.239-0.224-0.425-0.467-0.425-0.090 0-0.175 0.026-0.246 0.070l0.002-0.001c-0.379 0.204-0.716 1.17-0.477 1.549 0.416 0.659 0.257 1.189-0.182 1.749-0.189 0.297-0.38 0.647-0.548 1.010l-0.024 0.057c-0.097 0.14-0.156 0.313-0.156 0.5 0 0.203 0.069 0.39 0.184 0.539l-0.002-0.002c0.060 0.122 0.095 0.265 0.095 0.416s-0.035 0.295-0.098 0.422l0.002-0.006c-0.379 0.666-0.863 1.28-1.318 1.893-0.082 0.079-0.177 0.145-0.281 0.194l-0.007 0.003c0-0.121-0.053-0.257 0-0.356 0.231-0.504 0.488-0.992 0.731-1.492 0.216-0.443 0.345-0.856-0.212-1.193-0.079-0.101-0.127-0.23-0.127-0.37 0-0.070 0.012-0.136 0.034-0.199l-0.001 0.004c0.221-0.52 0.475-0.967 0.772-1.38l-0.014 0.021c0.356-0.477 0.424-0.924 0-1.333s-0.299-0.776-0.083-1.185c0.379-0.708 0.757-1.42 1.136-2.113 0.216-0.379 0.148-0.519-0.269-0.519h-0.072c-0.432 0-1.102 0.151-1.242-0.053-0.223-0.329-0.11-0.897-0.121-1.367 0-0.568 0-1.136 0-1.7 0-0.133 0.17-0.379 0.257-0.379 2.007 0.027 4.013 0.098 6.020 0.11 0.5 0 0.708 0.068 0.674 0.629-0.053 0.848 0 1.7 0 2.552 0 0.242-0.030 0.458-0.379 0.265-0.114-0.047-0.247-0.075-0.386-0.075-0.027 0-0.053 0.001-0.079 0.003l0.003-0c-1.079-0.019-1.079 0-0.598 0.954 0.333 0.663 0.674 1.321 0.996 1.988 0.047 0.091 0.075 0.198 0.075 0.312 0 0.254-0.139 0.476-0.345 0.595l-0.003 0.002c-0.515 0.379-0.401 0.757-0.068 1.177 0.239 0.31 0.42 0.67 0.632 1.007s0.519 0.727 0 1.189c-0.186 0.159-0.148 0.693-0.061 1.015 0.208 0.622 0.418 1.133 0.657 1.628l-0.036-0.083c0.032 0.094 0.056 0.205 0.068 0.319l0.001 0.007c-0.108-0.065-0.201-0.139-0.284-0.223l-0-0c-0.447-0.621-0.905-1.234-1.299-1.893-0.068-0.119-0.108-0.261-0.108-0.412 0-0.125 0.027-0.244 0.076-0.35l-0.002 0.005c0.379-0.477 0.257-0.825-0.064-1.253-0.191-0.31-0.391-0.682-0.569-1.066l-0.029-0.069c-0.451-0.791-0.458-0.787 0.148-1.579 0.038-0.045 0.14-0.102 0.136-0.11-0.307-0.541-0.625-1.075-0.939-1.613-0.239 0.254-0.568 0.409-0.579 0.856-0.034 1.473-0.117 2.942-0.178 4.411-0.023 0.409-0.008 0.788-0.008 1.166z"></path>
</svg>
