<!-- Generated by IcoMoon.io -->
<svg version="1.1" xmlns="http://www.w3.org/2000/svg" width="33" height="32" viewBox="0 0 33 32">
<title>bladeborn-godsworn</title>
<path d="M15.032 2.382c0 0.659 0 1.319 0 1.978 0 0.399-0.139 0.644-0.577 0.697-1.206 0.186-2.291 0.565-3.273 1.107l0.051-0.026c-0.744 0.389-1.384 0.847-1.953 1.38l0.005-0.004c-1.069 0.899-1.969 1.956-2.675 3.143l-0.031 0.056c-0.462 0.873-0.849 1.886-1.111 2.948l-0.019 0.093c-0.156 0.655-0.245 1.407-0.245 2.18 0 0.969 0.141 1.905 0.403 2.789l-0.018-0.069c0.41 1.442 0.986 2.703 1.722 3.852l-0.034-0.057c0.035 0.095 0.078 0.177 0.131 0.252l-0.002-0.004c1.221 1.187 2.317 2.491 3.911 3.275 0.764 0.397 1.65 0.698 2.585 0.856l0.053 0.007c0.211 0.034 0.411 0.132 0.622 0.185 0.255 0.036 0.448 0.253 0.448 0.515 0 0.003-0 0.006-0 0.009v-0c0 1.443 0 2.886 0 4.326 0 0.057-0.049 0.113-0.072 0.166-0.057-0.049-0.136-0.090-0.162-0.154-0.249-0.569-0.49-1.13-0.731-1.711-0.216-0.654-0.757-1.145-1.427-1.287l-0.013-0.002c-1.465-0.363-2.745-1.002-3.843-1.863l0.022 0.017c-0.3-0.224-0.64-0.431-0.999-0.605l-0.037-0.016c-0.094-0.037-0.204-0.059-0.318-0.059-0.080 0-0.157 0.011-0.231 0.030l0.006-0.001c-0.543 0.124-1.078 0.279-1.613 0.422-0.332 0.087-0.49-0.049-0.377-0.377 0.121-0.418 0.268-0.829 0.415-1.236 0.061-0.155 0.097-0.335 0.097-0.523 0-0.359-0.129-0.687-0.343-0.941l0.002 0.002c-0.487-0.751-0.949-1.618-1.336-2.524l-0.043-0.114c-0.491-0.959-0.813-2.082-0.895-3.27l-0.002-0.027c0-0.377-0.347-0.407-0.58-0.52-0.727-0.354-1.47-0.675-2.197-1.021-0.122-0.081-0.227-0.173-0.319-0.277l-0.002-0.002c0.103-0.106 0.218-0.199 0.343-0.278l0.008-0.005c0.754-0.332 1.534-0.644 2.295-0.976 0.271-0.075 0.467-0.317 0.471-0.606v-0c0.145-1.318 0.501-2.522 1.035-3.623l-0.029 0.066c0.47-0.972 0.982-1.806 1.566-2.583l-0.028 0.039c0.149-0.151 0.241-0.359 0.241-0.588 0-0.093-0.015-0.183-0.043-0.266l0.002 0.006c-0.219-0.546-0.090-1.168-0.445-1.699-0.188-0.29 0.068-0.531 0.437-0.448 0.577 0.103 1.083 0.243 1.569 0.423l-0.062-0.020c0.107 0.045 0.231 0.071 0.361 0.071 0.225 0 0.431-0.078 0.594-0.209l-0.002 0.001c0.245-0.136 0.46-0.317 0.697-0.467 1.066-0.69 2.14-1.349 3.422-1.59 0.887-0.155 1.582-0.829 1.765-1.693l0.003-0.014c0.169-0.52 0.343-0.949 0.541-1.363l-0.029 0.067c0.049-0.078 0.105-0.145 0.169-0.203l0.001-0.001c0.045 0.098 0.128 0.196 0.128 0.294 0 0.69 0 1.379 0 2.069z"></path>
<path d="M17.779 29.558c0-0.626 0-1.255 0-1.884s0-0.58 0.584-0.705c0.734-0.134 1.367-0.301 1.98-0.511l-0.096 0.029c1.512-0.563 2.8-1.416 3.853-2.5l0.002-0.002c0.59-0.537 1.116-1.127 1.575-1.768l0.023-0.034c0.461-0.755 0.896-1.632 1.256-2.547l0.040-0.117c0.509-1.255 0.294-2.581 0.377-3.881 0.010-0.154 0.015-0.335 0.015-0.516 0-1.789-0.542-3.451-1.471-4.832l0.020 0.031c-0.564-0.96-1.23-1.783-2.001-2.495l-0.007-0.007c-0.518-0.485-1.081-0.938-1.677-1.348l-0.049-0.032c-1.059-0.685-2.307-1.18-3.647-1.402l-0.057-0.008c-0.697-0.109-0.731-0.136-0.754-0.814 0-1.319 0-2.638 0-3.953 0.014-0.098 0.041-0.187 0.081-0.269l-0.002 0.005c0.079 0.075 0.192 0.136 0.234 0.226 0.309 0.697 0.622 1.394 0.889 2.11 0.115 0.32 0.379 0.56 0.705 0.639l0.007 0.001c0.795 0.249 1.579 0.539 2.359 0.848 1.002 0.396 1.816 1.066 2.709 1.617 0.171 0.138 0.39 0.222 0.63 0.222 0.144 0 0.282-0.031 0.406-0.085l-0.006 0.003c0.397-0.155 0.876-0.295 1.369-0.397l0.060-0.010c0.249-0.057 0.43 0.026 0.339 0.358-0.139 0.505-0.226 1.032-0.396 1.526-0.044 0.123-0.070 0.264-0.070 0.412 0 0.304 0.109 0.583 0.29 0.8l-0.002-0.002c0.482 0.691 0.941 1.48 1.332 2.307l0.043 0.101c0.265 0.646 0.523 1.441 0.727 2.258l0.027 0.127c0.087 0.265 0.151 0.573 0.18 0.892l0.001 0.016c0.017 0.36 0.252 0.662 0.574 0.778l0.006 0.002c0.569 0.252 1.13 0.494 1.711 0.735 0.205 0.067 0.376 0.137 0.54 0.218l-0.024-0.011c0.123 0.090 0.23 0.192 0.322 0.306l0.002 0.003c-0.088 0.075-0.185 0.145-0.288 0.206l-0.009 0.005c-0.727 0.339-1.443 0.716-2.197 0.987-0.357 0.079-0.623 0.382-0.644 0.751l-0 0.002c-0.382 2.333-1.295 4.402-2.611 6.152l0.026-0.036c-0.125 0.144-0.201 0.333-0.201 0.539 0 0.085 0.013 0.166 0.036 0.243l-0.002-0.006c0.117 0.445 0.226 0.897 0.32 1.349 0.136 0.648 0.045 0.754-0.626 0.652-0.34-0.063-0.639-0.152-0.925-0.268l0.032 0.011c-0.157-0.067-0.34-0.106-0.531-0.106-0.328 0-0.629 0.114-0.866 0.304l0.003-0.002c-1.292 1.002-2.83 1.755-4.504 2.158l-0.082 0.017c-0.42 0.036-0.753 0.368-0.791 0.784l-0 0.003c0 0.139-0.128 0.271-0.196 0.407l-0.916 1.824-0.079-2.144c0.038-0.087 0.041-0.181 0.041-0.275z"></path>
<path d="M16.667 9.1c1.018 0.143 1.869 0.75 2.343 1.597l0.008 0.016c0.215 0.377 0.475 0.735 0.656 1.13 0.135 0.287 0.221 0.621 0.237 0.974l0 0.006c0.008 0.554 0.155 1.073 0.408 1.523l-0.008-0.016c0.456 0.806 0.075 2.261-0.731 2.721-1.040 0.614-1.39 1.602-1.507 2.694-0.072 0.588 0 1.191-0.023 1.782s-0.121 1.172-0.211 1.756c0 0.102-0.154 0.271-0.222 0.264-0.142-0.025-0.262-0.104-0.342-0.213l-0.001-0.002c-0.202-0.364-0.583-0.606-1.021-0.606-0.261 0-0.502 0.086-0.696 0.231l0.003-0.002c-0.098 0.079-0.087 0.283-0.155 0.415-0.030 0.057-0.143 0.072-0.219 0.105-0.215-0.595-0.584-1.13-0.46-1.839 0.058-0.309 0.091-0.665 0.091-1.028 0-1.048-0.276-2.031-0.758-2.882l0.015 0.029c-0.168-0.258-0.393-0.466-0.657-0.61l-0.010-0.005c-0.859-0.52-1.349-1.726-0.935-2.6 0.268-0.551 0.435-1.195 0.46-1.876l0-0.008c0.076-0.489 0.241-0.927 0.48-1.315l-0.009 0.015c0.216-0.387 0.434-0.717 0.674-1.030l-0.014 0.020c0.63-0.747 1.559-1.224 2.6-1.247l0.004-0zM18.042 16.821c0.403 0.049 0.622-0.2 0.848-0.482 0.377-0.482 0.083-0.957 0-1.428s-0.339-0.516-0.626-0.2c-0.363 0.393-0.697 0.826-0.991 1.285l-0.022 0.037c-0.256 0.399-0.139 0.614 0.32 0.754 0.128 0.022 0.276 0.034 0.427 0.034 0.015 0 0.031-0 0.046-0l-0.002 0zM15.005 16.821c0.682 0 0.852-0.268 0.52-0.855-0.186-0.346-0.392-0.645-0.627-0.919l0.006 0.007c-0.21-0.201-0.441-0.384-0.686-0.546l-0.018-0.011c-0.099 0.223-0.203 0.504-0.291 0.792l-0.015 0.056c-0.033 0.102-0.052 0.218-0.052 0.34 0 0.624 0.506 1.13 1.13 1.13 0.012 0 0.023-0 0.035-0.001l-0.002 0zM17.006 20.413c-0.159-0.014-0.344-0.021-0.531-0.021s-0.372 0.008-0.555 0.023l0.024-0.002c-0.185 0.034-0.437 0.754-0.317 0.916 0.138 0.231 0.338 0.414 0.576 0.528l0.008 0.003c0.074 0.027 0.159 0.042 0.248 0.042 0.275 0 0.515-0.147 0.647-0.366l0.002-0.003c0.047-0.13 0.074-0.28 0.074-0.436 0-0.265-0.078-0.512-0.213-0.719l0.003 0.005c-0.038-0.030-0.105-0.038 0.034 0.023z"></path>
</svg>
