<!-- Generated by IcoMoon.io -->
<svg version="1.1" xmlns="http://www.w3.org/2000/svg" width="1024" height="1024" viewBox="0 0 1024 1024">
<title></title>
<g id="icomoon-ignore">
</g>
<path fill="#000" d="M555.805 83.732l1.485 76.553 34.752 9.032c361.848 94.073 348.545 618.715-17.389 685.756l-19.967 3.66 0.755 80.737c0.544 58.235 2.191 77.024 5.906 67.409 33.092-85.677 27.809-80.341 110.604-111.708 16.129-6.114 46.054-21.876 66.5-35.030 41.525-26.72 45.838-27.508 83.358-15.235 33.617 10.993 34.335 9.97 21.168-30.141l-10.922-33.273 23.641-37.963c33.972-54.553 50.078-92.469 60.455-142.338 5.313-25.537 12.447-45.658 17.11-48.259 10.837-6.035 74.736-34.418 87.996-39.085 8.285-2.915-1.184-8.74-42.394-26.097l-53.057-22.342-9.134-46.398c-9.98-50.711-25.1-87.73-54.779-134.125-22.021-34.424-22.322-36.549-10.797-76.188 10.586-36.422 10.642-36.376-32.037-25.674l-35.235 8.835-26.363-18.94c-36.953-26.546-79.225-48.344-120.215-61.984-38.114-12.683-43.562-18.37-61.308-63.982-19.322-49.665-21.728-45.267-20.135 36.779zM444.463 56.284l-20.496 41.332-37.816 13.333c-20.801 7.333-58.783 26.232-84.407 41.997-50.151 30.852-56.806 32.322-98.321 21.679-33.561-8.599-34.217-7.956-24.575 24.080 11.381 37.816 10.607 41.204-21.597 94.62-29.514 48.96-46.471 93.135-53.345 138.979-4.539 30.252-10.459 35.664-62.577 57.198-22.732 9.393-41.328 17.999-41.328 19.131 0 1.128 18.596 10.541 41.328 20.921 22.732 10.377 44.929 20.882 49.331 23.345 4.411 2.469 10.571 18.579 13.735 35.91 10.414 57.051 35.061 116.919 67.071 162.912 12.026 17.281 12.181 24.191 1.361 61.413-10.528 36.205-11.069 35.756 30.335 25.114l34.152-8.777 45.795 28.987c25.189 15.94 57.586 33.178 71.994 38.304 74.595 26.539 71.836 24.572 87.048 62.119 26.116 64.477 26.805 63.915 26.985-22.069l0.16-78.068-20-3.575c-366.689-65.581-380.627-577.242-18.665-685.022l38.665-11.512v-71.84c0-84.47 1.193-83.004-24.834-30.512zM578.622 265.601c-21.446 14.204-112.876 15.573-133.594 2-34.474-22.591-135.772 26.225-121.128 58.366 4.362 9.574 3.398 17.019-4.307 33.309-5.458 11.541-10.003 23.155-10.101 25.811-0.417 11.119-28.97 41.368-48.402 51.282-21.148 10.787-23.040 14.451-28.534 55.208-1.531 11.364-6.678 24.962-11.437 30.223-10.433 11.526-2.437 31.906 12.385 31.571 17.055-0.388 67.71-34.493 69.511-46.802 1.433-9.79 5.267-11.702 23.998-11.968 19.324-0.269 20.967-1.158 12.329-6.665-32.335-20.613-32.41-20.78-20.079-44.952 14.447-28.321 17.756-29.997 40.475-20.505 22.171 9.265 22.171 9.265 7.812-15.073l-11.086-18.789 13.509-13.513c17.055-17.052 23.164-16.94 41.646 0.768 19.025 18.226 23.392 13.798 11.331-11.493-17.264-36.202 30.931-58.071 50.209-22.784l9.468 17.333 3.28-45.332h23.693c24.398 0 24.103-0.311 25.811 27.517 1.006 16.376 7.267 15.818 13.192-1.174 6.701-19.222 25.844-19.003 45.732 0.525 9.928 9.748 9.991 11.024 1.421 28.996-10.715 22.469-6.927 23.784 13.136 4.566 27.783-26.616 66.129 8.416 42.332 38.668-14.414 18.328-11.798 21.095 8.78 9.281 19.442-11.158 29.348-5.448 41.656 24.018 8.661 20.731 2.128 33.748-21.083 42-8.935 3.178-6.281 4.601 12.702 6.806 21.174 2.456 24.191 4.454 25.638 16.976 1.303 11.252 7.651 17.13 30.663 28.39 46.035 22.519 60.938 10.298 42.781-35.080-4.634-11.578-8.422-27.908-8.422-36.287 0-16.48-6.632-23.877-33.395-37.248-24.861-12.42-58.511-75.674-54.7-102.82 5.622-40.013-81.384-86.864-117.225-63.129zM282.992 560.466c-39.042 19.446-39.459 67.772-0.583 67.772 17.642 0 72.309 54.227 90.38 89.649 14.451 28.323 33.443 38.648 47.579 25.857 5.375-4.867 17.504-8.846 26.95-8.846 9.449 0 24.575-3.827 33.617-8.501 9.292-4.808 22.506-7.236 30.4-5.589 51.095 10.669 82.824 19.492 87.73 24.402 14.343 14.339 37.982-1.771 50.958-34.733 8.717-22.135 69.328-80.987 85.65-83.161 14.768-1.971 35.152-31.862 30.321-44.46-1.666-4.336-16.461-14.476-32.883-22.529l-29.856-14.641-9.489 12.578c-8.095 10.735-11.174 11.676-20.987 6.425-13.69-7.327-14.7-2.060-2.85 14.86 14.030 20.033-2.345 33.837-24.828 20.932-17.009-9.761-19.187-6.802-9.935 13.499 7.485 16.428-1.666 35.588-16.996 35.588-7.464 0-13.876-6.908-21.027-22.664l-10.289-22.666-0.2 21.332c-0.374 40.108-31.568 49.554-39.849 12.069l-3.847-17.403-5.373 14.946c-7.255 20.183-48.454 19.957-51.331-0.278-2.303-16.225-11.627-15.306-11.627 1.145 0 33.090-31.522 26.136-40.548-8.943l-5.887-22.867-4.12 20.426c-5.099 25.263-15.445 29.892-32.020 14.32-10.524-9.889-11.823-14.244-7.58-25.411 6.402-16.835 3.591-19.901-11.055-12.063-8.79 4.707-13.335 4.582-19.492-0.529-7.786-6.462-7.622-12.538 0.912-33.356 3.378-8.236 2.234-9.364-6.641-6.547-6.609 2.099-13.306 0.288-17.459-4.716-9.013-10.86-19.527-9.957-47.75 4.099z"></path>
</svg>
