<!-- Generated by IcoMoon.io -->
<svg version="1.1" xmlns="http://www.w3.org/2000/svg" width="33" height="32" viewBox="0 0 33 32">
<title>bladeborn-kainan</title>
<path d="M17.759 29.572q0-1.034 0-2.063c-0.003-0.016-0.004-0.034-0.004-0.053 0-0.173 0.137-0.315 0.308-0.323l0.001-0c0.804-0.175 1.478-0.37 2.134-0.605l-0.119 0.037c2.303-0.882 4.209-2.366 5.583-4.261l0.024-0.035c0.56-0.782 0.872-1.744 1.255-2.631 0.156-0.373 0.286-0.812 0.37-1.267l0.006-0.041c0.14-0.666 0.22-1.431 0.22-2.215 0-0.743-0.072-1.468-0.209-2.171l0.012 0.071c-0.445-2.273-1.51-4.248-3.010-5.799l0.003 0.003c-0.685-0.68-1.445-1.288-2.264-1.809l-0.055-0.032c-0.419-0.241-0.906-0.461-1.415-0.633l-0.058-0.017c-0.442-0.199-0.979-0.393-1.532-0.547l-0.084-0.020c-0.147-0.041-0.329-0.078-0.515-0.103l-0.023-0.003c-0.515-0.071-0.616-0.147-0.62-0.613 0-1.406 0-2.815 0-4.221 0-0.071 0.071-0.143 0.113-0.214 0.039 0.041 0.073 0.088 0.1 0.139l0.002 0.003c0.319 0.752 0.628 1.503 0.958 2.255 0.082 0.293 0.317 0.515 0.611 0.578l0.005 0.001c1.141 0.3 2.133 0.686 3.068 1.167l-0.084-0.039c0.699 0.351 1.301 0.755 1.846 1.224l-0.012-0.010c0.285 0.268 0.67 0.433 1.094 0.433 0.224 0 0.437-0.046 0.63-0.129l-0.010 0.004c0.376-0.147 0.752-0.244 1.128-0.376 0.259-0.094 0.376 0.030 0.342 0.252-0.024 0.197-0.068 0.377-0.129 0.547l0.005-0.017c-0.135 0.466-0.297 0.925-0.41 1.394-0.016 0.059-0.026 0.126-0.026 0.195 0 0.191 0.071 0.365 0.188 0.497l-0.001-0.001c1.226 1.684 2.091 3.708 2.44 5.905l0.010 0.079c0.049 0.388 0.321 0.701 0.681 0.81l0.007 0.002c0.882 0.284 1.636 0.609 2.351 0.995l-0.073-0.036c0.155 0.053 0.336 0.091 0.523 0.105l0.007 0c-0.151 0.086-0.328 0.168-0.512 0.236l-0.025 0.008c-0.752 0.214-1.402 0.707-2.172 0.913-0.473 0.102-0.822 0.516-0.822 1.012 0 0.025 0.001 0.050 0.003 0.074l-0-0.003c0 0.014 0 0.030 0 0.046 0 0.628-0.147 1.221-0.409 1.747l0.010-0.023c-0.055 0.097-0.101 0.21-0.133 0.328l-0.002 0.010c-0.401 1.392-1.058 2.6-1.922 3.627l0.012-0.015c-0.19 0.166-0.309 0.408-0.309 0.678 0 0.149 0.036 0.29 0.101 0.413l-0.002-0.005c0.154 0.441 0.262 0.952 0.303 1.482l0.001 0.021c0.060 0.342-0.094 0.481-0.432 0.376-0.451-0.12-0.826-0.248-1.19-0.399l0.062 0.023c-0.151-0.065-0.327-0.103-0.511-0.103-0.333 0-0.637 0.123-0.87 0.326l0.002-0.001c-0.643 0.474-1.379 0.951-2.144 1.385l-0.111 0.058c-0.583 0.255-1.275 0.483-1.992 0.649l-0.083 0.016c-0.515 0.15-0.985 0.304-1.098 0.951-0.091 0.385-0.23 0.725-0.412 1.036l0.010-0.018c-0.195 0.376-0.436 0.752-0.658 1.128-0.030-0.428-0.064-0.857-0.079-1.285s0.011-0.729 0.011-1.105z"></path>
<path d="M14.981 2.533c0 0.718 0 1.439 0 2.157 0 0.218-0.075 0.335-0.319 0.376-1.409 0.17-2.682 0.632-3.798 1.323l0.040-0.023c-0.315 0.188-0.585 0.377-0.839 0.585l0.013-0.010c-1.214 0.869-2.237 1.911-3.058 3.104l-0.027 0.042c-0.672 1.081-1.207 2.335-1.537 3.669l-0.019 0.090c-0.137 0.515-0.216 1.107-0.216 1.717 0 0.168 0.006 0.335 0.018 0.5l-0.001-0.022c0.032 1.451 0.305 2.829 0.78 4.109l-0.028-0.087c0.467 1.27 1.123 2.364 1.946 3.309l-0.011-0.013c0.825 0.862 1.744 1.622 2.744 2.268l0.060 0.036c0.955 0.605 2.041 0.797 3.007 1.274 0.087 0.021 0.188 0.033 0.291 0.033 0.030 0 0.059-0.001 0.089-0.003l-0.004 0c0.849 0.113 1.128 0.534 0.917 1.387-0.046 0.207-0.072 0.445-0.072 0.69 0 0.014 0 0.028 0 0.041l-0-0.002c0 0.91 0 1.815 0 2.721 0 0.068-0.075 0.135-0.117 0.203-0.034-0.044-0.064-0.093-0.088-0.146l-0.002-0.005c-0.319-0.789-0.62-1.586-0.966-2.368-0.103-0.175-0.262-0.307-0.453-0.374l-0.006-0.002c-0.752-0.282-1.503-0.474-2.229-0.801-0.957-0.424-1.773-0.88-2.541-1.4l0.056 0.036c-0.97-0.677-1.094-0.752-2.233-0.44-0.147 0.041-0.293 0.094-0.436 0.139-0.226 0.068-0.477 0.346-0.662 0.101-0.101-0.132 0-0.459 0.086-0.677 0.169-0.522 0.432-1.022 0.357-1.594-0.007-0.19-0.059-0.366-0.146-0.521l0.003 0.006c-0.896-1.156-1.573-2.53-1.942-4.026l-0.016-0.075c-0.143-0.437-0.273-0.974-0.366-1.524l-0.010-0.070c-0.030-0.421-0.162-0.902-0.729-1.022-0.265-0.067-0.493-0.151-0.711-0.254l0.023 0.010c-0.252-0.113-0.496-0.241-0.752-0.376l-1.128-0.59c0.413-0.233 0.812-0.492 1.24-0.688 0.385-0.183 0.865-0.371 1.357-0.531l0.090-0.025c0.323-0.105 0.376-0.312 0.444-0.616 0.279-1.53 0.732-2.895 1.346-4.167l-0.042 0.096c0.336-0.717 0.727-1.334 1.185-1.895l-0.013 0.016c0.209-0.225 0.338-0.528 0.338-0.861 0-0.154-0.027-0.301-0.077-0.437l0.003 0.009c-0.105-0.324-0.21-0.739-0.293-1.163l-0.012-0.073c-0.010-0.070-0.016-0.151-0.016-0.233s0.006-0.163 0.017-0.242l-0.001 0.009c0-0.207 0.143-0.244 0.323-0.188 0.462 0.147 0.932 0.274 1.391 0.428 0.122 0.050 0.264 0.078 0.413 0.078 0.272 0 0.521-0.096 0.716-0.257l-0.002 0.002c1.171-0.833 2.52-1.529 3.964-2.020l0.11-0.033c0.237-0.036 0.446-0.085 0.649-0.151l-0.029 0.008c0.308-0.158 0.646-0.222 0.752-0.703 0.215-0.623 0.469-1.159 0.773-1.662l-0.021 0.038c0.098-0.192 0.203-0.376 0.304-0.571 0.023 0.241 0.064 0.485 0.071 0.725 0.060 0.537 0.053 1.071 0.049 1.601z"></path>
<path d="M19.71 10.355c-0.086 0.496-0.177 0.887-0.21 1.278 0 0.158 0.049 0.428 0.15 0.466 0.069 0.037 0.151 0.059 0.237 0.059 0.178 0 0.335-0.091 0.427-0.229l0.001-0.002c0.098-0.178 0.196-0.329 0.304-0.472l-0.007 0.010c0.111-0.184 0.309-0.305 0.536-0.305 0.345 0 0.624 0.279 0.624 0.624 0 0.195-0.090 0.37-0.231 0.484l-0.001 0.001c-0.056 0.071-0.158 0.12-0.192 0.203s-0.135 0.323-0.086 0.376c0.15 0.165 0.256 0.474 0.575 0.353 0.323-0.096 0.599-0.267 0.819-0.492l0-0c0.101-0.094 0.237-0.152 0.387-0.152 0.036 0 0.071 0.003 0.105 0.010l-0.004-0.001c0.222 0.060 0.286 0.286 0.289 0.526 0 0.568-0.083 0.673-0.665 0.771-0.421 0.068-0.827 0.192-1.244 0.282-0.151 0.035-0.336 0.064-0.524 0.081l-0.017 0.001c-0.327 0.030-0.564 0.026-0.635-0.44s-0.496-0.68-0.883-0.853-0.65 0.143-0.601 0.583c0.075 0.665 0.601 1.128 0.729 1.789 0.053 0.271 0.662 0.425 0.962 0.308 0.376-0.143 0.714-0.323 1.071-0.481 0.095-0.048 0.207-0.092 0.323-0.128l0.015-0.004c0.447-0.132 0.774-0.030 0.883 0.267 0.005 0.031 0.008 0.067 0.008 0.103 0 0.287-0.171 0.535-0.416 0.647l-0.004 0.002c-0.376 0.184-0.793 0.286-1.158 0.489-0.178 0.1-0.391 0.16-0.618 0.16s-0.44-0.059-0.625-0.163l0.006 0.003c-0.15-0.068-0.462-0.158-0.537 0.165-0.023 0.057-0.037 0.123-0.037 0.193 0 0.195 0.106 0.365 0.263 0.456l0.003 0.001c0.158 0.083 0.376 0.071 0.507 0.184 0.601 0.56 1.169 0.549 1.808 0.034 0.402-0.327 0.752-0.214 1 0.199 0.15 0.241 0.124 0.376-0.083 0.624-0.364 0.445-0.913 0.727-1.528 0.727-0.449 0-0.863-0.15-1.194-0.403l0.005 0.003c-0.367-0.302-0.833-0.497-1.342-0.533l-0.008-0c-0.004-0-0.010-0-0.015-0-0.251 0-0.455 0.204-0.455 0.455 0 0 0 0 0 0v0c0.226 0.846 0.376 1.751 1.327 2.184 0.177 0.079 0.301 0.195 0.5 0.041 0.090-0.048 0.198-0.076 0.312-0.076 0.015 0 0.029 0 0.044 0.001l-0.002-0c0.5-0.034 0.699 0.098 0.752 0.474 0.071 0.485-0.169 0.992-0.568 1.037-0.093 0.019-0.2 0.030-0.31 0.030-0.245 0-0.477-0.054-0.685-0.15l0.010 0.004c-0.609-0.376-1.21-0.816-1.503-1.545-0.107-0.31-0.234-0.577-0.386-0.827l0.011 0.019c-0.099-0.201-0.302-0.336-0.537-0.336-0.155 0-0.297 0.059-0.403 0.156l0-0c-0.075 0.056-0.132 0.135-0.203 0.195-0.376 0.312-0.376 0.312-0.752-0.094s-0.827-0.35-1.060 0.222c-0.337 0.757-0.796 1.401-1.358 1.937l-0.002 0.002c-0.278 0.269-0.658 0.435-1.076 0.435-0.105 0-0.207-0.010-0.306-0.030l0.010 0.002c-0.397-0.094-0.688-0.445-0.688-0.864 0-0.162 0.043-0.313 0.119-0.444l-0.002 0.004c0.122-0.126 0.289-0.207 0.475-0.218l0.002-0c0.020-0.001 0.043-0.002 0.066-0.002 0.201 0 0.391 0.044 0.563 0.122l-0.009-0.003c0.081 0.039 0.176 0.062 0.277 0.062 0.226 0 0.426-0.116 0.541-0.293l0.002-0.002c0.328-0.544 0.655-1.187 0.938-1.854l0.039-0.104c0.010-0.034 0.016-0.073 0.016-0.113 0-0.218-0.175-0.395-0.392-0.398h-0c-0.288 0.005-0.561 0.064-0.812 0.167l0.015-0.005c-0.48 0.19-0.883 0.388-1.269 0.614l0.043-0.023c-0.88 0.504-1.906-0.18-2.334-0.752-0.035-0.040-0.056-0.093-0.056-0.151 0-0.001 0-0.002 0-0.004v0c0.068-0.474 0.752-0.868 1.041-0.552 0.831 0.88 1.541 0.376 2.285-0.086 0.145-0.075 0.269-0.167 0.375-0.278l0-0c0.079-0.105 0.165-0.293 0.12-0.376s-0.233-0.162-0.376-0.237c-0.013-0.005-0.029-0.009-0.045-0.009s-0.032 0.003-0.046 0.009l0.001-0c-0.902 0.462-1.669 0.064-2.428-0.376-0.143-0.082-0.266-0.166-0.381-0.26l0.005 0.004c-0.141-0.086-0.234-0.238-0.234-0.413 0-0.089 0.024-0.172 0.066-0.243l-0.001 0.002c0.092-0.166 0.266-0.277 0.466-0.277 0.066 0 0.13 0.012 0.188 0.034l-0.004-0.001c0.326 0.116 0.603 0.242 0.866 0.39l-0.028-0.014c0.182 0.112 0.398 0.225 0.621 0.324l0.037 0.014c0.092 0.043 0.2 0.069 0.314 0.069 0.338 0 0.623-0.223 0.718-0.529l0.001-0.005c0.256-0.522 0.436-1.082 0.725-1.579 0.192-0.335-0.026-0.436-0.192-0.59-0.069-0.085-0.174-0.138-0.291-0.138s-0.222 0.054-0.291 0.138l-0.001 0.001c-0.186 0.167-0.354 0.346-0.504 0.54l-0.007 0.009c-0.496 0.684-0.752 0.789-1.537 0.541-0.394-0.174-0.852-0.28-1.335-0.289l-0.004-0c-0.244 0-0.575-0.376-0.534-0.613 0.029-0.225 0.102-0.429 0.211-0.608l-0.004 0.007c0.063-0.090 0.165-0.148 0.282-0.148s0.219 0.058 0.281 0.147l0.001 0.001c0.235 0.276 0.558 0.469 0.926 0.536l0.010 0.001c0.030 0.006 0.065 0.010 0.1 0.010 0.102 0 0.198-0.030 0.278-0.083l-0.002 0.001c0.075-0.086 0.121-0.199 0.121-0.323 0-0.032-0.003-0.063-0.009-0.093l0.001 0.003c-0.086-0.243-0.214-0.452-0.377-0.629l0.001 0.001c-0.252-0.267-0.124-0.436 0.079-0.62 0.425-0.376 0.846-0.331 1.128 0.177 0.21 0.376 0.545 0.598 0.797 0.496s0.342-0.376 0.188-0.891c-0.053-0.173-0.109-0.346-0.162-0.522-0.083-0.274 0.034-0.752 0.222-0.786 0.106-0.018 0.227-0.029 0.351-0.029 0.074 0 0.146 0.004 0.218 0.011l-0.009-0.001c0.271 0 0.214 0.229 0.282 0.376 0.113 0.263 0.165 0.568 0.616 0.564 0.379 0.001 0.686 0.309 0.686 0.688 0 0.016-0.001 0.032-0.002 0.047l0-0.002c-0 0.011-0.001 0.023-0.001 0.035 0 0.304 0.163 0.57 0.407 0.714l0.004 0.002c0.143 0.094 0.317 0.15 0.506 0.15 0.464 0 0.849-0.342 0.915-0.788l0.001-0.005c0.030-0.117 0-0.267 0.038-0.376 0.135-0.259 0.218-0.594 0.646-0.515 0.286 0.053 0.432-0.030 0.466-0.376 0.016-0.334 0.29-0.599 0.627-0.599 0.118 0 0.229 0.033 0.323 0.089l-0.003-0.002c0.098 0.075 0.15 0.35 0.199 0.455zM15.711 16.477c0.101 0.35-0.214 0.47-0.376 0.68-0.041 0.056-0.086 0.184-0.071 0.195 0.197 0.13 0.425 0.255 0.663 0.363l0.032 0.013c0.060 0.026 0.267-0.090 0.267-0.147 0.012-0.178 0.018-0.385 0.018-0.594s-0.007-0.416-0.020-0.622l0.001 0.028c0-0.056-0.203-0.094-0.308-0.139-0.034-0.12-0.084-0.225-0.149-0.319l0.002 0.004c-0.049-0.049-0.177 0-0.267-0.034s-0.203-0.079-0.304-0.117l0.229-0.135c0.436-0.252 0.436-0.252 0.064-0.624l-0.331-0.327c-0.046-0.061-0.119-0.099-0.2-0.099-0.116 0-0.213 0.078-0.243 0.184l-0 0.002c-0.068 0.244-0.59 0.537 0 0.789 0.034 0 0.038 0.222 0 0.229-0.594 0.244-0.21 0.613-0.090 0.898s0.316 0.331 0.635 0.064c0.15-0.075 0.301-0.192 0.447-0.293zM17.624 14.628l-0.064-0.068c0.049-0.075 0.162-0.18 0.139-0.226-0.15-0.376-0.507-0.496-0.842-0.631-0.034 0-0.165 0.101-0.169 0.158 0 0.402 0 0.808 0 1.214 0 0.323 0.139 0.143 0.256 0.060 0.062-0.040 0.134-0.082 0.209-0.119l0.012-0.005c0 0.083 0.071 0.199 0.038 0.248-0.147 0.195 0 0.207 0.124 0.293 0.274 0.162 0.41 0.35-0.083 0.376-0.053 0-0.154 0.218-0.132 0.244 0.23 0.27 0.462 0.516 0.706 0.748l0.004 0.004c0.046 0.033 0.104 0.053 0.166 0.053 0.029 0 0.057-0.004 0.084-0.013l-0.002 0.001c0.226-0.071 0.496-0.842 0.334-1.011-0.105-0.109-0.312-0.147-0.101-0.297 0.338-0.244 0.075-0.474 0.045-0.725-0.079-0.537-0.47-0.248-0.725-0.304zM16.259 14.429v-0.278c0-0.53-0.045-0.545-0.485-0.301-0.669 0.376-0.673 0.395-0.139 0.917 0.059 0.071 0.123 0.134 0.193 0.19l0.003 0.002c0.085 0.050 0.186 0.1 0.291 0.144l0.017 0.006c0.046-0.091 0.085-0.196 0.111-0.306l0.002-0.010c0.008-0.065 0.012-0.141 0.012-0.218 0-0.048-0.002-0.095-0.005-0.141l0 0.006zM16.733 16.346c-0.026 0.050-0.046 0.108-0.056 0.169l-0 0.003c0 0.278 0 0.556 0 0.834 0 0.135 0.060 0.342 0.147 0.376 0.029 0.006 0.062 0.010 0.096 0.010 0.119 0 0.227-0.044 0.31-0.116l-0.001 0c0.143-0.128 0.451-0.256 0.286-0.5-0.216-0.27-0.448-0.51-0.7-0.727l-0.007-0.006c-0.021-0.018-0.046-0.034-0.073-0.044l-0.002-0.001z"></path>
<path d="M17.624 14.628l-0.169 0.105 0.105-0.173z"></path>
<path d="M15.895 16.289l-0.173 0.173z"></path>
</svg>
