<!-- Generated by IcoMoon.io -->
<svg version="1.1" xmlns="http://www.w3.org/2000/svg" width="1024" height="1024" viewBox="0 0 1024 1024">
<title></title>
<g id="icomoon-ignore">
</g>
<path fill="#000" d="M557.291 10.849c-1.704 1.704-1.614 120.287 0.111 144.803 0.212 3.004 14.214 8.598 31.114 12.427 189.249 42.874 310.101 247.125 258.186 436.36-36.825 134.228-131.076 218.661-285.552 255.813-5.67 1.364-7.677 152.979-2.025 152.986 2.205 0.003 4.001-3.001 3.995-6.674-0.009-3.674 7.621-24.069 16.953-45.319l16.965-38.642 41.716-13.505c41.642-13.479 72.821-28.778 109.782-53.858 27.599-18.732 38.947-20.342 70.503-10.023 34.424 11.26 35.647 9.99 25.148-26.117-11.369-39.115-10.881-44.65 5.664-64.265 29.994-35.561 58.050-106.687 74.133-187.95 1.528-7.722 15.605-16.779 49.102-31.606 25.827-11.43 48.674-22.224 50.772-23.981 2.096-1.761-19.17-12.57-47.257-24.022-28.084-11.451-51.762-23.444-52.617-26.649-0.853-3.207-4.588-22.505-8.298-42.892-8.424-46.278-26.117-90.298-54.12-134.63l-21.665-34.304 9.391-34.689c11.457-42.321 12.4-41.336-29.886-31.143l-34.497 8.312-36.222-24.375c-41.784-28.116-58.234-36.373-111.887-56.168-41.751-15.402-41.843-15.507-65.85-74.056-6.316-15.402-12.463-27.026-13.658-25.83zM451.236 42.483c-23.023 54.549-21.859 53.338-65.421 68.192-22.467 7.663-48.876 18.963-58.687 25.119-9.808 6.152-32.692 19.833-50.852 30.403l-33.019 19.216-31.881-8.262c-45.126-11.692-44.155-12.495-32.819 27.152l10.128 35.411-24.742 40.74c-33.954 55.912-47.192 87.568-58.373 139.603l-9.552 44.459-37.651 16.913c-20.709 9.302-43.662 19.399-51.010 22.432-12.698 5.246-11.501 6.361 24.046 22.396 67.475 30.441 62.37 25.121 75.055 78.218 13.922 58.272 24.851 85.763 51.536 129.636 22.6 37.16 23.834 45.555 12.285 83.62-10.023 33.042-10.025 33.042 31.373 21.835l34.444-9.323 40.982 26.903c38.389 25.201 57.779 34.285 122.315 57.314 23.696 8.453 27.1 11.901 38.842 39.326 29.668 69.303 27.987 70.259 28.363-16.104l0.341-78.23-20.040-3.618c-148.314-26.791-271.188-162.737-282.781-312.866-13.532-175.241 99.771-332.441 270.036-374.651 35.121-8.709 33.44-4.045 31.617-87.705l-1.505-69.010-13.033 30.879zM511.518 202.008c-6.252 9.673-3.603 132.814 3.412 158.878 17.154 63.701-27.014 78.486-57.038 19.090-5.943-11.757-18.688-35.802-28.319-53.438-9.635-17.636-21.941-40.276-27.352-50.311-34.545-64.063-65.38-29.416-32.032 35.991 41.695 81.777 52.627 110.223 47.086 122.535-7.328 16.289-20.98 15.137-31.661-2.672-16.183-26.991-94.16-102.872-105.711-102.872-16.236 0-19.16 14.775-6.158 31.143 6.237 7.854 24.995 34.721 41.684 59.704 82.892 124.084 86.533 131.69 72.016 150.437-5.347 6.904-13.144 19.769-17.324 28.586-8.174 17.236-30.068 19.864-88.009 10.564-19.971-3.203-23.063-2.043-36.232 13.605-17.561 20.871-11.136 34.826 13.746 29.85 9.937-1.987 20.95 0.576 32.363 7.536 9.514 5.802 24.58 10.558 33.478 10.566 8.9 0.012 22.126 4.23 29.392 9.373 7.422 5.253 27.267 10.522 45.279 12.025l32.063 2.672 1.643 22.711c1.958 27.070 0.811 26.808 28.766 6.56 31.097-22.529 33.56-19.839 34.794 37.972 0.591 27.678 1.19 52.129 1.335 54.334s4.935 4.006 10.648 4.006c19.678 0 26.993-19.94 27.399-74.667l0.377-50.915 7.818 21.371c4.303 11.751 9.291 38.754 11.086 60.004 3.783 44.755 10.205 50.184 41.634 35.197 16.995-8.106 19.202-11.213 16.278-22.893-10.746-42.918-9.847-76.678 1.96-73.592 7.889 2.063 13.159-0.182 16.921-7.207 3.107-5.808 11.136-10.208 18.632-10.208 16.454 0 16.43-2.733-0.188-24.522-19.858-26.039-15.978-110.931 9.746-213.285 4.433-17.636 12.321-48.896 17.533-69.471 10.658-42.092 13.855-147.465 4.571-150.584-15.14-5.079-25.121 12.974-28.984 52.418-3.368 34.403-7.030 44.814-26.104 74.165-12.201 18.778-22.185 35.811-22.185 37.851s-3.956 5.229-8.788 7.083c-16.242 6.231-27.64-11.645-31.556-49.481-2.025-19.569-7.001-43.688-11.060-53.602-4.060-9.911-7.38-27.020-7.38-38.022 0-12.121-4.35-25.53-11.034-34.030-6.066-7.715-10.275-19.237-9.353-25.607 1.922-13.238-8.459-19.281-15.196-8.85z"></path>
</svg>
