<!-- Generated by IcoMoon.io -->
<svg version="1.1" xmlns="http://www.w3.org/2000/svg" width="33" height="32" viewBox="0 0 33 32">
<title>bladeborn-farstrider</title>
<path d="M15.038 29.693c0 0.664 0 1.328 0 1.992-0.014 0.091-0.041 0.172-0.078 0.248l0.002-0.005c-0.080-0.072-0.193-0.133-0.231-0.224-0.228-0.543-0.467-1.085-0.645-1.643-0.161-0.617-0.699-1.071-1.347-1.104l-0.004-0c-0.895-0.042-1.563-0.584-2.314-0.918-0.81-0.383-1.508-0.829-2.142-1.349l0.018 0.014c-0.227-0.219-0.536-0.354-0.877-0.354-0.139 0-0.274 0.023-0.399 0.064l0.009-0.003c-0.379 0.121-0.759 0.254-1.138 0.379-0.603 0.186-0.782 0.038-0.618-0.569 0.118-0.448 0.341-0.869 0.448-1.316 0.027-0.090 0.043-0.193 0.043-0.3 0-0.176-0.043-0.342-0.118-0.488l0.003 0.006c-0.945-1.327-1.711-2.864-2.216-4.515l-0.030-0.113c-0.142-0.397-0.224-0.854-0.224-1.331 0-0.016 0-0.033 0-0.049l-0 0.002c0.019-0.558-0.288-0.785-0.709-0.971-0.732-0.33-1.464-0.653-2.193-0.99-0.102-0.046-0.174-0.163-0.262-0.25 0.093-0.066 0.198-0.129 0.309-0.184l0.014-0.006q1.112-0.463 2.223-0.907c0.353-0.124 0.603-0.448 0.615-0.833l0-0.001c0.307-2.117 0.956-4.128 2.401-5.755 0.664-0.759 0.243-1.464 0.175-2.204-0.052-0.358-0.122-0.672-0.213-0.977l0.012 0.047c0.387 0.006 0.759 0.060 1.113 0.155l-0.032-0.007c0.257 0.134 0.562 0.212 0.885 0.212 0.482 0 0.924-0.175 1.265-0.465l-0.003 0.002c1.186-0.891 2.578-1.587 4.086-2.005l0.087-0.021c0.545-0.137 0.977-0.529 1.165-1.039l0.004-0.012c0.193-0.493 0.402-0.979 0.622-1.457 0.081-0.126 0.174-0.234 0.279-0.329l0.001-0.001c0.070 0.121 0.132 0.261 0.181 0.408l0.005 0.016c0.025 0.116 0.040 0.249 0.040 0.386 0 0.028-0.001 0.057-0.002 0.085l0-0.004c0 1.013 0 2.026 0 3.035 0.005 0.031 0.008 0.067 0.008 0.104 0 0.347-0.269 0.631-0.609 0.655l-0.002 0c-0.961 0.202-1.792 0.453-2.591 0.766l0.11-0.038c-1.848 0.733-3.378 1.936-4.487 3.465l-0.020 0.029c-0.66 0.861-1.225 1.845-1.651 2.901l-0.030 0.084c-0.804 2.276-1.119 4.552-0.379 6.954 0.483 1.664 1.265 3.108 2.292 4.34l-0.016-0.019c1.503 1.72 3.466 3.004 5.696 3.662l0.086 0.022c0.414 0.125 1.062 0.046 1.218 0.3 0.235 0.379 0.133 0.96 0.159 1.457 0 0.315 0 0.634 0 0.948z"></path>
<path d="M17.937 29.705c0-0.603 0.034-1.206 0-1.802-0.011-0.047-0.017-0.101-0.017-0.156 0-0.394 0.319-0.713 0.713-0.713 0.009 0 0.017 0 0.026 0l-0.001-0c1.863-0.216 3.414-1.115 4.833-2.253 1.503-1.185 2.68-2.717 3.421-4.479l0.027-0.074c0.415-0.841 0.666-1.829 0.687-2.872l0-0.007c-0.030-0.759 0-1.518 0-2.276 0.023-2.405-1.013-4.378-2.477-6.195-1.072-1.36-2.443-2.436-4.019-3.137l-0.067-0.027c-0.734-0.313-1.642-0.624-2.574-0.875l-0.153-0.035c-0.315-0.091-0.398-0.216-0.398-0.508 0-1.358 0-2.72 0-4.078 0.013-0.087 0.034-0.165 0.063-0.238l-0.002 0.007c0.046 0.076 0.095 0.152 0.133 0.231 0.285 0.615 0.603 1.214 0.842 1.848 0.146 0.407 0.482 0.713 0.898 0.814l0.009 0.002c1.901 0.579 3.556 1.43 5.020 2.523l-0.042-0.030c0.319 0.228 0.888 0.163 1.339 0.137 0.545-0.058 1.031-0.145 1.506-0.262l-0.075 0.016c-0.048 0.515-0.145 0.988-0.29 1.44l0.013-0.048c-0.288 0.706-0.080 1.237 0.338 1.802 1.099 1.517 1.858 3.349 2.129 5.336l0.007 0.062c0.042 0.508 0.405 0.921 0.884 1.038l0.008 0.002c0.725 0.25 1.415 0.603 2.121 0.914 0.068 0.030 0.129 0.072 0.193 0.106-0.068 0.065-0.125 0.156-0.205 0.19-0.561 0.295-1.265 0.611-1.987 0.89l-0.148 0.050c-0.484 0.114-0.845 0.526-0.88 1.028l-0 0.004c-0.294 2.057-1.057 3.894-2.176 5.458l0.025-0.037c-0.361 0.422-0.581 0.975-0.581 1.578 0 0.263 0.042 0.516 0.119 0.753l-0.005-0.017c0.030 0.118 0.114 0.224 0.137 0.345 0.049 0.25 0.076 0.508 0.11 0.759-0.003 0-0.006 0-0.009 0-0.349 0-0.692-0.029-1.025-0.085l0.036 0.005c-0.353-0.087-0.679-0.288-1.028-0.379-0.043-0.010-0.093-0.015-0.145-0.015-0.139 0-0.269 0.041-0.378 0.112l0.003-0.002c-1.047 0.816-2.246 1.51-3.535 2.028l-0.1 0.035c-0.55 0.201-1.138 0.326-1.658 0.565-0.255 0.15-0.454 0.371-0.573 0.636l-0.004 0.009c-0.322 0.63-0.592 1.286-0.88 1.931-0.038 0.083-0.087 0.159-0.129 0.239-0.033-0.088-0.060-0.192-0.075-0.299l-0.001-0.008c0-0.656 0-1.316 0-1.984z"></path>
<path d="M13.335 14.731c-0.012 0.093-0.018 0.201-0.018 0.31 0 0.782 0.344 1.484 0.888 1.963l0.003 0.003c0.299 0.252 0.488 0.627 0.488 1.047 0 0.278-0.083 0.537-0.226 0.753l0.003-0.005c-0.296 0.482-0.25 1.411-1.271 1.085-0.076-0.023-0.231 0.19-0.341 0.3s-0.258 0.262-0.379 0.379c0.042-0.171 0.083-0.345 0.133-0.516 0.066-0.28 0.141-0.516 0.229-0.744l-0.013 0.038c0.068-0.159 0.197-0.429 0.285-0.425 0.736 0.049 0.675-0.459 0.641-0.899-0.042-0.55-0.52-0.835-0.967-0.512-0.728 0.531-1.555 0.402-2.345 0.531-0.019 0-0.11-0.182-0.087-0.205 0.303-0.322 0.615-0.634 0.937-0.937 0.053-0.053 0.216-0.091 0.243-0.061 0.694 0.782 0.831-0.163 1.032-0.413 0.277-0.341 0-0.816-0.637-1.036-0.464-0.14-1.044-0.272-1.636-0.368l-0.083-0.011c-0.379-0.080-0.759-0.175-1.138-0.262 0.287-0.148 0.628-0.287 0.981-0.397l0.047-0.013c0.546-0.114 1.108-0.159 1.665-0.224s0.903-0.41 0.842-0.903c-0.068-0.58-0.379-0.759-0.99-0.759-0.363-0.072-0.683-0.222-0.953-0.432l0.005 0.004c-0.133-0.083-0.193-0.288-0.285-0.436 0.13 0.051 0.285 0.095 0.444 0.123l0.015 0.002c0.144 0 0.379 0 0.421-0.065 0.175-0.414 0.436-0.247 0.668-0.125s0.459 0.326 0.702 0.459c0.558 0.296 0.808 0.224 1.161-0.288 0.070-0.161 0.11-0.349 0.11-0.547 0-0.286-0.085-0.552-0.231-0.775l0.003 0.005c-0.044-0.040-0.1-0.068-0.162-0.076l-0.002-0c-0.22-0.038-0.577 0-0.641-0.106-0.164-0.343-0.31-0.747-0.418-1.166l-0.010-0.048c0-0.046 0.030-0.11 0.046-0.163 0.046 0.046 0.083 0.095 0.129 0.137 0.303 0.273 0.531 0.573 1.058 0.565 0.243 0 0.546 0.554 0.728 0.907s0.451 0.603 0.804 0.44c0.289-0.152 0.506-0.407 0.605-0.716l0.002-0.009c0.193-0.759 0.273-1.518 0.406-2.276 0.041-0.248 0.088-0.458 0.147-0.664l-0.010 0.041c0.046-0.103 0.097-0.192 0.155-0.274l-0.003 0.005c0.064 0.072 0.167 0.133 0.186 0.212 0.087 0.379 0.171 0.789 0.228 1.187 0.046 0.626 0.124 1.194 0.235 1.752l-0.015-0.090c0.099 0.354 0.318 0.647 0.609 0.839l0.006 0.003c0.334 0.182 0.63-0.072 0.793-0.448 0.083-0.193 0.379-0.319 0.41-0.501 0.076-0.524 0.402-0.561 0.804-0.531 0.014 0.002 0.031 0.003 0.047 0.003s0.033-0.001 0.049-0.003l-0.002 0 0.634-0.22c0.061 0.3-0.41 1.214-0.675 1.195-0.759-0.057-0.501 0.634-0.721 0.956-0.057 0.083 0.102 0.41 0.243 0.505 0.311 0.212 0.622 0.448 1.062 0.133s0.96-0.838 1.552-0.156c0.034 0.042 0.182 0.027 0.258 0 0.178-0.080 0.326-0.16 0.468-0.249l-0.017 0.010c-0.125 0.163-0.216 0.379-0.379 0.478-0.338 0.205-0.599 0.573-1.138 0.402-0.159-0.049-0.653 0.478-0.759 0.808-0.118 0.432 0.338 0.785 0.865 0.895 0.725 0.148 1.442 0.334 2.159 0.508 0.1 0.031 0.185 0.067 0.266 0.11l-0.008-0.004c-0.078 0.034-0.172 0.066-0.27 0.092l-0.015 0.003c-0.607 0.129-1.214 0.235-1.813 0.379-0.322 0.045-0.611 0.159-0.861 0.327l0.007-0.005c-0.258 0.231-0.508 0.531-0.231 0.979 0.235 0.379 0.379 0.698 0.914 0.44 0.031-0.006 0.067-0.010 0.104-0.010 0.131 0 0.251 0.047 0.345 0.125l-0.001-0.001c0.244 0.208 0.465 0.425 0.669 0.657l0.006 0.007c0.115 0.128 0.229 0.266 0.335 0.41l0.010 0.015c-0.12-0.066-0.271-0.139-0.426-0.204l-0.033-0.012c-0.114-0.042-0.273-0.11-0.357-0.064-0.759 0.41-1.278-0.167-1.859-0.47-0.14-0.072-0.379-0.197-0.44-0.148-0.239 0.254-0.607 0.558-0.596 0.835s-0.118 1.020 0.713 0.899c0.148-0.023 0.429 0.55 0.577 0.88 0.089 0.257 0.157 0.557 0.192 0.868l0.002 0.020c-0.19-0.212-0.379-0.425-0.569-0.634-0.082-0.091-0.173-0.172-0.272-0.243l-0.005-0.003c-0.66 0.573-0.66-0.049-0.823-0.432-0.128-0.237-0.262-0.441-0.413-0.631l0.007 0.009c-0.164-0.2-0.263-0.459-0.263-0.741 0-0.351 0.154-0.666 0.398-0.882l0.001-0.001c1.354-1.426 1.472-3.137 0.349-4.651-0.8-1.081-2.625-1.518-3.794-0.888-0.382 0.183-0.711 0.395-1.009 0.644l0.008-0.006c-0.895 0.842-0.926 0.971-0.926 2.401z"></path>
<path d="M16.62 13.183c0.125 0 0.254 0 0.379 0l1.76 0.121c0 0.812 0.042 1.627 0.042 2.439 0 0.042-0.212 0.133-0.315 0.121-1.453-0.193-1.517-0.118-1.552 1.385-0.030 2.022-0.091 4.044-0.118 6.070 0.016 0.577 0.063 1.125 0.138 1.664l-0.009-0.078c0.027 0.247 0.156 0.516-0.254 0.55s-0.626-0.072-0.645-0.489c-0.009-0.057-0.015-0.123-0.015-0.19s0.005-0.133 0.016-0.197l-0.001 0.007c0.114-0.548 0.179-1.178 0.179-1.823 0-0.603-0.057-1.192-0.166-1.763l0.009 0.058c-0.045-0.481-0.070-1.041-0.070-1.607 0-0.465 0.017-0.926 0.051-1.383l-0.004 0.061c0-0.448 0.118-0.892 0.14-1.335 0.038-0.759-0.478-1.195-1.313-0.967-0.558 0.156-0.569-0.023-0.554-0.44 0.027-0.687 0.042-1.377 0.061-2.068l2.223-0.197z"></path>
<path d="M20.714 8.6l-0.030 0.072-0.072-0.099 0.061-0.042z"></path>
</svg>
