<!-- Generated by IcoMoon.io -->
<svg version="1.1" xmlns="http://www.w3.org/2000/svg" width="32" height="32" viewBox="0 0 32 32">
<title>card-decks-deployment</title>
<path d="M12.596 31.856c-0.147-0.107-0.374-0.214-0.494-0.214s-0.387-0.093-0.601-0.2c-0.2-0.107-0.628-0.294-0.935-0.427-0.32-0.12-0.574-0.267-0.574-0.334 0-0.053-0.080-0.107-0.187-0.107s-0.214-0.053-0.24-0.12c-0.013-0.067-0.28-0.227-0.574-0.374-0.828-0.387-2.204-1.295-2.204-1.442 0-0.080-0.12-0.147-0.254-0.16-0.227-0.013-2.551-2.204-2.551-2.391 0-0.067-0.12-0.227-0.534-0.708-0.307-0.361-0.534-0.788-0.534-1.015 0-0.107-0.053-0.2-0.107-0.2-0.12 0-0.694-1.229-0.694-1.469 0-0.080-0.053-0.24-0.12-0.374-0.494-0.988-0.561-1.549-0.508-4.915 0.040-3.165 0.134-4.020 0.507-4.754 0.067-0.134 0.12-0.374 0.12-0.534 0-0.174 0.094-0.481 0.2-0.694 0.107-0.2 0.2-0.574 0.2-0.815 0-0.601 0.147-1.282 0.267-1.202 0.053 0.027 0.174-0.28 0.267-0.681 0.107-0.414 0.267-0.775 0.361-0.815s0.174-0.134 0.174-0.214c0-0.267 1.776-2.898 2.043-3.005 0.053-0.027 0.093-0.107 0.093-0.16 0-0.147 0.748-0.935 0.881-0.935 0.12 0 1.122-0.788 1.482-1.162 0.16-0.174 0.414-0.307 0.574-0.307 0.147 0 0.267-0.040 0.267-0.107 0-0.053 0.387-0.24 0.868-0.401 0.481-0.174 0.895-0.374 0.948-0.441 0.040-0.067 0.187-0.12 0.334-0.12 0.134 0 0.361-0.053 0.494-0.12 0.735-0.401 1.696-0.548 3.472-0.548 1.309 0 2.030-0.053 2.431-0.2 0.721-0.254 1.482-0.254 2.097 0 0.254 0.107 0.614 0.2 0.788 0.2 0.16 0 0.347 0.053 0.387 0.134 0.040 0.067 0.2 0.134 0.347 0.134s0.294 0.094 0.334 0.2c0.053 0.107 0.24 0.2 0.454 0.2 0.2 0 0.441 0.093 0.534 0.2s0.294 0.2 0.467 0.2c0.16 0 0.574 0.147 0.921 0.334s0.775 0.334 0.962 0.334c0.174 0 0.361 0.094 0.401 0.2 0.053 0.107 0.147 0.2 0.24 0.2 0.16 0 1.282 1.135 1.282 1.295 0 0.067 0.187 0.321 0.414 0.574 0.24 0.254 0.574 0.708 0.775 1.002 0.187 0.294 0.374 0.561 0.414 0.601 0.254 0.254 0.534 1.055 0.534 1.549 0 0.427 0.053 0.588 0.2 0.588 0.107 0 0.2 0.094 0.2 0.2s0.067 0.2 0.134 0.2c0.080 0 0.134 0.067 0.134 0.147 0 0.067-0.053 0.094-0.134 0.053-0.067-0.040 0.013 0.214 0.187 0.561 0.347 0.735 0.574 1.349 0.788 2.11 0.187 0.708 0.28 7.733 0.107 8.347-0.067 0.254-0.187 0.895-0.267 1.402-0.187 1.309-0.294 1.843-0.414 2.003-0.053 0.080-0.134 0.307-0.187 0.534-0.053 0.214-0.147 0.427-0.187 0.467-0.187 0.134-0.561 0.962-0.561 1.215 0 0.134-0.053 0.254-0.134 0.254-0.067 0-0.16 0.134-0.214 0.307-0.040 0.16-0.307 0.481-0.588 0.694-0.294 0.227-0.521 0.481-0.534 0.574 0 0.080-0.053 0.16-0.134 0.16-0.067 0-0.134 0.080-0.134 0.174s-0.12 0.174-0.254 0.187c-0.134 0.013-0.427 0.187-0.641 0.401-0.694 0.654-1.068 0.948-1.362 1.042-0.16 0.040-0.28 0.134-0.28 0.2s-0.12 0.16-0.267 0.2c-0.147 0.053-0.24 0.147-0.2 0.214 0.053 0.067 0.013 0.12-0.080 0.12-0.254 0-1.189 0.441-1.189 0.561 0 0.053-0.147 0.107-0.32 0.107s-0.347 0.093-0.401 0.2c-0.040 0.107-0.187 0.2-0.32 0.2s-0.294 0.040-0.347 0.093c-0.053 0.053-0.374 0.2-0.721 0.334-0.534 0.2-1.068 0.24-3.726 0.24-1.99 0-3.112 0.053-3.138 0.134-0.080 0.254-0.948 0.307-1.242 0.080zM17.070 28.771c0-0.307 0.053-0.347 0.361-0.307 0.254 0.027 0.361 0.134 0.401 0.361 0.067 0.454 0.28 0.681 0.654 0.681 0.267 0 0.334-0.080 0.401-0.534 0.053-0.294 0.134-0.534 0.187-0.534 0.067 0 0.134-0.254 0.174-0.561 0.12-1.189 0.401-2.644 0.494-2.644 0.053 0 0.147-0.147 0.187-0.334 0.053-0.187 0.147-0.334 0.214-0.334 0.080 0 0.134-0.093 0.134-0.2s0.053-0.2 0.134-0.2c0.16 0 0.935-0.748 0.935-0.908 0-0.053 0.134-0.107 0.294-0.12 0.147-0.013 0.334-0.107 0.387-0.2 0.067-0.093 0.187-0.174 0.28-0.174 0.093-0.013 0.16-0.080 0.147-0.174-0.027-0.080 0.053-0.12 0.147-0.080 0.107 0.040 0.32-0.053 0.467-0.2 0.16-0.16 0.361-0.28 0.467-0.28 0.494 0 1.683-1.816 1.683-2.578 0-0.2-0.147-0.588-0.32-0.868-0.174-0.267-0.427-0.815-0.561-1.189-0.134-0.387-0.294-0.708-0.347-0.708-0.067 0-0.107-0.2-0.107-0.441s-0.067-0.508-0.147-0.588c-0.093-0.094-0.187-0.748-0.227-1.469-0.027-0.721-0.12-1.336-0.174-1.376-0.12-0.080-0.294-1.202-0.534-3.472-0.080-0.694-0.187-1.322-0.267-1.389-0.067-0.080-0.12-0.321-0.12-0.561 0-0.227-0.093-0.494-0.2-0.588s-0.2-0.28-0.2-0.414c0-0.147-0.053-0.254-0.134-0.254-0.067 0-0.134-0.093-0.134-0.2s-0.053-0.2-0.107-0.2c-0.067 0-0.187-0.147-0.267-0.321-0.147-0.347-1.255-1.149-1.576-1.149-0.093 0-0.187-0.040-0.187-0.107 0-0.16-1.269-0.561-1.79-0.561-0.28 0-0.628-0.067-0.775-0.147-0.401-0.214-2.097-0.24-2.631-0.027-0.24 0.094-0.708 0.174-1.015 0.174-0.32 0-0.748 0.094-0.948 0.2-0.214 0.107-0.494 0.2-0.614 0.2-0.134 0-0.24 0.067-0.24 0.134 0 0.080-0.107 0.134-0.24 0.134s-0.414 0.174-0.628 0.401c-0.2 0.214-0.414 0.361-0.467 0.334-0.12-0.080-0.494 0.387-0.828 1.015-0.147 0.28-0.32 0.561-0.387 0.601s-0.12 0.174-0.12 0.307c0 0.134-0.094 0.427-0.2 0.628-0.107 0.214-0.2 0.521-0.2 0.694 0 0.16-0.053 0.294-0.134 0.294-0.067 0-0.134 0.187-0.134 0.401 0 0.227-0.094 0.628-0.2 0.895-0.147 0.361-0.2 1.042-0.2 2.925 0 1.402-0.053 2.457-0.12 2.457s-0.16 0.174-0.214 0.401c-0.053 0.214-0.147 0.427-0.214 0.467-0.067 0.053-0.12 0.2-0.12 0.361 0 0.147-0.093 0.441-0.2 0.654s-0.294 0.561-0.401 0.775c-0.107 0.214-0.2 0.508-0.2 0.654 0 0.16-0.053 0.32-0.134 0.361-0.067 0.040-0.134 0.227-0.134 0.401s0.067 0.361 0.134 0.401c0.080 0.040 0.134 0.24 0.134 0.441s0.093 0.534 0.2 0.748c0.107 0.2 0.2 0.521 0.2 0.694 0 0.187 0.093 0.361 0.2 0.401 0.107 0.053 0.2 0.16 0.2 0.24 0 0.093 0.321 0.267 0.708 0.401 0.374 0.134 0.815 0.28 0.962 0.347s0.761 0.307 1.376 0.548c0.601 0.24 1.095 0.494 1.095 0.548s0.067 0.107 0.134 0.107c0.227 0 0.668 0.521 0.668 0.788 0 0.147 0.067 0.28 0.147 0.307s0.187 0.361 0.227 0.748c0.027 0.387 0.12 0.735 0.174 0.775 0.067 0.040 0.12 0.427 0.12 0.868 0 1.002 0.347 1.856 0.748 1.856 0.2 0 0.321-0.107 0.374-0.334 0.094-0.361 0.347-0.454 0.347-0.134 0 0.107 0.067 0.2 0.147 0.2 0.067 0 0.107 0.053 0.067 0.107-0.027 0.053 0.134 0.12 0.387 0.134 0.401 0.027 0.454 0 0.494-0.334 0.027-0.28 0.12-0.387 0.374-0.414 0.267-0.027 0.294-0.013 0.134 0.093-0.134 0.093-0.147 0.147-0.027 0.147 0.080 0 0.16 0.12 0.16 0.267 0 0.16 0.12 0.32 0.294 0.387 0.374 0.134 0.775-0.307 0.775-0.855z"></path>
<path d="M14.506 25.339c-0.187-0.28-0.187-0.387-0.040-0.721 0.094-0.214 0.267-0.601 0.387-0.881 0.12-0.267 0.214-0.574 0.214-0.694 0-0.294 0.294-0.922 0.534-1.108 0.32-0.267 0.975-0.16 1.135 0.2 0.067 0.16 0.174 0.294 0.227 0.294 0.067 0 0.107 0.147 0.107 0.334s0.080 0.334 0.187 0.334c0.187 0 0.347 0.801 0.347 1.683 0 0.588-0.2 0.681-1.683 0.788-1.175 0.093-1.215 0.093-1.416-0.227z"></path>
<path d="M10.833 22.16c-0.427-0.107-0.788-0.24-0.815-0.294-0.027-0.067-0.134-0.107-0.24-0.107s-0.387-0.107-0.628-0.227c-0.24-0.12-0.481-0.214-0.534-0.2-0.067 0.013-0.080-0.013-0.040-0.080s-0.040-0.2-0.16-0.32c-0.254-0.227-0.721-0.775-0.881-1.028-0.174-0.267 1.456-1.763 1.936-1.776 0.2-0.013 0.347-0.067 0.32-0.12-0.174-0.267 0.508-0.24 1.095 0.053 1.042 0.521 1.549 0.735 1.95 0.815 0.2 0.053 0.361 0.147 0.361 0.214 0 0.080 0.147 0.134 0.334 0.134s0.334 0.053 0.334 0.12c0 0.067 0.16 0.16 0.347 0.2 0.2 0.053 0.441 0.174 0.534 0.28 0.214 0.214 0.254 0.735 0.053 0.735-0.067 0-0.134 0.080-0.134 0.174 0 0.107-0.12 0.294-0.267 0.427s-0.227 0.294-0.174 0.374c0.053 0.080 0.013 0.093-0.080 0.040-0.107-0.067-0.187 0-0.24 0.174-0.067 0.267-0.187 0.334-0.534 0.294-0.094-0.013-0.174 0.027-0.174 0.107 0 0.214-1.549 0.227-2.364 0.013z"></path>
<path d="M13.371 22.334c0.053-0.040 0.134-0.040 0.187 0 0.040 0.053 0 0.093-0.094 0.093s-0.134-0.040-0.094-0.093z"></path>
<path d="M18.713 22.053c-0.32-0.027-0.574-0.093-0.574-0.16s-0.134-0.134-0.294-0.16c-0.2-0.027-0.32-0.147-0.347-0.334-0.027-0.16-0.12-0.361-0.227-0.441-0.187-0.16-0.16-0.347 0.107-0.908 0.16-0.334 2.043-1.309 3.299-1.709 0.401-0.12 0.935-0.307 1.175-0.414 0.481-0.214 1.002-0.147 1.429 0.174 0.214 0.16 0.267 0.347 0.254 1.002 0 0.454-0.067 0.855-0.147 0.895-0.080 0.053-0.174 0.227-0.227 0.401s-0.2 0.294-0.361 0.294c-0.134 0-0.254 0.067-0.254 0.134 0 0.080-0.067 0.134-0.16 0.134-0.080 0-0.254 0.080-0.361 0.174-0.12 0.093-0.548 0.28-0.948 0.427-0.401 0.134-0.761 0.28-0.801 0.334-0.093 0.134-0.908 0.214-1.563 0.16z"></path>
<path d="M11.167 15.896c-0.708-0.548-0.761-0.668-0.534-1.135 0.12-0.227 0.24-0.441 0.28-0.481s0.2-0.294 0.334-0.561c0.147-0.28 0.307-0.508 0.374-0.508 0.053 0 0.107-0.094 0.107-0.2s0.094-0.2 0.2-0.2c0.107 0 0.2-0.094 0.2-0.2s0.053-0.2 0.12-0.2c0.067 0 0.174-0.134 0.227-0.294 0.053-0.174 0.214-0.427 0.374-0.574 0.387-0.361 0.748-0.895 0.748-1.095s-1.723-1.91-1.923-1.91c-0.040 0-0.347-0.267-0.694-0.601-0.548-0.534-0.601-0.628-0.441-0.828 0.347-0.441 0.654-0.708 0.788-0.708 0.080 0 0.12-0.080 0.107-0.16-0.027-0.12 0.16-0.187 0.561-0.214s0.534 0.013 0.414 0.093c-0.147 0.093-0.12 0.134 0.107 0.214 0.147 0.040 0.28 0.147 0.28 0.214 0 0.080 0.187 0.321 0.401 0.548 0.227 0.214 0.401 0.441 0.401 0.508s0.16 0.174 0.374 0.24c0.2 0.080 0.28 0.147 0.174 0.147-0.294 0.013 0.467 0.548 0.788 0.548 0.294 0 1.068-0.668 1.068-0.921 0-0.080 0.093-0.147 0.2-0.147s0.2-0.093 0.2-0.2c0-0.107 0.053-0.2 0.12-0.2s0.174-0.134 0.227-0.294c0.053-0.174 0.214-0.427 0.374-0.588 0.16-0.147 0.347-0.387 0.427-0.534 0.187-0.334 0.775-0.401 1.149-0.134 0.16 0.12 0.441 0.214 0.601 0.214 0.414 0 0.401 0.414-0.027 0.895-0.668 0.721-1.135 1.416-1.135 1.656 0 0.147-0.053 0.254-0.107 0.254s-0.254 0.24-0.427 0.534c-0.187 0.294-0.374 0.534-0.427 0.534-0.067 0-0.107 0.094-0.107 0.2s-0.053 0.2-0.134 0.2c-0.067 0-0.134 0.134-0.134 0.28 0 0.307 1.322 1.656 1.763 1.803 0.134 0.040 0.24 0.134 0.24 0.2s0.093 0.12 0.2 0.12c0.107 0 0.2 0.094 0.2 0.2s0.067 0.2 0.147 0.2c0.080 0 0.441 0.307 0.801 0.668 0.361 0.374 0.721 0.668 0.801 0.668 0.093 0 0.067 0.12-0.067 0.334-0.12 0.174-0.214 0.494-0.214 0.708 0 0.427-0.32 0.815-0.467 0.561-0.040-0.067-0.187-0.134-0.307-0.134-0.134 0-0.347-0.147-0.481-0.334s-0.294-0.334-0.361-0.334c-0.147 0-0.922-0.801-0.922-0.948 0-0.067-0.080-0.12-0.187-0.12-0.2 0-0.401-0.16-1.616-1.215-0.561-0.494-0.775-0.614-1.055-0.561-0.187 0.040-0.347 0.107-0.347 0.16s-0.187 0.28-0.401 0.534c-0.227 0.24-0.361 0.494-0.32 0.574 0.053 0.094 0.027 0.107-0.067 0.053-0.080-0.053-0.187 0-0.24 0.147-0.053 0.12-0.227 0.361-0.401 0.521s-0.307 0.32-0.307 0.374c0 0.053-0.080 0.187-0.16 0.294-0.094 0.107-0.24 0.267-0.307 0.361-0.494 0.588-0.721 0.935-0.668 1.042 0.147 0.227-0.494 0.040-0.895-0.267z"></path>
<path d="M19.941 15.883c0.040-0.067 0.107-0.134 0.147-0.134s0.027 0.067-0.013 0.134c-0.040 0.080-0.107 0.134-0.147 0.134s-0.027-0.053 0.013-0.134z"></path>
</svg>
