<!-- Generated by IcoMoon.io -->
<svg version="1.1" xmlns="http://www.w3.org/2000/svg" width="32" height="32" viewBox="0 0 32 32">
<title>card-decks-terrain</title>
<path d="M16.009 31.67c-0.481-0.58-2.178-1.216-3.224-1.216-0.778 0-1.103-0.212-1.103-0.749 0-0.198-0.071-0.382-0.156-0.41-0.071-0.028-0.184-0.325-0.226-0.65-0.071-0.551-0.042-0.65 0.368-1.018 0.438-0.41 0.438-0.424 0.438-1.753 0-0.806 0.057-1.357 0.141-1.357s0.141 0.071 0.141 0.141c0 0.085 0.099 0.141 0.212 0.141s0.212 0.099 0.212 0.212c0 0.113 0.071 0.212 0.156 0.212 0.198 0 0.551 0.354 0.551 0.551 0 0.085 0.071 0.156 0.141 0.156 0.085 0 0.311 0.17 0.509 0.382 0.283 0.311 0.467 0.382 0.947 0.368 0.325-0.014 0.608-0.099 0.636-0.184 0.071-0.184 1.117-0.184 1.188 0 0.028 0.085 0.269 0.184 0.537 0.226 0.41 0.057 0.566 0 0.962-0.354 0.255-0.24 0.523-0.438 0.608-0.438 0.071 0 0.127-0.085 0.127-0.184s0.127-0.255 0.283-0.354c0.156-0.099 0.283-0.269 0.283-0.382s0.127-0.212 0.283-0.212c0.156 0 0.283-0.071 0.283-0.141 0-0.085 0.141-0.198 0.325-0.269 0.354-0.127 0.523 0.028 0.509 0.481 0 0.156-0.042 0.212-0.071 0.113-0.042-0.099-0.156-0.141-0.24-0.099-0.113 0.042-0.17 0.452-0.156 1.244 0.014 1.287 0.141 1.541 0.82 1.725 0.396 0.099 0.509 0.339 0.156 0.339-0.141 0-0.212 0.141-0.212 0.452 0 0.255-0.156 0.636-0.354 0.905-0.198 0.255-0.354 0.523-0.354 0.608 0 0.184-0.495 0.467-0.749 0.424-0.085-0.014-0.354 0.042-0.566 0.127-0.226 0.099-0.509 0.17-0.65 0.17s-0.339 0.085-0.438 0.198c-0.085 0.113-0.24 0.184-0.339 0.141s-0.269 0.028-0.368 0.156c-0.099 0.113-0.255 0.212-0.354 0.212s-0.212 0.099-0.269 0.212c-0.113 0.325-0.679 0.24-0.99-0.127z"></path>
<path d="M22.542 26.255c-0.17-0.042-0.255-0.198-0.255-0.481 0-0.255 0.057-0.396 0.141-0.339 0.085 0.042 0.141-0.042 0.141-0.198s-0.057-0.311-0.127-0.354c-0.071-0.057-0.17-0.339-0.226-0.65s-0.156-0.566-0.226-0.566c-0.071 0-0.127-0.226-0.127-0.523 0-0.396-0.099-0.594-0.452-0.919-0.24-0.212-0.566-0.396-0.707-0.396s-0.297-0.099-0.339-0.212c-0.057-0.113-0.184-0.212-0.297-0.212-0.297 0-0.891 0.58-0.891 0.891 0 0.127-0.042 0.24-0.113 0.24-0.099 0-0.354 0.424-0.537 0.891-0.042 0.127-0.24 0.24-0.424 0.24-0.311 0-0.339-0.057-0.339-0.594 0-1.23-0.297-1.555-1.513-1.626-0.778-0.042-1.174 0.17-1.174 0.65 0 0.127-0.071 0.311-0.17 0.41-0.127 0.127-0.127 0.255 0 0.523 0.099 0.198 0.17 0.523 0.17 0.707 0 0.283-0.071 0.354-0.354 0.354-0.212 0-0.354-0.085-0.354-0.198s-0.042-0.226-0.099-0.255c-0.17-0.071-0.749-0.933-0.749-1.103 0-0.085-0.226-0.382-0.495-0.665-0.467-0.481-0.509-0.495-0.919-0.325-0.65 0.269-1.131 0.693-1.131 1.004 0 0.156-0.099 0.481-0.226 0.721-0.141 0.283-0.226 0.806-0.226 1.541 0 1.089 0 1.117-0.339 1.117-0.24 0-0.354-0.099-0.424-0.354-0.042-0.198-0.141-0.354-0.212-0.354s-0.127-0.255-0.127-0.551c0-0.311-0.071-0.58-0.156-0.608-0.099-0.028-0.184-0.665-0.24-1.64-0.057-1.372-0.042-1.584 0.17-1.669 0.354-0.127 0.283-0.721-0.085-0.82-1.089-0.283-1.895 0.184-2.319 1.372-0.042 0.127-0.141 0.24-0.212 0.24s-0.127 0.085-0.127 0.198c0 0.198-0.424 1.089-0.58 1.216-0.042 0.042-0.127 0.311-0.184 0.608-0.057 0.283-0.156 0.523-0.226 0.523-0.085 0-0.141 0.141-0.141 0.325 0 0.17-0.099 0.424-0.212 0.566-0.184 0.255-0.198 0.255-0.551 0-0.198-0.141-0.368-0.339-0.368-0.424 0-0.099-0.057-0.184-0.127-0.184s-0.184-0.141-0.24-0.311c-0.042-0.17-0.184-0.396-0.297-0.509-0.17-0.17-0.17-0.24 0.028-0.438 0.113-0.141 0.212-0.41 0.212-0.608s0.099-0.438 0.212-0.537c0.113-0.099 0.212-0.269 0.212-0.368 0-0.113 0.057-0.198 0.141-0.198 0.071 0 0.17-0.156 0.226-0.354 0.042-0.198 0.141-0.354 0.212-0.354s0.127-0.057 0.127-0.141c0-0.269 0.467-0.679 0.679-0.594 0.17 0.057 0.198-0.014 0.141-0.297-0.071-0.382 0.198-0.551 0.354-0.24 0.042 0.085 0.057 0.071 0.042-0.028-0.014-0.113-0.297-0.198-0.622-0.226-0.467-0.028-0.594 0-0.594 0.17 0 0.198-0.452 0.311-0.891 0.24-0.071-0.014-0.085 0.042-0.028 0.127 0.042 0.071 0.028 0.141-0.042 0.141s-0.354 0.184-0.608 0.424c-0.382 0.339-0.608 0.424-1.145 0.424h-0.679v-0.566c0-0.467-0.042-0.566-0.283-0.566-0.339 0-0.467-0.41-0.396-1.287 0.028-0.509 0.099-0.636 0.339-0.665 0.17-0.028 0.382-0.198 0.481-0.396 0.156-0.283 0.311-0.339 0.834-0.368 0.354 0 0.806 0 0.99 0.014 0.566 0.057 1.004-0.269 1.004-0.721 0-0.212-0.057-0.396-0.141-0.396-0.071 0-0.141-0.311-0.141-0.693 0-1.004-0.198-1.145-1.57-1.145-0.65 0-1.117-0.057-1.117-0.141 0-0.071-0.17-0.141-0.368-0.141-0.311 0-0.354-0.057-0.311-0.382 0.028-0.283 0.127-0.41 0.354-0.438 0.297-0.042 0.325-0.127 0.325-0.891 0-0.919 0.438-2.008 0.665-1.654 0.127 0.212 1.584 0.962 1.852 0.962 0.099 0 0.17-0.212 0.17-0.566 0-0.311 0.071-0.566 0.141-0.566 0.085 0 0.141-0.156 0.141-0.339 0-0.438 0.382-0.778 0.467-0.41 0.042 0.212 0.057 0.198 0.042-0.028-0.014-0.17-0.113-0.269-0.255-0.269-0.141 0.014-0.226-0.042-0.212-0.141s-0.339-0.17-1.061-0.198c-0.962-0.028-1.103-0.071-1.188-0.339-0.057-0.198-0.014-0.354 0.141-0.467 0.127-0.099 0.226-0.283 0.226-0.41s0.099-0.269 0.212-0.311c0.113-0.057 0.212-0.17 0.212-0.255 0-0.099 0.156-0.269 0.354-0.368s0.354-0.269 0.354-0.382c0-0.099 0.071-0.184 0.156-0.184s0.339-0.184 0.566-0.41c0.226-0.226 0.41-0.481 0.41-0.566 0-0.099 0.339-0.156 0.834-0.156 0.764 0 0.891 0.042 1.372 0.495 0.283 0.269 0.82 0.636 1.174 0.806 0.354 0.184 0.679 0.368 0.721 0.424 0.042 0.042 0.24 0.141 0.467 0.184 0.212 0.057 0.339 0.156 0.297 0.226s0.028 0.127 0.141 0.127c0.127 0 0.226 0.099 0.226 0.212s0.099 0.212 0.212 0.212c0.113 0 0.212 0.057 0.212 0.141 0 0.212 0.467 0.707 0.594 0.622 0.057-0.042 0.113 0.099 0.113 0.325 0 0.283 0.042 0.339 0.127 0.198 0.099-0.156 0.17-0.127 0.311 0.141 0.099 0.184 0.17 0.396 0.156 0.452-0.014 0.071 0.014 0.085 0.085 0.042 0.269-0.156 1.301 1.343 1.301 1.881 0 0.17 0.071 0.297 0.141 0.297 0.085 0 0.141 0.156 0.141 0.354 0 0.212 0.099 0.566 0.24 0.82 0.17 0.339 0.226 0.834 0.226 1.923 0.014 1.669-0.099 1.852-1.061 1.852-0.297 0-0.537 0.071-0.537 0.141 0 0.085-0.113 0.141-0.255 0.141-0.424 0-0.792 0.58-0.764 1.202 0 0.311 0.085 0.58 0.17 0.608 0.071 0.028 0.141 0.141 0.141 0.255s0.099 0.198 0.212 0.198c0.113 0 0.212 0.057 0.212 0.113 0 0.17 1.089 0.424 1.287 0.311 0.113-0.085 0.113-0.127-0.028-0.184-0.156-0.057-0.156-0.085 0-0.085 0.156-0.014 0.141-0.071-0.071-0.226-0.269-0.212-0.269-0.212 0.014-0.127 0.226 0.071 0.24 0.057 0.071-0.071-0.113-0.085-0.368-0.156-0.566-0.156-0.283 0-0.311-0.028-0.141-0.141 0.184-0.113 0.17-0.141-0.028-0.141-0.141 0-0.255-0.099-0.255-0.212s0.099-0.212 0.212-0.212c0.113 0 0.212-0.057 0.212-0.141 0-0.184 1.089-0.184 1.202 0 0.17 0.269 0.622-0.198 0.707-0.735 0.057-0.297 0.156-0.566 0.226-0.622 0.17-0.099 0.17-2.277 0-2.39-0.085-0.042-0.184-0.368-0.24-0.707-0.042-0.354-0.141-0.679-0.212-0.721s-0.127-0.24-0.127-0.452c0-0.212-0.099-0.566-0.212-0.792-0.113-0.212-0.212-0.495-0.212-0.594 0-0.113-0.099-0.24-0.212-0.283-0.113-0.057-0.212-0.24-0.212-0.424s-0.057-0.339-0.141-0.339c-0.071 0-0.141-0.071-0.141-0.156 0-0.071-0.184-0.311-0.396-0.523s-0.58-0.636-0.806-0.947c-0.226-0.311-0.566-0.693-0.735-0.863-0.184-0.17-0.283-0.339-0.226-0.396s-0.042-0.127-0.212-0.184c-0.17-0.042-0.283-0.127-0.24-0.184 0.042-0.071-0.141-0.24-0.382-0.396-0.255-0.17-0.665-0.523-0.919-0.792-0.24-0.283-0.481-0.509-0.537-0.509-0.042 0-0.184-0.085-0.283-0.17-0.438-0.396-0.594-0.495-1.16-0.764-0.608-0.269-0.806-0.693-0.396-0.848 0.113-0.057 0.212-0.184 0.212-0.311 0-0.184 0.028-0.184 0.255 0.014 0.141 0.141 0.368 0.24 0.509 0.24 0.198 0 0.863 0.339 1.075 0.566 0.141 0.141 0.636 0.438 0.891 0.509 0.127 0.057 0.24 0.141 0.24 0.198 0 0.071 0.198 0.17 0.438 0.212 0.325 0.071 0.396 0.127 0.255 0.226-0.156 0.099-0.141 0.127 0.057 0.127 0.141 0 0.283 0.099 0.325 0.212 0.057 0.113 0.141 0.212 0.212 0.212 0.17 0 0.976 0.806 0.976 0.99 0 0.071 0.085 0.141 0.198 0.141s0.226 0.099 0.283 0.212c0.113 0.311 0.679 0.283 0.622-0.028-0.028-0.141-0.099-0.297-0.156-0.339s-0.127-0.226-0.141-0.382c-0.014-0.17-0.099-0.311-0.184-0.311s-0.198-0.141-0.255-0.311c-0.071-0.269-0.113-0.297-0.226-0.113-0.099 0.156-0.141 0.099-0.141-0.24 0-0.255-0.057-0.467-0.127-0.467s-0.17-0.156-0.212-0.354c-0.057-0.198-0.156-0.354-0.226-0.354-0.085 0-0.141-0.099-0.141-0.212s-0.057-0.212-0.127-0.212c-0.071 0-0.184-0.141-0.24-0.311-0.057-0.184-0.156-0.368-0.226-0.41-0.085-0.057-0.156-0.255-0.156-0.438-0.014-0.24-0.099-0.339-0.226-0.283-0.127 0.042-0.17-0.014-0.127-0.198 0.028-0.141 0.141-0.255 0.226-0.226 0.099 0.014 0.17-0.127 0.17-0.311 0-0.311 0.042-0.325 1.004-0.311 0.848 0.014 1.046 0.057 1.174 0.283 0.085 0.156 0.297 0.424 0.481 0.594 0.17 0.156 0.311 0.368 0.311 0.467 0 0.085 0.057 0.156 0.141 0.156 0.071 0 0.17 0.156 0.226 0.354 0.042 0.198 0.141 0.354 0.198 0.354s0.156 0.156 0.198 0.354c0.057 0.198 0.156 0.354 0.226 0.354 0.085 0 0.141 0.156 0.141 0.354s0.071 0.354 0.141 0.354c0.085 0 0.141 0.085 0.141 0.184 0 0.085 0.085 0.339 0.198 0.551s0.24 0.566 0.297 0.806c0.099 0.495 0.594 0.622 0.721 0.198 0.042-0.141 0.141-0.382 0.198-0.537 0.071-0.156 0.156-0.41 0.184-0.566s0.127-0.269 0.212-0.255c0.099 0.028 0.17-0.113 0.17-0.311 0-0.297 0.382-1.301 0.566-1.485 0.17-0.17 0.566-1.032 0.566-1.216 0-0.113 0.099-0.24 0.212-0.283 0.113-0.057 0.212-0.141 0.212-0.226 0-0.297 0.438-0.537 0.99-0.537s0.594-0.028 0.537-0.339c-0.057-0.311-0.014-0.354 0.438-0.396 0.834-0.071 1.046 0.014 0.976 0.382-0.057 0.24 0 0.354 0.198 0.396 0.368 0.099 0.311 0.452-0.17 0.947-0.226 0.24-0.424 0.495-0.424 0.58 0 0.071-0.156 0.311-0.339 0.509s-0.452 0.608-0.608 0.905c-0.141 0.297-0.297 0.551-0.354 0.551-0.071 0-0.113 0.113-0.113 0.255 0 0.127-0.099 0.368-0.212 0.509-0.113 0.156-0.212 0.424-0.212 0.608s-0.085 0.325-0.184 0.325c-0.099 0-0.198 0.156-0.212 0.368-0.014 0.198 0.028 0.325 0.113 0.269 0.085-0.042 0.141 0 0.141 0.099s0.085 0.028 0.184-0.156c0.085-0.184 0.283-0.41 0.438-0.495 0.141-0.085 0.438-0.311 0.65-0.509 0.622-0.566 0.82-0.707 0.99-0.707 0.071 0 0.141-0.057 0.141-0.113 0-0.141 1.23-1.018 1.414-1.018 0.085 0 0.141-0.057 0.141-0.113 0-0.184 1.174-0.65 1.64-0.65 0.537 0 0.905 0.339 0.905 0.806 0 0.255-0.141 0.41-0.523 0.608-0.297 0.141-0.551 0.311-0.58 0.382-0.028 0.057-0.17 0.099-0.311 0.099s-0.311 0.071-0.354 0.141c-0.042 0.085-0.382 0.283-0.749 0.438-0.368 0.17-0.693 0.339-0.735 0.396-0.042 0.042-0.297 0.212-0.566 0.354-0.523 0.297-2.545 2.291-2.545 2.517 0 0.071-0.141 0.269-0.325 0.438-0.311 0.311-0.806 1.244-0.806 1.527 0 0.085-0.099 0.24-0.212 0.354-0.141 0.141-0.212 0.495-0.212 0.99 0 0.509-0.057 0.792-0.184 0.848-0.127 0.042-0.17 0.226-0.127 0.509 0.057 0.325 0.028 0.41-0.113 0.325s-0.17-0.014-0.085 0.354c0.042 0.255 0.127 1.004 0.184 1.654 0.042 0.636 0.127 1.174 0.184 1.174s0.141 0.255 0.198 0.566c0.085 0.537 0.113 0.566 0.58 0.566 0.269 0 0.495-0.057 0.495-0.141 0-0.226 0.665-0.156 0.764 0.085 0.156 0.382 0.099 0.764-0.127 0.848-0.339 0.127-0.24 0.339 0.141 0.339 0.198 0 0.354-0.057 0.354-0.141 0-0.071 0.085-0.141 0.198-0.141 0.354 0 0.65-0.424 0.65-0.891-0.014-0.622-0.424-1.089-1.018-1.103-0.255-0.014-0.65-0.071-0.891-0.127l-0.424-0.113 0.848-0.057-0.424-0.099c-0.297-0.057-0.424-0.17-0.424-0.368 0.014-0.156-0.042-0.325-0.113-0.368-0.141-0.113-0.255-2.701-0.099-2.602 0.057 0.042 0.156-0.311 0.212-0.778s0.156-0.891 0.226-0.933c0.071-0.042 0.127-0.226 0.127-0.41 0-0.354 0.438-0.707 0.636-0.523 0.071 0.057 0.071 0.028 0.028-0.057-0.099-0.17 0.933-1.244 1.81-1.909 0.24-0.184 0.481-0.41 0.537-0.509 0.071-0.113 0.17-0.156 0.24-0.113 0.057 0.042 0.141-0.028 0.198-0.141 0.042-0.113 0.156-0.212 0.255-0.212 0.113 0 0.382-0.17 0.622-0.396 0.24-0.212 0.566-0.396 0.735-0.396 0.156 0 0.481-0.17 0.721-0.382s0.566-0.382 0.721-0.382c0.156 0 0.283-0.042 0.283-0.113 0-0.127 1.273-0.594 1.626-0.594 0.24 0 0.636 0.311 0.636 0.509 0 0.057 0.255 0.495 0.566 0.99s0.566 0.99 0.566 1.117c0 0.24-0.495 0.778-0.707 0.778-0.071 0-0.396 0.255-0.721 0.58-0.594 0.594-0.636 0.976-0.141 1.357 0.269 0.212 0.721 0.24 0.721 0.042 0-0.071 0.184-0.141 0.424-0.141 0.226 0 0.467-0.099 0.537-0.226 0.198-0.339 0.778-0.184 0.99 0.269 0.099 0.212 0.24 0.382 0.325 0.382 0.071 0 0.127 0.071 0.127 0.156 0 0.071-0.085 0.099-0.17 0.042-0.141-0.085-0.141-0.057 0 0.099 0.085 0.099 0.17 0.537 0.17 1.004 0 0.778-0.014 0.82-0.452 1.018-0.255 0.113-0.82 0.226-1.259 0.255-0.509 0.042-0.947 0.17-1.216 0.368-0.382 0.269-0.452 0.41-0.495 1.103-0.057 0.905 0.042 1.018 1.089 1.4 0.396 0.141 0.764 0.311 0.848 0.382 0.071 0.057 0.339 0.113 0.594 0.113s0.467 0.071 0.467 0.156c0 0.071-0.057 0.099-0.141 0.057-0.071-0.042-0.141-0.042-0.141 0.028 0 0.057 0.226 0.255 0.495 0.438 0.396 0.255 0.495 0.41 0.495 0.764 0 0.537-0.396 1.485-0.679 1.598-0.226 0.085-1.16-0.438-1.16-0.65 0-0.071-0.099-0.127-0.212-0.127s-0.212-0.057-0.212-0.141c0-0.071-0.156-0.17-0.354-0.226-0.198-0.042-0.354-0.141-0.354-0.212s-0.156-0.127-0.354-0.127c-0.198 0-0.354-0.057-0.354-0.141 0-0.198-0.594-0.17-0.877 0.057-0.41 0.311-0.297 0.58 0.65 1.527 0.495 0.495 0.933 1.032 0.99 1.216 0.057 0.17 0.17 0.311 0.24 0.311s0.127 0.099 0.127 0.212c0 0.113 0.071 0.212 0.141 0.212 0.085 0 0.141 0.325 0.141 0.707 0 0.396-0.057 0.707-0.141 0.707-0.071 0-0.141 0.085-0.141 0.184s-0.127 0.297-0.297 0.438c-0.283 0.24-0.311 0.24-0.566-0.042-0.141-0.156-0.269-0.382-0.269-0.481 0-0.113-0.099-0.283-0.212-0.382s-0.212-0.297-0.212-0.438c0-0.156-0.057-0.269-0.113-0.269-0.071 0-0.24-0.255-0.396-0.566-0.141-0.311-0.354-0.566-0.438-0.566-0.099 0-0.184-0.057-0.184-0.141 0-0.071-0.127-0.269-0.297-0.438-0.339-0.339-1.23-0.325-1.4 0.014-0.467 0.962-0.566 1.372-0.566 2.446 0 0.65-0.057 1.23-0.127 1.315-0.085 0.071-0.156 0.481-0.184 0.905-0.042 0.65-0.085 0.778-0.297 0.749-0.17 0-0.226 0.057-0.184 0.184 0.085 0.198 0.042 0.212-0.368 0.099zM23.235 25.406c-0.042-0.141-0.071-0.057-0.071 0.17 0 0.24 0.028 0.339 0.071 0.255 0.028-0.099 0.028-0.297 0-0.424zM1.572 19.283c-0.042-0.071-0.17-0.141-0.255-0.141-0.099 0-0.085 0.057 0.042 0.141 0.269 0.17 0.325 0.17 0.212 0zM11.329 14.051c0.057-0.085 0.212-0.113 0.354-0.071s0.297 0.014 0.354-0.071c0.042-0.085 0.156-0.113 0.226-0.071 0.255 0.17 0.113-0.085-0.226-0.41-0.198-0.184-0.354-0.382-0.354-0.438 0-0.156-1.244-1.343-1.4-1.343-0.071 0-0.156-0.042-0.184-0.099-0.085-0.212-1.075-0.636-1.23-0.551-0.24 0.156-0.184 1.117 0.085 1.654 0.339 0.679 0.891 1.259 1.202 1.259 0.156 0 0.226 0.071 0.184 0.141-0.057 0.085 0.113 0.141 0.41 0.141 0.269 0 0.537-0.071 0.58-0.141zM21.864 14.080c0-0.057 0.198-0.127 0.452-0.141 0.255-0.028 0.566-0.17 0.707-0.311 0.382-0.396 0.976-1.64 1.004-2.065s-0.396-0.806-0.58-0.523c-0.057 0.085-0.283 0.212-0.495 0.255-0.212 0.057-0.382 0.156-0.382 0.226s-0.099 0.127-0.212 0.127c-0.113 0-0.523 0.325-0.919 0.707-0.608 0.622-0.707 0.792-0.707 1.273 0 0.566 0 0.566 0.566 0.566 0.311 0 0.566-0.057 0.566-0.113zM3.141 13.472c0.042-0.085 0.014-0.226-0.071-0.311-0.127-0.127-0.141-0.099-0.071 0.099 0.085 0.226 0.057 0.255-0.141 0.184-0.141-0.057-0.212-0.042-0.156 0.042 0.113 0.184 0.311 0.184 0.438-0.014zM3.438 12.962c-0.057-0.042-0.099 0-0.099 0.099s0.042 0.141 0.099 0.099c0.042-0.057 0.042-0.141 0-0.198zM3.863 12.821c-0.057-0.042-0.099 0-0.099 0.099s0.042 0.141 0.099 0.099c0.042-0.057 0.042-0.141 0-0.198zM17.862 12.538c-0.057-0.042-0.099 0-0.099 0.099s0.042 0.141 0.099 0.099c0.042-0.057 0.042-0.141 0-0.198zM4.145 12.397c-0.057-0.042-0.141-0.042-0.198 0-0.042 0.057 0 0.099 0.099 0.099s0.141-0.042 0.099-0.099zM4.753 12.015c0-0.042-0.057-0.113-0.141-0.156-0.071-0.042-0.141-0.014-0.141 0.057 0 0.085 0.071 0.156 0.141 0.156 0.085 0 0.141-0.028 0.141-0.057zM4.895 11.082c0-0.071-0.057-0.141-0.141-0.141-0.071 0-0.141 0.071-0.141 0.141 0 0.085 0.071 0.141 0.141 0.141 0.085 0 0.141-0.057 0.141-0.141zM19.559 10.7c-0.057-0.042-0.099 0-0.099 0.099s0.042 0.141 0.099 0.099c0.042-0.057 0.042-0.141 0-0.198zM5.135 10.559c-0.057-0.042-0.141-0.042-0.198 0-0.042 0.057 0 0.099 0.099 0.099s0.141-0.042 0.099-0.099z"></path>
</svg>
