<!-- Generated by IcoMoon.io -->
<svg version="1.1" xmlns="http://www.w3.org/2000/svg" width="32" height="32" viewBox="0 0 32 32">
<title>characteristics-wounds</title>
<path d="M10.804 31.716c-0.305-0.305-0.283-1.286 0.044-1.090 0.153 0.087 0.174 0.065 0.087-0.109-0.131-0.196-0.24-0.196-0.48 0s-0.305 0.174-0.327-0.153c-0.022-0.24-0.022-0.48 0-0.567 0-0.109-0.065-0.174-0.196-0.174-0.109 0-0.218-0.392-0.218-0.872s0.109-0.872 0.218-0.872c0.305 0 0.283-0.806-0.022-0.915-0.153-0.044-0.065-0.371 0.218-0.894 0.523-0.915 0.436-1.657-0.24-2.55-0.763-0.959-1.504-1.308-2.899-1.308-0.959 0-1.46-0.131-1.853-0.436-0.523-0.392-0.545-0.48-0.48-2.659 0.044-1.874 0.131-2.289 0.48-2.637 0.501-0.436 0.458-0.218 0.501-4.621 0.044-2.724 0.109-3.357 0.436-3.814 0.196-0.283 0.371-0.828 0.371-1.199 0-0.349 0.305-1.242 0.654-1.962 0.371-0.697 0.632-1.395 0.567-1.548-0.153-0.371 0.436-0.806 1.94-1.504 0.719-0.327 1.853-0.85 2.507-1.177 1.024-0.48 1.547-0.588 3.553-0.632 1.765-0.065 2.528 0 3.051 0.24 0.392 0.196 1.003 0.414 1.351 0.501 0.371 0.087 0.894 0.327 1.177 0.567 0.283 0.218 0.61 0.392 0.741 0.392 0.196 0 0.785 0.588 1.657 1.635 0.523 0.632 0.894 2.31 0.894 4.010 0 1.003 0.174 2.201 0.414 3.030 0.327 1.068 0.371 1.504 0.196 1.896-0.24 0.545 0.262 2.223 1.112 3.618 0.283 0.48 0.458 1.112 0.458 1.765 0 0.61 0.131 1.155 0.327 1.351 0.436 0.436 0.436 1.657 0 1.657-0.196 0-0.392 0.131-0.458 0.305s-0.436 0.436-0.806 0.588c-0.392 0.153-0.806 0.392-0.959 0.523-0.153 0.109-0.392 0.327-0.567 0.458-0.153 0.131-0.785 0.371-1.417 0.523-0.632 0.174-1.133 0.371-1.133 0.458s-0.196 0.196-0.436 0.262c-0.283 0.065-0.48 0.371-0.588 0.828-0.109 0.61-0.153 0.654-0.305 0.305-0.131-0.349-0.174-0.349-0.174-0.087-0.022 0.196 0.174 0.785 0.414 1.308s0.436 1.177 0.436 1.46c0 0.262 0.087 0.48 0.196 0.48 0.262 0 0.087 1.112-0.327 2.071-0.458 1.133-1.177 0.915-1.177-0.349 0-0.218-0.087-0.414-0.218-0.414-0.109 0-0.218 0.262-0.218 0.61 0 0.85-0.218 1.090-1.133 1.155-0.85 0.087-1.526-0.283-1.068-0.545 0.262-0.174 0.327-1.199 0.109-1.744-0.196-0.523-0.523-0.414-0.523 0.174 0 0.305-0.087 0.61-0.218 0.676-0.109 0.065-0.218 0.48-0.218 0.894 0 0.523 0.087 0.719 0.262 0.61 0.153-0.087 0.174-0.065 0.087 0.109-0.087 0.131-0.262 0.174-0.392 0.109-0.131-0.087-0.545-0.218-0.915-0.305-0.458-0.087-0.676-0.262-0.697-0.545-0.022-0.24-0.044-0.806-0.065-1.242-0.022-0.588-0.131-0.828-0.349-0.828-0.392 0-0.458 1.308-0.109 1.983 0.196 0.349 0.153 0.414-0.305 0.414-0.305 0-0.61 0.109-0.676 0.218-0.24 0.371-0.676 0.24-0.937-0.262-0.218-0.458-0.24-0.436-0.24 0.305-0.022 0.654-0.087 0.785-0.458 0.763-0.24-0.022-0.545-0.131-0.654-0.24zM11.349 29.624c-0.196-0.218-0.327-0.567-0.24-0.763 0.065-0.218 0.044-0.283-0.109-0.218-0.109 0.087-0.392 0.022-0.588-0.153-0.327-0.24-0.327-0.24-0.109 0.065 0.153 0.196 0.24 0.414 0.174 0.48-0.065 0.087-0.044 0.109 0.022 0.044 0.087-0.044 0.327 0.153 0.567 0.436 0.24 0.305 0.48 0.545 0.545 0.545s-0.044-0.196-0.262-0.436zM12.7 29.427c-0.022-0.327-0.087-0.371-0.305-0.196s-0.283 0.153-0.283-0.044c0-0.174-0.065-0.218-0.153-0.131-0.109 0.087 0.022 0.305 0.24 0.48 0.545 0.392 0.545 0.392 0.501-0.109zM10.891 26.441c0.087-0.327 0.087-0.632 0.022-0.697-0.174-0.174-0.545 0.414-0.545 0.894 0 0.567 0.371 0.436 0.523-0.196zM16.209 24.545c0.501 0 0.915-0.065 0.915-0.174 0-0.48-0.545-2.158-0.697-2.158-0.087 0-0.174-0.262-0.174-0.588 0-0.85-0.283-1.199-0.894-1.112-0.458 0.065-0.523 0.174-0.523 0.959 0 0.632-0.196 1.199-0.588 1.809-0.741 1.133-0.61 1.657 0.349 1.417 0.371-0.087 1.090-0.174 1.613-0.153zM23.445 21.886c0-0.174-0.087-0.327-0.218-0.327-0.109 0-0.218 0.153-0.218 0.327s0.109 0.327 0.218 0.327c0.131 0 0.218-0.153 0.218-0.327zM12.809 20.208c0.087-0.153 0.174-0.392 0.174-0.545 0-0.414-0.894-1.133-1.656-1.351-0.371-0.109-1.068-0.436-1.504-0.741-0.458-0.327-0.959-0.501-1.177-0.414-1.286 0.458-2.136 1.635-1.657 2.289 0.153 0.196 0.392 0.371 0.567 0.371 0.174 0.022 1.090 0.24 2.027 0.523 1.787 0.523 2.833 0.48 3.226-0.131zM21.898 20.448c0.523-0.109 1.003-0.174 1.046-0.109 0.196 0.174 1.591-1.439 1.591-1.809 0-0.61-0.654-1.33-1.199-1.33-0.763 0-2.506 0.501-2.506 0.697 0 0.087-0.196 0.174-0.436 0.174-0.523 0-1.678 0.48-2.267 0.915-0.414 0.327-0.414 0.327 0 0.894 0.218 0.327 0.588 0.588 0.785 0.588s0.436 0.087 0.501 0.218c0.131 0.196 0.763 0.153 2.485-0.24zM13.572 18.377c-0.065-0.065-0.262-0.087-0.414-0.022-0.174 0.065-0.109 0.131 0.131 0.131 0.24 0.022 0.371-0.044 0.283-0.109zM5.507 17.157c-0.065-0.174-0.131-0.109-0.131 0.131-0.022 0.24 0.044 0.371 0.109 0.283 0.065-0.065 0.087-0.262 0.022-0.414zM7.752 5.191c0-0.109-0.087-0.196-0.218-0.196-0.109 0-0.218 0.153-0.218 0.349 0 0.174 0.109 0.262 0.218 0.196 0.131-0.065 0.218-0.218 0.218-0.349z"></path>
<path d="M13.31 31.825c-0.632-0.153-0.654-0.153-0.174-0.414 0.697-0.392 1.155-0.327 1.155 0.174 0 0.24-0.065 0.414-0.153 0.414-0.109-0.022-0.458-0.087-0.828-0.174z"></path>
</svg>
