<!-- Generated by IcoMoon.io -->
<svg version="1.1" xmlns="http://www.w3.org/2000/svg" width="32" height="32" viewBox="0 0 32 32">
<title>characteristics-move</title>
<path d="M4.399 31.918c-0.087-0.131 0.131-0.655 0.458-1.157s0.742-1.135 0.895-1.419c0.153-0.284 0.371-0.524 0.502-0.524 0.109 0 0.197-0.153 0.197-0.327 0-0.153 0.175-0.415 0.393-0.524 0.197-0.131 0.284-0.24 0.197-0.24-0.109 0 0.066-0.306 0.371-0.677s0.568-0.764 0.568-0.873c0-0.109 0.349-0.699 0.764-1.31s0.764-1.244 0.764-1.419c0-0.284 2.576-3.842 2.882-3.973 0.109-0.044 0.175-0.218 0.175-0.371 0-0.175 0.175-0.437 0.393-0.589s0.48-0.546 0.568-0.873c0.197-0.83-0.349-0.808-1.135 0-0.699 0.72-1.506 1.004-1.506 0.568 0-0.175 0.066-0.262 0.109-0.197 0.131 0.131 2.38-2.205 2.707-2.816 0.131-0.262 0.371-0.546 0.524-0.633 0.175-0.087 0.306-0.306 0.306-0.458 0-0.175 0.153-0.349 0.327-0.437 0.197-0.066 0.327-0.393 0.327-0.786 0-0.546 0.087-0.655 0.524-0.655 0.589 0 1.223-0.524 1.223-0.982 0-0.524-0.437-0.589-0.83-0.109-0.349 0.437-0.589 0.458-3.602 0.502-1.768 0.022-3.209 0.109-3.209 0.218 0 0.087-0.262 0.153-0.611 0.153-0.327 0-0.83 0.153-1.113 0.349-0.327 0.24-0.568 0.284-0.72 0.131-0.24-0.24 1.441-1.354 2.074-1.354 0.175 0 0.371-0.087 0.415-0.175 0.066-0.197 0.72-0.589 2.292-1.354 0.502-0.24 0.982-0.546 1.048-0.655 0.066-0.131 0.327-0.218 0.568-0.218 0.218 0 0.415-0.087 0.415-0.175 0-0.109 0.655-0.502 1.485-0.895 1.659-0.808 2.729-1.397 3.58-1.943 1.266-0.83 2.685-1.594 3.166-1.703 0.284-0.087 0.589-0.24 0.677-0.393 0.087-0.131 0.393-0.371 0.699-0.524 1.157-0.589 1.615-0.895 1.79-1.223 0.109-0.197 0.349-0.349 0.524-0.349s0.262-0.109 0.197-0.218c-0.066-0.131 0.044-0.284 0.262-0.371 0.218-0.066 0.568-0.306 0.786-0.546 0.218-0.218 0.48-0.393 0.589-0.393 0.262 0 0.284 0.502 0.044 0.786-0.306 0.349-0.677 1.877-0.786 3.253-0.044 0.72-0.24 1.747-0.458 2.292-0.197 0.546-0.415 1.834-0.48 2.882-0.109 1.594-0.197 1.899-0.524 1.987-0.546 0.153-0.524 0.742 0.022 0.917 0.371 0.109 0.437 0.349 0.48 1.375 0.022 0.677 0.022 1.441 0 1.681-0.218 3.82-0.349 6.789-0.327 7.816 0 0.851-0.066 1.244-0.24 1.179-0.131-0.044-0.284-0.306-0.327-0.611-0.066-0.48-0.087-0.502-0.262-0.087-0.131 0.327-0.175 0.197-0.175-0.502-0.022-0.546-0.24-1.354-0.568-1.965-0.306-0.568-0.546-1.157-0.546-1.288 0-0.153-0.087-0.284-0.175-0.284-0.109 0-0.48-0.851-0.83-1.877-0.568-1.681-0.589-1.899-0.284-2.118 0.546-0.393 0.742-1.244 0.306-1.244-0.349 0-1.397 1.026-1.419 1.375 0 0.087-0.109 0.284-0.218 0.437-0.437 0.524-1.31 1.921-1.31 2.096 0 0.109-0.131 0.24-0.284 0.306s-0.764 0.83-1.375 1.703c-0.589 0.895-1.223 1.768-1.419 1.965s-0.546 0.655-0.764 1.048c-0.218 0.371-0.48 0.677-0.589 0.677-0.087 0-0.109 0.109-0.044 0.218 0.066 0.131 0.022 0.218-0.109 0.218s-0.175 0.109-0.109 0.218c0.066 0.131 0.044 0.218-0.087 0.218-0.109 0-0.284 0.197-0.349 0.437-0.087 0.24-0.24 0.393-0.349 0.327-0.109-0.087-0.197-0.022-0.197 0.087 0 0.131-0.131 0.24-0.306 0.24-0.371 0-0.327-0.48 0.044-0.939 0.153-0.175 0.349-0.699 0.415-1.179 0.153-0.917 0.677-1.79 1.113-1.812 0.153 0 0.349-0.175 0.415-0.371 0.087-0.218 0.415-0.655 0.764-0.982 0.633-0.611 0.786-1.048 0.371-1.048-0.327 0-4.344 3.973-4.344 4.301 0 0.153-0.087 0.284-0.218 0.284-0.109 0-0.218 0.087-0.218 0.218 0 0.109-0.349 0.524-0.786 0.917-0.786 0.742-1.834 1.79-3.078 3.166-0.393 0.437-0.72 0.895-0.72 1.048 0 0.175-0.284 0.415-0.655 0.589-0.349 0.153-0.655 0.327-0.655 0.415 0 0.066-0.175 0.306-0.393 0.546-0.218 0.218-0.502 0.611-0.633 0.83-0.131 0.262-0.284 0.327-0.371 0.175zM6.844 29.124c-0.087-0.066-0.262 0.109-0.393 0.393-0.262 0.48-0.262 0.48 0.131 0.131 0.218-0.218 0.327-0.437 0.262-0.524zM26.536 1.726c0-0.131-0.087-0.153-0.218-0.087-0.109 0.065-0.218 0.24-0.218 0.349 0 0.131 0.109 0.153 0.218 0.087 0.131-0.066 0.218-0.24 0.218-0.349z"></path>
</svg>
