<!-- Generated by IcoMoon.io -->
<svg version="1.1" xmlns="http://www.w3.org/2000/svg" width="32" height="32" viewBox="0 0 32 32">
<title>characteristics-strength</title>
<path d="M19.266 13.064c-0.154-0.11-0.704-0.198-1.21-0.198s-0.968-0.066-1.034-0.176c-0.044-0.088 0.044-1.408 0.22-2.903 0.154-1.518 0.286-3.541 0.286-4.508s0.044-2.375 0.132-3.123c0.154-1.232 0.22-1.386 0.792-1.583 0.418-0.154 1.1-0.154 2.001 0 2.397 0.374 2.991 1.078 2.617 3.057-0.132 0.66-0.374 2.111-0.572 3.189-0.176 1.1-0.418 2.177-0.528 2.419s-0.264 0.924-0.33 1.518c-0.198 1.539-0.55 2.177-1.386 2.353-0.374 0.066-0.814 0.044-0.99-0.044z"></path>
<path d="M4.113 8.973c-0.506-0.616-0.792-1.386-1.078-2.859-0.154-0.77-0.374-1.386-0.462-1.386-0.11 0-0.198-0.176-0.198-0.396 0-0.44 0.858-1.364 1.254-1.364 0.132 0 0.286-0.11 0.33-0.22 0.11-0.352 2.617-1.298 3.409-1.32 0.374 0 0.77 0.11 0.858 0.242 0.132 0.242 0.572 2.903 0.902 5.388l0.11 0.924-1.122 0.154c-0.616 0.088-1.122 0.242-1.122 0.352s-0.176 0.198-0.374 0.198c-0.22 0-0.682 0.154-1.034 0.33-0.814 0.418-1.1 0.418-1.474-0.044zM4.531 7.544c-0.132-0.396-0.616-0.462-0.616-0.088 0 0.198 0.154 0.352 0.352 0.352s0.308-0.11 0.264-0.264z"></path>
<path d="M12.822 11.481c0.264-2.177-0.682-5.014-1.561-4.684-0.594 0.22-0.968-0.66-1.1-2.661-0.198-2.529-0.066-2.991 0.946-3.629 0.704-0.418 1.144-0.506 2.661-0.506 1.188 0 1.869 0.088 1.979 0.264 0.088 0.154 0.198 1.759 0.242 3.585 0.066 3.211 0.044 3.343-0.396 3.453-0.418 0.11-0.484 0.198-0.44 0.682 0 0.088 0.154 0.132 0.33 0.088 0.242-0.044 0.308 0.352 0.308 2.155 0 1.21-0.022 2.199-0.044 2.221-0.044 0-0.748 0.066-1.561 0.132l-1.518 0.11 0.154-1.21z"></path>
<path d="M8.71 28.129c-0.11-0.088-0.176-0.638-0.176-1.232 0-0.572-0.088-1.056-0.176-1.056s-0.286-0.44-0.44-0.968c-0.396-1.539-2.705-3.123-3.717-2.595-0.924 0.506-1.034 0.088-1.188-4.332-0.088-2.331-0.264-4.355-0.396-4.618-0.242-0.44-0.198-1.32 0.088-1.781 0.066-0.11 0.44-0.352 0.836-0.528 0.858-0.396 4.377-1.451 4.816-1.451 0.176 0 0.726-0.286 1.188-0.616 0.484-0.352 0.99-0.594 1.122-0.55 0.528 0.176 1.056 1.693 1.056 2.947 0 1.276-0.66 3.057-1.144 3.057-0.154 0-0.352 0.132-0.44 0.308-0.22 0.374-1.979 1.232-2.529 1.232-0.374 0-0.99 0.814-0.77 1.034 0.22 0.198 2.595-0.374 2.925-0.704 0.484-0.484 2.837-0.44 3.805 0.066 0.528 0.264 0.968 0.792 1.473 1.759 0.682 1.276 0.748 1.517 0.748 3.365 0 1.1-0.088 1.935-0.176 1.869-0.11-0.066-0.308 0.198-0.44 0.594-0.22 0.638-2.463 2.859-3.013 3.013-0.11 0.044-0.594 0.308-1.078 0.594-0.88 0.572-2.111 0.88-2.375 0.594zM15.065 19.97c-0.066-0.22-0.11-0.088-0.11 0.264 0 0.374 0.044 0.528 0.11 0.396 0.044-0.154 0.044-0.462 0-0.66z"></path>
<path d="M13.306 31.758c-1.056-0.176-2.133-1.188-2.199-2.089-0.044-0.55 0.044-0.638 0.572-0.704 0.33-0.044 0.594-0.154 0.594-0.264s0.22-0.264 0.506-0.352c0.264-0.066 0.99-0.66 1.583-1.276 0.616-0.638 1.254-1.21 1.451-1.298 0.44-0.154 3.915 3.123 4.332 4.113 0.264 0.594 0.242 0.682-0.44 1.386l-0.704 0.726-2.441-0.044c-1.32-0.044-2.793-0.132-3.255-0.198z"></path>
<path d="M21.861 28.107c-0.462-0.066-0.99-0.242-1.166-0.418s-0.484-0.308-0.704-0.308c-0.198 0-0.792-0.484-1.32-1.078-0.902-1.012-1.232-1.671-1.803-3.431-0.264-0.858-0.264-3.079 0.022-4.091 0.242-0.88 1.342-2.155 2.265-2.617 0.66-0.33 0.792-0.88 0.198-0.88-0.198 0-0.748 0.198-1.21 0.44-0.44 0.242-0.968 0.44-1.144 0.44-0.198 0-0.396 0.264-0.462 0.66-0.088 0.374-0.198 0.66-0.242 0.66-0.066 0-0.55-0.44-1.078-0.99-0.638-0.638-1.232-1.012-1.759-1.122-0.418-0.088-0.836-0.286-0.902-0.44-0.066-0.176-0.264-0.308-0.44-0.308s-0.286-0.154-0.242-0.374c0.066-0.352 0.374-0.396 3.145-0.352 1.671 0.044 3.101 0.154 3.167 0.264 0.066 0.088 0.66 0.22 1.298 0.286 1.342 0.132 1.539 0.264 1.144 0.726-0.242 0.286-0.088 0.33 1.342 0.33 1.32 0 1.693 0.088 2.089 0.462 0.418 0.396 0.55 0.418 0.946 0.154 0.264-0.154 0.462-0.352 0.462-0.44 0-0.11 0.176-0.176 0.418-0.176 0.506 0 0.704 0.924 0.704 3.079 0 1.737-0.154 2.507-0.726 3.409-0.22 0.374-0.396 0.836-0.396 1.056 0 0.198-0.088 0.374-0.198 0.374s-0.242 0.198-0.308 0.44c-0.066 0.242-0.286 0.44-0.484 0.44-0.22 0-0.726 0.198-1.122 0.462-0.638 0.396-0.748 0.572-0.748 1.32 0 0.572 0.154 1.012 0.462 1.32 0.374 0.374 0.418 0.506 0.176 0.66-0.176 0.11-0.352 0.176-0.418 0.154s-0.506-0.066-0.968-0.11z"></path>
<path d="M25.688 14.252c0-0.33-0.044-0.352-0.22-0.066s-0.286 0.286-0.66 0.044c-0.242-0.154-0.55-0.22-0.66-0.154-0.132 0.088-0.22 0.044-0.22-0.066s-0.308-0.264-0.682-0.352c-0.638-0.132-0.682-0.176-0.572-0.946 0.044-0.462 0.396-1.979 0.77-3.365 0.352-1.407 0.726-3.013 0.814-3.563 0.198-1.364 1.078-2.067 1.803-1.452 0.154 0.132 0.286 0.154 0.286 0.088 0-0.088 0.286 0.044 0.638 0.286 0.352 0.264 0.726 0.462 0.858 0.462 0.11 0 0.55 0.33 0.99 0.748l0.792 0.748-0.418 0.836c-0.242 0.462-0.44 1.122-0.44 1.451s-0.088 0.638-0.176 0.704c-0.11 0.066-0.484 0.792-0.814 1.605-0.352 0.814-0.77 1.627-0.946 1.803-0.154 0.154-0.352 0.572-0.418 0.924-0.132 0.682-0.726 0.88-0.726 0.264z"></path>
</svg>
