<!-- Generated by IcoMoon.io -->
<svg version="1.1" xmlns="http://www.w3.org/2000/svg" width="32" height="32" viewBox="0 0 32 32">
<title>characteristics-toughness</title>
<path d="M4.457 24.201c0.154-0.066 0.351-0.044 0.417 0.022 0.088 0.066-0.044 0.132-0.285 0.11-0.241 0-0.307-0.066-0.132-0.132z"></path>
<path d="M26.691 12.37c0-0.241 0.066-0.307 0.132-0.132 0.066 0.154 0.044 0.351-0.022 0.417-0.066 0.088-0.132-0.044-0.11-0.285z"></path>
<path d="M16.572 31.378c-0.307-0.088-1.361-0.11-2.327-0.044-1.492 0.088-1.953 0.022-2.744-0.351-0.527-0.241-1.471-0.68-2.107-0.966-1.251-0.549-1.383-0.724-0.724-0.944 0.241-0.066 0.439-0.241 0.439-0.351 0-0.132 0.11-0.154 0.219-0.088 0.132 0.088 0.219-0.198 0.219-0.68 0-0.724 0.044-0.79 0.505-0.658 0.263 0.066 0.768 0.132 1.097 0.132 0.351 0 0.571 0.088 0.483 0.219-0.066 0.132-0.044 0.219 0.088 0.219 0.11 0 0.285-0.088 0.351-0.219 0.198-0.329 0.944-0.263 1.141 0.11 0.154 0.241 0.724 0.329 2.546 0.373 1.712 0.044 2.349 0.132 2.349 0.329 0 0.329 0.966 0.615 1.317 0.395 0.132-0.088 0.176-0.329 0.11-0.571-0.088-0.263-0.044-0.417 0.154-0.417 0.176 0 0.746-0.198 1.251-0.461 0.9-0.417 0.966-0.439 1.361-0.066 0.219 0.198 0.417 0.615 0.417 0.9s0.154 0.571 0.329 0.637c0.176 0.088 0.329 0.285 0.329 0.483 0 0.176-0.066 0.263-0.132 0.198-0.088-0.088-0.417 0.066-0.768 0.307-0.329 0.241-0.922 0.549-1.295 0.658-0.351 0.132-0.658 0.329-0.658 0.417 0 0.11-0.571 0.241-1.251 0.329-0.702 0.066-1.471 0.176-1.712 0.198-0.241 0.044-0.68 0-0.988-0.088z"></path>
<path d="M2.086 22.972c-0.307-0.615-0.615-1.185-0.68-1.251s-0.395-1.141-0.724-2.414c-0.636-2.568-0.768-4.609-0.263-4.609 0.154 0 0.417-0.154 0.593-0.351 0.219-0.285 0.219-0.439-0.11-0.988-0.373-0.636-0.373-0.724 0-2.217 0.198-0.878 0.505-1.822 0.658-2.129 0.176-0.307 0.307-0.68 0.307-0.834 0-0.636 0.571-0.373 0.768 0.351 0.219 0.724 0.307 0.79 1.185 0.9 0.988 0.11 1.427 0.549 0.812 0.79-0.198 0.066-0.351 0.263-0.351 0.417s-0.198 0.9-0.461 1.668c-0.417 1.251-0.439 1.734-0.329 4.456 0.11 2.151 0.241 3.161 0.461 3.49 0.176 0.263 0.329 0.702 0.329 0.988 0 0.263 0.154 0.549 0.329 0.615 0.505 0.198 0.417 1.251-0.132 1.58-0.307 0.198-0.417 0.219-0.307 0.044 0.132-0.198 0.044-0.198-0.285-0.022-0.263 0.132-0.527 0.351-0.593 0.461-0.285 0.461-0.68 0.176-1.207-0.944zM4.501 22.379c0-0.11-0.11-0.219-0.241-0.219-0.11 0-0.154 0.11-0.088 0.219 0.066 0.132 0.176 0.219 0.241 0.219 0.044 0 0.088-0.088 0.088-0.219zM1.208 15.136c0-0.11-0.11-0.219-0.241-0.219-0.11 0-0.154 0.11-0.088 0.219 0.066 0.132 0.176 0.219 0.241 0.219 0.044 0 0.088-0.088 0.088-0.219z"></path>
<path d="M29.412 30.456c-0.483-0.329-1.471-0.922-2.195-1.295-3.204-1.668-3.402-1.822-3.402-2.436 0-0.219 0.154-0.658 0.351-0.944 0.198-0.307 0.285-0.549 0.198-0.549-0.395 0 1.097-1.075 1.624-1.163 0.571-0.11 1.361 0.154 1.317 0.461-0.066 0.285 0.746 2.019 0.944 2.019 0.088 0 0.176 0.176 0.176 0.395 0 0.198 0.351 0.746 0.768 1.185 0.724 0.746 1.141 1.536 1.317 2.414 0.132 0.615-0.154 0.593-1.097-0.088z"></path>
<path d="M3.886 8.068c-0.154-0.154-0.263-0.439-0.263-0.658 0-0.483-0.461-1.492-0.68-1.492-0.11 0-0.241-0.351-0.329-0.768-0.066-0.417-0.219-0.834-0.329-0.9s-0.154-0.219-0.088-0.329c0.088-0.11 0.044-0.198-0.066-0.198-0.132 0-0.329-0.263-0.461-0.593-0.132-0.351-0.483-1.054-0.79-1.58-0.856-1.514-0.812-1.536 1.229-0.329 0.593 0.351 1.449 1.010 2.327 1.778 0.439 0.373 1.054 0.768 1.361 0.834 1.054 0.263 1.273 0.724 1.054 2.085-0.198 1.163-0.263 1.251-1.054 1.602-0.483 0.198-1.075 0.373-1.361 0.395-0.461 0-0.461 0.022-0.044 0.198 0.307 0.132 0.329 0.198 0.11 0.198-0.198 0.022-0.461-0.088-0.615-0.241zM6.476 5.259c0-0.11-0.088-0.219-0.219-0.219-0.11 0-0.219 0.11-0.219 0.219 0 0.132 0.11 0.219 0.219 0.219 0.132 0 0.219-0.088 0.219-0.219z"></path>
<path d="M25.747 7.388c-0.198-0.154-0.417-0.658-0.505-1.097s-0.263-0.812-0.417-0.812c-0.176 0-0.176-0.044 0-0.176 0.154-0.088 0.285-0.351 0.329-0.593 0.066-0.285 0.615-0.702 1.624-1.207 0.856-0.417 1.602-0.856 1.668-0.944 0.154-0.219 0.922-0.68 1.712-1.032 0.285-0.132 0.768-0.417 1.075-0.658s0.593-0.395 0.637-0.351c0.132 0.132-0.417 1.668-0.593 1.668-0.088 0-0.263 0.351-0.439 0.768s-0.351 0.768-0.439 0.768c-0.241 0-1.756 2.173-1.756 2.524 0 0.461-0.549 1.010-0.922 0.944-0.154-0.044-0.263 0.044-0.241 0.176 0.066 0.329-1.295 0.351-1.734 0.022z"></path>
<path d="M28.183 24.64c-0.022-0.11-0.044-0.263-0.066-0.395-0.044-0.439-0.483-0.9-1.075-1.163-0.483-0.198-0.549-0.329-0.395-0.637 0.966-1.8 1.536-6.826 1.119-9.767-0.549-3.819-0.549-3.622 0.022-3.907 0.285-0.154 0.615-0.417 0.702-0.571 0.351-0.593 0.724-0.285 1.339 1.075 0.9 1.888 1.229 3.292 1.229 5.026 0 1.141-0.088 1.536-0.329 1.624-0.373 0.154-0.461 0.966-0.11 0.966 0.395 0 0.768 1.075 0.483 1.361-0.154 0.154-0.263 0.637-0.263 1.097s-0.088 0.834-0.198 0.834c-0.11 0-0.307 0.505-0.461 1.119s-0.417 1.163-0.571 1.229c-0.176 0.066-0.307 0.241-0.307 0.417s-0.11 0.307-0.219 0.307c-0.219 0-0.768 1.054-0.702 1.383 0.022 0.088 0 0.154-0.066 0.154s-0.132-0.066-0.132-0.154zM30.181 11.975c0-0.044-0.066-0.241-0.132-0.439-0.198-0.505-0.527-0.439-0.527 0.088 0 0.241 0.154 0.439 0.329 0.439s0.329-0.044 0.329-0.088z"></path>
<path d="M13.083 26.857c-0.176-0.219-0.527-0.307-0.944-0.263-0.351 0.066-0.68 0.022-0.746-0.088-0.066-0.088-0.395-0.176-0.768-0.176-0.351 0-0.636-0.088-0.636-0.176s-0.351-0.307-0.768-0.461c-0.417-0.154-0.768-0.351-0.768-0.461s-0.176-0.241-0.417-0.329c-0.395-0.11-2.217-2.546-2.217-2.963 0-0.11-0.154-0.329-0.329-0.527-0.351-0.351-0.615-1.361-1.010-3.973-0.263-1.646-0.132-4.697 0.198-4.917 0.11-0.066 0.263-0.593 0.351-1.185 0.088-0.571 0.241-1.032 0.351-1.032 0.132 0 0.351-0.351 0.527-0.768 0.417-0.988 3.49-3.973 4.631-4.521 0.483-0.219 1.251-0.417 1.69-0.417s1.383-0.154 2.085-0.329c1.866-0.483 2.414-0.439 2.568 0.219 0.154 0.636 0.395 0.68 0.856 0.219 0.527-0.505 2.085-0.263 3.907 0.636 3.556 1.734 4.917 3.973 5.070 8.319 0 0.329 0.088 0.593 0.176 0.593 0.329 0 0.461 1.602 0.219 2.722-0.132 0.658-0.439 1.558-0.658 2.019-0.241 0.461-0.439 1.032-0.439 1.251s-0.088 0.351-0.198 0.263c-0.11-0.066-0.263 0.088-0.351 0.329-0.066 0.241-0.329 0.549-0.571 0.658-0.219 0.132-0.417 0.373-0.417 0.549s-0.132 0.395-0.285 0.483c-0.154 0.088-0.571 0.593-0.944 1.119-0.439 0.637-0.9 1.010-1.449 1.185-0.461 0.132-0.834 0.329-0.834 0.417s-0.307 0.219-0.68 0.307c-0.373 0.088-0.988 0.439-1.405 0.79-0.549 0.505-1.010 0.658-2.063 0.768-1.141 0.132-1.339 0.11-1.339-0.219 0-0.461-1.207-0.483-1.405-0.022-0.154 0.417-0.593 0.417-0.988-0.022z"></path>
<path d="M0.111 31.729c0-0.176 0.154-0.373 0.351-0.439 0.198-0.088 0.307-0.285 0.219-0.461-0.066-0.176-0.022-0.329 0.088-0.329 0.132 0 0.219-0.154 0.219-0.329 0-0.198 0.132-0.395 0.307-0.461s0.395-0.439 0.483-0.812c0.066-0.395 0.329-0.944 0.549-1.229 0.241-0.285 0.417-0.637 0.417-0.768 0-0.154 0.307-0.593 0.68-0.966 0.417-0.417 0.658-0.856 0.593-1.075-0.088-0.351 0.044-0.395 1.097-0.329 1.361 0.044 2.678 0.834 2.678 1.602 0 0.263-0.088 0.373-0.241 0.285-0.176-0.088-0.198 0-0.088 0.329 0.154 0.527-0.132 0.878-1.032 1.273-0.351 0.154-0.615 0.351-0.615 0.461s-0.395 0.307-0.878 0.461c-0.483 0.132-0.878 0.351-0.878 0.461 0 0.088-0.285 0.241-0.636 0.329-0.351 0.066-0.702 0.285-0.768 0.461s-0.241 0.307-0.395 0.307c-0.154 0-0.68 0.351-1.141 0.768-0.988 0.878-1.010 0.878-1.010 0.461zM5.598 25.21c0-0.11-0.154-0.198-0.329-0.198s-0.329 0.154-0.329 0.329c0 0.198 0.132 0.263 0.329 0.198 0.176-0.088 0.329-0.219 0.329-0.329z"></path>
<path d="M22.718 5.061c0-0.11-0.307-0.263-0.68-0.351s-0.724-0.285-0.79-0.439c-0.044-0.176-0.571-0.373-1.119-0.461-0.571-0.088-1.361-0.329-1.756-0.549-0.768-0.439-1.471-0.527-1.668-0.219-0.066 0.11-0.658 0.198-1.295 0.219-0.658 0-1.471 0.11-1.822 0.241s-0.658 0.241-0.702 0.219c-0.198-0.132-2.831 0.329-3.292 0.571-0.746 0.395-1.361 0.395-1.361 0.022 0-0.351-0.922-1.251-1.273-1.251-0.154 0-0.263-0.198-0.263-0.439 0-0.307 0.154-0.439 0.527-0.439 0.285 0 0.636-0.154 0.79-0.329 0.132-0.176 0.461-0.373 0.724-0.461s0.593-0.263 0.746-0.417c0.285-0.307 1.888-0.593 3.622-0.658 0.593-0.022 1.119-0.11 1.207-0.176 0.219-0.219 4.631-0.176 4.763 0.044 0.066 0.11 0.922 0.263 1.888 0.351s1.69 0.241 1.624 0.351c-0.066 0.11 0.088 0.198 0.329 0.198s0.483 0.088 0.571 0.219c0.066 0.11 0.263 0.154 0.439 0.066 0.176-0.066 0.329 0 0.329 0.132s0.241 0.351 0.549 0.461c0.527 0.198 0.812 1.097 0.329 1.097-0.351 0-1.251 1.032-1.405 1.624-0.088 0.373-0.285 0.571-0.571 0.571-0.241 0-0.439-0.088-0.439-0.198z"></path>
</svg>
