<!-- Generated by IcoMoon.io -->
<svg version="1.1" xmlns="http://www.w3.org/2000/svg" width="32" height="32" viewBox="0 0 32 32">
<title>characteristics-damage</title>
<path d="M9.574 29.652c-0.439-0.68-0.505-1.075-0.461-2.743 0-1.075 0.132-2.282 0.285-2.677 0.241-0.68 0.219-0.812-0.439-1.712-0.812-1.119-1.734-1.514-3.84-1.624-0.702-0.022-1.383-0.154-1.536-0.307-0.373-0.373-0.197-4.828 0.197-5.267 0.176-0.197 0.373-0.658 0.439-1.009 0.132-0.658-0.154-3.16-0.439-3.928-0.11-0.351-0.11-0.373 0.088-0.11 0.198 0.285 0.241 0.285 0.241 0 0-0.197-0.11-0.461-0.241-0.592-0.176-0.176-0.176-0.285 0-0.373 0.132-0.088 0.241-0.592 0.241-1.119s0.088-1.207 0.219-1.514c0.11-0.307 0.219-0.9 0.263-1.317 0.022-0.417 0.132-0.702 0.219-0.658 0.088 0.066 0.176-0.11 0.176-0.395s0.132-0.702 0.307-0.944c0.154-0.241 0.373-0.746 0.439-1.119 0.176-0.812 0.614-1.251 1.799-1.843 1.163-0.614 1.361-0.549 1.514 0.395 0.066 0.439 0.329 1.185 0.549 1.624 0.241 0.439 0.439 0.966 0.439 1.141s0.11 0.351 0.241 0.395c0.132 0.044 0.373 0.724 0.549 1.492 0.154 0.79 0.505 2.129 0.746 2.962 0.263 0.856 0.571 1.931 0.68 2.414 0.241 1.097 1.141 3.906 1.295 4.060 0.197 0.197 0.285 0.746 0.373 2.48 0.066 1.383 0.022 1.712-0.241 1.821s-0.285 0.241-0.132 0.527c0.351 0.658 0.263 1.273-0.329 2.194-0.307 0.483-0.549 0.966-0.549 1.075 0 0.373 0.658 0.439 1.47 0.154 0.461-0.154 0.988-0.241 1.163-0.176 0.373 0.132 1.075 0.944 1.097 1.251 0 0.241 0.263 0.614 1.273 1.865 0.263 0.329 0.549 0.922 0.614 1.295 0.088 0.373 0.219 0.636 0.307 0.571 0.154-0.088-0.088 1.383-0.263 1.536-0.022 0.044-0.461 0.11-0.944 0.154l-0.878 0.066 0.066-1.031c0.044-0.592-0.022-1.229-0.154-1.426-0.176-0.351-0.241-0.307-0.461 0.263-0.154 0.373-0.285 1.053-0.329 1.536s-0.176 0.878-0.307 0.856c-0.132-0.022-0.483-0.044-0.79-0.044-0.461-0.044-0.549-0.154-0.549-0.68 0-1.141-0.263-1.997-0.614-1.997-0.263 0-0.307 0.219-0.176 1.251 0.088 0.702 0.241 1.361 0.351 1.47 0.395 0.395 0.241 0.483-0.746 0.549-0.922 0.044-0.988 0.022-1.141-0.68l-0.154-0.724-0.197 0.724c-0.263 1.009-1.075 0.966-1.734-0.11zM9.903 25.087c0.154-0.614 0.132-0.636-0.219-0.285-0.219 0.219-0.307 0.505-0.219 0.746 0.176 0.461 0.241 0.373 0.439-0.461zM11 19.25c0.307-0.154 0.592-0.395 0.658-0.571 0.197-0.527-0.285-1.163-0.988-1.317-0.351-0.066-0.636-0.198-0.636-0.285s-0.263-0.241-0.592-0.329c-0.307-0.066-0.834-0.329-1.119-0.571-0.702-0.549-0.987-0.527-1.712 0.132-1.339 1.229-1.317 2.107 0.022 2.392 3.906 0.9 3.665 0.856 4.367 0.549zM12.229 17.077c0-0.11-0.11-0.219-0.241-0.219-0.11 0-0.154 0.11-0.088 0.219 0.066 0.132 0.176 0.219 0.241 0.219 0.044 0 0.088-0.088 0.088-0.219zM4.109 16.2c0-0.11-0.088-0.219-0.219-0.219-0.11 0-0.219 0.11-0.219 0.219 0 0.132 0.11 0.219 0.219 0.219 0.132 0 0.219-0.088 0.219-0.219zM5.865 3.999c0-0.307-0.066-0.307-0.329-0.088-0.176 0.154-0.329 0.307-0.329 0.351s0.154 0.088 0.329 0.088c0.176 0 0.329-0.154 0.329-0.351z"></path>
<path d="M21.314 31.253c-0.066-0.417-0.088-0.856-0.022-0.966 0.088-0.088-0.066-0.505-0.307-0.878-0.219-0.395-0.417-0.834-0.417-0.988s-0.198-0.636-0.439-1.097c-0.241-0.439-0.439-0.966-0.439-1.141 0-0.198-0.132-0.395-0.307-0.461-0.154-0.066-0.417-0.505-0.571-0.988-0.154-0.461-0.351-0.856-0.439-0.856s-0.241-0.658-0.329-1.47c-0.088-0.812-0.241-1.712-0.373-2.041-0.176-0.439-0.461-2.436-0.68-4.652-0.022-0.219-0.088-0.395-0.176-0.395s-0.219-0.373-0.307-0.812c-0.088-0.461-0.285-1.075-0.439-1.383s-0.351-1.075-0.439-1.69c-0.088-0.636-0.219-1.163-0.329-1.163-0.219 0-0.658-1.777-0.658-2.721 0-0.439-0.088-0.79-0.219-0.79-0.11 0-0.219-0.285-0.219-0.636 0-0.9-0.439-2.019-1.009-2.546-0.395-0.373-0.461-0.592-0.329-1.207 0.11-0.614 0.285-0.79 0.9-0.988 0.417-0.11 0.922-0.307 1.097-0.439 0.417-0.285 4.828-0.373 4.828-0.088 0 0.11 0.154 0.198 0.351 0.198s0.614 0.176 0.922 0.417c0.329 0.219 0.966 0.527 1.426 0.658 0.439 0.154 0.812 0.351 0.812 0.461s0.219 0.263 0.461 0.329c0.702 0.241 1.448 1.185 1.756 2.26 0.132 0.505 0.351 0.987 0.439 1.053 0.11 0.066 0.198 1.009 0.198 2.085 0 1.229 0.11 2.26 0.307 2.721 0.198 0.439 0.329 1.426 0.307 2.282 0 1.229 0.088 1.668 0.461 2.172 0.241 0.373 0.461 0.724 0.461 0.812s0.176 0.417 0.417 0.724c0.263 0.417 0.439 1.185 0.549 2.48 0.132 1.799 0.11 1.909-0.417 2.48-0.285 0.307-0.636 0.571-0.768 0.571s-0.68 0.285-1.185 0.636c-0.527 0.373-1.229 0.724-1.58 0.812-0.702 0.154-2.085 0.922-2.326 1.273-0.263 0.395-0.198 1.821 0.11 2.151 0.285 0.307 0.461 1.207 0.461 2.37 0 1.887-1.229 3.028-1.536 1.448zM23.969 21.225c0.11-0.11 0.351-0.198 0.527-0.198 0.614 0 1.558-1.141 1.558-1.865 0-0.966-0.812-1.251-2.414-0.834-0.658 0.154-1.251 0.373-1.317 0.483-0.066 0.088-0.439 0.241-0.834 0.307-0.79 0.154-2.019 0.988-2.019 1.361 0 0.351 0.9 1.141 1.426 1.251 0.571 0.11 2.787-0.263 3.072-0.505zM25.988 20.896c-0.066-0.066-0.263-0.088-0.417-0.022-0.176 0.066-0.11 0.132 0.132 0.132 0.241 0.022 0.373-0.044 0.285-0.11zM26.054 11.152c0-0.11-0.088-0.219-0.219-0.219-0.11 0-0.219 0.11-0.219 0.219 0 0.132 0.11 0.219 0.219 0.219 0.132 0 0.219-0.088 0.219-0.219zM20.458 2.155c0.066-0.11 0.022-0.219-0.088-0.219-0.132 0-0.241 0.11-0.241 0.219 0 0.132 0.044 0.219 0.088 0.219 0.066 0 0.176-0.088 0.241-0.219zM19.778 1.607c-0.088-0.176-0.329-0.329-0.549-0.329-0.373 0-0.395 0.044-0.154 0.329 0.373 0.417 0.856 0.417 0.702 0z"></path>
</svg>
