<!-- Generated by IcoMoon.io -->
<svg version="1.1" xmlns="http://www.w3.org/2000/svg" width="32" height="32" viewBox="0 0 32 32">
<title>deployment-hammer</title>
<path d="M18.488 10.729c-0.142-0.175-0.257-0.323-0.378-0.466-0.614-0.716-1.382-1.097-2.335-1.069-0.254 0.008-0.509 0.014-0.76 0.047-0.145 0.020-0.305 0.060-0.419 0.147-0.255 0.192-0.487 0.416-0.727 0.627-0.021 0.020-0.044 0.045-0.053 0.073-0.103 0.342-0.404 0.463-0.683 0.603-0.047 0.024-0.116 0.017-0.174 0.008-0.407-0.073-0.689 0.107-0.765 0.518-0.088 0.473-0.221 0.939-0.163 1.433 0.015 0.124-0.101 0.268-0.168 0.398-0.038 0.074-0.1 0.135-0.144 0.204-0.11 0.178-0.231 0.195-0.41 0.092-0.132-0.076-0.28-0.144-0.428-0.166-0.345-0.051-0.692-0.092-1.040-0.098-0.168-0.003-0.339 0.077-0.503 0.133-0.302 0.103-0.6 0.104-0.907 0.009-0.177-0.056-0.364-0.086-0.549-0.107-0.322-0.038-0.369-0.083-0.367-0.405 0.005-1.639 0.054-3.277-0.006-4.914-0.033-0.924-0.068-1.846-0.059-2.769 0.005-0.435 0.021-0.871 0.023-1.306 0-0.133 0.044-0.189 0.178-0.183 0.071 0.003 0.142-0.018 0.228-0.030 0.069 0.252 0.139 0.505 0.209 0.757 0.020 0.003 0.039 0.006 0.059 0.009 0.032-0.069 0.085-0.136 0.091-0.207 0.018-0.249-0.012-0.493-0.144-0.716-0.113-0.193-0.077-0.269 0.148-0.271 0.544-0.002 1.087 0.021 1.631 0.009 0.269-0.006 0.537-0.076 0.806-0.107 0.16-0.017 0.323-0.029 0.487-0.030 0.326-0.003 0.491 0.153 0.524 0.482 0.003 0.024 0.002 0.048 0.003 0.073 0.018 0.278 0.083 0.369 0.357 0.378 0.5 0.015 1.001 0.005 1.502 0.003 0.067 0 0.133-0.017 0.198-0.017 1.184-0.003 2.369-0.017 3.552-0.005 1.057 0.011 2.115 0.044 3.171 0.076 0.429 0.012 0.857 0.048 1.285 0.073 0.121 0.006 0.186 0.065 0.206 0.186 0.032 0.2 0.023 0.381-0.122 0.544-0.041 0.045-0.038 0.141-0.032 0.212 0.003 0.050 0.039 0.1 0.070 0.145 0.617 0.928 1.061 1.948 1.574 2.932 0.121 0.233 0.287 0.443 0.438 0.661 0.148 0.213 0.31 0.417 0.45 0.635 0.112 0.174 0.074 0.28-0.107 0.405-0.118-0.153-0.233-0.308-0.357-0.456-0.027-0.033-0.085-0.041-0.128-0.059-0.012 0.054-0.041 0.112-0.030 0.163 0.011 0.056 0.051 0.107 0.085 0.159 0.092 0.138 0.109 0.261 0.006 0.417-0.045 0.069-0.020 0.204 0.009 0.299 0.036 0.121 0.119 0.234 0.012 0.354-0.104 0.116-0.233 0.166-0.392 0.121-0.11-0.032-0.224-0.050-0.336-0.079-0.23-0.059-0.453-0.080-0.695-0.042-0.259 0.041-0.561 0.080-0.788-0.014-0.268-0.112-0.473-0.005-0.709 0.014-0.476 0.039-0.954 0.062-1.43 0.068-0.183 0.002-0.367-0.065-0.55-0.1-0.166-0.032-0.33-0.050-0.444 0.151zM11.433 11.574c-0.233-0.021-0.317 0.027-0.275 0.169 0.047 0.154 0.026 0.252-0.106 0.358-0.045 0.036-0.005 0.18-0.003 0.275 0.057-0.011 0.147 0 0.169-0.033 0.153-0.231 0.28-0.476 0.215-0.769zM8.082 6.045c0.154-0.16 0.142-0.846-0.018-0.972-0.15 0.136-0.136 0.846 0.018 0.972zM10.939 3.894c0.133-0.077 0.175-0.248 0.103-0.408-0.017-0.038-0.065-0.091-0.095-0.089-0.044 0.005-0.1 0.042-0.121 0.083-0.083 0.162-0.006 0.287 0.113 0.414zM23.621 9.132c-0.121-0.151-0.192-0.239-0.263-0.328-0.017 0.032-0.054 0.074-0.045 0.095 0.047 0.1 0.104 0.197 0.168 0.287 0.006 0.009 0.082-0.032 0.141-0.054zM8.277 12.342c0.153-0.132 0.138-0.207-0.048-0.317-0.039 0.038-0.080 0.079-0.112 0.109 0.062 0.080 0.112 0.145 0.16 0.209z"></path>
<path d="M15.672 10.011c0.925-0.029 2.143 0.506 2.388 1.713 0.048 0.242 0.071 0.49 0.083 0.736 0.005 0.103-0.018 0.231-0.079 0.307-0.106 0.135-0.113 0.266-0.1 0.423 0.083 0.957 0.168 1.914 0.234 2.872 0.023 0.323-0.033 0.653-0.014 0.976 0.045 0.781 0.009 1.555-0.089 2.331-0.033 0.271 0.020 0.552 0.032 0.828 0.005 0.109 0.023 0.221 0.006 0.325-0.147 0.862-0.027 1.725-0.002 2.586 0.015 0.488 0.035 0.979 0.097 1.463 0.070 0.535 0.147 1.078 0.304 1.592 0.128 0.42 0.355 0.816 0.583 1.196 0.246 0.41 0.257 0.382-0.181 0.562-0.296 0.121-0.579 0.296-0.836 0.49-0.206 0.154-0.408 0.251-0.664 0.295-0.499 0.085-0.99 0.204-1.484 0.311-0.23 0.050-0.449 0.048-0.67-0.057-0.301-0.144-0.623-0.11-0.945-0.088-0.154 0.011-0.313 0.005-0.467-0.020-0.32-0.050-0.639-0.112-0.957-0.181-0.082-0.018-0.183-0.059-0.222-0.122-0.023-0.038 0.039-0.156 0.092-0.21 0.484-0.494 0.689-1.103 0.765-1.775 0.021-0.19 0.089-0.375 0.124-0.564 0.044-0.234 0.103-0.472 0.109-0.707 0.008-0.337-0.041-0.676-0.042-1.014-0.002-0.307 0.036-0.612 0.044-0.919 0.003-0.128-0.002-0.271-0.054-0.382-0.077-0.165-0.092-0.319-0.056-0.491 0.068-0.331 0.141-0.662 0.189-0.996 0.020-0.13-0.023-0.269-0.032-0.404-0.020-0.281-0.057-0.562-0.048-0.843 0.009-0.333 0.044-0.656-0.080-0.983-0.048-0.128-0.003-0.295 0.008-0.444 0.026-0.378 0.059-0.756 0.082-1.134 0.011-0.162 0.006-0.325 0.005-0.487-0.005-0.67 0.041-1.344-0.032-2.006-0.062-0.565-0.132-1.132-0.181-1.697-0.060-0.683 0.042-1.363 0.186-2.031 0.156-0.732 0.865-1.345 1.634-1.427 0.089-0.009 0.18-0.015 0.271-0.023zM17.522 16.414c0.106-0.097 0.139-0.623 0.033-0.713-0.021-0.020-0.115 0-0.135 0.030-0.085 0.128-0.012 0.571 0.101 0.683zM17.481 25.601c0.112-0.183 0.053-0.358 0.003-0.531-0.006-0.021-0.101-0.044-0.119-0.027-0.157 0.142-0.097 0.449 0.116 0.558zM14.827 26.963c0.091 0.106 0.174 0.193 0.296 0.085 0.098-0.086 0.051-0.233-0.109-0.366-0.062 0.092-0.121 0.181-0.187 0.281z"></path>
<path d="M5.922 12.986c0.011 0.759-0.062 1.502-0.299 2.233-0.135 0.411-0.171 0.846-0.113 1.289 0.033 0.255 0.011 0.518 0 0.778-0.017 0.378 0.012 0.747 0.124 1.111 0.039 0.125 0.044 0.26 0.074 0.388 0.059 0.252 0.095 0.514 0.192 0.751 0.328 0.798 0.68 1.586 1.020 2.378 0.308 0.716 0.868 1.215 1.48 1.652 0.59 0.42 1.206 0.804 1.821 1.188 0.422 0.263 0.747 0.609 0.987 1.038 0.039 0.070 0.067 0.16 0.060 0.239-0.039 0.558-0.128 1.102-0.44 1.587-0.077 0.119-0.133 0.153-0.254 0.060-0.050-0.039-0.136-0.054-0.201-0.047-0.157 0.020-0.266-0.044-0.364-0.156-0.059-0.067-0.121-0.141-0.197-0.181-0.877-0.47-1.599-1.146-2.347-1.784-0.352-0.301-0.531-0.323-0.878-0.017-0.517 0.456-1.010 0.934-1.428 1.489-0.231 0.307-0.514 0.576-0.783 0.852-0.156 0.159-0.261 0.127-0.382-0.056-0.209-0.317-0.192-0.641-0.038-0.964 0.18-0.375 0.384-0.739 0.568-1.113 0.287-0.585 0.588-1.164 0.839-1.764 0.092-0.221 0.064-0.494 0.085-0.744 0.003-0.038-0.017-0.088-0.042-0.118-0.431-0.493-0.594-1.116-0.815-1.705-0.334-0.893-0.487-1.829-0.552-2.78-0.033-0.476-0.071-0.952-0.104-1.428-0.011-0.162-0.073-0.272-0.246-0.31-0.073-0.015-0.141-0.065-0.203-0.112-0.048-0.035-0.086-0.085-0.122-0.133-0.316-0.425-0.733-0.611-1.264-0.596-0.458 0.012-0.917-0.024-1.377-0.035-0.148-0.003-0.271-0.045-0.361-0.168-0.097-0.132-0.206-0.254-0.296-0.388-0.112-0.166-0.082-0.245 0.115-0.298 0.169-0.045 0.343-0.068 0.514-0.109 0.393-0.094 0.78-0.221 1.177-0.28 0.68-0.098 1.365-0.157 2.050-0.227 0.133-0.014 0.218-0.057 0.24-0.195 0.184-1.14 0.689-2.169 1.112-3.227 0.047-0.116 0.113-0.227 0.18-0.334 0.030-0.047 0.085-0.077 0.128-0.115 0.033 0.047 0.086 0.089 0.095 0.141 0.085 0.455 0.18 0.91 0.236 1.369 0.036 0.277 0.009 0.558 0.009 0.836z"></path>
<path d="M26.742 12.548c0.142 0.224 0.322 0.488 0.476 0.768 0.050 0.091 0.038 0.221 0.039 0.333 0.002 0.243 0.032 0.287 0.269 0.317 0.186 0.024 0.375 0.026 0.558 0.063 0.148 0.030 0.286 0.106 0.431 0.148 0.1 0.030 0.204 0.053 0.307 0.056 0.148 0.005 0.301-0.033 0.444-0.011 0.316 0.048 0.639 0.089 0.937 0.198 0.375 0.138 0.766 0.124 1.147 0.192 0.086 0.015 0.183 0.005 0.266-0.021 0.101-0.032 0.184-0.045 0.259 0.050 0.079 0.101 0.171 0.195 0.098 0.339-0.003 0.006-0.005 0.011-0.006 0.017-0.236 0.592-0.263 0.603-0.907 0.59-0.195-0.005-0.392 0.044-0.588 0.063-0.051 0.005-0.104-0.014-0.157-0.014-0.145 0-0.299-0.024-0.435 0.014-0.243 0.067-0.478 0.166-0.71 0.261-0.162 0.067-0.325 0.135-0.472 0.228-0.159 0.101-0.311 0.136-0.496 0.1-0.213-0.041-0.431-0.060-0.647-0.082-0.231-0.023-0.305 0.057-0.323 0.292-0.033 0.426-0.048 0.859-0.127 1.277-0.249 1.321-0.462 2.654-0.961 3.913-0.136 0.345-0.345 0.662-0.526 0.989-0.213 0.382-0.187 0.458 0.122 0.76 0.268 0.26 0.494 0.559 0.744 0.837 0.18 0.2 0.354 0.411 0.559 0.583 0.259 0.216 0.558 0.384 0.818 0.6 0.145 0.119 0.265 0.283 0.355 0.447 0.047 0.083 0.039 0.233-0.008 0.317-0.033 0.059-0.177 0.082-0.268 0.074-0.122-0.011-0.251-0.047-0.363-0.103-0.308-0.153-0.605-0.33-0.913-0.481-0.209-0.103-0.435-0.168-0.644-0.272-0.26-0.131-0.515-0.236-0.815-0.272-0.159-0.020-0.314-0.136-0.505-0.101-0.062 0.012-0.141-0.029-0.203-0.064-0.154-0.085-0.277-0.051-0.385 0.076-0.121 0.144-0.248 0.281-0.363 0.429-0.396 0.509-0.942 0.824-1.48 1.149-0.219 0.133-0.449 0.251-0.661 0.396-0.067 0.045-0.106 0.151-0.127 0.236-0.027 0.11-0.008 0.231-0.035 0.34-0.041 0.165-0.151 0.198-0.284 0.1-0.744-0.546-0.83-1.422-0.203-2.045 0.201-0.2 0.417-0.385 0.62-0.585 0.679-0.668 1.262-1.412 1.815-2.186 0.547-0.766 0.993-1.581 1.38-2.435 0.222-0.49 0.28-1.011 0.334-1.533 0.127-1.208 0.243-2.417 0.345-3.626 0.062-0.745 0.138-1.492-0.039-2.237-0.041-0.171-0.009-0.36-0.011-0.541-0.002-0.109 0.060-0.139 0.154-0.113 0.277 0.074 0.552 0.163 0.831 0.224 0.092 0.018 0.2-0.030 0.351-0.056z"></path>
</svg>
