<!-- Generated by IcoMoon.io -->
<svg version="1.1" xmlns="http://www.w3.org/2000/svg" width="32" height="32" viewBox="0 0 32 32">
<title>deployment-shield</title>
<path d="M31.489 14.706c-0.054 0.378-0.107 0.757-0.163 1.135-0.114 0.78-0.24 1.558-0.341 2.34-0.143 1.109-0.388 2.193-0.715 3.262-0.059 0.192-0.131 0.383-0.213 0.567-0.168 0.378-0.348 0.752-0.542 1.17-0.157 0.011-0.325-0.084-0.47-0.255-0.189-0.224-0.393-0.435-0.584-0.659s-0.46-0.238-0.717-0.301c-0.199-0.049-0.388-0.138-0.584-0.201-0.271-0.089-0.54-0.185-0.815-0.252-0.233-0.058-0.373-0.178-0.343-0.397 0.093-0.693 0.185-1.383 0.304-2.072 0.084-0.488 0.252-0.964 0.304-1.453 0.063-0.603 0.049-1.214 0.061-1.821 0.016-0.803 0.040-1.605 0.030-2.408-0.016-1.174-0.187-2.322-0.609-3.426-0.019-0.051 0.017-0.142 0.058-0.191 0.094-0.115 0.229-0.191 0.248-0.369 0.007-0.059 0.121-0.124 0.198-0.159 0.477-0.213 0.965-0.404 1.434-0.633 0.423-0.206 0.735-0.526 0.843-1.009 0.026-0.117 0.091-0.227 0.138-0.339 0.026-0.012 0.051-0.026 0.077-0.038 0.045 0.070 0.084 0.147 0.138 0.208 0.056 0.061 0.122 0.14 0.194 0.15 0.297 0.044 0.406 0.261 0.512 0.497 0.366 0.806 0.761 1.602 0.937 2.48 0.037 0.184 0.082 0.369 0.105 0.554 0.066 0.554 0.056 1.128 0.203 1.658 0.154 0.554 0.18 1.121 0.306 1.674 0.005 0.094 0.005 0.192 0.005 0.29zM30.146 19.726c0.101-0.086 0.212-0.131 0.231-0.203 0.087-0.32 0.163-0.647 0.208-0.976 0.012-0.082-0.084-0.219-0.168-0.264-0.112-0.061-0.212 0.021-0.247 0.149-0.019 0.066-0.030 0.136-0.040 0.205-0.023 0.128-0.002 0.289-0.072 0.38-0.131 0.17-0.105 0.341-0.075 0.516 0.007 0.061 0.087 0.11 0.163 0.194zM29.079 22.599c0.117 0.012 0.24-0.105 0.205-0.219-0.080-0.264-0.215-0.497-0.484-0.619-0.119-0.054-0.191-0.032-0.224 0.112-0.051 0.227 0.269 0.701 0.504 0.726zM27.773 21.632c0.115-0.005 0.248 0.023 0.241-0.168-0.007-0.215-0.156-0.373-0.369-0.373-0.143 0-0.219 0.073-0.222 0.219-0.005 0.206 0.112 0.313 0.35 0.322zM27.411 20.543c-0.009-0.175-0.107-0.247-0.269-0.248-0.152-0.002-0.187 0.091-0.18 0.217 0.009 0.152 0.073 0.247 0.241 0.248 0.152 0.002 0.206-0.080 0.208-0.217zM26.931 10.819c0-0.161 0.011-0.306-0.007-0.448-0.005-0.040-0.084-0.079-0.136-0.1-0.019-0.007-0.073 0.035-0.089 0.065-0.093 0.177-0.005 0.388 0.233 0.483zM26.945 9.747c0.152-0.178 0.152-0.191 0.026-0.325-0.177 0.17-0.178 0.184-0.026 0.325z"></path>
<path d="M15.413 31.999c-0.668-0.093-1.326-0.229-2.015-0.149-0.327 0.038-0.68-0.047-1.007-0.129-0.588-0.149-1.156-0.387-1.749-0.497-0.57-0.107-0.993-0.458-1.48-0.707-0.691-0.353-1.284-0.838-1.873-1.333-0.089-0.075-0.163-0.168-0.269-0.278 0.135-0.068 0.233-0.136 0.341-0.17 0.796-0.245 1.534-0.593 2.184-1.125 0.364-0.297 0.806-0.28 1.205-0.040 0.156 0.093 0.35 0.119 0.523 0.187 0.138 0.054 0.296 0.098 0.399 0.194 0.287 0.275 0.61 0.423 1.009 0.442 0.397 0.019 0.792 0.093 1.189 0.107 0.535 0.017 1.074 0.012 1.609-0.005 0.908-0.028 1.819-0.030 2.72-0.124 0.712-0.075 1.41-0.273 2.113-0.423 0.252-0.054 0.497-0.145 0.749-0.199 0.491-0.105 0.948-0.289 1.364-0.567 0.15-0.101 0.266-0.087 0.413 0.021 0.586 0.428 1.118 0.909 1.527 1.511 0.17 0.25 0.154 0.283-0.1 0.465-0.028 0.019-0.061 0.042-0.073 0.070-0.15 0.339-0.47 0.502-0.728 0.736-0.444 0.402-0.965 0.656-1.511 0.873-0.264 0.105-0.54 0.173-0.811 0.261-0.198 0.065-0.392 0.143-0.593 0.198-0.145 0.040-0.297 0.058-0.446 0.073-0.105 0.012-0.215-0.011-0.317 0.011-0.75 0.159-1.497 0.339-2.253 0.479-0.292 0.054-0.6 0.012-0.899 0.030-0.227 0.014-0.453 0.054-0.679 0.084-0.178 0.003-0.36 0.003-0.542 0.003z"></path>
<path d="M0.513 16.931c0.149-0.7 0.357-1.397 0.24-2.123-0.096-0.593-0.016-1.161 0.103-1.742 0.094-0.467 0.136-0.939 0.421-1.341 0.024-0.033 0.037-0.075 0.047-0.115 0.297-1.128 0.995-2.030 1.721-2.894 0.329-0.392 0.796-0.672 1.221-0.974 0.213-0.152 0.324-0.082 0.378 0.177 0.014 0.068 0.024 0.138 0.032 0.206 0.056 0.533 0.245 0.999 0.682 1.34 0.103 0.080 0.191 0.185 0.282 0.282 0.245 0.261 0.32 0.278 0.659 0.154 0.030-0.011 0.063-0.012 0.14-0.028-0.072 0.192-0.122 0.355-0.191 0.509-0.278 0.631-0.561 1.261-0.845 1.891-0.224 0.5-0.32 1.027-0.311 1.57 0.016 0.953-0.077 1.896-0.147 2.844-0.056 0.752 0.065 1.518 0.108 2.277 0.018 0.32 0.042 0.64 0.058 0.958 0.002 0.044-0.014 0.11-0.045 0.133-0.296 0.212-0.509 0.535-0.909 0.612-0.129 0.024-0.264 0.184-0.336 0.315-0.217 0.397-0.352 0.82-0.287 1.287 0.012 0.086-0.030 0.178-0.054 0.31-0.268-0.175-0.5-0.313-0.715-0.476-0.054-0.042-0.070-0.156-0.073-0.24-0.003-0.080 0.030-0.164 0.047-0.247 0.033-0.156-0.016-0.21-0.187-0.238-0.355-0.058-0.679-0.22-0.899-0.514-0.17-0.227-0.292-0.491-0.435-0.74-0.247-0.421-0.35-0.876-0.332-1.364 0.005-0.164-0.026-0.334-0.066-0.493-0.093-0.364-0.203-0.722-0.306-1.083 0.002-0.084 0.002-0.168 0.002-0.252z"></path>
<path d="M21.426 25.434c0.044-0.129 0.091-0.227 0.107-0.331 0.032-0.206 0.047-0.415 0.066-0.623 0.009-0.1 0.052-0.222-0.103-0.25-0.14-0.026-0.273 0.017-0.292 0.166-0.035 0.287-0.044 0.577-0.054 0.867-0.002 0.080 0.040 0.163 0.047 0.247 0.032 0.303-0.075 0.486-0.38 0.561-0.535 0.129-1.074 0.271-1.618 0.334-1.102 0.129-2.204 0.259-3.298 0.444-0.476 0.080-0.978 0.002-1.466 0.033-1.042 0.066-2.002-0.275-2.956-0.603-0.427-0.147-0.808-0.437-1.194-0.684-0.079-0.051-0.121-0.203-0.126-0.31-0.021-0.476-0.018-0.951-0.035-1.425-0.005-0.136-0.035-0.28-0.091-0.402-0.196-0.441-0.411-0.871-0.609-1.31-0.101-0.224-0.255-0.378-0.486-0.462-0.117-0.042-0.227-0.112-0.348-0.143s-0.254-0.028-0.38-0.049c-0.301-0.052-0.602-0.1-0.895-0.175-0.059-0.016-0.107-0.138-0.129-0.22-0.073-0.257-0.199-0.474-0.35-0.7-0.173-0.262-0.268-0.598-0.317-0.915-0.089-0.579-0.101-1.168-0.182-1.749-0.049-0.357-0.030-0.705-0.014-1.062 0.019-0.453-0.023-0.908-0.035-1.361-0.003-0.145-0.011-0.294 0.009-0.435 0.093-0.642 0.17-1.285 0.301-1.92 0.098-0.47 0.268-0.925 0.407-1.385 0.079-0.261 0.257-0.446 0.427-0.654 0.565-0.694 1.324-1.158 1.976-1.744 0.25-0.226 0.4-0.502 0.409-0.843 0.004-0.152 0.051-0.264 0.196-0.341 0.058-0.030 0.105-0.11 0.124-0.178 0.065-0.206 0.185-0.373 0.381-0.449 0.29-0.114 0.591-0.198 0.89-0.292 0.224-0.072 0.474-0.1 0.668-0.217 0.584-0.353 1.226-0.439 1.885-0.498 0.477-0.044 0.95-0.138 1.425-0.206 0.082-0.012 0.166-0.018 0.248-0.011 0.39 0.030 0.78 0.054 1.168 0.098 0.624 0.068 1.249 0.138 1.87 0.229 0.53 0.077 1.060 0.17 1.583 0.285 0.191 0.042 0.369 0.159 0.544 0.259 0.381 0.219 0.449 0.212 0.728-0.126 0.194-0.238 0.385-0.208 0.483 0.084 0.079 0.238 0.143 0.483 0.198 0.726 0.077 0.338 0.229 0.626 0.49 0.857 0.387 0.343 0.761 0.698 1.152 1.035 0.082 0.072 0.21 0.11 0.322 0.124 0.191 0.024 0.308 0.11 0.364 0.294 0.484 1.59 0.864 3.197 0.796 4.878-0.024 0.602-0.005 1.205-0.052 1.803-0.051 0.654-0.201 1.301-0.226 1.955-0.030 0.78-0.259 1.511-0.42 2.26-0.030 0.135-0.047 0.28-0.033 0.416 0.023 0.217-0.068 0.334-0.255 0.423-0.719 0.339-1.32 0.813-1.693 1.534-0.32 0.621-0.516 1.284-0.589 1.974-0.023 0.208-0.124 0.296-0.278 0.371-0.15 0.073-0.231-0.032-0.311-0.133-0.021-0.038-0.058-0.059-0.049-0.052zM16.118 25.319c0.343-0.028 0.579-0.051 0.815-0.068 0.658-0.047 1.313-0.024 1.962 0.094 0.075 0.014 0.138 0.086 0.212 0.115 0.108 0.044 0.234 0.121 0.332 0.098 0.143-0.033 0.142-0.187 0.114-0.318-0.056-0.259-0.11-0.519-0.175-0.775-0.082-0.32-0.154-0.642-0.065-0.971 0.094-0.35 0.191-0.701 0.304-1.046 0.196-0.598 0.598-1 1.201-1.191 0.219-0.068 0.444-0.119 0.666-0.178 0.241-0.063 0.479-0.142 0.602-0.38 0.367-0.708 0.658-1.41 0.324-2.244-0.226-0.567-0.336-1.18-0.474-1.779-0.047-0.205-0.038-0.427-0.024-0.64 0.014-0.24 0.072-0.476 0.091-0.715 0.021-0.264-0.002-0.533 0.037-0.796 0.115-0.797 0.019-1.576-0.205-2.338-0.275-0.937-0.563-1.87-0.871-2.796-0.061-0.185-0.205-0.373-0.36-0.495-0.512-0.409-1.046-0.794-1.7-0.962-0.182-0.047-0.357-0.124-0.526-0.206-0.586-0.282-1.214-0.418-1.847-0.525-0.143-0.024-0.31 0.003-0.448 0.054-0.385 0.142-0.756 0.322-1.142 0.46-0.505 0.18-1.020 0.334-1.53 0.495-0.126 0.040-0.255 0.077-0.386 0.086-0.203 0.012-0.352 0.1-0.488 0.247-0.096 0.101-0.224 0.212-0.353 0.236-0.192 0.037-0.306 0.124-0.411 0.282-0.063 0.094-0.187 0.15-0.285 0.22-0.031 0.023-0.084 0.023-0.108 0.051-0.376 0.453-0.691 0.941-0.71 1.553-0.028 0.915-0.051 1.831-0.044 2.748 0.002 0.315 0.049 0.621-0.143 0.902-0.031 0.045-0.021 0.121-0.026 0.184-0.042 0.549-0.082 1.1-0.128 1.649-0.044 0.533-0.215 1.020-0.54 1.452-0.147 0.194-0.292 0.397-0.399 0.616-0.063 0.131-0.108 0.325-0.058 0.449 0.227 0.558 0.526 1.077 0.915 1.544 0.324 0.388 0.721 0.525 1.215 0.428 0.124-0.024 0.28-0.033 0.386 0.021 0.647 0.329 1.189 0.775 1.536 1.436 0.383 0.736 0.554 1.499 0.408 2.328-0.079 0.442 0.065 0.574 0.511 0.535 0.213-0.019 0.432-0.009 0.647 0.011 0.427 0.038 0.85 0.093 1.17 0.129zM10.768 25.202c0.004 0.147 0.024 0.289 0.213 0.292 0.194 0.002 0.215-0.149 0.212-0.292-0.004-0.135 0.004-0.294-0.203-0.297-0.21-0.003-0.227 0.138-0.222 0.297zM20.403 25.174c-0.007-0.142-0.021-0.282-0.219-0.282-0.192 0-0.18 0.142-0.178 0.264 0.002 0.119-0.024 0.268 0.177 0.262 0.159-0.005 0.222-0.091 0.22-0.245zM22.223 10.117c-0.196 0.191-0.11 0.413 0.156 0.462-0.058-0.171-0.107-0.317-0.156-0.462z"></path>
<path d="M21.905 5.659c-0.1-0.178-0.206-0.355-0.299-0.537-0.142-0.28-0.378-0.303-0.561-0.044-0.019 0.028-0.035 0.059-0.054 0.089-0.124 0.21-0.152 0.203-0.348 0.065-0.157-0.11-0.332-0.22-0.516-0.262-0.617-0.143-1.242-0.254-1.864-0.38-1.034-0.208-2.078-0.093-3.115-0.072-1.613 0.033-3.137 0.477-4.587 1.182-0.051 0.024-0.101 0.047-0.152 0.068-0.32 0.136-0.462 0.082-0.642-0.212-0.217-0.35-0.444-0.693-0.675-1.035-0.061-0.093-0.147-0.168-0.222-0.25-0.114-0.121-0.257-0.163-0.4-0.086-0.206 0.112-0.423 0.073-0.579-0.033-0.275-0.187-0.575-0.194-0.876-0.236-0.035-0.005-0.068-0.010-0.159-0.023 0.091-0.094 0.145-0.201 0.226-0.226 0.317-0.1 0.467-0.334 0.514-0.631 0.063-0.39 0.283-0.63 0.633-0.766 0.371-0.145 0.747-0.275 1.116-0.425 0.131-0.054 0.247-0.15 0.369-0.224 0.196-0.119 0.383-0.261 0.593-0.346 1.235-0.512 2.515-0.873 3.83-1.125 0.502-0.096 0.995-0.056 1.495-0.059 0.644-0.005 1.285-0.068 1.927-0.091 0.206-0.007 0.425 0.005 0.621 0.065 0.514 0.157 1.037 0.198 1.57 0.205 0.275 0.004 0.549 0.073 0.824 0.112 0.124 0.018 0.248 0.044 0.373 0.047 0.25 0.007 0.486 0.038 0.682 0.217 0.047 0.042 0.126 0.068 0.191 0.070 0.283 0.005 0.528 0.105 0.757 0.269 0.352 0.252 0.724 0.479 1.063 0.747 0.462 0.364 0.392 0.89-0.142 1.13-0.318 0.143-0.491 0.381-0.619 0.696-0.184 0.449-0.415 0.881-0.616 1.324-0.066 0.143-0.103 0.301-0.156 0.451-0.035 0.101-0.072 0.203-0.107 0.304-0.032 0.009-0.063 0.016-0.094 0.021z"></path>
<path d="M11.004 18.3c-0.054-0.369 0.091-0.691 0.29-0.995 0.14-0.215 0.296-0.273 0.519-0.156 0.425 0.224 0.911 0.231 1.343 0.411 0.301 0.126 0.651 0.136 0.904 0.387 0.065 0.065 0.205 0.080 0.306 0.073 0.173-0.014 0.301 0.033 0.393 0.178 0.026 0.040 0.059 0.077 0.091 0.115 0.46 0.561 0.416 1.203-0.094 1.737-0.17 0.177-0.332 0.289-0.582 0.231-0.033-0.007-0.070 0-0.105 0.007-0.628 0.138-1.17-0.059-1.684-0.402-0.243-0.163-0.497-0.317-0.764-0.432-0.448-0.196-0.612-0.542-0.617-0.999 0-0.051 0-0.1 0-0.156zM11.651 17.856c-0.231 0.159-0.236 0.297-0.122 0.448 0.023 0.030 0.070 0.072 0.091 0.065 0.038-0.014 0.096-0.061 0.093-0.091-0.007-0.129-0.035-0.257-0.061-0.421z"></path>
<path d="M21.456 18.416c-0.065 0.261-0.103 0.49-0.18 0.705-0.128 0.357-0.352 0.586-0.768 0.64-0.46 0.059-0.909 0.196-1.362 0.311-0.359 0.091-0.946-0.185-1.109-0.551-0.108-0.241-0.203-0.491-0.278-0.743-0.028-0.094-0.019-0.231 0.032-0.313 0.271-0.448 0.624-0.803 1.145-0.958 0.441-0.131 0.88-0.271 1.317-0.416 0.159-0.052 0.243-0.003 0.324 0.133 0.052 0.089 0.152 0.147 0.222 0.227 0.154 0.177 0.311 0.352 0.446 0.542 0.091 0.131 0.145 0.29 0.212 0.423z"></path>
<path d="M15.331 22.186c0-0.285-0.018-0.572 0.007-0.855 0.014-0.161 0.082-0.324 0.156-0.47 0.096-0.192 0.219-0.373 0.332-0.556 0.182-0.297 0.47-0.332 0.712-0.086 0.357 0.364 0.605 0.784 0.652 1.301 0.032 0.338 0.061 0.675 0.084 1.014 0.005 0.087-0.005 0.184-0.035 0.266-0.075 0.206-0.184 0.241-0.366 0.117-0.189-0.131-0.367-0.276-0.556-0.411-0.21-0.149-0.304-0.117-0.385 0.121-0.105 0.306-0.282 0.348-0.477 0.082-0.105-0.142-0.143-0.334-0.212-0.504 0.026-0.005 0.058-0.012 0.087-0.019z"></path>
</svg>
