<!-- Generated by IcoMoon.io -->
<svg version="1.1" xmlns="http://www.w3.org/2000/svg" width="32" height="32" viewBox="0 0 32 32">
<title>deployment-dagger</title>
<path d="M15.674 0.001c-0.257 0.467-0.606 0.853-0.677 1.284-0.128 0.785-0.534 1.379-0.986 1.978-0.258 0.343-0.146 0.686 0.221 0.731 0.719 0.090 1.072 0.617 0.98 1.339-0.104 0.812-0.168 1.632-0.192 2.451-0.014 0.456-0.175 0.663-0.629 0.692-0.498 0.031-1 0.072-1.487 0.171-0.289 0.059-0.607 0.179-0.82 0.371-0.509 0.463-0.535 2.033-0.014 2.682 0.202-0.262 0.39-0.503 0.574-0.746 0.366-0.479 0.69-0.997 1.108-1.425 0.288-0.295 0.902-0.213 1.079 0.038 0.248 0.355 0.126 1.257-0.202 1.459-0.397 0.244-0.798 0.484-1.254 0.761 0.196 0.097 0.351 0.16 0.493 0.243 0.577 0.341 0.767 1.228 0.293 1.521-0.312 0.194-0.36 0.431-0.36 0.731-0.003 0.755-0.027 1.51 0.004 2.264 0.025 0.583 0.097 1.167 0.196 1.741 0.096 0.551 0.307 1.086 0.374 1.639 0.154 1.257-0.035 2.53 0.322 3.79 0.513 1.808 0.004 3.739 0.589 5.564 0.183 0.57 0.052 1.235 0.113 1.85 0.030 0.295 0.173 0.577 0.266 0.865 0.074-0.28 0.169-0.557 0.216-0.842 0.131-0.809 0.242-1.622 0.363-2.434 0.074-0.501 0.162-1-0.068-1.517-0.211 0.126-0.366 0.216-0.521 0.307-0.386-0.711-0.265-1.011 0.415-1.283 0.141-0.056 0.265-0.302 0.289-0.475 0.089-0.649 0.015-1.344 0.217-1.95 0.422-1.263 0.336-2.558 0.428-3.844 0.012-0.169-0.012-0.398 0.085-0.494 0.371-0.363 0.31-0.815 0.345-1.257 0.098-1.205 0.171-2.415 0.337-3.612 0.134-0.956 0.194-0.958-0.656-1.452-0.349-0.203-0.356-0.525-0.259-0.808 0.059-0.169 0.318-0.291 0.51-0.388 0.15-0.075 0.337-0.076 0.615-0.134-0.173-0.142-0.241-0.209-0.319-0.262-0.333-0.229-0.696-0.424-0.995-0.692-0.367-0.329-0.258-0.917 0.199-1.085 0.299-0.109 0.641-0.091 0.954-0.169 1.112-0.274 1.85 0.505 1.869 1.549 0.003 0.166 0.089 0.332 0.135 0.497 0.059 0.001 0.117 0.003 0.176 0.005 0.067-0.25 0.186-0.498 0.19-0.748 0.008-0.534-0.038-1.068-0.070-1.603-0.031-0.554-0.199-0.669-0.741-0.694-0.82-0.040-1.639-0.134-2.456-0.209-0.304-0.027-0.46-0.191-0.463-0.509-0.012-1.052-0.050-2.105-0.046-3.157 0.003-0.707 0.181-0.856 0.894-0.924 0.157-0.015 0.424-0.071 0.439-0.146 0.029-0.156-0.057-0.347-0.132-0.505-0.386-0.805-1.268-1.292-1.411-2.273-0.046-0.297-0.33-0.565-0.531-0.89z"></path>
<path d="M1.669 15.944c0.128 0.091 0.19 0.173 0.259 0.181 0.716 0.085 1.396 0.217 2.083 0.512 0.821 0.352 1.138 0.602 1.332 1.497 0.161 0.744 0.443 1.461 0.679 2.189 0.025 0.076 0.109 0.131 0.158 0.201 0.424 0.594 0.838 1.198 1.276 1.782 0.317 0.42 0.686 0.802 0.995 1.228 0.228 0.314 0.69 0.574 0.48 1.048-0.203 0.456-0.532 0.853-0.761 1.299-0.085 0.165-0.045 0.396-0.068 0.669 0.374-0.332 0.67-0.564 0.929-0.832 0.327-0.34 0.58-0.763 0.943-1.052 0.483-0.386 0.508-0.655 0.011-1.042-0.373-0.291-0.73-0.607-1.051-0.952-0.284-0.306-0.499-0.675-0.761-1.004-0.36-0.452-0.767-0.866-0.831-1.49-0.020-0.195-0.157-0.375-0.235-0.565-0.27-0.66-0.693-1.304-0.771-1.987-0.116-1.018-0.075-2.074 0.067-3.092 0.113-0.813 0.488-1.573 0.914-2.31 0.464-0.805 1.079-1.385 1.854-1.856 0.218-0.132 0.476-0.413 0.48-0.632 0.005-0.258-0.225-0.534-0.392-0.775-0.101-0.147-0.285-0.233-0.413-0.366-0.554-0.57-1.101-1.147-1.651-1.722-0.063 0.027-0.126 0.055-0.188 0.080 0.068 0.276 0.124 0.555 0.207 0.827 0.059 0.192 0.162 0.37 0.233 0.558 0.127 0.334 0.288 0.665 0.351 1.011 0.053 0.295 0.087 0.666-0.045 0.907-0.231 0.426-0.565 0.808-0.91 1.156-0.834 0.838-1.193 1.897-1.506 2.992-0.119 0.416-0.322 0.808-0.823 0.899-0.875 0.16-1.749 0.317-2.622 0.482-0.057 0.010-0.105 0.072-0.224 0.16z"></path>
<path d="M25.307 7.010c-0.323 0.188-0.625 0.317-0.868 0.514-0.756 0.615-1.483 1.266-2.236 1.886-0.379 0.312-0.422 0.565-0.049 0.841 0.884 0.655 1.637 1.389 1.913 2.519 0.218 0.894 0.718 1.767 0.727 2.652 0.014 1.433-0.091 2.923-0.491 4.286-0.319 1.089-0.64 2.258-1.385 3.2-0.18 0.228-0.358 0.461-0.517 0.703-0.154 0.232-0.154 0.457 0.188 0.469 0.618 0.023 0.936 0.49 1.347 0.832 0.407 0.338 0.832 0.652 1.25 0.976 0.056-0.042 0.111-0.086 0.166-0.128-0.050-0.158-0.064-0.344-0.158-0.471-0.381-0.518-0.801-1.010-1.171-1.535-0.104-0.147-0.183-0.434-0.111-0.565 0.39-0.69 0.895-1.303 1.116-2.1s0.594-1.551 0.83-2.344c0.115-0.388 0.034-0.828 0.105-1.233 0.041-0.236 0.15-0.58 0.323-0.652 0.658-0.277 1.343-0.506 2.038-0.666 0.464-0.106 0.962-0.061 1.444-0.096 0.151-0.011 0.302-0.059 0.562-0.111-0.166-0.117-0.216-0.181-0.273-0.188-1.004-0.119-2.013-0.213-3.014-0.355-0.378-0.053-0.876-0.104-1.081-0.351-0.306-0.37-0.403-0.913-0.585-1.382-0.198-0.509-0.363-1.033-0.596-1.524-0.195-0.409-0.43-0.812-0.716-1.161-0.332-0.403-0.566-0.846-0.356-1.315 0.222-0.499 0.6-0.928 0.91-1.389 0.265-0.397 0.752-0.685 0.688-1.311z"></path>
<path d="M15.674 0.001c0.201 0.325 0.484 0.592 0.529 0.894 0.145 0.98 1.026 1.467 1.411 2.273 0.076 0.158 0.162 0.349 0.132 0.505-0.014 0.075-0.281 0.131-0.439 0.146-0.712 0.070-0.89 0.218-0.894 0.924-0.005 1.052 0.034 2.105 0.046 3.157 0.004 0.318 0.158 0.482 0.463 0.509 0.819 0.075 1.636 0.169 2.456 0.209 0.542 0.026 0.709 0.141 0.741 0.694 0.030 0.535 0.078 1.070 0.070 1.603-0.004 0.25-0.123 0.498-0.19 0.748-0.059-0.001-0.117-0.003-0.176-0.005-0.048-0.165-0.132-0.33-0.135-0.497-0.018-1.044-0.757-1.823-1.869-1.549-0.314 0.078-0.656 0.060-0.954 0.169-0.457 0.168-0.566 0.756-0.199 1.085 0.299 0.267 0.662 0.461 0.995 0.692 0.078 0.053 0.146 0.119 0.319 0.262-0.278 0.056-0.465 0.059-0.615 0.134-0.192 0.096-0.452 0.217-0.51 0.388-0.097 0.282-0.090 0.604 0.259 0.808 0.849 0.494 0.789 0.495 0.656 1.452-0.166 1.197-0.239 2.406-0.337 3.612-0.037 0.443 0.026 0.894-0.345 1.257-0.097 0.094-0.071 0.325-0.085 0.494-0.094 1.285-0.008 2.58-0.428 3.844-0.202 0.606-0.128 1.3-0.217 1.95-0.023 0.173-0.149 0.419-0.289 0.475-0.679 0.273-0.801 0.572-0.415 1.283 0.154-0.091 0.31-0.183 0.521-0.307 0.232 0.517 0.143 1.018 0.068 1.517-0.12 0.812-0.231 1.624-0.363 2.434-0.046 0.285-0.142 0.561-0.216 0.842-0.093-0.288-0.236-0.572-0.266-0.865-0.061-0.617 0.070-1.281-0.113-1.85-0.585-1.827-0.076-3.758-0.589-5.564-0.357-1.259-0.168-2.532-0.322-3.79-0.068-0.553-0.278-1.087-0.374-1.639-0.1-0.574-0.171-1.158-0.196-1.741-0.033-0.753-0.007-1.509-0.004-2.264 0.001-0.3 0.048-0.538 0.36-0.731 0.473-0.293 0.284-1.18-0.293-1.521-0.142-0.083-0.296-0.147-0.493-0.243 0.457-0.277 0.857-0.517 1.254-0.761 0.327-0.202 0.452-1.104 0.202-1.459-0.177-0.252-0.791-0.334-1.079-0.038-0.418 0.428-0.742 0.946-1.108 1.425-0.186 0.243-0.373 0.484-0.574 0.746-0.521-0.651-0.497-2.22 0.014-2.683 0.213-0.194 0.531-0.314 0.82-0.371 0.488-0.098 0.989-0.139 1.487-0.171 0.454-0.029 0.615-0.236 0.629-0.692 0.025-0.819 0.089-1.639 0.192-2.451 0.093-0.72-0.261-1.248-0.98-1.339-0.367-0.046-0.479-0.389-0.221-0.731 0.452-0.599 0.858-1.194 0.986-1.978 0.072-0.435 0.422-0.821 0.678-1.288z"></path>
<path d="M1.669 15.944c0.119-0.087 0.166-0.15 0.225-0.161 0.873-0.165 1.748-0.323 2.622-0.482 0.501-0.091 0.704-0.483 0.823-0.899 0.312-1.096 0.671-2.154 1.506-2.992 0.345-0.347 0.679-0.73 0.91-1.156 0.132-0.243 0.098-0.613 0.045-0.907-0.063-0.347-0.225-0.677-0.351-1.011-0.071-0.188-0.175-0.367-0.233-0.558-0.083-0.272-0.141-0.551-0.207-0.827 0.063-0.027 0.126-0.055 0.188-0.080 0.55 0.574 1.097 1.152 1.651 1.722 0.128 0.132 0.312 0.218 0.413 0.366 0.166 0.242 0.397 0.517 0.392 0.775-0.004 0.218-0.262 0.499-0.48 0.632-0.775 0.471-1.389 1.051-1.854 1.856-0.424 0.737-0.801 1.497-0.914 2.31-0.142 1.017-0.181 2.074-0.067 3.092 0.078 0.682 0.501 1.326 0.771 1.987 0.078 0.19 0.214 0.371 0.235 0.565 0.064 0.625 0.471 1.040 0.831 1.49 0.262 0.327 0.478 0.697 0.761 1.004 0.321 0.345 0.679 0.662 1.051 0.952 0.498 0.388 0.472 0.656-0.011 1.042-0.363 0.289-0.615 0.712-0.943 1.052-0.258 0.269-0.555 0.501-0.929 0.832 0.023-0.273-0.016-0.502 0.068-0.669 0.229-0.446 0.558-0.843 0.761-1.299 0.21-0.472-0.254-0.734-0.48-1.048-0.308-0.426-0.679-0.806-0.995-1.228-0.438-0.584-0.851-1.187-1.276-1.782-0.049-0.070-0.134-0.124-0.158-0.201-0.236-0.727-0.519-1.445-0.679-2.189-0.194-0.895-0.51-1.143-1.332-1.497-0.688-0.295-1.367-0.427-2.083-0.512-0.071-0.007-0.132-0.087-0.261-0.18z"></path>
<path d="M25.307 7.010c0.063 0.626-0.424 0.914-0.69 1.311-0.308 0.461-0.688 0.89-0.91 1.389-0.209 0.471 0.026 0.914 0.356 1.315 0.287 0.348 0.523 0.752 0.716 1.161 0.233 0.491 0.398 1.015 0.596 1.524 0.183 0.471 0.278 1.014 0.585 1.382 0.206 0.248 0.703 0.297 1.081 0.351 1.002 0.142 2.010 0.236 3.014 0.355 0.056 0.007 0.106 0.071 0.273 0.188-0.261 0.053-0.411 0.1-0.562 0.111-0.482 0.034-0.98-0.012-1.444 0.096-0.695 0.16-1.381 0.39-2.038 0.666-0.172 0.072-0.282 0.416-0.323 0.652-0.070 0.405 0.010 0.846-0.105 1.233-0.235 0.794-0.609 1.547-0.83 2.344-0.221 0.795-0.726 1.409-1.116 2.1-0.074 0.13 0.005 0.418 0.111 0.565 0.37 0.525 0.791 1.017 1.171 1.535 0.093 0.127 0.108 0.312 0.158 0.471-0.056 0.042-0.111 0.086-0.166 0.128-0.418-0.325-0.843-0.637-1.25-0.976-0.411-0.343-0.729-0.809-1.347-0.832-0.343-0.012-0.343-0.237-0.188-0.469 0.161-0.243 0.337-0.475 0.517-0.703 0.745-0.941 1.066-2.111 1.385-3.2 0.4-1.364 0.505-2.853 0.491-4.286-0.008-0.886-0.509-1.759-0.727-2.652-0.276-1.13-1.029-1.864-1.913-2.519-0.372-0.276-0.33-0.528 0.049-0.841 0.752-0.619 1.479-1.27 2.236-1.886 0.247-0.198 0.547-0.326 0.871-0.514z"></path>
</svg>
