<!-- Generated by IcoMoon.io -->
<svg version="1.1" xmlns="http://www.w3.org/2000/svg" width="32" height="32" viewBox="0 0 32 32">
<title>factions-order-cities-of-sigmar-hammerhal</title>
<path d="M13.445 31.384c-0.399-0.285-0.437-0.399-0.323-1.198 0.152-0.989 0.133-3.746-0.019-5.438-0.057-0.628-0.38-1.73-0.685-2.472-0.323-0.723-0.646-1.597-0.742-1.939s-0.475-1.046-0.837-1.578c-0.723-1.084-0.799-1.369-0.399-1.692 0.57-0.475 1.312-2.396 1.426-3.708 0.114-1.293 0.114-1.312 0.875-1.711 0.646-0.342 1.103-0.399 3.137-0.399 1.997 0 2.491 0.057 3.137 0.38 0.837 0.418 0.761 0.114 1.16 4.373 0.057 0.628 0.171 1.217 0.247 1.293s0.114-0.133 0.076-0.475l-0.076-0.628 0.475 0.761c0.266 0.418 0.532 0.875 0.608 1.008 0.076 0.152-0.266 1.084-0.761 2.092-0.475 1.008-0.875 1.959-0.875 2.092s-0.076 0.38-0.171 0.57c-0.475 0.97-0.818 3.29-0.856 5.799l-0.019 2.662-0.551 0.19c-0.913 0.304-1.027-0.076-1.046-3.271-0.019-1.654-0.133-3.156-0.266-3.651-0.228-0.78-0.285-0.837-0.875-0.837-0.475 0-0.742 0.133-1.046 0.532-0.361 0.494-0.399 0.856-0.494 3.993-0.095 3.746-0.171 3.917-1.103 3.252zM16.772 21.496c0.038-0.133-0.247-0.19-0.742-0.19-0.818 0.019-0.818 0.019-0.932-0.742l-0.114-0.761-0.038 0.894c0 0.551 0.076 0.913 0.228 0.989 0.38 0.152 1.521 0.038 1.597-0.19zM19.016 19.328c0.057-0.114-0.019-0.133-0.171-0.076-0.342 0.133-0.399 0.266-0.133 0.266 0.114 0 0.247-0.076 0.304-0.19zM17.913 18.815c0.133 0.152 1.198-0.247 1.198-0.437 0-0.304-0.761-0.399-1.426-0.19-0.456 0.152-0.666 0.342-0.666 0.589 0 0.323 0.057 0.342 0.399 0.171 0.209-0.133 0.437-0.171 0.494-0.133zM14.414 18.568c0.095-0.076-0.133-0.247-0.494-0.361-1.027-0.342-1.806 0.152-0.837 0.551 0.418 0.171 1.046 0.076 1.331-0.19zM21.203 18.302c0-0.057-0.095-0.152-0.228-0.228s-0.152-0.057-0.076 0.076c0.133 0.228 0.304 0.304 0.304 0.152zM19.301 12.027c0-0.057-0.095-0.152-0.228-0.228s-0.152-0.057-0.076 0.076c0.133 0.228 0.304 0.304 0.304 0.152z"></path>
<path d="M10.478 29.064c-1.217-0.666-3.974-3.423-4.487-4.488-0.209-0.456-0.628-1.997-0.932-3.423-0.285-1.426-0.589-2.529-0.646-2.453-0.076 0.057-0.133 0.038-0.133-0.076 0-0.304 0.532-0.456 0.646-0.19 0.057 0.133 0.057-0.076 0-0.437-0.057-0.399 0.019-1.046 0.19-1.521s0.304-0.989 0.304-1.16c0-0.171 0.133-0.418 0.285-0.551s0.742-0.932 1.312-1.787c1.35-2.035 2.529-3.099 4.392-4.012l1.521-0.742h2.567c2.909 0 3.594 0.19 5.685 1.445 1.921 1.16 3.004 2.301 3.765 3.955 0.361 0.78 0.78 1.692 0.951 1.997 0.19 0.38 0.323 1.312 0.361 2.814 0.095 2.472-0.228 4.126-1.179 6.199-0.989 2.111-3.252 4.202-4.583 4.202-0.342 0-0.628-0.038-0.628-0.076s-0.057-0.228-0.133-0.418c-0.076-0.228-0.057-0.285 0.095-0.19 0.133 0.076 0.228 0.038 0.228-0.057 0-0.114-0.076-0.209-0.19-0.209-0.475 0 0.095-4.297 0.78-5.876 0.875-1.997 1.559-3.175 2.111-3.651l0.57-0.475-0.666-0.456c-0.685-0.475-1.426-1.54-1.559-2.282-0.038-0.228-0.095-1.198-0.114-2.187-0.019-1.692-0.057-1.806-0.437-1.787-0.209 0.019-0.989-0.209-1.73-0.475-2.016-0.742-5.058-0.589-6.94 0.342l-0.856 0.437-0.019 1.217c-0.038 2.187-0.78 3.879-1.902 4.392-0.646 0.304-0.57 0.723 0.323 1.578 0.494 0.475 1.065 1.369 1.54 2.377 0.418 0.894 0.837 1.768 0.932 1.939 0.57 1.103 0.951 5.476 0.532 6.275-0.247 0.475-0.856 0.418-1.959-0.19zM22.667 16.533c-0.076-0.057-0.19-0.057-0.266 0-0.057 0.076 0 0.133 0.133 0.133s0.19-0.057 0.133-0.133zM21.526 15.202c-0.076-0.057-0.19-0.057-0.266 0-0.057 0.076 0 0.133 0.133 0.133s0.19-0.057 0.133-0.133zM21.716 11.627c-0.076-0.152-0.228-0.285-0.361-0.266-0.19 0-0.19 0.038 0 0.114 0.114 0.038 0.228 0.228 0.228 0.399 0 0.152 0.057 0.247 0.114 0.171 0.076-0.057 0.076-0.247 0.019-0.418z"></path>
<path d="M27.401 19.348c-0.057-0.076-0.152-0.437-0.209-0.799s-0.171-0.856-0.266-1.122c-0.095-0.266-0.323-1.122-0.494-1.902-0.532-2.339-1.103-3.328-2.928-5.115-2.985-2.928-6.332-3.879-9.812-2.833-0.723 0.209-1.407 0.456-1.521 0.532-0.095 0.057-0.532 0.228-0.97 0.342-1.236 0.361-3.594 2.263-5.647 4.583-0.247 0.266-0.285 0.361-0.095 0.228 0.266-0.209 0.247-0.038-0.152 0.97-0.266 0.646-0.551 1.369-0.646 1.578s-0.228 0.856-0.304 1.426c-0.057 0.57-0.209 1.198-0.304 1.407-0.209 0.38-0.361 0.361-3.099-0.038l-0.951-0.152 0.665-0.152c1.635-0.361 2.662-1.103 2.662-1.901 0-0.475 0.133-0.875 1.008-3.156 0.361-0.932 0.418-0.989 0.532-0.57l0.133 0.475 0.019-0.513c0.019-0.304-0.057-0.532-0.171-0.532-0.095 0-0.228-0.323-0.285-0.704-0.247-1.616-0.475-2.13-1.255-2.738-0.418-0.323-0.685-0.665-0.57-0.723 0.304-0.19 2.396 0.057 2.358 0.285-0.019 0.114 0.247 0.475 0.57 0.799 0.608 0.589 0.627 0.589 1.084 0.266 0.628-0.418 1.844-1.122 2.605-1.464 0.475-0.228 0.608-0.418 0.723-1.046 0.076-0.418 0.209-0.818 0.323-0.875 0.152-0.095 0.323 0.057 0.97 0.951 0.076 0.133 0.19 0.152 0.285 0.019 0.076-0.114 0.475-0.304 0.894-0.437 2.415-0.78 2.605-1.046 2.092-2.814-0.209-0.761-0.247-1.141-0.114-1.274 0.114-0.114 0.209-0.418 0.209-0.647 0-0.513 0.78-1.388 1.236-1.388 0.342 0 0.38 0.399 0.076 0.704-0.418 0.418-0.38 1.635 0.095 2.529 0.247 0.475 0.513 1.141 0.589 1.483 0.133 0.627 0.589 0.875 1.35 0.78 0.209-0.019 0.494 0 0.646 0.076 1.103 0.418 1.578 0.475 2.016 0.323 0.646-0.247 0.589-0.266 0.742 0.399 0.076 0.323 0.266 0.628 0.437 0.685 0.19 0.076 0.742 0.418 1.255 0.761 0.494 0.342 1.027 0.627 1.141 0.627 0.133 0 0.494-0.304 0.818-0.665 0.513-0.589 0.913-0.78 1.445-0.685 0.076 0 0.133-0.114 0.133-0.266 0-0.304 0.38-0.342 1.141-0.095 0.437 0.133 0.437 0.152 0.057 0.171-0.228 0.019-0.456 0.19-0.532 0.399s-0.209 0.342-0.304 0.285c-0.095-0.076-0.247 0.095-0.361 0.361-0.095 0.266-0.361 0.856-0.57 1.293-0.437 0.932-0.475 1.179-0.133 1.521 0.78 0.856 1.806 3.137 2.396 5.381 0.114 0.418 0.266 0.856 0.361 0.989 0.228 0.361 1.141 0.628 2.13 0.628 0.513 0 0.989 0.076 1.046 0.19 0.076 0.114-0.019 0.133-0.209 0.057-0.209-0.076-0.285-0.038-0.209 0.076s-0.361 0.361-1.065 0.589c-1.369 0.437-2.928 0.666-3.061 0.437zM4.222 15.868c-0.057-0.133-0.095-0.038-0.095 0.228s0.038 0.361 0.095 0.247c0.038-0.133 0.038-0.361 0-0.475zM4.983 8.167c-0.076-0.057-0.19-0.057-0.266 0-0.057 0.076 0 0.133 0.133 0.133s0.19-0.057 0.133-0.133z"></path>
<path d="M31.147 19.005c0.076-0.057 0.19-0.057 0.266 0 0.057 0.076 0 0.133-0.133 0.133s-0.19-0.057-0.133-0.133z"></path>
<path d="M31.756 18.758c0.057-0.095 0.152-0.19 0.209-0.19s0.038 0.095-0.019 0.19c-0.057 0.114-0.152 0.19-0.209 0.19s-0.038-0.076 0.019-0.19z"></path>
</svg>
