<!-- Generated by IcoMoon.io -->
<svg version="1.1" xmlns="http://www.w3.org/2000/svg" width="32" height="32" viewBox="0 0 32 32">
<title>cities-of-sigmar-the-living-city</title>
<path d="M16.653 31.877c-0.208-0.106-0.263-0.155-0.339-0.308-0.143-0.289-0.181-0.663-0.125-1.231 0.114-1.148 0.035-1.161-0.882-0.148-0.275 0.304-0.612 0.664-0.749 0.799-0.213 0.211-0.251 0.235-0.261 0.166-0.007-0.044 0.105-0.329 0.248-0.633 0.219-0.465 0.263-0.594 0.279-0.812 0.017-0.244 0.013-0.263-0.079-0.323-0.087-0.057-0.115-0.058-0.258-0.008-0.296 0.102-0.593 0.313-1.055 0.748-0.534 0.503-0.882 0.774-1.036 0.808-0.133 0.029-0.318-0.034-0.318-0.108 0-0.076 0.23-0.335 0.97-1.093 0.354-0.363 0.738-0.773 0.852-0.912 0.604-0.73 0.726-1.179 0.348-1.281-0.315-0.085-0.981 0.091-1.769 0.466-0.606 0.288-0.779 0.408-1.158 0.796-0.392 0.402-0.588 0.482-1.261 0.511-0.456 0.020-0.66-0.015-0.66-0.116 0-0.136 0.431-0.425 1.307-0.876 0.669-0.345 1.061-0.638 1.376-1.030 0.22-0.273 0.291-0.442 0.202-0.476-0.070-0.027-0.794 0.147-1.625 0.39-0.665 0.195-0.989 0.25-0.989 0.17 0-0.070 0.233-0.287 0.582-0.541 0.772-0.562 1.571-0.947 2.481-1.194 0.836-0.227 1.088-0.372 1.168-0.668 0.039-0.146 0.035-0.164-0.065-0.268-0.143-0.15-0.642-0.402-1.392-0.705-0.792-0.32-1.581-0.684-2.367-1.091-1.301-0.674-6.678-3.736-6.636-3.778 0.008-0.008 0.145 0.038 0.305 0.103 0.393 0.157 0.64 0.199 1.328 0.226 0.581 0.023 0.959 0 1.062-0.064 0.070-0.043 0.003-0.214-0.531-1.341-0.722-1.522-1.049-2.392-1.305-3.472-0.142-0.6-0.212-1.164-0.254-2.056-0.041-0.886-0.134-1.51-0.331-2.226-0.294-1.067-0.736-1.77-1.188-1.886-0.264-0.068-0.437-0.142-0.454-0.194-0.010-0.029 0.025-0.021 0.088 0.021 0.235 0.154 0.692 0.025 0.924-0.261 0.141-0.174 0.174-0.402 0.108-0.739-0.060-0.304-0.149-0.48-0.37-0.729-0.096-0.108-0.174-0.205-0.174-0.217 0-0.040 0.361 0.239 0.549 0.424 0.332 0.327 0.605 0.994 0.691 1.694 0.085 0.683 0.254 1.164 0.41 1.164 0.152 0 0.47-0.643 0.775-1.568 0.27-0.821 0.502-1.385 0.837-2.040 0.349-0.681 0.615-1.038 0.862-1.156 0.231-0.11 0.28-0.218 0.223-0.486-0.061-0.283-0.299-0.709-0.482-0.863-0.087-0.073-0.307-0.243-0.488-0.378-0.196-0.146-0.334-0.276-0.341-0.324s0.052-0.16 0.144-0.276c0.215-0.271 0.736-0.779 0.874-0.851 0.111-0.058 0.117-0.056 0.203 0.052 0.049 0.061 0.162 0.339 0.251 0.616 0.187 0.583 0.26 0.741 0.424 0.929 0.304 0.346 0.729 0.19 1.547-0.566 1.106-1.023 2.7-1.75 4.708-2.146 1.503-0.297 3.305-0.336 4.226-0.092 0.278 0.074 0.423 0.158 0.367 0.213-0.057 0.057-0.425 0.093-1.346 0.129-1.412 0.056-1.94 0.133-3.017 0.444-1.142 0.33-2.381 0.981-3.327 1.749-0.46 0.374-1.839 1.778-2.139 2.178-1.877 2.505-2.614 6.329-1.834 9.511 0.15 0.613 0.32 1.097 0.659 1.88 1.18 2.73 2.683 4.239 5.216 5.24 0.619 0.245 1.125 0.364 1.354 0.321 0.303-0.057 0.449-0.32 0.45-0.803 0-0.216-0.021-0.299-0.135-0.524-0.074-0.147-0.227-0.374-0.339-0.505-0.351-0.408-0.53-0.546-1.664-1.273-1.711-1.098-2.896-2.451-3.467-3.959-0.152-0.4-0.355-1.226-0.409-1.66-0.069-0.558-0.028-2.002 0.076-2.647 0.11-0.683 0.321-1.532 0.489-1.968 0.265-0.687 0.736-1.488 1.252-2.128 0.274-0.34 0.994-1.047 1.404-1.379 1.068-0.864 2.372-1.503 3.589-1.761 0.967-0.205 2.316-0.112 2.607 0.179 0.203 0.203-0.051 0.275-1.153 0.326-0.416 0.019-0.87 0.054-1.009 0.077-1.944 0.323-3.5 1.446-4.556 3.287-0.356 0.62-0.673 1.536-0.841 2.429-0.105 0.556-0.143 1.791-0.075 2.387 0.17 1.473 0.693 2.895 1.515 4.119 0.329 0.489 0.747 0.818 1.551 1.221 0.671 0.336 1.037 0.416 1.129 0.245 0.11-0.205-0.042-0.936-0.469-2.263-0.375-1.164-0.466-1.553-0.465-1.991 0-0.64 0.098-0.945 1.072-3.361 0.598-1.482 0.857-2.032 1.216-2.576 0.296-0.45 0.389-0.532 0.975-0.865 0.276-0.157 0.637-0.386 0.802-0.508s0.375-0.259 0.467-0.304c0.227-0.11 0.851-0.264 1.187-0.294 0.151-0.013 0.319-0.047 0.373-0.074s0.238-0.195 0.408-0.373c0.501-0.522 1.061-1.277 1.506-2.031 0.216-0.366 0.496-0.696 0.725-0.855 0.159-0.11 0.186-0.115 0.712-0.136 0.301-0.012 0.623-0.046 0.715-0.075 0.252-0.079 0.528-0.355 0.842-0.839 0.343-0.528 0.764-0.982 1.036-1.118 0.242-0.121 0.322-0.124 0.38-0.016 0.068 0.126 0.016 0.346-0.221 0.945-0.797 2.010-2.088 4.033-3.81 5.97-0.65 0.732-1.002 1.295-1.045 1.677-0.045 0.398 0.084 0.477 0.389 0.24 0.265-0.206 3.87-3.813 4.49-4.491 0.566-0.621 0.859-0.982 1.169-1.443 0.182-0.27 0.286-0.381 0.509-0.538 0.604-0.425 1.704-0.968 2.193-1.083 0.184-0.043 0.214-0.041 0.281 0.020 0.088 0.079 0.102 0.33 0.032 0.58-0.085 0.309-0.717 1.167-1.533 2.081-0.576 0.645-1.067 1.105-1.589 1.49-0.67 0.493-0.82 0.626-0.938 0.827-0.097 0.165-0.108 0.225-0.13 0.723-0.022 0.476-0.040 0.586-0.149 0.892-0.266 0.747-0.6 1.326-1.717 2.984-1.75 2.596-4.030 6.017-4.39 6.586-0.392 0.62-0.655 1.097-0.623 1.128 0.099 0.099 2.558-0.903 3.347-1.364 0.318-0.186 0.729-0.557 1.014-0.915 0.105-0.132 0.368-0.535 0.585-0.896 0.448-0.746 0.714-1.118 0.842-1.177 0.147-0.068 0.139 0.024-0.049 0.573-0.274 0.8-0.445 1.111-0.984 1.791-0.958 1.208-2.435 2.433-3.614 2.998-0.435 0.209-0.517 0.265-0.799 0.547-0.327 0.328-0.536 0.656-0.656 1.026-0.091 0.282-0.070 0.736 0.042 0.885 0.299 0.4 0.686 0.375 1.956-0.129 1.88-0.745 3.382-1.639 4.419-2.63 0.866-0.828 1.452-1.714 2.003-3.027 0.356-0.849 0.763-1.683 0.783-1.602 0.018 0.074-0.116 0.658-0.319 1.389-0.157 0.567-0.22 0.973-0.181 1.164 0.024 0.114 0.046 0.138 0.144 0.147 0.153 0.015 0.441-0.176 0.579-0.386 0.129-0.195 0.176-0.149 0.132 0.128-0.070 0.441-0.367 0.811-1.074 1.338-0.864 0.644-2.586 2.48-3.052 3.254-0.076 0.126-0.137 0.243-0.137 0.26s0.042 0.051 0.092 0.074c0.183 0.084 0.734-0.149 1.61-0.681 0.549-0.333 1.127-0.612 1.268-0.612 0.156 0 0.255 0.053 0.472 0.253 0.151 0.139 0.282 0.324 0.282 0.396 0 0.042-0.549 0.276-1.028 0.439-0.256 0.087-1.792 0.552-3.414 1.034s-3.097 0.929-3.278 0.993c-0.787 0.279-1.241 0.598-1.241 0.869 0 0.076 0.025 0.198 0.055 0.271 0.131 0.312 1.026 1.027 2.149 1.716 1.261 0.773 2.356 1.54 2.451 1.717 0.033 0.062 0.025 0.084-0.044 0.121-0.118 0.063-0.977 0.052-1.643-0.021-0.614-0.067-1.6-0.079-1.688-0.020-0.093 0.062 0.15 0.256 0.416 0.332 0.341 0.097 0.593 0.214 0.593 0.274 0 0.088-0.195 0.139-0.466 0.12-0.399-0.028-0.742-0.222-1.202-0.682-0.206-0.206-0.459-0.505-0.562-0.666-0.295-0.456-0.523-0.737-0.598-0.737-0.135 0-0.284 0.254-0.441 0.757-0.258 0.82-0.374 1.621-0.416 2.852-0.018 0.544-0.045 1.029-0.060 1.077-0.037 0.122-0.151 0.112-0.448-0.039zM18.797 0.982c-0.118-0.083-0.056-0.155 0.163-0.188 0.354-0.053 0.645 0.069 0.469 0.197-0.102 0.075-0.521 0.069-0.632-0.009z"></path>
</svg>
