<!-- Generated by IcoMoon.io -->
<svg version="1.1" xmlns="http://www.w3.org/2000/svg" width="32" height="32" viewBox="0 0 32 32">
<title>factions-order-stormcast-eternalsthunderstrike</title>
<path d="M24.519 14.958c-0.225 0.012-0.433-0.144-0.441-0.307-0.009-0.18 0.183-0.359 0.382-0.357 0.217 0.003 0.405 0.17 0.407 0.359 0.007 0.189-0.184 0.297-0.348 0.305zM23.248 11.079c-0.060 0.082-0.059 0.222-0.205 0.231-0.066 0.003-0.132 0.009-0.233 0.017 0.138-0.242 0.247-0.434 0.377-0.661 0.061 0.066 0.154 0.123 0.163 0.19 0.009 0.069-0.053 0.158-0.102 0.224zM20.177 8.126c-0.176-0.006-0.382-0.262-0.38-0.474 0.001-0.139 0.176-0.278 0.345-0.273 0.278 0.006 0.451 0.153 0.445 0.377-0.005 0.175-0.228 0.377-0.41 0.371zM15.49 6.903c-0.279-0.009-0.444-0.174-0.431-0.432 0.012-0.242 0.222-0.42 0.487-0.414 0.215 0.006 0.372 0.183 0.365 0.417-0.007 0.26-0.18 0.436-0.421 0.429zM10.544 8.609c-0.237 0-0.415-0.169-0.414-0.393 0.001-0.231 0.171-0.395 0.41-0.394 0.25 0 0.422 0.178 0.417 0.432-0.003 0.222-0.158 0.356-0.414 0.354zM8.337 11.849c-0.188 0.038-0.344-0.063-0.453-0.28-0.073-0.149-0.115-0.297-0.022-0.452 0.108-0.181 0.3-0.257 0.498-0.199 0.159 0.046 0.287 0.254 0.292 0.468 0.003 0.214-0.141 0.427-0.315 0.463zM7.171 15.322c-0.165 0.002-0.315-0.141-0.317-0.306-0.003-0.221 0.156-0.385 0.373-0.381 0.148 0.003 0.273 0.149 0.277 0.327 0.003 0.196-0.146 0.357-0.332 0.36zM25.767 16.21c1.644-0.571 3.275-1.138 4.905-1.704l-0.001-0.079c-0.073-0.028-0.145-0.066-0.221-0.085-0.314-0.076-0.629-0.145-0.943-0.221-0.533-0.127-1.063-0.262-1.597-0.388-0.67-0.159-1.338-0.323-2.012-0.465-0.294-0.061-0.453-0.229-0.547-0.496-0.098-0.276-0.209-0.547-0.31-0.82-0.11-0.291-0.057-0.451 0.204-0.628 0.132-0.088 0.266-0.173 0.394-0.268 1.405-1.038 2.808-2.077 4.211-3.118 0.042-0.031 0.070-0.081 0.103-0.122-0.009-0.017-0.019-0.036-0.027-0.053-0.22 0.035-0.439 0.067-0.658 0.105-0.702 0.125-1.404 0.253-2.106 0.378-0.6 0.108-1.2 0.213-1.799 0.322-0.695 0.126-1.39 0.257-2.085 0.378-0.049 0.008-0.131-0.032-0.16-0.075-0.284-0.414-0.555-0.834-0.84-1.246-0.076-0.11-0.079-0.197-0.024-0.316 0.48-1.055 0.956-2.112 1.427-3.172 0.085-0.19 0.147-0.389 0.388-0.437 0.005-0.001 0.005-0.022 0.019-0.088-0.115 0.027-0.213 0.038-0.302 0.073-0.070 0.027-0.123 0.093-0.192 0.123-0.346 0.151-0.717 0.256-1.038 0.447-0.956 0.566-1.894 1.164-2.834 1.757-0.122 0.075-0.217 0.080-0.336 0.015-0.251-0.138-0.506-0.269-0.76-0.401-0.114-0.058-0.225-0.134-0.346-0.163-0.16-0.037-0.278-0.105-0.354-0.254-0.022-0.044-0.082-0.107-0.115-0.101-0.156 0.027-0.18-0.082-0.22-0.184-0.512-1.279-1.024-2.558-1.537-3.837-0.14-0.348-0.281-0.694-0.441-1.087-0.323 0.915-0.629 1.78-0.935 2.646-0.308 0.873-0.616 1.747-0.916 2.598-0.075 0.006-0.148-0.012-0.183 0.017-0.091 0.078-0.163 0.181-0.251 0.264-0.086 0.082-0.17 0.185-0.275 0.222-0.275 0.095-0.561 0.158-0.841 0.236-0.165 0.045-0.335 0.079-0.488 0.151-0.107 0.050-0.176 0.035-0.265-0.022-0.727-0.461-1.457-0.919-2.187-1.376-0.48-0.301-0.945-0.633-1.504-0.783-0.071-0.019-0.174-0.032-0.221 0.003-0.094 0.072-0.122 0.17-0.060 0.305 0.47 1.040 0.931 2.084 1.391 3.128 0.059 0.132 0.111 0.27 0.138 0.411 0.012 0.063-0.031 0.149-0.074 0.206-0.185 0.243-0.385 0.475-0.569 0.719-0.123 0.165-0.273 0.314-0.477 0.295-0.327-0.029-0.649-0.111-0.972-0.169-0.913-0.162-1.825-0.322-2.736-0.487-0.725-0.13-1.45-0.265-2.176-0.397-0.204-0.037-0.409-0.067-0.614-0.1-0.022 0.032-0.044 0.066-0.066 0.1 0.061 0.034 0.127 0.061 0.184 0.103 1.065 0.789 2.141 1.564 3.186 2.378 0.521 0.405 1.127 0.714 1.536 1.263 0.086 0.114 0.11 0.206 0.067 0.33-0.028 0.080-0.053 0.16-0.078 0.241-0.101 0.344-0.198 0.689-0.303 1.032-0.045 0.147-0.203 0.242-0.314 0.222-0.085-0.015-0.178-0.029-0.258-0.007-0.468 0.132-0.934 0.273-1.398 0.416-0.366 0.112-0.731 0.229-1.096 0.345-0.388 0.124-0.776 0.244-1.162 0.374-0.058 0.020-0.102 0.081-0.175 0.141 0.738 0.276 1.433 0.535 2.128 0.797 0.737 0.276 1.47 0.557 2.209 0.827 0.145 0.053 0.185 0.131 0.162 0.271-0.021 0.126-0.020 0.256-0.048 0.38-0.039 0.169 0.039 0.198 0.183 0.197 0.709-0.003 1.417-0.006 2.126 0.001 0.163 0.002 0.207-0.057 0.211-0.212 0.013-0.766 0.086-1.527 0.276-2.269 0.37-1.442 0.894-2.812 1.891-3.955 0.153-0.174 0.268-0.389 0.443-0.533 0.361-0.299 0.745-0.573 1.133-0.839 2.273-1.552 5.103-1.527 7.388 0.169 0.907 0.673 1.623 1.514 2.182 2.489 0.877 1.529 1.284 3.186 1.319 4.94 0.003 0.14 0.031 0.211 0.193 0.21 0.855-0.007 1.71-0.003 2.566-0.006 0.198 0 0.21-0.023 0.149-0.217-0.087-0.277-0.171-0.554-0.263-0.85z"></path>
<path d="M19.319 24.529c-0.022-0.003-0.046-0.016-0.064-0.030-0.33-0.265-0.66-0.531-0.988-0.798-0.255-0.207-0.327-0.519-0.462-0.796-0.096-0.2-0.225-0.385-0.337-0.577-0.059-0.102-0.138-0.202-0.166-0.313-0.116-0.461-0.33-0.668-0.797-0.746-0.064-0.010-0.126-0.032-0.188-0.047 0.116-0.692 0.461-0.768 1.234-0.686-0.036-0.119-0.079-0.229-0.101-0.344-0.020-0.101-0.034-0.219 0.111-0.248 0.131-0.026 0.151 0.065 0.188 0.167 0.085 0.228 0.141 0.468 0.387 0.614 0.131 0.078 0.209 0.246 0.303 0.378 0.091 0.125 0.189 0.25 0.257 0.387 0.046 0.093 0.061 0.206 0.068 0.313 0.031 0.475 0.071 0.946 0.377 1.345 0.027 0.036 0.027 0.091 0.037 0.138 0.013 0.060 0.006 0.132 0.039 0.177 0.154 0.207 0.308 0.416 0.482 0.606 0.132 0.145 0.293 0.263 0.437 0.388-0.012 0.059-0.023 0.126-0.036 0.193-0.241-0.037-0.511-0.078-0.782-0.12zM17.178 23.067c-0.071 0.035-0.181-0.008-0.271-0.027-0.022-0.003-0.036-0.044-0.072-0.090-0.030 0.045-0.049 0.094-0.067 0.095-0.419 0.017-0.826 0.242-1.244 0.114-0.191-0.058-0.373-0.122-0.573-0.12-0.072 0.001-0.144-0.007-0.214 0.003-0.161 0.021-0.213-0.035-0.173-0.196 0.102-0.401 0.358-0.558 0.767-0.416 0.43 0.151 0.848 0.122 1.273 0.014 0.349-0.088 0.623 0.056 0.708 0.398 0.016 0.064-0.065 0.192-0.133 0.225zM14.261 22.34c-0.237 0.235-0.319 0.544-0.433 0.835-0.167 0.427-0.495 0.697-0.854 0.944-0.074 0.051-0.182 0.073-0.232 0.14-0.22 0.294-0.541 0.309-0.86 0.345-0.082 0.009-0.163 0.037-0.222 0.052-0.010-0.065-0.022-0.131-0.034-0.196 0.124-0.111 0.269-0.229 0.397-0.364 0.081-0.083 0.138-0.19 0.204-0.287 0.016-0.026 0.020-0.068 0.041-0.079 0.215-0.108 0.307-0.285 0.31-0.519 0.001-0.032 0.025-0.068 0.047-0.096 0.273-0.35 0.312-0.768 0.349-1.186 0.019-0.209 0.007-0.415 0.198-0.573 0.086-0.072 0.102-0.219 0.173-0.315 0.114-0.159 0.257-0.282 0.463-0.312 0.069-0.010 0.137-0.043 0.205-0.066-0.105-0.251 0.091-0.761 0.36-0.854 0.012 0.131 0.027 0.25 0.031 0.371 0.006 0.122 0.001 0.243 0.001 0.397 0.205 0.009 0.409 0.026 0.612 0.028 0.305 0.003 0.351 0.041 0.381 0.346 0.009 0.085 0.015 0.169 0.023 0.27-0.064 0.015-0.132 0.045-0.203 0.047-0.451 0.012-0.68 0.401-0.767 0.714-0.036 0.127-0.101 0.265-0.192 0.357zM11.644 16.475c0.016-0.017 0.038-0.032 0.050-0.053 0.195-0.374 0.548-0.351 0.89-0.352 0.013 0 0.025-0.001 0.036 0.003 0.44 0.202 0.882 0.4 1.317 0.61 0.278 0.134 0.547 0.288 0.843 0.446-0.214 0.235-0.491 0.331-0.77 0.359-0.593 0.058-1.19 0.076-1.786 0.107-0.089 0.005-0.183-0.007-0.271-0.029-0.542-0.134-0.696-0.686-0.308-1.091zM13.661 12.448c0.286-1.11 1.005-1.727 2.181-1.741 1.303-0.016 2.167 0.763 2.289 2.055 0.060 0.635-0.265 1.198-0.756 1.619-0.279 0.24-0.609 0.396-0.983 0.46-0.18 0.030-0.35 0.116-0.524 0.175-0.096-0.037-0.169-0.073-0.248-0.096-0.131-0.038-0.266-0.060-0.396-0.102-0.382-0.12-0.746-0.284-1.019-0.587-0.321-0.357-0.52-0.784-0.586-1.26-0.023-0.169-0.001-0.354 0.043-0.522zM18.732 16.356c0.070-0.023 0.152-0.036 0.202-0.082 0.212-0.196 0.462-0.166 0.703-0.109 0.118 0.028 0.224 0.124 0.328 0.2 0.052 0.038 0.078 0.111 0.129 0.153 0.278 0.224 0.254 0.52 0.159 0.803-0.080 0.233-0.32 0.285-0.54 0.315-0.155 0.022-0.317 0.016-0.475 0.009-0.492-0.026-0.986-0.037-1.475-0.095-0.237-0.028-0.465-0.148-0.731-0.24 0.518-0.507 1.096-0.755 1.701-0.955zM25.034 20.545c-0.076-0.103-0.162-0.2-0.227-0.309-0.155-0.258-0.378-0.386-0.677-0.403-0.094-0.005-0.197-0.026-0.276-0.074-0.197-0.122-0.401-0.131-0.594-0.031-0.272 0.14-0.566 0.272-0.788 0.477-0.39 0.361-0.688 0.785-0.667 1.373 0.017 0.505-0.057 1.014-0.024 1.516 0.027 0.409 0.151 0.811 0.233 1.215 0.028 0.142 0.078 0.284 0.083 0.427 0.012 0.285-0.008 0.571-0.001 0.856 0.009 0.378-0.124 0.685-0.377 0.968-0.14 0.158-0.308 0.207-0.484 0.285-0.256 0.114-0.512 0.065-0.769 0.067-0.026 0-0.057-0.023-0.076-0.044-0.098-0.108-0.204-0.211-0.286-0.33-0.051-0.074-0.089-0.176-0.087-0.264 0.006-0.255 0.030-0.509 0.058-0.762 0.005-0.046 0.050-0.117 0.088-0.126 0.177-0.041 0.359-0.060 0.539-0.093 0.063-0.010 0.131-0.023 0.183-0.057 0.152-0.101 0.294-0.215 0.445-0.317 0.204-0.139 0.211-0.294 0.008-0.44-0.162-0.117-0.346-0.207-0.492-0.342-0.147-0.134-0.345-0.295-0.37-0.467-0.070-0.492-0.114-1-0.074-1.494 0.046-0.573 0.024-1.165 0.429-1.679 0.214-0.272 0.401-0.563 0.686-0.765 0.268-0.189 0.548-0.363 0.832-0.527 0.165-0.096 0.239-0.247 0.279-0.409 0.015-0.060-0.083-0.147-0.124-0.225-0.051-0.097-0.122-0.192-0.14-0.295-0.063-0.346-0.146-0.696-0.147-1.044-0.005-0.761 0.010-1.52-0.148-2.268-0.052-0.243-0.154-0.481-0.17-0.724-0.032-0.484-0.183-0.914-0.447-1.316-0.071-0.108-0.107-0.242-0.149-0.367-0.046-0.132-0.061-0.278-0.127-0.399-0.155-0.283-0.327-0.556-0.503-0.826-0.169-0.259-0.316-0.551-0.541-0.753-0.299-0.266-0.556-0.595-0.965-0.737-0.336-0.117-0.582-0.452-0.985-0.43-0.029 0.001-0.059-0.041-0.091-0.056-0.262-0.112-0.514-0.272-0.788-0.322-0.36-0.067-0.738-0.081-1.103-0.054-0.219 0.016-0.425 0.019-0.644 0.001-0.366-0.029-0.738 0.016-1.105 0.045-0.090 0.008-0.176 0.078-0.265 0.116-0.215 0.093-0.426 0.236-0.651 0.263-0.336 0.039-0.58 0.202-0.81 0.419-0.030 0.029-0.069 0.086-0.093 0.080-0.209-0.049-0.295 0.109-0.438 0.205-0.349 0.235-0.629 0.528-0.922 0.822-0.467 0.468-0.776 1.032-1.066 1.606-0.39 0.77-0.423 1.639-0.588 2.469-0.081 0.405-0.032 0.835-0.057 1.253-0.032 0.535-0.067 1.072-0.124 1.604-0.032 0.313-0.111 0.614-0.328 0.873-0.184 0.222-0.081 0.454 0.192 0.514 0.035 0.007 0.067 0.026 0.098 0.044 0.241 0.14 0.497 0.259 0.718 0.426 0.448 0.338 0.812 0.761 1.008 1.293 0.097 0.265 0.147 0.557 0.165 0.84 0.023 0.363-0.007 0.727-0.013 1.091-0.007 0.346 0.038 0.694-0.181 1.011-0.151 0.22-0.203 0.505-0.469 0.648-0.127 0.070-0.234 0.178-0.346 0.266 0.163 0.129 0.324 0.258 0.488 0.383 0.038 0.029 0.085 0.057 0.13 0.066 0.273 0.052 0.547 0.105 0.821 0.145 0.263 0.038 0.264 0.030 0.266 0.306 0.001 0.060-0.002 0.122-0.009 0.182-0.058 0.469-0.129 0.937-0.586 1.209-0.136 0.081-0.288 0.16-0.441 0.18-0.312 0.039-0.627 0.022-0.871-0.217-0.18-0.176-0.388-0.344-0.411-0.62-0.031-0.363-0.066-0.727-0.057-1.091 0.014-0.48 0.090-0.958 0.103-1.438 0.019-0.695 0.025-1.387 0.17-2.074 0.086-0.409-0.010-0.807-0.232-1.176-0.247-0.412-0.594-0.707-1.023-0.906-0.272-0.126-0.551-0.205-0.832 0.002-0.057 0.042-0.152 0.041-0.229 0.044-0.248 0.009-0.448 0.112-0.599 0.305-0.109 0.139-0.207 0.287-0.309 0.431-0.271 0.383-0.337 0.818-0.309 1.273 0.003 0.059 0.038 0.116 0.063 0.186 0.294-0.198 0.575-0.331 0.92-0.33 0.379 0 0.66 0.266 0.634 0.634-0.023 0.309-0.056 0.62-0.111 0.924-0.083 0.46-0.188 0.917-0.288 1.374-0.015 0.071-0.065 0.132-0.082 0.203-0.075 0.305-0.181 0.608-0.204 0.917-0.023 0.3 0.020 0.61 0.069 0.911 0.064 0.382 0.119 0.777 0.258 1.136 0.226 0.585 0.638 1.060 1.056 1.522 0.029 0.031 0.064 0.078 0.097 0.078 0.319 0.010 0.515 0.255 0.762 0.398 0.303 0.177 0.614 0.338 0.964 0.366 0.588 0.049 1.164-0.045 1.694-0.315 0.379-0.193 0.738-0.424 1.103-0.644 0.066-0.039 0.145-0.095 0.168-0.161 0.067-0.183 0.151-0.338 0.351-0.401 0.024-0.007 0.047-0.044 0.054-0.071 0.044-0.176 0.115-0.352 0.12-0.529 0.017-0.565 0.009-1.131 0.014-1.696 0.001-0.138-0.003-0.278 0.028-0.41 0.010-0.044 0.119-0.085 0.185-0.089 0.031-0.002 0.096 0.083 0.098 0.132 0.029 0.473 0.058 0.944 0.066 1.417 0.006 0.301-0.027 0.602-0.041 0.902-0.010 0.243-0.152 0.438-0.233 0.656-0.119 0.315-0.302 0.583-0.553 0.794-0.18 0.151-0.392 0.272-0.606 0.367-0.275 0.122-0.564 0.212-0.851 0.302-0.776 0.244-1.545 0.291-2.303-0.086-0.16-0.079-0.342-0.114-0.557-0.182 0.046 0.088 0.059 0.131 0.086 0.162 0.342 0.403 0.673 0.817 1.033 1.202 0.251 0.27 0.576 0.426 0.959 0.431 0.555 0.005 1.112 0.043 1.665 0.008 0.345-0.022 0.69-0.123 0.98-0.353 0.241-0.192 0.499-0.364 0.758-0.535 0.336-0.222 0.576-0.521 0.723-0.894 0.039-0.101 0.046-0.229 0.114-0.305 0.196-0.222 0.145-0.481 0.151-0.734 0.001-0.056 0.002-0.11 0.003-0.166 0.009-0.601 0.016-1.204 0.029-1.806 0.008-0.327 0.029-0.653 0.039-0.98 0.003-0.112 0.023-0.228 0.145-0.241 0.086-0.008 0.178 0.051 0.246 0.073-0.009 0.137-0.021 0.225-0.021 0.314 0.001 0.615 0.003 1.229 0.007 1.843 0 0.047 0.013 0.096 0.023 0.142 0.034 0.151 0.074 0.299 0.101 0.451 0.054 0.298 0.079 0.604 0.159 0.894 0.074 0.27 0.2 0.527 0.312 0.785 0.149 0.348 0.239 0.737 0.631 0.919 0.198 0.091 0.383 0.251 0.588 0.282 0.504 0.074 1.017 0.117 1.527 0.123 0.292 0.005 0.612-0.028 0.87-0.148 0.416-0.193 0.781-0.494 1.187-0.709 0.41-0.218 0.641-0.594 0.937-0.93-0.235-0.006-0.461 0.021-0.688 0.029-0.357 0.014-0.715 0.038-1.070 0.016-0.294-0.017-0.59-0.152-0.877-0.13-0.481 0.039-0.77-0.276-1.114-0.492-0.276-0.175-0.338-0.513-0.51-0.768-0.205-0.305-0.184-0.681-0.231-1.036-0.070-0.531-0.116-1.058 0.023-1.566 0.196-0.109 0.257-0.008 0.277 0.149 0.013 0.096 0.015 0.193 0.016 0.291 0.002 0.415 0.030 0.82 0.229 1.202 0.126 0.243 0.188 0.52 0.308 0.768 0.122 0.253 0.246 0.509 0.563 0.6 0.196 0.057 0.395 0.142 0.558 0.263 0.309 0.227 0.652 0.303 1.022 0.322 0.424 0.021 0.826-0.075 1.238-0.165 0.497-0.108 0.878-0.375 1.224-0.696 0.392-0.36 0.658-0.82 0.776-1.344 0.081-0.361 0.144-0.732 0.161-1.102 0.024-0.491 0.019-0.982-0.14-1.467-0.152-0.46-0.253-0.938-0.363-1.411-0.051-0.219-0.080-0.445-0.103-0.67-0.027-0.266-0.039-0.534-0.049-0.802-0.002-0.045 0.035-0.102 0.071-0.137 0.286-0.282 0.813-0.284 1.113-0.007 0.108 0.098 0.214 0.197 0.349 0.321 0.039-0.13 0.093-0.231 0.1-0.336 0.032-0.468-0.038-0.913-0.327-1.302z"></path>
</svg>
