<!-- Generated by IcoMoon.io -->
<svg version="1.1" xmlns="http://www.w3.org/2000/svg" width="32" height="32" viewBox="0 0 32 32">
<title>factions-chaos-corvus-cabal</title>
<path d="M15.622 1.129c0.143 0.041 0.26 0.109 0.336 0.248 0.035 0.064 0.117 0.107 0.183 0.151 0.475 0.307 0.964 0.596 1.425 0.926 0.262 0.187 0.483 0.433 0.71 0.666 0.064 0.066 0.099 0.177 0.113 0.271 0.031 0.208 0.048 0.418 0.056 0.628 0.029 0.651 0.075 1.303 0.069 1.954-0.005 0.547 0.104 1.058 0.315 1.556 0.039 0.090 0.046 0.194 0.070 0.292 0.011 0.049 0.019 0.099 0.039 0.144 0.191 0.443 0.386 0.882 0.573 1.326 0.040 0.094 0.063 0.202 0.065 0.303 0.005 0.169 0.108 0.261 0.27 0.208 0.075-0.025 0.143-0.073 0.217-0.103 0.177-0.073 0.295-0.009 0.305 0.174 0.003 0.045-0.038 0.122-0.075 0.134-0.495 0.161-0.863 0.508-1.219 0.858-0.396 0.389-0.755 0.816-1.134 1.223-0.138 0.148-0.137 0.301-0.043 0.467 0.033 0.056 0.080 0.113 0.085 0.173 0.005 0.063-0.013 0.163-0.055 0.188-0.117 0.068-0.171 0.164-0.201 0.285-0.074 0.287-0.199 0.543-0.411 0.756-0.099 0.099-0.183 0.209-0.352 0.1 0 0.115 0 0.204 0 0.306 0.124 0.013 0.246 0.029 0.369 0.036 0.213 0.013 0.34 0.155 0.467 0.3 0.018 0.020 0.023 0.075 0.008 0.094-0.248 0.305-0.261 0.687-0.347 1.045-0.132 0.543-0.191 1.096-0.142 1.655 0.005 0.058 0.063 0.138 0.114 0.158 0.188 0.071 0.237 0.163 0.148 0.356-0.123 0.268-0.28 0.524-0.375 0.803-0.169 0.49-0.319 0.988-0.443 1.492-0.051 0.208-0.008 0.439-0.021 0.66-0.041 0.64-0.087 1.279-0.135 1.919-0.040 0.524-0.069 1.051-0.139 1.573-0.104 0.769-0.247 1.532-0.364 2.299-0.088 0.579-0.157 1.161-0.241 1.742-0.098 0.68-0.197 1.358-0.306 2.035-0.019 0.118-0.095 0.227-0.145 0.341-0.018-0.005-0.036-0.010-0.054-0.014-0.041-0.35-0.090-0.7-0.122-1.051-0.122-1.343-0.226-2.688-0.36-4.029-0.1-1.007-0.242-2.010-0.352-3.016-0.031-0.288-0.010-0.582-0.036-0.87-0.102-1.143-0.248-2.282-0.305-3.427-0.033-0.668-0.177-1.292-0.391-1.915-0.154-0.449-0.275-0.911-0.41-1.366-0.006-0.023-0.006-0.046 0.019-0.103 0.064 0.043 0.133 0.079 0.189 0.13 0.071 0.064 0.115 0.063 0.186-0.010 0.102-0.108 0.223-0.196 0.345-0.298-0.034-0.031-0.073-0.068-0.112-0.104-0.129-0.118-0.176-0.262-0.099-0.421 0.088-0.182 0.048-0.339-0.050-0.495-0.053-0.085-0.102-0.172-0.155-0.257-0.090-0.144-0.12-0.147-0.261-0.055-0.083 0.054-0.173 0.099-0.265 0.14-0.129 0.059-0.198-0.002-0.224-0.129-0.035-0.173 0.004-0.335 0.108-0.469 0.082-0.105 0.183-0.198 0.287-0.282s0.144-0.171 0.089-0.298c-0.087-0.197-0.169-0.396-0.247-0.597-0.041-0.107-0.117-0.157-0.226-0.171-0.438-0.054-0.716-0.305-0.868-0.71-0.011-0.030-0.034-0.074-0.058-0.078-0.144-0.021-0.132-0.128-0.155-0.233-0.026-0.115-0.075-0.24-0.15-0.329-0.199-0.231-0.421-0.443-0.63-0.667-0.053-0.056-0.087-0.132-0.122-0.203-0.013-0.025-0.001-0.063 0-0.095 0.031 0.008 0.068 0.006 0.093 0.023 0.107 0.074 0.211 0.153 0.315 0.232 0.207 0.158 0.411 0.32 0.622 0.473 0.054 0.039 0.125 0.053 0.208 0.087 0.014-0.103 0.025-0.184 0.040-0.291 0.059 0.024 0.118 0.036 0.159 0.068 0.208 0.157 0.423 0.307 0.615 0.483 0.314 0.288 0.611 0.594 0.912 0.895 0.063 0.064 0.115 0.138 0.166 0.213 0.155 0.233 0.28 0.27 0.534 0.153 0.105-0.049 0.154-0.13 0.124-0.243-0.104-0.388-0.218-0.773-0.455-1.105-0.039-0.055-0.112-0.097-0.177-0.122-0.174-0.064-0.247-0.145-0.245-0.332 0.004-0.319-0.142-0.546-0.41-0.701-0.122-0.070-0.247-0.132-0.372-0.196-0.182-0.093-0.229-0.083-0.36 0.073-0.068 0.080-0.128 0.169-0.207 0.235-0.087 0.071-0.188 0.152-0.312 0.075-0.135-0.084-0.278-0.193-0.25-0.364 0.071-0.416 0.038-0.852 0.228-1.249 0.066-0.139 0.148-0.248 0.293-0.302 0.213-0.079 0.292-0.237 0.291-0.458-0.004-0.592 0.006-1.184-0.002-1.776-0.004-0.198-0.035-0.399-0.080-0.592-0.049-0.211-0.018-0.399 0.046-0.601 0.069-0.221 0.083-0.459 0.125-0.69 0.010-0.055 0.030-0.12 0.068-0.158 0.334-0.326 0.671-0.647 1.010-0.969 0.016-0.016 0.040-0.025 0.088-0.054 0.006 0.137 0.011 0.252 0.018 0.382 0.040-0.013 0.078-0.019 0.11-0.035 0.518-0.262 0.968-0.588 1.134-1.189 0.028-0.099 0.089-0.188 0.134-0.281 0.060-0.002 0.12-0.002 0.181-0.002zM16.698 11.29c0.016 0.233 0.029 0.394 0.040 0.554 0.001 0.015 0 0.031 0.004 0.045 0.030 0.095 0.050 0.194 0.093 0.282 0.046 0.095 0.138 0.089 0.166-0.002 0.028-0.097 0.030-0.217-0.003-0.311-0.050-0.143-0.049-0.419 0.048-0.527 0.029-0.031 0.097-0.064 0.127-0.050 0.142 0.064 0.203-0.020 0.262-0.122 0.159-0.276 0.364-0.51 0.61-0.717 0.257-0.214 0.495-0.454 0.736-0.687 0.223-0.216 0.183-0.681-0.070-0.816-0.135-0.073-0.275-0.144-0.42-0.194-0.071-0.025-0.168-0.020-0.241 0.008-0.115 0.044-0.218 0.119-0.329 0.177-0.154 0.079-0.257 0.197-0.327 0.356-0.109 0.247-0.217 0.498-0.359 0.726-0.258 0.418-0.297 0.883-0.336 1.279zM15.9 17.145c0.011 0.001 0.024 0.004 0.035 0.005 0.025-0.083 0.060-0.164 0.075-0.248 0.075-0.419 0.144-0.839 0.218-1.258 0.020-0.113 0.006-0.255 0.188-0.255 0.021 0 0.051-0.033 0.061-0.058 0.045-0.105 0.097-0.211 0.122-0.322 0.030-0.132-0.035-0.238-0.155-0.296-0.238-0.115-0.537 0.061-0.541 0.321-0.010 0.657-0.015 1.313-0.020 1.97 0 0.048 0.010 0.094 0.016 0.14zM15.137 16.548c0.009-0.001 0.019-0.001 0.028-0.003 0.013-0.066 0.033-0.132 0.038-0.198 0.009-0.105 0.023-0.187 0.155-0.212 0.105-0.021 0.122-0.123 0.071-0.206-0.147-0.241-0.177-0.503-0.183-0.778-0.004-0.197-0.143-0.33-0.33-0.346-0.123-0.010-0.209 0.049-0.272 0.15-0.056 0.090-0.073 0.187 0.005 0.262 0.202 0.198 0.251 0.459 0.319 0.714 0.055 0.206 0.113 0.411 0.169 0.616zM16.064 14.105c-0.019 0.089-0.030 0.138-0.040 0.187 0.054 0.010 0.109 0.019 0.206 0.036-0.066-0.088-0.1-0.134-0.166-0.223zM14.386 14.579c-0.082 0.089-0.132 0.144-0.182 0.199 0.014 0.016 0.026 0.034 0.040 0.050 0.056-0.040 0.115-0.078 0.166-0.124 0.010-0.010-0.010-0.054-0.024-0.125z"></path>
<path d="M31.999 10.858c-0.058-0.023-0.089-0.031-0.118-0.045-0.46-0.226-0.916-0.45-1.41-0.613-0.61-0.201-1.183-0.513-1.772-0.778-0.064-0.029-0.122-0.073-0.188-0.094-1.15-0.377-2.21-0.966-3.321-1.433-0.552-0.232-1.132-0.399-1.686-0.628-0.508-0.211-1.001-0.458-1.494-0.704-0.241-0.12-0.485-0.198-0.751-0.151-0.222 0.040-0.376-0.016-0.479-0.227-0.034-0.070-0.114-0.159-0.179-0.166-0.115-0.010-0.174 0.097-0.208 0.204-0.009 0.026-0.033 0.046-0.058 0.083-0.11-0.198-0.104-0.38-0.025-0.571 0.041-0.099 0.075-0.206 0.093-0.311 0.1-0.622 0.296-1.213 0.562-1.816 0.056 0.237 0.104 0.443 0.157 0.648 0.026 0.103 0.074 0.188 0.212 0.166 0.033-0.147-0.078-0.329 0.1-0.44 0.199-0.125 0.267 0.123 0.418 0.142 0.092-0.163 0.089-0.159 0.242-0.045 0.241 0.181 0.48 0.362 0.729 0.532 0.372 0.253 0.675 0.563 0.878 0.969 0.044 0.087 0.133 0.163 0.219 0.214 0.885 0.52 1.783 1.020 2.66 1.554 0.646 0.393 1.265 0.83 1.899 1.243 0.214 0.139 0.436 0.262 0.701 0.291 0.092 0.010 0.178 0.061 0.265 0.1 0.256 0.114 0.517 0.218 0.762 0.352 0.144 0.079 0.265 0.203 0.391 0.31 0.049 0.041 0.085 0.099 0.135 0.139 0.228 0.181 0.456 0.36 0.69 0.534 0.054 0.040 0.124 0.059 0.187 0.088 0.035 0.016 0.083 0.025 0.104 0.053 0.092 0.12 0.176 0.246 0.285 0.399z"></path>
<path d="M9.159 26.936c-0.046-0.058-0.055-0.065-0.058-0.074-0.004-0.014-0.005-0.030-0.004-0.044 0.473-3.263 0.983-6.524 1.028-9.832 0.001-0.068 0.034-0.135 0.054-0.213 0.033 0.015 0.060 0.023 0.083 0.038 0.109 0.075 0.187 0.038 0.217-0.076 0.083-0.314 0.183-0.626 0.226-0.944 0.044-0.33 0.069-0.667-0.051-0.997-0.034-0.093-0.015-0.206-0.023-0.341 0.271 0.083 0.325-0.105 0.398-0.273 0.227-0.529 0.45-1.060 0.684-1.586 0.089-0.198 0.203-0.385 0.306-0.577 0.015 0.006 0.029 0.013 0.044 0.019-0.074 0.405-0.147 0.811-0.221 1.216-0.014 0.074-0.040 0.148-0.036 0.222 0.005 0.093 0.034 0.186 0.054 0.29-0.015 0.002-0.060 0.009-0.104 0.014-0.028 0.188 0.009 0.247 0.177 0.288 0.208 0.051 0.214 0.060 0.186 0.276-0.021 0.157 0.058 0.3 0.211 0.381 0.15 0.080 0.147 0.11 0.033 0.237-0.127 0.14-0.253 0.286-0.345 0.449-0.133 0.238-0.143 0.497-0.030 0.754 0.092 0.209 0.112 0.424 0.051 0.646-0.482 1.783-0.963 3.567-1.444 5.35-0.201 0.744-0.395 1.49-0.604 2.232-0.214 0.756-0.441 1.507-0.67 2.26-0.030 0.094-0.099 0.178-0.161 0.287zM11.636 14.158c-0.063 0.172-0.030 0.213 0.158 0.193-0.055-0.068-0.105-0.128-0.158-0.193z"></path>
<path d="M0 11.405c0.139-0.065 0.271-0.115 0.39-0.187 0.13-0.080 0.25-0.181 0.372-0.273 0.075-0.058 0.143-0.127 0.224-0.174 0.446-0.267 0.897-0.53 1.346-0.794 0.37-0.217 0.735-0.444 1.114-0.645 0.206-0.108 0.436-0.166 0.653-0.255 0.069-0.029 0.13-0.079 0.191-0.125 0.099-0.075 0.183-0.174 0.291-0.229 1.214-0.618 2.305-1.41 3.306-2.33 0.033-0.030 0.065-0.061 0.098-0.093 0.147-0.142 0.236-0.213 0.403-0.003 0.034 0.043 0.157 0.061 0.209 0.034 0.583-0.301 1.16-0.613 1.737-0.924 0.034-0.019 0.068-0.046 0.089-0.079 0.045-0.066 0.092-0.069 0.164-0.043 0.063 0.023 0.135 0.016 0.219 0.024 0.098 0.271 0.127 0.563-0.036 0.857-0.134 0.242-0.112 0.505-0.049 0.763 0.016 0.069 0.097 0.122 0.159 0.196-0.018 0.117-0.11 0.188-0.222 0.238-0.142 0.063-0.29 0.113-0.429 0.179-0.216 0.103-0.426 0.213-0.64 0.321-0.049 0.025-0.098 0.050-0.147 0.075-0.167 0.088-0.332 0.176-0.499 0.263-0.049 0.025-0.098 0.051-0.15 0.068-0.339 0.105-0.681 0.202-1.018 0.312-0.844 0.276-1.698 0.52-2.53 0.838-0.434 0.166-0.885 0.282-1.328 0.425-0.147 0.048-0.292 0.104-0.434 0.168-0.581 0.26-1.17 0.502-1.734 0.794-0.487 0.252-0.987 0.46-1.5 0.646-0.134 0.044-0.137 0.049-0.25-0.046z"></path>
<path d="M21.058 17.269c0.048-0.011 0.090-0.023 0.107-0.026 0.088 0.1 0.168 0.188 0.243 0.28 0.014 0.018 0.016 0.048 0.016 0.073 0.031 0.715 0.291 1.378 0.473 2.059 0.45 1.683 0.983 3.343 1.323 5.054 0.083 0.415 0.157 0.83 0.236 1.247-0.014 0.004-0.026 0.008-0.040 0.011-0.020-0.044-0.043-0.087-0.060-0.132-0.632-1.575-1.274-3.145-1.89-4.727-0.46-1.183-0.997-2.329-1.546-3.469-0.065-0.134-0.109-0.247 0.023-0.379 0.038-0.038 0.006-0.172-0.028-0.246-0.228-0.49-0.474-0.972-0.699-1.464-0.137-0.3-0.247-0.612-0.366-0.921-0.054-0.139-0.034-0.25 0.124-0.315 0.134-0.055 0.168-0.187 0.166-0.314-0.003-0.24-0.023-0.478-0.038-0.717-0.003-0.039-0.013-0.076-0.019-0.117 0.016-0.004 0.026-0.009 0.034-0.006 0.347 0.14 0.396 0.12 0.537-0.227 0.068-0.167 0.132-0.336 0.199-0.503 0.019-0.048 0.046-0.092 0.087-0.171 0.068 0.926 0.362 1.762 0.532 2.624 0.143 0.731 0.332 1.454 0.503 2.178 0.010 0.044 0.023 0.088 0.039 0.129 0.009 0.026 0.028 0.049 0.045 0.076z"></path>
<path d="M7.711 12.118c0.029 0.094 0.045 0.145 0.060 0.196 0.261 0.051 0.303 0.020 0.301-0.232-0.002-0.162 0.038-0.305 0.147-0.429 0.303-0.346 0.604-0.695 0.904-1.045 0.177-0.206 0.345-0.418 0.527-0.618 0.113-0.125 0.283-0.216 0.352-0.359 0.065-0.137 0.033-0.32 0.043-0.483 0.198 0.029 0.37 0.217 0.398 0.434 0.015 0.119 0.026 0.24 0.031 0.36 0.009 0.253 0.092 0.477 0.235 0.686 0.093 0.135 0.172 0.282 0.238 0.433 0.064 0.145 0.002 0.222-0.155 0.246-0.053 0.008-0.113 0.035-0.15 0.073-0.080 0.080-0.143 0.179-0.224 0.257-0.806 0.779-1.707 1.442-2.596 2.121-0.39 0.297-0.76 0.625-1.109 0.969-0.729 0.721-1.5 1.385-2.357 1.954-0.334 0.222-0.603 0.539-0.917 0.795-0.227 0.186-0.477 0.344-0.717 0.513-0.021 0.015-0.051 0.019-0.123 0.045 0.069-0.1 0.105-0.169 0.155-0.226 0.457-0.519 0.907-1.045 1.377-1.551 0.423-0.455 0.874-0.883 1.303-1.332 0.372-0.391 0.74-0.788 1.089-1.2 0.070-0.083 0.046-0.246 0.065-0.371 0.011-0.071 0.021-0.143 0.033-0.214 0.068 0.025 0.135 0.049 0.202 0.078 0.036 0.016 0.069 0.041 0.103 0.063 0.157 0.1 0.198 0.084 0.214-0.098 0.008-0.089 0.001-0.181-0.010-0.268-0.025-0.197 0.028-0.35 0.199-0.467 0.129-0.095 0.243-0.211 0.383-0.329z"></path>
<path d="M26.788 18.363c-0.742-1.106-1.748-1.919-2.575-2.892-0.596-0.702-1.12-1.464-1.667-2.206-0.282-0.383-0.544-0.781-0.815-1.173-0.025-0.036-0.053-0.089-0.089-0.098-0.188-0.046-0.209-0.198-0.261-0.35-0.053-0.153-0.147-0.296-0.243-0.429-0.035-0.049-0.127-0.069-0.196-0.079-0.31-0.046-0.413-0.298-0.219-0.557 0.065-0.089 0.138-0.172 0.204-0.261 0.075-0.1 0.145-0.203 0.221-0.305 0.071-0.097 0.085-0.176-0.020-0.272-0.129-0.118-0.079-0.489 0.064-0.592 0.084-0.060 0.325-0.005 0.38 0.087 0.064 0.108 0.122 0.219 0.192 0.324 0.092 0.135 0.194 0.263 0.288 0.398 0.065 0.094 0.14 0.187 0.182 0.292 0.102 0.257 0.283 0.457 0.445 0.672 0.078 0.103 0.138 0.232 0.163 0.359 0.049 0.245 0.112 0.477 0.291 0.663 0.061 0.064 0.109 0.143 0.159 0.218 0.414 0.627 0.818 1.263 1.243 1.882 0.441 0.643 0.796 1.332 1.112 2.043 0.183 0.413 0.386 0.813 0.658 1.176 0.231 0.315 0.372 0.677 0.482 1.099z"></path>
<path d="M20.711 8.739c0.151 0.063 0.176 0.167 0.149 0.282-0.038 0.168-0.089 0.332-0.14 0.518-0.119-0.095-0.186-0.196-0.158-0.32 0.035-0.163 0.097-0.319 0.149-0.48z"></path>
</svg>
