<!-- Generated by IcoMoon.io -->
<svg version="1.1" xmlns="http://www.w3.org/2000/svg" width="32" height="32" viewBox="0 0 32 32">
<title>factions-destruction-fimirach</title>
<path d="M15.136 31.853c-0.782-0.238-1.786-1.020-2.075-1.616-0.425-0.884-0.374-0.884 0.459-0.034 0.748 0.782 1.565 1.139 2.568 1.139 0.782 0 2.432-0.884 3.537-1.905 0.901-0.833 0.986-0.986 1.156-1.939s0.221-1.037 0.714-1.19c0.51-0.153 0.544-0.204 0.544-1.003 0-0.969 0.374-1.769 1.003-2.194 0.425-0.272 0.442-0.272 0.442 0.085 0 0.221-0.119 0.527-0.272 0.68-0.272 0.306-0.34 0.561-0.391 1.48 0 0.221-0.34 0.731-0.748 1.156-0.527 0.527-0.85 1.071-1.105 1.888-0.323 0.952-0.561 1.293-1.446 2.143-0.578 0.544-1.31 1.105-1.633 1.241-0.612 0.255-2.024 0.289-2.755 0.068z"></path>
<path d="M17.959 28.961c-0.068-0.102 0.119-0.595 0.408-1.105s0.527-1.122 0.527-1.361c0-0.527 0.272-0.561 0.408-0.034 0.221 0.833 0.102 2.092-0.204 2.381-0.357 0.323-0.969 0.374-1.139 0.119z"></path>
<path d="M13.334 28.825c-0.578-0.374-0.765-2.041-0.306-2.908 0.221-0.459 1.173-1.020 1.378-0.816 0.051 0.051-0.051 0.374-0.238 0.748-0.323 0.646-0.391 1.599-0.136 2.381 0.085 0.272 0.034 0.425-0.204 0.544-0.17 0.085-0.391 0.119-0.493 0.051z"></path>
<path d="M11.293 28.23c-0.306-0.306-0.731-0.697-0.952-0.901-0.272-0.221-0.493-0.68-0.612-1.276-0.119-0.493-0.357-1.071-0.544-1.276s-0.51-1.088-0.765-2.126c-0.425-1.735-0.663-2.194-1.667-3.401-0.289-0.34-0.629-1.003-0.748-1.446-0.136-0.459-0.289-1.020-0.357-1.259-0.187-0.578 0.085-1.48 0.697-2.33 0.425-0.578 0.493-0.799 0.391-1.19-0.085-0.255-0.119-0.544-0.085-0.646 0.017-0.085 0.034-0.765 0.017-1.497-0.034-0.799 0.034-1.429 0.153-1.565 0.153-0.17 0.136-0.323-0.017-0.612-0.17-0.323-0.136-0.51 0.153-1.071 0.187-0.391 0.425-1.071 0.527-1.531 0.374-1.599 2.5-4.031 4.303-4.915 2.5-1.224 5.306-1.514 7.857-0.816 1.684 0.459 1.905 0.612 3.844 2.551 1.582 1.599 1.633 1.667 1.99 2.993 0.493 1.735 0.561 4.388 0.153 5.204-0.238 0.476-0.238 0.578-0.034 0.816 0.17 0.187 0.204 0.357 0.102 0.527-0.238 0.357-0.204 0.867 0.051 1.173 0.289 0.34 0.663 1.871 0.663 2.653 0 0.714-0.34 2.194-0.629 2.755-0.119 0.221-0.595 0.884-1.037 1.463l-0.833 1.054-0.102-0.85c-0.068-0.578-0.034-1.003 0.136-1.31 0.289-0.595 0.561-0.612 0.561-0.051 0 1.037 0.748 0.068 0.918-1.19 0.119-0.884-0.119-2.585-0.408-2.874-0.102-0.102-0.238 0.034-0.374 0.34-0.204 0.493-1.531 2.092-1.905 2.313-0.102 0.068-0.527-0.119-0.935-0.391-0.51-0.323-0.969-0.493-1.412-0.493-0.357 0-0.646 0.034-0.646 0.068 0 0.017 0.34 0.578 0.765 1.224 0.561 0.85 0.765 1.326 0.765 1.786 0 0.799-0.153 0.901-1.037 0.663-1.48-0.408-1.99 0.204-1.361 1.616 0.204 0.442 0.357 1.020 0.357 1.293 0 0.476-0.034 0.493-0.85 0.493-0.459 0-0.85 0.068-0.85 0.136 0 0.085 0.102 0.493 0.238 0.935 0.238 0.799 0.136 1.973-0.238 2.67-0.476 0.901-1.633 1.105-2.313 0.408-0.391-0.391-0.425-0.527-0.357-1.429 0.051-0.663 0.221-1.259 0.527-1.769 0.782-1.344 0.51-1.65-1.020-1.122-0.544 0.187-1.037 0.34-1.122 0.34-0.51 0 0.374-1.684 1.378-2.619 0.646-0.612 0.663-0.986 0.068-1.463-0.391-0.306-0.425-0.391-0.204-0.578 0.136-0.119 0.731-0.306 1.344-0.425 0.952-0.17 1.224-0.17 1.871 0.068 0.408 0.153 0.935 0.374 1.156 0.527 0.34 0.221 0.391 0.221 0.476-0.017 0.238-0.595-0.85-1.259-2.177-1.326-0.935-0.051-2.058 0.221-2.517 0.629-0.136 0.136-0.408 0.272-0.595 0.306s-0.34 0.187-0.34 0.374c0 0.391-1.446 0.986-1.854 0.748-0.561-0.323-0.323-0.986 0.714-1.939 0.527-0.51 1.122-0.969 1.31-1.020 0.187-0.068 0.544-0.34 0.782-0.595 0.493-0.544 1.173-0.612 2.704-0.323 2.296 0.425 2.143 0.425 1.905 0.119-0.357-0.425-0.17-0.68 0.663-0.884 0.867-0.221 1.054-0.612 0.391-0.901-0.408-0.204-0.425-0.238-0.204-0.595 0.136-0.204 0.646-0.595 1.122-0.85 0.935-0.51 1.173-0.884 0.459-0.697-0.833 0.204-0.459-0.493 1.037-1.939 0.799-0.782 1.429-1.446 1.395-1.48-0.153-0.153-2.619 1.361-3.367 2.041-1.48 1.378-4.813 1.514-6.412 0.272-0.255-0.204-0.85-0.629-1.326-0.969-2.109-1.463-2.279-1.514-2.228-0.816 0 0.289 0.221 0.612 0.578 0.884 0.612 0.459 0.714 0.799 0.204 0.629-0.476-0.153-0.442-0.068 0.34 0.748 0.867 0.918 1.326 1.752 1.003 1.871-0.136 0.034 0.085 0.34 0.629 0.816 0.816 0.714 0.816 0.748 0.493 1.003-0.187 0.136-0.493 0.289-0.68 0.323s-1.020 0.221-1.871 0.425c-0.833 0.204-1.684 0.408-1.871 0.459-0.561 0.136-1.752-1.19-1.888-2.109-0.119-0.799-0.408-1.003-0.408-0.289 0 0.527-0.34 1.786-0.544 2.007-0.204 0.255-0.17 1.361 0.085 1.667 0.272 0.34 0.969 0.561 0.969 0.306 0-0.102-0.085-0.357-0.187-0.544-0.136-0.255-0.136-0.391 0-0.527s0.306-0.068 0.629 0.255l0.442 0.442-0.272 0.952c-0.442 1.48 0.051 2.721 1.207 3.078 0.493 0.136 0.663 0.816 0.408 1.531-0.34 0.952-0.238 1.531 0.425 2.33 0.34 0.391 0.833 0.884 1.088 1.071 0.595 0.408 0.969 1.446 0.544 1.429-0.17 0-0.527-0.238-0.833-0.544zM17.653 20.679c-0.306-0.306-1.82-0.442-2.075-0.187s0.119 0.391 1.207 0.442c1.105 0.034 1.139 0.017 0.867-0.255zM10.221 9.251c0-0.187-1.003-0.612-1.139-0.476-0.051 0.068 0 0.221 0.119 0.374 0.221 0.272 1.020 0.357 1.020 0.102zM20.715 9.302c-0.051-0.051-0.204-0.068-0.323-0.017-0.136 0.051-0.085 0.102 0.102 0.102 0.187 0.017 0.289-0.034 0.221-0.085zM19.575 9.114c0-0.187-0.986-0.782-1.701-1.020-0.986-0.323-2.517-0.272-3.52 0.153-0.799 0.323-1.156 0.629-0.765 0.646 2.551 0.136 3.707 0.221 3.759 0.272 0.136 0.119 2.228 0.068 2.228-0.051zM22.296 7.193c0-0.085-0.119-0.17-0.272-0.17-0.136 0-0.204 0.085-0.153 0.17 0.051 0.102 0.17 0.17 0.272 0.17 0.085 0 0.153-0.068 0.153-0.17zM20.868 6.785c-0.306-0.255-0.408-0.442-0.289-0.51 0.238-0.153 0.238-0.442 0-0.442-0.102 0-0.765-0.238-1.48-0.527-1.19-0.476-1.429-0.51-2.5-0.408-0.646 0.051-1.684 0.238-2.296 0.408-0.901 0.255-1.037 0.323-0.714 0.425 0.561 0.187 0.459 0.408-0.255 0.476-0.68 0.051-0.935 0.374-0.425 0.527 0.187 0.034 1.071 0 1.99-0.085 1.122-0.119 1.803-0.102 2.16 0.017 0.289 0.102 0.884 0.187 1.31 0.204 0.425 0 1.088 0.068 1.463 0.136 0.374 0.085 0.867 0.153 1.105 0.153l0.425 0.017-0.493-0.391zM12.092 6.853c0-0.204-0.476-0.425-0.612-0.289-0.153 0.153 0.102 0.459 0.374 0.459 0.136 0 0.238-0.085 0.238-0.17zM19.949 3.621c-0.901-0.748-2.942-1.003-4.711-0.595-1.599 0.374-1.922 0.714-0.493 0.493 1.327-0.187 3.35-0.119 4.405 0.17 1.173 0.323 1.241 0.306 0.799-0.068z"></path>
<path d="M14.813 5.832c0-0.085 0.255-0.17 0.561-0.17 0.408 0 0.476 0.051 0.289 0.17-0.34 0.221-0.85 0.221-0.85 0z"></path>
<path d="M16.31 5.543c0.119-0.051 0.272-0.034 0.323 0.017 0.068 0.051-0.034 0.102-0.221 0.085-0.187 0-0.238-0.051-0.102-0.102z"></path>
<path d="M17.5 5.543c0.119-0.051 0.272-0.034 0.323 0.017 0.068 0.051-0.034 0.102-0.221 0.085-0.187 0-0.238-0.051-0.102-0.102z"></path>
<path d="M11.004 25.56c-0.527-0.646-0.544-0.765-0.085-1.82 0.391-0.918 1.939-2.602 2.398-2.602 0.425 0 0.391 0.204-0.102 0.663-0.544 0.51-1.088 1.888-1.258 3.146-0.068 0.561-0.204 1.037-0.306 1.071s-0.391-0.17-0.646-0.459z"></path>
<path d="M20.561 25.713c-0.238-0.136-0.306-0.391-0.306-1.19 0-0.663-0.119-1.326-0.357-1.871-0.204-0.459-0.323-0.884-0.272-0.935s0.289 0.034 0.544 0.204c0.68 0.442 1.293 1.803 1.326 2.925 0.034 0.85 0 0.969-0.306 1.003-0.187 0.034-0.476-0.034-0.629-0.136z"></path>
<path d="M22.262 22.584c-0.051-0.051-0.051-0.612 0-1.241 0.051-0.748-0.017-1.446-0.187-2.024-0.153-0.493-0.204-0.901-0.136-0.901 0.493 0 1.361 1.837 1.378 2.857 0 0.867-0.663 1.701-1.054 1.31z"></path>
<path d="M9.133 21.206c-0.34-0.323-0.357-1.122-0.034-1.735 0.561-1.071 2.041-2.075 3.061-2.075 0.289 0 0.238 0.102-0.34 0.731-0.731 0.748-1.599 2.143-1.599 2.551 0 0.221-0.51 0.799-0.731 0.799-0.051 0-0.221-0.119-0.357-0.272z"></path>
<path d="M15.459 15.152c-0.68-0.391-1.156-1.19-1.156-1.922 0-0.646 0.272-0.476 0.986 0.595 0.527 0.782 0.731 0.952 1.19 0.986 0.646 0.068 1.326-0.306 1.582-0.884 0.187-0.408 1.156-0.867 1.378-0.646 0.204 0.204-0.476 1.173-1.241 1.735-0.867 0.629-1.82 0.68-2.738 0.136z"></path>
</svg>
