<!-- Generated by IcoMoon.io -->
<svg version="1.1" xmlns="http://www.w3.org/2000/svg" width="512" height="512" viewBox="0 0 512 512">
<title></title>
<g id="icomoon-ignore">
</g>
<path fill="#000" d="M242.696 481.075c-13.246-17.978-26.178-40.37-31.224-52.986-4.731-11.985-12.3-29.647-16.715-39.108s-11.985-27.123-17.031-39.424c-4.731-11.985-9.778-23.339-11.354-24.916-1.262-1.892-2.523-5.677-2.523-8.515 0-3.154-6.308-12.616-13.877-21.762-7.569-8.831-16.085-22.708-19.239-30.909-6.308-17.977-7.569-20.5-23.339-54.563-8.831-18.608-16.4-29.962-24.6-36.585-6.623-5.362-15.139-12.3-19.239-15.769-5.677-4.415-7.569-10.407-10.093-31.224-1.577-13.877-3.785-29.016-4.73-33.431-3.785-14.192 46.362-81.371 60.556-81.371 1.892 0 0.631 5.677-2.838 12.616-9.778 19.239-13.561 49.516-8.516 64.34 5.992 16.715 14.823 22.392 53.301 32.486 32.486 8.516 34.693 8.831 113.225 8.2 45.101-0.316 87.679-2.207 97.772-4.415 23.654-4.731 40.055-14.192 45.101-26.177 5.993-13.877 5.677-84.21-0.315-91.463-8.515-10.408-1.577-7.254 18.608 7.884 11.985 9.146 22.392 19.869 24.916 25.862 7.254 16.715 12.931 40.686 12.931 54.248 0 24.285-15.769 69.386-32.486 92.409-15.139 21.131-40.055 70.963-40.055 80.425 0 4.101-1.262 8.515-2.839 10.408-4.731 5.046-19.239 46.993-19.239 55.508 0 9.462-6.939 26.178-33.116 82.948-5.677 12.3-12.3 26.808-14.192 32.486-2.207 5.677-6.939 12.931-10.723 15.769-3.469 3.154-8.831 9.147-11.354 13.877-7.885 13.562-25.862 34.063-29.962 34.063-2.207 0-14.192-13.877-26.809-30.909zM283.382 411.058c6.623-6.939 15.769-20.185 20.185-29.016 21.447-45.101 33.432-71.594 36.901-82.948 2.523-6.939 7.569-19.87 11.67-29.016 4.101-8.831 7.254-17.662 7.254-19.239s2.207-7.254 5.046-12.616c5.993-11.985 8.831-38.477 4.101-38.477-1.577 0-2.523-1.262-1.262-2.839 0.947-1.892-1.262-5.993-5.046-9.147-5.677-5.362-13.247-6.624-58.663-8.516-28.7-1.262-63.078-1.262-76.325 0-13.246 1.577-29.332 2.839-36.27 3.47-6.624 0.631-14.823 3.47-18.293 6.624-5.677 5.046-5.993 8.2-4.101 29.332 1.262 16.085 4.415 27.124 9.147 34.693 3.785 5.993 11.038 21.132 15.769 33.116 5.046 12.3 11.669 24.285 14.823 26.808 2.839 2.523 7.569 15.139 10.407 27.755 7.885 35.324 35.639 82.632 48.255 82.632 2.207 0 9.462-5.677 16.4-12.616z"></path>
</svg>
