<!-- Generated by IcoMoon.io -->
<svg version="1.1" xmlns="http://www.w3.org/2000/svg" width="32" height="32" viewBox="0 0 32 32">
<title>cities-of-sigmar-greywater-fastness</title>
<path d="M9.138 31.937c-0.044-0.044-0.081-0.125-0.081-0.18 0-0.126 0.22-0.786 0.433-1.296 0.429-1.030 0.469-1.876 0.099-2.119-0.051-0.034-0.294-0.117-0.539-0.185-0.765-0.212-1.093-0.4-1.033-0.593 0.043-0.137 0.272-0.471 0.502-0.728 0.475-0.534 0.869-1.141 1.606-2.478 0.897-1.627 1.095-2.069 1.095-2.447 0-0.362-0.099-0.502-0.945-1.337-0.427-0.422-0.802-0.82-0.834-0.885s-0.070-0.224-0.084-0.354c-0.037-0.325-0.3-1.093-0.523-1.524-0.118-0.229-0.26-0.433-0.391-0.563-0.237-0.235-0.305-0.414-0.304-0.802 0.001-0.361 0.101-0.628 0.333-0.881 0.225-0.246 0.323-0.449 0.413-0.853 0.091-0.406 0.094-1.117 0.007-1.273-0.151-0.27-0.156-0.301-0.111-0.685 0.049-0.418 0.145-0.674 0.288-0.768 0.053-0.035 0.254-0.1 0.446-0.145 0.844-0.198 1.028-0.291 1.409-0.711 0.266-0.293 0.485-0.727 0.63-1.246 0.156-0.559 0.237-0.677 0.57-0.824 0.222-0.098 1.030-0.3 2.122-0.531 1.414-0.299 1.696-0.347 2.064-0.353 0.443-0.006 0.545 0.040 0.954 0.437 0.473 0.459 0.943 0.663 1.622 0.705 0.278 0.017 0.46 0.006 0.708-0.045 0.415-0.085 0.594-0.084 0.727 0.002 0.136 0.089 0.33 0.483 0.505 1.027 0.192 0.597 0.346 0.888 0.613 1.154 0.257 0.257 0.59 0.437 1.15 0.622 0.415 0.137 0.687 0.331 0.779 0.554 0.083 0.199 0.031 0.599-0.104 0.797-0.146 0.216-0.173 0.372-0.127 0.755 0.086 0.726 0.324 1.321 0.606 1.515 0.249 0.171 0.347 0.38 0.322 0.685-0.028 0.323-0.135 0.55-0.472 0.998-0.628 0.835-0.779 1.301-0.877 2.699-0.059 0.844-0.332 1.163-1.062 1.239-0.186 0.019-0.402 0.068-0.482 0.108-0.196 0.1-0.332 0.361-0.308 0.592 0.023 0.218 0.314 0.815 0.761 1.56 0.195 0.324 0.607 1.023 0.917 1.553s0.735 1.237 0.945 1.572c0.21 0.335 0.432 0.701 0.494 0.813l0.113 0.203-0.091 0.097c-0.126 0.134-0.556 0.325-0.952 0.423-0.39 0.096-0.498 0.157-0.567 0.321-0.093 0.222 0.018 0.54 0.735 2.094 0.31 0.672 0.462 1.050 0.462 1.15 0 0.126-0.134 0.217-0.273 0.187-0.242-0.053-1.144-0.708-1.968-1.43-1.024-0.896-2.47-2.501-2.883-3.2-0.148-0.25-0.185-0.457-0.095-0.532 0.062-0.052 0.55-0.174 1.125-0.282 0.245-0.046 0.516-0.112 0.6-0.145 0.289-0.116 0.373-0.335 0.256-0.667s-1.107-1.921-1.424-2.285c-0.259-0.299-0.352-0.336-0.842-0.339-0.387-0.002-0.429 0.005-0.674 0.125-0.144 0.070-0.33 0.2-0.413 0.289-0.305 0.327-0.387 0.396-0.581 0.498-0.163 0.085-0.251 0.104-0.494 0.104-0.393 0-0.656-0.127-1.077-0.521-0.54-0.505-0.914-0.595-1.415-0.342-0.429 0.217-1.037 0.974-1.61 2.006-0.326 0.586-0.407 0.881-0.299 1.083 0.066 0.124 0.318 0.226 0.771 0.313 0.889 0.17 1.272 0.292 1.272 0.405 0 0.157-0.483 0.768-1.98 2.502-1.337 1.55-2.108 2.334-2.372 2.415-0.060 0.018-0.111 0.002-0.167-0.054zM17.14 21.554c0.168-0.023 0.415-0.084 0.55-0.135 0.257-0.097 1.537-0.873 1.986-1.204 0.481-0.355 0.943-0.909 1.222-1.469 0.164-0.327 0.655-1.871 0.701-2.205 0.086-0.62-0.063-1.309-0.535-2.474-0.382-0.942-0.47-1.115-0.764-1.505-0.452-0.6-0.651-0.748-1.711-1.267-1.325-0.65-1.315-0.647-2.477-0.647-1.083 0-1.137 0.011-2.132 0.398-0.839 0.327-1.433 0.712-1.925 1.25-0.216 0.236-0.858 1.255-1.030 1.634-0.168 0.371-0.368 0.971-0.419 1.256-0.061 0.344-0.070 1.226-0.016 1.653 0.080 0.632 0.237 1.227 0.432 1.633 0.167 0.349 0.261 0.475 0.805 1.092 0.339 0.384 0.725 0.786 0.858 0.894s0.314 0.256 0.401 0.329c0.368 0.307 1.355 0.701 1.921 0.767 0.417 0.049 1.783 0.049 2.132 0zM15.111 20.105c-0.657-0.066-1.023-0.257-1.626-0.85-0.167-0.164-0.378-0.57-0.379-0.727-0-0.145 0.098-0.262 0.265-0.315 0.256-0.082 0.6-0.282 0.683-0.398 0.15-0.21 0.304-0.155 0.755 0.268 0.743 0.697 1.767 0.924 2.261 0.502 0.187-0.16 0.242-0.315 0.242-0.684-0-0.343-0.117-0.588-0.406-0.852-0.478-0.436-1.071-0.691-1.618-0.695-0.284-0.002-0.337 0.010-0.55 0.127-0.22 0.121-0.256 0.128-0.531 0.113-0.343-0.019-0.555-0.112-0.741-0.324-0.586-0.667-0.579-1.866 0.016-2.74 0.395-0.58 0.954-0.991 1.57-1.153 0.315-0.083 1.020-0.085 1.368-0.003 0.445 0.104 2.233 0.653 2.393 0.734 0.209 0.107 0.277 0.222 0.23 0.388-0.089 0.311-0.601 1.050-0.91 1.315-0.19 0.163-0.355 0.199-0.587 0.129-0.2-0.060-0.843-0.451-1.284-0.781-0.342-0.256-0.489-0.296-0.824-0.227-0.458 0.095-0.681 0.28-0.776 0.646-0.062 0.237-0.079 0.598-0.037 0.757 0.033 0.124 0.187 0.158 0.841 0.187 0.606 0.027 1.218 0.13 1.572 0.265 1.541 0.588 2.207 1.753 1.731 3.027-0.187 0.499-0.427 0.722-1.074 0.999-0.537 0.23-0.865 0.293-1.62 0.309-0.368 0.008-0.801 0.001-0.963-0.015zM2.551 17.232c-0.94-0.054-1.985-0.191-1.985-0.259 0-0.050 0.511-0.235 1.658-0.599 0.682-0.216 1.334-0.441 1.449-0.5 0.248-0.125 0.569-0.447 0.714-0.713 0.057-0.104 0.324-0.95 0.595-1.88 0.626-2.149 0.754-2.467 1.508-3.744 0.529-0.894 0.6-1.048 0.6-1.287 0-0.268-0.021-0.306-1.057-1.904-0.884-1.364-1.144-1.796-1.144-1.899 0-0.033 0.026-0.082 0.058-0.108 0.086-0.071 0.381 0.104 1.859 1.103 1.578 1.068 1.745 1.167 2.039 1.221 0.197 0.036 0.281 0.030 0.573-0.040 0.347-0.083 4.557-1.548 4.935-1.717 0.404-0.181 0.631-0.431 0.799-0.879 0.045-0.121 0.222-0.91 0.392-1.753 0.283-1.401 0.418-1.936 0.55-2.184l0.048-0.090 0.051 0.098c0.062 0.119 0.151 0.465 0.586 2.294 0.199 0.837 0.378 1.499 0.437 1.622 0.114 0.234 0.445 0.615 0.608 0.699 0.060 0.031 0.276 0.092 0.481 0.137 0.595 0.129 1.287 0.382 2.8 1.022 1.369 0.579 2.094 0.865 2.195 0.865 0.154 0 1.852-1.098 2.463-1.594 0.433-0.351 0.581-0.432 0.72-0.397 0.217 0.054 0.156 0.242-0.319 0.985-0.383 0.599-1.243 2.021-1.349 2.231-0.239 0.474-0.226 0.727 0.074 1.416 0.834 1.914 2.475 5.545 2.565 5.675 0.337 0.49 0.728 0.66 2.533 1.099 1.375 0.334 1.504 0.372 1.425 0.416-0.034 0.019-0.36 0.069-0.724 0.112s-1.313 0.158-2.109 0.256c-1.999 0.246-2.25 0.239-2.476-0.067-0.143-0.193-0.192-0.347-0.636-1.954-0.492-1.784-0.581-2.035-1.084-3.048-0.435-0.877-0.722-1.353-1.306-2.162-0.526-0.729-0.681-0.906-1.166-1.326-0.716-0.62-1.312-0.954-2.367-1.323-1.010-0.354-1.684-0.463-3.167-0.514-1.621-0.056-2.152 0.012-3.511 0.449-0.955 0.307-1.393 0.478-1.918 0.751-0.878 0.454-1.428 0.954-2.27 2.062-0.302 0.397-0.651 0.855-0.776 1.019-0.264 0.345-0.716 1.238-0.89 1.758-0.142 0.424-0.414 1.497-0.472 1.861-0.022 0.141-0.093 0.645-0.157 1.12s-0.144 0.94-0.176 1.033c-0.087 0.247-0.247 0.434-0.472 0.552l-0.2 0.105-1.238 0.005c-0.681 0.003-1.468-0.009-1.749-0.025zM27.923 11.64c-0.297-0.197-0.417-0.767-0.237-1.12 0.109-0.214 0.231-0.265 0.63-0.265 0.434 0 0.527 0.028 0.659 0.201 0.094 0.123 0.11 0.185 0.124 0.485 0.029 0.61-0.129 0.787-0.704 0.788-0.285 0-0.359-0.014-0.472-0.088zM2.634 10.941c-0.080-0.071-0.18-0.196-0.222-0.278-0.147-0.289-0.075-0.774 0.156-1.055 0.103-0.124 0.133-0.137 0.362-0.15 0.203-0.012 0.283 0.003 0.427 0.076 0.253 0.13 0.277 0.202 0.265 0.799l-0.010 0.511-0.194 0.096c-0.112 0.055-0.289 0.103-0.416 0.112-0.205 0.015-0.233 0.006-0.368-0.112zM21.356 4.347c-0.388-0.183-0.54-0.742-0.306-1.13 0.080-0.133 0.509-0.373 0.666-0.373 0.12 0 0.523 0.308 0.633 0.483 0.114 0.182 0.093 0.623-0.040 0.809-0.183 0.256-0.641 0.358-0.953 0.21zM10.669 3.998c-0.269-0.089-0.354-0.241-0.354-0.638 0-0.533 0.192-0.759 0.664-0.782 0.303-0.014 0.512 0.080 0.659 0.297 0.101 0.149 0.159 0.565 0.1 0.715-0.053 0.134-0.233 0.298-0.409 0.371-0.137 0.057-0.529 0.078-0.66 0.035z"></path>
</svg>
