<!-- Generated by IcoMoon.io -->
<svg version="1.1" xmlns="http://www.w3.org/2000/svg" width="32" height="32" viewBox="0 0 32 32">
<title>factions-death-soulblight-gravelords</title>
<path d="M6.872 1.281l0.304 1.281-0.521 2.475-1.151 1.693-1.151 1.672v0.543c0 0.326-0.261 1.020-0.586 1.585l-0.608 1.020-0.326-0.13-0.326-0.109 0.13 1.129c0.065 0.63 0.239 1.433 0.391 1.802l0.26 0.651 0.087-0.434c0.043-0.239 0.13-0.673 0.195-0.955l0.109-0.521 1.129 1.042-0.304-1.65 0.434-0.586c0.478-0.673 1.867-1.52 2.106-1.281 0.087 0.087 0.043 0.543-0.109 1.020l-0.261 0.868h-0.651l0.13 0.478c0.087 0.282 0.282 0.63 0.434 0.803l0.304 0.304 0.63-1.389c0.347-0.76 0.89-1.715 1.216-2.127 0.304-0.412 0.564-0.825 0.564-0.934 0-0.087-0.261-0.304-0.586-0.456l-0.564-0.304 1.172-0.782 0.782 0.195c0.434 0.109 0.825 0.304 0.868 0.456 0.043 0.13-0.412 0.803-1.042 1.498-0.608 0.673-1.324 1.693-1.563 2.236l-0.456 0.999-0.087 1.802-0.109 1.802 0.391 1.563c0.195 0.868 0.521 1.845 0.695 2.214 0.195 0.347 0.586 0.977 0.868 1.368l0.543 0.716 0.434-0.434c0.217-0.261 0.499-0.412 0.586-0.347 0.109 0.043 0.304 0.391 0.456 0.76l0.261 0.651h0.782l0.999-1.172 1.020-1.194-0.152-0.543-0.13-0.564h0.347c0.195 0 0.347-0.043 0.347-0.087 0-0.065-0.304-0.412-0.673-0.782l-0.695-0.673 0.195-0.195c0.109-0.087 0.369-0.217 0.586-0.261l0.369-0.065-1.085-1.52 0.13-0.499 0.13-0.478h0.347c0.195 0 0.564 0.217 0.847 0.478l0.499 0.456v-1.737l0.999-1.476 0.521-0.065 0.521-0.087 0.564 0.782v3.43l0.76-0.673c0.434-0.369 0.868-0.673 0.977-0.673 0.087 0 0.326 0.065 0.521 0.13l0.347 0.13v0.695c0 0.391-0.282 1.758-0.651 3.018-0.347 1.281-0.651 2.497-0.651 2.692v0.391l0.651-0.782c0.347-0.434 0.933-0.912 1.303-1.064l0.651-0.261 0.347 0.282 0.369 0.304-0.13 1.52c-0.065 0.825-0.326 2.193-0.608 2.996-0.261 0.803-0.912 2.214-1.433 3.126-0.521 0.933-0.912 1.758-0.868 1.889 0.087 0.261 3.669-3.018 4.993-4.602 0.586-0.673 1.433-1.91 1.91-2.714 0.499-0.825 1.107-2.128 1.389-2.931 0.673-1.932 1.194-4.537 1.194-5.948 0-1.563-0.369-3.691-0.868-5.123-0.239-0.673-0.847-1.932-1.346-2.822-0.521-0.89-0.912-1.78-0.868-1.976l0.065-0.369-1.737-1.672c-0.933-0.912-2.084-1.824-2.518-2.019-0.434-0.174-0.847-0.282-0.912-0.217-0.065 0.043 0.152 0.478 0.456 0.933 0.304 0.434 0.564 1.042 0.564 1.303 0 0.282-0.195 0.695-0.412 0.912-0.239 0.239-0.803 0.521-1.259 0.651s-1.281 0.239-1.845 0.239h-1.020l-1.758 1.715v1.085l0.412 0.239c0.239 0.109 0.478 0.217 0.543 0.217s0.065-0.304 0-0.651l-0.13-0.651h0.347c0.195 0 0.412 0.152 0.478 0.326 0.087 0.195 0.065 0.89-0.022 1.585l-0.152 1.237-0.825 0.782c-0.456 0.434-1.107 0.868-1.433 0.934l-0.63 0.174-0.391-0.521-0.412-0.499 0.152-1.303c0.065-0.716 0.195-1.498 0.239-1.758l0.109-0.456-0.564-0.673-0.586-0.695h-1.433l-0.109 0.261c-0.065 0.152-0.434 0.478-0.825 0.695l-0.738 0.434 0.586-0.695 0.586-0.716-0.13-1.020c-0.065-0.564-0.152-1.042-0.174-1.085s-0.412 0.434-0.847 1.042c-0.434 0.586-0.868 1.085-0.977 1.085-0.13 0-0.022-0.412 0.195-0.934l0.434-0.912v-1.346c0-0.738-0.087-1.389-0.195-1.454s-0.347 0.478-0.564 1.237c-0.195 0.738-0.521 1.585-0.695 1.889l-0.304 0.543 0.109-0.868c0.065-0.478 0.022-1.259-0.087-1.715-0.195-0.868-0.803-1.889-1.216-2.019l-0.239-0.087 0.326 1.281zM6.394 7.967c-0.065 0.195-0.13 0.391-0.13 0.434s-0.195 0.087-0.434 0.087c-0.239 0-0.434-0.087-0.434-0.217 0-0.195 0.63-0.63 0.955-0.651 0.087 0 0.109 0.152 0.043 0.347z"></path>
<path d="M4.071 17.064l-0.26 1.824 0.282 0.347c0.152 0.174 0.391 0.326 0.564 0.326 0.152 0 0.412-0.217 0.543-0.478l0.261-0.456-0.391-1.715c-0.217-0.934-0.478-1.693-0.564-1.693s-0.282 0.825-0.434 1.845z"></path>
<path d="M16.901 17.498v1.541l-0.782 1.606-0.76 1.628-2.714 2.605-2.692 2.605-0.326 0.803c-0.174 0.456-0.326 1.042-0.326 1.346 0 0.282 0.239 0.825 0.543 1.172l0.543 0.651 1.107 0.261 1.107 0.282 1.151-0.13c0.651-0.065 1.52-0.282 1.976-0.499l0.803-0.391 0.63-0.977 0.651-0.999-0.174-3.734-0.434-0.695-0.456-0.695-0.76 0.999-0.782 0.977 0.304 0.825c0.152 0.434 0.282 1.020 0.304 1.303v0.521l-1.237 1.237-0.782 0.13-0.76 0.152-0.63-0.304-0.608-0.282-0.065-0.586c-0.043-0.326 0.087-0.847 0.261-1.194 0.195-0.326 1.346-1.672 2.583-2.996l2.258-2.388 0.369 0.304c0.195 0.174 0.412 0.239 0.499 0.174 0.065-0.087 0.022-0.738-0.087-1.454s-0.152-1.303-0.109-1.303c0.065 0 0.304 0.174 0.543 0.369l0.434 0.391-0.152-0.868c-0.195-0.977-0.825-2.887-1.194-3.495l-0.217-0.412-0.022 1.52z"></path>
<path d="M6.003 18.388c-0.087 0.13-0.217 0.868-0.304 1.65l-0.13 1.411 0.369 0.13c0.195 0.087 0.456 0.109 0.564 0.022 0.261-0.152 0.217-1.541-0.109-2.583l-0.261-0.868-0.13 0.239z"></path>
</svg>
