<!-- Generated by IcoMoon.io -->
<svg version="1.1" xmlns="http://www.w3.org/2000/svg" width="32" height="32" viewBox="0 0 32 32">
<title>factions-chaos-everchosen</title>
<path d="M16.132 31.821c0.281-0.195 0.281-0.238-0.022-0.238-0.195 0-0.411-0.151-0.498-0.325-0.065-0.173-0.022-0.325 0.087-0.325 0.13 0 0.216 0.108 0.216 0.216 0 0.13 0.108 0.216 0.216 0.216 0.389 0 0.216-0.368-0.303-0.606-0.389-0.173-0.627-0.649-1.103-2.142-0.325-1.038-0.779-2.509-1.017-3.266l-0.433-1.384 0.562-0.584c0.865-0.909 0.735-1.687-0.433-2.423l-0.735-0.454-1.622 0.498c-0.887 0.26-1.666 0.433-1.709 0.389s0.173-0.844 0.476-1.774c0.433-1.363 0.498-1.774 0.303-2.206-0.325-0.692-1.168-0.887-2.228-0.541-0.714 0.238-1.017 0.238-1.666 0.022-1.622-0.562-2.639-0.995-2.639-1.146 0-0.108-0.389-0.173-0.887-0.173-0.779 0-2.142-0.541-2.142-0.865 0-0.216 2.055-1.060 3.137-1.298 0.606-0.13 1.406-0.389 1.795-0.562 1.125-0.519 2.206-0.649 2.206-0.26 0 1.038 1.644 0.973 2.444-0.087l0.433-0.562-0.584-1.471c-0.325-0.8-0.498-1.536-0.411-1.622 0.108-0.108 0.562-0.043 1.038 0.13 1.168 0.411 1.947 0.389 2.661-0.043 1.255-0.779 1.449-1.493 0.606-2.336l-0.541-0.541 0.562-1.341c0.303-0.757 0.714-1.795 0.93-2.336s0.519-1.298 0.692-1.666c0.173-0.454 0.433-0.714 0.692-0.714 0.238 0 0.368 0.043 0.303 0.108-0.195 0.195 0.649 2.682 1.493 4.413 0.649 1.341 0.714 1.622 0.454 1.774-0.195 0.108-0.498 0.433-0.692 0.735-0.346 0.519-0.325 0.584 0.195 1.406 0.671 1.038 1.082 1.082 3.245 0.325 1.666-0.584 2.293-0.541 2.25 0.173-0.022 0.433-0.043 0.433-0.13 0.065-0.087-0.303-0.303 0-0.844 1.168-0.671 1.406-0.714 1.666-0.519 2.401 0.216 0.779 0.303 0.844 0.973 0.844 0.562 0 0.8-0.13 1.017-0.519l0.281-0.541 1.839 0.649c1.017 0.346 2.38 0.844 3.028 1.082s1.493 0.519 1.839 0.627c0.368 0.087 0.498 0.173 0.303 0.195s-0.411 0.173-0.498 0.346c-0.065 0.173-0.303 0.325-0.541 0.325s-0.476 0.087-0.541 0.195c-0.065 0.108-0.584 0.26-1.146 0.346s-1.493 0.389-2.055 0.671c-1.19 0.606-1.73 0.649-2.12 0.195-0.151-0.195-0.627-0.325-1.103-0.325-0.757 0-0.887 0.087-1.211 0.757-0.346 0.735-0.346 0.822 0.108 2.098 0.281 0.757 0.692 1.557 0.909 1.795 0.519 0.541 0.562 1.103 0.108 1.276-0.26 0.087-0.281 0.043-0.065-0.303s0.216-0.476-0.022-0.692c-0.26-0.238-0.281-0.216-0.173 0.108 0.173 0.454-0.411 0.498-0.909 0.087-0.627-0.519-2.639-1.255-3.072-1.125-0.216 0.087-0.671 0.476-0.973 0.887l-0.584 0.757 1.428 1.774-0.389 1.536c-0.216 0.844-0.671 2.163-1.017 2.899-0.368 0.757-0.714 1.817-0.779 2.38-0.087 0.606-0.281 1.017-0.476 1.060-0.281 0.087-0.281 0.065 0-0.13zM17.278 18.561c1.103-0.325 2.033-1.276 2.25-2.293l0.151-0.8 0.151 0.757c0.108 0.562 0.151 0.433 0.13-0.584-0.022-0.757-0.108-1.363-0.173-1.363s-0.281-0.389-0.454-0.844c-1.038-2.639-5.494-2.726-6.576-0.13-0.476 1.168-0.389 2.942 0.195 3.807 1.038 1.557 2.423 2.012 4.326 1.449z"></path>
<path d="M13.211 30.501c0.065-0.108 0.173-0.216 0.238-0.216s0.043 0.108-0.022 0.216c-0.065 0.13-0.173 0.216-0.238 0.216s-0.043-0.087 0.022-0.216z"></path>
<path d="M19.074 30.48c0.108-0.173 0.043-0.216-0.173-0.13-0.281 0.087-0.303 0-0.151-0.562 0.325-1.276 0.735-2.315 0.887-2.315 0.108 0 0.173-0.195 0.173-0.433s0.303-1.060 0.649-1.817c0.735-1.536 0.909-1.644 2.834-1.644h1.211l0.195-1.557 0.195-1.579 2.055-1.017c1.125-0.562 2.271-1.017 2.531-1.038 0.26 0 0.541-0.087 0.606-0.216 0.498-0.8 1.211 0.433 0.757 1.298-0.325 0.627-0.498 0.433-0.238-0.281 0.173-0.454 0.151-0.541-0.087-0.454-0.151 0.065-0.346 0.325-0.411 0.584-0.065 0.281-0.454 0.865-0.887 1.341-0.584 0.649-0.757 1.017-0.692 1.471 0.043 0.325 0 0.649-0.108 0.714-0.087 0.065-0.173 0.519-0.173 1.017 0 0.671 0.065 0.822 0.216 0.584s0.216-0.087 0.216 0.541c0 0.627-0.065 0.779-0.216 0.541-0.13-0.195-0.216-0.216-0.216-0.065 0 0.13 0.108 0.325 0.216 0.389 0.13 0.065 0.195 0.389 0.195 0.714-0.022 0.389-0.065 0.454-0.13 0.195-0.087-0.368-0.13-0.368-0.346-0.065-0.195 0.26-0.909 0.389-2.704 0.541l-2.444 0.195-1.622 1.233c-0.887 0.671-1.687 1.384-1.774 1.579s-0.281 0.389-0.433 0.433c-0.173 0.022-0.238-0.043-0.13-0.195z"></path>
<path d="M12.26 29.766c-0.195-0.238-0.195-0.325 0.022-0.411 0.151-0.065 0.043-0.13-0.238-0.13-0.281-0.022-1.060-0.454-1.709-0.995l-1.168-0.973h-1.774c-0.952 0-2.12-0.065-2.574-0.13l-0.8-0.151v-1.125c0-3.028-0.195-3.677-1.644-5.689-1.038-1.471-1.298-1.947-1.082-2.142 0.195-0.216 0.433-0.195 1.103 0.151 0.476 0.216 1.709 0.8 2.747 1.276 2.033 0.93 2.293 1.255 2.055 2.682-0.173 1.125 0.195 1.428 1.904 1.493l1.493 0.065 0.584 1.103c0.303 0.606 0.735 1.579 0.973 2.163 0.216 0.584 0.541 1.19 0.735 1.341 0.281 0.238 0.281 0.26 0 0.13-0.26-0.13-0.281-0.087-0.043 0.151 0.13 0.151 0.26 0.454 0.26 0.671s0.13 0.389 0.281 0.389c0.173 0 0.151 0.087-0.065 0.216-0.454 0.303-0.779 0.26-1.060-0.087z"></path>
<path d="M31.166 15.575c0.065-0.108 0.173-0.216 0.238-0.216s0.043 0.108-0.022 0.216c-0.065 0.13-0.173 0.216-0.238 0.216s-0.043-0.087 0.022-0.216z"></path>
</svg>
