<!-- Generated by IcoMoon.io -->
<svg version="1.1" xmlns="http://www.w3.org/2000/svg" width="512" height="512" viewBox="0 0 512 512">
<title></title>
<g id="icomoon-ignore">
</g>
<path fill="#000" d="M267.113 506.094c-6.081-7.296-12.161-7.905-17.33-1.52-4.56 5.473-19.154 6.081-27.363 0.913-4.864-3.041-7.297-3.041-12.161-0.304-4.256 2.736-6.385 2.736-7.905 0.608-1.216-2.128-10.641-7.296-20.978-12.161-18.242-8.209-19.154-9.121-21.282-21.587-1.216-7.296-3.345-14.594-4.56-16.113-1.52-1.824-3.041-10.033-3.649-18.242-0.912-13.377-2.128-15.81-11.553-22.195-8.209-5.473-13.986-6.993-24.323-6.081-19.763 1.216-36.788-6.993-43.477-21.282-2.737-6.081-6.385-13.377-7.6-15.81-10.945-19.458-12.465-24.322-8.209-24.322 11.249 0 13.681-22.498 5.169-43.173-4.864-10.945-9.425-47.125-10.641-79.961-0.608-15.202 7.905-83.609 11.858-97.898 23.106-80.265 148.064-144.72 237.45-122.525 61.415 15.505 129.822 70.535 149.584 121.005 8.209 20.978 13.377 87.561 9.121 117.661-1.52 11.857-3.649 32.836-4.865 47.125-0.913 14.289-3.649 28.579-5.776 31.923-6.081 8.817-5.168 20.674 2.432 30.404s7.601 9.425-16.418 40.132c-13.682 17.33-16.418 19.154-24.322 17.938-4.865-0.608-17.026 1.52-26.755 4.865-23.714 7.905-30.404 16.722-30.404 41.044-0.304 14.898-1.52 19.154-8.817 27.667-12.465 14.594-29.187 22.803-37.092 18.546-5.168-2.736-7.601-2.128-13.074 3.041-8.513 8.209-20.37 8.209-27.059 0.304zM249.784 408.5l7.601-12.161 2.432 10.033c1.52 5.473 3.649 11.25 5.168 12.769 1.216 1.216 9.425-1.52 17.938-6.081 14.289-8.209 15.505-9.729 15.505-20.067 0-6.385-1.216-11.553-3.041-11.553-1.52 0-3.041-2.128-3.041-4.865 0-2.432-1.216-3.649-3.041-2.736-1.52 0.913-3.041-0.304-3.041-2.736s-3.952-11.25-9.121-19.154c-4.865-7.905-9.121-16.113-9.121-18.242 0-6.689-16.418-4.56-22.803 3.041-11.857 13.681-29.187 50.774-27.059 57.462 1.824 6.081 18.546 25.235 22.499 26.147 0.912 0.304 4.864-5.168 9.121-11.858zM174.991 347.389c-0.912-1.216 3.345-3.041 9.425-4.256 5.776-0.913 10.641-3.041 10.641-4.56s2.128-2.736 4.56-2.736c2.432 0 4.56-1.216 4.56-2.736 0-1.824 3.345-6.689 7.601-11.25 5.472-6.081 7.601-11.553 7.601-20.674 0-22.195-1.824-24.322-22.195-30.099-10.337-2.736-25.235-8.513-33.444-12.769-20.978-11.25-34.052-10.033-50.469 4.256-12.162 10.337-13.377 12.769-14.594 27.971-2.737 35.876 24.323 60.807 65.063 59.286 6.689 0 11.857-1.216 11.25-2.432zM396.935 340.092c4.865-3.649 10.033-12.769 13.681-24.019 6.081-17.33 11.25-46.821 7.905-43.781-0.913 0.913-8.209-4.865-16.722-13.074-19.762-18.85-31.923-19.762-55.638-3.952-38.308 25.235-40.132 27.059-41.045 38.613-3.041 35.572 61.719 68.103 91.817 46.213zM270.154 242.194c9.729-9.729 21.282-24.322 26.147-32.531 4.56-8.513 13.681-24.018 20.37-34.964 6.689-11.25 14.594-30.1 18.242-44.085 3.344-13.377 7.601-26.755 9.121-29.491 6.385-11.249-3.041-4.865-17.33 11.249-29.491 34.356-57.462 83.913-68.712 121.614-2.432 8.513-5.472 17.634-6.689 20.674-3.649 8.817 0.608 6.081 18.85-12.465zM191.713 219.999c21.891-11.25 42.261-39.828 68.711-95.466 6.385-13.377 13.986-27.667 17.026-31.924 6.689-10.033 30.404-54.726 28.579-54.726-0.608 0-6.993 3.953-14.289 8.817-29.491 20.066-58.678 58.679-84.825 111.884-11.553 23.411-20.978 44.693-20.978 47.125s-2.128 6.993-4.56 10.337c-8.817 11.857-6.385 12.769 10.337 3.952zM126.954 193.852c19.763-18.546 48.037-59.59 60.199-86.649 3.952-8.817 12.769-26.147 19.458-38.004 6.689-12.162 10.945-22.195 9.425-22.195-7.905 0-22.195 10.945-40.74 31.011-20.674 22.498-40.74 58.678-57.767 104.284-3.648 10.033-7.905 20.674-9.121 23.714-1.216 2.737-1.824 5.168-1.216 5.168s9.729-7.905 19.763-17.33z"></path>
</svg>
