<!-- Generated by IcoMoon.io -->
<svg version="1.1" xmlns="http://www.w3.org/2000/svg" width="32" height="32" viewBox="0 0 32 32">
<title>cities-of-sigmar-tempests-eye</title>
<path d="M21.95 31.798c-0.243-0.36-3.123-5.357-3.192-5.538-0.062-0.162-0.063-0.186-0.014-0.289 0.070-0.147 0.293-0.273 0.606-0.345 0.283-0.064 0.374-0.144 0.415-0.361 0.054-0.289-0.030-0.537-0.495-1.454-0.564-1.111-0.579-1.213-0.236-1.522 0.11-0.099 1.821-1.176 2.102-1.323 0.284-0.148 0.431-0.121 0.544 0.101 0.124 0.245 1.246 4.335 1.265 4.611 0.013 0.186 0.003 0.247-0.056 0.341-0.094 0.149-0.373 0.324-0.767 0.482-0.54 0.216-0.691 0.464-0.659 1.078 0.014 0.262 0.035 0.363 0.106 0.499 0.132 0.252 0.151 0.346 0.361 1.765 0.194 1.312 0.27 2.155 0.195 2.155-0.021 0-0.1-0.090-0.174-0.201zM9.988 31.246c-0.030-0.030-0.055-0.097-0.055-0.149 0-0.112-0.016-0.054 0.498-1.855 0.501-1.756 0.542-1.968 0.44-2.273-0.103-0.309-0.494-0.519-0.969-0.52-0.246-0.001-0.439-0.061-0.55-0.172-0.137-0.137-0.156-0.223-0.113-0.503 0.047-0.307 1.33-4.546 1.444-4.769 0.125-0.246 0.186-0.288 0.352-0.243 0.076 0.021 0.185 0.062 0.243 0.091 0.157 0.079 1.626 1.086 1.739 1.192 0.183 0.171 0.246 0.311 0.244 0.545-0.003 0.327-0.085 0.545-0.432 1.153-0.37 0.647-0.626 1.156-0.626 1.243 0 0.168 0.436 0.455 0.846 0.557 0.104 0.026 0.225 0.094 0.327 0.183 0.155 0.137 0.161 0.148 0.146 0.303-0.008 0.089-0.055 0.247-0.103 0.352-0.108 0.235-2.953 4.65-3.098 4.808-0.115 0.125-0.244 0.148-0.333 0.059zM14.926 21.676c-0.13-0.024-0.175-0.107-0.174-0.323 0.001-0.293 0.078-0.566 0.423-1.503 0.448-1.215 0.528-1.343 0.792-1.263 0.071 0.021 0.152 0.075 0.179 0.119s0.188 0.441 0.356 0.883c0.28 0.735 0.319 0.814 0.452 0.934 0.192 0.172 0.358 0.214 0.766 0.19 0.436-0.025 0.664-0.103 1.17-0.402 0.536-0.317 0.573-0.344 0.614-0.45 0.055-0.146-0.089-0.391-0.652-1.107-0.686-0.872-0.974-1.102-1.603-1.284-0.263-0.076-0.335-0.081-1.325-0.081-0.984 0-1.062 0.005-1.292 0.077-0.395 0.125-1.036 0.51-1.368 0.822-0.158 0.149-0.297 0.271-0.309 0.271-0.054 0-0.41-0.195-0.512-0.281l-0.115-0.097 0.064-0.121c0.102-0.193 0.361-0.468 0.594-0.631 0.34-0.239 1.136-0.64 1.53-0.771 0.555-0.184 0.861-0.237 1.373-0.238 0.44-0 0.478 0.006 1.222 0.199 1.098 0.285 1.151 0.315 1.901 1.047 0.689 0.673 0.875 0.876 1.007 1.101 0.051 0.086 0.18 0.292 0.288 0.457 0.442 0.678 0.396 1.080-0.169 1.442-0.274 0.176-1.521 0.79-1.875 0.922l-0.244 0.092-1.501 0.006c-0.826 0.003-1.541-0.001-1.589-0.010zM22.355 20.521c-0.108-0.226-0.304-0.638-0.437-0.916-0.158-0.331-0.391-0.73-0.673-1.152-0.353-0.529-0.499-0.712-0.803-1.012-0.205-0.202-0.433-0.403-0.508-0.448s-0.301-0.183-0.503-0.308c-0.557-0.344-0.929-0.509-1.679-0.741-1.006-0.312-1.104-0.33-1.812-0.332-0.515-0.002-0.668 0.011-0.977 0.079-0.502 0.111-1.343 0.394-1.726 0.58-0.656 0.32-1.71 1.188-2.034 1.676-0.077 0.115-0.403 0.689-0.725 1.274-0.585 1.063-0.795 1.395-0.93 1.468-0.058 0.031-0.102 0.020-0.235-0.056-0.105-0.060-0.952-0.888-2.364-2.311-1.21-1.22-2.22-2.247-2.245-2.283-0.044-0.063-0.028-0.065 0.384-0.065 0.236 0 1.434 0.063 2.661 0.139s2.296 0.129 2.374 0.117c0.286-0.044 0.37-0.129 0.37-0.379 0-0.276-0.099-0.551-0.91-2.53-0.405-0.989-0.793-1.951-0.861-2.138-0.12-0.33-0.122-0.342-0.063-0.432 0.054-0.083 0.075-0.090 0.205-0.069 0.181 0.028 0.311 0.102 2.605 1.466 2.049 1.218 2.22 1.313 2.373 1.313 0.091 0 0.108-0.016 0.138-0.131 0.044-0.173 0.159-6.915 0.133-7.812-0.023-0.795-0.089-1.151-0.257-1.391-0.104-0.147-0.17-0.182-0.619-0.324-0.335-0.106-0.342-0.192-0.046-0.631 0.2-0.296 2.058-2.501 2.428-2.881 0.352-0.361 0.417-0.371 0.713-0.104 0.158 0.142 2.559 2.988 2.746 3.255 0.115 0.164 0.117 0.172 0.061 0.257-0.078 0.119-0.259 0.206-0.654 0.317-0.393 0.11-0.473 0.157-0.549 0.325-0.053 0.117-0.058 0.483-0.058 4.335 0 4.137 0.001 4.209 0.070 4.347 0.065 0.13 0.080 0.139 0.213 0.137 0.111-0.002 0.249-0.062 0.611-0.265 1.054-0.592 1.542-0.854 2.821-1.514 1.076-0.555 1.369-0.693 1.484-0.695l0.143-0.003-0.002 0.157c-0.001 0.097-0.057 0.298-0.145 0.524-0.165 0.423-1.258 3.654-1.409 4.168-0.115 0.391-0.122 0.465-0.053 0.63 0.087 0.208 0.123 0.212 1.976 0.212 1.615 0 1.665-0.002 1.903-0.077 0.515-0.163 1.627-0.249 1.78-0.137 0.063 0.046 0.063 0.050-0.008 0.148-0.040 0.055-0.714 0.737-1.498 1.514s-1.808 1.794-2.275 2.261c-0.467 0.466-0.869 0.848-0.893 0.848s-0.131-0.185-0.239-0.41zM22.965 18.554c0.077-0.093 0.079-0.27 0.004-0.377-0.050-0.072-0.078-0.079-0.23-0.065-0.125 0.012-0.198 0.042-0.262 0.106-0.082 0.082-0.086 0.098-0.045 0.198 0.025 0.059 0.090 0.146 0.145 0.192 0.085 0.071 0.117 0.079 0.214 0.052 0.063-0.018 0.141-0.065 0.175-0.106zM9.53 18.502c0.076-0.076 0.069-0.246-0.015-0.329-0.081-0.081-0.368-0.098-0.464-0.026-0.099 0.073-0.114 0.251-0.028 0.337 0.093 0.093 0.421 0.105 0.507 0.019zM12.488 15.392c0.134-0.121 0.043-0.497-0.149-0.616-0.146-0.091-0.38 0.115-0.381 0.335-0 0.128 0.087 0.294 0.165 0.315 0.139 0.036 0.304 0.021 0.364-0.034zM19.928 15.144c0.088-0.098 0.092-0.496 0.006-0.582-0.083-0.083-0.279-0.071-0.345 0.023-0.083 0.118-0.073 0.462 0.015 0.551 0.086 0.086 0.25 0.091 0.323 0.009zM16.274 14.352c0.162-0.046 0.203-0.342 0.069-0.498-0.076-0.088-0.105-0.097-0.283-0.091-0.336 0.012-0.442 0.147-0.312 0.399 0.057 0.11 0.304 0.249 0.399 0.224 0.029-0.008 0.085-0.023 0.126-0.035z"></path>
</svg>
