<!-- Generated by IcoMoon.io -->
<svg version="1.1" xmlns="http://www.w3.org/2000/svg" width="32" height="32" viewBox="0 0 32 32">
<title>cities-of-sigmar-anvilgard</title>
<path d="M15.64 31.975c-0.379-0.069-0.639-0.351-0.753-0.818-0.041-0.168-0.067-1.194-0.114-4.477-0.054-3.779-0.054-4.295-0.003-4.573 0.088-0.476 0.202-0.737 0.414-0.955 0.383-0.393 0.87-0.517 1.265-0.322 0.263 0.129 0.592 0.443 0.675 0.641 0.105 0.253 0.124 1.162 0.038 1.83-0.061 0.472-0.066 0.901-0.053 4.297l0.014 3.772-0.107 0.217c-0.153 0.312-0.311 0.392-0.805 0.41-0.208 0.008-0.466-0.002-0.572-0.021zM11.677 31.538c-0.24-0.054-0.735-0.404-0.954-0.676-0.247-0.307-0.484-0.771-0.562-1.101-0.112-0.475-0.039-0.964 0.432-2.907 0.277-1.143 0.443-1.937 0.59-2.83 0.107-0.651 0.168-1.43 0.111-1.43-0.12 0-1.031 0.621-1.911 1.303-0.91 0.706-1.373 1.261-1.281 1.536 0.057 0.172 0.209 0.259 0.448 0.257 0.311-0.003 0.605-0.134 1.074-0.476 0.232-0.169 0.435-0.299 0.452-0.289 0.065 0.040 0.026 0.355-0.069 0.559-0.271 0.582-0.853 1.193-1.366 1.434-0.444 0.209-1.34 0.020-1.791-0.376-0.285-0.25-0.365-1.032-0.165-1.622 0.216-0.64 0.653-1.323 1.27-1.983 0.206-0.22 0.263-0.305 0.227-0.333-0.188-0.149-0.57-0.231-1.314-0.283-0.722-0.050-1.055-0.159-1.599-0.521-1.033-0.687-1.797-1.911-1.872-2.998-0.021-0.296-0.012-0.36 0.075-0.576 0.215-0.531 0.8-1.337 1.134-1.56 0.462-0.309 1.45-0.305 2.060 0.007 0.535 0.274 0.875 0.961 0.692 1.398-0.144 0.345-0.338 0.281-0.781-0.26-0.198-0.241-0.342-0.312-0.632-0.312-0.289 0-0.502 0.101-0.698 0.33-0.431 0.503-0.296 1.268 0.325 1.843 0.315 0.292 0.594 0.45 1.079 0.611 0.838 0.279 1.81 0.224 2.428-0.138 0.374-0.219 0.81-0.822 0.727-1.004-0.021-0.047-0.307-0.375-0.635-0.73-1.040-1.126-1.364-1.563-1.586-2.143-0.587-1.532-0.864-2.047-1.195-2.218-0.143-0.074-0.438-0.072-0.585 0.004-0.184 0.095-0.202 0.196-0.171 0.96 0.033 0.82 0.016 0.888-0.199 0.798-0.257-0.107-0.73-0.466-0.885-0.672-0.183-0.242-0.342-0.666-0.343-0.915-0.003-0.652 0.674-1.595 1.366-1.902 0.333-0.148 1.074-0.004 1.682 0.326 0.345 0.188 0.771 0.616 1.102 1.108 0.281 0.418 0.711 1.257 0.932 1.818 0.068 0.172 0.227 0.516 0.354 0.766 0.255 0.5 0.562 0.868 0.842 1.007 0.373 0.186 0.959 0.178 1.293-0.017 0.571-0.334 0.643-1.259 0.155-1.979-0.092-0.135-0.227-0.331-0.302-0.434-0.105-0.147-0.134-0.225-0.132-0.352 0.005-0.214 0.063-0.32 0.5-0.901 0.405-0.539 0.516-0.766 0.48-0.987-0.032-0.197-0.217-0.488-0.583-0.919-0.648-0.762-0.668-0.866-0.27-1.422 0.834-1.164 2.21-1.966 3.834-2.233 0.565-0.093 1.516-0.082 2.050 0.023 1.018 0.201 1.736 0.603 2.483 1.389 0.339 0.357 0.485 0.628 0.485 0.9 0 0.26-0.106 0.491-0.439 0.953-0.298 0.415-0.55 0.902-0.55 1.064 0 0.062 0.054 0.17 0.134 0.265 0.254 0.304 0.377 1.197 0.372 2.701-0.004 1.121 0.008 1.236 0.154 1.529 0.183 0.365 0.499 0.541 0.996 0.554 0.292 0.008 0.491-0.079 0.821-0.358 0.504-0.426 1.146-1.344 1.624-2.321 0.359-0.733 0.586-1.034 1.071-1.421 0.176-0.14 0.479-0.332 0.672-0.427 1.24-0.606 2.281-0.24 2.58 0.908 0.097 0.374 0.078 0.664-0.064 0.948-0.201 0.402-0.722 0.869-1.011 0.907-0.090 0.012-0.097 0.002-0.086-0.124 0.006-0.075 0.015-0.295 0.019-0.489 0.006-0.295-0.007-0.385-0.085-0.557-0.279-0.621-0.919-0.715-1.34-0.199-0.262 0.321-0.922 1.308-1.801 2.69-0.95 1.494-1.201 1.925-1.202 2.061-0.001 0.128 0.2 0.334 0.457 0.47 0.735 0.389 1.908 0.624 2.934 0.587 0.794-0.028 1.094-0.171 1.295-0.616 0.116-0.256 0.11-0.726-0.012-1.023-0.204-0.495-0.489-0.716-1.001-0.775-0.327-0.037-0.558-0.133-0.578-0.239-0.052-0.269 0.888-0.929 1.502-1.055 0.211-0.043 0.261-0.041 0.419 0.019 0.379 0.145 0.881 0.759 1.133 1.384 0.114 0.284 0.121 0.33 0.122 0.829 0.001 0.384-0.018 0.595-0.067 0.774-0.302 1.092-1.076 2.027-2.077 2.509-0.501 0.241-0.838 0.312-1.659 0.348-1.011 0.045-1.020 0.062-0.408 0.791 0.786 0.938 1.062 1.622 1.016 2.521-0.043 0.848-0.4 1.202-1.262 1.255-0.408 0.025-0.677-0.037-1.027-0.234-0.482-0.272-0.932-0.828-0.9-1.11 0.012-0.107 0.020-0.111 0.208-0.102 0.844 0.041 1.199 0.002 1.49-0.161 0.083-0.047 0.157-0.115 0.164-0.153 0.016-0.082-0.302-0.402-0.776-0.781-0.469-0.375-2.448-1.782-2.766-1.966-0.173-0.1-0.202-0.048-0.203 0.357-0.001 0.498 0.060 0.731 0.35 1.346 0.318 0.673 0.513 1.217 0.668 1.86 0.443 1.845 0.454 3.715 0.027 4.743-0.234 0.564-0.505 0.748-1.145 0.776-0.482 0.021-0.856-0.051-1.257-0.244-0.226-0.108-0.303-0.171-0.435-0.356-0.316-0.441-0.439-0.986-0.363-1.607 0.054-0.442 0.132-0.653 0.263-0.712 0.054-0.024 0.106-0.044 0.117-0.044 0.041 0 0.211 0.438 0.29 0.747 0.136 0.532 0.316 0.814 0.557 0.871 0.153 0.036 0.408-0.041 0.475-0.144 0.107-0.167 0.149-0.697 0.13-1.64-0.021-1.023-0.105-1.582-0.362-2.432-0.298-0.984-0.576-1.58-1.467-3.148-0.701-1.233-0.97-1.636-1.283-1.922-0.337-0.309-0.551-0.402-0.923-0.403-0.282-0.001-0.337 0.012-0.557 0.132-0.732 0.397-1.574 1.73-2.288 3.62-0.269 0.711-0.427 1.254-0.748 2.56-0.383 1.561-0.443 1.837-0.476 2.198-0.046 0.512 0.112 0.772 0.467 0.772 0.336 0 0.591-0.445 0.767-1.338 0.024-0.123 0.060-0.234 0.078-0.245 0.062-0.039 0.192 0.146 0.271 0.387 0.119 0.361 0.205 0.966 0.211 1.489 0.005 0.424-0.003 0.486-0.086 0.642-0.205 0.384-0.707 0.756-1.198 0.888-0.222 0.060-0.508 0.062-0.755 0.007zM14.31 16.869c0.165-0.165 0.105-0.428-0.164-0.727-0.254-0.281-0.561-0.354-0.739-0.175-0.102 0.102-0.101 0.243 0.001 0.372 0.026 0.032 0.093 0.14 0.149 0.239 0.193 0.339 0.562 0.482 0.753 0.291zM18.281 16.823c0.137-0.132 0.205-0.36 0.181-0.611-0.033-0.341-0.208-0.416-0.52-0.223-0.146 0.090-0.33 0.422-0.33 0.594 0 0.144 0.097 0.331 0.185 0.356 0.153 0.044 0.372-0.008 0.484-0.116zM8.555 7.73c-0.017-0.027-0.040-1.378-0.051-3.003l-0.020-2.954-0.226-0.326 0.021-0.557c0.026-0.678 0.061-0.795 0.257-0.849 0.094-0.026 2.271-0.040 6.369-0.040l6.226-0-0.011 1.914c-0.011 1.903-0.011 1.915-0.095 1.999-0.078 0.078-0.139 0.087-0.762 0.111-0.516 0.021-0.706 0.042-0.795 0.091-0.064 0.035-0.206 0.109-0.315 0.163-0.334 0.166-0.448 0.341-0.561 0.856-0.039 0.177-0.090 0.359-0.114 0.404-0.109 0.203-0.412 0.363-0.69 0.364-0.183 0.001-0.41 0.076-0.41 0.136 0 0.030 0.051 0.090 0.113 0.135 0.146 0.104 0.17 0.211 0.122 0.55-0.047 0.335-0.15 0.549-0.322 0.671-0.122 0.087-0.168 0.092-1.027 0.116-0.494 0.014-0.904 0.027-0.911 0.029s-0.064 0.061-0.127 0.13c-0.108 0.118-0.119 0.122-0.181 0.059-0.056-0.056-0.070-0.182-0.090-0.783-0.035-1.062-0.041-1.067-1.251-1.032-0.806 0.023-0.799 0.022-2.044 0.396-1.078 0.324-1.322 0.426-1.934 0.815-0.553 0.351-1.067 0.653-1.11 0.653-0.015 0-0.042-0.022-0.060-0.049zM10.866 5.004c0.070-0.070 0.043-0.117-0.114-0.195-0.165-0.082-0.302-0.382-0.473-1.036-0.139-0.53-0.144-0.574-0.162-1.394l-0.019-0.847 0.203-0.203 4.564 0.011c3.535 0.008 4.589 0.022 4.674 0.059 0.168 0.075 0.223 0.257 0.223 0.742-0 0.664-0.103 0.78-0.704 0.79-0.865 0.015-1.681 0.539-1.681 1.078 0 0.178 0.061 0.296 0.137 0.267 0.032-0.012 0.145-0.142 0.252-0.289 0.223-0.307 0.555-0.553 0.894-0.664 0.122-0.040 0.408-0.091 0.636-0.112 0.754-0.072 0.755-0.074 0.757-1.204 0.001-0.707-0.006-0.797-0.069-0.86-0.066-0.066-0.328-0.070-5.111-0.080l-5.041-0.010v1.82c0 1.719 0.004 1.828 0.075 1.967 0.041 0.081 0.116 0.168 0.166 0.193 0.132 0.066 0.717 0.043 0.792-0.031zM11.703 4.701l0.078-0.107 2.738-0.020c2.509-0.018 2.743-0.025 2.804-0.086 0.055-0.055 0.058-0.077 0.016-0.127-0.045-0.054-0.375-0.061-2.916-0.061-2.553 0-2.872 0.007-2.927 0.061-0.034 0.034-0.061 0.077-0.061 0.097s-0.048 0.046-0.107 0.060c-0.356 0.080-0.401 0.099-0.401 0.171 0 0.099 0.047 0.112 0.397 0.116 0.284 0.003 0.304-0.003 0.378-0.104z"></path>
</svg>
