<!-- Generated by IcoMoon.io -->
<svg version="1.1" xmlns="http://www.w3.org/2000/svg" width="32" height="32" viewBox="0 0 32 32">
<title>cities-of-sigmar-the-phoenicium</title>
<path d="M16.222 31.908c-0.024-0.054-0.092-0.122-0.151-0.152-0.099-0.051-0.106-0.068-0.095-0.249 0.009-0.16 0.026-0.2 0.095-0.231 0.088-0.039 0.1-0.063 0.137-0.287 0.029-0.169 0.184-0.309 0.381-0.344 0.509-0.090 0.641-0.183 0.681-0.483 0.016-0.12 0.043-0.164 0.123-0.202 0.056-0.027 0.102-0.064 0.102-0.082 0-0.16 0.527-0.219 0.671-0.075 0.065 0.065 0.075 0.124 0.075 0.483 0 0.386-0.005 0.411-0.084 0.452-0.046 0.024-0.123 0.091-0.17 0.15-0.070 0.087-0.116 0.107-0.24 0.107-0.084 0-0.209-0.020-0.277-0.045-0.171-0.062-0.2-0.020-0.222 0.329-0.025 0.398-0.039 0.453-0.125 0.48-0.040 0.013-0.095 0.068-0.122 0.124-0.046 0.097-0.060 0.101-0.393 0.111-0.34 0.011-0.345 0.009-0.389-0.087zM14.939 30.874c-0.064-0.067-0.145-0.144-0.181-0.173-0.090-0.072-0.070-0.567 0.027-0.664 0.093-0.093 0.564-0.091 0.705 0.003 0.236 0.157 0.278 0.604 0.065 0.714-0.061 0.031-0.11 0.081-0.11 0.111 0 0.073-0.118 0.131-0.268 0.131-0.091 0-0.155-0.032-0.239-0.121zM16.054 30.166c-0.052-0.058-0.084-0.159-0.1-0.323-0.029-0.291-0.094-0.376-0.288-0.376-0.114 0-0.156 0.021-0.22 0.112-0.077 0.108-0.090 0.112-0.368 0.112-0.174 0-0.306-0.018-0.333-0.045-0.055-0.055-0.060-0.528-0.006-0.629 0.021-0.040 0.065-0.072 0.096-0.072s0.076-0.048 0.098-0.106c0.023-0.060 0.084-0.123 0.143-0.145 0.082-0.031 0.142-0.122 0.296-0.444 0.106-0.223 0.221-0.436 0.255-0.474 0.101-0.113 0.243-0.169 0.496-0.195l0.239-0.025 0.101 0.146c0.088 0.126 0.101 0.183 0.101 0.419 0 0.237-0.016 0.301-0.12 0.491-0.146 0.265-0.127 0.297 0.202 0.335 0.345 0.041 0.365 0.078 0.365 0.671 0 0.627-0.002 0.63-0.515 0.63-0.332 0-0.373-0.008-0.442-0.084zM13.719 29.884c-0.042-0.047-0.062-0.135-0.062-0.281 0-0.177 0.016-0.229 0.091-0.305 0.098-0.098 0.184-0.112 0.33-0.057 0.11 0.042 0.175 0.209 0.175 0.454 0 0.211-0.055 0.257-0.309 0.257-0.112 0-0.184-0.022-0.226-0.068zM18.325 29.749c-0.025-0.054-0.045-0.154-0.045-0.222 0-0.193-0.115-0.308-0.339-0.339-0.348-0.048-0.621-0.42-0.659-0.9l-0.019-0.232 0.165-0.165c0.187-0.187 0.321-0.23 0.593-0.193 0.145 0.020 0.196 0.046 0.234 0.117 0.026 0.051 0.089 0.112 0.139 0.137 0.085 0.042 0.092 0.070 0.112 0.417 0.012 0.204 0.041 0.409 0.066 0.454 0.026 0.048 0.107 0.099 0.192 0.122 0.188 0.051 0.262 0.158 0.262 0.38 0 0.329-0.116 0.451-0.471 0.498-0.174 0.023-0.187 0.019-0.23-0.074zM13.207 28.91c-0.275-0.083-0.444-0.335-0.444-0.66 0-0.198 0.073-0.311 0.201-0.311 0.035 0 0.11-0.049 0.165-0.109 0.128-0.139 0.291-0.168 0.656-0.118 0.241 0.033 0.331 0.067 0.541 0.203 0.277 0.179 0.352 0.298 0.332 0.53-0.013 0.157-0.067 0.199-0.357 0.275-0.093 0.024-0.158 0.064-0.158 0.095 0 0.029-0.032 0.070-0.072 0.092-0.083 0.044-0.719 0.047-0.863 0.003zM19.116 28.45c-0.079-0.068-0.11-0.144-0.149-0.363-0.053-0.295-0.067-0.636-0.031-0.767 0.031-0.117 0.17-0.163 0.487-0.163 0.369 0 0.534 0.087 0.665 0.35 0.072 0.144 0.093 0.245 0.093 0.439 0 0.41-0.065 0.489-0.454 0.552-0.367 0.060-0.498 0.050-0.61-0.047zM14.181 27.326c-0.032-0.039-0.041-0.247-0.032-0.755l0.013-0.701 0.624-2.442c0.343-1.343 0.649-2.497 0.68-2.565 0.085-0.187 0.233-0.231 0.782-0.231 0.534 0 0.668 0.038 0.811 0.229 0.127 0.17 0.167 0.325 0.19 0.729 0.017 0.306 0.071 0.51 0.509 1.919 0.428 1.379 0.514 1.618 0.683 1.911l0.193 0.335 0.014 0.552c0.007 0.304 0.002 0.629-0.012 0.722-0.022 0.146-0.042 0.177-0.144 0.218-0.187 0.076-0.796 0.143-1.162 0.128-0.277-0.012-0.357-0.029-0.457-0.1-0.067-0.047-0.13-0.124-0.142-0.169-0.020-0.082 0.057-0.287 0.207-0.545 0.063-0.109 0.075-0.197 0.075-0.548 0-0.23-0.018-0.501-0.040-0.603s-0.164-0.438-0.315-0.747c-0.329-0.672-0.335-0.69-0.43-1.402-0.064-0.478-0.088-0.572-0.163-0.647-0.070-0.071-0.11-0.083-0.205-0.062-0.214 0.047-0.238 0.119-0.338 1.044-0.060 0.557-0.046 0.827 0.069 1.328 0.113 0.49 0.188 0.68 0.283 0.717 0.048 0.018 0.057 0.106 0.057 0.517-0 0.272-0.017 0.554-0.037 0.626-0.021 0.075-0.113 0.206-0.214 0.306-0.139 0.137-0.226 0.187-0.4 0.232-0.299 0.077-1.036 0.080-1.1 0.004zM12.008 26.904c-0.454-0.599-1.202-1.962-1.533-2.791-0.243-0.61-0.173-0.973 0.495-2.583 0.347-0.834 0.422-1.265 0.251-1.436-0.074-0.074-0.14-0.091-0.438-0.114-1.234-0.094-2.424-0.614-3.652-1.598-0.777-0.622-1.57-1.557-1.784-2.104-0.055-0.141-0.077-0.282-0.077-0.496 0-0.374-0.104-0.618-0.371-0.867-0.196-0.183-0.333-0.258-0.589-0.322-0.137-0.034-0.171-0.064-0.247-0.215-0.256-0.509-0.664-1.785-0.668-2.090-0.001-0.095 0.037-0.289 0.084-0.431 0.072-0.215 0.083-0.305 0.064-0.54-0.042-0.532-0.273-1.267-0.461-1.464l-0.095-0.1 0.043-0.374c0.227-1.951 1.868-5.581 3.381-7.479 0.379-0.476 1.483-1.598 1.611-1.639 0.264-0.083 0.622 0.582 1.715 3.186 0.409 0.974 0.869 2.064 1.023 2.423 0.453 1.058 0.519 1.371 0.36 1.7-0.042 0.087-0.204 0.306-0.36 0.487-0.733 0.852-1.016 1.579-1.017 2.616-0.002 1.735 1.045 3.346 2.795 4.3 0.553 0.301 0.987 0.419 1.338 0.363 0.394-0.063 0.909-0.476 1.121-0.901 0.293-0.586-0.003-1.242-0.719-1.594-0.339-0.166-0.678-0.224-1.298-0.221-0.549 0.003-0.683-0.013-0.861-0.103-0.094-0.047-0.102-0.069-0.102-0.265 0.001-0.411 0.126-0.727 0.404-1.025 0.364-0.39 0.757-0.618 2.335-1.359 1.966-0.923 2.076-0.968 2.143-0.887 0.024 0.029 0.069 0.199 0.1 0.379 0.067 0.387 0.252 0.872 0.626 1.635 0.337 0.688 0.543 1.009 0.7 1.092 0.279 0.147 0.756 0.8 1.060 1.45 0.297 0.636 0.451 0.791 0.739 0.745 0.19-0.031 0.401-0.193 0.841-0.646 0.768-0.79 1.088-1.29 1.207-1.884 0.094-0.467 0.116-1.304 0.042-1.613-0.136-0.574-0.626-1.416-1.102-1.892-0.242-0.242-0.312-0.292-0.447-0.313-0.088-0.014-0.203-0.063-0.256-0.108-0.093-0.080-0.095-0.089-0.052-0.277 0.087-0.377 0.738-1.947 1.694-4.084 1.365-3.052 1.594-3.512 1.726-3.461 0.324 0.124 2.497 3.969 2.945 5.212 0.2 0.554 0.263 0.622 0.675 0.727 0.41 0.104 0.557 0.465 0.648 1.586 0.073 0.899 0.176 1.363 0.372 1.67 0.113 0.178 0.282 0.287 0.448 0.287 0.045 0 0.094 0.037 0.118 0.090 0.074 0.162 0.007 0.335-0.228 0.595-0.254 0.28-0.283 0.382-0.277 0.957 0.007 0.608 0.189 1.22 0.405 1.361 0.116 0.076 0.148 0.176 0.092 0.285-0.151 0.291-0.943 1.152-1.845 2.006-0.513 0.485-1.446 1.701-1.797 2.343-0.3 0.548-0.939 1.105-1.705 1.486-0.412 0.205-0.721 0.297-1.145 0.341-0.555 0.057-0.87 0.237-1.056 0.603-0.359 0.708-0.032 1.968 0.808 3.111 0.075 0.102 0.157 0.255 0.182 0.338 0.039 0.134 0.034 0.181-0.046 0.413-0.168 0.484-1.179 2.226-1.639 2.824-0.23 0.3-0.362 0.409-0.451 0.375-0.103-0.039-0.379-0.519-0.653-1.136-0.846-1.901-1.62-4.494-1.458-4.886 0.051-0.124 0.12-0.157 0.576-0.274 0.699-0.18 1.062-0.441 1.062-0.764 0-0.214-0.177-0.331-0.661-0.439-0.364-0.081-1.64-0.087-3.495-0.016-1.911 0.073-2.172 0.116-2.482 0.405-0.175 0.164-0.407 0.553-0.407 0.684 0 0.103 0.137 0.247 0.293 0.31 0.080 0.032 0.294 0.085 0.476 0.118 0.388 0.070 0.507 0.11 0.688 0.23 0.201 0.133 0.228 0.223 0.167 0.543-0.098 0.513-0.405 1.52-1.020 3.345-0.685 2.035-0.846 2.386-1.090 2.386-0.086 0-0.138-0.041-0.269-0.214zM21.836 17.764c0.121-0.046 0.166-0.214 0.129-0.483-0.030-0.222-0.422-1.072-0.566-1.227-0.14-0.151-0.278-0.204-0.399-0.155-0.151 0.063-0.196 0.206-0.18 0.579 0.011 0.27 0.025 0.33 0.088 0.373 0.149 0.103 0.168 0.134 0.168 0.273 0 0.19 0.096 0.502 0.177 0.573 0.112 0.099 0.409 0.134 0.584 0.067zM10.608 17.443c0.053-0.040 0.177-0.232 0.274-0.427 0.153-0.306 0.18-0.393 0.195-0.637 0.020-0.318-0.018-0.428-0.167-0.484-0.133-0.051-0.347 0.021-0.347 0.117 0 0.044-0.034 0.079-0.088 0.093-0.101 0.026-0.172 0.156-0.172 0.318 0 0.088-0.028 0.128-0.131 0.189-0.172 0.101-0.195 0.151-0.225 0.487-0.024 0.26-0.019 0.288 0.058 0.365 0.072 0.072 0.114 0.081 0.295 0.068 0.132-0.010 0.248-0.043 0.309-0.088zM9.123 16.797c0.038-0.033 0.094-0.123 0.124-0.198s0.112-0.181 0.182-0.235c0.103-0.078 0.127-0.123 0.127-0.229 0-0.099 0.028-0.159 0.112-0.237 0.077-0.072 0.123-0.16 0.145-0.281 0.022-0.118 0.065-0.202 0.13-0.255 0.053-0.044 0.107-0.132 0.12-0.198 0.018-0.096 0.004-0.137-0.073-0.214s-0.132-0.096-0.281-0.096c-0.337 0-0.453 0.082-0.541 0.384-0.057 0.195-0.148 0.312-0.311 0.395-0.046 0.024-0.094 0.084-0.107 0.135-0.014 0.055-0.050 0.092-0.089 0.092-0.037 0-0.106 0.032-0.154 0.071-0.081 0.066-0.088 0.098-0.088 0.427 0 0.28 0.013 0.369 0.061 0.417 0.131 0.131 0.502 0.143 0.642 0.021zM23.44 16.809c0.117-0.117 0.11-0.231-0.035-0.597-0.156-0.393-0.235-0.512-0.395-0.595-0.060-0.031-0.109-0.081-0.109-0.111s-0.068-0.097-0.15-0.149c-0.104-0.065-0.157-0.129-0.173-0.206-0.032-0.163-0.209-0.296-0.391-0.296-0.303 0-0.388 0.116-0.308 0.422 0.069 0.264 0.176 0.449 0.369 0.64 0.109 0.108 0.186 0.24 0.277 0.476 0.161 0.418 0.227 0.471 0.587 0.473 0.195 0.001 0.284-0.015 0.326-0.057zM24.738 15.796c0.032-0.036 0.064-0.132 0.071-0.214 0.012-0.139 0.004-0.152-0.127-0.215-0.077-0.036-0.14-0.092-0.14-0.123s-0.059-0.091-0.131-0.134c-0.072-0.042-0.131-0.098-0.131-0.125s-0.055-0.090-0.121-0.141c-0.078-0.060-0.145-0.162-0.189-0.287-0.053-0.152-0.091-0.202-0.176-0.232s-0.113-0.066-0.13-0.174c-0.043-0.271-0.057-0.301-0.158-0.349-0.056-0.027-0.107-0.085-0.114-0.129-0.017-0.121-0.125-0.144-0.206-0.044-0.091 0.112-0.061 0.312 0.11 0.736 0.132 0.329 0.232 0.47 0.359 0.511 0.045 0.014 0.122 0.132 0.202 0.308 0.135 0.298 0.251 0.453 0.336 0.453 0.028 0 0.061 0.029 0.074 0.065 0.045 0.126 0.097 0.158 0.253 0.158 0.103 0 0.178-0.023 0.216-0.065zM7.709 15.666c0.032-0.046 0.058-0.121 0.058-0.169 0-0.056 0.031-0.097 0.087-0.119 0.087-0.033 0.117-0.083 0.298-0.495 0.068-0.156 0.118-0.219 0.185-0.236 0.226-0.057 0.502-0.539 0.535-0.936 0.019-0.229 0.013-0.263-0.060-0.328-0.138-0.124-0.45-0.070-0.45 0.078 0 0.029-0.041 0.071-0.090 0.093-0.057 0.026-0.125 0.12-0.183 0.255-0.072 0.167-0.118 0.223-0.207 0.254-0.072 0.025-0.122 0.073-0.137 0.132-0.014 0.056-0.059 0.101-0.113 0.115-0.056 0.014-0.11 0.071-0.144 0.152-0.030 0.071-0.071 0.13-0.091 0.13-0.077 0-0.154 0.123-0.154 0.246 0 0.098-0.032 0.161-0.13 0.26s-0.13 0.162-0.13 0.258c0 0.284 0.123 0.382 0.492 0.389 0.141 0.003 0.186-0.013 0.233-0.079zM6.537 14.21c0.072-0.042 0.349-0.289 0.615-0.547 0.322-0.313 0.541-0.494 0.652-0.541 0.092-0.039 0.229-0.118 0.305-0.176 0.158-0.121 0.309-0.402 0.274-0.51-0.036-0.113-0.24-0.164-0.48-0.119-0.35 0.065-0.529 0.171-1.093 0.649-0.14 0.119-0.36 0.266-0.489 0.326-0.156 0.074-0.258 0.151-0.307 0.231-0.143 0.235-0.060 0.658 0.15 0.763 0.105 0.052 0.185 0.036 0.373-0.075zM25.804 14.292c0.199-0.069 0.202-0.285 0.009-0.716-0.116-0.258-0.213-0.341-0.506-0.434-0.247-0.078-0.296-0.111-0.358-0.244-0.039-0.084-0.132-0.151-0.369-0.27-0.689-0.344-1.188-0.421-1.192-0.185-0 0.016 0.056 0.063 0.125 0.104 0.082 0.048 0.134 0.112 0.148 0.182 0.018 0.090 0.056 0.12 0.237 0.188 0.288 0.107 0.384 0.173 0.384 0.266 0 0.051 0.037 0.091 0.111 0.119 0.064 0.024 0.125 0.082 0.142 0.135 0.025 0.074 0.069 0.101 0.215 0.132 0.149 0.032 0.186 0.055 0.196 0.125 0.007 0.050 0.050 0.1 0.103 0.12 0.081 0.031 0.157 0.152 0.217 0.345 0.023 0.073 0.217 0.172 0.343 0.174 0.043 0.001 0.131-0.017 0.196-0.040zM26.612 12.691c0.134-0.126 0.126-0.305-0.020-0.409-0.061-0.044-0.112-0.102-0.112-0.13 0-0.092-0.187-0.274-0.327-0.32-0.076-0.025-0.218-0.085-0.314-0.133s-0.216-0.088-0.265-0.088c-0.126 0-0.845-0.217-0.955-0.288-0.121-0.078-0.403-0.085-0.449-0.010-0.019 0.031-0.026 0.089-0.014 0.13 0.050 0.179 0.159 0.263 0.54 0.42 0.276 0.113 0.42 0.195 0.5 0.285 0.069 0.079 0.161 0.136 0.242 0.152 0.231 0.044 0.252 0.057 0.275 0.171 0.016 0.079 0.058 0.129 0.144 0.169 0.067 0.031 0.164 0.081 0.215 0.112 0.136 0.081 0.426 0.048 0.542-0.061zM6.668 12.193c1.065-0.527 1.323-0.684 1.323-0.804 0-0.172-0.184-0.179-0.913-0.035-0.923 0.182-1.292 0.344-1.661 0.728-0.22 0.23-0.23 0.248-0.211 0.39 0.051 0.38 0.182 0.355 1.462-0.279zM5.828 10.873c0.060-0.065 0.131-0.119 0.157-0.119s0.502-0.050 1.055-0.112c1.139-0.126 1.185-0.141 1.204-0.398 0.018-0.237-0-0.241-0.78-0.199-1.507 0.083-2.211 0.156-2.411 0.251-0.281 0.134-0.338 0.611-0.082 0.688 0.051 0.015 0.24 0.023 0.42 0.018 0.315-0.010 0.331-0.014 0.436-0.129zM27.045 10.906c0.186-0.23-0.043-0.553-0.398-0.559-0.083-0.001-0.527-0.053-0.988-0.114-1-0.133-1.828-0.155-1.944-0.050-0.090 0.081-0.086 0.18 0.010 0.27 0.058 0.054 0.155 0.079 0.363 0.097 0.626 0.052 1.587 0.239 1.906 0.372 0.188 0.078 0.278 0.089 0.648 0.080 0.295-0.008 0.339-0.018 0.401-0.094zM8.44 9.254c0.297-0.15 0.243-0.339-0.14-0.494-0.139-0.056-0.394-0.17-0.567-0.253-0.292-0.141-0.356-0.156-0.932-0.221-0.34-0.039-0.897-0.080-1.239-0.091l-0.62-0.021-0.056 0.088c-0.073 0.117-0.112 0.447-0.067 0.567 0.020 0.052 0.075 0.117 0.122 0.143 0.082 0.045 2.749 0.353 3.144 0.362 0.128 0.003 0.241-0.022 0.354-0.079zM25.442 9.136c0.812-0.090 1.512-0.182 1.555-0.205 0.091-0.049 0.136-0.24 0.107-0.454-0.031-0.231-0.071-0.257-0.395-0.257-0.662 0.001-1.125 0.070-2.146 0.322-1.116 0.275-1.206 0.318-1.161 0.543 0.037 0.185 0.084 0.215 0.335 0.215 0.126-0 0.893-0.074 1.706-0.164zM8.849 7.977c0.072-0.087 0.056-0.223-0.048-0.399-0.145-0.246-1.933-2.201-2.136-2.335-0.188-0.124-0.206-0.13-0.349-0.118-0.349 0.030-0.488 0.586-0.259 1.032 0.114 0.222 0.74 0.792 1.3 1.183 0.392 0.274 1.217 0.692 1.365 0.693 0.044 0 0.1-0.025 0.126-0.056zM23.73 7.854c0.567-0.292 1.406-0.906 1.847-1.35 0.223-0.225 0.42-0.459 0.461-0.55 0.072-0.157 0.072-0.16-0-0.323-0.097-0.22-0.363-0.506-0.471-0.506-0.141 0-0.453 0.278-1.367 1.216-0.922 0.946-1.054 1.123-1.054 1.412 0 0.339 0.092 0.355 0.584 0.101z"></path>
</svg>
