<!-- Generated by IcoMoon.io -->
<svg version="1.1" xmlns="http://www.w3.org/2000/svg" width="32" height="32" viewBox="0 0 32 32">
<title>cities-of-sigmar-hammerhal</title>
<path d="M13.59 31.967c-0.238-0.047-0.453-0.171-0.511-0.293-0.083-0.176-0.092-0.822-0.020-1.436 0.083-0.71 0.127-4.155 0.060-4.768-0.067-0.614-0.131-0.866-0.617-2.437-0.604-1.949-0.805-2.478-1.338-3.525-0.323-0.634-0.612-1.060-0.87-1.282-0.427-0.367-0.407-0.462 0.396-1.948 0.322-0.595 0.539-1.159 0.635-1.651 0.032-0.164 0.102-0.67 0.156-1.124 0.11-0.935 0.13-1.016 0.318-1.302 0.242-0.367 0.644-0.612 1.36-0.828 0.539-0.163 0.778-0.2 1.748-0.274 1.288-0.098 1.638-0.081 2.796 0.135 1.568 0.292 2.127 0.532 2.291 0.986 0.036 0.099 0.065 0.465 0.089 1.11 0.059 1.597 0.126 1.86 0.842 3.29 0.518 1.036 0.605 1.236 0.658 1.524 0.051 0.275-0.011 0.514-0.216 0.845-0.093 0.15-0.239 0.418-0.324 0.596-0.176 0.368-2.067 6.288-2.205 6.903-0.084 0.375-0.086 0.443-0.086 2.636 0 2.183-0.002 2.255-0.077 2.382-0.096 0.164-0.263 0.227-0.608 0.231-0.348 0.004-0.47-0.062-0.587-0.317-0.089-0.195-0.092-0.234-0.132-1.911-0.022-0.942-0.058-1.972-0.081-2.289-0.052-0.741-0.321-2.715-0.403-2.951-0.034-0.1-0.127-0.254-0.205-0.342-0.125-0.141-0.17-0.164-0.361-0.19-0.7-0.095-1.285 0.212-1.572 0.825-0.234 0.5-0.233 0.484-0.26 3.851l-0.025 3.078-0.092 0.186c-0.149 0.302-0.34 0.376-0.761 0.293zM16.904 21.302c-0.019-0.49-0.008-0.782 0.052-1.352 0.107-1.017 0.112-1.022 0.951-1.023 0.592-0.001 0.849-0.048 1.137-0.209 0.221-0.124 0.297-0.207 0.327-0.358 0.039-0.196-0.036-0.211-0.821-0.165-1.123 0.066-1.345 0.117-1.441 0.33-0.024 0.052-0.071 0.094-0.105 0.094-0.113 0-0.227 0.113-0.327 0.325l-0.099 0.209v1.176c0 1.454 0.054 1.342-0.631 1.323-0.438-0.012-0.482-0.020-0.63-0.118-0.122-0.081-0.169-0.144-0.204-0.269-0.078-0.288-0.11-0.648-0.111-1.265-0.001-0.495-0.012-0.61-0.061-0.651s-0.071-0.038-0.125 0.016c-0.057 0.057-0.067 0.185-0.078 1.055-0.014 1.078 0.016 1.351 0.158 1.451 0.069 0.048 0.251 0.058 1.057 0.058h0.974zM14.989 18.979c0.008-0.024-0.037-0.064-0.1-0.090-0.143-0.059-0.241-0.166-0.292-0.317-0.041-0.121-0.074-0.138-0.732-0.378-0.408-0.149-1.297-0.145-1.449 0.007-0.102 0.102-0.077 0.225 0.064 0.302 0.063 0.035 0.122 0.097 0.129 0.138 0.023 0.127 0.122 0.203 0.366 0.281 0.352 0.114 0.33 0.112 1.195 0.106 0.552-0.004 0.809-0.019 0.819-0.048zM11.846 29.98c-0.553-0.094-1.475-0.453-1.905-0.741-0.215-0.145-0.658-0.554-1.476-1.364-1.644-1.63-1.947-1.989-2.478-2.946-0.496-0.893-0.536-1.023-0.935-3.039-0.455-2.297-0.454-2.287-0.454-3.059-0-0.747 0.016-0.863 0.305-2.238 0.251-1.193 0.339-1.47 0.585-1.835 0.179-0.267 1.894-2.734 2.224-3.199 0.256-0.361 0.562-0.697 1.029-1.129 0.83-0.766 1.298-1.063 2.382-1.511 0.871-0.36 1.261-0.492 1.915-0.649 1.141-0.274 2.222-0.38 3.187-0.312 0.676 0.048 0.729 0.057 2.122 0.37 1.52 0.341 1.793 0.442 2.718 1.006 0.774 0.472 1.19 0.806 2.079 1.67 1.019 0.99 1.32 1.348 1.606 1.915 0.181 0.359 1.392 3.168 1.478 3.43 0.15 0.458 0.199 0.779 0.275 1.827 0.085 1.166 0.097 1.986 0.035 2.427-0.047 0.34-0.535 2.411-0.657 2.786-0.245 0.759-0.97 2.204-1.36 2.712-0.291 0.379-2.341 2.406-2.597 2.568-0.649 0.411-1.372 0.624-1.863 0.551-0.27-0.040-0.272-0.056-0.272-1.811 0-1.674 0.004-1.72 0.274-2.943 0.19-0.861 0.343-1.42 0.512-1.878 0.149-0.402 1.328-3.062 1.448-3.267 0.169-0.289 0.462-0.607 0.802-0.872 0.593-0.463 0.584-0.616-0.067-1.109-1.023-0.773-1.208-1.020-1.481-1.973-0.265-0.922-0.284-1.069-0.311-2.366-0.026-1.277-0.039-1.353-0.265-1.591-0.141-0.149-0.171-0.163-1.506-0.707-1.59-0.647-1.538-0.636-2.889-0.655-1.555-0.023-1.66-0.007-3.957 0.609-1.010 0.27-1.368 0.468-1.564 0.864-0.070 0.14-0.076 0.242-0.081 1.268-0.005 1.109-0.027 1.356-0.157 1.77-0.073 0.232-0.594 1.396-0.727 1.625-0.166 0.286-0.462 0.609-0.816 0.892-0.389 0.311-0.543 0.506-0.572 0.727-0.047 0.351 0.107 0.586 0.948 1.45 0.653 0.67 1.020 1.122 1.261 1.551 0.157 0.28 0.958 2.127 1.147 2.646 0.187 0.512 0.299 0.952 0.536 2.1 0.325 1.578 0.353 2.119 0.172 3.34-0.086 0.583-0.178 0.883-0.314 1.029-0.078 0.084-0.135 0.094-0.337 0.060zM27.795 19.516c-0.142-0.041-0.256-0.14-0.333-0.291-0.051-0.101-0.147-0.568-0.285-1.397-0.266-1.593-0.395-2.119-0.87-3.557-0.666-2.012-0.696-2.059-2.49-3.85-0.733-0.732-1.439-1.411-1.57-1.51-0.871-0.66-2.458-1.402-3.667-1.716-1.026-0.266-1.179-0.289-1.943-0.287-0.648 0.001-0.761 0.013-1.751 0.183-1.573 0.27-1.856 0.356-3.463 1.045-1.629 0.699-2.030 0.911-2.749 1.454-0.42 0.317-2.393 2.277-2.695 2.678-0.38 0.504-0.627 1.026-1.038 2.197-0.749 2.131-0.831 2.435-0.904 3.342-0.030 0.373-0.060 0.524-0.139 0.699-0.197 0.438-0.34 0.5-1.162 0.502-1.049 0.002-2.393-0.266-2.393-0.477 0-0.101 0.462-0.336 1.179-0.601 0.515-0.191 0.707-0.307 1.046-0.634 0.498-0.481 0.499-0.484 1.319-2.944 0.567-1.701 0.742-2.271 0.755-2.464 0.020-0.286-0.032-0.534-0.337-1.601-0.3-1.049-0.516-1.373-1.328-1.987-0.588-0.444-0.654-0.505-0.614-0.569 0.090-0.146 1.47 0.108 2.075 0.382 0.461 0.209 0.862 0.533 1.052 0.85 0.139 0.232 0.397 0.454 0.574 0.494 0.34 0.076 0.669-0.058 1.491-0.607 0.276-0.184 0.745-0.48 1.041-0.658 0.787-0.471 1.226-0.953 1.422-1.564 0.123-0.383 0.383-0.628 0.667-0.628 0.063 0 0.215 0.046 0.337 0.102 0.173 0.079 0.302 0.106 0.581 0.121 0.472 0.025 0.703-0.025 1.514-0.324 1.241-0.458 1.591-0.684 1.713-1.108 0.062-0.214 0.062-0.248 0.002-0.554-0.035-0.179-0.121-0.475-0.191-0.657-0.322-0.84-0.347-1.322-0.1-1.963 0.315-0.817 1.131-1.725 1.443-1.605 0.080 0.031 0.072 0.327-0.014 0.553-0.039 0.101-0.158 0.317-0.265 0.48-0.322 0.491-0.352 0.828-0.129 1.457 0.194 0.547 0.919 2.232 1.029 2.392 0.225 0.325 0.691 0.666 1.065 0.779 0.103 0.031 0.665 0.144 1.25 0.252 1.773 0.326 1.887 0.367 2.371 0.864 0.17 0.174 0.439 0.402 0.597 0.508 0.582 0.386 2.114 1.286 2.289 1.346 0.324 0.11 0.396 0.066 1.249-0.772 0.877-0.861 1.072-1.027 1.363-1.161 0.267-0.122 0.754-0.149 0.855-0.048 0.090 0.090 0.048 0.196-0.59 1.474-0.767 1.536-0.984 1.888-1.253 2.039-0.065 0.036-0.062 0.059 0.046 0.377 0.063 0.186 0.726 1.736 1.473 3.443l1.358 3.104 0.289 0.292c0.364 0.369 0.62 0.496 1.27 0.63 0.77 0.159 1.323 0.289 1.383 0.327 0.255 0.159-0.766 0.69-1.787 0.928-0.671 0.157-1.845 0.295-2.038 0.241z"></path>
</svg>
