<!-- Generated by IcoMoon.io -->
<svg version="1.1" xmlns="http://www.w3.org/2000/svg" width="32" height="32" viewBox="0 0 32 32">
<title>factions-chaos-tarantulos-brood</title>
<path d="M9.677 18.024c-0.116-0.264-0.309-0.513-0.566-0.612-0.343-0.132-0.951 0.032-1.425 0-0.792-0.053-2.455-0.158-3.326-0.317-0.657-0.119-1.338-0.273-1.901-0.633-0.66-0.422-1.716-1.426-2.059-1.901-0.185-0.257-0.238-0.95 0-0.95s0.95 0.686 1.426 0.95c0.454 0.252 0.91 0.562 1.425 0.633 0.765 0.106 2.244 0.106 3.168 0 0.814-0.093 1.821-0.37 2.376-0.633 0.404-0.193 0.792-0.607 0.95-0.95 0.155-0.336 0.147-0.77 0-1.109-0.185-0.426-0.758-0.95-1.109-1.445-0.449-0.634-1.214-1.673-1.584-2.356-0.294-0.543-0.422-1.267-0.634-1.742-0.173-0.389-0.6-0.684-0.633-1.109-0.053-0.66 0.106-2.851 0.317-2.851s0.528 2.191 0.95 2.851c0.347 0.543 1.095 0.689 1.584 1.109 0.554 0.475 1.036 1.324 1.742 1.742 0.713 0.422 1.874 0.66 2.534 0.792 0.466 0.093 1.28 0.452 1.425 0 0.238-0.739 0-4.435 0-4.435s0.444-1.787 0.95-2.534c0.554-0.818 2.138-2.455 2.376-2.376s-0.831 1.856-0.95 2.851c-0.158 1.32-0.158 3.986 0 5.068 0.083 0.565 0.634 1.109 0.95 1.425 0.25 0.25 0.596 0.475 0.95 0.475 0.396 0 1.025-0.175 1.426-0.475 0.528-0.396 1.055-1.389 1.746-1.901 0.713-0.528 1.604-1.091 2.531-1.267 1.108-0.211 3.986-0.29 4.118 0s-2.376 0.954-3.326 1.742c-0.95 0.789-1.822 2.25-2.376 2.989-0.345 0.461-0.867 1.020-0.947 1.445-0.073 0.395 0.314 0.845 0.472 1.109 0.115 0.192 0.256 0.427 0.475 0.475 0.713 0.158 2.745 0.29 3.801 0.475 0.858 0.15 1.77 0.216 2.534 0.633 0.871 0.475 2.693 1.953 2.693 2.217s-1.776-0.532-2.693-0.633c-0.95-0.106-2.085-0.106-3.009 0-0.865 0.099-1.901 0.396-2.534 0.633-0.466 0.175-1.056 0.449-1.267 0.792s-0.079 0.871 0 1.267c0.079 0.394 0.252 0.774 0.475 1.109 0.475 0.713 1.822 2.112 2.376 3.168 0.512 0.976 0.792 2.402 0.95 3.168 0.096 0.465 0.079 1.082 0 1.425-0.059 0.257-0.329 0.853-0.475 0.634-0.158-0.238-0.16-1.429-0.475-2.059-0.343-0.686-0.98-1.439-1.584-2.059-0.742-0.762-2.132-2.039-2.871-2.514-0.448-0.288-1.145-0.337-1.564-0.337-0.336 0-0.713 0.125-0.95 0.337s-0.411 0.588-0.475 0.93c-0.079 0.419 0.053 1.082 0 1.584-0.051 0.484-0.207 0.951-0.317 1.425-0.158 0.686-0.29 1.874-0.634 2.693-0.34 0.81-1.029 1.742-1.425 2.217-0.244 0.292-0.871 0.792-0.95 0.633s0.438-1.034 0.475-1.584c0.079-1.161 0-5.385 0-5.385s-0.29-1.165-0.475-1.584c-0.151-0.343-0.396-0.719-0.633-0.93-0.214-0.191-0.505-0.337-0.792-0.337-0.317 0-0.78 0.134-1.109 0.337-0.343 0.211-0.647 0.607-0.95 0.93-0.343 0.366-0.66 0.93-1.109 1.267-0.528 0.396-1.399 0.818-2.059 1.109-0.611 0.269-1.233 0.634-1.901 0.634-0.739 0-2.534-0.396-2.534-0.634s1.795-0.396 2.534-0.792c0.727-0.389 1.37-0.952 1.901-1.584 0.554-0.66 1.082-1.742 1.425-2.376 0.248-0.457 0.528-0.977 0.634-1.426 0.073-0.31 0.096-0.678 0.057-0.988 0.232 0.707 0.629 1.373 1.122 1.925 1.482 1.656 2.868 2.012 5.030 2.012 1.622 0 3.647-0.54 4.628-2.012 0.624-0.936 0.832-2.108 1.006-3.219 0.166-1.060 0.295-2.187 0-3.219-0.488-1.706-2.73-3.558-4.427-3.823-1.157-0.181-2.522-0.403-3.622 0-0.93 0.341-2.032 1.213-2.616 2.012-0.788 1.079-1.006 2.301-1.207 3.622-0.092 0.741-0.188 1.514-0.040 2.244zM11.040 15.68c0.16-1.051 0.333-2.022 0.96-2.88 0.465-0.636 1.341-1.329 2.080-1.6 0.875-0.321 1.96-0.144 2.88 0 1.349 0.211 3.132 1.683 3.52 3.040 0.234 0.82 0.132 1.717 0 2.56-0.138 0.883-0.304 1.816-0.8 2.56-0.78 1.171-2.39 1.6-3.68 1.6-1.719 0-2.821-0.283-4-1.6-0.446-0.498-0.791-1.113-0.96-1.76-0.162-0.619-0.079-1.285 0-1.92z"></path>
</svg>
