<!-- Generated by IcoMoon.io -->
<svg version="1.1" xmlns="http://www.w3.org/2000/svg" width="32" height="32" viewBox="0 0 32 32">
<title>factions-chaos-cypher-lords</title>
<path d="M15.501 31.312c-0.173-0.195-0.235-0.409-0.19-0.677 0.056-0.329 0.016-0.658-0.089-0.979-0.033-0.099-0.013-0.216-0.013-0.325-0.001-0.149 0.004-0.3 0.001-0.449-0.008-0.571-0.154-1.115-0.292-1.664-0.129-0.512-0.139-1.053-0.232-1.575-0.142-0.788-0.311-1.571-0.467-2.357-0.018-0.088-0.028-0.178-0.029-0.266-0.001-0.151-0.002-0.302 0.014-0.451 0.090-0.822-0.117-1.592-0.404-2.347-0.073-0.192-0.148-0.383-0.217-0.576-0.013-0.036-0.001-0.082-0.001-0.123 0.040 0.008 0.095 0 0.118 0.024 0.191 0.208 0.427 0.262 0.698 0.233 0.058-0.006 0.124 0.033 0.179 0.064 0.174 0.099 0.356 0.138 0.56 0.138 0.431-0.001 0.847-0.048 1.249-0.22 0.187-0.080 0.394-0.112 0.592-0.167 0.187-0.051 0.373-0.108 0.56-0.157 0.036-0.010 0.079 0.003 0.152 0.006-0.033 0.075-0.044 0.149-0.087 0.19-0.157 0.147-0.24 0.334-0.344 0.517-0.323 0.566-0.442 1.2-0.659 1.801-0.031 0.085 0.003 0.192-0.006 0.289s-0.028 0.195-0.049 0.291c-0.020 0.093-0.060 0.184 0.045 0.257 0.016 0.011 0.014 0.063 0.009 0.093-0.124 0.751-0.26 1.5-0.373 2.252-0.069 0.459-0.082 0.928-0.159 1.386-0.063 0.374-0.186 0.737-0.279 1.106-0.152 0.604-0.184 1.217-0.122 1.836 0.053 0.51-0.048 1.010-0.092 1.514-0.010 0.114-0.031 0.227-0.046 0.341-0.008-0.005-0.018-0.005-0.028-0.005z"></path>
<path d="M23.842 13.395c0.005 0.166-0.001 0.31 0.18 0.341 0.004 0.001 0.009 0.006 0.010 0.010 0.046 0.11 0.093 0.217 0.221 0.265 0.112 0.041 0.217 0.099 0.339 0.157-0.063 0.116 0.025 0.158 0.108 0.197 0.131 0.060 0.228 0.129 0.233 0.296 0.001 0.055 0.080 0.128 0.141 0.157 0.236 0.117 0.481 0.11 0.703-0.029 0.073-0.045 0.131-0.152 0.147-0.24 0.031-0.171 0.029-0.348 0.041-0.522 0.428 0.072 0.851 0.142 1.275 0.211 0.069 0.011 0.138 0.023 0.208 0.025 0.512 0.014 1.024 0.019 1.535 0.041 0.193 0.009 0.399 0.023 0.575 0.095 0.37 0.152 0.753 0.2 1.145 0.22 0.064 0.004 0.124 0.048 0.187 0.070 0.088 0.030 0.177 0.075 0.267 0.083 0.215 0.018 0.432 0.011 0.646 0.028 0.068 0.005 0.166 0.036 0.191 0.085 0.036 0.073-0.104 0.206-0.206 0.215-0.050 0.004-0.1 0.005-0.151 0-0.626-0.060-1.24 0.040-1.854 0.149-0.616 0.109-1.248 0.168-1.848 0.335-0.921 0.256-1.856 0.412-2.798 0.552-0.157 0.024-0.309 0.083-0.464 0.12-0.067 0.016-0.141 0.029-0.206 0.018-0.051-0.009-0.097-0.058-0.144-0.088 0.031-0.038 0.072-0.073 0.094-0.116 0.033-0.061 0.083-0.134 0.072-0.192-0.039-0.201-0.092-0.402-0.158-0.595-0.082-0.235-0.285-0.318-0.508-0.205-0.148 0.075-0.261 0.068-0.379-0.048-0.149-0.147-0.302-0.29-0.461-0.425-0.054-0.046-0.128-0.078-0.198-0.1-0.2-0.064-0.405-0.113-0.602-0.184-0.116-0.043-0.221-0.114-0.33-0.176-0.163-0.093-0.32-0.2-0.489-0.28-0.281-0.132-0.565-0.261-0.857-0.367-0.565-0.203-1.131-0.404-1.706-0.577-0.211-0.064-0.449-0.034-0.669-0.074-0.364-0.067-0.728-0.143-1.083-0.242-0.142-0.040-0.29-0.131-0.387-0.24-0.177-0.202-0.329-0.429-0.469-0.66-0.056-0.093-0.063-0.22-0.075-0.334-0.004-0.031 0.044-0.084 0.080-0.1 0.248-0.119 0.493-0.088 0.741 0.020 0.117 0.051 0.247 0.104 0.372 0.104 0.758-0.002 1.497 0.122 2.234 0.284 0.157 0.034 0.316 0.070 0.474 0.069 0.215-0.001 0.399 0.069 0.586 0.158 0.566 0.267 1.143 0.515 1.702 0.797 0.256 0.129 0.483 0.318 0.713 0.492 0.050 0.038 0.080 0.134 0.078 0.203-0.010 0.241 0.075 0.311 0.314 0.281 0.161-0.020 0.289-0.049 0.341-0.221 0.003-0.023 0.040-0.033 0.090-0.065z"></path>
<path d="M0 14.919c0.049-0.029 0.097-0.078 0.149-0.084 0.264-0.031 0.528-0.051 0.792-0.078 0.039-0.004 0.099-0.004 0.113-0.028 0.077-0.137 0.212-0.12 0.33-0.129 0.792-0.059 1.548-0.248 2.288-0.537 0.383-0.149 0.808-0.186 1.212-0.285 0.311-0.077 0.62-0.163 0.924-0.264 0.119-0.039 0.223-0.127 0.353-0.203 0.005 0.008 0.036 0.049 0.041 0.058-0.073 0.167-0.144 0.305-0.192 0.451-0.040 0.123 0.039 0.172 0.154 0.169 0.050-0.001 0.1-0.001 0.149-0.010 0.191-0.038 0.383-0.072 0.572-0.119 0.085-0.021 0.171-0.062 0.245-0.11 0.338-0.223 0.669-0.456 1.005-0.682 0.053-0.035 0.113-0.069 0.174-0.083 0.398-0.097 0.776-0.233 1.101-0.493 0.043-0.034 0.095-0.054 0.146-0.078 0.217-0.104 0.217-0.103 0.363 0.079 0.119 0.149 0.29 0.158 0.407 0.006s0.269-0.243 0.448-0.282c0.925-0.205 1.849-0.409 2.776-0.601 0.223-0.046 0.458-0.045 0.687-0.073 0.088-0.010 0.176-0.035 0.261-0.064 0.313-0.105 0.624-0.216 0.975-0.339-0.036 0.11-0.051 0.193-0.089 0.264-0.161 0.295-0.324 0.589-0.496 0.877-0.083 0.139-0.221 0.245-0.237 0.425-0.002 0.030-0.082 0.072-0.128 0.077-0.727 0.082-1.45 0.184-2.171 0.314-0.522 0.093-1.024 0.271-1.55 0.333-0.526 0.063-1.004 0.26-1.474 0.492-0.102 0.050-0.217 0.074-0.328 0.107-0.605 0.178-1.116 0.518-1.584 0.929-0.171 0.149-0.387 0.261-0.457 0.505-0.003 0.009-0.010 0.018-0.018 0.024-0.218 0.225-0.217 0.261 0 0.492 0.055 0.059 0.119 0.11 0.161 0.178 0.025 0.041 0.014 0.104 0.019 0.157-0.050 0.005-0.117 0.033-0.147 0.010-0.142-0.102-0.299-0.112-0.461-0.094-0.311 0.033-0.562-0.064-0.746-0.324-0.079-0.113-0.192-0.164-0.328-0.138-0.523 0.102-0.988-0.016-1.441-0.3-0.354-0.221-0.764-0.28-1.19-0.314-0.655-0.051-1.325-0.028-1.962-0.251-0.205-0.072-0.403-0.033-0.597 0.058-0.067 0.031-0.149 0.026-0.225 0.039-0.011-0.025-0.019-0.053-0.028-0.079z"></path>
<path d="M14.142 10.641c0.152-0.344 0.296-0.674 0.444-1.003 0.159-0.353 0.236-0.724 0.251-1.108 0.014-0.37 0.028-0.736 0.158-1.096 0.070-0.195 0.035-0.427 0.053-0.641 0.050-0.645 0.11-1.29 0.151-1.935 0.067-1.066 0.118-2.134 0.181-3.199 0.015-0.255 0.041-0.51 0.074-0.763 0.009-0.073 0.058-0.141 0.089-0.212 0.015 0.001 0.030 0.002 0.044 0.004 0.014 0.054 0.034 0.107 0.039 0.161 0.090 1.024 0.178 2.050 0.267 3.074 0.002 0.030-0.002 0.064 0.010 0.089 0.216 0.432 0.176 0.911 0.264 1.366 0.182 0.934 0.212 1.891 0.452 2.814 0.107 0.413 0.196 0.826 0.265 1.248 0.046 0.285 0.195 0.552 0.296 0.828 0.034 0.093 0.082 0.184 0.097 0.281 0.019 0.118-0.051 0.177-0.172 0.164-0.029-0.004-0.060-0.010-0.087-0.023-0.331-0.153-0.682-0.139-1.034-0.12-0.285 0.015-0.571 0.010-0.856 0.020-0.073 0.002-0.162 0.001-0.216 0.040-0.158 0.118-0.324 0.12-0.501 0.078-0.084-0.021-0.167-0.041-0.269-0.065z"></path>
<path d="M15.087 18.924c-0.084 0-0.161-0.024-0.205 0.004-0.174 0.109-0.34 0.061-0.503-0.008-0.24-0.102-0.471-0.225-0.712-0.323-0.26-0.104-0.525-0.195-0.791-0.282-0.777-0.26-1.56-0.501-2.293-0.874-0.129-0.065-0.265-0.118-0.399-0.176-0.245-0.105-0.479-0.221-0.661-0.43-0.087-0.1-0.208-0.171-0.319-0.25-0.299-0.212-0.6-0.42-0.897-0.633-0.197-0.141-0.202-0.456 0.008-0.584 0.339-0.205 0.685-0.395 1.038-0.574 0.344-0.174 0.698-0.325 1.049-0.486 0.078-0.035 0.156-0.073 0.237-0.093 0.051-0.013 0.109 0.008 0.164 0.014-0.006 0.060 0.006 0.133-0.023 0.177-0.068 0.099-0.161 0.178-0.235 0.274-0.206 0.265-0.408 0.532-0.609 0.801-0.074 0.099-0.039 0.168 0.075 0.202 0.063 0.018 0.126 0.041 0.19 0.046 0.363 0.025 0.65 0.207 0.933 0.418 0.618 0.459 1.264 0.858 2.037 1.023 0.498 0.107 0.984 0.27 1.476 0.408 0.164 0.046 0.256 0.152 0.289 0.328 0.026 0.141 0.089 0.275 0.143 0.409 0.083 0.205 0.095 0.407 0.008 0.608z"></path>
<path d="M9.477 18.926c-0.013-0.154-0.041-0.311-0.031-0.464 0.009-0.118 0.059-0.237 0.105-0.349 0.046-0.11 0.116-0.089 0.201-0.025 0.191 0.142 0.38 0.292 0.589 0.405 0.306 0.164 0.565 0.378 0.8 0.63 0.074 0.079 0.18 0.138 0.281 0.18 0.158 0.064 0.28 0.158 0.339 0.319 0.049 0.134-0.004 0.221-0.144 0.232-0.275 0.021-0.457 0.167-0.566 0.409-0.201 0.444-0.531 0.767-0.963 0.975-0.31 0.151-0.57 0.356-0.787 0.618-0.419 0.503-0.886 0.958-1.389 1.376-0.363 0.301-0.67 0.645-0.89 1.068-0.099 0.191-0.221 0.37-0.34 0.55-0.025 0.038-0.085 0.053-0.131 0.078-0.019-0.049-0.050-0.097-0.054-0.147-0.003-0.041 0.023-0.085 0.041-0.127 0.099-0.225 0.207-0.446 0.295-0.674 0.030-0.079 0.011-0.178 0.015-0.267 0.003-0.046-0.006-0.1 0.014-0.139 0.19-0.353 0.358-0.72 0.582-1.049 0.276-0.405 0.503-0.83 0.679-1.285 0.072-0.186 0.164-0.365 0.259-0.542 0.164-0.305 0.274-0.623 0.282-0.973 0.005-0.184 0.192-0.316 0.37-0.257 0.127 0.041 0.21 0.008 0.281-0.1 0.167-0.257 0.177-0.279 0.162-0.439z"></path>
<path d="M15.584 11.816c0.068 0.1 0.136 0.174 0.176 0.262 0.236 0.51 0.479 1.015 0.694 1.534 0.118 0.285 0.221 0.585 0.262 0.889 0.035 0.251-0.003 0.523-0.058 0.774-0.122 0.555-0.222 1.118-0.565 1.602-0.168 0.236-0.275 0.507-0.329 0.801-0.041 0.23-0.132 0.451-0.207 0.674-0.014 0.043-0.055 0.077-0.113 0.154-0.064-0.181-0.131-0.32-0.161-0.466-0.105-0.505-0.295-0.978-0.497-1.447-0.049-0.116-0.089-0.233-0.138-0.35-0.503-1.202-0.271-2.312 0.423-3.363 0.213-0.324 0.414-0.65 0.512-1.064z"></path>
<path d="M20.34 14.361c0.075 0.038 0.123 0.060 0.169 0.085 0.502 0.261 1 0.528 1.506 0.779 0.491 0.245 0.892 0.607 1.323 0.946-0.314 0.21-0.599 0.451-0.926 0.605-0.522 0.248-1.069 0.449-1.613 0.649-0.131 0.048-0.295 0.033-0.438 0.009-0.196-0.033-0.364 0.025-0.541 0.085-0.311 0.108-0.625 0.206-0.939 0.305-0.038 0.011-0.079 0.009-0.119 0.011-0.211 0.013-0.247 0.050-0.212 0.261 0.020 0.123-0.031 0.174-0.139 0.205-0.226 0.064-0.461 0.113-0.674 0.208-0.537 0.24-1.138 0.223-1.678 0.442-0.025 0.010-0.062 0.010-0.088 0.003-0.136-0.044-0.291-0.359-0.233-0.492 0.083-0.193 0.173-0.383 0.269-0.57 0.078-0.153 0.222-0.235 0.38-0.272 0.613-0.148 1.229-0.285 1.841-0.43 0.379-0.090 0.763-0.171 1.132-0.292 0.471-0.156 0.931-0.341 1.391-0.527 0.193-0.078 0.374-0.191 0.561-0.286 0.122-0.061 0.109-0.134 0.026-0.225-0.294-0.316-0.585-0.634-0.877-0.95-0.068-0.073-0.139-0.129-0.089-0.257 0.029-0.073-0.015-0.173-0.031-0.291z"></path>
<path d="M19.161 19.24c0.139-0.077 0.257-0.167 0.392-0.21 0.6-0.195 1.121-0.528 1.635-0.879 0.137-0.093 0.266-0.196 0.404-0.289 0.182-0.122 0.296-0.078 0.387 0.122 0.206 0.451 0.226 0.941 0.334 1.413 0.162 0.699 0.299 1.403 0.575 2.079 0.308 0.752 0.52 1.544 0.779 2.314 0.054 0.159 0.142 0.306 0.207 0.463 0.060 0.144 0.11 0.294 0.166 0.441-0.016 0.010-0.031 0.020-0.048 0.030-0.038-0.038-0.080-0.070-0.11-0.112-0.275-0.395-0.537-0.8-0.822-1.187-0.589-0.8-1.186-1.592-1.787-2.381-0.087-0.113-0.22-0.19-0.324-0.291-0.294-0.287-0.582-0.581-0.876-0.869-0.059-0.058-0.137-0.097-0.206-0.144-0.033-0.023-0.072-0.038-0.098-0.065-0.262-0.282-0.261-0.282-0.608-0.436z"></path>
<path d="M9.35 11.914c-0.020-0.136-0.034-0.237-0.051-0.34-0.049-0.296-0.067-0.602-0.158-0.885-0.19-0.589-0.282-1.196-0.417-1.796-0.148-0.66-0.297-1.319-0.452-1.978-0.029-0.12-0.078-0.237-0.123-0.353-0.069-0.172-0.141-0.343-0.217-0.511-0.055-0.122-0.060-0.231 0.067-0.329 0.021 0.035 0.046 0.075 0.068 0.117 0.682 1.292 1.486 2.509 2.274 3.735 0.136 0.212 0.329 0.389 0.506 0.571 0.259 0.266 0.531 0.517 0.789 0.783 0.133 0.138 0.109 0.201-0.079 0.257-0.072 0.021-0.148 0.039-0.221 0.033-0.211-0.019-0.363 0.074-0.502 0.221-0.12 0.127-0.255 0.24-0.384 0.358-0.118 0.107-0.264 0.122-0.368 0.014-0.222-0.232-0.413-0.088-0.614 0.018-0.030 0.016-0.055 0.040-0.118 0.085z"></path>
<path d="M24.64 7.189c-0.049 0.090-0.098 0.181-0.148 0.27-0.059 0.105-0.128 0.205-0.178 0.314-0.089 0.193-0.166 0.393-0.252 0.587-0.083 0.187-0.158 0.38-0.262 0.556-0.377 0.639-0.767 1.27-1.059 1.956-0.059 0.138-0.144 0.265-0.191 0.405-0.055 0.168-0.079 0.346-0.123 0.518-0.019 0.073-0.036 0.166-0.088 0.203-0.034 0.025-0.139-0.015-0.193-0.054-0.233-0.169-0.489-0.275-0.776-0.301-0.227-0.021-0.403-0.108-0.496-0.329-0.051-0.12-0.148-0.177-0.28-0.198-0.178-0.028-0.354-0.068-0.527-0.117-0.060-0.018-0.108-0.078-0.161-0.119 0.043-0.044 0.078-0.102 0.129-0.131 0.311-0.172 0.628-0.335 0.94-0.507 0.487-0.267 0.914-0.614 1.322-0.99 0.73-0.673 1.469-1.338 2.205-2.006 0.033-0.030 0.072-0.054 0.107-0.080 0.010 0.008 0.020 0.015 0.031 0.023z"></path>
</svg>
