<!-- Generated by IcoMoon.io -->
<svg version="1.1" xmlns="http://www.w3.org/2000/svg" width="512" height="512" viewBox="0 0 512 512">
<title></title>
<g id="icomoon-ignore">
</g>
<path fill="#000" d="M257.618 491.176c-4.224-24.135-10.56-41.031-15.387-41.031-1.81 0-0.905-3.62 2.112-7.844 5.129-7.844 5.129-8.146-3.319-14.481-4.525-3.319-12.369-9.956-17.499-14.481-4.827-4.827-9.956-8.447-11.163-8.447-1.508 0-7.542 3.319-13.577 7.543-6.034 3.923-10.861 5.733-10.861 3.923 0-6.336 6.939-26.549 9.051-26.549 2.413 0 3.923-6.637 9.654-38.617 3.017-18.101 2.715-19.308-4.827-30.773-7.24-10.861-9.051-12.068-20.515-12.068-22.627 0-50.685 19.007-50.685 34.695 0 2.716-1.508 3.923-3.319 2.716-2.112-1.207-2.716-7.543-2.112-16.594 2.112-20.817 14.481-37.108 36.204-48.271 9.956-4.827 18.404-10.861 19.611-13.577 0.905-2.413 3.923-3.62 6.637-2.716 7.24 2.111 16.895-5.43 14.482-11.464-0.905-2.715-6.336-6.034-11.767-7.542-7.24-1.81-11.767-5.732-15.99-13.878-5.732-10.56-5.732-11.464-0.603-14.18 6.939-3.923 6.637-16.895-0.603-20.817-3.923-1.81-5.129-5.129-4.224-9.051 1.207-3.923-1.508-9.654-8.146-16.895-9.353-10.861-17.197-27.153-15.688-32.583 0.603-1.207-0.302-3.923-2.112-6.034-3.319-3.923-7.24-31.678-6.637-48.573 0-6.638 2.715-21.118 6.034-32.282 6.336-22.024 5.732-29.265-3.62-42.539l-6.034-8.749 11.767 6.034c22.024 11.163 23.834 15.386 22.929 50.684-0.603 26.248 0 33.79 5.129 44.953 8.146 18.705 16.292 17.197 17.197-2.716 0.302-4.827 3.017-10.861 6.034-12.973 5.129-3.62 6.336-3.319 9.956 1.81 2.112 3.62 6.939 6.336 10.56 6.336 9.353 0 24.739-10.559 32.281-21.722l6.336-9.956 18.404 17.498c19.611 18.102 24.135 19.912 32.281 12.671 4.827-4.224 5.733-3.62 10.257 9.051 6.034 15.386 9.956 16.593 19.912 6.034 6.637-6.939 7.24-11.163 9.051-45.254 1.508-36.806 1.81-38.014 10.56-46.461 5.129-4.827 13.878-9.353 19.611-10.559l10.56-1.81-8.146 6.336c-12.068 8.75-13.577 22.326-5.43 48.573 9.353 31.075 11.767 48.573 8.447 66.373-4.224 22.628-15.387 42.539-31.075 55.512-17.197 13.878-24.739 26.851-19.308 33.186 1.81 2.413 6.034 4.224 9.051 4.224 3.319 0 5.733 0.603 5.733 1.508 0 4.224-9.051 22.627-11.163 22.929-1.207 0.302-5.43 0.905-9.353 1.207-12.068 1.207-15.084 7.24-6.939 13.878 3.923 3.017 9.353 5.733 12.068 5.733 3.017 0 8.447 3.319 12.37 7.543s13.878 11.767 21.722 16.895c15.688 10.257 23.532 23.532 23.532 40.125v9.353l-7.844-9.956c-15.99-20.515-51.59-28.962-63.959-15.688-6.336 6.939-13.577 41.936-9.654 46.763 3.319 4.224 15.387 40.125 18.101 53.702l2.413 11.464-9.051-8.447-8.75-8.447-10.861 6.034c-15.084 8.447-24.438 21.118-20.214 28.058 2.413 3.923 2.413 6.939-0.906 11.767-2.413 3.62-6.637 18.404-9.654 33.187l-5.43 26.549-3.62-20.817zM264.86 362.050c3.017-11.163 7.543-18.101 7.543-12.068 0 8.75 6.336 2.413 9.654-9.654 2.111-8.146 4.827-12.671 7.24-11.767 3.319 1.207 3.62-2.716 1.81-32.885-0.906-10.861-6.034-10.861-8.75-0.302l-1.81 8.447-3.017-8.447c-3.62-10.861-6.939-10.257-9.654 1.81l-2.413 9.654-1.81-11.767c-2.716-16.895-9.353-17.8-9.353-1.207 0 9.353-0.905 11.767-3.017 8.447-1.508-2.413-3.017-7.543-3.017-11.163 0-4.224-1.81-6.939-4.525-6.939-3.319 0-4.525 3.319-4.827 11.464 0 10.257-0.302 10.56-3.319 4.224-4.525-9.353-9.654-6.637-10.861 5.43-0.905 7.24-1.81 9.051-3.62 6.034-4.827-7.844-6.637-0.603-2.715 11.767 3.923 12.973 7.542 15.99 9.353 7.24 0.603-3.017 2.715 2.413 4.827 12.068 4.224 17.8 7.844 20.817 14.482 12.068 3.62-4.827 3.923-4.827 4.224 2.716 0 19.611 8.447 22.627 13.577 4.827zM254.3 249.518c3.017-3.62 4.526-3.923 6.336-1.207 2.716 4.827 11.767 1.207 11.767-4.827 0-7.542-8.75-22.627-13.274-22.627-5.43 0-12.671 9.051-15.084 19.007-3.017 13.274 2.715 18.705 10.257 9.654zM222.321 219.048c8.447-3.319 5.43-11.767-5.732-17.197-14.18-6.637-18.705-6.336-21.421 1.508-3.62 11.163 13.274 21.119 27.153 15.688zM311.019 214.824c7.844-7.24 8.447-12.973 2.111-18.101-3.319-2.715-6.939-2.112-16.895 3.62-15.387 8.447-17.8 13.577-8.146 17.197 10.861 4.525 15.688 3.923 22.929-2.715z"></path>
</svg>
