<!-- Generated by IcoMoon.io -->
<svg version="1.1" xmlns="http://www.w3.org/2000/svg" width="29" height="32" viewBox="0 0 29 32">
<title>faction-order-stormcast-thunderstrike</title>
<path d="M23.959 22.006c-0.288-0.132-0.525-0.306-0.779-0.343-0.425-0.063-0.796 0.061-0.713 0.614 0.114 0.76 0.29 1.513 0.376 2.275 0.092 0.598 0.145 1.287 0.145 1.989 0 0.159-0.003 0.317-0.008 0.475l0.001-0.023c-0.081 1.173-0.745 1.971-1.868 2.39-1.201 0.448-2.36 0.252-3.234-0.573-0.483-0.457-0.594-1.324-0.841-2.009-0.078-0.217-0.055-0.467-0.189-0.7-0.308 0.771-0.232 1.554 0 2.317 0.253 0.827 0.794 1.38 1.703 1.466 0.808 0.074 1.618 0.134 2.438 0.202-0.942 1.431-3.114 2.122-4.584 1.417-0.341-0.166-0.74-0.496-0.827-0.827-0.245-0.876-0.488-2.012-0.674-3.168l-0.026-0.195c-0.071-0.414-0.012-0.849-0.012-1.274l-0.218-0.036c-0.080 0.127-0.142 0.275-0.18 0.432l-0.002 0.010c-0.038 0.662-0.132 1.324-0.050 1.986 0.331 2.593-2.368 4.137-4.731 3.394-0.637-0.199-1.117-0.894-1.623-1.463 1.714 0.478 3.265 0.344 4.493-0.97 0.649-0.692 0.722-2.448 0.152-3.437 0 0.442 0 0.882 0 1.324-0.013 1.986-2.461 3.512-4.251 2.648-2.024-0.983-2.87-2.909-2.249-5.084 0.141-0.453 0.275-1.023 0.375-1.604l0.012-0.086c0.218-1.37-0.066-1.617-1.423-1.243-0.053-0.149-0.084-0.32-0.084-0.499 0-0.545 0.286-1.022 0.717-1.291l0.006-0.004c0.303-0.179 0.667-0.284 1.056-0.284 0.195 0 0.383 0.026 0.562 0.076l-0.015-0.003c0.771 0.25 1.235 0.92 1.182 1.8-0.066 1.1-0.185 2.196-0.248 3.296-0.012 0.145-0.018 0.313-0.018 0.483 0 0.351 0.028 0.695 0.083 1.031l-0.005-0.037c0.089 0.492 0.514 0.861 1.025 0.861 0.128 0 0.251-0.023 0.364-0.065l-0.007 0.002c0.599-0.19 1.129-1.089 0.885-1.579-0.076-0.152-0.331-0.225-0.53-0.305-0.341-0.142-0.692-0.26-1.208-0.45 1.284-0.933 1.129-2.14 1.038-3.31-0.108-1.367-1.135-1.996-2.024-2.461 0.165-1.655 0.283-3.171 0.465-4.682 0.343-2.831 1.954-4.748 4.66-5.372 2.767-0.635 5.67 0.197 6.96 3.412 0.554 1.355 0.884 2.926 0.903 4.571l0 0.008c0 0.303-0.043 0.662 0.096 0.895 0.528 0.897-0.045 1.228-0.683 1.655-1.097 0.72-1.686 2.99-1.091 4.101 0.189 0.352 0.525 0.626 0.885 1.041-0.235 0.134-0.523 0.394-0.854 0.467-0.632 0.139-0.601 0.591-0.538 1.016 0.070 0.478 0.41 0.68 0.907 0.616 0.72-0.094 1.188-0.602 1.158-1.46-0.051-1.233-0.233-2.459-0.275-3.692 0.004-0.456 0.145-0.877 0.384-1.227l-0.005 0.008c0.523-0.788 1.335-0.983 2.151-0.626 0.678 0.271 1.072 1.175 0.885 2.102zM15.177 20.816c0.543 0.87 0.993 1.541 1.39 2.247 0.521 0.943 1.413 1.536 2.082 1.405-0.356-0.662-0.945-1.324-1.041-2.037-0.139-1.048-0.753-1.703-1.226-2.347-0.263 0.166-0.477 0.283-0.688 0.412zM10.641 24.515c0.662-0.028 1.514-0.644 1.913-1.378 0.377-0.697 0.496-1.592 1.397-1.931 0.073-0.068 0.118-0.164 0.118-0.271 0-0.025-0.003-0.050-0.007-0.074l0 0.002c-0.084-0.122-0.195-0.219-0.326-0.282l-0.005-0.002c-0.27-0.166-0.551-0.331-0.859-0.496-0.331 0.439-0.827 0.942-1.12 1.546-0.45 0.928-0.753 1.935-1.11 2.888zM14.564 10.669c-1.246 0-2.259 0.971-2.237 2.151 0.021 1.092 1.105 2.193 2.241 2.107 1.185-0.089 2.231-0.813 2.284-2.069 0.050-1.211-0.98-2.186-2.287-2.189zM15.852 17.045l0.035 0.376c0.748 0.063 1.489 0.142 2.242 0.184 0.475 0.025 0.96-0.089 0.866-0.697-0.083-0.538-0.496-0.937-1.064-0.765-0.718 0.218-1.388 0.594-2.079 0.902zM13.345 17.363l0.048-0.349c-0.682-0.314-1.342-0.69-2.049-0.923-0.093-0.040-0.202-0.062-0.315-0.062-0.443 0-0.805 0.349-0.826 0.787l-0 0.002c-0.026 0.22 0.405 0.7 0.642 0.708 0.831 0.028 1.666-0.096 2.501-0.162zM13.159 23.001h2.906c-0.488-0.763-2.345-0.793-2.906 0z"></path>
<path d="M6.424 3.809c1.049 0.635 2.102 1.264 3.144 1.906s2.679 0.104 3.106-1.081c0.533-1.474 1.044-2.956 1.635-4.634 0.564 1.395 1.145 2.598 1.534 3.861 0.341 1.109 1.099 1.676 2.087 2.024 0.247 0.086 0.629-0.023 0.88-0.165 1.185-0.662 2.347-1.375 3.517-2.069l0.166 0.18c-0.444 0.993-0.827 2.012-1.347 2.969-0.429 0.804 0.116 1.278 0.518 1.736 0.199 0.225 0.726 0.29 1.076 0.235 1.872-0.298 3.735-0.662 5.689-0.827-0.22 0.175-0.434 0.359-0.662 0.528-1.105 0.827-2.231 1.62-3.31 2.482-0.303 0.238-0.71 0.662-0.662 0.957 0.089 0.662 0.331 1.284 1.215 1.441 1.625 0.304 3.042 0.701 4.407 1.208l-0.183-0.060-4.705 1.671c0.066 0.331 0.127 0.632 0.205 1.018h-2.865c-0.032-1.807-0.496-3.499-1.293-4.985l0.029 0.059c-2.211-4.225-6.95-5.223-10.568-2.151-1.764 1.503-2.482 3.598-2.769 5.84-0.165 1.291-0.122 1.296-1.417 1.296h-1.139c0.202-0.793-0.331-0.935-0.827-1.12-1.18-0.43-2.353-0.88-3.76-1.408 1.453-0.45 2.639-0.913 3.869-1.158 0.773-0.165 0.806-0.7 0.885-1.188 0.053-0.331-0.083-0.851-0.331-1.051-1.213-0.993-2.491-1.913-3.743-2.86-0.209-0.165-0.412-0.331-0.808-0.635 2.179 0.386 4.107 0.702 6.022 1.081 0.571 0.113 0.918-0.018 1.279-0.46s0.455-0.809 0.189-1.334c-0.389-0.758-0.707-1.554-1.046-2.337-0.103-0.237-0.182-0.485-0.271-0.728z"></path>
<path d="M16.368 12.819c-0.017 0.97-0.745 1.64-1.781 1.64-0.993 0-1.734-0.726-1.721-1.696 0.013-0.993 0.778-1.665 1.865-1.628 0.002 0 0.004 0 0.006 0 0.901 0 1.632 0.731 1.632 1.632 0 0.019-0 0.037-0.001 0.056l0-0.003z"></path>
</svg>
