<!-- Generated by IcoMoon.io -->
<svg version="1.1" xmlns="http://www.w3.org/2000/svg" width="15" height="32" viewBox="0 0 15 32">
<title>faction-order-stormcast-sacrosanct</title>
<path d="M12.267 0c0.323 0.355 0.653 0.705 0.97 1.066 0.29 0.331 0.57 0.672 0.85 1.011 0.081 0.099 0.149 0.207 0.216 0.316 0.051 0.083 0.087 0.173 0.135 0.257 0.12 0.215 0.26 0.421 0.358 0.646 0.126 0.287 0.225 0.589 0.322 0.888 0.017 0.052-0.028 0.128-0.057 0.187-0.029 0.058-0.068 0.113-0.11 0.164-0.318 0.376-0.647 0.744-0.953 1.129-0.22 0.277-0.403 0.582-0.621 0.862-0.187 0.241-0.402 0.461-0.599 0.693-0.299 0.353-0.593 0.706-0.883 1.053 0.38 0.418 0.888 0.437 1.351 0.557 0.342 0.088 0.691 0.149 1.039 0.212 0.136 0.025 0.279 0.017 0.418 0.022 0.090 0.003 0.181 0 0.31 0-0.051 0.109-0.073 0.2-0.128 0.264-0.213 0.248-0.44 0.485-0.657 0.728-0.1 0.112-0.21 0.218-0.287 0.344-0.228 0.376-0.519 0.695-0.827 1.004-0.212 0.212-0.393 0.456-0.576 0.695-0.487 0.635-0.947 1.291-1.327 1.999-0.289 0.538-0.598 1.066-0.889 1.604-0.081 0.149-0.123 0.319-0.197 0.474-0.107 0.228-0.226 0.448-0.345 0.685 1.514 0.379 3.046 0.186 4.542 0.221-0.148 0.313-0.309 0.644-0.458 0.981-0.138 0.309-0.234 0.64-0.4 0.931-0.131 0.229-0.323 0.428-0.516 0.612-0.174 0.167-0.303 0.355-0.432 0.554-0.242 0.371-0.5 0.737-0.78 1.081-0.722 0.888-1.472 1.752-2.186 2.646-0.54 0.675-1.143 1.282-1.774 1.867-0.583 0.54-1.159 1.089-1.739 1.632-0.196 0.183-0.399 0.36-0.599 0.538-0.937 0.838-1.893 1.654-2.92 2.385-0.406 0.29-0.776 0.63-1.178 0.926-0.245 0.18-0.518 0.325-0.782 0.479-0.165 0.096-0.339 0.178-0.554 0.292 0.015-0.122 0.004-0.216 0.039-0.289 0.104-0.225 0.206-0.453 0.342-0.659 0.395-0.595 0.788-1.191 1.213-1.764 0.688-0.927 1.417-1.822 2.098-2.753 0.608-0.833 1.143-1.713 1.623-2.63 0.419-0.798 0.91-1.558 1.351-2.346 0.254-0.454 0.479-0.924 0.699-1.396 0.051-0.107 0.030-0.248 0.045-0.389-0.086-0.004-0.144-0.003-0.2-0.013-0.231-0.039-0.461-0.083-0.692-0.125-0.158-0.029-0.315-0.064-0.471-0.090-0.284-0.046-0.574-0.073-0.854-0.138-0.322-0.075-0.635-0.183-0.973-0.284 0.1-0.104 0.168-0.209 0.264-0.27 0.296-0.187 0.421-0.498 0.567-0.783 0.47-0.917 0.912-1.848 1.385-2.764 0.178-0.347 0.428-0.657 0.618-0.999 0.292-0.524 0.58-1.053 0.834-1.596 0.165-0.352 0.267-0.734 0.39-1.081-0.335-0.091-0.646-0.203-0.966-0.255-0.332-0.054-0.673-0.049-1.010-0.074-0.161-0.012-0.321-0.028-0.48-0.042-0.341-0.032-0.68-0.067-1.055-0.103 0.049-0.088 0.090-0.191 0.155-0.274 0.384-0.482 0.773-0.956 1.081-1.497 0.395-0.693 0.795-1.39 1.256-2.040 0.453-0.637 0.978-1.221 1.484-1.819 0.3-0.353 0.567-0.722 0.798-1.126 0.113-0.197 0.286-0.361 0.411-0.554 0.191-0.297 0.374-0.599 0.541-0.911 0.328-0.611 0.666-1.211 1.095-1.76 0.144-0.183 0.242-0.402 0.351-0.609 0.094-0.18 0.173-0.367 0.26-0.551 0.022-0.004 0.045-0.013 0.068-0.020z"></path>
</svg>
