<!-- Generated by IcoMoon.io -->
<svg version="1.1" xmlns="http://www.w3.org/2000/svg" width="32" height="32" viewBox="0 0 32 32">
<title>cities-of-sigmar-hallowheart</title>
<path d="M14.017 31.911c-0.038-0.049-0.088-0.163-0.111-0.253s-0.648-3.066-1.39-6.614c-0.904-4.326-1.355-6.552-1.368-6.76-0.028-0.455-0.064-0.441 1.119-0.454 0.514-0.006 1.807 0.003 2.873 0.019 1.739 0.026 1.95 0.036 2.054 0.092 0.222 0.119 0.266 0.335 0.186 0.911-0.061 0.438-2.532 11.614-2.656 12.015-0.188 0.603-0.469 1.133-0.602 1.133-0.019 0-0.066-0.040-0.105-0.089zM15.113 23.439c0.267-0.079 0.516-0.318 0.682-0.656 0.126-0.255 0.135-0.295 0.135-0.598 0-0.288-0.011-0.343-0.097-0.489-0.172-0.293-0.5-0.538-0.911-0.68-0.123-0.043-0.418-0.093-0.697-0.12-0.267-0.026-0.523-0.066-0.568-0.091-0.188-0.1-0.246-0.51-0.104-0.724 0.12-0.18 0.316-0.263 0.619-0.262 0.285 0.001 0.487 0.084 0.635 0.26 0.123 0.146 0.219 0.189 0.423 0.191 0.23 0.002 0.438-0.115 0.576-0.323 0.268-0.404 0.161-0.559-0.568-0.828-0.391-0.144-0.739-0.192-1.3-0.177-0.569 0.015-0.703 0.064-1 0.361-0.361 0.361-0.516 0.856-0.439 1.399 0.050 0.355 0.122 0.487 0.328 0.601 0.148 0.082 0.201 0.088 0.913 0.108 0.718 0.020 0.764 0.026 0.916 0.11 0.088 0.049 0.209 0.158 0.268 0.243 0.204 0.291 0.156 0.805-0.087 0.933-0.134 0.070-0.617 0.036-0.872-0.062-0.133-0.051-0.285-0.152-0.424-0.28-0.261-0.241-0.338-0.251-0.626-0.078-0.258 0.155-0.334 0.292-0.274 0.492 0.099 0.331 0.407 0.592 0.795 0.676 0.302 0.065 1.453 0.061 1.678-0.005zM15.696 30.312c-0.046-0.046-0.066-0.101-0.054-0.153 0.010-0.044 0.592-2.721 1.294-5.948s1.299-5.942 1.329-6.032c0.029-0.090 0.106-0.214 0.169-0.275s0.487-0.355 0.941-0.653c1.266-0.831 1.365-0.878 1.506-0.722 0.051 0.056 0.059 0.104 0.039 0.238-0.032 0.214-2.42 7.953-2.602 8.431-0.12 0.317-1.88 4.17-2.163 4.736-0.137 0.273-0.268 0.45-0.336 0.45-0.029 0-0.085-0.033-0.124-0.072zM12.716 29.878c-0.237-0.252-0.581-0.839-1.123-1.916-0.625-1.242-0.711-1.46-1.365-3.47-1.399-4.296-2.356-7.45-2.356-7.769s0.258-0.386 0.639-0.166c0.385 0.223 1.646 1.113 1.813 1.28 0.364 0.364 0.302 0.116 1.482 5.908 0.999 4.902 1.065 5.251 1.082 5.7 0.022 0.559-0.001 0.615-0.172 0.433zM13.938 17.174c-1.115-0.056-2.080-0.111-2.143-0.123-0.243-0.045-0.289-0.295-0.124-0.668 0.147-0.332 0.249-0.719 0.291-1.106 0.030-0.284 0.056-0.371 0.157-0.538 0.186-0.308 0.274-0.523 0.325-0.793 0.030-0.159 0.093-0.323 0.174-0.455 0.184-0.301 0.277-0.532 0.334-0.829 0.035-0.182 0.082-0.303 0.154-0.395 0.153-0.196 1.011-1.741 1.054-1.899 0.051-0.186 0.091-0.226 0.229-0.226 0.14 0 0.297 0.119 0.386 0.293 0.034 0.066 0.571 1.436 1.194 3.045s1.159 2.965 1.192 3.015c0.041 0.061 0.060 0.166 0.061 0.331 0.001 0.312-0.058 0.377-0.379 0.424-0.323 0.047-0.607 0.039-2.904-0.076zM17.866 16.908c-0.049-0.049-0.123-0.166-0.164-0.26-0.166-0.381-1.772-4.787-1.848-5.070-0.141-0.525-0.098-1.078 0.072-0.936 0.032 0.026 0.058 0.087 0.058 0.134 0 0.169 0.097 0.329 0.246 0.405 0.204 0.104 0.439 0.307 1.572 1.355 1.406 1.302 1.523 1.405 1.985 1.76 0.427 0.328 0.547 0.464 0.617 0.698 0.088 0.293-0.112 0.606-0.538 0.841-0.35 0.193-0.634 0.402-0.991 0.728s-0.549 0.435-0.769 0.435c-0.114 0-0.174-0.022-0.241-0.089zM10.326 16.855c-0.161-0.039-1.821-0.999-2.006-1.16-0.251-0.219-0.276-0.422-0.090-0.723 0.112-0.182 0.553-0.582 0.752-0.683 0.377-0.191 1.025-0.741 1.403-1.192 0.482-0.574 0.867-0.944 1.099-1.054 0.259-0.124 0.281-0.147 0.336-0.352 0.052-0.195 0.28-0.445 0.558-0.612 0.207-0.125 0.502-0.222 0.582-0.192 0.076 0.029 0.089 0.236 0.031 0.487-0.063 0.274-1.281 3.465-1.388 3.638-0.038 0.062-0.109 0.138-0.156 0.169-0.105 0.069-0.227 0.381-0.258 0.661-0.026 0.235-0.238 0.681-0.42 0.882-0.124 0.137-0.259 0.178-0.442 0.133zM20.488 14.245c-0.219-0.117-0.627-0.464-2.206-1.875-1.123-1.003-1.689-1.535-1.851-1.737-0.361-0.451-0.465-0.81-0.408-1.406 0.042-0.445 0.145-0.793 0.373-1.256 0.319-0.65 0.648-0.986 1.044-1.065 0.151-0.030 0.221-0.068 0.302-0.16 0.134-0.153 0.216-0.428 0.216-0.729 0-0.321 0.058-0.8 0.124-1.026 0.083-0.286 0.319-0.61 0.591-0.811 0.267-0.198 0.834-0.498 1.313-0.696 0.492-0.203 0.658-0.295 0.847-0.472 0.244-0.229 0.355-0.467 0.356-0.763 0.001-0.643 0.167-1.032 0.501-1.173 0.068-0.029 0.343-0.074 0.611-0.101 0.539-0.054 0.641-0.086 0.964-0.307 0.416-0.284 0.616-0.226 0.615 0.178-0.002 0.413-0.201 0.667-0.73 0.93-0.417 0.207-0.512 0.309-0.614 0.659-0.066 0.225-0.124 0.803-0.126 1.245-0.001 0.347-0.073 0.675-0.22 1.001-0.15 0.334-0.336 0.565-0.624 0.778-0.574 0.424-0.6 0.5-0.62 1.765-0.017 1.074 0.012 1.357 0.174 1.69 0.102 0.21 0.126 0.233 0.341 0.335 0.143 0.068 0.268 0.158 0.329 0.238 0.094 0.124 0.098 0.147 0.096 0.527-0.002 0.344-0.016 0.433-0.103 0.665-0.124 0.329-0.223 0.491-0.402 0.65-0.356 0.318-0.436 0.422-0.544 0.703-0.059 0.155-0.128 0.404-0.151 0.553-0.051 0.318-0.030 1.049 0.040 1.408 0.041 0.211 0.040 0.249-0.005 0.278-0.071 0.045-0.106 0.041-0.232-0.026zM8.006 13.973c0.015-0.104 0.028-0.619 0.028-1.146 0-0.938-0.002-0.96-0.080-1.059-0.044-0.056-0.123-0.174-0.175-0.263-0.185-0.316-0.339-0.524-0.602-0.818-0.225-0.251-0.284-0.344-0.375-0.595-0.28-0.774-0.235-1.648 0.113-2.183 0.073-0.113 0.198-0.232 0.348-0.33 0.386-0.256 0.573-0.492 0.575-0.726 0.002-0.188 0.073-0.417 0.163-0.525 0.202-0.24 0.294-0.635 0.339-1.462 0.035-0.649 0.062-0.779 0.186-0.926 0.046-0.054 0.11-0.163 0.144-0.241s0.092-0.215 0.13-0.304c0.038-0.089 0.138-0.248 0.223-0.353 0.136-0.169 0.209-0.218 0.642-0.426 0.507-0.244 0.729-0.396 1.187-0.809 0.556-0.502 1.088-0.805 1.868-1.066 0.54-0.18 1.050-0.417 1.221-0.565 0.201-0.175 0.272-0.201 0.412-0.155 0.067 0.022 0.132 0.071 0.143 0.107 0.025 0.078-0.047 0.381-0.203 0.855-0.142 0.433-0.321 0.66-1.251 1.584-0.967 0.961-1.113 1.202-1.107 1.826 0.003 0.275-0.008 0.321-0.126 0.556-0.071 0.141-0.212 0.354-0.315 0.472-0.453 0.523-0.676 0.897-0.677 1.134-0 0.17 0.111 0.319 0.578 0.77 0.457 0.441 0.686 0.624 0.976 0.778 0.343 0.181 0.509 0.368 0.602 0.675 0.13 0.427 0.032 0.79-0.34 1.26-0.241 0.305-4.537 4.123-4.638 4.123-0.009 0-0.003-0.085 0.012-0.188zM22.614 7.306c-0.136-0.107-0.169-0.273-0.169-0.836-0-0.543 0.023-0.63 0.213-0.789 0.059-0.050 0.192-0.109 0.294-0.131 0.558-0.12 0.663-0.26 0.927-1.241 0.106-0.395 0.206-0.55 0.444-0.694 0.276-0.166 0.763-0.372 0.895-0.378 0.097-0.004 0.114 0.010 0.144 0.121 0.044 0.162 0.013 0.463-0.063 0.609-0.033 0.064-0.111 0.136-0.176 0.163-0.22 0.092-0.217 0.075-0.241 1.234-0.018 0.897-0.031 1.090-0.086 1.238-0.077 0.21-0.267 0.41-0.486 0.512-0.202 0.094-0.729 0.224-0.956 0.236-0.155 0.008-0.174 0.001-0.185-0.072-0.014-0.097-0.14-0.177-0.194-0.123-0.020 0.020-0.055 0.074-0.078 0.12-0.055 0.111-0.165 0.122-0.283 0.030zM13.823 4.211c-0.031-0.055-0.046-0.236-0.046-0.565 0-0.456 0.006-0.496 0.099-0.685 0.119-0.242 0.097-0.231 1.142-0.57 0.489-0.158 0.799-0.278 0.84-0.323 0.052-0.058 0.11-0.072 0.288-0.072 0.296 0 0.365 0.066 0.304 0.292-0.067 0.249-0.243 0.565-0.42 0.755-0.229 0.244-0.493 0.394-1.004 0.567-0.549 0.186-0.713 0.278-0.904 0.504-0.168 0.199-0.23 0.219-0.298 0.099z"></path>
</svg>
