<!-- Generated by IcoMoon.io -->
<svg version="1.1" xmlns="http://www.w3.org/2000/svg" width="32" height="32" viewBox="0 0 32 32">
<title>fighters-trapper</title>
<path d="M18.311 1.234c0.133 0.077 0.159 0.212 0.174 0.345 0.113 1.003 0.163 2.006 0.045 3.014-0.024 0.202-0.035 0.406-0.040 0.609-0.012 0.476-0.051 0.949-0.16 1.416-0.032 0.138-0.025 0.285-0.026 0.429-0.001 0.122 0.067 0.177 0.185 0.134 0.096-0.036 0.16-0.014 0.241 0.048 0.083 0.065 0.19 0.107 0.293 0.135 0.319 0.088 0.62 0.202 0.878 0.417 0.058 0.048 0.139 0.077 0.215 0.094 0.565 0.129 1.129 0.259 1.697 0.377 0.299 0.062 0.39-0.034 0.359-0.344-0.038-0.376-0.102-0.744-0.244-1.098-0.117-0.289-0.208-0.588-0.318-0.881-0.037-0.101-0.097-0.194-0.143-0.29-0.017-0.037-0.025-0.078-0.037-0.12 0.411-0.057 0.486-0.012 0.591 0.237 0.024 0.055 0.109 0.087 0.171 0.12 0.076 0.041 0.18 0.053 0.232 0.113 0.213 0.239 0.422 0.486 0.612 0.744 0.195 0.263 0.349 0.557 0.555 0.809 0.14 0.172 0.321 0.33 0.516 0.434 0.524 0.282 1.005 0.614 1.446 1.014 0.289 0.263 0.599 0.505 0.901 0.756 0.166 0.139 0.299 0.302 0.356 0.519 0.037 0.14 0.027 0.257-0.087 0.366-0.134 0.127-0.105 0.236 0.067 0.305 0.068 0.027 0.141 0.068 0.211 0.066 0.079-0.002 0.182-0.022 0.232-0.076 0.082-0.087 0.166-0.138 0.282-0.138 0.108 0 0.217-0.005 0.325 0.007 0.153 0.017 0.233 0.128 0.311 0.251 0.050 0.078 0.124 0.158 0.207 0.192 0.261 0.109 0.529 0.2 0.712 0.436 0.021 0.026 0.052 0.046 0.082 0.063 0.506 0.3 1.009 0.608 1.521 0.897 0.207 0.117 0.397 0.228 0.514 0.45 0.104 0.2 0.303 0.275 0.521 0.298 0.249 0.025 0.29 0.057 0.293 0.313 0.001 0.122-0.041 0.244-0.063 0.367-0.103-0.038-0.215-0.062-0.309-0.117-0.252-0.145-0.522-0.191-0.81-0.215-0.567-0.046-1.133-0.122-1.699-0.182-0.275-0.029-0.552-0.050-0.829-0.074-0.020-0.001-0.041-0.001-0.058-0.010-0.534-0.261-1.155-0.185-1.691-0.439-0.045-0.021-0.105-0.014-0.159-0.012-0.171 0.002-0.344 0.027-0.512 0.009-0.566-0.060-1.129-0.145-1.696-0.2-0.464-0.045-0.913-0.133-1.331-0.34-0.355-0.175-0.718-0.217-1.112-0.191-0.23 0.015-0.473-0.045-0.697-0.114-0.232-0.071-0.262-0.371-0.113-0.56 0.146-0.184 0.261-0.396 0.371-0.604 0.057-0.108-0.010-0.204-0.141-0.22-0.174-0.021-0.349-0.087-0.525 0.009-0.031 0.016-0.096-0.012-0.136-0.035-0.29-0.159-0.602-0.254-0.927-0.306-0.024-0.004-0.048-0.011-0.070-0.021-0.325-0.156-0.649-0.315-0.974-0.47-0.067-0.031-0.139-0.055-0.211-0.069-0.36-0.077-0.457-0.040-0.597 0.298-0.259 0.625-0.61 1.185-1.076 1.681-0.288 0.306-0.542 0.644-0.81 0.969-0.082 0.099-0.061 0.282 0.067 0.403 0.29 0.278 0.589 0.546 0.883 0.819 0.141 0.13 0.278 0.267 0.423 0.393 0.112 0.097 0.227 0.192 0.351 0.272 0.329 0.211 0.346 0.472 0.041 0.713-0.016 0.012-0.031 0.024-0.047 0.036-0.242 0.185-0.302 0.331-0.163 0.469 0.269 0.268 0.495 0.406 0.751 0.165 0.029-0.027 0.055-0.057 0.084-0.084 0.146-0.133 0.313-0.144 0.45-0.004 0.302 0.309 0.61 0.613 0.881 0.947 0.237 0.293 0.49 0.562 0.808 0.761 0.483 0.3 0.865 0.69 1.135 1.192 0.097 0.181 0.256 0.333 0.469 0.316 0.196-0.015 0.303-0.212 0.344-0.373 0.098-0.388 0.357-0.682 0.532-1.024 0.052-0.103 0.127-0.153 0.247-0.148 0.089 0.004 0.138 0.032 0.156 0.12 0.046 0.211 0.165 0.331 0.395 0.359 0.186 0.022 0.258 0.195 0.272 0.35 0.061 0.67 0.337 1.267 0.587 1.877 0.289 0.705 0.516 1.436 0.798 2.143 0.278 0.7 0.581 1.39 0.892 2.075 0.112 0.246 0.288 0.462 0.422 0.699 0.109 0.192 0.206 0.392 0.299 0.593 0.026 0.056 0.025 0.127 0.022 0.19-0.012 0.241-0.217 0.367-0.436 0.27-0.053-0.024-0.112-0.050-0.153-0.091-0.366-0.354-0.821-0.568-1.257-0.813-0.034-0.019-0.084-0.045-0.109-0.031-0.144 0.071-0.257-0.009-0.378-0.062-0.295-0.128-0.592-0.252-0.888-0.378-0.009-0.004-0.019-0.006-0.027-0.011-0.344-0.169-0.692-0.33-1.031-0.509-0.393-0.207-0.816-0.299-1.251-0.355s-0.865-0.096-1.303-0.007c-0.13 0.026-0.278-0.040-0.418-0.051-0.254-0.021-0.51-0.037-0.766-0.050-0.201-0.009-0.403-0.011-0.605-0.007-0.128 0.002-0.256 0.030-0.385 0.031-0.169 0.001-0.222-0.067-0.19-0.235 0.047-0.242 0.203-0.388 0.408-0.517 0.423-0.266 0.841-0.542 1.242-0.84 0.252-0.186 0.32-0.468 0.266-0.776-0.040-0.218 0.015-0.279 0.239-0.27 0.088 0.004 0.175 0 0.272 0 0-0.196 0.007-0.375-0.002-0.551-0.009-0.14-0.097-0.218-0.237-0.246-0.212-0.042-0.391 0.007-0.543 0.163-0.164 0.166-0.249 0.141-0.428 0.001-0.279-0.221-0.458-0.499-0.586-0.823-0.037-0.093-0.114-0.175-0.186-0.247-0.263-0.263-0.555-0.486-0.88-0.676-0.323-0.189-0.613-0.434-0.908-0.666-0.222-0.174-0.424-0.375-0.648-0.547-0.18-0.139-0.37-0.268-0.57-0.373-0.199-0.105-0.352-0.246-0.496-0.416-0.341-0.404-0.697-0.797-1.053-1.189-0.134-0.146-0.22-0.119-0.275 0.076-0.052 0.182-0.174 0.279-0.354 0.32-0.521 0.119-0.98 0.365-1.391 0.702-0.138 0.113-0.174 0.118-0.257-0.036-0.048-0.091-0.088-0.189-0.122-0.285-0.046-0.129-0.134-0.176-0.264-0.164-0.261 0.025-0.427 0.242-0.392 0.515 0.011 0.088 0.038 0.177 0.029 0.264-0.022 0.207-0.205 0.381-0.416 0.406-0.182 0.021-0.344 0.072-0.475 0.216-0.052 0.057-0.145 0.079-0.221 0.114-0.288 0.13-0.577 0.259-0.865 0.39-0.115 0.052-0.23 0.112-0.347 0.156-0.107 0.040-0.154 0.115-0.139 0.217 0.040 0.278 0.072 0.56 0.138 0.833 0.089 0.365 0.205 0.725 0.315 1.084 0.084 0.274 0.174 0.547 0.272 0.816 0.022 0.063 0.079 0.14 0.135 0.156 0.038 0.011 0.119-0.062 0.155-0.114 0.074-0.11 0.135-0.23 0.194-0.35 0.226-0.463 0.445-0.928 0.677-1.387 0.026-0.051 0.119-0.099 0.175-0.094 0.058 0.005 0.136 0.067 0.159 0.124 0.094 0.235 0.061 0.475 0.002 0.716-0.073 0.303-0.158 0.605-0.197 0.913-0.026 0.202 0.017 0.413 0.030 0.62 0.031 0.545 0.037 1.092 0.097 1.633 0.093 0.857 0.222 1.71 0.336 2.565 0.005 0.040 0.012 0.078 0.015 0.118 0.040 0.567 0.076 1.135 0.12 1.702 0.024 0.297 0.045 0.594 0.098 0.887 0.027 0.15 0.112 0.294 0.189 0.431 0.129 0.228 0.283 0.443 0.408 0.672 0.133 0.242 0.032 0.445-0.225 0.534-0.105 0.037-0.195 0.123-0.292 0.186-0.010 0-0.020 0-0.030 0-0.225-0.117-0.277-0.336-0.326-0.556-0.182-0.809-0.536-1.53-1.086-2.152-0.036-0.040-0.078-0.077-0.124-0.103-0.438-0.258-0.794-0.605-1.101-1.008-0.29-0.381-0.566-0.777-0.88-1.138-0.252-0.29-0.547-0.543-0.829-0.806-0.196-0.182-0.422-0.335-0.598-0.534-0.385-0.433-0.749-0.885-1.115-1.335-0.12-0.149-0.216-0.318-0.333-0.49 0.233-0.073 0.411 0.016 0.582 0.113 0.247 0.14 0.501 0.241 0.789 0.22 0.177-0.012 0.355-0.038 0.531-0.066 0.277-0.042 0.347-0.195 0.192-0.424-0.191-0.284-0.306-0.596-0.383-0.928-0.037-0.161-0.108-0.316-0.17-0.473-0.066-0.165-0.168-0.32-0.204-0.49-0.088-0.417-0.247-0.804-0.449-1.174-0.038-0.071-0.138-0.14-0.216-0.15-0.378-0.043-0.758-0.082-1.139-0.092-0.535-0.014-1.071-0.001-1.606 0-0.164 0-0.334-0.026-0.489 0.009-0.411 0.092-0.809 0.030-1.208-0.047-0.306-0.058-0.624-0.105-0.737-0.469 0-0.020 0-0.040 0-0.060 0.019-0.007 0.036-0.019 0.055-0.022 0.329-0.067 0.669-0.097 0.959-0.295 0.030-0.020 0.077-0.020 0.115-0.019 0.232 0.006 0.385-0.113 0.521-0.29 0.103-0.135 0.231-0.259 0.369-0.359 0.148-0.107 0.221-0.226 0.217-0.409-0.005-0.233 0.002-0.467 0.012-0.7 0.005-0.132 0.062-0.236 0.185-0.302 0.238-0.127 0.237-0.129 0.031-0.309-0.022-0.020-0.046-0.040-0.063-0.062-0.060-0.076-0.105-0.148-0.056-0.257 0.034-0.073 0.047-0.165 0.037-0.244-0.012-0.102-0.063-0.197-0.088-0.298-0.034-0.135-0.099-0.199-0.246-0.148-0.117 0.041-0.161-0.035-0.187-0.132-0.025-0.093 0.010-0.141 0.104-0.154 0.123-0.016 0.135-0.102 0.078-0.181-0.053-0.074-0.136-0.127-0.225-0.205 0.083-0.020 0.158-0.052 0.233-0.053 0.684-0.014 1.351-0.124 2.008-0.31 0.040-0.011 0.086-0.006 0.128-0.005 0.12 0.004 0.239 0.017 0.359 0.010 0.136-0.009 0.274-0.056 0.409-0.050 0.304 0.015 0.586-0.052 0.867-0.161 0.404-0.156 0.816-0.294 1.228-0.427 0.651-0.21 1.282-0.453 1.87-0.816 0.589-0.365 1.091-0.836 1.638-1.251 0.024-0.017 0.043-0.041 0.065-0.062 0.194-0.191 0.392-0.378 0.582-0.573 0.221-0.226 0.439-0.455 0.648-0.691 0.136-0.154 0.254-0.326 0.383-0.488 0.145-0.181 0.311-0.349 0.434-0.542 0.172-0.27 0.298-0.571 0.47-0.843 0.371-0.583 0.71-1.178 0.831-1.87 0.016-0.089 0.063-0.144 0.171-0.15 0.060-0.004 0.136-0.053 0.169-0.105 0.179-0.29 0.37-0.576 0.51-0.885 0.127-0.278 0.18-0.587 0.289-0.874s0.17-0.581 0.158-0.886c-0.017-0.427-0.045-0.852-0.065-1.278-0.010-0.21 0.025-0.253 0.242-0.315 0.101 0.177 0.238 0.345 0.295 0.537 0.114 0.382 0.19 0.777 0.269 1.169 0.026 0.13 0.065 0.241 0.187 0.3 0.156 0.076 0.313 0.154 0.475 0.207 0.099 0.032 0.217 0.045 0.32 0.027 0.336-0.055 0.562-0.263 0.69-0.571 0.199-0.484 0.267-0.998 0.319-1.513 0.020-0.199 0.026-0.396 0.189-0.542 0.040 0.007 0.079 0.007 0.119 0.007zM17.336 7.89c-0.002 0-0.005 0-0.006 0 0-0.119 0.009-0.238-0.002-0.356-0.016-0.171-0.093-0.315-0.243-0.406-0.319-0.19-0.653-0.309-1.034-0.204-0.176 0.048-0.364 0.068-0.532 0.133-0.816 0.313-1.098 1.299-0.557 1.979 0.356 0.448 0.865 0.566 1.411 0.566 0.168 0 0.329-0.034 0.453-0.155 0.269-0.259 0.45-0.565 0.471-0.948 0.012-0.204 0.026-0.407 0.040-0.609zM5.052 16.239c-0.027 0.426 0.211 0.723 0.572 0.855 0.074 0.027 0.146 0.062 0.213 0.103 0.149 0.093 0.308 0.108 0.473 0.068 0.328-0.079 0.593-0.27 0.836-0.491 0.057-0.052 0.102-0.144 0.11-0.221 0.061-0.591 0.035-1.16-0.406-1.629-0.179-0.191-0.279-0.182-0.365 0.060-0.040 0.109-0.101 0.138-0.216 0.117-0.118-0.022-0.249-0.038-0.364-0.010-0.458 0.118-0.865 0.679-0.855 1.149zM12.766 11.5c-0.181 0.025-0.349 0.045-0.515 0.071-0.208 0.032-0.387 0.12-0.516 0.293-0.241 0.32-0.141 1.037 0.18 1.28 0.031 0.024 0.067 0.043 0.104 0.057 0.163 0.061 0.321 0.135 0.489 0.172 0.107 0.024 0.239 0.019 0.339-0.024 0.318-0.136 0.627-0.295 0.938-0.447 0.231-0.112 0.246-0.154 0.166-0.392-0.037-0.113-0.12-0.243-0.092-0.338 0.051-0.168-0.029-0.285-0.078-0.413-0.081-0.208-0.299-0.249-0.475-0.326-0.056-0.024-0.153 0.057-0.235 0.081-0.050 0.015-0.105 0.017-0.158 0.014-0.055-0.004-0.107-0.020-0.148-0.029zM18.471 7.501c-0.020 0.207 0.030 0.29 0.208 0.371 0.203 0.092 0.406 0.184 0.613 0.267 0.045 0.017 0.104-0.001 0.158-0.004-0.020-0.061-0.022-0.155-0.065-0.176-0.295-0.159-0.598-0.303-0.914-0.458zM14.735 5.938c-0.22-0.002-0.339 0.097-0.306 0.251 0.010 0.046 0.048 0.109 0.084 0.118 0.034 0.007 0.099-0.040 0.118-0.079 0.046-0.091 0.071-0.19 0.104-0.289zM22.737 8.799c-0.004-0.022-0.007-0.043-0.011-0.066-0.067-0.027-0.133-0.058-0.202-0.077-0.009-0.002-0.058 0.076-0.050 0.104 0.015 0.050 0.065 0.129 0.094 0.128 0.058-0.005 0.113-0.057 0.169-0.089z"></path>
</svg>
