<!-- Generated by IcoMoon.io -->
<svg version="1.1" xmlns="http://www.w3.org/2000/svg" width="32" height="32" viewBox="0 0 32 32">
<title>fighters-scout</title>
<path d="M32.004 0.901c-0.43 0.708-0.878 1.404-1.283 2.126-0.548 0.973-1.143 1.92-1.551 2.966-0.172 0.438-0.336 0.892-0.588 1.283-0.196 0.303-0.352 0.617-0.494 0.941-0.545 1.237-1.080 2.479-1.622 3.717-0.184 0.421-0.388 0.833-0.565 1.257-0.088 0.209-0.144 0.434-0.195 0.656-0.040 0.177-0.115 0.233-0.29 0.17-0.339-0.124-0.509-0.487-0.401-0.825 0.102-0.32 0.169-0.64 0.081-0.983-0.039-0.15-0.007-0.319-0.010-0.479-0.012-0.546-0.022-1.094-0.039-1.64-0.017-0.542-0.042-1.083-0.065-1.624-0.009-0.202-0.020-0.404-0.037-0.604-0.017-0.187-0.098-0.231-0.267-0.144-0.059 0.030-0.114 0.078-0.159 0.13-0.415 0.471-0.817 0.954-1.245 1.414-0.261 0.28-0.571 0.515-0.842 0.786-0.427 0.428-0.876 0.833-1.214 1.345-0.092 0.14-0.251 0.236-0.369 0.36-0.221 0.232-0.45 0.46-0.649 0.711-0.409 0.516-0.812 1.039-1.199 1.571-0.806 1.106-1.744 2.109-2.494 3.261-0.618 0.95-1.247 1.891-1.769 2.899-0.094 0.18-0.222 0.342-0.336 0.512-0.019-0.004-0.037-0.009-0.056-0.014-0.019-0.068-0.049-0.134-0.056-0.202-0.013-0.125 0.003-0.255-0.019-0.379-0.042-0.241-0.091-0.483-0.157-0.718-0.048-0.17-0.141-0.327-0.187-0.499-0.055-0.197-0.197-0.228-0.365-0.257-0.164-0.029-0.261 0.020-0.356 0.164-0.617 0.946-1.241 1.885-1.871 2.822-0.105 0.157-0.241 0.294-0.373 0.431-0.27 0.28-0.479 0.598-0.683 0.928-0.196 0.314-0.47 0.578-0.712 0.862-0.065 0.076-0.154 0.075-0.206-0.006-0.059-0.094-0.137-0.208-0.127-0.306 0.026-0.265 0.037-0.542 0.221-0.768 0.032-0.039 0.040-0.108 0.037-0.161-0.004-0.068-0.024-0.136-0.049-0.2-0.136-0.356-0.16-0.352-0.539-0.375-0.296-0.017-0.59-0.092-0.884-0.14-0.159-0.026-0.317-0.066-0.476-0.075-0.633-0.033-1.266-0.063-1.9-0.084-0.719-0.023-1.058 0.039-2.184 0.372-0.053-0.2-0.016-0.386 0.069-0.565 0.061-0.13 0.118-0.268 0.208-0.376 0.084-0.102 0.197-0.192 0.316-0.254 0.213-0.111 0.441-0.196 0.66-0.294 0.767-0.343 1.537-0.682 2.301-1.031 0.91-0.417 1.741-0.943 2.498-1.614 0.422-0.375 0.83-0.78 1.289-1.111 0.522-0.379 0.963-0.836 1.441-1.26 0.411-0.365 0.78-0.764 1.166-1.15 0.11-0.11 0.238-0.2 0.369-0.284 0.317-0.202 0.541-0.474 0.682-0.823 0.046-0.112 0.138-0.208 0.186-0.32 0.050-0.118 0.073-0.248 0.111-0.385 0.019 0.003 0.050 0.007 0.081 0.016 0.154 0.045 0.259-0.001 0.347-0.141 0.209-0.33 0.431-0.652 0.654-0.986 0.182 0.098 0.284 0.238 0.32 0.419 0.022 0.107 0.030 0.218 0.024 0.326-0.019 0.376 0.078 0.463 0.454 0.393 0.023-0.004 0.049-0.012 0.068-0.004 0.254 0.089 0.362-0.079 0.448-0.262 0.222-0.473 0.549-0.853 0.948-1.192 0.319-0.271 0.584-0.605 0.881-0.902 0.83-0.833 1.674-1.653 2.494-2.495 0.461-0.474 0.892-0.977 1.326-1.477 0.066-0.076 0.124-0.232 0.089-0.301-0.039-0.075-0.192-0.128-0.294-0.127-0.662 0.012-1.325 0.027-1.986 0.069-0.522 0.033-1.034 0.058-1.535-0.134-0.125-0.048-0.271-0.055-0.408-0.058-0.311-0.007-0.623 0-0.934-0.001-0.059 0-0.118-0.009-0.21-0.016 0.046-0.043 0.059-0.063 0.078-0.071 0.085-0.040 0.202-0.050 0.182-0.19s-0.102-0.232-0.233-0.272c-0.058-0.017-0.13-0.026-0.186-0.009-0.18 0.053-0.225-0.040-0.228-0.19 0-0.040 0-0.081 0-0.146 0.084 0 0.172-0.019 0.249 0.003 0.339 0.094 0.667 0.043 0.983-0.079 0.91-0.355 1.867-0.543 2.804-0.803 0.137-0.037 0.288-0.030 0.425-0.069 0.259-0.072 0.523-0.138 0.767-0.249 0.616-0.28 1.243-0.515 1.907-0.652 0.241-0.049 0.477-0.133 0.706-0.225 1.4-0.572 2.863-0.946 4.303-1.391 0.662-0.205 1.307-0.444 1.927-0.754 0.177-0.089 0.35-0.189 0.525-0.284 0.012 0 0.023 0 0.035 0 0.081 0.104 0.161 0.208 0.242 0.311-0.006 0.071-0.006 0.14-0.006 0.209z"></path>
<path d="M7.911 17.477c-0.333 0.14-0.685 0.283-1.031 0.435-0.425 0.189-0.846 0.388-1.271 0.579-0.125 0.056-0.252 0.114-0.383 0.15-0.138 0.037-0.222 0.101-0.242 0.251-0.023 0.173-0.128 0.29-0.287 0.362-0.381 0.169-0.781 0.287-1.129 0.532-0.179 0.127-0.379 0.199-0.608 0.050-0.146-0.094-0.277-0.016-0.33 0.159-0.114 0.369-0.161 0.741-0.042 1.121 0.069 0.219 0.118 0.445 0.19 0.663 0.036 0.112 0.114 0.212 0.15 0.324 0.049 0.151 0.108 0.308 0.108 0.463 0 0.277 0.095 0.479 0.308 0.657 0.125 0.105 0.202 0.274 0.281 0.424 0.063 0.121 0.092 0.261 0.148 0.386 0.104 0.226 0.252 0.307 0.5 0.277 0.314-0.039 0.631-0.065 0.941-0.131 0.167-0.036 0.334-0.12 0.474-0.221 0.189-0.136 0.362-0.28 0.604-0.314 0.066-0.009 0.133-0.068 0.184-0.117 0.189-0.176 0.383-0.321 0.663-0.332 0.088-0.003 0.184-0.105 0.257-0.18 0.131-0.137 0.441-0.242 0.613-0.18 0.035 0.013 0.078 0.063 0.078 0.095-0.001 0.107 0.006 0.226-0.040 0.317-0.131 0.262-0.278 0.517-0.432 0.767-0.19 0.307-0.324 0.633-0.396 0.987-0.026 0.127-0.084 0.248-0.134 0.369-0.169 0.402-0.353 0.799-0.509 1.206-0.108 0.285 0.036 0.532 0.324 0.646 0.127 0.049 0.244 0.124 0.363 0.19 0.095 0.053 0.184 0.117 0.283 0.167 0.329 0.167 0.65 0.35 0.99 0.487 0.27 0.108 0.561 0.161 0.845 0.229 0.222 0.053 0.451 0.079 0.67 0.14 0.226 0.062 0.259 0.056 0.323-0.163 0.006-0.022 0.010-0.045 0.017-0.066 0.075-0.248 0.084-0.252 0.34-0.186 0.229 0.059 0.244 0.045 0.287-0.195 0.014-0.082 0.050-0.164 0.089-0.239 0.174-0.329 0.368-0.649 0.529-0.983 0.172-0.357 0.323-0.725 0.466-1.096 0.061-0.159 0.085-0.333 0.111-0.502 0.042-0.278 0.061-0.559 0.105-0.836 0.085-0.541 0.173-1.080 0.275-1.617 0.040-0.213 0.133-0.415 0.183-0.627 0.037-0.159 0.046-0.323 0.066-0.484 0.036-0.301 0.035-0.613 0.21-0.878 0.032-0.049 0.091-0.079 0.138-0.117 0.035 0.049 0.092 0.095 0.101 0.148 0.048 0.306 0.151 0.623 0.112 0.92-0.11 0.835 0.036 1.655 0.062 2.482 0.027 0.908 0.308 1.766 0.486 2.644 0.026 0.127 0.012 0.262 0.037 0.391 0.042 0.206 0.099 0.408 0.151 0.611 0.023 0.092 0.043 0.187 0.076 0.277 0.043 0.121 0.065 0.28 0.153 0.35 0.2 0.16 0.431 0.283 0.659 0.404 0.055 0.029 0.161 0.020 0.213-0.016 0.31-0.212 0.675-0.215 1.021-0.293 0.466-0.105 0.936-0.197 1.387-0.346 0.85-0.281 1.192-1.293 0.833-2.027-0.195-0.396-0.392-0.814-0.457-1.243-0.097-0.644-0.34-1.211-0.662-1.751 0.16-0.202 0.284-0.216 0.456-0.059 0.316 0.287 0.627 0.578 0.816 0.973 0.049 0.101 0.13 0.19 0.208 0.274 0.45 0.49 0.995 0.865 1.532 1.247 0.239 0.17 0.494 0.094 0.639-0.159 0.18-0.314 0.37-0.624 0.562-0.931 0.223-0.356 0.483-0.69 0.673-1.062 0.228-0.448 0.438-0.914 0.582-1.392 0.099-0.329 0.075-0.696 0.099-1.047 0.007-0.115-0.045-0.208-0.17-0.225-0.869-0.12-1.662-0.489-2.489-0.742-0.624-0.192-1.277-0.288-1.916-0.428-0.287-0.062-0.572-0.133-0.861-0.186-0.111-0.022-0.236-0.036-0.343-0.009-0.252 0.068-0.458-0.026-0.689-0.144 0.114-0.065 0.206-0.137 0.311-0.176 0.523-0.192 1.032-0.412 1.616-0.407 0.35 0.003 0.705-0.097 1.052-0.173 1.175-0.258 2.347-0.528 3.52-0.793 0.112-0.026 0.225-0.052 0.337-0.075 0.107-0.022 0.163-0.079 0.153-0.192-0.033-0.35-0.063-0.701-0.104-1.049-0.007-0.056-0.045-0.131-0.091-0.157-0.141-0.078-0.156-0.197-0.154-0.337 0-0.33-0.105-0.62-0.347-0.856-0.082-0.079-0.146-0.179-0.216-0.27-0.105-0.137-0.238-0.173-0.398-0.114-0.517 0.19-1.032 0.385-1.552 0.566-0.232 0.082-0.47 0.146-0.709 0.203-0.045 0.012-0.127-0.033-0.156-0.076-0.027-0.042-0.032-0.128-0.004-0.17 0.085-0.137 0.176-0.272 0.287-0.388 0.441-0.461 0.897-0.911 1.336-1.374 0.184-0.195 0.347-0.411 0.519-0.618 0.033-0.040 0.059-0.088 0.098-0.12 0.218-0.17 0.34-0.402 0.444-0.649 0.033-0.079 0.068-0.16 0.117-0.231 0.12-0.17 0.329-0.199 0.454-0.036 0.157 0.203 0.287 0.43 0.407 0.657 0.075 0.146 0.161 0.246 0.314 0.32 0.14 0.066 0.275 0.174 0.369 0.297 0.809 1.045 1.178 2.257 1.29 3.553 0.046 0.525 0.071 1.059 0.023 1.581-0.043 0.492 0.037 0.961 0.073 1.443 0.050 0.67 0.046 1.336-0.123 2.004-0.287 1.139-0.6 2.269-1.051 3.354-0.079 0.19-0.173 0.379-0.294 0.545-0.432 0.59-0.878 1.17-1.322 1.753-0.222 0.291-0.487 0.532-0.794 0.737-0.141 0.094-0.236 0.255-0.35 0.388-0.030 0.035-0.046 0.082-0.079 0.111-0.523 0.431-1.026 0.881-1.689 1.116-0.391 0.138-0.735 0.399-1.106 0.598-0.34 0.182-0.686 0.352-1.028 0.529-0.066 0.035-0.151 0.059-0.19 0.115-0.127 0.187-0.326 0.236-0.517 0.314-0.18 0.072-0.35 0.174-0.517 0.274-0.376 0.222-0.765 0.373-1.214 0.284-0.033-0.007-0.071-0.009-0.104-0.003-0.548 0.089-1.090-0.066-1.636-0.035-0.079 0.004-0.16-0.014-0.239-0.030-0.131-0.024-0.209-0.107-0.249-0.235-0.020-0.062-0.053-0.133-0.102-0.167-0.043-0.030-0.123-0.029-0.176-0.012-0.026 0.009-0.046 0.089-0.039 0.133 0.020 0.134-0.037 0.177-0.163 0.174-0.192-0.004-0.381 0.001-0.536-0.143-0.035-0.033-0.108-0.036-0.163-0.035-0.96 0.040-1.872-0.197-2.778-0.477-0.075-0.023-0.163-0.049-0.235-0.030-0.192 0.050-0.346-0.019-0.507-0.104-0.369-0.196-0.744-0.382-1.117-0.571-0.066-0.035-0.14-0.061-0.199-0.104-0.594-0.435-1.261-0.767-1.786-1.299-0.131-0.134-0.295-0.239-0.454-0.342-0.342-0.222-0.6-0.519-0.813-0.859-0.029-0.046-0.063-0.102-0.11-0.124-0.223-0.104-0.321-0.288-0.356-0.516-0.025-0.161-0.088-0.231-0.267-0.291-0.154-0.052-0.275-0.274-0.356-0.447-0.078-0.166-0.088-0.365-0.123-0.551-0.009-0.048 0.004-0.098 0.045-0.163 0.040 0.049 0.085 0.095 0.12 0.148 0.095 0.146 0.219 0.144 0.301-0.013 0.108-0.209 0.121-0.427-0.013-0.626-0.219-0.324-0.369-0.676-0.479-1.048-0.036-0.123-0.121-0.187-0.242-0.245-0.134-0.063-0.257-0.173-0.355-0.287-0.108-0.124-0.222-0.184-0.386-0.183-0.143 0.001-0.285-0.029-0.428-0.043-0.046-0.004-0.099-0.023-0.135-0.006-0.177 0.087-0.275-0.010-0.345-0.148-0.087-0.174-0.18-0.35-0.234-0.535-0.222-0.776-0.401-1.561-0.445-2.371-0.006-0.095-0.056-0.187-0.066-0.284-0.016-0.146-0.023-0.294-0.017-0.44 0.006-0.137 0.039-0.272 0.050-0.409 0.073-0.866 0.138-1.733 0.221-2.599 0.026-0.28 0.061-0.566 0.148-0.832 0.13-0.391 0.314-0.764 0.47-1.147 0.033-0.082 0.032-0.179 0.059-0.264 0.048-0.151 0.095-0.304 0.161-0.448 0.102-0.225 0.236-0.435 0.327-0.665 0.32-0.801 0.771-1.534 1.359-2.151 1.084-1.137 2.192-2.259 3.566-3.066 0.163-0.097 0.32-0.206 0.471-0.321 0.541-0.415 1.168-0.68 1.809-0.829 0.466-0.108 0.917-0.288 1.403-0.333 0.311-0.029 0.623-0.111 0.925-0.2 0.408-0.12 0.825-0.143 1.245-0.166 0.327-0.019 0.654-0.062 0.98-0.092 0.408-0.037 0.804-0.009 1.178 0.187 0.089 0.046 0.197 0.062 0.298 0.079 1.049 0.177 1.982 0.623 2.844 1.231 0.046 0.033 0.085 0.078 0.124 0.12 0.138 0.147 0.304 0.21 0.509 0.215 0.166 0.003 0.332 0.032 0.493 0.069 0.172 0.039 0.2 0.144 0.056 0.247-0.099 0.071-0.238 0.12-0.359 0.12-0.219-0.001-0.411 0.020-0.551 0.216-0.033 0.048-0.102 0.072-0.159 0.099-0.28 0.13-0.499 0.324-0.667 0.584-0.046 0.072-0.136 0.114-0.197 0.179-0.105 0.108-0.226 0.21-0.304 0.339-0.144 0.236-0.264 0.261-0.506 0.128-0.346-0.189-0.585-0.479-0.825-0.774-0.16-0.197-0.321-0.192-0.477 0.012-0.027 0.036-0.055 0.076-0.068 0.12-0.2 0.646-0.45 1.274-0.618 1.934-0.233 0.918-0.548 1.822-1.211 2.547-0.032 0.035-0.061 0.069-0.092 0.104-0.012 0.013-0.026 0.022-0.056 0.046-0.026-0.088-0.049-0.167-0.072-0.246-0.082-0.281-0.174-0.561-0.245-0.845-0.157-0.628-0.337-1.255-0.248-1.919 0.012-0.089 0-0.184-0.007-0.275-0.030-0.396-0.066-0.791-0.094-1.188-0.013-0.199-0.039-0.221-0.235-0.228-0.85-0.032-1.649 0.235-2.458 0.435-0.412 0.102-0.816 0.241-1.224 0.362-0.176 0.052-0.244 0.172-0.197 0.343 0.137 0.505 0.259 1.015 0.427 1.509 0.199 0.588 0.441 1.162 0.663 1.743 0.019 0.048 0.052 0.101 0.046 0.147-0.014 0.104-0.022 0.229-0.085 0.296-0.042 0.045-0.179 0.019-0.267-0.003-0.082-0.019-0.157-0.071-0.232-0.114-0.591-0.336-1.181-0.67-1.769-1.010-0.088-0.050-0.164-0.123-0.247-0.184-0.11-0.082-0.223-0.157-0.327-0.246-0.099-0.085-0.199-0.174-0.275-0.278-0.179-0.244-0.381-0.283-0.594-0.071-0.221 0.219-0.418 0.461-0.626 0.693-0.074 0.082-0.133 0.19-0.223 0.238-0.275 0.147-0.404 0.393-0.512 0.665-0.040 0.101-0.097 0.197-0.154 0.29-0.291 0.46-0.523 0.937-0.572 1.493-0.030 0.343-0.102 0.683-0.17 1.021-0.046 0.231-0.134 0.448-0.082 0.695 0.027 0.128 0.082 0.18 0.205 0.18 0.144 0 0.29 0.017 0.431-0.001 0.112-0.016 0.228-0.061 0.326-0.118 0.091-0.055 0.157-0.075 0.267-0.032 0.118 0.046 0.258 0.050 0.389 0.053 0.675 0.013 1.349 0.010 2.022 0.032 0.216 0.007 0.431 0.071 0.646 0.11 0.023 0.004 0.045 0.013 0.065 0.023 0.244 0.105 0.481 0.221 0.739 0.346zM10.662 29.176c0.036-0.003 0.105 0.012 0.123-0.012 0.050-0.068 0.115-0.154 0.11-0.229-0.012-0.137-0.11-0.089-0.19-0.046-0.055 0.029-0.118 0.048-0.17 0.081-0.043 0.029-0.076 0.073-0.115 0.111 0.049 0.029 0.097 0.062 0.148 0.085 0.024 0.012 0.056 0.007 0.095 0.010zM3.749 26.544c-0.010-0.102-0.009-0.193-0.030-0.277-0.010-0.039-0.066-0.065-0.101-0.098-0.029 0.039-0.076 0.076-0.082 0.118-0.020 0.141 0.055 0.221 0.213 0.257zM23.436 20.784c0.141-0.154 0.153-0.247 0.045-0.418-0.072 0.14-0.147 0.265-0.045 0.418z"></path>
</svg>
