<!-- Generated by IcoMoon.io -->
<svg version="1.1" xmlns="http://www.w3.org/2000/svg" width="32" height="32" viewBox="0 0 32 32">
<title>fighters-bulwark</title>
<path d="M15.237 0c0.308 0 0.616 0 0.925 0 0.164 0.011 0.327 0.028 0.491 0.032 0.527 0.014 1.054 0.012 1.556 0.22 0.125 0.052 0.292 0.073 0.42 0.037 0.23-0.065 0.433 0 0.644 0.054 0.154 0.039 0.31 0.076 0.462 0.121 0.629 0.189 1.293 0.264 1.873 0.608 0.041 0.025 0.092 0.033 0.139 0.050 0.289 0.1 0.581 0.191 0.864 0.304 0.162 0.065 0.31 0.164 0.464 0.248 0.11 0.059 0.216 0.131 0.332 0.176 0.356 0.138 0.688 0.314 0.988 0.553 0.179 0.143 0.363 0.289 0.568 0.391 0.388 0.194 0.721 0.422 0.898 0.846 0.085 0.202 0.18 0.352 0.008 0.566-0.169 0.211-0.1 0.355 0.16 0.453 0.030 0.011 0.073 0.019 0.087 0.043 0.034 0.056 0.066 0.12 0.073 0.183 0.001 0.016-0.094 0.062-0.144 0.061-0.087-0.001-0.173-0.028-0.26-0.043-0.242-0.043-0.482-0.036-0.667 0.144-0.3 0.289-0.596 0.583-0.875 0.892-0.213 0.237-0.337 0.527-0.389 0.843-0.033 0.201-0.059 0.402-0.088 0.604-0.149 1.058 0.349 1.774 1.297 2.346 0.1 0.061 0.227 0.088 0.345 0.103 0.288 0.040 0.578 0.076 0.867 0.091 0.728 0.039 1.379-0.153 1.866-0.725 0.237-0.277 0.46-0.571 0.648-0.882 0.147-0.242 0.227-0.523 0.347-0.782 0.047-0.102 0.118-0.191 0.201-0.321 0.085 0.116 0.143 0.18 0.184 0.255 0.305 0.553 0.611 1.106 0.905 1.666 0.076 0.143 0.113 0.307 0.166 0.461 0.047 0.133 0.081 0.271 0.14 0.399 0.087 0.188 0.216 0.361 0.281 0.554 0.124 0.369 0.201 0.754 0.322 1.124 0.337 1.025 0.523 2.078 0.605 3.149 0.085 1.112 0.050 2.221-0.1 3.327-0.045 0.336-0.067 0.68-0.27 0.976-0.034 0.051-0.039 0.139-0.026 0.205 0.059 0.344-0.151 0.623-0.211 0.938-0.003 0.014-0.022 0.023-0.034 0.034-0.278 0.248-0.338 0.588-0.337 0.927 0.001 0.378-0.096 0.707-0.297 1.024-0.161 0.253-0.338 0.515-0.414 0.798-0.094 0.355-0.261 0.659-0.436 0.969-0.138 0.244-0.278 0.487-0.418 0.729-0.025 0.044-0.058 0.084-0.087 0.125-0.018-0.001-0.034-0.003-0.052-0.006-0.029-0.136-0.062-0.271-0.084-0.407-0.025-0.151-0.023-0.308-0.059-0.457-0.226-0.923-0.846-1.493-1.695-1.837-0.187-0.076-0.41-0.111-0.61-0.094-0.277 0.025-0.55 0.107-0.819 0.184-0.819 0.235-1.475 0.674-1.818 1.493-0.034 0.081-0.077 0.158-0.11 0.239-0.462 1.095-0.136 2.371 0.827 3.068 0.416 0.301 0.886 0.526 1.335 0.779 0.102 0.058 0.216 0.092 0.311 0.132-0.271 0.238-0.532 0.479-0.804 0.707-0.718 0.604-1.531 1.066-2.362 1.489-0.826 0.418-1.646 0.871-2.598 0.956-0.061 0.006-0.138 0.040-0.169 0.088-0.092 0.138-0.226 0.187-0.373 0.219-0.563 0.124-1.125 0.256-1.691 0.366-0.57 0.11-1.163 0.022-1.725 0.194-0.030 0.010-0.066 0.006-0.099 0.004-0.736-0.022-1.474-0.029-2.208-0.073-0.405-0.023-0.813-0.076-1.205-0.176-0.327-0.084-0.629-0.264-0.985-0.183-0.025 0.006-0.054-0.007-0.080-0.015-0.564-0.182-1.132-0.348-1.69-0.548-1.194-0.427-2.343-0.949-3.39-1.675-0.216-0.149-0.429-0.301-0.658-0.462 0.044-0.032 0.063-0.050 0.085-0.062 0.676-0.367 1.137-0.947 1.531-1.581 0.303-0.486 0.414-1.024 0.323-1.599-0.143-0.912-0.641-1.6-1.357-2.145-0.114-0.087-0.282-0.11-0.428-0.147-0.088-0.022-0.186-0.010-0.277-0.025-0.292-0.045-0.579-0.076-0.854 0.073-0.028 0.015-0.063 0.021-0.096 0.022-0.59 0.023-0.995 0.365-1.353 0.787-0.103 0.121-0.195 0.253-0.308 0.366-0.267 0.27-0.33 0.589-0.241 0.942 0.037 0.149 0.003 0.245-0.138 0.316-0.032-0.036-0.069-0.069-0.096-0.109-0.312-0.453-0.652-0.889-0.926-1.364-0.367-0.636-0.699-1.295-1.015-1.958-0.193-0.403-0.418-0.804-0.4-1.277 0.001-0.051-0.034-0.103-0.056-0.153-0.205-0.451-0.389-0.908-0.462-1.403-0.056-0.374-0.133-0.747-0.204-1.119-0.307-1.646-0.303-3.293 0.011-4.937 0.087-0.451 0.222-0.894 0.337-1.34 0.129-0.498 0.26-0.998 0.396-1.494 0.055-0.2 0.171-0.355 0.373-0.433 0.037-0.014 0.078-0.050 0.091-0.085 0.080-0.227 0.154-0.457 0.226-0.688 0.069-0.224 0.117-0.454 0.198-0.673 0.074-0.2 0.211-0.38 0.261-0.583 0.061-0.242 0.164-0.451 0.301-0.652 0.161-0.233 0.337-0.228 0.469 0.022 0.176 0.336 0.349 0.673 0.52 1.011 0.088 0.175 0.184 0.354 0.38 0.414 0.325 0.1 0.652 0.211 0.987 0.248 0.253 0.028 0.517-0.058 0.776-0.087 0.541-0.059 0.991-0.297 1.332-0.713 0.222-0.271 0.421-0.564 0.6-0.865 0.585-0.993 0.425-1.941-0.227-2.833-0.204-0.278-0.455-0.521-0.695-0.773-0.061-0.063-0.15-0.107-0.234-0.136-0.168-0.058-0.34-0.098-0.548-0.155 0.278-0.213 0.521-0.399 0.765-0.585 0.689-0.523 1.401-1.009 2.228-1.299 0.186-0.065 0.367-0.15 0.538-0.246 0.57-0.322 1.163-0.59 1.789-0.783 1.207-0.373 2.434-0.633 3.701-0.676 0.15-0.006 0.293-0.058 0.436-0.088zM16.18 30.647c0.206-0.301 0.402-0.567 0.578-0.846 0.202-0.319 0.385-0.651 0.581-0.974 0.143-0.235 0.305-0.458 0.438-0.699 0.369-0.669 0.715-1.351 1.095-2.013 0.198-0.347 0.451-0.662 0.677-0.992 0.037-0.054 0.062-0.114 0.094-0.171 0.186-0.334 0.374-0.667 0.557-1.003 0.029-0.054 0.066-0.129 0.048-0.175-0.018-0.047-0.095-0.085-0.153-0.1-0.055-0.014-0.118 0.010-0.179 0.011-0.228 0.004-0.458 0.007-0.687 0.007-0.099 0-0.198-0.019-0.294-0.010-0.245 0.022-0.27-0.010-0.26-0.252 0.012-0.334 0.010-0.669 0.003-1.003-0.007-0.369-0.028-0.736-0.034-1.105-0.006-0.308 0.010-0.615-0.001-0.923-0.011-0.279-0.065-0.559-0.063-0.838 0.003-0.399 0.033-0.798 0.065-1.196 0.004-0.055 0.081-0.138 0.138-0.15 0.165-0.037 0.336-0.061 0.505-0.065 0.633-0.014 1.266-0.004 1.897-0.030 0.582-0.025 1.163-0.096 1.745-0.125 0.428-0.021 0.859-0.001 1.287-0.006 0.556-0.006 1.11-0.014 1.666-0.026 0.161-0.003 0.257 0.055 0.257 0.224 0 0.34-0.007 0.681-0.006 1.021 0 0.081 0.010 0.166 0.039 0.241 0.037 0.095 0.092 0.121 0.182 0.026 0.142-0.151 0.29-0.299 0.454-0.425 1.174-0.908 2.353-1.809 3.526-2.717 0.144-0.113 0.268-0.252 0.405-0.38-0.072-0.089-0.125-0.16-0.182-0.226-1.296-1.518-2.804-2.811-4.322-4.093-0.054-0.045-0.125-0.067-0.213-0.114-0.007 0.103-0.015 0.168-0.015 0.233 0 0.391 0.004 0.782 0.003 1.172 0 0.266-0.041 0.3-0.311 0.296-0.286-0.005-0.572-0.017-0.857-0.010-0.765 0.019-1.529 0.055-2.292 0.072-1.193 0.025-2.387 0.041-3.58 0.059-0.213 0.003-0.277-0.051-0.259-0.261 0.048-0.612-0.039-1.215-0.091-1.822-0.054-0.625-0.077-1.251-0.018-1.878 0.070-0.733 0.133-1.47 0.010-2.206-0.025-0.15 0.051-0.193 0.187-0.191 0.396 0.001 0.793 0.004 1.187-0.010 0.227-0.008 0.264-0.081 0.146-0.282-0.343-0.588-0.629-1.204-1.061-1.742-0.413-0.513-0.757-1.080-1.143-1.617-0.417-0.579-0.837-1.159-1.276-1.723-0.209-0.268-0.468-0.498-0.709-0.75-0.161 0.252-0.296 0.465-0.432 0.678-0.832 1.3-1.665 2.6-2.499 3.901-0.026 0.041-0.051 0.085-0.084 0.122-0.377 0.407-0.66 0.879-0.909 1.37-0.051 0.1-0.106 0.286-0.063 0.326 0.083 0.074 0.235 0.072 0.359 0.102 0.005 0.001 0.011-0.001 0.017-0.001 0.378-0.010 0.758-0.019 1.137-0.029 0.105-0.003 0.153 0.055 0.144 0.155-0.011 0.149-0.011 0.3-0.047 0.443-0.186 0.766-0.178 1.549-0.226 2.328-0.012 0.202 0.029 0.413-0.010 0.608-0.070 0.348-0.088 0.696-0.078 1.048 0.005 0.215 0.014 0.431-0.001 0.644-0.005 0.067-0.084 0.182-0.135 0.184-0.454 0.028-0.909 0.045-1.365 0.044-0.338-0.001-0.678-0.045-1.017-0.054-0.395-0.010-0.791-0.004-1.187-0.001-0.296 0.003-0.593 0.018-0.889 0.018-0.323 0-0.645-0.010-0.969-0.015-0.028 0-0.063-0.017-0.080-0.004-0.168 0.122-0.348 0.045-0.526 0.044-0.171-0.001-0.228-0.087-0.227-0.234 0.001-0.242 0.012-0.483 0.014-0.725 0-0.096-0.016-0.191-0.026-0.288-0.018-0.003-0.037-0.005-0.055-0.008-0.059 0.055-0.12 0.109-0.175 0.168-0.29 0.312-0.567 0.638-0.87 0.936-0.53 0.519-1.026 1.076-1.654 1.487-0.050 0.033-0.094 0.077-0.136 0.118-0.428 0.42-0.85 0.845-1.285 1.258-0.146 0.139-0.325 0.242-0.482 0.37-0.109 0.088-0.206 0.189-0.334 0.305 0.219 0.121 0.403 0.219 0.583 0.322 0.128 0.073 0.255 0.151 0.377 0.233 0.227 0.151 0.45 0.311 0.678 0.46 0.294 0.191 0.632 0.333 0.885 0.567 0.676 0.621 1.427 1.161 1.991 1.899 0.076 0.099 0.161 0.084 0.216-0.032 0.021-0.044 0.029-0.094 0.037-0.143 0.058-0.345 0.116-0.692 0.178-1.072 0.416-0.017 0.826-0.043 1.237-0.047 0.374-0.004 0.748 0.029 1.121 0.021 1.079-0.022 2.156-0.056 3.235-0.088 0.233-0.007 0.259 0.015 0.253 0.248-0.010 0.336-0.021 0.671-0.037 1.006-0.033 0.643-0.065 1.285-0.107 1.926-0.014 0.206-0.065 0.411-0.085 0.618-0.018 0.166-0.029 0.336-0.022 0.504 0.007 0.184 0.051 0.367 0.056 0.552 0.005 0.237-0.021 0.473-0.017 0.709 0.003 0.161-0.058 0.227-0.217 0.238-0.246 0.017-0.494 0.043-0.738 0.081-0.2 0.032-0.257 0.157-0.16 0.334 0.055 0.099 0.135 0.186 0.208 0.275 0.235 0.289 0.471 0.578 0.707 0.867 0.052 0.063 0.1 0.133 0.161 0.187 0.417 0.373 0.744 0.82 1.090 1.258 0.698 0.885 1.428 1.743 2.052 2.686 0.191 0.293 0.414 0.567 0.645 0.879zM2.5 8.099c-0.018 0.034-0.080 0.109-0.063 0.135 0.054 0.088 0.136 0.158 0.206 0.235 0.034-0.041 0.095-0.081 0.099-0.127 0.011-0.106-0.121-0.25-0.242-0.244zM8.758 26.921c-0.026-0.034-0.052-0.080-0.089-0.111-0.014-0.011-0.080 0.011-0.083 0.025-0.025 0.118-0.045 0.238-0.055 0.359-0.001 0.021 0.051 0.065 0.078 0.066 0.029 0 0.073-0.034 0.084-0.063 0.026-0.083 0.040-0.169 0.065-0.275zM2.958 24.348c0.001-0.023 0.003-0.047 0.004-0.070-0.076-0.011-0.151-0.023-0.227-0.034-0.004 0.063-0.036 0.161-0.008 0.184 0.11 0.092 0.162-0.029 0.231-0.080z"></path>
<path d="M14.323 16.017c0.058-0.487 0.175-0.871 0.494-1.16 0.2-0.18 0.409-0.352 0.623-0.512 0.066-0.050 0.169-0.052 0.257-0.066 0.096-0.015 0.195-0.010 0.29-0.026 0.281-0.047 0.546-0.012 0.798 0.125 0.029 0.015 0.056 0.040 0.088 0.044 0.359 0.051 0.544 0.279 0.629 0.611 0.006 0.021 0.010 0.044 0.021 0.062 0.248 0.411 0.139 0.824 0.004 1.237-0.131 0.403-0.372 0.718-0.742 0.93-0.162 0.094-0.319 0.194-0.479 0.29-0.037 0.022-0.076 0.045-0.117 0.061-0.23 0.089-0.962-0.11-1.106-0.308-0.204-0.279-0.411-0.557-0.593-0.85-0.091-0.147-0.128-0.329-0.168-0.438zM16.316 14.512c0-0.026-0.001-0.051-0.001-0.077-0.052-0.037-0.102-0.099-0.157-0.106-0.098-0.012-0.183 0.045-0.164 0.153 0.011 0.058 0.087 0.147 0.129 0.144 0.066-0.003 0.129-0.072 0.193-0.114z"></path>
<path d="M16.010 22.080c0.347 0.073 0.676 0.133 0.999 0.217 0.070 0.018 0.139 0.109 0.173 0.182 0.091 0.193 0.173 0.392 0.238 0.596 0.023 0.074-0.030 0.172-0.017 0.253 0.138 0.783-0.194 1.405-0.682 1.966-0.098 0.113-0.238 0.191-0.363 0.277-0.043 0.029-0.103 0.050-0.155 0.048-0.538-0.017-1.021-0.138-1.304-0.666-0.067-0.127-0.186-0.228-0.29-0.334-0.403-0.41-0.422-0.707-0.202-1.233 0.204-0.484 0.57-0.805 0.965-1.095 0.175-0.131 0.432-0.147 0.64-0.211z"></path>
<path d="M26.69 14.239c0.427 0.235 0.731 0.56 0.852 1.025 0.078 0.3-0.175 0.832-0.446 1.004-0.078 0.050-0.162 0.095-0.233 0.155-0.105 0.088-0.092 0.16 0.029 0.227 0.162 0.089 0.175 0.131 0.087 0.294-0.186 0.349-0.414 0.471-0.808 0.428-0.076-0.008-0.151-0.023-0.227-0.039-0.466-0.102-1.311-0.798-1.503-1.237-0.153-0.351-0.12-0.692 0.077-1.009 0.142-0.227 0.316-0.435 0.479-0.649 0.062-0.083 0.136-0.084 0.234-0.052 0.089 0.029 0.193 0.041 0.286 0.029 0.217-0.028 0.432-0.077 0.649-0.11 0.067-0.010 0.161-0.021 0.205 0.015 0.142 0.116 0.234 0.065 0.318-0.083zM26.496 14.563c0.099 0.074 0.132 0.235 0.279 0.155 0.032-0.017 0.036-0.158 0.001-0.204-0.091-0.125-0.177-0.026-0.281 0.048z"></path>
<path d="M14.556 7.094c0.019-0.107 0.040-0.215 0.059-0.323 0.034-0.183 0.088-0.366 0.098-0.55 0.025-0.521 0.649-1.047 1.198-0.9 0.135 0.036 0.301-0.025 0.449-0.056 0.233-0.051 0.268-0.023 0.405 0.171 0.155 0.223 0.326 0.44 0.516 0.634 0.216 0.22 0.268 0.421 0.175 0.707-0.095 0.292-0.165 0.592-0.234 0.89-0.047 0.199-0.065 0.402-0.327 0.447-0.081 0.014-0.15 0.089-0.227 0.128-0.299 0.149-0.603 0.178-0.94 0.122-0.427-0.069-1.204-0.731-1.171-1.27zM15.778 5.948c0.059-0.089 0.124-0.147 0.125-0.205 0.001-0.052-0.067-0.106-0.105-0.16-0.051 0.066-0.114 0.128-0.146 0.204-0.010 0.023 0.062 0.081 0.125 0.161z"></path>
<path d="M9.037 15.457c-0.014 0.063-0.025 0.129-0.043 0.191-0.087 0.3-0.179 0.6-0.261 0.901-0.088 0.316-0.279 0.548-0.574 0.682-0.2 0.091-0.407 0.166-0.616 0.227-0.182 0.052-0.377 0.029-0.513-0.105-0.308-0.303-0.634-0.599-0.883-0.948-0.398-0.555-0.238-1.11 0.356-1.456 0.029-0.017 0.066-0.028 0.083-0.054 0.167-0.266 0.443-0.341 0.717-0.429 0.109-0.034 0.211-0.091 0.312-0.144 0.167-0.085 0.294-0.029 0.402 0.102 0.118 0.144 0.234 0.29 0.345 0.44 0.077 0.103 0.158 0.147 0.296 0.114 0.065-0.015 0.178 0.018 0.215 0.069 0.083 0.116 0.131 0.256 0.191 0.387-0.010 0.010-0.018 0.015-0.026 0.022zM8.176 16.288c0.043-0.044 0.078-0.083 0.122-0.131-0.044-0.050-0.081-0.092-0.117-0.133-0.142 0.098-0.135 0.175-0.005 0.264z"></path>
</svg>
