<!-- Generated by IcoMoon.io -->
<svg version="1.1" xmlns="http://www.w3.org/2000/svg" width="32" height="32" viewBox="0 0 32 32">
<title>fighters-minion</title>
<path d="M31.591 14.783c-0.086 0.088-0.187 0.104-0.312 0.118-0.234 0.025-0.466 0.098-0.695 0.166-0.219 0.066-0.431 0.152-0.647 0.226-0.147 0.051-0.296 0.104-0.446 0.14-0.156 0.038-0.314 0.058-0.473 0.084-0.126 0.021-0.257 0.022-0.379 0.059-0.825 0.25-1.651 0.5-2.472 0.766-0.232 0.076-0.459 0.182-0.668 0.307-0.361 0.216-0.702 0.463-1.060 0.683-0.131 0.080-0.281 0.145-0.431 0.174-0.219 0.044-0.316-0.021-0.422-0.218-0.138-0.25-0.222-0.286-0.465-0.143-0.379 0.223-0.655 0.528-0.745 0.982-0.067 0.338-0.194 0.658-0.494 0.87-0.136 0.097-0.291 0.17-0.415 0.279-0.401 0.351-0.796 0.71-1.186 1.072-0.181 0.168-0.386 0.265-0.619 0.349-0.587 0.212-1.105 0.523-1.322 1.169-0.059 0.175-0.027 0.305 0.112 0.417 0.197 0.157 0.393 0.317 0.592 0.472 0.042 0.032 0.101 0.042 0.149 0.070 0.056 0.032 0.139 0.062 0.156 0.111 0.069 0.201 0.236 0.272 0.407 0.345 0.029 0.013 0.055 0.032 0.094 0.101-0.080 0.031-0.159 0.081-0.24 0.088-0.363 0.029-0.727 0.051-1.092 0.063-0.174 0.007-0.278 0.086-0.307 0.25-0.032 0.181-0.070 0.366-0.066 0.549 0.006 0.225 0.161 0.361 0.361 0.444 0.279 0.115 0.298 0.187 0.076 0.394-0.159 0.149-0.234 0.334-0.295 0.538-0.145 0.497-0.285 0.998-0.54 1.454-0.027 0.048-0.035 0.105-0.052 0.159-0.208 0.691-0.428 1.377-0.622 2.072-0.189 0.678-0.393 1.357-0.406 2.072 0 0.039-0.014 0.090 0.004 0.116 0.146 0.206 0.010 0.312-0.139 0.414-0.011 0-0.022 0-0.034 0-0.211-0.152-0.284-0.358-0.272-0.613 0.014-0.33 0.056-0.669 0.004-0.991-0.098-0.618-0.244-1.228-0.389-1.837-0.097-0.408-0.237-0.806-0.334-1.214-0.062-0.261-0.079-0.532-0.117-0.797-0.007-0.045-0.011-0.091-0.028-0.131-0.278-0.667-0.354-1.395-0.653-2.060-0.18-0.399-0.246-0.848-0.366-1.272-0.037-0.129-0.070-0.261-0.131-0.379-0.079-0.154-0.043-0.247 0.101-0.33 0.219-0.126 0.351-0.31 0.334-0.577-0.007-0.115-0.056-0.182-0.178-0.208-0.258-0.053-0.327-0.139-0.324-0.407 0.004-0.295-0.154-0.525-0.302-0.751-0.118-0.181-0.476-0.116-0.567 0.080-0.024 0.049-0.051 0.097-0.080 0.153-0.378-0.182-0.726-0.382-1.026-0.655-0.257-0.234-0.515-0.469-0.776-0.698-0.101-0.088-0.223-0.152-0.319-0.244-0.111-0.107-0.23-0.218-0.299-0.351-0.138-0.268-0.317-0.483-0.573-0.643-0.142-0.088-0.264-0.208-0.392-0.317-0.105-0.091-0.213-0.143-0.364-0.136-0.094 0.004-0.205-0.049-0.284-0.109-0.132-0.101-0.139-0.213-0.025-0.333 0.219-0.229 0.129-0.493 0.107-0.749-0.001-0.015-0.014-0.031-0.027-0.042-0.146-0.15-0.303-0.053-0.456-0.018-0.121 0.028-0.18 0.108-0.153 0.237 0.004 0.022 0.014 0.052 0.004 0.066-0.115 0.157-0.042 0.321-0.027 0.486 0.021 0.219-0.087 0.302-0.284 0.197-0.458-0.246-0.929-0.477-1.349-0.779-0.435-0.314-0.907-0.375-1.408-0.376-0.084 0-0.168 0.018-0.251 0.018-0.219-0.001-0.285-0.125-0.184-0.319 0.091-0.173 0.181-0.348 0.261-0.526 0.063-0.14-0.048-0.392-0.197-0.474-0.115-0.065-0.389-0.008-0.456 0.115-0.031 0.056-0.017 0.157 0.014 0.222 0.034 0.073 0.118 0.121 0.163 0.189 0.032 0.051 0.038 0.119 0.055 0.178-0.062 0.007-0.128 0.034-0.184 0.020-0.197-0.046-0.386-0.123-0.584-0.156-0.452-0.073-0.909-0.115-1.361-0.188-0.647-0.105-1.29-0.233-1.937-0.338-0.187-0.029-0.371-0.032-0.481-0.261 0.088-0.028 0.177-0.076 0.267-0.081 0.139-0.007 0.279 0.021 0.418 0.025 0.056 0.001 0.119-0.015 0.17-0.041 0.1-0.051 0.185-0.142 0.289-0.168 0.561-0.149 1.082-0.392 1.603-0.643 0.285-0.138 0.591-0.241 0.895-0.333 0.661-0.198 1.273-0.494 1.832-0.9 0.138-0.1 0.262-0.126 0.418-0.049 0.201 0.1 0.408 0.147 0.632 0.053 0.053-0.022 0.128 0.003 0.206 0.007 0.204-0.271 0.306-0.597 0.387-0.938 0.006 0.066 0.011 0.132 0.021 0.241 0.069-0.123 0.117-0.208 0.17-0.303 0.031 0.027 0.058 0.049 0.087 0.074 0.038-0.037 0.074-0.070 0.109-0.104 0.257 0.187 0.335 0.455 0.25 0.808-0.058 0.239-0.114 0.479-0.152 0.721-0.027 0.173 0.035 0.234 0.211 0.248 0.225 0.018 0.425-0.055 0.587-0.205 0.181-0.167 0.354-0.344 0.515-0.531 0.206-0.237 0.383-0.501 0.599-0.727 0.78-0.817 1.549-1.652 2.521-2.254 0.581-0.361 1.173-0.702 1.763-1.048 0.202-0.119 0.268-0.313 0.191-0.598-0.055-0.201-0.185-0.295-0.413-0.296-0.062 0-0.125 0.018-0.184 0.010-0.104-0.015-0.262-0.017-0.296-0.079-0.043-0.079-0.010-0.225 0.035-0.321 0.129-0.279 0.282-0.547 0.422-0.822 0.098-0.195 0.204-0.389 0.281-0.592 0.062-0.164 0.105-0.34 0.126-0.514 0.029-0.261 0.138-0.358 0.4-0.313 0.204 0.035 0.401 0.038 0.589-0.066 0.194-0.107 0.292-0.272 0.303-0.491 0.008-0.156-0.074-0.257-0.233-0.268-0.122-0.008-0.247 0-0.371 0.001-0.229 0.004-0.321-0.123-0.24-0.333 0.013-0.031 0.025-0.062 0.041-0.093 0.373-0.751 0.751-1.499 1.121-2.251 0.117-0.236 0.218-0.48 0.317-0.723 0.059-0.145 0.126-0.269 0.284-0.335 0.045-0.020 0.072-0.1 0.093-0.157 0.037-0.094 0.063-0.192 0.095-0.289 0.011 0 0.022 0 0.034 0 0.045 0.081 0.102 0.157 0.131 0.243 0.066 0.199 0.111 0.406 0.178 0.606 0.157 0.472 0.326 0.94 0.483 1.412 0.076 0.227 0.136 0.462 0.203 0.692 0.147 0.504 0.33 1.002 0.434 1.516 0.125 0.616 0.243 1.229 0.495 1.811 0.087 0.201 0.168 0.403 0.244 0.608 0.126 0.342 0.285 0.647 0.62 0.848 0.23 0.138 0.211 0.342-0.007 0.502-0.104 0.076-0.216 0.142-0.319 0.219-0.086 0.066-0.105 0.159-0.017 0.229 0.187 0.149 0.372 0.31 0.582 0.418 0.114 0.059 0.285 0.051 0.42 0.020 0.233-0.053 0.455-0.157 0.688-0.218 0.095-0.025 0.215-0.015 0.309 0.017 0.16 0.053 0.187 0.161 0.097 0.303-0.084 0.132-0.175 0.26-0.265 0.39-0.145 0.212-0.15 0.278 0.048 0.441 0.258 0.215 0.434 0.472 0.536 0.794 0.070 0.223 0.157 0.458 0.302 0.634 0.14 0.173 0.226 0.321 0.167 0.542-0.007 0.028 0.048 0.086 0.086 0.111 0.084 0.056 0.187 0.087 0.264 0.15 0.136 0.115 0.253 0.255 0.389 0.371 0.187 0.16 0.399 0.195 0.626 0.081 0.121-0.060 0.236-0.147 0.362-0.174 0.274-0.056 0.337-0.247 0.393-0.48 0.037-0.153 0.119-0.3 0.206-0.435 0.086-0.132 0.203-0.122 0.305-0.007 0.438 0.501 0.967 0.856 1.618 1.026 0.122 0.032 0.257 0.111 0.331 0.211 0.197 0.262 0.456 0.403 0.759 0.494 0.536 0.163 1.071 0.326 1.601 0.507 0.434 0.147 0.859 0.32 1.288 0.481 0.031 0.011 0.065 0.025 0.087 0.048 0.171 0.163 0.379 0.194 0.595 0.14 0.212-0.052 0.386 0.004 0.546 0.135 0.003 0.028 0.003 0.062 0.003 0.095zM16.614 22.46c0.048-0.072 0.097-0.116 0.109-0.17 0.063-0.265 0.112-0.535 0.173-0.801 0.056-0.251 0.116-0.288 0.363-0.206 0.112 0.037 0.177 0.015 0.222-0.098 0.115-0.285 0.223-0.575 0.366-0.848 0.091-0.173 0.218-0.344 0.369-0.465 0.23-0.184 0.493-0.33 0.747-0.481 0.123-0.074 0.201-0.167 0.232-0.31 0.060-0.271 0.059-0.526-0.084-0.78-0.118-0.211-0.062-0.342 0.16-0.449 0.254-0.122 0.512-0.152 0.773-0.006 0.052 0.029 0.139 0.049 0.188 0.025 0.389-0.188 0.699-0.462 0.71-0.921 0.007-0.292-0.042-0.592-0.118-0.876-0.188-0.699-0.417-1.387-0.389-2.123 0.008-0.236 0.041-0.472 0.027-0.706-0.029-0.521-0.067-1.041-0.132-1.558-0.025-0.199-0.123-0.393-0.208-0.581-0.080-0.178-0.203-0.337-0.279-0.517-0.112-0.265-0.302-0.438-0.556-0.556-0.157-0.073-0.335-0.123-0.465-0.233-0.312-0.264-0.685-0.376-1.061-0.484-0.619-0.18-1.256-0.321-1.889-0.145-0.634 0.178-1.246 0.434-1.864 0.667-0.1 0.038-0.187 0.123-0.265 0.202-0.24 0.243-0.486 0.484-0.705 0.745-0.135 0.16-0.274 0.345-0.326 0.542-0.123 0.463-0.264 0.939-0.275 1.412-0.021 0.792-0.048 1.58-0.153 2.365-0.072 0.529-0.076 1.074-0.351 1.563-0.059 0.105-0.031 0.286 0.010 0.415 0.067 0.212 0.185 0.408 0.267 0.616 0.076 0.194 0.199 0.328 0.39 0.414 0.1 0.045 0.199 0.112 0.272 0.194 0.277 0.305 0.602 0.289 0.956 0.182 0.289-0.087 0.546-0.094 0.799 0.153 0.49 0.48 0.726 1.084 0.916 1.714 0.029 0.097 0.014 0.213-0.001 0.317-0.031 0.215 0.039 0.291 0.257 0.255 0.258-0.042 0.34 0.045 0.4 0.298 0.090 0.379 0.216 0.749 0.33 1.124 0.010 0.031 0.039 0.053 0.084 0.109zM7.882 13.524c-0.072-0.091-0.117-0.16-0.173-0.218-0.018-0.018-0.076-0.022-0.094-0.008-0.022 0.018-0.038 0.072-0.028 0.097 0.046 0.111 0.136 0.15 0.295 0.129zM9.69 17.554c0.015 0.013 0.031 0.027 0.046 0.039 0.039-0.060 0.102-0.116 0.109-0.181 0.004-0.039-0.076-0.087-0.118-0.132-0.013 0.010-0.025 0.018-0.038 0.028 0 0.083 0 0.164 0 0.246zM19.551 18.633c-0.129 0.087-0.086 0.156 0.020 0.241 0.039-0.039 0.077-0.077 0.121-0.121-0.058-0.049-0.094-0.081-0.14-0.121z"></path>
<path d="M14.839 17.629c-0.393-0.116-0.832-0.081-1.196-0.333-0.048-0.034-0.112-0.049-0.171-0.062-0.458-0.1-0.686-0.58-0.473-0.997 0.041-0.080 0.081-0.16 0.111-0.244 0.115-0.335 0.335-0.472 0.691-0.411 0.086 0.014 0.173 0.049 0.25 0.091 0.383 0.211 0.761 0.428 1.145 0.637 0.142 0.077 0.292 0.136 0.441 0.199 0.129 0.055 0.24 0.123 0.262 0.278 0.022 0.147-0.081 0.216-0.177 0.299-0.104 0.090-0.208 0.187-0.285 0.3-0.149 0.216-0.386 0.173-0.598 0.241z"></path>
<path d="M18.654 17.213c-0.495 0.007-0.804-0.128-1.060-0.392-0.097-0.101-0.122-0.208-0.017-0.309 0.108-0.102 0.225-0.199 0.348-0.281 0.271-0.177 0.552-0.34 0.825-0.515 0.038-0.025 0.076-0.087 0.074-0.131-0.001-0.111 0.056-0.15 0.152-0.161 0.121-0.015 0.272-0.084 0.354-0.037 0.173 0.104 0.333 0.251 0.455 0.413 0.17 0.225 0.219 0.502 0.216 0.78-0.001 0.074-0.059 0.187-0.121 0.216-0.429 0.206-0.87 0.386-1.227 0.415z"></path>
<path d="M15.803 19.127c0.028-0.090 0.065-0.178 0.080-0.269 0.029-0.161 0.042-0.327 0.070-0.488 0.015-0.087 0.025-0.194 0.079-0.254 0.132-0.143 0.284-0.271 0.436-0.393 0.161-0.128 0.267-0.111 0.408 0.042 0.159 0.171 0.226 0.376 0.264 0.605 0.028 0.166 0.090 0.333 0.173 0.48 0.136 0.24 0.188 0.483-0.171 0.651-0.349 0.163-0.678 0.246-1.041 0.067-0.185-0.094-0.281-0.226-0.298-0.441z"></path>
</svg>
