<!-- Generated by IcoMoon.io -->
<svg version="1.1" xmlns="http://www.w3.org/2000/svg" width="32" height="32" viewBox="0 0 32 32">
<title>fighters-sentience</title>
<path d="M1.454 14.917c0.185-0.092 0.347-0.037 0.521 0.053 0.155 0.080 0.333 0.154 0.503 0.162 0.44 0.021 0.882 0.012 1.322-0.004 0.223-0.008 0.419-0.113 0.562-0.285 0.484-0.576 1.114-0.634 1.794-0.512 0.216 0.039 0.425 0.122 0.642 0.155 0.13 0.021 0.285 0.021 0.398-0.033 0.336-0.158 0.659-0.345 0.985-0.525 0.107-0.059 0.212-0.059 0.266 0.050s0.090 0.238 0.095 0.36c0.015 0.342 0.013 0.686 0.014 1.028 0 0.117 0.019 0.245-0.022 0.348-0.094 0.238-0.059 0.471-0.040 0.711 0.022 0.27 0.072 0.542-0.028 0.808-0.083 0.223-0.214 0.268-0.356 0.083-0.226-0.298-0.532-0.437-0.867-0.548-0.14-0.047-0.279-0.105-0.41-0.175-0.211-0.112-0.402-0.096-0.611 0.018-0.214 0.117-0.446 0.205-0.673 0.295-0.294 0.116-0.585 0.024-0.878-0.022-0.329-0.051-0.659-0.089-0.987-0.14-0.105-0.017-0.221-0.033-0.307-0.089-0.331-0.212-0.682-0.407-0.971-0.669-0.347-0.313-0.638-0.688-0.954-1.036 0-0.013 0-0.023 0-0.033zM7.697 16.095c0.053 0.069 0.086 0.11 0.118 0.153 0.050-0.058 0.121-0.109 0.144-0.176 0.010-0.031-0.073-0.092-0.116-0.14-0.044 0.049-0.089 0.099-0.146 0.163zM7.83 15.481c0 0.026-0.001 0.053-0.001 0.078 0.067 0.012 0.135 0.023 0.202 0.035-0.003-0.045-0.006-0.091-0.009-0.136-0.064 0.006-0.127 0.014-0.191 0.023z"></path>
<path d="M15.044 7.414c-0.069 0.062-0.139 0.123-0.208 0.185 0.009 0.018 0.019 0.035 0.028 0.053 0.056-0.006 0.118-0.001 0.169-0.022 0.187-0.073 0.402-0.094 0.53-0.282 0.022-0.032 0.081-0.051 0.123-0.054 0.298-0.017 0.596-0.022 0.865 0.143 0.038 0.023 0.080 0.050 0.123 0.058 0.321 0.055 0.643 0.104 0.964 0.162 0.083 0.015 0.168 0.049 0.244 0.089 0.248 0.131 0.485 0.282 0.74 0.401s0.471 0.267 0.612 0.515c0.045 0.080 0.105 0.153 0.167 0.221 0.421 0.465 0.707 1.003 0.87 1.607 0.073 0.268 0.151 0.529 0.428 0.682 0.072 0.040 0.117 0.172 0.128 0.267 0.041 0.345 0.067 0.693 0.090 1.041 0.055 0.86 0.095 1.722 0.162 2.581 0.018 0.236 0.116 0.466 0.167 0.701 0.022 0.099 0.036 0.204 0.026 0.304-0.081 0.779 0.068 1.521 0.34 2.246 0.005 0.014 0.017 0.028 0.017 0.042 0.021 0.306 0.173 0.449 0.488 0.478 0.245 0.022 0.28 0.169 0.13 0.367-0.263 0.347-0.519 0.698-0.778 1.049-0.018 0.024-0.032 0.056-0.056 0.072-0.209 0.141-0.411 0.298-0.634 0.411-0.081 0.041-0.227 0.006-0.32-0.041-0.258-0.131-0.48-0.154-0.722 0.054-0.144 0.125-0.339 0.189-0.512 0.276-0.149 0.076-0.239 0.193-0.308 0.345-0.282 0.624-0.493 1.267-0.607 1.946-0.049 0.29-0.154 0.574-0.266 0.847-0.16 0.392-0.272 0.792-0.356 1.206-0.037 0.182-0.151 0.354-0.254 0.517-0.071 0.112-0.225 0.122-0.322 0.012-0.127-0.142-0.236-0.306-0.329-0.474-0.103-0.187-0.178-0.39-0.267-0.587-0.047-0.107-0.134-0.15-0.248-0.148-0.58 0.013-1.159 0.027-1.74 0.040-0.146 0.004-0.238 0.077-0.28 0.218-0.082 0.28-0.169 0.56-0.252 0.84-0.046 0.154-0.114 0.2-0.272 0.178-0.176-0.023-0.306-0.112-0.389-0.268-0.257-0.488-0.467-0.995-0.548-1.543-0.035-0.236-0.047-0.485-0.012-0.72 0.041-0.276 0.015-0.538-0.085-0.784-0.187-0.46-0.37-0.926-0.614-1.356-0.23-0.404-0.646-0.585-1.093-0.674-0.476-0.094-0.951-0.022-1.428 0.010-0.112 0.008-0.226 0.005-0.338-0.006-0.209-0.021-0.339-0.14-0.416-0.338-0.168-0.437-0.214-0.896-0.261-1.356-0.004-0.036 0.006-0.077-0.009-0.107-0.121-0.235-0.004-0.401 0.137-0.582 0.249-0.32 0.404-0.692 0.481-1.087 0.101-0.523 0.211-1.046 0.264-1.575 0.071-0.687 0.11-1.376 0.041-2.072-0.063-0.632 0.031-1.258 0.271-1.857 0.069-0.173 0.1-0.363 0.149-0.544 0.012-0.045 0.017-0.092 0.037-0.132 0.329-0.598 0.696-1.163 1.114-1.709 0.395-0.516 0.942-0.761 1.453-1.080 0.498-0.309 1.048-0.514 1.628-0.629 0.226-0.045 0.447-0.116 0.671-0.164 0.085-0.019 0.176-0.010 0.264-0.014-0.004 0.017-0.004 0.030-0.004 0.044zM15.046 20.992c0.018 0.184 0.036 0.367 0.051 0.551 0.010 0.114 0.072 0.158 0.182 0.162 0.173 0.005 0.348 0.012 0.52 0.028 0.207 0.019 0.298-0.035 0.29-0.245-0.021-0.558-0.055-1.117-0.096-1.674-0.012-0.166-0.227-0.254-0.335-0.141-0.345 0.371-0.732 0.728-0.612 1.32zM18.295 19.077c0.050-0.003 0.060-0.004 0.071-0.004 0.552-0.047 1.385-0.768 1.506-1.301 0.026-0.114-0.027-0.159-0.132-0.137-0.16 0.033-0.32 0.073-0.478 0.114-0.144 0.037-0.254 0.114-0.338 0.247-0.037 0.060-0.125 0.096-0.198 0.125-0.419 0.164-0.838 0.322-1.257 0.484-0.014 0.005-0.027 0.014-0.040 0.024-0.089 0.072-0.090 0.166 0.017 0.202 0.293 0.095 0.589 0.173 0.849 0.247zM13.234 18.99c-0.026-0.19-0.16-0.282-0.286-0.375-0.516-0.375-1.108-0.592-1.704-0.796-0.050-0.017-0.114 0.009-0.172 0.015 0.006 0.054 0.006 0.109 0.022 0.16 0.103 0.331 0.351 0.544 0.61 0.75 0.181 0.144 0.375 0.243 0.612 0.256 0.137 0.008 0.276 0.028 0.41 0.062 0.178 0.044 0.342 0.019 0.508-0.072zM13.894 25.312c-0.205 0.027-0.23 0.073-0.172 0.329 0.055-0.004 0.113-0.006 0.178-0.010 0-0.082 0.001-0.148 0-0.213 0-0.035-0.004-0.071-0.006-0.105zM13.909 7.73c-0.078 0.030-0.135 0.049-0.189 0.071-0.037 0.014-0.076 0.028-0.11 0.048-0.019 0.010-0.037 0.030-0.044 0.050-0.004 0.010 0.015 0.037 0.031 0.044 0.056 0.023 0.279-0.112 0.312-0.212zM17.345 25.331c0.022 0 0.042 0 0.064-0.001 0.004-0.067 0.009-0.134 0.013-0.2-0.065 0.019-0.131 0.037-0.223 0.064 0.073 0.068 0.109 0.103 0.146 0.137zM13.634 20.192c0.062 0.046 0.105 0.080 0.15 0.113 0.148-0.096 0.041-0.154-0.024-0.229-0.040 0.036-0.076 0.069-0.126 0.116zM9.684 16.515c-0.021 0.008-0.040 0.015-0.060 0.023 0 0.074 0 0.149 0 0.271 0.055-0.049 0.11-0.076 0.109-0.099-0.004-0.065-0.031-0.13-0.049-0.195z"></path>
<path d="M22.479 15.738c-0.013-0.122-0.017-0.245-0.041-0.366-0.096-0.483 0.042-0.949 0.098-1.42 0.018-0.15 0.223-0.293 0.383-0.273 0.105 0.013 0.217 0.036 0.307 0.089 0.799 0.461 1.601 0.372 2.365-0.039 0.637-0.343 1.279-0.312 1.944-0.199 0.131 0.022 0.258 0.065 0.388 0.099 0.221 0.058 0.42 0.154 0.594 0.308 0.162 0.143 0.342 0.263 0.515 0.39 0.238 0.175 0.406 0.393 0.519 0.67 0.131 0.325 0.415 0.494 0.738 0.601 0.072 0.023 0.151 0.044 0.208 0.090 0.036 0.030 0.063 0.123 0.044 0.154-0.027 0.041-0.114 0.078-0.158 0.064-0.248-0.081-0.494-0.168-0.734-0.27-0.511-0.218-1.032-0.404-1.584-0.474-0.473-0.060-0.863 0.103-1.165 0.485-0.113 0.143-0.271 0.249-0.404 0.377-0.264 0.254-0.546 0.481-0.915 0.567-0.035 0.008-0.068 0.030-0.103 0.032-0.463 0.030-0.927 0.071-1.39 0.077-0.154 0.001-0.312-0.086-0.463-0.141-0.125-0.046-0.241-0.119-0.369-0.153-0.099-0.026-0.216-0.033-0.311-0.003-0.107 0.035-0.175 0.013-0.249-0.054-0.162-0.146-0.232-0.335-0.214-0.614zM25.593 15.873c-0.005-0.013-0.009-0.024-0.014-0.037-0.076 0-0.154-0.013-0.225 0.005-0.042 0.010-0.081 0.065-0.104 0.109-0.012 0.022 0.009 0.089 0.024 0.091 0.045 0.009 0.104 0.012 0.14-0.012 0.065-0.040 0.119-0.103 0.178-0.157z"></path>
<path d="M27.040 4.835c-0.006 0.017-0.015 0.056-0.033 0.092-0.1 0.202-0.191 0.41-0.308 0.602-0.113 0.187-0.24 0.369-0.383 0.533-0.196 0.229-0.406 0.448-0.625 0.656-0.173 0.164-0.384 0.273-0.623 0.316-0.021 0.004-0.038 0.014-0.059 0.019-0.343 0.086-0.588 0.243-0.623 0.647-0.023 0.272-0.114 0.541-0.194 0.806-0.117 0.392-0.37 0.63-0.795 0.656-0.072 0.004-0.142 0.018-0.214 0.024-0.266 0.027-0.514 0.096-0.702 0.306-0.044 0.049-0.098 0.092-0.154 0.127-0.216 0.135-0.352 0.313-0.394 0.574-0.013 0.081-0.113 0.191-0.187 0.205s-0.184-0.062-0.25-0.126c-0.168-0.163-0.326-0.338-0.478-0.516-0.071-0.083-0.131-0.185-0.168-0.288-0.169-0.473-0.413-0.891-0.799-1.222-0.198-0.171-0.384-0.356-0.575-0.535-0.058-0.054-0.105-0.119 0-0.168 0.383-0.176 0.767-0.347 1.204-0.321 0.29 0.017 0.583 0.021 0.874 0.019 0.127 0 0.254-0.030 0.383-0.041 0.231-0.022 0.379-0.152 0.452-0.363 0.086-0.252 0.171-0.505 0.232-0.764 0.072-0.303 0.252-0.48 0.547-0.56 0.425-0.116 0.847-0.148 1.272 0.001 0.14 0.049 0.285 0.083 0.429 0.123 0.528 0.146 0.978-0.028 1.388-0.344 0.18-0.137 0.286-0.334 0.334-0.557 0.024-0.117 0.049-0.229 0.207-0.208 0.123 0.017 0.243 0.154 0.243 0.306zM22.257 9.111c-0.014-0.015-0.028-0.031-0.044-0.046-0.087-0.004-0.195-0.046-0.218 0.089-0.006 0.035 0.054 0.081 0.083 0.122 0.059-0.054 0.119-0.109 0.178-0.164zM23.49 8.644c0.009 0.009 0.018 0.018 0.026 0.027 0.054-0.024 0.116-0.041 0.159-0.078 0.030-0.024 0.044-0.077 0.049-0.118 0.003-0.018-0.042-0.059-0.056-0.056-0.040 0.010-0.087 0.031-0.109 0.063-0.033 0.047-0.046 0.109-0.068 0.163z"></path>
<path d="M14.194 0.095c0.148-0.114 0.262-0.119 0.379-0.042 0.119 0.080 0.254 0.144 0.354 0.243 0.308 0.307 0.609 0.621 0.9 0.944 0.257 0.285 0.426 0.614 0.431 1.010 0 0.046 0.006 0.094 0.022 0.136 0.117 0.307 0.021 0.558-0.186 0.791-0.22 0.248-0.335 0.533-0.155 0.844 0.094 0.162 0.243 0.299 0.388 0.422 0.103 0.087 0.241 0.132 0.365 0.195 0.498 0.253 0.751 0.664 0.784 1.216 0.009 0.149 0.015 0.298 0.021 0.446 0.012 0.349-0.213 0.524-0.537 0.397-0.489-0.193-0.999-0.267-1.518-0.293-0.189-0.009-0.38 0.023-0.569 0.013-0.207-0.012-0.411-0.050-0.618-0.076-0.045-0.005-0.091-0.015-0.135-0.009-0.335 0.044-0.671 0.086-1.005 0.136-0.134 0.021-0.185-0.012-0.212-0.158-0.037-0.204 0.003-0.358 0.154-0.496 0.107-0.096 0.194-0.212 0.3-0.309 0.199-0.182 0.294-0.402 0.281-0.67-0.004-0.098-0.009-0.195-0.008-0.293 0.001-0.116-0.041-0.191-0.153-0.239-0.049-0.021-0.1-0.080-0.113-0.13-0.116-0.458-0.050-0.886 0.249-1.263 0.053-0.067 0.125-0.121 0.194-0.173 0.11-0.082 0.221-0.168 0.342-0.235 0.398-0.222 0.611-0.578 0.738-0.998 0.094-0.311 0.022-0.591-0.182-0.833-0.105-0.125-0.238-0.226-0.349-0.347-0.063-0.067-0.108-0.149-0.163-0.229zM13.514 6.174c0.090-0.069 0.158-0.123 0.226-0.176-0.041-0.036-0.096-0.11-0.119-0.101-0.081 0.031-0.152 0.091-0.226 0.14 0.033 0.037 0.064 0.073 0.119 0.137z"></path>
<path d="M10.504 7.712c-0.055 0.048-0.090 0.076-0.122 0.105-0.199 0.176-0.425 0.33-0.592 0.532-0.286 0.347-0.537 0.723-0.802 1.086-0.015 0.021-0.030 0.042-0.049 0.059-0.349 0.342-0.467 0.773-0.488 1.243-0.004 0.090-0.017 0.18-0.026 0.267-0.146 0.021-0.238-0.032-0.304-0.135-0.118-0.18-0.237-0.358-0.352-0.541-0.085-0.135-0.16-0.275-0.24-0.412-0.132-0.229-0.339-0.345-0.592-0.306-0.765 0.122-1.466-0.502-1.646-1.346-0.038-0.18 0.041-0.383 0.059-0.574 0.027-0.27 0.054-0.538 0.065-0.809 0.003-0.060-0.048-0.137-0.096-0.184-0.333-0.321-0.664-0.646-1.139-0.758-0.067-0.015-0.121-0.083-0.194-0.136 0.051-0.055 0.082-0.119 0.127-0.132 0.284-0.074 0.569-0.152 0.858-0.199 0.154-0.026 0.317 0.015 0.475 0.009 0.299-0.012 0.58 0.053 0.853 0.171 0.155 0.067 0.307 0.144 0.467 0.199 0.231 0.081 0.359 0.243 0.422 0.47 0.065 0.236 0.125 0.476 0.205 0.707 0.072 0.207 0.107 0.209 0.321 0.186 0.505-0.056 1.008-0.117 1.514-0.154 0.116-0.009 0.244 0.054 0.353 0.112 0.108 0.056 0.193 0.155 0.298 0.218 0.155 0.092 0.321 0.169 0.483 0.253 0.035 0.019 0.072 0.035 0.141 0.067z"></path>
<path d="M25.386 24.246c-0.103 0.037-0.3 0.112-0.501 0.185-0.312 0.113-0.618 0.254-0.939 0.326-0.158 0.035-0.358-0.033-0.517-0.104-0.392-0.171-0.656-0.462-0.738-0.899-0.074-0.397-0.389-0.645-0.8-0.627-0.236 0.010-0.471 0.032-0.706 0.055-0.374 0.037-0.679-0.132-0.894-0.397-0.182-0.225-0.281-0.523-0.184-0.835 0.051-0.162 0.167-0.262 0.32-0.333 0.151-0.071 0.294-0.16 0.442-0.243 0.036-0.021 0.069-0.049 0.107-0.059 0.404-0.114 0.67-0.435 0.99-0.671 0.13-0.095 0.253-0.159 0.41-0.185 0.074-0.013 0.164-0.067 0.202-0.13 0.074-0.125 0.175-0.157 0.284-0.098 0.155 0.085 0.32 0.176 0.433 0.306 0.154 0.175 0.28 0.381 0.386 0.589 0.049 0.095 0.044 0.231 0.030 0.344-0.062 0.478 0.149 0.858 0.489 1.135 0.172 0.14 0.463 0.131 0.697 0.199 0.284 0.082 0.567 0.167 0.845 0.267 0.103 0.037 0.2 0.112 0.275 0.193 0.431 0.463 0.751 0.983 0.792 1.637 0.001 0.026 0.009 0.056-0.003 0.076-0.041 0.067-0.089 0.128-0.134 0.191-0.051-0.056-0.137-0.107-0.149-0.169-0.032-0.185-0.054-0.367-0.226-0.484-0.235-0.164-0.503-0.257-0.91-0.271z"></path>
<path d="M4.71 24.354c0.181 0.031 0.361 0.064 0.541 0.092 0.076 0.012 0.155 0.031 0.229 0.018 0.374-0.062 0.751-0.11 1.116-0.207 0.451-0.119 0.733-0.416 0.77-0.905 0.004-0.051 0.018-0.103 0.013-0.153-0.038-0.421 0.184-0.75 0.399-1.071 0.083-0.123 0.234-0.209 0.369-0.286 0.104-0.059 0.23-0.085 0.349-0.114 0.208-0.051 0.402-0.1 0.594-0.23 0.195-0.132 0.473-0.15 0.716-0.2 0.134-0.027 0.28-0.041 0.412-0.018 0.357 0.062 0.555 0.312 0.66 0.638 0.055 0.169 0.078 0.349 0.114 0.525 0.004 0.019 0.008 0.042 0.003 0.060-0.076 0.234-0.136 0.473-0.234 0.697-0.117 0.266-0.353 0.416-0.623 0.487-0.428 0.112-0.741 0.357-0.963 0.733-0.089 0.149-0.175 0.302-0.383 0.322-0.050 0.005-0.096 0.083-0.14 0.132-0.253 0.29-0.544 0.524-0.94 0.575-0.362 0.047-0.722 0.051-1.079-0.074-0.289-0.101-0.6-0.137-0.887-0.241-0.291-0.107-0.567-0.258-0.849-0.394-0.149-0.071-0.205-0.184-0.189-0.386z"></path>
<path d="M15.385 25.503c0.195 0.012 0.39 0.012 0.583 0.041 0.092 0.014 0.194 0.065 0.262 0.13 0.231 0.222 0.347 0.519 0.446 0.814 0.031 0.091-0.009 0.222-0.054 0.317-0.067 0.142-0.167 0.27-0.253 0.403-0.178 0.277-0.149 0.526 0.085 0.761 0.094 0.095 0.194 0.186 0.271 0.293 0.284 0.392 0.223 0.813-0.157 1.109-0.282 0.221-0.567 0.439-0.856 0.652-0.506 0.374-0.42 0.942-0.143 1.304 0.114 0.149 0.211 0.313 0.302 0.476 0.028 0.050 0.015 0.125 0.021 0.187-0.068-0.001-0.146 0.021-0.2-0.006-0.126-0.063-0.248-0.141-0.36-0.229-0.222-0.172-0.433-0.357-0.653-0.529-0.272-0.211-0.431-0.493-0.517-0.817-0.049-0.181 0.042-0.336 0.137-0.489 0.236-0.381 0.351-0.796 0.288-1.247-0.039-0.276-0.2-0.488-0.393-0.68-0.223-0.225-0.443-0.454-0.66-0.687-0.123-0.131-0.085-0.484 0.067-0.58 0.094-0.059 0.202-0.1 0.306-0.141 0.286-0.109 0.492-0.299 0.576-0.596 0.157-0.551 0.3-0.534 0.751-0.496 0.051 0.004 0.103 0.006 0.154 0.009-0.001 0.004-0.001 0.001-0.001-0.001z"></path>
</svg>
