<!-- Generated by IcoMoon.io -->
<svg version="1.1" xmlns="http://www.w3.org/2000/svg" width="32" height="32" viewBox="0 0 32 32">
<title>fighters-champion</title>
<path d="M14.959 0.001c0.162 0.349 0.33 0.696 0.485 1.048 0.29 0.66 0.566 1.326 0.862 1.981 0.208 0.46 0.443 0.908 0.666 1.361 0.043 0.085 0.090 0.167 0.134 0.252 0.258 0.508 0.517 1.017 0.775 1.526 0.128 0.252 0.080 0.4-0.183 0.515-0.324 0.143-0.449 0.443-0.598 0.725-0.011 0.020 0.038 0.1 0.071 0.113 0.273 0.098 0.548 0.193 0.826 0.275 0.339 0.098 0.607 0.301 0.865 0.528 0.109 0.095 0.224 0.183 0.344 0.266 0.090 0.061 0.158 0.044 0.182-0.078 0.034-0.168 0.073-0.332-0.029-0.494-0.060-0.097 0.010-0.154 0.092-0.181 0.27-0.088 0.543-0.168 0.821-0.255 0.049 0.089 0.089 0.163 0.129 0.237 0.123 0.219 0.372 0.342 0.621 0.307 0.105-0.015 0.169-0.066 0.197-0.176 0.050-0.198 0.026-0.376-0.109-0.537-0.038-0.045-0.070-0.095-0.113-0.154 0.117-0.050 0.221-0.103 0.329-0.137 0.031-0.010 0.085 0.024 0.117 0.051 0.1 0.088 0.184 0.202 0.295 0.271 0.159 0.099 0.295 0.048 0.431-0.082 0.148-0.139 0.305-0.273 0.478-0.379 0.255-0.154 0.292-0.207 0.231-0.509-0.005-0.024-0.005-0.049-0.009-0.094 0.069 0.006 0.132 0.009 0.193 0.019 0.169 0.028 0.315-0.015 0.405-0.164 0.138-0.228 0.346-0.357 0.586-0.445 0.137-0.050 0.272-0.1 0.41-0.145 0.125-0.041 0.251-0.079 0.282-0.233 0.004-0.018 0.023-0.033 0.036-0.046 0.129-0.125 0.552-0.122 0.68 0.003 0.084 0.082 0.068 0.172 0.028 0.263-0.458 1.023-0.909 2.050-1.382 3.067-0.148 0.32-0.369 0.606-0.532 0.919-0.182 0.35-0.337 0.715-0.314 1.125 0.010 0.172-0.045 0.241-0.222 0.242-0.286 0.001-0.572-0.004-0.858-0.005-0.019 0-0.036 0.009-0.076 0.019 0.034 0.055 0.061 0.099 0.089 0.143 0.182 0.293 0.392 0.574 0.534 0.885 0.105 0.231 0.13 0.5 0.174 0.756s0.107 0.307 0.331 0.181c0.154-0.087 0.285-0.217 0.425-0.33 0.112-0.089 0.221-0.182 0.331-0.272 0.015-0.013 0.038-0.025 0.041-0.041 0.049-0.193 0.187-0.143 0.308-0.108 0.291 0.084 0.572 0.181 0.74 0.47 0.034 0.059 0.14 0.094 0.219 0.108 0.7 0.124 1.402 0.233 2.102 0.364 0.359 0.066 0.709 0.184 1.068 0.242 0.38 0.061 0.731 0.201 1.082 0.341 0.306 0.123 0.607 0.263 0.914 0.385 0.134 0.053 0.276 0.090 0.418 0.115 0.155 0.028 0.26 0.103 0.346 0.235 0.081 0.123 0.043 0.196-0.063 0.256-0.243 0.139-0.485 0.281-0.735 0.408-0.843 0.429-1.693 0.844-2.532 1.28-0.31 0.162-0.599 0.362-0.89 0.558-0.098 0.065-0.16 0.063-0.246-0.011-0.098-0.085-0.204-0.162-0.314-0.233-0.227-0.148-0.384-0.149-0.568-0.014-0.211 0.154-0.31 0.389-0.248 0.616 0.033 0.119 0.084 0.233 0.129 0.356-0.258 0.129-0.517 0.26-0.776 0.389-0.265 0.132-0.509 0.271-0.554 0.612-0.025 0.184-0.088 0.203-0.245 0.107-0.083-0.051-0.155-0.123-0.227-0.191-0.109-0.103-0.186-0.089-0.226 0.055-0.060 0.217-0.105 0.439-0.169 0.655-0.061 0.206-0.139 0.405-0.209 0.608-0.013 0.035-0.020 0.070-0.041 0.145 0.222-0.118 0.419-0.083 0.609-0.023 0.078 0.025 0.166 0.075 0.211 0.14 0.093 0.135 0.157 0.29 0.238 0.434 0.25 0.445 0.49 0.895 0.755 1.332 0.296 0.488 0.606 0.969 0.928 1.441 0.194 0.285 0.435 0.538 0.637 0.819 0.272 0.377 0.537 0.761 0.783 1.157 0.074 0.119 0.088 0.283 0.098 0.43 0.009 0.13-0.061 0.163-0.167 0.087-0.142-0.103-0.287-0.076-0.445-0.055-0.11 0.015-0.238 0-0.341-0.043-0.494-0.203-0.967-0.488-1.479-0.617-0.739-0.186-1.401-0.529-2.084-0.831-0.308-0.137-0.616-0.265-0.953-0.306-0.049-0.006-0.095-0.028-0.144-0.041-0.278-0.080-0.554-0.171-0.835-0.238-0.135-0.033-0.201-0.094-0.206-0.231-0.005-0.13-0.020-0.26-0.029-0.39-0.008-0.119-0.074-0.152-0.172-0.103-0.061 0.030-0.119 0.076-0.163 0.128-0.411 0.492-0.947 0.798-1.532 1.026-0.071 0.028-0.158 0.024-0.237 0.023-0.207-0.003-0.396 0.046-0.562 0.177-0.046 0.036-0.102 0.069-0.158 0.083-0.295 0.071-0.591 0.144-0.888 0.202-0.127 0.024-0.151 0.114-0.099 0.178 0.197 0.247 0.354 0.539 0.651 0.69 0.109 0.055 0.128 0.118 0.065 0.213-0.076 0.118-0.153 0.236-0.237 0.349-0.344 0.465-0.65 0.951-0.806 1.517-0.055 0.201-0.237 0.257-0.42 0.29-0.094 0.016-0.189 0.018-0.285 0.029-0.123 0.015-0.184 0.108-0.134 0.223 0.065 0.152 0.164 0.266 0.337 0.317 0.093 0.028 0.179 0.102 0.248 0.173 0.023 0.024 0 0.12-0.031 0.163-0.159 0.218-0.331 0.429-0.492 0.646-0.046 0.063-0.075 0.139-0.109 0.211-0.083 0.169-0.166 0.339-0.243 0.51-0.038 0.085-0.065 0.176-0.094 0.265-0.048 0.145-0.069 0.306-0.145 0.434-0.12 0.201-0.188 0.405-0.189 0.638-0.001 0.114-0.009 0.233-0.040 0.342-0.048 0.164-0.182 0.192-0.27 0.050-0.104-0.167-0.196-0.35-0.251-0.538-0.142-0.48-0.258-0.967-0.39-1.45-0.025-0.090-0.059-0.183-0.109-0.262-0.5-0.79-0.838-1.653-1.097-2.544-0.176-0.603-0.477-1.116-0.899-1.574-0.253-0.273-0.211-0.248 0.044-0.446 0.285-0.221 0.546-0.473 0.809-0.72 0.056-0.053 0.080-0.139 0.132-0.236-0.149-0.016-0.262-0.029-0.374-0.040-0.821-0.079-1.585-0.33-2.281-0.776-0.133-0.085-0.265-0.164-0.435-0.183-0.114-0.013-0.221-0.107-0.326-0.173-0.1-0.063-0.194-0.137-0.307-0.217-0.051 0.331-0.145 0.633 0.065 0.923 0.076 0.105-0.005 0.181-0.104 0.217-0.303 0.115-0.608 0.228-0.914 0.336-0.203 0.071-0.415 0.118-0.614 0.196-1.399 0.544-2.832 1.004-4.194 1.644-0.159 0.075-0.345 0.109-0.522 0.13-0.070 0.009-0.182-0.049-0.217-0.11s-0.033-0.188 0.009-0.245c0.275-0.361 0.572-0.707 0.85-1.066 0.435-0.562 0.885-1.115 1.28-1.706 0.123-0.184 0.208-0.276 0.428-0.293 0.272-0.023 0.415-0.278 0.335-0.544-0.033-0.109-0.015-0.192 0.046-0.281 0.221-0.317 0.439-0.636 0.653-0.956 0.070-0.104 0.155-0.16 0.285-0.164 0.27-0.008 0.291-0.040 0.236-0.307-0.004-0.019 0-0.039 0-0.070 0.119-0.023 0.236-0.048 0.352-0.066 0.119-0.019 0.157-0.074 0.102-0.187-0.212-0.44-0.192-0.915-0.207-1.386-0.006-0.181 0-0.361-0.006-0.542-0.001-0.039-0.034-0.075-0.051-0.114-0.041 0.021-0.104 0.034-0.122 0.068-0.036 0.073-0.048 0.158-0.074 0.237-0.030 0.090-0.065 0.179-0.098 0.268-0.080-0.030-0.168-0.048-0.238-0.092-0.28-0.174-0.54-0.385-0.835-0.527-0.262-0.125-0.563-0.167-0.841-0.261-0.612-0.206-1.221-0.42-1.83-0.636-0.103-0.036-0.198-0.095-0.293-0.151-0.127-0.073-0.245-0.135-0.408-0.109-0.083 0.014-0.192-0.050-0.27-0.105-0.193-0.139-0.395-0.206-0.64-0.218-0.236-0.011-0.47-0.092-0.697-0.168-0.065-0.021-0.124-0.129-0.138-0.206-0.008-0.045 0.069-0.128 0.125-0.157 0.737-0.384 1.481-0.755 2.216-1.142 0.691-0.364 1.376-0.742 2.060-1.117 0.127-0.070 0.24-0.166 0.366-0.237 0.233-0.133 0.464-0.277 0.71-0.381 0.33-0.138 0.552-0.341 0.621-0.707 0.087-0.46 0.227-0.903 0.489-1.299 0.031-0.048 0.018-0.163-0.020-0.208-0.074-0.087-0.144-0.226-0.305-0.15-0.090 0.043-0.182 0.087-0.268 0.135-0.11 0.063-0.199 0.040-0.251-0.069-0.095-0.203-0.203-0.405-0.262-0.62-0.238-0.864-0.469-1.729-0.683-2.6-0.166-0.67-0.305-1.347-0.454-2.021-0.016-0.073-0.034-0.153-0.019-0.223 0.014-0.063 0.059-0.137 0.112-0.168s0.158-0.043 0.197-0.010c0.261 0.219 0.584 0.301 0.885 0.436 0.438 0.196 0.862 0.423 1.298 0.623 0.354 0.163 0.712 0.317 1.076 0.458 0.325 0.125 0.633 0.268 0.917 0.475 0.159 0.117 0.355 0.184 0.532 0.278 0.102 0.054 0.206 0.107 0.296 0.176 0.219 0.168 0.226 0.329 0.039 0.53-0.054 0.058-0.103 0.123-0.138 0.192-0.015 0.030-0.005 0.102 0.018 0.117 0.028 0.018 0.083 0 0.123-0.011 0.021-0.006 0.036-0.033 0.053-0.053 0.295-0.357 0.675-0.592 1.1-0.764 0.26-0.105 0.518-0.216 0.775-0.326 0.138-0.060 0.176-0.132 0.085-0.241-0.125-0.153-0.28-0.285-0.429-0.416-0.030-0.026-0.099-0.001-0.143-0.019-0.079-0.031-0.173-0.060-0.222-0.122-0.030-0.038-0.010-0.144 0.023-0.201 0.208-0.355 0.421-0.705 0.64-1.053 0.588-0.938 1.136-1.895 1.584-2.913 0.356-0.811 0.711-1.621 1.030-2.448 0.018-0.003 0.038-0.003 0.058-0.003zM19.204 14.571c0.004 0 0.008 0 0.010 0 0-0.351 0.004-0.702-0.001-1.052-0.008-0.577 0.021-1.166-0.196-1.708-0.201-0.499-0.474-0.969-0.722-1.448-0.040-0.078-0.113-0.14-0.176-0.204-0.163-0.163-0.332-0.32-0.494-0.483-0.181-0.183-0.356-0.376-0.608-0.454-0.612-0.189-1.226-0.369-1.842-0.542-0.070-0.020-0.159 0.024-0.238 0.043-0.123 0.029-0.25 0.099-0.367 0.087-0.533-0.058-1.042-0.019-1.496 0.297-0.366 0.255-0.725 0.519-1.091 0.775s-0.548 0.646-0.665 1.041c-0.123 0.414-0.173 0.855-0.203 1.289-0.087 1.255-0.145 2.512-0.223 3.768-0.006 0.103-0.045 0.226-0.113 0.3-0.163 0.177-0.089 0.381-0.107 0.576-0.008 0.087 0.009 0.179-0.021 0.257-0.093 0.246-0.203 0.485-0.305 0.727-0.008 0.019-0.011 0.039-0.018 0.056-0.055 0.143-0.099 0.292-0.168 0.429-0.097 0.192-0.104 0.231 0.051 0.379 0.193 0.184 0.33 0.4 0.42 0.65 0.049 0.137 0.104 0.272 0.171 0.4 0.122 0.237 0.372 0.391 0.583 0.344 0.434-0.098 0.76 0.127 1.037 0.386 0.181 0.169 0.335 0.375 0.529 0.539 0.079 0.066 0.118 0.182 0.172 0.277 0.024 0.043 0.031 0.098 0.061 0.137 0.349 0.445 0.369 0.958 0.31 1.489-0.019 0.169-0.036 0.339-0.048 0.509-0.006 0.093 0.009 0.183 0.122 0.213 0.107 0.029 0.187-0.013 0.243-0.102 0.074-0.119 0.145-0.24 0.217-0.36 0.070-0.118 0.162-0.137 0.27-0.049 0.061 0.050 0.112 0.117 0.174 0.166 0.060 0.046 0.132 0.079 0.197 0.118 0.025-0.071 0.061-0.14 0.075-0.214 0.034-0.182 0.058-0.366 0.085-0.548 0.018-0.118 0.058-0.129 0.154-0.051 0.199 0.158 0.258 0.374 0.277 0.609 0.010 0.132 0.058 0.232 0.206 0.255 0.145 0.023 0.256-0.028 0.335-0.148 0.019-0.029 0.028-0.064 0.046-0.094 0.014-0.023 0.034-0.049 0.056-0.056 0.069-0.025 0.49 0.13 0.527 0.192 0.010 0.016 0.013 0.038 0.015 0.058 0.014 0.129 0.097 0.213 0.212 0.218 0.129 0.005 0.119-0.132 0.137-0.217 0.133-0.652 0.252-1.308 0.395-1.958 0.050-0.226 0.103-0.49 0.25-0.646 0.293-0.311 0.647-0.567 0.988-0.829 0.277-0.214 0.574-0.401 0.858-0.609 0.079-0.058 0.134-0.148 0.204-0.217 0.049-0.048 0.1-0.114 0.159-0.124 0.138-0.025 0.14-0.1 0.137-0.216-0.006-0.188-0.035-0.396 0.031-0.562 0.105-0.266 0.076-0.478-0.078-0.705-0.261-0.382-0.443-0.801-0.47-1.267-0.036-0.576-0.045-1.147-0.065-1.719zM22.251 16.386c0.238 0.004 0.317-0.025 0.492-0.166 0.026-0.021 0.060-0.050 0.089-0.050 0.112 0.003 0.154-0.066 0.168-0.155 0.051-0.345 0.109-0.691 0.139-1.038 0.014-0.154-0.051-0.306-0.183-0.41-0.177-0.139-0.352-0.281-0.538-0.409-0.050-0.034-0.14-0.038-0.201-0.020-0.104 0.030-0.197 0.094-0.298 0.135-0.307 0.124-0.518 0.334-0.598 0.662-0.030 0.127-0.061 0.252-0.090 0.379-0.054 0.236-0.049 0.465 0.133 0.646 0.25 0.252 0.548 0.416 0.888 0.426zM15.104 26.042c0.293 0.014 0.559-0.048 0.759-0.283 0.016-0.019 0.038-0.039 0.059-0.044 0.235-0.058 0.262-0.232 0.24-0.429-0.013-0.108-0.039-0.214-0.059-0.322-0.006-0.033-0.029-0.070-0.020-0.098 0.045-0.148-0.029-0.255-0.133-0.334-0.13-0.1-0.272-0.188-0.416-0.268-0.038-0.021-0.134-0.009-0.15 0.019-0.075 0.125-0.189 0.153-0.317 0.167-0.124 0.014-0.248 0.034-0.372 0.051-0.326 0.046-0.533 0.256-0.577 0.579-0.010 0.074-0.024 0.148-0.040 0.221-0.055 0.248 0.006 0.405 0.223 0.534 0.248 0.145 0.517 0.221 0.805 0.207zM7.154 16.458c0.003 0.011 0.004 0.023 0.006 0.034 0.128-0.038 0.258-0.071 0.385-0.115 0.113-0.040 0.218-0.112 0.334-0.133 0.237-0.044 0.311-0.221 0.327-0.41 0.025-0.288-0.030-0.571-0.204-0.815-0.135-0.189-0.31-0.265-0.554-0.283-0.258-0.020-0.499-0.008-0.736 0.078-0.324 0.118-0.553 0.546-0.449 0.873 0.070 0.222 0.181 0.433 0.291 0.64 0.033 0.060 0.119 0.117 0.188 0.127 0.134 0.020 0.275 0.006 0.413 0.006zM16.006 6.34c-0.030-0.193-0.303-0.594-0.484-0.665-0.039-0.015-0.089-0.010-0.13-0.003-0.102 0.021-0.202 0.053-0.305 0.074-0.588 0.127-0.905 0.493-0.884 1.022 0.014 0.346 0.258 0.631 0.597 0.699 0.285 0.056 0.567 0.061 0.838-0.061 0.053-0.024 0.118-0.074 0.132-0.124 0.087-0.312 0.159-0.627 0.237-0.942zM6.677 14.569c0.068 0.011 0.133 0.031 0.198 0.031 0.173-0.002 0.345-0.010 0.517-0.024 0.020-0.001 0.058-0.078 0.050-0.085-0.039-0.041-0.087-0.099-0.137-0.103-0.147-0.013-0.296-0.002-0.445-0.002-0.108 0-0.164 0.056-0.183 0.183zM17.38 24.32c0.066 0.045 0.094 0.080 0.113 0.076 0.216-0.053 0.431-0.108 0.643-0.176 0.028-0.009 0.033-0.092 0.049-0.139-0.050-0.013-0.105-0.045-0.148-0.033-0.134 0.039-0.263 0.093-0.392 0.145-0.079 0.033-0.155 0.073-0.265 0.125zM17.18 24.303c-0.163 0-0.312-0.001-0.462 0.001-0.080 0.001-0.148 0.040-0.128 0.127 0.019 0.078 0.071 0.148 0.11 0.222 0.048-0.038 0.093-0.081 0.144-0.113 0.058-0.034 0.124-0.084 0.182-0.079 0.134 0.013 0.178-0.031 0.153-0.158zM17.992 22.813c-0.098 0.092-0.148 0.252-0.143 0.462 0.001 0.040 0.018 0.103 0.045 0.114 0.036 0.016 0.098 0.006 0.135-0.015 0.181-0.102 0.163-0.406-0.038-0.561zM20.638 22.541c-0.192 0.018-0.549 0.355-0.537 0.499 0.265-0.005 0.549-0.263 0.537-0.499zM26.64 15.219c0.226 0.019 0.375-0.182 0.29-0.387-0.010-0.024-0.104-0.045-0.11-0.035-0.087 0.129-0.209 0.245-0.179 0.423zM17.641 6.4c-0.036-0.089-0.063-0.164-0.099-0.233-0.016-0.030-0.054-0.073-0.078-0.070-0.030 0.004-0.066 0.043-0.079 0.075-0.054 0.14 0.026 0.236 0.123 0.334 0.045-0.036 0.087-0.070 0.133-0.105zM13.737 27.512c0.008-0.020 0.015-0.039 0.023-0.059-0.055-0.094-0.109-0.188-0.164-0.282-0.045-0.075-0.134-0.054-0.132-0.003 0.004 0.095 0.046 0.197 0.1 0.278 0.028 0.041 0.114 0.045 0.173 0.065zM15.243 5.438c-0.055-0.041-0.092-0.085-0.108-0.079-0.095 0.035-0.188 0.078-0.276 0.129-0.014 0.008 0.001 0.068 0.004 0.104 0.079-0.010 0.162-0.009 0.237-0.033 0.045-0.016 0.080-0.068 0.143-0.122zM26.849 14.579c0.056 0.060 0.084 0.113 0.125 0.128 0.059 0.021 0.154-0.13 0.134-0.233-0.010-0.049-0.063-0.089-0.097-0.133-0.050 0.075-0.102 0.15-0.163 0.238zM11.014 10.788c-0.076 0.112-0.138 0.181-0.171 0.262-0.009 0.023 0.064 0.079 0.099 0.12 0.056-0.070 0.122-0.135 0.163-0.213 0.011-0.023-0.043-0.082-0.092-0.169zM15.004 30.466c0.002-0.020 0.013-0.041 0.008-0.059-0.011-0.034-0.033-0.065-0.049-0.098-0.031 0.024-0.071 0.043-0.090 0.073-0.023 0.036-0.048 0.093-0.034 0.124 0.025 0.061 0.078 0.112 0.118 0.167 0.016-0.054 0.033-0.109 0.048-0.163 0.002-0.014 0-0.029 0-0.044zM22.724 20.315c0.081-0.108 0.149-0.196 0.219-0.29-0.045-0.039-0.078-0.066-0.125-0.107-0.034 0.134-0.246 0.196-0.094 0.396zM7.799 10.447c-0.242 0.044-0.303 0.142-0.199 0.332 0.069-0.114 0.125-0.208 0.199-0.332zM14.239 28.99c0.085-0.075 0.074-0.122-0.088-0.265-0.030 0.029-0.061 0.059-0.105 0.102 0.074 0.061 0.133 0.112 0.193 0.163zM13.818 27.819c-0.071 0.095-0.105 0.177-0.013 0.237 0.030 0.019 0.1-0.025 0.174-0.048-0.068-0.079-0.109-0.128-0.162-0.189zM7.734 14.376c0.122 0.034 0.172 0.209 0.344 0.053-0.124-0.018-0.178-0.179-0.344-0.053zM25.831 14.936c0.025-0.102 0.040-0.163 0.055-0.223-0.069 0.002-0.138 0.005-0.207 0.008-0.004 0.018-0.008 0.034-0.010 0.051 0.041 0.041 0.081 0.083 0.162 0.164zM9.968 18.015c-0.019-0.006-0.039-0.013-0.058-0.020-0.048 0.040-0.094 0.081-0.144 0.123 0.058 0.070 0.109 0.132 0.176 0.046 0.028-0.035 0.019-0.099 0.026-0.149zM21.808 13.827c-0.033 0.083-0.056 0.147-0.081 0.209 0.074-0.026 0.147-0.051 0.25-0.088-0.070-0.050-0.102-0.073-0.168-0.122zM27.897 13.485c-0.033 0.035-0.060 0.065-0.094 0.103 0.043 0.040 0.076 0.073 0.115 0.11 0.041-0.039 0.074-0.070 0.112-0.107-0.050-0.040-0.088-0.069-0.133-0.107zM12.269 23.279c0.129-0.16 0.117-0.203-0.063-0.252 0.020 0.080 0.039 0.154 0.063 0.252zM12.152 6.472c0.018-0.001 0.034-0.004 0.051-0.005 0.004-0.049 0.008-0.099 0.013-0.148-0.055 0.009-0.11 0.018-0.199 0.033 0.065 0.058 0.1 0.089 0.135 0.12z"></path>
<path d="M13.671 19.526c-0.665-0.025-1.315-0.125-1.938-0.367-0.073-0.028-0.145-0.073-0.199-0.128-0.148-0.149-0.287-0.307-0.428-0.465-0.102-0.115-0.138-0.242-0.095-0.401 0.071-0.267 0.196-0.492 0.436-0.641 0.090-0.056 0.14-0.119 0.075-0.236-0.018-0.031 0.020-0.127 0.059-0.151 0.204-0.128 0.424-0.176 0.657-0.070 0.3 0.137 0.603 0.268 0.902 0.409 0.408 0.192 0.811 0.389 1.216 0.583 0.014 0.006 0.026 0.014 0.040 0.020 0.307 0.148 0.311 0.172 0.144 0.462-0.082 0.143-0.132 0.303-0.217 0.444-0.095 0.155-0.199 0.312-0.327 0.44-0.078 0.076-0.209 0.099-0.316 0.147-0.005-0.014-0.008-0.030-0.010-0.045zM11.485 17.994c0.133-0.122 0.133-0.123 0.030-0.213-0.035 0.039-0.071 0.078-0.112 0.12 0.031 0.036 0.056 0.065 0.082 0.093z"></path>
<path d="M17.012 19.127c-0.287-0.039-0.533-0.112-0.73-0.32-0.12-0.127-0.253-0.242-0.382-0.361-0.065-0.060-0.084-0.112-0.008-0.187 0.045-0.044 0.065-0.12 0.080-0.186 0.031-0.138 0.109-0.187 0.25-0.176 0.070 0.006 0.151-0.019 0.217-0.049 0.562-0.256 1.047-0.658 1.644-0.848 0.147-0.046 0.27-0.050 0.396 0.040 0.286 0.201 0.494 0.623 0.425 0.887-0.061 0.238-0.204 0.406-0.44 0.493-0.069 0.025-0.133 0.066-0.197 0.105-0.217 0.134-0.423 0.29-0.651 0.401-0.187 0.093-0.401 0.135-0.604 0.199z"></path>
<path d="M14.418 21.476c-0.030-0.122-0.074-0.223-0.078-0.327-0.010-0.25-0.004-0.5 0-0.751 0.004-0.306 0.128-0.569 0.287-0.824 0.050-0.080 0.045-0.193 0.076-0.288 0.019-0.059 0.045-0.143 0.092-0.162 0.123-0.051 0.256-0.090 0.387-0.103 0.192-0.020 0.321 0.075 0.404 0.248 0.054 0.112 0.125 0.213 0.179 0.325 0.065 0.139 0.155 0.278 0.173 0.426 0.050 0.416 0.069 0.836 0.099 1.255 0.009 0.127-0.015 0.233-0.176 0.237-0.005 0-0.011 0.001-0.014 0.004-0.188 0.194-0.319 0.056-0.459-0.074-0.235-0.214-0.495-0.24-0.772-0.079-0.054 0.031-0.107 0.060-0.199 0.113zM15.083 20.314c0.097-0.049 0.188-0.248 0.153-0.327-0.011-0.024-0.040-0.051-0.064-0.054-0.023-0.003-0.060 0.020-0.070 0.043-0.056 0.108-0.085 0.221-0.019 0.339zM14.715 20.775c-0.020 0-0.040 0-0.060-0.001-0.004 0.1-0.009 0.201-0.013 0.301 0.035-0.008 0.089-0.004 0.104-0.026 0.065-0.095 0.063-0.192-0.031-0.273z"></path>
</svg>
