<!-- Generated by IcoMoon.io -->
<svg version="1.1" xmlns="http://www.w3.org/2000/svg" width="32" height="32" viewBox="0 0 32 32">
<title>fighters-brute</title>
<path d="M0 15.681c0.079-0.061 0.15-0.159 0.237-0.176 0.274-0.054 0.51-0.171 0.749-0.313 0.437-0.261 0.901-0.477 1.348-0.72 0.179-0.097 0.365-0.196 0.516-0.331 0.377-0.335 0.81-0.585 1.226-0.86 0.298-0.198 0.59-0.407 0.867-0.632 0.187-0.151 0.348-0.336 0.514-0.511 0.155-0.163 0.242-0.17 0.387-0.001 0.075 0.087 0.138 0.186 0.215 0.273 0.13 0.151 0.275 0.151 0.37-0.022 0.194-0.358 0.296-0.743 0.242-1.154-0.022-0.178-0.141-0.273-0.319-0.261-0.146 0.011-0.292 0.037-0.435 0.072-0.244 0.061-0.41-0.007-0.514-0.24-0.257-0.577-0.466-1.168-0.532-1.8-0.040-0.382-0.051-0.766-0.084-1.148-0.047-0.539-0.278-1.022-0.47-1.516-0.042-0.108-0.079-0.22-0.136-0.319-0.1-0.176-0.082-0.348-0.020-0.529 0.030-0.087 0.074-0.125 0.158-0.116 0.067 0.008 0.142 0.013 0.196 0.049 0.29 0.192 0.616 0.254 0.953 0.299 0.198 0.026 0.395 0.072 0.582 0.138 0.41 0.146 0.83 0.22 1.263 0.258 0.419 0.038 0.832 0.124 1.248 0.186 0.062 0.009 0.126 0.013 0.188 0.004 0.597-0.090 1.173 0.009 1.744 0.173 0.345 0.099 0.433 0.354 0.237 0.653-0.068 0.105-0.159 0.196-0.234 0.298-0.167 0.229-0.095 0.441 0.174 0.528 0.388 0.126 0.407 0.159 0.174 0.498-0.259 0.377-0.527 0.749-0.805 1.113-0.207 0.271-0.385 0.552-0.479 0.881-0.117 0.412-0.238 0.824-0.357 1.237-0.007 0.025-0.009 0.053-0.009 0.078 0.022 0.945-0.018 1.896 0.215 2.827 0.042 0.166 0.042 0.344 0.046 0.516 0.005 0.248 0.001 0.495-0.012 0.743-0.007 0.112-0.033 0.23-0.082 0.331-0.026 0.053-0.117 0.096-0.183 0.103-0.092 0.009-0.124 0.045-0.149 0.128-0.049 0.159-0.105 0.317-0.171 0.47-0.226 0.52-0.46 1.038-0.686 1.557-0.017 0.040-0.018 0.093-0.009 0.137 0.055 0.267 0.119 0.533 0.175 0.802 0.037 0.172 0.124 0.312 0.266 0.415 0.157 0.112 0.242 0.267 0.3 0.45 0.101 0.32 0.186 0.652 0.336 0.949 0.112 0.224 0.309 0.406 0.481 0.595 0.034 0.038 0.125 0.024 0.191 0.034 0.109 0.018 0.22 0.038 0.329 0.059 0.082 0.016 0.162 0.050 0.242 0.050 0.151 0.001 0.249 0.066 0.304 0.204 0.025 0.063 0.055 0.125 0.090 0.184 0.092 0.159 0.071 0.215-0.109 0.271-0.262 0.083-0.282 0.104-0.269 0.379 0.007 0.146 0.018 0.294 0.054 0.435s0.104 0.273 0.162 0.42c-0.067 0.022-0.134 0.029-0.182 0.065-0.043 0.032-0.083 0.093-0.086 0.144-0.001 0.030 0.068 0.083 0.112 0.092 0.174 0.038 0.28 0.126 0.306 0.274 0.022 0.134-0.051 0.291-0.215 0.349-0.47 0.169-0.943 0.325-1.42 0.471-0.302 0.093-0.608 0.167-0.917 0.236-0.167 0.038-0.341 0.050-0.512 0.071-0.125 0.016-0.252 0.024-0.375 0.046-0.309 0.054-0.616 0.136-0.927 0.167-0.496 0.050-0.996 0.076-1.493 0.097-0.259 0.011-0.387-0.162-0.342-0.42 0.004-0.021 0.007-0.042 0.014-0.062 0.175-0.478 0.35-0.956 0.527-1.433 0.328-0.885 0.607-1.78 0.707-2.726 0.022-0.211 0.104-0.416 0.149-0.625 0.029-0.133 0.074-0.274 0.054-0.402-0.036-0.229 0.072-0.341 0.331-0.381 0.093-0.015 0.19-0.012 0.282-0.028 0.184-0.033 0.294-0.148 0.341-0.328 0.107-0.399 0.105-0.778-0.171-1.121-0.088-0.109-0.149-0.242-0.228-0.36-0.088-0.13-0.158-0.138-0.241-0.013-0.14 0.209-0.274 0.424-0.391 0.647-0.062 0.116-0.125 0.149-0.234 0.084-0.375-0.22-0.776-0.387-1.136-0.643-0.622-0.44-1.276-0.836-1.933-1.221-0.69-0.403-1.431-0.682-2.232-0.782-0.215-0.026-0.383-0.136-0.503-0.316 0-0.009 0-0.020 0-0.030zM8.665 8.843c0.037-0.308-0.055-0.586-0.199-0.848-0.101-0.186-0.311-0.249-0.512-0.196-0.072 0.020-0.17 0.004-0.24-0.029-0.199-0.093-0.249-0.083-0.365 0.111-0.029 0.049-0.061 0.103-0.105 0.137-0.176 0.134-0.258 0.329-0.332 0.525-0.201 0.535-0.116 0.863 0.317 1.233 0.258 0.22 0.553 0.331 0.89 0.253 0.141-0.033 0.271-0.115 0.407-0.172 0.241-0.104 0.295-0.217 0.238-0.474-0.040-0.178-0.067-0.358-0.1-0.539zM7.377 14.649c-0.005 0-0.011-0.001-0.014-0.001 0-0.032 0-0.063 0-0.095-0.003-0.215-0.294-0.61-0.499-0.673-0.033-0.011-0.074-0.009-0.108-0.001-0.432 0.092-0.839 0.242-1.176 0.539-0.059 0.053-0.121 0.129-0.134 0.204-0.037 0.228-0.066 0.458-0.070 0.689-0.004 0.282 0.167 0.486 0.445 0.528 0.249 0.038 0.502 0.061 0.753 0.059 0.378-0.003 0.661-0.25 0.727-0.62 0.038-0.209 0.051-0.42 0.076-0.628zM7.93 23.525c0.313 0.001 0.527-0.088 0.561-0.3 0.051-0.324 0.071-0.656 0.062-0.984-0.007-0.219-0.124-0.259-0.342-0.198-0.101 0.029-0.212 0.032-0.317 0.046-0.13 0.018-0.278 0.004-0.388 0.062-0.295 0.153-0.417 0.47-0.332 0.774 0.113 0.406 0.357 0.598 0.757 0.599zM5.822 25.272c-0.097-0.063-0.158-0.133-0.205-0.125-0.050 0.008-0.121 0.090-0.122 0.14 0 0.042 0.084 0.116 0.137 0.12 0.047 0.004 0.1-0.067 0.191-0.134zM4.084 15.173c-0.043-0.105-0.078-0.187-0.112-0.269-0.037 0.038-0.096 0.071-0.107 0.116-0.026 0.115 0.045 0.157 0.219 0.153z"></path>
<path d="M16.751 0.922c0.325 0.217 0.561 0.516 0.789 0.828 0.747 1.019 1.501 2.032 2.251 3.049 0.149 0.203 0.29 0.411 0.442 0.631-0.082 0.017-0.141 0.032-0.201 0.042-0.2 0.037-0.374 0.108-0.525 0.259-0.111 0.109-0.265 0.195-0.415 0.241-0.288 0.088-0.469 0.266-0.57 0.541-0.025 0.068-0.042 0.15-0.091 0.198-0.165 0.163-0.165 0.356-0.154 0.569 0.037 0.689 0.051 1.377 0.090 2.066 0.018 0.346 0.070 0.69 0.103 1.035 0.020 0.209 0.049 0.42 0.046 0.629-0.011 0.766 0.125 1.52 0.211 2.277 0.012 0.108 0.059 0.213 0.063 0.32 0.003 0.070-0.025 0.155-0.070 0.208-0.068 0.078-0.159 0.138-0.248 0.195-0.552 0.352-1.015 0.798-1.425 1.306-0.184 0.229-0.383 0.448-0.583 0.664-0.037 0.041-0.129 0.083-0.163 0.065-0.075-0.041-0.171-0.115-0.18-0.186-0.015-0.107-0.068-0.145-0.14-0.204-0.119-0.099-0.223-0.217-0.324-0.335-0.087-0.101-0.148-0.23-0.246-0.317-0.296-0.259-0.608-0.502-0.907-0.759-0.115-0.099-0.226-0.207-0.316-0.328-0.158-0.212-0.367-0.338-0.604-0.437-0.066-0.026-0.113-0.097-0.169-0.148 0.046-0.045 0.086-0.107 0.141-0.132 0.195-0.088 0.252-0.259 0.282-0.445 0.12-0.711 0.234-1.42 0.25-2.145 0.022-1.031 0.090-2.061 0.125-3.092 0.012-0.357-0.013-0.715-0.021-1.073-0.004-0.196-0.050-0.257-0.241-0.283-0.192-0.028-0.387-0.042-0.581-0.062-0.026-0.003-0.062-0.011-0.078 0.003-0.167 0.14-0.28 0.017-0.416-0.066-0.094-0.057-0.216-0.068-0.328-0.093-0.070-0.016-0.142-0.020-0.23-0.068 0.046-0.042 0.091-0.086 0.14-0.125 0.172-0.137 0.365-0.254 0.516-0.411 0.568-0.589 1.222-1.097 1.653-1.815 0.191-0.32 0.428-0.612 0.64-0.919 0.298-0.429 0.624-0.834 1.005-1.193 0.161-0.151 0.299-0.324 0.448-0.487 0.013-0.003 0.024-0.003 0.034-0.003zM17.036 12.537c-0.065-0.198-0.115-0.39-0.192-0.57-0.034-0.080-0.113-0.154-0.191-0.2-0.14-0.082-0.291-0.146-0.441-0.207-0.242-0.097-0.55 0.013-0.693 0.229-0.29 0.437-0.325 0.881-0.020 1.319 0.075 0.108 0.199 0.226 0.319 0.252 0.277 0.058 0.564 0.053 0.834-0.062 0.059-0.025 0.137-0.065 0.158-0.116 0.084-0.207 0.15-0.421 0.227-0.645zM16.562 6.072c0.209-0.011 0.379-0.105 0.494-0.273 0.165-0.237 0.309-0.487 0.462-0.734 0.049-0.078 0.046-0.149-0.034-0.205-0.201-0.141-0.4-0.284-0.604-0.421-0.1-0.067-0.219-0.111-0.307-0.188-0.103-0.091-0.212-0.134-0.329-0.072-0.12 0.063-0.049 0.175-0.030 0.267 0.049 0.236 0.015 0.296-0.213 0.375-0.182 0.063-0.248 0.15-0.226 0.342 0.026 0.245 0.107 0.473 0.279 0.657 0.136 0.147 0.302 0.242 0.51 0.252zM19.39 5.048c0.025-0.017 0.050-0.033 0.074-0.050-0.059-0.086-0.117-0.17-0.176-0.255-0.022 0.014-0.045 0.030-0.066 0.045 0.055 0.087 0.112 0.174 0.169 0.261z"></path>
<path d="M18.291 25.73c0.203-0.319 0.303-0.652 0.255-1.017-0.012-0.091-0.072-0.176-0.111-0.263-0.088 0.057-0.205 0.096-0.257 0.176-0.063 0.1-0.086 0.233-0.099 0.356-0.012 0.116-0.047 0.2-0.151 0.257-0.103 0.055-0.162-0.011-0.238-0.061-0.188-0.125-0.383-0.24-0.577-0.358-0.172-0.105-0.346-0.097-0.525-0.009-0.294 0.142-0.357 0.107-0.381-0.216-0.009-0.13 0.004-0.263-0.012-0.394-0.007-0.059-0.058-0.115-0.088-0.171-0.051 0.038-0.105 0.071-0.151 0.113-0.082 0.074-0.162 0.15-0.236 0.232-0.032 0.036-0.055 0.086-0.062 0.133-0.008 0.057 0.009 0.115 0.009 0.172 0.001 0.262-0.096 0.4-0.346 0.482-0.109 0.036-0.224 0.058-0.336 0.088-0.228 0.063-0.457 0.122-0.682 0.194-0.3 0.096-0.491-0.004-0.572-0.311-0.025-0.096-0.041-0.198-0.080-0.287-0.021-0.050-0.083-0.083-0.125-0.122-0.034 0.047-0.088 0.090-0.099 0.141-0.049 0.246-0.045 0.486 0.053 0.727 0.065 0.158 0.088 0.336 0.107 0.507 0.017 0.166-0.105 0.295-0.258 0.328-0.257 0.054-0.511 0.117-0.765 0.178-0.062 0.015-0.121 0.040-0.183 0.047-0.215 0.026-0.333-0.070-0.315-0.282 0.045-0.521-0.094-1.025-0.136-1.535-0.030-0.369 0.004-0.744 0.012-1.115 0.007-0.325 0.017-0.651 0.021-0.976 0.001-0.095-0.012-0.19-0.014-0.284-0.028-0.894-0.984-1.302-1.601-1.181-0.049 0.009-0.108 0.030-0.138 0.066-0.086 0.097-0.175 0.133-0.291 0.062-0.12-0.074-0.165-0.18-0.151-0.323 0.009-0.091 0.007-0.186-0.013-0.274-0.011-0.049-0.071-0.084-0.107-0.128-0.076-0.095-0.178-0.179-0.223-0.287-0.101-0.242-0.163-0.5-0.265-0.743-0.066-0.157-0.161-0.304-0.261-0.444-0.067-0.095-0.087-0.175-0.025-0.274 0.005-0.009 0.009-0.018 0.016-0.028 0.672-0.927 0.863-2.035 1.127-3.105 0.136-0.546 0.103-1.122-0.024-1.691-0.12-0.536-0.249-1.076-0.198-1.637 0.125-1.358 0.664-2.542 1.503-3.599 0.097-0.122 0.217-0.23 0.336-0.333 0.408-0.356 0.822-0.707 1.233-1.060 0.055-0.047 0.108-0.107 0.174-0.136s0.161-0.058 0.216-0.030c0.054 0.026 0.103 0.121 0.105 0.187 0.012 0.225 0.013 0.453 0.001 0.679-0.053 1.014-0.113 2.029-0.165 3.043-0.024 0.483-0.036 0.968-0.046 1.453-0.003 0.133-0.037 0.238-0.122 0.344-0.188 0.23-0.252 0.498-0.151 0.785 0.022 0.063 0.094 0.113 0.151 0.158 0.078 0.061 0.175 0.097 0.245 0.163 0.682 0.643 1.36 1.291 2.039 1.937 0.122 0.116 0.24 0.237 0.361 0.354 0.061 0.059 0.115 0.13 0.186 0.17 0.191 0.107 0.371 0.216 0.366 0.432 0.137 0.013 0.249 0.032 0.36 0.030 0.043 0 0.096-0.034 0.126-0.068 0.148-0.163 0.288-0.332 0.433-0.499 0.175 0.157 0.182 0.155 0.329-0.022 0.342-0.413 0.687-0.826 1.025-1.243 0.055-0.068 0.072-0.167 0.111-0.25s0.062-0.184 0.124-0.244c0.244-0.233 0.498-0.454 0.752-0.676 0.188-0.163 0.2-0.249 0.061-0.457-0.049-0.072-0.083-0.158-0.109-0.241-0.24-0.765-0.337-1.55-0.345-2.349-0.005-0.448-0.041-0.894-0.054-1.342-0.007-0.205-0.005-0.411 0.012-0.615 0.043-0.545-0.016-1.082-0.090-1.621-0.036-0.258-0.036-0.258 0.195-0.37 0.042-0.021 0.086-0.041 0.137-0.066 0.074 0.141 0.154 0.151 0.279 0.043 0.15-0.13 0.265-0.084 0.408 0.054 0.172 0.166 0.363 0.32 0.568 0.442 0.316 0.188 0.558 0.44 0.769 0.735 0.448 0.626 0.778 1.314 1.038 2.032 0.172 0.477 0.198 0.988 0.129 1.496-0.011 0.076 0.004 0.157 0.004 0.236-0.001 0.13-0.001 0.262-0.008 0.392-0.008 0.134-0.032 0.269-0.033 0.403-0.003 0.664-0.004 1.326 0.003 1.99 0.001 0.095 0.049 0.188 0.067 0.283 0.020 0.101 0.059 0.208 0.042 0.304-0.049 0.271-0.033 0.537 0.047 0.797 0.159 0.512 0.305 1.027 0.587 1.493 0.15 0.248 0.199 0.531 0.198 0.819-0.001 0.284 0.007 0.564 0.121 0.836 0.037 0.088-0.015 0.238-0.068 0.337-0.138 0.253-0.316 0.486-0.45 0.741-0.138 0.265-0.262 0.54-0.357 0.822-0.050 0.151-0.040 0.329-0.030 0.494 0.009 0.155 0.12 0.195 0.221 0.074 0.182-0.216 0.369-0.437 0.499-0.683 0.15-0.282 0.279-0.562 0.568-0.736 0.053-0.032 0.080-0.13 0.092-0.201 0.108-0.669 0.022-1.333-0.072-1.995-0.017-0.12-0.024-0.242-0.053-0.36-0.032-0.125-0.079-0.248-0.132-0.366-0.091-0.205-0.201-0.404-0.284-0.614-0.122-0.312-0.232-0.631-0.34-0.949-0.029-0.087-0.046-0.184-0.038-0.275 0.043-0.508 0.116-1.015 0.144-1.524 0.075-1.404 0.157-2.809-0.196-4.193-0.125-0.491-0.377-0.922-0.651-1.341-0.155-0.237-0.308-0.479-0.486-0.699-0.148-0.182-0.329-0.336-0.5-0.499-0.053-0.050-0.138-0.078-0.17-0.137-0.040-0.075-0.066-0.178-0.046-0.257 0.009-0.037 0.144-0.071 0.212-0.059 0.345 0.059 0.591-0.133 0.59-0.491 0-0.082-0.050-0.184-0.111-0.24-0.132-0.12-0.288-0.211-0.431-0.32-0.125-0.096-0.117-0.145 0.022-0.223 0.074-0.041 0.142-0.090 0.216-0.13 0.041-0.022 0.086-0.047 0.13-0.051 0.508-0.053 1.017-0.096 1.524-0.154 0.208-0.024 0.417-0.059 0.618-0.12 0.952-0.286 1.9-0.582 2.851-0.87 0.302-0.091 0.429 0.037 0.337 0.34-0.053 0.173-0.14 0.335-0.211 0.502-0.026 0.063-0.057 0.124-0.080 0.188-0.266 0.697-0.532 1.393-0.797 2.090s-0.536 1.396-0.589 2.152c-0.008 0.104 0.012 0.209 0.017 0.313 0.005 0.112-0.041 0.157-0.154 0.12-0.165-0.053-0.234-0.174-0.277-0.333-0.033-0.122-0.079-0.253-0.155-0.352-0.101-0.13-0.292-0.153-0.416-0.079-0.148 0.087-0.163 0.224-0.12 0.373 0.074 0.252 0.174 0.498 0.225 0.753 0.067 0.335 0.104 0.676 0.14 1.015 0.011 0.095-0.051 0.196-0.046 0.292 0.015 0.24 0.042 0.479 0.079 0.718 0.028 0.182 0.080 0.36 0.12 0.539 0.029 0.13 0.080 0.154 0.182 0.066 0.122-0.107 0.238-0.224 0.35-0.341 0.029-0.032 0.040-0.083 0.051-0.128 0.018-0.071 0.018-0.15 0.050-0.215 0.087-0.178 0.104-0.361 0.087-0.553-0.007-0.070 0.012-0.142 0.025-0.271 0.199 0.165 0.366 0.295 0.524 0.437 0.238 0.215 0.471 0.436 0.706 0.655 0.004 0.004 0.008 0.008 0.013 0.009 0.287 0.051 0.453 0.341 0.748 0.382 0.051 0.007 0.116 0.045 0.142 0.087 0.1 0.159 0.257 0.225 0.42 0.288 0.45 0.175 0.906 0.34 1.345 0.539 0.382 0.172 0.745 0.39 1.118 0.583 0.29 0.149 0.585 0.29 0.876 0.437 0.099 0.050 0.194 0.107 0.287 0.166 0.129 0.082 0.22 0.188 0.17 0.353-0.051 0.167-0.23 0.274-0.395 0.287-0.151 0.012-0.317 0.030-0.449 0.1-0.768 0.406-1.529 0.823-2.286 1.246-0.22 0.122-0.421 0.277-0.632 0.415-0.092 0.061-0.186 0.119-0.283 0.171-0.367 0.203-0.735 0.406-1.106 0.601-0.104 0.055-0.224 0.079-0.334 0.124-0.115 0.047-0.225 0.105-0.341 0.151-0.082 0.033-0.201 0.099-0.246 0.067-0.083-0.058-0.142-0.17-0.178-0.271-0.033-0.096-0.009-0.211-0.036-0.311-0.061-0.241-0.284-0.415-0.531-0.421-0.050-0.001-0.13 0.020-0.149 0.055-0.128 0.246-0.241 0.49-0.166 0.79 0.059 0.237 0.063 0.482 0.005 0.733-0.043 0.194-0.013 0.407-0.001 0.611 0.020 0.331 0.054 0.66 0.072 0.99 0.004 0.062-0.033 0.13-0.062 0.19-0.116 0.228-0.047 0.379 0.201 0.427 0.067 0.013 0.136 0.020 0.203 0.032 0.157 0.028 0.277-0.009 0.35-0.166 0.033-0.068 0.095-0.125 0.149-0.183 0.091-0.097 0.199-0.134 0.328-0.083 0.133 0.053 0.216 0.141 0.229 0.292 0.040 0.471 0.082 0.944 0.125 1.416 0.009 0.099 0.013 0.203 0.046 0.295 0.137 0.379 0.144 0.774 0.15 1.169 0.012 0.612 0.040 1.221 0.275 1.798 0.012 0.029 0.029 0.065 0.022 0.091-0.020 0.066-0.036 0.155-0.083 0.182-0.045 0.025-0.158 0.005-0.19-0.036-0.122-0.154-0.248-0.178-0.44-0.129-0.136 0.036-0.298-0.032-0.448-0.050-0.219-0.028-0.437-0.054-0.656-0.079-0.026-0.003-0.057 0.005-0.078-0.005-0.383-0.196-0.782-0.086-1.177-0.065-0.078 0.004-0.155-0.007-0.233-0.017-0.184-0.024-0.369-0.057-0.553-0.075-0.155-0.016-0.313-0.022-0.47-0.020-0.154 0.004-0.308 0.029-0.464 0.038-0.080 0.004-0.175 0.017-0.241-0.017-0.126-0.063-0.234-0.055-0.361-0.007-0.105 0.041-0.223 0.063-0.336 0.067-0.055 0.003-0.134-0.043-0.161-0.091-0.021-0.038 0.005-0.128 0.041-0.166 0.128-0.138 0.182-0.303 0.211-0.483 0.025-0.155 0.058-0.311 0.099-0.462 0.090-0.332-0.049-0.612-0.371-0.735-0.291-0.112-0.296-0.124-0.207-0.424 0.076-0.255 0.145-0.512 0.225-0.766 0.058-0.184 0.194-0.249 0.383-0.296 0.255-0.063 0.495-0.196 0.735-0.311 0.026-0.012 0.029-0.113 0.013-0.163-0.047-0.149-0.104-0.295-0.169-0.436-0.022-0.050-0.079-0.086-0.124-0.122-0.013-0.011-0.041-0.007-0.062-0.008-0.864-0.040-0.839 0.025-1.127 0.649-0.254 0.552-0.464 1.115-0.495 1.733-0.022 0.428-0.067 0.856-0.101 1.283-0.003 0.032 0.003 0.068-0.012 0.093-0.194 0.329-0.054 0.665-0.016 0.996 0.029 0.254 0.040 0.255-0.188 0.385-0.055 0.030-0.108 0.066-0.161 0.1-0.113 0.076-0.232 0.082-0.337-0.003-0.336-0.269-0.668-0.544-1.001-0.816-0.021-0.015-0.038-0.042-0.067-0.076zM21.967 18.124c0.033-0.236-0.138-0.396-0.308-0.57-0.133-0.137-0.275-0.068-0.412-0.063-0.172 0.007-0.349 0.021-0.515 0.066-0.205 0.054-0.428 0.105-0.597 0.223-0.225 0.158-0.464 0.261-0.72 0.338-0.154 0.046-0.323 0.087-0.449 0.179-0.187 0.138-0.374 0.17-0.593 0.128-0.101-0.020-0.211-0.026-0.311-0.008-0.072 0.013-0.136 0.075-0.204 0.115 0.051 0.055 0.095 0.121 0.157 0.162 0.172 0.117 0.367 0.205 0.527 0.337 0.483 0.402 1.031 0.446 1.612 0.323 0.354-0.075 0.703-0.174 1.056-0.255 0.5-0.113 0.752-0.424 0.757-0.973zM14.795 18.655c-0.008-0.028-0.014-0.054-0.022-0.082-0.101-0.034-0.2-0.071-0.303-0.1-0.496-0.137-0.996-0.265-1.417-0.589-0.062-0.047-0.162-0.049-0.245-0.065-0.046-0.009-0.097 0.004-0.14-0.011-0.29-0.107-0.583-0.205-0.865-0.331-0.337-0.15-0.626-0.024-0.706 0.334-0.030 0.133-0.062 0.267-0.076 0.403-0.007 0.062 0.007 0.14 0.040 0.19 0.087 0.13 0.187 0.254 0.288 0.375 0.29 0.345 0.677 0.466 1.11 0.458 0.331-0.007 0.661-0.033 0.99-0.047 0.037-0.001 0.079-0.004 0.108 0.013 0.18 0.105 0.335 0.029 0.486-0.063 0.194-0.117 0.385-0.236 0.575-0.357 0.061-0.041 0.117-0.087 0.176-0.13zM26.935 15.542c0.009-0.435-0.333-0.917-0.694-1.034-0.036-0.012-0.095-0.014-0.116 0.007-0.111 0.108-0.237 0.116-0.379 0.094-0.053-0.008-0.117 0.011-0.166 0.036-0.208 0.107-0.371 0.259-0.448 0.486-0.095 0.284-0.121 0.575-0.065 0.87 0.028 0.144 0.093 0.263 0.23 0.338 0.221 0.121 0.437 0.252 0.654 0.379 0.108 0.063 0.182 0.037 0.248-0.071 0.045-0.072 0.107-0.141 0.175-0.191 0.337-0.24 0.523-0.565 0.56-0.914zM15.169 21.854c-0.001 0.032-0.004 0.063-0.005 0.095-0.009 0.188 0.012 0.205 0.194 0.151 0.151-0.045 0.303-0.090 0.453-0.138 0.317-0.104 0.631-0.148 0.957-0.029 0.174 0.063 0.292-0.061 0.259-0.254-0.011-0.067-0.043-0.13-0.059-0.196-0.034-0.142-0.062-0.284-0.095-0.427-0.072-0.323-0.137-0.647-0.225-0.964-0.022-0.082-0.113-0.165-0.192-0.204-0.1-0.047-0.223-0.047-0.334-0.072-0.154-0.033-0.274 0.021-0.348 0.154-0.321 0.589-0.635 1.181-0.604 1.884zM23.352 23.644c0.003 0.17-0.029 0.349 0.119 0.475 0.227 0.194 0.664 0.217 0.942 0.062 0.29-0.163 0.47-0.504 0.428-0.818-0.018-0.141-0.042-0.28-0.070-0.42-0.037-0.19-0.117-0.237-0.313-0.262-0.117-0.015-0.248-0.059-0.338-0.133-0.174-0.141-0.425-0.195-0.643-0.097-0.178 0.080-0.357 0.362-0.34 0.55 0.004 0.049 0.022 0.109 0.057 0.141 0.149 0.141 0.182 0.313 0.159 0.502zM24.382 6.038c-0.153 0.014-0.258 0.028-0.362 0.032-0.2 0.009-0.356 0.1-0.499 0.238-0.382 0.369-0.28 1.111 0.19 1.375 0.076 0.042 0.182 0.062 0.267 0.050 0.428-0.057 0.726-0.374 0.798-0.798 0.054-0.319 0.003-0.597-0.249-0.815-0.050-0.043-0.12-0.067-0.145-0.082zM30.906 15.635c0.051-0.076 0.117-0.133 0.128-0.199 0.011-0.063-0.026-0.142-0.063-0.2-0.016-0.024-0.128-0.020-0.13-0.009-0.025 0.088-0.042 0.18-0.046 0.271-0.001 0.029 0.046 0.059 0.112 0.137zM13.017 26.087c0.1-0.087 0.148-0.327 0.087-0.417-0.047-0.070-0.099-0.070-0.144 0.005-0.062 0.107-0.038 0.299 0.057 0.412zM22.299 16.399c0.075-0.201 0.045-0.279-0.125-0.342 0.042 0.116 0.079 0.219 0.125 0.342z"></path>
<path d="M12.875 27.743c0.298-0.13 0.589-0.277 0.894-0.386 0.195-0.070 0.328-0.175 0.357-0.375 0.033-0.228 0.046-0.46 0.062-0.691 0.013-0.195 0.047-0.238 0.246-0.244 0.171-0.004 0.291-0.097 0.415-0.201 0.082-0.068 0.178-0.13 0.278-0.162 0.25-0.080 0.503-0.165 0.761-0.203 0.311-0.046 0.636-0.097 0.94-0.051 0.27 0.041 0.527 0.2 0.776 0.332 0.174 0.092 0.25 0.277 0.254 0.468 0.008 0.415 0.199 0.743 0.445 1.053 0.154 0.194 0.323 0.354 0.575 0.417 0.071 0.018 0.144 0.104 0.179 0.176 0.026 0.054 0.018 0.161-0.020 0.2-0.036 0.037-0.142 0.042-0.198 0.017-0.199-0.087-0.391-0.072-0.557 0.046-0.217 0.154-0.435 0.317-0.614 0.512-0.267 0.29-0.496 0.614-0.749 0.917-0.273 0.328-0.382 0.724-0.471 1.125-0.063 0.279-0.288 0.353-0.494 0.432-0.129 0.050-0.242-0.076-0.308-0.198-0.112-0.208-0.234-0.413-0.323-0.632-0.342-0.847-0.967-1.442-1.703-1.938-0.157-0.105-0.331-0.187-0.486-0.294-0.103-0.071-0.188-0.169-0.28-0.254 0.005-0.024 0.013-0.045 0.020-0.066zM16.909 27.267c0.004-0.352-0.233-0.711-0.558-0.848-0.316-0.133-0.676 0.022-0.776 0.35-0.055 0.179-0.090 0.369-0.107 0.556-0.026 0.28 0.383 0.727 0.669 0.745 0.037 0.003 0.074 0.001 0.111-0.005 0.317-0.061 0.657-0.471 0.661-0.798zM16.141 30.17c-0.133 0.074-0.25 0.105-0.229 0.255 0.004 0.028 0.026 0.051 0.041 0.076 0.026-0.018 0.065-0.033 0.076-0.058 0.038-0.076 0.066-0.158 0.112-0.274z"></path>
</svg>
