<!-- Generated by IcoMoon.io -->
<svg version="1.1" xmlns="http://www.w3.org/2000/svg" width="32" height="32" viewBox="0 0 32 32">
<title>fighters-priest</title>
<path d="M12.125 30.958c0.254-1.070 0.54-2.113 0.742-3.178 0.088-0.483 0.010-0.997-0.010-1.495-0.005-0.197-0.010-0.41-0.088-0.582-0.151-0.317-0.353-0.613-0.55-0.904-0.104-0.156-0.244-0.291-0.379-0.421-0.405-0.395-0.878-0.395-1.381-0.223-0.504 0.177-1.064-0.042-1.241-0.504-0.062-0.161-0.047-0.353-0.047-0.535 0.010-0.706-0.135-1.376-0.415-2.020-0.052-0.125-0.114-0.254-0.203-0.358-0.519-0.602-0.763-1.303-0.794-2.098-0.010-0.348-0.078-0.696-0.099-1.049-0.005-0.114 0.021-0.244 0.067-0.348 0.13-0.27 0.275-0.535 0.426-0.794 0.042-0.073 0.13-0.125 0.239-0.223 0-0.26-0.010-0.576 0-0.898 0.016-0.369 0.062-0.737 0.062-1.106 0-0.244-0.052-0.493-0.083-0.748 0.114 0.088 0.234 0.182 0.363 0.27 0.177 0.125 0.358 0.203 0.597 0.166 0.177-0.031 0.369 0.031 0.55 0.078 0.909 0.218 1.838 0.151 2.757 0.166 0.317 0.005 0.633 0.068 0.95 0.078 0.151 0.005 0.306-0.052 0.462-0.062 0.13-0.010 0.265 0.005 0.395 0.010 0 0.026 0 0.057 0 0.083-0.057 0.021-0.114 0.042-0.213 0.073 0.047 0.026 0.073 0.057 0.104 0.062 0.275 0.052 0.55 0.119 0.831 0.145 0.213 0.021 0.431-0.010 0.644-0.036 0.379-0.047 0.763-0.104 1.142-0.151 0.135-0.016 0.275-0.026 0.41-0.036 0.556-0.042 1.111-0.093 1.667-0.125 0.312-0.021 0.633-0.042 0.945-0.005 0.654 0.078 1.293 0.042 1.937-0.109 1.080-0.249 2.191-0.389 3.214-0.841 0.182 0.171 0.249 0.685 0.145 0.966-0.042 0.109-0.057 0.228-0.083 0.343-0.057 0.244-0.145 0.488-0.156 0.737-0.021 0.613 0.026 1.267 0.426 1.734 0.582 0.691 0.405 1.334 0.088 2.020-0.41 0.898-0.846 1.791-1.231 2.705-0.171 0.41-0.239 0.867-0.363 1.298-0.067 0.228-0.151 0.452-0.239 0.675-0.067 0.171-0.203 0.166-0.363 0.125-0.291-0.073-0.587-0.161-0.878-0.156-0.514 0.010-0.945 0.27-1.236 0.68-0.13 0.177-0.109 0.457-0.192 0.675-0.192 0.524-0.104 1.059-0.073 1.589 0.067 1.22 0.431 2.378 0.815 3.526 0.042 0.13 0.052 0.218-0.067 0.312-0.457 0.353-0.898 0.717-1.355 1.059-0.119 0.088-0.291 0.104-0.426 0.177-0.623 0.348-1.298 0.28-1.968 0.28-0.675 0-1.35 0.036-2.020-0.010-0.519-0.036-1.044-0.13-1.542-0.27-0.753-0.213-1.485-0.488-2.228-0.742-0.036 0.016-0.062-0.010-0.057-0.005zM22.287 18.974c-0.016 0-0.036-0.005-0.052-0.005 0-0.182 0.005-0.363 0-0.545-0.016-0.587-0.436-0.945-1.013-0.846-0.322 0.057-0.639 0.135-0.95 0.228-0.556 0.171-1.085 0.405-1.464 0.878-0.27 0.332-0.228 0.722-0.171 1.111 0.010 0.057 0.073 0.119 0.125 0.156 0.145 0.104 0.301 0.203 0.457 0.291 0.571 0.327 1.215 0.312 1.838 0.343 0.28 0.016 0.582-0.13 0.846-0.254 0.203-0.093 0.28-0.291 0.27-0.545-0.010-0.27 0.073-0.54 0.114-0.81zM12.484 20.636c0 0 0 0 0 0 0.042-0.005 0.088-0.010 0.13-0.005 0.649 0.093 1.194-0.203 1.755-0.441 0.073-0.031 0.161-0.093 0.192-0.161 0.192-0.395 0.244-1.241-0.348-1.542-0.374-0.192-0.748-0.395-1.137-0.55-0.254-0.104-0.54-0.161-0.815-0.182-0.208-0.016-0.426 0.067-0.639 0.073-0.182 0.005-0.27 0.099-0.369 0.239-0.348 0.504-0.369 1.064-0.239 1.615 0.151 0.628 0.473 1.049 1.158 0.961 0.104-0.016 0.208-0.005 0.312-0.005zM16.726 24.27c0.073 0.093 0.104 0.177 0.166 0.218 0.576 0.374 0.971 0.353 1.173-0.197 0.078-0.218 0.047-0.504-0.010-0.737-0.114-0.493-0.286-0.971-0.415-1.459-0.125-0.483-0.509-0.644-0.919-0.763-0.192-0.057-0.888 0.322-1.002 0.504-0.473 0.784-0.649 1.641-0.602 2.549 0.010 0.265 0.125 0.369 0.395 0.369 0.441 0.005 0.862-0.052 1.215-0.483z"></path>
<path d="M7.156 9.186c0.296 0 0.587-0.005 0.883 0.005 0.062 0 0.125 0.042 0.187 0.062 0.182 0.062 0.358 0.125 0.54 0.192 0.062 0.021 0.119 0.052 0.182 0.078 0.145 0.062 0.296 0.114 0.441 0.182 0.068 0.036 0.125 0.099 0.239 0.13-0.14-0.228-0.244-0.493-0.421-0.685-0.441-0.478-0.872-0.945-1.085-1.568-0.057-0.177-0.088-0.363-0.099-0.55-0.047-0.872-0.249-1.688-0.872-2.337-0.296-0.312-0.628-0.587-0.929-0.924 0.343 0.166 0.706 0.306 1.028 0.498 0.53 0.322 1.080 0.633 1.423 1.179 0.249 0.4 0.493 0.81 0.701 1.231 0.234 0.478 0.561 0.867 1.013 1.148 0.104 0.062 0.239 0.088 0.363 0.099 0.036 0.005 0.125-0.099 0.119-0.145-0.031-0.441-0.057-0.888-0.125-1.329-0.042-0.26-0.161-0.504-0.239-0.732 0.348 0.073 0.571 0.379 0.758 0.727 0.010 0.021 0.021 0.047 0.026 0.073 0.062 0.187 0.145 0.363 0.369 0.358 0.14-0.005 0.317-0.415 0.275-0.587-0.093-0.415-0.301-0.691-0.722-0.878-0.815-0.369-1.594-0.815-2.383-1.236-0.971-0.509-1.76-1.22-2.347-2.139-0.415-0.644-0.395-1.329-0.13-2.035 0.021 0.078 0.052 0.151 0.057 0.228 0.114 0.883 0.587 1.485 1.386 1.854 1.241 0.566 2.472 1.148 3.707 1.719 0.441 0.208 0.888 0.421 1.407 0.384 0.099-0.457-0.203-0.727-0.478-0.961-0.187-0.161-0.473-0.208-0.711-0.312-0.332-0.14-0.618-0.322-0.8-0.654-0.109-0.203-0.389-0.291-0.415-0.566-0.026-0.249-0.052-0.498-0.073-0.743 0.021-0.005 0.047-0.010 0.068-0.010 0.068 0.119 0.119 0.254 0.208 0.358s0.223 0.166 0.317 0.26c0.234 0.239 0.524 0.306 0.841 0.332 0.208 0.016 0.436 0.026 0.623 0.114 0.498 0.228 1.070 0.312 1.428 0.815 0.13 0.187 0.41 0.26 0.582 0.421 0.395 0.384 0.774 0.789 1.148 1.194 0.166 0.177 0.348 0.27 0.592 0.244 0.301-0.026 0.405-0.161 0.27-0.452-0.114-0.249-0.249-0.493-0.415-0.711-0.27-0.358-0.592-0.675-1.018-0.867 0.441 0.052 0.898 0.062 1.324 0.171 0.41 0.109 0.753 0.389 1.007 0.737 0.509 0.706 0.981 1.438 1.495 2.134 0.145 0.197 0.374 0.369 0.602 0.452 0.4 0.151 0.763-0.202 0.639-0.623-0.119-0.395-0.317-0.768-0.467-1.127 0.696 0.296 1.085 0.904 1.366 1.62 0.301 0.763-0.099 1.449-0.239 2.16 0.28 0.062 0.706-0.125 0.878-0.296 0.4-0.395 0.426-0.893 0.436-1.402 0-0.104 0.042-0.208 0.062-0.306 0.026 0 0.057-0.005 0.083-0.005 0.047 0.125 0.093 0.249 0.145 0.369 0.322 0.685 0.291 1.418 0.239 2.134-0.021 0.265-0.239 0.519-0.369 0.779-0.047 0.088-0.093 0.182-0.161 0.312 0.322 0 0.571-0.114 0.779-0.265 0.322-0.234 0.504-0.571 0.54-0.981 0.010-0.114 0.109-0.218 0.182-0.358 0.379 0.561 0.337 1.101 0.28 1.656-0.057 0.597-0.519 0.919-0.774 1.334 0.109 0.187 0.203 0.379 0.327 0.545 0.062 0.083 0.177 0.119 0.286 0.192-0.109 0.031-0.192 0.073-0.28 0.073-0.171 0.005-0.353 0.016-0.514-0.026-0.197-0.047-0.379-0.145-0.566-0.228-0.067-0.031-0.151-0.073-0.182-0.135-0.114-0.208-0.296-0.254-0.504-0.306-0.249-0.062-0.488-0.187-0.763-0.296 0.171-0.119 0.28-0.192 0.353-0.244-0.218-0.114-0.436-0.203-0.628-0.338-0.275-0.192-0.021-0.436-0.005-0.685-0.447 0.109-0.633-0.265-0.914-0.452-0.431-0.286-0.872-0.504-1.397-0.53-0.104-0.005-0.213-0.062-0.312-0.109-0.504-0.228-0.639-0.254-1.267-0.208 0.145 0.057 0.239 0.093 0.332 0.13-0.005 0.016-0.005 0.031-0.010 0.047-0.161-0.026-0.322-0.052-0.483-0.073-0.223-0.031-0.457-0.099-0.675-0.078-0.768 0.057-1.495 0.296-2.103 0.758-0.27 0.203-0.514 0.197-0.794 0.234-0.14 0.016-0.296 0.047-0.41 0.119-0.415 0.254-0.82 0.53-1.22 0.81-0.161 0.114-0.223 0.265-0.228 0.493-0.005 0.213-0.177 0.431-0.296 0.639-0.104 0.182-0.239 0.353-0.358 0.524-0.218 0.306-0.405 0.644-0.81 0.748-0.047 0.010-0.078 0.073-0.125 0.088-0.171 0.057-0.363 0.177-0.519 0.14-0.234-0.052-0.332-0.286-0.322-0.53 0.016-0.358-0.156-0.649-0.348-0.924-0.166-0.239-0.379-0.452-0.592-0.696 0.26-0.114 0.498-0.099 0.696 0.005 0.203 0.104 0.369 0.28 0.582 0.4-0.192-0.363-0.369-0.737-0.571-1.096-0.203-0.348-0.457-0.644-0.867-0.758-0.161-0.047-0.317-0.104-0.473-0.161-0.010 0-0.005-0.016-0.005-0.031z"></path>
<path d="M11.383 11.985c0.374-0.083 0.748-0.166 1.127-0.249 0.467-0.099 0.914-0.119 1.35 0.177 0.177 0.119 0.436 0.114 0.659 0.166 0.010-0.026 0.016-0.052 0.026-0.083-0.099-0.078-0.218-0.14-0.28-0.239-0.047-0.073-0.068-0.249-0.031-0.275 0.145-0.104 0.322-0.166 0.488-0.239 0.208-0.093 0.483-0.016 0.628-0.26 0.010-0.021 0.036-0.042 0.057-0.047 0.561-0.109 1.137-0.27 1.698-0.119 0.291 0.078 0.524 0.363 0.8 0.561-0.156 0.239-0.28 0.436-0.41 0.633 0.010 0.016 0.016 0.031 0.026 0.047 0.093-0.052 0.187-0.099 0.275-0.156 0.192-0.125 0.369-0.275 0.576-0.379 0.68-0.343 1.402-0.286 2.129-0.208 0.249 0.026 0.509 0.016 0.748 0.078 0.234 0.062 0.447 0.192 0.665 0.296 0.036 0.016 0.073 0.068 0.109 0.068 0.4-0.010 0.685 0.265 1.018 0.405 0.337 0.145 0.592 0.4 0.774 0.768-0.187 0.073-0.348 0.151-0.519 0.197-0.457 0.119-0.914 0.223-1.376 0.327-0.109 0.026-0.223 0.005-0.332 0.021-0.275 0.047-0.556 0.104-0.831 0.156-0.327 0.057-0.639 0.208-0.981-0.010-0.156-0.099-0.4-0.057-0.597-0.104-0.119-0.031-0.239-0.093-0.348-0.156-0.166-0.093-0.317-0.228-0.493-0.296-0.291-0.109-0.602-0.182-0.904-0.27-0.031-0.010-0.067-0.036-0.073-0.062-0.062-0.223-0.239-0.187-0.4-0.192-0.223-0.010-0.457-0.052-0.519 0.265-0.005 0.021-0.062 0.036-0.125 0.026 0.062-0.078 0.119-0.156 0.244-0.312-0.478-0.036-0.883-0.068-1.288-0.099 0 0.016 0 0.031-0.005 0.047 0.306 0.156 0.618 0.312 0.961 0.488-0.119 0.14-0.213 0.244-0.322 0.369 0.919-0.286 1.719 0.078 2.539 0.353-0.779 0.109-1.444 0.639-2.274 0.545-0.254-0.026-0.519 0.083-0.784 0.13-0.073 0.016-0.151 0.021-0.291 0.042 0.296-0.234 0.114-0.421 0.005-0.576-0.052-0.073-0.234-0.073-0.358-0.068-0.644 0.021-1.293 0.083-1.937 0.062-0.566-0.016-1.137-0.078-1.688-0.187-0.353-0.073-0.685-0.265-1.013-0.431-0.057-0.031-0.099-0.218-0.062-0.28 0.161-0.296 0.389-0.54 0.711-0.67 0.218-0.088 0.436-0.171 0.654-0.26h-0.026z"></path>
<path d="M20.459 10.983c-0.498 0.042-1.059 0.047-1.599 0.145-0.473 0.088-0.836-0.104-1.225-0.28-0.078-0.036-0.161-0.114-0.192-0.197-0.099-0.254-0.203-0.514-0.254-0.779-0.057-0.275 0.088-0.426 0.374-0.478 0.151-0.026 0.312-0.052 0.447-0.114 0.369-0.166 0.742-0.119 1.111-0.042 0.125 0.026 0.249 0.099 0.353 0.182 0.223 0.187 0.436 0.389 0.649 0.592 0.145 0.14 0.337 0.26 0.166 0.535-0.042 0.073 0.104 0.265 0.171 0.436z"></path>
<path d="M17.531 9.025c-0.119 0.109-0.223 0.192-0.312 0.291-0.182 0.197-0.4 0.374-0.457 0.665-0.016 0.078-0.078 0.171-0.145 0.203-0.327 0.145-0.654 0.291-0.997 0.395-0.109 0.031-0.27-0.052-0.384-0.119-0.244-0.14-0.478-0.296-0.706-0.457-0.239-0.171-0.213-0.441-0.062-0.67 0.286-0.421 0.742-0.389 1.137-0.519 0.114-0.036 0.249-0.016 0.353-0.057 0.576-0.228 1.054 0.057 1.573 0.27z"></path>
<path d="M11.58 10.993c0.073-0.436 0.415-0.576 0.711-0.763 0.187-0.119 0.379-0.234 0.571-0.353 0.27-0.166 1.007-0.125 1.288 0.078 0.026 0.021 0.052 0.042 0.083 0.062 0.395 0.291 0.395 0.405-0.005 0.711-0.363 0.28-0.789 0.348-1.225 0.415-0.177 0.026-0.358 0.047-0.535 0.083-0.343 0.073-0.639 0-0.888-0.234z"></path>
<path d="M11.388 11.98c-0.099-0.036-0.197-0.078-0.296-0.114 0.057-0.093 0.109-0.197 0.171-0.286 0.228-0.317 0.493-0.327 0.81-0.109 0.078 0.052 0.223 0.010 0.338 0.010 0.010 0.026 0.026 0.047 0.036 0.073-0.13 0.073-0.254 0.156-0.389 0.208-0.223 0.083-0.452 0.151-0.675 0.223 0 0 0.005-0.005 0.005-0.005z"></path>
<path d="M13.626 9.503c0.109-0.057 0.223-0.114 0.389-0.197 0 0.109 0.016 0.223-0.005 0.228-0.109 0.042-0.228 0.052-0.348 0.078-0.010-0.036-0.026-0.073-0.036-0.109z"></path>
</svg>
