<!-- Generated by IcoMoon.io -->
<svg version="1.1" xmlns="http://www.w3.org/2000/svg" width="32" height="32" viewBox="0 0 32 32">
<title>fighters-terrifying</title>
<path d="M5.517 12.514c-0.025 0.006-0.012 0 0 0 0.672 0.1 1.263 0.031 1.78-0.51 0.51-0.535 1.108-0.983 1.661-1.487 0.317-0.286 0.554-0.305 0.834 0.019 0.187 0.218 0.33 0.467 0.579 0.703 0.012-0.18 0.050-0.361 0.025-0.529-0.093-0.51-0.691-0.964-1.176-0.821-0.292 0.087-0.548 0.342-0.796 0.548-0.585 0.492-1.145 1.008-1.723 1.506-0.324 0.28-0.728 0.162-1.101 0.168-0.193 0.006-0.386-0.050-0.572-0.093-0.342-0.087-0.473-0.373-0.348-0.703 0.112-0.305 0.187-0.628 0.299-0.933 0.106-0.274 0.305-0.529 0.348-0.809 0.081-0.579 0.087-1.17 0.118-1.755 0.006-0.068-0.012-0.143 0.006-0.212 0.299-1.164 0.672-2.302 1.412-3.273 0.268-0.348 0.616-0.635 0.946-0.933 0.342-0.317 0.728-0.597 1.052-0.933 0.448-0.454 1.002-0.716 1.574-0.94 1.101-0.423 2.084-1.151 3.285-1.307 0.877-0.112 1.767-0.23 2.651-0.218 0.709 0.012 1.419 0.23 2.128 0.348 0.143 0.025 0.292 0.012 0.429 0.050 0.647 0.187 1.325 0.311 1.873 0.747 0.062 0.050 0.137 0.093 0.218 0.112 0.896 0.212 1.655 0.678 2.34 1.276 0.498 0.436 1.033 0.846 1.444 1.35 0.367 0.454 0.666 1.002 0.846 1.555 0.348 1.083 0.591 2.203 0.89 3.31 0.081 0.305 0.168 0.616 0.28 0.908 0.050 0.124 0.174 0.23 0.274 0.33 0.454 0.442 0.336 1.35-0.218 1.618-0.093 0.044-0.224 0.031-0.386 0.056-0.137 0.535-0.672 0.392-1.083 0.454-0.473 0.075-0.908-0.025-1.288-0.417-0.529-0.548-1.139-1.020-1.711-1.518-0.205-0.174-0.411-0.33-0.709-0.317-0.672 0.012-1.151 0.691-0.921 1.431 0.112-0.162 0.193-0.292 0.286-0.417 0.087-0.124 0.174-0.255 0.28-0.367 0.243-0.261 0.448-0.28 0.716-0.050 0.653 0.572 1.313 1.132 1.941 1.73 0.467 0.448 1.014 0.411 1.568 0.324 0.317-0.050 0.622-0.187 0.971-0.299-0.124 0.261-0.268 0.516-0.367 0.784-0.162 0.467-0.373 0.933-0.429 1.412-0.137 1.201-0.193 2.408-0.292 3.609-0.068 0.821-0.168 1.636-0.249 2.458-0.031 0.317-0.068 0.635-0.075 0.952-0.025 0.896-0.33 1.736-0.485 2.607-0.062 0.355-0.019 0.722-0.062 1.083-0.056 0.404-0.143 0.803-0.249 1.201-0.062 0.249-0.199 0.479-0.274 0.722-0.149 0.492-0.523 0.772-0.915 1.045-0.796 0.554-1.593 1.095-2.259 1.817-0.286 0.311-0.641 0.554-0.964 0.828-0.205 0.174-0.411 0.342-0.604 0.529-0.317 0.305-0.784 0.199-1.132 0.417-0.137 0.087-0.299 0.137-0.454 0.187-0.149 0.050-0.305 0.131-0.454 0.131-1.182 0.006-2.371 0.006-3.553-0.012-0.199-0.006-0.423-0.1-0.585-0.218-0.28-0.205-0.516-0.479-0.79-0.697-0.641-0.504-1.294-0.989-1.947-1.475-0.566-0.423-1.12-0.877-1.717-1.251-0.523-0.33-0.684-0.896-0.983-1.363-0.205-0.317-0.199-0.79-0.224-1.201-0.075-1.263-0.305-2.495-0.635-3.721-0.112-0.417-0.131-0.859-0.243-1.269-0.212-0.747-0.274-1.5-0.255-2.265 0.012-0.691 0.012-1.381-0.031-2.072-0.037-0.635-0.087-1.276-0.212-1.904-0.162-0.684-0.392-1.35-0.579-2.035zM21.608 15.843c-0.019 0.012-0.044 0.019-0.062 0.031 0-0.156 0.019-0.311-0.006-0.46-0.012-0.075-0.093-0.174-0.168-0.199-0.056-0.019-0.143 0.075-0.218 0.1-0.112 0.037-0.268 0.124-0.336 0.081-0.081-0.050-0.131-0.23-0.106-0.33 0.087-0.324 0.087-0.622-0.156-0.927-0.050 0.187-0.068 0.355-0.143 0.498-0.131 0.243-0.268 0.498-0.46 0.691-0.081 0.081-0.305 0.012-0.492 0.012 0.031-0.149 0.056-0.243 0.068-0.33 0.037-0.411 0.075-0.821 0.093-1.232 0-0.062-0.093-0.131-0.143-0.193-0.044 0.062-0.112 0.124-0.118 0.187-0.044 0.317-0.081 0.635-0.112 0.952-0.037 0.367-0.274 0.61-0.566 0.765-0.143 0.075-0.361 0.012-0.554 0.012 0-0.622 0.006-1.232-0.006-1.842 0-0.1-0.087-0.199-0.131-0.299-0.050 0.1-0.131 0.199-0.137 0.305-0.012 0.361 0.031 0.728-0.012 1.089-0.031 0.243-0.106 0.579-0.274 0.672-0.268 0.156-0.628 0.168-0.958 0.205-0.224 0.031-0.485-0.18-0.467-0.361 0.050-0.479 0.124-0.952 0.18-1.425 0.012-0.1 0.037-0.224-0.006-0.299-0.044-0.081-0.162-0.149-0.255-0.162-0.044-0.006-0.156 0.137-0.149 0.212 0.019 0.548 0.062 1.101 0.075 1.649 0 0.075-0.093 0.224-0.143 0.224-0.417 0.019-0.852 0.187-1.257-0.112-0.106-0.56-0.137-1.145 0.068-1.73 0.031-0.093-0.025-0.218-0.044-0.324-0.044 0-0.081 0-0.124 0-0.212 0.591-0.205 1.22-0.218 1.842-0.249 0.025-0.467 0.044-0.672 0.062-0.398-0.485-0.492-1.052-0.492-1.655-0.062 0.056-0.118 0.118-0.112 0.174 0.025 0.498 0.068 0.996 0.093 1.499 0.006 0.075-0.025 0.205-0.062 0.212-0.124 0.025-0.516-0.33-0.554-0.467-0.081-0.286-0.168-0.572-0.249-0.859-0.031 0-0.056 0.006-0.087 0.006 0 0.23 0 0.46 0 0.691-0.006 0.218 0.031 0.454-0.031 0.66-0.050 0.168-0.703 0.199-0.815 0.037-0.118-0.174-0.193-0.386-0.292-0.579-0.019 0-0.031 0-0.050-0.006 0 0.18 0 0.361 0 0.548-0.075-0.093-0.093-0.205-0.137-0.299s-0.112-0.23-0.187-0.249c-0.1-0.019-0.274 0.031-0.317 0.112-0.224 0.361-0.479 0.728-0.38 1.201-0.156-0.056-0.268-0.062-0.236 0.156 0.012 0.075 0.006 0.162-0.012 0.236-0.156 0.697-0.324 1.394-0.467 2.097-0.056 0.255-0.143 0.541-0.087 0.778 0.218 0.921 0.46 1.835 0.747 2.731 0.143 0.448 0.38 0.877 0.628 1.282 0.143 0.224 0.398 0.373 0.604 0.56 0.031-0.019 0.062-0.037 0.1-0.056-0.093-0.311-0.1-0.585 0.137-0.846 0.193-0.218 0.311-0.51 0.46-0.772 0.037 0.006 0.075 0.006 0.112 0.012 0.031 0.118 0.087 0.236 0.1 0.355 0.075 0.61 0.137 1.226 0.218 1.835 0.025 0.187 0.124 0.361 0.348 0.292 0.187-0.056 0.274-0.187 0.23-0.429-0.1-0.504-0.143-1.020-0.205-1.531-0.025-0.224 0.131-0.336 0.311-0.355 0.305-0.031 0.616-0.006 0.989-0.006 0.037 0.498 0.068 1.058 0.131 1.618 0.025 0.224 0.112 0.448 0.174 0.672 0.050-0.006 0.1-0.012 0.143-0.012 0.031-0.143 0.087-0.286 0.081-0.429-0.025-0.566-0.075-1.132-0.1-1.699-0.012-0.342 0.162-0.51 0.498-0.51 0.199 0 0.398-0.012 0.591 0.012 0.093 0.012 0.224 0.075 0.255 0.149 0.106 0.305 0.23 0.622 0.255 0.946 0.025 0.373-0.062 0.753-0.068 1.132 0 0.118 0.106 0.236 0.162 0.355 0.087-0.068 0.23-0.124 0.249-0.205 0.050-0.212 0.056-0.442 0.062-0.666 0.012-0.454 0.006-0.908 0.012-1.363 0.006-0.355 0.112-0.454 0.454-0.448 0.249 0.006 0.498 0.006 0.747 0.006 0.274 0 0.467 0.025 0.535 0.392 0.037 0.218-0.037 0.305-0.087 0.467-0.168 0.535-0.268 1.089-0.398 1.636 0.162 0.056 0.299 0.106 0.485 0.168 0.087-0.585 0.168-1.139 0.255-1.692 0.031-0.212 0.075-0.423 0.143-0.628 0.025-0.068 0.124-0.143 0.199-0.156 0.417-0.062 0.809 0.286 0.803 0.703 0 0.106-0.012 0.205-0.012 0.311 0 0.436 0 0.871 0 1.394 0.106-0.193 0.212-0.317 0.236-0.454 0.068-0.373 0.1-0.753 0.156-1.132 0.019-0.143 0.056-0.286 0.087-0.436 0.044 0 0.087 0 0.131 0 0.112 0.404 0.355 0.759 0.361 1.207 0 0.124 0.1 0.28 0.205 0.355 0.056 0.037 0.286-0.050 0.317-0.131 0.218-0.523 0.429-1.045 0.585-1.587 0.162-0.566 0.243-1.164 0.392-1.736 0.087-0.33 0.28-0.635 0.361-0.971 0.162-0.666 0.28-1.338 0.411-2.016 0.012-0.050-0.025-0.118-0.050-0.168-0.081-0.168-0.187-0.33-0.236-0.51-0.137-0.442-0.255-0.89-0.38-1.332-0.112 0.243-0.156 0.492-0.249 0.716-0.031 0.081-0.187 0.168-0.274 0.162-0.068-0.006-0.131-0.149-0.156-0.193 0.187-0.112 0.38-0.162 0.436-0.28 0.025-0.081-0.131-0.249-0.199-0.38zM15.392 4.351c-0.404 0.286-0.765 0.492-0.946 0.952-0.299 0.747-0.541 1.5-0.66 2.296-0.037 0.261 0.093 0.485 0.355 0.516 0.18 0.019 0.367 0.006 0.548 0.031 0.373 0.056 0.604-0.218 0.859-0.398 0.068-0.050 0.087-0.205 0.087-0.311 0.012-0.33-0.012-0.666 0.006-0.996 0.025-0.311 0.087-0.616 0.137-0.921 0.031 0.006 0.056 0.006 0.087 0.012 0.068 0.678 0.149 1.356 0.205 2.041 0.037 0.417 0.205 0.56 0.61 0.504 0.162-0.025 0.33 0.006 0.492 0.025 0.28 0.037 0.442-0.075 0.529-0.342 0.137-0.442 0.025-0.859-0.131-1.257-0.156-0.392-0.361-0.765-0.548-1.151-0.112-0.23-0.205-0.473-0.33-0.697-0.050-0.087-0.168-0.143-0.218-0.18-0.044 0.168-0.081 0.299-0.118 0.429-0.156-0.075-0.317-0.156-0.473-0.23-0.317-0.050-0.324 0.187-0.28 0.448-0.404-0.131-0.479-0.348-0.212-0.772zM19.641 4.301c-0.012 0.38 0.044 0.728 0.299 1.020 0.106 0.124 0.218 0.243 0.311 0.38 0.38 0.566 0.89 0.884 1.587 0.933 0.796 0.056 1.269-0.442 1.724-0.958 0.162-0.18 0.174-0.423 0.025-0.666-0.143-0.224-0.218-0.498-0.38-0.703-0.149-0.193-0.348-0.398-0.566-0.467-0.529-0.168-1.083-0.243-1.618-0.38-0.193-0.050-0.38-0.149-0.566-0.236-0.367-0.18-0.591-0.087-0.691 0.317-0.062 0.255-0.081 0.51-0.124 0.759zM9.475 7.064c0.404-0.062 0.722-0.068 1.008-0.162 0.249-0.081 0.473-0.249 0.691-0.398 0.411-0.286 0.722-0.666 0.884-1.145 0.143-0.429 0.056-0.815-0.168-1.213-0.137-0.243-0.274-0.305-0.516-0.249-0.516 0.118-0.983 0.398-1.537 0.411-0.28 0.006-0.566 0.143-0.834 0.261-0.386 0.168-0.628 0.492-0.821 0.852-0.286 0.535-0.025 1.244 0.473 1.406 0.292 0.093 0.591 0.168 0.821 0.236z"></path>
</svg>
