<!-- Generated by IcoMoon.io -->
<svg version="1.1" xmlns="http://www.w3.org/2000/svg" width="32" height="32" viewBox="0 0 32 32">
<title>fighters-mount</title>
<path d="M18.671 2.141c0.068 0 0.136 0 0.203 0 0.054 0.011 0.107 0.028 0.161 0.034 0.253 0.027 0.506 0.047 0.758 0.076 0.21 0.024 0.246 0.083 0.233 0.288-0.008 0.133 0.004 0.268 0.020 0.402 0.017 0.151 0.062 0.299 0.071 0.45 0.042 0.75 0.079 1.5 0.112 2.251 0.017 0.39 0.143 0.496 0.532 0.453 0.263-0.028 0.53-0.044 0.794-0.048 0.349-0.007 0.7 0.018 1.048 0.001 0.829-0.041 1.656-0.1 2.485-0.151 0.123-0.007 0.247-0.001 0.288 0.145 0.044 0.16-0.051 0.349-0.192 0.402-0.201 0.076-0.404 0.143-0.602 0.227-0.065 0.028-0.112 0.096-0.168 0.145 0.054 0.044 0.1 0.103 0.161 0.13 0.268 0.117 0.551 0.206 0.809 0.342 0.274 0.144 0.551 0.213 0.859 0.203 0.442-0.013 0.88 0.014 1.305 0.154 0.112 0.037 0.223 0.058 0.203 0.216-0.020 0.157-0.096 0.236-0.26 0.256-0.184 0.023-0.364 0.068-0.542 0.121-0.185 0.056-0.219 0.236-0.065 0.359 0.117 0.093 0.251 0.177 0.391 0.229 0.306 0.114 0.617 0.22 0.932 0.301 0.151 0.040 0.33 0.054 0.477 0.011 0.275-0.081 0.513-0.023 0.744 0.112 0.201 0.116 0.219 0.179 0.15 0.404-0.075 0.24-0.025 0.297 0.229 0.316 0.292 0.023 0.582 0.059 0.873 0.097 0.047 0.006 0.116 0.049 0.124 0.088 0.064 0.28 0.144 0.559 0.161 0.843 0.020 0.323 0.011 0.343 0.335 0.357 0.328 0.013 0.569 0.281 0.545 0.609-0.016 0.229-0.018 0.46-0.056 0.685-0.034 0.203-0.001 0.391 0.062 0.579 0.134 0.402 0.164 0.816 0.143 1.236-0.016 0.309-0.032 0.617-0.056 0.926-0.030 0.376-0.042 0.754-0.109 1.124-0.049 0.273-0.192 0.528-0.264 0.799-0.226 0.85-0.668 1.562-1.281 2.192-0.703 0.723-1.538 1.226-2.481 1.534-0.754 0.247-1.534 0.417-2.305 0.61-0.775 0.195-1.565 0.201-2.355 0.161-0.148-0.007-0.226-0.076-0.251-0.222-0.032-0.198 0.049-0.326 0.267-0.38 0.681-0.169 1.336-0.407 1.974-0.698 0.544-0.247 1.106-0.455 1.648-0.706 1.058-0.493 1.926-1.193 2.302-2.345 0.15-0.456 0.234-0.94 0.288-1.419 0.041-0.366 0.045-0.755-0.038-1.111-0.148-0.626-0.254-1.279-0.678-1.805-0.116-0.143-0.23-0.288-0.363-0.414-0.243-0.229-0.575-0.247-0.874-0.342-0.661-0.208-1.326-0.157-1.988 0.006-0.136 0.034-0.222 0.129-0.212 0.27 0.023 0.325 0.040 0.652 0.093 0.974 0.056 0.345 0.182 0.678 0.223 1.022 0.065 0.544 0.311 0.996 0.626 1.422 0.178 0.241 0.433 0.412 0.709 0.463 0.339 0.064 0.669 0.13 0.997 0.243 0.46 0.158 0.657 0.575 0.424 0.998-0.415 0.754-1.148 1.142-1.836 1.582-0.004 0.003-0.010 0.004-0.016 0.006-0.215 0.068-0.353 0.023-0.48-0.164-0.28-0.408-0.654-0.698-1.11-0.883-0.261-0.106-0.524-0.208-0.788-0.308-0.688-0.261-1.358-0.551-1.939-1.018-0.188-0.151-0.397-0.278-0.604-0.401-0.558-0.329-1.015-0.77-1.418-1.268-0.11-0.137-0.178-0.312-0.241-0.48-0.041-0.106-0.089-0.162-0.203-0.155-0.073 0.004-0.147-0.003-0.22 0.007-0.168 0.023-0.212 0.102-0.145 0.256 0.236 0.549 0.572 1.027 1.045 1.395 0.432 0.336 0.875 0.658 1.316 0.983 0.229 0.168 0.226 0.291-0.006 0.448-0.072 0.048-0.141 0.117-0.181 0.193-0.11 0.209-0.058 0.508 0.1 0.685 0.061 0.068 0.121 0.134 0.178 0.203 0.191 0.23 0.175 0.489-0.037 0.693-0.299 0.289-0.59 0.589-0.899 0.867-0.541 0.489-0.962 1.077-1.405 1.646-0.042 0.055-0.086 0.13-0.086 0.195-0.001 0.265-0.151 0.418-0.356 0.555-0.102 0.068-0.189 0.175-0.246 0.284-0.083 0.16-0.030 0.233 0.15 0.236 0.638 0.011 1.276 0.027 1.915 0.025 0.666 0 1.332-0.011 1.998-0.025 0.633-0.013 1.264-0.038 1.896-0.054 0.126-0.003 0.199-0.038 0.202-0.184 0.006-0.256-0.001-0.271-0.267-0.273-0.040 0-0.081 0-0.119-0.008-0.127-0.028-0.193-0.105-0.192-0.24 0.003-0.128 0.031-0.237 0.181-0.264 0.25-0.045 0.498-0.1 0.75-0.128 0.105-0.011 0.234 0.010 0.321 0.066 0.239 0.158 0.441 0.124 0.647-0.051 0.237-0.201 0.508-0.323 0.816-0.386 0.298-0.061 0.592-0.144 0.88-0.24 0.347-0.114 0.689-0.25 1.031-0.381 0.251-0.097 0.27-0.092 0.361 0.167 0.028 0.079 0.048 0.164 0.082 0.24 0.083 0.182 0.042 0.316-0.121 0.436-0.177 0.13-0.354 0.267-0.501 0.429-0.121 0.134-0.223 0.298-0.292 0.466-0.081 0.196-0.017 0.271 0.192 0.285 0.090 0.006 0.181 0.004 0.271 0.003 0.661-0.010 1.32-0.021 1.981-0.028 0.195-0.001 0.39 0.008 0.585 0.020 0.040 0.003 0.107 0.032 0.11 0.056 0.016 0.137 0.056 0.289 0.011 0.408-0.055 0.147-0.167 0.287-0.285 0.394-0.401 0.363-0.791 0.746-1.231 1.056-1.358 0.962-2.734 1.903-4.241 2.625-0.482 0.23-0.981 0.425-1.484 0.606-0.391 0.141-0.806 0.216-1.199 0.356-1.443 0.514-2.937 0.794-4.454 0.969-0.251 0.030-0.508 0.008-0.761 0.028-0.472 0.037-0.942 0.088-1.412 0.127-0.213 0.018-0.426 0.024-0.64 0.034-0.316 0-0.633 0-0.949 0-0.044-0.008-0.086-0.021-0.131-0.027-0.47-0.064-0.94-0.121-1.409-0.189-1.226-0.177-2.41-0.518-3.598-0.864-1.703-0.496-3.313-1.18-4.787-2.172-0.501-0.337-0.979-0.707-1.476-1.049-0.674-0.463-1.243-1.045-1.843-1.593-0.016-0.014-0.027-0.034-0.044-0.056 0.467-0.177 0.94-0.263 1.43-0.212 0.184 0.018 0.299-0.049 0.387-0.192-0.065-0.155-0.188-0.208-0.34-0.21-0.136-0.003-0.273 0.001-0.405-0.018-0.097-0.014-0.189-0.064-0.315-0.109 0.085-0.079 0.128-0.134 0.184-0.169 0.288-0.178 0.571-0.37 0.874-0.515 0.176-0.086 0.391-0.127 0.587-0.128 0.121 0 0.301 0.083 0.353 0.182 0.143 0.268 0.321 0.299 0.569 0.186 0.035-0.016 0.078-0.016 0.116-0.021 0.147-0.025 0.25-0.105 0.288-0.251 0.059-0.223 0.124-0.445 0.164-0.671 0.038-0.212 0.103-0.4 0.256-0.559 0.635-0.666 1.22-1.365 1.706-2.158 0.571-0.931 1.237-1.8 1.839-2.713 0.205-0.312 0.345-0.668 0.5-1.011 0.065-0.143-0.001-0.246-0.161-0.267s-0.326-0.020-0.49-0.018c-0.332 0.001-0.441-0.093-0.494-0.422-0.062-0.378 0.058-0.712 0.229-1.038 0.129-0.243 0.095-0.405-0.081-0.618-0.059-0.071-0.096-0.178-0.103-0.271-0.017-0.225-0.085-0.275-0.297-0.182-0.062 0.027-0.117 0.068-0.175 0.103-0.65 0.397-1.293 0.805-1.952 1.189-0.404 0.236-0.826 0.441-1.24 0.655-0.11 0.058-0.16 0.143-0.181 0.265-0.011 0.065-0.072 0.157-0.124 0.168-0.064 0.013-0.172-0.027-0.209-0.081-0.090-0.134-0.176-0.281-0.219-0.435-0.121-0.441-0.352-0.829-0.563-1.227-0.138-0.26-0.265-0.298-0.544-0.186-0.367 0.148-0.669 0.395-0.895 0.722-0.102 0.145-0.223 0.215-0.387 0.16-0.201-0.066-0.394-0.155-0.64-0.254 0.28-0.148 0.291-0.371 0.26-0.621 0.291 0.085 0.525 0.028 0.681-0.22 0.121-0.192 0.26-0.326 0.508-0.336 0.165-0.006 0.208-0.123 0.131-0.265-0.136-0.251-0.383-0.39-0.643-0.347-0.439 0.072-0.594 0.152-0.604 0.498-0.003 0.095-0.059 0.114-0.138 0.082-0.047-0.018-0.092-0.044-0.138-0.062-0.217-0.083-0.369 0.003-0.407 0.23-0.008 0.049 0.001 0.114-0.027 0.147-0.040 0.048-0.123 0.116-0.158 0.102-0.143-0.058-0.309-0.114-0.401-0.226-0.137-0.167-0.233-0.371-0.322-0.572-0.11-0.25-0.071-0.487 0.085-0.72 0.193-0.291 0.359-0.6 0.542-0.897 0.097-0.158 0.191-0.325 0.315-0.459 0.322-0.347 0.6-0.703 0.808-1.147 0.254-0.541 0.531-1.068 0.729-1.634 0.021-0.061 0.059-0.116 0.089-0.171 0.193 0.041 0.144 0.185 0.169 0.299 0.020 0.085 0.051 0.202 0.114 0.236 0.109 0.061 0.179-0.041 0.233-0.134 0.062-0.107 0.164-0.126 0.263-0.075 0.062 0.031 0.112 0.095 0.155 0.151 0.378 0.493 0.755 0.986 1.128 1.483 0.075 0.1 0.155 0.198 0.288 0.171 0.226-0.047 0.449-0.114 0.692-0.178-0.059-0.086-0.090-0.133-0.124-0.178-0.404-0.544-0.811-1.086-1.213-1.631-0.236-0.319-0.24-0.709-0.018-1.035 0.175-0.257 0.356-0.51 0.53-0.765 0.059-0.086 0.124-0.152 0.236-0.109 0.13 0.051 0.076 0.152 0.061 0.246-0.047 0.277-0.095 0.555-0.133 0.833-0.006 0.041 0.023 0.102 0.056 0.127 0.024 0.018 0.102 0.010 0.12-0.014 0.133-0.172 0.292-0.121 0.462-0.079 0.295 0.073 0.412 0.023 0.592-0.227 0.223-0.312 0.441-0.628 0.674-0.935 0.078-0.103 0.191-0.178 0.288-0.265 0.024 0.011 0.048 0.024 0.073 0.035-0.020 0.126-0.030 0.254-0.061 0.377-0.069 0.271-0.161 0.538-0.222 0.812-0.041 0.186 0.107 0.299 0.278 0.217 0.109-0.051 0.205-0.14 0.288-0.227 0.319-0.335 0.634-0.675 0.946-1.017 0.114-0.126 0.24-0.154 0.424-0.076-0.042 0.106-0.085 0.206-0.124 0.308-0.083 0.213-0.181 0.424-0.239 0.644-0.017 0.068 0.059 0.215 0.126 0.24 0.241 0.096 0.494 0.138 0.763 0.088 0.151-0.028 0.311-0.013 0.466-0.008 0.157 0.006 0.312 0.032 0.469 0.031 0.264-0.001 0.528-0.024 0.792-0.027 0.157-0.001 0.322 0.052 0.47 0.021 0.271-0.056 0.474 0.078 0.7 0.161-0.445 1.257-2.083 3.344-3.073 4.142-0.229 0.184-0.434 0.395-0.659 0.585-0.371 0.311-0.751 0.613-1.128 0.918-0.099 0.081-0.191 0.066-0.289-0.013-0.059-0.047-0.137-0.097-0.208-0.099-0.247-0.003-0.496 0.006-0.741 0.031-0.059 0.006-0.116 0.083-0.165 0.136-0.065 0.068-0.12 0.144-0.179 0.217-0.035-0.093-0.072-0.186-0.107-0.28-0.006-0.014 0-0.034 0.001-0.051 0.030-0.496 0.059-0.99 0.090-1.486 0.010-0.169-0.030-0.206-0.193-0.167-0.137 0.033-0.274 0.069-0.409 0.106-0.114 0.030-0.164 0.1-0.158 0.223 0.014 0.299 0.014 0.599 0.030 0.898 0.028 0.585 0.030 0.583-0.484 0.861-0.14 0.076-0.258 0.062-0.366-0.051-0.16-0.168-0.328-0.329-0.474-0.507-0.138-0.168-0.311-0.236-0.52-0.23-0.169 0.006-0.216 0.078-0.114 0.21 0.261 0.339 0.532 0.669 0.805 1 0.095 0.114 0.22 0.167 0.376 0.157 0.148-0.010 0.261 0.056 0.319 0.201 0.092 0.23 0.119 0.246 0.343 0.13 0.611-0.315 1.219-0.637 1.827-0.956 0.080-0.042 0.165-0.081 0.247-0.12-0.028 0.072-0.073 0.113-0.123 0.145-0.175 0.114-0.356 0.22-0.527 0.339-0.082 0.056-0.164 0.124-0.22 0.205-0.088 0.127-0.031 0.325 0.093 0.329 0.175 0.007 0.383 0.031 0.524-0.047 0.479-0.263 0.97-0.522 1.392-0.866 1.559-1.265 2.898-2.732 3.902-4.483 0.151-0.263 0.275-0.541 0.414-0.811 0.025-0.049 0.054-0.102 0.093-0.138 0.16-0.145 0.175-0.301 0.033-0.456-0.095-0.104-0.184-0.224-0.301-0.295-0.145-0.088-0.157-0.203-0.154-0.345 0.010-0.604 0.016-1.209 0.025-1.813 0.003-0.158-0.051-0.261-0.202-0.333-0.106-0.051-0.191-0.15-0.291-0.233 0.095-0.114 0.179-0.205 0.253-0.304 0.225-0.305 0.511-0.462 0.901-0.429 0.112 0.010 0.198 0.035 0.22 0.14 0.044 0.202 0.096 0.408 0.093 0.611-0.006 0.354-0.089 0.71-0.069 1.062 0.024 0.421 0.136 0.843 0.548 1.066 0.459 0.247 0.956 0.395 1.477 0.46 0.796 0.1 1.556-0.062 2.286-0.346 0.709-0.275 1.281-0.717 1.483-1.505 0.008-0.032 0.017-0.068 0.035-0.095 0.258-0.383 0.049-1.137-0.37-1.418-0.302-0.21-0.284-0.436 0.035-0.638zM13.235 16.317c0.037-0.254 0.085-0.482 0.097-0.71 0.007-0.121-0.006-0.273-0.073-0.364-0.201-0.273-0.432-0.521-0.651-0.778-0.014-0.017-0.031-0.034-0.049-0.045-0.12-0.075-0.251-0.093-0.363-0.003-0.121 0.099-0.037 0.206 0.028 0.298 0.143 0.203 0.291 0.402 0.439 0.602 0.192 0.26 0.196 0.589 0.051 0.84-0.23 0.4-0.441 0.809-0.65 1.22-0.13 0.256-0.22 0.532-0.361 0.781-0.367 0.65-0.787 1.264-1.282 1.823-0.059 0.066-0.134 0.117-0.201 0.178-0.145 0.131-0.321 0.241-0.426 0.398-0.203 0.302-0.371 0.628-0.544 0.95-0.096 0.179-0.189 0.223-0.363 0.114-0.062-0.040-0.103-0.113-0.158-0.165-0.045-0.044-0.096-0.106-0.148-0.112-0.099-0.010-0.203 0.006-0.302 0.027-0.131 0.028-0.23 0.114-0.244 0.25-0.051 0.465-0.289 0.863-0.453 1.286-0.049 0.127-0.186 0.236-0.308 0.313-0.097 0.062-0.134 0.136-0.095 0.216 0.024 0.048 0.121 0.083 0.188 0.085 0.134 0.003 0.268-0.032 0.402-0.034 0.97-0.011 1.942-0.013 2.912-0.027 1.405-0.020 2.811-0.045 4.216-0.068 0.083-0.001 0.182 0.018 0.182-0.112 0-0.12-0.062-0.192-0.185-0.195-0.090-0.003-0.189 0.028-0.268-0.001-0.092-0.034-0.174-0.109-0.246-0.181-0.021-0.021-0.010-0.121 0.016-0.136 0.179-0.103 0.356-0.241 0.551-0.277 0.446-0.081 0.892-0.186 1.356-0.157 0.179 0.011 0.349-0.081 0.439-0.244 0.195-0.356 0.493-0.496 0.884-0.463 0.133 0.011 0.205-0.055 0.254-0.175 0.083-0.203 0.171-0.405 0.27-0.6 0.38-0.748 0.754-1.501 1.155-2.24 0.193-0.356 0.263-0.717 0.261-1.117-0.001-0.319-0.090-0.541-0.357-0.727-0.342-0.239-0.506-0.593-0.45-1.014 0.038-0.289 0.113-0.575 0.171-0.863 0.008-0.040 0.010-0.082 0.014-0.114-0.152 0.027-0.288 0.065-0.426 0.071-0.353 0.016-0.71-0.016-1.059 0.028-0.599 0.076-1.176 0.253-1.738 0.474-0.188 0.075-0.376 0.151-0.558 0.239-0.613 0.289-1.216 0.599-1.926 0.727zM13.003 7.621c-0.018 0.006-0.037 0.013-0.055 0.018-0.008 0.093-0.017 0.185-0.024 0.278-0.011 0.155-0.013 0.313-0.033 0.467-0.024 0.195-0.082 0.387-0.092 0.583-0.020 0.388-0.024 0.778-0.023 1.166 0.001 0.208 0.021 0.415 0.041 0.623 0.028 0.287 0.088 0.57 0.090 0.857 0.014 0.993 0.246 1.957 0.378 2.934 0.018 0.133 0.093 0.215 0.232 0.227 0.136 0.013 0.23-0.040 0.273-0.174 0.007-0.021 0.016-0.042 0.025-0.062 0.158-0.352 0.477-0.438 0.788-0.212 0.086 0.064 0.172 0.129 0.26 0.191 0.213 0.152 0.45 0.225 0.712 0.236 0.425 0.018 0.827-0.064 1.224-0.212 0.199-0.075 0.408-0.131 0.617-0.164 0.424-0.066 0.85-0.109 1.275-0.164 0.247-0.031 0.288-0.073 0.234-0.315s-0.137-0.476-0.208-0.713c-0.148-0.497-0.322-0.993-0.243-1.524 0.073-0.501 0.144-1.005 0.251-1.501 0.095-0.434 0.244-0.856 0.357-1.286 0.031-0.117 0.062-0.265 0.016-0.363-0.119-0.251-0.28-0.482-0.422-0.716-0.449 0.206-0.48 0.267-0.522 0.713-0.062 0.633-0.055 1.275-0.291 1.882-0.041 0.104-0.051 0.219-0.078 0.329-0.186 0.778-0.308 1.572-0.619 2.317-0.048 0.116-0.1 0.152-0.217 0.076 0.027-0.073 0.052-0.147 0.079-0.219 0.33-0.891 0.518-1.822 0.699-2.749 0.099-0.513 0.127-1.039 0.182-1.56 0.007-0.066-0.018-0.137-0.030-0.205-0.069 0.013-0.144 0.013-0.206 0.038-0.354 0.145-0.698 0.319-1.059 0.443-0.863 0.295-1.699 0.205-2.498-0.234-0.148-0.082-0.244-0.049-0.26 0.124-0.025 0.265-0.017 0.534-0.033 0.801-0.040 0.702-0.028 1.398 0.171 2.079 0.133 0.455 0.27 0.907 0.401 1.361 0.011 0.038-0.010 0.086-0.017 0.13-0.049-0.018-0.104-0.030-0.144-0.061-0.027-0.021-0.031-0.071-0.044-0.109-0.102-0.311-0.23-0.616-0.297-0.933-0.185-0.887-0.359-1.778-0.504-2.672-0.059-0.361-0.124-0.737 0.013-1.104 0.014-0.040-0.004-0.106-0.031-0.144-0.119-0.165-0.247-0.322-0.371-0.48zM5.478 10.177c0.312 0.007 0.531-0.192 0.534-0.482 0.001-0.277-0.151-0.426-0.445-0.435-0.326-0.010-0.573 0.205-0.579 0.507-0.007 0.253 0.172 0.402 0.49 0.409zM2.893 9.839c0.306 0.001 0.594-0.306 0.583-0.565-0.004-0.107-0.003-0.215-0.021-0.319-0.011-0.065-0.045-0.161-0.092-0.175-0.061-0.020-0.169 0.003-0.21 0.049-0.203 0.233-0.395 0.477-0.579 0.726-0.024 0.033-0.004 0.145 0.028 0.165 0.104 0.059 0.224 0.093 0.291 0.119zM19.783 6.655c-0.027-0.065-0.055-0.134-0.083-0.202-0.072 0.042-0.168 0.068-0.212 0.13-0.182 0.257-0.35 0.524-0.517 0.791-0.034 0.054-0.058 0.127-0.054 0.189 0.004 0.058 0.040 0.144 0.083 0.161s0.138-0.016 0.172-0.058c0.179-0.23 0.353-0.466 0.515-0.71 0.051-0.079 0.059-0.186 0.095-0.301zM19.351 13.649c0.136-0.387 0.042-0.739-0.024-1.087-0.008-0.042-0.128-0.073-0.201-0.088-0.017-0.003-0.079 0.086-0.072 0.127 0.051 0.349 0.082 0.705 0.297 1.048z"></path>
<path d="M13.081 16.725c0.179 0.088 0.342 0.152 0.489 0.246 0.075 0.048 0.136 0.134 0.178 0.216 0.201 0.38 0.28 0.795 0.336 1.216 0.030 0.223 0.076 0.445 0.119 0.666 0.041 0.212-0.013 0.282-0.225 0.289-0.246 0.008-0.391 0.188-0.352 0.431 0.018 0.113 0.078 0.186 0.195 0.201 0.225 0.027 0.452 0.089 0.672 0.066 0.239-0.024 0.476-0.117 0.645-0.313 0.092-0.107 0.172-0.226 0.271-0.323 0.041-0.040 0.126-0.065 0.181-0.052 0.034 0.008 0.065 0.096 0.072 0.151 0.024 0.198-0.044 0.364-0.189 0.503-0.117 0.113-0.172 0.25-0.143 0.414 0.031 0.174 0.152 0.263 0.329 0.236 0.168-0.025 0.309-0.097 0.407-0.246 0.086-0.131 0.182-0.257 0.273-0.387 0.16 0.133 0.205 0.297 0.121 0.487-0.192 0.445-0.498 0.779-0.933 1.010-0.469 0.247-0.967 0.264-1.467 0.213-0.196-0.020-0.383-0.154-0.568-0.247-0.148-0.075-0.282-0.144-0.462-0.079-0.152 0.054-0.308-0.097-0.271-0.244 0.104-0.417 0.062-0.832-0.035-1.238-0.069-0.288-0.188-0.563-0.284-0.844-0.020-0.058-0.055-0.117-0.056-0.175-0.001-0.124-0.065-0.185-0.174-0.219-0.123-0.038-0.165-0.116-0.1-0.232 0.322-0.582 0.647-1.162 0.972-1.744z"></path>
</svg>
