<!-- Generated by IcoMoon.io -->
<svg version="1.1" xmlns="http://www.w3.org/2000/svg" width="32" height="32" viewBox="0 0 32 32">
<title>fighters-berserker</title>
<path d="M10.165 30.898c-0.049-0.027-0.103-0.046-0.145-0.081-0.166-0.136-0.351-0.186-0.563-0.154-0.226 0.034-0.354-0.137-0.497-0.264-0.024-0.021-0.013-0.095-0.003-0.141 0.080-0.349 0.068-0.701-0.081-1.020-0.263-0.56-0.321-1.167-0.468-1.754-0.129-0.511-0.344-1.013-0.688-1.436-0.039-0.047-0.081-0.095-0.133-0.127-0.25-0.158-0.489-0.324-0.665-0.574-0.048-0.068-0.172-0.098-0.267-0.116-0.158-0.031-0.324-0.025-0.482-0.057-0.11-0.022-0.225-0.067-0.317-0.13-0.14-0.094-0.256-0.095-0.375 0.021-0.008 0.008-0.015 0.017-0.025 0.022-0.166 0.105-0.333 0.208-0.497 0.312-0.26-0.127-0.537-0.229-0.702-0.492-0.039-0.061-0.074-0.124-0.105-0.19-0.085-0.183-0.179-0.356-0.365-0.463-0.046-0.027-0.085-0.074-0.113-0.122-0.337-0.581-0.615-1.179-0.488-1.882 0.015-0.081 0.029-0.175 0.078-0.235 0.421-0.504 0.599-1.097 0.681-1.737 0.073-0.57 0.232-1.135 0.245-1.705 0.015-0.699 0.176-1.371 0.253-2.057 0.007-0.067 0.015-0.134 0.015-0.2-0.001-0.827-0.017-1.653 0.001-2.48 0.007-0.319 0.089-0.636 0.134-0.954 0.025-0.182 0.061-0.363 0.064-0.545 0.011-0.511 0.082-1.012 0.232-1.501 0.092-0.303 0.24-0.576 0.454-0.812 0.342-0.374 0.653-0.788 1.033-1.118 0.714-0.62 1.54-1.062 2.445-1.354 0.246-0.080 0.472-0.219 0.71-0.327 0.207-0.094 0.415-0.182 0.625-0.27 0.082-0.035 0.172-0.052 0.25-0.094 0.524-0.281 1.096-0.411 1.671-0.518 0.127-0.024 0.271-0.017 0.397 0.014 0.475 0.12 0.953 0.233 1.417 0.391 0.639 0.217 1.238 0.511 1.826 0.855 0.632 0.369 1.142 0.871 1.705 1.312 0.198 0.155 0.341 0.394 0.481 0.612 0.165 0.258 0.288 0.542 0.45 0.803 0.411 0.665 0.722 1.371 0.932 2.124 0.015 0.053 0.018 0.12 0.052 0.158 0.334 0.38 0.331 0.868 0.411 1.323 0.228 1.3 0.147 2.594-0.115 3.879-0.007 0.032-0.013 0.066-0.017 0.099-0.046 0.303-0.045 0.305 0.264 0.313 0.045 0.172 0.082 0.351 0.138 0.524 0.286 0.886 0.419 1.803 0.572 2.716 0.028 0.172 0.105 0.341 0.184 0.497 0.145 0.282 0.186 0.563 0.089 0.872-0.101 0.324-0.233 0.622-0.47 0.876-0.282 0.302-0.551 0.616-0.813 0.936-0.078 0.095-0.137 0.219-0.166 0.338-0.052 0.212-0.173 0.33-0.384 0.363-0.426 0.068-0.836 0.085-1.221-0.184-0.232-0.163-0.495-0.092-0.727 0.050-0.348 0.214-0.588 0.524-0.787 0.875-0.131 0.232-0.215 0.468-0.212 0.743 0.007 0.556-0.078 1.098-0.284 1.624-0.053 0.137-0.035 0.306-0.032 0.461 0.001 0.105-0.025 0.158-0.136 0.159-0.164 0.001-0.24 0.106-0.27 0.249-0.027 0.131-0.039 0.265-0.057 0.398-0.032 0.242-0.165 0.425-0.347 0.574-0.228 0.186-0.606 0.070-0.745-0.221-0.039-0.081-0.089-0.158-0.129-0.228-0.236 0.225-0.463 0.425-0.668 0.643-0.106 0.112-0.205 0.124-0.326 0.059-0.245-0.134-0.409-0.32-0.415-0.62-0.004-0.274-0.013-0.548-0.039-0.82-0.008-0.082-0.059-0.187-0.123-0.233-0.14-0.099-0.246-0.034-0.246 0.138 0 0.134 0.018 0.268 0.013 0.401-0.004 0.092-0.010 0.203-0.060 0.27-0.168 0.221-0.217 0.474-0.25 0.735-0.031 0.236-0.084 0.254-0.324 0.232-0.225-0.021-0.362-0.155-0.502-0.302-0.085-0.089-0.162-0.187-0.258-0.261-0.047-0.036-0.143-0.052-0.193-0.028-0.052 0.025-0.088 0.105-0.106 0.169-0.014 0.049 0.004 0.11 0.015 0.165 0.059 0.306 0.029 0.366-0.243 0.5-0.062-0.001-0.129-0.001-0.196-0.001zM18.447 22.741c0.17-0.127 0.218-0.25 0.173-0.408-0.024-0.085-0.036-0.175-0.059-0.261-0.137-0.521-0.275-1.042-0.415-1.564-0.095-0.352-0.662-0.729-1.008-0.672-0.725 0.12-1.312 0.509-1.861 0.964-0.096 0.080-0.168 0.194-0.235 0.303-0.243 0.401-0.471 0.81-0.721 1.206-0.070 0.11-0.187 0.21-0.305 0.265-0.137 0.066-0.186 0.144-0.161 0.286 0.032 0.18 0.105 0.254 0.274 0.252 0.398-0.004 0.788-0.046 1.16-0.21 0.411-0.179 0.838-0.305 1.29-0.33 0.043-0.003 0.092-0.011 0.126-0.036 0.32-0.226 0.688-0.338 1.055-0.453 0.337-0.105 0.355-0.099 0.493 0.236 0.057 0.138 0.123 0.27 0.193 0.421zM5.949 21.446c0.020 0.175-0.022 0.381 0.155 0.475 0.176 0.092 0.312 0.341 0.574 0.198 0.018-0.010 0.059 0.027 0.091 0.032 0.096 0.020 0.193 0.050 0.289 0.050 0.347-0.001 0.694-0.042 1.037-0.014 0.256 0.021 0.513 0.102 0.755 0.194 0.333 0.127 0.648 0.296 0.975 0.437 0.071 0.031 0.166 0.034 0.245 0.021 0.286-0.046 0.334-0.166 0.148-0.387-0.326-0.386-0.609-0.806-1.012-1.129-0.338-0.271-0.641-0.585-0.967-0.873-0.064-0.056-0.156-0.085-0.239-0.115-0.32-0.112-0.644-0.211-0.961-0.331-0.249-0.095-0.271-0.092-0.418 0.13-0.116 0.176-0.247 0.341-0.369 0.514-0.078 0.11-0.173 0.217-0.219 0.341-0.050 0.141-0.057 0.302-0.084 0.456zM11.435 26.675c0.239-0.138 0.472-0.268 0.699-0.408 0.099-0.061 0.18-0.060 0.277-0.001 0.184 0.115 0.379 0.215 0.562 0.331 0.092 0.059 0.169 0.141 0.256 0.208 0.041 0.031 0.098 0.078 0.133 0.068 0.039-0.011 0.087-0.081 0.085-0.124-0.007-0.163-0.017-0.331-0.056-0.489-0.041-0.161-0.152-0.309-0.169-0.47-0.052-0.507-0.225-0.963-0.461-1.41-0.12-0.225-0.147-0.5-0.217-0.752-0.063-0.224-0.225-0.303-0.436-0.219-0.258 0.103-0.488 0.58-0.435 0.852 0.041 0.205 0.091 0.428 0.053 0.626-0.085 0.47-0.211 0.933-0.342 1.393-0.039 0.14-0.045 0.247 0.052 0.394zM11.171 29.626c0.067 0.115 0.124 0.224 0.196 0.324 0.027 0.038 0.082 0.053 0.124 0.080 0.024-0.046 0.074-0.099 0.064-0.14-0.025-0.112-0.064-0.222-0.12-0.323-0.028-0.052-0.101-0.078-0.152-0.116-0.031 0.052-0.063 0.102-0.112 0.175zM9.735 30.002c-0.056-0.057-0.11-0.115-0.166-0.173-0.056 0.088-0.131 0.17-0.161 0.265-0.025 0.081 0.013 0.172 0.131 0.165 0.147-0.007 0.15-0.122 0.196-0.257zM14.899 29.771c0.074-0.084 0.14-0.158 0.211-0.238-0.074-0.067-0.084-0.226-0.233-0.137-0.106 0.061-0.096 0.229 0.022 0.375z"></path>
<path d="M-0.030 13.861c0.145-0.116 0.286-0.154 0.472-0.053 0.324 0.176 0.637-0.018 0.702-0.408 0.063-0.382 0.008-0.756-0.050-1.132-0.101-0.651-0.204-1.302-0.279-1.956-0.067-0.588 0.008-1.17 0.163-1.741 0.127-0.468 0.232-0.939 0.453-1.381 0.254-0.51 0.548-0.98 0.98-1.362 0.422-0.373 0.809-0.787 1.237-1.154 0.204-0.175 0.463-0.285 0.7-0.421 0.493-0.284 0.985-0.57 1.483-0.845 0.531-0.295 1.077-0.563 1.597-0.878 0.302-0.183 0.565-0.432 0.844-0.654 0.148-0.117 0.288-0.246 0.439-0.361 0.080-0.060 0.162-0.063 0.221 0.048 0.081 0.15 0.154 0.162 0.282 0.048 0.15-0.134 0.291-0.278 0.439-0.414 0.176-0.161 0.328-0.116 0.382 0.122 0.055 0.243-0.010 0.467-0.175 0.654-0.066 0.074-0.147 0.137-0.226 0.197-0.335 0.25-0.682 0.488-1.008 0.75-0.246 0.2-0.467 0.43-0.696 0.65-0.12 0.116-0.256 0.225-0.348 0.361-0.275 0.402-0.574 0.796-0.428 1.346 0.073 0.272 0.082 0.56 0.123 0.862 0.163-0.071 0.341-0.148 0.537-0.233 0 0.048 0.010 0.080-0.001 0.096-0.17 0.238-0.345 0.47-0.661 0.524-0.043 0.007-0.085 0.024-0.127 0.042-1.248 0.545-2.125 1.449-2.662 2.698-0.305 0.707-0.57 1.425-0.822 2.155-0.307 0.89-0.381 1.796-0.408 2.718-0.008 0.302-0.041 0.602-0.038 0.904 0.006 0.535 0.021 1.070 0.049 1.606 0.025 0.503 0.074 1.006-0.113 1.491-0.047 0.124-0.103 0.247-0.172 0.362-0.080 0.133-0.159 0.131-0.264 0.021-0.141-0.15-0.292-0.291-0.432-0.442-0.080-0.085-0.158-0.175-0.218-0.274-0.271-0.457-0.513-0.928-0.634-1.452-0.010-0.043-0.020-0.089-0.041-0.127-0.387-0.685-0.777-1.368-1.165-2.051-0.042-0.074-0.089-0.144-0.133-0.214 0-0.034 0-0.067 0-0.101z"></path>
<path d="M9.805 5.432c0.136-0.177 0.257-0.277 0.436-0.316 0.074-0.015 0.154-0.109 0.18-0.184 0.013-0.035-0.095-0.117-0.156-0.169-0.050-0.041-0.112-0.066-0.203-0.116 0.085-0.075 0.141-0.147 0.215-0.183 0.289-0.144 0.581-0.285 0.879-0.412 0.749-0.317 1.488-0.668 2.258-0.929 0.96-0.326 1.941-0.615 2.958-0.703 0.542-0.046 1.094-0.015 1.638 0.024 0.539 0.039 1.075 0.134 1.611 0.204 0.432 0.057 0.84-0.036 1.246-0.176 0.773-0.267 1.546-0.545 2.334-0.762 0.692-0.19 1.4-0.211 2.092 0.063 0.133 0.053 0.281 0.073 0.423 0.095 0.275 0.042 0.436 0.212 0.525 0.458 0.071 0.197-0.056 0.365-0.261 0.326-0.499-0.098-0.991-0.032-1.483 0.031-0.18 0.022-0.352 0.102-0.528 0.152-0.159 0.045-0.321 0.084-0.481 0.127-0.235 0.066-0.472 0.123-0.7 0.204-0.151 0.054-0.286 0.148-0.433 0.219-0.644 0.312-0.855 0.887-0.892 1.538-0.022 0.393 0.228 0.665 0.555 0.857 0.312 0.182 0.658 0.249 1.012 0.26 0.352 0.010 0.707 0.020 1.055-0.015 0.279-0.028 0.552-0.129 0.829-0.191 0.799-0.182 1.597-0.375 2.401-0.535 0.513-0.103 1.040-0.217 1.562-0.115 0.496 0.096 0.981 0.256 1.47 0.388 0.021 0.006 0.046 0.011 0.060 0.027 0.263 0.291 0.63 0.367 0.98 0.479 0.281 0.089 0.496 0.249 0.613 0.527 0.073 0.173 0.008 0.312-0.176 0.33-0.243 0.024-0.49 0.041-0.735 0.032-0.683-0.024-1.367-0.011-2.030 0.161-0.274 0.071-0.532 0.222-0.783 0.362s-0.478 0.327-0.785 0.34c-0.055 0.003-0.117 0.042-0.161 0.081-0.468 0.423-0.942 0.84-1.393 1.28-0.243 0.236-0.393 0.532-0.525 0.858-0.274 0.671-0.348 1.393-0.613 2.064-0.254 0.641-0.683 1.144-1.153 1.627-0.279 0.288-0.598 0.562-0.791 0.903-0.226 0.398-0.415 0.858-0.147 1.333 0.12 0.214 0.25 0.422 0.383 0.627 0.035 0.055 0.091 0.11 0.148 0.131 0.395 0.143 0.784 0.259 1.207 0.047 0.203-0.101 0.45-0.127 0.681-0.15 0.387-0.036 0.778-0.071 1.164-0.053 0.271 0.013 0.5 0.162 0.657 0.412 0.071 0.113 0.207 0.186 0.291 0.293 0.055 0.071 0.122 0.207 0.091 0.256-0.055 0.087-0.172 0.147-0.275 0.182-0.091 0.031-0.21-0.015-0.296 0.018-0.21 0.084-0.419 0.148-0.647 0.158-0.060 0.003-0.129 0.046-0.176 0.091-0.704 0.651-1.502 1.199-2.107 1.956-0.496 0.62-0.826 1.339-1.205 2.028-0.087 0.158-0.147 0.176-0.265 0.043-0.047-0.053-0.087-0.117-0.113-0.184-0.196-0.492-0.398-0.981-0.578-1.478-0.224-0.613-0.409-1.239-0.646-1.847-0.221-0.566-0.264-1.129-0.15-1.724 0.066-0.347 0.053-0.708 0.074-1.063 0.010-0.162 0.004-0.324 0.020-0.485 0.075-0.802-0.12-1.562-0.338-2.322-0.155-0.541-0.284-1.090-0.444-1.631-0.092-0.309-0.224-0.605-0.334-0.91-0.028-0.077-0.056-0.162-0.050-0.242 0.015-0.214-0.061-0.39-0.18-0.56-0.126-0.183-0.226-0.384-0.362-0.559-0.138-0.179-0.282-0.367-0.465-0.492-0.224-0.151-0.4-0.328-0.506-0.565-0.239-0.532-0.639-0.903-1.13-1.198-0.504-0.302-0.985-0.636-1.381-1.080-0.152-0.17-0.361-0.226-0.583-0.26-0.567-0.087-1.132-0.194-1.698-0.286-0.14-0.022-0.284-0.018-0.425-0.020-0.261-0.003-0.528 0.029-0.784-0.008-0.415-0.060-0.812 0.025-1.213 0.092-0.351 0.059-0.697 0.137-1.047 0.205-0.062 0.014-0.12 0.020-0.219 0.035zM21.266 13.285c-0.014-0.075-0.027-0.18-0.057-0.279-0.011-0.035-0.073-0.055-0.11-0.081-0.024 0.036-0.070 0.074-0.068 0.11 0.004 0.131 0.020 0.264 0.042 0.394 0.006 0.035 0.052 0.062 0.080 0.092 0.034-0.031 0.074-0.057 0.096-0.095 0.015-0.029 0.010-0.074 0.018-0.141zM20.704 3.566c-0.095-0.064-0.141-0.12-0.196-0.129-0.116-0.017-0.235 0.094-0.207 0.203 0.018 0.073 0.101 0.13 0.154 0.194 0.071-0.078 0.144-0.156 0.249-0.268z"></path>
</svg>
