<!-- Generated by IcoMoon.io -->
<svg version="1.1" xmlns="http://www.w3.org/2000/svg" width="32" height="32" viewBox="0 0 32 32">
<title>fighters-elite</title>
<path d="M16.621 0c0.148 0.085 0.174 0.227 0.195 0.381 0.046 0.35 0.097 0.701 0.157 1.050 0.019 0.107 0.085 0.207 0.115 0.314 0.044 0.153 0.074 0.311 0.115 0.464 0.030 0.106 0.047 0.228 0.111 0.31 0.118 0.149 0.168 0.31 0.166 0.491-0.001 0.164 0.074 0.29 0.149 0.43 0.097 0.179 0.137 0.388 0.209 0.581 0.046 0.122 0.101 0.243 0.161 0.36 0.142 0.277 0.336 0.537 0.428 0.83 0.321 1.013 0.812 1.932 1.436 2.785 0.021 0.031 0.043 0.062 0.063 0.093 0.005 0.008 0.003 0.020 0.009 0.072-0.416 0.034-0.831 0.082-1.247 0.099-0.419 0.017-0.839 0.004-1.263 0.004 0 0.216 0.118 0.275 0.264 0.305 0.319 0.066 0.648 0.103 0.957 0.203 0.448 0.144 0.907 0.285 1.314 0.513 0.482 0.271 0.928 0.613 1.361 0.961 0.329 0.264 0.612 0.584 0.915 0.879 0.023 0.023 0.047 0.046 0.063 0.072 0.263 0.466 0.666 0.826 0.96 1.274 0.349 0.534 0.626 1.082 0.775 1.699 0.076 0.319 0.083 0.318 0.399 0.22 0.341-0.105 0.366-0.132 0.375-0.495 0.012-0.521 0.012-1.042 0.030-1.562 0.003-0.093 0.062-0.184 0.095-0.275 0.095 0.050 0.201 0.086 0.285 0.152 0.215 0.165 0.399 0.385 0.634 0.509 0.777 0.408 1.568 0.789 2.361 1.166 0.228 0.109 0.479 0.177 0.724 0.246 0.215 0.060 0.417 0.129 0.573 0.302 0.048 0.054 0.117 0.098 0.184 0.126 0.31 0.128 0.626 0.246 0.937 0.372 0.427 0.173 0.854 0.348 1.278 0.526 0.122 0.051 0.102 0.145 0.011 0.192-0.298 0.153-0.603 0.293-0.909 0.43-0.145 0.064-0.321 0.082-0.444 0.173-0.399 0.293-0.848 0.478-1.298 0.667-0.306 0.129-0.608 0.258-0.851 0.506-0.11 0.113-0.294 0.149-0.434 0.238-0.399 0.251-0.791 0.51-1.187 0.766-0.036 0.023-0.071 0.052-0.11 0.066-0.544 0.181-0.98 0.548-1.458 0.843-0.056 0.035-0.123 0.052-0.185 0.076-0.016-0.064-0.047-0.13-0.047-0.195 0.005-0.562 0.013-1.125 0.026-1.687 0.005-0.238-0.015-0.267-0.254-0.285-0.129-0.009-0.258-0.013-0.387-0.020-0.125-0.007-0.201 0.046-0.192 0.177 0.055 0.749-0.196 1.442-0.416 2.133-0.128 0.403-0.302 0.796-0.617 1.121-0.35 0.361-0.648 0.772-0.968 1.162-0.044 0.054-0.091 0.109-0.121 0.17-0.224 0.464-0.597 0.791-0.993 1.101-0.201 0.158-0.385 0.341-0.577 0.511-0.060 0.054-0.117 0.113-0.185 0.154-0.503 0.303-1.008 0.605-1.514 0.902-0.063 0.036-0.138 0.063-0.209 0.071-0.105 0.011-0.138 0.064-0.138 0.158-0.001 0.097 0.026 0.176 0.137 0.181 0.464 0.017 0.929 0.076 1.392-0.047 0.317-0.085 0.631-0.015 0.992 0.090-0.091 0.079-0.146 0.122-0.197 0.17-0.103 0.097-0.204 0.195-0.307 0.291-0.038 0.035-0.073 0.086-0.117 0.097-0.168 0.040-0.263 0.156-0.346 0.293-0.212 0.349-0.409 0.707-0.64 1.042-0.45 0.652-0.919 1.291-1.376 1.938-0.133 0.188-0.226 0.408-0.38 0.572-0.348 0.369-0.51 0.838-0.736 1.273-0.145 0.279-0.291 0.558-0.435 0.839-0.055 0.107-0.101 0.22-0.172 0.373-0.056-0.11-0.111-0.187-0.138-0.273-0.121-0.387-0.26-0.758-0.533-1.071-0.068-0.079-0.095-0.203-0.121-0.31-0.028-0.114-0.085-0.173-0.204-0.189-0.217-0.030-0.274-0.141-0.172-0.337 0.123-0.238 0.227-0.477 0.138-0.752-0.012-0.036-0.025-0.071-0.040-0.105-0.007-0.013-0.017-0.026-0.035-0.050-0.063 0.121-0.118 0.227-0.191 0.366-0.067-0.073-0.132-0.121-0.168-0.184-0.246-0.428-0.482-0.86-0.73-1.287-0.072-0.125-0.165-0.238-0.255-0.35-0.279-0.348-0.573-0.683-0.839-1.039-0.232-0.311-0.478-0.601-0.8-0.824-0.042-0.030-0.071-0.078-0.136-0.154 0.114-0.032 0.199-0.075 0.286-0.078 0.639-0.021 1.277-0.034 1.916-0.050 0.064-0.001 0.129-0.007 0.193-0.011 0.101-0.005 0.187-0.035 0.179-0.157-0.008-0.111-0.074-0.161-0.188-0.18-0.348-0.056-0.694-0.119-1.039-0.195-0.113-0.024-0.223-0.081-0.322-0.14-0.379-0.224-0.766-0.436-1.125-0.689-0.929-0.654-1.787-1.391-2.517-2.265-0.383-0.458-0.67-0.981-0.796-1.564-0.111-0.515-0.161-1.047-0.215-1.573-0.043-0.416-0.052-0.835-0.070-1.252-0.005-0.126-0.051-0.173-0.18-0.154-0.085 0.013-0.172 0.003-0.258 0.004-0.189 0.001-0.242 0.048-0.24 0.236 0 0.258 0.004 0.515 0.009 0.772 0.007 0.314 0.012 0.627 0.024 0.941 0.005 0.126-0.070 0.184-0.196 0.123-0.115-0.055-0.226-0.123-0.337-0.188-0.354-0.209-0.709-0.419-1.063-0.63-0.009-0.005-0.017-0.013-0.027-0.016-0.47-0.125-0.828-0.464-1.26-0.659-0.113-0.051-0.243-0.074-0.368-0.089-0.632-0.075-1.197-0.311-1.705-0.694-0.083-0.063-0.18-0.111-0.277-0.15-0.289-0.115-0.576-0.235-0.873-0.329-0.243-0.076-0.499-0.107-0.744-0.179-0.255-0.074-0.503-0.168-0.754-0.258-0.030-0.011-0.047-0.052-0.097-0.111 0.228-0.064 0.43-0.152 0.636-0.173 0.283-0.030 0.548-0.095 0.799-0.226 0.384-0.199 0.764-0.392 1.177-0.541 0.636-0.228 1.232-0.564 1.848-0.848 0.753-0.348 1.51-0.689 2.265-1.038 0.286-0.133 0.568-0.275 0.85-0.419 0.153-0.078 0.224-0.039 0.217 0.133-0.008 0.188-0.019 0.376-0.043 0.562-0.051 0.399-0.024 0.792 0.056 1.184 0.023 0.11 0.059 0.197 0.187 0.204 0.137 0.007 0.277 0.004 0.342-0.148 0.034-0.078 0.056-0.162 0.075-0.246 0.158-0.752 0.526-1.397 0.973-2.011 0.188-0.258 0.388-0.494 0.64-0.693 0.132-0.103 0.228-0.255 0.326-0.395 0.513-0.733 1.213-1.251 1.964-1.71 0.297-0.181 0.605-0.346 0.907-0.521 0.372-0.215 0.776-0.336 1.192-0.42 0.16-0.032 0.297-0.097 0.332-0.321-0.106-0.016-0.213-0.054-0.317-0.044-0.609 0.052-1.217 0.117-1.827 0.176-0.072 0.007-0.146 0.001-0.263 0.001 0.055-0.103 0.087-0.179 0.13-0.247 0.328-0.51 0.664-1.013 0.981-1.529 0.132-0.213 0.226-0.45 0.328-0.679 0.076-0.169 0.145-0.191 0.326-0.164 0.141 0.021 0.302 0.019 0.432-0.031 0.306-0.117 0.338-0.399 0.090-0.617-0.395-0.346-0.401-0.407-0.103-0.834 0.232-0.332 0.428-0.681 0.495-1.089 0.005-0.036 0.017-0.082 0.042-0.102 0.262-0.217 0.286-0.556 0.431-0.832 0.149-0.283 0.299-0.566 0.467-0.839 0.119-0.192 0.149-0.393 0.166-0.611 0.024-0.311 0.095-0.611 0.333-0.842 0.056-0.004 0.11-0.004 0.164-0.004zM16.832 9.614c-1.102 0.093-2.215 0.322-3.146 1.089-0.115 0.095-0.243 0.179-0.372 0.255-0.322 0.192-0.541 0.459-0.664 0.816-0.103 0.298-0.246 0.576-0.421 0.844-0.294 0.447-0.413 0.95-0.348 1.489 0.036 0.293 0.105 0.587 0.091 0.877-0.030 0.595-0.099 1.187-0.162 1.779-0.016 0.153-0.063 0.305-0.113 0.451-0.16 0.473-0.332 0.94-0.49 1.412-0.027 0.082-0.043 0.188-0.013 0.263 0.15 0.396 0.315 0.785 0.477 1.177 0.038 0.090 0.093 0.136 0.201 0.093 0.054-0.021 0.133-0.023 0.184 0.003 0.507 0.25 1.060 0.391 1.515 0.764 0.571 0.468 0.934 1.019 0.965 1.773 0.013 0.348 0.063 0.694 0.098 1.042 0.009 0.087 0.040 0.179 0.149 0.122 0.235-0.119 0.451-0.099 0.67 0.038 0.048 0.030 0.113 0.032 0.169 0.051 0.132 0.047 0.212 0 0.301-0.106 0.134-0.161 0.267-0.354 0.536-0.278 0.034 0.009 0.078-0.026 0.119-0.038 0.032-0.009 0.081-0.030 0.097-0.016 0.115 0.099 0.232 0.197 0.33 0.311 0.054 0.062 0.068 0.156 0.109 0.232 0.051 0.095 0.129 0.115 0.212 0.043 0.221-0.197 0.387-0.43 0.43-0.733 0.031-0.216 0.068-0.432 0.098-0.65 0.085-0.619 0.309-1.171 0.769-1.605 0.11-0.103 0.238-0.213 0.377-0.258 0.501-0.157 1.007-0.297 1.517-0.424 0.306-0.076 0.534-0.242 0.643-0.53 0.15-0.399 0.205-0.809 0.047-1.226-0.128-0.336-0.224-0.685-0.37-1.011-0.356-0.791-0.361-1.612-0.256-2.448 0.051-0.407 0.076-0.811-0.008-1.216-0.17-0.817-0.464-1.593-0.8-2.353-0.062-0.14-0.156-0.274-0.262-0.383-0.37-0.381-0.745-0.758-1.133-1.121-0.417-0.387-0.929-0.526-1.544-0.528zM20.702 21.865c-0.255-0.125-0.473-0.099-0.634 0.052-0.089 0.083-0.184 0.161-0.277 0.242-0.185 0.161-0.356 0.326-0.302 0.611 0.009 0.052-0.042 0.114-0.058 0.173-0.016 0.060-0.023 0.125-0.032 0.187 0.052-0.013 0.111-0.015 0.157-0.042 0.434-0.246 0.734-0.632 1.051-1.001 0.047-0.058 0.060-0.144 0.094-0.221zM21.665 21.845c-0.235 0.193-0.282 0.46-0.42 0.695 0.283-0.052 0.513-0.417 0.42-0.695zM27 17.967c-0.016-0.021-0.034-0.044-0.050-0.066-0.193 0.067-0.357 0.189-0.521 0.31-0.016 0.012-0.013 0.081 0.004 0.098 0.020 0.019 0.075 0.024 0.102 0.011 0.081-0.040 0.158-0.089 0.23-0.144 0.083-0.064 0.157-0.14 0.235-0.209zM16.242 27.75c0.017 0.115 0.017 0.191 0.043 0.255 0.017 0.046 0.064 0.089 0.109 0.113 0.017 0.009 0.089-0.035 0.093-0.062 0.008-0.051 0.001-0.121-0.030-0.157-0.043-0.052-0.115-0.083-0.215-0.149zM20.731 23.053c-0.016-0.017-0.031-0.034-0.047-0.051-0.126 0.115-0.252 0.231-0.379 0.346 0.019 0.019 0.036 0.039 0.055 0.058 0.123-0.117 0.247-0.235 0.37-0.353zM17.782 24.078c0.008 0.015 0.016 0.030 0.026 0.044 0.058-0.027 0.148-0.040 0.164-0.083 0.024-0.063-0.005-0.145-0.012-0.22-0.012-0.001-0.026-0.001-0.038-0.003-0.047 0.089-0.094 0.174-0.14 0.262zM16.704 30.071c-0.020-0.013-0.040-0.026-0.060-0.039-0.095 0.005-0.158 0.051-0.145 0.157 0.003 0.028 0.062 0.050 0.095 0.075 0.036-0.066 0.074-0.13 0.11-0.193zM19.598 25.796c0.017 0.005 0.034 0.009 0.051 0.015 0.038-0.101 0.078-0.201 0.11-0.303 0.007-0.020-0.019-0.051-0.030-0.076-0.024 0.016-0.066 0.028-0.071 0.050-0.026 0.105-0.040 0.211-0.060 0.315z"></path>
<path d="M11.449 8.222c-0.095 0.060-0.188 0.128-0.289 0.18-0.183 0.095-0.381 0.161-0.495 0.36-0.042 0.072-0.14 0.114-0.215 0.164-0.823 0.548-1.632 1.107-2.161 1.977-0.172 0.282-0.336 0.286-0.566 0.044-0.15-0.157-0.207-0.353-0.208-0.56-0.003-0.957-0.165-1.894-0.349-2.828-0.044-0.226-0.074-0.455-0.105-0.683-0.026-0.187 0.105-0.289 0.279-0.219 0.114 0.046 0.219 0.117 0.336 0.154 0.187 0.059 0.38 0.101 0.571 0.148 0.067 0.016 0.144 0.009 0.204 0.038 0.467 0.223 1.013 0.217 1.447 0.565 0.227 0.181 0.56 0.23 0.844 0.337 0.234 0.089 0.467 0.176 0.699 0.263 0.003 0.020 0.005 0.040 0.008 0.060z"></path>
<path d="M21.413 8.259c0.091-0.201 0.25-0.294 0.443-0.329 0.664-0.119 1.329-0.236 1.995-0.346 0.464-0.077 0.932-0.14 1.397-0.207 0.204-0.030 0.409-0.052 0.615-0.082 0.095-0.015 0.188-0.042 0.282-0.059 0.106-0.019 0.146 0.031 0.107 0.128-0.075 0.187-0.134 0.37-0.070 0.576 0.011 0.034-0.060 0.101-0.102 0.142-0.079 0.078-0.181 0.138-0.244 0.227-0.235 0.329-0.422 0.682-0.545 1.070-0.094 0.295-0.234 0.577-0.321 0.874-0.078 0.264-0.111 0.542-0.164 0.815-0.007 0.036-0.005 0.075-0.011 0.113-0.031 0.216-0.086 0.24-0.267 0.117-0.009-0.005-0.017-0.013-0.027-0.019-0.434-0.244-0.752-0.591-0.964-1.044-0.187-0.397-0.459-0.72-0.832-0.975-0.447-0.302-0.858-0.659-1.293-1z"></path>
<path d="M9.717 24.318c-0.314 0.013-0.615 0.079-0.897 0.227-0.071 0.038-0.144 0.079-0.22 0.097-0.53 0.117-1.063 0.22-1.592 0.344-0.275 0.064-0.544 0.156-0.812 0.243-0.111 0.036-0.215 0.099-0.328 0.133-0.074 0.021-0.184 0.043-0.231 0.005-0.105-0.082-0.192-0.204-0.119-0.352 0.107-0.22 0.212-0.447 0.349-0.65 0.215-0.317 0.389-0.644 0.529-1.004 0.319-0.823 0.677-1.631 1.018-2.444 0.047-0.111 0.128-0.126 0.195-0.042 0.086 0.106 0.179 0.224 0.211 0.352 0.099 0.4 0.274 0.75 0.554 1.054 0.13 0.141 0.234 0.307 0.345 0.464 0.136 0.191 0.295 0.348 0.507 0.458 0.091 0.047 0.169 0.149 0.22 0.243 0.13 0.24 0.29 0.448 0.511 0.611 0.050 0.036 0.072 0.107 0.107 0.162-0.063 0.034-0.122 0.076-0.189 0.098-0.047 0.015-0.105 0.001-0.158 0.001z"></path>
<path d="M26.608 24.499c-0.243 0.028-0.42 0.074-0.581-0.068-0.094-0.083-0.153 0.017-0.199 0.086-0.056 0.085-0.109 0.083-0.2 0.043-0.525-0.231-1.059-0.419-1.639-0.191-0.25 0.099-0.499 0.107-0.769 0.060-0.205-0.036-0.426 0.021-0.639 0.021-0.074 0-0.188-0.030-0.213-0.082-0.032-0.066-0.023-0.185 0.019-0.247 0.078-0.118 0.191-0.215 0.293-0.315 0.209-0.207 0.446-0.391 0.627-0.619 0.654-0.823 1.289-1.659 1.933-2.489 0.048-0.063 0.117-0.111 0.184-0.174 0.311 1.365 0.643 2.69 1.185 3.975z"></path>
<path d="M14.175 20.358c-0.219 0.052-0.404-0.013-0.595-0.144-0.16-0.109-0.36-0.161-0.542-0.235-0.059-0.024-0.123-0.038-0.184-0.056-0.605-0.188-0.695-0.278-0.89-0.883-0.052-0.161-0.032-0.309 0.098-0.427 0.354-0.323 0.75-0.568 1.24-0.619 0.048-0.005 0.106 0.015 0.149 0.040 0.458 0.262 0.977 0.412 1.383 0.769 0.063 0.056 0.164 0.075 0.251 0.097 0.431 0.11 0.597 0.562 0.332 0.919-0.247 0.333-0.571 0.529-0.995 0.538-0.081 0.001-0.161 0-0.247 0zM12.907 19.622c-0.007-0.254-0.134-0.448-0.289-0.479-0.055-0.011-0.119 0.020-0.179 0.032 0.015 0.054 0.013 0.129 0.050 0.157 0.121 0.098 0.255 0.18 0.417 0.29z"></path>
<path d="M20.391 18.863c-0.001 0.375-0.318 0.855-0.622 0.983-0.356 0.15-0.706 0.313-1.067 0.443-0.344 0.123-0.67 0.040-0.965-0.168-0.021-0.015-0.039-0.043-0.062-0.050-0.301-0.081-0.356-0.349-0.44-0.588-0.021-0.063 0.001-0.165 0.042-0.223 0.123-0.176 0.289-0.297 0.511-0.332 0.098-0.016 0.195-0.055 0.287-0.095 0.518-0.228 1.036-0.46 1.552-0.693 0.136-0.062 0.251-0.026 0.356 0.063 0.221 0.187 0.379 0.408 0.408 0.659z"></path>
<path d="M17.117 21.4c0.073 0.326-0.188 0.487-0.346 0.691-0.021 0.028-0.11 0.023-0.161 0.009-0.156-0.040-0.305-0.102-0.462-0.136-0.117-0.026-0.242-0.032-0.362-0.024-0.226 0.015-0.315-0.062-0.291-0.285 0.039-0.356 0.070-0.714 0.133-1.067 0.046-0.254 0.204-0.456 0.452-0.542 0.251-0.087 0.506-0.032 0.677 0.169 0.122 0.145 0.211 0.334 0.263 0.518 0.063 0.215 0.068 0.444 0.098 0.666z"></path>
<path d="M19.679 22.673c0.081-0.098 0.144-0.174 0.209-0.254 0.066 0.146 0.011 0.221-0.209 0.254z"></path>
</svg>
