<!-- Generated by IcoMoon.io -->
<svg version="1.1" xmlns="http://www.w3.org/2000/svg" width="32" height="32" viewBox="0 0 32 32">
<title>fighters-ferocious</title>
<path d="M19.299 25.715c-0.598-0.13-0.782-0.006-0.799 0.527-0.012 0.497-0.308 0.823-0.634 1.137-0.124 0.124-0.261 0.231-0.444 0.397-0.030-0.148-0.089-0.261-0.071-0.355 0.113-0.497-0.041-0.971-0.118-1.445-0.041-0.261-0.207-0.403-0.462-0.42-0.237-0.024-0.385 0.113-0.462 0.332-0.036 0.107-0.095 0.207-0.136 0.284-0.101-0.178-0.201-0.343-0.29-0.497-0.101 0.184-0.189 0.314-0.237 0.456-0.041 0.136-0.053 0.284-0.059 0.432-0.012 0.243 0 0.491-0.024 0.734-0.006 0.071-0.071 0.178-0.136 0.201s-0.166-0.024-0.231-0.071c-0.361-0.231-0.462-0.58-0.486-0.995-0.024-0.45-0.261-0.823-0.562-1.196-0.243 0.29-0.272 0.634-0.32 0.959-0.030 0.207-0.124 0.343-0.326 0.343-0.083 0-0.237-0.107-0.243-0.172-0.030-0.551-0.29-1.018-0.539-1.486-0.219-0.42-0.361-0.847-0.432-1.32-0.154-0.971-1.007-0.924-1.563-0.545-0.13 0.089-0.255 0.184-0.397 0.284-0.113-0.13-0.278-0.314-0.438-0.509-0.379-0.45-0.758-0.9-1.125-1.362-0.041-0.053-0.030-0.172-0.024-0.255 0.024-0.207 0.113-0.42 0.095-0.622-0.065-0.61-0.172-1.22-0.261-1.83-0.012-0.077-0.012-0.16 0.012-0.225 0.148-0.403 0.207-0.805 0.213-1.237 0-0.403 0.113-0.805 0.166-1.208 0.071-0.521 0.077-1.054-0.343-1.427-0.255-0.225-0.616-0.326-0.924-0.497-0.574-0.326-1.208-0.189-1.818-0.243-0.734-0.065-1.445-0.189-2.090-0.604-0.574-0.367-1.048-0.823-1.48-1.332-0.089-0.101-0.154-0.231-0.213-0.349-0.332-0.651-0.734-1.279-0.977-1.966-0.231-0.657-0.361-1.362-0.426-2.060s-0.030-1.415 0.012-2.12c0.113-2.001 0.971-3.683 2.297-5.151 0.107-0.118 0.249-0.201 0.379-0.302 0.030 0.018 0.065 0.030 0.095 0.047-0.036 0.16-0.053 0.326-0.095 0.485-0.195 0.758-0.438 1.51-0.58 2.28-0.13 0.711-0.207 1.445 0.065 2.149 0.266 0.693 0.503 1.397 0.835 2.060 0.266 0.539 0.634 1.030 0.989 1.522 0.255 0.355 0.622 0.557 1.060 0.628 0.107 0.018 0.237 0.012 0.314 0.071 0.539 0.414 1.22 0.332 1.818 0.527 0.539 0.178 1.084 0.095 1.634 0.053 0.864-0.065 1.545-0.515 2.25-0.935 0.367-0.225 0.74-0.462 1.137-0.616 0.349-0.136 0.74-0.16 1.113-0.237 0.539-0.112 1.078-0.207 1.61-0.355 0.74-0.207 1.433-0.006 2.102 0.231 1.078 0.385 2.143 0.829 3.18 1.314 0.361 0.172 0.634 0.533 0.918 0.841 0.272 0.296 0.562 0.527 0.977 0.604 0.266 0.047 0.515 0.195 0.776 0.231 0.645 0.089 1.279-0.059 1.859-0.326 0.586-0.266 1.137-0.616 1.682-0.965 0.172-0.107 0.261-0.338 0.397-0.497 0.308-0.367 0.651-0.705 0.93-1.089 0.562-0.776 0.847-1.664 1.007-2.605 0.243-1.421 0.036-2.783-0.414-4.133-0.047-0.142-0.006-0.314-0.006-0.474 0.16-0.036 0.29-0.065 0.45-0.101 0.859 1.226 1.67 2.487 1.723 4.074 0.012 0.409 0.089 0.817 0.13 1.232 0.006 0.059 0.006 0.118-0.006 0.172-0.332 1.433-0.639 2.878-1.007 4.304-0.231 0.912-0.616 1.776-1.107 2.587-0.284 0.468-0.693 0.764-1.172 0.995-0.308 0.148-0.592 0.349-0.906 0.486-0.355 0.16-0.734 0.266-1.101 0.409-0.266 0.107-0.551 0.189-0.77 0.361-0.29 0.219-0.562 0.486-0.787 0.776-0.284 0.379-0.521 0.793-0.758 1.202-0.083 0.148-0.124 0.337-0.124 0.503 0 0.456 0.053 0.918 0.036 1.374-0.012 0.296-0.059 0.61-0.172 0.888-0.195 0.485-0.272 0.977-0.278 1.492 0 0.243-0.041 0.485-0.071 0.728-0.006 0.053-0.041 0.113-0.083 0.142-0.349 0.284-0.699 0.568-1.066 0.835-0.071 0.053-0.213 0.053-0.308 0.036-0.675-0.124-1.344-0.207-1.859 0.373-0.136 0.154-0.237 0.367-0.272 0.562-0.101 0.485-0.154 0.971-0.225 1.474zM14.083 19.835c-0.32-0.367-0.639-0.71-0.93-1.078-0.308-0.385-0.651-0.497-1.078-0.308-0.486 0.219-0.604 0.432-0.486 0.977 0.041 0.195-0.006 0.462 0.266 0.545 0.403 0.118 0.811 0.243 1.22 0.332 0.438 0.101 0.829-0.113 1.007-0.468zM16.54 20.99c-0.16 0.083-0.302 0.154-0.438 0.231-0.101 0.059-0.213 0.107-0.284 0.189-0.13 0.148-0.231 0.32-0.349 0.474-0.237 0.308-0.296 0.651-0.243 1.024 0.036 0.237 0.278 0.391 0.48 0.272 0.148-0.089 0.272-0.243 0.367-0.391 0.101-0.16 0.154-0.343 0.231-0.521 0.124 0.284 0.172 0.557 0.266 0.811 0.041 0.113 0.166 0.231 0.278 0.266 0.095 0.030 0.284-0.030 0.332-0.107 0.124-0.201 0.219-0.426 0.089-0.687-0.195-0.385-0.361-0.782-0.539-1.166-0.059-0.136-0.124-0.266-0.189-0.397zM18.103 20.108c0.095 0.243 0.332 0.409 0.663 0.497 0.444 0.113 0.853-0.041 1.261-0.142 0.675-0.166 0.705-0.959 0.361-1.285-0.326-0.308-0.835-0.296-1.16 0-0.337 0.314-0.71 0.592-1.125 0.93z"></path>
<path d="M13.514 26.994c-0.089 0.45 0.142 0.782 0.308 1.125 0.018 0.030 0.065 0.065 0.095 0.065 0.521-0.036 0.876 0.432 1.391 0.45 0.355 0.012 0.515-0.012 0.651-0.349 0.148-0.367 0.243-0.764 0.355-1.143 0.036-0.113 0.053-0.225 0.16-0.385 0.095 0.118 0.237 0.225 0.266 0.361 0.113 0.468 0.184 0.941 0.266 1.409 0.018 0.101 0 0.213 0 0.373 0.432-0.189 0.823-0.343 1.19-0.539 0.118-0.065 0.189-0.225 0.272-0.343 0.178-0.255 0.332-0.527 0.533-0.758 0.32-0.373 0.533-0.841 0.983-1.107 0.089-0.053 0.124-0.225 0.166-0.343 0.095-0.272 0.166-0.557 0.266-0.823 0.024-0.065 0.148-0.095 0.237-0.124 0.172-0.059 0.349-0.101 0.521-0.16 0.361-0.124 0.722-0.249 1.078-0.385 0.278-0.113 0.568-0.219 0.823-0.379 0.782-0.48 1.474-1.084 1.972-1.847 0.367-0.568 0.462-1.261 0.539-1.936 0.024-0.201 0.077-0.397 0.124-0.657 0.124 0.089 0.219 0.118 0.255 0.184 0.172 0.326 0.426 0.616 0.385 1.024-0.059 0.58-0.101 1.16-0.172 1.741-0.018 0.13-0.095 0.261-0.16 0.379-0.284 0.521-0.533 1.078-0.888 1.551-0.332 0.444-0.787 0.793-1.184 1.184-0.148 0.148-0.284 0.314-0.432 0.468-0.243 0.255-0.48 0.515-0.74 0.752-0.249 0.225-0.515 0.444-0.805 0.622-0.272 0.166-0.574 0.284-0.87 0.409-0.663 0.278-1.054 1.084-0.847 1.77 0.089 0.308 0.006 0.545-0.243 0.746-0.485 0.403-0.953 0.823-1.439 1.22-0.284 0.237-0.604 0.361-1.001 0.337-0.586-0.036-1.184-0.006-1.77 0-0.089 0-0.184-0.006-0.261 0.024-0.562 0.207-1.042 0.041-1.516-0.278-0.172-0.118-0.414-0.124-0.598-0.231-0.308-0.178-0.592-0.409-0.9-0.592-0.118-0.071-0.278-0.089-0.414-0.118-0.497-0.107-0.859-0.29-0.882-0.823-0.030-0.74-0.385-1.362-0.651-2.025-0.118-0.29-0.338-0.385-0.574-0.497-0.787-0.379-1.587-0.746-2.226-1.368-0.219-0.213-0.414-0.45-0.574-0.71-0.568-0.953-1.155-1.907-1.332-3.026-0.077-0.503-0.142-1.012-0.16-1.522-0.036-0.746-0.030-1.498-0.036-2.244 0-0.136-0.006-0.284 0.041-0.409 0.231-0.58 0.48-1.155 0.74-1.764 0.243 0.184 0.284 0.355 0.272 0.622-0.036 0.628-0.006 1.261 0.036 1.889 0.047 0.782 0.243 1.539 0.663 2.208 0.326 0.521 0.693 1.030 1.101 1.486 0.509 0.557 1.072 1.066 1.628 1.575 0.308 0.284 0.663 0.444 1.107 0.296 0.201-0.065 0.373 0.006 0.48 0.219 0.16 0.314 0.355 0.604 0.515 0.912 0.219 0.426 0.361 0.882 0.326 1.374-0.006 0.107-0.024 0.225 0.006 0.326s0.107 0.195 0.16 0.29c0.065-0.071 0.148-0.136 0.195-0.213 0.142-0.201 0.308-0.308 0.568-0.29z"></path>
</svg>
