<!-- Generated by IcoMoon.io -->
<svg version="1.1" xmlns="http://www.w3.org/2000/svg" width="32" height="32" viewBox="0 0 32 32">
<title>fighters-beast</title>
<path d="M20.432-0.002c0.035 0 0.070 0 0.104 0 0.022 0.009 0.041 0.022 0.064 0.026 0.613 0.12 1.228 0.23 1.837 0.362 1.125 0.242 2.246 0.501 3.298 0.989 0.067 0.030 0.143 0.052 0.217 0.058 0.235 0.016 0.45 0.058 0.614 0.256 0.055 0.067 0.158 0.094 0.24 0.135 0.291 0.142 0.582 0.284 0.873 0.424 0.125 0.061 0.252 0.117 0.375 0.18 0.25 0.129 0.518 0.235 0.743 0.4 0.391 0.288 0.76 0.607 1.127 0.925 0.369 0.32 0.668 0.701 0.931 1.115 0.544 0.86 0.766 1.82 0.85 2.809 0.048 0.563 0.104 1.132-0.042 1.707-0.242 0.957-0.589 1.855-1.255 2.595-0.359 0.398-0.767 0.753-1.161 1.119-0.1 0.093-0.22 0.174-0.345 0.226-1.029 0.426-2.059 0.859-3.099 1.258-0.413 0.158-0.851 0.258-1.286 0.35-0.53 0.114-1.018 0.31-1.407 0.689-0.381 0.371-0.733 0.772-1.098 1.158-0.342 0.362-0.416 1.032-0.175 1.473 0.161 0.293 0.308 0.592 0.452 0.893 0.113 0.239 0.067 0.494-0.11 0.676-0.061-0.071-0.12-0.14-0.181-0.21-0.081-0.094-0.148-0.109-0.232 0.010-0.061 0.085-0.151 0.193-0.242 0.207-0.321 0.054-0.572 0.245-0.838 0.4-0.348 0.203-0.714 0.391-0.918 0.769-0.181 0.334-0.361 0.672-0.549 1.002-0.132 0.233-0.203 0.475-0.182 0.746 0.012 0.149 0.007 0.303-0.020 0.449-0.143 0.741-0.298 1.481-0.447 2.221-0.009 0.045-0.014 0.091-0.016 0.138-0.012 0.42-0.016 0.841-0.033 1.261-0.029 0.662-0.097 1.328-0.368 1.933-0.394 0.88-0.617 1.827-1.083 2.679-0.136 0.246-0.287 0.439-0.55 0.543-0.119 0.048-0.217 0.055-0.33-0.042 0.158-0.172 0.133-0.32-0.059-0.447-0.026-0.017-0.027-0.093-0.022-0.139 0.033-0.24 0.075-0.481 0.109-0.721 0.080-0.575 0.181-1.151-0.235-1.661-0.075-0.091-0.136-0.14-0.252-0.133-0.311 0.019-0.623 0.030-0.934 0.046-0.278 0.014-0.421 0.198-0.365 0.466 0.017 0.085 0.048 0.167 0.064 0.252 0.077 0.387 0.146 0.773-0.039 1.151-0.019 0.039-0.035 0.1-0.019 0.135 0.123 0.269-0.009 0.507-0.081 0.753-0.036 0.126-0.096 0.136-0.204 0.081-0.284-0.148-0.513-0.346-0.672-0.631-0.165-0.297-0.262-0.61-0.334-0.941-0.142-0.66-0.323-1.313-0.485-1.969-0.055-0.224-0.111-0.445-0.023-0.681 0.035-0.094 0.004-0.216-0.007-0.324-0.012-0.12-0.042-0.237-0.054-0.358-0.058-0.634-0.11-1.267-0.171-1.901-0.026-0.268-0.071-0.529-0.016-0.807 0.051-0.25 0.048-0.52 0.020-0.775-0.083-0.749-0.372-1.441-0.643-2.136-0.035-0.088-0.127-0.158-0.203-0.226-0.178-0.164-0.388-0.301-0.534-0.488-0.145-0.184-0.317-0.295-0.527-0.372-0.103-0.038-0.21-0.068-0.308-0.116-0.229-0.114-0.439-0.122-0.641 0.061-0.039 0.035-0.14 0.046-0.182 0.020-0.046-0.029-0.093-0.127-0.077-0.172 0.059-0.168 0.012-0.316-0.032-0.473-0.022-0.083 0.001-0.182 0.022-0.271 0.081-0.343 0.101-0.689 0.029-1.032-0.052-0.248-0.149-0.487-0.198-0.736-0.048-0.237-0.168-0.423-0.321-0.602-0.236-0.278-0.447-0.576-0.682-0.854-0.122-0.143-0.262-0.277-0.411-0.389-0.184-0.139-0.389-0.249-0.582-0.376-0.304-0.198-0.62-0.355-0.993-0.378-0.142-0.009-0.293-0.038-0.42-0.097-0.515-0.243-1.025-0.504-1.536-0.757-0.042-0.020-0.085-0.061-0.125-0.056-0.313 0.038-0.549-0.14-0.804-0.266-0.061-0.030-0.138-0.027-0.2-0.056-0.153-0.072-0.333-0.122-0.446-0.237-0.746-0.75-1.461-1.528-1.94-2.506-0.265-0.542-0.423-1.067-0.349-1.664 0.046-0.375 0.042-0.749-0.064-1.115 0-0.174 0-0.348 0-0.521 0.035-0.216 0.085-0.431 0.103-0.649 0.046-0.568 0.236-1.095 0.45-1.613 0.061-0.145 0.165-0.281 0.277-0.394 0.264-0.269 0.555-0.51 0.812-0.785 0.791-0.844 1.804-1.345 2.825-1.826 0.94-0.443 1.895-0.854 2.854-1.258 0.392-0.165 0.801-0.314 1.216-0.392 0.572-0.109 1.158-0.151 1.739-0.207 0.585-0.056 1.18 0.010 1.756-0.162 0.075-0.023 0.169 0.017 0.255 0.026 0.164 0.019 0.326 0.045 0.489 0.052 0.109 0.004 0.219-0.030 0.327-0.029 0.072 0 0.143 0.033 0.216 0.051 0.001 0.019 0.003 0.036 0.006 0.055-0.074 0.051-0.142 0.129-0.223 0.148-0.172 0.039-0.35 0.061-0.527 0.062-0.126 0.001-0.182 0.029-0.211 0.161-0.020 0.093-0.080 0.21-0.156 0.252-0.24 0.13-0.498 0.232-0.749 0.343-0.014-0.014-0.029-0.029-0.043-0.042 0.048-0.059 0.094-0.119 0.151-0.191-0.065 0-0.127-0.010-0.185 0.001-0.539 0.106-1.080 0.204-1.614 0.33-0.227 0.054-0.458 0.14-0.656 0.264-0.989 0.611-1.968 1.237-2.95 1.859-0.229 0.145-0.398 0.352-0.445 0.618-0.069 0.397-0.142 0.799-0.148 1.199-0.010 0.736 0.439 1.215 1.005 1.601 0.213 0.146 0.43 0.291 0.66 0.407 0.25 0.126 0.51 0.271 0.78 0.313 0.685 0.107 1.377 0.164 2.066 0.236 0.553 0.058 1.1 0.235 1.667 0.090 0.032-0.009 0.069-0.001 0.104 0.001 0.405 0.032 0.754-0.135 1.098-0.317 0.201-0.107 0.389-0.25 0.601-0.332 0.452-0.171 0.864-0.443 1.354-0.523 0.568-0.093 1.118-0.31 1.712-0.187 0.249 0.051 0.507 0.059 0.754 0.113 0.394 0.085 0.808 0.14 1.17 0.304 0.449 0.204 0.85 0.51 1.276 0.766 0.405 0.245 0.798 0.563 1.322 0.317 0.004-0.003 0.012-0.001 0.017-0.003 0.529-0.098 1.058-0.193 1.586-0.298 0.459-0.091 0.915-0.194 1.373-0.295 0.416-0.093 0.833-0.181 1.244-0.291 0.239-0.064 0.301-0.22 0.235-0.456-0.039-0.138-0.061-0.281-0.088-0.423-0.088-0.471-0.132-0.956-0.271-1.41-0.255-0.831-0.77-1.519-1.39-2.11-0.479-0.458-1.014-0.86-1.53-1.279-0.178-0.145-0.362-0.297-0.569-0.387-0.391-0.171-0.747-0.388-1.074-0.657-0.054-0.043-0.107-0.101-0.169-0.119-0.226-0.065-0.29-0.235-0.308-0.442zM16.578 21.529c-0.023-0.012-0.046-0.025-0.070-0.036-0.072 0.065-0.159 0.12-0.216 0.197-0.106 0.145-0.185 0.308-0.291 0.452-0.088 0.12-0.185 0.242-0.303 0.33-0.394 0.294-0.846 0.113-0.938-0.363-0.023-0.119-0.054-0.237-0.093-0.352-0.036-0.106-0.11-0.132-0.197-0.049-0.122 0.114-0.249 0.227-0.358 0.353-0.1 0.117-0.1 0.237 0.033 0.346 0.069 0.058 0.133 0.132 0.178 0.21 0.184 0.32 0.371 0.639 0.42 1.018 0.020 0.152 0.071 0.304 0.129 0.449 0.127 0.321 0.182 0.652 0.188 0.999 0.009 0.514 0.35 0.835 0.733 1.138 0.032-0.288 0.32-0.552 0.039-0.851-0.016-0.017-0.019-0.054-0.020-0.081-0.010-0.319-0.013-0.636 0.12-0.938 0.356-0.811 0.57-1.659 0.659-2.541 0.006-0.090-0.010-0.185-0.014-0.279zM20.371 14.977c-0.306 0.001-0.505 0.098-0.678 0.35-0.098 0.142-0.177 0.298-0.269 0.446-0.264 0.417-0.529 0.833-1.001 1.054-0.051 0.023-0.096 0.068-0.13 0.113-0.229 0.298-0.458 0.598-0.679 0.902-0.117 0.162-0.091 0.235 0.109 0.272 0.272 0.052 0.552 0.074 0.822 0.132 0.277 0.059 0.508-0.019 0.743-0.153 0.111-0.064 0.246-0.097 0.375-0.12 0.149-0.027 0.222-0.106 0.246-0.249 0.020-0.119 0.042-0.237 0.075-0.353 0.194-0.695 0.392-1.389 0.586-2.084 0.041-0.153-0.067-0.31-0.2-0.31zM10.643 15.876c0.067 0.712 0.151 1.405 0.508 2.033 0.097 0.171 0.22 0.291 0.41 0.349 0.11 0.033 0.243 0.056 0.316 0.132 0.24 0.25 0.531 0.248 0.837 0.22 0.213-0.020 0.427-0.027 0.64-0.052 0.081-0.009 0.158-0.049 0.237-0.074-0.026-0.067-0.046-0.135-0.080-0.197-0.017-0.033-0.065-0.051-0.087-0.083-0.087-0.132-0.204-0.259-0.243-0.405-0.048-0.184-0.135-0.304-0.294-0.403-0.18-0.111-0.352-0.239-0.511-0.378-0.156-0.136-0.287-0.303-0.44-0.445-0.308-0.287-0.618-0.57-0.94-0.843-0.064-0.054-0.182-0.072-0.268-0.058-0.038 0.009-0.058 0.133-0.085 0.203zM14.103 21.459c-0.080-0.088-0.136-0.152-0.193-0.214-0.054 0.052-0.162 0.126-0.151 0.151 0.039 0.093 0.117 0.169 0.181 0.253 0.045-0.052 0.090-0.104 0.162-0.19zM21.223 14.878c0.084-0.122 0.146-0.213 0.216-0.311-0.222-0.003-0.268 0.055-0.216 0.311z"></path>
<path d="M1.772 25.823c0.010-0.017 0.019-0.038 0.032-0.056 0.877-1.341 1.753-2.682 2.635-4.020 0.136-0.207 0.132-0.376-0.003-0.588-0.127-0.201-0.226-0.433-0.282-0.666-0.277-1.158-0.54-2.32-0.795-3.482-0.041-0.188-0.029-0.392-0.016-0.586 0.013-0.204 0.143-0.321 0.349-0.345 0.255-0.027 0.504-0.126 0.769-0.026 0.069 0.026 0.177-0.029 0.259-0.064 0.1-0.043 0.161-0.022 0.18 0.081 0.019 0.101 0.029 0.206 0.032 0.31 0.033 1.113 0.129 2.221 0.491 3.283 0.119 0.35 0.297 0.692 0.5 1.002 0.376 0.576 0.776 1.137 1.193 1.685 0.626 0.822 1.41 1.464 2.328 1.94 0.333 0.172 0.676 0.327 1.015 0.489 0.31 0.148 0.437 0.387 0.387 0.72-0.041 0.265 0 0.518 0.126 0.757 0.041 0.077 0.083 0.153 0.111 0.235 0.116 0.311-0.080 0.579-0.41 0.521-0.191-0.033-0.389-0.122-0.547-0.236-0.258-0.185-0.521-0.324-0.835-0.4-0.223-0.054-0.434-0.182-0.634-0.304-0.193-0.117-0.358-0.277-0.544-0.403-0.171-0.114-0.356-0.209-0.536-0.313-0.1-0.058-0.214-0.104-0.291-0.184-0.374-0.387-0.74-0.78-1.099-1.18-0.069-0.077-0.107-0.188-0.142-0.29-0.042-0.122-0.101-0.155-0.233-0.132-0.498 0.090-0.961 0.269-1.403 0.514-0.085 0.048-0.178 0.087-0.255 0.148-0.556 0.434-1.111 0.873-1.662 1.313-0.122 0.097-0.227 0.216-0.345 0.319-0.158 0.138-0.236 0.127-0.374-0.043z"></path>
<path d="M27.135 16.898c0.009 0.167 0.012 0.294 0.023 0.421 0.022 0.253-0.032 0.487-0.122 0.727-0.19 0.514-0.349 1.040-0.518 1.561-0.093 0.285-0.175 0.575-0.268 0.86-0.046 0.143-0.049 0.269 0.080 0.376 0.043 0.036 0.070 0.093 0.104 0.139 0.531 0.721 1.064 1.442 1.596 2.163 0.027 0.038 0.054 0.080 0.091 0.104 0.443 0.282 0.711 0.723 1.018 1.127 0.014 0.019 0.029 0.036 0.042 0.055 0.13 0.18 0.153 0.353 0.061 0.443-0.106 0.101-0.378 0.11-0.521 0.006-0.252-0.184-0.487-0.398-0.753-0.557-0.295-0.177-0.61-0.329-0.931-0.447-0.24-0.088-0.426-0.213-0.579-0.414-0.062-0.081-0.172-0.148-0.272-0.177-0.224-0.062-0.413-0.172-0.578-0.334-0.363-0.353-0.733-0.384-1.153-0.101-0.019 0.013-0.039 0.038-0.058 0.036-0.274-0.012-0.313 0.214-0.424 0.387-0.139 0.214-0.323 0.401-0.489 0.597-0.502 0.592-1.038 1.153-1.646 1.639-0.085 0.068-0.18 0.126-0.274 0.18-0.25 0.143-0.505 0.279-0.756 0.423-0.226 0.13-0.434 0.039-0.485-0.223-0.065-0.34-0.125-0.682-0.18-1.024-0.036-0.226 0.019-0.31 0.22-0.414 0.080-0.041 0.156-0.103 0.21-0.172 0.109-0.142 0.198-0.298 0.297-0.447 0.074-0.111 0.153-0.171 0.304-0.113 0.068 0.026 0.181-0.010 0.253-0.054 0.846-0.507 1.525-1.196 2.146-1.952 0.811-0.986 1.384-2.107 1.793-3.306 0.156-0.459 0.2-0.959 0.275-1.444 0.036-0.237 0.033-0.484 0.032-0.725 0-0.172 0.074-0.272 0.235-0.317 0.078-0.022 0.161-0.035 0.23-0.072 0.074-0.041 0.153-0.093 0.2-0.161 0.13-0.191 0.369-0.233 0.537-0.078 0.243 0.223 0.293 0.515 0.282 0.825-0.006 0.168-0.016 0.336-0.022 0.465z"></path>
</svg>
