<!-- Generated by IcoMoon.io -->
<svg version="1.1" xmlns="http://www.w3.org/2000/svg" width="32" height="32" viewBox="0 0 32 32">
<title>grand-alliance-destruction</title>
<path d="M15.227 30.825l-0.111-0.010-0.005-0.059c-0.003-0.046-0.014-0.061-0.051-0.076-0.046-0.019-0.126-0.097-0.158-0.156-0.010-0.017-0.040-0.038-0.068-0.043-0.029-0.006-0.059-0.017-0.068-0.024-0.008-0.006-0.035-0.016-0.059-0.022-0.024-0.005-0.065-0.032-0.092-0.057-0.027-0.027-0.054-0.048-0.062-0.048-0.006 0-0.021-0.017-0.030-0.040-0.010-0.021-0.037-0.043-0.057-0.049-0.029-0.006-0.040-0.019-0.037-0.043 0.003-0.030-0.008-0.035-0.080-0.045-0.1-0.013-0.167-0.057-0.153-0.102 0.019-0.061 0.013-0.076-0.035-0.092-0.064-0.021-0.183-0.137-0.183-0.178 0-0.019-0.019-0.051-0.041-0.073-0.024-0.021-0.056-0.068-0.072-0.107-0.037-0.083-0.072-0.1-0.108-0.053-0.014 0.019-0.032 0.030-0.038 0.024-0.019-0.019-0.013-0.094 0.013-0.127 0.045-0.057 0.030-0.111-0.048-0.174-0.067-0.056-0.070-0.064-0.067-0.132 0.002-0.040-0.005-0.075-0.013-0.078-0.094-0.033-0.129-0.089-0.080-0.127 0.027-0.019 0.027-0.024 0-0.119-0.033-0.119-0.033-0.288 0.002-0.371 0.019-0.046 0.025-0.137 0.030-0.397 0.002-0.185 0.010-0.366 0.016-0.401 0.008-0.045 0.003-0.096-0.014-0.156-0.014-0.049-0.022-0.097-0.018-0.105 0.013-0.021 0.067-0.021 0.078-0.002 0.005 0.008 0.024 0.011 0.040 0.006 0.024-0.006 0.032-0.029 0.040-0.107 0.006-0.054 0.005-0.131-0.005-0.169-0.013-0.056-0.011-0.081 0.008-0.118 0.011-0.026 0.022-0.081 0.022-0.123s0.010-0.115 0.021-0.161c0.022-0.086 0.024-0.285 0.005-0.371-0.016-0.070 0.024-0.17 0.075-0.196 0.041-0.021 0.043-0.026 0.043-0.148 0-0.115 0.003-0.129 0.040-0.161 0.032-0.027 0.040-0.048 0.037-0.092-0.002-0.032 0.005-0.080 0.014-0.105 0.025-0.064 0.054-0.247 0.043-0.264-0.006-0.010 0.005-0.037 0.024-0.062 0.027-0.037 0.033-0.067 0.033-0.167 0-0.107 0.005-0.127 0.040-0.169 0.043-0.051 0.043-0.067-0.003-0.177-0.025-0.059-0.025-0.061 0.016-0.104 0.038-0.040 0.043-0.057 0.043-0.161 0-0.080 0.008-0.131 0.027-0.161 0.024-0.041 0.024-0.048-0.008-0.11-0.046-0.086-0.045-0.121 0.006-0.166 0.035-0.030 0.040-0.043 0.030-0.102-0.005-0.038-0.005-0.076 0.002-0.088 0.006-0.010 0.013-0.097 0.013-0.194l0.002-0.177 0.076-0.116c0.064-0.096 0.075-0.127 0.073-0.183-0.002-0.037 0.006-0.145 0.018-0.242 0.010-0.096 0.014-0.201 0.010-0.234-0.013-0.081 0.008-0.115 0.088-0.147 0.054-0.022 0.076-0.024 0.121-0.008 0.054 0.017 0.166 0.014 0.215-0.008 0.019-0.010 0.029 0 0.037 0.038 0.006 0.030 0.025 0.057 0.049 0.067 0.021 0.010 0.038 0.022 0.038 0.029s0.025 0.049 0.057 0.096c0.032 0.046 0.059 0.104 0.062 0.126 0.003 0.046 0.127 0.314 0.151 0.328 0.027 0.016 0.080 0.132 0.080 0.172 0 0.067 0.118 0.323 0.161 0.35 0.018 0.011 0.030 0.037 0.030 0.064 0 0.026 0.025 0.097 0.056 0.161 0.043 0.091 0.056 0.137 0.056 0.207 0 0.102 0.029 0.158 0.099 0.194 0.045 0.024 0.046 0.026 0.035 0.116-0.010 0.096 0.006 0.151 0.075 0.239 0.041 0.051 0.040 0.113-0.003 0.124-0.024 0.006-0.030 0.017-0.024 0.043 0.005 0.017 0.010 0.046 0.010 0.062 0 0.017 0.013 0.027 0.037 0.027 0.049 0 0.065 0.014 0.099 0.086 0.024 0.048 0.025 0.067 0.011 0.091-0.021 0.032-0.025 0.169-0.010 0.212 0.005 0.014 0.024 0.026 0.040 0.026 0.029 0 0.030 0.008 0.021 0.078-0.006 0.048-0.002 0.1 0.010 0.137 0.011 0.035 0.021 0.154 0.022 0.285 0.002 0.213 0.003 0.225 0.033 0.225 0.045 0 0.051 0.064 0.010 0.091-0.037 0.022-0.041 0.070-0.019 0.148 0.006 0.027 0.008 0.088 0.002 0.135-0.011 0.072-0.006 0.1 0.019 0.156 0.019 0.041 0.032 0.099 0.030 0.151 0 0.045-0.002 0.126-0.002 0.178-0.002 0.053-0.013 0.151-0.027 0.22-0.021 0.099-0.022 0.135-0.006 0.185 0.014 0.048 0.013 0.107-0.002 0.252-0.022 0.209-0.019 0.53 0.006 0.642 0.037 0.162 0.035 0.212-0.010 0.253-0.045 0.043-0.053 0.081-0.022 0.127 0.014 0.024 0.013 0.041-0.010 0.088-0.029 0.059-0.032 0.164-0.025 0.682 0.003 0.145-0.002 0.19-0.019 0.196-0.016 0.006-0.019 0.054-0.011 0.244 0.008 0.177 0.005 0.252-0.011 0.309-0.013 0.040-0.029 0.105-0.038 0.143-0.030 0.143-0.049 0.207-0.080 0.264-0.018 0.032-0.032 0.070-0.032 0.086 0 0.032-0.025 0.051-0.038 0.030-0.006-0.008-0.043 0.003-0.086 0.026-0.062 0.035-0.099 0.043-0.21 0.045-0.075 0.003-0.185 0-0.247-0.006z"></path>
<path d="M20.932 30.629c-0.033-0.027-0.062-0.105-0.051-0.14 0.006-0.019-0.019-0.057-0.080-0.121-0.102-0.108-0.099-0.1-0.118-0.277-0.008-0.073-0.021-0.137-0.029-0.139-0.006-0.003-0.008-0.064-0.003-0.135 0.010-0.143 0-0.18-0.049-0.196-0.043-0.013-0.057-0.078-0.051-0.217 0.003-0.059 0.046-0.094 0.115-0.094 0.049 0 0.045-0.134-0.008-0.226l-0.040-0.070 0.032-0.059c0.017-0.032 0.032-0.068 0.032-0.081 0-0.011 0.011-0.057 0.024-0.099 0.013-0.043 0.027-0.105 0.032-0.137 0.006-0.045 0.017-0.061 0.038-0.061 0.048 0 0.056-0.091 0.024-0.25-0.008-0.046-0.006-0.053 0.022-0.053 0.037 0 0.043-0.021 0.057-0.198 0.005-0.068 0.002-0.104-0.017-0.131-0.022-0.035-0.022-0.041 0-0.073 0.102-0.145 0.161-0.234 0.178-0.268 0.027-0.053 0.046-0.284 0.029-0.333-0.011-0.029-0.008-0.056 0.016-0.104 0.026-0.054 0.029-0.084 0.021-0.185-0.008-0.094-0.005-0.134 0.014-0.172 0.017-0.032 0.026-0.096 0.027-0.178v-0.131l0.076-0.054c0.073-0.053 0.076-0.059 0.083-0.142 0.003-0.064-0.002-0.096-0.022-0.121-0.040-0.048-0.035-0.075 0.021-0.127 0.041-0.040 0.048-0.053 0.037-0.091-0.008-0.024-0.014-0.099-0.014-0.166 0-0.076-0.008-0.131-0.019-0.142-0.035-0.035-0.022-0.059 0.040-0.078 0.081-0.027 0.088-0.037 0.051-0.080-0.045-0.053-0.040-0.099 0.017-0.153 0.078-0.073 0.099-0.127 0.086-0.22-0.030-0.226-0.032-0.207 0.030-0.269 0.061-0.061 0.068-0.094 0.043-0.183-0.014-0.048-0.011-0.053 0.030-0.075 0.054-0.029 0.080-0.068 0.080-0.126 0-0.022 0.008-0.045 0.017-0.051 0.010-0.005 0.014-0.030 0.010-0.054-0.005-0.022 0.002-0.062 0.013-0.086 0.037-0.070 0.072-0.201 0.072-0.266 0-0.070 0.006-0.076 0.073-0.067 0.046 0.008 0.051 0.013 0.061 0.086 0.010 0.067 0.016 0.078 0.046 0.078 0.019 0 0.061 0.013 0.089 0.029 0.064 0.035 0.104 0.124 0.088 0.204-0.010 0.056 0.006 0.096 0.067 0.161 0.029 0.032 0.038 0.056 0.032 0.084-0.029 0.132-0.029 0.14 0.006 0.209 0.033 0.065 0.035 0.076 0.016 0.17-0.019 0.096-0.017 0.102 0.014 0.137 0.019 0.021 0.045 0.073 0.056 0.118 0.021 0.073 0.019 0.084-0.008 0.129-0.030 0.049-0.030 0.049 0.010 0.075 0.053 0.033 0.062 0.075 0.035 0.137-0.013 0.029-0.024 0.096-0.026 0.148 0 0.075 0.006 0.102 0.033 0.131 0.033 0.035 0.033 0.037 0.005 0.091-0.029 0.053-0.029 0.054 0.005 0.124 0.041 0.084 0.043 0.113 0.010 0.142-0.019 0.016-0.022 0.037-0.014 0.092 0.011 0.072 0.016 0.342 0.008 0.444-0.003 0.030 0.006 0.062 0.021 0.080 0.033 0.037 0.033 0.065 0 0.102-0.041 0.046-0.041 0.44 0 0.537 0.022 0.051 0.027 0.088 0.021 0.135-0.029 0.17-0.029 0.19 0.003 0.231 0.027 0.038 0.030 0.059 0.019 0.225-0.008 0.124-0.005 0.201 0.008 0.239 0.010 0.030 0.013 0.078 0.008 0.104-0.005 0.027-0.006 0.092-0.003 0.145 0.006 0.088 0.003 0.105-0.035 0.153-0.051 0.068-0.053 0.088 0 0.142l0.041 0.043-0.033 0.067c-0.024 0.048-0.029 0.075-0.017 0.089 0.010 0.010 0.021 0.056 0.027 0.1 0.010 0.091-0.005 0.119-0.078 0.15-0.045 0.017-0.099 0.118-0.139 0.25-0.006 0.022-0.037 0.056-0.067 0.075s-0.064 0.045-0.075 0.056c-0.011 0.011-0.054 0.057-0.096 0.1-0.041 0.045-0.094 0.092-0.118 0.107-0.024 0.016-0.046 0.049-0.053 0.080-0.017 0.075-0.068 0.135-0.124 0.147-0.068 0.014-0.091 0.038-0.091 0.096 0 0.053-0.056 0.123-0.196 0.241-0.041 0.035-0.086 0.084-0.1 0.108-0.024 0.045-0.026 0.045-0.131 0.035-0.099-0.010-0.111-0.008-0.161 0.030-0.064 0.048-0.067 0.048-0.102 0.022z"></path>
<path d="M17.559 30.452l-0.054-0.037v-0.201c0-0.201 0-0.201-0.043-0.236-0.054-0.041-0.057-0.099-0.011-0.145 0.073-0.073 0.076-0.25 0.005-0.319-0.032-0.030-0.038-0.051-0.038-0.127 0-0.089-0.019-0.129-0.065-0.145-0.017-0.006-0.019-0.033-0.013-0.258 0-0.038-0.008-0.124-0.017-0.193-0.040-0.263-0.051-0.68-0.019-0.712 0.024-0.024 0.026-0.072 0.002-0.080-0.010-0.003-0.017-0.030-0.019-0.061-0.003-0.046 0.003-0.056 0.029-0.056 0.045 0 0.051-0.096 0.016-0.221-0.024-0.081-0.024-0.108-0.008-0.178 0.014-0.057 0.016-0.091 0.003-0.111-0.013-0.022-0.010-0.041 0.011-0.078 0.016-0.026 0.041-0.081 0.057-0.123 0.019-0.054 0.045-0.084 0.083-0.108l0.056-0.032-0.011-0.1c-0.006-0.067-0.003-0.119 0.013-0.162 0.013-0.038 0.017-0.080 0.010-0.104-0.006-0.022-0.011-0.076-0.013-0.119-0.002-0.070 0.006-0.091 0.062-0.166 0.053-0.070 0.064-0.097 0.064-0.159 0-0.089 0.051-0.244 0.096-0.288 0.040-0.040 0.040-0.054-0.002-0.094-0.057-0.054-0.043-0.174 0.024-0.198 0.016-0.005 0.017-0.239 0.002-0.301-0.011-0.043-0.010-0.045 0.043-0.045 0.062 0 0.124-0.053 0.124-0.108 0-0.017 0.008-0.038 0.017-0.045 0.019-0.011 0.005-0.115-0.021-0.145-0.011-0.013-0.002-0.026 0.033-0.045 0.051-0.026 0.064-0.067 0.032-0.099-0.010-0.010-0.021-0.083-0.024-0.161-0.005-0.111 0-0.147 0.017-0.162 0.016-0.014 0.024-0.014 0.024-0.002 0 0.010 0.014 0.017 0.032 0.017 0.026 0 0.032-0.011 0.032-0.056 0-0.030 0.008-0.056 0.016-0.056 0.010 0 0.016-0.032 0.016-0.072 0-0.041 0.010-0.092 0.022-0.116s0.029-0.104 0.035-0.177c0.010-0.116 0.016-0.139 0.056-0.178 0.056-0.057 0.059-0.11 0.011-0.201l-0.035-0.065 0.038-0.057c0.029-0.040 0.053-0.057 0.088-0.061 0.046-0.005 0.048-0.008 0.061-0.108 0.006-0.057 0.030-0.137 0.051-0.178 0.032-0.061 0.037-0.083 0.024-0.116-0.010-0.024-0.016-0.070-0.016-0.107 0-0.054 0.011-0.076 0.073-0.145 0.092-0.104 0.108-0.143 0.084-0.213-0.022-0.068-0.010-0.139 0.040-0.212 0.148-0.223 0.159-0.248 0.17-0.339 0.008-0.062 0.022-0.105 0.045-0.129 0.035-0.037 0.046-0.127 0.017-0.145-0.021-0.013-0.002-0.053 0.032-0.064 0.040-0.013 0.1-0.111 0.099-0.164 0-0.046 0.024-0.1 0.051-0.118 0.010-0.006 0.017-0.061 0.019-0.119 0.002-0.206 0.035-0.226 0.164-0.1 0.048 0.046 0.097 0.080 0.118 0.080 0.049 0.002 0.131 0.076 0.162 0.151 0.089 0.206 0.070 0.433-0.038 0.428-0.017 0-0.033 0.008-0.033 0.021 0 0.011 0.011 0.021 0.024 0.021 0.027 0 0.104 0.045 0.123 0.072 0.006 0.008 0.013 0.065 0.013 0.126v0.11l0.046-0.010c0.033-0.006 0.049-0.003 0.056 0.014 0.019 0.049 0.008 0.072-0.046 0.096l-0.056 0.022 0.010 0.132c0.006 0.072 0.017 0.143 0.024 0.158 0.008 0.014 0.014 0.056 0.014 0.091 0 0.065 0.021 0.091 0.067 0.084 0.040-0.006 0.065 0.049 0.041 0.099-0.010 0.022-0.027 0.041-0.038 0.041-0.016 0-0.016 0.011 0.003 0.056 0.011 0.030 0.022 0.091 0.022 0.135s0.011 0.102 0.024 0.129c0.027 0.051 0.029 0.172 0.003 0.274-0.013 0.051-0.011 0.068 0.016 0.104 0.032 0.043 0.062 0.194 0.040 0.194-0.006 0-0.022-0.010-0.033-0.019-0.017-0.017-0.019-0.006-0.011 0.059 0.006 0.045 0.013 0.11 0.016 0.145 0.002 0.038 0.019 0.084 0.038 0.11 0.043 0.054 0.045 0.081 0.005 0.092-0.041 0.011-0.061 0.159-0.026 0.212 0.026 0.038 0.026 0.124 0.002 0.448-0.010 0.126-0.010 0.131 0.032 0.162 0.029 0.022 0.043 0.048 0.041 0.078-0.006 0.475-0.005 0.511 0.016 0.548 0.014 0.026 0.022 0.123 0.026 0.331 0.006 0.379 0.011 0.443 0.037 0.505 0.017 0.045 0.017 0.059-0.006 0.11-0.024 0.049-0.026 0.070-0.010 0.151 0.010 0.053 0.026 0.099 0.032 0.104 0.008 0.005 0.014 0.021 0.014 0.037 0 0.017 0.027 0.068 0.059 0.115 0.038 0.056 0.057 0.102 0.057 0.134-0.002 0.026-0.005 0.156-0.010 0.287-0.010 0.322-0.037 0.491-0.094 0.564-0.016 0.021-0.029 0.054-0.029 0.075 0 0.045-0.086 0.212-0.124 0.242-0.014 0.011-0.038 0.027-0.051 0.035-0.014 0.008-0.021 0.033-0.019 0.067 0.003 0.045-0.006 0.065-0.053 0.11-0.032 0.030-0.078 0.091-0.104 0.135-0.041 0.070-0.102 0.135-0.202 0.215-0.011 0.008-0.021 0.033-0.021 0.054 0 0.029-0.030 0.068-0.104 0.139-0.059 0.056-0.118 0.127-0.135 0.167-0.016 0.038-0.054 0.1-0.084 0.137s-0.062 0.089-0.072 0.118c-0.017 0.056-0.116 0.151-0.212 0.209-0.035 0.021-0.062 0.046-0.062 0.059s-0.040 0.056-0.088 0.097c-0.048 0.041-0.088 0.088-0.088 0.104 0 0.024-0.086 0.078-0.124 0.078-0.022 0-0.126 0.118-0.137 0.156-0.013 0.038-0.158 0.14-0.22 0.154-0.027 0.008-0.045 0.024-0.048 0.045-0.005 0.032-0.014 0.035-0.147 0.040-0.089 0.002-0.15-0.003-0.164-0.016-0.016-0.013-0.027-0.013-0.040 0-0.029 0.029-0.083 0.022-0.142-0.017z"></path>
<path d="M7.111 29.917c-0.040-0.006-0.088-0.019-0.107-0.030s-0.067-0.019-0.107-0.019c-0.040 0-0.091-0.008-0.113-0.019-0.037-0.016-0.040-0.024-0.030-0.084 0.010-0.064 0.006-0.068-0.116-0.209-0.068-0.078-0.151-0.154-0.182-0.169-0.032-0.014-0.070-0.046-0.084-0.068-0.022-0.033-0.032-0.038-0.051-0.022-0.032 0.027-0.075-0.016-0.1-0.097-0.010-0.033-0.043-0.086-0.072-0.115-0.18-0.178-0.228-0.22-0.252-0.22-0.038 0-0.113-0.035-0.135-0.064-0.010-0.013-0.013-0.035-0.006-0.048 0.019-0.037-0.011-0.124-0.048-0.143-0.018-0.010-0.053-0.013-0.078-0.008-0.065 0.014-0.099-0.010-0.147-0.107-0.049-0.1-0.099-0.156-0.139-0.156-0.014 0-0.051-0.032-0.081-0.072-0.059-0.078-0.064-0.081-0.092-0.053-0.030 0.030-0.064-0.010-0.035-0.041 0.016-0.022 0.010-0.030-0.054-0.057-0.059-0.026-0.080-0.045-0.104-0.099-0.016-0.038-0.045-0.078-0.064-0.089s-0.033-0.033-0.033-0.051c0-0.022-0.029-0.051-0.088-0.088-0.089-0.057-0.119-0.096-0.119-0.148 0-0.017-0.011-0.040-0.024-0.051s-0.021-0.026-0.016-0.032c0.008-0.013-0.076-0.19-0.099-0.206-0.027-0.021-0.1-0.196-0.1-0.242 0-0.041-0.005-0.048-0.032-0.041-0.022 0.006-0.045-0.008-0.080-0.049-0.084-0.102-0.1-0.115-0.14-0.115-0.032 0-0.035-0.005-0.021-0.022 0.011-0.013 0.018-0.049 0.014-0.083-0.005-0.051-0.016-0.067-0.084-0.113-0.046-0.032-0.086-0.073-0.094-0.097s-0.024-0.070-0.038-0.104c-0.019-0.046-0.021-0.067-0.006-0.1 0.030-0.065 0.024-0.084-0.064-0.162-0.046-0.041-0.123-0.115-0.167-0.162-0.070-0.073-0.084-0.097-0.084-0.147 0-0.032-0.006-0.064-0.016-0.068-0.008-0.005-0.037-0.054-0.062-0.11-0.041-0.084-0.060-0.107-0.129-0.143-0.043-0.024-0.086-0.057-0.096-0.073-0.008-0.016-0.040-0.037-0.070-0.048-0.038-0.013-0.056-0.029-0.064-0.061-0.005-0.024-0.037-0.064-0.072-0.091-0.041-0.030-0.064-0.061-0.065-0.084 0-0.030 0.006-0.035 0.032-0.027 0.029 0.010 0.032 0.003 0.032-0.049 0-0.107-0.1-0.213-0.177-0.19-0.056 0.017-0.094-0.019-0.094-0.089 0-0.041-0.011-0.080-0.032-0.105-0.019-0.026-0.032-0.065-0.032-0.102 0-0.053-0.008-0.065-0.072-0.111-0.041-0.030-0.076-0.070-0.083-0.092-0.005-0.022-0.022-0.068-0.038-0.1-0.018-0.033-0.030-0.088-0.030-0.121 0-0.089-0.029-0.162-0.064-0.162-0.016 0-0.045-0.024-0.062-0.051-0.062-0.097-0.113-0.161-0.145-0.183-0.037-0.026-0.040-0.064-0.014-0.123 0.027-0.057-0.003-0.118-0.091-0.191-0.056-0.048-0.070-0.068-0.070-0.11 0-0.030-0.018-0.078-0.043-0.115-0.027-0.040-0.043-0.088-0.046-0.134-0.002-0.040-0.022-0.11-0.045-0.154-0.027-0.054-0.040-0.104-0.037-0.142 0.003-0.056-0.002-0.064-0.056-0.092-0.033-0.017-0.060-0.041-0.060-0.051 0-0.026-0.048-0.121-0.078-0.156-0.021-0.024-0.021-0.032-0.002-0.043 0.018-0.011 0.011-0.032-0.029-0.107-0.027-0.051-0.062-0.119-0.076-0.151-0.018-0.038-0.043-0.065-0.072-0.075-0.049-0.017-0.070-0.054-0.086-0.147-0.011-0.073-0.057-0.115-0.121-0.113l-0.049 0.002 0.010-0.076c0.008-0.064 0.005-0.081-0.022-0.105-0.016-0.014-0.041-0.024-0.056-0.019-0.029 0.011-0.030-0.003-0.008-0.061 0.019-0.051-0.013-0.123-0.072-0.161-0.043-0.029-0.053-0.083-0.021-0.134 0.016-0.026 0.014-0.038-0.016-0.078-0.019-0.027-0.035-0.059-0.035-0.070 0-0.013-0.018-0.035-0.040-0.049-0.054-0.035-0.081-0.096-0.094-0.207-0.013-0.108-0.030-0.137-0.083-0.137-0.043 0-0.059-0.021-0.046-0.062 0.006-0.021 0.019-0.027 0.043-0.021 0.030 0.008 0.032 0.003 0.022-0.064-0.008-0.057-0.006-0.075 0.014-0.081 0.048-0.019 0.010-0.145-0.043-0.137-0.045 0.005-0.060-0.003-0.084-0.049s-0.022-0.048 0.024-0.091c0.033-0.029 0.045-0.051 0.038-0.067-0.006-0.014-0.013-0.065-0.014-0.115-0.002-0.070-0.011-0.105-0.049-0.167-0.038-0.059-0.059-0.124-0.086-0.274-0.029-0.153-0.045-0.201-0.070-0.22-0.030-0.021-0.030-0.027-0.013-0.096 0.016-0.056 0.016-0.097 0.002-0.178s-0.014-0.116 0.002-0.159c0.017-0.048 0.016-0.059-0.014-0.099-0.048-0.067-0.054-0.11-0.033-0.279 0.017-0.142 0.016-0.156-0.011-0.186-0.022-0.026-0.027-0.053-0.024-0.132 0.005-0.068-0.002-0.115-0.019-0.148-0.029-0.056-0.033-0.14-0.010-0.154 0.010-0.005 0.016-0.022 0.016-0.038 0-0.024-0.013-0.029-0.059-0.027-0.051 0.002-0.060-0.003-0.065-0.035-0.003-0.022 0.008-0.046 0.030-0.065 0.029-0.022 0.033-0.038 0.024-0.083-0.005-0.030-0.021-0.075-0.033-0.1-0.035-0.067-0.029-0.11 0.024-0.161 0.057-0.054 0.057-0.059 0.013-0.080-0.038-0.017-0.068-0.116-0.043-0.142 0.008-0.010 0.014-0.040 0.014-0.068 0-0.041-0.006-0.053-0.030-0.053-0.032 0-0.049-0.070-0.057-0.223-0.002-0.040-0.008-0.083-0.013-0.096-0.003-0.013-0.014-0.059-0.021-0.104-0.013-0.067-0.021-0.081-0.051-0.084-0.049-0.008-0.060-0.041-0.029-0.086 0.032-0.046 0.032-0.127 0-0.19-0.027-0.056-0.018-0.177 0.019-0.207 0.041-0.035 0.027-0.065-0.030-0.059-0.037 0.003-0.051-0.002-0.051-0.019 0-0.014 0.017-0.026 0.041-0.029 0.037-0.005 0.041-0.011 0.041-0.067 0-0.035 0.010-0.084 0.021-0.11 0.027-0.065 0.013-0.091-0.056-0.104-0.045-0.010-0.062-0.024-0.083-0.067-0.025-0.053-0.025-0.057 0.008-0.126 0.043-0.089 0.043-0.119 0.003-0.186-0.024-0.041-0.032-0.088-0.035-0.199-0.002-0.081 0.002-0.151 0.008-0.158s0-0.024-0.014-0.040c-0.027-0.030-0.029-0.048-0.013-0.169 0.010-0.075 0.006-0.088-0.032-0.134-0.038-0.045-0.041-0.059-0.032-0.132 0.005-0.045 0.021-0.089 0.032-0.099 0.018-0.014 0.019-0.029 0.003-0.072-0.010-0.030-0.027-0.068-0.040-0.088-0.014-0.022-0.021-0.115-0.024-0.327-0.006-0.58-0.005-0.637 0.033-0.836 0.033-0.17 0.035-0.209 0.021-0.342-0.013-0.118-0.013-0.153 0.003-0.166 0.037-0.029 0.043-0.081 0.021-0.15-0.024-0.068-0.010-0.104 0.038-0.094 0.018 0.003 0.022-0.038 0.022-0.212 0-0.191 0.003-0.221 0.030-0.252 0.045-0.049 0.054-0.15 0.048-0.543-0.005-0.317-0.002-0.37 0.025-0.457 0.017-0.054 0.043-0.118 0.056-0.139 0.018-0.027 0.024-0.056 0.016-0.088-0.006-0.033 0.003-0.080 0.033-0.156 0.053-0.129 0.089-0.451 0.065-0.551-0.011-0.041-0.010-0.080 0.003-0.123 0.013-0.045 0.014-0.11 0.002-0.245-0.010-0.119-0.011-0.221 0-0.291 0.011-0.088 0.019-0.36 0.016-0.537-0.002-0.018 0.013-0.051 0.030-0.075 0.045-0.060 0.094-0.188 0.094-0.242 0-0.024 0.010-0.056 0.024-0.072 0.024-0.027 0.041-0.143 0.049-0.314 0.003-0.1 0.051-0.22 0.096-0.236 0.019-0.008 0.019-0.026-0.008-0.129l-0.030-0.119 0.038-0.061c0.022-0.033 0.054-0.078 0.070-0.1 0.029-0.037 0.029-0.046 0.010-0.119-0.032-0.119-0.029-0.147 0.021-0.17 0.038-0.018 0.046-0.033 0.056-0.107 0.008-0.064 0.025-0.108 0.075-0.177 0.060-0.086 0.070-0.121 0.064-0.223-0.003-0.057 0.024-0.201 0.041-0.223 0.011-0.013 0.024-0.059 0.030-0.1 0.006-0.059 0.022-0.089 0.057-0.123 0.026-0.024 0.048-0.056 0.048-0.070 0-0.013 0.013-0.032 0.030-0.040 0.024-0.014 0.032-0.043 0.041-0.172 0.013-0.177 0.026-0.218 0.083-0.279 0.024-0.024 0.051-0.070 0.064-0.1 0.011-0.030 0.030-0.083 0.043-0.115 0.013-0.033 0.035-0.064 0.049-0.065 0.037-0.008 0.054-0.065 0.045-0.15-0.008-0.065-0.005-0.075 0.029-0.094 0.053-0.027 0.064-0.048 0.053-0.097-0.006-0.032 0-0.046 0.024-0.061 0.019-0.010 0.033-0.026 0.033-0.037s0.014-0.029 0.032-0.040c0.024-0.014 0.030-0.030 0.022-0.056-0.010-0.041 0.035-0.129 0.108-0.215 0.030-0.035 0.045-0.070 0.045-0.107 0-0.038 0.008-0.056 0.022-0.056 0.038 0 0.043-0.027 0.014-0.078l-0.029-0.048 0.068-0.057c0.086-0.075 0.118-0.135 0.111-0.22-0.005-0.061-0.002-0.068 0.048-0.091 0.062-0.030 0.083-0.057 0.083-0.111 0-0.022 0.018-0.065 0.038-0.096s0.043-0.073 0.049-0.096c0.006-0.022 0.022-0.054 0.033-0.072 0.013-0.018 0.022-0.051 0.022-0.073 0-0.038 0.065-0.14 0.1-0.154 0.006-0.003 0.033-0.024 0.059-0.046 0.038-0.032 0.045-0.045 0.032-0.068-0.040-0.073 0.013-0.159 0.097-0.159 0.057 0 0.067-0.035 0.038-0.132l-0.022-0.075 0.053-0.022c0.037-0.014 0.057-0.037 0.064-0.067 0.006-0.026 0.021-0.067 0.032-0.094 0.037-0.088 0.060-0.159 0.068-0.206 0.006-0.032 0.024-0.051 0.062-0.067 0.054-0.022 0.075-0.059 0.070-0.131s0-0.099 0.016-0.099c0.026 0 0.075-0.051 0.086-0.091 0.006-0.019 0.053-0.076 0.102-0.127s0.102-0.121 0.115-0.156c0.018-0.046 0.040-0.072 0.081-0.092 0.045-0.021 0.067-0.048 0.094-0.111 0.022-0.049 0.070-0.116 0.121-0.166 0.091-0.089 0.113-0.099 0.127-0.060 0.006 0.013 0.026 0.024 0.046 0.024 0.019 0 0.045-0.011 0.056-0.024 0.027-0.032 0.043-0.030 0.056 0.008 0.006 0.018 0.029 0.051 0.051 0.073 0.033 0.033 0.038 0.048 0.029 0.103-0.008 0.046-0.003 0.073 0.014 0.102 0.038 0.059 0.030 0.135-0.022 0.207-0.026 0.035-0.057 0.078-0.070 0.096-0.018 0.026-0.019 0.054-0.006 0.148l0.016 0.115-0.049 0.057c-0.056 0.064-0.064 0.123-0.026 0.229 0.013 0.037 0.019 0.073 0.014 0.083-0.005 0.008-0.038 0.013-0.075 0.010-0.068-0.005-0.092 0.019-0.059 0.059 0.010 0.013 0.019 0.057 0.019 0.099s0.008 0.086 0.018 0.097c0.014 0.019-0.002 0.027-0.048 0.021-0.045-0.006-0.083 0.032-0.092 0.091-0.026 0.159-0.043 0.209-0.083 0.234-0.032 0.022-0.038 0.037-0.035 0.088 0.003 0.035 0 0.067-0.006 0.073-0.018 0.018-0.013 0.131 0.006 0.199 0.021 0.067 0.005 0.127-0.051 0.193-0.026 0.029-0.030 0.049-0.021 0.123 0.006 0.060 0.002 0.111-0.014 0.158-0.019 0.056-0.021 0.108-0.010 0.293 0.014 0.237 0.010 0.29-0.030 0.336-0.018 0.019-0.024 0.053-0.021 0.099 0.002 0.038-0.003 0.084-0.013 0.102-0.011 0.021-0.013 0.035-0.002 0.041 0.027 0.018 0.018 0.097-0.018 0.129-0.029 0.026-0.032 0.046-0.029 0.162 0.003 0.113-0.002 0.139-0.032 0.178-0.021 0.030-0.033 0.070-0.033 0.111 0 0.035-0.006 0.076-0.014 0.092-0.078 0.154-0.099 0.245-0.065 0.266 0.026 0.016 0.019 0.059-0.013 0.094-0.046 0.051-0.070 0.241-0.068 0.532 0 0.147-0.006 0.292-0.014 0.325-0.010 0.032-0.018 0.111-0.018 0.175-0.002 0.075-0.011 0.131-0.027 0.154-0.016 0.026-0.022 0.073-0.021 0.137 0.002 0.054-0.010 0.147-0.024 0.209-0.014 0.061-0.026 0.151-0.024 0.202 0 0.051-0.006 0.107-0.014 0.124-0.019 0.035 0.008 0.167 0.041 0.207 0.029 0.033 0.029 0.134-0.002 0.231-0.030 0.1-0.030 0.148 0 0.182 0.018 0.021 0.021 0.038 0.011 0.065-0.026 0.067-0.037 0.25-0.038 0.628 0 0.247 0.005 0.382 0.018 0.413 0.013 0.033 0.016 0.148 0.010 0.401-0.008 0.32-0.006 0.36 0.019 0.398 0.018 0.029 0.027 0.080 0.030 0.156 0.002 0.064 0.011 0.143 0.022 0.177 0.045 0.15 0.048 0.175 0.029 0.257-0.013 0.060-0.013 0.096 0 0.132 0.013 0.035 0.013 0.064 0.002 0.094-0.010 0.024-0.016 0.102-0.016 0.174 0.002 0.108 0.008 0.14 0.038 0.185 0.019 0.029 0.049 0.094 0.067 0.147 0.024 0.067 0.045 0.1 0.076 0.118 0.038 0.022 0.043 0.032 0.035 0.073-0.030 0.148-0.030 0.148 0.021 0.174 0.026 0.013 0.067 0.057 0.089 0.097 0.038 0.064 0.045 0.096 0.051 0.244l0.008 0.169 0.086 0.129c0.075 0.11 0.088 0.139 0.088 0.204s0.005 0.075 0.040 0.084c0.021 0.005 0.043 0.025 0.049 0.043 0.010 0.029 0.019 0.247 0.022 0.456 0 0.022 0.011 0.056 0.024 0.075 0.013 0.021 0.024 0.057 0.024 0.081s0.014 0.067 0.032 0.092c0.018 0.027 0.032 0.075 0.032 0.108s0.011 0.078 0.026 0.1c0.021 0.032 0.024 0.062 0.018 0.147-0.011 0.107-0.010 0.108 0.037 0.135 0.026 0.016 0.059 0.053 0.072 0.081 0.014 0.030 0.040 0.067 0.057 0.083 0.016 0.014 0.030 0.040 0.030 0.056 0 0.040 0.078 0.306 0.092 0.317 0.045 0.032 0.096 0.193 0.084 0.272-0.002 0.014 0.022 0.060 0.051 0.104 0.030 0.045 0.061 0.102 0.065 0.129 0.008 0.033 0.032 0.064 0.075 0.092 0.070 0.049 0.067 0.040 0.062 0.193l-0.003 0.113 0.059 0.033c0.032 0.019 0.070 0.056 0.084 0.083 0.014 0.025 0.037 0.048 0.048 0.048 0.010 0 0.019 0.014 0.019 0.033 0 0.033 0 0.033-0.029-0.002-0.026-0.032-0.030-0.032-0.049-0.011-0.026 0.032-0.010 0.084 0.030 0.096 0.019 0.005 0.037 0.032 0.046 0.072 0.010 0.033 0.030 0.080 0.048 0.1 0.016 0.021 0.041 0.061 0.056 0.089s0.045 0.061 0.068 0.072c0.041 0.019 0.045 0.029 0.053 0.143 0.008 0.129 0.013 0.137 0.14 0.263 0.038 0.038 0.045 0.061 0.019 0.076-0.054 0.033 0.024 0.202 0.104 0.221 0.032 0.008 0.040 0.021 0.040 0.062 0 0.070 0.072 0.177 0.113 0.166 0.046-0.013 0.037 0.024-0.027 0.097l-0.057 0.067 0.057 0.024c0.048 0.021 0.057 0.032 0.057 0.070 0 0.032 0.013 0.056 0.043 0.078 0.041 0.030 0.041 0.033 0.022 0.092-0.021 0.064-0.005 0.15 0.029 0.15 0.008 0 0.027 0.011 0.041 0.026 0.022 0.024 0.022 0.030-0.008 0.078l-0.032 0.051 0.051 0.070c0.027 0.038 0.067 0.086 0.088 0.105 0.022 0.021 0.037 0.054 0.037 0.081 0 0.024 0.011 0.059 0.024 0.076 0.013 0.016 0.024 0.048 0.024 0.070 0 0.053 0.041 0.111 0.078 0.111 0.053 0 0.065 0.038 0.064 0.185-0.003 0.175 0.005 0.202 0.068 0.231 0.059 0.026 0.129 0.135 0.147 0.226 0.006 0.032 0.029 0.076 0.049 0.099 0.029 0.027 0.040 0.056 0.040 0.102 0 0.054 0.006 0.067 0.054 0.094 0.049 0.029 0.056 0.041 0.061 0.11 0.003 0.062 0.011 0.076 0.037 0.081 0.051 0.008 0.104 0.038 0.104 0.061 0 0.011 0.022 0.043 0.048 0.070 0.038 0.040 0.045 0.056 0.032 0.080-0.010 0.016-0.024 0.035-0.032 0.040-0.038 0.024-0.013 0.073 0.062 0.123 0.104 0.067 0.124 0.105 0.091 0.167-0.022 0.046-0.022 0.049 0.011 0.067 0.045 0.026 0.123 0.147 0.123 0.191 0 0.022 0.016 0.041 0.045 0.054 0.054 0.024 0.081 0.057 0.083 0.104 0 0.024 0.010 0.035 0.032 0.035 0.027 0 0.032 0.011 0.032 0.062 0 0.057 0.013 0.111 0.051 0.212 0.011 0.029 0.035 0.049 0.070 0.061 0.068 0.022 0.094 0.067 0.067 0.11-0.016 0.027-0.014 0.038 0.013 0.068 0.064 0.075 0.097 0.134 0.108 0.194 0.008 0.037 0.030 0.080 0.056 0.104 0.062 0.059 0.129 0.185 0.129 0.245 0 0.075 0.030 0.17 0.057 0.182 0.013 0.005 0.048 0.045 0.076 0.091 0.045 0.067 0.054 0.1 0.061 0.194s0.016 0.124 0.053 0.172c0.026 0.033 0.068 0.068 0.097 0.081 0.045 0.017 0.057 0.035 0.073 0.097 0.016 0.057 0.038 0.089 0.091 0.132 0.123 0.1 0.172 0.151 0.183 0.19 0.010 0.029 0.018 0.033 0.033 0.019 0.016-0.013 0.030-0.013 0.056 0 0.037 0.019 0.029 0.048-0.014 0.048-0.048 0-0.049 0.019-0.010 0.067 0.022 0.026 0.040 0.064 0.040 0.086 0 0.021 0.006 0.038 0.014 0.038 0.024 0 0.161 0.131 0.185 0.177 0.013 0.024 0.041 0.064 0.064 0.088s0.045 0.072 0.051 0.107c0.005 0.033 0.019 0.070 0.033 0.080 0.076 0.061 0.226 0.218 0.248 0.263 0.014 0.029 0.038 0.051 0.056 0.051 0.038 0 0.147 0.086 0.174 0.139 0.013 0.022 0.045 0.061 0.073 0.084 0.033 0.030 0.057 0.072 0.072 0.126 0.013 0.053 0.030 0.083 0.051 0.089 0.022 0.008 0.030 0.026 0.030 0.064 0 0.045 0.006 0.057 0.038 0.065 0.022 0.005 0.048 0.005 0.056-0.002 0.022-0.013 0.022 0.033 0 0.075-0.032 0.057-0.033 0.159-0.003 0.191 0.027 0.029 0.029 0.089 0.019 0.363-0.003 0.048 0 0.22 0.006 0.382 0.008 0.264 0.006 0.306-0.022 0.406-0.054 0.19-0.059 0.212-0.049 0.258 0.003 0.024 0.018 0.057 0.030 0.072 0.021 0.024 0.021 0.037 0 0.111-0.038 0.126-0.048 0.245-0.024 0.282 0.016 0.027 0.014 0.040-0.013 0.076-0.030 0.040-0.030 0.053-0.014 0.118 0.018 0.065 0.016 0.078-0.010 0.111-0.016 0.021-0.030 0.046-0.030 0.054 0 0.010-0.022 0.033-0.049 0.056-0.037 0.032-0.051 0.057-0.056 0.111-0.011 0.094-0.048 0.186-0.096 0.244-0.021 0.026-0.038 0.053-0.038 0.061 0 0.010-0.018 0.043-0.040 0.075s-0.040 0.076-0.040 0.099c0 0.022-0.014 0.062-0.032 0.088-0.018 0.027-0.032 0.075-0.032 0.107 0 0.037-0.013 0.075-0.037 0.104-0.021 0.024-0.057 0.081-0.083 0.124-0.024 0.045-0.070 0.118-0.1 0.164-0.038 0.059-0.053 0.096-0.046 0.124 0.008 0.046-0.072 0.183-0.131 0.225-0.019 0.013-0.033 0.030-0.033 0.040 0 0.011-0.024 0.041-0.054 0.068s-0.060 0.072-0.067 0.097c-0.013 0.054-0.051 0.102-0.080 0.102-0.011 0-0.029 0.014-0.038 0.030-0.008 0.017-0.030 0.035-0.048 0.041-0.024 0.008-0.029 0.019-0.022 0.053 0.011 0.057-0.045 0.123-0.127 0.151-0.068 0.024-0.081 0.040-0.097 0.115-0.006 0.032-0.057 0.092-0.15 0.183-0.078 0.075-0.153 0.159-0.167 0.188-0.022 0.041-0.035 0.051-0.080 0.051-0.043 0-0.056 0.008-0.064 0.038-0.005 0.021-0.033 0.056-0.064 0.078-0.037 0.029-0.057 0.061-0.064 0.099-0.006 0.030-0.021 0.056-0.032 0.056s-0.033 0.014-0.049 0.032c-0.016 0.017-0.037 0.030-0.046 0.030-0.010-0.002-0.049-0.008-0.089-0.013z"></path>
<path d="M10.947 29.302c-0.041-0.011-0.091-0.032-0.111-0.046-0.046-0.032-0.147-0.033-0.172-0.002-0.029 0.035-0.053 0.006-0.033-0.041 0.013-0.035 0.006-0.048-0.048-0.102-0.037-0.037-0.062-0.076-0.062-0.099 0-0.026-0.014-0.043-0.043-0.056-0.124-0.054-0.26-0.22-0.26-0.317 0-0.045-0.008-0.062-0.040-0.078-0.022-0.011-0.045-0.017-0.049-0.013-0.013 0.013-0.107-0.096-0.142-0.161-0.024-0.046-0.024-0.062-0.006-0.124 0.016-0.061 0.016-0.080-0.005-0.123-0.081-0.167-0.089-0.202-0.054-0.231 0.032-0.027 0.045-0.147 0.018-0.177-0.038-0.045-0.045-0.121-0.011-0.154 0.057-0.054 0.068-0.094 0.057-0.207-0.006-0.061-0.018-0.124-0.024-0.145-0.011-0.027-0.006-0.048 0.019-0.081l0.033-0.045-0.049-0.086c-0.054-0.099-0.060-0.135-0.043-0.239 0.008-0.051 0.006-0.086-0.008-0.111-0.022-0.041-0.021-0.202 0.002-0.263 0.010-0.021 0.010-0.068 0.002-0.108-0.011-0.062-0.008-0.075 0.021-0.1 0.032-0.027 0.033-0.043 0.030-0.255-0.002-0.207-0.005-0.229-0.038-0.274-0.049-0.067-0.049-0.202 0-0.239 0.030-0.024 0.032-0.029 0.011-0.057-0.043-0.062-0.046-0.167-0.010-0.274 0.019-0.056 0.033-0.139 0.035-0.198 0-0.056 0.002-0.123 0.002-0.15 0.005-0.132-0.003-0.569-0.011-0.653-0.024-0.225-0.027-0.341-0.011-0.373 0.013-0.022 0.013-0.076 0.002-0.188-0.022-0.207-0.013-0.269 0.046-0.28 0.046-0.010 0.089-0.043 0.102-0.078 0.005-0.014 0.024-0.003 0.057 0.032 0.027 0.027 0.059 0.051 0.072 0.051 0.011 0 0.040 0.029 0.064 0.064 0.048 0.073 0.057 0.076 0.097 0.032 0.041-0.046 0.059-0.040 0.134 0.040 0.064 0.068 0.084 0.137 0.049 0.159-0.008 0.005-0.016 0.026-0.016 0.046 0 0.035 0.053 0.073 0.1 0.073 0.011 0 0.040 0.017 0.065 0.037 0.037 0.030 0.048 0.056 0.059 0.127 0.006 0.049 0.029 0.127 0.051 0.174s0.053 0.115 0.067 0.151c0.014 0.037 0.038 0.072 0.053 0.076 0.022 0.006 0.027 0.030 0.027 0.121s0.005 0.116 0.030 0.134c0.016 0.013 0.053 0.045 0.083 0.072 0.053 0.048 0.054 0.049 0.045 0.151-0.008 0.084-0.005 0.105 0.016 0.113 0.041 0.016 0.086 0.105 0.099 0.193 0.010 0.073 0.014 0.084 0.056 0.092 0.072 0.016 0.086 0.045 0.065 0.137-0.011 0.045-0.019 0.11-0.019 0.145v0.064l0.060-0.006 0.059-0.005-0.005 0.104c-0.005 0.096-0.003 0.107 0.037 0.14 0.035 0.030 0.041 0.046 0.032 0.080-0.027 0.113-0.027 0.147 0.008 0.217 0.025 0.054 0.037 0.113 0.043 0.228 0.006 0.147 0.011 0.166 0.081 0.304 0.080 0.161 0.081 0.175 0.053 0.405-0.010 0.086-0.011 0.154-0.003 0.177 0.010 0.022 0.010 0.046 0 0.061-0.024 0.038-0.016 0.073 0.018 0.083 0.043 0.011 0.068 0.083 0.046 0.126-0.019 0.037-0.013 0.108 0.019 0.185 0.018 0.041 0.018 0.061 0 0.104-0.011 0.027-0.027 0.078-0.035 0.11-0.021 0.086-0.029 0.428-0.010 0.475 0.008 0.022 0.018 0.207 0.021 0.409 0.006 0.355 0.006 0.371-0.025 0.403-0.033 0.033-0.073 0.040-0.11 0.017-0.029-0.019-0.126 0.029-0.137 0.065-0.006 0.016-0.021 0.040-0.035 0.053-0.022 0.024-0.022 0.027 0 0.045 0.022 0.016 0.022 0.024 0.005 0.048-0.018 0.022-0.046 0.027-0.147 0.029-0.070 0.002-0.14 0-0.158-0.002s-0.057 0-0.088 0.005c-0.030 0.005-0.089-0.002-0.131-0.013z"></path>
<path d="M24.827 29.141c-0.019-0.013-0.035-0.035-0.035-0.049 0-0.041-0.078-0.132-0.104-0.123-0.024 0.010-0.030-0.010-0.046-0.123-0.003-0.032-0.026-0.088-0.048-0.123s-0.045-0.083-0.051-0.105c-0.006-0.026-0.024-0.045-0.046-0.051-0.048-0.011-0.078-0.086-0.065-0.153 0.006-0.029 0.013-0.1 0.016-0.159s0.014-0.118 0.024-0.131c0.016-0.019 0.005-0.035-0.068-0.092-0.086-0.067-0.089-0.072-0.089-0.145 0-0.092-0.022-0.139-0.067-0.139-0.027 0-0.030-0.006-0.022-0.043 0.024-0.108 0.041-0.255 0.033-0.287-0.005-0.019-0.040-0.057-0.080-0.084s-0.072-0.051-0.072-0.053c-0.002-0.002-0.011-0.067-0.024-0.147-0.016-0.108-0.030-0.15-0.054-0.169-0.040-0.032-0.041-0.045-0.010-0.104 0.013-0.026 0.024-0.059 0.024-0.076 0-0.035-0.059-0.147-0.1-0.19-0.019-0.019-0.027-0.043-0.021-0.072 0.005-0.024 0.013-0.084 0.019-0.135 0.011-0.099-0.010-0.159-0.084-0.253-0.037-0.046-0.064-0.19-0.043-0.223 0.021-0.032 0.006-0.111-0.027-0.166-0.016-0.027-0.030-0.075-0.030-0.107 0-0.040-0.008-0.061-0.027-0.067-0.035-0.011-0.132-0.156-0.132-0.194 0-0.016 0.006-0.038 0.014-0.051 0.011-0.016 0-0.043-0.033-0.091-0.048-0.067-0.048-0.072-0.037-0.19 0.016-0.178-0.002-0.274-0.061-0.328-0.043-0.040-0.046-0.049-0.029-0.081 0.083-0.156 0.080-0.147 0.048-0.169-0.017-0.011-0.030-0.035-0.030-0.051s-0.016-0.041-0.033-0.054c-0.030-0.021-0.035-0.038-0.032-0.135 0.002-0.094-0.006-0.134-0.048-0.236-0.043-0.107-0.051-0.143-0.051-0.269-0.002-0.119 0.005-0.154 0.030-0.19 0.056-0.080 0.084-0.143 0.086-0.186 0-0.027 0.022-0.067 0.061-0.105 0.032-0.035 0.068-0.075 0.080-0.089s0.033-0.026 0.049-0.026c0.038 0 0.104-0.072 0.092-0.102-0.006-0.016-0.002-0.021 0.013-0.014 0.013 0.005 0.045-0.010 0.072-0.032 0.026-0.022 0.075-0.045 0.111-0.051 0.073-0.013 0.096-0.037 0.059-0.064-0.038-0.027-0.033-0.067 0.010-0.089 0.019-0.010 0.053-0.035 0.075-0.054 0.022-0.021 0.054-0.040 0.072-0.043s0.038-0.021 0.048-0.041c0.008-0.019 0.026-0.035 0.037-0.035 0.037 0 0.143-0.081 0.153-0.116 0.005-0.017 0-0.043-0.010-0.054-0.026-0.030 0.022-0.096 0.070-0.094 0.024 0.002 0.041-0.011 0.053-0.035 0.008-0.019 0.027-0.038 0.040-0.043 0.014-0.005 0.038-0.029 0.053-0.056 0.016-0.026 0.049-0.061 0.075-0.080 0.026-0.017 0.049-0.046 0.056-0.062 0.005-0.016 0.030-0.038 0.056-0.049 0.033-0.014 0.048-0.030 0.048-0.056 0-0.046 0.016-0.061 0.043-0.037 0.032 0.026 0.045 0.002 0.022-0.041-0.027-0.049 0-0.1 0.059-0.116 0.053-0.013 0.204-0.121 0.226-0.162 0.008-0.017 0.016-0.054 0.016-0.081 0-0.038 0.011-0.056 0.053-0.080 0.030-0.017 0.062-0.049 0.073-0.070s0.081-0.092 0.154-0.161c0.134-0.121 0.154-0.151 0.11-0.151-0.013 0-0.024-0.011-0.024-0.026 0-0.046 0.033-0.086 0.072-0.086 0.056 0 0.086-0.016 0.076-0.040-0.003-0.013 0-0.032 0.011-0.043 0.010-0.011 0.032-0.045 0.048-0.072 0.024-0.041 0.041-0.053 0.080-0.053 0.089 0 0.154-0.059 0.202-0.183 0.024-0.061 0.041-0.123 0.040-0.137-0.003-0.016 0.014-0.033 0.041-0.045 0.053-0.022 0.065-0.045 0.113-0.199 0.049-0.154 0.107-0.245 0.175-0.277 0.072-0.033 0.081-0.046 0.081-0.108 0-0.038 0.019-0.067 0.088-0.135 0.072-0.070 0.088-0.096 0.086-0.134-0.006-0.094 0.002-0.135 0.032-0.162 0.019-0.019 0.032-0.061 0.038-0.118 0.005-0.049 0.026-0.121 0.046-0.158 0.019-0.037 0.045-0.083 0.054-0.102 0.014-0.024 0.014-0.062 0.002-0.14-0.014-0.097-0.013-0.108 0.017-0.148 0.019-0.024 0.035-0.054 0.035-0.065s0.010-0.027 0.022-0.033c0.026-0.016 0.067-0.105 0.081-0.175 0.008-0.043 0.017-0.051 0.061-0.056 0.045-0.005 0.053-0.014 0.083-0.092 0.033-0.086 0.033-0.088 0.003-0.14-0.038-0.064-0.016-0.099 0.061-0.099 0.048 0 0.053-0.005 0.062-0.064 0.005-0.035 0.017-0.064 0.026-0.064 0.022 0 0.064-0.088 0.064-0.132 0-0.029 0.013-0.045 0.046-0.059 0.061-0.024 0.068-0.049 0.046-0.137-0.022-0.083-0.008-0.119 0.053-0.134 0.035-0.008 0.038-0.017 0.046-0.137 0.008-0.123 0.010-0.127 0.068-0.182 0.054-0.049 0.062-0.067 0.075-0.162 0.008-0.073 0.026-0.123 0.053-0.159 0.021-0.029 0.054-0.088 0.073-0.132 0.019-0.043 0.046-0.091 0.061-0.107 0.017-0.019 0.021-0.040 0.013-0.072-0.017-0.059-0.013-0.078 0.035-0.175 0.037-0.075 0.048-0.084 0.107-0.096 0.061-0.013 0.065-0.017 0.070-0.072 0.003-0.030-0.010-0.099-0.027-0.15-0.037-0.1-0.043-0.166-0.017-0.166 0.010 0 0.016-0.010 0.016-0.022s0.008-0.025 0.017-0.029c0.010-0.003 0.021-0.045 0.024-0.092 0.008-0.1 0.029-0.139 0.118-0.209 0.064-0.051 0.076-0.088 0.049-0.139-0.024-0.049-0.032-0.162-0.011-0.162 0.011 0 0.033-0.014 0.049-0.032s0.045-0.032 0.062-0.032c0.035 0 0.096-0.032 0.064-0.032-0.011 0-0.024-0.025-0.029-0.056-0.010-0.046 0-0.081 0.056-0.193 0.064-0.132 0.065-0.14 0.046-0.199-0.019-0.057-0.019-0.067 0.016-0.113 0.032-0.043 0.037-0.073 0.043-0.218 0.005-0.142 0.011-0.174 0.038-0.202 0.037-0.040 0.032-0.116-0.011-0.151-0.026-0.021-0.030-0.167-0.008-0.204 0.010-0.016 0.030-0.019 0.072-0.011l0.057 0.011-0.010-0.148c-0.006-0.081-0.017-0.161-0.026-0.175-0.008-0.019-0.008-0.029 0.003-0.029 0.008 0 0.016 0.008 0.016 0.016 0 0.025 0.030 0.019 0.080-0.019 0.037-0.027 0.043-0.040 0.032-0.062-0.011-0.018-0.011-0.032 0-0.038 0.027-0.018 0.017-0.067-0.017-0.091-0.045-0.029-0.030-0.078 0.029-0.105 0.026-0.011 0.062-0.033 0.083-0.049 0.038-0.029 0.038-0.029 0.016-0.161-0.017-0.11-0.027-0.134-0.057-0.148-0.045-0.021-0.048-0.075-0.005-0.086 0.040-0.011 0.043-0.092 0.008-0.188-0.013-0.035-0.022-0.102-0.024-0.15 0-0.067 0.008-0.094 0.040-0.132 0.037-0.043 0.040-0.060 0.040-0.204 0-0.102 0.008-0.175 0.024-0.213 0.017-0.040 0.022-0.102 0.021-0.212-0.003-0.086 0.002-0.201 0.010-0.257 0.013-0.086 0.010-0.104-0.014-0.131-0.024-0.025-0.027-0.048-0.017-0.134 0.006-0.064 0.005-0.107-0.006-0.113-0.024-0.014-0.019-0.072 0.006-0.081 0.030-0.011 0.057-0.091 0.057-0.166 0-0.033 0.010-0.068 0.022-0.078 0.011-0.010 0.030-0.049 0.041-0.088 0.017-0.064 0.016-0.075-0.022-0.147s-0.040-0.080-0.014-0.097c0.014-0.011 0.030-0.021 0.035-0.021s0.010-0.072 0.010-0.161c0-0.139-0.005-0.162-0.030-0.182-0.022-0.018-0.027-0.033-0.019-0.067 0.006-0.024 0.016-0.065 0.021-0.092 0.005-0.025 0.027-0.067 0.049-0.091 0.035-0.038 0.037-0.048 0.021-0.088-0.010-0.024-0.040-0.057-0.067-0.073l-0.049-0.027 0.011-0.132c0.006-0.072 0.022-0.151 0.035-0.175 0.026-0.051 0.019-0.067-0.043-0.099-0.043-0.022-0.045-0.027-0.029-0.083 0.011-0.043 0.011-0.075-0.002-0.11-0.022-0.060-0.013-0.089 0.035-0.11 0.045-0.019 0.040-0.094-0.008-0.147-0.026-0.027-0.030-0.046-0.021-0.080 0.006-0.024 0.014-0.094 0.019-0.153 0.006-0.099 0.003-0.115-0.035-0.174-0.038-0.057-0.040-0.065-0.017-0.091 0.033-0.037 0.033-0.151 0.002-0.264-0.016-0.059-0.024-0.121-0.017-0.161 0.005-0.035 0.002-0.072-0.008-0.081s-0.006-0.032 0.010-0.062c0.026-0.051 0.017-0.099-0.022-0.129-0.021-0.014-0.026-0.048-0.022-0.185 0.003-0.14-0.002-0.182-0.033-0.269-0.033-0.091-0.035-0.105-0.013-0.118 0.029-0.019 0.030-0.062 0.011-0.279-0.008-0.102-0.006-0.17 0.005-0.202 0.014-0.041 0.011-0.056-0.011-0.086-0.043-0.054-0.062-0.315-0.027-0.366s0.032-0.075-0.014-0.092c-0.026-0.010-0.037-0.024-0.030-0.038 0.005-0.014-0.005-0.032-0.024-0.045-0.041-0.026-0.041-0.053 0-0.154 0.033-0.078 0.033-0.083 0.006-0.113-0.014-0.016-0.049-0.032-0.076-0.035-0.033-0.003-0.053-0.014-0.056-0.033-0.010-0.046 0.011-0.107 0.035-0.107 0.038 0 0.064-0.045 0.046-0.084-0.011-0.024-0.010-0.049 0.005-0.084 0.019-0.046 0.019-0.051-0.017-0.067-0.045-0.021-0.091-0.119-0.084-0.178 0.003-0.026 0.021-0.048 0.049-0.061 0.051-0.024 0.056-0.051 0.011-0.062-0.017-0.005-0.032-0.019-0.032-0.032s-0.014-0.045-0.033-0.070c-0.027-0.040-0.032-0.064-0.026-0.162 0.003-0.062 0.016-0.145 0.027-0.182 0.019-0.065 0.017-0.070-0.030-0.131-0.056-0.070-0.061-0.092-0.026-0.139 0.033-0.045 0.029-0.083-0.014-0.123-0.021-0.019-0.053-0.067-0.072-0.105l-0.037-0.068 0.033-0.076c0.040-0.092 0.041-0.132 0.008-0.159-0.073-0.062-0.078-0.188-0.011-0.3 0.037-0.059 0.032-0.108-0.011-0.123-0.045-0.014-0.065-0.088-0.076-0.272-0.011-0.164-0.013-0.174-0.046-0.178-0.027-0.005-0.037-0.016-0.037-0.045 0-0.022 0.011-0.043 0.024-0.048 0.013-0.006 0.024-0.024 0.024-0.040 0-0.022-0.011-0.030-0.040-0.030-0.033 0-0.040-0.008-0.040-0.049 0-0.027-0.011-0.099-0.026-0.158-0.026-0.107-0.026-0.11 0.008-0.164 0.029-0.046 0.030-0.062 0.016-0.105-0.010-0.029-0.038-0.060-0.065-0.075-0.045-0.024-0.046-0.026-0.035-0.116 0.008-0.076 0.005-0.103-0.019-0.143-0.016-0.027-0.033-0.049-0.038-0.049-0.019 0-0.008-0.111 0.011-0.118 0.032-0.013 0.113 0.008 0.134 0.032 0.010 0.013 0.032 0.022 0.048 0.022 0.017 0 0.038 0.016 0.046 0.037 0.014 0.037 0.073 0.099 0.183 0.191 0.097 0.081 0.139 0.107 0.178 0.107 0.021 0 0.037 0.008 0.037 0.016 0 0.010-0.011 0.016-0.024 0.016s-0.024 0.005-0.024 0.013c0.002 0.019 0.054 0.076 0.084 0.088s0.035 0.035 0.011 0.051c-0.051 0.032 0.022 0.119 0.1 0.119 0.021 0 0.053 0.018 0.072 0.040 0.024 0.027 0.051 0.040 0.084 0.040 0.049 0 0.049 0.002 0.041 0.056-0.005 0.030-0.024 0.076-0.041 0.102-0.019 0.026-0.033 0.049-0.033 0.054 0 0.011 0.068 0.030 0.092 0.027 0.041-0.005 0.083 0.051 0.083 0.11 0 0.032 0.011 0.075 0.024 0.097 0.011 0.022 0.048 0.094 0.080 0.159 0.033 0.065 0.088 0.151 0.123 0.19 0.059 0.062 0.064 0.075 0.056 0.134-0.008 0.060-0.005 0.068 0.078 0.153 0.048 0.049 0.091 0.107 0.096 0.129 0.011 0.051 0.027 0.086 0.083 0.175 0.026 0.040 0.054 0.096 0.064 0.124s0.032 0.072 0.051 0.094c0.017 0.022 0.032 0.054 0.032 0.072 0 0.016 0.016 0.035 0.037 0.043 0.033 0.013 0.040 0.029 0.049 0.14 0.013 0.154 0.024 0.196 0.049 0.196 0.043 0 0.072 0.049 0.072 0.119 0 0.054 0.008 0.075 0.032 0.088 0.017 0.010 0.032 0.033 0.032 0.054 0 0.041 0.056 0.178 0.078 0.193 0.008 0.005 0.011 0.022 0.006 0.038-0.005 0.021 0.003 0.037 0.026 0.048 0.019 0.011 0.033 0.030 0.033 0.046 0 0.014 0.010 0.041 0.021 0.061 0.078 0.134 0.107 0.204 0.107 0.256 0 0.043 0.010 0.067 0.032 0.081 0.017 0.011 0.032 0.029 0.032 0.040 0 0.013 0.017 0.038 0.040 0.059 0.032 0.030 0.040 0.053 0.040 0.115 0 0.067 0.005 0.076 0.033 0.076 0.081 0 0.094 0.024 0.094 0.175v0.142l0.056 0.045c0.048 0.038 0.056 0.054 0.056 0.113 0 0.046 0.014 0.094 0.041 0.14 0.037 0.062 0.041 0.084 0.033 0.162-0.005 0.049-0.014 0.107-0.021 0.126-0.006 0.026-0.003 0.037 0.011 0.037 0.038 0.002 0.11 0.137 0.129 0.239 0.008 0.053 0.027 0.107 0.038 0.119 0.016 0.016 0.022 0.067 0.022 0.183 0 0.139 0.003 0.161 0.029 0.17 0.064 0.022 0.083 0.056 0.083 0.147 0.002 0.053 0.011 0.102 0.024 0.119s0.024 0.048 0.024 0.067c0 0.019 0.013 0.051 0.030 0.072 0.024 0.030 0.026 0.045 0.011 0.091-0.014 0.049-0.013 0.059 0.022 0.089 0.083 0.073 0.139 0.177 0.113 0.207-0.011 0.013-0.008 0.043 0.008 0.089 0.014 0.040 0.032 0.139 0.040 0.221 0.019 0.175 0.032 0.209 0.080 0.198 0.032-0.010 0.032-0.006 0.010 0.046-0.021 0.051-0.021 0.062 0.008 0.123 0.033 0.073 0.038 0.156 0.024 0.427-0.006 0.129-0.003 0.167 0.014 0.182s0.021 0.043 0.013 0.116c-0.005 0.054 0 0.15 0.011 0.217 0.011 0.065 0.017 0.161 0.017 0.213-0.005 0.11 0.021 0.215 0.054 0.228 0.032 0.011 0.029 0.115-0.005 0.151-0.024 0.027-0.024 0.032 0.008 0.065 0.072 0.076 0.084 0.148 0.081 0.449-0.002 0.172 0.003 0.198 0.045 0.247 0.035 0.043 0.041 0.064 0.040 0.154 0 0.057-0.005 0.107-0.010 0.111-0.005 0.006 0.005 0.032 0.021 0.059 0.048 0.080 0.092 0.221 0.072 0.228-0.010 0.003-0.032 0.016-0.048 0.029-0.029 0.021-0.027 0.024 0.030 0.078 0.051 0.046 0.059 0.062 0.049 0.092-0.014 0.041-0.014 0.048 0.011 0.315 0.021 0.234 0.021 0.295-0.003 0.355-0.026 0.062-0.006 0.194 0.041 0.287 0.022 0.043 0.035 0.084 0.030 0.094-0.005 0.008-0.013 0.073-0.016 0.143-0.005 0.070-0.017 0.151-0.030 0.183-0.026 0.059-0.032 0.182-0.011 0.202 0.006 0.006 0.019-0.014 0.029-0.049 0.029-0.091 0.030 0.045 0.010 0.68-0.006 0.206-0.006 0.392 0 0.413 0.008 0.022 0.006 0.119-0.005 0.228-0.017 0.166-0.017 0.194 0.005 0.241 0.022 0.045 0.022 0.059 0.003 0.092-0.011 0.021-0.021 0.070-0.022 0.108 0 0.040-0.013 0.091-0.030 0.119-0.019 0.032-0.038 0.111-0.051 0.22-0.019 0.169-0.019 0.174 0.014 0.22 0.041 0.056 0.045 0.111 0.010 0.185-0.017 0.037-0.022 0.073-0.016 0.113 0.019 0.107 0.014 0.139-0.027 0.174-0.038 0.032-0.040 0.043-0.032 0.124 0.010 0.097 0 0.121-0.102 0.234-0.038 0.043-0.070 0.062-0.099 0.062-0.068 0-0.080 0.024-0.070 0.147 0.010 0.104 0.006 0.111-0.033 0.154-0.024 0.026-0.072 0.057-0.105 0.073-0.054 0.024-0.067 0.040-0.096 0.124-0.038 0.116-0.041 0.191-0.006 0.22 0.029 0.024 0.102 0.162 0.102 0.194 0 0.013-0.014 0.041-0.032 0.064-0.041 0.053-0.040 0.099 0.002 0.129 0.030 0.021 0.033 0.035 0.029 0.151-0.006 0.115-0.011 0.132-0.053 0.174-0.041 0.045-0.043 0.051-0.026 0.102 0.027 0.073 0.008 0.186-0.043 0.261-0.035 0.053-0.038 0.067-0.024 0.116 0.011 0.035 0.013 0.064 0.002 0.083-0.010 0.019-0.010 0.056 0.002 0.104l0.017 0.076-0.086 0.088-0.086 0.089 0.021 0.080c0.013 0.045 0.022 0.127 0.022 0.186 0 0.097-0.003 0.11-0.040 0.134-0.030 0.019-0.037 0.035-0.030 0.068 0.005 0.024 0 0.086-0.010 0.139-0.011 0.051-0.021 0.121-0.024 0.154s-0.017 0.075-0.033 0.094c-0.022 0.024-0.030 0.057-0.030 0.131 0 0.089-0.005 0.107-0.049 0.156-0.048 0.054-0.049 0.061-0.051 0.213 0 0.088-0.008 0.178-0.017 0.201-0.010 0.027-0.011 0.062-0.002 0.092 0.019 0.067-0.006 0.132-0.075 0.185-0.051 0.038-0.054 0.048-0.045 0.1 0.017 0.099 0.013 0.142-0.017 0.188-0.016 0.024-0.037 0.067-0.046 0.092-0.008 0.027-0.032 0.054-0.051 0.064-0.021 0.008-0.043 0.035-0.051 0.061-0.010 0.024-0.030 0.064-0.049 0.086-0.017 0.022-0.032 0.061-0.032 0.086 0 0.070-0.046 0.17-0.094 0.206-0.024 0.016-0.056 0.061-0.072 0.099s-0.049 0.113-0.075 0.167c-0.027 0.057-0.046 0.124-0.046 0.162 0 0.051-0.008 0.068-0.035 0.083-0.043 0.024-0.068 0.053-0.102 0.121-0.014 0.029-0.038 0.056-0.056 0.061-0.037 0.011-0.038 0.038-0.008 0.080 0.027 0.037 0.019 0.064-0.041 0.132-0.024 0.029-0.045 0.059-0.045 0.068s-0.019 0.041-0.041 0.072c-0.046 0.061-0.1 0.236-0.102 0.327 0 0.064-0.038 0.11-0.092 0.11-0.030 0-0.035 0.010-0.035 0.068s-0.006 0.073-0.041 0.089c-0.038 0.017-0.041 0.024-0.035 0.115 0.005 0.1 0 0.11-0.070 0.132-0.022 0.006-0.029 0.027-0.029 0.096 0 0.067-0.006 0.092-0.030 0.108-0.043 0.030-0.099 0.142-0.088 0.177 0.006 0.021-0.008 0.049-0.051 0.094-0.054 0.054-0.062 0.072-0.062 0.137 0 0.073 0 0.075-0.072 0.1l-0.072 0.027-0.005 0.086c-0.005 0.078-0.008 0.088-0.051 0.104-0.032 0.011-0.049 0.032-0.057 0.062-0.011 0.049-0.064 0.166-0.105 0.229-0.014 0.022-0.030 0.065-0.035 0.097-0.008 0.046-0.027 0.072-0.094 0.121-0.086 0.064-0.089 0.075-0.067 0.177 0.011 0.046 0.008 0.053-0.017 0.048-0.022-0.003-0.032 0.006-0.035 0.035-0.003 0.022-0.014 0.062-0.026 0.088-0.013 0.027-0.026 0.059-0.029 0.072-0.005 0.013-0.053 0.056-0.108 0.096l-0.102 0.072-0.003 0.107c-0.003 0.118-0.022 0.166-0.072 0.18-0.026 0.008-0.030 0.019-0.022 0.051 0.011 0.046-0.014 0.084-0.056 0.084-0.032 0-0.051 0.037-0.038 0.072 0.014 0.037-0.008 0.104-0.033 0.104-0.013 0-0.035 0.026-0.049 0.056-0.014 0.032-0.041 0.064-0.057 0.073-0.024 0.013-0.027 0.022-0.014 0.035 0.032 0.032 0.021 0.104-0.022 0.132-0.029 0.019-0.040 0.038-0.037 0.068 0.005 0.059-0.016 0.086-0.061 0.076-0.059-0.011-0.182 0.115-0.182 0.185 0 0.043-0.013 0.064-0.064 0.105-0.048 0.038-0.064 0.062-0.064 0.097 0 0.043-0.005 0.048-0.048 0.048-0.061 0-0.119 0.059-0.135 0.132-0.006 0.037-0.037 0.075-0.105 0.131-0.051 0.043-0.094 0.088-0.094 0.099s-0.010 0.026-0.021 0.032c-0.013 0.006-0.035 0.035-0.053 0.061-0.016 0.027-0.067 0.084-0.113 0.131-0.057 0.057-0.086 0.099-0.094 0.14-0.008 0.049-0.016 0.057-0.043 0.049-0.027-0.006-0.061 0.019-0.158 0.119-0.068 0.070-0.124 0.137-0.124 0.148 0 0.029-0.043 0.062-0.062 0.051-0.014-0.010-0.099 0.072-0.151 0.142-0.010 0.014-0.043 0.032-0.073 0.038-0.045 0.008-0.057 0.021-0.064 0.054-0.005 0.024-0.030 0.059-0.057 0.078-0.029 0.021-0.096 0.089-0.148 0.153-0.054 0.062-0.108 0.115-0.121 0.115s-0.035 0.017-0.049 0.040c-0.014 0.022-0.072 0.062-0.129 0.091-0.056 0.027-0.108 0.062-0.118 0.078-0.008 0.016-0.033 0.030-0.057 0.033-0.037 0.003-0.046 0.014-0.049 0.053-0.006 0.054-0.041 0.088-0.091 0.088-0.019 0-0.070 0.017-0.113 0.040s-0.102 0.040-0.132 0.040c-0.062 0-0.241 0.045-0.263 0.065-0.024 0.022-0.078 0.017-0.118-0.011zM28.248 1.648c0-0.003-0.019-0.006-0.041-0.006s-0.037 0.006-0.032 0.014c0.010 0.013 0.073 0.006 0.073-0.008z"></path>
<path d="M17.157 21.908c-0.054-0.016-0.084-0.017-0.105-0.005-0.053 0.027-0.061 0.019-0.073-0.073-0.010-0.083-0.008-0.092 0.032-0.134s0.041-0.049 0.024-0.104c-0.027-0.080-0.006-0.334 0.032-0.398 0.040-0.068 0.053-0.129 0.053-0.256 0-0.080-0.008-0.126-0.027-0.151-0.027-0.040-0.033-0.148-0.011-0.209 0.008-0.024 0.005-0.056-0.010-0.089-0.019-0.048-0.027-0.053-0.068-0.043-0.030 0.006-0.048 0.005-0.048-0.006 0-0.010 0.008-0.017 0.016-0.017 0.011 0 0.014-0.022 0.008-0.059-0.017-0.1-0.041-0.145-0.096-0.177-0.033-0.021-0.054-0.048-0.061-0.080-0.014-0.073-0.161-0.135-0.242-0.105-0.027 0.011-0.072 0.104-0.072 0.148 0 0.016-0.026 0.057-0.056 0.092-0.053 0.061-0.056 0.072-0.053 0.167 0.002 0.097-0.021 0.172-0.051 0.172-0.010 0-0.016 0.026-0.016 0.056 0 0.038-0.008 0.056-0.024 0.056-0.013 0-0.024-0.014-0.024-0.032 0-0.024-0.011-0.032-0.046-0.032-0.026 0-0.054 0.011-0.067 0.026-0.011 0.013-0.048 0.038-0.081 0.056-0.035 0.017-0.065 0.041-0.072 0.054-0.005 0.013-0.017 0.024-0.030 0.024-0.025 0-0.029-0.045-0.006-0.080 0.011-0.019 0.006-0.026-0.029-0.032-0.033-0.006-0.053-0.029-0.084-0.096-0.030-0.065-0.057-0.096-0.104-0.119-0.060-0.032-0.062-0.035-0.057-0.108 0.005-0.068-0.033-0.174-0.060-0.169-0.005 0-0.038 0.021-0.073 0.043-0.223 0.145-0.229 0.151-0.191 0.193 0.019 0.022 0.022 0.043 0.011 0.111-0.018 0.115-0.030 0.123-0.121 0.083-0.041-0.019-0.1-0.033-0.129-0.033-0.041 0-0.072-0.016-0.124-0.064-0.038-0.035-0.075-0.064-0.083-0.064-0.030-0.002-0.134-0.166-0.134-0.213 0-0.026-0.019-0.070-0.041-0.1-0.040-0.053-0.041-0.062-0.037-0.217l0.006-0.162-0.051-0.024c-0.029-0.013-0.053-0.033-0.053-0.046-0.002-0.104-0.11-0.198-0.25-0.217-0.072-0.010-0.083-0.006-0.088 0.019-0.005 0.016 0.002 0.040 0.013 0.053 0.024 0.029 0.013 0.096-0.016 0.097-0.010 0-0.041 0.002-0.072 0.003-0.032 0.002-0.057 0.013-0.062 0.026s-0.024 0.040-0.045 0.061c-0.033 0.032-0.046 0.035-0.132 0.027-0.053-0.006-0.107-0.006-0.121 0-0.024 0.008-0.024 0.013-0.002 0.045 0.032 0.046 0.032 0.061-0.002 0.061-0.025 0-0.196-0.167-0.196-0.193 0-0.006 0.008-0.017 0.016-0.022 0.027-0.016 0.018-0.081-0.016-0.111-0.018-0.016-0.032-0.037-0.032-0.048s-0.018-0.038-0.040-0.062c-0.022-0.024-0.040-0.057-0.040-0.075s-0.014-0.037-0.033-0.043c-0.054-0.021-0.078-0.116-0.060-0.231 0.021-0.131 0.011-0.162-0.072-0.21-0.11-0.064-0.124-0.088-0.129-0.212-0.002-0.064-0.019-0.15-0.038-0.201-0.018-0.049-0.033-0.116-0.033-0.147 0-0.043-0.011-0.067-0.048-0.099-0.054-0.048-0.057-0.064-0.025-0.154 0.054-0.153 0.051-0.174-0.027-0.253-0.067-0.068-0.096-0.081-0.151-0.075-0.013 0.002-0.038-0.014-0.059-0.038-0.022-0.022-0.083-0.076-0.135-0.121-0.105-0.088-0.124-0.091-0.287-0.064-0.057 0.010-0.15 0.017-0.207 0.017-0.080 0-0.124 0.010-0.194 0.043-0.051 0.026-0.092 0.053-0.092 0.061 0 0.010-0.027 0.029-0.059 0.043-0.051 0.024-0.062 0.024-0.091 0.003-0.018-0.011-0.046-0.022-0.062-0.022s-0.045-0.010-0.064-0.019c-0.019-0.011-0.084-0.021-0.145-0.021-0.107 0-0.111-0.002-0.123-0.043-0.006-0.026-0.051-0.081-0.1-0.126-0.059-0.054-0.089-0.094-0.089-0.118 0-0.021-0.011-0.040-0.024-0.046-0.013-0.005-0.024-0.024-0.024-0.041s-0.011-0.032-0.024-0.032c-0.013 0-0.024-0.006-0.024-0.016 0-0.008-0.021-0.035-0.048-0.059-0.025-0.022-0.048-0.051-0.048-0.061 0-0.011-0.021-0.024-0.046-0.029-0.038-0.008-0.056-0.027-0.094-0.111-0.051-0.107-0.072-0.132-0.123-0.142-0.029-0.005-0.032-0.016-0.027-0.104 0.005-0.089 0.003-0.099-0.029-0.108-0.019-0.006-0.043-0.003-0.053 0.006s-0.030 0.017-0.046 0.017c-0.040 0-0.057-0.048-0.024-0.067 0.035-0.019 0.037-0.14 0.002-0.239-0.014-0.043-0.022-0.111-0.019-0.166 0.005-0.084 0.008-0.094 0.045-0.104 0.033-0.008 0.035-0.011 0.013-0.022-0.016-0.006-0.029-0.024-0.029-0.038s-0.011-0.043-0.025-0.062c-0.018-0.025-0.021-0.054-0.014-0.105 0.010-0.057 0.024-0.081 0.073-0.121l0.064-0.049-0.041-0.048c-0.046-0.056-0.051-0.107-0.011-0.121 0.091-0.030 0.159-0.073 0.186-0.119 0.016-0.029 0.049-0.072 0.075-0.096 0.030-0.029 0.045-0.057 0.045-0.092 0-0.029 0.016-0.072 0.033-0.099 0.025-0.035 0.032-0.062 0.025-0.108-0.006-0.049-0.002-0.067 0.029-0.092 0.033-0.029 0.035-0.037 0.021-0.124-0.019-0.108-0.019-0.097 0.003-0.218 0.010-0.051 0.011-0.102 0.005-0.111-0.018-0.027-0.038-0.206-0.040-0.357-0.003-0.105 0.002-0.137 0.025-0.162 0.019-0.021 0.025-0.046 0.019-0.076-0.019-0.099-0.025-0.53-0.010-0.666 0.022-0.185 0.021-0.212-0.014-0.342-0.018-0.060-0.029-0.111-0.024-0.115 0.003-0.003 0.010-0.048 0.014-0.097 0.008-0.086 0.006-0.092-0.032-0.107-0.025-0.010-0.040-0.027-0.040-0.051 0-0.049-0.014-0.065-0.070-0.084-0.040-0.013-0.051-0.030-0.072-0.108-0.019-0.067-0.043-0.108-0.089-0.153-0.092-0.089-0.135-0.153-0.135-0.199 0-0.024-0.021-0.060-0.049-0.091-0.045-0.045-0.046-0.051-0.024-0.076 0.033-0.038 0.033-0.040-0.029-0.108-0.029-0.033-0.057-0.080-0.062-0.102-0.014-0.054-0.070-0.113-0.135-0.14-0.029-0.013-0.049-0.030-0.046-0.040 0.008-0.021-0.038-0.105-0.056-0.105-0.008 0-0.018 0.010-0.022 0.022-0.006 0.018-0.032 0.014-0.139-0.018-0.070-0.022-0.153-0.040-0.183-0.040-0.037 0-0.070-0.014-0.105-0.046-0.064-0.054-0.139-0.064-0.183-0.024-0.038 0.035-0.075 0.024-0.1-0.030-0.014-0.033-0.029-0.040-0.083-0.038-0.038 0-0.091-0.013-0.129-0.032-0.048-0.025-0.091-0.033-0.183-0.033-0.070 0-0.129-0.008-0.14-0.019-0.013-0.013-0.024-0.013-0.038 0-0.011 0.008-0.038 0.018-0.060 0.018-0.089 0.003-0.282 0.030-0.339 0.048-0.043 0.014-0.076 0.014-0.111 0.003-0.029-0.008-0.115-0.021-0.191-0.025-0.132-0.011-0.143-0.014-0.194-0.065-0.030-0.030-0.072-0.056-0.096-0.056-0.022-0.002-0.064-0.005-0.091-0.010-0.029-0.003-0.107-0.008-0.174-0.010-0.11-0.003-0.127-0.010-0.202-0.064-0.088-0.062-0.169-0.076-0.209-0.038-0.018 0.016-0.021 0.008-0.013-0.041 0.010-0.059 0.010-0.059-0.062-0.078-0.068-0.019-0.096-0.045-0.046-0.045 0.013 0 0.024-0.006 0.024-0.016 0-0.008-0.013-0.016-0.030-0.016-0.016 0-0.038-0.011-0.049-0.024s-0.040-0.024-0.062-0.024c-0.024 0-0.057-0.011-0.075-0.024-0.016-0.013-0.041-0.024-0.056-0.024s-0.030-0.010-0.035-0.022c-0.013-0.032-0.075-0.038-0.127-0.013-0.057 0.027-0.097 0.014-0.086-0.029 0.008-0.033-0.089-0.159-0.124-0.159-0.013 0-0.032-0.013-0.043-0.029-0.011-0.018-0.038-0.038-0.057-0.049-0.040-0.021-0.086-0.11-0.094-0.175-0.008-0.078-0.014-0.083-0.1-0.072-0.073 0.010-0.080 0.008-0.094-0.027-0.008-0.021-0.035-0.057-0.059-0.080-0.221-0.204-0.261-0.245-0.261-0.277 0-0.018 0.008-0.041 0.018-0.051 0.019-0.019-0.011-0.089-0.075-0.175-0.021-0.027-0.038-0.060-0.038-0.075 0-0.030-0.061-0.073-0.107-0.073-0.045 0-0.073-0.053-0.061-0.11 0.006-0.033 0-0.051-0.032-0.081-0.022-0.021-0.040-0.049-0.040-0.064s-0.014-0.040-0.032-0.056c-0.018-0.016-0.032-0.048-0.032-0.072 0-0.062-0.076-0.223-0.131-0.274-0.026-0.022-0.045-0.059-0.045-0.080 0-0.022-0.021-0.059-0.048-0.084-0.032-0.030-0.048-0.062-0.048-0.091 0-0.048-0.040-0.14-0.068-0.159-0.010-0.005-0.029-0.033-0.041-0.064-0.014-0.029-0.041-0.059-0.062-0.068-0.041-0.019-0.062-0.067-0.037-0.092 0.022-0.022 0.024-0.096 0.002-0.083-0.008 0.005-0.016 0.024-0.016 0.041 0 0.045-0.038 0.029-0.045-0.018-0.003-0.021 0.005-0.046 0.019-0.056 0.037-0.027 0.035-0.116-0.002-0.207-0.019-0.043-0.038-0.092-0.043-0.108-0.005-0.014-0.033-0.041-0.064-0.061-0.051-0.030-0.053-0.035-0.040-0.089 0.016-0.076 0.003-0.252-0.026-0.323-0.013-0.030-0.030-0.159-0.040-0.287s-0.024-0.292-0.030-0.366c-0.008-0.078-0.008-0.147 0-0.162 0.008-0.014 0.014-0.068 0.014-0.121 0-0.072-0.008-0.105-0.033-0.135-0.018-0.024-0.037-0.067-0.041-0.096-0.006-0.046 0-0.059 0.041-0.096 0.049-0.041 0.062-0.086 0.035-0.135-0.008-0.016-0.008-0.072 0.002-0.139 0.008-0.061 0.014-0.174 0.013-0.248s0.010-0.191 0.022-0.258c0.022-0.104 0.022-0.153 0.008-0.314-0.013-0.139-0.013-0.206 0-0.242 0.010-0.027 0.018-0.086 0.018-0.132 0-0.067 0.008-0.089 0.040-0.119 0.029-0.027 0.040-0.054 0.040-0.099 0-0.035 0.011-0.084 0.026-0.11 0.014-0.029 0.027-0.1 0.029-0.174 0.005-0.099 0.013-0.134 0.040-0.169 0.026-0.033 0.033-0.067 0.035-0.156 0.002-0.062 0.006-0.094 0.010-0.068 0.016 0.099 0.108 0.016 0.102-0.091-0.002-0.054 0.008-0.084 0.045-0.14 0.027-0.040 0.056-0.105 0.065-0.147 0.024-0.11 0.057-0.169 0.131-0.233l0.064-0.057-0.030-0.051-0.029-0.053 0.056-0.048c0.147-0.127 0.145-0.126 0.14-0.191-0.002-0.043 0.008-0.076 0.032-0.11 0.021-0.027 0.035-0.070 0.035-0.102 0-0.045 0.011-0.064 0.064-0.105 0.035-0.027 0.068-0.067 0.073-0.088 0.006-0.026 0.029-0.045 0.062-0.056 0.056-0.018 0.076-0.048 0.062-0.086-0.005-0.013 0.005-0.037 0.021-0.053s0.049-0.056 0.075-0.088c0.024-0.033 0.057-0.064 0.073-0.068s0.056-0.048 0.088-0.096c0.054-0.081 0.062-0.088 0.121-0.088 0.057 0 0.062-0.003 0.053-0.038-0.006-0.026-0.002-0.040 0.018-0.046 0.014-0.006 0.024-0.026 0.022-0.046s-0.002-0.051 0-0.068c0.002-0.029 0.005-0.027 0.022 0.008 0.019 0.037 0.029 0.040 0.127 0.038 0.065 0 0.107 0.006 0.108 0.016 0 0.010 0 0.094 0 0.186 0.002 0.175-0.016 0.237-0.075 0.287-0.043 0.035-0.070 0.118-0.070 0.212 0 0.070-0.006 0.091-0.030 0.103-0.026 0.014-0.030 0.041-0.037 0.164-0.006 0.097-0.018 0.166-0.037 0.201-0.018 0.035-0.027 0.086-0.026 0.147 0 0.067-0.006 0.103-0.029 0.129-0.024 0.030-0.027 0.057-0.021 0.198 0.006 0.127 0.002 0.172-0.019 0.21-0.041 0.081-0.051 0.241-0.035 0.586 0.006 0.123 0.013 0.274 0.014 0.335 0.002 0.062 0.011 0.123 0.019 0.135 0.030 0.048 0.070 0.185 0.072 0.244 0 0.038 0.008 0.064 0.024 0.070 0.040 0.014 0.072 0.092 0.072 0.172 0 0.081 0.021 0.129 0.123 0.277 0.065 0.097 0.068 0.105 0.065 0.207-0.005 0.089 0 0.113 0.030 0.151 0.027 0.033 0.037 0.067 0.037 0.121 0 0.046 0.010 0.083 0.022 0.096 0.013 0.010 0.032 0.043 0.041 0.073 0.010 0.029 0.040 0.068 0.067 0.088 0.043 0.032 0.046 0.040 0.038 0.1-0.010 0.062-0.006 0.068 0.080 0.156 0.070 0.072 0.089 0.104 0.092 0.15 0.005 0.045 0.021 0.070 0.070 0.116 0.076 0.067 0.162 0.201 0.162 0.25 0 0.022 0.013 0.038 0.033 0.043 0.024 0.006 0.030 0.018 0.022 0.041-0.010 0.032 0.073 0.137 0.226 0.282 0.038 0.037 0.068 0.073 0.068 0.083s0.019 0.032 0.043 0.046c0.054 0.035 0.115 0.102 0.116 0.127 0 0.010 0.029 0.043 0.062 0.072 0.035 0.029 0.072 0.073 0.083 0.097 0.011 0.026 0.037 0.048 0.061 0.053 0.086 0.018 0.182 0.059 0.207 0.089 0.014 0.016 0.054 0.059 0.088 0.094l0.062 0.064 0.306-0.010 0.088 0.067c0.076 0.059 0.089 0.064 0.113 0.043 0.030-0.027 0.078-0.029 0.078-0.002 0.002 0.043 0.1 0.127 0.166 0.142 0.151 0.033 0.15 0.033 0.202-0.010 0.067-0.057 0.088-0.053 0.121 0.026 0.019 0.041 0.021 0.041 0.139 0.033l0.119-0.010 0.070 0.118 0.147-0.008c0.143-0.008 0.148-0.006 0.183 0.033 0.035 0.041 0.037 0.041 0.206 0.030 0.092-0.005 0.206-0.014 0.25-0.019 0.072-0.010 0.088-0.005 0.118 0.026 0.033 0.033 0.040 0.035 0.178 0.018 0.099-0.011 0.154-0.011 0.175 0 0.043 0.024 0.196 0.002 0.242-0.035 0.021-0.018 0.056-0.030 0.078-0.030s0.060-0.010 0.086-0.022c0.024-0.013 0.124-0.032 0.22-0.041 0.097-0.011 0.186-0.029 0.199-0.040 0.013-0.013 0.084-0.045 0.159-0.072 0.107-0.040 0.15-0.048 0.204-0.040 0.046 0.006 0.067 0.005 0.067-0.010 0-0.029 0.132-0.14 0.169-0.142 0.019 0 0.051-0.013 0.072-0.029s0.051-0.033 0.065-0.040c0.014-0.005 0.029-0.026 0.032-0.046 0.003-0.024 0.018-0.038 0.041-0.041 0.021-0.003 0.043-0.022 0.051-0.043s0.032-0.049 0.054-0.064c0.022-0.014 0.045-0.040 0.049-0.057 0.019-0.059 0.054-0.078 0.119-0.068 0.053 0.008 0.064 0.005 0.081-0.027 0.011-0.021 0.030-0.046 0.045-0.057 0.035-0.027 0.18-0.068 0.239-0.068 0.030 0 0.060-0.013 0.078-0.033 0.067-0.080 0.126-0.099 0.285-0.096 0.097 0.002 0.159-0.003 0.174-0.016 0.016-0.013 0.065-0.016 0.167-0.008 0.142 0.011 0.145 0.010 0.198-0.033 0.147-0.119 0.15-0.121 0.274-0.064 0.025 0.011 0.048 0.011 0.076-0.002 0.024-0.011 0.043-0.013 0.048-0.003 0.019 0.032 0.111 0.016 0.156-0.024 0.024-0.022 0.043-0.048 0.043-0.054 0-0.008 0.045-0.029 0.099-0.049 0.083-0.030 0.107-0.033 0.156-0.018 0.033 0.010 0.073 0.018 0.091 0.018 0.037 0 0.078-0.041 0.088-0.088 0.003-0.021 0.016-0.030 0.037-0.027 0.132 0.024 0.145 0.022 0.196-0.021 0.027-0.022 0.054-0.056 0.059-0.072 0.010-0.032 0.019-0.033 0.199-0.035 0.030 0 0.105 0.010 0.164 0.019 0.081 0.014 0.119 0.016 0.148 0.002 0.054-0.024 0.177-0.022 0.263 0.003 0.054 0.018 0.1 0.019 0.19 0.006l0.119-0.014 0.048 0.056c0.048 0.056 0.051 0.056 0.148 0.048 0.107-0.010 0.097-0.018 0.139 0.102 0.005 0.014 0.019 0.013 0.057-0.006 0.076-0.038 0.19-0.019 0.271 0.046 0.061 0.048 0.073 0.053 0.167 0.049 0.1-0.005 0.102-0.003 0.137 0.049 0.041 0.062 0.123 0.099 0.209 0.091 0.048-0.003 0.068 0.003 0.097 0.037 0.021 0.021 0.037 0.053 0.035 0.068-0.002 0.021 0.016 0.030 0.076 0.038 0.049 0.008 0.092 0.027 0.119 0.053 0.024 0.022 0.051 0.041 0.062 0.041 0.010 0 0.032 0.016 0.051 0.035l0.032 0.035 0.048-0.037c0.035-0.026 0.067-0.033 0.108-0.030l0.059 0.005 0.002 0.080c0 0.045 0.002 0.084 0.003 0.091s0.040-0.002 0.083-0.019c0.045-0.018 0.1-0.032 0.123-0.032 0.056 0 0.177 0.072 0.237 0.14l0.049 0.057 0.057-0.045c0.033-0.026 0.068-0.041 0.083-0.035 0.027 0.010 0.032 0.035 0.008 0.049-0.030 0.019 0.017 0.056 0.072 0.056 0.057 0 0.159 0.038 0.175 0.065 0.008 0.011 0.037 0.014 0.081 0.006 0.070-0.010 0.072-0.010 0.094 0.046 0.017 0.040 0.037 0.057 0.070 0.065 0.026 0.005 0.056 0.021 0.067 0.033 0.010 0.013 0.038 0.022 0.062 0.022 0.035 0 0.048 0.010 0.062 0.049 0.029 0.084 0.264 0.349 0.311 0.349 0.024 0 0.064 0.043 0.078 0.084 0.006 0.016 0.032 0.037 0.059 0.045 0.035 0.013 0.049 0.030 0.057 0.072 0.008 0.040 0.017 0.054 0.041 0.054 0.021 0 0.038 0.018 0.049 0.048 0.019 0.051 0.083 0.080 0.178 0.080 0.027 0 0.067 0.013 0.088 0.027 0.045 0.032 0.233 0.1 0.274 0.1 0.016 0 0.038 0.021 0.053 0.046 0.027 0.056 0.057 0.067 0.185 0.073 0.107 0.005 0.134 0.021 0.147 0.086l0.010 0.046 0.14-0.030c0.076-0.016 0.183-0.029 0.234-0.030 0.051 0 0.151-0.011 0.221-0.025 0.089-0.019 0.178-0.024 0.301-0.019 0.158 0.006 0.247-0.005 0.331-0.040 0.013-0.005 0.046-0.011 0.072-0.014 0.040-0.005 0.049-0.013 0.053-0.053 0.006-0.057 0.026-0.072 0.096-0.072 0.038 0 0.051 0.006 0.051 0.029 0 0.018 0.010 0.011 0.026-0.021 0.043-0.083 0.070-0.104 0.139-0.104s0.142-0.049 0.19-0.129c0.024-0.040 0.033-0.043 0.068-0.030 0.062 0.024 0.119 0.019 0.131-0.008 0.014-0.041 0.148-0.099 0.25-0.108 0.107-0.011 0.154-0.043 0.123-0.081-0.016-0.019-0.011-0.032 0.033-0.072 0.029-0.027 0.083-0.064 0.121-0.081 0.043-0.021 0.067-0.043 0.067-0.061s0.027-0.057 0.061-0.092c0.033-0.033 0.068-0.073 0.076-0.086s0.029-0.032 0.046-0.041c0.017-0.010 0.035-0.040 0.040-0.068 0.005-0.030 0.024-0.061 0.049-0.078 0.051-0.033 0.151-0.151 0.166-0.193 0.005-0.016 0.030-0.038 0.057-0.049 0.040-0.018 0.051-0.016 0.076 0.006 0.014 0.014 0.037 0.026 0.046 0.026 0.024 0 0.024-0.053 0-0.076-0.021-0.021 0.010-0.067 0.045-0.067 0.013 0 0.022-0.014 0.022-0.032 0-0.019 0.019-0.041 0.048-0.056 0.027-0.014 0.048-0.032 0.048-0.041 0-0.045 0.068-0.105 0.248-0.221 0.037-0.024 0.053-0.049 0.061-0.094 0.008-0.056 0.041-0.094 0.134-0.153 0.002-0.002 0.006-0.032 0.010-0.067s0.019-0.083 0.033-0.107c0.019-0.029 0.024-0.057 0.017-0.096-0.008-0.040-0.002-0.072 0.022-0.116 0.017-0.033 0.032-0.068 0.032-0.078s0.014-0.037 0.032-0.059c0.019-0.022 0.041-0.065 0.051-0.094s0.035-0.072 0.056-0.096c0.041-0.043 0.043-0.084 0.013-0.207-0.010-0.037-0.005-0.046 0.026-0.059 0.029-0.010 0.046-0.038 0.067-0.104 0.014-0.049 0.027-0.099 0.027-0.11s0.022-0.051 0.049-0.088l0.048-0.067-0.017-0.119c-0.010-0.067-0.029-0.14-0.041-0.164-0.024-0.046-0.022-0.048 0.049-0.091 0.037-0.022 0.057-0.127 0.046-0.247-0.010-0.097-0.006-0.107 0.032-0.142 0.041-0.040 0.053-0.088 0.027-0.127-0.014-0.022 0.017-0.172 0.049-0.236 0.013-0.027 0.010-0.045-0.016-0.088-0.017-0.029-0.038-0.091-0.045-0.137-0.008-0.068-0.005-0.089 0.017-0.115 0.026-0.029 0.027-0.038 0.002-0.159-0.033-0.166-0.033-0.339-0.002-0.366 0.030-0.026 0.016-0.048-0.033-0.048-0.038 0-0.038-0.002-0.029-0.108 0.008-0.088 0.006-0.111-0.016-0.129-0.014-0.011-0.026-0.045-0.026-0.072 0-0.033-0.014-0.064-0.046-0.094-0.040-0.037-0.046-0.053-0.038-0.103 0.005-0.032 0.022-0.086 0.038-0.119 0.037-0.072 0.029-0.111-0.026-0.135-0.048-0.022-0.051-0.067-0.008-0.107 0.041-0.038 0.040-0.049-0.011-0.075-0.065-0.032-0.118-0.145-0.107-0.226 0.006-0.035 0.017-0.078 0.026-0.092 0.010-0.021 0.002-0.038-0.037-0.072-0.043-0.040-0.048-0.053-0.041-0.107 0.005-0.033 0.014-0.067 0.022-0.073 0.006-0.006 0.061-0.005 0.119 0.003 0.105 0.016 0.108 0.018 0.15 0.088 0.027 0.048 0.048 0.068 0.065 0.062 0.075-0.029 0.099-0.026 0.174 0.024 0.043 0.029 0.081 0.054 0.086 0.057 0.005 0.005-0.005 0.014-0.021 0.022-0.032 0.019-0.037 0.086-0.006 0.105 0.010 0.006 0.041 0.021 0.067 0.029 0.030 0.010 0.049 0.027 0.049 0.048 0.002 0.018 0.003 0.045 0.005 0.060 0.002 0.014 0.011 0.027 0.024 0.027 0.037 0 0.088 0.083 0.078 0.129-0.006 0.032 0.005 0.051 0.049 0.091 0.032 0.027 0.067 0.046 0.080 0.041 0.014-0.006 0.024 0.013 0.030 0.064 0.016 0.116 0.092 0.248 0.177 0.309 0.046 0.033 0.076 0.068 0.081 0.096 0.005 0.024 0.016 0.076 0.026 0.119 0.013 0.054 0.013 0.081 0 0.097-0.021 0.024 0.033 0.081 0.086 0.092 0.019 0.005 0.029 0.016 0.024 0.030-0.022 0.065-0.005 0.207 0.038 0.292 0.032 0.062 0.041 0.102 0.035 0.129-0.011 0.043 0.035 0.169 0.068 0.19 0.029 0.019 0.021 0.099-0.014 0.129-0.029 0.025-0.032 0.043-0.022 0.158 0.005 0.072 0.019 0.164 0.033 0.207 0.014 0.053 0.019 0.104 0.013 0.15-0.008 0.059-0.005 0.076 0.024 0.107 0.040 0.043 0.067 0.215 0.033 0.215-0.014 0-0.017 0.018-0.011 0.061 0.011 0.072 0.030 0.288 0.027 0.322-0.016 0.212-0.016 0.335 0 0.387 0.017 0.056 0.017 0.062-0.014 0.084-0.029 0.019-0.035 0.040-0.035 0.104 0 0.091-0.016 0.129-0.084 0.201-0.045 0.048-0.046 0.056-0.035 0.135 0.017 0.132 0.010 0.248-0.026 0.333-0.016 0.045-0.030 0.097-0.030 0.119s-0.016 0.061-0.035 0.088c-0.041 0.056-0.048 0.148-0.014 0.21 0.024 0.045 0.027 0.037-0.057 0.151-0.027 0.038-0.038 0.124-0.038 0.293 0 0.073-0.006 0.092-0.029 0.1-0.024 0.006-0.030 0.032-0.038 0.127-0.006 0.065-0.021 0.143-0.033 0.172-0.017 0.045-0.017 0.062 0 0.105 0.022 0.053 0.010 0.121-0.030 0.153-0.061 0.048-0.091 0.139-0.091 0.263 0 0.113-0.005 0.131-0.043 0.178-0.024 0.029-0.053 0.057-0.062 0.064-0.013 0.010-0.014 0.032-0.006 0.072 0.008 0.033 0.010 0.1 0.003 0.148-0.011 0.084-0.013 0.088-0.075 0.105-0.068 0.019-0.072 0.027-0.037 0.137 0.014 0.048 0.013 0.065-0.006 0.096-0.013 0.021-0.029 0.062-0.035 0.096-0.005 0.032-0.021 0.060-0.032 0.065-0.013 0.005-0.027 0.033-0.033 0.062s-0.032 0.081-0.057 0.115c-0.026 0.035-0.046 0.076-0.046 0.092 0 0.046-0.041 0.116-0.118 0.202-0.070 0.078-0.116 0.178-0.097 0.207 0.013 0.021-0.029 0.116-0.062 0.143-0.014 0.013-0.038 0.048-0.051 0.080-0.013 0.030-0.033 0.067-0.046 0.080-0.092 0.099-0.105 0.123-0.097 0.162 0.006 0.032-0.003 0.053-0.040 0.088-0.061 0.057-0.132 0.172-0.156 0.247-0.022 0.070-0.051 0.097-0.147 0.132-0.080 0.029-0.131 0.075-0.154 0.139-0.011 0.029-0.054 0.059-0.15 0.107-0.072 0.037-0.145 0.067-0.161 0.067-0.037 0-0.116 0.043-0.174 0.092-0.026 0.024-0.070 0.041-0.115 0.046-0.040 0.005-0.073 0.016-0.073 0.022 0 0.008-0.011 0.014-0.024 0.014s-0.059 0.032-0.104 0.072c-0.045 0.040-0.089 0.073-0.1 0.073-0.011 0.002-0.048 0.005-0.081 0.006-0.059 0.003-0.1 0.033-0.148 0.107-0.024 0.037-0.161 0.076-0.206 0.060-0.064-0.024-0.099-0.019-0.11 0.018-0.010 0.027-0.019 0.032-0.053 0.024-0.166-0.038-0.21-0.027-0.21 0.056 0 0.032-0.013 0.054-0.041 0.073-0.040 0.025-0.043 0.025-0.062 0-0.021-0.029-0.056-0.037-0.056-0.011 0 0.032-0.148 0.127-0.199 0.127-0.029 0-0.068 0.013-0.089 0.029s-0.123 0.067-0.225 0.115c-0.104 0.048-0.188 0.094-0.188 0.104 0 0.008-0.046 0.065-0.104 0.124-0.056 0.060-0.115 0.137-0.131 0.17-0.030 0.065-0.064 0.084-0.107 0.060-0.019-0.011-0.029-0.008-0.035 0.011-0.006 0.014-0.030 0.035-0.056 0.049-0.037 0.019-0.046 0.033-0.046 0.078 0 0.029-0.010 0.064-0.022 0.076-0.016 0.016-0.017 0.029-0.006 0.040 0.022 0.022-0.030 0.099-0.070 0.099-0.017 0-0.041 0.021-0.057 0.049-0.014 0.027-0.057 0.086-0.094 0.131-0.043 0.049-0.068 0.097-0.068 0.123s-0.017 0.059-0.045 0.084c-0.107 0.104-0.139 0.244-0.072 0.317 0.029 0.032 0.029 0.029-0.049 0.172-0.057 0.104-0.073 0.253-0.076 0.755-0.005 0.441-0.008 0.497-0.032 0.529-0.033 0.041-0.035 0.091-0.010 0.217 0.019 0.092 0.019 0.094-0.026 0.135-0.046 0.043-0.046 0.038-0.016 0.182 0.008 0.035 0 0.049-0.046 0.084-0.065 0.049-0.091 0.111-0.091 0.213 0 0.043-0.010 0.083-0.026 0.1-0.029 0.032-0.037 0.198-0.011 0.245 0.010 0.017 0.022 0.073 0.027 0.123 0.011 0.086 0.010 0.091-0.026 0.096-0.051 0.006-0.064 0.094-0.041 0.279 0.016 0.147 0.016 0.148-0.024 0.202-0.022 0.029-0.046 0.072-0.053 0.096-0.005 0.024-0.024 0.053-0.040 0.062-0.017 0.011-0.030 0.030-0.030 0.043s-0.026 0.056-0.056 0.094c-0.035 0.043-0.056 0.088-0.056 0.115 0 0.037-0.011 0.051-0.054 0.068-0.029 0.013-0.073 0.048-0.099 0.080s-0.068 0.072-0.097 0.089c-0.029 0.016-0.056 0.048-0.062 0.070-0.008 0.035-0.019 0.041-0.072 0.041-0.092 0-0.17 0.038-0.194 0.094-0.017 0.041-0.022 0.045-0.051 0.024-0.016-0.013-0.040-0.022-0.051-0.022-0.013 0-0.043-0.016-0.068-0.035s-0.049-0.032-0.053-0.027c-0.089 0.126-0.089 0.126-0.177 0.126-0.051 0-0.115-0.013-0.158-0.032-0.065-0.029-0.084-0.030-0.182-0.016-0.059 0.011-0.14 0.021-0.18 0.024-0.072 0.005-0.116 0.019-0.287 0.088-0.048 0.019-0.108 0.040-0.135 0.046-0.029 0.006-0.056 0.027-0.067 0.053-0.026 0.053-0.14 0.156-0.174 0.156-0.062 0-0.244 0.234-0.245 0.315 0 0.011-0.014 0.040-0.030 0.064-0.030 0.040-0.030 0.049-0.008 0.153 0.019 0.088 0.019 0.113 0.003 0.134-0.033 0.038-0.056 0.153-0.041 0.204 0.008 0.026 0.014 0.118 0.014 0.204l0.002 0.158-0.049 0.038c-0.027 0.022-0.049 0.053-0.049 0.068s-0.006 0.035-0.016 0.040c-0.008 0.005-0.016 0.070-0.016 0.143 0 0.142-0.032 0.247-0.076 0.247-0.017 0-0.021 0.019-0.013 0.092 0.032 0.319 0.033 0.296-0.021 0.357-0.027 0.030-0.045 0.061-0.040 0.065s0.011 0.029 0.013 0.054c0.003 0.024 0.008 0.054 0.011 0.067 0.010 0.033-0.045 0.040-0.075 0.010-0.014-0.014-0.038-0.024-0.053-0.021-0.021 0.005-0.026 0.026-0.024 0.124 0.002 0.065 0.003 0.143 0.006 0.172 0.003 0.035-0.006 0.062-0.029 0.088-0.019 0.021-0.035 0.053-0.035 0.072s-0.022 0.059-0.048 0.089c-0.043 0.049-0.048 0.062-0.038 0.123 0.011 0.062 0.008 0.070-0.043 0.111-0.046 0.038-0.053 0.053-0.051 0.113 0.002 0.037 0.006 0.094 0.013 0.127 0.010 0.049 0.006 0.059-0.022 0.068-0.019 0.005-0.048 0.005-0.067 0-0.022-0.008-0.030-0.005-0.029 0.011 0.010 0.049-0.021 0.089-0.091 0.116-0.096 0.037-0.166 0.097-0.166 0.143 0 0.051-0.013 0.056-0.1 0.029zM16.469 17.792c0.035-0.010 0.075-0.027 0.088-0.038s0.045-0.027 0.068-0.032c0.030-0.008 0.041-0.019 0.037-0.038-0.024-0.088-0.024-0.118-0.002-0.17 0.013-0.032 0.024-0.081 0.024-0.111 0-0.041-0.006-0.053-0.035-0.057-0.027-0.003-0.035-0.013-0.030-0.037 0.003-0.017 0.006-0.1 0.008-0.183 0-0.083 0.005-0.154 0.010-0.159 0.006-0.005 0.019-0.054 0.030-0.111 0.010-0.057 0.022-0.121 0.027-0.143 0.006-0.027-0.002-0.054-0.022-0.080-0.026-0.032-0.029-0.046-0.014-0.076 0.014-0.029 0.011-0.049-0.011-0.091-0.029-0.053-0.029-0.097-0.002-0.193 0.008-0.026-0.005-0.049-0.053-0.097-0.045-0.043-0.068-0.083-0.075-0.126-0.006-0.033-0.021-0.078-0.033-0.097s-0.022-0.065-0.022-0.102c0-0.048-0.011-0.080-0.043-0.116-0.022-0.027-0.048-0.048-0.057-0.045-0.032 0.010-0.076-0.018-0.099-0.062-0.014-0.027-0.049-0.057-0.084-0.070-0.038-0.016-0.072-0.046-0.094-0.086-0.041-0.073-0.081-0.073-0.134 0-0.021 0.030-0.046 0.046-0.072 0.046-0.075 0-0.166 0.067-0.166 0.121 0 0.019-0.038 0.092-0.084 0.162-0.053 0.076-0.091 0.153-0.099 0.196-0.018 0.092-0.014 0.245 0.006 0.282 0.019 0.037-0.005 0.067-0.054 0.067-0.076 0-0.089 0.054-0.038 0.166 0.035 0.081 0.037 0.164 0 0.156-0.011-0.003-0.038 0.010-0.057 0.029-0.032 0.030-0.035 0.046-0.032 0.183 0.003 0.127 0 0.15-0.022 0.15-0.153 0.005-0.153 0.005-0.151 0.073 0.005 0.118 0.024 0.218 0.046 0.252 0.013 0.019 0.024 0.046 0.024 0.061s0.029 0.065 0.064 0.111c0.035 0.048 0.064 0.094 0.064 0.105 0 0.062 0.223 0.053 0.366-0.016 0.11-0.053 0.132-0.054 0.167-0.002 0.022 0.035 0.035 0.040 0.080 0.032 0.046-0.010 0.057-0.005 0.073 0.026 0.027 0.053 0.045 0.061 0.127 0.061 0.048 0 0.081 0.010 0.096 0.026 0.021 0.026 0.070 0.051 0.102 0.053 0.010 0.002 0.045-0.006 0.080-0.016zM15.391 17.685c0.005-0.014-0.003-0.021-0.022-0.016-0.014 0.002-0.030 0.014-0.035 0.026-0.005 0.014 0.003 0.021 0.022 0.016 0.014-0.002 0.030-0.014 0.035-0.026zM13.777 16.43c0.043-0.046 0.099-0.053 0.188-0.024 0.084 0.029 0.153 0.010 0.164-0.043 0.025-0.119 0.035-0.131 0.105-0.131 0.072 0 0.092-0.016 0.135-0.107 0.024-0.054 0.059-0.099 0.086-0.115 0.040-0.022 0.046-0.035 0.046-0.097-0.002-0.040-0.011-0.086-0.024-0.102-0.013-0.018-0.024-0.048-0.024-0.068s-0.011-0.059-0.024-0.084c-0.018-0.032-0.024-0.088-0.022-0.17 0.002-0.088-0.005-0.139-0.024-0.172-0.014-0.025-0.025-0.056-0.025-0.067s-0.025-0.038-0.056-0.062c-0.035-0.025-0.062-0.065-0.075-0.104-0.011-0.041-0.027-0.062-0.046-0.062-0.014 0-0.068-0.016-0.118-0.035-0.099-0.037-0.134-0.076-0.096-0.108 0.037-0.030 0.029-0.072-0.016-0.092-0.022-0.010-0.040-0.029-0.040-0.041 0-0.011-0.016-0.025-0.037-0.032-0.021-0.005-0.046-0.030-0.060-0.060-0.014-0.033-0.035-0.054-0.059-0.057-0.021-0.003-0.045-0.024-0.054-0.045-0.013-0.027-0.027-0.037-0.043-0.029-0.014 0.006-0.041 0.014-0.060 0.018-0.033 0.008-0.037 0.002-0.037-0.049 0-0.041 0.006-0.057 0.024-0.057 0.029 0-0.043-0.065-0.143-0.132-0.075-0.051-0.111-0.053-0.244-0.011-0.056 0.018-0.126 0.032-0.156 0.032-0.075 0-0.145 0.033-0.22 0.102-0.033 0.032-0.067 0.057-0.075 0.057s-0.043 0.025-0.076 0.057c-0.035 0.030-0.076 0.054-0.091 0.051-0.016-0.003-0.030 0.006-0.032 0.019-0.033 0.239-0.062 0.342-0.113 0.401-0.033 0.041-0.053 0.081-0.053 0.111 0 0.033-0.010 0.049-0.029 0.056-0.025 0.006-0.033 0.033-0.049 0.156-0.010 0.083-0.027 0.169-0.037 0.193-0.019 0.040-0.016 0.046 0.040 0.092 0.053 0.045 0.059 0.057 0.059 0.123 0 0.076 0.014 0.094 0.080 0.094 0.018 0 0.030 0.016 0.037 0.045 0.005 0.024 0.022 0.059 0.038 0.078 0.016 0.021 0.041 0.054 0.056 0.075 0.021 0.027 0.043 0.038 0.076 0.038 0.030-0.002 0.065 0.013 0.092 0.037 0.024 0.022 0.062 0.049 0.088 0.062s0.048 0.040 0.053 0.062c0.016 0.076 0.021 0.081 0.068 0.081 0.025 0 0.053 0.008 0.059 0.017 0.006 0.011 0.040 0.014 0.096 0.006 0.072-0.008 0.094-0.005 0.132 0.022 0.062 0.045 0.182 0.045 0.253 0.002 0.067-0.041 0.099-0.040 0.099 0s0.075 0.11 0.116 0.111c0.016 0 0.046-0.019 0.067-0.041zM18.323 16.342c0.105-0.032 0.248-0.040 0.287-0.016 0.014 0.010 0.048 0.003 0.096-0.017 0.151-0.068 0.185-0.091 0.215-0.147 0.019-0.035 0.043-0.057 0.061-0.057 0.035 0 0.096-0.029 0.111-0.054 0.006-0.010 0.013-0.040 0.013-0.065 0-0.027 0.014-0.076 0.032-0.111 0.026-0.049 0.041-0.062 0.075-0.064 0.043 0 0.045-0.002 0.040-0.083-0.005-0.072 0-0.086 0.037-0.121 0.037-0.033 0.043-0.054 0.046-0.14 0.003-0.056 0.010-0.121 0.017-0.147 0.008-0.030 0.003-0.056-0.017-0.086-0.029-0.045-0.033-0.145-0.014-0.293l0.010-0.072-0.131-0.119c-0.072-0.065-0.143-0.131-0.159-0.145-0.027-0.025-0.032-0.025-0.075 0.011-0.040 0.033-0.057 0.038-0.126 0.029-0.053-0.005-0.084-0.002-0.091 0.010-0.014 0.022-0.089 0.024-0.089 0.002 0-0.030-0.076-0.065-0.177-0.081l-0.102-0.016-0.073 0.080c-0.068 0.073-0.081 0.081-0.145 0.081-0.038 0-0.078-0.008-0.089-0.019-0.014-0.014-0.019-0.014-0.019 0.002 0 0.011-0.014 0.041-0.032 0.065-0.029 0.041-0.030 0.048-0.008 0.089 0.022 0.043 0.021 0.048-0.006 0.059-0.016 0.008-0.053 0.053-0.083 0.099-0.053 0.083-0.054 0.084-0.132 0.084-0.057 0.002-0.083 0.010-0.094 0.029-0.008 0.014-0.029 0.040-0.045 0.056-0.017 0.018-0.030 0.045-0.030 0.062 0 0.037-0.037 0.075-0.15 0.159-0.116 0.086-0.124 0.097-0.113 0.134 0.006 0.019 0.013 0.099 0.016 0.177 0.008 0.204 0.019 0.245 0.064 0.263 0.033 0.013 0.038 0.022 0.030 0.060-0.008 0.040-0.002 0.051 0.048 0.080 0.033 0.019 0.061 0.051 0.067 0.076 0.006 0.024 0.038 0.067 0.073 0.099 0.057 0.053 0.068 0.056 0.161 0.054 0.054 0 0.121 0.008 0.147 0.019 0.062 0.027 0.225 0.016 0.357-0.024zM6.353 1.4c-0.010-0.016-0.061-0.018-0.075-0.002-0.006 0.005-0.003 0.019 0.006 0.030 0.013 0.016 0.024 0.016 0.046 0.003 0.016-0.011 0.026-0.026 0.022-0.032z"></path>
<path d="M12.348 15.253c0.003-0.022 0.013-0.040 0.021-0.040s0.014 0.018 0.014 0.040c0 0.022-0.010 0.040-0.022 0.040-0.014 0-0.019-0.013-0.013-0.040z"></path>
<path d="M6.862 10.552c0.005-0.014 0.010-0.029 0.010-0.032 0-0.005 0.008-0.003 0.016 0.002 0.026 0.016 0.019 0.056-0.010 0.056-0.018 0-0.022-0.008-0.016-0.025z"></path>
</svg>
