<!-- Generated by IcoMoon.io -->
<svg version="1.1" xmlns="http://www.w3.org/2000/svg" width="32" height="32" viewBox="0 0 32 32">
<title>misc-glove</title>
<path d="M16.558 4.609c-0.401 0.565-0.711 1.1-1.118 1.55-0.547 0.608-1.295 0.754-2.091 0.729-0.213-0.006-0.432 0.109-0.632 0.195-0.061 0.024-0.097 0.146-0.122 0.231-0.097 0.353-0.176 0.711-0.274 1.064-0.085 0.31-0.043 0.401 0.274 0.492 0.055 0.018 0.115 0.043 0.164 0.079 0.742 0.553 1.398 1.191 2.030 1.872 0.322 0.353 0.474 0.675 0.432 1.143-0.018 0.213 0.091 0.432 0.14 0.65 0.219-0.079 0.444-0.152 0.663-0.243 0.049-0.018 0.085-0.109 0.097-0.17 0.152-0.614 0.225-1.204-0.31-1.696-0.158-0.146-0.249-0.365-0.395-0.529-0.158-0.176-0.328-0.353-0.523-0.492-0.419-0.292-0.845-0.571-1.118-1.027-0.067-0.115-0.207-0.182-0.346-0.304 0.097-0.152 0.182-0.322 0.304-0.456 0.134-0.152 0.304-0.188 0.523-0.128 0.243 0.067 0.511 0.067 0.76 0.103 0.128 0.018 0.274 0.030 0.371 0.097 0.468 0.346 0.985 0.584 1.544 0.748 0.225 0.067 0.413 0.237 0.62 0.359 0.432 0.249 0.845 0.529 1.301 0.736 0.638 0.292 1.131 0.76 1.659 1.185 0.122 0.097 0.255 0.225 0.395 0.255 0.146 0.030 0.359 0.018 0.456-0.067 0.468-0.413 0.918-0.845 1.343-1.295 0.122-0.128 0.195-0.359 0.182-0.529-0.012-0.152-0.176-0.292-0.267-0.438-0.128 0.097-0.261 0.182-0.377 0.298-0.353 0.34-0.687 0.699-1.046 1.039-0.128 0.115-0.28 0.128-0.425-0.024-0.176-0.182-0.365-0.346-0.565-0.505s-0.249-0.274-0.049-0.505c0.796-0.942 1.562-1.909 2.34-2.869 0.359-0.438 0.772-0.669 1.343-0.419 0.073 0.030 0.158 0.043 0.237 0.036 0.292-0.024 0.45 0.146 0.468 0.401 0.018 0.28 0.195 0.249 0.201 0.48s0.231 0.936-0.018 1.665c-0.231 0.474-0.45 0.906-0.65 1.349-0.122 0.261-0.195 0.547-0.328 0.796-0.182 0.334-0.407 0.644-0.614 0.966-0.115 0.176-0.219 0.359-0.328 0.541-0.261 0.438-0.523 0.875-0.79 1.307-0.322 0.529-0.669 1.039-0.96 1.58-0.14 0.261-0.225 0.577-0.261 0.875-0.109 0.936 0.164 1.83 0.359 2.729 0.134 0.644 0.346 1.246 0.638 1.836 0.134 0.267 0.073 0.486-0.158 0.693-0.553 0.498-1.106 0.997-1.635 1.52-0.705 0.699-1.392 1.422-2.073 2.146-0.517 0.547-1.015 1.106-1.514 1.672-0.097 0.109-0.158 0.249-0.261 0.413-0.049-0.018-0.146-0.024-0.195-0.079-0.231-0.249-0.462-0.505-0.669-0.778-0.717-0.936-1.404-1.896-2.152-2.814-0.237-0.292-0.602-0.486-0.924-0.711-0.468-0.334-0.948-0.656-1.422-0.979-0.158-0.109-0.316-0.207-0.486-0.298-0.182-0.097-0.219-0.231-0.109-0.389 0.34-0.48 0.48-1.003 0.523-1.599 0.043-0.602 0.237-1.191 0.365-1.787 0.018-0.097 0.036-0.201 0.036-0.298 0.018-0.541 0.030-1.088 0.061-1.629 0.006-0.091 0.061-0.182 0.109-0.261 0.237-0.353 0.255-0.571-0.012-0.869-0.316-0.353-0.669-0.675-1.009-1.003-0.231-0.225-0.413-0.517-0.802-0.511-0.055 0-0.14-0.115-0.17-0.195-0.28-0.705-0.717-1.307-1.185-1.896-0.182-0.231-0.298-0.505-0.626-0.614-0.164-0.055-0.182-0.274-0.073-0.444 0.036-0.061 0.091-0.103 0.134-0.164 0.328-0.432 0.322-0.456-0.17-0.742-0.28-0.164-0.286-0.395-0.043-0.626 0.085-0.079 0.176-0.201 0.182-0.304 0.036-0.517 0.413-0.845 0.656-1.246 0.353-0.584 0.699-1.173 1.052-1.757 0.091-0.146 0.207-0.274 0.292-0.419 0.085-0.152 0.128-0.322 0.213-0.48 0.049-0.091 0.128-0.231 0.207-0.237 0.486-0.049 0.96-0.103 1.453 0.079 0.474 0.176 0.991 0.322 1.489 0.31 0.547-0.012 1.039 0.164 1.556 0.231 0.553 0.073 1.106 0.182 1.653 0.28 0.134-0.006 0.243 0.030 0.474 0.091zM16.789 23.476c0.030-0.34-0.231-0.596-0.723-0.644-0.31-0.030-0.663 0.34-0.675 0.675-0.012 0.322 0.389 0.827 0.656 0.833 0.292 0.006 0.742-0.517 0.742-0.863z"></path>
<path d="M8.224 23.884c0.462-0.492 0.9-0.948 1.313-1.416 0.109-0.122 0.164-0.292 0.237-0.45 0.091-0.195 0.201-0.219 0.377-0.091 0.115 0.085 0.28 0.097 0.395 0.176 0.328 0.219 0.687 0.425 0.966 0.699 1.124 1.082 2.17 2.225 3.033 3.532 0.383 0.584 0.748 1.179 1.118 1.769 0.122 0.195 0.219 0.219 0.425 0.067 0.875-0.663 1.416-1.599 2.097-2.431 0.383-0.468 0.79-0.912 1.191-1.355 0.468-0.523 0.942-1.039 1.41-1.562 0.334-0.371 0.656-0.76 0.997-1.125 0.213-0.231 0.286-0.207 0.432 0.067 0.286 0.535 0.571 1.070 0.869 1.605 0.067 0.122 0.158 0.237 0.261 0.328 0.207 0.182 0.14 0.304-0.036 0.462-0.675 0.62-1.374 1.216-1.994 1.896-0.584 0.644-1.058 1.392-1.617 2.067-0.62 0.748-1.264 1.477-1.939 2.182-0.541 0.571-1.137 1.088-1.708 1.629-0.115 0.109-0.577 0.085-0.687-0.067-0.249-0.346-0.474-0.717-0.711-1.076-0.498-0.735-0.985-1.477-1.653-2.085-0.267-0.243-0.45-0.584-0.656-0.893-0.577-0.869-1.404-1.489-2.158-2.176-0.584-0.535-1.21-1.021-1.817-1.538-0.061-0.049-0.097-0.14-0.146-0.213zM15.907 30.776c0.48 0.030 0.705-0.474 0.729-0.893 0.024-0.359-0.31-0.656-0.669-0.65-0.444 0.006-0.948 0.401-0.942 0.729 0.006 0.346 0.517 0.893 0.881 0.814zM19.767 26.479c0.006-0.365-0.267-0.614-0.687-0.626-0.359-0.012-0.76 0.395-0.766 0.778-0.006 0.359 0.389 0.802 0.711 0.802 0.365 0 0.735-0.48 0.742-0.954zM21.044 23.792c0 0.061-0.006 0.122 0 0.182 0.024 0.28 0.237 0.523 0.529 0.59 0.261 0.061 0.511 0.012 0.632-0.231 0.158-0.316 0.249-0.663 0.103-1.015-0.036-0.085-0.115-0.164-0.195-0.213-0.602-0.322-1.070-0.018-1.070 0.687zM11.13 23.956c0-0.456-0.274-0.802-0.608-0.833-0.359-0.036-0.729 0.28-0.742 0.705-0.012 0.34 0.395 0.699 0.766 0.699 0.292-0.006 0.584-0.286 0.584-0.571zM12.911 27.135c0.401 0.006 0.602-0.182 0.602-0.577 0.006-0.413-0.328-0.754-0.736-0.76-0.353-0.006-0.517 0.164-0.523 0.541-0.006 0.511 0.219 0.79 0.656 0.796z"></path>
<path d="M22.478 4.968c-0.134 0.17-0.261 0.377-0.444 0.535-0.444 0.401-0.736 0.9-1.070 1.386-0.377 0.547-0.881 1.003-1.355 1.477-0.067 0.067-0.28 0.073-0.383 0.024-0.492-0.237-0.979-0.498-1.465-0.754-0.249-0.134-0.225-0.195-0.043-0.419 0.492-0.614 0.954-1.258 1.434-1.884 0.395-0.517 0.802-1.021 1.222-1.52 0.055-0.067 0.176-0.103 0.267-0.103 0.413 0.006 0.827 0.043 1.234 0.049 0.213 0.006 0.334 0.085 0.383 0.298 0.061 0.286 0.134 0.565 0.219 0.912z"></path>
<path d="M17.913 1.102c0.389 0.061 0.772 0.097 1.137 0.201 0.115 0.030 0.201 0.243 0.249 0.389 0.115 0.328 0.219 0.663 0.28 1.003 0.030 0.158 0.006 0.365-0.079 0.498-0.383 0.608-0.79 1.203-1.197 1.793-0.28 0.401-0.571 0.796-0.869 1.185-0.201 0.267-0.401 0.541-0.626 0.784-0.182 0.201-0.644 0.067-0.735-0.195-0.018-0.049 0.036-0.158 0.085-0.195 0.559-0.395 0.875-0.991 1.228-1.544 0.134-0.219 0.219-0.468 0.298-0.711s-0.085-0.486-0.377-0.547c-0.432-0.091-0.869-0.152-1.301-0.237-0.109-0.018-0.219-0.049-0.316-0.097-0.146-0.073-0.243-0.146-0.097-0.34 0.371-0.492 0.711-1.015 1.070-1.514 0.201-0.28 0.529-0.328 0.839-0.389 0.152-0.030 0.292-0.061 0.413-0.085z"></path>
<path d="M11.099 2.646c0.055-0.122 0.073-0.201 0.122-0.261 0.365-0.486 0.742-0.973 1.112-1.453 0.097-0.128 0.195-0.261 0.298-0.377 0.164-0.182 0.346-0.304 0.608-0.395 0.523-0.176 1.039-0.128 1.562-0.158 0.237-0.012 0.34 0.097 0.425 0.28 0.115 0.267 0.249 0.523 0.359 0.796 0.036 0.085 0.030 0.219-0.012 0.304-0.28 0.498-0.577 0.985-0.857 1.483-0.097 0.176-0.219 0.274-0.432 0.243-0.656-0.091-1.313-0.176-1.963-0.267-0.395-0.061-0.784-0.128-1.222-0.195z"></path>
</svg>
