<!-- Generated by IcoMoon.io -->
<svg version="1.1" xmlns="http://www.w3.org/2000/svg" width="32" height="32" viewBox="0 0 32 32">
<title>monster-of-order</title>
<path d="M10.090 4.305c-0.127 0.156-0.219 0.286-0.328 0.399-0.153 0.158-0.226 0.345-0.255 0.558-0.010 0.074-0.002 0.138 0.066 0.173 0.076 0.039 0.147 0.014 0.195-0.054 0.047-0.065 0.076-0.145 0.129-0.204 0.222-0.241 0.224-0.53 0.192-0.873zM21.615 29.115c-0.023-0.054-0.058-0.113-0.074-0.176-0.055-0.222-0.182-0.409-0.316-0.582-0.251-0.323-0.586-0.51-1.012-0.479-0.213 0.016-0.316 0.134-0.35 0.348-0.015 0.097-0.051 0.194-0.096 0.281-0.11 0.215-0.25 0.415-0.345 0.636-0.191 0.446-0.485 0.795-0.862 1.097-0.403 0.324-0.867 0.541-1.299 0.814-0.126 0.080-0.267 0.116-0.421 0.121-0.14 0.005-0.278 0.046-0.417 0.070-0.057 0.011-0.114 0.022-0.18 0.036 0.003-0.039-0.001-0.060 0.008-0.075 0.16-0.301 0.203-0.624 0.184-0.959-0.013-0.222-0.012-0.446-0.045-0.665-0.018-0.12-0.074-0.244-0.146-0.344-0.137-0.191-0.326-0.232-0.554-0.159-0.243 0.078-0.457 0.194-0.641 0.368-0.156 0.147-0.299 0.31-0.463 0.448-0.232 0.194-0.474 0.375-0.716 0.557-0.215 0.161-0.444 0.303-0.649 0.475-0.182 0.152-0.371 0.287-0.585 0.391-0.457 0.221-0.942 0.361-1.422 0.514-0.039 0.013-0.079 0.020-0.116 0.037-0.346 0.154-0.706 0.151-1.071 0.094-0.305-0.048-0.611-0.093-0.917-0.14-0.046-0.008-0.093-0.020-0.139-0.024-0.096-0.009-0.117-0.062-0.114-0.152 0.011-0.276 0.015-0.552 0.020-0.828 0.005-0.293-0.13-0.521-0.354-0.69-0.213-0.161-0.295-0.345-0.229-0.611 0.051-0.207 0.061-0.424 0.097-0.634 0.034-0.198 0.076-0.394 0.115-0.59 0.029-0.144 0.057-0.288 0.087-0.432 0.074-0.354 0.149-0.709 0.225-1.062 0.008-0.040 0.016-0.079 0.027-0.118 0.133-0.445 0.267-0.888 0.399-1.333 0.036-0.122 0.055-0.25 0.096-0.37 0.123-0.363 0.255-0.722 0.381-1.084 0.039-0.114 0.062-0.234 0.1-0.349 0.115-0.344 0.236-0.686 0.349-1.030 0.039-0.12 0.059-0.246 0.090-0.369 0.015-0.058 0.025-0.121 0.053-0.173 0.159-0.28 0.314-0.56 0.507-0.821 0.288-0.389 0.541-0.803 0.806-1.209 0.077-0.119 0.135-0.25 0.219-0.363 0.093-0.122 0.201-0.234 0.311-0.342 0.072-0.069 0.164-0.118 0.239-0.187 0.389-0.361 0.779-0.722 1.163-1.088 0.397-0.379 0.7-0.836 1.010-1.283 0.175-0.252 0.376-0.479 0.566-0.716 0.083-0.105 0.167-0.208 0.258-0.306 0.228-0.246 0.466-0.483 0.688-0.735 0.087-0.098 0.145-0.224 0.208-0.34 0.103-0.186 0.204-0.373 0.299-0.564 0.044-0.088 0.075-0.182 0.102-0.278 0.025-0.089 0.025-0.187 0.054-0.274 0.143-0.432 0.114-0.875-0.001-1.294-0.086-0.314-0.246-0.623-0.535-0.829-0.159-0.113-0.327-0.221-0.46-0.361-0.228-0.24-0.504-0.258-0.8-0.231-0.174 0.017-0.348 0.034-0.521 0.058-0.427 0.057-0.817 0.202-1.18 0.439-0.271 0.177-0.322 0.438-0.319 0.716 0.003 0.205 0.058 0.409 0.093 0.639-0.068 0-0.139 0-0.21 0.001-0.088 0-0.182-0.020-0.262 0.006-0.283 0.093-0.54-0.006-0.8-0.088-0.196-0.062-0.315-0.032-0.42 0.142-0.2 0.33-0.194 0.662 0.004 0.991 0.038 0.063 0.082 0.123 0.123 0.185 0.003 0.004-0.001 0.013-0.002 0.041-0.068-0.006-0.138-0.008-0.206-0.019-0.126-0.019-0.253-0.033-0.374-0.068-0.072-0.020-0.139-0.070-0.198-0.119-0.051-0.042-0.082-0.107-0.131-0.152-0.080-0.074-0.168-0.114-0.289-0.095-0.232 0.037-0.467 0.053-0.663 0.074-0.507-0.196-0.769-0.58-0.975-1.015 0.010-0.013 0.020-0.027 0.030-0.041 0.1 0.044 0.199 0.091 0.3 0.131 0.068 0.026 0.14 0.055 0.211 0.060 0.166 0.011 0.232-0.102 0.149-0.249-0.036-0.065-0.077-0.126-0.112-0.19-0.013-0.022-0.015-0.051-0.025-0.085 0.199-0.115 0.425 0.083 0.63-0.064-0.010-0.196-0.164-0.293-0.297-0.392-0.129-0.095-0.279-0.162-0.414-0.249-0.039-0.025-0.090-0.087-0.081-0.115 0.015-0.048 0.067-0.096 0.115-0.118 0.059-0.027 0.13-0.032 0.197-0.035 0.1-0.006 0.204-0.014 0.302-0.001 0.248 0.032 0.394-0.085 0.488-0.3 0.034-0.077 0.083-0.148 0.12-0.213-0.112-0.215-0.391-0.145-0.504-0.343 0.044-0.132 0.159-0.205 0.274-0.193 0.185 0.020 0.37-0.011 0.557 0.057 0.241 0.087 0.509-0.13 0.517-0.387 0.010-0.335-0.214-0.567-0.552-0.572-0.061-0.001-0.121 0-0.182-0.004-0.293-0.016-0.478 0.13-0.605 0.383-0.062 0.124-0.142 0.242-0.229 0.35-0.135 0.168-0.265 0.335-0.347 0.54-0.056 0.14-0.155 0.264-0.23 0.397-0.112 0.199-0.204 0.411-0.332 0.598s-0.296 0.348-0.442 0.523c-0.086 0.104-0.232 0.168-0.231 0.333 0 0.011-0.013 0.024-0.024 0.032-0.279 0.227-0.534 0.483-0.848 0.67-0.344 0.204-0.709 0.234-1.091 0.177-0.051-0.008-0.101-0.039-0.145-0.069-0.338-0.241-0.565-0.55-0.575-0.984-0.001-0.024 0.007-0.048 0.015-0.1 0.047 0.051 0.095 0.080 0.103 0.117 0.028 0.132 0.125 0.218 0.193 0.323 0.102 0.158 0.239 0.228 0.418 0.239 0.233 0.015 0.453-0.008 0.661-0.133 0.266-0.16 0.521-0.328 0.721-0.574 0.118-0.145 0.272-0.258 0.395-0.399 0.091-0.103 0.167-0.223 0.234-0.344 0.166-0.3 0.329-0.601 0.483-0.908 0.13-0.261 0.253-0.526 0.363-0.796 0.043-0.107 0.032-0.236 0.068-0.347 0.044-0.131 0.095-0.267 0.175-0.378 0.085-0.117 0.107-0.243 0.114-0.374 0.007-0.122-0.079-0.23-0.202-0.237-0.103-0.006-0.212 0.014-0.313 0.041-0.128 0.034-0.25 0.095-0.377 0.132-0.229 0.066-0.311 0.164-0.313 0.402-0.001 0.127-0.001 0.254-0.001 0.406-0.079 0-0.175-0.001-0.272 0.001-0.086 0.001-0.157-0.027-0.214-0.093-0.079-0.092-0.187-0.101-0.297-0.091-0.119 0.011-0.187 0.080-0.182 0.199 0.005 0.112 0.031 0.224 0.051 0.335 0.022 0.117 0.048 0.234 0.083 0.397-0.148-0.11-0.283-0.18-0.378-0.288-0.097-0.111-0.152-0.257-0.229-0.394-0.18 0.106-0.199 0.327-0.38 0.418-0.157 0.079-0.289 0.206-0.457 0.33-0.010-0.088-0.027-0.159-0.024-0.228 0.015-0.315 0.035-0.63 0.058-0.944 0.015-0.201 0.034-0.401 0.058-0.601 0.008-0.066 0.024-0.136 0.056-0.192 0.146-0.248 0.196-0.528 0.26-0.8 0.030-0.126 0.086-0.224 0.144-0.33 0.061-0.112 0.115-0.227 0.175-0.34 0.012-0.022 0.041-0.034 0.051-0.042 0.089 0.033 0.168 0.062 0.262 0.097 0.156-0.182 0.313-0.373 0.478-0.556 0.197-0.22 0.405-0.431 0.601-0.651 0.075-0.083 0.134-0.182 0.199-0.276 0.086-0.126 0.164-0.252 0.307-0.335 0.184-0.108 0.295-0.283 0.37-0.488 0.166-0.454 0.481-0.817 0.733-1.187 0.133 0.121 0.255 0.234 0.373 0.342 0.307-0.178 0.464-0.446 0.6-0.732 0.043-0.091 0.1-0.176 0.145-0.266 0.139-0.276 0.275-0.553 0.413-0.829 0.027-0.054 0.060-0.105 0.091-0.158 0.053-0.092 0.107-0.182 0.158-0.276 0.061-0.112 0.107-0.234 0.181-0.336 0.058-0.079 0.144-0.14 0.227-0.194 0.037-0.024 0.115-0.025 0.146-0.001 0.026 0.020 0.025 0.098 0.011 0.142-0.029 0.096-0.079 0.186-0.113 0.281-0.051 0.143-0.129 0.283-0.047 0.443 0.015 0.029-0.008 0.078-0.013 0.117-0.011 0.092-0.021 0.184-0.034 0.305 0.068-0.032 0.107-0.050 0.146-0.068 0.048-0.023 0.098-0.069 0.144-0.066 0.243 0.020 0.396-0.146 0.568-0.266 0.128-0.088 0.244-0.183 0.411-0.195 0.076-0.005 0.163-0.040 0.222-0.089 0.162-0.135 0.37-0.208 0.505-0.378 0.017-0.020 0.039-0.037 0.060-0.053 0.171-0.13 0.333-0.263 0.464-0.442 0.116-0.159 0.284-0.278 0.447-0.43-0.005 0.062-0.008 0.116-0.013 0.17-0.024 0.227-0.039 0.455-0.076 0.68-0.024 0.143-0.069 0.286-0.129 0.419-0.126 0.281-0.268 0.556-0.411 0.849 0.053 0.015 0.088 0.029 0.124 0.033 0.376 0.032 0.732-0.052 1.078-0.192 0.137-0.056 0.274-0.115 0.417-0.15 0.499-0.124 0.871-0.443 1.219-0.792 0.187-0.188 0.343-0.408 0.516-0.617 0.145 0.246 0.081 0.492 0.048 0.733-0.019 0.139-0.062 0.274-0.086 0.411-0.065 0.366-0.248 0.662-0.52 0.907-0.141 0.128-0.187 0.27-0.091 0.447 0.058 0.107 0.102 0.22 0.16 0.327 0.084 0.156 0.199 0.198 0.37 0.139 0.153-0.052 0.305-0.106 0.457-0.16 0.34-0.12 0.695-0.154 1.050-0.184 0.058-0.005 0.131-0.011 0.175 0.018 0.227 0.14 0.477 0.121 0.726 0.123 0.027 0 0.053-0.003 0.080-0.003 0.006 0 0.012 0.006 0.027 0.014-0.018 0.028-0.027 0.065-0.052 0.081-0.17 0.108-0.341 0.213-0.514 0.316-0.046 0.027-0.11 0.034-0.144 0.071-0.188 0.208-0.37 0.422-0.553 0.636-0.007 0.008-0.003 0.026-0.004 0.055 0.044-0.003 0.087-0.001 0.128-0.009 0.373-0.074 0.761-0.089 1.11-0.269 0.029-0.015 0.067-0.025 0.097-0.018 0.19 0.044 0.372-0.029 0.558-0.034 0.112-0.003 0.259 0.068 0.31 0.17 0.053 0.105 0.030 0.211-0.067 0.312-0.018 0.019-0.037 0.041-0.060 0.054-0.353 0.203-0.495 0.573-0.7 0.892-0.11 0.17-0.135 0.352 0.029 0.544 0.112-0.057 0.234-0.118 0.356-0.18 0.036-0.018 0.067-0.055 0.104-0.060 0.352-0.051 0.693-0.173 1.054-0.156 0.201 0.009 0.406-0.004 0.602 0.032 0.33 0.060 0.655 0.144 0.979 0.234 0.215 0.060 0.211 0.073 0.24 0.321-0.030 0.007-0.060 0.020-0.091 0.022-0.316 0.013-0.584 0.148-0.825 0.339-0.087 0.069-0.174 0.105-0.288 0.122-0.234 0.037-0.427 0.17-0.54 0.382-0.107 0.201-0.19 0.413-0.275 0.603 0.082 0.056 0.171 0.11 0.251 0.173 0.123 0.097 0.25 0.178 0.407 0.21 0.145 0.028 0.287 0.072 0.432 0.103 0.097 0.020 0.196 0.041 0.295 0.041 0.183 0.001 0.337 0.080 0.496 0.153 0.067 0.031 0.135 0.076 0.204 0.079 0.345 0.017 0.564 0.224 0.758 0.476 0.077 0.1 0.155 0.199 0.23 0.3 0.020 0.027 0.029 0.060 0.041 0.086-0.058 0.103-0.126 0.086-0.208 0.046-0.114-0.055-0.241-0.087-0.349-0.15-0.171-0.1-0.339-0.056-0.505-0.009-0.189 0.053-0.363 0.138-0.515 0.268-0.103 0.090-0.156 0.197-0.169 0.331-0.040 0.427 0.189 0.739 0.589 0.871 0.133 0.043 0.275 0.053 0.411 0.087 0.055 0.013 0.116 0.039 0.152 0.079 0.35 0.39 0.653 0.817 0.94 1.256 0.009 0.015 0.011 0.035 0.025 0.088-0.222-0.155-0.447-0.152-0.674-0.123-0.133 0.017-0.267 0.025-0.375 0.128-0.028 0.027-0.086 0.031-0.131 0.034-0.36 0.023-0.641 0.337-0.654 0.707-0.009 0.275 0.114 0.506 0.213 0.747 0.069 0.167 0.176 0.295 0.328 0.396 0.194 0.13 0.378 0.279 0.565 0.42 0.022 0.016 0.044 0.032 0.061 0.053 0.272 0.323 0.563 0.634 0.809 0.977 0.152 0.213 0.29 0.434 0.483 0.615 0.045 0.041 0.064 0.111 0.073 0.195-0.088-0.040-0.177-0.077-0.264-0.119-0.209-0.101-0.426-0.158-0.662-0.152-0.104 0.003-0.208-0.033-0.312-0.049-0.214-0.032-0.426-0.061-0.622 0.077-0.137 0.096-0.291 0.168-0.423 0.27-0.12 0.093-0.237 0.199-0.324 0.321-0.091 0.128-0.119 0.293-0.061 0.443 0.131 0.342 0.291 0.669 0.617 0.875 0.060 0.038 0.131 0.066 0.2 0.083 0.166 0.041 0.311 0.2 0.323 0.368 0.007 0.101-0.025 0.192-0.111 0.246-0.084 0.054-0.173 0.106-0.268 0.135-0.282 0.086-0.527 0.235-0.742 0.43-0.368 0.335-0.589 0.759-0.726 1.234-0.067 0.236-0.091 0.474-0.082 0.717 0.006 0.148 0.018 0.299-0.003 0.443-0.062 0.429 0.122 0.77 0.358 1.1 0.034 0.047 0.071 0.103 0.075 0.157 0.025 0.302 0.209 0.468 0.467 0.577 0.025 0.010 0.052 0.015 0.077 0.023 0.019 0.006 0.037 0.015 0.056 0.023 0.084 0.255 0.263 0.431 0.474 0.58 0.044 0.032 0.1 0.051 0.133 0.090 0.212 0.255 0.514 0.362 0.804 0.479 0.282 0.113 0.584 0.182 0.888 0.141 0.175-0.023 0.346-0.098 0.511-0.169 0.108-0.046 0.204-0.124 0.299-0.196 0.034-0.026 0.056-0.074 0.071-0.117 0.062-0.176 0.182-0.314 0.301-0.45 0.035-0.040 0.095-0.058 0.14-0.085 0.090 0.227 0.175 0.429 0.248 0.635 0.019 0.053 0.008 0.119 0.002 0.178-0.008 0.073-0.037 0.145-0.035 0.218 0.013 0.493-0.2 0.895-0.498 1.262-0.174 0.213-0.349 0.425-0.533 0.631-0.392 0.441-0.864 0.785-1.351 1.114-0.454 0.307-0.944 0.544-1.443 0.761-0.16 0.069-0.332 0.114-0.49 0.187-0.261 0.121-0.516 0.257-0.783 0.392z"></path>
</svg>
