<!-- Generated by IcoMoon.io -->
<svg version="1.1" xmlns="http://www.w3.org/2000/svg" width="32" height="32" viewBox="0 0 32 32">
<title>monster-of-destruction</title>
<path d="M5.345 9.743c-0.201 0.214-0.212 0.483-0.308 0.713-0.015 0.035 0.040 0.1 0.062 0.149 0.229-0.075 0.299-0.258 0.331-0.426 0.024-0.128 0.074-0.301-0.085-0.437zM25.832 13.919c-0.135 0.069-0.225 0.125-0.322 0.162-0.18 0.069-0.292 0.214-0.404 0.355-0.037 0.046-0.047 0.133-0.037 0.196 0.056 0.333 0.143 0.656 0.354 0.933 0.255 0.333 0.519 0.661 0.751 1.010 0.176 0.265 0.308 0.561 0.475 0.869-0.156-0.014-0.276-0.026-0.397-0.035-0.149-0.011-0.252 0.047-0.312 0.192-0.076 0.18-0.172 0.351-0.247 0.532-0.066 0.161-0.061 0.327 0.009 0.49 0.022 0.051 0.030 0.107 0.041 0.162 0.065 0.34 0.128 0.68 0.195 1.035 0.050 0.012 0.116 0.028 0.166 0.040 0.073 0.198 0.142 0.379 0.206 0.563 0.017 0.051 0.026 0.107 0.027 0.162 0.004 0.119-0.001 0.238 0.001 0.357 0.002 0.274 0.164 0.439 0.438 0.455 0.151 0.009 0.302 0.024 0.453 0.042 0.037 0.005 0.088 0.020 0.107 0.048 0.145 0.213 0.371 0.36 0.463 0.618 0.065 0.18 0.182 0.223 0.369 0.188s0.278 0.009 0.374 0.179c0.141 0.249 0.198 0.275 0.468 0.192 0.079-0.024 0.14-0.019 0.179 0.055 0.102 0.199 0.302 0.265 0.483 0.35 0.082 0.038 0.189 0.020 0.294 0.029 0.137 0.287 0.127 0.601 0.107 0.913-0.024 0.408-0.192 0.783-0.291 1.173-0.118 0.462-0.441 0.767-0.719 1.11-0.592 0.733-1.272 1.381-2.014 1.958-0.941 0.732-1.939 1.379-3.007 1.916-1.060 0.533-2.16 0.96-3.304 1.271-0.797 0.216-1.605 0.386-2.427 0.476-0.843 0.092-1.69 0.1-2.536 0.068-0.398-0.015-0.792-0.093-1.189-0.13-0.215-0.019-0.431-0.016-0.647-0.016-0.164 0-0.319-0.021-0.46-0.117-0.043-0.029-0.104-0.034-0.157-0.046-0.232-0.048-0.323-0.237-0.199-0.441 0.091-0.149 0.2-0.287 0.307-0.437-0.128-0.147-0.122-0.305-0.060-0.473 0.118-0.321 0.229-0.643 0.349-0.981-0.255-0.254-0.382-0.587-0.361-0.978 0.005-0.091 0.004-0.183 0.001-0.273-0.005-0.144 0.044-0.254 0.167-0.339 0.125-0.087 0.122-0.171 0.044-0.315-0.030-0.054-0.034-0.133-0.023-0.196 0.020-0.109 0.006-0.193-0.128-0.251 0.083-0.215 0.164-0.423 0.244-0.629 0.037-0.091 0.067-0.186 0.117-0.269 0.145-0.244 0.102-0.494 0.044-0.748-0.030-0.13-0.104-0.227-0.217-0.296-0.047-0.029-0.097-0.053-0.164-0.088 0.157-0.524 0.312-1.045 0.565-1.542-0.049-0.028-0.093-0.046-0.128-0.074-0.121-0.093-0.204-0.206-0.201-0.371 0.005-0.279-0.013-0.561 0.009-0.84 0.023-0.298 0.068-0.598 0.263-0.864-0.083 0.023-0.167 0.044-0.274 0.073 0.012-0.063 0.016-0.115 0.032-0.165 0.148-0.48 0.408-0.905 0.683-1.32 0.134-0.202 0.223-0.403 0.196-0.646-0.033-0.318 0.083-0.571 0.316-0.782 0.17-0.153 0.328-0.318 0.508-0.494-0.058-0.139-0.099-0.32 0.010-0.47 0.097-0.132 0.237-0.23 0.376-0.361-0.013-0.083-0.119-0.096-0.229-0.142 0.049-0.094 0.089-0.188 0.144-0.273 0.144-0.222 0.289-0.445 0.446-0.659 0.265-0.36 0.549-0.708 0.808-1.073 0.153-0.215 0.212-0.48 0.228-0.736 0.023-0.342-0.005-0.685-0.176-1.001-0.121-0.223-0.282-0.394-0.518-0.5-0.098-0.044-0.195-0.111-0.268-0.191-0.247-0.273-0.559-0.317-0.883-0.227-0.148 0.041-0.287 0.032-0.431 0.041-0.146 0.010-0.294-0.002-0.439 0.013-0.297 0.031-0.467 0.219-0.473 0.515-0.003 0.174-0.003 0.35 0.005 0.525 0.004 0.090-0.023 0.16-0.071 0.234-0.075 0.117-0.137 0.242-0.203 0.365-0.139 0.258-0.279 0.516-0.416 0.775-0.206 0.391-0.417 0.778-0.608 1.176-0.125 0.258-0.225 0.528-0.319 0.798-0.027 0.079-0.003 0.178 0.006 0.268 0.013 0.124 0.047 0.246 0.051 0.37 0.012 0.343 0.155 0.536 0.49 0.642 0.019 0.005 0.037 0.016 0.076 0.033-0.071 0.133-0.132 0.265-0.208 0.388-0.161 0.258-0.388 0.455-0.631 0.634-0.157 0.115-0.311 0.237-0.467 0.353-0.090 0.066-0.181 0.133-0.277 0.187-0.169 0.094-0.333 0.189-0.492 0.306-0.233 0.171-0.513 0.234-0.821 0.245-0.327 0.012-0.589-0.157-0.888-0.205-0.171-0.027-0.334-0.089-0.514-0.028-0.073 0.025-0.165-0.007-0.249-0.010-0.090-0.004-0.181-0.010-0.271-0.005-0.1 0.005-0.181-0.022-0.273-0.069-0.131-0.067-0.29-0.083-0.438-0.115-0.366-0.079-0.751-0.1-1.059-0.353-0.021-0.018-0.051-0.026-0.070-0.046-0.155-0.158-0.297-0.332-0.466-0.472-0.217-0.18-0.332-0.43-0.492-0.649-0.168-0.23-0.317-0.475-0.473-0.715-0.012-0.020-0.009-0.051-0.013-0.086 0.036-0.005 0.066-0.020 0.088-0.012 0.227 0.085 0.447 0.17 0.633 0.347 0.179 0.171 0.393 0.313 0.611 0.435 0.133 0.075 0.29 0.123 0.463 0.077 0.112-0.030 0.237-0.015 0.356-0.009 0.29 0.015 0.564-0.055 0.842-0.132 0.268-0.076 0.546-0.117 0.82-0.171 0.149-0.030 0.3-0.064 0.451-0.079 0.101-0.010 0.206 0.012 0.318 0.020 0.101-0.15 0.1-0.184-0.041-0.288-0.184-0.135-0.322-0.305-0.439-0.501-0.107-0.178-0.247-0.337-0.369-0.508-0.065-0.090-0.133-0.181-0.178-0.28-0.059-0.129-0.028-0.246 0.102-0.33 0.188 0.111 0.383 0.199 0.608 0.202 0.136 0.002 0.257-0.026 0.32-0.154 0.069-0.141 0.102-0.29-0.010-0.43-0.158-0.196-0.178-0.427-0.186-0.678 0.152 0.018 0.292 0.018 0.422 0.054 0.149 0.040 0.273 0.032 0.388-0.078 0.028-0.026 0.072-0.037 0.114-0.058 0.057-0.254 0.090-0.518 0.179-0.762 0.072-0.199 0.191-0.39 0.325-0.555 0.181-0.223 0.23-0.455 0.158-0.723-0.009-0.034-0.020-0.067-0.033-0.1-0.095-0.25-0.195-0.498-0.101-0.771-0.283-0.067-0.584 0.116-0.648 0.392-0.026 0.108-0.029 0.222-0.040 0.333s-0.014 0.224-0.035 0.333c-0.037 0.193-0.129 0.36-0.308 0.453-0.249 0.132-0.477 0.287-0.673 0.491-0.069-0.035-0.079-0.083-0.051-0.14 0.029-0.064 0.052-0.132 0.093-0.188 0.203-0.27 0.162-0.584 0.158-0.888-0.002-0.182-0.133-0.301-0.289-0.304-0.162-0.003-0.268 0.121-0.302 0.315-0.030 0.171-0.088 0.336-0.133 0.502-0.030 0.114-0.074 0.227-0.085 0.342-0.012 0.127-0.128 0.129-0.195 0.211-0.028-0.088-0.064-0.163-0.075-0.241-0.024-0.184-0.153-0.297-0.274-0.409-0.211-0.195-0.622-0.051-0.693 0.235-0.023 0.095-0.054 0.189-0.065 0.286-0.012 0.095-0.003 0.193-0.003 0.315-0.237-0.021-0.383-0.23-0.627-0.287-0.093 0.061-0.213 0.135-0.328 0.217-0.039 0.027-0.086 0.066-0.096 0.108-0.071 0.288-0.315 0.466-0.446 0.712-0.107 0.199-0.113 0.431 0.009 0.625 0.241 0.384 0.499 0.758 0.76 1.129 0.092 0.131 0.241 0.188 0.394 0.223 0.080 0.019 0.178 0.019 0.178 0.137 0 0.089-0.083 0.15-0.217 0.152-0.308 0.004-0.62 0.030-0.924-0.009-0.237-0.030-0.472-0.124-0.692-0.223-0.259-0.117-0.499-0.277-0.753-0.405-0.122-0.061-0.225-0.135-0.313-0.239-0.266-0.316-0.525-0.637-0.694-1.017-0.065-0.146-0.216-0.136-0.321-0.207-0.044-0.030-0.104-0.037-0.149-0.065-0.248-0.154-0.487-0.146-0.719 0.031-0.026 0.020-0.050 0.044-0.079 0.070-0.104-0.083-0.121-0.19-0.132-0.303-0.016-0.167-0.043-0.332-0.064-0.499-0.005-0.034-0.018-0.072-0.008-0.102 0.059-0.185 0.125-0.368 0.188-0.552 0.014-0.040 0.033-0.077 0.047-0.117 0.158-0.462 0.326-0.923 0.469-1.39 0.097-0.314 0.171-0.635 0.227-0.958 0.026-0.149 0.061-0.285 0.141-0.41 0.046-0.072 0.074-0.138 0.039-0.234-0.037-0.103-0.014-0.22 0.093-0.276 0.435-0.226 0.677-0.64 0.979-0.995 0.153-0.18 0.312-0.355 0.468-0.533 0.111-0.125 0.233-0.244 0.329-0.381 0.151-0.216 0.328-0.395 0.563-0.522 0.495-0.266 0.936-0.611 1.378-0.956 0.148-0.114 0.326-0.188 0.487-0.286 0.049-0.030 0.109-0.071 0.127-0.121 0.152-0.41 0.383-0.777 0.584-1.162 0.184-0.352 0.324-0.727 0.477-1.094 0.078-0.188 0.132-0.385 0.216-0.569 0.047-0.105 0.119-0.212 0.208-0.282 0.072-0.058 0.111-0.118 0.14-0.197 0.198-0.543 0.511-1.023 0.828-1.501 0.047-0.069 0.084-0.147 0.137-0.21 0.076-0.090 0.159-0.174 0.244-0.252 0.134-0.123 0.273-0.241 0.411-0.36 0.047-0.041 0.090-0.094 0.146-0.118 0.327-0.138 0.638-0.331 0.998-0.363 0.175-0.016 0.357 0.031 0.535 0.050 0.005 0.014 0.010 0.029 0.015 0.044-0.053 0.048-0.099 0.107-0.16 0.142-0.132 0.077-0.273 0.142-0.409 0.212-0.019 0.009-0.047 0.012-0.055 0.026-0.097 0.156-0.273 0.208-0.407 0.313-0.027 0.022-0.056 0.044-0.076 0.072-0.301 0.408-0.615 0.81-0.815 1.28-0.090 0.21-0.142 0.438-0.195 0.661-0.040 0.175-0.029 0.366-0.087 0.533-0.099 0.282-0.049 0.567-0.073 0.849-0.011 0.116-0.045 0.23-0.069 0.346 0.107 0.072 0.163 0.048 0.194-0.061 0.039-0.135 0.089-0.266 0.121-0.402 0.086-0.353 0.166-0.708 0.248-1.063 0.006-0.025 0.016-0.049 0.040-0.074 0.114 0.439 0.152 0.888 0.19 1.313 0.146 0.083 0.276 0.157 0.434 0.247 0.178-0.082 0.389-0.172 0.595-0.273 0.169-0.083 0.326-0.19 0.497-0.268 0.167-0.077 0.28-0.206 0.388-0.343 0.142-0.182 0.274-0.372 0.42-0.55 0.44-0.54 0.824-1.115 1.127-1.742 0.094-0.196 0.198-0.37 0.347-0.536 0.159-0.176 0.234-0.427 0.348-0.643 0.033-0.062 0.075-0.12 0.112-0.18 0.016 0.007 0.031 0.014 0.047 0.020-0.015 0.080-0.025 0.161-0.044 0.239-0.107 0.421-0.23 0.839-0.318 1.263-0.044 0.216-0.027 0.445-0.033 0.667-0.002 0.091 0.018 0.183 0.010 0.272-0.014 0.149 0.042 0.257 0.184 0.351 0.097-0.075 0.206-0.149 0.303-0.237 0.164-0.151 0.318-0.312 0.481-0.465 0.235-0.22 0.468-0.444 0.712-0.652 0.17-0.145 0.357-0.269 0.538-0.4 0.147-0.107 0.297-0.209 0.445-0.316 0.226-0.163 0.448-0.33 0.675-0.492 0.039-0.027 0.089-0.039 0.133-0.058 0.13-0.053 0.268-0.091 0.387-0.16 0.301-0.174 0.62-0.192 0.974-0.153-0.061 0.128-0.133 0.228-0.239 0.312-0.294 0.232-0.517 0.526-0.722 0.836-0.012 0.017-0.027 0.038-0.026 0.057 0.016 0.197-0.093 0.356-0.146 0.533-0.045 0.152-0.026 0.336 0.007 0.495 0.040 0.192 0.27 0.336 0.487 0.33 0.138-0.005 0.253 0.003 0.356 0.118 0.082 0.092 0.206 0.104 0.332 0.082 0.109-0.019 0.223-0.033 0.332-0.024 0.273 0.021 0.528-0.051 0.775-0.147 0.487-0.19 0.99-0.24 1.504-0.188 0.178 0.018 0.355 0.064 0.509 0.173 0.084 0.060 0.18 0.104 0.296 0.17-0.089 0.069-0.172 0.136-0.259 0.198-0.051 0.036-0.119 0.051-0.164 0.091-0.175 0.158-0.354 0.277-0.612 0.223-0.053-0.011-0.137 0.060-0.186 0.113-0.065 0.071-0.111 0.16-0.166 0.245-0.022 0-0.042 0.003-0.061 0-0.245-0.044-0.396 0.011-0.502 0.202-0.101 0.182-0.081 0.364 0.040 0.533 0.028 0.040 0.069 0.070 0.1 0.107 0.075 0.084 0.099 0.18 0.070 0.291-0.057 0.224 0.012 0.393 0.216 0.477 0.072 0.030 0.111 0.072 0.151 0.132 0.051 0.075 0.112 0.143 0.167 0.215 0.093 0.121 0.223 0.174 0.353 0.112 0.249-0.117 0.467-0.002 0.687 0.067 0.299 0.095 0.589 0.22 0.882 0.33 0.046 0.017 0.101 0.019 0.139 0.048 0.444 0.325 0.982 0.505 1.369 0.923 0.164 0.178 0.311 0.346 0.389 0.575 0.043 0.123 0.12 0.234 0.193 0.371-0.188 0.011-0.357 0.037-0.524-0.034-0.051-0.022-0.111-0.041-0.162-0.032-0.179 0.031-0.342-0.033-0.508-0.073-0.040-0.009-0.079-0.026-0.114-0.048-0.378-0.223-0.755-0.058-0.864 0.381-0.005 0.020-0.003 0.042-0.009 0.062-0.088 0.348 0.010 0.299 0.221 0.406 0.044 0.227 0.019 0.455-0.099 0.66-0.071 0.125-0.074 0.233-0.023 0.358 0.065 0.159 0.16 0.293 0.301 0.396 0.090 0.066 0.171 0.146 0.264 0.206 0.367 0.233 0.589 0.59 0.823 0.939 0.058 0.086 0.118 0.171 0.181 0.263-0.086 0.043-0.166 0.085-0.248 0.123-0.265 0.123-0.399 0.335-0.435 0.62-0.019 0.149 0.030 0.273 0.103 0.396 0.033 0.057 0.061 0.126 0.061 0.189-0.001 0.15 0.047 0.276 0.153 0.378 0.1 0.097 0.206 0.189 0.312 0.28 0.165 0.138 0.333 0.272 0.529 0.431z"></path>
</svg>
