<!-- Generated by IcoMoon.io -->
<svg version="1.1" xmlns="http://www.w3.org/2000/svg" width="32" height="32" viewBox="0 0 32 32">
<title>monster-chaotic-beasts</title>
<path d="M2.168 21.161c0.056-0.25 0.218-0.431 0.389-0.612 0.196-0.207 0.371-0.435 0.554-0.654 0.019-0.023 0.033-0.053 0.056-0.073 0.547-0.509 0.917-1.161 1.396-1.724 0.334-0.395 0.695-0.767 1.051-1.142 0.151-0.159 0.35-0.212 0.571-0.226 0.23-0.015 0.458-0.053 0.683 0.027 0.081 0.028 0.178 0.050 0.235 0.108 0.352 0.361 0.747 0.692 0.84 1.233 0.037 0.216 0.030 0.396-0.136 0.564-0.226 0.23-0.431 0.481-0.65 0.718-0.218 0.237-0.482 0.408-0.79 0.508-0.014 0.005-0.031 0.008-0.044 0.015-0.706 0.434-1.536 0.561-2.272 0.92-0.142 0.069-0.286 0.137-0.436 0.187-0.1 0.033-0.219 0.013-0.316 0.051-0.296 0.118-0.621 0.182-0.849 0.441-0.064 0.073-0.164 0.042-0.219-0.047-0.026-0.042-0.041-0.092-0.060-0.139-0.001-0.054-0.001-0.105-0.001-0.157z"></path>
<path d="M17.808 6.168c-0.059-0.158-0.108-0.289-0.157-0.42 0.145-0.083 0.334-0.067 0.475 0.067 0.071 0.065 0.131 0.145 0.182 0.227 0.358 0.566 0.78 1.079 1.227 1.577 0.207 0.231 0.366 0.506 0.554 0.753 0.101 0.132 0.221 0.25 0.335 0.373 0.059 0.063 0.131 0.117 0.185 0.183 0.108 0.131 0.21 0.266 0.309 0.403 0.149 0.208 0.284 0.408 0.585 0.436 0.259 0.024 0.502 0.056 0.752-0.055 0.171-0.077 0.359-0.122 0.544-0.159 0.258-0.054 0.42-0.198 0.495-0.448 0.098-0.317 0.146-0.639 0.099-0.971-0.017-0.122-0.010-0.246-0.030-0.367-0.024-0.155-0.037-0.322-0.104-0.461-0.203-0.426-0.488-0.785-0.872-1.073-0.418-0.313-0.806-0.667-1.209-0.999-0.348-0.287-0.689-0.576-0.974-0.935-0.158-0.2-0.391-0.341-0.594-0.504-0.127-0.101-0.26-0.194-0.405-0.301 0.151-0.104 0.169-0.221 0.072-0.354 0.128-0.1 0.249-0.069 0.363-0.005 0.251 0.139 0.503 0.277 0.749 0.425 0.881 0.526 1.801 0.949 2.814 1.165 0.203 0.044 0.411 0.145 0.575 0.275 0.527 0.414 1.037 0.853 1.552 1.283 0.051 0.042 0.099 0.090 0.151 0.131 0.482 0.382 0.967 0.76 1.445 1.147 0.113 0.092 0.207 0.212 0.298 0.33 0.107 0.137 0.205 0.282 0.294 0.432 0.051 0.086 0.087 0.185 0.11 0.284 0.050 0.203 0.094 0.408 0.131 0.613 0.073 0.409 0.118 0.821 0.035 1.236-0.018 0.089-0.010 0.182-0.027 0.272-0.036 0.195-0.051 0.4-0.126 0.58-0.104 0.249-0.254 0.479-0.387 0.715-0.078 0.139-0.166 0.271-0.245 0.408-0.291 0.495-0.659 0.925-1.105 1.288-0.21 0.172-0.434 0.327-0.644 0.5-0.709 0.582-1.546 0.939-2.359 1.339-0.104 0.051-0.223 0.077-0.339 0.1-0.273 0.056-0.486 0.218-0.684 0.395-0.062 0.055-0.092 0.174-0.091 0.263 0.005 0.218 0.082 0.409 0.23 0.586 0.407 0.488 0.793 0.993 1.192 1.488 0.171 0.21 0.362 0.404 0.529 0.618 0.199 0.254 0.381 0.52 0.57 0.78 0.339 0.468 0.353 1.028 0.422 1.565 0.050 0.396 0.038 0.799 0.065 1.198 0.041 0.598-0.137 1.144-0.385 1.674-0.133 0.287-0.293 0.564-0.425 0.853-0.062 0.132-0.115 0.281-0.122 0.425-0.017 0.353-0.167 0.656-0.335 0.948-0.145 0.253-0.325 0.486-0.495 0.724-0.103 0.142-0.237 0.14-0.308-0.019-0.042-0.094-0.050-0.221-0.026-0.322 0.042-0.178 0.113-0.35 0.183-0.521 0.217-0.527 0.308-1.069 0.23-1.637-0.015-0.11-0.013-0.226-0.004-0.337 0.017-0.225-0.041-0.432-0.1-0.647-0.158-0.576-0.486-1.053-0.81-1.542-0.189-0.286-0.339-0.598-0.612-0.819-0.059-0.047-0.117-0.109-0.186-0.132-0.299-0.096-0.602-0.164-0.92-0.080-0.457 0.122-0.881 0.312-1.232 0.631-0.357 0.326-0.573 0.747-0.693 1.212-0.042 0.167-0.053 0.343-0.071 0.516-0.026 0.233-0.047 0.467-0.065 0.701-0.006 0.096-0.026 0.208 0.013 0.286 0.118 0.239 0.040 0.47 0.014 0.707-0.014 0.124 0.005 0.251 0.010 0.377 0.001 0.026 0.018 0.054 0.012 0.074-0.081 0.236-0.001 0.466 0.017 0.699 0.013 0.172-0.001 0.348-0.022 0.52-0.047 0.396-0.098 0.792-0.162 1.186-0.040 0.242-0.103 0.481-0.159 0.721-0.049 0.209-0.121 0.403-0.242 0.59-0.131 0.201-0.199 0.445-0.29 0.671-0.096 0.236-0.187 0.473-0.28 0.712-0.059 0.151-0.117 0.302-0.172 0.454-0.033 0.092-0.021 0.232-0.166 0.216-0.132-0.015-0.178-0.127-0.166-0.254 0.035-0.341 0.059-0.685 0.112-1.024 0.087-0.566 0.145-1.128 0.017-1.696-0.022-0.094-0.028-0.21-0.137-0.205-0.072 0.004-0.158 0.083-0.204 0.151-0.074 0.108-0.13 0.221-0.284 0.227-0.122 0.004-0.209-0.037-0.248-0.16-0.010-0.035-0.021-0.069-0.036-0.101-0.064-0.145-0.158-0.158-0.25-0.032-0.051 0.069-0.095 0.146-0.136 0.223-0.101 0.194-0.275 0.246-0.455 0.119-0.073-0.051-0.121-0.137-0.191-0.194-0.055-0.045-0.126-0.078-0.195-0.096-0.013-0.004-0.074 0.085-0.074 0.13 0.004 0.625-0.133 1.247-0.044 1.873 0.001 0.005 0 0.012 0.001 0.015 0.207 0.409 0.166 0.878 0.314 1.302 0.031 0.089 0.005 0.195 0.005 0.294 0 0.008-0.012 0.015-0.028 0.035-0.042-0.041-0.086-0.074-0.121-0.115-0.112-0.136-0.249-0.221-0.422-0.263-0.071-0.018-0.154-0.076-0.185-0.139-0.118-0.237-0.214-0.485-0.325-0.727-0.042-0.091-0.104-0.173-0.149-0.264-0.089-0.182-0.182-0.364-0.255-0.553-0.074-0.195-0.13-0.398-0.189-0.599-0.026-0.089-0.053-0.178-0.058-0.269-0.053-0.826-0.205-1.637-0.409-2.438-0.101-0.396-0.033-0.774 0.049-1.155 0.071-0.33 0.045-0.635-0.133-0.933-0.049-0.081-0.045-0.227-0.008-0.318 0.158-0.384 0.019-0.738-0.087-1.093-0.021-0.067-0.109-0.118-0.173-0.166-0.126-0.091-0.2-0.203-0.192-0.363 0.012-0.242-0.109-0.411-0.309-0.527-0.155-0.090-0.308-0.187-0.473-0.255-0.45-0.187-0.899-0.118-1.301 0.114-0.298 0.172-0.576 0.399-0.812 0.65-0.44 0.468-0.72 1.026-0.885 1.659-0.13 0.491 0.003 0.931 0.095 1.389 0.030 0.15 0.074 0.298 0.107 0.448 0.012 0.055 0.008 0.114 0.012 0.2-0.266-0.082-0.314-0.346-0.536-0.491-0.004 0.122-0.028 0.223-0.005 0.313 0.054 0.203 0.137 0.396 0.196 0.598 0.018 0.060-0.006 0.133-0.012 0.2-0.060-0.013-0.131-0.009-0.18-0.041-0.577-0.376-0.975-0.894-1.206-1.542-0.056-0.159-0.127-0.313-0.173-0.476-0.035-0.122-0.049-0.25-0.056-0.377-0.030-0.547-0.060-1.094-0.074-1.642-0.006-0.239 0.021-0.479 0.040-0.717 0.013-0.163 0.031-0.327 0.060-0.489 0.022-0.114 0.053-0.231 0.104-0.336 0.355-0.729 0.797-1.393 1.424-1.924 0.317-0.268 0.608-0.566 0.912-0.849 0.186-0.173 0.223-0.386 0.207-0.631-0.017-0.222 0-0.446 0.014-0.67 0.010-0.153 0.042-0.304 0.064-0.457 0.014-0.095-0.022-0.154-0.117-0.186-0.154-0.053-0.302-0.131-0.459-0.168-0.132-0.031-0.275-0.014-0.412-0.024-0.679-0.047-1.307-0.285-1.94-0.513-0.216-0.078-0.448-0.112-0.659-0.198-0.426-0.171-0.853-0.346-1.264-0.552-0.466-0.232-0.842-0.577-1.138-1.012-0.135-0.198-0.304-0.372-0.448-0.566-0.221-0.299-0.328-0.648-0.386-1.010-0.063-0.396-0.073-0.792-0.017-1.194 0.055-0.394 0.065-0.795 0.078-1.193 0.018-0.571 0.255-1.037 0.602-1.479 0.574-0.735 1.109-1.5 1.67-2.244 0.313-0.413 0.69-0.756 1.187-0.944 0.114-0.044 0.219-0.109 0.326-0.171 0.803-0.462 1.685-0.684 2.584-0.858 0.172-0.033 0.341-0.1 0.503-0.171 0.777-0.339 1.477-0.82 2.213-1.234 0.103-0.058 0.212-0.105 0.321-0.146 0.053-0.021 0.113-0.017 0.171-0.023 0.009 0.014 0.019 0.027 0.028 0.041-0.213 0.299-0.418 0.603-0.642 0.893-0.195 0.251-0.4 0.495-0.621 0.724-0.373 0.387-0.807 0.7-1.318 0.88-0.454 0.159-0.825 0.416-1.138 0.78-0.29 0.337-0.612 0.649-0.92 0.971-0.141 0.149-0.285 0.295-0.426 0.445-0.031 0.033-0.064 0.071-0.080 0.112-0.259 0.69-0.438 1.384-0.062 2.094 0.024 0.045 0.044 0.096 0.080 0.13 0.563 0.514 1.205 0.844 1.986 0.853 0.25 0.003 0.423-0.073 0.52-0.332 0.108-0.29 0.26-0.557 0.457-0.808 0.289-0.37 0.541-0.771 0.699-1.223 0.065-0.187 0.168-0.362 0.244-0.547 0.081-0.199 0.131-0.411 0.225-0.602 0.242-0.499 0.581-0.926 1.003-1.286 0.113-0.096 0.24-0.1 0.361 0.012 0.15 0.139 0.203 0.299 0.135 0.449-0.264 0.584-0.139 1.278 0.313 1.727 0.080 0.080 0.16 0.159 0.235 0.244 0.269 0.305 0.618 0.47 1.014 0.485 0.671 0.028 1.332-0.040 1.935-0.381 0.027-0.015 0.056-0.030 0.086-0.033 0.321-0.050 0.506-0.255 0.609-0.544 0.132-0.371 0.302-0.734 0.294-1.139-0.004-0.163-0.031-0.326-0.051-0.489-0.024-0.196 0.024-0.24 0.205-0.182 0.038 0.013 0.080 0.019 0.121 0.026 0.035 0.003 0.071 0.001 0.154 0.006zM16.602 22.322c-0.226 0.083-0.287 0.163-0.328 0.411-0.055 0.341-0.162 0.656-0.42 0.902-0.036 0.035-0.068 0.078-0.091 0.123-0.068 0.136-0.144 0.113-0.236 0.026-0.175-0.163-0.237-0.371-0.278-0.599-0.030-0.162-0.103-0.317-0.167-0.471-0.013-0.032-0.072-0.062-0.109-0.062-0.024 0-0.067 0.053-0.071 0.086-0.018 0.15-0.042 0.303-0.033 0.452 0.015 0.249 0.053 0.497 0.083 0.744 0.008 0.065 0.028 0.128 0.044 0.192 0.041 0.167 0.096 0.331 0.122 0.5 0.080 0.521 0.146 1.043 0.225 1.565 0.023 0.153 0.128 0.189 0.236 0.089 0.331-0.31 0.599-0.663 0.688-1.12 0.13-0.672 0.277-1.342 0.281-2.034 0.001-0.173 0.038-0.345 0.054-0.518 0.006-0.087 0.001-0.176 0.001-0.286zM17.492 20.318c0.1-0.033 0.169-0.049 0.232-0.078 0.281-0.133 0.564-0.262 0.838-0.409 0.103-0.055 0.199-0.144 0.264-0.24 0.263-0.386 0.405-0.824 0.493-1.279 0.015-0.082-0.010-0.172-0.018-0.258-0.085 0.022-0.18 0.024-0.251 0.068-0.749 0.449-1.193 1.147-1.537 1.921-0.031 0.071-0.014 0.163-0.021 0.276zM11.778 18.368c-0.114 0.022-0.154 0.077-0.109 0.169 0.054 0.11 0.115 0.218 0.186 0.317 0.173 0.241 0.363 0.471 0.53 0.716 0.354 0.521 0.785 0.675 1.37 0.473 0.158-0.054 0.192-0.137 0.082-0.259-0.164-0.181-0.327-0.371-0.521-0.514-0.345-0.257-0.707-0.49-1.073-0.716-0.14-0.086-0.309-0.126-0.466-0.186zM17.020 19.847c-0.168-0.012-0.241 0.035-0.227 0.162 0.005 0.047 0.063 0.121 0.104 0.126 0.118 0.015 0.153-0.069 0.123-0.287z"></path>
<path d="M29.828 19.005c0 0.038 0.003 0.050 0 0.059-0.032 0.081-0.064 0.162-0.096 0.241-0.071-0.051-0.142-0.099-0.21-0.154-0.038-0.032-0.064-0.082-0.104-0.11-0.091-0.062-0.173-0.063-0.219 0.058-0.027 0.072-0.049 0.146-0.083 0.214-0.050 0.098-0.133 0.14-0.226 0.064-0.148-0.121-0.319-0.149-0.499-0.177-0.296-0.047-0.59-0.115-0.888-0.16-0.307-0.047-0.618-0.117-0.925-0.108-0.706 0.021-1.363-0.217-2.040-0.335-0.040-0.006-0.083-0.022-0.112-0.047-0.318-0.28-0.645-0.552-0.947-0.849-0.148-0.145-0.162-0.357-0.145-0.564 0.013-0.157 0.014-0.317 0-0.473-0.026-0.268 0.046-0.435 0.291-0.552 0.259-0.123 0.523-0.232 0.789-0.34 0.053-0.022 0.122-0.024 0.177-0.012 0.635 0.145 1.232 0.376 1.755 0.779 0.929 0.713 1.939 1.3 2.979 1.836 0.1 0.051 0.195 0.113 0.285 0.181 0.153 0.118 0.241 0.273 0.218 0.45z"></path>
<path d="M15.898 6.725c-0.008 0.055 0 0.118-0.027 0.162-0.187 0.317-0.411 0.581-0.815 0.633-0.375 0.047-0.844-0.167-1.026-0.498-0.213-0.386-0.237-0.799-0.172-1.225 0.105-0.694 0.209-1.388 0.317-2.081 0.069-0.445 0.118-0.894 0.219-1.332 0.169-0.735 0.21-1.505 0.561-2.195 0.059-0.117 0.13-0.214 0.264-0.181 0.135 0.035 0.178 0.162 0.186 0.29 0.017 0.285 0.015 0.571 0.039 0.856 0.031 0.367 0.065 0.734 0.121 1.098 0.071 0.476 0.153 0.949 0.248 1.42 0.058 0.285 0.189 0.561 0.213 0.847 0.030 0.35 0.098 0.685 0.208 1.016 0.009 0.028 0.004 0.060 0.005 0.091 0.005 0.209 0.010 0.417 0.017 0.626 0.001 0.056 0.014 0.112 0.017 0.168 0.009 0.255-0.024 0.29-0.286 0.299-0.031 0.001-0.060 0.008-0.091 0.012 0.004-0.040 0.024-0.089 0.009-0.118-0.023-0.044-0.068-0.081-0.11-0.108-0.010-0.006-0.076 0.038-0.073 0.049 0.013 0.051 0.032 0.105 0.065 0.144 0.022 0.023 0.074 0.019 0.113 0.028z"></path>
</svg>
