<!-- Generated by IcoMoon.io -->
<svg version="1.1" xmlns="http://www.w3.org/2000/svg" width="32" height="32" viewBox="0 0 32 32">
<title>treasure-potions</title>
<path d="M16.149 31.934c-0.371-0.038-0.461-0.090-0.32-0.179 0.128-0.077 0.090-0.115-0.166-0.115-0.295 0-0.359-0.051-0.359-0.32 0-0.179-0.051-0.32-0.128-0.32-0.064 0-0.128-0.077-0.128-0.154 0-0.090-0.141-0.448-0.32-0.794-0.359-0.717-0.397-1.038-0.141-1.14 0.359-0.141 0.717-1.166 0.717-2.050 0-0.461 0.051-0.871 0.102-0.909 0.192-0.115 0.282-2.152 0.141-2.959-0.077-0.423-0.154-1.14-0.192-1.601-0.051-0.807-0.128-1.063-0.512-1.832-0.102-0.205-0.179-0.448-0.179-0.551s-0.090-0.218-0.192-0.256c-0.102-0.051-0.192-0.179-0.192-0.295 0-0.269-0.512-0.781-0.781-0.781-0.102 0-0.333-0.102-0.538-0.231l-0.346-0.243 0.32-0.346c0.179-0.192 0.32-0.397 0.32-0.474 0-0.064 0.077-0.115 0.166-0.115 0.077 0 0.231-0.179 0.333-0.397 0.090-0.218 0.333-0.564 0.538-0.769s0.371-0.5 0.371-0.628c0-0.141 0.051-0.256 0.115-0.256s0.141-1.383 0.154-3.074c0.038-2.229 0.090-3.1 0.218-3.228 0.41-0.41 0.038-1.511-0.525-1.511-0.115 0-0.218-0.051-0.218-0.128 0-0.064-0.115-0.128-0.256-0.128s-0.256-0.064-0.256-0.141c0-0.077 0.115-0.167 0.256-0.205 0.231-0.064 0.32-0.269 0.269-0.576 0-0.064 0.295-0.102 0.653-0.115 4.112-0.038 4.88-0.013 4.522 0.141-0.231 0.102-0.231 0.115 0.077 0.115 0.32 0.013 0.884 0.423 0.884 0.653 0 0.064-0.090 0.077-0.218 0.038-0.141-0.051-0.179-0.038-0.115 0.064 0.128 0.218-0.026 0.41-0.243 0.32-0.102-0.038-0.192-0.205-0.192-0.371 0-0.243-0.064-0.307-0.32-0.307s-0.32 0.064-0.32 0.307c0 0.231 0.077 0.333 0.282 0.359 0.154 0.026 0.295 0.115 0.333 0.218s0 0.141-0.064 0.102c-0.064-0.038-0.218 0.038-0.333 0.179-0.179 0.205-0.218 0.525-0.218 1.768 0 1.345-0.026 1.55-0.269 1.857-0.141 0.192-0.231 0.435-0.192 0.538 0.090 0.243 0.384 0.166 0.41-0.090 0.026-0.41 0.051-0.5 0.166-0.5 0.064 0 0.141 0.423 0.179 0.935 0.038 0.5 0.115 1.102 0.154 1.332 0.077 0.359 0.051 0.41-0.205 0.448-0.205 0.026-0.32 0.141-0.346 0.346-0.026 0.166-0.192 0.448-0.359 0.64-0.346 0.371-0.692 1.038-0.692 1.345 0 0.115-0.051 0.205-0.128 0.205s-0.128 0.423-0.128 1.012c0 0.64-0.064 1.14-0.192 1.371-0.243 0.474-0.243 1.255 0 1.512 0.102 0.102 0.192 0.346 0.192 0.525 0 0.41 0.397 1.601 0.538 1.601 0.064 0 0.102 0.154 0.102 0.359 0.013 0.192 0.090 0.487 0.192 0.666s0.179 0.474 0.192 0.653c0 0.179 0.038 0.371 0.077 0.41 0.115 0.115 0.551 1.383 0.564 1.614 0 0.102 0.090 0.295 0.205 0.41 0.192 0.218 0.192 0.256 0 0.551-0.115 0.179-0.205 0.436-0.205 0.576s-0.051 0.282-0.115 0.32c-0.051 0.038-0.141 0.231-0.179 0.423-0.038 0.205-0.179 0.474-0.307 0.615-0.307 0.32-0.628 0.974-0.743 1.473-0.051 0.205-0.141 0.384-0.205 0.384s-0.115 0.090-0.115 0.205c0 0.282-0.884 1.358-1.038 1.268-0.064-0.051-0.077 0.013-0.038 0.115 0.038 0.115 0.064 0.192 0.038 0.179s-0.282-0.038-0.551-0.064zM17.225 17.613c0-0.231-0.051-0.295-0.192-0.243-0.205 0.077-0.256 0.333-0.102 0.474 0.166 0.179 0.295 0.077 0.295-0.231z"></path>
<path d="M8.13 31.127c0-0.064-0.115-0.128-0.269-0.128-0.307 0-1.025-0.371-1.178-0.602-0.051-0.090-0.179-0.166-0.256-0.166-0.090 0-0.346-0.166-0.576-0.384-0.231-0.205-0.5-0.384-0.576-0.384-0.090 0-0.077-0.051 0.038-0.128 0.167-0.115 0.167-0.128 0-0.128-0.115 0-0.346-0.141-0.512-0.32-0.179-0.179-0.423-0.423-0.538-0.551-0.128-0.115-0.231-0.346-0.231-0.5 0-0.166-0.051-0.295-0.128-0.295-0.064 0-0.128-0.102-0.128-0.218 0-0.128-0.090-0.397-0.192-0.602-0.102-0.192-0.192-0.576-0.192-0.833s-0.077-0.551-0.154-0.628c-0.102-0.102-0.179-0.679-0.205-1.537-0.038-1.153-0.013-1.409 0.154-1.55 0.115-0.090 0.205-0.333 0.205-0.525s0.090-0.423 0.192-0.512c0.102-0.090 0.192-0.243 0.192-0.359 0-0.102 0.141-0.384 0.32-0.615 0.397-0.512 0.397-0.653 0.038-0.999-0.423-0.384-0.743-0.922-0.743-1.23 0-0.141-0.051-0.256-0.115-0.256s-0.141-0.128-0.179-0.282c-0.077-0.256 0.589-1.652 0.82-1.742 0.064-0.026 0.115-0.166 0.115-0.307 0-0.256 0.32-0.922 0.576-1.204 0.346-0.371 0.986-0.564 1.857-0.564 1.307 0 1.435-0.141 1.383-1.588-0.026-0.781-0.077-1.102-0.192-1.102s-0.167-0.256-0.167-0.897c0-0.717-0.038-0.897-0.192-0.897-0.102 0-0.192-0.064-0.192-0.128 0-0.077-0.115-0.256-0.243-0.41-0.243-0.256-0.243-0.269 0.026-0.692 0.295-0.461 0.359-0.474 1.563-0.423 3.19 0.128 3.215 0.128 4.522 0.038 0.897-0.064 1.050-0.038 1.050 0.128 0 0.115 0.077 0.205 0.166 0.205 0.115 0 0.115 0.026-0.013 0.115-0.090 0.051-0.192 0.218-0.205 0.346-0.026 0.128-0.115 0.231-0.179 0.218-0.090-0.026-0.115 0.051-0.064 0.179s0.026 0.179-0.051 0.128c-0.077-0.051-0.218-0.013-0.32 0.077-0.090 0.090-0.423 0.269-0.743 0.41-0.32 0.128-0.679 0.359-0.82 0.487-0.218 0.218-0.231 0.307-0.077 0.909 0.090 0.397 0.128 1.050 0.077 1.678-0.038 0.564-0.102 1.947-0.154 3.074l-0.077 2.049 0.384 0.423c0.205 0.218 0.423 0.41 0.5 0.41 0.154 0 0.807 0.717 0.807 0.884 0 0.064 0.090 0.141 0.192 0.192 0.102 0.038 0.192 0.154 0.192 0.243 0 0.102 0.090 0.256 0.192 0.346s0.192 0.269 0.192 0.384c0 0.128 0.064 0.256 0.141 0.282 0.064 0.026 0.141 0.231 0.141 0.448 0.013 0.307 0.064 0.384 0.218 0.333 0.141-0.051 0.115 0-0.051 0.128-0.231 0.192-0.231 0.205-0.026 0.218 0.192 0 0.218 0.179 0.218 1.845 0 1.025-0.051 1.883-0.115 1.921s-0.154 0.282-0.192 0.525c-0.051 0.243-0.141 0.448-0.205 0.448-0.051 0-0.141 0.179-0.192 0.384-0.051 0.218-0.141 0.384-0.205 0.384s-0.115 0.141-0.115 0.32c0 0.179-0.051 0.32-0.115 0.32s-0.166 0.115-0.205 0.256c-0.051 0.141-0.487 0.666-0.973 1.166-0.858 0.871-0.922 0.909-1.217 0.756-0.256-0.141-0.359-0.141-0.628 0-0.179 0.090-0.32 0.243-0.32 0.333 0 0.154-0.359 0.371-0.538 0.333-0.064-0.013-0.102 0.038-0.102 0.102 0 0.077-0.090 0.128-0.192 0.128s-0.192 0.064-0.192 0.128c0 0.077-0.231 0.128-0.512 0.128s-0.512-0.051-0.512-0.128zM12.652 24.671c0.333-0.346 0.423-3.382 0.090-3.715-0.064-0.064-0.128-0.231-0.128-0.359s-0.051-0.231-0.102-0.231c-0.064 0-0.205-0.231-0.333-0.512-0.256-0.589-0.602-0.948-1.14-1.217-0.32-0.154-0.397-0.154-0.551 0-0.102 0.090-0.179 0.32-0.179 0.5 0 0.307 0.538 1.473 0.756 1.614s0.909 1.383 0.909 1.64c0 0.141 0.064 0.307 0.128 0.346 0.077 0.038 0.128 0.538 0.128 1.102 0 1.012 0.077 1.166 0.423 0.833zM6.849 18.189c0-0.064 0.090-0.128 0.192-0.128s0.333-0.141 0.512-0.32c0.282-0.295 0.32-0.436 0.32-1.281 0-1.076-0.115-1.217-0.999-1.217-0.397 0-0.589 0.090-0.961 0.474-0.397 0.397-0.474 0.551-0.474 1.025 0 0.307 0.115 0.794 0.256 1.063 0.231 0.448 0.32 0.512 0.705 0.512 0.243 0 0.448-0.051 0.448-0.128zM11.205 17.357c0-0.256-0.064-0.32-0.32-0.32s-0.32 0.064-0.32 0.32c0 0.256 0.064 0.32 0.32 0.32s0.32-0.064 0.32-0.32zM8.515 9.3c0-0.282-0.371-0.525-0.538-0.359-0.295 0.295-0.218 0.538 0.166 0.538 0.231 0 0.371-0.064 0.371-0.179zM13.51 7.942c0-0.064-0.026-0.128-0.051-0.128-0.038 0-0.102 0.064-0.141 0.128-0.038 0.077-0.013 0.128 0.051 0.128 0.077 0 0.141-0.051 0.141-0.128z"></path>
<path d="M22.989 28.821c0-0.090 0.038-0.128 0.090-0.090 0.038 0.051 0.038 0.128 0 0.179-0.051 0.038-0.090 0-0.090-0.090z"></path>
<path d="M22.989 28.578c-0.397-0.051-0.564-0.128-0.538-0.256 0.026-0.102-0.038-0.141-0.141-0.102-0.090 0.038-0.282-0.102-0.423-0.307-0.128-0.205-0.282-0.371-0.333-0.371-0.064 0-0.102-0.115-0.102-0.256s-0.141-0.487-0.32-0.769c-0.179-0.282-0.32-0.602-0.32-0.704 0-0.115-0.090-0.231-0.192-0.269-0.102-0.051-0.192-0.231-0.192-0.423 0-0.179-0.090-0.448-0.192-0.576-0.102-0.141-0.192-0.359-0.192-0.487s-0.051-0.231-0.128-0.231c-0.064 0-0.128-0.102-0.128-0.243 0-0.128-0.090-0.307-0.192-0.397s-0.192-0.295-0.192-0.461c0-0.166-0.051-0.307-0.115-0.307-0.141 0-0.192-0.243-0.397-1.793-0.077-0.602-0.231-1.255-0.333-1.447-0.128-0.269-0.154-0.615-0.090-1.345 0.051-0.64 0.115-0.897 0.179-0.73s0.090 0.013 0.090-0.41c0-0.371 0.051-0.756 0.141-0.845 0.077-0.102 0.154-0.333 0.166-0.512s0.077-0.295 0.128-0.269c0.051 0.038 0.102 0.013 0.102-0.051 0-0.077 0.179-0.192 0.384-0.269 0.218-0.064 0.384-0.192 0.384-0.256 0-0.077 0.077-0.141 0.179-0.141s0.269-0.077 0.359-0.179c0.102-0.090 0.32-0.218 0.487-0.269 0.371-0.115 0.769-0.538 0.769-0.794 0-0.128 0.192-0.166 0.679-0.166 0.359 0.013 1.319 0.013 2.126 0.013 1.422 0 1.934 0.128 1.934 0.461 0 0.077 0.179 0.166 0.397 0.192 0.243 0.026 0.461 0.141 0.551 0.295 0.077 0.141 0.218 0.307 0.307 0.359 0.077 0.051 0.154 0.192 0.154 0.282 0 0.102 0.051 0.192 0.102 0.192 0.115 0 0.384 1.127 0.5 2.049 0.026 0.32 0.128 0.64 0.205 0.704 0.243 0.205 0.256 0.576 0.026 0.576-0.154 0-0.192 0.154-0.192 0.73 0 0.653-0.295 1.793-0.525 1.96-0.038 0.038-0.115 0.282-0.166 0.551-0.051 0.256-0.141 0.474-0.205 0.474-0.077 0-0.128 0.141-0.128 0.32s-0.051 0.32-0.115 0.32c-0.064 0-0.154 0.166-0.205 0.384-0.051 0.205-0.141 0.41-0.205 0.448-0.064 0.051-0.115 0.192-0.115 0.32s-0.166 0.41-0.384 0.615c-0.205 0.218-0.384 0.448-0.384 0.525s-0.051 0.141-0.115 0.141c-0.064 0-0.154 0.141-0.192 0.32-0.051 0.179-0.141 0.32-0.205 0.32-0.077 0-0.128 0.064-0.128 0.128 0 0.077-0.231 0.384-0.512 0.666-0.282 0.295-0.512 0.615-0.512 0.717 0 0.090-0.102 0.295-0.218 0.461-0.179 0.243-0.269 0.269-0.512 0.154-0.32-0.154-0.41-0.41-0.102-0.282 0.102 0.038 0.192 0.013 0.192-0.051 0-0.077-0.32-0.128-0.704-0.128-0.692 0-0.692 0-0.666 0.384 0.026 0.371 0.102 0.436 0.448 0.397 0.077-0.013 0.154 0.038 0.154 0.115 0 0.064 0.192 0.141 0.423 0.141 0.218 0.013 0.307 0.038 0.192 0.077-0.128 0.026-0.231 0.102-0.231 0.166s0.102 0.141 0.231 0.166c0.295 0.077-0.026 0.064-0.743-0.026zM24.667 19.061c0.128-0.166 0.231-0.397 0.243-0.525 0-0.128 0.064-0.192 0.141-0.154 0.077 0.051 0.166-0.026 0.205-0.179s0.115-0.269 0.179-0.269c0.064 0 0.115-0.051 0.115-0.115s0.231-0.461 0.525-0.897c0.538-0.794 0.564-1.102 0.154-1.255-0.128-0.051-0.423-0.282-0.64-0.512-0.384-0.397-0.423-0.512-0.423-1.204v-0.756h-0.5c-0.295 0-0.589 0.090-0.704 0.205-0.115 0.102-0.205 0.166-0.205 0.115 0-0.038-0.115-0.013-0.269 0.077-0.192 0.102-0.231 0.179-0.128 0.282 0.077 0.077 0.141 0.41 0.141 0.73 0 0.551-0.026 0.602-0.448 0.807-0.256 0.115-0.538 0.218-0.64 0.218-0.115 0-0.192 0.128-0.192 0.32 0 0.179 0.051 0.32 0.115 0.32s0.141 0.102 0.192 0.231c0.077 0.243 0.32 0.64 0.551 0.884 0.077 0.090 0.218 0.333 0.32 0.551 0.090 0.205 0.205 0.384 0.256 0.384s0.141 0.231 0.179 0.512c0.102 0.602 0.436 0.692 0.833 0.231zM19.403 18.189c0-0.205 0-0.423 0.013-0.474 0.026-0.256-0.243-0.128-0.384 0.166-0.115 0.256-0.115 0.384 0 0.512 0.231 0.282 0.371 0.205 0.371-0.205zM20.094 15.82c0.038-0.102 0-0.179-0.077-0.154-0.077 0.013-0.166-0.051-0.192-0.141-0.038-0.090 0.090-0.192 0.32-0.231 0.243-0.051 0.371-0.141 0.333-0.243-0.077-0.192-0.487-0.32-0.64-0.205-0.179 0.128-0.205 0.743-0.051 0.845 0.115 0.077 0.115 0.128-0.013 0.205-0.141 0.090-0.141 0.115 0.026 0.115 0.115 0 0.243-0.090 0.295-0.192zM20.427 15.576c0-0.038-0.064-0.102-0.154-0.154s-0.102-0.038-0.051 0.051c0.090 0.154 0.205 0.205 0.205 0.102z"></path>
<path d="M24.116 16.435c-0.256-0.064-0.32-0.423-0.064-0.423 0.090 0 0.231 0.115 0.32 0.256 0.154 0.256 0.141 0.269-0.256 0.166z"></path>
<path d="M17.494 18.932c0-0.231 0.051-0.538 0.115-0.679 0.077-0.192 0.115-0.077 0.115 0.423 0.013 0.359-0.038 0.666-0.115 0.666-0.064 0-0.128-0.192-0.115-0.41z"></path>
<path d="M26.422 12.592c0.077-0.026 0.231-0.026 0.32 0 0.077 0.038 0.013 0.064-0.166 0.064s-0.243-0.026-0.154-0.064z"></path>
<path d="M25.974 12.387c-0.064-0.115-0.64-0.231-1.665-0.346-1.102-0.115-1.588-0.218-1.627-0.346-0.038-0.102-0.026-0.154 0.026-0.115 0.051 0.026 0.179 0.013 0.282-0.051 0.141-0.090 0.154-0.166 0.038-0.41-0.090-0.166-0.179-0.525-0.205-0.807-0.064-0.704-0.371-1.755-0.564-1.96-0.090-0.090-0.166-0.256-0.166-0.359s-0.051-0.179-0.128-0.179c-0.064 0-0.128-0.141-0.128-0.307 0-0.282 0.064-0.32 0.704-0.397 0.384-0.051 0.704-0.141 0.704-0.205s0.154-0.115 0.359-0.102c0.192 0 0.269 0.038 0.166 0.077-0.436 0.179 0.231 0.256 1.537 0.192 1.332-0.064 1.422-0.051 1.716 0.231 0.423 0.397 0.397 0.705-0.064 0.986-0.205 0.115-0.384 0.269-0.384 0.333 0 0.051-0.154 0.243-0.333 0.423-0.32 0.282-0.346 0.384-0.359 1.435-0.013 1.076-0.026 1.114-0.295 1.089-0.192-0.026-0.295 0.038-0.295 0.154 0 0.154 0.090 0.179 0.359 0.115 0.448-0.102 0.436-0.102 0.704 0.013 0.218 0.090 0.218 0.102-0.038 0.282-0.141 0.102-0.231 0.243-0.192 0.307 0.051 0.064 0.051 0.115 0.013 0.115s-0.115-0.077-0.166-0.166zM25.602 10.145c0.013-0.41-0.218-0.564-0.346-0.231-0.102 0.256 0.051 0.73 0.205 0.679 0.064-0.013 0.141-0.218 0.141-0.448z"></path>
<path d="M26.678 12.207c0.090-0.038 0.205-0.026 0.243 0.013 0.051 0.038-0.026 0.077-0.166 0.064-0.141 0-0.179-0.038-0.077-0.077z"></path>
<path d="M14.164 8.249c0-0.141 0.038-0.179 0.077-0.077 0.038 0.090 0.026 0.205-0.013 0.243-0.038 0.051-0.077-0.026-0.064-0.166z"></path>
<path d="M27.895 7.763c-0.436-0.205-0.397-0.666 0.051-0.653 0.269 0 0.346 0.064 0.384 0.346 0.051 0.41-0.051 0.487-0.436 0.307zM28.241 7.622c0-0.102-0.090-0.192-0.192-0.192-0.166 0-0.179 0.038-0.038 0.192 0.205 0.231 0.231 0.231 0.231 0z"></path>
<path d="M8.515 6.597c0-0.102-0.090-0.192-0.192-0.192-0.218 0-0.269-0.833-0.064-1.153 0.179-0.282 2.19-0.359 2.459-0.090 0.102 0.115 0.423 0.218 0.692 0.243 0.448 0.038 0.5 0.077 0.461 0.346-0.013 0.179-0.115 0.41-0.205 0.512-0.090 0.115-0.141 0.295-0.115 0.397 0.051 0.167 0.038 0.167-0.090 0-0.115-0.154-0.166-0.154-0.218-0.026-0.038 0.115-0.115 0.128-0.231 0.026-0.243-0.205-1.704-0.243-1.78-0.038-0.090 0.231-0.717 0.218-0.717-0.026z"></path>
<path d="M23.13 5.88c-0.243-0.205-0.256-0.269-0.128-0.871l0.141-0.653h1.512c1.499 0 1.512 0 1.563 0.32 0.090 0.448-0.256 1.089-0.589 1.089-0.154 0-0.333 0.051-0.397 0.115-0.077 0.064-0.512 0.141-0.986 0.167-0.653 0.038-0.909 0-1.114-0.167z"></path>
<path d="M17.801 4.355c-0.666-0.038-1.012-0.102-0.833-0.141 0.256-0.064 0.218-0.090-0.192-0.102-0.282-0.013-0.73-0.051-0.986-0.090l-0.487-0.090v-0.807c0-0.564 0.051-0.82 0.166-0.82 0.141 0 0.858-0.897 0.858-1.076 0-0.231 0.82-1.23 1.025-1.23 0.282 0 1.191 1.012 1.102 1.23-0.064 0.154 0.154 0.435 0.346 0.435 0.051 0 0.064-0.064 0.013-0.154s-0.038-0.102 0.064-0.051c0.090 0.064 0.102 0.167 0.026 0.295-0.115 0.218 0.102 0.551 0.359 0.551 0.243 0 0.166 1.563-0.090 1.857-0.192 0.231-0.333 0.256-1.371 0.192zM18.98 4.138c-0.051-0.038-0.090 0-0.090 0.090s0.038 0.128 0.090 0.090c0.038-0.051 0.038-0.128 0-0.179zM18.122 0.756c-0.154-0.205-0.32-0.359-0.359-0.32-0.064 0.077 0.461 0.717 0.576 0.717 0.038 0-0.064-0.179-0.218-0.397zM17.571 0.167c-0.051-0.038-0.128-0.038-0.179 0-0.038 0.051 0 0.090 0.090 0.090s0.128-0.038 0.090-0.090z"></path>
</svg>
