<!-- Generated by IcoMoon.io -->
<svg version="1.1" xmlns="http://www.w3.org/2000/svg" width="32" height="32" viewBox="0 0 32 32">
<title>treasure-totem</title>
<path d="M16.988 31.764c-0.298-0.48-0.337-1.166-0.104-2.138 0.272-1.14 0.22-1.374-0.311-1.374-0.467 0-0.531-0.091-0.596-0.803-0.026-0.311-0.117-0.57-0.194-0.596-0.065-0.026-0.13-0.272-0.13-0.557 0-0.272-0.052-0.505-0.104-0.505-0.065 0-0.22-0.233-0.35-0.518-0.181-0.389-0.311-0.518-0.544-0.518-0.155 0-0.298-0.052-0.298-0.13 0-0.065-0.168-0.13-0.363-0.13-0.207 0-0.479-0.091-0.622-0.194-0.13-0.104-0.337-0.194-0.441-0.194s-0.337-0.117-0.492-0.246c-0.272-0.194-0.285-0.246-0.117-0.415 0.104-0.104 0.233-0.324 0.272-0.48 0.052-0.155 0.155-0.285 0.22-0.285s0.117-0.104 0.117-0.233c0-0.13 0.065-0.298 0.143-0.376 0.104-0.104 0.155-0.829 0.168-2.125 0.013-1.451 0.052-1.983 0.181-2.035 0.078-0.026 0.155-0.181 0.155-0.35 0-0.155 0.091-0.363 0.194-0.454s0.194-0.22 0.194-0.298c0-0.194 1.944-2.035 2.151-2.035 0.104 0 0.181-0.091 0.181-0.194 0-0.117 0.078-0.194 0.168-0.181 0.505 0.065 0.622-0.013 0.467-0.285-0.091-0.181-0.117-0.531-0.065-0.933 0.104-0.739 0-0.868-0.674-0.868-0.259 0-0.454 0.078-0.492 0.194-0.052 0.13-0.259 0.194-0.583 0.194-0.272 0-0.505 0.052-0.505 0.104 0 0.065-0.233 0.207-0.518 0.337s-0.596 0.298-0.687 0.376c-0.091 0.091-0.363 0.272-0.609 0.402-0.454 0.246-1.296 1.089-1.296 1.283 0 0.052-0.143 0.233-0.324 0.402s-0.324 0.415-0.324 0.57c0 0.143-0.091 0.285-0.194 0.337-0.104 0.039-0.194 0.233-0.194 0.428 0 0.259-0.039 0.311-0.117 0.181s-0.143-0.052-0.194 0.259c-0.091 0.428-0.143 0.596-0.441 1.283-0.078 0.181-0.181 0.674-0.22 1.102-0.052 0.428-0.143 0.842-0.194 0.907-0.065 0.078-0.13 0.492-0.155 0.907-0.039 0.739-0.052 0.778-0.35 0.739-0.402-0.039-0.389-0.013-0.428-0.583-0.013-0.363-0.078-0.48-0.259-0.48-0.13 0-0.272 0.091-0.311 0.194-0.052 0.104-0.155 0.194-0.259 0.194-0.233 0-0.233-0.065 0.013-0.441 0.155-0.22 0.194-0.557 0.168-1.192-0.039-0.868-0.052-0.894-0.428-0.998-0.207-0.065-0.648-0.194-0.972-0.298s-0.739-0.194-0.933-0.207c-0.194-0.013-0.337-0.078-0.324-0.143s-0.298-0.143-0.687-0.168c-0.389-0.013-0.726-0.104-0.752-0.168-0.026-0.078-0.13-0.143-0.246-0.143-0.104 0-0.168-0.078-0.13-0.155 0.065-0.194 1.231-0.22 1.361-0.026 0.117 0.155 0.674 0.207 0.674 0.052 0-0.052 0.7-0.143 1.542-0.194 1.49-0.091 1.555-0.104 1.62-0.402 0.052-0.168 0.143-0.311 0.207-0.311 0.078 0 0.13-0.078 0.13-0.181 0-0.246 0.635-1.4 0.907-1.659 0.13-0.13 0.285-0.363 0.337-0.518 0.039-0.168 0.259-0.454 0.454-0.661 0.207-0.194 0.376-0.415 0.376-0.479 0-0.181-0.479-0.648-0.57-0.544-0.039 0.039-0.078-0.052-0.078-0.194 0-0.259-1.555-1.918-2.76-2.955-0.337-0.285-0.609-0.583-0.609-0.648 0-0.078 0.246-0.117 0.583-0.091 0.324 0.026 0.583 0.104 0.583 0.168s0.091 0.117 0.194 0.117c0.104 0 0.194 0.065 0.194 0.13 0 0.078 0.104 0.181 0.22 0.233 0.441 0.181 1.205 0.739 1.205 0.881 0 0.091 0.143 0.194 0.324 0.233 0.181 0.052 0.324 0.143 0.324 0.207 0 0.078 0.091 0.13 0.194 0.13s0.194 0.052 0.194 0.104c0 0.065 0.233 0.207 0.518 0.337 0.337 0.143 0.518 0.311 0.518 0.467 0 0.259 0.207 0.467 0.285 0.298 0.013-0.065 0.311-0.233 0.661-0.402 0.337-0.168 0.609-0.363 0.609-0.428s0.181-0.117 0.389-0.117c0.22 0 0.389-0.052 0.389-0.13 0-0.065 0.117-0.13 0.246-0.13 0.143 0 0.337-0.091 0.454-0.194 0.104-0.104 0.337-0.194 0.505-0.194 0.389 0 1.14-0.376 1.322-0.648 0.065-0.104 0.104-0.505 0.078-0.881-0.026-0.428 0.013-0.674 0.104-0.674 0.078 0 0.143-0.065 0.143-0.143s-0.104-0.104-0.22-0.065c-0.194 0.065-0.194 0.052 0.013-0.117 0.246-0.181 0.246-0.194-0.078-0.194-0.194 0-0.389 0.052-0.428 0.13-0.039 0.065-0.207 0.13-0.376 0.13-0.246 0-0.285-0.078-0.311-0.492-0.026-0.272 0.052-0.674 0.168-0.881 0.104-0.207 0.194-0.505 0.194-0.661s0.065-0.324 0.13-0.363c0.078-0.039 0.13-0.272 0.13-0.492 0-0.233 0.091-0.531 0.194-0.661 0.104-0.143 0.194-0.428 0.194-0.622 0-0.207 0.052-0.467 0.117-0.596 0.207-0.389 0.661-1.957 0.661-2.294 0-0.168 0.065-0.35 0.13-0.389 0.078-0.039 0.13-0.22 0.13-0.402 0-0.168 0.078-0.311 0.168-0.311 0.155 0 0.402 0.998 0.557 2.397 0.052 0.363 0.13 0.752 0.194 0.868s0.117 0.389 0.117 0.596c0 0.207 0.091 0.635 0.194 0.933s0.194 0.713 0.194 0.92c0 0.207 0.052 0.376 0.117 0.376s0.155 0.155 0.194 0.337c0.104 0.389 0.376 0.7 0.622 0.7 0.13 0 0.117 0.039-0.026 0.13-0.13 0.078-0.143 0.13-0.026 0.13 0.078 0 0.155 0.13 0.143 0.298 0 0.272-0.013 0.272-0.117 0.026-0.091-0.22-0.117-0.22-0.117-0.026-0.013 0.155-0.117 0.22-0.376 0.22-0.609 0-0.816 0.363-0.778 1.309l0.039 0.829 1.231 0.026c0.674 0.013 1.685 0.065 2.242 0.104 0.544 0.052 0.998 0.039 0.998-0.026 0-0.052 0.143-0.272 0.324-0.479s0.324-0.479 0.324-0.596c0-0.13 0.091-0.298 0.194-0.389s0.194-0.246 0.194-0.337c0-0.104 0.065-0.181 0.13-0.181 0.078 0 0.13-0.143 0.13-0.324 0-0.207 0.078-0.324 0.194-0.324 0.104 0 0.194-0.117 0.194-0.246 0-0.57 0.855-1.542 1.231-1.387 0.143 0.052 0.155 0.155 0.052 0.492-0.078 0.285-0.078 0.441 0.013 0.467 0.065 0.026 0.13 0.194 0.13 0.363 0 0.194-0.052 0.298-0.143 0.246-0.078-0.052-0.104-0.181-0.065-0.285s0.026-0.155-0.039-0.117c-0.065 0.039-0.143 0.233-0.181 0.428-0.13 0.622-0.376 1.516-0.492 1.749-0.065 0.13-0.117 0.337-0.117 0.467 0 0.117-0.091 0.35-0.194 0.492-0.194 0.298-0.143 0.441 0.155 0.441 0.104 0 0.272 0.091 0.376 0.194 0.117 0.104 0.402 0.194 0.635 0.194 0.246 0 0.48 0.065 0.518 0.13 0.039 0.078 0.194 0.13 0.324 0.13s0.324 0.091 0.441 0.194c0.104 0.104 0.22 0.194 0.272 0.194s0.259 0.168 0.467 0.376c0.35 0.35 0.531 1.050 0.272 1.050-0.065 0-0.181 0.143-0.259 0.324-0.117 0.233-0.246 0.324-0.531 0.324-0.233 0-0.531-0.13-0.739-0.324-0.194-0.181-0.454-0.324-0.583-0.324s-0.311-0.091-0.428-0.194c-0.104-0.104-0.337-0.194-0.518-0.194s-0.35-0.052-0.402-0.117c-0.039-0.078-0.35-0.168-0.687-0.207s-0.713-0.13-0.829-0.207c-0.13-0.065-0.402-0.117-0.609-0.117s-0.441-0.091-0.531-0.194c-0.143-0.168-0.48-0.194-1.931-0.168-1.672 0.039-1.762 0.052-1.724 0.298 0.013 0.143 0.039 0.726 0.039 1.296 0.013 1.283 0.22 1.633 0.726 1.244 0.246-0.207 0.389-0.233 0.713-0.13 0.441 0.117 1.529 1.205 1.529 1.503 0 0.104 0.078 0.207 0.168 0.246 0.091 0.026 0.181 0.246 0.194 0.467 0.026 0.233 0.078 0.454 0.143 0.492 0.155 0.091 0.441 1.27 0.415 1.75 0 0.22-0.039 0.907-0.091 1.542-0.091 1.257 0 1.581 0.622 2.151 0.311 0.285 0.337 0.376 0.233 0.713-0.246 0.765-0.298 0.842-0.467 0.842-0.104 0-0.181 0.052-0.181 0.117s-0.155 0.155-0.35 0.207c-0.272 0.065-0.311 0.104-0.155 0.207 0.13 0.078 0.039 0.117-0.311 0.117-0.311 0-0.518 0.065-0.557 0.194-0.052 0.104-0.13 0.194-0.207 0.194-0.143 0-0.492 0.324-0.492 0.454 0 0.052-0.091 0.168-0.194 0.272s-0.181 0.389-0.168 0.622c0.013 0.324-0.078 0.531-0.337 0.765-0.194 0.181-0.441 0.298-0.544 0.259s-0.324 0.026-0.505 0.143c-0.402 0.259-0.92 0.272-1.024 0.013-0.13-0.35-0.596 0-0.596 0.454 0 0.376 0.013 0.376 0.803 0.415l0.816 0.039 0.026 0.518c0.013 0.363 0 0.441-0.078 0.259-0.091-0.22-0.117-0.194-0.168 0.168-0.039 0.311-0.013 0.415 0.143 0.428 0.143 0 0.155 0.026 0.052 0.078-0.091 0.026-0.168 0.233-0.168 0.428 0 0.415 0.246 1.063 0.376 0.972 0.052-0.026 0.104 0.104 0.117 0.298 0.013 0.272 0 0.311-0.104 0.155-0.065-0.104-0.13-0.13-0.13-0.052 0 0.104-0.35 0.155-1.011 0.168-0.842 0.013-1.024-0.026-1.153-0.233zM18.297 25.323c0.117-0.104 0.207-0.259 0.207-0.324s0.039-0.104 0.104-0.078c0.052 0.013 0.104-0.026 0.117-0.104 0.013-0.065-0.052-0.117-0.155-0.091-0.091 0.013-0.155-0.065-0.143-0.194 0-0.13-0.065-0.22-0.143-0.194-0.104 0.013-0.168-0.104-0.168-0.311 0-0.272-0.052-0.324-0.285-0.285-0.233 0.026-0.324 0.155-0.415 0.583-0.104 0.492-0.078 0.583 0.194 0.881 0.363 0.376 0.428 0.389 0.687 0.117zM16.496 24.377c0.039-0.065 0.013-0.155-0.065-0.207-0.065-0.039-0.13-0.013-0.13 0.065s-0.065 0.104-0.155 0.052c-0.091-0.052-0.104-0.039-0.052 0.052 0.117 0.181 0.298 0.194 0.402 0.039zM16.781 23.949c-0.039-0.091-0.065-0.026-0.065 0.155s0.026 0.246 0.065 0.168c0.026-0.091 0.026-0.246 0-0.324zM20.876 23.314c0.155-0.13 0.376-0.246 0.48-0.246 0.233-0.013 0.778-0.441 0.778-0.609 0-0.259-0.337-0.816-0.48-0.816-0.091 0-0.168-0.052-0.168-0.13 0-0.065-0.194-0.13-0.441-0.13s-0.492 0.065-0.531 0.13c-0.039 0.078-0.194 0.13-0.337 0.13s-0.285 0.091-0.324 0.194c-0.052 0.104-0.181 0.194-0.311 0.194-0.246 0-0.389 0.246-0.389 0.661 0 0.259 0.791 1.153 1.024 1.153 0.078 0 0.143 0.078 0.155 0.168 0 0.078 0.052 0.013 0.13-0.143 0.065-0.168 0.246-0.415 0.415-0.557zM15.329 23.846c0.104-0.168 0.622-0.168 0.79-0.013 0.155 0.168 0.557-0.13 0.609-0.454 0.013-0.13 0.091-0.324 0.143-0.428 0.078-0.117 0.065-0.155 0-0.104-0.078 0.039-0.143-0.039-0.143-0.194-0.026-0.246-0.013-0.246 0.22 0.026 0.143 0.168 0.22 0.35 0.168 0.428-0.039 0.065-0.013 0.091 0.065 0.039 0.065-0.039 0.168 0 0.194 0.078 0.052 0.104 0.078 0.091 0.078-0.052 0.013-0.117-0.065-0.246-0.143-0.272-0.091-0.039-0.026-0.078 0.155-0.091 0.298-0.026 0.298-0.039-0.065-0.117-0.207-0.052-0.376-0.155-0.363-0.246 0.026-0.091-0.091-0.155-0.259-0.155s-0.35-0.052-0.428-0.13c-0.065-0.065-0.311-0.13-0.531-0.155-0.22-0.013-0.376-0.078-0.35-0.13 0.117-0.181-0.596-0.376-0.842-0.233-0.233 0.117-0.661 0.998-0.661 1.335 0 0.091 0.181 0.363 0.402 0.583 0.402 0.415 0.803 0.531 0.959 0.285zM17.040 23.625c-0.052-0.039-0.13-0.039-0.181 0-0.039 0.052 0 0.091 0.091 0.091s0.13-0.039 0.091-0.091zM17.299 23.496c-0.052-0.039-0.091 0-0.091 0.091s0.039 0.13 0.091 0.091c0.039-0.052 0.039-0.13 0-0.181zM19.152 23.56c0-0.052-0.052-0.104-0.117-0.104-0.078 0-0.155 0.052-0.194 0.104-0.039 0.065 0.013 0.117 0.117 0.117s0.194-0.052 0.194-0.117zM12.089 13.867c-0.039-0.065-0.143-0.13-0.207-0.13-0.078 0-0.091 0.065-0.052 0.13 0.039 0.078 0.143 0.13 0.207 0.13 0.078 0 0.091-0.052 0.052-0.13zM11.416 13.776c-0.207-0.078-0.22-0.687-0.026-0.687 0.104 0 0.104-0.052 0-0.181-0.117-0.143-0.104-0.194 0.052-0.259 0.117-0.039 0.168-0.026 0.13 0.052s0.013 0.091 0.13 0.052c0.194-0.078 0.194-0.104 0.026-0.285-0.285-0.272-0.661-0.104-0.57 0.259 0.052 0.155 0.026 0.35-0.026 0.415-0.143 0.181 0.065 0.726 0.272 0.713 0.13 0 0.13-0.026 0.013-0.078zM11.467 11.573c-0.052-0.039-0.13-0.039-0.181 0-0.039 0.052 0 0.091 0.091 0.091s0.13-0.039 0.091-0.091z"></path>
</svg>
