<!-- Generated by IcoMoon.io -->
<svg version="1.1" xmlns="http://www.w3.org/2000/svg" width="32" height="32" viewBox="0 0 32 32">
<title>treasure-orrery</title>
<path d="M16.013 31.724c-0.039-0.066-0.21-0.131-0.38-0.131-0.157 0-0.406-0.092-0.55-0.197-0.131-0.105-0.354-0.197-0.485-0.197s-0.314-0.079-0.419-0.157c-0.092-0.092-0.354-0.314-0.577-0.498s-0.406-0.432-0.406-0.563c0-0.131-0.066-0.197-0.144-0.157-0.079 0.052-0.17-0.026-0.21-0.183s-0.118-0.275-0.183-0.275c-0.066 0-0.118-0.131-0.118-0.301 0-0.406-0.642-1.009-1.075-1.009-0.197 0-0.393-0.066-0.432-0.131-0.052-0.079-0.131-0.105-0.183-0.079-0.197 0.131-0.432-0.157-0.341-0.432 0.039-0.144 0.118-0.262 0.17-0.249 0.197 0.039 0.812-0.197 0.812-0.301 0-0.066 0.157-0.118 0.367-0.118 0.262 0 0.393-0.092 0.524-0.354 0.079-0.197 0.157-0.419 0.157-0.511s0.118-0.432 0.262-0.773c0.249-0.59 1.402-1.9 1.677-1.9 0.066 0 0.197-0.092 0.288-0.197 0.092-0.118 0.38-0.197 0.681-0.197 0.275 0 0.485-0.052 0.446-0.118-0.052-0.066-0.013-0.144 0.066-0.17 0.105-0.039 0.118-0.262 0.052-0.734-0.092-0.655-0.105-0.681-0.498-0.681-0.236-0.013-0.563-0.092-0.747-0.197s-0.55-0.183-0.812-0.197c-0.262 0-0.511-0.052-0.563-0.118-0.039-0.066-0.249-0.157-0.459-0.21-0.223-0.052-0.393-0.144-0.393-0.21s-0.092-0.118-0.197-0.118c-0.105 0-0.197-0.092-0.197-0.197s-0.079-0.197-0.17-0.197c-0.105 0-0.262-0.144-0.354-0.328-0.092-0.17-0.223-0.288-0.288-0.249-0.052 0.039-0.144-0.039-0.197-0.17s-0.223-0.367-0.393-0.524c-0.17-0.157-0.301-0.406-0.301-0.563 0-0.144-0.092-0.262-0.197-0.262-0.157 0-0.197-0.17-0.197-0.721v-0.721h-1.232c-0.957 0-1.284 0.052-1.454 0.21-0.105 0.118-0.288 0.17-0.393 0.131s-0.197-0.026-0.197 0.026c0 0.066-0.21 0.079-0.459 0.052s-0.459-0.105-0.459-0.183c0-0.066-0.052-0.079-0.131-0.039-0.197 0.118-0.17-1.284 0.026-1.481 0.118-0.118 0.118-0.157 0-0.157-0.197 0-0.223-1.651-0.026-1.769 0.079-0.039 0.131-0.249 0.131-0.446s0.092-0.472 0.197-0.616c0.105-0.131 0.197-0.341 0.197-0.459s0.092-0.393 0.197-0.59c0.105-0.21 0.197-0.485 0.197-0.603 0-0.131 0.066-0.236 0.131-0.236 0.079 0 0.131-0.118 0.131-0.249 0-0.144 0.092-0.341 0.197-0.459 0.105-0.105 0.197-0.275 0.197-0.38s0.144-0.341 0.314-0.524c0.17-0.183 0.341-0.393 0.354-0.459 0.105-0.288 1.323-1.468 1.441-1.402 0.066 0.052 0.118 0.013 0.118-0.066s0.066-0.105 0.131-0.066c0.079 0.039 0.131 0.013 0.131-0.066 0-0.183 0.328-0.524 0.511-0.524 0.079 0 0.144-0.092 0.144-0.197s0.105-0.197 0.249-0.197c0.131 0 0.314-0.092 0.406-0.197s0.249-0.197 0.341-0.197c0.105 0 0.183-0.052 0.183-0.131 0-0.066 0.131-0.131 0.301-0.131s0.419-0.092 0.563-0.197c0.131-0.105 0.354-0.197 0.485-0.197 0.118 0 0.223-0.039 0.223-0.105 0-0.052 0.131-0.157 0.288-0.223 0.157-0.079 0.341-0.249 0.419-0.393 0.079-0.131 0.223-0.328 0.314-0.432 0.236-0.262 0.197-0.314-0.105-0.157-0.144 0.079-0.262 0.105-0.262 0.079 0-0.131 0.773-0.472 1.101-0.498 0.183-0.013 0.367-0.105 0.393-0.197 0.052-0.105 0.341-0.17 0.826-0.183 0.55 0 0.681-0.039 0.498-0.118-0.249-0.105-0.249-0.118 0.039-0.118 0.157-0.013 0.288 0.052 0.288 0.118 0 0.079 0.21 0.131 0.472 0.131 0.721 0 0.957 0.38 0.97 1.533 0 0.878-0.026 0.943-0.288 0.983-0.17 0.026-0.314 0.144-0.341 0.288-0.039 0.144-0.131 0.341-0.236 0.446-0.105 0.092-0.183 0.249-0.183 0.354 0 0.354-1.402 0.446-2.018 0.131-0.197-0.105-0.446-0.197-0.537-0.197s-0.236-0.092-0.328-0.197c-0.092-0.105-0.262-0.197-0.38-0.197-0.314 0-1.166 0.459-1.454 0.786-0.17 0.183-0.249 0.223-0.288 0.105-0.052-0.131-0.118-0.118-0.288 0.052-0.118 0.131-0.301 0.197-0.406 0.157-0.105-0.052-0.197-0.013-0.197 0.052 0 0.079-0.105 0.17-0.249 0.223-0.354 0.105-1.52 1.258-1.769 1.743-0.118 0.236-0.262 0.419-0.314 0.419s-0.17 0.183-0.262 0.393c-0.105 0.223-0.249 0.472-0.328 0.563-0.236 0.262-0.616 1.009-0.616 1.219 0 0.105-0.052 0.183-0.131 0.183-0.066 0-0.131 0.105-0.131 0.236s-0.079 0.341-0.17 0.485c-0.105 0.17-0.17 0.668-0.17 1.376l0.013 1.114 3.014 0.079 0.157-0.367c0.092-0.21 0.197-0.524 0.249-0.734 0.039-0.197 0.131-0.393 0.197-0.432s0.118-0.183 0.118-0.328c0-0.144 0.079-0.288 0.183-0.328s0.21-0.183 0.249-0.328c0.039-0.144 0.197-0.301 0.341-0.341 0.157-0.039 0.275-0.157 0.275-0.249 0-0.105 0.079-0.183 0.183-0.183s0.21-0.039 0.236-0.092c0.092-0.223 2.031-0.957 2.503-0.957 0.301 0 0.328-0.983 0.026-1.101-0.157-0.052-0.197-0.223-0.157-0.734 0.026-0.367 0.092-0.708 0.144-0.76 0.092-0.079 0.76-0.131 1.887-0.157 0.262 0 0.406-0.052 0.354-0.131-0.039-0.066 0.026-0.144 0.157-0.157 0.131 0 0.301-0.026 0.38-0.026 0.17-0.026 0.97-0.839 0.97-0.996 0-0.079 0.052-0.131 0.131-0.131 0.066 0 0.157-0.21 0.21-0.459 0.039-0.249 0.131-0.498 0.197-0.537 0.144-0.079 0.157-2.804 0.013-2.804-0.052 0-0.21-0.197-0.341-0.446s-0.38-0.485-0.55-0.524c-0.17-0.052-0.314-0.131-0.314-0.197s-0.17-0.157-0.393-0.21c-0.21-0.052-0.393-0.144-0.393-0.21 0-0.21-1.612-0.144-1.939 0.092-0.301 0.21-1.206 0.21-1.219 0 0-0.079 0.249-0.236 0.563-0.354 0.747-0.301 3.053-0.341 3.433-0.052 0.157 0.118 0.55 0.197 0.957 0.197 0.511 0 0.668 0.039 0.616 0.17-0.026 0.092 0.118 0.367 0.341 0.616 0.21 0.236 0.393 0.485 0.393 0.55 0 0.052 0.144 0.105 0.314 0.105 0.183 0 0.367 0.052 0.406 0.131 0.039 0.066 0.393 0.131 0.76 0.131 0.485 0 0.629 0.039 0.485 0.131-0.131 0.079-0.144 0.131-0.026 0.131 0.079 0 0.157 0.131 0.157 0.275 0 0.249-0.052 0.262-0.446 0.197-0.314-0.066-0.485-0.026-0.603 0.118-0.092 0.105-0.223 0.197-0.288 0.197-0.301 0-0.76 0.603-0.76 1.022 0 0.223-0.052 0.419-0.131 0.419-0.066 0-0.131 0.131-0.131 0.288 0 0.616-1.245 2.463-1.664 2.463-0.066 0-0.288 0.17-0.498 0.393-0.197 0.21-0.419 0.354-0.485 0.314s-0.197 0-0.301 0.079c-0.223 0.183-0.275 1.572-0.066 1.572 0.079 0 0.131 0.079 0.131 0.183 0 0.21 0.393 0.341 1.022 0.341 0.223 0 0.419 0.066 0.419 0.131 0 0.079 0.144 0.131 0.328 0.131s0.563 0.144 0.852 0.328c0.288 0.183 0.577 0.328 0.655 0.328s0.17 0.092 0.21 0.197c0.052 0.105 0.17 0.197 0.275 0.197s0.144 0.052 0.105 0.131c-0.039 0.079 0.026 0.131 0.157 0.144 0.131 0 0.17 0.039 0.079 0.079-0.092 0.026-0.17 0.118-0.17 0.197s0.079 0.105 0.17 0.066c0.249-0.092 0.144 4.036-0.105 4.416-0.105 0.144-0.197 0.406-0.197 0.563 0 0.17-0.052 0.301-0.131 0.301-0.066 0-0.131 0.092-0.131 0.197 0 0.367-1.232 1.9-1.533 1.9-0.052 0-0.223 0.131-0.367 0.301s-0.485 0.472-0.747 0.668c-0.459 0.341-0.498 0.419-0.498 1.048 0 0.38 0.066 0.747 0.157 0.839 0.21 0.21 0.118 0.262-0.459 0.341-0.852 0.105-2.45 0.681-2.45 0.891 0 0.052-0.079 0.105-0.17 0.105-0.157 0-0.616 0.446-0.616 0.603 0 0.052-0.144 0.223-0.328 0.393s-0.328 0.354-0.328 0.419c0 0.079-0.079 0.275-0.17 0.459-0.105 0.21-0.183 0.878-0.21 1.651-0.026 1.114 0 1.323 0.17 1.323 0.131 0 0.17 0.079 0.118 0.223s-0.039 0.183 0.066 0.118c0.105-0.066 0.131-0.026 0.079 0.105-0.052 0.144 0 0.21 0.131 0.21 0.118 0 0.21 0.066 0.21 0.131 0 0.197 0.498 0.655 0.708 0.655 0.105 0 0.223 0.092 0.262 0.21 0.039 0.105 0.131 0.157 0.21 0.118s0.17 0 0.21 0.105c0.039 0.105 0.301 0.223 0.59 0.275 0.275 0.039 0.511 0.131 0.511 0.197 0 0.38 3.014-0.642 3.315-1.127 0.183-0.288 0.485-0.197 0.485 0.144 0 0.249-0.144 0.406-0.55 0.655-0.314 0.183-0.485 0.341-0.393 0.341s0.039 0.118-0.118 0.275c-0.197 0.197-0.38 0.262-0.642 0.197-0.236-0.039-0.432 0-0.524 0.118-0.183 0.223-1.9 0.275-2.031 0.066zM12.422 27.557c-0.079-0.026-0.144-0.183-0.144-0.367 0-0.236-0.052-0.288-0.223-0.223-0.275 0.105-0.55 0.432-0.563 0.655 0 0.197 0.668 0.288 0.904 0.118 0.118-0.092 0.118-0.157 0.026-0.183zM11.78 18.017c-0.026-0.131-0.092-0.275-0.144-0.314-0.066-0.039-0.144-0.223-0.197-0.419-0.118-0.485-0.603-0.511-0.603-0.039 0 0.183 0.066 0.328 0.131 0.328 0.079 0 0.131 0.066 0.131 0.131 0 0.197 0.432 0.642 0.59 0.603 0.079-0.026 0.105-0.157 0.092-0.288zM21.359 14.073c-0.105-0.039-0.17-0.314-0.17-0.708 0-0.354-0.052-0.642-0.131-0.642-0.066 0-0.131-0.144-0.131-0.328 0-0.262-0.066-0.328-0.328-0.328-0.183 0-0.328 0.066-0.328 0.131 0 0.079 0.066 0.131 0.131 0.131 0.079 0 0.131 0.118 0.131 0.275s0.079 0.459 0.183 0.681c0.105 0.236 0.21 0.524 0.262 0.655 0.039 0.118 0.17 0.223 0.301 0.21 0.144 0 0.17-0.039 0.079-0.079zM6.211 11.845c-0.052-0.039-0.092 0-0.092 0.092s0.039 0.131 0.092 0.092c0.039-0.052 0.039-0.131 0-0.183zM14.965 3.354c0-0.183-0.066-0.328-0.157-0.328-0.17 0-0.236 0.537-0.079 0.694 0.131 0.131 0.21 0 0.236-0.367zM22.499 2.765c0-0.066-0.066-0.131-0.144-0.131-0.066 0-0.092 0.066-0.052 0.131 0.039 0.079 0.105 0.131 0.144 0.131 0.026 0 0.052-0.052 0.052-0.131z"></path>
<path d="M16.118 28.631c-0.236-0.118-0.432-0.301-0.432-0.393 0-0.105-0.092-0.183-0.197-0.183s-0.197-0.118-0.197-0.249c0-0.144-0.066-0.275-0.131-0.301-0.079-0.026-0.183-0.38-0.223-0.799-0.066-0.655-0.039-0.799 0.275-1.271 0.537-0.826 0.839-0.957 2.031-0.904 0.943 0.052 1.075 0.092 1.376 0.419 0.183 0.197 0.341 0.419 0.341 0.498 0 0.157 0.97 0.157 1.284 0 0.118-0.066 0.459-0.223 0.747-0.354 0.288-0.144 0.55-0.288 0.59-0.328 0.039-0.052 0.197-0.118 0.367-0.17 0.157-0.052 0.288-0.144 0.288-0.21 0-0.052 0.105-0.131 0.236-0.183 0.288-0.092 0.642-0.328 1.061-0.694 0.183-0.17 0.38-0.301 0.432-0.301 0.118 0 1.022-0.865 1.022-0.983 0-0.052 0.183-0.314 0.393-0.59 0.223-0.275 0.393-0.629 0.393-0.799s0.092-0.432 0.197-0.563c0.105-0.144 0.197-0.38 0.197-0.537s0.066-0.341 0.131-0.406c0.183-0.183 0.314-1.9 0.157-2.123-0.17-0.236-3.407-0.262-3.787-0.026-0.629 0.393-0.852-0.223-0.59-1.638l0.092-0.524 0.079 0.655 0.092 0.655-0.026-0.76c-0.013-0.524 0.039-0.747 0.157-0.747 0.079 0 0.157 0.144 0.157 0.301 0 0.301 0.052 0.314 1.546 0.472 0.839 0.092 2.018 0.183 2.621 0.223l1.075 0.066v1.232c0 0.826-0.066 1.337-0.197 1.586-0.105 0.21-0.197 0.603-0.197 0.878 0 0.262-0.052 0.485-0.118 0.485s-0.144 0.236-0.197 0.524c-0.039 0.288-0.144 0.524-0.21 0.524-0.079 0-0.131 0.144-0.131 0.314s-0.039 0.341-0.092 0.367c-0.066 0.026-0.223 0.262-0.354 0.537-0.144 0.262-0.301 0.485-0.354 0.485-0.066 0-0.59 0.472-1.166 1.048s-1.14 1.048-1.245 1.048c-0.105 0-0.223 0.066-0.262 0.131-0.052 0.079-0.38 0.262-0.734 0.419s-0.642 0.328-0.642 0.393c0 0.052-0.144 0.105-0.314 0.105-0.183 0-0.354 0.052-0.393 0.118-0.039 0.052-0.419 0.236-0.852 0.406-0.786 0.288-0.93 0.459-0.93 1.14 0 0.157-0.197 0.472-0.419 0.708-0.406 0.406-0.498 0.432-1.481 0.472-0.773 0.026-1.166-0.013-1.468-0.17zM18.005 27.832c-0.052-0.039-0.092 0-0.092 0.092s0.039 0.131 0.092 0.092c0.039-0.052 0.039-0.131 0-0.183z"></path>
<path d="M0.013 26.941c-0.039-0.105 0.013-0.288 0.131-0.406 0.118-0.105 0.38-0.419 0.577-0.681s0.59-0.721 0.878-1.022c0.773-0.812 0.97-1.075 0.891-1.153-0.052-0.039-0.026-0.079 0.052-0.079 0.118 0 0.708-0.577 2.11-2.031 0.079-0.105 0.157-0.236 0.157-0.301 0-0.393 1.376-0.105 1.533 0.328 0.052 0.131 0.157 0.092 0.38-0.157 0.17-0.183 0.393-0.328 0.498-0.328 0.341 0 0.485-0.432 0.262-0.852-0.236-0.459-0.21-1.913 0.052-2.005 0.079-0.026 0.157 0.039 0.157 0.144 0 0.131 0.105 0.17 0.367 0.118 0.249-0.052 0.288-0.092 0.131-0.131-0.288-0.052-0.314-0.419-0.039-0.419 0.105 0 0.197-0.092 0.197-0.21 0-0.131 0.092-0.183 0.288-0.157s0.314 0.17 0.406 0.498c0.066 0.249 0.17 0.511 0.236 0.59 0.066 0.066 0.118 0.288 0.118 0.485 0 0.498 0.93 1.939 1.258 1.939 0.144 0 0.406 0.328 0.354 0.472-0.026 0.066 0.079 0.249 0.21 0.406 0.262 0.275 0.262 0.275 0.013 0.76-0.144 0.275-0.223 0.55-0.17 0.629 0.039 0.079 0.013 0.092-0.066 0.039-0.092-0.052-0.157-0.039-0.157 0.013 0 0.066-0.249 0.092-0.55 0.052-0.498-0.039-0.668-0.157-1.376-0.904-0.655-0.694-0.826-0.826-0.904-0.642-0.039 0.118-0.183 0.223-0.301 0.223-0.432 0-0.865 0.786-0.537 0.983 0.249 0.157 0.131 0.563-0.288 1.035-0.223 0.262-0.485 0.472-0.563 0.472s-0.393 0.118-0.694 0.262c-0.642 0.314-0.891 0.328-1.153 0.066-0.144-0.144-0.157-0.197-0.039-0.197 0.092 0 0.131-0.039 0.092-0.079-0.157-0.144-0.76 0.38-0.76 0.655 0 0.183-0.144 0.367-0.393 0.524-0.223 0.118-0.367 0.288-0.328 0.354 0.079 0.105-0.406 0.183-0.826 0.131-0.105-0.013-0.275 0.052-0.393 0.157-0.328 0.275-1.14 0.616-1.454 0.616-0.157 0-0.314-0.092-0.354-0.197zM1.704 25.696c0.039-0.144 0.013-0.262-0.052-0.262s-0.118 0.118-0.118 0.262c0 0.144 0.026 0.262 0.052 0.262s0.079-0.118 0.118-0.262zM2.018 25.539c-0.039-0.092-0.066-0.026-0.066 0.157s0.026 0.249 0.066 0.17c0.026-0.092 0.026-0.249 0-0.328zM8.452 18.817c-0.039-0.039-0.118 0.026-0.157 0.157-0.079 0.183-0.066 0.197 0.066 0.079 0.092-0.092 0.131-0.197 0.092-0.236z"></path>
<path d="M23.888 12.789c-0.118-0.17-0.21-0.524-0.21-0.773 0-0.38-0.288-1.153-0.524-1.389-0.131-0.131-0.406-0.59-0.472-0.812-0.052-0.131-0.131-0.236-0.183-0.236-0.066 0-0.157-0.131-0.21-0.288-0.052-0.17-0.223-0.432-0.393-0.59s-0.314-0.341-0.314-0.393c0-0.066-0.131-0.17-0.288-0.236-0.314-0.144-0.498-0.59-0.236-0.59 0.183 0 0.524-0.328 0.524-0.511 0-0.079 0.21-0.144 0.472-0.144 0.419 0 0.59 0.105 1.31 0.852 0.773 0.786 1.101 1.009 1.101 0.734 0-0.052 0.301-0.249 0.655-0.419 0.367-0.17 0.655-0.354 0.655-0.406 0-0.066 0.092-0.105 0.21-0.105 0.314 0 0.17-0.655-0.249-1.088-0.197-0.197-0.328-0.419-0.288-0.498 0.052-0.066 0.419-0.118 0.826-0.118 0.406-0.013 0.891-0.092 1.075-0.197s0.485-0.183 0.668-0.197c0.197 0 0.419-0.092 0.511-0.197s0.249-0.197 0.341-0.197c0.105 0 0.288-0.052 0.419-0.118 0.236-0.118 0.839-0.393 1.599-0.708 0.249-0.118 0.603-0.223 0.786-0.249 0.288-0.039 0.328 0.013 0.328 0.354 0 0.314-0.066 0.406-0.301 0.432-0.17 0.026-0.511 0.262-0.76 0.524-0.865 0.93-2.018 2.306-2.018 2.424 0 0.066-0.236 0.354-0.524 0.629-0.38 0.367-0.524 0.616-0.524 0.904 0 0.275-0.066 0.393-0.21 0.393-0.105 0-0.17-0.052-0.118-0.118 0.039-0.079-0.039-0.183-0.157-0.262-0.183-0.105-0.21-0.157-0.066-0.288 0.079-0.092 0.157-0.301 0.157-0.472 0-0.236-0.079-0.301-0.314-0.301-0.708 0-1.441 0.524-1.821 1.297-0.262 0.537-0.275 0.76-0.052 0.826 0.105 0.039 0.17 0.446 0.197 1.232l0.039 1.166-0.472 0.236c-0.642 0.301-0.917 0.288-1.166-0.105z"></path>
<path d="M21.752 12.763c0.052-0.039 0.131-0.039 0.183 0 0.039 0.052 0 0.092-0.092 0.092s-0.131-0.039-0.092-0.092z"></path>
<path d="M19.878 10.758c-0.17-0.105-0.157-0.131 0.039-0.131 0.118 0 0.223 0.066 0.223 0.131 0 0.157-0.013 0.157-0.262 0z"></path>
</svg>
