<!-- Generated by IcoMoon.io -->
<svg version="1.1" xmlns="http://www.w3.org/2000/svg" width="32" height="32" viewBox="0 0 32 32">
<title>treasure-creature</title>
<path d="M5.317 31.767c-0.468-0.286-0.403-0.416 0.325-0.637 0.559-0.156 1.403-0.819 1.403-1.092 0-0.065 0.065-0.117 0.143-0.117 0.182 0 0.429-0.26 0.741-0.767 0.221-0.377 0.247-0.611 0.195-2.534-0.039-1.416-0.013-2.157 0.078-2.222 0.078-0.039 0.143-0.208 0.143-0.351 0-0.273 0.741-1.559 0.936-1.637 0.065-0.026 0.104-0.104 0.104-0.156 0-0.065 0.26-0.377 0.572-0.689 0.455-0.468 0.611-0.559 0.741-0.442 0.104 0.091 0.143 0.104 0.091 0.052-0.104-0.143 0.286-0.611 0.507-0.611 0.091 0 0.169-0.052 0.169-0.13 0-0.065 0.065-0.13 0.143-0.13 0.195 0 0.507 0.338 0.416 0.442-0.052 0.039-0.013 0.078 0.078 0.078s0.143 0.091 0.104 0.182c-0.052 0.13-0.013 0.169 0.104 0.117 0.299-0.104-0.052 0.754-0.429 1.053-0.208 0.169-0.26 0.273-0.156 0.338s0.026 0.13-0.182 0.182c-0.182 0.039-0.338 0.143-0.338 0.208 0 0.078-0.117 0.13-0.26 0.13-0.364 0-0.689 0.364-0.949 1.053-0.234 0.624-0.299 1.806-0.104 2.014 0.221 0.221 0.26 1.105 0.065 1.182-0.117 0.039-0.182 0.273-0.182 0.689 0 0.351-0.052 0.663-0.117 0.715-0.065 0.039-0.156 0.247-0.208 0.455-0.052 0.221-0.143 0.39-0.208 0.39s-0.117 0.091-0.117 0.195c0 0.104-0.091 0.195-0.195 0.195s-0.195 0.052-0.195 0.117c0 0.065-0.169 0.299-0.39 0.507-0.494 0.507-1.507 1.312-1.39 1.105 0.078-0.117 0.039-0.143-0.091-0.091-0.117 0.039-0.208 0.156-0.208 0.26 0 0.26-0.884 0.234-1.338-0.052z"></path>
<path d="M4.486 31.261c-0.299-0.117-0.182-0.26 0.221-0.26 0.234 0 0.377 0.065 0.351 0.143-0.052 0.169-0.338 0.221-0.572 0.117z"></path>
<path d="M18.442 30.611c-0.052-0.039-0.091-0.312-0.091-0.585 0-0.312-0.052-0.481-0.13-0.429-0.065 0.039-0.13-0.039-0.13-0.182 0-0.156-0.078-0.273-0.156-0.273-0.117 0-0.104-0.052 0.026-0.13 0.156-0.104 0.13-0.13-0.104-0.13-0.169 0-0.26-0.052-0.221-0.13 0.039-0.065 0.026-0.13-0.052-0.13-0.065 0-0.143 0.078-0.182 0.169-0.026 0.078-0.065-0.845-0.078-2.066-0.013-1.871 0.013-2.248 0.182-2.313 0.299-0.104 0.234-0.468-0.13-0.754-0.273-0.221-0.325-0.364-0.325-1.001 0-0.858-0.065-0.975-0.403-0.754-0.195 0.13-0.247 0.312-0.247 0.962 0 0.455 0.052 0.819 0.13 0.819s0.13 0.195 0.13 0.442c0 0.247-0.052 0.494-0.13 0.533-0.065 0.039-0.13 0.455-0.13 0.91 0 0.754-0.143 1.143-0.312 0.871-0.039-0.065-0.078-0.832-0.091-1.728-0.013-1.040-0.065-1.65-0.169-1.702-0.091-0.065-0.078-0.104 0.052-0.104 0.169 0 0.169-0.013 0-0.13-0.169-0.104-0.169-0.13 0-0.13 0.117 0 0.078-0.078-0.117-0.221-0.286-0.195-0.325-0.195-0.481 0.026-0.104 0.13-0.221 0.455-0.26 0.702-0.052 0.26-0.143 0.507-0.221 0.546-0.065 0.052-0.156 0.663-0.195 1.364-0.052 1.053-0.117 1.377-0.364 1.767-0.234 0.377-0.312 0.676-0.312 1.273 0 0.611-0.039 0.78-0.195 0.78-0.143 0-0.195-0.169-0.195-0.702 0-0.442-0.065-0.728-0.156-0.767-0.13-0.052-0.117-0.104 0.026-0.208 0.156-0.117 0.13-0.143-0.143-0.143-0.364 0-0.767 0.455-0.767 0.845 0 0.117-0.091 0.299-0.208 0.416-0.104 0.117-0.169 0.286-0.13 0.377 0.052 0.13-0.039 0.182-0.312 0.182-0.377 0-0.39-0.013-0.39-0.65s-0.013-0.663-0.416-0.741c-0.234-0.052-0.468-0.078-0.52-0.065-0.156 0.039-0.026-0.754 0.143-0.923 0.104-0.104 0.182-0.104 0.312 0.026s0.104 0.143-0.091 0.065c-0.182-0.065-0.221-0.052-0.156 0.065 0.065 0.091 0.221 0.143 0.351 0.104 0.156-0.039 0.247 0.026 0.286 0.221 0.026 0.143 0.065 0.026 0.078-0.273 0-0.312-0.039-0.559-0.117-0.559-0.065 0-0.13-0.091-0.13-0.195s-0.078-0.195-0.169-0.195c-0.104 0-0.286-0.117-0.429-0.273-0.273-0.299-0.13-0.663 0.286-0.754 0.13-0.026 0.273-0.091 0.312-0.143s0.247-0.13 0.455-0.156c0.221-0.039 0.312-0.039 0.234-0.013-0.13 0.039-0.13 0.104 0.013 0.247 0.234 0.221 0.39 0.247 0.26 0.026-0.065-0.104-0.026-0.117 0.117-0.065 0.13 0.039 0.221 0.026 0.221-0.039 0-0.078-0.052-0.13-0.117-0.13-0.078 0-0.104-0.117-0.078-0.26s-0.013-0.26-0.078-0.26c-0.078 0-0.104-0.052-0.065-0.117s-0.078-0.104-0.26-0.104c-0.507 0-0.52-0.13-0.065-0.585 0.312-0.312 0.403-0.364 0.338-0.169-0.091 0.26-0.078 0.26 0.117 0.013 0.117-0.143 0.208-0.39 0.208-0.546s0.078-0.351 0.182-0.429c0.104-0.091 0.208-0.442 0.234-0.78 0.026-0.494 0-0.624-0.156-0.611-0.104 0.013-0.182-0.065-0.156-0.156 0.013-0.104-0.091-0.208-0.234-0.247s-0.221-0.117-0.182-0.182c0.039-0.065-0.078-0.117-0.273-0.117-0.182 0-0.364-0.091-0.403-0.195-0.052-0.104-0.156-0.195-0.234-0.195-0.091 0-0.247-0.143-0.338-0.325-0.26-0.468-0.832-0.442-1.053 0.052-0.117 0.273-0.234 0.351-0.416 0.299-0.195-0.052-0.234-0.026-0.169 0.117 0.052 0.104 0.013 0.078-0.091-0.039-0.104-0.13-0.26-0.234-0.364-0.234-0.143 0-0.143-0.026 0.013-0.13s0.143-0.13-0.104-0.13c-0.299 0-1.066-0.338-1.066-0.468 0-0.039 0.065-0.026 0.156 0.026s0.104 0.039 0.052-0.065c-0.052-0.078-0.247-0.13-0.442-0.117-0.338 0.026-0.351 0.052-0.39 0.91-0.026 0.507 0.013 0.884 0.078 0.884 0.078 0 0.156 0.078 0.195 0.182 0.065 0.156-0.026 0.169-0.403 0.117-0.26-0.039-0.494-0.13-0.52-0.195-0.026-0.052-0.13-0.104-0.234-0.104s-0.221-0.091-0.26-0.195c-0.052-0.117-0.247-0.195-0.507-0.195-0.351 0-0.442 0.052-0.481 0.299-0.026 0.156 0.039 0.429 0.143 0.598 0.156 0.247 0.169 0.325 0.039 0.377-0.078 0.026-0.156 0.13-0.156 0.234 0 0.598-1.442-0.299-1.897-1.182-0.247-0.481-0.234-1.299 0.039-1.91 0.195-0.429 0.455-0.689 0.416-0.39-0.052 0.273 0.039 0.312 0.195 0.078 0.143-0.182 0.143-0.273 0.039-0.338s-0.078-0.104 0.065-0.104c0.299 0 0.442-0.26 0.221-0.403-0.13-0.078-0.143-0.117-0.013-0.117 0.234 0 0.182-0.234-0.078-0.286-0.208-0.052-1.196 0.351-1.196 0.494 0 0.039 0.078 0.026 0.169-0.026 0.078-0.039-0.013 0.078-0.208 0.273-0.208 0.195-0.403 0.312-0.455 0.26-0.13-0.13-0.091-1.494 0.052-1.598 0.065-0.052 0.234-0.312 0.364-0.572 0.143-0.273 0.299-0.494 0.364-0.494 0.052 0 0.104-0.091 0.104-0.195s0.065-0.195 0.13-0.195c0.078 0 0.364-0.234 0.637-0.52s0.585-0.52 0.689-0.52c0.117 0 0.234-0.091 0.286-0.195 0.052-0.143 0.26-0.195 0.728-0.195 0.351 0 0.65-0.052 0.65-0.13 0-0.065 0.078-0.13 0.169-0.13 0.182 0 0.611-0.455 0.611-0.65 0-0.169 0.351-0.169 0.442-0.013 0.052 0.065 0 0.156-0.078 0.182-0.117 0.052-0.104 0.078 0.039 0.078 0.156 0.013 0.208-0.13 0.234-0.637 0.013-0.52 0.091-0.741 0.377-1.053 0.195-0.208 0.442-0.546 0.546-0.741 0.585-1.053 1.728-2.365 2.066-2.365 0.065 0 0.143-0.091 0.195-0.195 0.156-0.416 0.286-0.169 0.312 0.585 0.013 0.585 0.078 0.832 0.286 1.040 0.247 0.247 0.286 0.247 0.468 0.065 0.117-0.104 0.26-0.195 0.325-0.195 0.078 0 0.26-0.143 0.429-0.325s0.364-0.325 0.455-0.325c0.078 0 0.143-0.052 0.143-0.117s0.13-0.169 0.299-0.221c0.156-0.052 0.507-0.234 0.793-0.403 0.273-0.182 0.611-0.299 0.741-0.26 0.156 0.039 0.221 0.013 0.156-0.078-0.052-0.078-0.013-0.104 0.104-0.065 0.143 0.052 0.208-0.026 0.221-0.273 0.026-0.26-0.065-0.403-0.299-0.533-0.325-0.169-0.455-0.52-0.182-0.52 0.065 0 0.104-0.052 0.052-0.117-0.039-0.078 0.052-0.104 0.195-0.078 0.182 0.039 0.26-0.013 0.26-0.169 0-0.13 0.182-0.299 0.429-0.39 0.221-0.091 0.598-0.26 0.832-0.377 0.221-0.104 0.455-0.182 0.494-0.156 0.052 0.026 0.143-0.052 0.208-0.182 0.078-0.117 0.208-0.221 0.312-0.221s0.455-0.143 0.793-0.325c0.338-0.182 0.689-0.325 0.793-0.325s0.273-0.091 0.377-0.195c0.117-0.104 0.377-0.195 0.585-0.195s0.377-0.039 0.377-0.104c0-0.156 1.338-0.429 2.56-0.494 0.962-0.065 1.105-0.039 0.975 0.117-0.13 0.143-0.039 0.169 0.546 0.117 0.416-0.026 0.793 0.013 0.936 0.104 0.234 0.143 0.234 0.143-0.013 0.078-0.247-0.078-0.247-0.065-0.026 0.104 0.182 0.13 0.195 0.195 0.065 0.247s-0.13 0.078 0 0.078c0.13 0.013 0.13 0.052 0 0.195-0.117 0.13-0.221 0.143-0.338 0.052-0.091-0.078-0.208-0.104-0.247-0.052-0.052 0.052-0.026 0.13 0.052 0.182s-0.182 0.104-0.585 0.117c-0.39 0.013-0.754 0.078-0.793 0.13-0.117 0.156-0.923 0.559-1.105 0.559-0.312 0-0.988 0.728-0.988 1.066 0 0.208-0.117 0.377-0.325 0.494-0.182 0.091-0.325 0.221-0.325 0.273 0 0.143 0.611 0.234 1.533 0.234 0.442-0.013 0.884 0.052 0.975 0.13 0.091 0.065 0.416 0.169 0.715 0.221s0.546 0.13 0.546 0.195c0 0.065 0.117 0.117 0.26 0.117 0.221 0 2.859 2.443 2.859 2.664 0 0.039 0.065 0.143 0.13 0.234 0.078 0.091 0.234 0.273 0.338 0.416 0.117 0.143 0.156 0.182 0.104 0.078-0.052-0.117-0.039-0.156 0.052-0.091 0.078 0.052 0.117 0.169 0.078 0.26s0.026 0.247 0.143 0.338c0.104 0.091 0.195 0.26 0.195 0.39s0.091 0.403 0.195 0.598c0.104 0.208 0.195 0.585 0.195 0.832 0 0.26 0.065 0.533 0.156 0.624 0.195 0.195 0.169 4.171-0.026 4.366-0.078 0.078-0.13 0.234-0.13 0.364s-0.091 0.273-0.195 0.312c-0.104 0.052-0.195 0.195-0.195 0.338s-0.091 0.338-0.195 0.442c-0.104 0.117-0.195 0.312-0.195 0.455 0 0.13-0.052 0.247-0.13 0.247-0.065 0-0.13 0.156-0.13 0.364 0 0.273-0.026 0.312-0.13 0.156-0.091-0.143-0.13-0.143-0.13-0.026 0 0.104-0.065 0.13-0.156 0.078-0.104-0.065-0.117-0.026-0.065 0.13 0.052 0.143-0.013 0.325-0.182 0.507-0.195 0.221-0.247 0.234-0.182 0.065 0.052-0.13 0.039-0.234-0.039-0.234-0.065 0-0.169 0.143-0.208 0.312s-0.169 0.338-0.273 0.39c-0.117 0.039-0.169 0.026-0.13-0.039 0.039-0.078-0.104-0.117-0.325-0.117-0.234 0.013-0.39 0.078-0.39 0.182s-0.156 0.208-0.351 0.247c-0.208 0.039-0.559 0.13-0.806 0.195s-0.533 0.065-0.65 0.013c-0.117-0.065-0.455-0.143-0.767-0.182s-0.663-0.156-0.78-0.247c-0.117-0.104-0.481-0.273-0.806-0.364-0.325-0.104-0.663-0.26-0.754-0.351s-0.26-0.169-0.364-0.169c-0.104 0-0.182-0.117-0.182-0.26s-0.078-0.26-0.169-0.26c-0.234 0-0.741-0.442-0.741-0.637 0-0.182 0.871-0.195 0.936 0 0.052 0.156 1.455 0.286 1.832 0.169 0.182-0.052 0.221-0.221 0.221-1.001 0-0.91-0.013-0.962-0.442-1.364-0.481-0.455-0.858-0.52-1.169-0.221-0.104 0.104-0.247 0.195-0.325 0.195s-0.143 0.091-0.143 0.195c0 0.104-0.052 0.195-0.117 0.195s-0.156 0.117-0.208 0.247c-0.052 0.182-0.182 0.234-0.481 0.221-0.351-0.013-0.455 0.052-0.65 0.442-0.325 0.676-0.299 1.273 0.091 1.637 0.208 0.195 0.26 0.312 0.156 0.351-0.091 0.039 0.026 0.078 0.234 0.091 0.221 0.013 0.325 0.052 0.247 0.078-0.078 0.039 0.13 0.351 0.481 0.715 0.585 0.611 0.637 0.715 0.637 1.286 0 0.351 0.065 0.676 0.13 0.715 0.169 0.104 0.169 0.624 0 0.793-0.195 0.195-0.221 4.639-0.026 4.704 0.247 0.078 0.182 0.377-0.104 0.455-0.169 0.039-0.312-0.039-0.468-0.273-0.182-0.286-0.234-0.676-0.234-2.209-0.013-1.351 0.026-1.91 0.156-2.001 0.247-0.221 0.182-0.637-0.169-0.962-0.26-0.234-0.325-0.429-0.325-0.897 0-0.442 0.039-0.572 0.169-0.507 0.117 0.078 0.117 0.065 0-0.091-0.078-0.104-0.169-0.351-0.195-0.572-0.026-0.312-0.104-0.39-0.351-0.39s-0.325 0.078-0.364 0.39c-0.039 0.26 0.013 0.429 0.169 0.546 0.221 0.156 0.221 0.182-0.013 0.351-0.169 0.117-0.234 0.351-0.247 0.806-0.013 0.585-0.039 0.637-0.299 0.598-0.273-0.039-0.299 0.013-0.299 0.468s0.039 0.533 0.364 0.611c0.195 0.052 0.286 0.117 0.208 0.156-0.091 0.026-0.13 0.39-0.104 0.988 0.026 0.702 0.013 0.793-0.052 0.351-0.078-0.481-0.117-0.546-0.208-0.325-0.143 0.338-0.208 2.040-0.078 2.209 0.377 0.481-0.039 1.806-0.429 1.403zM18.624 26.959c0.195-0.364 0.013-0.546-0.559-0.546-0.338 0-0.338 0.013-0.338 0.897 0 0.715 0.052 0.975 0.247 1.195 0.13 0.156 0.26 0.351 0.26 0.429 0.013 0.078 0.065-0.26 0.13-0.754 0.052-0.507 0.169-1.053 0.26-1.221zM11.594 25.972c0-0.039-0.065-0.104-0.156-0.156s-0.104-0.039-0.052 0.052c0.091 0.156 0.208 0.208 0.208 0.104zM19.221 24.439c-0.039-0.104-0.078-0.065-0.078 0.078-0.013 0.143 0.026 0.221 0.065 0.169 0.039-0.039 0.052-0.156 0.013-0.247zM26.641 21.606c0.299-0.013 0.325-0.026 0.117-0.143-0.351-0.208-0.65-0.091-0.689 0.273-0.039 0.273-0.026 0.286 0.091 0.104 0.065-0.13 0.286-0.234 0.481-0.234zM22.6 20.956c-0.026-0.338-0.078-0.39-0.377-0.39s-0.364 0.052-0.364 0.312c0 0.247 0.078 0.338 0.364 0.377 0.195 0.026 0.364 0.065 0.377 0.078 0.013 0 0.013-0.156 0-0.377zM27.057 21.073c0-0.065-0.052-0.117-0.13-0.117-0.065 0-0.13 0.091-0.13 0.208 0 0.104 0.065 0.156 0.13 0.117 0.078-0.039 0.13-0.13 0.13-0.208zM13.283 21.034c0-0.039-0.065-0.104-0.156-0.156s-0.104-0.039-0.052 0.052c0.091 0.156 0.208 0.208 0.208 0.104zM27.668 20.618c-0.117-0.117-0.364 0.078-0.273 0.234 0.052 0.078 0.13 0.078 0.221-0.013 0.078-0.078 0.104-0.169 0.052-0.221zM3.927 19.994c0-0.026-0.117-0.078-0.26-0.117s-0.234-0.013-0.182 0.052c0.065 0.117 0.442 0.169 0.442 0.065zM23.873 19.787c-0.039-0.065 0-0.104 0.091-0.065 0.208 0.065 0.546-0.182 0.663-0.494 0.052-0.143 0.156-0.195 0.247-0.143s0.13 0.052 0.078-0.013c-0.052-0.052-0.013-0.299 0.091-0.546 0.221-0.533 0.273-2.573 0.065-2.703-0.065-0.039-0.13-0.221-0.13-0.39 0-0.156-0.091-0.325-0.195-0.377-0.104-0.039-0.195-0.143-0.195-0.234s-0.143-0.325-0.325-0.52c-0.182-0.195-0.325-0.429-0.325-0.507 0-0.091-0.039-0.117-0.091-0.078-0.039 0.052-0.143 0-0.234-0.117-0.182-0.26-1.364-0.416-1.364-0.195 0 0.195 0.247 0.455 0.559 0.572 0.13 0.052 0.208 0.143 0.169 0.208s0.013 0.143 0.117 0.182c0.351 0.143 0.845 1.104 0.845 1.637 0 0.286 0.052 0.559 0.13 0.598 0.065 0.039 0.117 0.26 0.104 0.494s0.026 0.741 0.065 1.131c0.052 0.481 0.052 0.585-0.026 0.325-0.104-0.377-0.117-0.364-0.13 0.169-0.013 0.39-0.065 0.533-0.169 0.468s-0.117-0.026-0.065 0.117c0.039 0.13 0.026 0.221-0.039 0.221-0.078 0-0.13 0.091-0.13 0.195s0.065 0.195 0.143 0.195c0.065 0 0.091-0.052 0.052-0.13zM3.108 19.306c-0.052-0.039-0.091 0-0.091 0.091s0.039 0.13 0.091 0.091c0.039-0.052 0.039-0.13 0-0.182zM3.511 18.812c-0.039-0.468-0.234-0.403-0.234 0.078 0 0.221 0.052 0.364 0.13 0.312 0.065-0.039 0.117-0.221 0.104-0.39zM13.543 13.939c0-0.065-0.026-0.13-0.052-0.13-0.039 0-0.104 0.065-0.143 0.13-0.039 0.078-0.013 0.13 0.052 0.13 0.078 0 0.143-0.052 0.143-0.13zM14.271 13.445c-0.091-0.156-0.988-0.156-0.988 0.013 0 0.052 0.065 0.065 0.13 0.026 0.078-0.039 0.13-0.013 0.13 0.078 0 0.13 0.039 0.13 0.156 0.013 0.247-0.247 0.533-0.195 0.429 0.078-0.065 0.169-0.039 0.182 0.078 0.065 0.078-0.078 0.117-0.208 0.065-0.273zM11.659 13.003c0.364-0.156 0.858-0.299 1.104-0.312 0.442-0.013 0.559-0.26 0.234-0.455-0.091-0.052-0.039-0.117 0.104-0.156 0.13-0.026-0.13-0.065-0.585-0.078-0.702-0.013-0.897 0.039-1.273 0.325-0.234 0.182-0.429 0.403-0.429 0.507s-0.104 0.247-0.221 0.325c-0.169 0.104-0.182 0.169-0.065 0.208 0.078 0.039 0.117 0.143 0.065 0.221-0.039 0.091 0.026 0.052 0.169-0.065 0.143-0.13 0.546-0.351 0.897-0.52zM13.062 13.367c-0.052-0.273-0.026-0.312 0.234-0.26l0.312 0.065-0.312-0.182c-0.169-0.104-0.429-0.156-0.585-0.117-0.234 0.065-0.234 0.091-0.039 0.13 0.13 0.026 0.221 0.169 0.221 0.364 0 0.169 0.052 0.312 0.117 0.312 0.052 0 0.078-0.143 0.052-0.312zM16.012 6.142c0-0.143-0.052-0.26-0.13-0.26-0.065 0-0.13 0.117-0.13 0.26s0.065 0.26 0.13 0.26c0.078 0 0.13-0.117 0.13-0.26z"></path>
<path d="M24.107 16.447c0.052-0.039 0.13-0.039 0.182 0 0.039 0.052 0 0.091-0.091 0.091s-0.13-0.039-0.091-0.091z"></path>
<path d="M19.156 28.428c0-0.208 0.026-0.286 0.065-0.156 0.026 0.117 0.026 0.299 0 0.39-0.039 0.078-0.065-0.013-0.065-0.234z"></path>
<path d="M19.325 26.284c0.039-0.065 0.104-0.13 0.143-0.13 0.026 0 0.052 0.065 0.052 0.13 0 0.078-0.065 0.13-0.143 0.13-0.065 0-0.091-0.052-0.052-0.13z"></path>
<path d="M19.624 22.814c0.078-0.026 0.234-0.026 0.325 0 0.078 0.039 0.013 0.065-0.169 0.065s-0.247-0.026-0.156-0.065z"></path>
<path d="M26.68 22.177c0-0.143 0.039-0.182 0.078-0.078 0.039 0.091 0.026 0.208-0.013 0.247-0.039 0.052-0.078-0.026-0.065-0.169z"></path>
<path d="M26.407 22.125c0-0.091 0.039-0.13 0.091-0.091 0.039 0.052 0.039 0.13 0 0.182-0.052 0.039-0.091 0-0.091-0.091z"></path>
<path d="M7.085 20.865c0.052-0.039 0.13-0.039 0.182 0 0.039 0.052 0 0.091-0.091 0.091s-0.13-0.039-0.091-0.091z"></path>
<path d="M12.607 7.741c0.091-0.039 0.208-0.026 0.247 0.013 0.052 0.039-0.026 0.078-0.169 0.065-0.143 0-0.182-0.039-0.078-0.078z"></path>
<path d="M12.88 7.507c-0.039-0.026-0.247-0.065-0.468-0.091-0.234-0.013-0.39-0.065-0.351-0.117 0.026-0.052-0.065-0.13-0.195-0.182-0.143-0.039-0.286-0.182-0.325-0.299s-0.091-1.663-0.104-3.43c-0.039-3.742 0.026-4.002 0.676-2.612 0.234 0.481 0.468 0.975 0.533 1.079 0.247 0.416 0.637 1.286 0.637 1.416 0 0.078 0.052 0.143 0.117 0.143s0.156 0.208 0.195 0.455c0.052 0.247 0.143 0.455 0.208 0.455 0.078 0 0.13 0.091 0.13 0.195s0.052 0.195 0.117 0.195c0.052 0 0.143 0.364 0.195 0.793l0.078 0.806-0.663 0.624c-0.689 0.676-0.689 0.676-0.78 0.572zM13.114 7.351c-0.052-0.039-0.13-0.039-0.182 0-0.039 0.052 0 0.091 0.091 0.091s0.13-0.039 0.091-0.091z"></path>
</svg>
