<!-- Generated by IcoMoon.io -->
<svg version="1.1" xmlns="http://www.w3.org/2000/svg" width="32" height="32" viewBox="0 0 32 32">
<title>twists-orientation</title>
<path d="M15.71 31.875c0-0.068-0.080-0.194-0.171-0.285-0.091-0.102-0.171-0.319-0.171-0.49s-0.125-0.581-0.285-0.9c-0.159-0.33-0.285-0.66-0.285-0.729 0-0.080-0.080-0.25-0.171-0.364-0.091-0.125-0.171-0.319-0.171-0.421 0-0.114-0.046-0.216-0.114-0.239-0.057-0.011-0.125-0.137-0.148-0.262-0.080-0.364-0.353-0.968-0.433-0.968-0.046 0-0.114-0.148-0.159-0.33-0.034-0.182-0.148-0.399-0.239-0.467-0.080-0.080-0.125-0.194-0.091-0.25 0.046-0.068 0.011-0.159-0.068-0.205-0.114-0.068-0.091-0.148 0.102-0.353 0.125-0.137 0.239-0.33 0.239-0.421 0-0.114 0.091-0.148 0.296-0.102 0.342 0.057 0.501-0.228 0.421-0.786-0.034-0.205 0-0.399 0.068-0.433 0.159-0.102 0.171-0.638 0.011-0.638-0.057 0-0.114-0.057-0.114-0.125 0-0.080-0.091-0.205-0.194-0.285-0.114-0.080-0.148-0.159-0.080-0.159 0.137 0 0.137-0.399 0-0.535-0.046-0.057-0.080-0.034-0.068 0.023 0.091 0.444 0.011 0.512-0.695 0.512-0.456 0-0.808 0.068-1.025 0.194-0.296 0.171-0.33 0.262-0.33 0.74 0 0.524-0.011 0.547-0.33 0.547-0.194 0-0.376-0.046-0.41-0.114-0.034-0.057-0.194-0.114-0.353-0.114s-0.558-0.148-0.9-0.342c-0.342-0.182-0.695-0.342-0.797-0.342-0.091 0-0.376-0.125-0.626-0.285s-0.604-0.285-0.786-0.285c-0.182 0-0.353-0.068-0.399-0.171-0.034-0.091-0.137-0.171-0.228-0.171s-0.182-0.046-0.205-0.102c-0.011-0.057-0.319-0.114-0.66-0.137s-0.717-0.102-0.843-0.171c-0.114-0.080-0.285-0.114-0.376-0.080-0.125 0.046-0.159 0-0.125-0.148 0.023-0.125 0.148-0.228 0.319-0.262 0.159-0.011 0.307-0.068 0.342-0.114 0.125-0.194 0.865-0.467 1.241-0.467 0.228 0 0.512-0.080 0.626-0.171 0.125-0.091 0.364-0.171 0.535-0.171s0.353-0.046 0.387-0.114c0.034-0.057 0.194-0.114 0.33-0.114 0.148 0 0.33-0.080 0.41-0.171s0.251-0.171 0.387-0.171c0.137 0 0.353-0.080 0.478-0.171 0.114-0.091 0.33-0.171 0.478-0.171 0.137 0 0.251-0.046 0.251-0.114 0-0.057 0.228-0.114 0.501-0.114 0.342 0 0.524-0.057 0.569-0.171 0.034-0.091 0.137-0.171 0.239-0.171 0.137 0 0.171 0.148 0.171 0.695 0 0.865 0.137 1.127 0.569 1.127 0.194 0 0.342-0.046 0.342-0.114 0-0.057 0.125-0.114 0.285-0.114s0.285 0.057 0.285 0.114c0 0.068 0.102 0.114 0.228 0.114 0.114 0 0.273 0.091 0.33 0.205 0.102 0.171 0.114 0.171 0.125-0.046 0-0.137-0.080-0.307-0.171-0.387-0.137-0.114-0.171-0.421-0.171-1.401 0-0.695 0.034-1.218 0.080-1.173 0.046 0.034 0.068 0.604 0.046 1.253-0.023 1.025 0 1.184 0.171 1.253 0.137 0.057 0.159 0.034 0.080-0.068-0.057-0.080-0.091-0.729-0.080-1.423 0.011-0.706-0.023-1.253-0.080-1.218s-0.102 0.011-0.102-0.057c0-0.057 0.068-0.137 0.148-0.159 0.080-0.034 0.057-0.068-0.057-0.068-0.171-0.011-0.205-0.125-0.205-0.774 0.011-0.433 0.057-1.287 0.125-1.913s0.137-2.107 0.159-3.279c0.046-1.81 0.023-2.152-0.114-2.198-0.091-0.046-0.171-0.137-0.171-0.228s-0.080-0.159-0.171-0.159c-0.091 0-0.171-0.046-0.171-0.102s-0.182-0.011-0.399 0.080c-0.216 0.102-0.399 0.216-0.399 0.262 0 0.148-0.569 0.672-0.729 0.672-0.091 0-0.205 0.057-0.239 0.125-0.046 0.057-0.205 0.159-0.353 0.216-0.159 0.068-0.273 0.205-0.273 0.342 0 0.125-0.046 0.228-0.114 0.228-0.057 0-0.273 0.171-0.478 0.387-0.228 0.228-0.444 0.364-0.512 0.319-0.091-0.057 0-0.148 0.228-0.251 0.194-0.080 0.296-0.171 0.216-0.205-0.228-0.068-0.148-0.41 0.148-0.638 0.182-0.137 0.285-0.33 0.285-0.535 0-0.182 0.057-0.33 0.114-0.33 0.068 0 0.114-0.091 0.114-0.216 0-0.114 0.125-0.307 0.285-0.421 0.148-0.114 0.307-0.353 0.342-0.524 0.046-0.171 0.114-0.319 0.159-0.319 0.125 0 0.467-0.649 0.467-0.9 0-0.137 0.057-0.239 0.114-0.239 0.068 0 0.114-0.102 0.114-0.216 0-0.125 0.080-0.296 0.171-0.399 0.091-0.091 0.171-0.216 0.171-0.273s0.080-0.171 0.171-0.25c0.091-0.080 0.171-0.25 0.171-0.376s0.125-0.342 0.285-0.49c0.159-0.148 0.285-0.33 0.285-0.41s0.080-0.25 0.171-0.364c0.091-0.125 0.171-0.319 0.171-0.421 0-0.114 0.046-0.216 0.102-0.239 0.137-0.046 0.808-1.344 0.808-1.56 0-0.114 0.046-0.239 0.102-0.307 0.057-0.057 0.125-0.285 0.148-0.501 0.023-0.239 0.091-0.387 0.182-0.364 0.091 0.011 0.137-0.114 0.137-0.376 0-0.695 0.444-0.433 0.626 0.376 0.034 0.205 0.125 0.364 0.182 0.364s0.102 0.114 0.102 0.262c0 0.137 0.205 0.66 0.456 1.161s0.456 0.968 0.456 1.036c0 0.068 0.080 0.194 0.171 0.273s0.171 0.262 0.171 0.41c0 0.148 0.046 0.273 0.102 0.273s0.137 0.182 0.171 0.399c0.046 0.216 0.125 0.399 0.171 0.399 0.057 0 0.125 0.194 0.171 0.433 0.034 0.239 0.159 0.535 0.273 0.66s0.25 0.387 0.285 0.592c0.046 0.205 0.159 0.455 0.25 0.547 0.091 0.102 0.137 0.228 0.102 0.285-0.034 0.068 0.034 0.148 0.148 0.171 0.159 0.046 0.216 0.148 0.194 0.399-0.011 0.182 0.023 0.33 0.080 0.33s0.102 0.125 0.102 0.273c0 0.159 0.080 0.353 0.171 0.456 0.091 0.091 0.171 0.194 0.171 0.239s0.080 0.148 0.171 0.239c0.091 0.102 0.171 0.273 0.171 0.399 0 0.114 0.046 0.216 0.102 0.216s0.137 0.125 0.171 0.285c0.046 0.159 0.125 0.285 0.182 0.285 0.068 0 0.114 0.125 0.114 0.285 0 0.182 0.068 0.285 0.171 0.285 0.091 0 0.171 0.068 0.171 0.148 0 0.102-0.114 0.137-0.342 0.102-0.182-0.023-0.342-0.091-0.342-0.148s-0.068-0.102-0.148-0.102c-0.080 0-0.239-0.137-0.364-0.307s-0.319-0.399-0.421-0.512c-0.114-0.114-0.205-0.239-0.205-0.273 0-0.125-0.729-0.729-0.877-0.729-0.080 0-0.148-0.046-0.148-0.114 0-0.057-0.068-0.114-0.148-0.114-0.091 0-0.285-0.102-0.433-0.239-0.148-0.125-0.399-0.342-0.558-0.467-0.194-0.148-0.216-0.205-0.080-0.159 0.125 0.046 0.182 0.023 0.137-0.057-0.068-0.102-0.695-0.068-0.808 0.046-0.034 0.023 0 0.182 0.068 0.353 0.057 0.171 0.125 0.649 0.137 1.070 0 0.421 0.046 0.82 0.091 0.877 0.102 0.148 0.262 1.867 0.239 2.653-0.011 0.342 0.034 0.672 0.091 0.752 0.080 0.091 0.125 1.139 0.125 2.721l0.011 2.585 0.296 0.228c0.159 0.125 0.364 0.228 0.444 0.228 0.091 0 0.159 0.057 0.159 0.114 0 0.068 0.307 0.114 0.683 0.114 0.865 0 1.116-0.205 1.161-0.991 0.034-0.512 0.057-0.547 0.319-0.512 0.159 0.023 0.364 0.114 0.467 0.205 0.091 0.091 0.239 0.159 0.307 0.159 0.080 0 0.137 0.046 0.137 0.091 0 0.057 0.342 0.171 0.752 0.25 0.501 0.102 0.683 0.182 0.547 0.228-0.194 0.068-0.194 0.091 0.034 0.205 0.137 0.080 0.364 0.137 0.512 0.137s0.319 0.046 0.387 0.102c0.125 0.114 1.218 0.467 1.446 0.467 0.091 0 0.319 0.080 0.49 0.171 0.182 0.091 0.615 0.171 0.956 0.182 0.342 0 0.558 0.034 0.49 0.068-0.080 0.023-0.148 0.125-0.148 0.216 0 0.102 0.057 0.137 0.114 0.102 0.068-0.034 0.114-0.011 0.114 0.046 0 0.068-0.171 0.125-0.387 0.125s-0.433 0.057-0.467 0.114c-0.034 0.068-0.216 0.114-0.41 0.114-0.376 0-1.731 0.444-1.788 0.581-0.023 0.057-0.148 0.102-0.273 0.102-0.137 0-0.399 0.125-0.592 0.273s-0.467 0.296-0.604 0.342c-0.148 0.046-0.262 0.137-0.262 0.194s-0.080 0.102-0.171 0.102c-0.091 0-0.171 0.046-0.171 0.114 0 0.057-0.125 0.137-0.285 0.182-0.159 0.034-0.285 0.114-0.285 0.159s-0.102 0.114-0.239 0.148c-0.137 0.034-0.216 0.102-0.182 0.159 0.034 0.046-0.068 0.102-0.228 0.102-0.228 0.023-0.273-0.023-0.228-0.205 0.068-0.239-0.114-0.888-0.25-0.888-0.046 0-0.262-0.148-0.467-0.342-0.353-0.319-0.444-0.342-1.275-0.342s-0.922 0.023-1.173 0.296c-0.501 0.535-0.342 1.435 0.25 1.56 0.171 0.034 0.433 0.171 0.569 0.296 0.137 0.137 0.296 0.239 0.342 0.239 0.057 0 0.114 0.159 0.125 0.342 0.011 0.194-0.023 0.342-0.091 0.342-0.057 0-0.080-0.091-0.046-0.194 0.023-0.114-0.011-0.080-0.091 0.080-0.080 0.148-0.262 0.399-0.399 0.547s-0.285 0.376-0.319 0.49c-0.046 0.125-0.125 0.216-0.182 0.216s-0.102 0.114-0.102 0.25c0 0.319-0.353 1.264-0.501 1.366-0.080 0.057-0.114 0.467-0.091 1.059 0.023 0.706 0 0.968-0.091 0.911-0.080-0.046-0.114-0.171-0.080-0.285 0.023-0.114 0.011-0.273-0.046-0.353-0.068-0.102-0.102 0-0.102 0.319 0 0.433-0.285 1.184-0.478 1.264-0.057 0.023-0.091 0.171-0.091 0.319 0 0.171-0.068 0.273-0.171 0.273-0.091 0-0.171-0.057-0.171-0.125zM15.107 22.811c-0.034-0.114-0.057-0.046-0.057 0.137 0 0.194 0.023 0.273 0.057 0.205 0.023-0.080 0.023-0.239 0-0.342zM16.598 21.649c0.023-0.433-0.023-0.774-0.102-0.877-0.137-0.171-0.74-0.228-0.808-0.068-0.011 0.046-0.182 0.159-0.364 0.25-0.558 0.285-0.615 0.49-0.251 0.968 0.376 0.49 0.66 0.615 1.139 0.524 0.342-0.080 0.353-0.091 0.387-0.797zM14.537 21.9c-0.034-0.114-0.057-0.046-0.057 0.137 0 0.194 0.023 0.273 0.057 0.205 0.023-0.080 0.023-0.239 0-0.342zM17.794 22.093c-0.034-0.125-0.102-0.194-0.159-0.159-0.159 0.091-0.114 0.387 0.057 0.387 0.102 0 0.137-0.080 0.102-0.228zM13.774 22.048c0-0.034-0.046-0.091-0.114-0.125-0.057-0.034-0.114-0.011-0.114 0.046 0 0.068 0.057 0.125 0.114 0.125 0.068 0 0.114-0.023 0.114-0.046zM17.532 21.638c0-0.057-0.046-0.114-0.114-0.114-0.057 0-0.114 0.057-0.114 0.114 0 0.068 0.057 0.114 0.114 0.114 0.068 0 0.114-0.046 0.114-0.114zM14.15 21.444c-0.080-0.023-0.239-0.023-0.342 0-0.114 0.034-0.046 0.057 0.137 0.057 0.194 0 0.273-0.023 0.205-0.057zM22.394 19.85c-0.046-0.034-0.114-0.034-0.159 0-0.034 0.046 0 0.080 0.080 0.080s0.114-0.034 0.080-0.080zM19.252 8.509c-0.171-0.171-0.239-0.057-0.159 0.251 0.057 0.239 0.080 0.239 0.182 0.068 0.068-0.125 0.057-0.239-0.023-0.319zM14.184 8.577c-0.114-0.125-0.216-0.080-0.251 0.114-0.023 0.171 0 0.182 0.137 0.068 0.091-0.068 0.137-0.159 0.114-0.182z"></path>
<path d="M9.903 11.116c0-0.239 0.239-0.353 0.342-0.171 0.057 0.080 0.068 0.194 0.046 0.239-0.102 0.159-0.387 0.102-0.387-0.068z"></path>
<path d="M10.7 10.137c0-0.080 0.034-0.114 0.080-0.080 0.034 0.046 0.034 0.114 0 0.159-0.046 0.034-0.080 0-0.080-0.080z"></path>
<path d="M19.855 8.406c-0.046-0.080-0.034-0.091 0.046-0.046s0.137 0.102 0.137 0.137c0 0.091-0.102 0.046-0.182-0.091z"></path>
<path d="M19.502 7.894c0.046-0.034 0.114-0.034 0.159 0 0.034 0.046 0 0.080-0.080 0.080s-0.114-0.034-0.080-0.080z"></path>
</svg>
