<!-- Generated by IcoMoon.io -->
<svg version="1.1" xmlns="http://www.w3.org/2000/svg" width="32" height="32" viewBox="0 0 32 32">
<title>twists-climate</title>
<path d="M15.133 31.571c-0.149-0.183-0.31-0.333-0.367-0.344-0.161 0-0.768-0.608-0.768-0.768 0-0.080-0.138-0.149-0.31-0.16-0.275 0-0.287-0.023-0.092-0.092 0.206-0.080 0.195-0.092-0.069-0.16-0.161-0.046-0.482-0.252-0.711-0.482-0.229-0.218-0.47-0.401-0.539-0.401-0.057 0-0.115-0.069-0.115-0.138 0-0.126-0.631-0.631-0.963-0.768-0.057-0.023-0.344-0.287-0.642-0.585-0.401-0.401-0.585-0.516-0.677-0.424s-0.126 0.057-0.126-0.126c0-0.149-0.195-0.447-0.459-0.699-0.252-0.241-0.459-0.482-0.459-0.527 0-0.172-0.711-0.963-0.917-1.032-0.126-0.046-0.229-0.149-0.229-0.241s-0.080-0.16-0.172-0.16c-0.092 0-0.172-0.046-0.172-0.115 0-0.057-0.080-0.115-0.172-0.115s-0.172-0.069-0.172-0.149c0-0.080-0.206-0.367-0.459-0.631-0.252-0.252-0.459-0.527-0.459-0.596 0-0.057 0.218-0.115 0.482-0.115s0.436 0.034 0.401 0.069c-0.138 0.149 0.482 0.505 0.86 0.505 0.275 0 0.482-0.092 0.699-0.321 0.287-0.298 0.31-0.401 0.31-1.238 0-0.527-0.057-0.975-0.126-1.043-0.080-0.080-0.138-0.608-0.149-1.319l-0.011-1.181 0.803-0.034c0.447-0.011 0.963-0.103 1.17-0.195 0.401-0.195 1.353-0.241 1.238-0.057-0.034 0.057-0.138 0.080-0.229 0.034-0.092-0.034-0.172-0.023-0.172 0.011 0 0.046 0.126 0.126 0.287 0.183l0.287 0.115v1.949c0 1.158 0.046 1.938 0.103 1.903 0.057-0.046 0.046 0.080-0.023 0.275-0.092 0.252-0.092 0.436 0.011 0.722 0.080 0.206 0.138 0.665 0.138 1.009 0 0.78 0.229 1.020 0.975 1.020h0.516v-0.459c0-0.31 0.069-0.482 0.206-0.562 0.103-0.069 0.126-0.126 0.057-0.126-0.298 0-0.493-0.665-0.493-1.64 0-0.527-0.057-1.135-0.138-1.341-0.103-0.298-0.103-0.401 0-0.436 0.092-0.023 0.138-0.333 0.138-0.837 0-0.871 0.229-1.594 0.505-1.594 0.103 0 0.183-0.046 0.183-0.103s0.126-0.046 0.287 0.023c0.161 0.080 0.287 0.172 0.287 0.218 0 0.069 1.502 0.034 2.809-0.080 0.573-0.046 0.734-0.011 0.975 0.183l0.287 0.229-0.287-0.138c-0.275-0.138-0.287-0.126-0.080 0.092 0.149 0.172 0.195 0.424 0.183 1.135-0.011 0.631-0.034 0.814-0.103 0.619s-0.092-0.023-0.103 0.596c-0.011 0.482 0.046 0.917 0.103 0.952 0.16 0.103 0.149 1.273-0.023 1.731-0.103 0.287-0.103 0.447-0.011 0.642 0.069 0.149 0.16 0.355 0.195 0.459 0.046 0.16 0.138 0.183 0.436 0.126 0.206-0.034 0.401-0.115 0.413-0.172 0.023-0.046 0.092-0.092 0.16-0.092 0.378 0 0.424-0.436 0.436-5.125 0-1.043 0.034-1.296 0.16-1.296 0.092 0 0.183-0.069 0.218-0.138 0.034-0.115 0.080-0.115 0.229 0 0.092 0.080 0.527 0.172 0.952 0.195 1.009 0.057 1.181 0.252 1.192 1.296 0 0.55 0.046 0.734 0.183 0.791 0.149 0.057 0.149 0.080 0.023 0.16-0.115 0.080-0.115 0.103 0 0.103 0.069 0 0.138 0.080 0.138 0.172s-0.080 0.172-0.183 0.172c-0.149 0-0.172 0.149-0.149 0.917 0.023 0.677 0.080 0.917 0.195 0.917 0.080 0 0.115-0.057 0.080-0.126-0.046-0.069 0.023-0.149 0.16-0.183s0.241-0.103 0.241-0.16c0-0.057 0.103-0.103 0.241-0.103 0.126 0 0.344-0.057 0.47-0.126s0.447-0.138 0.711-0.16c0.252-0.023 0.378-0.011 0.275 0.023-0.115 0.023-0.206 0.103-0.206 0.16s0.092 0.103 0.206 0.115c0.172 0 0.172 0.011-0.023 0.092-0.206 0.080-0.206 0.092-0.034 0.16 0.103 0.034 0.195 0.138 0.195 0.206 0 0.092-0.046 0.092-0.172-0.011-0.115-0.103-0.172-0.103-0.172-0.011 0 0.069-0.069 0.126-0.138 0.126-0.16 0-2.614 2.488-2.614 2.649 0 0.057-0.069 0.103-0.149 0.103-0.092 0-0.378 0.195-0.642 0.436-0.94 0.826-3.681 3.589-3.681 3.692 0 0.069-0.080 0.115-0.172 0.115-0.103 0-0.206 0.080-0.241 0.172-0.046 0.092-0.138 0.172-0.229 0.172-0.218 0-1.307 1.147-1.307 1.376 0 0.092-0.092 0.229-0.218 0.31-0.172 0.115-0.252 0.080-0.482-0.195zM14.8 30.654c0.092-0.057 0.126-0.138 0.092-0.183-0.046-0.034-0.161 0.011-0.264 0.115-0.206 0.195-0.103 0.241 0.172 0.069zM14.456 30.195c-0.092-0.057-0.218-0.115-0.287-0.115-0.057 0-0.034 0.057 0.057 0.115s0.229 0.115 0.287 0.115c0.069 0 0.034-0.057-0.057-0.115zM18.928 26.308c0-0.057 0.034-0.183 0.069-0.287 0.046-0.138 0-0.183-0.172-0.183-0.183 0-0.241 0.069-0.241 0.287 0 0.183 0.069 0.287 0.172 0.287 0.092 0 0.172-0.046 0.172-0.103z"></path>
<path d="M2.761 16.78c0-0.057-0.080-0.115-0.172-0.115-0.115 0-0.172-0.115-0.172-0.344 0-0.287-0.046-0.344-0.287-0.344-0.172 0-0.287 0.069-0.287 0.161s-0.126 0.195-0.287 0.229c-0.161 0.046-0.287 0.126-0.287 0.183 0 0.069-0.161 0.115-0.355 0.115-0.333 0-0.355-0.023-0.287-0.31 0.057-0.241 0.046-0.275-0.046-0.149-0.103 0.149-0.126 0.149-0.229 0-0.057-0.092-0.092-0.241-0.057-0.31 0.023-0.080-0.023-0.149-0.115-0.149-0.298 0-0.183-0.218 0.149-0.264l0.31-0.046-0.31-0.023c-0.333-0.011-0.436-0.31-0.206-0.539 0.138-0.138 0.195-2.224 0.069-2.431-0.046-0.080-0.046-0.138 0.011-0.126 0.229 0.034 0.39-0.023 0.321-0.126-0.034-0.069 0.046-0.115 0.195-0.103 0.149 0 0.195 0.034 0.115 0.069-0.103 0.034-0.034 0.138 0.206 0.287l0.367 0.218 0.264-0.298c0.149-0.161 0.333-0.287 0.401-0.287 0.057 0 0.115-0.080 0.115-0.172s0.057-0.172 0.115-0.172c0.069 0 0.115-0.172 0.115-0.367 0-0.378-0.527-1.124-0.78-1.124-0.069 0-0.138-0.057-0.161-0.138-0.034-0.092-0.172-0.046-0.436 0.138-0.206 0.149-0.344 0.218-0.298 0.138 0.057-0.092-0.011-0.138-0.183-0.138-0.149 0-0.333-0.103-0.413-0.229-0.115-0.195-0.103-0.264 0.103-0.47 0.138-0.138 0.355-0.218 0.539-0.206 0.688 0.057 0.711 0.034 0.722-0.608 0-0.333 0.046-0.711 0.092-0.837 0.057-0.126 0.057-0.31 0.011-0.401-0.378-0.768-0.401-0.837-0.252-0.883 0.069-0.034 0.138-0.229 0.138-0.436 0-0.229 0.069-0.401 0.172-0.447 0.103-0.034 0.138-0.138 0.092-0.252-0.046-0.126-0.034-0.172 0.046-0.126 0.080 0.057 0.161-0.057 0.206-0.275 0.046-0.195 0.229-0.482 0.413-0.642 0.183-0.172 0.333-0.378 0.333-0.47s0.069-0.138 0.172-0.092c0.16 0.057 0.631-0.321 0.631-0.516 0-0.126 0.688-0.791 0.814-0.791 0.069 0 0.172-0.046 0.252-0.115 0.344-0.264 0.929-0.768 1.238-1.066 0.367-0.333 0.791-0.413 0.791-0.138 0 0.195 0.401 0.229 0.516 0.046 0.046-0.057 0.195-0.161 0.321-0.229 0.298-0.126 0.642-0.344 0.848-0.516 0.069-0.069 0.275-0.103 0.436-0.069 0.206 0.034 0.287 0.011 0.264-0.103-0.023-0.126 0.252-0.161 1.399-0.183 0.791-0.011 1.479 0.023 1.548 0.080 0.138 0.103 0.963 0.287 1.17 0.252 0.069-0.023 0.161 0.023 0.206 0.092 0.034 0.057 0.241 0.115 0.459 0.115 0.229 0 0.436 0.069 0.493 0.172 0.046 0.103 0.206 0.195 0.333 0.206 0.138 0 0.218 0.057 0.195 0.103-0.034 0.057 0.034 0.126 0.149 0.172 0.264 0.103 0.493 0.321 0.493 0.482 0 0.069 0.080 0.126 0.172 0.126s0.172 0.080 0.172 0.172c0 0.092 0.080 0.172 0.172 0.172s0.172 0.057 0.172 0.115c0 0.069 0.080 0.115 0.172 0.115s0.172 0.080 0.172 0.172c0 0.092 0.057 0.172 0.115 0.172 0.069 0 0.115 0.069 0.115 0.16s0.069 0.241 0.16 0.321c0.080 0.092 0.183 0.31 0.218 0.493 0.287 1.456 0.505 2.121 0.699 2.121 0.057 0 0.218 0.126 0.367 0.287s0.333 0.287 0.413 0.287c0.080 0 0.252 0.080 0.367 0.172 0.126 0.092 0.344 0.172 0.482 0.172 0.149 0 0.298 0.057 0.333 0.115 0.092 0.149 0.975 0.149 0.975 0 0-0.057 0.069-0.115 0.149-0.115 0.092 0 0.31-0.126 0.493-0.287s0.459-0.321 0.619-0.355c0.16-0.034 0.378-0.103 0.482-0.172 0.527-0.275 1.926 0 2.19 0.436 0.057 0.080 0.149 0.115 0.218 0.080 0.069-0.046 0.092-0.034 0.057 0.034-0.103 0.16 0.333 0.493 0.665 0.493 0.149 0 0.31 0.057 0.344 0.115 0.034 0.069 0.378 0.115 0.757 0.115s0.677-0.046 0.677-0.115c0-0.057 0.069-0.115 0.16-0.115s0.183-0.057 0.206-0.138c0.023-0.069 0.16-0.149 0.298-0.172 0.229-0.034 0.252 0.011 0.252 0.482 0 0.287-0.046 0.516-0.103 0.516s-0.138 0.126-0.172 0.287c-0.046 0.161-0.126 0.287-0.183 0.287-0.069 0-0.115 0.057-0.115 0.126s-0.149 0.275-0.333 0.459c-0.333 0.321-0.367 0.333-1.548 0.333-1.112 0-1.215 0.023-1.387 0.264s-0.172 0.252 0.252 0.344c1.135 0.241 2.018 0.321 2.11 0.183 0.046-0.092 0.573-0.161 1.41-0.195 1.158-0.046 1.399-0.023 1.766 0.161 0.229 0.126 0.493 0.287 0.573 0.355 0.080 0.080 0.218 0.149 0.31 0.149 0.080 0 0.172 0.034 0.195 0.092 0.023 0.046 0.229 0.183 0.459 0.298 0.378 0.195 0.413 0.241 0.241 0.355-0.092 0.069-0.149 0.206-0.115 0.298 0.046 0.115 0.069 0.103 0.069-0.034 0.011-0.252 0.241-0.275 0.241-0.034 0 0.195 0.069 0.195-1.445 0.172-1.112-0.011-1.158 0-1.376 0.287-0.31 0.413-0.791 0.631-1.433 0.631-0.298 0-0.585 0.057-0.619 0.115-0.046 0.069-0.126 0.092-0.183 0.057-0.057-0.046-0.103-0.011-0.103 0.046 0 0.069-0.206 0.126-0.459 0.126s-0.459-0.046-0.459-0.103c0-0.206-0.47-0.218-0.711-0.023l-0.241 0.206 0.229 0.229c0.183 0.183 0.424 0.252 0.94 0.287 0.39 0.011 0.699 0 0.699-0.046s0.069-0.057 0.16-0.023c0.092 0.034 0.195 0.011 0.241-0.057 0.092-0.161 0.86-0.161 0.86-0.011 0 0.069 0.126 0.115 0.264 0.115 0.172 0 0.424 0.172 0.665 0.436 0.218 0.241 0.562 0.516 0.768 0.608 0.195 0.080 0.367 0.218 0.367 0.298 0 0.069 0.138 0.149 0.31 0.172 0.218 0.023 0.31 0.103 0.321 0.298 0.011 0.138-0.057 0.31-0.138 0.39-0.103 0.080-0.115 0.149-0.034 0.206 0.057 0.034-0.333 0.080-0.871 0.080-0.55 0.011-1.043 0.069-1.112 0.138-0.16 0.16-1.376 0.16-1.536 0-0.092-0.092-0.195-0.092-0.367 0.011-0.16 0.080-0.929 0.126-2.167 0.126-1.387 0-1.972 0.034-2.11 0.138-0.218 0.172-1.227 0.16-1.571-0.023-0.138-0.080-1.066-0.126-2.396-0.126-1.812 0-2.201 0.034-2.316 0.172s-0.298 0.16-0.78 0.115c-0.355-0.034-0.688-0.103-0.757-0.172-0.057-0.057-0.573-0.115-1.124-0.115-0.596 0-1.009-0.046-1.009-0.115 0-0.057-0.080-0.115-0.172-0.115s-0.172 0.057-0.172 0.115c0 0.069-0.287 0.115-0.631 0.115s-0.734 0.069-0.86 0.149c-0.195 0.115-0.252 0.103-0.333-0.023-0.069-0.115-0.321-0.138-0.883-0.115-1.514 0.057-1.88 0.011-1.88-0.229 0-0.126-0.046-0.264-0.115-0.298-0.057-0.034-0.115-0.218-0.115-0.413 0-0.183 0.057-0.333 0.115-0.333 0.069 0 0.115-0.103 0.115-0.218 0-0.126-0.046-0.264-0.115-0.298-0.057-0.034-0.115-0.195-0.115-0.355 0-0.206 0.057-0.275 0.241-0.275 0.126 0 0.31-0.080 0.401-0.172 0.103-0.092 0.378-0.172 0.619-0.172 0.275 0 0.459-0.057 0.505-0.172 0.034-0.092 0.138-0.172 0.218-0.172 0.092 0 0.149-0.103 0.138-0.252-0.023-0.252-0.080-0.264-0.998-0.298-0.768-0.034-0.998 0-1.112 0.138-0.092 0.103-0.218 0.183-0.287 0.183-0.080 0-0.252 0.115-0.378 0.264-0.183 0.195-0.252 0.47-0.298 1.158-0.034 0.493-0.103 0.94-0.16 0.975-0.103 0.080-0.378 0.55-0.378 0.642 0 0.103 0.631-0.092 0.711-0.218 0.046-0.069 0.092 0.023 0.092 0.206s-0.034 0.31-0.069 0.264c-0.103-0.103-0.39 0.218-0.39 0.424 0 0.138-0.115 0.183-0.459 0.183-0.631 0-0.94-0.287-0.894-0.837 0.034-0.516-0.046-0.596-0.355-0.401-0.172 0.103-0.241 0.264-0.241 0.585s-0.046 0.436-0.149 0.39c-0.080-0.034-0.275 0.011-0.436 0.103-0.321 0.183-0.906 0.206-0.906 0.046zM1.064 16.344c-0.16-0.046-0.183-0.596-0.023-0.596 0.069 0 0.115 0.057 0.115 0.115 0 0.172 0.333 0.138 0.516-0.046 0.115-0.115 0.126-0.183 0.023-0.287-0.172-0.172-0.424-0.161-0.424 0.034 0 0.092-0.092 0.149-0.195 0.138-0.138-0.011-0.218 0.103-0.264 0.401-0.069 0.378-0.046 0.413 0.16 0.355 0.126-0.034 0.172-0.080 0.092-0.115zM3.334 16.092c0-0.126-0.046-0.229-0.115-0.229-0.057 0-0.115 0.103-0.115 0.229s0.057 0.229 0.115 0.229c0.069 0 0.115-0.103 0.115-0.229zM29.82 15.404c0-0.126-0.080-0.229-0.172-0.229-0.149 0-0.149 0.034-0.034 0.229 0.080 0.126 0.16 0.229 0.172 0.229 0.023 0 0.034-0.103 0.034-0.229zM3.93 9.018c0.034-0.31 0.321-0.527 0.321-0.241 0 0.505 1.571 0.745 2.305 0.355 1.215-0.654 1.341-1.697 0.333-2.591-0.39-0.355-1.032-0.424-1.261-0.138-0.080 0.092-0.206 0.172-0.287 0.172s-0.172 0.080-0.218 0.172c-0.034 0.092-0.172 0.172-0.298 0.172s-0.229 0.046-0.229 0.103c0 0.057-0.092 0.138-0.195 0.172-0.252 0.092-0.642 0.321-0.883 0.516-0.264 0.218-0.252 1.25 0.023 1.456 0.287 0.218 0.344 0.195 0.39-0.149zM13.080 9.213c0-0.057-0.046-0.115-0.115-0.115-0.057 0-0.115 0.057-0.115 0.115 0 0.069 0.057 0.115 0.115 0.115 0.069 0 0.115-0.046 0.115-0.115zM26.518 8.846c-0.069-0.069-0.183-0.080-0.252-0.034-0.103 0.069-0.103 0.103 0.011 0.183 0.195 0.115 0.39 0 0.241-0.149zM8.379 7.172c-0.264-0.046-0.275-0.057-0.057-0.149 0.195-0.069 0.195-0.092 0.034-0.092-0.115-0.011-0.206-0.080-0.206-0.149 0-0.080-0.057-0.057-0.126 0.069-0.149 0.241 0.034 0.413 0.413 0.39 0.172 0 0.161-0.023-0.057-0.069zM2.417 6.289c0-0.16 0.046-0.287 0.115-0.287 0.057 0 0.138-0.126 0.183-0.287 0.034-0.16 0.126-0.287 0.183-0.287 0.069 0 0.080 0.092 0.034 0.206-0.057 0.149-0.034 0.16 0.069 0.057 0.183-0.183 0.046-0.344-0.298-0.344-0.206 0-0.287 0.057-0.287 0.218 0 0.115-0.069 0.241-0.149 0.275-0.103 0.034-0.138 0.183-0.103 0.39 0.057 0.413 0.252 0.459 0.252 0.057zM3.162 6.266c-0.126-0.034-0.264-0.115-0.31-0.195-0.057-0.080-0.092-0.057-0.092 0.080s0.080 0.195 0.321 0.183c0.241-0.011 0.252-0.023 0.080-0.069zM11.842 4.259c-0.103-0.103-0.172-0.103-0.275 0s-0.080 0.138 0.138 0.138c0.218 0 0.241-0.034 0.138-0.138zM11.246 2.448c0-0.057-0.023-0.115-0.046-0.115-0.034 0-0.092 0.057-0.126 0.115-0.034 0.069-0.011 0.115 0.046 0.115 0.069 0 0.126-0.046 0.126-0.115z"></path>
<path d="M19.902 5.544c0.046-0.069-0.080-0.149-0.275-0.183-0.264-0.057-0.378-0.149-0.424-0.378-0.092-0.401-0.527-1.284-0.734-1.502-0.195-0.206-0.573-1.055-0.505-1.17 0.057-0.080 0.023-0.103-0.103-0.057s-0.16 0.023-0.115-0.103c0.057-0.172 0.734-0.229 0.883-0.080 0.126 0.126 0.86 0.149 0.929 0.023 0.046-0.057 0.195-0.103 0.344-0.103s0.413-0.057 0.573-0.138c0.206-0.092 0.367-0.092 0.55-0.011 0.138 0.069 0.436 0.126 0.654 0.138 0.413 0.011 1.147 0.333 1.147 0.493 0 0.057 0.080 0.092 0.172 0.092s0.172 0.057 0.172 0.115c0 0.172 0.436 0.573 0.619 0.573 0.092 0 0.206 0.057 0.241 0.115 0.034 0.069 0.252 0.115 0.47 0.115 0.252 0 0.482 0.092 0.642 0.252 0.172 0.172 0.183 0.218 0.057 0.172-0.138-0.046-0.195 0.011-0.218 0.241-0.034 0.275-0.069 0.31-0.436 0.275-0.218-0.023-0.413-0.092-0.436-0.149-0.057-0.138-1.25-0.126-1.341 0.011-0.034 0.069-0.172 0.115-0.287 0.115s-0.287 0.069-0.367 0.149c-0.172 0.149-0.344 0.252-1.307 0.768-0.619 0.344-1.043 0.447-0.906 0.229z"></path>
<path d="M12.14 0.189c0.069-0.023 0.206-0.023 0.287 0 0.069 0.034 0.011 0.057-0.149 0.057s-0.218-0.023-0.138-0.057z"></path>
</svg>
