<!-- Generated by IcoMoon.io -->
<svg version="1.1" xmlns="http://www.w3.org/2000/svg" width="32" height="32" viewBox="0 0 32 32">
<title>weapons-ranged-weapon</title>
<path d="M31.151 0.009q-0.256 0.544-0.704 1.665-0.576 1.473-0.961 2.146-1.089 1.793-1.697 3.651l-0.064 0.16q-0.064 0.224-0.128 0.336t-0.272 0.112-0.272-0.096-0.064-0.32l-0.032-0.192q-0.096-0.769-0.833-0.288-0.384 0.256-0.801 0.672-0.256 0.256-0.736 0.801l-1.761 1.985q-1.537 1.665-2.338 2.498-0.512 0.544-1.409 1.697-1.057 1.313-1.665 1.921-2.338 2.338-5.156 6.308-0.448 0.608-0.448 1.345 0.032 0.384 0 1.185l-0.032 0.801q0 0.544-0.352 0.769-0.608 0.416-1.153 1.057-0.352 0.416-0.961 1.249-0.448 0.64-0.704 0.929l-0.416 0.448q-0.576 0.608-0.801 0.961-0.064 0.096-0.176 0.16t-0.208 0q-0.224-0.064-0.16-0.48 0.096-0.833 0.288-1.633 0.064-0.352 0.064-1.089 0-0.544-0.448-0.672l-0.064-0.032q-0.096-0.032-0.128-0.064-0.705-0.704-1.665-0.704-0.576 0.032-1.729 0.384l-0.384 0.096q-0.224 0.032-0.352 0-0.16 0-0.24-0.144t-0.032-0.256 0.176-0.272l0.032-0.032q0.833-0.897 1.921-1.761 0.384-0.288 0.897-0.096 0.288 0.096 0.496 0.096t0.416-0.128 0.336-0.256 0.128-0.352q0-0.352-0.448-0.416-0.256-0.064-0.272-0.224t0.144-0.352l1.057-1.185q0.416-0.448 1.137-0.24t1.329-0.112q0.352-0.224 0.961-0.865l0.064-0.096q3.426-3.971 6.084-6.565 0.929-0.897 2.658-2.786l0.993-1.089q0.833-0.961 1.345-1.345t0.608-0.753 0.384-0.721q0.192-0.192 0.608-0.512 0.801-0.64 1.217-1.313 0.224-0.352 0.144-0.544t-0.464-0.32l-0.096-0.032q-0.16-0.032-0.256-0.064-0.288-0.128-0.304-0.336t0.24-0.368q0.48-0.288 1.473-0.833l0.736-0.416q1.057-0.544 2.338-1.377 0.769-0.512 2.274-1.569 0.096 0 0.288-0.080t0.352-0.048zM23.145 8.303v-0.128l-0.128 0.032v0.032q0 0.064 0.032 0.080t0.064-0.016h0.032zM30.062 1.258h-0.032l-0.032 0.032 0.064 0.064 0.032-0.032q0-0.064-0.032-0.064zM20.711 14.548q0.288-0.32 0.801-0.977t0.801-0.945q0.448-0.512 0.881-0.849t0.753-0.176q0.961 0.416 1.857 0.224 0.801-0.192 1.601-0.929 0.256-0.224 0.384-0.224t0.16 0.384q0 0.224 0.192 0.32 1.601 1.089 2.434 3.218t0.32 4.563q-0.608 2.626-1.473 4.451-0.576 1.281-0.64 2.338-0.096 1.281 0.464 2.418t1.873 1.425q0.48 0 0.544 0.32 0.032 0.16-0.064 0.256t-0.256 0.192l-0.096 0.032q-0.608 0.384-1.089 0.448-0.608 0.064-1.217-0.256l-0.576-0.288q-0.801-0.32-1.153-0.672-0.672-0.736-0.961-1.729-0.224-0.736-0.32-1.985-0.064-1.121 0.288-2.402 0.224-0.736 0.833-2.242l0.096-0.224q0.704-1.569 0.544-2.914-0.032-0.192-0.064-0.608-0.032-0.865-0.224-1.281-0.192-0.352-0.416-0.48t-0.592-0.16-1.105 0l-0.736 0.032q-0.833 0-1.697-0.288-0.704-0.256-1.569-0.736-0.064-0.032-0.288-0.128zM26.732 15.188q0.032-0.032 0.064-0.032l0.032-0.032q-0.064-0.064-0.096-0.064h-0.064q0 0.128 0.064 0.128zM0.345 7.022v-0.608q0-0.16 0.096-0.288t0.256-0.128l0.128-0.032q0.16-0.032 0.272-0.016t0.208 0.144l0.096 0.096q0.128 0.16 0.16 0.256 0.769 1.153 1.857 0.961 0.224-0.032 0.512 0 1.089 0.256 2.113-0.224 0.64-0.288 1.729-1.185 2.21-1.985 5.252-2.658 1.665-0.352 3.362-0.096 1.537 0.224 3.17 0.961 0.224 0.096 0.56 0.464t0.592 0.464q0.096 0.032 0.064 0.144t-0.128 0.208q-0.16 0.256-0.32 0.833-0.064 0.32-0.144 0.496t-0.048 0.464q0.032 0.16 0.128 0.512l0.032 0.128q0.16 0.416 0.112 0.721t-0.432 0.56-0.897 1.025l-0.32 0.448q-0.704 0.833-1.089 1.217-0.48 0.512-0.769-0.128-0.416-0.897-0.416-1.505-0.064-1.313 0.032-1.921 0.16-0.801-0.576-0.993h-0.064q-0.576-0.192-0.865-0.256-0.48-0.064-0.897 0.032-0.32 0.096-0.672 0.096-0.993-0.032-1.985 0.416-0.672 0.288-1.729 1.057-0.704 0.512-1.633 0.865-0.705 0.256-1.793 0.512t-2.242-0.032q-0.897-0.192-2.081-0.833-0.416-0.256-0.833-0.801l-0.064-0.096q-0.256-0.416-0.512-0.544-0.192-0.064-0.224-0.256-0.032-0.096 0-0.32v-0.16zM14.243 6.542q-0.032-0.032-0.080-0.048t-0.080 0-0.032 0.048l-0.032 0.064q0.064 0.128 0.16 0.064z"></path>
</svg>
