<!-- Generated by IcoMoon.io -->
<svg version="1.1" xmlns="http://www.w3.org/2000/svg" width="32" height="32" viewBox="0 0 32 32">
<title>weapons-reach-weapon</title>
<path d="M28.949 19.609q-0.064 0.032-0.224 0.128-0.287 0.16-0.415 0.192-0.255 0.064-0.511-0.064-0.192-0.064-0.639-0.128l-0.287-0.064q-0.543-0.128-0.926 0.447-0.128 0.224-0.271 0.367t-0.399 0.208q-0.128 0.032-0.335 0.224t-0.335 0.224l-0.16 0.096q-0.287 0.16-0.447 0.192-0.287 0.096-0.511-0.064-0.16-0.064-0.319 0.064l-0.064 0.032q-0.224 0.128-0.415 0.128t-0.383-0.16q-0.415-0.319-0.894 0.096l-0.224 0.255q-0.479 0.575-0.703 0.894-0.128 0.128-0.255 0.192-0.192 0.16-0.287-0.064-0.032-0.128-0.032-0.415v-1.533q0-0.192-0.048-0.319t-0.208-0.224l-0.479-0.479q-0.575-0.479-0.671-1.086 0-0.096-0.032-0.128-0.319-0.319-0.447-0.766-0.096-0.287-0.16-0.894l-0.032-0.415q-0.096-0.511-0.639-0.671-0.639-0.224-0.926-0.639-0.096-0.128-0.224-0.144t-0.287-0.016h-0.128q-0.351 0-0.623 0.192t-0.367 0.543-0.383 0.671q-0.192 0.224-0.607 0.511l-0.192 0.128q-0.255 0.128-0.351 0.255-0.224 0.287-0.543 0.319-0.192 0.032-0.623-0.032t-0.671 0.064-0.431 0.511q-0.032 0.064-0.064 0.224l-0.064 0.192q-0.224 0.575-0.894 1.533-0.447 0.639-0.639 0.99-0.096 0.16-0.383 0.16-0.351-0.064-0.543 0.224-0.479 0.415-0.543 0.782t0.255 0.495q0.192 0.128 0.319 0.16 0.287 0.096 0.287 0.447v1.724q0 0.287-0.287 0.735l-0.096 0.128q-0.224 0.351-0.208 0.575t0.239 0.607q0.16 0.255 0.415 0.224 1.118-0.064 1.82 0.735 0.224 0.192 0.735 0.511 0.192 0.128 0.255 0.192 0.128 0.16 0.128 0.319 0.032 0.255 0.319 0.319 0.224 0 0.367 0.176t0.335 0.016q0.447-0.511 1.054-0.639 0.16-0.032 0.255 0.048t0.016 0.208-0.112 0.399-0.176 0.383-0.144 0.319 0.16 0.303l0.128 0.096q0.192 0.16 0.287 0.192 0.192 0.096 0.351 0 0.447-0.192 1.054-0.607 0.128-0.064 0.16-0.255v-0.096q0.032-0.415-0.016-0.527t-0.399-0.367q0.319-0.128 0.543 0.032l0.128 0.128q0.16 0.128 0.224 0.224t0.064 0.255q0 0.351-0.128 0.735-0.096 0.255-0.351 0.671-0.192 0.192-0.224 0.319-0.064 0.351-0.144 0.415t-0.399 0.064h-0.958q-0.255 0-0.415-0.287-0.319-0.639-0.703-1.022-0.447-0.447-1.070-0.591t-0.942 0.239q-0.383 0.415-0.575 0.431t-0.575-0.399q-0.128-0.128-0.447-0.335t-0.447-0.335q-0.351-0.287-0.511-0.511-0.224-0.287-0.255-0.639 0-0.064-0.064-0.192-0.479-0.543-0.607-1.629-0.032-0.192-0.224-0.575-0.096-0.192-0.479-0.128-0.128 0.064-0.128 0.287v0.064q0 0.224 0.064 0.351 0.128 0.192 0.128 0.351 0.128 1.022 0.575 1.565 0.064 0.096 0.048 0.16t-0.096 0.176-0.208 0.016l-0.064-0.064q-0.734-0.351-0.703-1.118 0.032-0.447-0.224-0.894-0.128-0.255-0.511-0.735l-0.064-0.064q-0.16-0.16-0.479-0.224-0.479-0.096-0.766-0.543-0.639-0.798-0.798-1.469-0.415-1.054 0.192-1.661 0.096-0.096 0.144-0.367t0.016-0.463 0-0.351q0.064-0.766-0.479-1.118-0.255-0.16-0.255-0.543v-2.012q0-0.287 0.224-0.511 0.319-0.287 0.383-0.447 0.128-0.287-0.032-0.639-0.064-0.096 0.032-0.287l0.032-0.032q0.224-0.575 0.447-1.309l0.032-0.032q0.032-0.128 0.032-0.208t-0.064-0.208q-0.128-0.192-0.16-0.479 0-0.16 0.032-0.479l0.032-0.255q0.032-0.192 0.255-0.447 0.16-0.16 0.239-0.287t0.303-0.399 0.319-0.399q0.351-0.479 0.862-0.479 0.415 0 0.766-0.479 0.128-0.287 0.447-0.479 0.383-0.16 0.192-0.639-0.287-0.639 0.319-1.086l0.255-0.192q0.575-0.447 0.91-0.655t0.575-0.176 0.559-0.064q0.16-0.064 0.511-0.224l0.287-0.128 0.192-0.064q0.351-0.096 0.431-0.255t0.239-0.447q0.224-0.383 0.287-0.607 0.224-0.607 0.671-0.703 0.16-0.032 0.447-0.192 0.447-0.224 0.75-0.224t0.463-0.351q0.287-0.479 0.862-0.894 0.319-0.255 1.054-0.671 0.192-0.096 0.703-0.16 0.766-0.096 0.926-0.703 0.096-0.224 0.431-0.527t0.399-0.559q0.224 0.096 0.415 0.447l0.064 0.16q0.032 0 0.032 0.064v0.096q0.224 0.575 0.319 0.734 0.128 0.224 0.319 0.351 0.16 0.096 0.703 0.319l0.064 0.032q0.319 0.096 0.415 0.224 0.192 0.255 0.607 0.415 1.054 0.639 1.182 1.788 0.032 0.255 0.208 0.479t0.431 0.239 0.766 0.239q0.319 0.16 0.511 0.208t0.176 0.335-0.303 0.287q-0.415 0-1.054 0.287-0.383 0.16-0.607 0.415t-0.383 0.671q-0.319 0.766-0.703 1.182-0.479 0.543-1.213 0.703l-0.128 0.032q-0.255 0.032-0.287 0.096-0.255 0.16-0.575 0.224-0.224 0.032-0.575 0.032t-0.511 0.112-0.224 0.399l-0.032 0.16q-0.16 0.639-0.383 0.894-0.032 0.032-0.032 0.16l-0.032 0.096v0.16q0 0.192-0.112 0.192t-0.128-0.048-0.016-0.16-0.032-0.144q-0.192-0.287-0.351-0.926-0.128-0.479-0.239-0.735t-0.239-0.383q-0.16-0.192-0.415-0.208t-0.671-0.399l-0.351-0.255q-0.255-0.255-0.447-0.319-0.319-0.096-0.543-0.351-0.16-0.16-0.367-0.527t-0.463-0.575-0.671-0.208q-0.064 0-0.192-0.096l-0.128-0.064q-0.287-0.16-0.607-0.144t-0.575 0.208l-0.128 0.128q-0.255 0.224-0.271 0.335t0.128 0.319 0.128 0.335-0.176 0.351q-0.224 0.351-0.83 0.83l-0.383 0.351q-0.287 0.287-1.054 0.575l-0.383 0.16q-0.16 0.032-0.607 0.032-0.255 0.032-0.415 0.192t-0.16 0.415v0.192q-0.032 0.255 0 0.383 0.064 0.415-0.064 0.83-0.128 0.287-0.383 0.735l-0.192 0.287q-0.128 0.703-1.022 1.118-0.671 0.255-0.862 0.894-0.096 0.287-0.048 0.591t0.287 0.415 0.303 0.271 0.064 0.415v2.491q0 0.543-0.383 0.798-0.255 0.192-0.335 0.607t0.048 0.703 0.192 0.287q0.224 0.064 0.383 0.224 0.096 0.096 0.239 0.351t0.239 0.351l0.032 0.096q0.064 0.16 0.192 0.16h0.064q0.255 0 0.351-0.128 0.287-0.319 0.798-0.671 0.128-0.064 0.224-0.383l0.032-0.16q0.032-0.064 0.032-0.16v-0.096q0.255-0.255 0.239-0.527t-0.224-0.591-0.016-0.735l0.032-0.128q0.128-0.351 0.192-0.543 0.128-0.287 0.351-0.447 0.16-0.128 0.415-0.415l0.224-0.224q0.287-0.351 0.543-0.511 0.351-0.192 0.798-0.128 0.192 0.032 0.383-0.064 0.128-0.064 0.335-0.255t0.335-0.255q0.224-0.192 0.224-0.607 0-0.319 0.192-0.575 0.128-0.192 0.447-0.447 1.022-0.671 1.948-0.83 0.255-0.064 0.415 0.032 0.224 0.128 0.431 0.096t0.495-0.16l0.064-0.032q0.096-0.064 0.16-0.064 0.703 0.096 0.99-0.607 0.064-0.224 0.607-0.224h0.224q0.415-0.032 0.607 0.064 0.319 0.16 0.671-0.032l0.064-0.032q0.255-0.16 0.415-0.032 0.096 0.032 0.287-0.16 0.735-0.766 2.108-0.926 0.192-0.032 0.511-0.16l0.128-0.032q0.224-0.064 0.319-0.064 0.192-0.032 0.335 0.064t0.335 0.064q0.128-0.032 0.383-0.128 0.862-0.287 1.565-1.054 0.16-0.224 0.351-0.319 0.096-0.096 0.224-0.032t0.128 0.192v0.511q0 0.671-0.096 0.99-0.16 0.575 0.383 0.926 0.351 0.224 0.735 0.766t0.479 0.958l0.064 0.224q0.351 0.415 0.383 0.958 0 0.351-0.128 1.054t0.319 1.15q0.287 0.192 0.671 0.735 0.319 0.447 0.543 0.639zM9.789 8.016q-0.128-0.192-0.208-0.351t-0.239-0.224-0.287 0.064l-0.128 0.096q-0.607 0.351-0.814 0.655t0.080 0.463q0.447 0.16 0.383 0.703v0.064q-0.032 0.128 0.032 0.192 0.16 0.064 0.319-0.064l0.064-0.064q0.351-0.224 0.99-0.703l0.16-0.096 0.255-0.224q0.128-0.128 0.096-0.303t-0.255-0.176q-0.16-0.032-0.447-0.032zM10.683 29.381q0.032-0.16-0.16-0.479l-0.064-0.128q-0.064-0.192-0.224-0.319-0.096-0.096-0.319-0.192-0.319-0.128-0.447-0.287 0-0.064-0.16 0.032-0.224 0.096-0.367 0.511t-0.016 0.639l0.032 0.064q0.128 0.096 0.192 0.128 0.287 0.128 0.894 0.575l0.032 0.032q0.192 0.128 0.351-0.032 0.255-0.224 0.255-0.543zM6.372 12.615q0-0.383-0.080-0.559t-0.335-0.367q-0.064-0.064-0.176-0.080t-0.176 0.048q-0.639 0.479-0.734 1.245-0.032 0.192 0.176 0.495t0.399 0.335q0.415 0.032 0.639-0.415 0.032-0.064 0.144-0.208t0.16-0.239-0.016-0.255zM12.056 15.872q-0.032 0.096 0.048 0.224t0.080 0.192q0.192 0.703 0.798 0.383 0.255-0.128 0.735-0.415l0.255-0.16q0.096-0.064 0.112-0.144t0.016-0.239-0.112-0.271-0.335-0.239q-0.287-0.192-0.575 0-0.447 0.351-1.022 0.671zM4.711 18.108v0-0.383q0-0.383-0.224-0.383-0.16 0-0.415-0.096-0.192-0.096-0.303-0.112t-0.24 0.080q-0.064 0.032-0.128 0.224v0.032q-0.128 0.224 0 0.75t0.351 0.687l0.032 0.032q0.096 0.032 0.128 0.032 0.447 0.096 0.623-0.032t0.176-0.575v-0.255zM7.841 23.568q-0.128 0.064-0.192 0.287l-0.032 0.128q-0.192 0.511-0.543 0.064-0.064-0.064-0.128-0.255v-0.096q-0.032-0.16-0.16-0.128t-0.208 0.112-0.080 0.176q0 0.543 0.032 0.798t0.287 0.575q0.192 0.16 0.447 0.192 0.16 0 0.415-0.096 0.16-0.064 0.271-0.208t0.080-0.335 0-0.511v-0.255q0-0.192-0.032-0.287t-0.16-0.16zM4.775 24.91q0.351-0.255 0.479-0.671 0.064-0.287 0.032-0.798 0-0.128-0.096-0.208t-0.224-0.080l-0.16-0.032q-0.255-0.032-0.383-0.064-0.383-0.128-0.479-0.064t-0.096 0.447q0 0.255 0.128 0.479l0.192 0.287q0.351 0.511 0.607 0.703zM9.693 19.225q0-0.224-0.176-0.495t-0.367-0.303q-0.287-0.064-0.415 0.064l-0.192 0.16q-0.415 0.415-0.511 0.671-0.032 0.128-0.032 0.415 0.16 0.351 0.383 0.16 0.192-0.096 0.511-0.032 0.351 0 0.575-0.176t0.224-0.463zM17.932 13.701v0h-0.287q-0.128 0-0.239 0.064t-0.112 0.192q0 0.543-0.255 0.894-0.064 0.128-0.016 0.271t0.208 0.208q0.383 0.096 0.703-0.128 0.224-0.16 0.415-0.639 0.096-0.255 0.16-0.351 0.128-0.192 0-0.351t-0.383-0.192q-0.032 0.032-0.192 0.032zM13.653 4.472q-0.511-0.192-0.926 0.319-0.128 0.16-0.144 0.351t0.144 0.255q0.255 0.096 0.271 0.255t-0.112 0.383q-0.032 0.064 0 0.16v0.096q0 0.128 0.112 0.176t0.255-0.016 0.144-0.192q0-0.224 0.144-0.607t0.144-0.575q0.064-0.319-0.032-0.607zM6.212 25.229q-0.255-0.096-0.511 0 0.16 0.224 0.271 0.224t0.239-0.224z"></path>
</svg>
