<!-- Generated by IcoMoon.io -->
<svg version="1.1" xmlns="http://www.w3.org/2000/svg" width="32" height="32" viewBox="0 0 32 32">
<title>weapons-sword</title>
<path d="M31.908 0.25q0-0.064-0.048-0.128t-0.080-0.064q-0.32-0.096-0.991-0.032l-0.192 0.032q-0.032 0-0.096 0.064-0.064 0.256-0.544 0.576l-0.959 0.703q-0.703 0.512-1.055 0.799-0.16 0.128-0.544 0.352-0.576 0.352-0.799 0.575-0.384 0.448-0.927 0.639-0.096 0.032-0.256 0.128t-0.24 0.112-0.128 0.064-0.016 0.112q0.032 0.288-0.096 0.48-0.096 0.16-0.352 0.352l-0.544-0.352q-0.799-0.48-1.151-0.799-0.224-0.224-0.831-0.512l-0.096-0.032q-0.352-0.224-0.671-0.032-0.096 0.064-0.336 0.112t-0.336 0.112q-0.16 0.064-0.256 0.224-0.032 0.032-0.224 0.032-0.096 0-0.128 0.096v0.032q0 0.128 0.16 0.128 0.512 0.032 1.119 0.448 0.288 0.16 0.751 0.56t0.719 0.56q0.096 0.032 0.224 0.16l0.096 0.064q0.224 0.16 0.256 0.368t-0.16 0.4l-0.096 0.096q-0.224 0.256-0.32 0.256t-0.416-0.192l-0.128-0.064q-0.064-0.064-0.064-0.096-0.16-0.096-0.32-0.096t-0.256 0.128l-4.764 4.796-2.398 2.462q-0.256 0.16-0.48 0.448-0.639 0.607-1.886 1.854-1.695 1.695-2.558 2.478t-2.366 2.51l-0.32 0.352-0.48 0.48q-0.927 0.991-1.343 1.503l-0.032 0.032q-0.128 0.192-0.256 0.288l-1.183 1.247q-0.224 0.192-0.607 0.639l-1.311 1.535q-0.192 0.192-0.48 0.671-0.416 0.576-0.703 0.863-0.352 0.352-0.32 0.927 0.032 0.32 0.032 0.943v1.039q-0.032 0.224 0.096 0.32h0.544q0.767-0.032 1.119 0 1.119 0.032 2.078-0.799l0.416-0.352q1.151-0.959 1.631-1.519t0.895-0.815l0.096-0.064q0.416-0.288 0.544-0.48 0.224-0.256 0.735-0.703 0.671-0.607 0.927-0.991 0.448-0.288 1.183-1.087l0.48-0.512 0.48-0.448 2.654-2.654q1.439-1.503 2.526-2.75 0.576-0.735 1.95-2.11 0.991-0.991 1.471-1.535 0.544-0.639 1.79-1.822l0.32-0.32q0.863-0.799 1.503-1.183 0.48-0.32 0.735-0.671 0.128-0.192 0.512-0.639l0.064-0.064q0.352-0.352 0.48-0.639 0.16-0.384 0.064-0.799l-0.096-0.288q-0.128-0.224 0.128-0.448 0.224-0.16 0.448 0.16l0.064 0.096q0.224 0.352 0.352 0.448 0.831 0.831 1.119 1.854l0.064 0.192q0.224 0.544 0.416 0.767 0.32-0.256 0.544-0.639 0.16-0.256 0.352-0.735 0.16-0.352 0.032-0.735-0.064-0.288-0.32-0.607l-0.192-0.256q-0.639-0.767-0.991-1.119-0.16-0.128-0.384-0.416l-0.288-0.32q-0.064-0.096-0.080-0.16t0.048-0.16q0.32-0.671 1.087-1.311l0.128-0.096q0.224-0.224 0.288-0.352 0.192-0.32 0.703-0.895l0.352-0.448 0.256-0.352q0.576-0.799 0.959-1.151l0.064-0.064q0.32-0.32 0.48-0.416 0.32-0.16 0.671-0.096 0.128 0.032 0.208-0.048t0.080-0.208v-0.991zM17.072 11.856q0.064 0.096 0.016 0.16t-0.144 0.16l-0.128 0.096q-0.064 0.096-0.224 0.224l-0.096 0.096q-0.064 0.064-0.128 0.016t-0.080-0.096 0.016-0.096 0.16-0.176l0.448-0.512 0.032 0.032q0.096 0.032 0.128 0.096zM23.435 8.467q-0.128 0.448-0.496 0.831t-1.007 1.183l-0.352 0.416q-0.224 0.256-0.735 0.735l-0.831 0.799q-0.991 0.895-1.407 1.439-0.639 0.799-1.215 1.151-0.128 0.064-0.224 0.224l-0.128 0.16q-0.48 0.512-1.535 1.487t-1.567 1.535-1.631 1.551l-0.703 0.607q-0.735 0.607-1.087 1.215-0.064 0.096-0.224 0.224l-0.096 0.096q-0.16 0.192-0.48 0.464t-0.448 0.432q-0.224 0.256-0.671 0.703l-1.183 1.183q-0.416 0.416-1.215 1.343l-0.703 0.799-0.384 0.48q-0.448 0.576-0.735 0.767-0.448 0.288-0.735 0.639-0.128 0.192-0.48 0.416l-0.128 0.096-0.192 0.096q-0.128 0-0.24-0.192t-0.048-0.32q0.096-0.224 0.352-0.576l0.064-0.096q0.352-0.384 0.607-0.863 0.224-0.288 0.352-0.352 0.256-0.096 0.4-0.448t0.496-0.735q0.192-0.224 0.639-0.639 0.575-0.544 1.599-1.663 1.215-1.343 1.886-1.95 0.767-0.703 2.238-2.142 1.215-1.215 1.854-1.79l0.352-0.384q0.48-0.512 0.783-0.735t0.847-0.767l0.224-0.256q0.703-0.735 0.991-1.087 0.48-0.544 0.959-0.959 0.288-0.192 0.671-0.703 0.544-0.767 1.183-1.151l0.096-0.064q0.064-0.096 0.128-0.128l0.352-0.352q0.831-0.863 1.279-1.183 0.128-0.096 0.288-0.352l0.16-0.224 0.224-0.224q0.256-0.256 0.416-0.352 0.224-0.16 0.607-0.607 0.128-0.192 0.304-0.192t0.368 0.16q0.096 0.032 0.128 0.080t0.032 0.176z"></path>
</svg>
