<!-- Generated by IcoMoon.io -->
<svg version="1.1" xmlns="http://www.w3.org/2000/svg" width="32" height="32" viewBox="0 0 32 32">
<title>weapons-axe</title>
<path d="M16.416 23.327q-0.878-0.063-1.536-0.345-0.251-0.125-0.847-0.188h-0.063q-0.031-0.031-0.11-0.031h-0.11l-0.188-0.063q-0.314-0.125-0.345-0.22-0.125-0.188-0.251-0.627l-0.063-0.188q0-0.063 0.094-0.157l0.031-0.031q0.564-0.909 1.38-1.881l1.913-2.352q0.314-0.376 0.721-1.035 0.251-0.502 0.533-0.972 0.157-0.22 0.141-0.439t0.204-0.22h0.063q0.094 0 0.157 0.031t0.063 0.141 0.063 0.141 0.22 0.031q0.439 0.031 0.862-0.251t0.611-0.815q0.251-0.69 0.251-1.317 0.063-1.066-0.847-1.505-0.188-0.094-0.439-0.376l-0.22-0.22q-0.157-0.094-0.47-0.251l-0.345-0.188q-0.314-0.157-0.847-0.596l-0.314-0.251q-0.22-0.188-0.658-0.596-0.314-0.314-0.486-0.502t-0.361-0.22q-0.282-0.031-0.439 0.063t-0.22 0.376q-0.125 0.439-0.502 0.564l-0.188-0.188q-0.47-0.439-0.596-0.753-0.063-0.188-0.408-0.533-0.188-0.188-0.251-0.282l-0.188-0.251q-0.941-1.348-1.505-1.944-0.345-0.376-0.972-1.192t-1.003-1.192l-0.376-0.47q-0.376-0.439-0.564-0.627-0.094-0.094-0.031-0.282 0.063-0.094 0.188 0l0.596 0.188q0.69 0.188 1.003 0.345v0q0 0.031 0.031 0.031 0.345-0.063 0.941 0.125 0.47 0.125 0.69 0.125 0.094 0 0.282 0.031l0.063 0.031q0.376 0.157 1.223 0.314 0.721 0.125 1.066 0.251 0.157 0.063 0.47 0.094 0.439 0.094 0.611 0.204t0.549 0.125 0.533 0.078q0.439 0.188 1.223 0.125h0.063q0.22 0 0.314 0.063l0.031 0.063q0.094 0.063 0 0.125-0.188 0.125-0.188 0.251t0.094 0.345 0.078 0.345 0.125 0.251 0.329 0.188 0.439 0.314l0.188 0.188q0.909 0.847 1.568 1.192 0.251 0.125 0.753 0.439 0.69 0.439 1.035 0.596 0.251 0.094 0.69 0.376l0.376 0.22q0.282 0.157 0.486 0.11t0.423-0.267q0.47-0.439 0.533-1.191v-0.596q0-0.157 0.11-0.22t0.235 0.047 0.408 0.298 0.408 0.314q0.251 0.188 0.753 0.502 0.408 0.251 0.596 0.376 0.314 0.22 0.956 0.564t0.925 0.549 0.815 0.58l0.596 0.408 0.188 0.22q0.157 0.251 0.282 0.314l0.753 0.627q0.125 0.125 0.188 0.157-0.094 0.282-0.235 0.408t-0.423 0.094-0.533 0.157q-0.188 0.125-0.408 0.408-0.282 0.376-0.972 1.003-0.502 0.502-1.411 1.568l-0.564 0.658q-0.314 0.314-0.753 1.097l-0.345 0.627q-0.408 0.627-0.69 0.878-0.157 0.125-0.345 0.439-0.157 0.251-0.282 0.376-1.505 1.599-3.104 3.198-0.22 0.188-0.69 0.439-0.376 0.188-0.549 0.298t-0.486 0.235q-0.439 0.188-0.627 0.345-0.125 0.063-0.376 0.094-0.188 0-0.282 0.031-0.847 0.22-2.383 0.157-0.125-0.031-0.125-0.125 0.063-0.031 0.157-0.031h0.157q0.157-0.094 0.172-0.172t-0.11-0.172-0.267 0.031-0.11 0.345zM19.426 7.806q0.063-0.22 0-0.408-0.063-0.125-0.22-0.376l-0.125-0.188q-0.125-0.157-0.22-0.172t-0.345 0.047q-0.314 0.125-0.486 0.157t-0.251 0.125-0.141 0.282l-0.063 0.157q-0.094 0.282-0.031 0.408l0.125 0.251q0.188 0.408 0.408 0.549t0.423 0.172 0.361-0.094l0.063-0.031q0.314-0.22 0.408-0.345 0.157-0.251 0.094-0.533zM25.635 7.556q0-0.125-0.094-0.157-0.22-0.063-0.251 0.094-0.031 0.063 0 0.11t0.094 0.047q0.22 0 0.251-0.094zM31.436 10.942q0-0.125-0.094-0.141t-0.22 0.11l-0.031 0.031q-0.031 0.094 0.125 0.094h0.063q0.157 0 0.157-0.094zM16.291 6.489q0.094 0 0.094-0.031-0.063-0.094-0.157-0.157l-0.031 0.031q-0.063 0.157 0.094 0.157zM19.27 15.394q-0.063 0-0.063 0.063l0.031 0.125q0.094 0 0.094-0.125zM1.115 26.996q0-0.22 0.157-0.376 0.094-0.094 0.314-0.22 0.784-0.564 1.254-1.035 0.282-0.282 0.721-0.909l0.125-0.157q0.314-0.345 0.47-0.502l0.188-0.188q0.345-0.376 0.439-0.596 0.125-0.314 0.627-0.753 0.22-0.188 0.533-0.658 0.282-0.408 0.47-0.596 0.251-0.282 0.69-0.878 0.533-0.721 0.815-1.035l0.219-0.251q1.317-1.474 1.819-2.289v-0.063q0.345-0.345 0.862-1.129t0.831-1.097q0.188-0.22 0.47-0.753l0.188-0.345q0.345-0.596 1.191-1.662l0.345-0.439q0.564-0.784 1.16-1.286 0.125-0.125 0.314-0.439l0.094 0.031q0.188 0.031 0.251 0.094 0.251 0.251 0.878 0.658 0.439 0.251 0.627 0.392t0.455 0.455 0.408 0.423 0.125 0.172-0.172 0.157l-0.157 0.063q-0.125 0.314-0.564 0.815t-0.596 0.815q-0.251 0.502-0.909 1.348l-0.282 0.345q-0.094 0.125-0.314 0.345l-0.188 0.22-0.376 0.47q-0.878 1.035-1.254 1.568l-0.063 0.063q-0.502 0.721-0.847 0.941l-0.314 0.314-0.502 0.69q-0.753 1.097-1.223 1.536-0.314 0.564-1.066 1.631-0.596 0.815-0.847 1.254-0.157 0.282-0.502 0.831t-0.502 0.831l-0.345 0.596q-0.627 1.066-0.847 1.631-0.094 0.282-0.345 0.753-0.439 0.909-0.502 1.411-0.157 0.157-0.282 0.564-0.063 0.314-0.157 0.439-0.125 0.251-0.22 0.376-0.345 0.282-0.596 0.031-0.345-0.345-1.223-0.847-0.47-0.282-0.69-0.439l-0.157-0.094q-0.251-0.157-0.376-0.282-0.22-0.22-0.721-0.658-0.564-0.439-0.8-0.706t-0.22-0.549 0.267-0.502q0.22-0.282 0.345-0.376 0.22-0.188 0.502-0.157 0.063 0.125 0.094 0.125 0.125 0 0.125-0.031 0.031-0.094-0.094-0.094-0.031-0.031-0.094 0h-0.031zM4.689 29.787q-0.408 0.47-0.408 0.627t0.031 0.188 0.094 0.047 0.094-0.016q0.125-0.031 0.22-0.125t0.125-0.22q0.188-0.314-0.157-0.502zM22.719 5.831h-0.188q-0.251 0-0.329 0.063t-0.047 0.314l0.031 0.063q0.031 0.094-0.047 0.172t-0.235-0.016-0.439-0.22q-0.564-0.282-0.753-0.564-0.251-0.063-0.47-0.282-0.125-0.125-0.345-0.408-0.376-0.47-0.627-0.627-0.157-0.094-0.031-0.22l0.564-0.69q0.251-0.251 0.517-0.22t0.643-0.22l0.063-0.063q0.972-0.627 2.853-1.944l0.031-0.031q0.188-0.125 0.251-0.188 0.125-0.125 0.125-0.314t0.11-0.157 0.188 0.11 0.047 0.157-0.063 0.235-0.094 0.251q-0.251 0.345-0.533 1.129-0.188 0.47-0.282 0.69-0.22 0.408-0.376 0.847l-0.063 0.125q-0.157 0.502-0.188 0.753-0.063 0.439 0.125 0.784v0.063q0 0.314-0.063 0.376t-0.376 0.031z"></path>
</svg>
