<!-- Generated by IcoMoon.io -->
<svg version="1.1" xmlns="http://www.w3.org/2000/svg" width="32" height="32" viewBox="0 0 32 32">
<title>weapons-spear</title>
<path d="M5.010 31.788q-0.128-0.192-0.064-0.352 0-0.096 0.128-0.288l0.032-0.032q0.224-0.384 0.769-1.121 0.352-0.448 0.513-0.673l0.128-0.16q0.705-0.929 1.025-1.409 0.545-0.801 0.817-1.49t1.009-1.778l0.352-0.513q0.352-0.448 0.705-1.538l0.32-0.961q0.192-0.513 0.032-0.993t-0.609-0.769q-0.16-0.096-0.32-0.16-0.32-0.192-0.352-0.352t0.128-0.448q0.288-0.609 0.416-0.737 0.192-0.192 0.416-0.16 0.192 0.064 0.801 0.352 0.769 0.352 1.153 0.705l-0.096 0.16q-0.128 0.128-0.128 0.256t0.128 0.208 0.208 0.064 0.176-0.144l0.064-0.064q0.448-0.545 1.025-1.762 0.288-0.577 0.464-0.881t0.497-0.977l0.256-0.577q0.224-0.416 0.096-0.705-0.064-0.096-0.096-0.336t-0.096-0.336q-0.064-0.16-0.256-0.224-0.577-0.224-1.377-0.064-0.577 0.192-1.057 0.256-0.224 0.032-0.352 0t-0.208-0.16-0.032-0.288 0.176-0.256l0.769-0.769q0.897-0.929 1.377-1.313 0.352-0.256 0.993-0.833l0.448-0.416q0.448-0.384 1.313-1.121 1.057-0.897 1.554-1.377t1.49-1.313 1.442-1.281q1.217-1.217 3.684-2.947 0.416-0.288 1.217-0.993l0.288-0.256q0.16-0.224 0.352-0.32 0.032-0.096 0.112-0.128t0.176 0.032 0.032 0.224q-0.032 0.673-0.352 1.986l-1.025 4.196q-0.513 2.178-0.865 3.235-0.096 0.256-0.24 0.817t-0.272 0.849q-0.224 0.641-0.577 1.954t-0.609 1.954q-0.545 1.345-0.801 3.011-0.032 0.256-0.192 0.801-0.128 0.448-0.16 0.657t-0.128 0.24-0.256-0.128q-0.769-0.705-0.961-1.345-0.128-0.416-0.577-1.121l-0.064-0.128q-0.224-0.513-0.737-0.224l-0.416 0.256q-0.897 0.545-1.393 0.865t-0.657 0.769q-0.096 0.384-0.48 1.089-0.16 0.256-0.112 0.448t0.304 0.384q1.666 1.089 2.499 1.666 0.256 0.192 0.256 0.304t-0.224 0.272q-0.32 0.192-0.737 0.737-0.224 0.288-0.352 0.416-0.224 0.032-0.224-0.096-0.416-1.249-1.73-1.025-0.737 0.128-1.698 0.577-0.769 0.384-1.153 1.057-0.256 0.384-0.769 1.089-0.48 0.577-0.673 0.897l-0.192 0.32q-0.833 1.313-1.217 1.954-0.641 1.121-1.025 2.082-0.096 0.256-0.256 0.416-0.288 0.32-0.529 0.272t-0.497-0.432l-0.128-0.16q0-0.032-0.032-0.032l-0.064-0.032q-0.192 0.096-0.481 0.416-0.16 0.192-0.256 0.256l-0.096 0.096q-0.096 0.096-0.16 0.112t-0.144-0.048-0.064-0.16 0.080-0.256v-0.032q0.16-0.352 0.112-0.545t-0.304-0.384q-0.32-0.288-0.545 0.048t-0.304 0.529-0.208 0.352q-0.096 0.096-0.32 0.256zM17.599 13.882v0 0.705q0 0.128 0.080 0.176t0.208 0.016 0.432-0.176 0.464-0.208q0.609-0.192 0.769-0.833 0.096-0.416 0.48-1.217l0.128-0.256 0.128-0.32q0.256-0.609 0.32-0.929 0.192-0.673 0.513-1.153l0.48-0.801q0.641-1.121 1.057-1.602 0.16-0.096 0.224-0.416 0.128-0.256-0.064-0.384-0.096-0.032-0.176 0.016t-0.112 0.112l-0.352 0.384q-0.865 0.865-1.217 1.377-1.121 1.538-3.107 3.844-0.224 0.288-0.256 0.416-0.096 0.256 0 0.513 0.032 0.192 0 0.513v0.224zM12.859 21.313q0 0.32 0.208 0.561t0.432 0.176q0.577-0.16 0.705-0.609 0.192-0.513-0.192-0.897-0.096-0.096-0.192-0.144t-0.256-0.016q-0.256 0.096-0.48 0.384t-0.224 0.545zM18.56 22.787q0-0.192-0.112-0.192t-0.112 0.16q0 0.064 0.032 0.128t0.096 0.032zM13.755 19.263v-0.032h-0.064q-0.032 0.032-0.032 0.048t0.064 0.016q-0.032-0.032 0.032-0.032z"></path>
</svg>
