<!-- Generated by IcoMoon.io -->
<svg version="1.1" xmlns="http://www.w3.org/2000/svg" width="32" height="32" viewBox="0 0 32 32">
<title>weapons-dagger</title>
<path d="M23.18 7.589q0.558-0.124 1.023-0.558 0.341-0.31 0.744-0.868l0.155-0.186q0.496-0.682 0.806-0.93 0.434-0.372 1.24-1.147 0.992-0.961 1.535-1.395t0.822-1.085q0.124-0.434 0.589-0.434h0.062q0.248 0 0.372-0.031 0.186-0.093 0.248-0.31 0.062-0.124 0.186-0.139t0.155 0.109q0.062 0.217 0.372 0.558 0.186 0.248 0.279 0.403 0.186 0.372 0.217 0.837 0.031 0.31 0 0.868 0 0.341-0.434 0.558-0.496 0.186-0.992 0.589-0.279 0.248-0.806 0.775-0.434 0.465-0.682 0.682-0.062 0.062-0.124 0.279l-0.093 0.186q-0.217 0.372-0.372 0.527-0.248 0.248-0.573 0.279t-0.698 0.558v0q-0.279 0.465-1.085 1.271l-0.341 0.372q-0.434 0.465-0.45 0.744t0.45 0.775l0.279 0.31q0.496 0.496 0.791 0.729t0.279 0.418-0.387 0.372l-0.558 0.31q-0.527 0.341-1.147-0.155l-1.178-1.116q-0.248-0.248-0.434-0.232t-0.434 0.264q-0.093 0.155-0.372 0.434l-0.279 0.341q-0.434 0.527-0.372 1.054t0.62 0.93q0.434 0.31 0.45 0.527t-0.326 0.651q-0.589 0.682-1.984 1.86l-0.961 0.837-0.31 0.279q-1.426 1.333-2.201 1.891-0.31 0.248-0.372 0.403-0.186 0.31-0.496 0.62-0.186 0.186-0.589 0.527l-0.186 0.186q-2.542 2.294-3.782 3.782-0.403 0.496-1.271 1.054l-0.496 0.31q-0.775 0.496-1.209 0.651t-1.178 0.527q-0.62 0.31-0.93 0.434l-0.62 0.248q-2.356 0.992-3.596 1.302-0.403 0.093-1.116 0.434l-0.558 0.217q-0.062 0.062-0.093 0.062-0.248 0.124-0.372 0.155-0.217 0.031-0.326-0.108t-0.046-0.248 0.217-0.264l0.961-0.93q1.736-1.767 2.542-2.697 1.705-1.891 4.371-4.557 0.837-0.837 2.48-2.635l0.558-0.62q0.558-0.589 1.736-1.674 1.488-1.395 2.17-2.17 0.744-0.837 2.294-2.387 0.992-0.992 1.457-1.488 0.961-1.023 1.674-1.519 0.124-0.093 0.372-0.341 0.372-0.465 0.031-0.93-0.186-0.31-0.434-0.62-0.155-0.186-0.186-0.325t0.155-0.31 0.093-0.325-0.403-0.186-0.372-0.155 0.124-0.372q0.031-0.062 0.155-0.217l0.124-0.124q0.155-0.217 0.326-0.232t0.403 0.217 0.791 0.667q0.434 0.341 0.62 0.496 0.341 0.31 0.527 0.62 0.062 0.093 0.186 0.217 0.248 0.124 0.387 0.046t0.015-0.325q-0.124-0.093-0.186-0.186t-0.031-0.217zM27.675 6.566q0-0.155-0.186-0.372l-0.062-0.031q-0.31-0.279-0.636-0.651t-0.666-0.124q-0.341 0.341 0 0.682l0.93 0.837q0.217 0.186 0.419 0.062t0.201-0.403zM22.963 11.247q0-0.031-0.031-0.093l-0.031-0.062q-0.403-0.806-1.209-1.209-0.279-0.217-0.465 0.046t0.201 0.496 0.605 0.418q0.279 0.279 0.434 0.62 0.124 0.186 0.279 0.093 0.248-0.062 0.217-0.31zM10.253 26.282q-0.093 0.093-0.279 0.217-0.093 0.062-0.217 0.201t-0.217 0.171q-0.186 0.062-0.279 0.217t-0.015 0.264 0.139 0.108 0.186-0.093 0.186-0.093q0.434-0.031 0.744-0.589 0.124-0.372-0.248-0.403zM26.249 11.96q-0.186 0.093-0.155 0.31 0.031 0.093 0.108 0.139t0.171 0.015q0.186-0.062 0.124-0.248v0q-0.062-0.217-0.248-0.217z"></path>
</svg>
