<!-- Generated by IcoMoon.io -->
<svg version="1.1" xmlns="http://www.w3.org/2000/svg" width="32" height="32" viewBox="0 0 32 32">
<title>weapons-fangs</title>
<path d="M30.79 6.523q-0.032-0.096-0.096-0.256-0.383-1.054-0.735-1.534-1.917-2.269-4.537-3.291l-0.735-0.224q-0.671-0.224-0.991-0.351-0.543-0.224-0.927-0.511-0.16-0.128-0.479-0.224l-0.256-0.064q-0.415-0.128-0.575-0.016t-0.048 0.559-0.016 0.719-0.543 0.367q-1.342 0.256-2.013 0.288-1.15 0.032-3.419-0.032l-1.342-0.032q-0.767 0-1.15-0.032-0.607-0.064-1.118-0.224-0.351-0.096-0.527-0.288t-0.176-0.543-0.224-0.479-0.607 0q-0.224 0.032-0.639 0.192l-0.16 0.064q-0.479 0.16-1.374 0.639-0.799 0.447-1.214 0.607-1.214 0.415-1.789 0.927-0.863 0.703-1.662 1.789-0.447 0.639-1.278 2.045-0.575 0.927-0.863 1.374-0.192 0.256-0.096 0.495t0.511 0.144q0.288-0.064 0.383 0.032t0.096 0.351q0 4.058 1.118 7.413 0.511 1.662 0.959 2.716 0.607 1.438 1.374 2.524 0.32 0.511 0.639 0.703 0.128 0.096 0.272 0.112t0.288-0.064 0.144-0.192-0.064-0.272l-0.032-0.064q-0.128-0.543-0.128-1.246v-0.479q0.064-1.949 0.224-2.972l0.128-0.703q0.543-2.844 0.959-4.25 0.128-0.415 0.447-1.246 0.351-0.959 0.511-1.438 0.256-0.831 0.288-1.534 0.032-0.383 0.032-1.118 0-0.479 0.415-0.511 0.192-0.032 0.256 0.064t0.096 0.288l0.032 0.096q0.256 0.863 0.192 1.821-0.032 0.831 0.288 1.757 0.192 0.575 0.735 1.662 0.256 0.543 0.767 0.447 0.224-0.032 0.32-0.192 0.064-0.096 0.128-0.351l0.16-0.767q0.192-0.799 0.288-1.182 0.192-0.639 0.479-1.118 0.064-0.128 0.128-0.463t0.128-0.463q0.096-0.224 0.336-0.224t0.367 0.192q0.096 0.096 0.192 0.399t0.16 0.431l0.064 0.096q0.096 0.224 0.192 0.32 0.16 0.16 0.383 0.144t0.431-0.16 0.32-0.351 0.24-0.655v-0.032q0.096-0.288 0.192-0.415 0.128-0.192 0.352-0.16t0.288 0.224q0.064 0.096 0.096 0.383v0.096q0.032 0.16 0 0.511v0.767q0 1.086 0.032 1.646t0.304 0.767 0.879 0.208q0.383 0 0.671-0.256 0.16-0.16 0.383-0.543 0.288-0.479 0.895-1.342 1.054-1.566 1.438-2.428 0.16-0.32 0.367-0.415t0.399 0.256q0.352 0.607 0.511 1.054 0.192 0.607 0.224 1.198t0.064 1.837 0.064 1.885q0.032 0.991-0.032 2.205l-0.192 2.205q-0.192 1.63-0.224 2.428l-0.032 0.256q-0.064 0.32-0.032 0.447 0 0.192 0.192 0.32 0.256 0.16 0.511 0.064 0.16-0.032 0.447-0.256l0.096-0.096q0.192-0.128 0.447-0.511 0.479-0.639 1.134-2.077t1.134-2.125 0.927-1.678q0.32-0.671 0.735-1.821l0.032-0.128q0.096-0.256 0.288-1.054l0.224-0.991q0.256-0.991 0.256-2.62 0-0.479 0.192-0.719t0.671-0.208q0.256 0 0.383-0.128t0.032-0.415zM26.924 15.79q-0.032 0.032-0.128 0.048l-0.096 0.016q-0.064-0.192-0.064-0.288 0.032-0.288 0.192-0.607 0.096-0.192 0.304-0.527t0.304-0.495q0.032-0.064 0.096-0.096t0.112 0.016 0.080 0.112l0.064 0.128q-0.447 0.927-0.863 1.694zM28.809 11.284l-0.256 0.799q-0.032 0.096-0.096 0.32-0.096 0.351-0.256 0.511l-0.064 0.096q-0.064 0.096-0.128 0.128t-0.16 0q-0.192-0.096-0.064-0.383l0.415-1.246q0.096-0.415 0.479-0.383h0.064q0.064 0.064 0.064 0.128v0.032zM28.905 25.696q0-0.032-0.032-0.128l-0.032-0.096-0.096-0.192q-0.575-1.182-0.831-1.789-0.383-1.023-0.479-1.917 0-0.096-0.064-0.224-0.096-0.224-0.352-0.224-0.192 0.032-0.192 0.288-0.064 0.959-0.383 2.013-0.256 0.767-0.735 1.917-0.32 0.703-0.623 0.975t-0.831 0.272-0.847-0.272-0.543-0.975q-0.352-1.118-0.927-3.323l-0.352-1.406q-0.32-1.47-0.575-2.173-0.383-1.214-0.959-2.077-0.064-0.064-0.128-0.24t-0.128-0.256-0.224-0.048-0.208 0.16-0.016 0.383v0.16q0 0.447 0.048 1.358t0.048 1.39q-0.032 0.703-0.096 2.077-0.096 1.502-0.128 2.237-0.032 1.246 0.064 2.237 0.128 0.543-0.32 0.639-0.192 0.032-0.272-0.064t-0.112-0.32l-0.032-0.16q-0.096-0.415-0.192-1.214l-0.096-0.671q-0.032-0.256-0.096-0.383t-0.288-0.16-0.352 0.16q-0.064 0.096-0.128 0.383-0.096 0.415-0.352 0.607t-0.703 0.256q-0.383 0.064-0.639-0.128-0.16-0.16-0.351-0.511l-0.032-0.064q-0.128-0.256-0.224-0.352-0.16-0.16-0.399-0.16t-0.399 0.16q-0.096 0.128-0.224 0.415l-0.032 0.032q-0.128 0.256-0.336 0.815t-0.336 0.815q-0.224 0.511-0.671 0.479-0.224-0.032-0.351-0.176t-0.224-0.399q-0.351-1.278-0.288-3.195v-0.479q0.032-1.182 0.032-1.789 0-0.991-0.128-1.789-0.16-0.895 0.064-1.694l0.032-0.064q0.096-0.352 0.096-0.511 0-0.32-0.224-0.383t-0.383 0.064q-0.096 0.064-0.24 0.288t-0.208 0.288-0.064 0.128q-0.351 0.863-1.15 2.588-0.799 1.757-1.15 2.684-0.607 1.502-0.831 2.812-0.096 0.639-0.527 1.278t-0.863 0.639-0.815-0.639q-0.32-0.511-0.607-1.662l-0.16-0.575q-0.064-0.224-0.128-0.671-0.128-0.639-0.224-0.959-0.192-0.479-0.543-0.783t-0.527-0.272-0.399 0.447q-0.288 0.543-0.671 1.726-0.256 0.895-0.447 1.31-0.288 0.799-0.064 1.566 0.128 0.479 0.671 1.31 0.256 0.447 0.671 0.863 0.256 0.256 0.831 0.703 0.703 0.575 1.023 0.895 0.959 1.054 1.949 1.662 0.383 0.256 0.687 0.24t0.687-0.304q0.671-0.639 1.214-0.991 0.703-0.479 1.374-0.671 1.502-0.447 2.684-0.639 1.438-0.224 2.78-0.128t2.237 0.511q1.054 0.479 1.757 1.502 0.352 0.575 0.591 0.751t0.495 0.096 0.831-0.431q0.383-0.256 1.214-0.575 0.671-0.256 0.991-0.415 2.013-1.182 4.026-2.812 0.607-0.479 0.927-1.246 0.096-0.192 0.048-0.288t-0.256-0.24-0.24-0.272zM6.441 27.389q-0.096 0.032-0.16-0.016t-0.048-0.096 0.080-0.096 0.096-0.048 0.128 0.032l0.16 0.096z"></path>
</svg>
