<!-- Generated by IcoMoon.io -->
<svg version="1.1" xmlns="http://www.w3.org/2000/svg" width="32" height="32" viewBox="0 0 32 32">
<title>weapons-club</title>
<path d="M2.735 29.269q0.128-0.096 0.352-0.16l0.16-0.032q0.704-0.224 0.961-0.672 0.416-0.768 1.089-1.217 0.897-0.64 1.569-1.665 1.025-1.601 1.825-3.010l0.032-0.064q1.441-2.529 2.273-3.682 0.416-0.512 1.089-1.633l0.384-0.64q0.16-0.288 0.544-0.832 0.704-1.089 0.929-1.697 0.288-0.704 1.121-1.953 0.768-1.153 1.057-1.793 0-0.128 0.128-0.192 0.608-0.576 0.544-1.313-0.064-0.512-0.512-1.313l-0.224-0.448q-0.128-0.288-0.016-0.512t0.4-0.288l2.081-0.544q0.48-0.16 0.72-0.656t0.144-1.041q-0.288-1.313-0.64-2.337-0.096-0.32 0.032-0.464t0.48-0.080l1.889 0.416q0.608 0.16 0.913-0.208t0.816-0.528q0.288-0.128 0.929-0.192l0.128-0.032q1.921-0.448 2.978-0.48 0.384-0.032 1.025 0.256l0.288 0.128q0.128 0.064 0.192 0.32l0.096 0.384q0.224 0.865 0.192 1.345-0.032 0.32 0.048 0.528t0.336 0.304q0.384 0.224-0.064 0.448-0.672 0.384-0.832 0.816t0.096 1.169q0.128 0.352 0.16 0.832 0.032 0.288 0.032 0.865v0.224q0.032 0.224-0.128 0.32-0.096 0.064-0.384 0.128l-0.192 0.032q-0.288 0.064-0.864 0.032-0.768-0.032-1.153 0.128-0.576 0.192-0.929 0.816t-0.176 1.169 0.112 1.473q0 0.48-0.512 0.48h-0.768q-1.089-0.032-1.889 0.864-0.448 0.512-1.313 1.505-1.313 1.537-2.017 2.273l-0.576 0.608q-1.921 2.017-2.818 3.074-0.576 0.704-1.761 2.081l-0.961 1.121q-0.512 0.576-0.704 0.897-0.32 0.576-1.185 1.553t-1.185 1.521q-0.961 1.569-1.825 2.69-0.128 0.16-0.304 0.56t-0.304 0.592q-0.224 0.32-0.32 0.4t-0.208 0.048-0.432-0.224q-0.192-0.096-0.32-0.128t-0.32 0.032q-0.416 0.192-0.848 0t-0.624-0.64q-0.448-1.217-0.832-1.761zM20.474 10.122q0.192-0.064 0.608-0.064l0.288-0.032q0.544-0.064 0.752-0.368t0.048-0.816l-0.064-0.256q-0.128-0.416-0.096-0.608 0.032-0.512-0.512-0.448-0.864 0.192-1.633 0.672-0.256 0.128-0.176 0.352t0.144 0.608q0.032 0.352 0.064 0.512 0.16 0.48 0.576 0.448zM25.661 4.39q0-0.16-0.032-0.448l-0.032-0.416q-0.16-0.832-0.832-0.672-0.608 0.096-1.377 0.576-0.128 0.032-0.176 0.224t0.192 0.8 0.4 0.736q0.096 0.096 0.288 0.064h0.128q0.224-0.032 0.704-0.192 0.288-0.128 0.416-0.16 0.384-0.128 0.32-0.512z"></path>
</svg>
