<!-- Generated by IcoMoon.io -->
<svg version="1.1" xmlns="http://www.w3.org/2000/svg" width="1024" height="1024" viewBox="0 0 1024 1024">
<title>weapons-bident</title>
<path fill="#000" d="M583.944 3.828c-7.515 5.084-7.515 5.084-9.062 26.965-0.663 12.156-0.663 41.995 0.221 66.309s1.768 94.6 2.21 156.267l0.442 112.282 5.304 11.494c3.094 6.409 5.526 14.809 5.526 18.345 0 3.758 1.989 10.388 4.42 15.030 2.431 4.42 4.42 9.725 4.42 11.715 0 3.315 7.515 19.672 19.229 41.774 16.577 31.165 16.577 32.712 4.642 47.742-5.526 6.852-8.399 8.62-14.146 8.62-3.979 0-8.178-1.326-9.062-3.094s-5.747-5.968-10.61-9.062c-7.957-5.526-9.283-5.747-16.577-3.315-4.863 1.768-29.839 3.315-67.414 4.199-56.804 1.548-67.414 2.653-67.414 7.073 0 0.884-3.758 2.873-8.399 4.42-11.494 3.315-20.334-1.326-28.291-14.809-5.084-8.841-5.526-11.051-3.537-17.019 1.326-3.979 4.199-12.156 6.189-18.124 1.989-6.189 5.526-13.041 7.736-15.693 2.873-2.873 4.199-7.957 4.199-14.366 0-5.304 1.989-13.925 4.42-19.229s5.304-17.24 6.409-26.524c1.326-9.283 3.979-21.44 6.189-26.965 3.758-9.283 3.979-20.998 3.979-171.297 0-149.415-0.221-161.792-3.758-168.423-2.21-3.979-3.979-9.505-3.979-12.377 0-7.294-6.409-12.599-13.704-11.051-8.178 1.548-9.283 3.537-13.704 21.661-2.653 11.051-4.199 31.828-5.526 70.729-1.326 44.869-2.431 56.804-5.526 64.098-2.431 5.304-4.642 18.788-5.747 33.154-0.884 13.261-3.537 28.734-5.526 34.259s-4.42 20.334-5.526 33.154c-0.884 12.82-3.537 26.965-5.526 31.828-1.989 4.642-4.42 17.462-5.304 28.734-0.884 11.051-3.315 22.987-5.084 26.745-1.989 3.537-4.199 11.494-5.084 17.683-0.884 5.968-3.315 14.146-5.747 17.903-2.21 3.758-4.199 8.399-4.199 9.946 0 1.768-2.431 7.957-5.526 14.146-2.873 5.968-5.526 13.483-5.526 16.356 0 4.863-10.61 25.86-16.577 33.375-1.548 1.768-3.537 6.852-4.42 11.051s-3.979 12.156-6.852 17.683c-2.873 5.526-5.304 11.715-5.304 14.146 0 2.21-1.989 7.515-4.642 11.715-6.189 10.167-4.863 19.008 8.399 55.92 3.758 10.61 4.199 19.451 1.768 35.364-0.884 6.631-0.221 14.366 1.989 23.208 1.989 7.073 3.537 15.914 3.537 19.451 0 7.736 12.377 23.65 18.124 23.65 2.431 0 8.399 2.431 13.483 5.304s12.599 5.968 16.356 6.852c3.979 0.884 7.736 2.21 8.399 3.315s4.42 0.884 8.399-0.442c3.758-1.105 10.831-3.094 15.251-4.199s12.599-5.084 18.345-9.062c27.85-19.893 30.944-21.661 39.122-21.661 4.42 0 8.841 1.105 9.505 2.431 3.315 5.084 1.989 17.462-2.431 22.103-3.758 4.199-4.42 9.505-5.747 53.71-0.884 33.597-2.431 52.605-4.863 60.783-1.989 6.631-3.979 25.419-4.863 41.995-0.663 16.577-3.315 41.554-5.968 55.478-3.094 17.683-4.642 37.353-5.304 65.203-0.663 30.502-1.548 40.449-3.979 42.879-2.653 2.653-2.431 4.199 1.326 11.715 2.431 4.642 7.515 10.61 11.494 13.041 6.631 4.199 9.725 4.42 60.119 3.315 52.162-0.884 69.624-3.094 83.106-10.167 2.873-1.548 5.526-3.094 5.968-3.315 0.221-0.221 1.548-8.62 2.653-18.788 2.653-22.987-0.663-88.853-5.526-108.525-1.989-7.957-4.42-32.933-5.747-58.13-1.105-24.755-3.537-50.395-5.526-58.573-1.989-7.957-4.199-28.955-5.084-46.637-1.105-17.683-2.873-34.481-4.42-37.132-3.094-5.747 0.442-23.429 5.968-29.839 6.189-7.073 16.798-4.863 28.955 6.189 13.261 11.494 19.229 13.041 48.406 11.715 18.567-0.884 22.545-1.768 30.28-6.852 18.345-11.936 27.408-20.556 30.060-28.070 1.326-4.199 3.537-9.062 4.863-10.61 1.105-1.548 2.873-10.167 3.758-19.229 1.548-16.577 2.873-19.672 18.567-41.995 3.979-5.747 4.642-9.725 4.42-30.944 0-20.556-0.884-25.64-4.863-33.154-2.653-4.863-4.863-10.388-4.863-12.377s-2.431-7.294-5.526-11.715c-3.094-4.42-5.526-9.283-5.526-10.61 0-1.105-2.431-5.084-5.526-8.841-3.094-3.537-5.526-7.957-5.526-9.725 0-3.537-12.82-30.060-15.251-31.828-2.873-1.989-14.809-20.556-20.556-32.049-3.315-6.409-6.409-17.24-7.294-25.419-0.884-7.957-3.315-18.345-5.526-23.208-2.21-5.084-4.42-17.24-5.084-28.734-0.663-11.051-2.873-24.313-4.863-29.839s-4.42-20.334-5.526-33.154c-1.105-12.82-3.979-29.618-6.409-37.132-2.653-8.178-4.642-19.893-4.642-27.85s-1.768-19.229-4.199-26.302c-2.431-6.631-4.863-21.44-5.747-32.933-0.884-11.272-3.315-26.524-5.526-33.817-2.653-8.62-4.642-23.65-5.304-42.438-0.663-15.914-1.768-30.502-2.431-32.049-0.663-1.768-3.979-4.863-7.515-6.852-5.968-3.537-6.631-3.537-13.704 1.326zM371.757 618.727c7.957 3.979 12.377 15.030 7.736 19.008-4.863 3.979-20.998 0.884-25.64-4.642-10.61-13.041 1.768-22.766 17.903-14.366zM664.619 619.39c3.315 3.979 3.315 4.42-0.663 7.957-7.736 7.073-20.113-0.663-13.704-8.399 3.979-4.642 9.725-4.42 14.366 0.442z"></path>
</svg>
