<!-- Generated by IcoMoon.io -->
<svg version="1.1" xmlns="http://www.w3.org/2000/svg" width="32" height="32" viewBox="0 0 32 32">
<title>weapons-scythe</title>
<path d="M16.832 0.016h0.544q0.48-0.032 0.736 0 0.384 0.064 0.704 0.224 0.096 0.064 0.416-0.032 0.192-0.096 0.288-0.096 1.535-0.128 3.711 0.512 0.8 0.256 2.367 0.704l1.184 0.352h0.128q0.32 0.032 0.384 0.192 0.128 0.416 0.48 0.736 0.224 0.192 0.704 0.512 0.32 0.224 0.48 0.352 0.544 0.416 0.736 0.656t0.192 0.528-0.192 0.928q-0.32 1.088-0.512 1.631-0.352 0.896-0.8 1.503-0.288 0.416-0.544 0.416t-0.352-0.112-0.16-0.368q-0.608-1.695-1.503-2.847-1.152-1.599-3.199-2.463-0.48-0.224-1.152 0.096t-1.12 0.96q-0.096 0.096-0.192 0.352t-0.176 0.368-0.224 0.144-0.496-0.288q-0.224-0.192-0.352-0.256l-0.192-0.096q-0.448-0.256-0.672-0.256-0.384-0.032-0.768 0.352-0.128 0.096-0.512 0.064-0.224 0-0.704-0.128l-0.16-0.032q-3.039-0.608-6.398 0-0.384 0.064-1.2 0.16t-1.2 0.16q-0.672 0.128-1.2 0.352t-1.519 0.832q-0.864 0.512-1.312 0.736l-0.16 0.096q-0.192 0.16-0.32 0.176t-0.224-0.176l-0.096-0.16q-0.16-0.288-0.16-0.448 0-0.256 0.32-0.512 1.983-1.44 3.583-2.399 1.983-1.216 3.855-2.015t4.814-1.184l0.512-0.064q1.088-0.192 1.631-0.16zM19.263 2.032l-0.032-0.032h-0.064v0.032q0 0.064 0.032 0.128 0-0.064 0.064-0.128zM26.684 9.037q0 0.096-0.032 0.224 0 0.256-0.064 0.352-0.736 1.28-2.015 3.903-0.864 1.791-1.312 2.671t-1.12 0.88q-1.28 0-2.271 0.736-0.8 0.608-1.535 1.791-2.207 3.551-1.695 7.422 0 0.256 0.096 0.448 0.16 0.512 0 0.912t-0.672 0.592q-0.64 0.224-1.376 0.672-0.416 0.256-1.28 0.832-1.152 0.8-1.791 1.12-0.096 0.032-0.272 0.192t-0.304 0.192q-0.16 0.064-0.288-0.032-0.224-0.224 0.256-0.928 0.672-0.8 1.024-1.983 0.224-0.704 0.48-2.175 0.224-1.216 0.384-1.791 0.512-1.695 0.96-2.879 0.576-1.503 1.248-2.687 1.983-3.359 4.83-4.415 1.024-0.384 1.727-1.216 0.576-0.64 1.056-1.791 1.28-2.975 1.919-5.214 0.128-0.448 0.336-0.496t0.464 0.24q0.416 0.416 0.736 1.088 0.192 0.384 0.448 1.184z"></path>
</svg>
