<!-- Generated by IcoMoon.io -->
<svg version="1.1" xmlns="http://www.w3.org/2000/svg" width="33" height="32" viewBox="0 0 33 32">
<title>bladeborn-elathain</title>
<path fill="#fff" d="M14.996 1.164c0 0.957-0.026 1.913 0 2.87 0.019 0.429-0.045 0.648-0.523 0.753-0.903 0.213-1.665 0.454-2.403 0.742l0.121-0.042c-2.3 0.91-4.163 2.513-5.377 4.549l-0.027 0.050c-0.93 1.48-1.303 3.077-1.506 4.787-0.2 1.585 0.109 3.073 0.497 4.546 0.457 1.48 1.221 2.751 2.221 3.792l-0.003-0.003c1.475 1.691 3.433 2.926 5.658 3.493l0.077 0.017c0.441 0.113 1.066 0.143 1.254 0.437 0.23 0.377 0.113 0.964 0.12 1.461 0 1.017 0 2.034 0 3.050-0.017 0.127-0.046 0.241-0.086 0.35l0.004-0.011c-0.093-0.087-0.173-0.186-0.238-0.295l-0.003-0.006c-0.32-0.727-0.595-1.48-0.96-2.184-0.163-0.284-0.417-0.5-0.721-0.611l-0.009-0.003c-1.565-0.535-2.896-1.132-4.161-1.833l0.131 0.067c-0.209-0.153-0.394-0.312-0.564-0.485l-0.001-0.001c-0.429-0.328-0.832-0.697-1.465-0.433-0.31 0.095-0.678 0.17-1.056 0.212l-0.028 0.003c-0.753 0.169-0.753 0.173-0.569-0.61 0.070-0.312 0.152-0.578 0.251-0.834l-0.014 0.040c0.067-0.168 0.105-0.363 0.105-0.567 0-0.369-0.126-0.708-0.337-0.977l0.003 0.003c-0.968-1.604-1.883-3.254-2.090-5.182 0-0.009 0-0.019 0-0.029 0-0.728-0.517-1.336-1.203-1.476l-0.010-0.002c-0.735-0.229-1.359-0.485-1.955-0.786l0.072 0.033c-0.215-0.094-0.282-0.218 0-0.339 0.44-0.236 0.969-0.472 1.516-0.672l0.089-0.028c0.968-0.26 1.329-0.893 1.506-1.819 0.287-1.898 1.053-3.578 2.17-4.965l-0.015 0.020c0.667-0.798 0.335-1.563 0.252-2.365 0-0.177-0.132-0.35-0.147-0.527-0.038-0.377 0.034-0.648 0.501-0.35 0.094 0.064 0.241 0.045 0.354 0.094 0.3 0.152 0.654 0.241 1.028 0.241 0.589 0 1.126-0.22 1.535-0.582l-0.002 0.002c1.129-0.864 2.479-1.499 3.949-1.811l0.065-0.012c0.441-0.051 0.791-0.386 0.865-0.815l0.001-0.006c0.219-0.683 0.475-1.269 0.78-1.823l-0.027 0.053c0.034-0.079 0.128-0.132 0.196-0.196 0.028 0.058 0.055 0.126 0.077 0.197l0.002 0.010c0.053 0.264 0.094 0.531 0.143 0.798z"></path>
<path fill="#fff" d="M17.779 29.45c0-0.629 0.026-1.258 0-1.883-0.004-0.026-0.006-0.056-0.006-0.087 0-0.329 0.259-0.598 0.585-0.613h0.001c1.516-0.244 2.87-0.793 4.047-1.586l-0.036 0.023c0.667-0.475 1.224-1.107 1.883-1.597 1.13-0.821 1.717-2.026 2.297-3.19 0.493-0.971 0.842-2.099 0.986-3.292l0.005-0.049c0.052-0.399 0.081-0.86 0.081-1.329 0-1.562-0.328-3.047-0.918-4.39l0.027 0.070c-1.044-2.345-2.759-4.235-4.899-5.468l-0.057-0.030c-1.020-0.59-2.208-1.029-3.472-1.249l-0.064-0.009c-0.279-0.053-0.471-0.079-0.467-0.422 0-1.382 0-2.76 0-4.143 0.017-0.079 0.047-0.148 0.088-0.209l-0.001 0.002c0.068 0.060 0.162 0.105 0.2 0.181 0.258 0.476 0.502 1.039 0.7 1.623l0.023 0.079c0.141 0.549 0.59 0.964 1.148 1.053l0.008 0.001c1.376 0.38 2.581 0.924 3.676 1.625l-0.053-0.032c0.23 0.13 0.428 0.269 0.613 0.423l-0.006-0.005c0.346 0.378 0.841 0.615 1.392 0.615 0.296 0 0.577-0.068 0.826-0.19l-0.011 0.005c0.276-0.108 0.623-0.216 0.978-0.304l0.061-0.013c-0.034 0.377-0.056 0.772-0.109 1.156-0.040 0.164-0.095 0.309-0.167 0.443l0.005-0.010c-0.084 0.179-0.133 0.388-0.133 0.608 0 0.382 0.146 0.729 0.386 0.989l-0.001-0.001c1.114 1.496 1.888 3.309 2.173 5.281l0.007 0.063c0.046 0.544 0.397 0.995 0.879 1.187l0.009 0.003c0.731 0.313 1.457 0.64 2.188 0.957 0.079 0.025 0.171 0.044 0.266 0.052h0.005c-0.077 0.050-0.168 0.103-0.262 0.15l-0.017 0.008c-0.731 0.309-1.457 0.629-2.196 0.915-0.454 0.139-0.789 0.529-0.847 1.003l-0.001 0.006c-0.274 2.102-1.037 3.986-2.169 5.59l0.026-0.039c-0.674 0.987-0.527 1.8-0.282 2.749 0.045 0.169 0.068 0.343 0.098 0.516-0.196 0-0.377-0.019-0.584-0.041-0.136-0.005-0.265-0.032-0.385-0.078l0.008 0.003c-0.938-0.456-1.691-0.294-2.508 0.41-1.006 0.862-2.301 1.299-3.563 1.646-0.914 0.216-1.611 0.951-1.768 1.869l-0.002 0.014c0 0.056 0 0.136 0 0.185-0.185 0.313-0.377 0.618-0.572 0.926-0.041-0.313-0.098-0.621-0.113-0.934-0.026-0.426-0.011-0.832-0.008-1.239z"></path>
<path fill="#fff" d="M16.314 23.353c-1.627 0.377-3.126-0.298-4.561-1.021-0.556-0.359-1.001-0.845-1.301-1.418l-0.010-0.021c-0.279-0.456 0.064-0.953 0.377-1.311 0.719-0.865 1.641-1.538 2.693-1.95l0.045-0.016c1.021-0.35 2.086-0.471 3.103-0.776 1.171-0.35 2.365-0.667 3.363-1.465 0.351-0.23 0.58-0.621 0.58-1.066 0-0.036-0.001-0.071-0.004-0.106v0.005c-0.020-0.522-0.379-0.955-0.862-1.086l-0.008-0.002c-1.292-0.395-2.636-0.753-3.981-0.618-1.058 0.109-2.135 0.271-3.054 0.908-0.61 0.422-0.636 0.795 0 1.13 0.497 0.276 1.075 0.484 1.688 0.59l0.033 0.005c0.359 0.030 0.777 0.048 1.199 0.048 0.306 0 0.609-0.009 0.91-0.027l-0.041 0.002c0.377 0 0.682-0.098 0.697-0.557 0.003-0.023 0.004-0.050 0.004-0.077 0-0.371-0.286-0.674-0.65-0.702h-0.002c-0.455 0.010-0.892 0.066-1.313 0.163l0.043-0.008c-0.113-0.004-0.22-0.026-0.32-0.063l0.007 0.002c0.041-0.109 0.053-0.26 0.132-0.32 0.383-0.328 0.885-0.527 1.433-0.527 0.729 0 1.376 0.353 1.779 0.898l0.004 0.006c0.41 0.557 0.113 1.634-0.52 2.056-0.628 0.411-1.396 0.655-2.222 0.655-0.283 0-0.558-0.029-0.825-0.083l0.026 0.005c-0.938-0.182-1.767-0.442-2.552-0.783l0.078 0.030c-0.746-0.265-1.351-0.772-1.735-1.423l-0.008-0.015c-0.226-0.414-0.271-0.753 0.090-1.055 0.477-0.453 1.021-0.843 1.614-1.152l0.040-0.019c1.247-0.505 1.096-0.429 0.889-1.759 0-0.056-0.083-0.109-0.083-0.162 0-0.177 0.023-0.354 0.034-0.531 0.094 0.117 0.181 0.241 0.279 0.35 0.27 0.326 0.545 0.619 0.836 0.896l0.004 0.004c0.162 0.163 0.386 0.263 0.633 0.263 0.428 0 0.785-0.301 0.872-0.702l0.001-0.006c0.147-0.437 0.23-0.893 0.346-1.337 0.056-0.239 0.122-0.442 0.202-0.639l-0.010 0.028c0.026-0.068 0.124-0.105 0.192-0.154 0.044 0.064 0.083 0.137 0.114 0.215l0.003 0.008c0.072 0.328 0.143 0.659 0.196 0.994 0.143 0.881 0.584 1.506 1.096 1.555s1.273-0.542 1.597-1.247c0-0.026 0-0.075 0-0.090 0.083-0.083 0.169-0.158 0.256-0.233 0.027 0.096 0.043 0.207 0.043 0.321 0 0.020 0 0.039-0.001 0.059v-0.003c-0.071 0.447-0.165 0.838-0.287 1.216l0.016-0.057c-0.169 0.467 0 0.663 0.433 0.821 0.805 0.249 1.488 0.693 2.019 1.277l0.003 0.004c0.587 0.689 0.561 1.066 0.064 1.819-1.149 1.71-2.919 2.297-4.783 2.655-1.465 0.284-2.76 0.696-3.986 1.237l0.118-0.047c-0.418 0.232-0.761 0.554-1.010 0.942l-0.007 0.011c-0.086 0.159-0.137 0.349-0.137 0.55 0 0.461 0.267 0.86 0.654 1.051l0.007 0.003c1.034 0.504 2.25 0.798 3.535 0.798 1.318 0 2.564-0.31 3.668-0.861l-0.048 0.022c0.636-0.294 0.716-0.866 0.117-1.164-0.579-0.293-1.252-0.514-1.96-0.627l-0.040-0.005c-0.648-0.098-1.341-0.377-1.985 0-0.257 0.192-0.481 0.407-0.676 0.645l-0.005 0.007c0.233 0.226 0.448 0.614 0.704 0.644 0.482-0.006 0.946-0.077 1.385-0.205l-0.037 0.009c0.049-0.004 0.106-0.006 0.164-0.006s0.115 0.002 0.171 0.006h-0.008c-0.039 0.122-0.088 0.228-0.15 0.326l0.003-0.006c-0.182 0.287-0.498 0.476-0.859 0.476-0.034 0-0.069-0.002-0.102-0.005h0.004c-0.14-0.010-0.304-0.016-0.469-0.016s-0.329 0.006-0.491 0.017l0.022-0.001c-0.735-0.014-1.359-0.473-1.615-1.118l-0.004-0.012c-0.12-0.459 0.328-1.344 0.885-1.623 1.265-0.625 2.568-0.866 3.939-0.316 0.377 0.158 0.862 0.169 1.235 0.377 0.645 0.309 1.201 0.671 1.703 1.094l-0.012-0.010c0.708 0.636 0.61 1.42-0.177 1.962-1.623 1.066-3.378 1.755-5.472 1.446z"></path>
</svg>
