<!-- Generated by IcoMoon.io -->
<svg version="1.1" xmlns="http://www.w3.org/2000/svg" width="1024" height="1024" viewBox="0 0 1024 1024">
<title></title>
<g id="icomoon-ignore">
</g>
<path fill="#FFF" d="M510.574 13.407c-4.615 9.175-21.253 36.618-36.973 60.981l-28.582 44.3 7.015 44.225c9.647 60.825 10.602 319.191 1.209 327-8.655 7.196-22.802-3.846-22.802-17.797 0-5.51-4.848-22.718-10.772-38.241s-14.509-43.050-19.078-61.169c-4.568-18.12-18.96-57.486-31.98-87.482-26.045-60.004-25.346-49.15-10.104-156.922 6.571-46.456 0.475-47.108-39.452-4.217-52.435 56.33-56.787 66.517-57.239 134.023l-0.376 56.334 26.611 52.93c24.189 48.109 32.037 75.272 36.595 126.656 0.793 8.943-1.883 13.879-8.214 15.149-5.165 1.034-9.389-0.842-9.389-4.172 0-10.171-21.559-54.098-47.4-96.58-25.566-42.032-37.575-95.004-38.329-169.091-0.248-24.177-9.601-62.246-17.15-69.793-4.65-4.65-30.303 31.88-34.366 48.94-2.030 8.517-7.345 19.692-11.808 24.83-15.387 17.713-5.842 105.334 14.734 135.239 9.239 13.429 20.099 35.389 24.137 48.803 4.036 13.412 13.578 32.568 21.204 42.565 16.686 21.878 17.182 27.473 3.105 35.006-13.564 7.257-9.62 46.409 5.941 58.999 6.691 5.412 8.907 11.989 6.768 20.081-2.748 10.398 0.733 13.854 25.602 25.432 37.066 17.254 47.561 17.345 47.561 0.407 0-16.355 9.387-22.766 17.794-12.154 12.184 15.382 73.663 21.521 87.291 8.717 14.609-13.723 49.659-12.623 56.665 1.78 2.513 5.163 6.641 13.613 9.176 18.777 8.017 16.331 88.67 13.698 91.033-2.972 3.234-22.81 44.012-30.131 59.727-10.724 8.967 11.075 10.971 11.366 33.050 4.812 32.148-9.545 36.917-14.6 36.917-39.112 0-24.673 15.92-27.854 21.446-4.286 3.834 16.356 21.86 20.28 34.607 7.533 6.041-6.041 7.994-13.531 5.803-22.259-1.816-7.234-0.973-15.96 1.874-19.389 6.962-8.391 21.937-52.027 22.035-64.214 0.041-5.376 11.545-21.87 25.563-36.653 42.639-44.968 74.566-148.313 60.013-194.255-25.986-82.031-44.725-98.067-49.464-42.326-4.731 55.644-20.697 131.278-30.862 146.201-5.025 7.377-14.592 24.277-21.262 37.555-19.275 38.382-55.72 91.064-63.046 91.139-11.373 0.116-7.517-15.522 12.073-48.944 10.326-17.622 18.777-33.37 18.777-34.996 0-1.628 5.749-14.404 12.775-28.394 18.477-36.783 25.341-98.933 17.32-156.798l-6.451-46.547-42.666-44.66c-58.398-61.125-59.705-59.249-45.533 65.326 11.792 103.632 6.305 174.605-16.211 209.692-24.595 38.328-42.583 76.076-42.609 89.414-0.018 10.274-2.892 12.073-19.302 12.073h-19.282l2.649-76.454c1.456-42.049 5.229-111.46 8.386-154.247 13.096-177.546 16.28-156.060-34.703-234.103-22.413-34.309-29.417-37.102-40.049-15.964zM709.426 622.941c-7.377 5.772-21.863 11.855-32.191 13.519-10.326 1.662-25.384 4.063-33.46 5.333-9.952 1.566-17.903-1.146-24.675-8.415-12.118-13.006-25.522-9.142-29.986 8.644-6.822 27.183-126.484 23.652-126.484-3.73 0-14.759-13.003-17.756-36.407-8.393-19.868 7.951-27.548 7.501-76.589-4.468-9.233-2.254-16.047-0.574-20.774 5.124-8.338 10.045-43.575 11.404-52.937 2.041-16.446-16.446-19.355 5.53-4.694 35.472 15.806 32.278 18.839 67.864 6.647 77.983-19.004 15.771-10.247 67.312 18.234 107.308 14.703 20.649 24.499 20.728 35.072 0.281 15.916-30.777 45.49-6.2 48.417 40.239 4.891 77.608 50.838 172.162 50.838 104.62 0-17.455 5.19-22.835 15.737-16.317 4.561 2.818 5.952 9.309 3.819 17.809-7.236 28.831 19.415 31.421 35.387 3.442 10.343-18.12 20.17-16.602 20.17 3.114 0 24.338 24.4 22.783 30.296-1.933 4.755-19.938 6.569-22.138 15.442-18.734 5.12 1.967 6.77 7.257 4.758 15.276-3.703 14.752 4.652 21.251 18.080 14.065 9.439-5.052 16.163-30.488 25.69-97.198 7.419-51.932 42.476-86.721 60.313-59.856 11.96 18.013 23.29 13.522 47.727-18.913 31.117-41.301 40.153-80.411 23.474-101.613-13.078-16.627-12.431-24.601 5.708-70.376 18.411-46.467 4.226-69.235-27.616-44.323zM412.827 729.728c25.538 21.776 28.497 31.304 10.906 35.119-38.835 8.424-50.689 5.17-66.121-18.151-29.993-45.321 8.198-57.056 55.214-16.969zM651.206 716.435c15.688 34.429-25.549 63.154-72.083 50.214-39.777-11.064-38.123-19.909 8.065-43.128 46.366-23.306 56.137-24.389 64.018-7.085zM508.808 784.82c2.139 3.461 5.715 14.929 7.947 25.484s5.647 24.291 7.591 30.524c4.869 15.627-12.903 22.555-23.293 9.079-5.301-6.879-8.19-7.739-9.977-2.975-8.345 22.265-23.363 6.039-19.864-21.459 5.419-42.566 23.997-62.655 37.596-40.653z"></path>
</svg>
