<!-- Generated by IcoMoon.io -->
<svg version="1.1" xmlns="http://www.w3.org/2000/svg" width="33" height="32" viewBox="0 0 33 32">
<title>bladeborn-rippa</title>
<path fill="#fff" d="M17.654 29.427c0-0.62 0-1.243 0-1.867 0-0.34 0-0.538 0.467-0.605 1.382-0.236 2.619-0.689 3.737-1.329l-0.055 0.029c0.436-0.213 0.811-0.462 1.15-0.753l-0.007 0.006c1.12-1.042 2.278-2.065 3.006-3.476 0.504-0.982 1.034-1.975 1.12-3.066 0.081-0.736 0.127-1.59 0.127-2.454 0-0.77-0.037-1.532-0.108-2.283l0.007 0.096c-0.192-1.304-0.669-2.469-1.365-3.469l0.017 0.026c-0.825-1.236-1.729-2.438-3.077-3.249-0.937-0.564-1.792-1.251-2.89-1.516-0.586-0.138-1.158-0.373-1.744-0.485-0.258-0.056-0.373-0.123-0.373-0.396 0-1.46 0-2.924 0-4.384 0.018-0.094 0.051-0.178 0.095-0.254l-0.002 0.004c0.045 0.062 0.089 0.133 0.127 0.208l0.004 0.009c0.317 0.784 0.62 1.572 0.948 2.352 0.116 0.288 0.368 0.499 0.674 0.555l0.006 0.001c0.646 0.16 1.192 0.342 1.72 0.56l-0.081-0.030c1.217 0.445 2.269 1.044 3.2 1.787l-0.023-0.017c0.508 0.426 0.967 0.373 1.494 0.228 0.414-0.097 0.821-0.217 1.236-0.295 0.209-0.037 0.373 0.052 0.288 0.317-0.157 0.553-0.329 1.12-0.463 1.665-0.034 0.097-0.054 0.208-0.054 0.324 0 0.237 0.082 0.455 0.22 0.626l-0.002-0.002c0.823 1.059 1.469 2.304 1.866 3.655l0.020 0.079c0.217 0.702 0.321 1.419 0.5 2.121 0.060 0.339 0.299 0.61 0.613 0.715l0.006 0.002c0.792 0.306 1.579 0.627 2.371 0.941 0.175 0.071 0.146 0.172 0.037 0.261-0.514 0.359-1.104 0.661-1.735 0.877l-0.050 0.015c-0.254 0.105-0.497 0.239-0.747 0.325-0.344 0.112-0.433 0.329-0.489 0.683-0.288 1.801-0.877 3.417-1.717 4.87l0.036-0.068c-0.301 0.517-0.609 0.962-0.946 1.38l0.016-0.021c-0.11 0.129-0.176 0.298-0.176 0.482 0 0.076 0.011 0.149 0.032 0.218l-0.001-0.005c0.093 0.411 0.235 0.814 0.325 1.225 0.034 0.221 0.055 0.479 0.060 0.742v0.005c-0.091 0.006-0.198 0.009-0.306 0.009-0.215 0-0.426-0.013-0.634-0.037l0.025 0.002c-0.356-0.078-0.671-0.19-0.965-0.336l0.024 0.011c-0.093-0.045-0.203-0.071-0.318-0.071-0.196 0-0.374 0.075-0.507 0.199v0c-0.697 0.517-1.488 1.012-2.316 1.446l-0.1 0.048c-0.639 0.317-1.385 0.591-2.164 0.783l-0.077 0.016c-0.5 0.142-0.863 0.31-1.012 0.896-0.19 0.724-0.695 1.34-0.859 2.095 0 0.049-0.071 0.093-0.108 0.138-0.044-0.069-0.078-0.149-0.096-0.234l-0.001-0.005c0-0.78 0-1.557 0-2.334z"></path>
<path fill="#fff" d="M14.906 2.494c0 0.683 0 1.367 0 2.050 0 0.276-0.090 0.373-0.373 0.497-0.747 0.329-1.587 0.347-2.36 0.657-0.906 0.409-1.684 0.862-2.408 1.383l0.041-0.028c-1.488 1.034-2.663 2.422-3.417 4.045l-0.026 0.062c-0.669 1.304-1.094 2.834-1.175 4.454l-0.001 0.026c-0.002 0.075-0.003 0.162-0.003 0.25 0 1.525 0.304 2.979 0.855 4.305l-0.027-0.074c0.506 1.346 1.247 2.498 2.183 3.46l-0.002-0.002c1.066 1.102 2.323 2.011 3.72 2.674l0.078 0.033c0.504 0.243 1.089 0.425 1.703 0.515l0.033 0.004c1.184 0.172 1.187 0.164 1.187 1.314s0 2.3 0 3.446c-0.015 0.096-0.044 0.183-0.084 0.262l0.002-0.005c-0.057-0.059-0.107-0.125-0.15-0.197l-0.003-0.005c-0.313-0.541-0.604-1.172-0.837-1.83l-0.025-0.081c-0.095-0.39-0.395-0.691-0.777-0.786l-0.007-0.002c-0.541-0.198-1.098-0.329-1.643-0.538-1.326-0.495-2.467-1.189-3.451-2.056l0.012 0.010c-0.109-0.127-0.27-0.206-0.45-0.206-0.109 0-0.212 0.030-0.3 0.081l0.003-0.002c-0.526 0.228-1.090 0.373-1.639 0.553-0.31 0.097-0.47-0.049-0.373-0.373 0.123-0.407 0.269-0.807 0.414-1.21 0.074-0.165 0.116-0.357 0.116-0.559 0-0.306-0.098-0.589-0.265-0.82l0.003 0.004c-0.88-1.248-1.571-2.703-1.991-4.269l-0.022-0.096c-0.119-0.53-0.239-1.064-0.321-1.602-0.022-0.249-0.192-0.452-0.421-0.522l-0.004-0.001c-0.855-0.373-1.691-0.792-2.532-1.199-0.071-0.037-0.108-0.146-0.161-0.22l0.209-0.101c0.844-0.347 1.691-0.683 2.528-1.046 0.142-0.060 0.329-0.232 0.336-0.373 0.075-1.46 0.594-2.793 1.154-4.107 0.327-0.712 0.709-1.326 1.156-1.885l-0.014 0.018c0.373-0.493 0.627-0.9 0.373-1.576-0.149-0.407-0.194-0.885-0.34-1.318-0.090-0.269 0.037-0.411 0.31-0.373 0.635 0.091 1.201 0.228 1.745 0.412l-0.068-0.020c0.103 0.041 0.222 0.065 0.347 0.065 0.248 0 0.473-0.094 0.643-0.249l-0.001 0.001c0.807-0.493 1.591-1.027 2.431-1.452 0.565-0.288 1.222-0.528 1.909-0.687l0.059-0.011c0.881-0.205 1.083-0.881 1.318-1.587 0.157-0.459 0.373-0.9 0.571-1.344 0-0.045 0.082-0.075 0.123-0.112 0.030 0.056 0.078 0.108 0.078 0.164 0 0.713 0 1.426 0 2.143z"></path>
<path fill="#fff" d="M15.276 10.548c0 0.373 0.060 0.571 0 0.68-0.4 0.582 0.045 0.978 0.306 1.389 0.138 0.22 0.441 0.53 0.605 0.497 0.34-0.067 0.168-0.463 0.164-0.706-0.003-0.039-0.006-0.085-0.006-0.131 0-0.44 0.181-0.838 0.472-1.123v0c0.351-0.34 0.564-0.698 0.31-1.214-0.052-0.105 0.060-0.351 0.172-0.452 0.038-0.012 0.081-0.019 0.126-0.019 0.107 0 0.204 0.040 0.278 0.106v0c0.202 0.31 0.683 0.321 0.747 0.747s-0.269 0.59-0.47 0.855c-0.302 0.341-0.487 0.792-0.487 1.286 0 0.309 0.072 0.602 0.201 0.861l-0.005-0.011c0.026 0.056 0.049 0.116 0.071 0.172 0.071-0.049 0.164-0.086 0.202-0.149 0.091-0.16 0.182-0.352 0.261-0.55l0.012-0.033c0.119-0.353 0.416-0.616 0.781-0.686l0.006-0.001c0.569-0.085 1.028-0.48 1.203-1.005l0.003-0.011c0.142-0.373 0.284-0.205 0.426-0.034s0.19 0.31 0.295 0.459c0.076 0.089 0.122 0.204 0.122 0.331 0 0.205-0.12 0.381-0.294 0.463l-0.003 0.001c-0.373 0.217-0.631 0.568-1.12 0.59-0.355 0.022-0.636 0.308-0.65 0.663v0.001c0 0.060 0 0.123 0 0.187-0.037 0.228-0.183 0.616-0.108 0.661 0.332 0.209 0.411-0.224 0.631-0.344 0.351-0.187 0.68-0.411 1.12-0.224 0.148 0.078 0.324 0.123 0.511 0.123 0.422 0 0.789-0.233 0.98-0.577l0.003-0.006c0.161-0.246 0.291-0.022 0.325 0.067 0.261 0.765 0 1.624-0.971 1.494-0.090 0-0.202 0.030-0.276 0-0.937-0.474-1.296 0.321-1.792 0.81-0.030 0.030 0 0.112 0 0.168 0.021 0.002 0.046 0.003 0.071 0.003s0.050-0.001 0.074-0.003h-0.003c0.065-0.015 0.122-0.037 0.175-0.065l-0.004 0.002c0.706-0.373 1.311 0 1.841 0.373 0.258 0.164 0.373 0.224 0.605 0.071 0.104-0.097 0.228-0.174 0.366-0.222l0.007-0.002c0.006 0 0.012 0 0.019 0 0.148 0 0.282 0.062 0.377 0.161v0c0.046 0.069 0.074 0.155 0.074 0.247 0 0.053-0.009 0.105-0.026 0.152l0.001-0.003c-0.119 0.233-0.25 0.434-0.401 0.619l0.005-0.006c-0.125 0.218-0.356 0.362-0.621 0.362-0.172 0-0.329-0.061-0.452-0.162l0.001 0.001c-0.127-0.090-0.217-0.228-0.34-0.317-0.225-0.167-0.508-0.267-0.815-0.267-0.403 0-0.766 0.173-1.017 0.449l-0.001 0.001c-0.038 0.044-0.074 0.093-0.106 0.145l-0.003 0.005c0.062 0.036 0.135 0.064 0.211 0.081l0.005 0.001c0.556 0.019 0.866 0.373 1.143 0.792 0.347 0.512 0.672 1.042 1.378 1.12 0.052 0 0.153 0.235 0.127 0.269-0.184 0.25-0.403 0.462-0.652 0.633l-0.009 0.006c-0.097 0.036-0.208 0.058-0.325 0.058-0.37 0-0.69-0.213-0.845-0.523l-0.002-0.005c-0.076-0.247-0.149-0.445-0.232-0.638l0.016 0.041c-0.123-0.202-0.284-0.463-0.482-0.523-0.382-0.101-0.839-0.183-1.307-0.229l-0.037-0.003c-0.004 0.021-0.006 0.046-0.006 0.071s0.002 0.050 0.006 0.074v-0.003s0.063 0 0.082 0.030c0.482 0.545 0.836 1.12 0.676 1.904-0.093 0.452 0.284 0.646 0.508 0.93 0.097 0.123 0.202 0.351 0.149 0.456-0.105 0.139-0.262 0.233-0.441 0.254h-0.003c-0.84 0.119-1.18-0.198-1.195-1.068 0-0.127 0-0.25 0-0.373 0-0.015 0.001-0.033 0.001-0.052 0-0.721-0.464-1.333-1.109-1.554l-0.012-0.003c-0.056-0.022-0.265 0.168-0.254 0.198 0.302 0.747 0.045 1.385-0.306 2.013-0.097 0.118-0.155 0.27-0.155 0.436 0 0.191 0.078 0.365 0.204 0.49v0c0.269 0.269 0 0.396-0.168 0.459-0.467 0.157-0.747-0.161-1.019-0.47-0.117-0.156-0.187-0.353-0.187-0.566 0-0.172 0.046-0.334 0.126-0.473l-0.002 0.005c0.045-0.078 0.138-0.131 0.183-0.213 0.149-0.258 0.433-0.545 0.373-0.78-0.124-0.476-0.302-0.894-0.531-1.277l0.012 0.022s-0.232 0.049-0.235 0.086c-0.060 0.769-0.571 1.165-1.165 1.538-0.366 0.176-0.615 0.543-0.615 0.969 0 0.068 0.006 0.134 0.018 0.199l-0.001-0.007c0.026 0.149-0.071 0.187-0.228 0.138-0.425-0.131-0.731-0.513-0.747-0.969v-0.002c-0.060-0.373 0-0.747 0.474-0.874 0.108-0.030 0.179-0.209 0.284-0.228 0.848-0.157 0.866-0.818 0.907-1.46-0.014-0.157-0.049-0.301-0.101-0.437l0.004 0.011c-0.105 0.087-0.199 0.18-0.285 0.281l-0.003 0.003c-0.186 0.268-0.491 0.441-0.837 0.441-0.043 0-0.086-0.003-0.127-0.008h0.005c-0.597-0.041-1.172 0-1.494 0.657-0.091 0.104-0.223 0.169-0.371 0.169-0.031 0-0.062-0.003-0.091-0.008h0.003c-0.123-0.056-0.198-0.288-0.235-0.456-0.012-0.084-0.020-0.18-0.020-0.278s0.007-0.195 0.021-0.289l-0.001 0.011c0-0.003 0-0.006 0-0.009 0-0.433 0.351-0.784 0.784-0.784 0.016 0 0.031 0 0.047 0.001h-0.002c0.042-0.006 0.091-0.010 0.14-0.010s0.098 0.004 0.145 0.010l-0.005-0.001c0.866 0.213 1.296-0.414 1.77-0.933 0.217-0.232 0.101-0.512-0.198-0.508-0.653 0-1.281 0-1.815-0.493-0.142-0.131-0.474-0.060-0.721-0.075s-0.433 0-0.65 0-0.287-0.153-0.187-0.314c0.218-0.331 0.435-0.617 0.67-0.888l-0.009 0.010c0.078-0.095 0.196-0.156 0.327-0.156 0.098 0 0.188 0.033 0.26 0.089l-0.001-0.001c0.233 0.137 0.432 0.273 0.621 0.42l-0.012-0.009c0.422 0.34 0.833 0.627 1.408 0.284 0.2-0.082 0.434-0.148 0.677-0.185l0.017-0.002c0.12-0.037 0.373-0.052 0.030-0.194-0.19-0.078-0.34-0.258-0.53-0.351-0.439-0.212-0.77-0.591-0.915-1.052l-0.003-0.012c-0.12-0.456-0.518-0.79-0.998-0.814h-0.003c-0.325-0.022-0.373-0.187-0.157-0.426 0.198-0.232 0.492-0.379 0.819-0.379 0.351 0 0.663 0.168 0.859 0.428l0.002 0.003c0.129 0.189 0.238 0.407 0.316 0.638l0.006 0.019c0.254 0.747 0.945 0.788 1.542 0.971 0.041 0 0.175-0.183 0.217-0.299 0.022-0.060-0.052-0.175-0.112-0.235-0.497-0.485-0.784-0.982-0.456-1.721 0.183-0.411-0.075-0.84-0.373-1.172-0.209-0.228-0.019-0.373 0.134-0.407 0.119-0.055 0.258-0.088 0.404-0.088 0.246 0 0.471 0.091 0.643 0.242l-0.001-0.001c0.115 0.123 0.202 0.274 0.252 0.44l0.002 0.008z"></path>
</svg>
