<!-- Generated by IcoMoon.io -->
<svg version="1.1" xmlns="http://www.w3.org/2000/svg" width="33" height="32" viewBox="0 0 33 32">
<title>bladeborn-morgok</title>
<path fill="#fff" d="M15.030 2.428c0 0.658 0 1.315 0 1.973 0 0.44-0.128 0.598-0.522 0.62-1.759 0.101-3.232 0.913-4.63 1.879-1.351 0.974-2.453 2.206-3.252 3.631l-0.029 0.056c-0.651 1.059-1.103 2.31-1.27 3.649l-0.005 0.045c-0.199 1.962-0.203 3.969 0.729 5.822 0.37 0.832 0.739 1.526 1.15 2.19l-0.045-0.078c0.601 0.887 1.218 1.793 2.184 2.357 0.71 0.413 1.319 0.97 2.056 1.372 0.579 0.272 1.288 0.542 2.019 0.765l0.12 0.032c0.287 0.097 0.621 0.169 0.966 0.202l0.018 0.001c0.376 0.053 0.519 0.274 0.515 0.639 0 1.379 0 2.755 0 4.134 0 0.090-0.094 0.177-0.143 0.267-0.071-0.060-0.173-0.105-0.203-0.18-0.158-0.398-0.304-0.801-0.444-1.206-0.289-0.861-0.662-1.635-1.688-1.83-0.958-0.218-1.803-0.579-2.562-1.064l0.032 0.019c-0.816-0.404-1.519-0.852-2.168-1.365l0.025 0.019c-0.122-0.077-0.27-0.123-0.428-0.123-0.065 0-0.129 0.008-0.19 0.022l0.005-0.001c-0.685 0.156-1.244 0.318-1.79 0.506l0.121-0.036c-0.259 0.083-0.376 0-0.376-0.241 0.040-0.236 0.095-0.443 0.166-0.642l-0.008 0.026c0.016-0.14 0.044-0.268 0.083-0.39l-0.004 0.014c0.151-0.265 0.241-0.582 0.241-0.92 0-0.485-0.184-0.928-0.486-1.262l0.001 0.002c-0.936-1.128-1.379-2.507-1.785-3.89-0.15-0.455-0.245-0.98-0.263-1.524v-0.009c0-0.406-0.241-0.541-0.504-0.669-0.801-0.376-1.616-0.752-2.424-1.128-0.096-0.064-0.178-0.138-0.251-0.22l-0.001-0.002c0.083-0.071 0.15-0.173 0.244-0.21 0.823-0.335 1.65-0.658 2.473-0.992 0.271-0.104 0.459-0.362 0.459-0.664 0-0.010 0-0.019-0.001-0.028v0.001c0.114-1.175 0.406-2.253 0.849-3.25l-0.026 0.066c0.442-1.112 1.038-2.068 1.775-2.896l-0.009 0.010c0.142-0.157 0.229-0.365 0.229-0.594 0-0.099-0.016-0.195-0.046-0.284l0.002 0.006c-0.086-0.413-0.259-0.812-0.376-1.218-0.062-0.151-0.112-0.328-0.141-0.512l-0.002-0.014c0-0.21 0.060-0.376 0.327-0.289 0.53 0.15 1.067 0.271 1.59 0.436 0.093 0.036 0.2 0.057 0.312 0.057 0.206 0 0.396-0.071 0.546-0.19l-0.002 0.001c0.68-0.47 1.421-0.853 2.12-1.297 0.898-0.575 1.951-0.714 2.924-1.082 0.212-0.075 0.382-0.226 0.479-0.42l0.002-0.005c0.31-0.508 0.567-1.095 0.74-1.717l0.012-0.049c0.073-0.185 0.163-0.345 0.271-0.491l-0.004 0.006c0.030-0.049 0.128-0.109 0.147-0.094 0.066 0.039 0.114 0.101 0.135 0.175l0.001 0.002c0 0.376 0 0.752 0 1.128z"></path>
<path fill="#fff" d="M17.8 29.508c0-0.722 0-1.439 0-2.161 0-0.263 0.109-0.353 0.376-0.41 0.967-0.142 1.834-0.366 2.661-0.672l-0.090 0.029c0.93-0.387 1.731-0.886 2.436-1.494l-0.011 0.010c1.353-1.21 2.762-2.405 3.308-4.281 0.158-0.537 0.474-1.026 0.631-1.597 0.17-0.581 0.267-1.248 0.267-1.938 0-0.023 0-0.046 0-0.069v0.003c0-0.722-0.034-1.443 0-2.161-0.002-0.843-0.163-1.647-0.455-2.386l0.015 0.044c-0.233-0.641-0.468-1.17-0.735-1.681l0.036 0.076c-0.472-1.007-1.089-1.865-1.836-2.591l-0.002-0.002c-0.744-0.743-1.583-1.391-2.498-1.923l-0.058-0.031c-1.039-0.621-2.258-1.064-3.56-1.249l-0.052-0.006c-0.246-0.017-0.439-0.22-0.439-0.469 0-0.018 0.001-0.035 0.003-0.052v0.002q0-2.157 0-4.315c0-0.064 0.079-0.124 0.12-0.184 0.031 0.043 0.061 0.092 0.087 0.143l0.003 0.007c0.319 0.797 0.658 1.586 0.947 2.39 0.113 0.294 0.383 0.504 0.704 0.53h0.003c1.128 0.113 2.101 0.684 3.078 1.184 0.673 0.347 1.254 0.732 1.787 1.171l-0.017-0.014c0.218 0.206 0.512 0.333 0.837 0.333 0.225 0 0.435-0.061 0.616-0.167l-0.006 0.003c0.169-0.075 0.353-0.226 0.507-0.199 0.376 0.064 0.677-0.402 1.060-0.12-0.086 0.319-0.188 0.639-0.259 0.966-0.087 0.319-0.166 0.715-0.22 1.119l-0.005 0.050c-0.003 0.031-0.004 0.066-0.004 0.102 0 0.189 0.045 0.367 0.124 0.525l-0.003-0.007c0.263 0.485 0.583 0.94 0.857 1.417 0.613 0.948 1.059 2.064 1.263 3.263l0.007 0.052c0.046 0.408 0.118 0.776 0.219 1.132l-0.012-0.049c0.068 0.431 0.356 0.781 0.744 0.937l0.008 0.003c0.864 0.308 1.691 0.718 2.533 1.090 0.073 0.043 0.136 0.093 0.191 0.15v0c-0.044 0.028-0.096 0.055-0.15 0.079l-0.008 0.003c-0.853 0.342-1.703 0.692-2.56 1.015-0.412 0.15-0.713 0.511-0.774 0.948l-0.001 0.006c-0.075 0.255-0.137 0.559-0.174 0.872l-0.003 0.027c-0.090 1.564-0.88 2.841-1.661 4.134-0.274 0.444-0.601 0.853-0.887 1.289-0.019 0.049-0.030 0.106-0.030 0.165s0.011 0.116 0.031 0.169l-0.001-0.003c0.158 0.59 0.308 1.184 0.5 1.763 0.075 0.218 0.128 0.376-0.169 0.334s-0.605-0.086-0.906-0.132c-0.099-0.004-0.191-0.026-0.276-0.062l0.005 0.002c-0.703-0.398-1.315-0.143-1.879 0.293-1.053 0.839-2.316 1.464-3.695 1.784l-0.063 0.012c-0.194 0.040-0.366 0.103-0.525 0.189l0.010-0.005c-0.376 0.207-0.714 0.376-0.861 0.853-0.291 0.819-0.581 1.49-0.909 2.139l0.048-0.105c-0.034 0.079-0.079 0.154-0.12 0.233-0.047-0.069-0.083-0.149-0.101-0.236l-0.001-0.004c0-0.752 0-1.503 0-2.255z"></path>
<path fill="#fff" d="M23.735 12.828c0.006 0.058 0.009 0.125 0.009 0.193 0 0.79-0.446 1.476-1.099 1.82l-0.011 0.005c-0.274 0.162-0.417 0.575-0.571 0.898s-0.233 0.376-0.402 0c-0.172-0.342-0.341-0.627-0.526-0.901l0.018 0.029c-0.060-0.115-0.178-0.191-0.314-0.191-0.116 0-0.218 0.056-0.283 0.142l-0.001 0.001c-0.323 0.331-0.319 0.639 0 1.045s0.327 0.406-0.038 0.819c-0.18 0.207-0.323 0.447-0.496 0.662s-0.398 0.489-0.752 0.436c-0.492-0.071-0.601 0.233-0.718 0.643-0.263 0.932 0.098 1.503 1.060 1.56 0.278 0 0.56 0 0.842 0h0.376c-0.041 0.122-0.092 0.228-0.154 0.325l0.004-0.006c-0.143 0.165-0.319 0.301-0.459 0.47-0.189 0.258-0.49 0.424-0.831 0.424-0.052 0-0.102-0.004-0.152-0.011l0.006 0.001c-0.036-0.003-0.078-0.004-0.121-0.004-0.404 0-0.774 0.144-1.062 0.383l0.003-0.002c-1.011 0.695-2.109 0.816-3.168 0-0.163-0.15-0.352-0.276-0.558-0.37l-0.013-0.005c-0.098-0.016-0.21-0.026-0.325-0.026s-0.227 0.009-0.337 0.027l0.012-0.002c-0.615-0.004-1.142-0.376-1.372-0.907l-0.004-0.010c-0.071-0.135-0.071-0.237 0.109-0.244 0.112-0.008 0.244-0.013 0.376-0.013s0.263 0.005 0.393 0.014l-0.017-0.001c0.069 0.014 0.148 0.022 0.229 0.022 0.446 0 0.835-0.242 1.042-0.602l0.003-0.006c0.094-0.177 0.267-0.334 0.075-0.586-0.098-0.128-0.049-0.376-0.079-0.541-0.064-0.417-0.177-0.504-0.616-0.47-0.083 0-0.214 0.101-0.237 0.075-0.384-0.406-0.753-0.839-1.099-1.292l-0.028-0.039c-0.229-0.319 0.030-0.65 0.15-0.962 0.055-0.096 0.099-0.208 0.126-0.326l0.002-0.008c0-0.068-0.090-0.165-0.169-0.203-0.010-0.002-0.022-0.003-0.034-0.003-0.067 0-0.128 0.030-0.168 0.078v0c-0.143 0.237-0.252 0.492-0.376 0.733-0.045 0.071-0.143 0.113-0.218 0.169-0.045-0.079-0.090-0.154-0.132-0.233-0.051-0.088-0.105-0.195-0.153-0.306l-0.008-0.021c-0.218-0.553-0.218-0.553-0.752-0.319-0.485 0.21-0.891 0.045-0.906-0.477-0.048-0.487-0.201-0.93-0.436-1.318l0.008 0.014c-0.099-0.204-0.157-0.443-0.157-0.696 0-0.231 0.048-0.45 0.135-0.648l-0.004 0.010c0.335-0.958 1.128-1.503 1.834-2.131 0.075-0.064 0.233-0.034 0.376-0.045 0.001 0.019 0.002 0.042 0.002 0.065 0 0.11-0.013 0.218-0.037 0.32l0.002-0.009c-0.113 0.29-0.239 0.537-0.387 0.77l0.011-0.018c-0.327 0.504-0.173 0.943 0.154 1.361 0.146 0.209 0.386 0.345 0.658 0.345 0.22 0 0.419-0.089 0.564-0.232v0c0.35-0.327 0.662-0.658 1.203-0.568 0.094 0 0.218-0.105 0.308-0.18 0.466-0.395 0.928-0.789 1.383-1.191 0.718-0.639 1.289-0.665 2.041-0.083l1.609 1.237c0.087 0.074 0.184 0.146 0.285 0.214l0.012 0.008c0.218 0.128 0.436-0.274 0.669 0 0.154 0.18 0.346 0.327 0.5 0.504 0.139 0.184 0.357 0.302 0.603 0.302 0.15 0 0.29-0.044 0.408-0.12l-0.003 0.002c0.236-0.22 0.395-0.519 0.435-0.854l0.001-0.007c0.105-0.571-0.203-1.071-0.402-1.586-0.019-0.068-0.032-0.148-0.037-0.23v-0.003c0.086 0 0.188-0.023 0.256 0 0.743 0.409 1.342 1 1.747 1.714l0.012 0.022c0.106 0.343 0.17 0.738 0.177 1.147v0.003zM14.429 14.418c-0.376 0-0.789 0.56-0.635 0.831 0.24 0.372 0.508 0.695 0.81 0.983l0.002 0.002c0.286 0.297 0.62 0.075 0.932 0 0.425-0.086 0.451-0.143 0.289-0.53-0.060-0.143-0.188-0.271-0.199-0.413-0.071-0.819-0.759-0.725-1.199-0.872zM17.767 16.248c0.063 0.015 0.135 0.024 0.209 0.024 0.304 0 0.573-0.148 0.74-0.375l0.002-0.003c0.21-0.376 0.462-0.722 0.308-1.263-0.101-0.376-0.304-0.301-0.447-0.289-0.752 0.060-1.161 0.59-1.421 1.244-0.195 0.492-0.071 0.65 0.609 0.661zM15.65 18.225c0 0.056-0.064 0.124-0.049 0.173 0.138 0.54 0.292 0.995 0.476 1.436l-0.025-0.067c0.060 0.135 0.353 0.199 0.549 0.222s0.376-0.143 0.444-0.376 0.139-0.402 0.188-0.605c0.056-0.259 0.086-0.519 0.132-0.778-0.184 0.165-0.376 0.319-0.549 0.5-0.069 0.098-0.181 0.161-0.308 0.161s-0.239-0.063-0.307-0.16l-0.001-0.001c-0.121-0.133-0.243-0.255-0.371-0.372l-0.004-0.004c-0.051-0.045-0.108-0.087-0.167-0.124l-0.006-0.003z"></path>
</svg>
