<!-- Generated by IcoMoon.io -->
<svg version="1.1" xmlns="http://www.w3.org/2000/svg" width="33" height="32" viewBox="0 0 33 32">
<title>bladeborn-eyesofthenine</title>
<path fill="#fff" d="M17.756 29.636c0-0.629 0-1.253 0-1.882 0-0.523 0.109-0.632 0.614-0.779 0.314-0.115 0.703-0.226 1.101-0.31l0.058-0.010c1.212-0.181 2.217-0.817 3.158-1.506 1.43-1.062 2.714-2.285 3.512-3.934 0.433-0.896 0.892-1.773 1.005-2.786 0.034-0.305 0.124-0.606 0.132-0.911 0-0.847-0.049-1.698 0-2.537 0.009-0.122 0.015-0.264 0.015-0.407 0-0.873-0.197-1.7-0.549-2.44l0.015 0.034c-0.403-0.881-0.719-1.837-1.415-2.575-0.591-0.625-1.058-1.378-1.705-1.927-1.622-1.374-3.422-2.432-5.605-2.635-0.29-0.026-0.35-0.207-0.35-0.452 0-0.719 0-1.442 0-2.161s0-1.442 0-2.161c0.017-0.096 0.049-0.182 0.093-0.26l-0.002 0.004c0.059 0.057 0.111 0.12 0.156 0.188l0.003 0.004c0.328 0.734 0.651 1.464 0.967 2.202 0.117 0.283 0.355 0.496 0.648 0.574l0.007 0.002c1.21 0.385 2.187 0.761 3.136 1.186l-0.189-0.076c0.707 0.337 1.314 0.75 1.85 1.24l-0.006-0.005c0.269 0.256 0.634 0.413 1.036 0.413 0.216 0 0.421-0.045 0.607-0.127l-0.010 0.004c0.358-0.102 0.704-0.237 1.062-0.327 0.448-0.117 0.535 0 0.407 0.452s-0.23 0.9-0.376 1.333c-0.057 0.128-0.091 0.278-0.091 0.436 0 0.3 0.121 0.572 0.317 0.769v0c0.657 0.835 1.184 1.809 1.528 2.866l0.019 0.066c0.282 0.739 0.541 1.635 0.732 2.557l0.021 0.119c0.072 0.504 0.424 0.911 0.89 1.063l0.009 0.003c0.753 0.294 1.506 0.617 2.228 0.934 0.063 0.043 0.116 0.094 0.161 0.153l0.001 0.002c-0.041 0.042-0.088 0.078-0.14 0.107l-0.003 0.002c-0.753 0.316-1.528 0.644-2.308 0.93-0.451 0.098-0.791 0.47-0.843 0.929v0.005c-0.348 2.112-1.131 3.993-2.255 5.621l0.030-0.046c-0.418 0.58-0.704 1.156-0.376 1.882 0.034 0.107 0.062 0.235 0.078 0.366l0.001 0.011c0.335 1.329 0.335 1.333-1.001 0.964-0.267-0.075-0.516-0.222-0.787-0.279-0.081-0.024-0.173-0.038-0.269-0.038-0.231 0-0.444 0.081-0.61 0.216l0.002-0.001c-1.132 0.989-2.52 1.712-4.052 2.058l-0.062 0.012c-1.001 0.184-1.412 0.832-1.739 1.645-0.124 0.309-0.248 0.621-0.376 0.922-0.105 0.222-0.248 0.433-0.376 0.651-0.026-0.279-0.072-0.553-0.079-0.828-0.034-0.523-0.023-1.024-0.023-1.525z"></path>
<path fill="#fff" d="M15.008 2.466c0 0.629 0 1.253 0 1.882 0 0.399-0.147 0.647-0.583 0.693-0.431 0.052-0.804 0.118-1.169 0.203l0.074-0.014c-0.201 0.041-0.378 0.095-0.546 0.165l0.019-0.007c-0.726 0.274-1.329 0.552-1.909 0.868l0.080-0.040c-0.668 0.418-1.247 0.854-1.785 1.336l0.012-0.011c-1.122 0.971-2.071 2.105-2.819 3.37l-0.034 0.063c-0.189 0.363-0.36 0.789-0.491 1.232l-0.013 0.052c-0.412 1.154-0.65 2.484-0.65 3.871 0 0.417 0.022 0.829 0.064 1.236l-0.004-0.051c0.142 0.76 0.324 1.421 0.555 2.059l-0.029-0.090c0.389 1.548 1.126 2.889 2.126 3.986l-0.007-0.007c0.924 1.003 1.984 1.861 3.154 2.551l0.064 0.035c0.986 0.576 2.078 0.753 3.132 1.099 0.753 0.245 0.753 0.252 0.753 1.039q0 1.882 0 3.764c-0.017 0.097-0.047 0.185-0.089 0.265l0.002-0.005c-0.064-0.060-0.154-0.109-0.184-0.184-0.192-0.448-0.376-0.896-0.55-1.359-0.279-0.806-0.693-1.415-1.611-1.622-1.65-0.412-3.087-1.16-4.297-2.171l0.017 0.014c-0.723-0.58-1.397-0.226-2.1-0.128-0.212 0.051-0.39 0.107-0.562 0.172l0.031-0.010c-0.452 0.128-0.55 0.038-0.422-0.437 0.105-0.376 0.241-0.753 0.376-1.129 0.061-0.154 0.096-0.332 0.096-0.518 0-0.327-0.108-0.628-0.291-0.871l0.003 0.004c-0.481-0.789-0.999-1.758-1.469-2.754l-0.085-0.201c-0.393-0.834-0.661-1.804-0.751-2.825l-0.002-0.032c-0.021-0.316-0.234-0.576-0.522-0.669l-0.005-0.001c-0.708-0.324-1.419-0.629-2.119-0.964-0.176-0.112-0.329-0.236-0.466-0.376v0c0.154-0.138 0.325-0.263 0.509-0.369l0.015-0.008c0.651-0.286 1.31-0.565 1.98-0.809 0.44-0.162 0.535-0.437 0.614-0.896 0.335-1.972 0.949-3.87 2.259-5.413 0.693-0.813 0.425-1.604 0.271-2.439-0.060-0.32-0.132-0.636-0.2-0.952 0.349 0.006 0.682 0.062 0.996 0.161l-0.025-0.007c1.001 0.459 1.799 0.196 2.635-0.444 1.072-0.794 2.35-1.377 3.736-1.661l0.062-0.011c0.436-0.062 0.792-0.353 0.946-0.745l0.003-0.008c0.173-0.433 0.346-0.862 0.538-1.287 0.113-0.248 0.256-0.486 0.376-0.727 0.037-0.044 0.079-0.083 0.126-0.115l0.002-0.001c0.041 0.068 0.117 0.135 0.12 0.203 0 0.501 0 1.001 0 1.506v0.565z"></path>
<path fill="#fff" d="M13.25 15.893c-0.188-0.715 0.147-1.404 0.64-2.036 0.413-0.539 0.991-0.932 1.658-1.106l0.021-0.005c0.28-0.084 0.602-0.132 0.936-0.132 1.149 0 2.164 0.572 2.776 1.446l0.007 0.011c0.414 0.518 0.665 1.184 0.665 1.907 0 0.525-0.132 1.019-0.364 1.452l0.008-0.016c-0.488 1.12-1.576 1.893-2.847 1.916h-0.003c-1.419 0.079-2.417-0.572-3.196-1.694-0.354-0.508-0.316-1.058-0.301-1.743z"></path>
<path fill="#fff" d="M11.345 13.608c0-2.259 0.783-3.602 2.044-4.717 0.161-0.131 0.346-0.241 0.546-0.322l0.014-0.005c0.122-0.041 0.263-0.070 0.409-0.079h0.005c-0.026 0.139-0.045 0.282-0.083 0.422-0.072 0.267-0.147 0.535-0.23 0.802-0.073 0.176-0.115 0.381-0.115 0.595 0 0.526 0.254 0.992 0.645 1.284l0.004 0.003c0.098 0.075 0.222 0.113 0.32 0.184 0.346 0.264 0.32 0.358-0.109 0.602-1.348 0.772-2.221 1.856-2.236 3.489-0.022 0.123-0.058 0.233-0.109 0.335l0.003-0.007-0.241-0.26c-0.54-0.592-0.87-1.383-0.87-2.251 0-0.026 0-0.053 0.001-0.079v0.004z"></path>
<path fill="#fff" d="M21.366 18.791c0.26 1.186-0.35 2.134-0.896 3.049-0.474 0.791-1.257 1.336-1.972 1.916-0.045 0.038-0.162 0-0.241-0.023 0 0-0.023-0.105 0-0.154 0.158-0.403 0.346-0.798 0.482-1.208 0.328-0.982 0.105-1.558-0.753-2.112-0.376-0.233-0.376-0.256 0-0.463 1.027-0.53 1.829-1.376 2.291-2.408l0.013-0.032c0.069-0.265 0.109-0.57 0.109-0.884 0-0.012 0-0.024 0-0.036v0.002c0.040-0.105 0.092-0.196 0.156-0.277l-0.002 0.002c0.075 0.053 0.177 0.090 0.215 0.162 0.44 0.764 0.828 1.547 0.599 2.466z"></path>
</svg>
