<!-- Generated by IcoMoon.io -->
<svg version="1.1" xmlns="http://www.w3.org/2000/svg" width="1024" height="1024" viewBox="0 0 1024 1024">
<title></title>
<g id="icomoon-ignore">
</g>
<path fill="#FFF" d="M553.276 82.441l1.485 76.294 34.767 8.807c245.4 62.167 346.357 350.523 195.123 557.309-34.24 46.817-114.328 103.63-164.925 116.997-9.254 2.446-28.258 7.352-42.234 10.91l-25.407 6.463 0.307 77.992 0.307 77.996 12.894-29.42c28.573-65.187 28.107-64.685 74.746-80.138 47.782-15.829 54.553-19.114 100.429-48.765 36.362-23.504 41.976-24.362 79.299-12.157 30.218 9.885 33.992 8.575 26.96-9.354-19.55-49.836-19.512-55.727 0.528-83.218 33.31-45.701 57.515-104.781 71.919-175.55 4.364-21.441 63.478-59.908 93.946-61.134 7.113-0.288 14.644-10.755 8.024-11.158-42.336-2.556-105.403-47.463-105.563-75.167-0.186-32.895-25.441-98.032-55.984-144.409-21.032-31.938-22.574-43.566-10.884-82.094 9.98-32.902 10.709-32.406-31.794-21.746l-35.428 8.883-38.63-26.036c-39.985-26.947-86.177-49.354-125.546-60.888-22.847-6.696-42.078-35.121-52.882-78.166-8.564-34.122-12.829-12.627-11.458 57.747zM439.763 55.736l-18.722 39.481-41.402 14.488c-22.771 7.967-60.789 26.921-84.483 42.12-46.194 29.634-53.353 31.201-95.814 21.016-34.604-8.301-34.335-8.678-23.447 32.834l9.061 34.547-29.545 47.846c-31.9 51.651-49.919 97.102-55.662 140.388-4.314 32.535-8.666 36.69-62.483 59.681-50.664 21.642-51.424 17.606 8.549 45.442l50.004 23.207 3.1 26.155c5.59 47.223 33.856 118.339 65.35 164.423 14.986 21.924 15.152 26.792 2.469 71.472-8.343 29.382-7.839 29.679 32.846 19.22l34.251-8.803 45.933 29.071c25.262 15.988 57.754 33.325 72.209 38.524s36.476 13.083 48.944 17.523c22.839 8.134 35.983 27.123 45.732 66.076 11.507 45.974 17.184 31.578 17.184-43.589v-75.866l-13.375-3.877c-7.352-2.134-27.81-8.089-45.461-13.235-166.842-48.621-271.171-227.376-237.418-406.78 24.472-130.077 114.848-225.39 253.463-267.308 42.997-13.003 40.642-7.857 38.945-85.067l-1.504-68.467-18.718 39.485zM442.437 270.968c-29.721 13.904-62.441 46.795-91.064 91.535-10.402 16.265-21.852 29.545-25.437 29.515-6.228-0.057-42.662-10.588-65.361-18.893-5.883-2.153 9.589 16.755 34.38 42.014l45.070 45.925-7.462 22.615c-5.631 17.059-5.906 23.135-1.124 24.73 38.903 12.969 63.281 32.41 80.487 64.188 19.118 35.314 25.075 39.86 30.369 23.173 1.789-5.639 8.256-16.611 14.366-24.378l11.109-14.127 13.026 19.171c14.309 21.062 19.22 20.617 31.349-2.84 10.967-21.21 16.291-19.872 33.347 8.362 18.351 30.377 17.242 30.693 38.831-10.978 21.35-41.212 21.681-41.531 56.134-54.455 28.008-10.504 28.019-10.535 21.339-46.889-2.617-14.264 1.493-20.761 36.989-58.476 46.514-49.419 47.079-56.030 2.958-34.657-17.686 8.568-33.181 15.575-34.429 15.575-1.253 0-9.957-14.408-19.345-32.021-44.462-83.422-134.349-122.378-205.533-89.085zM424.664 451.474c24.897 12.604 35.072 47.577 13.839 47.577-10.235 0-61.833-32.226-65.062-40.635-10.154-26.47 7.823-28.904 51.223-6.942zM625.488 448.291c0.843 7.565-8.039 17.195-30.697 33.279l-31.885 22.638-8.53-13.015c-13.026-19.885-5.487-32.94 26.066-45.146 32.876-12.714 43.426-12.191 45.044 2.245zM238.982 475.183c1.629 11.655 6.643 54.584 11.143 95.393 4.5 40.805 11.7 82.621 16.003 92.917 4.303 10.3 7.854 25.049 7.895 32.781 0.22 42.818 13.542 47.854 26.318 9.946 19.683-58.404 49.294-42.48 69.816 37.539 6.368 24.821 21.464 31.866 21.464 10.014 0-55.16 44.661-66.341 57.477-14.389 6.073 24.613 17.409 27.978 17.409 5.165 0-10.652 4.595-22.379 11.765-30.009 11.332-12.066 11.53-14.127 5.4-56.187-6.916-47.46-14.415-62.479-20.025-40.122-1.899 7.565-8.324 18.142-14.283 23.508-5.955 5.362-12.977 15.365-15.597 22.22-7.17 18.752-16.687 11.408-23.527-18.153-7.124-30.807-28.836-82.568-34.627-82.568-2.198 0-6.954 15.042-10.569 33.427-7.584 38.562-13.729 52.153-23.584 52.153-8.401 0-54.249-81.364-81.406-144.462-23.428-54.436-24.89-56.46-21.073-29.173zM747.632 474.982c-2.575 5.883-9.282 22.733-14.906 37.441-5.624 14.713-19.042 42.389-29.816 61.511-10.774 19.125-23.728 43.795-28.783 54.827-9.529 20.789-25.763 27.332-25.763 10.383 0-5.32-3.532-14.347-7.854-20.060-4.318-5.707-7.967-17.602-8.104-26.428-0.813-51.647-33.977-3.445-50.603 73.545-5.241 24.27-15.327 16.888-34.771-25.448-21.221-46.202-24.711-45.606-32.2 5.502-3.007 20.53-6.916 42.537-8.682 48.906-2.313 8.343-0.091 13.246 7.956 17.553 7.329 3.922 12.373 13.542 14.69 28.016 3.843 24.035 17.943 16.668 17.943-9.373 0-13.603 8.074-21.502 26.773-26.181 14.226-3.558 32.063 24.981 32.063 51.31 0 21.335 14.048 0.919 26.485-38.497 9.635-30.53 14.61-38.74 26.136-43.157 23.948-9.171 30.036-1.637 40.934 50.675 4.937 23.705 16.884 8.742 21.312-26.686 2.054-16.448 7.227-39.795 11.492-51.884 16.459-46.654 31.114-207.199 15.696-171.958zM485.438 515.764c4.182 13.178-4.561 20.689-19.524 16.774-12.308-3.217-12.778-8.655-1.701-19.732 11.355-11.355 16.93-10.576 21.225 2.958zM529.624 510.819c9.84 9.843 7.634 20.325-4.28 20.325-7.846 0-10.698-3.566-10.698-13.371 0-14.603 5.006-16.926 14.978-6.954z"></path>
</svg>
