<!-- Generated by IcoMoon.io -->
<svg version="1.1" xmlns="http://www.w3.org/2000/svg" width="33" height="32" viewBox="0 0 33 32">
<title>bladeborn-crimsoncourt</title>
<path fill="#fff" d="M15.072 2.411c0 0.597 0 1.194 0 1.791 0 0.503-0.095 0.488-0.567 0.684-0.711 0.291-1.512 0.302-2.181 0.692s-1.436 0.586-2.041 1.032c-0.85 0.624-1.576 1.421-2.381 2.105-0.726 0.616-0.983 1.557-1.629 2.222-0.404 1.466-1.187 2.85-1.017 4.452 0.008 0.098 0.013 0.213 0.013 0.329s-0.005 0.23-0.014 0.344l0.001-0.015c-0.002 0.068-0.003 0.148-0.003 0.228 0 1.542 0.349 3.003 0.973 4.307l-0.026-0.060c0.753 1.66 1.837 3.052 3.177 4.141l0.021 0.016c1.101 0.928 2.407 1.652 3.837 2.095l0.079 0.021c0.381 0.128 0.832 0.231 1.297 0.291l0.037 0.004c0.317 0.042 0.435 0.136 0.431 0.461 0 1.349 0 2.702 0 4.055 0.004 0.026 0.006 0.055 0.006 0.085 0 0.068-0.010 0.134-0.029 0.195l0.001-0.005c-0.050 0.066-0.121 0.114-0.201 0.135l-0.003 0.001c-0.061-0.001-0.114-0.034-0.143-0.082v-0.001c-0.147-0.435-0.261-0.877-0.427-1.304-0.155-0.495-0.369-0.927-0.641-1.315l0.010 0.015c-0.267-0.234-0.602-0.396-0.972-0.452l-0.011-0.001c-1.698-0.444-3.176-1.21-4.435-2.235l0.021 0.017c-0.378-0.31-0.718-0.491-1.228-0.276s-1.009 0.257-1.512 0.442c-0.295 0.117-0.34 0-0.299-0.212 0.084-0.597 0.225-1.135 0.422-1.646l-0.017 0.051c0.070-0.136 0.111-0.297 0.111-0.468 0-0.274-0.105-0.523-0.278-0.709l0.001 0.001c-0.819-1.187-1.487-2.56-1.931-4.030l-0.027-0.104c-0.127-0.471-0.253-1.078-0.347-1.696l-0.012-0.099c-0.002-0.183-0.106-0.342-0.258-0.422l-0.003-0.001c-0.491-0.288-1.086-0.588-1.699-0.853l-0.111-0.043c-0.11-0.049-0.257-0.034-0.351-0.098-0.249-0.17-0.484-0.378-0.726-0.559l0.782-0.378c0.643-0.299 1.274-0.62 1.927-0.888 0.259-0.083 0.443-0.321 0.443-0.602 0-0.007 0-0.015 0-0.022v0.001c0.122-1.206 0.434-2.31 0.907-3.325l-0.026 0.063c0.533-1.183 1.135-2.199 1.834-3.14l-0.032 0.044c0.067-0.127 0.106-0.278 0.106-0.438 0-0.090-0.013-0.178-0.036-0.261l0.002 0.007c-0.098-0.412-0.299-0.801-0.404-1.217-0.013-0.105-0.020-0.226-0.020-0.35s0.007-0.245 0.021-0.364l-0.001 0.014c0.253 0.003 0.499 0.022 0.74 0.056l-0.030-0.003c0.417 0.031 0.803 0.138 1.153 0.307l-0.019-0.008c0.378 0.257 0.597 0 0.839-0.11 0.342-0.211 0.637-0.425 0.914-0.659l-0.011 0.009c0.938-0.703 2.053-1.228 3.264-1.501l0.058-0.011c1.134-0.234 1.584-0.903 1.867-1.89 0.125-0.415 0.254-0.756 0.401-1.086l-0.023 0.058c0.046-0.069 0.123-0.113 0.211-0.113 0.002 0 0.003 0 0.005 0v0c0.078 0.029 0.136 0.095 0.155 0.176v0.002c0 0.692 0 1.383 0 2.075z"></path>
<path fill="#fff" d="M17.865 29.593c0-0.692 0-1.383 0-2.075 0-0.242 0.034-0.427 0.348-0.435 0.11 0 0.223-0.136 0.336-0.136 0.983 0 1.795-0.544 2.683-0.843 0.756-0.253 1.304-0.797 1.943-1.209 1.291-0.875 2.324-2.037 3.022-3.399l0.024-0.051c0.465-0.916 0.889-1.993 1.211-3.114l0.033-0.133c0.042-0.239 0.065-0.514 0.065-0.795 0-0.217-0.014-0.43-0.042-0.639l0.003 0.025c-0.010-0.183-0.016-0.397-0.016-0.612s0.006-0.429 0.017-0.642l-0.001 0.030c0.14-1.372-0.325-2.608-0.805-3.851-0.495-1.255-1.17-2.333-2.008-3.264l0.009 0.010c-0.824-0.937-1.844-1.576-2.835-2.268-0.631-0.394-1.365-0.701-2.147-0.882l-0.049-0.010c-0.518-0.155-0.986-0.563-1.591-0.442-0.045 0-0.193-0.223-0.197-0.344-0.023-0.567 0-1.134 0-1.697 0-0.85 0-1.697 0-2.547 0.019-0.096 0.048-0.18 0.086-0.26l-0.003 0.007c0.049 0.091 0.102 0.181 0.144 0.272 0.336 0.756 0.654 1.512 1.013 2.268 0.102 0.193 0.274 0.338 0.482 0.403l0.006 0.002c1.047 0.249 1.966 0.59 2.827 1.027l-0.072-0.033c0.76 0.287 1.413 0.689 1.975 1.192l-0.006-0.005c0.249 0.208 0.534 0.383 0.843 0.513l0.022 0.008c0.046 0.016 0.099 0.026 0.155 0.026s0.109-0.009 0.158-0.027l-0.003 0.001c0.563-0.132 1.134-0.287 1.689-0.416 0.325-0.079 0.427 0.034 0.351 0.378-0.121 0.567-0.238 1.134-0.401 1.693-0.060 0.212-0.128 0.408 0.023 0.571 0.336 0.359 0.378 0.907 0.847 1.175 0.064 0.038 0.087 0.159 0.125 0.242 0.65 1.421 1.372 2.808 1.489 4.414 0.006 0.545 0.379 1.001 0.884 1.132l0.008 0.002c0.642 0.2 1.243 0.533 1.863 0.79 0.145 0.050 0.324 0.097 0.508 0.132l0.025 0.004c0.094 0.036 0.171 0.072 0.246 0.111l-0.011-0.006c-0.049 0.038-0.087 0.091-0.14 0.11-0.756 0.306-1.432 0.824-2.268 0.986-0.633 0.125-1.107 0.663-1.134 1.316v0.003c-0.144 1.142-0.455 2.179-0.911 3.134l0.026-0.061c-0.47 1.046-1.026 1.947-1.682 2.765l0.019-0.025c-0.378 0.465-0.072 0.926-0.038 1.383 0 0.17 0.212 0.325 0.234 0.499 0.010 0.133 0.016 0.288 0.016 0.444s-0.006 0.311-0.017 0.465l0.001-0.021c-0.071 0.006-0.153 0.009-0.236 0.009-0.232 0-0.459-0.025-0.677-0.073l0.021 0.004c-1.296-0.495-1.293-0.51-2.415 0.219-0.076 0.049-0.132 0.136-0.208 0.189-0.795 0.54-1.704 1.027-2.664 1.416l-0.099 0.035c-0.359 0.155-0.775 0.27-1.21 0.323l-0.022 0.002c-0.316 0.046-0.574 0.259-0.682 0.546l-0.002 0.006c-0.333 0.756-0.642 1.512-0.964 2.268-0.030 0.058-0.063 0.107-0.1 0.153l0.001-0.002c-0.038-0.076-0.11-0.147-0.11-0.219 0-0.726 0-1.448 0-2.169z"></path>
<path fill="#fff" d="M19.434 12.997c0 0.030 0 0.249-0.049 0.465-0.045 0.317 0.038 0.427 0.351 0.416 0.049 0 0.144-0.106 0.136-0.125-0.193-0.404-0.045-0.756 0.057-1.164 0.035-0.23 0.054-0.496 0.054-0.766 0-0.193-0.010-0.384-0.030-0.573l0.002 0.024c0-0.129-0.023-0.257-0.034-0.378 0.16 0.002 0.311 0.034 0.451 0.090l-0.009-0.003c0.626 0.359 1.154 0.813 1.583 1.35l0.008 0.011c0.378 0.559 0.82 1.081 0.971 1.761 0.051 0.175 0.080 0.377 0.080 0.585 0 0.019 0 0.038-0.001 0.057v-0.003c0 0.113-0.136 0.238-0.242 0.314-0.116 0.062-0.255 0.122-0.399 0.171l-0.021 0.006c-0.306 0.155-0.351 0.31-0.163 0.567 0.081 0.099 0.167 0.187 0.262 0.266l0.003 0.002c0.253 0.219 0.246 0.446-0.026 0.605s-0.567 0.265-0.563 0.665c0 0.060-0.174 0.163-0.272 0.174-0.249 0.023-0.503 0-0.756 0-0.525 0.023-0.797 0.246-0.813 0.79 0 0.408-0.132 0.559-0.54 0.54-0.249 0-0.378 0.174-0.419 0.419-0.044 0.293-0.127 0.558-0.245 0.802l0.007-0.016c-0.195 0.298-0.398 0.557-0.62 0.798l0.004-0.004c-0.283-0.283-0.057-0.639-0.125-0.952 0-0.091 0-0.197 0-0.28s-0.098-0.185-0.155-0.189-0.287 0-0.329 0.087c-0.106 0.181-0.14 0.404-0.231 0.597-0.082 0.134-0.171 0.25-0.27 0.357l0.001-0.001c-0.054-0.108-0.099-0.234-0.13-0.366l-0.002-0.012c-0.023-0.185 0-0.378 0-0.563-0.030-0.378-0.166-0.484-0.533-0.503-0.204 0-0.378 0.019-0.378 0.291 0.003 0.028 0.004 0.060 0.004 0.093s-0.002 0.065-0.005 0.097v-0.004c-0.038 0.272-0.079 0.54-0.121 0.809-0.404-0.030-0.378-0.416-0.529-0.654-0.048-0.082-0.116-0.148-0.198-0.191l-0.003-0.001c-0.068-0.027-0.147-0.043-0.23-0.043-0.044 0-0.088 0.005-0.13 0.013l0.004-0.001c-0.053 0-0.117 0.159-0.106 0.231 0.068 0.378 0.159 0.779 0.238 1.168 0.002 0.034 0.003 0.075 0.003 0.115s-0.001 0.081-0.003 0.121v-0.006c-0.098-0.049-0.238-0.068-0.283-0.144-0.328-0.488-0.637-1.047-0.898-1.634l-0.028-0.071c-0.113-0.306-0.2-0.412-0.491-0.378-0.355 0.042-0.522-0.091-0.495-0.472 0-0.208 0-0.548-0.098-0.605-0.329-0.174-0.665-0.423-1.085-0.287-0.219 0.068-0.419 0.106-0.518-0.2-0.113-0.29-0.32-0.523-0.583-0.666l-0.007-0.003c-0.193-0.117-0.193-0.306-0.023-0.472 0.096-0.084 0.183-0.173 0.261-0.268l0.003-0.004c0.302-0.378 0.204-0.733-0.302-0.756s-0.51-0.253-0.469-0.597c0.017-0.23 0.063-0.443 0.134-0.645l-0.005 0.018c0.394-1.004 1.011-1.847 1.793-2.498l0.010-0.008c0.069-0.052 0.149-0.095 0.235-0.126l0.006-0.002c0.249-0.11 0.578-0.378 0.737-0.291 0.351 0.174-0.023 0.476-0.023 0.726 0 0.416-0.185 0.877 0.193 1.247 0.057 0.057 0.038 0.204 0.034 0.306-0.027 0.126-0.042 0.271-0.042 0.42 0 0.013 0 0.026 0 0.039v-0.002c0.038 0.102 0.123 0.179 0.228 0.204h0.002c0.087 0 0.257-0.11 0.257-0.17-0.009-0.334-0.036-0.651-0.081-0.963l0.005 0.044c-0.034-0.131-0.059-0.283-0.068-0.44v-0.006c0.018-0.135 0.132-0.237 0.27-0.237 0.078 0 0.149 0.033 0.199 0.086v0c0.446 0.378 0.915 0.756 1.334 1.156 0.333 0.321 0.918 0.204 1.134 0.699 0 0 0.125 0.023 0.17 0 0.503-0.299 1.017-0.582 1.512-0.911 0.355-0.242 0.673-0.544 1.013-0.813 0.113-0.087 0.242-0.159 0.378-0.238 0.023 0.151 0.049 0.302 0.068 0.454-0.023 0.076-0.023 0.17-0.023 0.45zM14.543 17.873c0.295-0.253 0.597-0.499 0.869-0.756 0.045-0.045 0-0.257-0.072-0.336-0.267-0.311-0.549-0.591-0.851-0.849l-0.011-0.009c-0.299-0.242-0.612-0.087-0.805 0.261-0.261 0.465 0.042 0.847 0.178 1.221 0.057 0.189 0.408 0.291 0.669 0.469zM18.492 17.82s0.087 0 0.121-0.042c0.239-0.26 0.463-0.544 0.664-0.844l0.016-0.026c0.034-0.090 0.053-0.195 0.053-0.304 0-0.306-0.153-0.575-0.387-0.737l-0.003-0.002c-0.333-0.181-0.514 0.079-0.711 0.276-0.218 0.18-0.409 0.38-0.576 0.6l-0.006 0.009c-0.098 0.163-0.159 0.518-0.072 0.593 0.254 0.181 0.544 0.341 0.852 0.466l0.029 0.010zM17.306 16.55c-0.010-0.278-0.238-0.499-0.517-0.499-0.044 0-0.087 0.006-0.129 0.016l0.004-0.001c-0.082 0.042-0.179 0.067-0.282 0.067-0.079 0-0.155-0.015-0.225-0.042l0.004 0.001c-0.045-0.023-0.098-0.036-0.154-0.036-0.19 0-0.344 0.154-0.344 0.344 0 0.034 0.005 0.068 0.014 0.099l-0.001-0.002c0.153 0.399 0.334 0.743 0.549 1.062l-0.012-0.019c0.057 0.087 0.378 0.144 0.404 0.095 0.231-0.336 0.435-0.707 0.669-1.085z"></path>
</svg>
