<!-- Generated by IcoMoon.io -->
<svg version="1.1" xmlns="http://www.w3.org/2000/svg" width="33" height="32" viewBox="0 0 33 32">
<title>bladeborn-zarbag</title>
<path fill="#fff" d="M22.516 16.017c-0.016 0.212-0.026 0.46-0.026 0.709s0.009 0.497 0.028 0.742l-0.002-0.033c0.009 0.083 0.015 0.18 0.015 0.278 0 0.692-0.265 1.323-0.699 1.796l0.002-0.002c-0.58 0.695-1.122 1.469-1.596 2.287l-0.043 0.080c-0.207 0.349-0.557 0.594-0.968 0.655l-0.007 0.001c-1.267 0.258-2.542 0.489-3.794 0.721-0.019 0.002-0.042 0.003-0.064 0.003-0.103 0-0.199-0.025-0.284-0.070l0.003 0.002c-0.328-0.157-0.595-0.305-0.854-0.466l0.038 0.022c-0.683-0.413-1.354-0.846-2.037-1.259-0.759-0.455-1.362-0.983-1.32-1.988-0.041-0.331-0.122-0.632-0.24-0.914l0.008 0.023c-0.019-0.072-0.030-0.201 0-0.22 0.047-0.031 0.105-0.049 0.167-0.049 0.034 0 0.066 0.005 0.097 0.015l-0.002-0.001c0.265 0.123 0.494 0.271 0.698 0.447l-0.004-0.003c0.339 0.321 0.798 0.518 1.302 0.518 0.089 0 0.177-0.006 0.263-0.018l-0.010 0.001c0.071-0.012 0.152-0.018 0.235-0.018s0.165 0.007 0.244 0.020l-0.009-0.001c0.759 0.163 1.203-0.311 1.544-0.842s0.508-1.062 0.941-1.495c0.046-0.048 0.075-0.114 0.075-0.186 0-0.149-0.121-0.269-0.269-0.269-0.006 0-0.013 0-0.019 0.001h0.001c-0.285-0.019-0.569 0-0.854 0-0.117-0.024-0.221-0.064-0.317-0.117l0.006 0.003c0.031-0.131 0.081-0.246 0.147-0.35l-0.003 0.005c0.414-0.451 0.831-0.903 1.271-1.332 0.186-0.178 0.171-0.273 0-0.44-0.512-0.474-0.994-0.986-1.518-1.445-0.153-0.161-0.368-0.262-0.607-0.262-0.116 0-0.227 0.024-0.328 0.067l0.005-0.002c-0.612 0.213-1.39 0.425-2.184 0.591l-0.134 0.024c-0.018 0.004-0.038 0.006-0.059 0.006-0.071 0-0.135-0.027-0.184-0.071v0c-0.018-0.036-0.029-0.078-0.029-0.123s0.011-0.087 0.029-0.125l-0.001 0.002c0.516-0.922 1.047-1.832 1.559-2.754 0.114-0.197 0.201-0.379 0.478-0.349 0.831 0.091 1.571-0.319 2.367-0.432 1.028-0.123 1.949-0.312 2.841-0.569l-0.125 0.031c0.759-0.239 1.062-0.061 1.423 0.645 0.526 1.121 1.181 2.085 1.964 2.928l-0.007-0.007c0.846 0.838 0.865 1.745 0.842 2.754-0.008 0.273 0 0.558 0 0.838zM19.246 13.657v0c-0.098-0.009-0.213-0.014-0.328-0.014s-0.23 0.005-0.343 0.015l0.015-0.001c-0.543 0.095-1.241 0.129-1.453 0.63-0.171 0.379 0.345 0.85 0.592 1.263 0.040 0.050 0.082 0.095 0.128 0.136l0.001 0.001c0.118 0.152 0.228 0.156 0.379 0 0.554-0.63 1.115-1.248 1.665-1.878 0-0.019-0.046-0.152-0.076-0.156-0.205-0.004-0.395 0.004-0.58 0.004zM19.435 18.969l-0.076-0.512c-0.182 0.167-0.379 0.322-0.543 0.505s-0.174 0.33-0.296 0.459-0.099 0.235 0.019 0.379c0.107 0.163 0.289 0.269 0.496 0.269 0.088 0 0.172-0.019 0.248-0.054l-0.004 0.002c0.118-0.064 0.114-0.379 0.152-0.569 0.007-0.079 0.011-0.17 0.011-0.263 0-0.074-0.003-0.148-0.008-0.221l0.001 0.010zM16.78 18.255l-0.102-0.543c-0.148 0.19-0.3 0.379-0.451 0.565-0.105 0.112-0.2 0.236-0.283 0.369l-0.006 0.010c-0.087 0.171-0.121 0.379 0.121 0.455s0.402 0.114 0.603 0.171c0.038-0.174 0.083-0.345 0.114-0.52 0.008-0.095 0.012-0.205 0.012-0.316 0-0.066-0.002-0.132-0.005-0.198v0.009zM17.777 17.823c-0.057 0.053-0.156 0.099-0.174 0.163-0.010 0.057-0.016 0.123-0.016 0.19s0.006 0.133 0.017 0.196l-0.001-0.007c0.027 0.296 0.072 0.596 0.106 0.892 0.486-0.023 0.41-0.577 0.721-0.759 0.034 0 0-0.25-0.061-0.307-0.169-0.124-0.361-0.245-0.562-0.352l-0.026-0.012z"></path>
<path fill="#fff" d="M17.732 29.568c0-0.694 0-1.389 0-2.083 0-0.258 0.072-0.379 0.379-0.432 0.523-0.072 0.981-0.168 1.427-0.294l-0.073 0.018c1.777-0.493 3.309-1.375 4.558-2.554l-0.005 0.005c0.871-0.832 1.637-1.762 2.286-2.774l0.036-0.060c0.084-0.119 0.157-0.256 0.212-0.401l0.004-0.013c0.3-0.907 0.596-1.813 0.876-2.728 0.081-0.242 0.133-0.521 0.144-0.81v-0.005c0-0.884 0-1.768 0-2.656-0.003-0.716-0.147-1.397-0.404-2.020l0.013 0.036c-0.118-0.315-0.22-0.634-0.326-0.956-0.48-1.413-1.24-2.622-2.22-3.612l0.001 0.001c-0.844-0.868-1.815-1.606-2.885-2.184l-0.063-0.031c-1.115-0.596-2.314-0.823-3.456-1.275-0.131-0.053-0.236-0.149-0.298-0.27l-0.002-0.003c-0.103-0.237-0.172-0.512-0.193-0.8v-0.008c-0.023-1.070 0-2.143 0-3.217-0.003-0.024-0.004-0.052-0.004-0.080 0-0.071 0.010-0.14 0.028-0.206l-0.001 0.005c0.045-0.071 0.112-0.126 0.191-0.155l0.003-0.001c0.005-0.001 0.011-0.001 0.017-0.001 0.057 0 0.107 0.027 0.139 0.069v0c0.125 0.209 0.252 0.458 0.363 0.716l0.016 0.043c0.224 0.546 0.406 1.104 0.641 1.639 0.090 0.156 0.23 0.274 0.397 0.336l0.005 0.002c0.467 0.156 0.952 0.254 1.423 0.402 1.135 0.376 2.121 0.891 3.004 1.538l-0.030-0.021c0.253 0.158 0.472 0.322 0.677 0.502l-0.006-0.005c0.455 0.47 0.96 0.448 1.517 0.25 0.339-0.121 0.757-0.235 1.185-0.32l0.060-0.010c0.064 0 0.243 0.178 0.25 0.288 0.002 0.039 0.003 0.085 0.003 0.131 0 0.512-0.142 0.991-0.389 1.399l0.007-0.012c-0.266 0.493-0.25 0.558 0.064 0.99 0.633 0.836 1.183 1.789 1.607 2.809l0.032 0.086c0.367 0.856 0.64 1.85 0.772 2.888l0.006 0.056c0.019 0.513 0.376 0.938 0.853 1.061l0.008 0.002c0.865 0.239 1.593 0.854 2.523 0.903 0.046 0 0.087 0.065 0.133 0.099-0.041 0.042-0.087 0.080-0.137 0.112l-0.003 0.002c-0.628 0.385-1.351 0.717-2.115 0.959l-0.070 0.019c-0.671 0.154-1.172 0.723-1.221 1.418v0.005c-0.273 2.068-1.087 3.908-2.293 5.421l0.017-0.022c-0.58 0.728-0.402 1.332-0.243 2.033 0.023 0.091 0.080 0.171 0.106 0.262 0.076 0.277 0.144 0.558 0.216 0.838-0.139 0.011-0.301 0.017-0.465 0.017s-0.326-0.006-0.486-0.018l0.021 0.001c-0.274-0.075-0.506-0.159-0.729-0.259l0.031 0.013c-0.142-0.050-0.305-0.079-0.476-0.079-0.315 0-0.606 0.099-0.845 0.268l0.005-0.003c-0.957 0.657-2.051 1.258-3.204 1.748l-0.123 0.047c-0.383 0.168-0.83 0.3-1.295 0.375l-0.032 0.004c-0.384 0.032-0.697 0.298-0.799 0.654l-0.002 0.006c-0.269 0.683-0.577 1.354-0.869 2.030-0.037 0.095-0.079 0.176-0.128 0.252l0.003-0.005c-0.034 0.042-0.085 0.069-0.143 0.069-0.005 0-0.009 0-0.014-0.001h0.001c-0.076-0.030-0.174-0.091-0.19-0.156-0.019-0.107-0.030-0.23-0.030-0.356 0-0.040 0.001-0.080 0.003-0.12v0.006c0-0.599 0-1.199 0-1.798z"></path>
<path fill="#fff" d="M5.182 26.507c0.057-0.205 0.121-0.41 0.171-0.618 0.087-0.379 0.144-0.793 0.262-1.172 0.034-0.093 0.054-0.2 0.054-0.312 0-0.232-0.085-0.444-0.226-0.607l0.001 0.001c-0.756-0.982-1.363-2.127-1.758-3.366l-0.022-0.079c-0.239-0.827-0.36-1.684-0.542-2.527-0.016-0.151-0.086-0.283-0.189-0.379v0c-0.425-0.247-0.865-0.463-1.313-0.671-0.524-0.247-1.066-0.467-1.59-0.721-0.027-0.049-0.043-0.107-0.043-0.168 0-0.046 0.009-0.090 0.025-0.13l-0.001 0.002c0.162-0.090 0.356-0.18 0.557-0.255l0.031-0.010c0.702-0.307 1.396-0.637 2.109-0.922 0.25-0.090 0.426-0.325 0.426-0.601 0-0.014 0-0.028-0.001-0.042v0.002c0.092-1.181 0.403-2.269 0.892-3.253l-0.023 0.051c0.152-0.303 0.22-0.649 0.379-0.941 0.449-0.791 0.879-1.454 1.344-2.090l-0.042 0.061c0.137-0.137 0.222-0.327 0.222-0.536 0-0.139-0.037-0.269-0.103-0.381l0.002 0.004c-0.177-0.437-0.319-0.948-0.401-1.478l-0.005-0.039c-0.072-0.349 0.053-0.432 0.406-0.349 0.596 0.144 1.191 0.303 1.794 0.421 0.031 0.005 0.067 0.007 0.103 0.007 0.15 0 0.29-0.044 0.408-0.119l-0.003 0.002c0.736-0.455 1.438-0.975 2.189-1.396 0.464-0.236 1.031-0.476 1.614-0.679l0.1-0.030c0.154-0.074 0.333-0.13 0.521-0.158l0.010-0.001c0.933-0.083 1.324-0.713 1.59-1.518 0.156-0.47 0.379-0.918 0.565-1.373 0.023-0.049 0.083-0.080 0.125-0.121 0.030 0.057 0.087 0.11 0.083 0.163-0.034 0.448 0.41 0.884 0.027 1.335 0.053 0.838-0.159 1.688 0.125 2.523 0.133 0.379 0.030 0.554-0.398 0.69-0.501 0.156-1.021 0.243-1.518 0.379-0.495 0.134-0.925 0.304-1.33 0.514l0.036-0.017c-1.115 0.615-2.276 1.195-3.126 2.17-0.142 0.172-0.295 0.325-0.461 0.462l-0.006 0.005c-0.869 0.66-1.358 1.624-1.897 2.515-0.455 0.759-0.637 1.707-0.918 2.576-0.33 1.039-0.148 2.117-0.197 3.175-0.002 0.067-0.003 0.147-0.003 0.227 0 1.229 0.291 2.39 0.809 3.417l-0.020-0.044c0.322 0.702 0.671 1.392 1.058 2.060 0.436 0.761 0.997 1.399 1.662 1.908l0.015 0.011c0.671 0.497 1.248 1.138 1.992 1.544 0.998 0.543 1.999 1.108 3.172 1.214 0.011 0 0.023-0.001 0.035-0.001 0.086 0 0.169 0.011 0.248 0.033l-0.007-0.002c0.846 0.379 0.922 0.095 0.888 1.138-0.023 0.713 0.114 1.434-0.156 2.147-0.080 0.212 0.118 0.527 0.156 0.8 0.091 0.622-0.083 1.104-0.193 0.986-0.171-0.216-0.309-0.468-0.401-0.741l-0.005-0.018c-0.266-0.622-0.501-1.256-0.797-1.859-0.080-0.163-0.33-0.258-0.52-0.341-0.569-0.243-1.203-0.205-1.775-0.508-1.256-0.664-2.584-1.203-3.65-2.181-0.163-0.148-0.281-0.129-0.493-0.057-0.55 0.197-1.138 0.285-1.684 0.486-0.281 0.144-0.364 0.102-0.391-0.216z"></path>
</svg>
