<!-- Generated by IcoMoon.io -->
<svg version="1.1" xmlns="http://www.w3.org/2000/svg" width="33" height="32" viewBox="0 0 33 32">
<title>bladeborn-ironskull</title>
<path fill="#fff" d="M17.761 29.492v-2.155c0-0.21 0.060-0.345 0.304-0.375 0.18-0.023 0.345-0.146 0.522-0.169 2.137-0.305 3.998-1.303 5.389-2.757l0.003-0.003c0.484-0.477 0.912-1.010 1.374-1.502 0.722-0.816 1.264-1.809 1.551-2.905l0.011-0.050c0.179-0.446 0.336-0.975 0.445-1.523l0.010-0.058c0.135-1.228 0.282-3.548-0.083-4.506-0.297-0.774-0.375-1.615-0.774-2.339-0.404-0.795-0.848-1.479-1.355-2.112l0.018 0.024c-0.948-1.144-2.065-2.105-3.321-2.859l-0.058-0.032c-0.736-0.433-1.593-0.759-2.505-0.928l-0.049-0.007c-1.502-0.267-1.502-0.349-1.502-1.877 0-0.905 0-1.814 0-2.719 0.003-0.197 0.022-0.388 0.056-0.573l-0.003 0.021c0-0.034 0.090-0.075 0.143-0.079s0.139 0.023 0.154 0.060c0.154 0.376 0.289 0.751 0.443 1.104s0.375 0.841 0.567 1.258c0.312 0.642 0.991 0.751 1.547 0.879 1.285 0.347 2.406 0.918 3.374 1.675l-0.021-0.016c0.31 0.276 0.67 0.504 1.064 0.667l0.025 0.009c0.076 0.009 0.165 0.014 0.254 0.014 0.285 0 0.557-0.050 0.81-0.143l-0.016 0.005c0.323-0.071 0.638-0.203 0.961-0.289s0.499 0.113 0.421 0.409c-0.139 0.499-0.285 0.999-0.462 1.502-0.045 0.098-0.072 0.213-0.072 0.333 0 0.2 0.073 0.383 0.193 0.524l-0.001-0.001c0.41 0.511 0.8 1.083 1.145 1.685l0.034 0.065c0.226 0.461 0.453 1.025 0.644 1.606l0.028 0.099c0.317 0.73 0.526 1.576 0.581 2.464l0.001 0.021c0 0.007 0 0.016 0 0.024 0 0.35 0.23 0.647 0.547 0.748l0.006 0.002c0.927 0.308 1.742 0.909 2.741 1.029 0.063 0.017 0.118 0.040 0.169 0.069l-0.003-0.002c-0.045 0.053-0.086 0.131-0.146 0.161-0.691 0.312-1.367 0.676-2.084 0.916-0.704 0.159-1.226 0.766-1.254 1.499v0.003c-0.183 1.326-0.594 2.523-1.194 3.601l0.027-0.052c-0.404 0.757-0.824 1.404-1.291 2.013l0.025-0.034c-0.162 0.204-0.26 0.466-0.26 0.75 0 0.118 0.017 0.232 0.048 0.34l-0.002-0.009c0.051 0.488 0.173 0.936 0.357 1.35l-0.011-0.028c0.184 0.342 0.034 0.529-0.375 0.514-0.227-0.020-0.436-0.070-0.632-0.144l0.016 0.005c-0.293-0.098-0.582-0.199-0.86-0.323-0.101-0.050-0.221-0.080-0.347-0.080-0.227 0-0.432 0.096-0.576 0.249v0c-0.796 0.631-1.702 1.182-2.672 1.613l-0.080 0.032c-0.541 0.236-1.224 0.481-1.924 0.687l-0.133 0.034c-0.33 0.065-0.589 0.309-0.674 0.625l-0.001 0.006c-0.304 0.829-0.62 1.521-0.981 2.185l0.043-0.086c-0.041 0.086-0.184 0.131-0.278 0.195-0.035-0.075-0.061-0.162-0.074-0.254l-0.001-0.005c0.030-0.706 0.030-1.393 0.030-2.080z"></path>
<path fill="#fff" d="M5.37 26.251c0.083-0.446 0.175-0.819 0.286-1.183l-0.020 0.075c0.076-0.187 0.12-0.405 0.12-0.633 0-0.417-0.147-0.799-0.393-1.098l0.002 0.003c-1.127-1.434-1.588-3.135-2.046-4.848-0.015-0.056-0.023-0.121-0.023-0.188s0.008-0.131 0.024-0.193l-0.001 0.005c0.15-0.582-0.252-0.83-0.638-1.081-0.141-0.080-0.307-0.156-0.48-0.218l-0.024-0.007c-0.672-0.278-1.348-0.556-2.013-0.845-0.075-0.034-0.113-0.143-0.165-0.218 0.075-0.038 0.154-0.079 0.233-0.113l2.546-1.040c0.315-0.128 0.534-0.43 0.537-0.784v0c0.262-2.342 1.196-4.428 2.602-6.105l-0.014 0.018c0.122-0.11 0.199-0.269 0.199-0.446 0-0.079-0.015-0.154-0.042-0.222l0.001 0.004c-0.191-0.541-0.33-1.108-0.477-1.667-0.090-0.349 0.105-0.503 0.484-0.406 0.575 0.103 1.079 0.242 1.564 0.422l-0.062-0.020c0.079 0.038 0.172 0.061 0.271 0.061 0.153 0 0.293-0.054 0.403-0.144l-0.001 0.001c0.751-0.458 1.502-0.988 2.253-1.408 0.519-0.261 1.163-0.532 1.825-0.765l0.124-0.038c0.198-0.080 0.435-0.152 0.679-0.202l0.027-0.005c0.366-0.061 0.656-0.329 0.749-0.677l0.002-0.006c0.274-0.713 0.713-1.359 0.871-2.125 0-0.049 0.071-0.094 0.109-0.139 0.030 0.053 0.086 0.101 0.090 0.154 0 0.184 0 0.376 0 0.559 0 0.939 0 1.877 0 2.813-0.001 0.026-0.001 0.058-0.001 0.089 0 0.197 0.017 0.39 0.049 0.577l-0.003-0.020c0.098 0.541 0.083 0.556-0.376 0.695-0.875 0.255-1.761 0.488-2.628 0.811-1.016 0.416-1.887 0.98-2.634 1.676l0.005-0.005c-0.646 0.533-1.219 1.113-1.728 1.746l-0.018 0.023c-0.522 0.71-1.1 1.397-1.352 2.309-0.139 0.503-0.601 0.924-0.529 1.528-0.503 0.856-0.334 1.802-0.375 2.726 0 0.342 0 0.687 0 1.029 0 0.001 0 0.003 0 0.004 0 1.196 0.277 2.328 0.771 3.334l-0.020-0.045c0.31 0.845 0.69 1.575 1.149 2.246l-0.022-0.035c0.792 0.996 1.654 1.875 2.599 2.657l0.030 0.024c0.86 0.713 1.877 1.104 2.861 1.596 0.338 0.134 0.731 0.228 1.14 0.265l0.017 0.001c0.18 0.034 0.376 0 0.552 0.045 0.676 0.161 0.676 0.169 0.683 0.856 0 0.466 0 0.935 0 1.404 0 0.849-0.244 1.69 0 2.542 0.026 0.105-0.083 0.252-0.128 0.375-0.086-0.083-0.233-0.154-0.252-0.252-0.18-0.819-0.687-1.502-0.927-2.279-0.068-0.232-0.232-0.416-0.445-0.509l-0.005-0.002c-0.048-0.031-0.105-0.053-0.167-0.060h-0.002c-1.127-0.116-2.095-0.676-3.079-1.157-0.793-0.423-1.472-0.866-2.109-1.361l0.033 0.024c-0.263-0.192-0.409-0.375-0.789-0.177-0.425 0.167-0.929 0.312-1.449 0.409l-0.053 0.008c-0.372 0.116-0.398 0.116-0.398-0.391z"></path>
<path fill="#fff" d="M13.762 17.288c-0.12 0-0.282-0.053-0.376 0-0.706 0.571-1.472-0.034-2.197 0.12-0.045 0-0.199-0.177-0.188-0.255 0.094-0.537-0.496-0.687-0.623-1.104 0-0.049-0.342-0.064-0.484 0-0.308 0.131-0.432 0-0.398-0.267 0.045-0.376-0.188-0.623-0.357-0.92-0.21-0.376-0.447-0.237-0.695-0.131-0.124 0.053-0.282 0.248-0.323 0.222-0.233-0.146-0.034-0.304 0-0.469s0.034-0.3-0.030-0.349c-0.439-0.342-0.15-0.556 0.101-0.8 0.315-0.3 0.612-0.627 0.935-0.92 0.128-0.116 0.319-0.267 0.466-0.252 0.571 0.060 0.939-0.304 1.295-0.612 0.373-0.359 0.716-0.741 1.030-1.147l0.018-0.024c0.101-0.116 0.207-0.233 0.315-0.342 0.053-0.078 0.141-0.128 0.24-0.128s0.188 0.050 0.24 0.127l0.001 0.001c0.214 0.259 0.376 0.552 0.623 0.796 0.674 0.757 1.365 1.452 2.091 2.108l0.023 0.021c0.248 0.21 0.605 0.424 0.259 0.841-0.026 0.034 0.038 0.177 0.090 0.24 0.533 0.605 1.055 1.217 1.611 1.799 0.327 0.338 0.424 0.323 0.785 0.026s0.811-0.665 1.202-1.014c0.279-0.269 0.506-0.591 0.665-0.95l0.008-0.019c0.146-0.304 0.642-0.432 0.958-0.672 0.132-0.123 0.234-0.277 0.294-0.45l0.002-0.008c0.394-1.029 0.897-2.024 0.882-3.165-0.007-0.017-0.011-0.037-0.011-0.057 0-0.083 0.067-0.15 0.15-0.15 0.071 0 0.131 0.050 0.146 0.117v0.001c0.616 0.601 1.307 1.153 1.502 2.058 0.068 0.297 0.086 0.608 0.18 0.894 0.058 0.339 0.255 0.623 0.528 0.797l0.005 0.003c0.225 0.116 0.173 0.394-0.056 0.526-0.090 0.034-0.207 0.070-0.326 0.1l-0.024 0.005c-0.774 0.304-0.958 0.882-0.529 1.6 0.142 0.216 0.255 0.466 0.326 0.733l0.004 0.018c0.094 0.481 0 0.552-0.552 0.466-0.084-0.019-0.18-0.030-0.279-0.030-0.393 0-0.746 0.17-0.989 0.441l-0.001 0.001c-0.285 0.33-0.458 0.248-0.725 0-0.203-0.168-0.438-0.309-0.692-0.411l-0.018-0.006c-0.473-0.229-0.548-0.188-0.672 0.33-0.098 0.406-0.094 0.402-0.375 0.18-0.143-0.109-0.233-0.413-0.496-0.116s-0.33 0.357 0 0.721c0.492 0.552 1.010 1.089 1.502 1.648 0.326 0.313 0.602 0.676 0.815 1.077l0.011 0.023c0.087 0.294 0.282 0.532 0.539 0.673l0.006 0.003c0.334 0.173 0.285 0.499 0.21 0.822-0.089 0.323-0.38 0.556-0.725 0.556-0.009 0-0.018 0-0.027 0h0.001c-0.3 0.030-0.695-0.131-0.698-0.451 0-0.421-0.259-0.563-0.503-0.796-0.244-0.261-0.46-0.552-0.641-0.867l-0.012-0.023c-0.489-0.738-1.035-1.378-1.649-1.946l-0.007-0.006c-0.188-0.18-0.319-0.143-0.394 0.109 0 0.060-0.071 0.105-0.094 0.161-0.101 0.172-0.284 0.285-0.494 0.285-0.076 0-0.149-0.015-0.216-0.042l0.004 0.001c-0.021-0.004-0.045-0.006-0.069-0.006-0.084 0-0.162 0.028-0.225 0.075l0.001-0.001c-0.247 0.195-0.468 0.391-0.676 0.6v0c-0.488 0.496-0.988 0.984-1.427 1.502-0.274 0.334-0.751 0.481-0.819 1.040-0.030 0.297-0.785 0.375-1.066 0.146s-0.402-0.751-0.139-0.958c0.417-0.323 0.597-0.834 1.127-1.093s0.871-0.789 1.295-1.202c0.289-0.285 0.582-0.567 0.856-0.867 0.090-0.101 0.214-0.315 0.173-0.375-0.066-0.1-0.106-0.222-0.106-0.354 0-0.263 0.157-0.49 0.383-0.59l0.004-0.002c0.353-0.225 0.195-0.3 0.030-0.499-0.376-0.451-0.717-0.92-1.074-1.382-0.834-0.139-1.269-0.834-1.877-1.31-0.278-0.225-0.582 0-0.751 0.184-0.146 0.154-0.236 0.364-0.236 0.594 0 0.049 0.004 0.097 0.012 0.144l-0.001-0.005c0.239 0.472 0.503 0.878 0.803 1.253l-0.011-0.014c0.324 0.4 0.794 0.671 1.328 0.731l0.009 0.001c0.154 0.034 0.237 0.098 0.124 0.233-0.149 0.25-0.418 0.416-0.726 0.416-0.046 0-0.091-0.004-0.135-0.011l0.005 0.001zM21.892 21.591c-0.147 0.060-0.271 0.121-0.389 0.191l0.013-0.007c-0.060 0.041-0.131 0.165-0.109 0.207 0.047 0.113 0.133 0.201 0.241 0.25l0.003 0.001c0.012 0.002 0.026 0.002 0.040 0.002 0.105 0 0.198-0.047 0.26-0.122v-0.001c0.059-0.122 0.096-0.264 0.101-0.415v-0.002c-0.008-0.026-0.094-0.064-0.161-0.105zM13.206 22.429c0.080-0.114 0.153-0.243 0.212-0.38l0.005-0.014c0.023-0.124-0.33-0.443-0.406-0.375-0.058 0.061-0.094 0.143-0.094 0.233 0 0.017 0.001 0.034 0.004 0.050v-0.002c0.086 0.187 0.181 0.347 0.291 0.496l-0.005-0.008z"></path>
</svg>
