<!-- Generated by IcoMoon.io -->
<svg version="1.1" xmlns="http://www.w3.org/2000/svg" width="33" height="32" viewBox="0 0 33 32">
<title>bladeborn-morgwaeth</title>
<path fill="#fff" d="M14.898 29.834c0 0.627 0 1.25 0 1.877-0.026 0.11-0.067 0.206-0.122 0.293l0.002-0.004c-0.068-0.079-0.132-0.166-0.187-0.258l-0.005-0.008c-0.288-0.519-0.585-1.148-0.842-1.797l-0.040-0.114c-0.143-0.428-0.417-0.522-0.751-0.672-1.235-0.533-2.602-0.773-3.698-1.626-0.12-0.090-0.3-0.124-0.375-0.237-0.841-1.014-1.877-0.961-2.966-0.552-0.171 0.049-0.374 0.088-0.583 0.108l-0.014 0.001c0-0.233 0-0.466 0.030-0.695 0.004-0.137 0.034-0.265 0.085-0.382l-0.003 0.007c0.417-0.819 0.252-1.476-0.263-2.253-1.072-1.507-1.791-3.336-1.997-5.317l-0.004-0.049c-0.013-0.358-0.257-0.657-0.588-0.75l-0.006-0.001c-0.725-0.334-1.453-0.668-2.174-1.010-0.142-0.081-0.265-0.167-0.379-0.262l0.004 0.003c0.099-0.104 0.21-0.196 0.331-0.274l0.007-0.004c0.331-0.168 0.75-0.349 1.179-0.508l0.090-0.029c0.845-0.285 1.43-0.578 1.596-1.716 0.319-2.143 1.217-4.034 2.528-5.56l-0.012 0.015c0.1-0.165 0.159-0.364 0.159-0.577 0-0.094-0.011-0.185-0.033-0.272l0.002 0.008c-0.098-0.507-0.323-0.987-0.436-1.502-0.064-0.278-0.143-0.721 0.436-0.409 0.128 0.068 0.334 0 0.458 0.064 1.051 0.616 1.9 0.244 2.778-0.432 0.919-0.678 2.001-1.196 3.173-1.489l0.063-0.013c0.816-0.183 1.458-0.782 1.7-1.557l0.004-0.016c0.224-0.651 0.45-1.185 0.706-1.702l-0.038 0.084c0.049-0.113 0.191-0.188 0.293-0.282 0.046 0.095 0.080 0.205 0.097 0.321l0.001 0.006c-0.056 1.397-0.131 2.79-0.176 4.186 0 0.428-0.214 0.533-0.612 0.646-1.332 0.355-2.456 0.751-3.54 1.222l0.161-0.062c-0.657 0.293-1.201 0.849-1.78 1.31-0.267 0.214-0.481 0.496-0.751 0.721-1.712 1.502-2.628 3.469-3.075 5.632-0.146 0.664-0.23 1.428-0.23 2.21 0 1.978 0.534 3.832 1.466 5.425l-0.027-0.051c0.79 1.46 1.859 2.674 3.145 3.606l0.031 0.021c0.86 0.566 1.849 1.087 2.887 1.512l0.117 0.042c0.465 0.174 1.039 0.339 1.627 0.465l0.085 0.015c0.284 0.053 0.497 0.299 0.497 0.595 0 0.027-0.002 0.054-0.005 0.080v-0.003c-0.049 0.653-0.026 1.314-0.026 1.967z"></path>
<path fill="#fff" d="M17.77 29.74c0-0.653 0-1.31 0-1.967-0.004-0.026-0.007-0.056-0.007-0.086 0-0.296 0.24-0.537 0.536-0.537v0c2.951-0.432 5.151-2.125 7.014-4.306 0.439-0.581 0.805-1.251 1.065-1.971l0.017-0.053c0.228-0.446 0.445-0.975 0.618-1.524l0.020-0.075c0.254-0.914 0.4-1.964 0.4-3.048 0-1.233-0.189-2.421-0.539-3.538l0.023 0.084c-0.623-2.122-1.884-3.893-3.56-5.14l-0.026-0.018c-0.451-0.323-0.897-0.65-1.352-0.961-1.061-0.711-2.319-1.219-3.674-1.438l-0.054-0.007c-0.439-0.079-0.488-0.255-0.484-0.604 0-1.28 0-2.564 0-3.845 0.016-0.114 0.042-0.217 0.078-0.315l-0.003 0.010c0.064 0.088 0.127 0.189 0.181 0.294l0.006 0.013c0.213 0.386 0.404 0.837 0.549 1.307l0.014 0.052c0.188 0.864 0.8 1.126 1.543 1.322 1.625 0.451 3.038 1.2 4.244 2.19l-0.020-0.016c0.283 0.23 0.648 0.37 1.046 0.37 0.242 0 0.473-0.052 0.681-0.145l-0.011 0.004c0.428-0.131 0.867-0.229 1.299-0.342-0.056 0.493-0.147 0.937-0.273 1.366l0.014-0.056c-0.099 0.236-0.156 0.509-0.156 0.796 0 0.516 0.185 0.988 0.493 1.354l-0.003-0.003c0.997 1.35 1.681 2.988 1.917 4.768l0.006 0.053c0.010 0.738 0.533 1.352 1.229 1.5l0.010 0.002c0.715 0.247 1.324 0.522 1.903 0.845l-0.059-0.030c0.067 0.029 0.154 0.061 0.244 0.089l0.019 0.005c-0.075 0.090-0.162 0.167-0.258 0.23l-0.004 0.003c-0.706 0.293-1.423 0.563-2.129 0.864-0.428 0.173-0.742 0.547-0.828 1.002l-0.001 0.008c-0.462 1.695-0.921 3.059-1.445 4.391l0.101-0.291c-0.215 0.538-0.515 1-0.888 1.391l0.002-0.002c-0.668 0.706-0.454 1.461-0.289 2.253 0.038 0.176 0.086 0.353 0.124 0.533 0.116 0.552 0 0.698-0.526 0.582-0.064-0.017-0.12-0.040-0.173-0.069l0.004 0.002c-0.927-0.447-1.686-0.597-2.666 0.203-1.009 0.752-2.195 1.335-3.48 1.677l-0.072 0.016c-0.82 0.207-1.463 0.811-1.722 1.59l-0.005 0.017c-0.188 0.473-0.447 0.92-0.672 1.374 0-0.499 0-0.999-0.026-1.502 0-0.218 0-0.436 0-0.657z"></path>
<path fill="#fff" d="M17.635 19.925c0.101 0.451 0.252 1.010 0.345 1.581 0 0.011 0 0.024 0 0.037 0 0.222-0.039 0.436-0.11 0.634l0.004-0.013c0 0.049-0.083 0.090-0.128 0.131l-1.577 1.547c-0.582-0.556-1.179-1.1-1.738-1.675-0.124-0.131-0.24-0.488-0.176-0.556 0.526-0.537 0.274-1.186 0.312-1.783s0-1.126 0-1.686c0-0.323 0.023-0.623-0.451-0.646-0.105 0-0.229-0.285-0.289-0.458-0.045-0.294-0.12-0.558-0.222-0.808l0.008 0.023c-0.131-0.188-0.481-0.421-0.623-0.375-0.571 0.229-0.556-0.083-0.702-0.488-0.285-0.815-0.094-1.584 0.034-2.369 0.086-0.544 0.267-0.631 0.691-0.237 0.154 0.17 0.375 0.277 0.622 0.277 0.213 0 0.407-0.079 0.554-0.21l-0.001 0.001c0.249-0.178 0.41-0.467 0.41-0.793 0-0.132-0.026-0.258-0.074-0.373l0.002 0.006c-0.126-0.291-0.335-0.526-0.598-0.68l-0.007-0.004c-0.375-0.21-0.248-0.237 0-0.466 0.488-0.443 0.875-1.002 1.348-1.468 0.668-0.668 1.021-0.661 1.66-0.083s1.126 1.126 1.682 1.701c0.026 0.026-0.049 0.225-0.109 0.244-0.417 0.124-0.751 0.375-0.751 0.807 0 0.016-0.001 0.034-0.001 0.053 0 0.388 0.126 0.746 0.338 1.037l-0.003-0.005c0.154 0.149 0.364 0.24 0.596 0.24 0.193 0 0.37-0.063 0.514-0.17l-0.002 0.002c0.695-0.375 0.751-0.375 0.897 0.375 0.065 0.283 0.103 0.609 0.103 0.943 0 0.549-0.101 1.074-0.286 1.558l0.010-0.030c-0.068 0.173-0.131 0.484-0.496 0.18s-0.792 0.041-0.871 0.375c-0.105 0.594-0.311 1.124-0.601 1.597l0.011-0.020c-0.323 0.496-0.222 1.262-0.327 2.046zM17.211 15.217c1.025 0 1.671-0.334 1.675-0.773 0-0.3-0.563-1.017-0.8-1.021-0.402 0-1.149 0.86-1.104 1.337 0.048 0.176 0.127 0.329 0.231 0.461l-0.002-0.003zM14.662 15.217l0.751-0.282c-0.102-0.285-0.207-0.521-0.327-0.749l0.015 0.032c-0.124-0.199-0.349-0.338-0.454-0.541-0.173-0.334-0.338-0.21-0.593-0.113-0.522 0.191-0.522 0.608-0.421 0.991 0.113 0.473 0.511 0.65 1.029 0.65zM14.906 19.572h0.019c0 0.589 0 1.179 0 1.772 0 0.094 0.143 0.18 0.218 0.274 0.077-0.073 0.147-0.151 0.211-0.236l0.003-0.005c0.070-0.092 0.118-0.204 0.135-0.327v-0.004q-0.071-1.618-0.18-3.225c-0.033-0.142-0.085-0.267-0.153-0.381l0.003 0.006c-0.086 0.15-0.244 0.297-0.255 0.451-0.019 0.548 0 1.104 0 1.675zM16.032 19.918v0c0 0.653 0 1.307 0 1.96 0.027 0.178 0.072 0.339 0.136 0.49l-0.005-0.013c0.094-0.139 0.27-0.278 0.274-0.421 0.019-1.4 0-2.797 0-4.198 0-0.113-0.139-0.222-0.214-0.33-0.064 0.12-0.18 0.244-0.184 0.375-0.019 0.695-0.008 1.415-0.008 2.125zM17.38 19.625c0-0.653 0-1.31 0-1.964 0-0.090-0.124-0.173-0.191-0.255-0.068 0.086-0.188 0.173-0.191 0.259 0 1.25 0 2.497 0 3.755 0 0.086 0.124 0.169 0.191 0.255 0.068-0.086 0.188-0.173 0.191-0.263 0.008-0.608 0-1.205 0-1.798zM17.094 16.621c-0.283-0.421-0.575-0.789-0.895-1.132l0.005 0.005c-0.128-0.12-0.927 0.657-0.89 0.894 0 0.124 0.15 0.315 0.248 0.327 0.356 0.041 0.769 0.064 1.187 0.064 0.012 0 0.023 0 0.035 0h-0.002c0.071 0.015 0.143-0.060 0.312-0.154z"></path>
</svg>
