<!-- Generated by IcoMoon.io -->
<svg version="1.1" xmlns="http://www.w3.org/2000/svg" width="33" height="32" viewBox="0 0 33 32">
<title>bladeborn-khagra</title>
<path fill="#fff" d="M17.638 29.665c0-0.629 0-1.254 0-1.883s0.034-0.663 0.644-0.813 1.13-0.256 1.713-0.422c1.12-0.37 2.090-0.909 2.935-1.595l-0.017 0.013c1.454-1.13 2.719-2.436 3.449-4.161 0.602-1.427 1.167-2.873 1.058-4.481-0.060-0.896 0.049-1.796-0.184-2.696-0.58-2.388-1.822-4.428-3.519-5.979l-0.009-0.008c-0.668-0.589-1.425-1.101-2.244-1.509l-0.061-0.027c-0.935-0.511-2.023-0.885-3.177-1.059l-0.054-0.007c-0.301-0.009-0.541-0.255-0.541-0.557 0-0.029 0.002-0.058 0.007-0.086v0.003q0-2.067 0-4.142c0.017-0.097 0.047-0.185 0.089-0.265l-0.002 0.005c0.064 0.056 0.154 0.102 0.188 0.173 0.288 0.523 0.57 1.144 0.805 1.787l0.030 0.096c0.14 0.554 0.596 0.971 1.16 1.053l0.008 0.001c1.077 0.25 2.027 0.639 2.893 1.155l-0.046-0.025c0.72 0.419 1.327 0.825 1.909 1.263l-0.049-0.035c0.189 0.162 0.438 0.261 0.709 0.261 0.152 0 0.297-0.031 0.428-0.087l-0.007 0.003c0.41-0.139 0.832-0.245 1.254-0.346s0.572 0.068 0.459 0.471c-0.119 0.479-0.258 0.888-0.427 1.281l0.020-0.053c-0.072 0.147-0.114 0.319-0.114 0.501 0 0.335 0.142 0.638 0.369 0.85l0.001 0.001c0.614 0.764 1.111 1.653 1.446 2.619l0.019 0.062c0.343 0.99 0.776 1.962 0.787 3.043 0 0.399 0.297 0.591 0.629 0.731l2.572 1.085c0.083 0.034 0.166 0.075 0.245 0.113-0.079 0.060-0.167 0.115-0.261 0.161l-0.010 0.004c-0.828 0.354-1.657 0.7-2.489 1.047-0.414 0.132-0.708 0.513-0.708 0.963 0 0.007 0 0.014 0 0.021v-0.001c-0.086 0.753-0.275 1.441-0.553 2.080l0.018-0.047c-0.306 0.967-0.689 1.804-1.159 2.584l0.030-0.053c-0.177 0.275-0.249 0.651-0.482 0.851-0.802 0.678-0.595 1.469-0.377 2.286 0.014 0.025 0.027 0.053 0.037 0.084l0.001 0.003c0.226 0.892 0.023 1.077-0.896 0.821-0.167-0.033-0.314-0.082-0.454-0.145l0.013 0.005c-0.2-0.112-0.44-0.179-0.694-0.179-0.404 0-0.769 0.166-1.030 0.434v0c-0.824 0.677-1.782 1.23-2.824 1.609l-0.068 0.022c-0.371 0.143-0.817 0.273-1.277 0.367l-0.056 0.009c-0.438 0.087-0.788 0.393-0.935 0.797l-0.003 0.009c-0.26 0.595-0.538 1.179-0.817 1.762-0.105 0.203-0.204 0.369-0.311 0.53l0.013-0.021c-0.036-0.175-0.066-0.393-0.085-0.614l-0.002-0.022c-0.004-0.572 0.004-1.133 0.004-1.698z"></path>
<path fill="#fff" d="M14.893 2.482c0 0.629 0 1.254 0 1.883 0 0.41-0.158 0.648-0.591 0.682-1.254 0.109-2.372 0.644-3.472 1.194-0.6 0.318-1.117 0.693-1.572 1.132l0.002-0.002c-1.062 1.002-2.135 2.011-2.805 3.348-0.562 1.071-0.968 2.317-1.146 3.636l-0.006 0.058c-0.072 0.352-0.134 0.791-0.174 1.237l-0.003 0.047c-0.001 0.061-0.002 0.133-0.002 0.204 0 3.688 1.784 6.96 4.536 9l0.030 0.021c0.567 0.435 1.206 0.851 1.877 1.215l0.077 0.038c0.562 0.258 1.216 0.461 1.9 0.577l0.047 0.007c1.299 0.245 1.303 0.218 1.303 1.551 0 1.13 0 2.259 0 3.389 0 0.098-0.083 0.196-0.128 0.297-0.041-0.075-0.094-0.147-0.132-0.23-0.286-0.651-0.618-1.292-0.844-1.966-0.142-0.445-0.504-0.781-0.955-0.883l-0.009-0.002c-0.328-0.098-0.659-0.169-0.983-0.275-1.22-0.399-2.279-0.966-3.214-1.686l0.025 0.018c-0.12-0.094-0.286-0.139-0.399-0.241-0.238-0.255-0.577-0.413-0.952-0.413-0.213 0-0.414 0.051-0.592 0.142l0.007-0.003c-0.351 0.149-0.767 0.279-1.198 0.369l-0.045 0.008c-0.177 0.045-0.377 0.053-0.297-0.271s0.147-0.734 0.275-1.077c0.089-0.226 0.141-0.488 0.141-0.762 0-0.504-0.175-0.967-0.468-1.332l0.003 0.004c-0.478-0.79-0.946-1.717-1.346-2.68l-0.051-0.14c-0.107-0.248-0.204-0.543-0.275-0.849l-0.007-0.036c-0.105-0.377-0.192-0.753-0.282-1.16-0.049-0.207-0.113-0.414-0.143-0.629-0.049-0.377-0.252-0.538-0.633-0.682-0.837-0.342-1.541-0.699-2.213-1.105l0.071 0.040c-0.335-0.188-0.316-0.339 0.026-0.49 0.488-0.236 1.111-0.491 1.748-0.712l0.134-0.041c0.712-0.226 0.889-0.776 0.987-1.401 0.318-1.94 1.067-3.663 2.147-5.127l-0.023 0.032c0.377-0.512 0.727-1.009 0.377-1.698-0.082-0.239-0.138-0.516-0.158-0.803l-0.001-0.010c-0.181-0.817-0.087-0.919 0.723-0.753 0.094 0.019 0.188 0.023 0.279 0.045 1.431 0.377 1.438 0.377 2.606-0.452 1.023-0.747 2.23-1.314 3.536-1.624l0.068-0.014c0.539-0.041 0.979-0.421 1.109-0.925l0.002-0.009c0.244-0.674 0.498-1.237 0.788-1.777l-0.035 0.072c0.067-0.103 0.143-0.192 0.229-0.27l0.001-0.001c0.051 0.091 0.089 0.198 0.108 0.31l0.001 0.006c-0.004 0.655-0.008 1.314-0.008 1.969z"></path>
<path fill="#fff" d="M14.467 18.843c-0.264 0.154-0.561 0.222-0.648 0.377-0.377 0.753-1.269 0.885-1.774 1.476 0 0.026-0.12 0.019-0.151 0-0.030-0.034-0.049-0.080-0.049-0.129 0-0.013 0.001-0.026 0.004-0.038v0.001c0.296-0.741 0.753-1.363 1.33-1.847l0.007-0.006c0.565-0.429 0.565-0.452 0.226-1.051-0.109-0.189-0.206-0.408-0.279-0.638l-0.007-0.024c-0.158-0.486-0.29-0.535-0.655-0.147-0.147 0.154-0.188 0.211-0.297 0-0.181-0.339-0.41-0.377-0.648-0.060s-0.399 0.203-0.693 0.034c-0.355-0.169-0.811-0.352-1.277-0.512l-0.101-0.030c-0.267-0.12-0.275-0.377 0-0.486 0.535-0.233 1.092-0.425 1.649-0.614 0.026-0.006 0.056-0.010 0.087-0.010 0.097 0 0.186 0.037 0.252 0.097v0c0.267 0.377 0.52 0.309 0.719-0.023s0.211-0.136 0.35 0.023c0.279 0.316 0.335 0.297 0.505-0.056 0.102-0.222 0.181-0.459 0.294-0.678 0.331-0.64 0.301-0.7-0.294-1.186-0.508-0.441-0.903-0.997-1.147-1.629l-0.009-0.028c-0.002-0.010-0.003-0.022-0.003-0.035 0-0.049 0.018-0.094 0.049-0.128v0c0.021-0.013 0.047-0.021 0.075-0.021s0.054 0.008 0.076 0.021h-0.001c0.584 0.516 1.431 0.712 1.792 1.506 0.139 0.316 0.456 0.294 0.753 0.181s0.497-0.241 0.753-0.358 0.58-0.279 0.196-0.648c-0.075-0.075-0.038-0.279-0.026-0.422s0.105-0.264 0.068-0.377c-0.377-0.889 0.237-1.604 0.41-2.395 0-0.079 0.12-0.211 0.147-0.2 0.105 0.030 0.241 0.087 0.279 0.173 0.245 0.569 0.467 1.13 0.689 1.725 0.018 0.038 0.029 0.083 0.029 0.13s-0.011 0.092-0.029 0.132l0.001-0.002c-0.256 0.313-0.478 0.603 0 0.923 0.034 0.023 0 0.252-0.075 0.32-0.313 0.309-0.181 0.474 0.158 0.591 0.147 0.049 0.301 0.079 0.444 0.136 0.217 0.123 0.468 0.222 0.733 0.286l0.020 0.004c0.377 0.026 0.313-0.418 0.49-0.58 0.375-0.304 0.794-0.601 1.231-0.873l0.053-0.031c0.046-0.031 0.099-0.063 0.154-0.091l0.008-0.004 0.471-0.211c-0.060 0.151-0.113 0.305-0.181 0.452-0.276 0.643-0.698 1.178-1.226 1.582l-0.009 0.007c-0.177 0.092-0.295 0.273-0.295 0.483 0 0.122 0.040 0.234 0.108 0.325l-0.001-0.001c0.1 0.209 0.202 0.467 0.288 0.732l0.013 0.047c0.132 0.297 0.275 0.606 0.636 0.196 0.040-0.046 0.097-0.077 0.161-0.083h0.001c0.29 0 0.478 0.606 0.851 0.173s0.636-0.045 0.941 0c0.369 0.093 0.689 0.209 0.993 0.353l-0.033-0.014c0.105 0.041 0.29 0.139 0.282 0.177-0.022 0.151-0.096 0.282-0.203 0.376l-0.001 0.001c-0.181 0.093-0.405 0.19-0.637 0.275l-0.045 0.015c-0.25 0.103-0.464 0.22-0.663 0.358l0.012-0.008c-0.249 0.192-0.414 0.233-0.58-0.090s-0.377-0.377-0.561-0.049c-0.203 0.377-0.339 0.188-0.546 0.026-0.414-0.328-0.52-0.282-0.659 0.245-0.036 0.181-0.075 0.332-0.121 0.479l0.008-0.031c-0.055 0.102-0.088 0.224-0.088 0.353 0 0.291 0.165 0.544 0.407 0.669l0.004 0.002c0.439 0.299 0.77 0.729 0.94 1.233l0.005 0.017c0.072 0.211 0.478 0.331 0.215 0.599-0.053 0.056-0.414-0.166-0.618-0.29-0.555-0.304-1.021-0.705-1.389-1.183l-0.008-0.010c-0.158-0.23-0.331-0.29-0.621-0.090-0.322 0.192-0.704 0.382-1.099 0.546l-0.061 0.022c-0.26 0.132-0.32 0.377-0.023 0.463 0.474 0.154 0.279 0.316 0.038 0.456s-0.286 0.377-0.109 0.527c0.286 0.279 0.196 0.538 0.087 0.84-0.158 0.437-0.271 0.885-0.433 1.318-0.049 0.124-0.215 0.207-0.324 0.309-0.090-0.102-0.222-0.188-0.271-0.309-0.215-0.55-0.41-1.103-0.599-1.661-0.008-0.029-0.013-0.063-0.013-0.098 0-0.077 0.023-0.149 0.063-0.208l-0.001 0.001c0.279-0.305 0.26-0.527-0.098-0.753-0.226-0.139-0.35-0.313 0.056-0.407 0.121-0.033 0.223-0.099 0.301-0.188l0.001-0.001c0.041-0.041 0.034-0.211 0-0.226-0.425-0.166-0.817-0.335-1.235-0.527zM15.1 17.593c0 0.064 0 0.128 0 0.188-0.034 0.313 0.211 0.301 0.407 0.377 0.309 0.147 0.282-0.139 0.377-0.252s0.038-0.181 0.079-0.264c0.075-0.143 0.169-0.279 0.252-0.422 0.143 0.11 0.267 0.234 0.373 0.372l0.003 0.005c0.072 0.128 0.041 0.309 0.090 0.452 0.038 0.085 0.112 0.148 0.201 0.173h0.002c0.012 0.001 0.027 0.001 0.041 0.001 0.349 0 0.633-0.283 0.633-0.633 0-0.049-0.005-0.096-0.016-0.141l0.001 0.004c-0.090-0.377 0-0.474 0.346-0.343s0.467-0.188 0.565-0.429-0.12-0.29-0.29-0.346c-0.099-0.017-0.187-0.045-0.269-0.085l0.006 0.003c-0.184-0.117-0.256-0.275-0.056-0.441 0.090-0.059 0.196-0.119 0.306-0.173l0.018-0.008c0.169-0.102 0.377-0.147 0.249-0.459s-0.12-0.587-0.52-0.441c-0.29 0.109-0.407 0.026-0.441-0.256-0.003-0.196-0.035-0.383-0.090-0.56l0.004 0.014c-0.056-0.143-0.192-0.243-0.352-0.243-0.147 0-0.274 0.084-0.336 0.207l-0.001 0.002c-0.060 0.102-0.045 0.249-0.102 0.354-0.090 0.177-0.215 0.335-0.324 0.505-0.102-0.177-0.211-0.346-0.305-0.527-0.026-0.053 0-0.143-0.026-0.181-0.094-0.113-0.215-0.297-0.309-0.29-0.188 0.026-0.35 0.118-0.466 0.251l-0.001 0.001c-0.083 0.102-0.056 0.294-0.072 0.448-0.023 0.279-0.128 0.377-0.425 0.282-0.501-0.188-0.437 0.249-0.55 0.512-0.154 0.377 0.218 0.282 0.339 0.407 0.053 0.056 0.192 0 0.267 0.064 0.1 0.073 0.187 0.153 0.266 0.24l0.001 0.001c-0.075 0.064-0.157 0.126-0.243 0.183l-0.009 0.006c-0.089 0.049-0.199 0.1-0.312 0.146l-0.023 0.008c-0.377 0.166-0.26 0.448-0.154 0.708s0.215 0.474 0.546 0.313 0.501-0.158 0.32 0.267z"></path>
</svg>
