<!-- Generated by IcoMoon.io -->
<svg version="1.1" xmlns="http://www.w3.org/2000/svg" width="33" height="32" viewBox="0 0 33 32">
<title>bladeborn-chosenaxes</title>
<path fill="#fff" d="M22.344 16.211c-0.121 0.098-0.234 0.2-0.378 0.287s-0.412 0.378-0.536 0.317c-0.195-0.046-0.338-0.218-0.338-0.423 0-0.085 0.025-0.165 0.067-0.232l-0.001 0.002c0.047-0.086 0.074-0.189 0.074-0.298 0-0.352-0.286-0.638-0.638-0.638-0.003 0-0.007 0-0.010 0h0.001c-0.14 0-0.279-0.053-0.423-0.079 0.060 0.101 0.125 0.225 0.182 0.352l0.010 0.025c0.087 0.178 0.145 0.386 0.162 0.606v0.006c0 0.162-0.162 0.317-0.249 0.476-0.076-0.106-0.125-0.272-0.227-0.31-0.214-0.079-0.479-0.156-0.751-0.215l-0.042-0.008c0 0.302-0.106 0.718 0.049 0.876 0.234 0.242 0.51 0.396 0.276 0.755-0.17 0.253-0.378 0.514-0.755 0.23-0.083-0.064-0.325 0-0.43 0.076-0.906 0.691-1.59 1.511-1.529 2.745 0.034 0.642-0.030 1.254 0.321 1.888 0.408 0.755 0 1.25-0.872 1.288h-0.378c-1.231 0-1.356-0.279-1.208-1.511 0.048-0.381 0.075-0.822 0.075-1.269 0-0.665-0.060-1.315-0.176-1.946l0.010 0.066c-0.181-1.008-0.612-1.133-1.578-0.718-0.096 0.046-0.209 0.073-0.329 0.073-0.017 0-0.034-0.001-0.051-0.002h0.002c-1.375-0.132-1.775 1.076-1.344 2.368 0.030 0.087 0.060 0.177 0.098 0.264 0.083 0.193 0.174 0.378 0.264 0.574-0.254-0.013-0.492-0.058-0.719-0.13l0.020 0.006c-1.152-0.51-1.556-1.352-1.295-2.625 0.029-0.139 0.045-0.299 0.045-0.462 0-0.561-0.193-1.076-0.517-1.484l0.004 0.005c-0.359-0.491-0.079-0.555 0.295-0.521 0.285 0.062 0.537 0.16 0.769 0.29l-0.014-0.007c0.623 0.268 0.929 0.076 0.952-0.6 0.042-1.25 0.045-1.242-1.197-1.088-0.291 0.038-0.593 0.057-0.378-0.438 0.045-0.166 0.071-0.357 0.071-0.554 0-0.1-0.007-0.199-0.020-0.295l0.001 0.011c0-0.616 0.125-0.699 0.71-0.472s0.903 0.098 0.97-0.536 0.023-0.755-0.623-0.729c-0.498 0.023-1.001-0.030-1.511-0.053 0.023-0.476 0.049-0.955 0.064-1.431 0.019-0.585-0.128-1.216 0.329-1.699 0.257-0.256 0.549-0.478 0.867-0.658l0.020-0.011c0.11-0.068 0.298 0 0.449 0-0.005 0.146-0.024 0.284-0.056 0.418l0.003-0.014c-0.109 0.254-0.22 0.572-0.311 0.898l-0.014 0.057c-0.025 0.074-0.040 0.16-0.040 0.249 0 0.44 0.357 0.797 0.797 0.797 0.038 0 0.075-0.003 0.112-0.008l-0.004 0.001c0.046-0.004 0.101-0.006 0.155-0.006 0.525 0 1.003 0.205 1.356 0.539l-0.001-0.001c0.238 0.223 0.672 0.453 0.997 0.087 0.224-0.267 0.402-0.581 0.519-0.924l0.006-0.020c0.038-0.102-0.166-0.321-0.295-0.449-0.251-0.262-0.406-0.619-0.406-1.011 0-0.102 0.010-0.201 0.030-0.297l-0.002 0.009c0.028-0.12 0.068-0.226 0.12-0.324l-0.003 0.007c0.12 0.053 0.222 0.108 0.318 0.171l-0.008-0.005c0.045 0.034 0.053 0.113 0.087 0.166 0.419 0.661 0.423 0.657 0.819-0.049 0.329-0.585 0.85-0.612 1.216-0.053 0.063 0.095 0.119 0.205 0.162 0.321l0.004 0.012c0.143 0.404 0.344 0.378 0.597 0.098 0.196-0.223 0.4-0.438 0.6-0.657 0.003 0.081 0.004 0.177 0.004 0.273 0 0.263-0.011 0.523-0.033 0.781l0.002-0.034c-0.038 0.194-0.114 0.366-0.222 0.514l0.003-0.004c-0.128 0.204-0.453 0.464-0.408 0.566 0.161 0.298 0.383 0.544 0.65 0.728l0.007 0.005c0.046 0.014 0.098 0.022 0.153 0.022 0.14 0 0.268-0.053 0.365-0.139h-0.001c0.166-0.211 0.113-0.691 0.589-0.336 0.013 0.006 0.029 0.010 0.045 0.010s0.032-0.004 0.046-0.010h-0.001c0.313-0.797 0.646-0.128 0.974-0.019 0.676 0.227 1.386-0.495 1.344-1.329 0.006-0.304 0.036-0.598 0.088-0.883l-0.005 0.033c0.238 0.219 0.623 0.4 0.687 0.661 0.089 0.4 0.14 0.859 0.14 1.329 0 0.137-0.004 0.273-0.013 0.407l0.001-0.018c0 0.359-0.242 0.755 0.427 0.453 0.332-0.155 0.582-0.136 0.336 0.336 0 0.026-0.038 0.076-0.026 0.087 0.695 0.793 0.525 1.926 1.106 2.764 0.070 0.088 0.117 0.198 0.128 0.319v0.002c-0.019 0.755-0.978 2.001-1.711 2.198-0.057 0.008-0.122 0.013-0.189 0.013s-0.132-0.005-0.196-0.013l0.007 0.001c0.026-0.11 0.049-0.223 0.079-0.329 0.053-0.174 0.113-0.347 0.17-0.517s0.208-0.31 0.204-0.461c0-0.091-0.219-0.174-0.34-0.261l0.079 0.498c0.094 0.072 0.098 0.132 0.106 0.196zM11.952 14.784c0 0.691-0.019 1.382 0 2.073 0 0.17 0.147 0.461 0.264 0.483 0.378 0.072 0.336-0.272 0.336-0.506 0-0.91 0-1.824 0-2.734 0-0.006 0-0.014 0-0.021 0-0.195 0.059-0.376 0.161-0.526l-0.002 0.003c0.145-0.127 0.235-0.313 0.235-0.519 0-0.237-0.119-0.446-0.301-0.57l-0.002-0.002c-0.116-0.111-0.274-0.178-0.447-0.178-0.013 0-0.025 0-0.038 0.001h0.002c-0.102 0.023-0.215 0.272-0.219 0.423 0 0.691 0.011 1.393 0.011 2.073zM21.793 15.437c-0.076 0.087-0.162 0.143-0.162 0.204s0.079 0.132 0.121 0.196c0.079-0.061 0.149-0.13 0.21-0.205l0.002-0.002s-0.098-0.11-0.17-0.193z"></path>
<path fill="#fff" d="M15.158 2.296c0 0.631 0 1.258 0 1.888 0.007 0.033 0.010 0.072 0.010 0.111 0 0.319-0.247 0.58-0.56 0.603h-0.002c-0.717 0.17-1.412 0.434-2.115 0.653-1.446 0.479-2.681 1.257-3.685 2.265v0c-1.060 1.036-1.932 2.259-2.563 3.617l-0.032 0.076c-0.853 1.888-0.963 3.776-0.85 5.755 0.083 1.511 0.687 2.874 1.363 4.203 0.891 1.741 2.304 2.983 3.912 4.033 1.097 0.71 2.385 1.236 3.765 1.5l0.067 0.011c0.378 0.079 0.702 0.185 0.691 0.699-0.023 1.322 0 2.643 0 3.965-0.025 0.12-0.064 0.226-0.116 0.324l0.003-0.006c-0.076-0.073-0.143-0.153-0.201-0.24l-0.003-0.005c-0.28-0.54-0.576-1.214-0.835-1.906l-0.045-0.137c-0.084-0.329-0.341-0.582-0.666-0.66l-0.006-0.001c-1.964-0.555-3.678-1.403-5.193-2.509l0.046 0.032c-0.159-0.161-0.38-0.26-0.625-0.26-0.135 0-0.263 0.030-0.378 0.085l0.005-0.002c-0.332 0.112-0.728 0.207-1.136 0.267l-0.039 0.005c-0.529 0.125-0.778-0.045-0.548-0.506 0.755-1.511-0.072-2.621-0.789-3.829-0.687-1.157-1.152-2.523-1.299-3.984l-0.003-0.042c0-0.001 0-0.003 0-0.005 0-0.546-0.358-1.008-0.852-1.163l-0.009-0.002c-0.755-0.279-1.484-0.608-2.22-0.929-0.329-0.143-0.347-0.347 0-0.483 0.687-0.276 1.378-0.54 2.081-0.778 0.528-0.121 0.926-0.558 0.989-1.097l0.001-0.006c0.263-2.101 1.049-3.979 2.223-5.551l-0.022 0.031c0.446-0.604 0.861-1.133 0.279-1.888-0.064-0.079 0-0.245-0.038-0.378-0.068-0.378-0.14-0.725-0.211-1.088 0.378 0.057 0.729 0.087 1.084 0.174 0.298 0.072 0.578 0.249 0.876 0.291 0.053 0.007 0.114 0.011 0.176 0.011 0.219 0 0.426-0.050 0.611-0.139l-0.008 0.004c1.133-0.616 2.266-1.303 3.399-1.888 0.473-0.192 1.059-0.381 1.66-0.531l0.096-0.020c0.186-0.072 0.334-0.205 0.425-0.373l0.002-0.004c0.344-0.755 0.65-1.51 0.982-2.266 0.026-0.064 0.125-0.094 0.193-0.14 0.034 0.079 0.098 0.155 0.098 0.234 0 0.661 0 1.322 0 1.983z"></path>
<path fill="#fff" d="M17.858 29.587c0-0.597 0.034-1.197 0-1.794-0.038-0.48 0.204-0.653 0.6-0.785 1.381-0.391 2.511-0.79 3.609-1.249l-0.21 0.078c1.401-0.642 2.443-1.752 3.455-2.919 1.14-1.347 1.943-3.014 2.257-4.849l0.009-0.061c0.31-1.677 0.408-3.486-0.332-5.166-0.378-0.869-0.714-1.764-1.133-2.617-0.676-1.39-1.82-2.36-3.021-3.304-1.305-1.003-2.881-1.721-4.598-2.029l-0.065-0.010c-0.319-0.008-0.575-0.268-0.575-0.589 0-0.036 0.003-0.071 0.009-0.106l-0.001 0.004c0-1.291 0-2.579 0-3.871 0.017-0.121 0.047-0.231 0.090-0.334l-0.003 0.009c0.083 0.076 0.196 0.136 0.238 0.23 0.318 0.566 0.62 1.232 0.866 1.924l0.029 0.093c0.108 0.427 0.474 0.744 0.918 0.778h0.003c1.811 0.409 3.393 1.209 4.716 2.311l-0.018-0.015c0.239 0.222 0.56 0.358 0.913 0.358 0.228 0 0.443-0.057 0.631-0.157l-0.007 0.004c0.321-0.148 0.699-0.277 1.091-0.369l0.041-0.008c0.249-0.057 0.551-0.038 0.31 0.378-0.087 0.151 0 0.396-0.094 0.548-0.691 1.163-0.23 2.149 0.457 3.097 0.888 1.277 1.48 2.821 1.647 4.491l0.003 0.040c0.010 0.52 0.331 0.962 0.785 1.149l0.008 0.003c0.755 0.313 1.533 0.646 2.3 0.974 0.094 0.042 0.189 0.094 0.283 0.143-0.072 0.060-0.132 0.151-0.215 0.181q-1.076 0.412-2.156 0.812c-0.511 0.15-0.892 0.579-0.97 1.107l-0.001 0.007c-0.122 1.213-0.466 2.321-0.991 3.32l0.024-0.050c-0.449 0.838-0.755 1.813-1.378 2.481-0.676 0.725-0.268 1.356-0.23 2.039 0 0.087 0.094 0.166 0.106 0.253 0.034 0.261 0.049 0.521 0.068 0.778-0.234-0.042-0.468-0.072-0.699-0.128-0.266-0.044-0.505-0.119-0.727-0.222l0.017 0.007c-0.171-0.102-0.378-0.163-0.598-0.163-0.334 0-0.637 0.139-0.852 0.362v0c-1.363 1.133-2.987 1.726-4.633 2.266-0.389 0.089-0.693 0.377-0.806 0.748l-0.002 0.008c-0.234 0.668-0.566 1.303-0.865 1.949-0.030 0.068-0.128 0.106-0.196 0.159-0.034-0.072-0.102-0.143-0.102-0.215 0-0.691 0-1.382 0-2.073z"></path>
</svg>
