<!-- Generated by IcoMoon.io -->
<svg version="1.1" xmlns="http://www.w3.org/2000/svg" width="33" height="32" viewBox="0 0 33 32">
<title>bladeborn-ylthari</title>
<path fill="#fff" d="M15.009 0.879c-0.087 0.288-0.147 0.622-0.168 0.968l-0.001 0.012c0.020 0.734 0.078 1.433 0.172 2.12l-0.011-0.1c0.079 0.643-0.12 0.939-0.748 1.070-2.978 0.576-5.478 2.285-7.081 4.651l-0.025 0.039c-1.056 1.504-1.737 3.343-1.868 5.331l-0.002 0.032c-0.026 0.281-0.041 0.608-0.041 0.938 0 1.755 0.417 3.413 1.157 4.88l-0.028-0.062c1.328 2.807 3.75 4.914 6.701 5.793l0.076 0.020c0.386 0.113 0.868 0.218 1.361 0.294l0.068 0.009c0.259 0.017 0.462 0.231 0.462 0.493 0 0.035-0.004 0.069-0.010 0.101l0.001-0.003c-0.049 0.707-0.135 1.41-0.142 2.117 0 0.516 0.116 1.032 0.135 1.552-0.014 0.315-0.056 0.613-0.122 0.901l0.007-0.033c-0.127-0.254-0.269-0.505-0.374-0.748-0.258-0.621-0.46-1.272-0.77-1.87-0.168-0.276-0.429-0.481-0.739-0.574l-0.009-0.002c-1.911-0.468-3.553-1.455-5.158-2.54-0.127-0.094-0.286-0.151-0.459-0.151-0.015 0-0.030 0-0.044 0.001h0.002c-0.419 0.075-0.819 0.224-1.234 0.318-0.284 0.064-0.576 0.079-0.864 0.116 0.036-0.308 0.082-0.576 0.141-0.838l-0.010 0.052c0.071-0.266 0.194-0.516 0.273-0.778 0.050-0.145 0.079-0.312 0.079-0.486 0-0.34-0.111-0.655-0.299-0.909l0.003 0.004c-0.859-1.266-1.551-2.732-2.001-4.301l-0.026-0.108c-0.132-0.368-0.221-0.793-0.25-1.235l-0.001-0.014c0-0.565-0.352-0.718-0.748-0.898-0.64-0.28-1.275-0.572-1.911-0.868-0.161-0.075-0.314-0.18-0.468-0.269 0.151-0.137 0.319-0.261 0.498-0.366l0.014-0.008c0.677-0.288 1.365-0.542 2.046-0.823 0.316-0.114 0.542-0.402 0.561-0.746v-0.002c0.374-2.065 0.976-4.065 2.371-5.689 0.669-0.774 0.299-1.522 0.172-2.27-0.183-1.077-0.232-1.070 0.748-0.819 0.15 0.037 0.284 0.112 0.43 0.157 0.184 0.072 0.397 0.113 0.62 0.113 0.442 0 0.846-0.163 1.155-0.433l-0.002 0.002c1.238-0.944 2.714-1.646 4.32-2.002l0.074-0.014c0.405-0.047 0.728-0.351 0.803-0.742l0.001-0.006c0.268-0.754 0.557-1.391 0.891-1.999l-0.035 0.069c0.070-0.136 0.138-0.25 0.213-0.359l-0.007 0.011c0.043 0.107 0.085 0.241 0.119 0.378l0.005 0.023c0.001 0.030 0.001 0.064 0.001 0.099 0 0.142-0.009 0.281-0.026 0.418l0.002-0.016z"></path>
<path fill="#fff" d="M17.683 29.285c0-0.501 0-0.999 0-1.496 0-0.871 0-0.95 0.86-1.055 1.975-0.239 3.561-1.23 5.038-2.457 2.005-1.661 3.123-3.826 3.647-6.358 0.125-0.621 0.196-1.335 0.196-2.066 0-1.695-0.384-3.299-1.070-4.732l0.028 0.066c-0.843-1.779-2.085-3.249-3.616-4.338l-0.034-0.023c-1.263-0.946-2.792-1.608-4.455-1.863l-0.056-0.007c-0.325-0.049-0.531-0.165-0.535-0.509q0-2.008 0-4.017c0.016-0.078 0.046-0.147 0.087-0.208l-0.001 0.002c0.075 0.056 0.18 0.097 0.213 0.168 0.265 0.493 0.518 1.077 0.724 1.682l0.024 0.083c0.107 0.496 0.507 0.875 1.007 0.949l0.007 0.001c1.829 0.355 3.366 1.294 4.821 2.371 0.194 0.165 0.448 0.265 0.724 0.265 0.171 0 0.334-0.038 0.479-0.107l-0.007 0.003c0.277-0.11 0.626-0.221 0.984-0.312l0.063-0.014c0.535-0.142 0.651-0.022 0.501 0.52-0.085 0.276-0.172 0.504-0.273 0.725l0.015-0.037c-0.134 0.23-0.213 0.506-0.213 0.801 0 0.474 0.204 0.9 0.53 1.195l0.001 0.001c0.486 0.617 0.87 1.342 1.11 2.13l0.012 0.047c0.374 0.995 0.621 2.038 0.931 3.056 0.142 0.467 0.303 0.86 0.898 1.010 0.745 0.245 1.38 0.523 1.983 0.853l-0.061-0.031c0.206 0.112 0.381 0.225 0.547 0.349l-0.012-0.008c-0.165 0.079-0.329 0.161-0.497 0.232-0.61 0.273-1.216 0.557-1.836 0.804-0.552 0.182-0.959 0.655-1.043 1.234l-0.001 0.008c-0.352 1.814-0.894 3.587-2.065 5.034-0.748 0.928-0.681 1.799-0.374 2.783 0.023 0.105 0.048 0.194 0.080 0.281l-0.005-0.015c0.18 0.374 0.232 0.591-0.348 0.411-0.636-0.202-1.339-0.468-1.952-0.374s-1.159 0.617-1.705 0.999c-0.935 0.598-2.019 1.076-3.175 1.378l-0.079 0.017c-0.53 0.088-0.952 0.474-1.090 0.978l-0.002 0.009c-0.206 0.647-0.451 1.204-0.746 1.729l0.024-0.046c-0.045 0.093-0.172 0.15-0.262 0.224-0.016-0.078-0.027-0.172-0.033-0.267v-0.006c0.007-0.684 0.011-1.358 0.011-2.053z"></path>
<path fill="#fff" d="M21.722 11.908c-0.153-0.486-0.329-0.969-0.456-1.466-0.003-0.040-0.005-0.086-0.005-0.132 0-0.146 0.018-0.287 0.053-0.422l-0.003 0.012c0.142 0.097 0.348 0.161 0.411 0.292 0.224 0.456 0.396 0.939 0.595 1.41 0.038 0.088 0.077 0.162 0.12 0.232l-0.005-0.008c0.086-0.082 0.251-0.165 0.247-0.247 0.001-0.026 0.001-0.057 0.001-0.089 0-0.286-0.039-0.564-0.111-0.827l0.005 0.022c-0.168-0.554-0.396-1.088-0.572-1.642-0.002-0.026-0.003-0.056-0.003-0.087 0-0.131 0.022-0.257 0.062-0.374l-0.002 0.008c0.143 0.047 0.267 0.113 0.377 0.197l-0.003-0.002c0.169 0.17 0.308 0.369 0.41 0.589l0.005 0.013c0.606 1.451 1.268 2.936 0.202 4.436-0.436 0.61-0.949 1.129-1.533 1.558l-0.019 0.013c-0.86 0.61-1.825 1.066-2.723 1.623-1.163 0.726-1.971 2.618-1.691 3.95 0.075 0.207 0.187 0.384 0.33 0.532v0c0.524 0.699 0.524 0.748-0.157 1.219-0.026 0-0.060 0.019-0.086 0.034-0.31 0.172-0.681 0.542-0.92 0.475-0.468-0.191-0.865-0.469-1.187-0.817l-0.002-0.002c-0.058-0.094-0.093-0.208-0.093-0.33 0-0.106 0.026-0.206 0.072-0.294l-0.002 0.003c0.666-0.587 0.396-1.346 0.374-2.016-0.073-0.539-0.267-1.022-0.553-1.436l0.007 0.011c-0.673-1.122-1.833-1.668-2.951-2.244-0.584-0.287-1.087-0.61-1.549-0.981l0.016 0.012c-1.41-1.212-1.683-2.779-1.204-4.488 0.223-0.643 0.475-1.193 0.774-1.713l-0.026 0.049c0.052-0.105 0.247-0.138 0.374-0.202 0 0.135 0.086 0.284 0.049 0.396-0.169 0.634-0.37 1.177-0.613 1.696l0.026-0.062c-0.077 0.166-0.122 0.36-0.122 0.565 0 0.246 0.065 0.476 0.178 0.676l-0.004-0.007c0.034 0.090 0.15 0.15 0.232 0.221 0.061-0.083 0.117-0.178 0.164-0.278l0.004-0.010c0.191-0.539 0.374-1.088 0.569-1.623 0.045-0.112 0.236-0.168 0.374-0.251 0.005 0.069 0.007 0.149 0.007 0.23s-0.003 0.161-0.008 0.241l0.001-0.011c-0.112 0.748-0.471 1.414-0.228 2.244 0.269 0.913 1.036 1.249 1.691 1.728 0.086 0.064 0.374-0.034 0.486-0.142q0.748-0.789 1.459-1.638c0.123-0.116 0.2-0.281 0.2-0.463 0-0.245-0.139-0.458-0.342-0.564l-0.004-0.002c-0.578-0.463-0.958-1.151-1.006-1.93v-0.008c-0.006-0.050-0.009-0.108-0.009-0.167 0-0.124 0.014-0.244 0.041-0.36l-0.002 0.011c0.045-0.103 0.104-0.19 0.176-0.266v0c0.043 0.058 0.087 0.125 0.128 0.194l0.006 0.011c0.254 0.486 0.471 0.999 0.77 1.455 0.692 1.062 1.773 1.245 2.842 0.628 0.748-0.438 1.32-0.943 1.361-1.87 0-0.142 0.202-0.273 0.31-0.408 0.056 0.131 0.101 0.266 0.168 0.393 0.295 0.572 0 1.051-0.258 1.522-0.14 0.201-0.298 0.376-0.475 0.528l-0.004 0.003c-0.299 0.325-0.819 0.647-0.83 0.984s0.531 0.628 0.834 0.943c0.084 0.095 0.171 0.182 0.262 0.263l0.003 0.003c0.423 0.348 0.688 1.002 1.462 0.625s1.496-0.864 1.466-1.907c0-0.123 0-0.251 0-0.374zM18.285 14.799c-0.035-0.108-0.082-0.202-0.141-0.288l0.003 0.004c-0.482-0.438-0.957-0.89-1.474-1.287-0.131-0.1-0.297-0.16-0.478-0.16-0.231 0-0.439 0.099-0.584 0.257l-0.001 0.001c-0.43 0.374-0.834 0.804-1.264 1.189-0.314 0.28-0.262 0.512 0.034 0.748 0.4 0.333 0.785 0.681 1.197 0.999s0.827 0.479 1.275-0.037c0.352-0.345 0.727-0.672 1.119-0.977l0.029-0.022c0.109-0.124 0.204-0.264 0.279-0.415l0.005-0.011z"></path>
</svg>
