<!-- Generated by IcoMoon.io -->
<svg version="1.1" xmlns="http://www.w3.org/2000/svg" width="33" height="32" viewBox="0 0 33 32">
<title>bladeborn-stormsire</title>
<path fill="#fff" d="M15.104 2.601c0 0.534-0.019 1.069 0 1.6 0.019 0.376-0.128 0.538-0.489 0.629-0.753 0.196-1.539 0.418-2.292 0.674-2.201 0.769-3.988 2.256-5.121 4.175l-0.024 0.044c-0.354 0.499-0.712 1.076-1.035 1.674l-0.045 0.091c-0.402 0.961-0.692 2.076-0.816 3.24l-0.005 0.053c-0.222 1.506 0.064 2.879 0.418 4.279 0.294 1.171 0.93 2.183 1.543 3.214 0.9 1.506 2.258 2.522 3.681 3.387 0.892 0.505 1.926 0.896 3.022 1.118l0.068 0.011c0.907 0.218 1.088 0.282 1.088 1.246 0 1.193 0 2.383 0 3.576-0.030 0.143-0.085 0.269-0.16 0.38l0.002-0.004c-0.053-0.102-0.117-0.199-0.162-0.301-0.267-0.509-0.556-1.15-0.811-1.808l-0.047-0.138c-0.23-0.708-0.787-0.911-1.381-1.065-1.64-0.425-3.069-1.164-4.285-2.154l0.020 0.016c-0.273-0.231-0.63-0.371-1.018-0.371-0.146 0-0.288 0.020-0.423 0.057l0.011-0.003c-0.102 0.038-0.185 0.074-0.266 0.116l0.014-0.006-1.306 0.376c0.054-0.551 0.158-1.054 0.308-1.537l-0.015 0.054c0.090-0.199 0.143-0.431 0.143-0.676 0-0.4-0.141-0.767-0.375-1.055l0.002 0.003c-1.072-1.57-1.841-3.434-2.179-5.444l-0.011-0.081c-0.065-0.464-0.387-0.84-0.816-0.98l-0.009-0.002c-0.674-0.297-1.336-0.606-1.999-0.922-0.128-0.082-0.239-0.174-0.338-0.278l-0.001-0.001c0.113-0.072 0.247-0.146 0.386-0.212l0.024-0.010c0.651-0.26 1.295-0.55 1.965-0.753 0.429-0.097 0.745-0.472 0.753-0.921v-0.001c0.29-1.941 0.953-3.682 1.915-5.217l-0.033 0.057c0.128-0.187 0.265-0.351 0.417-0.5l0.001-0.001c0.395-0.433 0.651-0.866 0.376-1.506-0.105-0.378-0.195-0.837-0.251-1.305l-0.004-0.046c-0.109-0.437 0.154-0.395 0.399-0.343 0.508 0.109 1.005 0.294 1.506 0.376 0.073 0.014 0.156 0.022 0.242 0.022 0.253 0 0.489-0.071 0.69-0.195l-0.006 0.003c1.34-1.163 2.962-1.743 4.592-2.322 0.482-0.169 0.854-0.376 0.997-0.945 0.204-0.578 0.443-1.075 0.728-1.541l-0.020 0.035c0.053-0.105 0.117-0.211 0.173-0.316 0.068 0.132 0.192 0.26 0.196 0.376 0.019 0.689 0 1.374 0 2.063z"></path>
<path fill="#fff" d="M17.795 29.467c0-0.625 0-1.253 0-1.882 0-0.493 0.139-0.715 0.685-0.753 1.484-0.168 2.819-0.697 3.948-1.497l-0.026 0.018c1.277-0.843 2.353-1.874 3.22-3.066l0.024-0.035c0.443-0.612 0.824-1.312 1.108-2.061l0.021-0.062c0.508-1.259 0.803-2.719 0.803-4.248 0-0.064 0-0.128-0.002-0.191v0.010c-0.073-2.502-0.951-4.785-2.382-6.615l0.019 0.025c-1.583-2.123-3.898-3.623-6.565-4.13l-0.066-0.011c-0.625-0.12-0.817-0.376-0.798-0.986 0.041-1.223 0-2.446 0-3.67 0.018-0.118 0.045-0.223 0.083-0.323l-0.004 0.011c0.088 0.076 0.163 0.164 0.223 0.262l0.003 0.005c0.286 0.674 0.527 1.366 0.847 2.025 0.133 0.271 0.357 0.481 0.632 0.592l0.008 0.003c1.63 0.431 3.059 1.085 4.344 1.938l-0.053-0.033c0.174 0.083 0.323 0.186 0.452 0.309l-0.001-0.001c0.47 0.598 1.076 0.512 1.705 0.395 0.467-0.087 0.941-0.143 1.411-0.215-0.076 0.537-0.18 1.009-0.315 1.468l0.018-0.072c-0.082 0.171-0.13 0.372-0.13 0.584 0 0.394 0.165 0.749 0.43 1l0.001 0.001c0.471 0.595 0.854 1.287 1.114 2.036l0.015 0.049c0.444 1.129 1.039 2.258 1.012 3.534 0.008 0.423 0.296 0.776 0.686 0.883l0.007 0.002c0.828 0.331 1.66 0.644 2.492 0.964 0.049 0.017 0.11 0.032 0.172 0.044l0.009 0.001c-0.064 0.068-0.113 0.162-0.188 0.199-0.504 0.226-1.005 0.474-1.524 0.655-1.506 0.527-1.611 0.632-1.844 2.16-0.229 1.261-0.637 2.387-1.203 3.415l0.029-0.058c-0.346 0.681-0.858 1.28-1.268 1.931-0.093 0.135-0.149 0.303-0.149 0.484 0 0.036 0.002 0.072 0.007 0.108v-0.004c0.12 0.565 0.297 1.129 0.459 1.675 0.075 0.26 0.026 0.452-0.279 0.429-0.322-0.003-0.628-0.066-0.909-0.179l0.017 0.006c-0.246-0.155-0.544-0.246-0.865-0.246-0.41 0-0.785 0.15-1.072 0.399l0.002-0.002c-1.21 0.949-2.65 1.666-4.221 2.054l-0.078 0.016c-0.529 0.075-0.948 0.473-1.052 0.986l-0.001 0.008c-0.237 0.642-0.501 1.189-0.809 1.707l0.026-0.047c-0.064 0.114-0.129 0.211-0.2 0.303l0.004-0.006c-0.027-0.093-0.048-0.203-0.060-0.315l-0.001-0.008q0.026-0.986 0.030-1.976z"></path>
<path fill="#fff" d="M11.186 14.792h1.788c0.256 0 0.44-0.038 0.327 0.403-0.29 1.148-0.248 1.129 0.869 0.911 0.382-0.051 0.823-0.080 1.271-0.080 0.057 0 0.115 0 0.172 0.001h-0.009c-0.057 0.523-0.133 0.978-0.231 1.424l0.016-0.088c-0.256 1.009-0.561 2.010-0.82 3.011-0.001 0.018-0.001 0.038-0.001 0.059 0 0.163 0.029 0.318 0.083 0.462l-0.003-0.009c0.143-0.072 0.267-0.156 0.378-0.254l-0.002 0.002c0.858-0.979 1.72-1.961 2.552-2.962 0.711-0.851 1.378-1.746 2.096-2.593 0.163-0.167 0.388-0.273 0.638-0.282h0.002c1.129-0.026 2.258 0 3.387 0 0.399 0 0.376 0.113 0.316 0.497-0.117 0.849-0.405 1.612-0.827 2.282l0.014-0.024c-0.243 0.361-0.516 0.673-0.823 0.948l-0.005 0.004c-0.105 0.105-0.316 0.105-0.482 0.151 0.060-0.102 0.123-0.225 0.179-0.353l0.009-0.024c0.098-0.256 0.196-0.516 0.275-0.779 0.147-0.489-0.045-0.805-0.478-0.662-0.9 0.301-1.859 0.58-2.42 1.449-0.677 1.058-0.23 2.405 1.001 3.109 0.37 0.183 0.683 0.369 0.98 0.577l-0.024-0.016c0.143 0.113 0.181 0.376 0.267 0.553-0.161 0.067-0.347 0.115-0.541 0.135l-0.008 0.001c-1.953-0.117-3.903-0.309-5.857-0.35-1.145 0.047-2.221 0.165-3.275 0.349l0.147-0.021c-0.084 0.013-0.181 0.020-0.28 0.020s-0.196-0.007-0.291-0.021l0.011 0.001c-0.124 0-0.324-0.113-0.335-0.196 0-0.003 0-0.006 0-0.009 0-0.146 0.064-0.277 0.165-0.367h0.001c0.431-0.234 0.79-0.459 1.135-0.702l-0.036 0.024c0.421-0.31 0.768-0.695 1.026-1.138l0.010-0.018c0.452-0.982 0.591-1.66-0.753-2.477-0.481-0.277-1.037-0.519-1.622-0.696l-0.057-0.015c-0.188-0.064-0.448 0.090-0.674 0.147 0.037 0.229 0.092 0.433 0.165 0.628l-0.007-0.022c0.136 0.275 0.324 0.523 0.474 0.794 0.034 0.060 0 0.158 0 0.241-0.083 0-0.188 0-0.241-0.023-0.376-0.316-0.873-0.58-1.084-0.986-0.34-0.688-0.666-1.513-0.928-2.366l-0.032-0.122c-0.109-0.324 0.030-0.531 0.425-0.519 0.647 0.004 1.306-0.008 1.965-0.008z"></path>
<path fill="#fff" d="M14.035 14.924l0.576-2.416c0.188-0.805 0.376-1.615 0.565-2.42 0.093-0.241 0.182-0.434 0.28-0.622l-0.016 0.034c0.102-0.263 0.32-0.305 0.474-0.151 0.926 0.926 1.938 0.678 2.981 0.279 0.13-0.033 0.278-0.053 0.432-0.053 0 0 0.001 0 0.001 0v0c-0.087 0.124-0.173 0.245-0.256 0.376-0.546 0.854-1.095 1.709-1.637 2.571-0.070 0.133-0.137 0.293-0.192 0.458l-0.007 0.024c0.161 0.048 0.346 0.075 0.538 0.075 0.001 0 0.003 0 0.004 0v0c0.79-0.117 1.581-0.26 2.367-0.376 0.094 0 0.192 0 0.286 0-0.009 0.1-0.036 0.192-0.077 0.276l0.002-0.005c-0.395 0.55-0.794 1.099-1.208 1.633-0.775 1.005-1.562 1.999-2.345 2.992-0.241 0.309-0.486 0.613-0.753 0.911-0.091 0.099-0.187 0.19-0.289 0.275l-0.005 0.004c0.016-0.162 0.042-0.31 0.080-0.452l-0.004 0.020c0.301-0.933 0.621-1.859 0.915-2.793 0.162-0.508 0.060-0.659-0.459-0.583-0.606 0.087-1.201 0.26-1.803 0.376-0.41 0.072-0.459 0.045-0.448-0.433z"></path>
</svg>
