<!-- Generated by IcoMoon.io -->
<svg version="1.1" xmlns="http://www.w3.org/2000/svg" width="33" height="32" viewBox="0 0 33 32">
<title>bladeborn-wurmspat</title>
<path fill="#fff" d="M15.115 29.587c0 0.726 0 1.448 0 2.171 0 0.083-0.14 0.163-0.216 0.242-0.060-0.057-0.151-0.106-0.182-0.178-0.314-0.715-0.662-1.414-0.908-2.152-0.085-0.299-0.315-0.53-0.606-0.615l-0.006-0.002c-0.7-0.257-1.395-0.518-2.103-0.756-1.16-0.454-2.161-1.054-3.042-1.791l0.017 0.014c-0.138-0.142-0.33-0.23-0.544-0.23-0.107 0-0.209 0.022-0.301 0.062l0.005-0.002c-0.415 0.159-0.922 0.307-1.442 0.419l-0.071 0.013c-0.408 0.11-0.492 0.045-0.45-0.378 0.039-0.209 0.088-0.39 0.148-0.564l-0.008 0.027c0.117-0.48 0.238-0.964 0.34-1.448 0.007-0.030 0.011-0.064 0.011-0.099 0-0.087-0.025-0.168-0.069-0.235l0.001 0.002c-0.934-1.047-1.403-2.352-1.929-3.611-0.258-0.705-0.456-1.529-0.558-2.382l-0.005-0.053c-0.003-0.286-0.164-0.534-0.401-0.66l-0.004-0.002c-0.25-0.125-0.476-0.295-0.73-0.408-0.59-0.272-1.191-0.514-1.785-0.783-0.097-0.062-0.181-0.135-0.252-0.218l-0.001-0.001c0.079-0.083 0.144-0.2 0.242-0.246 0.707-0.318 1.414-0.647 2.14-0.923 0.421-0.118 0.73-0.487 0.756-0.931v-0.003c0.147-1.547 0.756-2.946 1.426-4.319 0.337-0.647 0.714-1.205 1.146-1.715l-0.011 0.014c0.15-0.158 0.242-0.372 0.242-0.608 0-0.151-0.038-0.293-0.105-0.418l0.002 0.005c-0.159-0.401-0.299-0.879-0.396-1.372l-0.009-0.053c-0.068-0.306 0.121-0.465 0.454-0.378 0.541 0.129 1.089 0.253 1.615 0.435 0.077 0.035 0.167 0.056 0.262 0.056 0.162 0 0.31-0.060 0.423-0.159l-0.001 0.001c0.45-0.333 0.938-0.609 1.392-0.938 1.055-0.756 2.292-1.1 3.498-1.513 0.395-0.106 0.704-0.402 0.826-0.782l0.002-0.008c0.219-0.609 0.492-1.199 0.756-1.792 0.030-0.068 0.132-0.159 0.182-0.151 0.091 0.027 0.163 0.092 0.2 0.176l0.001 0.002c0.046 0.134 0.072 0.288 0.072 0.448 0 0.003 0 0.007 0 0.010v-0.001c0 1.1 0 2.201 0 3.301 0 0.439-0.151 0.639-0.616 0.756-1.429 0.405-2.87 0.783-4.122 1.664-1.157 0.804-2.153 1.729-3.005 2.776l-0.021 0.026c-0.895 1.146-1.546 2.527-1.85 4.033l-0.011 0.062c-0.186 0.753-0.293 1.617-0.293 2.506 0 1.187 0.19 2.329 0.541 3.398l-0.022-0.077c0.526 1.513 1.169 2.987 2.386 4.16 0.816 0.87 1.73 1.632 2.73 2.273l0.057 0.034c0.895 0.567 1.951 0.967 3.085 1.13l0.043 0.005c0.212 0.023 0.416 0.132 0.632 0.151 0.378 0.038 0.469 0.234 0.461 0.567 0 0.662 0 1.324 0 1.982z"></path>
<path fill="#fff" d="M17.887 29.621c0-0.628 0.034-1.259 0-1.891-0.007-0.035-0.011-0.076-0.011-0.118 0-0.346 0.275-0.628 0.619-0.639h0.001c0.061 0 0.117-0.061 0.178-0.061 0.866 0 1.588-0.458 2.375-0.734 0.822-0.325 1.528-0.766 2.14-1.311l-0.007 0.006c1.025-0.787 1.9-1.702 2.621-2.732l0.026-0.040c0.809-1.274 1.513-2.647 1.668-4.133 0.34-2.984 0-5.899-1.857-8.407-0.886-1.204-1.949-2.218-3.161-3.023l-0.046-0.029c-1.286-0.836-2.689-1.237-4.114-1.641-0.25-0.072-0.401-0.144-0.401-0.412 0-1.418 0-2.832 0-4.247 0-0.072 0.079-0.14 0.121-0.208 0.042 0.039 0.078 0.084 0.108 0.133l0.002 0.003c0.325 0.703 0.662 1.403 0.953 2.118 0.114 0.326 0.376 0.573 0.704 0.664l0.007 0.002c0.897 0.259 1.65 0.541 2.376 0.872l-0.107-0.044c0.889 0.431 1.647 0.886 2.361 1.401l-0.046-0.032c0.33 0.288 0.765 0.464 1.241 0.464 0.201 0 0.395-0.031 0.577-0.090l-0.013 0.004c0.403-0.106 0.893-0.195 1.394-0.249l0.047-0.004c-0.079 0.476-0.147 0.957-0.234 1.429-0.041 0.234-0.108 0.444-0.199 0.64l0.007-0.016c-0.042 0.078-0.066 0.172-0.066 0.27 0 0.127 0.040 0.244 0.109 0.34l-0.001-0.002c0.284 0.446 0.605 0.87 0.874 1.324 0.204 0.344 0.355 0.722 0.526 1.085 0.507 1.007 0.877 2.176 1.045 3.41l0.006 0.058c0 0.005 0 0.011 0 0.017 0 0.514 0.364 0.943 0.848 1.044l0.007 0.001c0.569 0.212 1.046 0.435 1.503 0.69l-0.055-0.028c0.378 0.151 0.756 0.234 1.134 0.352-0.318 0.213-0.697 0.439-1.089 0.646l-0.072 0.035c-0.42 0.197-0.877 0.321-1.312 0.484-0.544 0.183-0.94 0.663-0.998 1.242v0.006c-0.325 2.3-1.252 4.339-2.615 6.008l0.017-0.022c-0.378 0.469 0 0.998 0.045 1.513 0 0.079 0.159 0.144 0.166 0.219 0.028 0.117 0.044 0.252 0.044 0.391 0 0.171-0.024 0.336-0.070 0.492l0.003-0.012c-0.072 0.129-0.507 0.079-0.756 0.061-0.147 0-0.276-0.144-0.427-0.189-0.548-0.178-1.002-0.306-1.588 0.159-0.992 0.735-2.132 1.357-3.353 1.811l-0.095 0.031c-0.352 0.129-0.774 0.242-1.209 0.318l-0.047 0.007c-0.315 0.067-0.565 0.291-0.667 0.584l-0.002 0.006c-0.306 0.711-0.628 1.414-0.949 2.118-0.048 0.081-0.099 0.152-0.156 0.217l0.001-0.002c-0.045-0.072-0.079-0.155-0.098-0.245l-0.001-0.005c0-0.692 0-1.388 0-2.080z"></path>
<path fill="#fff" d="M16.567 12.249c0-0.877 0-1.755 0-2.647 0-0.484 0.151-0.567 0.567-0.303 0.575 0.378 1.134 0.756 1.671 1.172 0.174 0.129 0.333 0.291 0.204 0.56-0.541 1.134-0.605 2.39-1.025 3.555-0.138 0.469-0.564 0.806-1.069 0.806-0.003 0-0.006 0-0.009 0v0c-0.141-0.029-0.255-0.122-0.313-0.247l-0.001-0.003c-0.027-0.117-0.042-0.251-0.042-0.389 0-0.060 0.003-0.119 0.009-0.178l-0.001 0.007c0-0.783 0-1.566 0-2.348z"></path>
<path fill="#fff" d="M9.583 19.865c0-0.223 0-0.442 0-0.662 0-0.008-0.001-0.018-0.001-0.028 0-0.357 0.237-0.659 0.562-0.757l0.006-0.001c1.169-0.424 2.345-0.813 3.521-1.21 0.14-0.045 0.333-0.113 0.431-0.057 0.274 0.179 0.512 0.369 0.731 0.58l-0.002-0.001c0.023 0.023-0.026 0.174-0.079 0.227-0.172 0.174-0.356 0.335-0.551 0.483l-0.013 0.009q-1.169 0.851-2.352 1.679-0.881 0.613-1.781 1.191c-0.053 0.034-0.246-0.030-0.257-0.079-0.11-0.45-0.193-0.904-0.287-1.358z"></path>
<path fill="#fff" d="M20.689 22.716c-0.279-0.116-0.52-0.261-0.735-0.435l0.006 0.004c-0.643-0.684-1.248-1.399-1.864-2.106-0.185-0.212-0.378-0.427-0.529-0.654-0.087-0.117-0.212-0.276-0.193-0.397 0.084-0.345 0.179-0.637 0.292-0.918l-0.016 0.045c0.292 0.094 0.542 0.203 0.78 0.333l-0.023-0.012c1.339 0.858 2.647 1.736 3.99 2.606 0.146 0.073 0.271 0.164 0.378 0.272v0c0.053 0.072 0.045 0.295 0 0.318-0.669 0.321-1.365 0.624-2.084 0.945z"></path>
<path fill="#fff" d="M12.54 22.818c-0.734-0.223-1.426-0.408-2.095-0.65-0.34-0.121-0.359-0.435-0.068-0.658 0.378-0.299 0.805-0.575 1.214-0.862 0.987-0.696 1.974-1.395 2.969-2.084 0.154-0.087 0.335-0.17 0.523-0.238l0.025-0.008c0.125 0.306 0.268 0.605 0.378 0.919 0.023 0.087-0.083 0.234-0.159 0.329q-1.218 1.513-2.45 3.006c-0.098 0.092-0.209 0.174-0.328 0.241l-0.009 0.004z"></path>
<path fill="#fff" d="M23.302 19.937l-0.17 1.282c-0.507 0.042-0.726-0.424-1.082-0.639-1.063-0.647-2.069-1.377-3.097-2.076-0.129-0.087-0.303-0.136-0.378-0.253-0.14-0.197-0.571-0.28-0.325-0.654 0.299-0.458 0.609-0.582 1.010-0.442 1.199 0.412 2.394 0.843 3.604 1.221 0.318 0.098 0.378 0.242 0.378 0.518v1.036z"></path>
<path fill="#fff" d="M16.265 12.298c0 0.851 0 1.702 0 2.549 0 0.601 0 0.556-0.579 0.442-0.353-0.049-0.635-0.305-0.721-0.641l-0.001-0.006q-0.529-1.789-1.002-3.585c-0.002-0.020-0.004-0.043-0.004-0.067 0-0.168 0.071-0.319 0.185-0.424v0c0.59-0.45 1.199-0.885 1.827-1.282 0.28-0.178 0.291 0.102 0.295 0.28 0 0.911 0 1.823 0 2.734z"></path>
<path fill="#fff" d="M16.261 16.495c0 0.469-0.537 1.040-0.923 1.017-0.489-0.078-0.859-0.497-0.859-1.002 0-0.054 0.004-0.106 0.012-0.158l-0.001 0.006c0.078-0.436 0.446-0.765 0.894-0.783h0.002c0.461 0.082 0.815 0.452 0.873 0.914l0.001 0.005z"></path>
<path fill="#fff" d="M18.341 16.567c0.001 0.017 0.002 0.037 0.002 0.057 0 0.464-0.368 0.842-0.829 0.858h-0.001c-0.501-0.086-0.886-0.49-0.941-0.993v-0.005c0.026-0.378 0.575-0.934 0.915-0.919 0.48 0.019 0.861 0.413 0.861 0.896 0 0.038-0.002 0.075-0.007 0.111v-0.004z"></path>
<path fill="#fff" d="M16.484 19.025c-0.635 0-0.874-0.242-0.862-0.836-0.001-0.017-0.002-0.037-0.002-0.057 0-0.468 0.379-0.847 0.847-0.847 0.005 0 0.009 0 0.014 0h-0.001c0.511 0.035 0.912 0.457 0.912 0.974 0 0.006 0 0.012 0 0.018v-0.001c-0.038 0.424-0.391 0.753-0.821 0.753-0.030 0-0.060-0.002-0.090-0.005h0.004z"></path>
</svg>
