<!-- Generated by IcoMoon.io -->
<svg version="1.1" xmlns="http://www.w3.org/2000/svg" width="512" height="512" viewBox="0 0 512 512">
<title></title>
<g id="icomoon-ignore">
</g>
<path fill="#fff" d="M91.094 64.338c-1.758 1.017-1.176 3.389 1.831 7.465 1.569 2.127 4.374 6.885 6.236 10.575s5.097 9.469 7.188 12.839c5.44 8.769 8.15 13.762 9.783 18.039 2.217 5.805 8.848 16.929 12.208 20.479 2.051 2.169 8.793 15.065 10.678 20.432 2.095 5.961 4.087 9.795 6.608 12.718 1.382 1.602 3.769 4.374 5.304 6.161 1.934 2.253 3.579 5.163 5.363 9.477 4.859 11.759 10.329 14.764 23.805 13.077 8.553-1.072 9.723-1.515 12.978-4.901 10.187-10.599 11.313-23.973 2.642-31.383-1.251-1.069-4.282-3.652-6.733-5.738-7.393-6.292-21.255-20.469-23.968-24.511-3.611-5.38-8.648-11.349-10.882-12.897-1.050-0.727-2.976-2.284-4.282-3.464s-3.854-3.087-5.66-4.243c-1.806-1.156-3.736-2.793-4.291-3.637-0.969-1.483-7.053-6.453-13.275-10.851-1.647-1.166-6.687-5.761-11.196-10.213-7.318-7.223-14.62-13.999-19.347-17.949-2.085-1.743-3.699-2.221-4.989-1.474zM418.142 66.235c-1.533 1.633-3.1 6.294-2.463 7.326 0.561 0.908 3.381-0.641 4.946-2.717 2.78-3.686 0.545-7.833-2.483-4.609zM412.25 75.789c-1.425 0.729-3.394 2.090-4.377 3.021s-3.508 2.973-5.615 4.532c-2.109 1.56-4.706 3.831-5.773 5.047-1.066 1.217-3.676 3.337-5.799 4.713-2.121 1.375-4.233 2.96-4.692 3.519-0.461 0.559-1.905 1.56-3.209 2.223-10.5 5.336-25.701 19.527-31.438 29.348-1.124 1.925-3.741 5.078-5.812 7.004-6.479 6.020-16.282 14.601-21.213 18.572-8.631 6.951-11.875 11.716-13.083 19.221-2.090 12.976 2.167 19.009 14.923 21.157 3.196 0.538 8.093 1.725 10.882 2.637 6.039 1.976 7.823 1.719 11.763-1.691 7.181-6.215 9.427-9.831 10.292-16.575 0.894-6.973 3.551-12 12.87-24.353 1.574-2.086 3.956-5.631 5.294-7.879s2.909-4.615 3.494-5.26c0.584-0.648 2.587-4.193 4.453-7.879 1.864-3.687 4.598-8.409 6.072-10.497 11.553-16.341 18.861-30.563 22.772-44.313 1.258-4.426 1.423-4.195-1.803-2.547zM212.393 183.278c-0.644 0.711-1.294 3.21-1.828 7.017-0.915 6.519-1.23 7.34-4.245 11.070-3.597 4.451-5.727 5.042-17.451 4.843-12.611-0.216-14.697 0.675-14.739 6.294-0.019 2.515 0.153 2.774 4.87 7.294 2.689 2.578 6.087 6.526 7.553 8.773 1.465 2.247 4.276 6.055 6.245 8.463 1.971 2.408 4.355 5.427 5.299 6.711 0.943 1.284 4.76 5.091 8.481 8.463 15.299 13.856 18.42 21.543 11.607 28.596-1.085 1.124-2.847 3.279-3.911 4.789-4.554 6.452-8.931 11.551-13.572 15.804-6.237 5.718-11.239 12.162-15.891 20.475-5.772 10.312-11.167 17.079-23.76 29.795-6.381 6.445-12.273 12.766-13.095 14.049s-2.493 3.393-3.713 4.685c-1.221 1.293-3.075 3.693-4.121 5.333-5.86 9.183-13.431 18.119-17.458 20.601-14.662 9.039-16.762 11.972-13.36 18.641 1.939 3.801 12.453 11.301 18.994 13.551 2.686 0.923 5.876 3.994 9.629 9.273 9.801 13.779 15.426 13.617 20.452-0.582 2.899-8.193 5.583-12.285 14.564-22.197 4.761-5.253 7.455-8.808 9.267-12.226 1.407-2.651 3.711-6.167 5.122-7.815 8.727-10.197 11.299-12.991 13.851-15.046 1.57-1.263 3.579-3.209 4.465-4.324s3.081-3.237 4.88-4.716c1.796-1.479 3.267-2.872 3.267-3.094 0-0.224 1.641-2.261 3.647-4.528s5.223-6.159 7.149-8.649c1.925-2.488 4.916-6.132 6.643-8.095 3.777-4.289 8.823-11.351 8.823-12.345 0-2.241 7.326-11.366 11.056-13.77 6.19-3.988 14.551 0.938 21.615 12.735 2.229 3.723 6.537 9.49 10.203 13.657 1.295 1.473 3.998 5.281 6.003 8.463 4.042 6.406 7.8 10.642 17.361 19.567 10.691 9.981 15.763 16.186 22.502 27.534 1.105 1.861 2.666 4.49 3.468 5.843 5.070 8.55 10.575 14.859 16.517 18.928 1.519 1.041 2.996 2.485 3.281 3.209s1.211 3.31 2.057 5.747c4.291 12.351 13.612 11.64 23.977-1.829 2.277-2.957 10.995-9.311 12.779-9.311 0.848 0 10.9-7.191 11.992-8.58 4.257-5.415 2.569-11.309-4.49-15.675-4.503-2.787-11.962-9.826-17.751-16.755-1.55-1.855-4.397-4.686-6.332-6.296-1.933-1.61-3.514-3.171-3.514-3.474s-1.378-1.635-3.063-2.962c-3.011-2.373-4.515-4.467-12.35-17.204-2.485-4.039-4.281-6.225-6.42-7.815-3.885-2.889-9.813-9.122-11.127-11.7-0.573-1.122-1.899-3.221-2.948-4.665-1.051-1.443-3.425-5.515-5.281-9.045-3.964-7.547-5.581-9.51-19.065-23.141-16.569-16.748-20.72-23.106-19.082-29.237 0.815-3.056 5.29-9.036 8.428-11.265 2.483-1.762 8.533-7.102 16.167-14.267 2.564-2.408 5.337-5.559 6.161-7.004s2.079-3.283 2.787-4.085c0.708-0.802 2.206-2.903 3.333-4.669 1.125-1.766 3.327-4.42 4.893-5.901 3.423-3.235 5.295-6.783 6.155-11.667 1.005-5.71 0.723-5.793-13.826-4.041-12.353 1.488-19.935-2.197-21.585-10.489-0.907-4.563-4.869-9.921-7.339-9.921-2.739 0-11.121 10.483-15.339 19.184-2.265 4.673-4.601 8.454-6.755 10.928-1.145 1.317-3.165 3.692-4.491 5.278-10.498 12.579-22.456 7.796-34.233-13.693-12.127-22.126-18.693-28.723-23.411-23.511z"></path>
</svg>
