<!-- Generated by IcoMoon.io -->
<svg version="1.1" xmlns="http://www.w3.org/2000/svg" width="33" height="32" viewBox="0 0 33 32">
<title>bladeborn-garrek</title>
<path fill="#fff" d="M12.521 10.356c0.209 0.012 0.454 0.018 0.701 0.018s0.491-0.007 0.735-0.020l-0.034 0.001c0.044-0.005 0.094-0.008 0.146-0.008 0.538 0 1.006 0.304 1.241 0.749l0.004 0.008c0.222 0.314 0.46 0.59 0.721 0.841l0.002 0.002c0.285 0.292 0.495 0.277 0.708-0.094 0.323-0.49 0.717-0.902 1.174-1.235l0.014-0.009c0.232-0.185 0.53-0.296 0.854-0.296 0.096 0 0.189 0.010 0.279 0.028l-0.009-0.002c0.113 0.003 0.246 0.005 0.38 0.005 0.452 0 0.899-0.019 1.342-0.057l-0.058 0.004c0.547 0 1.098 0.060 1.641 0.12 0.113 0.034 0.201 0.116 0.243 0.222l0.001 0.003c0.202 0.667 0 1.341 0 2.012 0 0.251-0.708 0.551-1.102 0.517-0.198-0.010-0.383-0.049-0.556-0.113l0.013 0.004c-0.153-0.067-0.332-0.107-0.52-0.107-0.163 0-0.319 0.029-0.463 0.083l0.009-0.003c-0.142 0.047-0.306 0.074-0.476 0.074-0.191 0-0.373-0.034-0.543-0.096l0.011 0.004c-0.085-0.032-0.184-0.050-0.286-0.050-0.251 0-0.477 0.11-0.631 0.286l-0.001 0.001c-0.375 0.281-0.375 0.487-0.045 0.854 0.487 0.573 0.985 0.978 1.847 0.674 0.375-0.139 0.937 0.172 1.349 0.049 0.495-0.146 0.903 0.097 1.353 0.079 0.071 0 0.229 0.199 0.214 0.225-0.206 0.341 0 0.652 0.022 0.978 0.005 0.030 0.008 0.064 0.008 0.1 0 0.294-0.203 0.54-0.476 0.608l-0.004 0.001c-0.267 0.090-0.575 0.142-0.895 0.142v0c-0.266-0.026-0.584-0.296-0.716 0.064-0.060 0.161 0.191 0.483 0.375 0.678 0.375 0.412 0.749 0.787 1.15 1.18s0.727 0.918 0.45 1.566c0 0.026 0 0.060 0 0.090-0.052 0.412-0.101 0.824-0.154 1.236l-1.379 0.094c-0.315 0-0.45-0.142-0.446-0.45 0-0.468 0-0.937 0-1.405 0-0.202-0.037-0.375-0.296-0.375s-0.375 0.135-0.375 0.397c0 0.435 0 0.873 0 1.308s-0.18 0.551-0.562 0.536-0.749 0-1.124 0c-0.315 0-0.453-0.142-0.446-0.453s0-0.686 0-1.027c0.001-0.028 0.001-0.062 0.001-0.095 0-0.163-0.010-0.324-0.029-0.482l0.002 0.019c0-0.067-0.131-0.176-0.176-0.165s-0.251 0.109-0.255 0.176c-0.026 0.498-0.041 0.997-0.026 1.499 0 0.412-0.172 0.54-0.558 0.54-1.675 0-1.596 0.071-1.577-1.472 0-0.217 0-0.435 0-0.652s-0.15-0.169-0.281-0.195c-0.187-0.037-0.206 0.041-0.202 0.184 0 0.345 0 0.689 0 1.030 0 0.012 0 0.027 0 0.042 0 0.213-0.027 0.419-0.079 0.616l0.004-0.017c-0.090 0.27-0.24 0.521-0.603 0.461-0.027-0.003-0.059-0.004-0.092-0.004s-0.064 0.002-0.096 0.005h0.004c-1.45 0-1.255 0.135-1.27-1.225 0-0.217 0-0.438 0-0.656s-0.067-0.356-0.318-0.356-0.348 0.094-0.348 0.326c0 0.468 0 0.937 0 1.401 0 0.348-0.131 0.506-0.491 0.513-1.817 0.019-1.637 0.045-1.649-1.499-0.004-0.040-0.006-0.087-0.006-0.135 0-0.377 0.134-0.722 0.356-0.992l-0.002 0.003c0.393-0.461 0.652-1.034 1.214-1.36 0.139-0.117 0.251-0.262 0.327-0.427l0.003-0.008c0.082-0.139 0.142-0.288 0.214-0.435-0.151-0.049-0.33-0.088-0.514-0.111l-0.014-0.001c-0.292 0-0.592 0.064-0.88 0.037-0.375-0.030-0.618-0.184-0.569-0.633 0.022-0.199-0.101-0.408-0.101-0.614 0-0.689 0.079-0.787 0.749-0.832 0.375-0.022 0.783 0 1.176 0 0.072 0.007 0.155 0.011 0.239 0.011 0.273 0 0.536-0.041 0.784-0.117l-0.019 0.005c0.259-0.12 0.348-0.146 0.599 0.030 0.089 0.065 0.2 0.105 0.32 0.105 0.205 0 0.384-0.114 0.476-0.282l0.001-0.003c0.165-0.244 0.48-0.375 0.697-0.592 0.108-0.073 0.178-0.195 0.178-0.333 0-0.164-0.098-0.304-0.239-0.367l-0.003-0.001c-0.399-0.274-0.891-0.437-1.423-0.437-0.198 0-0.391 0.023-0.577 0.066l0.017-0.003c-0.244 0.077-0.524 0.121-0.815 0.121s-0.571-0.044-0.835-0.126l0.020 0.005c-0.126-0.029-0.271-0.046-0.419-0.046-0.048 0-0.095 0.002-0.141 0.005h0.006c-0.727-0.045-0.809-0.12-0.832-0.809q0-0.42 0-0.843c0-0.749 0.289-0.978 1.027-0.922 0.554 0.041 1.124 0.064 1.671 0.094zM15.594 17.1v-0.045l2.091 0.026c0.1-0.009 0.192-0.025 0.282-0.048l-0.012 0.003c-0.049-0.089-0.096-0.164-0.147-0.236l0.005 0.007c-0.333-0.401-0.674-0.794-1.008-1.191s-0.468-0.397-0.832 0c-0.225 0.251-0.476 0.48-0.708 0.749s-0.375 0.457-0.588 0.689z"></path>
<path fill="#fff" d="M17.677 29.591c0-0.622 0-1.248 0-1.873 0-0.686 0.097-0.772 0.787-0.895 0.27-0.049 0.54-0.12 0.806-0.184 1.723-0.47 3.213-1.306 4.441-2.424l-0.009 0.008c1.142-0.919 2.031-2.106 2.576-3.468l0.020-0.057c0.165-0.461 0.348-0.91 0.551-1.356 0.465-1.030 0.375-2.121 0.375-3.203 0-0.405-0.019-0.813 0-1.218 0.071-1.266-0.345-2.413-0.824-3.559-0.733-1.601-1.786-2.942-3.085-3.989l-0.021-0.016c-0.776-0.693-1.691-1.251-2.695-1.625l-0.059-0.019c-0.735-0.331-1.59-0.592-2.482-0.741l-0.061-0.008c-0.155-0.066-0.268-0.204-0.296-0.372v-0.003c-0.022-1.465 0-2.93 0-4.395 0-0.071 0.075-0.142 0.116-0.21 0.043 0.039 0.080 0.083 0.111 0.132l0.002 0.003c0.288 0.577 0.596 1.306 0.866 2.053l0.048 0.154c0.099 0.365 0.403 0.639 0.778 0.693l0.005 0.001c1.659 0.435 3.115 1.098 4.422 1.967l-0.054-0.034c0.111 0.064 0.205 0.144 0.283 0.238l0.001 0.002c0.457 0.607 1.053 0.547 1.682 0.375 0.146-0.041 0.296-0.079 0.442-0.127 0.307-0.097 0.693-0.375 0.907-0.12 0.142 0.176-0.045 0.618-0.094 0.944-0.022 0.065-0.047 0.121-0.077 0.173l0.002-0.005c-0.093 0.24-0.147 0.518-0.147 0.808 0 0.573 0.21 1.097 0.558 1.499l-0.002-0.003c0.913 1.268 1.559 2.788 1.824 4.435l0.008 0.060c0.090 0.521 0.094 1.15 0.659 1.465 0.302 0.167 0.663 0.332 1.036 0.472l0.058 0.019c0.573 0.221 1.158 0.416 1.735 0.629 0.049 0 0.082 0.071 0.124 0.109-0.041 0.042-0.088 0.078-0.139 0.107l-0.003 0.002-2.402 0.97c-0.513 0.146-0.892 0.584-0.951 1.118l-0.001 0.006c-0.167 1.038-0.428 1.966-0.781 2.846l0.031-0.089c-0.419 0.919-0.841 1.69-1.312 2.426l0.046-0.077c-0.135 0.24-0.33 0.446-0.472 0.686-0.156 0.195-0.25 0.446-0.25 0.718 0 0.146 0.027 0.285 0.076 0.414l-0.003-0.008c0.134 0.379 0.25 0.833 0.327 1.3l0.007 0.049c0.079 0.375-0.067 0.54-0.412 0.45-0.476-0.127-0.944-0.281-1.416-0.42-0.111-0.050-0.24-0.079-0.376-0.079-0.221 0-0.424 0.076-0.585 0.204l0.002-0.001c-1.216 1.005-2.664 1.779-4.248 2.228l-0.083 0.020c-0.689 0.191-1.15 0.502-1.341 1.225-0.162 0.448-0.345 0.831-0.56 1.193l0.017-0.031c-0.135 0.281-0.259 0.57-0.375 0.851-0.030-0.333-0.071-0.671-0.082-1.008-0.041-0.51-0.030-0.963-0.030-1.431z"></path>
<path fill="#fff" d="M14.945 2.458c0 0.622 0 1.244 0 1.873 0.004 0.027 0.007 0.058 0.007 0.090 0 0.327-0.264 0.593-0.591 0.596v0c-1.204 0.239-2.272 0.607-3.269 1.098l0.077-0.034c-0.575 0.28-1.068 0.623-1.502 1.030l0.003-0.003c-0.998 0.799-1.862 1.704-2.595 2.71l-0.028 0.040c-0.91 1.308-1.278 2.784-1.701 4.252-0.083 0.441-0.131 0.949-0.131 1.468 0 0.002 0 0.003 0 0.005v0c-0.169 1.78 0.341 3.439 1.027 5.028 0.403 0.962 0.928 1.789 1.567 2.512l-0.008-0.010c1.356 1.48 2.919 2.731 4.897 3.327 0.525 0.157 1.004 0.45 1.6 0.423 0.021-0.003 0.045-0.004 0.069-0.004 0.323 0 0.584 0.262 0.584 0.584 0 0.016-0.001 0.032-0.002 0.047v-0.002c0 1.371 0 2.743 0 4.121-0.018 0.091-0.052 0.171-0.099 0.242l0.002-0.003c-0.060-0.064-0.15-0.116-0.18-0.191-0.191-0.476-0.375-0.963-0.558-1.442-0.277-0.671-0.633-1.225-1.431-1.431-1.133-0.328-2.119-0.753-3.037-1.282l0.066 0.035c-0.607-0.322-1.124-0.749-1.69-1.098-0.277-0.172-0.472-0.315-0.835-0.169-0.411 0.149-0.914 0.288-1.43 0.39l-0.068 0.011c-0.423 0.105-0.581-0.060-0.45-0.498 0.114-0.356 0.224-0.643 0.349-0.922l-0.023 0.057c0.101-0.207 0.159-0.45 0.159-0.707 0-0.385-0.132-0.739-0.353-1.020l0.003 0.003c-0.488-0.748-0.947-1.61-1.33-2.513l-0.041-0.11c-0.436-0.872-0.741-1.886-0.858-2.957l-0.004-0.040c0.001-0.012 0.001-0.025 0.001-0.039 0-0.403-0.296-0.737-0.682-0.796l-0.005-0.001c-0.749-0.165-1.323-0.637-2.001-0.922-0.162-0.093-0.302-0.196-0.429-0.313l0.002 0.002c0.134-0.098 0.288-0.194 0.447-0.278l0.021-0.010c0.592-0.262 1.191-0.51 1.791-0.749 0.471-0.131 0.819-0.537 0.861-1.030v-0.004c0.297-1.843 0.938-3.492 1.856-4.947l-0.032 0.054c0.213-0.372 0.441-0.693 0.696-0.99l-0.007 0.008c0.159-0.177 0.256-0.413 0.256-0.671 0-0.132-0.025-0.258-0.071-0.373l0.002 0.007c-0.135-0.502-0.247-1.012-0.375-1.521-0.075-0.296 0.037-0.412 0.326-0.337 0.45 0.12 0.895 0.232 1.334 0.375 0.141 0.068 0.306 0.108 0.481 0.108 0.267 0 0.512-0.093 0.705-0.248l-0.002 0.002c1.028-0.779 2.211-1.43 3.484-1.896l0.094-0.030c0.177-0.093 0.381-0.165 0.598-0.204l0.013-0.002c0.929-0.037 1.311-0.648 1.574-1.42 0.158-0.458 0.312-0.829 0.486-1.19l-0.028 0.066c0.097-0.167 0.2-0.312 0.314-0.446l-0.003 0.004c0.051 0.168 0.093 0.368 0.118 0.574l0.002 0.018c0 0.558 0 1.124 0 1.682z"></path>
</svg>
