<!-- Generated by IcoMoon.io -->
<svg version="1.1" xmlns="http://www.w3.org/2000/svg" width="33" height="32" viewBox="0 0 33 32">
<title>bladeborn-spiteclaw</title>
<path fill="#fff" d="M17.725 29.546c0-0.628 0-1.252 0-1.879 0-0.812-0.071-0.669 0.688-0.857 0.783-0.177 1.459-0.397 2.108-0.67l-0.082 0.031c1.886-0.803 3.47-1.996 4.708-3.487l0.016-0.020c1.105-1.357 1.59-2.924 2.097-4.51 0.031-0.146 0.048-0.313 0.048-0.485 0-0.094-0.005-0.187-0.016-0.278l0.001 0.011c0-0.752-0.026-1.503 0-2.255 0.075-1.605-0.455-3.037-1.128-4.443-0.842-1.671-2.057-3.045-3.541-4.051l-0.037-0.024c-0.88-0.649-1.92-1.142-3.046-1.413l-0.058-0.012c-0.511-0.105-1.011-0.263-1.503-0.406-0.289-0.079-0.237-0.335-0.237-0.541 0-1.094 0-2.191 0-3.285 0-0.248 0-0.5 0-0.752 0.022-0.088 0.057-0.166 0.103-0.236l-0.002 0.003c0.070 0.056 0.129 0.12 0.178 0.192l0.002 0.003c0.288 0.529 0.578 1.167 0.825 1.826l0.036 0.109c0.094 0.331 0.341 0.589 0.658 0.697l0.007 0.002c0.265 0.136 0.579 0.264 0.905 0.365l0.042 0.011c1.546 0.422 2.892 1.128 4.041 2.064l-0.020-0.016c0.24 0.188 0.547 0.302 0.88 0.302 0.143 0 0.282-0.021 0.412-0.060l-0.010 0.003c0.301-0.056 0.601-0.128 0.906-0.18 0.887-0.165 0.88-0.169 0.62 0.752-0.125 0.382-0.232 0.839-0.299 1.308l-0.005 0.045c-0.001 0.018-0.002 0.038-0.002 0.059 0 0.232 0.075 0.446 0.203 0.62l-0.002-0.003c0.98 1.235 1.699 2.722 2.047 4.346l0.013 0.070c0.094 0.481 0.248 0.955 0.376 1.432 0.086 0.371 0.356 0.664 0.707 0.78l0.008 0.002 2.327 0.94c0.083 0.034 0.158 0.083 0.241 0.124-0.079 0.090-0.135 0.229-0.233 0.271-0.752 0.338-1.526 0.654-2.293 0.977-0.431 0.146-0.748 0.52-0.807 0.975l-0.001 0.006c-0.309 1.728-0.88 3.273-1.676 4.672l0.038-0.072c-0.304 0.504-0.665 0.97-0.955 1.477-0.084 0.159-0.133 0.347-0.133 0.546 0 0.051 0.003 0.102 0.010 0.151l-0.001-0.006c0.071 0.485 0.218 0.962 0.316 1.443 0.116 0.586 0.075 0.658-0.515 0.571-0.425-0.085-0.803-0.215-1.155-0.388l0.027 0.012c-0.126-0.064-0.274-0.102-0.432-0.102-0.251 0-0.48 0.096-0.652 0.253l0.001-0.001c-1.128 0.804-2.293 1.597-3.65 2.007-0.44 0.135-0.887 0.244-1.323 0.376-0.295 0.099-0.518 0.34-0.589 0.64l-0.001 0.006c-0.241 0.729-0.59 1.421-0.898 2.127-0.045 0.081-0.095 0.152-0.151 0.215l0.001-0.001c-0.044-0.071-0.079-0.154-0.1-0.242l-0.001-0.006c0-0.718 0-1.439 0-2.157z"></path>
<path fill="#fff" d="M14.981 2.342c0 0.658 0 1.315 0 1.973 0 0.335-0.117 0.47-0.47 0.545-0.722 0.154-1.424 0.376-2.131 0.609-0.897 0.318-1.673 0.746-2.365 1.278l0.020-0.015c-1.207 0.843-2.214 1.881-2.999 3.077l-0.026 0.043c-1.142 1.691-1.822 3.775-1.822 6.018 0 0.47 0.030 0.933 0.088 1.388l-0.006-0.054c0.172 1.471 0.638 2.804 1.337 3.981l-0.025-0.046c0.569 1.014 1.227 1.887 1.983 2.664l-0.003-0.003c1.246 1.272 2.803 2.235 4.547 2.769l0.076 0.020c0.369 0.113 0.825 0.217 1.291 0.289l0.059 0.008c0.376 0.049 0.451 0.256 0.447 0.575 0 0.752-0.023 1.503 0 2.255 0.019 0.522 0.109 1.041 0.158 1.564 0.010 0.084 0.015 0.181 0.015 0.28s-0.006 0.196-0.017 0.292l0.001-0.012c0 0.064-0.117 0.128-0.192 0.158s-0.135-0.026-0.158-0.064c-0.15-0.304-0.304-0.609-0.436-0.925-0.165-0.398-0.316-0.804-0.466-1.21-0.191-0.528-0.637-0.92-1.185-1.032l-0.010-0.002c-1.561-0.401-2.927-1.070-4.116-1.961l0.030 0.022c-0.071-0.056-0.199-0.064-0.241-0.132-0.507-0.774-1.18-0.613-1.879-0.346l-0.868 0.331c-0.353 0.135-0.541 0-0.459-0.376 0.080-0.365 0.196-0.686 0.346-0.987l-0.011 0.025c0.131-0.232 0.209-0.51 0.209-0.806 0-0.422-0.158-0.808-0.417-1.101l0.002 0.002c-0.755-1.044-1.37-2.253-1.783-3.552l-0.025-0.090c-0.184-0.549-0.318-1.188-0.374-1.849l-0.002-0.031c-0.004-0.352-0.236-0.649-0.554-0.75l-0.006-0.002c-0.489-0.199-0.966-0.421-1.455-0.624-0.083-0.038-0.199 0-0.271-0.060-0.278-0.188-0.545-0.376-0.816-0.598 0.274-0.154 0.537-0.323 0.819-0.459q0.925-0.44 1.879-0.846c0.236-0.082 0.402-0.303 0.402-0.562 0-0.001 0-0.001 0-0.002v0c0.138-1.453 0.541-2.784 1.16-3.985l-0.029 0.061c0.387-0.748 0.796-1.389 1.256-1.99l-0.023 0.031c0.297-0.425 0.545-0.793 0.308-1.361-0.137-0.389-0.267-0.869-0.364-1.362l-0.012-0.070c-0.090-0.327 0.094-0.41 0.335-0.376 0.34 0.059 0.641 0.142 0.928 0.252l-0.034-0.011c0.229 0.090 0.494 0.143 0.772 0.143 0.522 0 1.001-0.186 1.374-0.495l-0.004 0.003c0.97-0.695 1.985-1.376 3.21-1.616 0.532-0.147 0.991-0.326 1.427-0.546l-0.044 0.020c0.537-0.218 0.462-0.834 0.752-1.206 0.064-0.083 0-0.259 0.064-0.376 0.218-0.376 0.462-0.752 0.695-1.128 0.026 0.402 0.064 0.801 0.079 1.203s0 0.752 0 1.128z"></path>
<path fill="#fff" d="M11.591 9.039c1.206 0.041 1.206 0.041 1.594 1.161 0.259 0.752 0.259 0.752 1.030 0.752q2.255 0 4.51 0c0.752 0 0.752 0 0.97-0.707 0.376-1.173 0.376-1.173 1.635-1.169 0.222 0 0.44 0 0.658 0s0.274 0.079 0.165 0.293c-0.163 0.297-0.33 0.657-0.474 1.029l-0.022 0.065c-0.139 0.376 0 0.526 0.376 0.474 0.333-0.070 0.74-0.127 1.153-0.159l0.034-0.002c0.376 0 0.459 0.143 0.274 0.447-0.241 0.398-0.526 0.771-0.752 1.18-0.169 0.327-0.417 0.331-0.703 0.282-0.231-0.064-0.507-0.116-0.79-0.145l-0.022-0.002c-0.017-0.001-0.036-0.002-0.056-0.002-0.36 0-0.667 0.231-0.78 0.552l-0.002 0.006c-0.774 1.612-1.579 3.217-2.469 4.766-0.545 0.943-0.049 1.575 0.406 2.278 0 0.019 0.060 0.019 0.083 0.041 0.658 0.699 0.65 0.692 0 1.383-0.334 0.376-0.628 0.752-0.966 1.128-0.188 0.199-0.376 0.192-0.462-0.139s-0.124-0.665-0.203-0.996c-0.050-0.192-0.115-0.36-0.198-0.517l0.006 0.013c-0.038-0.075-0.139-0.12-0.214-0.177-0.051 0.063-0.096 0.135-0.132 0.211l-0.003 0.007c-0.113 0.353-0.199 0.71-0.319 1.060-0.184 0.537-0.301 0.571-0.669 0.169s-0.714-0.857-1.090-1.27c-0.222-0.241-0.173-0.417 0.030-0.639 0.286-0.323 0.549-0.669 0.816-1.007 0.459-0.583 0.282-1.195 0-1.759-0.658-1.391-1.376-2.755-2.041-4.134-0.286-0.598-0.545-1-1.376-0.816-1.402 0.308-1.834-0.669-2.191-1.62-0.075-0.203 0-0.293 0.195-0.297 0.436 0 0.876 0 1.312-0.023 0.132 0 0.338-0.075 0.376-0.165s-0.075-0.274-0.128-0.41c0-0.026-0.045-0.045-0.060-0.068l-0.598-0.928zM16.308 12.275v0.075c-0.436 0-0.872 0-1.308 0-0.515 0.026-0.609 0.18-0.398 0.628 0.519 1.128 1.041 2.233 1.579 3.345 0.045 0.098 0.207 0.229 0.267 0.207 0.14-0.052 0.252-0.15 0.322-0.275l0.002-0.003c0.549-1.067 1.075-2.146 1.616-3.217 0.147-0.293 0.12-0.474-0.237-0.519z"></path>
</svg>
