<!-- Generated by IcoMoon.io -->
<svg version="1.1" xmlns="http://www.w3.org/2000/svg" width="33" height="32" viewBox="0 0 33 32">
<title>bladeborn-starblood</title>
<path fill="#fff" d="M16.378 22.241c-0.536 0-1.068 0-1.605 0-0.857 0-1.087-0.227-1.106-1.114-0.023-0.978 0-1.952 0-2.926s-0.026-1.050-1.061-1.053c-0.661 0-1.321 0-1.982 0-0.408 0-0.464 0.208-0.31 0.551 0.111 0.233 0.206 0.505 0.27 0.789l0.005 0.027c0.095 0.435 0.157 0.941 0.173 1.46v0.013c0 0.238-0.136 0.608-0.31 0.68-0.116 0.044-0.25 0.069-0.39 0.069-0.184 0-0.357-0.044-0.511-0.121l0.006 0.003c-0.151-0.083-0.17-0.483-0.166-0.736 0.008-0.428 0.054-0.84 0.136-1.24l-0.007 0.043c0.091-0.442 0.396-0.914 0.302-1.291-0.079-0.317-0.646-0.483-0.921-0.785s-0.079-0.997 0.313-1.219c0.035-0.013 0.076-0.021 0.119-0.021s0.084 0.008 0.121 0.022l-0.002-0.001c0.060 0.025 0.109 0.064 0.147 0.112l0.001 0.001c0.415 0.442 0.619-0.151 0.921-0.177s0.468 0.589 0.846 0.242c0.294-0.272 0.506-0.291 0.778 0 0.045 0.053 0.211 0 0.321 0 0-0.11 0-0.257-0.060-0.328-0.283-0.302-0.521-0.736-1.065-0.378-0.106 0.072-0.313 0-0.468-0.030s-0.378-0.14-0.513-0.106c-0.261 0.060-0.4 0.502-0.789 0.143s-0.755-0.627-0.627-1.212c0.015-0.057 0.023-0.122 0.023-0.189s-0.008-0.132-0.024-0.194l0.001 0.005c-0.287-1.102 0.423-1.71 1.133-2.303 0.042-0.038 0.234 0.030 0.294 0.102 0.612 0.717 1.174 0.63 1.589-0.253 0.080-0.146 0.16-0.269 0.248-0.386l-0.006 0.009c0.087 0.117 0.223 0.223 0.253 0.355 0.136 0.555 0.502 0.702 1.038 0.729s0.608-0.423 0.8-0.755c0.045-0.079 0.068-0.17 0.11-0.253 0.091-0.174 0.189-0.347 0.283-0.521 0.077 0.19 0.158 0.35 0.25 0.502l-0.009-0.015c0.242 0.351 0.495 0.687 0.755 1.023 0.058 0.069 0.12 0.131 0.186 0.187l0.002 0.002c0.932 0.91 0.94 1.065 0.11 2.024-0.612 0.702-0.612 0.706 0.098 1.382 0.060 0.060 0.113 0.132 0.17 0.2 0.521 0.6 0.521 0.6 0 1.223-0.113 0.136-0.264 0.242-0.378 0.378-0.378 0.532-0.351 0.755 0.162 1.204 0.721 0.653 0.717 0.827 0 1.759-0.105 0.17-0.201 0.367-0.279 0.573l-0.008 0.024c0.224-0.142 0.419-0.291 0.6-0.456l-0.003 0.003c0.306-0.34 0.785-0.706 0.8-1.076s-0.453-0.755-0.782-1.038-0.208-0.529-0.068-0.808c0.050-0.084 0.107-0.157 0.17-0.223v0c0.785-1.016 0.804-1.034-0.057-1.948-0.378-0.378-0.404-0.657-0.023-1.023 0.177-0.166 0.261-0.43 0.442-0.593 0.43-0.378 0.551-0.736 0.042-1.155-0.313-0.253-0.227-0.563 0.121-0.608 0.502-0.068 0.547-0.408 0.683-0.755 0.148-0.287 0.31-0.535 0.494-0.764l-0.007 0.009c0.11 0.204 0.215 0.446 0.302 0.696l0.011 0.036c0.056 0.416 0.408 0.734 0.834 0.736v0c0.532 0.038 0.933-0.057 0.982-0.702 0-0.113 0.166-0.215 0.253-0.321 0.074 0.084 0.145 0.177 0.212 0.273l0.007 0.010c0.566 0.94 0.755 0.974 1.582 0.317 0.072-0.052 0.162-0.084 0.26-0.084 0.042 0 0.082 0.006 0.121 0.017l-0.003-0.001c1.133 0.672 1.476 1.574 1.219 2.979-0.094 0.51-0.868 0.853-1.348 0.755-0.34-0.060-0.929 0.347-1.057 0.215-0.378-0.378-0.627-0.238-0.944-0.042-0.081 0.049-0.148 0.114-0.199 0.19l-0.001 0.002c-0.058 0.108-0.119 0.241-0.172 0.378l-0.009 0.026c0.174 0.019 0.408 0.121 0.506 0.042 0.272-0.211 0.468-0.4 0.721 0.023 0.034 0.060 0.355 0.057 0.419-0.023 0.313-0.378 0.566-0.276 0.857 0 0.068 0.068 0.31 0.091 0.347 0.038 0.404-0.517 0.668-0.23 0.849 0.162 0.052 0.108 0.082 0.235 0.082 0.369 0 0.349-0.206 0.65-0.503 0.788l-0.005 0.002c-0.472 0.193-0.891 0.313-0.347 0.906 0.132 0.143 0.045 0.487 0.057 0.736-0.006 0.098-0.009 0.212-0.009 0.327 0 0.347 0.029 0.688 0.086 1.019l-0.005-0.036c0.079 0.302 0.185 0.585-0.128 0.714-0.119 0.052-0.257 0.082-0.402 0.082s-0.284-0.030-0.409-0.085l0.007 0.003c-0.193-0.11-0.423-0.51-0.359-0.664 0.321-0.755-0.098-1.639 0.461-2.356 0.181-0.234 0-0.472-0.351-0.464h-0.283l-2.435 0.068c-0.045 0.8-0.102 1.605-0.132 2.409-0.023 0.502 0 1.008 0 1.51 0.002 0.022 0.003 0.048 0.003 0.074 0 0.569-0.461 1.031-1.031 1.031-0.025 0-0.049-0.001-0.074-0.003h0.003c-0.559 0.072-1.159 0.057-1.756 0.057zM13.168 13.448c0.002 0 0.005 0 0.007 0 0.188 0 0.37-0.025 0.543-0.071l-0.015 0.003c0.279-0.14 0.544-0.306 0.815-0.464-0.317-0.162-0.627-0.332-0.948-0.483-0.041-0.008-0.089-0.013-0.138-0.013s-0.096 0.005-0.143 0.013l0.005-0.001c-0.359 0-0.664 0.143-0.593 0.513 0.057 0.215 0.347 0.385 0.464 0.502zM19.673 13.486c0.159-0.136 0.502-0.287 0.547-0.502 0.102-0.453-0.261-0.566-0.649-0.555-0.159 0-0.359-0.053-0.464 0.026-0.204 0.174-0.386 0.362-0.549 0.566l-0.006 0.008c0.177 0.098 0.347 0.204 0.529 0.287 0.154 0.057 0.353 0.115 0.555 0.162l0.038 0.007z"></path>
<path fill="#fff" d="M17.816 29.629c0.018-0.254 0.028-0.549 0.028-0.848s-0.010-0.594-0.031-0.887l0.002 0.040c-0.094-0.672 0.336-0.834 0.789-0.895 3.077-0.412 5.346-2.205 7.086-4.53 1.239-1.647 1.984-3.726 1.986-5.98v0c0.006-0.14 0.010-0.304 0.010-0.468 0-1.665-0.361-3.246-1.009-4.669l0.029 0.071c-0.761-1.657-1.866-3.039-3.23-4.105l-0.024-0.018c-0.533-0.467-1.128-0.891-1.763-1.252l-0.053-0.028c-0.875-0.399-1.938-0.785-3.033-1.093l-0.165-0.040c-0.4-0.121-0.612-0.227-0.608-0.657 0-1.321 0-2.643 0-3.964 0-0.094 0.091-0.185 0.14-0.279 0.074 0.082 0.141 0.174 0.199 0.271l0.004 0.008c0.296 0.55 0.594 1.217 0.85 1.904l0.038 0.116c0.118 0.393 0.456 0.681 0.868 0.724h0.004c1.808 0.468 3.386 1.26 4.749 2.317l-0.029-0.022c0.275 0.219 0.628 0.352 1.012 0.352 0.131 0 0.259-0.015 0.381-0.045l-0.011 0.002c0.211-0.038 0.419-0.106 0.631-0.147 0.298-0.053 0.596-0.091 0.895-0.136-0.026 0.359-0.026 0.721-0.087 1.072-0.042 0.238-0.177 0.461-0.242 0.695-0.038 0.116-0.060 0.249-0.060 0.387 0 0.303 0.105 0.582 0.281 0.801l-0.002-0.003c1.133 1.631 2.024 3.398 2.22 5.425 0.057 0.615 0.234 1.072 0.974 1.25 0.945 0.288 1.739 0.601 2.503 0.967l-0.106-0.046c0.068 0.030 0.109 0.117 0.162 0.181-0.075 0.038-0.151 0.087-0.23 0.117-0.808 0.302-1.605 0.634-2.428 0.895-0.488 0.125-0.845 0.555-0.857 1.071v0.001c-0.106 1.389-0.664 2.643-1.185 3.881-0.277 0.695-0.66 1.291-1.136 1.8l0.003-0.003c-0.664 0.672-0.396 1.34-0.249 2.042 0.026 0.117 0.128 0.219 0.151 0.336 0.042 0.208 0.128 0.559 0.057 0.6-0.143 0.079-0.314 0.126-0.496 0.126-0.072 0-0.142-0.007-0.209-0.021l0.007 0.001c-0.395-0.108-0.739-0.247-1.061-0.421l0.026 0.013c-0.119-0.073-0.264-0.117-0.418-0.117-0.238 0-0.452 0.103-0.6 0.267l-0.001 0.001c-0.683 0.633-1.488 1.144-2.376 1.492l-0.051 0.018c-0.706 0.276-1.412 0.574-2.144 0.782-0.52 0.098-0.935 0.467-1.096 0.953l-0.003 0.010c-0.208 0.612-0.502 1.197-0.755 1.79-0.050 0.073-0.109 0.135-0.176 0.187l-0.002 0.001c-0.049-0.091-0.136-0.181-0.136-0.276-0.030-0.698-0.023-1.359-0.023-2.020z"></path>
<path fill="#fff" d="M15.117 2.345c0 0.627 0 1.257 0 1.888 0.004 0.026 0.007 0.056 0.007 0.087 0 0.295-0.221 0.538-0.506 0.573h-0.003c-0.755 0.189-1.469 0.446-2.201 0.683-2.095 0.687-3.613 2.182-5.010 3.775-0.547 0.627-0.812 1.51-1.212 2.265-0.948 1.808-1.046 3.775-0.857 5.72 0.159 1.156 0.459 2.202 0.887 3.18l-0.030-0.077c1.027 2.643 2.967 4.493 5.44 5.746 0.752 0.447 1.639 0.753 2.587 0.858l0.030 0.003c0.797 0.038 0.865 0.177 0.865 0.989 0 1.227 0 2.454 0 3.681 0 0.098-0.091 0.196-0.136 0.294-0.063-0.080-0.123-0.17-0.176-0.265l-0.006-0.011c-0.276-0.623-0.589-1.231-0.8-1.888-0.151-0.466-0.548-0.811-1.035-0.883l-0.007-0.001c-1.822-0.49-3.407-1.323-4.756-2.433l0.022 0.017c-0.156-0.172-0.38-0.279-0.63-0.279-0.139 0-0.271 0.034-0.387 0.093l0.005-0.002c-0.366 0.133-0.793 0.232-1.236 0.281l-0.025 0.002c-0.189 0.038-0.378 0.094-0.551 0.147-0.008-0.097-0.013-0.21-0.013-0.325s0.005-0.227 0.014-0.339l-0.001 0.015c0.052-0.303 0.128-0.572 0.229-0.829l-0.010 0.028c0.078-0.198 0.124-0.427 0.124-0.666 0-0.444-0.156-0.852-0.417-1.172l0.003 0.003c-1.085-1.517-1.82-3.354-2.052-5.345l-0.005-0.054c-0.072-0.612-0.555-0.876-1.034-1.091-0.668-0.306-1.359-0.559-2.039-0.838-0.079-0.034-0.132-0.121-0.2-0.181 0.055-0.043 0.117-0.082 0.182-0.114l0.006-0.003c0.706-0.313 1.401-0.661 2.126-0.921 0.543-0.148 0.942-0.619 0.981-1.189v-0.004c0.211-1.782 0.844-3.383 1.797-4.745l-0.022 0.033c0.275-0.353 0.55-0.752 0.803-1.167l0.032-0.056c0.075-0.139 0.119-0.305 0.119-0.48 0-0.066-0.006-0.131-0.018-0.194l0.001 0.006c-0.125-0.57-0.313-1.133-0.468-1.688-0.094-0.351-0.143-0.672 0.404-0.415 0.196 0.091 0.415 0.128 0.615 0.211 0.266 0.131 0.579 0.208 0.91 0.208 0.519 0 0.993-0.189 1.359-0.501l-0.003 0.002c1.234-0.915 2.702-1.592 4.295-1.931l0.073-0.013c0.371-0.061 0.664-0.334 0.754-0.688l0.001-0.006c0.238-0.729 0.574-1.427 0.876-2.137 0.047-0.076 0.101-0.142 0.162-0.2v0c0.053 0.087 0.143 0.174 0.143 0.264 0.004 0.691-0.004 1.382-0.004 2.076z"></path>
</svg>
