<!-- Generated by IcoMoon.io -->
<svg version="1.1" xmlns="http://www.w3.org/2000/svg" width="33" height="32" viewBox="0 0 33 32">
<title>bladeborn-skaeth</title>
<path fill="#fff" d="M17.712 29.531c0-0.627 0.042-1.261 0-1.888-0.038-0.495 0.211-0.665 0.608-0.755s0.85-0.151 1.269-0.249c2.145-0.514 3.776-1.797 5.226-3.398 1.102-1.257 1.937-2.776 2.398-4.451l0.019-0.080c0.162-0.592 0.272-1.28 0.305-1.987l0.001-0.022c0.027-0.277 0.042-0.599 0.042-0.925 0-1.576-0.357-3.068-0.994-4.4l0.026 0.062c-1.133-2.401-2.677-4.342-5.165-5.479-0.931-0.492-2.012-0.87-3.152-1.077l-0.069-0.010c-0.001 0-0.002 0-0.003 0-0.275 0-0.498-0.223-0.498-0.498 0-0.020 0.001-0.040 0.003-0.059v0.002q0-2.031 0-4.059c0.012-0.094 0.034-0.179 0.067-0.26l-0.002 0.007c0.087 0.064 0.211 0.113 0.253 0.204 0.321 0.695 0.668 1.386 0.921 2.107 0.125 0.355 0.328 0.438 0.638 0.57 0.902 0.378 1.922 0.427 2.756 1.053 0.755 0.566 1.665 0.929 2.451 1.461 0.156 0.14 0.363 0.226 0.59 0.226 0.156 0 0.303-0.040 0.43-0.111l-0.005 0.002c0.26-0.1 0.563-0.178 0.877-0.22l0.021-0.002c1.023-0.245 1.133-0.185 0.699 0.782-0.532 1.152-0.204 1.986 0.446 2.93 0.918 1.3 1.525 2.881 1.681 4.592l0.003 0.037c0 0.006 0 0.013 0 0.021 0 0.513 0.33 0.95 0.789 1.11l0.008 0.002c0.827 0.332 1.646 0.695 2.469 1.042l0.272 0.117-0.238 0.102c-0.85 0.351-1.688 0.733-2.552 1.042-0.555 0.2-0.642 0.683-0.71 1.106-0.186 1.219-0.53 2.316-1.016 3.333l0.031-0.071c-0.397 0.927-0.849 1.724-1.378 2.463l0.026-0.039c-0.232 0.284-0.373 0.65-0.373 1.050 0 0.171 0.026 0.336 0.074 0.491l-0.003-0.012c0.049 0.242 0.117 0.476 0.177 0.717 0.196 0.755 0.196 0.755-0.559 0.672-0.163-0.020-0.311-0.068-0.445-0.139l0.007 0.003c-0.834-0.446-1.582-0.189-2.228 0.347-0.932 0.771-2.054 1.346-3.285 1.646l-0.056 0.012c-1.174 0.283-1.741 1.023-2.118 2.050-0.166 0.449-0.378 0.88-0.574 1.318-0.053-0.48-0.113-0.951-0.143-1.431-0.030-0.362-0.015-0.71-0.015-1.057z"></path>
<path fill="#fff" d="M15.013 29.67c0 0.695 0 1.386 0 2.077-0.016 0.091-0.048 0.172-0.092 0.245l0.002-0.003c-0.072-0.072-0.177-0.132-0.215-0.219-0.296-0.56-0.592-1.236-0.841-1.933l-0.035-0.113c-0.118-0.454-0.486-0.799-0.944-0.882l-0.007-0.001c-0.446-0.125-0.887-0.261-1.322-0.415-1.356-0.485-2.529-1.151-3.561-1.985l0.023 0.018c-0.186-0.122-0.415-0.195-0.66-0.195-0.064 0-0.127 0.005-0.189 0.015l0.007-0.001c-0.563 0.073-1.073 0.205-1.555 0.393l0.045-0.015c-0.332 0.128-0.415 0.030-0.378-0.245 0.019-0.328 0.089-0.634 0.203-0.918l-0.007 0.020c0.12-0.261 0.189-0.566 0.189-0.888 0-0.501-0.169-0.962-0.454-1.33l0.004 0.005c-1.074-1.515-1.8-3.349-2.023-5.335l-0.005-0.053c-0.064-0.619-0.559-0.755-1.016-0.955-0.642-0.283-1.261-0.608-1.888-0.895-0.423-0.193-0.276-0.313 0.030-0.438 0.71-0.294 1.423-0.597 2.137-0.884 0.43-0.169 0.733-0.571 0.755-1.047v-0.003c0.336-2.285 1.248-4.312 2.583-5.987l-0.019 0.025c0.131-0.131 0.213-0.311 0.213-0.511 0-0.121-0.030-0.235-0.082-0.335l0.002 0.004c-0.174-0.429-0.321-0.936-0.419-1.46l-0.008-0.050c-0.042-0.208-0.098-0.54 0.378-0.347 0.396 0.162 0.891 0.106 1.257 0.298 0.597 0.317 1.031 0.049 1.446-0.268 1.114-0.895 2.446-1.57 3.901-1.933l0.071-0.015c1.133-0.245 1.423-1.031 1.797-1.858 0.151-0.332 0.253-0.695 0.378-1.035 0.026-0.064 0.125-0.102 0.193-0.151 0.042 0.076 0.113 0.147 0.113 0.219q0 2.031 0 4.059c0 0.347-0.196 0.498-0.536 0.517-1.305 0.139-2.488 0.561-3.52 1.202l0.035-0.020c-2.078 1.123-3.718 2.83-4.729 4.9l-0.029 0.065c-0.693 1.414-1.099 3.078-1.099 4.836 0 0.541 0.038 1.073 0.113 1.594l-0.007-0.060c0.309 2.192 1.203 4.134 2.518 5.712l-0.015-0.018c1.279 1.514 2.906 2.695 4.76 3.423l0.081 0.028c0.52 0.202 1.126 0.356 1.756 0.434l0.038 0.004c0.001 0 0.002 0 0.003 0 0.369 0 0.668 0.299 0.668 0.668 0 0.055-0.007 0.108-0.019 0.159l0.001-0.005c-0.030 0.631 0 1.261 0 1.888z"></path>
<path fill="#fff" d="M17.123 23.044c-0.427 0.31-0.88 0.498-1.371 0.177-0.189-0.125-0.453-0.328-0.457-0.495 0.014-0.281 0.144-0.53 0.342-0.701l0.001-0.001c0.733-0.544 2.56-0.347 3.266 0.253 0.378 0.317 0.408 0.959-0.211 1.45-0.51 0.474-1.192 0.769-1.942 0.782h-0.003c-0.899-0.038-1.809 0.106-2.643-0.461-0.627-0.43-1.197-1.28-0.895-1.748 0.363-0.45 0.794-0.827 1.281-1.121l0.022-0.012c0.243-0.157 0.524-0.286 0.823-0.372l0.022-0.006c0.359-0.121 0.544-0.378 0.423-0.714-0.118-0.28-0.322-0.505-0.579-0.646l-0.007-0.003c-0.29-0.118-0.625-0.196-0.976-0.218h-0.009c-1.026-0.169-1.799-1.049-1.799-2.11 0-0.055 0.002-0.109 0.006-0.162v0.007c0-0.287 0.057-0.43 0.351-0.132 0.196 0.179 0.448 0.3 0.726 0.335l0.007 0.001c0.898 0.037 1.636 0.679 1.818 1.528l0.002 0.013c0.038 0.147 0.378 0.378 0.434 0.329 0.17-0.146 0.311-0.32 0.418-0.515l0.005-0.010c0.012-0.027 0.018-0.058 0.018-0.091s-0.007-0.064-0.019-0.092l0.001 0.002c-0.239-0.604-0.501-1.118-0.805-1.604l0.024 0.041c-0.229-0.223-0.539-0.365-0.881-0.378h-0.002c-1.268-0.050-2.277-1.090-2.277-2.366 0-0.080 0.004-0.16 0.012-0.238l-0.001 0.010c0.034-0.157 0.084-0.296 0.148-0.426l-0.005 0.011c0.106 0.083 0.223 0.159 0.325 0.249 0.242 0.223 0.453 0.608 0.721 0.653 0.906 0.155 1.371 0.725 1.752 1.473 0.094 0.185 0.332 0.298 0.506 0.446 0.124-0.189 0.228-0.407 0.301-0.638l0.005-0.019c0.001-0.016 0.001-0.034 0.001-0.052 0-0.638-0.369-1.19-0.905-1.454l-0.009-0.004c-0.597-0.291-1.299-0.378-1.673-1.072-0.34-0.619-0.589-1.216-0.264-1.918 0.147-0.317 0.193-0.302 0.4 0 0.282 0.311 0.574 0.597 0.882 0.865l0.012 0.011c0.263 0.277 0.511 0.575 0.738 0.889l0.017 0.025c0.060 0.087-0.019 0.276 0.042 0.378 0.154 0.201 0.312 0.38 0.482 0.547l0.001 0.001c0.159-0.185 0.449-0.378 0.457-0.547 0-0.453 0.057-1.084-0.204-1.333-1.103-1.065-0.396-2.080-0.068-3.119 0.094-0.249 0.204-0.463 0.333-0.663l-0.008 0.014c0.084-0.126 0.169-0.236 0.263-0.338l-0.002 0.002c0.077 0.089 0.147 0.188 0.207 0.293l0.005 0.009c0.189 0.423 0.378 0.846 0.54 1.276 0.321 0.842 0.525 1.654-0.264 2.401-0.495 0.472-0.249 1.133-0.185 1.699 0.047 0.158 0.192 0.272 0.362 0.272 0.115 0 0.217-0.051 0.287-0.132v-0.001c0.133-0.155 0.229-0.345 0.271-0.555l0.001-0.008c0.095-0.537 0.442-0.977 0.911-1.2l0.010-0.004c0.316-0.184 0.572-0.439 0.75-0.745l0.005-0.010c0.208-0.359 0.257-0.087 0.325 0.034 0.124 0.192 0.198 0.426 0.198 0.678 0 0.203-0.048 0.395-0.134 0.564l0.003-0.007c-0.279 0.665-0.806 1.178-1.462 1.433l-0.018 0.006c-1.038 0.434-1.473 0.884-1.386 1.843 0.019 0.208 0.215 0.4 0.329 0.604 0.17-0.159 0.419-0.283 0.491-0.476 0.287-0.797 0.755-1.31 1.646-1.423 0.283-0.034 0.521-0.419 0.782-0.634 0.098-0.083 0.208-0.155 0.313-0.23 0.078 0.118 0.142 0.255 0.186 0.401l0.003 0.011c0.155 1.133-0.85 2.367-2.058 2.518-0.97 0.113-1.737 0.856-1.886 1.804l-0.002 0.012c-0.009 0.054-0.014 0.115-0.014 0.178 0 0.166 0.034 0.324 0.096 0.468l-0.003-0.008c0.057 0.141 0.193 0.239 0.351 0.239s0.294-0.098 0.35-0.236l0.001-0.003c0.154-0.217 0.282-0.467 0.372-0.735l0.006-0.020c0.136-0.6 0.604-0.729 1.084-0.891 0.4-0.136 0.789-0.31 1.186-0.464l0.302-0.121c0.016 0.078 0.030 0.174 0.037 0.271v0.008c-0.019 1.427-0.816 2.311-2.19 2.315-0.033-0.004-0.072-0.006-0.111-0.006-0.487 0-0.9 0.315-1.046 0.753l-0.002 0.008c-0.253 1.004-1.008 1.382-1.82 1.688-0.6 0.223-1.178 0.54-1.182 1.159s0.661 0.887 1.231 1.050c1.019 0.291 1.952-0.072 2.866-0.453 0.313-0.128 0.31-0.597 0.045-0.857-0.378-0.378-1.51-0.43-1.945-0.117-0.306 0.211-0.136 0.415 0.045 0.502 0.217 0.073 0.466 0.118 0.726 0.125h0.003z"></path>
<path fill="#fff" d="M17.112 23.063l0.060-0.030h-0.049z"></path>
</svg>
