<!-- Generated by IcoMoon.io -->
<svg version="1.1" xmlns="http://www.w3.org/2000/svg" width="33" height="32" viewBox="0 0 33 32">
<title>bladeborn-myari</title>
<path fill="#fff" d="M15.216 28.441c-0.079 0.458-0.186 0.912-0.231 1.374-0.001 0.039-0.002 0.085-0.002 0.131 0 0.282 0.021 0.56 0.062 0.831l-0.004-0.030c0.030 0.307 0.083 0.613 0.098 0.924-0.015 0.121-0.050 0.231-0.101 0.331l0.003-0.006c-0.082-0.067-0.152-0.144-0.21-0.231l-0.002-0.004c-0.299-0.563-0.594-1.24-0.841-1.939l-0.034-0.109c-0.111-0.46-0.486-0.808-0.952-0.878l-0.006-0.001c-1.198-0.261-2.258-0.7-3.212-1.293l0.043 0.025c-0.392-0.226-0.721-0.442-1.036-0.675l0.029 0.020c-0.757-0.621-1.514-0.89-2.48-0.492-0.289 0.106-0.641 0.204-1.002 0.276l-0.047 0.008c0.039-0.415 0.114-0.794 0.223-1.159l-0.011 0.042c0.345-0.856 0.193-1.545-0.31-2.344-0.947-1.488-1.749-3.074-1.931-4.892-0.027-0.669-0.463-1.229-1.064-1.439l-0.011-0.003c-0.685-0.261-1.337-0.632-1.999-0.962-0.076-0.038-0.125-0.125-0.189-0.189 0.091-0.045 0.182-0.098 0.276-0.14 0.795-0.337 1.601-0.655 2.385-1.022 0.204-0.107 0.353-0.295 0.404-0.521l0.001-0.005c0.25-2.367 1.175-4.48 2.576-6.188l-0.016 0.020c0.183-0.212 0.295-0.49 0.295-0.794 0-0.122-0.018-0.239-0.051-0.351l0.002 0.009c-0.114-0.511-0.22-1.022-0.326-1.537-0.068-0.333-0.023-0.454 0.379-0.288 1.329 0.553 2.514 0.333 3.65-0.606 0.728-0.621 1.626-1.066 2.614-1.255l0.036-0.006c1.011-0.182 1.848-0.704 2.052-1.867 0.084-0.253 0.199-0.472 0.342-0.67l-0.005 0.007c0.102-0.186 0.212-0.379 0.322-0.545 0.089 0.204 0.158 0.441 0.195 0.688l0.002 0.016c0 0.379-0.079 0.757-0.102 1.109s-0.019 0.81-0.019 1.212c0 0.057 0.061 0.11 0.076 0.17 0.28 1.193 0.023 1.586-1.162 1.768-1.926 0.299-3.607 1.183-4.896 2.462l0.001-0.001c-0.965 0.939-1.965 1.859-2.533 3.108-0.612 1.205-1.038 2.609-1.196 4.093l-0.005 0.053c-0.029 0.316-0.046 0.684-0.046 1.056 0 1.087 0.142 2.141 0.41 3.145l-0.019-0.085c0.642 2.5 2.094 4.594 4.055 6.037l0.030 0.021c0.96 0.787 2.097 1.399 3.34 1.766l0.068 0.017c0.299 0.068 0.602 0.125 0.905 0.167 0.962 0.136 1.090 0.276 1.098 1.246v0.379z"></path>
<path fill="#fff" d="M17.851 29.539c0.018-0.268 0.028-0.582 0.028-0.897s-0.010-0.629-0.031-0.94l0.002 0.042c-0.083-0.651 0.303-0.856 0.776-0.912 3.226-0.379 5.448-2.347 7.254-4.812 0.612-0.862 1.077-1.876 1.333-2.971l0.011-0.058c0.296-0.981 0.466-2.109 0.466-3.276 0-0.046 0-0.092-0.001-0.139v0.007c-0.129-2.813-1.007-5.354-3.097-7.356-0.694-0.75-1.453-1.422-2.273-2.014l-0.045-0.031c-1.055-0.694-2.307-1.18-3.655-1.369l-0.048-0.005c-0.526-0.061-0.719-0.235-0.712-0.757 0.019-1.261 0-2.522 0-3.786 0.005-0.103 0.016-0.199 0.032-0.294l-0.002 0.014c0.091 0.072 0.223 0.125 0.269 0.223 0.267 0.477 0.51 1.033 0.7 1.613l0.019 0.068c0.104 0.498 0.504 0.878 1.004 0.95l0.006 0.001c1.379 0.29 2.597 0.834 3.658 1.584l-0.030-0.020c1.17 0.897 2.294 1.34 3.703 0.659 0.299-0.144 0.485 0.068 0.379 0.401q-0.197 0.712-0.443 1.408c-0.048 0.126-0.076 0.271-0.076 0.423 0 0.335 0.136 0.638 0.357 0.857v0c0.508 0.587 0.93 1.267 1.235 2.007l0.018 0.049c0.416 1.155 0.947 2.291 1.037 3.551 0.009 0.39 0.259 0.72 0.607 0.846l0.006 0.002c0.894 0.345 1.791 0.681 2.684 1.022 0.083 0.030 0.163 0.068 0.242 0.102-0.068 0.081-0.147 0.15-0.234 0.206l-0.004 0.002c-0.829 0.348-1.666 0.674-2.491 1.022-0.487 0.194-0.83 0.653-0.852 1.194v0.003c-0.292 1.844-0.863 3.627-2.075 5.092-0.723 0.878-0.723 1.749-0.379 2.734 0.25 0.704 0.098 0.863-0.625 0.757-0.066-0.007-0.126-0.024-0.181-0.051l0.003 0.001c-0.996-0.583-1.81-0.204-2.65 0.405-1.086 0.817-2.382 1.418-3.792 1.712l-0.063 0.011c-0.468 0.094-0.842 0.424-0.997 0.858l-0.003 0.009c-0.231 0.504-0.466 1.003-0.708 1.514-0.102 0.204-0.223 0.401-0.337 0.602 0-0.216-0.034-0.432-0.038-0.647 0.004-0.545 0.008-1.083 0.008-1.617z"></path>
<path fill="#fff" d="M16.382 22.145c0.678-0.087 1.355-0.163 2.029-0.265 0.23-0.036 0.436-0.109 0.623-0.213l-0.009 0.005c0.689-0.379 0.712-0.878 0-1.193-0.592-0.251-1.28-0.397-2.003-0.397-0.621 0-1.218 0.108-1.771 0.306l0.037-0.011c-0.135 0.063-0.232 0.189-0.253 0.338v0.002c0 0.098 0.186 0.254 0.307 0.273 0.863 0.14 1.738 0.379 2.578-0.144 0.114-0.068 0.326 0 0.492 0.030-0.040 0.161-0.098 0.302-0.171 0.433l0.005-0.009c-0.080 0.093-0.19 0.158-0.315 0.181l-0.003 0.001c-1.234 0.242-2.476 0.409-3.623-0.295-0.575-0.352-0.557-0.825 0.068-1.136 0.475-0.286 1.032-0.49 1.627-0.576l0.024-0.003c1.431-0.106 2.893-0.182 4.165 0.697 0.246 0.142 0.454 0.318 0.625 0.526l0.003 0.004c0.257 0.379 0.197 0.674-0.227 0.996-0.903 0.674-2.006 1.131-3.205 1.273l-0.032 0.003c-1.261 0.178-2.48-0.144-3.703-0.401-0.136-0.030-0.239-0.201-0.379-0.265-0.663-0.31-1.442-0.67-1.389-1.461 0.061-0.867 0.776-1.454 1.556-1.817 0.522-0.246 1.113-0.345 1.662-0.545 0.299-0.106 0.708-0.212 0.825-0.443 0.208-0.379-0.151-0.681-0.469-0.909-0.125-0.087-0.261-0.167-0.379-0.25-0.329-0.208-0.806-0.663-0.954-0.576-0.389 0.304-0.712 0.671-0.959 1.088l-0.010 0.018c-0.034 0.063-0.054 0.138-0.054 0.218s0.020 0.155 0.055 0.22l-0.001-0.002c0.575 0.647 0.072 0.591-0.379 0.591-0.492 0-0.984 0.030-1.473 0-0.598-0.042-0.629-0.087-0.25-0.576 0.477-0.617 1.018-1.185 1.514-1.783 0.189-0.227 0.337-0.492 0.504-0.738-0.36-0.227-0.799-0.708-1.060-0.629-0.757 0.235-0.613-0.216-0.594-0.591 0.036-0.375 0.091-0.71 0.166-1.038l-0.010 0.054c0.31 0.174 0.629 0.333 0.924 0.526 0.416 0.269 0.818 0.787 1.215 0.757s0.704-0.583 1.041-0.92c0.334-0.311 0.641-0.638 0.925-0.986l0.014-0.018c0.096-0.125 0.153-0.284 0.153-0.457 0-0.068-0.009-0.134-0.026-0.196l0.001 0.005c-0.121-0.105-0.281-0.169-0.455-0.169-0.062 0-0.121 0.008-0.178 0.023l0.005-0.001c-0.469 0.144-0.909 0.379-1.367 0.568-0.034 0.007-0.073 0.011-0.114 0.011s-0.079-0.004-0.117-0.012l0.004 0.001c0.030-0.053 0.053-0.129 0.102-0.159 0.478-0.332 1.027-0.657 1.6-0.942l0.077-0.035c0.379-0.155 0.674-0.288 0.526-0.704s-0.526-0.379-0.886-0.265c-1.514 0.424-3.029 0.875-4.093 2.177-0.109 0.095-0.233 0.175-0.369 0.235l-0.009 0.004c-0.034-0.121-0.062-0.266-0.078-0.415l-0.001-0.013c-0.011-0.128-0.017-0.276-0.017-0.426s0.006-0.298 0.018-0.445l-0.001 0.019c0.010-0.154 0.086-0.289 0.2-0.378l0.001-0.001c0.856-0.428 1.742-0.791 2.582-1.249 2.609-1.42 5.081-0.996 7.504 0.473 0.469 0.284 0.981 0.496 1.465 0.757 0.113 0.080 0.208 0.178 0.281 0.291l0.003 0.004c0.030 0.042 0 0.121 0 0.186-0.023 0.424-0.045 0.848-0.072 1.272-0.288-0.265-0.564-0.549-0.863-0.799-0.98-0.836-2.214-1.401-3.571-1.568l-0.033-0.003c-0.254-0.030-0.723-0.201-0.723 0.31 0 0.443 0.42 0.295 0.659 0.284 0.025-0.001 0.054-0.001 0.083-0.001 0.762 0 1.444 0.342 1.902 0.88l0.003 0.004c0.541 0.572 0.485 1.223-0.106 1.768-0.261 0.271-0.509 0.559-0.74 0.862l-0.018 0.024c0.545 0.239 0.757-0.318 1.117-0.5s0.541-0.522 0.829-0.757c0.091-0.076 0.261-0.053 0.398-0.076 0.072 0.358 0.129 0.788 0.157 1.227l0.002 0.030c0 0.095-0.295 0.201-0.458 0.295-0.379 0.212-0.757 0.405-1.102 0.64-0.049 0.034-0.026 0.295 0.045 0.379 0.379 0.462 0.757 0.905 1.136 1.359 0.299 0.356 0.591 0.723 0.89 1.079 0.197 0.235 0.098 0.318-0.159 0.322h-1.988c-0.257 0-0.432-0.030-0.25-0.379 0.094-0.146 0.15-0.323 0.15-0.514 0-0.077-0.009-0.151-0.026-0.223l0.001 0.007c-0.271-0.401-0.563-0.752-0.885-1.071l-0.001-0.001c-0.019-0.023-0.117 0-0.155 0.023-0.58 0.401-1.082 0.794-1.561 1.213l0.020-0.017c-0.163 0.151-0.133 0.515-0.178 0.784-0.019 0.125 0.034 0.273 0 0.379s-0.193 0.326-0.322 0.352c-0.485 0.098-0.981 0.151-1.473 0.208-0.793 0.152-1.47 0.567-1.953 1.149l-0.004 0.006c-0.379 0.401-0.257 0.822 0.307 1.136 0.717 0.435 1.583 0.692 2.509 0.692 0.111 0 0.221-0.004 0.331-0.011l-0.015 0.001zM18.037 15.265l-1.454-1.726s-0.061 0-0.091 0c-0.379 0-1.677 1.772-1.454 1.999 0.395 0.408 0.854 0.752 1.36 1.016l0.029 0.014c0.333 0.155 1.552-0.776 1.609-1.302zM17.708 11.544c-0.212 0.087-0.557 0.133-0.602 0.273-0.003 0.029-0.005 0.062-0.005 0.096 0 0.219 0.075 0.42 0.2 0.58l-0.002-0.002c0.172 0.289 0.401 0.527 0.673 0.703l0.008 0.005c0.123 0.056 0.266 0.088 0.416 0.088s0.294-0.032 0.423-0.091l-0.006 0.003c0.168-0.098 0.279-0.277 0.279-0.483 0-0.12-0.038-0.231-0.102-0.322l0.001 0.002c-0.292-0.477-0.617-0.882-1.283-0.852z"></path>
</svg>
