<!-- Generated by IcoMoon.io -->
<svg version="1.1" xmlns="http://www.w3.org/2000/svg" width="33" height="32" viewBox="0 0 33 32">
<title>bladeborn-briarqueen</title>
<path fill="#fff" d="M27.506 5.605c-0.108 0.534-0.249 0.999-0.427 1.445l0.020-0.056c-0.080 0.134-0.127 0.296-0.127 0.468 0 0.274 0.119 0.52 0.307 0.69l0.001 0.001c0.649 0.798 1.174 1.727 1.529 2.738l0.020 0.065c0.359 0.847 0.631 1.83 0.768 2.856l0.006 0.059c0.008 0.36 0.233 0.665 0.549 0.791l0.006 0.002c0.952 0.336 1.786 0.959 2.806 1.133 0.058 0.025 0.108 0.058 0.151 0.098v0c-0.041 0.041-0.089 0.076-0.14 0.104l-0.003 0.002c-0.687 0.253-1.416 0.415-1.99 0.918-1.073 0-1.413 0.65-1.458 1.628-0.068 0.561-0.2 1.071-0.392 1.552l0.015-0.041c-0.155 0.56-0.343 1.043-0.573 1.502l0.022-0.048c-0.359 0.778-0.776 1.448-1.265 2.059l0.015-0.019c-0.665 0.755-0.574 1.462-0.313 2.266 0.083 0.264 0.189 0.517 0.257 0.786s-0.087 0.378-0.306 0.306c-0.468-0.132-0.937-0.268-1.397-0.427-0.13-0.061-0.283-0.096-0.444-0.096-0.263 0-0.504 0.095-0.691 0.252l0.002-0.001c-0.676 0.552-1.447 1.029-2.277 1.398l-0.065 0.026c-0.449 0.185-0.891 0.378-1.345 0.551s-0.884 0.261-1.295 0.453c-0.224 0.087-0.404 0.246-0.515 0.448l-0.003 0.005c-0.378 0.695-0.589 1.454-0.929 2.16-0.043 0.071-0.115 0.12-0.199 0.132h-0.001c-0.064 0-0.125-0.098-0.177-0.162-0.006-0.013-0.010-0.029-0.010-0.045s0.004-0.032 0.010-0.046v0.001c0.283-1.288-0.132-2.572-0.030-3.867-0.002-0.016-0.002-0.035-0.002-0.055 0-0.319 0.246-0.581 0.559-0.606h0.002c0.827-0.212 1.643-0.457 2.462-0.687 0.098-0.033 0.182-0.070 0.262-0.114l-0.009 0.004c1.647-0.82 3.032-1.932 4.137-3.283l0.017-0.022c0.378-0.48 0.695-0.978 1.027-1.48 0.352-0.555 0.633-1.198 0.806-1.884l0.010-0.046c0.011-0.098 0.035-0.187 0.070-0.271l-0.002 0.006c0.54-0.831 0.532-1.76 0.502-2.697 0-0.159 0-0.313 0-0.472 0-2.319 0.042-2.334-0.778-4.419-0.383-0.942-0.853-1.755-1.416-2.492l0.019 0.026c-0.666-0.913-1.448-1.69-2.337-2.328l-0.031-0.021c-0.563-0.378-1.133-0.755-1.726-1.133-0.087-0.041-0.188-0.065-0.296-0.065-0.029 0-0.057 0.002-0.085 0.005h0.003c-0.255-0.021-0.488-0.1-0.691-0.223l0.007 0.004c-0.493-0.212-1.075-0.395-1.678-0.519l-0.060-0.010c-0.551-0.125-0.729-0.257-0.755-0.816 0-0.408 0-0.816 0-1.224 0-0.88 0-1.76 0-2.644 0-0.072 0.068-0.14 0.11-0.211 0.060 0.024 0.111 0.057 0.155 0.098v0c0.117 0.156 0.227 0.333 0.32 0.52l0.009 0.020c0.219 0.502 0.442 1.008 0.623 1.53 0.122 0.391 0.448 0.684 0.851 0.754l0.007 0.001c0.899 0.183 1.696 0.467 2.437 0.844l-0.054-0.025c0.963 0.443 1.791 0.947 2.554 1.534l-0.031-0.023c0.237 0.196 0.544 0.314 0.879 0.314 0.178 0 0.349-0.034 0.505-0.095l-0.009 0.003c0.497-0.107 0.911-0.224 1.314-0.364l-0.079 0.024c0.298-0.11 0.279 0.045 0.283 0.453z"></path>
<path fill="#fff" d="M15.107 1.39c-0.060 0.317-0.155 0.736-0.215 1.163-0.004 0.048-0.006 0.104-0.006 0.161 0 0.137 0.013 0.27 0.039 0.399l-0.002-0.013c0.051 0.222 0.096 0.5 0.126 0.783l0.003 0.033c0.019 0.846 0 0.797-0.827 0.986-1.847 0.419-3.595 1.057-4.963 2.462-0.282 0.261-0.588 0.509-0.909 0.736l-0.028 0.019c-0.804 0.634-1.224 1.556-1.737 2.394-0.457 0.755-0.952 1.511-0.967 2.444-0.665 1.431-0.378 2.957-0.336 4.43 0.102 1.158 0.42 2.221 0.914 3.179l-0.022-0.048c0.685 1.517 1.647 2.798 2.831 3.83l0.013 0.011c0.704 0.642 1.5 1.201 2.363 1.651l0.062 0.029c0.223 0.098 0.508 0.202 0.799 0.291l0.058 0.015c0.687 0.29 1.505 0.55 2.35 0.737l0.097 0.018c0.245 0.045 0.325 0.162 0.306 0.378-0.083 0.925 0.14 1.858-0.14 2.787-0.102 0.347 0.094 0.778 0.136 1.171 0.009 0.070 0.014 0.152 0.014 0.234s-0.005 0.164-0.015 0.244l0.001-0.010c-0.023 0.056-0.071 0.098-0.131 0.109h-0.001c-0.079 0-0.223-0.057-0.227-0.098-0.076-0.948-0.68-1.692-0.993-2.546-0.049-0.128-0.2-0.306-0.313-0.31-0.914-0.057-1.616-0.755-2.534-0.789-0.91-0.623-2.002-0.959-2.776-1.786-0.14-0.172-0.351-0.281-0.588-0.281-0.090 0-0.176 0.016-0.256 0.044l0.005-0.002c-0.559 0.155-1.114 0.31-1.669 0.476-0.264 0.079-0.344-0.057-0.332-0.276 0.016-0.167 0.046-0.319 0.091-0.466l-0.004 0.016c0.14-0.529 0.298-1.054 0.419-1.586-0.008-0.145-0.063-0.276-0.152-0.378l0.001 0.001c-0.891-1.245-1.608-2.69-2.073-4.244l-0.027-0.103c-0.133-0.423-0.248-0.933-0.322-1.457l-0.006-0.054c-0.083-0.68-0.306-1.057-0.959-1.163-0.801-0.125-1.413-0.582-2.073-0.967-0.174-0.098-0.121-0.117 0-0.227 0.608-0.517 1.375-0.668 2.092-0.918 0.542-0.138 0.939-0.618 0.948-1.192v-0.001c0.097-0.918 0.31-1.76 0.627-2.549l-0.023 0.064c0.48-1.311 1.162-2.44 2.019-3.41l-0.010 0.011c0.126-0.114 0.205-0.279 0.205-0.462 0-0.107-0.027-0.208-0.075-0.296l0.002 0.003c-0.177-0.36-0.299-0.778-0.342-1.22l-0.001-0.015c-0.151-0.978-0.193-0.974 0.797-0.665 0.465 0.147 0.948 0.476 1.382 0.415s0.842-0.48 1.231-0.778c0.891-0.684 1.949-1.039 2.931-1.541 0.333-0.119 0.724-0.211 1.128-0.262l0.028-0.003c0.332-0.051 0.597-0.287 0.69-0.598l0.002-0.006c0.264-0.755 0.755-1.413 0.903-2.213 0-0.049 0.064-0.094 0.094-0.143 0.076 0.057 0.204 0.102 0.215 0.166 0.049 0.325 0.079 0.695 0.136 1.182z"></path>
<path fill="#fff" d="M18.453 17.569c0 0.563 0 1.133 0 1.696 0 0.208-0.060 0.449 0.257 0.525 0.038 0 0.072 0.212 0.049 0.31-0.159 0.653-0.329 1.299-0.499 1.949-0.035 0.157-0.091 0.296-0.166 0.422l0.004-0.007c-0.121 0.193-0.378 0.17-0.415-0.038-0.125-0.921-0.65-1.813-0.242-2.783 0.019-0.062 0.030-0.133 0.030-0.206 0-0.024-0.001-0.049-0.004-0.073v0.003q0-1.79 0-3.58c0-0.223-0.068-0.347-0.321-0.34-0.472 0-0.94 0-1.412 0-0.264 0-0.321 0.143-0.302 0.355 0.079 0.861-0.185 1.749 0.17 2.595 0.014 0.041 0.023 0.088 0.023 0.138s-0.008 0.097-0.024 0.141l0.001-0.003q-0.378 1.322-0.755 2.644c0 0.045-0.076 0.076-0.117 0.11-0.031-0.045-0.059-0.096-0.081-0.15l-0.002-0.005q-0.291-1.201-0.563-2.406c-0.018-0.056-0.028-0.121-0.028-0.189s0.010-0.132 0.029-0.193l-0.001 0.005c0.347-0.816 0.117-1.669 0.17-2.5 0.030-0.502 0.068-0.555-0.585-0.54-0.283 0-0.566 0-0.846 0-0.2 0-0.544-0.128-0.559 0.151s-0.34 0.446-0.136 0.778c0.378 0.627 0.2 1.273-0.019 1.922-0.17 0.517-0.291 1.054-0.438 1.579-0.037 0.088-0.080 0.164-0.131 0.234l0.002-0.003c-0.050-0.069-0.093-0.147-0.126-0.231l-0.002-0.007c-0.189-0.702-0.408-1.405-0.536-2.119-0.066-0.226-0.104-0.485-0.104-0.754 0-0.396 0.083-0.773 0.232-1.115l-0.007 0.018c0.042-0.079-0.064-0.287-0.159-0.378-0.457-0.446-0.483-0.684-0.094-1.265 0-0.026 0.064-0.045 0.064-0.064 0-0.823 0.261-1.666-0.155-2.459-0.249-0.472-0.242-0.612 0.14-1.103 0.043-0.069 0.083-0.15 0.117-0.234l0.004-0.011c0.276-0.563 0.291-0.574 0.755-0.65s0.551 0 0.544 0.378c0 0.54 0 0.548 0.446 0.563 0.378 0 0.755 0 1.133 0 0.008 0.001 0.018 0.001 0.028 0.001 0.242 0 0.438-0.196 0.438-0.438 0-0.014-0.001-0.027-0.002-0.040v0.002c0-0.408 0-0.816 0-1.224 0-0.257 0.045-0.351 0.378-0.31 0.755 0.091 0.755 0.049 0.789 0.804 0 0.378 0.026 0.755 0.042 1.133l1.193 0.091c0.084 0.011 0.182 0.017 0.281 0.017s0.197-0.006 0.293-0.018l-0.011 0.001c0.104-0.037 0.184-0.118 0.218-0.22l0.001-0.002c0.012-0.070 0.018-0.152 0.018-0.234s-0.007-0.164-0.019-0.243l0.001 0.009c-0.049-0.755 0.177-0.589 0.631-0.612 0.306 0 0.351 0.17 0.355 0.415s-0.060 0.691 0.083 0.793c0.185 0.081 0.4 0.128 0.626 0.128 0.094 0 0.186-0.008 0.275-0.024l-0.010 0.001c0.623-0.023 1.246-0.076 1.866-0.117 0.030 0 0.053-0.038 0.083-0.045 0.058-0.018 0.125-0.028 0.194-0.028 0.257 0 0.482 0.141 0.601 0.349l0.002 0.003c0.040 0.11 0.063 0.236 0.063 0.369 0 0.218-0.063 0.421-0.172 0.591l0.003-0.004c-0.135 0.133-0.219 0.318-0.219 0.523 0 0.007 0 0.015 0 0.022v-0.001c0 0.408 0 0.816 0 1.224 0 0.291-0.038 0.548 0.272 0.812 0.108 0.13 0.173 0.298 0.173 0.481 0 0.205-0.082 0.391-0.215 0.527v0c-0.142 0.1-0.234 0.264-0.234 0.449 0 0.032 0.003 0.064 0.008 0.094v-0.003c-0.003 0.072-0.004 0.156-0.004 0.24 0 0.47 0.050 0.928 0.144 1.37l-0.008-0.043c0.106 0.347-0.166 0.812-0.295 1.216-0.102 0.321-0.253 0.627-0.378 0.944-0.064 0.2-0.094 0.412-0.14 0.619-0.098-0.208-0.279-0.415-0.279-0.623 0-0.589-0.427-1.020-0.502-1.567-0.030-0.238-0.038-0.48-0.053-0.718 0-0.026 0.045-0.053 0.045-0.079l0.045-1.756c-0.585-0.030-1.175-0.072-1.76-0.072-0.076 0-0.219 0.2-0.223 0.31 0.023 0.582 0.034 1.182 0.034 1.775zM18.453 12.981v0c0 0.283 0 0.563 0 0.842 0 0.006 0 0.014 0 0.021 0 0.24 0.194 0.434 0.434 0.434 0.015 0 0.029-0.001 0.044-0.002h-0.002c0.438 0 0.872 0 1.311 0 0.076 0 0.212-0.072 0.219-0.121 0.098-0.561 0.164-1.222 0.185-1.894v-0.021c-0.041-0.313-0.305-0.552-0.626-0.552-0.008 0-0.017 0-0.025 0.001h0.001c-0.113-0.010-0.245-0.016-0.378-0.016s-0.265 0.006-0.395 0.017l0.017-0.001c-0.699 0.094-0.793 0.215-0.797 0.921 0.008 0.125 0.008 0.249 0.008 0.37zM14.265 13.086c0-0.125 0-0.249 0-0.378 0-0.729-0.253-0.989-0.974-1.031-0.185 0-0.378 0-0.559 0-0.013-0.001-0.028-0.002-0.043-0.002-0.257 0-0.465 0.208-0.465 0.465 0 0.025 0.002 0.049 0.006 0.073v-0.003c0.017 0.18 0.027 0.389 0.027 0.6 0 0.345-0.026 0.685-0.077 1.016l0.005-0.037c-0.094 0.378 0 0.442 0.283 0.483 0.084 0.005 0.181 0.009 0.279 0.009s0.196-0.003 0.293-0.009l-0.013 0.001c1.235 0.019 1.265 0.106 1.235-1.186zM17.471 12.973c0-0.249 0-0.502 0-0.755 0-0.117-0.034-0.279-0.11-0.329-0.548-0.347-1.107-0.242-1.677-0.030-0.442 0.162-0.17 0.521-0.242 0.786-0.007 0.042-0.011 0.090-0.011 0.14s0.004 0.098 0.012 0.145l-0.001-0.005c0.023 0.427 0.049 0.857 0.076 1.284l1.386 0.064h0.094c0.010 0.001 0.022 0.001 0.035 0.001 0.242 0 0.438-0.196 0.438-0.438 0-0.008 0-0.017-0.001-0.025v0.001c0.004-0.276-0.004-0.559-0.004-0.838z"></path>
</svg>
