<!-- Generated by IcoMoon.io -->
<svg version="1.1" xmlns="http://www.w3.org/2000/svg" width="33" height="32" viewBox="0 0 33 32">
<title>bladeborn-grashrak</title>
<path fill="#fff" d="M15.272 1.117c-0.049 0.22-0.093 0.496-0.122 0.775l-0.003 0.032c-0.023 0.4 0 0.8 0 1.2 0 0.060 0.057 0.113 0.072 0.174 0.253 1.174 0 1.555-1.181 1.797-1.714 0.4-3.213 1.147-4.483 2.168l0.022-0.017c-1.231 0.949-2.228 2.139-2.932 3.505l-0.027 0.058c-0.696 1.193-1.123 2.618-1.162 4.141v0.011c0 0.408 0.026 0.815 0 1.223-0.106 1.574 0.377 3.020 0.993 4.416 0.743 1.63 1.834 2.988 3.183 4.024l0.025 0.018c1.344 1.085 2.975 1.872 4.76 2.234l0.072 0.012c0.668 0.132 0.789 0.226 0.755 0.921s0.143 1.438-0.143 2.14c-0.060 0.147 0.042 0.377 0.057 0.544 0.034 0.377 0.079 0.755 0.083 1.132 0 0.125-0.117 0.253-0.181 0.377-0.095-0.092-0.177-0.196-0.245-0.31l-0.004-0.007c-0.343-0.793-0.672-1.593-1.019-2.382-0.062-0.107-0.159-0.187-0.276-0.225l-0.004-0.001c-0.408-0.147-0.819-0.287-1.234-0.4-1.547-0.45-2.888-1.177-4.034-2.132l0.018 0.014c-0.173-0.185-0.419-0.301-0.692-0.301-0.161 0-0.312 0.040-0.445 0.111l0.005-0.002c-0.362 0.126-0.789 0.227-1.229 0.287l-0.035 0.004c-0.434 0.106-0.574 0-0.487-0.442 0.064-0.332 0.17-0.661 0.26-0.989 0.064-0.184 0.101-0.396 0.101-0.617 0-0.434-0.143-0.835-0.384-1.158l0.004 0.005c-1.123-1.511-1.872-3.362-2.076-5.374l-0.004-0.046c-0.045-0.51-0.4-0.725-0.827-0.91-0.755-0.321-1.472-0.672-2.201-1.019-0.097-0.065-0.182-0.138-0.256-0.221l-0.001-0.001c0.066-0.053 0.14-0.104 0.218-0.15l0.009-0.005c0.51-0.23 1.023-0.457 1.536-0.679 0.283-0.125 0.574-0.234 0.861-0.351 0.403-0.156 0.683-0.541 0.683-0.991 0-0.003 0-0.006 0-0.009v0.001c0.192-1.602 0.719-3.050 1.509-4.317l-0.026 0.044c0.377-0.574 0.796-1.106 1.159-1.683 0.054-0.111 0.085-0.242 0.085-0.38 0-0.074-0.009-0.146-0.026-0.215l0.001 0.006c-0.128-0.608-0.317-1.2-0.445-1.804-0.075-0.377 0.087-0.487 0.468-0.377 0.151 0.042 0.302 0.079 0.449 0.128 1.4 0.427 1.442 0.487 2.586-0.321 1.105-0.783 2.396-1.395 3.786-1.763l0.083-0.019c0.547-0.102 0.98-0.501 1.13-1.020l0.003-0.010c0.249-0.67 0.484-1.207 0.744-1.729l-0.046 0.102c0.058-0.111 0.113-0.202 0.173-0.29l-0.007 0.011c0.082 0.086 0.151 0.185 0.201 0.295l0.003 0.007c0.052 0.199 0.102 0.454 0.139 0.712l0.004 0.039z"></path>
<path fill="#fff" d="M27.716 5.533c-0.153 0.69-0.315 1.259-0.506 1.814l0.035-0.115c-0.050 0.094-0.079 0.205-0.079 0.324 0 0.201 0.084 0.382 0.218 0.51v0c1.051 1.303 1.815 2.882 2.17 4.61l0.012 0.070c0.083 0.377 0.121 0.732 0.2 1.095 0.061 0.417 0.34 0.756 0.717 0.899l0.008 0.003c0.868 0.336 1.725 0.698 2.586 1.049 0.059 0.032 0.11 0.064 0.158 0.1l-0.003-0.002c-0.042 0.042-0.075 0.106-0.125 0.117-0.876 0.215-1.593 0.815-2.484 1.012-0.444 0.093-0.783 0.45-0.849 0.896l-0.001 0.006c-0.087 0.457-0.113 0.925-0.215 1.378-0.083 0.359-0.249 0.698-0.351 1.053-0.404 1.434-1.219 2.642-2.072 3.835-0.104 0.112-0.168 0.262-0.168 0.427 0 0.090 0.019 0.175 0.053 0.252l-0.002-0.004c0.177 0.457 0.291 0.94 0.427 1.415 0.024 0.080 0.038 0.173 0.038 0.268 0 0.003 0 0.005 0 0.008v0c0 0.249-0.057 0.438-0.377 0.336-0.442-0.136-0.898-0.238-1.336-0.377-0.127-0.059-0.276-0.094-0.434-0.094-0.269 0-0.514 0.102-0.7 0.269l0.001-0.001c-0.325 0.279-0.721 0.479-1.064 0.755-0.966 0.732-2.125 1.019-3.235 1.397-0.668 0.23-1.132 0.521-1.359 1.223-0.235 0.635-0.48 1.166-0.761 1.676l0.032-0.064c-0.042 0.083-0.189 0.113-0.287 0.166-0.023-0.106-0.091-0.226-0.068-0.321 0.064-0.277 0.1-0.596 0.1-0.923s-0.037-0.645-0.106-0.952l0.005 0.029c-0.050-0.438-0.078-0.945-0.078-1.458 0-0.245 0.006-0.489 0.019-0.731l-0.001 0.034c0-0.272 0.151-0.377 0.396-0.427 0.596-0.159 1.17-0.4 1.774-0.525 1.612-0.343 2.861-1.295 4.046-2.359 0.162-0.147 0.302-0.321 0.468-0.464 1.295-1.113 1.978-2.597 2.582-4.152 0.331-0.82 0.522-1.77 0.522-2.766 0-0.196-0.007-0.389-0.022-0.581l0.002 0.026c-0.064-0.963 0.094-1.929-0.181-2.891-0.891-3.125-2.608-5.616-5.469-7.247-1.005-0.575-2.177-0.999-3.423-1.203l-0.061-0.008c-0.283-0.049-0.46-0.102-0.487-0.43-0.038-0.464-0.162-0.921-0.174-1.381-0.026-0.94 0-1.887 0-2.827 0-0.094 0.117-0.189 0.177-0.283 0.091 0.068 0.223 0.117 0.26 0.208 0.26 0.596 0.513 1.196 0.755 1.808 0.182 0.498 0.604 0.868 1.123 0.972l0.010 0.002c1.839 0.505 3.44 1.338 4.816 2.44l-0.026-0.020c0.377 0.294 0.755 0.204 1.159 0.102 0.477-0.105 0.866-0.214 1.247-0.342l-0.085 0.025c0.359-0.128 0.46 0.008 0.472 0.343z"></path>
<path fill="#fff" d="M10.097 11.12c0-0.253 0-0.502 0-0.755 0-0.045 0.064-0.087 0.102-0.132 0.038 0.045 0.106 0.091 0.109 0.14 0.050 0.522 0.309 0.975 0.691 1.28l0.004 0.003c0.323 0.342 0.78 0.555 1.287 0.555 0.437 0 0.837-0.158 1.146-0.421l-0.003 0.002c0.501-0.363 1.073-0.718 1.67-1.031l0.078-0.037c0.166-0.087 0.638-0.411 0.627 0.238 0 0.125 0 0.321 0.113 0.019 0.272-0.796 0.947-0.528 1.427-0.411 0.604 0.203 1.127 0.459 1.609 0.772l-0.028-0.017c0.302 0.162 0.264 0.476 0.268 0.755 0 0.136 0.034 0.276 0.192 0.128 0.223-0.208 0.408-0.166 0.672-0.049 0.208 0.085 0.45 0.134 0.703 0.134 0.62 0 1.171-0.295 1.521-0.752l0.003-0.005 0.547-0.732c0.070 0.288 0.113 0.619 0.117 0.96v0.003c-0.046 1.266-1.032 2.288-2.279 2.389l-0.009 0.001c-0.769 0.063-1.37 0.703-1.37 1.482 0 0.074 0.005 0.146 0.016 0.216l-0.001-0.008c0.011 0.043 0.017 0.093 0.017 0.144 0 0.333-0.266 0.604-0.598 0.611h-0.001c-0.642 0.128-0.63 0.128-0.668 0.755-0.034 0.525-0.102 1.049-0.147 1.574 0 0.121-0.034 0.283 0.026 0.359 0.419 0.487 0.060 0.857-0.166 1.238-0.154 0.254-0.308 0.472-0.477 0.679l0.008-0.011c-0.166 0.2-0.377 0.377-0.544 0.566-0.030-0.211-0.076-0.423-0.094-0.634-0.001-0.36-0.196-0.674-0.486-0.843l-0.005-0.003c-0.159-0.1-0.287-0.237-0.375-0.398l-0.003-0.006c-0.121-0.238-0.026-0.917-0.498-0.185 0 0-0.291-0.117-0.294-0.185-0.002-0.071-0.002-0.155-0.002-0.239 0-0.343 0.015-0.682 0.043-1.017l-0.003 0.044c0-0.245 0.106-0.487 0.113-0.732 0-0.491 0-0.491-0.54-0.506-0.627 0-0.861-0.155-0.755-0.755 0.174-0.951-0.54-1.404-0.944-2.034-0.060-0.094-0.279-0.109-0.427-0.132-0.952-0.153-1.736-0.754-2.14-1.576l-0.008-0.017c-0.176-0.412-0.308-0.891-0.374-1.391l-0.003-0.028zM14.924 15.706c0.468-0.121 0.823-0.2 1.17-0.313 0.073-0.054 0.119-0.14 0.119-0.237 0-0.012-0.001-0.025-0.002-0.037v0.001c-0.060-0.166-0.147-0.377-0.287-0.449-0.231-0.079-0.497-0.125-0.774-0.125-0.005 0-0.010 0-0.015 0h0.001c-0.264-0.019-0.676 0.423-0.6 0.698 0.057 0.189 0.272 0.328 0.389 0.46zM18.159 15.487c0.272 0.106 0.536 0.057 0.532-0.26-0.032-0.257-0.112-0.489-0.231-0.696l0.005 0.009c-0.047-0.058-0.119-0.095-0.199-0.095-0.007 0-0.014 0-0.020 0.001h0.001c-0.364 0.16-0.671 0.327-0.964 0.515l0.028-0.017c-0.073 0.078-0.117 0.184-0.117 0.3 0 0.036 0.004 0.070 0.012 0.103l-0.001-0.003c0.060 0.189 0.219 0.245 0.445 0.155 0.087-0.019 0.187-0.030 0.289-0.030 0.080 0 0.159 0.007 0.236 0.019l-0.008-0.001zM17.325 17.053c0-0.698-0.287-0.883-0.823-0.615l-0.079 0.042c-0.158 0.134-0.258 0.333-0.258 0.555 0 0.099 0.020 0.194 0.056 0.28l-0.002-0.005c0.166 0.171 0.35 0.321 0.55 0.449l0.012 0.007z"></path>
</svg>
