<!-- Generated by IcoMoon.io -->
<svg version="1.1" xmlns="http://www.w3.org/2000/svg" width="32" height="32" viewBox="0 0 32 32">
<title>card-decks-victory</title>
<path fill="#fff" d="M16.138 31.906c0.024-0.084-0.084-0.216-0.228-0.288-0.168-0.072-0.276-0.228-0.276-0.384s-0.048-0.276-0.108-0.276c-0.060 0-0.144-0.156-0.192-0.36-0.048-0.192-0.132-0.384-0.192-0.42-0.060-0.048-0.108-0.204-0.108-0.348 0-0.156-0.084-0.348-0.18-0.432-0.12-0.096-0.18-0.36-0.18-0.744 0-0.36-0.048-0.564-0.12-0.516s-0.12-0.132-0.12-0.444c-0.012-2.304-0.156-5.244-0.264-5.472-0.108-0.204-0.108-0.3 0-0.408 0.18-0.18 0.192-0.6 0.012-0.78-0.084-0.084-0.096-0.504-0.048-1.248 0.108-1.632 0.12-10.295 0.012-10.751-0.072-0.264-0.060-0.396 0.036-0.396 0.072 0 0.132-0.084 0.132-0.18 0-0.168 0.204-0.24 0.576-0.192 0.084 0.012 0.144-0.108 0.144-0.288 0-0.288-0.012-0.3-0.864-0.3-1.296 0-1.692 0.168-0.636 0.252l0.84 0.060-0.924 0.024c-0.6 0.012-0.936 0.072-0.936 0.156 0 0.096-0.072 0.084-0.204-0.024-0.18-0.144-0.192-0.144-0.108 0.072 0.060 0.18 0.048 0.204-0.060 0.096s-0.084-0.252 0.12-0.636c0.144-0.276 0.228-0.54 0.192-0.612-0.036-0.060 0.012-0.072 0.108-0.036 0.108 0.036 0.192 0.012 0.192-0.072 0-0.072 0.048-0.108 0.108-0.060 0.060 0.036 0.144 0.012 0.192-0.060 0.036-0.060 0.408-0.12 0.816-0.12 0.636 0 0.768-0.036 0.9-0.252 0.12-0.18 0.132-0.288 0.036-0.384-0.168-0.168-0.168-0.648 0-0.708 0.072-0.024 0.18-0.444 0.228-0.936 0.060-0.492 0.168-1.212 0.24-1.596 0.12-0.6 0.108-0.744-0.048-0.912-0.216-0.24-0.264-1.332-0.072-1.332 0.072 0 0.12-0.132 0.12-0.3 0-0.276 0.048-0.3 0.54-0.3s0.54 0.024 0.54 0.3c0 0.168 0.048 0.3 0.108 0.3 0.156 0 0.54 0.852 0.42 0.948-0.336 0.24-0.672 1.332-0.42 1.332 0.048 0 0.132 0.396 0.168 0.888 0.048 0.48 0.132 1.032 0.204 1.2 0.060 0.18 0.12 0.564 0.12 0.864v0.528h0.48c0.276 0 0.48 0.060 0.48 0.132 0 0.096-0.156 0.12-0.444 0.072-0.312-0.060-0.396-0.036-0.276 0.036 0.096 0.060 0.432 0.12 0.732 0.12 0.78 0 1.548 0.444 1.548 0.888 0 0.12 0.072 0.156 0.216 0.108 0.156-0.048 0.144-0.024-0.048 0.12-0.252 0.192-0.768 0.156-0.768-0.048 0-0.060-0.348-0.108-0.78-0.108-0.444 0-0.78 0.048-0.78 0.12s0.048 0.12 0.096 0.12c0.048 0 0.192 0.372 0.312 0.84 0.168 0.648 0.18 0.924 0.084 1.224-0.084 0.264-0.132 3.528-0.156 9.455-0.024 6.431-0.072 9.131-0.168 9.299-0.192 0.348-0.6 1.656-0.552 1.8 0.024 0.072 0 0.072-0.048 0.024-0.12-0.12-0.528 0.708-0.528 1.068 0 0.156-0.060 0.312-0.12 0.348-0.072 0.048-0.108 0.012-0.096-0.072z"></path>
<path fill="#fff" d="M22.449 30.394c-0.12-0.036-0.216-0.108-0.216-0.168 0-0.072 0.084-0.072 0.228 0.012 0.168 0.084 0.252 0.072 0.288-0.036 0.048-0.108 0.072-0.108 0.072 0 0.012 0.18-0.12 0.252-0.372 0.192z"></path>
<path fill="#fff" d="M9.91 29.854c-0.012-0.144 0.060-0.36 0.168-0.48 0.096-0.108 0.156-0.288 0.12-0.384s0.012-0.204 0.108-0.24c0.108-0.036 0.144-0.12 0.108-0.192-0.036-0.060-0.012-0.12 0.048-0.12 0.072 0 0.12-0.036 0.108-0.084-0.024-0.060 0.072-0.216 0.204-0.36 0.264-0.312 0.66-0.372 0.66-0.096 0 0.096 0.060 0.18 0.12 0.18 0.072 0 0.24 0.12 0.372 0.252 0.216 0.216 0.24 0.312 0.132 0.48-0.096 0.156-0.096 0.228 0.012 0.264 0.084 0.036 0.012 0.072-0.144 0.072-0.156 0.012-0.468 0.144-0.684 0.312s-0.432 0.3-0.48 0.3c-0.048 0-0.144 0.084-0.228 0.192-0.132 0.18-0.144 0.18-0.144 0 0-0.096 0.108-0.216 0.228-0.264 0.12-0.036 0.216-0.12 0.216-0.18 0-0.072-0.168-0.012-0.36 0.132-0.204 0.144-0.336 0.312-0.3 0.372 0.048 0.060 0 0.108-0.084 0.108-0.096 0-0.168-0.12-0.18-0.264z"></path>
<path fill="#fff" d="M21.753 29.902c0-0.084-0.54-0.36-1.104-0.54-0.12-0.048-0.216-0.132-0.216-0.204 0-0.060-0.072-0.12-0.168-0.12-0.108 0-0.192-0.144-0.216-0.324l-0.036-0.336-0.312 0.3c-0.168 0.168-0.408 0.324-0.54 0.336-0.12 0.024-0.288 0.096-0.372 0.156-0.204 0.18-0.288-0.228-0.156-0.78 0.060-0.264 0.084-0.528 0.048-0.576s0-0.096 0.060-0.096c0.096 0 0.132-2.76 0.132-9.059 0-4.98 0.036-9.071 0.096-9.071 0.252-0.048 1.2-0.12 1.464-0.108 0.168 0.012 1.392 0.036 2.736 0.072l2.424 0.060-0.060 1.644c-0.036 0.9-0.132 2.040-0.192 2.532-0.072 0.492-0.096 1.164-0.060 1.5s0.024 0.924-0.024 1.308c-0.084 0.576-0.072 0.684 0.060 0.636 0.096-0.036 0.132-0.012 0.096 0.048-0.036 0.072-0.012 0.12 0.060 0.12s0.12-0.192 0.096-0.48c-0.024-0.588 0.060-0.684 0.444-0.504 0.168 0.084 0.432 0.144 0.576 0.144s0.348 0.060 0.444 0.132c0.144 0.096 0.12 0.108-0.108 0.048-0.192-0.060-0.252-0.048-0.204 0.048 0.048 0.072 0.168 0.132 0.264 0.132s0.168 0.048 0.168 0.096c0 0.048 0.18 0.156 0.396 0.24 0.24 0.096 0.336 0.18 0.24 0.24-0.18 0.108-2.328 0.108-2.568-0.012-0.168-0.084-0.204 0.012-0.264 0.588-0.036 0.372-0.132 0.744-0.192 0.804-0.072 0.072-0.132 0.264-0.132 0.444 0 0.288-0.048 0.492-0.528 1.98-0.108 0.336-0.192 0.696-0.192 0.816 0 0.108-0.048 0.204-0.12 0.204-0.060 0-0.12 0.084-0.12 0.18s0.060 0.18 0.12 0.18c0.072 0 0.12-0.084 0.12-0.18s0.060-0.18 0.132-0.18c0.18 0 0.828 0.396 0.828 0.504 0 0.048 0.18 0.096 0.396 0.108 0.324 0 0.348 0.024 0.144 0.108s-0.204 0.108-0.024 0.108c0.108 0.012 0.204 0.060 0.204 0.132 0 0.060 0.144 0.156 0.324 0.192 0.516 0.132 0.036 0.24-0.912 0.216-1.728-0.060-1.812-0.072-1.68-0.252 0.072-0.084 0.192-0.12 0.264-0.072 0.084 0.048 0.096 0 0.048-0.132-0.048-0.12-0.084-0.264-0.084-0.324 0-0.072-0.048-0.084-0.12-0.048-0.060 0.036-0.12 0.18-0.12 0.312s-0.048 0.216-0.108 0.18c-0.060-0.048-0.144 0.084-0.192 0.288-0.048 0.192-0.132 0.36-0.192 0.36s-0.108 0.108-0.108 0.24c0 0.132-0.084 0.276-0.18 0.312-0.096 0.048-0.18 0.168-0.18 0.288 0 0.24-0.36 0.996-0.504 1.056-0.060 0.024-0.096 0.084-0.096 0.132 0 0.144-1.080 1.764-1.080 1.632 0-0.072-0.060-0.024-0.132 0.096-0.072 0.108-0.18 0.168-0.252 0.132-0.084-0.048-0.096-0.024-0.048 0.048 0.048 0.084 0.024 0.144-0.036 0.144-0.072 0-0.132 0.060-0.132 0.132 0 0.18 0.624 0.024 0.78-0.18 0.168-0.216 0.468-0.012 0.588 0.384 0.048 0.144 0.144 0.264 0.204 0.264s0.108 0.084 0.108 0.18c0 0.096 0.036 0.18 0.096 0.18 0.048 0 0.216 0.12 0.384 0.252 0.264 0.216 0.264 0.228 0.036 0.108-0.228-0.108-0.264-0.096-0.204 0.060 0.048 0.096 0.12 0.18 0.18 0.18s0.108 0.084 0.108 0.18c0 0.108-0.108 0.18-0.3 0.18-0.168 0-0.3-0.048-0.3-0.096zM20.433 28.498c0.132-0.156 0.12-0.168-0.048-0.108-0.108 0.036-0.192 0.12-0.192 0.18 0 0.156 0.072 0.132 0.24-0.072z"></path>
<path fill="#fff" d="M22.557 29.914c-0.12-0.108-0.108-0.276 0.012-0.276 0.060 0 0.108 0.084 0.108 0.18 0 0.204-0.012 0.216-0.12 0.096z"></path>
<path fill="#fff" d="M18.933 29.278c-0.036-0.060-0.012-0.12 0.048-0.12 0.072 0 0.132 0.060 0.132 0.12 0 0.072-0.024 0.12-0.048 0.12-0.036 0-0.096-0.048-0.132-0.12z"></path>
<path fill="#fff" d="M13.426 29.086c-0.036-0.096-0.12-0.156-0.18-0.108-0.060 0.036-0.156-0.048-0.192-0.192-0.048-0.132-0.108-0.216-0.144-0.18-0.108 0.108-0.516-0.432-0.432-0.564 0.048-0.072 0-0.096-0.096-0.060-0.168 0.060-0.624-0.312-0.504-0.42 0.024-0.036-0.072-0.132-0.228-0.204-0.288-0.156-1.056-0.936-1.056-1.092 0-0.048-0.072-0.168-0.156-0.252-0.072-0.084-0.252-0.372-0.384-0.636s-0.312-0.552-0.396-0.648c-0.084-0.084-0.132-0.24-0.096-0.324 0.036-0.096-0.012-0.168-0.108-0.168s-0.18-0.084-0.18-0.192c0-0.096-0.132-0.36-0.3-0.576s-0.3-0.456-0.3-0.516c0-0.072-0.084-0.192-0.192-0.288-0.108-0.084-0.168-0.264-0.132-0.42 0.024-0.168-0.012-0.252-0.132-0.24-0.096 0-0.204-0.060-0.228-0.144-0.036-0.096 0.012-0.12 0.168-0.072 0.204 0.072 0.204 0.072-0.012-0.096-0.144-0.12-0.204-0.252-0.156-0.384s0.012-0.228-0.12-0.276c-0.18-0.072-0.168-0.084 0.036-0.168 0.156-0.060 0.168-0.096 0.048-0.096-0.192-0.012-0.6-0.984-0.6-1.428 0-0.132-0.084-0.396-0.18-0.576-0.096-0.192-0.18-0.468-0.18-0.624s-0.048-0.372-0.108-0.48c-0.060-0.108-0.144-0.528-0.18-0.912-0.048-0.396-0.132-0.78-0.192-0.852s-0.108-1.596-0.12-3.384v-3.264h1.944c1.080 0 2.58 0.072 3.336 0.144l1.38 0.144 0.060 6.959c0.036 3.828 0.096 7.019 0.144 7.079 0.048 0.072 0.12 1.044 0.156 2.16 0.048 1.128 0.132 2.088 0.192 2.16 0.144 0.144 0.144 1.38 0 1.38-0.060 0-0.144-0.084-0.18-0.192zM13.594 28.75c0-0.036-0.060-0.096-0.144-0.144s-0.096-0.036-0.048 0.048c0.084 0.144 0.192 0.192 0.192 0.096zM13.39 28.162c-0.084-0.132-0.276 0.024-0.276 0.228 0 0.144 0.024 0.144 0.168 0.024 0.096-0.084 0.144-0.192 0.108-0.252zM13.078 27.874c-0.048-0.036-0.12-0.036-0.168 0-0.036 0.048 0 0.084 0.084 0.084s0.12-0.036 0.084-0.084zM12.454 27.502c-0.036-0.036-0.132 0-0.216 0.084-0.108 0.12-0.096 0.132 0.072 0.060 0.12-0.036 0.18-0.108 0.144-0.144z"></path>
<path fill="#fff" d="M25.749 23.915c0.108-0.024 0.276-0.024 0.36 0 0.072 0.036-0.012 0.060-0.216 0.060-0.192 0-0.264-0.024-0.144-0.060z"></path>
<path fill="#fff" d="M5.074 22.871c0-0.108 0.048-0.192 0.12-0.192 0.060 0 0.276-0.156 0.48-0.36 0.204-0.192 0.432-0.36 0.504-0.36s0.252-0.132 0.408-0.3c0.18-0.192 0.408-0.3 0.636-0.3 0.336 0 0.372 0.048 0.444 0.48 0.048 0.264 0.12 0.48 0.18 0.48s0.108 0.132 0.108 0.3c0 0.276-0.048 0.3-0.444 0.3-0.252-0.012-0.9 0.024-1.44 0.072-0.876 0.072-0.996 0.060-0.996-0.12z"></path>
<path fill="#fff" d="M5.374 17.543c-0.324-0.024-0.648-0.084-0.708-0.156-0.072-0.060-0.348-0.108-0.636-0.108-0.384 0-0.516-0.048-0.516-0.18 0-0.108 0.108-0.18 0.288-0.18 0.156 0 0.312-0.084 0.36-0.18 0.036-0.108 0.216-0.18 0.42-0.18 0.192 0 0.372-0.072 0.396-0.144 0.036-0.096 0.24-0.132 0.564-0.108 0.408 0.024 0.504 0 0.432-0.132-0.060-0.084-0.060-0.12-0.012-0.072 0.12 0.096 0.192 1.404 0.096 1.44-0.048 0.024-0.348 0.024-0.684 0z"></path>
<path fill="#fff" d="M27.309 16.835c0.048-0.036 0.12-0.036 0.168 0 0.036 0.048 0 0.084-0.084 0.084s-0.12-0.036-0.084-0.084z"></path>
<path fill="#fff" d="M5.374 11.328c-0.12-0.096-0.348-0.168-0.504-0.168s-0.408-0.084-0.552-0.18c-0.144-0.096-0.468-0.18-0.708-0.204-0.24-0.012-0.408-0.072-0.372-0.132 0.036-0.048 0.084-0.072 0.132-0.036 0.036 0.036 0.12-0.012 0.192-0.12 0.084-0.108 0.36-0.216 0.612-0.252 0.264-0.036 0.588-0.144 0.72-0.228 0.264-0.192 0.756-0.216 1.008-0.060 0.12 0.072 0.132 0.156 0.024 0.348-0.072 0.132-0.132 0.432-0.132 0.672 0 0.504-0.108 0.588-0.42 0.36z"></path>
<path fill="#fff" d="M25.881 10.716c0.036-0.252 0.072-0.6 0.072-0.78 0-0.3 0.048-0.336 0.408-0.336 0.228 0 0.456 0.060 0.492 0.12 0.036 0.072 0.468 0.12 0.96 0.12s0.912 0.048 0.948 0.096c0.036 0.060-0.096 0.072-0.3 0.048-0.204-0.036-0.348 0-0.348 0.084 0 0.072 0.132 0.132 0.3 0.132 0.192 0 0.3 0.072 0.3 0.18 0 0.144-0.168 0.18-0.768 0.18-0.42 0-0.792 0.036-0.816 0.096-0.060 0.144-0.828 0.504-1.080 0.504-0.216 0-0.24-0.048-0.168-0.444zM28.509 10.356c-0.084-0.024-0.228-0.024-0.3 0-0.084 0.036-0.024 0.060 0.144 0.060s0.228-0.024 0.156-0.060z"></path>
</svg>
