<!-- Generated by IcoMoon.io -->
<svg version="1.1" xmlns="http://www.w3.org/2000/svg" width="32" height="32" viewBox="0 0 32 32">
<title>card-decks-symmetrical</title>
<path fill="#fff" d="M27.83 31.811c0.013-0.090-0.039-0.155-0.103-0.168-0.078 0-0.31-0.155-0.517-0.349-0.207-0.207-0.427-0.362-0.491-0.362-0.052 0-0.233-0.142-0.401-0.323s-0.349-0.323-0.401-0.323c-0.052 0-0.969-0.853-2.029-1.9-2.727-2.689-2.663-2.624-2.74-2.624-0.039 0-0.672-0.608-1.422-1.357-0.969-0.969-1.435-1.357-1.654-1.357-0.168 0-0.427-0.090-0.569-0.194-0.129-0.103-0.323-0.194-0.401-0.194-0.181 0-0.685-0.401-0.685-0.53 0-0.039 0.336-0.181 0.75-0.323 0.401-0.129 0.801-0.297 0.892-0.375 0.090-0.065 0.246-0.207 0.349-0.284 0.103-0.090 0.259-0.168 0.336-0.168 0.065 0 0.129-0.090 0.129-0.194s0.065-0.194 0.129-0.194c0.078 0 0.233-0.233 0.349-0.517 0.129-0.284 0.297-0.517 0.388-0.517s0.168-0.129 0.168-0.297c0-0.168 0.090-0.414 0.194-0.556 0.103-0.129 0.194-0.465 0.194-0.724 0-0.271 0.052-0.491 0.116-0.491 0.155 0 0.181-2.029 0.013-2.133-0.065-0.039-0.129-0.362-0.129-0.724 0-0.349-0.052-0.633-0.129-0.633-0.065 0-0.155-0.142-0.207-0.323-0.039-0.181-0.129-0.323-0.181-0.323-0.065 0-0.155-0.116-0.194-0.271-0.116-0.362-1.37-1.59-1.887-1.848-0.22-0.116-0.517-0.207-0.659-0.207-0.439 0-0.271-0.53 0.362-1.112 0.323-0.31 0.711-0.595 0.84-0.633 0.129-0.052 0.246-0.142 0.246-0.207s0.052-0.116 0.129-0.116c0.065 0 0.297-0.168 0.517-0.388s0.452-0.388 0.517-0.388c0.052 0 0.633-0.517 1.28-1.163 0.646-0.633 1.202-1.163 1.254-1.163s0.297-0.194 0.556-0.427c0.685-0.595 1.215-0.995 1.331-0.995 0.052 0 0.556-0.465 1.125-1.034 0.582-0.569 1.112-1.034 1.189-1.034 0.065 0 0.103-0.052 0.065-0.103-0.078-0.116 0.375-0.543 0.569-0.543 0.078 0 0.129-0.090 0.129-0.194s0.052-0.194 0.116-0.194c0.052 0 0.401-0.284 0.763-0.646 0.362-0.349 0.685-0.646 0.724-0.646s0.078 0.116 0.078 0.259c0 0.142-0.052 0.259-0.129 0.259-0.065 0-0.129 0.090-0.129 0.194 0 0.116-0.090 0.233-0.194 0.271-0.103 0.052-0.194 0.207-0.194 0.375s-0.090 0.323-0.194 0.375c-0.103 0.039-0.194 0.194-0.194 0.349 0 0.168-0.103 0.297-0.271 0.336-0.181 0.052-0.22 0.103-0.103 0.168 0.103 0.078 0.026 0.168-0.259 0.31-0.22 0.116-0.401 0.297-0.401 0.401s-0.039 0.194-0.103 0.194c-0.052 0-0.207 0.22-0.349 0.491-0.142 0.258-0.284 0.504-0.323 0.543-0.155 0.129-0.905 1.435-0.905 1.551 0 0.078-0.052 0.129-0.129 0.129-0.065 0-0.155 0.142-0.207 0.323-0.039 0.181-0.129 0.323-0.194 0.323s-0.116 0.103-0.116 0.246c0 0.129-0.090 0.31-0.194 0.401s-0.194 0.258-0.194 0.388c0 0.22-0.375 0.646-0.569 0.646-0.052 0-0.181-0.090-0.284-0.194-0.323-0.31-0.439-0.233-0.439 0.297 0 0.271-0.090 0.607-0.194 0.75-0.103 0.129-0.194 0.478-0.207 0.763s-0.039 0.414-0.078 0.284c-0.026-0.116-0.116-0.194-0.181-0.155-0.065 0.052-0.116-0.233-0.116-0.633 0-0.672-0.026-0.724-0.297-0.724-0.194 0-0.375 0.116-0.478 0.323-0.090 0.181-0.284 0.323-0.414 0.323s-0.233 0.052-0.233 0.103c0 0.065-0.142 0.181-0.323 0.258s-0.323 0.233-0.323 0.349c0 0.194 0.439 0.711 0.608 0.711 0.142 0 1.448 1.461 1.538 1.706 0.103 0.336 0.517 0.401 0.956 0.142 0.491-0.284 0.53-0.776 0.078-0.892-0.336-0.078-0.53-0.388-0.336-0.504 0.078-0.039 0.737-0.103 1.499-0.116 0.788-0.026 1.422-0.103 1.512-0.194 0.078-0.078 0.349-0.142 0.595-0.142 0.259 0 0.633-0.090 0.84-0.194 0.194-0.103 0.491-0.194 0.646-0.194 0.142 0 0.388-0.090 0.517-0.194 0.142-0.103 0.452-0.194 0.685-0.194s0.427-0.052 0.427-0.129c0-0.065 0.181-0.129 0.388-0.129 0.22 0 0.388 0.065 0.388 0.129 0 0.078-0.078 0.129-0.181 0.129s-0.271 0.078-0.362 0.155c-0.090 0.090-0.401 0.284-0.685 0.427s-0.595 0.336-0.685 0.414c-0.090 0.090-0.22 0.168-0.284 0.168s-0.207 0.155-0.31 0.362c-0.116 0.194-0.194 0.258-0.207 0.155 0-0.155-0.026-0.168-0.116-0.013-0.065 0.090-0.194 0.142-0.284 0.116s-0.336 0.103-0.53 0.31c-0.194 0.194-0.401 0.362-0.452 0.362-0.065 0-0.259 0.142-0.452 0.323s-0.401 0.323-0.465 0.323c-0.078 0-0.155 0.090-0.207 0.194-0.039 0.103-0.194 0.194-0.336 0.194s-0.259 0.052-0.259 0.116c0 0.065-0.129 0.168-0.284 0.22-0.155 0.039-0.336 0.129-0.414 0.194s-0.271 0.233-0.439 0.375c-0.259 0.207-0.297 0.323-0.246 0.853 0.039 0.336 0.142 0.646 0.22 0.698 0.116 0.078 0.116 0.116-0.013 0.168-0.155 0.065-0.155 0.090 0 0.194 0.181 0.129 0.078 0.724-0.116 0.608-0.052-0.039-0.078 0.052-0.039 0.194s0.129 0.259 0.194 0.259c0.065 0 0.078 0.065 0.026 0.155s-0.039 0.103 0.052 0.052c0.078-0.052 0.22 0.026 0.31 0.168 0.116 0.194 0.246 0.246 0.478 0.181 0.207-0.052 0.284-0.026 0.22 0.065-0.039 0.078-0.013 0.181 0.065 0.233 0.103 0.052 0.116 0.039 0.065-0.052s-0.013-0.155 0.103-0.155c0.116 0 0.207 0.065 0.207 0.129 0 0.078 0.207 0.129 0.465 0.129 0.246 0 0.427 0.052 0.388 0.103-0.039 0.065-0.259 0.090-0.491 0.078-0.375-0.039-0.388-0.039-0.103 0.065 0.181 0.052 0.569 0.078 0.879 0.039 0.297-0.026 0.543 0 0.53 0.052-0.052 0.284 0.026 0.439 0.207 0.439 0.103 0 0.194 0.065 0.194 0.142 0 0.090 0.129 0.116 0.323 0.090 0.168-0.039 0.284-0.013 0.246 0.039-0.090 0.142 0.388 0.375 0.788 0.375 0.194 0 0.31 0.052 0.259 0.129-0.039 0.078 0.013 0.129 0.116 0.129s0.246 0.078 0.297 0.181c0.052 0.103 0.31 0.207 0.556 0.246 0.259 0.026 0.439 0.116 0.414 0.207-0.013 0.103 0.142 0.129 0.517 0.078 0.31-0.026 0.452-0.026 0.323 0.013-0.375 0.116-0.103 0.31 0.427 0.31 0.401 0 0.491 0.039 0.439 0.194-0.052 0.142-0.271 0.194-0.724 0.194-0.349 0-0.608-0.052-0.569-0.116s-0.401-0.142-0.982-0.168c-0.685-0.026-1.073-0.103-1.112-0.207-0.026-0.090-0.090-0.129-0.155-0.090s-0.271 0-0.478-0.078c-0.194-0.078-0.969-0.155-1.719-0.181-1.538-0.065-2.844-0.194-2.844-0.284 0-0.039 0.090-0.22 0.207-0.427 0.284-0.465 0.155-0.776-0.31-0.776-0.259 0-0.427 0.090-0.543 0.323-0.090 0.181-0.22 0.323-0.284 0.323-0.052 0-0.103 0.065-0.103 0.129 0 0.207-0.582 0.866-1.215 1.396-0.259 0.207-0.271 0.659-0.013 0.75 0.103 0.052 0.194 0.129 0.194 0.194s0.323 0.427 0.711 0.814c0.388 0.375 0.711 0.763 0.711 0.866s0.194 0.284 0.439 0.388c0.388 0.181 0.439 0.181 0.556 0 0.065-0.116 0.103-0.414 0.090-0.659 0-0.246 0.052-0.491 0.129-0.543 0.103-0.065 0.090-0.103-0.013-0.103-0.090 0-0.168-0.116-0.168-0.259 0-0.194 0.090-0.259 0.323-0.259 0.297 0 0.323 0.052 0.323 0.517 0 0.284 0.052 0.517 0.116 0.517s0.155 0.155 0.207 0.362c0.129 0.53 0.491 1.318 0.608 1.318 0.052 0 0.103 0.103 0.103 0.246 0 0.129 0.090 0.31 0.194 0.401s0.194 0.297 0.194 0.452c0 0.168 0.039 0.323 0.103 0.349 0.078 0.039 0.233 0.31 0.788 1.525 0.116 0.246 0.233 0.478 0.271 0.517 0.142 0.142 0.517 0.931 0.517 1.086 0 0.090 0.181 0.362 0.388 0.595 0.22 0.233 0.388 0.517 0.388 0.608s0.078 0.168 0.168 0.168c0.103 0 0.090 0.052-0.039 0.129-0.181 0.116-0.090 0.194 0.181 0.142 0.065-0.013 0.052 0.065-0.052 0.168-0.194 0.246-0.401 0.271-0.349 0.052z"></path>
<path fill="#fff" d="M3.452 31.617c-0.168-0.155-0.090-0.388 0.233-0.763 0.181-0.207 0.362-0.504 0.401-0.659 0.052-0.168 0.129-0.297 0.194-0.297s0.116-0.168 0.116-0.362c0-0.194 0.065-0.427 0.142-0.504 0.181-0.181 0.465-0.672 0.582-0.969 0.039-0.129 0.129-0.233 0.194-0.233s0.116-0.142 0.116-0.31c0-0.168 0.090-0.375 0.194-0.465s0.194-0.233 0.194-0.323c0-0.22 0.427-0.969 0.556-0.969 0.052 0 0.090-0.090 0.090-0.194s0.090-0.401 0.207-0.672c0.116-0.271 0.271-0.608 0.323-0.75 0.065-0.142 0.129-0.388 0.155-0.556 0.026-0.155 0.116-0.362 0.194-0.439 0.090-0.090 0.155-0.233 0.155-0.323s0.090-0.168 0.194-0.168c0.155 0 0.194 0.207 0.194 1.034 0 0.969 0.013 1.034 0.284 1.034 0.258 0 1.008-0.685 1.008-0.931 0-0.052 0.065-0.103 0.142-0.103 0.142 0 0.892-0.776 0.892-0.931 0-0.065 0.078-0.103 0.168-0.103 0.078 0 0.246-0.194 0.349-0.427l0.194-0.414-0.672-0.672c-0.375-0.375-0.685-0.724-0.685-0.801 0-0.065-0.052-0.142-0.103-0.168-0.052-0.013-0.271-0.259-0.465-0.517-0.375-0.504-0.724-0.646-0.724-0.297 0 0.103-0.090 0.194-0.194 0.194-0.207 0-0.271 0.336-0.065 0.414 0.065 0.026 0.142 0.181 0.155 0.362 0.039 0.31 0 0.323-0.801 0.427-0.465 0.052-1.293 0.129-1.835 0.168-0.556 0.039-1.008 0.129-1.008 0.194 0 0.078-0.052 0.090-0.129 0.052-0.065-0.039-0.129-0.039-0.129 0.026 0 0.129-1.758 0.194-2.688 0.090-0.659-0.065-0.827-0.31-0.207-0.31 0.168 0 0.31-0.052 0.31-0.116s0.129-0.168 0.297-0.207c0.427-0.129 1.125-0.504 1.125-0.608 0-0.065 0.207-0.103 0.452-0.103s0.452-0.052 0.452-0.116c0-0.065 0.233-0.233 0.517-0.388 0.284-0.142 0.517-0.233 0.517-0.181 0 0.039 0.103-0.013 0.233-0.129 0.129-0.129 0.401-0.233 0.582-0.246 0.194-0.013 0.349-0.078 0.349-0.129s0.155-0.103 0.349-0.103c0.181 0 0.31-0.039 0.258-0.078-0.116-0.116 0.246-0.439 0.478-0.439 0.116 0 0.207-0.052 0.207-0.129 0-0.065 0.103-0.129 0.22-0.129s0.323-0.103 0.465-0.233c0.246-0.22 0.258-0.207 0.103 0.103l-0.155 0.323 0.246-0.323c0.22-0.259 0.284-0.685 0.155-1.034-0.026-0.039-0.026-0.103-0.013-0.155 0-0.065-0.052-0.103-0.116-0.103-0.181 0-0.168-0.995 0.013-1.060 0.116-0.039 0.103-0.116-0.013-0.297-0.168-0.271-1.086-0.969-1.28-0.969-0.065 0-0.181-0.090-0.271-0.194s-0.246-0.194-0.349-0.194c-0.103 0-0.31-0.142-0.478-0.323s-0.375-0.323-0.465-0.323c-0.090 0-0.129-0.078-0.090-0.168 0.039-0.103-0.013-0.181-0.116-0.194s-0.271-0.039-0.375-0.052c-0.103-0.013-0.155-0.065-0.116-0.116 0.026-0.052-0.065-0.129-0.207-0.181-0.142-0.039-0.258-0.129-0.258-0.194 0-0.052-0.142-0.142-0.323-0.181-0.181-0.052-0.323-0.142-0.323-0.207 0-0.078-0.090-0.129-0.194-0.129s-0.194-0.052-0.194-0.116c0-0.065-0.129-0.168-0.284-0.22-0.155-0.039-0.401-0.194-0.543-0.336-0.142-0.129-0.401-0.271-0.556-0.31-0.168-0.052-0.297-0.155-0.297-0.258s-0.129-0.181-0.323-0.181c-0.181 0-0.323-0.052-0.323-0.129 0-0.065 0.142-0.129 0.323-0.129s0.323 0.065 0.323 0.129c0 0.078 0.129 0.129 0.297 0.129 0.155 0 0.452 0.090 0.659 0.194 0.194 0.103 0.517 0.194 0.711 0.194s0.414 0.065 0.504 0.155c0.181 0.181 1.008 0.349 2.714 0.517 0.724 0.078 1.318 0.194 1.318 0.258 0 0.052 0.142 0.103 0.323 0.103 0.388 0 0.414 0.142 0.065 0.362-0.142 0.090-0.258 0.271-0.258 0.414 0 0.284 0.465 0.646 0.84 0.646 0.271 0 0.711-0.401 0.711-0.646 0-0.078 0.090-0.129 0.194-0.129s0.194-0.090 0.194-0.207c0-0.207 0.827-1.086 1.021-1.086 0.052 0 0.194-0.103 0.31-0.233 0.297-0.323 0.142-0.763-0.31-0.918-0.207-0.065-0.375-0.207-0.375-0.297s-0.194-0.284-0.439-0.414c-0.401-0.207-0.478-0.22-0.646-0.052-0.103 0.116-0.207 0.414-0.233 0.685-0.065 0.737-0.362 0.75-0.362 0.013 0-0.323-0.065-0.595-0.129-0.595-0.078 0-0.116-0.039-0.103-0.090 0.039-0.207-0.194-1.073-0.297-1.073-0.052 0-0.116 0.207-0.142 0.452-0.039 0.53-0.233 0.607-0.388 0.168-0.103-0.284-0.090-0.284 0.090-0.052 0.103 0.142 0.194 0.194 0.194 0.129 0-0.271-0.297-0.439-0.491-0.284-0.155 0.129-0.168 0.090-0.142-0.22 0.039-0.258 0-0.375-0.116-0.349-0.078 0.013-0.155-0.039-0.155-0.116s-0.323-0.659-0.711-1.293c-0.388-0.633-0.711-1.202-0.711-1.28 0-0.065-0.052-0.129-0.129-0.129-0.065 0-0.155-0.142-0.207-0.323-0.039-0.181-0.116-0.323-0.168-0.323s-0.22-0.233-0.388-0.517c-0.155-0.284-0.336-0.517-0.414-0.517-0.065 0-0.116-0.090-0.116-0.194 0-0.194-0.336-0.646-0.827-1.112-0.129-0.129-0.207-0.31-0.168-0.401 0.026-0.103-0.103-0.349-0.31-0.543-0.362-0.375-0.491-0.724-0.259-0.724 0.065 0 0.336 0.207 0.607 0.452 0.259 0.246 0.53 0.452 0.582 0.452 0.065 0 0.116 0.065 0.116 0.142 0 0.142 0.698 0.892 0.827 0.892 0.052 0 0.388 0.323 0.776 0.711 0.375 0.388 0.801 0.711 0.931 0.711 0.207 0 0.22 0.026 0.052 0.129-0.155 0.103-0.116 0.129 0.168 0.129 0.207 0 0.336 0.065 0.323 0.168-0.026 0.090 0.116 0.168 0.336 0.194 0.246 0.026 0.323 0.078 0.22 0.142-0.116 0.078 0.026 0.258 0.465 0.607 0.336 0.271 0.814 0.685 1.047 0.918s0.452 0.427 0.478 0.427c0.026 0 0.323 0.246 0.633 0.556 0.763 0.698 0.957 0.866 1.047 0.866 0.052 0 0.246 0.155 0.439 0.362 0.504 0.478 0.918 0.827 1.357 1.112 0.207 0.129 0.504 0.375 0.646 0.53 0.155 0.155 0.414 0.336 0.582 0.388 0.233 0.065 0.258 0.116 0.129 0.207-0.129 0.078-0.142 0.116-0.013 0.116 0.078 0 0.155 0.090 0.155 0.207s-0.078 0.181-0.155 0.155c-0.090-0.039-0.388 0.103-0.672 0.31-0.271 0.194-0.556 0.362-0.62 0.362-0.362 0-1.654 1.422-1.654 1.822 0 0.129-0.052 0.246-0.129 0.246-0.065 0-0.129 0.078-0.129 0.181s-0.078 0.271-0.181 0.375c-0.155 0.155-0.323 1.15-0.336 1.965-0.013 0.931 0.439 3.038 0.646 3.038 0.065 0 0.142 0.142 0.181 0.323 0.052 0.181 0.142 0.323 0.207 0.323 0.078 0 0.129 0.090 0.129 0.194 0 0.155 0.582 0.788 1.215 1.318 0.090 0.078 0.388 0.194 0.646 0.233 0.258 0.052 0.504 0.142 0.543 0.207s0.194 0.116 0.362 0.116c0.181 0 0.297 0.078 0.297 0.194s-0.078 0.181-0.181 0.142c-0.090-0.039-0.168 0.013-0.168 0.116s-0.103 0.194-0.246 0.194c-0.129 0-0.31 0.090-0.401 0.194s-0.362 0.194-0.595 0.194c-0.246 0-0.439 0.065-0.439 0.129 0 0.078-0.078 0.129-0.181 0.129-0.246 0-1.241 0.995-1.241 1.228 0 0.103-0.052 0.194-0.116 0.194-0.155 0-1.125 0.892-3.516 3.27-1.060 1.047-1.991 1.9-2.055 1.9-0.078 0-0.129 0.090-0.129 0.194s-0.065 0.194-0.129 0.194c-0.129 0-0.284 0.103-0.711 0.491-0.090 0.078-0.233 0.155-0.31 0.155-0.065 0-0.155 0.116-0.207 0.246-0.039 0.142-0.258 0.31-0.478 0.388-0.478 0.168-0.427 0.168-0.53 0.052zM7.549 18.626c-0.039-0.065-0.142-0.103-0.22-0.103-0.103 0-0.103 0.039 0.026 0.116 0.116 0.078 0.129 0.142 0.026 0.194-0.078 0.052-0.142 0.155-0.142 0.246 0 0.078 0.078 0.026 0.181-0.103 0.103-0.142 0.155-0.297 0.129-0.349zM8.467 18.394c0.039-0.065 0.052-0.129 0.013-0.129s-0.103 0.065-0.142 0.129c-0.039 0.078-0.052 0.129-0.013 0.129s0.103-0.052 0.142-0.129zM7.717 18.303c-0.052-0.039-0.129-0.039-0.181 0-0.039 0.052 0 0.090 0.090 0.090s0.129-0.039 0.090-0.090zM7.976 18.045c-0.052-0.039-0.090 0-0.090 0.090s0.039 0.129 0.090 0.090c0.039-0.052 0.039-0.129 0-0.181zM8.105 8.118c0-0.103-0.052-0.155-0.116-0.116s-0.078 0.129-0.039 0.194c0.116 0.168 0.155 0.142 0.155-0.078z"></path>
<path fill="#fff" d="M0.363 21.922c0.090-0.039 0.207-0.026 0.246 0.013 0.052 0.039-0.026 0.078-0.168 0.065-0.142 0-0.181-0.039-0.078-0.078z"></path>
<path fill="#fff" d="M31.074 21.858c-0.052-0.090-0.039-0.103 0.052-0.052s0.155 0.116 0.155 0.155c0 0.103-0.116 0.052-0.207-0.103z"></path>
<path fill="#fff" d="M31.746 21.793c-0.078-0.181-0.065-0.194 0.065-0.078 0.090 0.090 0.129 0.194 0.090 0.233s-0.116-0.026-0.155-0.155z"></path>
<path fill="#fff" d="M0.001 21.496c0-0.065 0.207-0.129 0.452-0.129s0.452 0.065 0.452 0.129c0 0.078-0.207 0.129-0.452 0.129s-0.452-0.052-0.452-0.129z"></path>
<path fill="#fff" d="M1.035 21.496c0-0.065 0.116-0.129 0.271-0.129 0.142 0 0.22 0.065 0.181 0.129-0.039 0.078-0.168 0.129-0.271 0.129s-0.181-0.052-0.181-0.129z"></path>
<path fill="#fff" d="M31.061 21.018c0.052-0.039 0.129-0.039 0.181 0 0.039 0.052 0 0.090-0.090 0.090s-0.129-0.039-0.090-0.090z"></path>
<path fill="#fff" d="M3.4 18.95c0.052-0.039 0.129-0.039 0.181 0 0.039 0.052 0 0.090-0.090 0.090s-0.129-0.039-0.090-0.090z"></path>
<path fill="#fff" d="M26.731 18.95c0.078-0.026 0.233-0.026 0.323 0 0.078 0.039 0.013 0.065-0.168 0.065s-0.246-0.026-0.155-0.065z"></path>
<path fill="#fff" d="M3.775 18.536c0.026-0.259 0.103-0.336 0.336-0.323 0.155 0.013 0.284-0.052 0.284-0.155 0-0.116 0.155-0.181 0.427-0.181 0.284 0 0.362-0.039 0.233-0.116-0.142-0.090-0.142-0.116 0-0.181 0.129-0.052 0.116-0.078-0.039-0.078-0.129-0.013-0.233-0.065-0.233-0.129 0-0.052-0.323-0.142-0.737-0.181-0.401-0.039-0.763-0.129-0.801-0.194s-0.465-0.168-0.944-0.207c-0.478-0.052-0.905-0.155-0.944-0.22-0.052-0.065-0.31-0.116-0.595-0.116-0.271 0-0.504-0.052-0.504-0.116 0-0.052 0.62-0.142 1.383-0.194s1.448-0.142 1.525-0.207c0.078-0.065 0.465-0.129 0.879-0.155 0.672-0.039 0.737-0.065 0.737-0.323 0-0.168-0.065-0.297-0.129-0.297-0.078 0-0.31-0.155-0.53-0.349-0.22-0.207-0.452-0.349-0.517-0.336-0.065 0.026-0.116-0.065-0.116-0.194 0-0.181 0.103-0.233 0.478-0.246 0.258-0.013 0.401 0.026 0.31 0.090-0.181 0.103 0.633 0.646 0.995 0.646 0.116 0 0.336 0.090 0.465 0.194 0.142 0.103 0.427 0.194 0.633 0.194 0.271 0 0.53 0.155 0.944 0.569 0.465 0.478 0.569 0.659 0.569 1.060 0 0.259-0.039 0.439-0.078 0.401-0.052-0.039-0.233 0.026-0.414 0.168-0.168 0.142-0.375 0.22-0.452 0.168-0.065-0.039-0.090-0.026-0.052 0.052 0.090 0.142-0.698 0.556-1.086 0.556-0.142 0-0.284 0.090-0.323 0.194-0.052 0.129-0.258 0.194-0.646 0.194-0.362 0-0.607 0.065-0.646 0.168-0.116 0.323-0.452 0.194-0.414-0.155zM5.003 18.187c-0.039-0.039-0.155-0.052-0.246-0.013-0.103 0.039-0.065 0.078 0.078 0.078 0.142 0.013 0.22-0.026 0.168-0.065z"></path>
<path fill="#fff" d="M27.093 18.368c0.039-0.052-0.259-0.103-0.659-0.103-0.439 0-0.698-0.052-0.646-0.129 0.039-0.065-0.155-0.155-0.439-0.207s-0.595-0.168-0.672-0.259c-0.078-0.103-0.207-0.181-0.271-0.181-0.22 0-0.685-0.439-0.724-0.685-0.090-0.517 0.931-1.59 1.616-1.719 0.233-0.039 0.427-0.116 0.427-0.168s0.22-0.103 0.478-0.116c0.271-0.026 0.53-0.116 0.595-0.22 0.052-0.103 0.22-0.194 0.349-0.194 0.142 0 0.259-0.052 0.259-0.116s0.103-0.142 0.233-0.194c0.116-0.039 0.297-0.116 0.388-0.155s0.155 0.026 0.155 0.181c0 0.168-0.116 0.284-0.323 0.336-0.233 0.065-0.323 0.168-0.323 0.401 0 0.181-0.065 0.323-0.142 0.323-0.065 0-0.090-0.078-0.039-0.155 0.065-0.129 0.052-0.129-0.065-0.026-0.090 0.090-0.142 0.284-0.116 0.452 0.039 0.284 0.116 0.323 0.879 0.388 0.465 0.052 1.215 0.155 1.68 0.233s1.137 0.142 1.512 0.142c1.112 0 0.956 0.259-0.181 0.284-0.556 0-0.814 0.039-0.582 0.065 0.75 0.103 0.439 0.246-0.556 0.271-1.021 0.013-1.293 0.090-1.15 0.31 0.052 0.090-0.259 0.103-0.969 0.065l-1.047-0.065v0.375c0 0.349 0.026 0.375 0.556 0.388 0.388 0 0.478 0.039 0.284 0.103-0.233 0.090-0.22 0.116 0.129 0.31l0.388 0.22-0.543-0.026c-0.297-0.013-0.517-0.065-0.478-0.129zM25.141 17.618c-0.039-0.065-0.155-0.129-0.233-0.129-0.090 0-0.078 0.052 0.039 0.129 0.246 0.155 0.297 0.155 0.194 0zM24.391 17.269c-0.052-0.039-0.129-0.039-0.181 0-0.039 0.052 0 0.090 0.090 0.090s0.129-0.039 0.090-0.090z"></path>
<path fill="#fff" d="M28.217 18.174c0.052-0.039 0.129-0.039 0.181 0 0.039 0.052 0 0.090-0.090 0.090s-0.129-0.039-0.090-0.090z"></path>
<path fill="#fff" d="M23.848 18.006c-0.039-0.065-0.013-0.129 0.052-0.129 0.078 0 0.142 0.065 0.142 0.129 0 0.078-0.026 0.129-0.052 0.129-0.039 0-0.103-0.052-0.142-0.129z"></path>
<path fill="#fff" d="M29.859 15.938l-0.711-0.090 0.672-0.013c0.362-0.013 0.711 0.039 0.75 0.103 0.039 0.078 0.065 0.116 0.039 0.103s-0.362-0.052-0.75-0.103z"></path>
<path fill="#fff" d="M26.951 12.319c0.039-0.065 0.103-0.129 0.142-0.129s0.026 0.065-0.013 0.129c-0.039 0.078-0.103 0.129-0.142 0.129s-0.026-0.052 0.013-0.129z"></path>
<path fill="#fff" d="M9.307 10.742c-0.155-0.284-0.155-0.284 0.078-0.078 0.129 0.129 0.194 0.258 0.155 0.31-0.052 0.039-0.155-0.065-0.233-0.233z"></path>
<path fill="#fff" d="M23.176 9.255c0.052-0.039 0.129-0.039 0.181 0 0.039 0.052 0 0.090-0.090 0.090s-0.129-0.039-0.090-0.090z"></path>
<path fill="#fff" d="M23.396 8.816c0-0.052 0.090-0.116 0.194-0.168 0.116-0.039 0.194 0 0.194 0.103 0 0.090-0.090 0.168-0.194 0.168s-0.194-0.052-0.194-0.103z"></path>
<path fill="#fff" d="M2.457 0.169c0-0.065 0.065-0.129 0.129-0.129 0.078 0 0.129 0.065 0.129 0.129 0 0.078-0.052 0.129-0.129 0.129-0.065 0-0.129-0.052-0.129-0.129z"></path>
</svg>
