<!-- Generated by IcoMoon.io -->
<svg version="1.1" xmlns="http://www.w3.org/2000/svg" width="32" height="32" viewBox="0 0 32 32">
<title>characteristic-attacks</title>
<path fill="#fff" d="M17.44 8.010c-0.426-0.134-0.381-5.645 0.067-6.675 0.224-0.538 0.426-0.739 0.605-0.605 0.157 0.090 0.784 0.224 1.366 0.291l1.098 0.112-0.426 0.56c-0.246 0.314-0.56 0.986-0.739 1.501-0.157 0.515-0.358 0.896-0.47 0.851-0.090-0.067-0.224 0.269-0.314 0.762-0.269 1.613-0.896 3.315-1.187 3.203z"></path>
<path fill="#fff" d="M14.147 10.161c-0.246-0.134-0.851-0.65-1.344-1.142s-1.187-1.030-1.568-1.21c-1.501-0.739-1.68-0.851-1.68-1.165 0-0.179 0.426-0.717 0.963-1.187l0.941-0.874 0.515 0.627c0.291 0.336 0.806 0.941 1.142 1.299 1.232 1.366 2.509 3.293 2.397 3.606-0.134 0.381-0.739 0.403-1.366 0.045z"></path>
<path fill="#fff" d="M0.774 31.373c-0.829-0.829-0.963-1.344-0.538-2.24 0.291-0.605 0.538-0.806 1.21-0.918 0.448-0.090 0.874-0.224 0.941-0.314 0.067-0.067 0.336-0.291 0.627-0.493s1.187-0.986 1.994-1.77l1.456-1.411-0.157-1.008c-0.090-0.56-0.336-1.232-0.582-1.501-0.515-0.538-0.538-0.762-0.090-0.762 0.179 0 0.426 0.202 0.56 0.448 0.246 0.47 0.896 0.381 0.896-0.134 0-0.314 0.224-0.538 3.83-3.898 1.254-1.165 3.606-3.472 5.219-5.13s3.427-3.472 4.032-4.032c0.627-0.56 1.725-1.613 2.464-2.307 0.739-0.717 1.411-1.299 1.478-1.299s0.627-0.448 1.232-1.008c1.008-0.896 5.667-3.472 6.317-3.472 0.694 0-1.837 5.354-3.091 6.474-4.547 4.166-6.026 5.6-6.026 5.846 0 0.134-0.134 0.202-0.269 0.157-0.157-0.022-0.269 0.090-0.224 0.246 0.022 0.179-0.045 0.246-0.157 0.179-0.112-0.090-0.582 0.224-1.053 0.65-0.448 0.426-0.918 0.784-1.008 0.784-0.112 0-0.202 0.090-0.202 0.179 0 0.112-0.672 0.829-1.478 1.635-4.256 4.166-5.197 5.13-6.72 6.854-1.411 1.568-1.635 1.926-1.389 2.195 1.008 1.098 1.098 1.456 0.426 1.456-0.224 0-0.582-0.246-0.784-0.56s-0.538-0.56-0.762-0.56c-0.224 0-0.493-0.090-0.627-0.224s-0.896 0.47-2.195 1.792c-1.075 1.12-2.061 2.016-2.173 2.016s-0.224 0.134-0.224 0.291c-0.022 0.134-0.067 0.515-0.090 0.784-0.067 0.717-0.739 1.344-1.568 1.523-0.56 0.090-0.806 0-1.277-0.47zM7.539 22.189c0-0.179-0.090-0.336-0.224-0.336-0.112 0-0.224 0.157-0.224 0.336s0.112 0.336 0.224 0.336c0.134 0 0.224-0.157 0.224-0.336zM15.894 15.985c3.248-3.248 7.168-7.078 8.691-8.534s2.531-2.509 2.24-2.352c-1.030 0.56-2.554 1.949-8.086 7.347-9.072 8.848-9.61 9.408-8.96 9.408 0.112 0 2.867-2.643 6.115-5.869z"></path>
<path fill="#fff" d="M23.6 19.68c-0.896-0.851-1.904-1.859-2.262-2.262-0.605-0.694-0.627-0.762-0.269-1.12 0.336-0.336 0.426-0.336 1.434 0.179 0.582 0.314 1.098 0.627 1.165 0.694 0.202 0.269 2.352 1.299 2.979 1.456 0.56 0.134 0.627 0.224 0.493 0.739-0.179 0.672-1.187 1.814-1.613 1.814-0.179 0-1.030-0.672-1.926-1.501z"></path>
<path fill="#fff" d="M17.149 26.736c-0.157-0.515-0.112-0.851 0.134-0.941 0.157-0.045 0.358-0.515 0.448-1.030 0.090-0.493 0.291-1.053 0.47-1.21 0.179-0.179 0.314-0.627 0.314-0.986s0.067-1.277 0.134-2.038c0.179-1.635 0.672-1.882 0.851-0.403 0.067 0.515 0.179 1.299 0.246 1.725s0.202 1.523 0.269 2.419c0.157 2.038-0.045 2.33-1.411 2.128-0.672-0.090-0.986-0.045-0.986 0.134 0 0.202-0.403 0.381-0.47 0.202z"></path>
<path fill="#fff" d="M24.249 13.386c-0.179-0.314 0.314-0.672 1.098-0.762 0.381-0.067 1.030-0.246 1.456-0.448 1.926-0.851 3.405-1.344 3.808-1.232 0.314 0.090 0.448 0 0.448-0.246 0-0.739 0.65 0.246 0.806 1.21l0.134 0.918-1.411 0.246c-2.15 0.381-6.182 0.56-6.339 0.314z"></path>
<path fill="#fff" d="M4.291 14.305c-0.090-0.47-0.202-1.030-0.269-1.254-0.090-0.381 0.134-0.403 3.45-0.381 1.949 0.022 3.763 0.090 4.054 0.157 0.784 0.179 0.605 0.739-0.224 0.739-0.403 0-1.187 0.157-1.725 0.358-0.56 0.179-1.501 0.381-2.128 0.448s-1.21 0.224-1.299 0.381c-0.112 0.202-0.314 0.202-0.851 0-0.605-0.224-0.694-0.224-0.582 0.067 0.067 0.157 0.022 0.314-0.090 0.314s-0.269-0.381-0.336-0.829z"></path>
</svg>
