<!-- Generated by IcoMoon.io -->
<svg version="1.1" xmlns="http://www.w3.org/2000/svg" width="32" height="32" viewBox="0 0 32 32">
<title>characteristic-range</title>
<path fill="#fff" d="M18.888 23.935c-0.111-0.29-2.851-2.517-2.851-2.316 0 0.089-0.111 0-0.245-0.2-0.111-0.223-0.334-0.401-0.445-0.401-0.134 0-0.156 0.134-0.067 0.29 0.111 0.156 0 0.134-0.245-0.067-0.379-0.312-0.379-0.334-0.022-0.401 0.29-0.067 0.334-0.156 0.111-0.401-0.356-0.445 0.245-0.624 1.403-0.445l0.891 0.156-0.134-0.846c-0.29-1.581-1.626-3.897-2.918-5.033-0.713-0.624-2.405-1.448-3.363-1.604-0.468-0.089-1.002-0.29-1.18-0.423s-1.18-0.245-2.338-0.245c-1.982 0-2.071 0.022-3.274 0.846-0.69 0.445-1.359 0.824-1.47 0.824-0.134 0-0.29 0.156-0.379 0.334-0.067 0.178-0.267 0.334-0.445 0.334s-0.423 0.178-0.557 0.379c-0.468 0.846-0.49 0-0.045-1.225 0.535-1.448 2.205-3.229 3.652-3.897 0.445-0.223 0.869-0.49 0.935-0.579 0.067-0.111 0.423-0.267 0.779-0.356 0.379-0.089 0.668-0.223 0.668-0.312 0-0.29-1.203-1.292-1.715-1.47-0.29-0.067-0.512-0.245-0.512-0.356 0-0.267-3.942-0.267-4.12 0.022-0.2 0.334-1.002 0.267-1.002-0.089 0-0.557 1.492-1.626 2.94-2.094 1.514-0.49 4.566-0.69 4.298-0.29-0.089 0.156 0.178 0.245 0.713 0.245 0.468 0 1.359 0.134 1.96 0.312 1.247 0.334 3.697 1.604 3.964 2.071 0.089 0.156 0.29 0.29 0.423 0.29 0.379 0 2.606 2.405 3.653 3.897 1.269 1.871 1.67 2.851 1.804 4.387 0.067 0.713 0.223 1.359 0.312 1.425 0.111 0.067 0.2 0.445 0.2 0.824 0 0.401 0.067 1.091 0.156 1.559 0.111 0.757 0.2 0.846 0.601 0.713 1.314-0.401 2.806-0.267 2.806 0.245 0 0.156-0.579 0.69-1.269 1.158-0.713 0.49-1.715 1.336-2.227 1.915-0.913 1.002-1.292 1.225-1.448 0.824zM6.46 11.196c0-0.245-0.067-0.245-0.535-0.067-0.512 0.2-0.445 0.512 0.089 0.379 0.245-0.067 0.445-0.2 0.445-0.312z"></path>
<path fill="#fff" d="M14.589 27.944c0.067-0.134-0.512-0.223-1.381-0.223-1.403-0.022-3.363-0.379-4.387-0.802-0.334-0.156-0.401-0.111-0.267 0.134 0.089 0.178 0 0.111-0.178-0.111-0.2-0.245-0.356-0.356-0.356-0.245 0 0.089-0.223 0-0.49-0.245-0.267-0.223-0.401-0.29-0.312-0.134 0.178 0.312-1.359-0.535-1.893-1.069-0.49-0.468-0.913-1.314-0.757-1.537 0.067-0.111-0.022-0.267-0.156-0.312-0.223-0.089-0.223-0.134 0-0.134 0.134-0.022 0.267-0.178 0.267-0.356s0.29-0.624 0.646-0.98c1.047-1.069 3.408-2.004 6.37-2.494 0.913-0.156 1.67-0.379 1.67-0.468s0.156-0.178 0.356-0.178c0.713 0 0.134 0.557-0.69 0.668-0.468 0.067-0.891 0.245-0.958 0.401-0.067 0.2 0.089 0.245 0.557 0.178 0.713-0.134-0.2 0.134-2.272 0.69-1.604 0.445-3.229 1.314-3.229 1.759 0 0.245 0.379 0.312 1.67 0.312 1.715 0 2.272 0.334 0.98 0.601-0.512 0.089-0.601 0.178-0.379 0.334 0.2 0.156 0.156 0.178-0.2 0.111-0.267-0.067-0.958 0-1.537 0.111-0.913 0.2-1.002 0.267-0.624 0.468 0.223 0.134 0.468 0.29 0.535 0.379 0.29 0.379 1.804 0.935 3.073 1.114 0.78 0.111 1.537 0.29 1.693 0.423 0.134 0.111 1.448 0.29 2.873 0.379 2.539 0.156 2.628 0.134 3.163-0.356 0.312-0.29 0.557-0.646 0.557-0.824 0-0.356 0.379-0.379 0.779 0 1.18 1.047 1.514 1.091 4.009 0.579 2.049-0.445 4.566-1.514 5.345-2.294 0.334-0.334 0.334-0.356-0.045-0.49-0.223-0.067-0.624-0.223-0.913-0.334s-0.846-0.2-1.269-0.2c-1.203 0-0.913-0.379 0.512-0.668 1.871-0.356 1.871-0.379 1.604-0.869-0.111-0.245-0.49-0.646-0.824-0.891-0.356-0.245-0.757-0.579-0.935-0.713-0.156-0.156-0.779-0.312-1.381-0.379-0.601-0.045-1.091-0.178-1.091-0.29s-0.468-0.2-1.047-0.223c-0.824-0.022-0.935-0.067-0.512-0.178 0.624-0.178 3.207 0.111 3.897 0.423 0.245 0.111 0.69 0.267 1.002 0.356s0.824 0.334 1.158 0.557c0.312 0.245 0.646 0.423 0.713 0.423 0.401 0 1.915 1.849 2.027 2.494s0.022 0.869-0.869 1.804c-0.557 0.579-1.314 1.18-1.693 1.292-0.356 0.134-0.668 0.334-0.668 0.445s-0.134 0.2-0.312 0.2c-0.178 0-0.601 0.111-0.958 0.267-0.334 0.134-0.69 0.245-0.757 0.223-0.067 0-0.624 0.134-1.203 0.312-0.601 0.156-1.759 0.312-2.606 0.312-0.98 0-1.492 0.089-1.403 0.223 0.089 0.156-1.114 0.223-3.452 0.223-2.16 0-3.541-0.089-3.452-0.2z"></path>
</svg>
