<!-- Generated by IcoMoon.io -->
<svg version="1.1" xmlns="http://www.w3.org/2000/svg" width="32" height="32" viewBox="0 0 32 32">
<title>factions-order-cities-of-sigmar-alternative</title>
<path fill="#fff" d="M15.399 27.875c-0.39-2.342-0.737-4.294-0.737-4.316-0.022 0-0.39-0.087-0.803-0.174-0.737-0.13-0.781-0.087-2.473 1.93-0.933 1.15-1.713 2.082-1.757 2.082-0.022 0 0.369-1.171 0.911-2.581l0.954-2.603-0.586-0.651c-0.325-0.369-0.803-0.672-1.041-0.672-0.26 0-1.475 0.39-2.711 0.868-1.258 0.477-2.299 0.824-2.321 0.802-0.065-0.043 3.622-3.123 4.078-3.427 0.13-0.087 0.087-0.434-0.108-0.889-0.369-0.868 0.13-0.716-5.856-1.692-1.627-0.282-2.95-0.542-2.885-0.586 0.043-0.043 1.952-0.39 4.251-0.781l4.186-0.694 0.26-0.781 0.282-0.781-2.147-1.692c-1.171-0.933-2.104-1.735-2.060-1.778 0.022-0.043 1.106 0.325 2.407 0.803 1.28 0.477 2.451 0.868 2.581 0.868 0.152 0 0.586-0.325 0.976-0.737l0.694-0.716-0.954-2.538c-0.521-1.388-0.911-2.516-0.824-2.494 0.065 0 0.607 0.607 1.171 1.345 2.169 2.798 2.191 2.798 2.993 2.581 0.716-0.174 0.737-0.239 1.084-1.909 0.195-0.933 0.521-2.863 0.737-4.273 0.239-1.388 0.477-2.473 0.542-2.386 0.087 0.108 0.412 1.909 0.759 4.034 0.325 2.104 0.716 3.991 0.846 4.164 0.13 0.152 0.499 0.369 0.802 0.434 0.521 0.13 0.737-0.043 2.277-1.93 0.954-1.15 1.735-1.995 1.778-1.887 0.043 0.13-0.043 0.412-0.152 0.651-0.542 0.998-1.562 4.186-1.453 4.533 0.108 0.304-0.152 0.477-1.215 0.846l-1.345 0.455-0.868-0.434c-1.388-0.716-2.104-0.846-2.95-0.586-2.429 0.781-3.449 4.186-1.8 6.073 0.282 0.325 0.412 0.325 1.301 0.065 2.473-0.737 5.14 0.976 4.164 2.689-0.564 1.041-2.407 0.824-3.622-0.412l-0.672-0.672-1.084 0.694c-0.607 0.412-1.041 0.824-0.954 0.954 0.629 1.15 2.624 2.082 4.359 2.082 0.564 0 1.562-0.239 2.212-0.499 1.583-0.629 2.082-1.54 1.735-3.102-0.412-1.778-1.627-2.689-3.622-2.689-1.648 0-1.995-0.174-2.256-1.084-0.282-0.954 0.022-1.735 0.694-1.735 0.803 0 2.039 0.651 2.689 1.453l0.672 0.759 0.629-0.824c0.369-0.477 1.041-1.453 1.54-2.212 0.802-1.258 0.911-1.345 1.236-1.041 0.477 0.477 0.586 0.455 3.253-0.542 2.386-0.911 3.036-0.998 1.952-0.304-0.325 0.217-1.301 0.976-2.169 1.692-1.388 1.15-1.562 1.366-1.453 1.865 0.239 1.019 0.065 0.976 5.617 1.865 3.839 0.629 3.861 0.607-0.868 1.388-2.386 0.39-4.403 0.781-4.468 0.868-0.087 0.065-0.217 0.434-0.282 0.781-0.13 0.607-0.022 0.737 1.909 2.277 1.128 0.889 2.060 1.692 2.060 1.778 0.022 0.13-2.538-0.737-4.208-1.431l-0.846-0.369-1.518 1.518 0.933 2.516c0.499 1.41 0.889 2.581 0.846 2.624-0.043 0.022-0.802-0.846-1.692-1.974s-1.778-2.060-1.952-2.039c-0.651 0.043-1.41 0.325-1.41 0.521-0.043 0.672-1.301 8.047-1.41 8.177-0.065 0.087-0.455-1.757-0.846-4.121z"></path>
</svg>
