<!-- Generated by IcoMoon.io -->
<svg version="1.1" xmlns="http://www.w3.org/2000/svg" width="32" height="32" viewBox="0 0 32 32">
<title>factions-chaos-slaves-to-darkness</title>
<path fill="#fff" d="M16.141 0.008c0.028 0.039 0.049 0.088 0.085 0.116 0.099 0.071 0.125 0.171 0.168 0.28 0.247 0.623 0.491 1.252 0.782 1.854 0.36 0.742 0.769 1.46 1.156 2.19 0.068 0.13 0.129 0.264 0.191 0.392-0.108 0.153-0.234 0.105-0.377 0.064-0.372-0.106-0.667-0.345-0.982-0.546-0.030-0.020-0.064-0.034-0.131-0.071 0.014 0.189 0 0.359 0.046 0.509 0.131 0.442 0.181 0.89 0.178 1.348-0.001 0.205 0.011 0.204 0.213 0.212 0.135 0.005 0.274 0.024 0.404 0.061 0.459 0.128 0.921 0.247 1.368 0.409 0.193 0.070 0.343 0.25 0.527 0.351 0.388 0.212 0.788 0.401 1.178 0.606 0.191 0.1 0.384 0.204 0.556 0.331 0.197 0.145 0.372 0.32 0.572 0.494 0.391-0.471 0.99-0.732 1.244-1.345-0.162-0.079-0.3-0.139-0.431-0.212-0.143-0.078-0.166-0.209-0.046-0.321 0.066-0.062 0.151-0.109 0.237-0.141 0.375-0.134 0.752-0.263 1.132-0.385 0.155-0.050 0.322-0.064 0.473-0.125 0.242-0.096 0.473-0.22 0.713-0.322 0.225-0.096 0.452-0.192 0.686-0.264 0.083-0.025 0.204-0.007 0.275 0.042 0.042 0.029 0.039 0.159 0.020 0.233-0.095 0.36-0.185 0.722-0.306 1.073-0.153 0.442-0.339 0.872-0.5 1.312-0.084 0.23-0.143 0.469-0.214 0.704-0.038 0.125-0.078 0.249-0.116 0.372-0.333-0.058-0.35-0.356-0.477-0.613-0.139 0.13-0.283 0.237-0.393 0.371-0.246 0.3-0.475 0.613-0.71 0.922-0.061 0.080-0.083 0.162-0.017 0.255 0.134 0.193 0.258 0.395 0.397 0.583 0.431 0.581 0.711 1.243 0.982 1.906 0.083 0.204 0.108 0.433 0.153 0.651 0.061 0.297 0.113 0.594 0.17 0.893 0.003 0.011 0.008 0.022 0.007 0.032-0.080 0.358 0.188 0.471 0.426 0.601 0.046 0.025 0.105 0.039 0.157 0.037 0.517-0.033 1.034-0.071 1.553-0.108-0.051-0.297-0.128-0.593-0.347-0.838-0.068-0.076-0.113-0.192-0.126-0.295-0.035-0.271 0.17-0.427 0.418-0.304 0.272 0.134 0.523 0.312 0.786 0.466 0.13 0.076 0.271 0.135 0.402 0.212 0.373 0.217 0.738 0.452 1.119 0.656 0.375 0.2 0.772 0.356 1.147 0.555 0.341 0.18 0.663 0.392 1.035 0.615-0.045 0.022-0.071 0.046-0.103 0.053-0.277 0.058-0.398 0.329-0.621 0.452-0.206 0.114-0.439 0.191-0.667 0.258-0.688 0.2-1.328 0.494-1.946 0.859-0.355 0.209-0.763 0.326-1.143 0.492-0.082 0.035-0.149 0.107-0.247 0.179-0.067-0.014-0.070-0.074-0.039-0.17 0.116-0.368 0.222-0.738 0.333-1.114-0.412 0-0.826-0.035-1.231 0.013-0.235 0.029-0.456 0.192-0.68 0.304-0.032 0.016-0.039 0.084-0.054 0.13-0.122 0.42-0.246 0.839-0.362 1.26-0.041 0.147-0.072 0.299-0.087 0.45-0.034 0.354-0.174 0.667-0.358 0.961-0.247 0.395-0.488 0.793-0.75 1.178-0.157 0.229-0.347 0.435-0.534 0.665 0.243 0.33 0.497 0.673 0.748 1.017 0.068 0.093 0.15 0.096 0.224 0.024 0.213-0.213 0.481-0.38 0.585-0.689 0.013-0.041 0.116-0.095 0.134-0.082 0.054 0.038 0.113 0.103 0.124 0.164 0.032 0.164 0.028 0.337 0.058 0.501 0.051 0.28 0.108 0.559 0.181 0.834 0.1 0.375 0.212 0.747 0.331 1.115 0.141 0.431 0.3 0.856 0.441 1.287 0.080 0.245 0.004 0.341-0.249 0.292-0.167-0.032-0.32-0.13-0.484-0.183-0.3-0.096-0.606-0.172-0.903-0.274-0.199-0.067-0.383-0.181-0.583-0.242-0.426-0.128-0.863-0.225-1.289-0.352-0.085-0.025-0.172-0.12-0.208-0.204-0.018-0.045 0.058-0.149 0.114-0.203 0.162-0.153 0.335-0.293 0.498-0.433-0.233-0.479-0.651-0.756-0.969-1.074-0.598 0.375-1.19 0.754-1.791 1.116-0.162 0.099-0.35 0.155-0.53 0.221-0.548 0.203-1.095 0.414-1.65 0.594-0.181 0.059-0.391 0.037-0.587 0.047-0.15 0.008-0.426 0.259-0.427 0.405-0.004 0.526-0.001 1.053 0 1.579 0 0.041 0.016 0.083 0.026 0.133 0.441-0.222 0.848-0.48 1.293-0.656 0.013 0.020 0.025 0.039 0.038 0.058-0.033 0.091-0.063 0.184-0.1 0.274-0.062 0.153-0.146 0.299-0.188 0.455-0.11 0.421-0.326 0.788-0.555 1.148-0.093 0.147-0.213 0.279-0.293 0.431-0.22 0.417-0.48 0.823-0.618 1.266-0.133 0.425-0.33 0.815-0.5 1.22-0.046 0.11-0.105 0.217-0.172 0.316-0.032 0.046-0.1 0.1-0.147 0.095-0.049-0.004-0.112-0.066-0.134-0.117-0.32-0.73-0.622-1.469-0.953-2.194-0.18-0.392-0.416-0.758-0.611-1.143-0.132-0.258-0.241-0.526-0.352-0.793-0.124-0.291-0.245-0.583-0.356-0.878-0.018-0.050-0.008-0.143 0.028-0.171 0.043-0.035 0.138-0.054 0.187-0.030 0.302 0.146 0.613 0.284 0.788 0.6 0.022 0.039 0.068 0.066 0.124 0.117 0.007-0.071 0.013-0.117 0.014-0.164 0.003-0.192-0.003-0.384 0.005-0.576 0.021-0.468 0.047-0.938 0.071-1.406 0.003-0.059 0-0.12 0-0.183-0.305-0.063-0.6-0.12-0.893-0.187-1.19-0.275-2.274-0.784-3.264-1.494-0.103-0.074-0.201-0.103-0.316-0.070-0.168 0.049-0.341 0.091-0.5 0.16-0.082 0.035-0.139 0.125-0.206 0.192-0.226 0.23-0.45 0.463-0.679 0.689-0.072 0.071-0.163 0.125-0.22 0.168 0.128 0.363 0.404 0.367 0.654 0.406 0.113 0.017 0.23 0.004 0.345 0.003 0.125-0.001 0.137 0.070 0.099 0.163-0.016 0.038-0.047 0.076-0.080 0.101-0.283 0.212-0.572 0.405-0.952 0.38-0.122-0.008-0.247 0.017-0.37 0.033-0.33 0.042-0.661 0.088-0.992 0.133-0.049 0.007-0.1 0.005-0.146 0.021-0.191 0.062-0.381 0.124-0.568 0.193-0.157 0.058-0.318 0.113-0.46 0.197-0.15 0.089-0.3 0.135-0.468 0.11-0.051-0.008-0.109-0.049-0.138-0.092-0.018-0.029 0.004-0.092 0.021-0.134 0.032-0.080 0.084-0.154 0.105-0.237 0.063-0.243 0.116-0.488 0.17-0.734 0.071-0.323 0.137-0.65 0.21-0.973 0.066-0.292 0.146-0.58 0.205-0.872 0.074-0.362 0.128-0.727 0.2-1.089 0.013-0.070 0.071-0.13 0.108-0.195 0.061 0.047 0.147 0.082 0.175 0.143 0.096 0.213 0.167 0.438 0.254 0.656 0.041 0.101 0.089 0.2 0.141 0.296 0.058 0.11 0.122 0.126 0.208 0.018 0.105-0.133 0.208-0.271 0.333-0.383 0.174-0.155 0.364-0.293 0.554-0.431 0.085-0.063 0.129-0.131 0.132-0.245 0.004-0.184 0.029-0.37 0.054-0.552 0.020-0.143-0.041-0.253-0.117-0.363-0.488-0.702-0.868-1.462-1.126-2.276-0.146-0.458-0.238-0.932-0.356-1.399-0.013-0.053-0.018-0.117-0.051-0.153-0.137-0.139-0.283-0.272-0.429-0.402-0.021-0.018-0.062-0.018-0.093-0.018-0.548-0.001-1.097-0.001-1.674-0.001 0.062 0.15 0.133 0.28 0.168 0.418 0.039 0.157 0.164 0.263 0.214 0.401 0.072 0.197 0.103 0.412 0.135 0.621 0.008 0.050-0.034 0.137-0.076 0.159-0.045 0.022-0.141 0.008-0.176-0.028-0.322-0.33-0.73-0.512-1.145-0.685-0.196-0.083-0.379-0.197-0.569-0.292-0.082-0.041-0.175-0.059-0.255-0.103-0.2-0.11-0.396-0.23-0.593-0.346-0.16-0.093-0.317-0.192-0.483-0.275-0.272-0.135-0.546-0.268-0.827-0.383-0.22-0.089-0.433-0.199-0.688-0.192-0.087 0.003-0.178-0.103-0.289-0.172 0.088-0.067 0.145-0.133 0.217-0.162 0.268-0.107 0.485-0.285 0.718-0.448 0.452-0.317 0.917-0.619 1.436-0.827 0.325-0.13 0.647-0.267 0.961-0.42 0.285-0.138 0.558-0.304 0.838-0.454 0.057-0.030 0.124-0.066 0.183-0.060 0.189 0.016 0.325-0.074 0.451-0.193 0.070-0.067 0.154-0.147 0.234-0.053 0.037 0.043 0.022 0.167-0.013 0.23-0.168 0.305-0.35 0.601-0.548 0.936 0.204 0 0.371 0.001 0.537 0 0.373-0.001 0.746-0.003 1.119-0.008 0.276-0.004 0.448-0.159 0.518-0.433 0.187-0.73 0.494-1.414 0.809-2.095 0.164-0.358 0.322-0.719 0.493-1.073 0.080-0.167 0.196-0.316 0.279-0.481 0.078-0.155 0.151-0.317 0.188-0.484 0.018-0.080-0.026-0.205-0.087-0.266-0.101-0.101-0.242-0.163-0.359-0.25-0.197-0.146-0.389-0.3-0.583-0.451-0.037-0.029-0.070-0.063-0.087-0.078-0.213 0.199-0.371 0.421-0.376 0.756-0.174-0.192-0.272-0.347-0.305-0.569-0.084-0.579-0.168-1.16-0.391-1.71-0.141-0.35-0.249-0.711-0.379-1.065-0.039-0.106-0.087-0.218-0.158-0.305-0.117-0.143-0.179-0.301-0.181-0.48-0.001-0.050 0.035-0.117 0.075-0.147 0.034-0.026 0.108-0.030 0.15-0.013 0.163 0.070 0.324 0.15 0.481 0.233 0.172 0.091 0.341 0.189 0.513 0.28 0.125 0.066 0.25 0.135 0.383 0.183 0.266 0.095 0.534 0.183 0.805 0.259 0.363 0.103 0.729 0.195 1.095 0.285 0.172 0.043 0.348 0.072 0.577 0.118-0.321 0.212-0.606 0.4-0.918 0.606 0.32 0.302 0.588 0.602 0.903 0.839 0.191 0.143 0.443 0.221 0.709 0.091 0.359-0.175 0.736-0.31 1.091-0.49 0.224-0.112 0.426-0.268 0.63-0.414 0.326-0.235 0.671-0.431 1.056-0.558 0.368-0.122 0.726-0.277 1.095-0.397 0.179-0.058 0.375-0.066 0.563-0.093 0.101-0.014 0.147-0.064 0.155-0.172 0.030-0.447 0.072-0.893 0.103-1.339 0.005-0.071-0.036-0.146-0.066-0.259-0.187 0.034-0.37 0.067-0.554 0.1-0.059 0.011-0.118 0.037-0.176 0.030-0.167-0.016-0.3 0.032-0.439 0.129-0.064 0.046-0.255 0.025-0.291-0.029-0.050-0.075-0.158-0.176-0.071-0.313 0.204-0.324 0.388-0.658 0.59-0.981 0.176-0.28 0.379-0.543 0.547-0.827 0.178-0.3 0.322-0.619 0.492-0.925 0.18-0.325 0.371-0.644 0.56-0.965 0.026-0.045 0.079-0.075 0.113-0.117 0.041-0.050 0.113-0.112 0.107-0.158-0.030-0.204 0.122-0.316 0.205-0.463 0.020 0.008 0.041 0.008 0.063 0.008zM16.446 8.257c-1.249-0.001-2.233 0.195-3.018 0.502-1.372 0.538-2.5 1.408-3.342 2.6-0.546 0.775-1.059 1.598-1.164 2.587-0.033 0.304-0.074 0.606-0.095 0.91-0.028 0.413-0.039 0.829-0.059 1.243-0.001 0.033-0.018 0.064-0.018 0.096-0.003 0.321-0.021 0.643 0.003 0.961 0.017 0.22 0.088 0.435 0.143 0.651 0.079 0.31 0.139 0.629 0.254 0.926 0.299 0.772 0.75 1.456 1.302 2.070 0.125 0.139 0.293 0.241 0.442 0.359 0.097 0.078 0.201 0.15 0.289 0.238 0.237 0.234 0.437 0.518 0.704 0.707 1.185 0.84 2.513 1.294 3.966 1.33 2.159 0.053 4.002-0.709 5.522-2.24 0.684-0.688 1.219-1.476 1.512-2.413 0.042-0.135 0.082-0.272 0.139-0.401 0.254-0.567 0.427-1.147 0.373-1.779-0.016-0.185 0.007-0.373-0.008-0.559-0.028-0.335-0.079-0.669-0.103-1.005-0.028-0.38-0.029-0.761-0.053-1.143-0.011-0.162-0.032-0.327-0.082-0.48-0.254-0.782-0.631-1.503-1.131-2.155-1.495-1.949-3.48-2.938-5.578-3.005z"></path>
<path fill="#fff" d="M16.785 22.333c-0.063-0.1-0.101-0.16-0.139-0.221-0.062 0.041-0.122 0.083-0.22 0.147-0.314-0.075-0.675-0.16-1.035-0.247-0.026-0.007-0.054-0.029-0.078-0.024-0.213 0.045-0.363-0.057-0.494-0.206-0.017-0.020-0.049-0.030-0.063-0.051-0.129-0.18-0.443-0.155-0.459-0.489-0.011-0.22-0.178-0.43-0.266-0.648-0.068-0.167-0.121-0.341-0.185-0.509-0.163-0.43-0.55-0.731-1.076-0.614-0.197 0.043-0.41-0.003-0.564-0.15-0.067-0.064-0.124-0.178-0.122-0.27 0.004-0.621-0.17-1.178-0.556-1.666-0.168-0.213-0.247-0.459-0.271-0.729-0.021-0.241-0.063-0.479-0.083-0.718-0.007-0.076 0.014-0.164 0.050-0.233 0.083-0.158 0.205-0.299 0.266-0.463 0.053-0.143 0.051-0.31 0.059-0.467 0.008-0.153 0.007-0.308-0.009-0.46-0.032-0.3 0.084-0.555 0.206-0.814 0.058-0.124 0.118-0.25 0.146-0.383 0.107-0.519 0.364-0.973 0.601-1.436 0.063-0.122 0.174-0.226 0.28-0.32 0.373-0.327 0.738-0.667 1.214-0.852 0.63-0.246 1.272-0.442 1.945-0.517 0.128-0.014 0.262 0.016 0.391 0.037 0.464 0.076 0.939 0.117 1.386 0.247 0.605 0.176 1.088 0.568 1.512 1.030 0.109 0.118 0.25 0.208 0.372 0.316 0.049 0.042 0.095 0.093 0.125 0.149 0.214 0.395 0.441 0.782 0.627 1.189 0.093 0.203 0.137 0.438 0.162 0.661 0.053 0.484 0.068 0.972 0.117 1.457 0.022 0.222 0.066 0.463 0.249 0.61 0.296 0.238 0.242 0.518 0.131 0.801-0.122 0.316-0.27 0.623-0.414 0.93-0.195 0.413-0.372 0.83-0.438 1.286-0.009 0.059-0.028 0.117-0.045 0.175-0.087 0.293-0.087 0.287-0.393 0.253-0.233-0.025-0.448 0.025-0.665 0.129-0.346 0.166-0.541 0.448-0.68 0.781-0.051 0.124-0.075 0.262-0.088 0.396-0.034 0.331-0.054 0.663-0.084 0.994-0.004 0.041-0.025 0.085-0.053 0.116-0.175 0.196-0.352 0.391-0.533 0.581-0.071 0.075-0.146 0.131-0.208-0.017-0.013-0.032-0.068-0.067-0.1-0.063-0.033 0.004-0.085 0.053-0.085 0.083-0.005 0.205-0.149 0.193-0.287 0.195-0.059 0.007-0.118 0.005-0.146 0.005zM17.987 17.887c0.004-0.020 0.008-0.041 0.012-0.061 0.164 0 0.327 0.008 0.492-0.001 0.235-0.013 0.451-0.087 0.625-0.254 0.030-0.029 0.079-0.091 0.071-0.103-0.096-0.135 0.033-0.255 0.020-0.385-0.013-0.138 0.026-0.281 0.012-0.42-0.009-0.087-0.059-0.221-0.12-0.241-0.167-0.053-0.362-0.108-0.523-0.068-0.284 0.067-0.559 0.187-0.823 0.316-0.246 0.12-0.475 0.276-0.562 0.566-0.051 0.171 0.001 0.387 0.131 0.437 0.217 0.084 0.443 0.145 0.665 0.214zM13.033 17.298c0.026 0.054 0.068 0.142 0.113 0.229 0.022 0.043 0.062 0.080 0.074 0.125 0.046 0.167 0.172 0.239 0.325 0.262 0.434 0.063 0.867 0.117 1.299-0.030 0.234-0.080 0.288-0.137 0.277-0.388-0.008-0.16-0.093-0.262-0.216-0.347-0.058-0.041-0.13-0.075-0.166-0.13-0.166-0.259-0.447-0.342-0.701-0.463-0.072-0.035-0.172-0.026-0.258-0.022-0.113 0.007-0.226 0.028-0.339 0.043-0.156 0.021-0.289 0.078-0.326 0.251-0.029 0.137-0.049 0.277-0.083 0.471zM16.276 19.729c0.042 0.037 0.064 0.062 0.091 0.079 0.145 0.097 0.305 0.18 0.473 0.097s0.217-0.242 0.208-0.43c-0.022-0.448-0.245-0.818-0.463-1.188-0.028-0.046-0.108-0.076-0.167-0.085-0.339-0.057-0.539 0.158-0.721 0.391-0.259 0.334-0.31 0.727-0.305 1.134 0.003 0.184 0.082 0.258 0.266 0.247 0.229-0.011 0.448-0.049 0.618-0.245z"></path>
</svg>
