<!-- Generated by IcoMoon.io -->
<svg version="1.1" xmlns="http://www.w3.org/2000/svg" width="32" height="32" viewBox="0 0 32 32">
<title>factions-chaos-khorne-daemons</title>
<path fill="#fff" d="M31.741 1.442c0 0.496 0 0.993 0 1.489-0.034 0.068-0.094 0.135-0.095 0.204-0.007 0.373-0.007 0.747 0.004 1.12 0.004 0.107 0.059 0.214 0.091 0.32 0 0.301 0 0.601 0 0.902-0.076 0.12-0.173 0.232-0.223 0.361-0.072 0.188-0.192 0.26-0.385 0.258-0.313-0.003-0.625-0.003-0.937 0.004-0.142 0.003-0.327 0.085-0.417 0.022-0.229-0.16-0.461-0.022-0.687-0.051-0.258-0.034-0.534 0.109-0.815 0.034-0.034-0.009-0.081 0.001-0.113 0.021-0.209 0.115-0.407 0.154-0.593-0.044-0.025-0.026-0.081-0.032-0.123-0.031-0.323 0.003-0.645 0.012-0.968 0.016-0.333 0.004-0.665 0.004-0.998 0.007-0.327 0.003-0.559 0.154-0.749 0.421-0.198 0.279-0.427 0.536-0.659 0.788-0.627 0.689-1.264 1.368-1.893 2.056-0.207 0.226-0.402 0.463-0.62 0.712 0.072 0.028 0.104 0.037 0.131 0.051 0.292 0.163 0.573 0.166 0.871-0.004 0.073-0.043 0.285 0.001 0.316 0.063 0.115 0.229 0.305 0.304 0.524 0.322 0.837 0.072 1.677 0.134 2.515 0.192 0.128 0.009 0.258-0.010 0.388-0.026 0.185-0.022 0.37-0.062 0.555-0.076 0.643-0.050 1.298 0.162 1.935-0.081 0.023-0.009 0.051 0 0.078-0.001 0.458-0.043 0.918-0.084 1.376-0.126 0.013-0.001 0.025-0.007 0.038-0.009 0.257-0.026 0.518-0.091 0.771-0.068 0.169 0.016 0.389 0.116 0.471 0.248 0.109 0.175 0.122 0.418 0.142 0.636 0.013 0.144-0.046 0.294-0.047 0.442-0.010 0.633-0.015 1.264-0.009 1.897 0.001 0.078 0.081 0.153 0.125 0.23 0 0.131 0 0.261 0 0.392-0.407 0.612-0.816 1.223-1.217 1.84-0.073 0.113-0.154 0.156-0.286 0.157-0.438 0.004-0.874 0.018-1.31 0.034-0.859 0.031-1.716 0.065-2.575 0.095-0.173 0.006-0.347 0.001-0.589 0.001 0.117 0.142 0.25 0.232 0.272 0.344 0.073 0.374 0.37 0.554 0.611 0.788 0.14 0.137 0.26 0.292 0.392 0.436 0.028 0.031 0.075 0.073 0.107 0.069 0.169-0.022 0.206 0.085 0.245 0.211 0.023 0.076 0.070 0.153 0.125 0.213 0.162 0.184 0.376 0.305 0.561 0.457 0.263 0.216 0.464 0.509 0.692 0.769 0.069 0.078 0.132 0.162 0.21 0.23 0.159 0.141 0.336 0.263 0.487 0.411 0.164 0.162 0.302 0.351 0.461 0.52 0.461 0.486 0.929 0.965 1.39 1.451 0.046 0.047 0.085 0.123 0.085 0.186 0.009 0.965 0.010 1.928 0.015 2.893 0.003 0.559-0.004 1.12 0.019 1.678 0.012 0.289 0.097 0.576 0.119 0.866 0.025 0.33 0.015 0.662 0.023 0.994 0.013 0.468 0.037 0.937 0.038 1.405 0 0.094-0.051 0.223-0.123 0.277-0.376 0.28-0.765 0.543-1.153 0.805-0.048 0.032-0.123 0.035-0.185 0.032-0.448-0.029-0.894-0.082-1.342-0.091-0.501-0.010-1.004-0.009-1.503 0.038-0.464 0.044-0.921 0.172-1.385 0.229-0.457 0.056-0.921 0.063-1.317 0.347-0.037 0.026-0.101 0.015-0.153 0.015-1.471-0.004-2.941-0.023-4.408 0.134-0.514 0.054-1.041 0.028-1.558-0.006-0.611-0.038-1.217-0.126-1.827-0.188-0.207-0.021-0.416-0.043-0.623-0.041-0.743 0.001-1.486 0.012-2.229 0.021-1.107 0.013-2.216 0.031-3.323 0.041-0.28 0.003-0.562 0.013-0.84-0.018-0.498-0.056-0.99-0.175-1.487-0.203-0.624-0.035-1.251-0.015-1.876 0.001-0.52 0.013-1.038 0.072-1.556 0.081-0.866 0.016-1.733 0.001-2.597 0.016-0.352 0.006-0.727-0.065-1.048 0.233-0.167-0.272-0.458-0.414-0.435-0.818 0.038-0.642-0.010-1.289-0.035-1.935-0.006-0.145-0.081-0.286-0.093-0.432-0.034-0.42-0.047-0.843-0.075-1.263-0.016-0.253-0.051-0.504-0.063-0.756-0.012-0.241 0.051-0.502-0.024-0.719-0.134-0.386-0.094-0.772-0.1-1.16-0.001-0.147 0.032-0.295 0.054-0.443 0.018-0.12 0.059-0.241 0.060-0.361 0.007-0.402 0.003-0.805 0.003-1.2 0.443-0.119 0.719-0.463 1.051-0.715 0.236-0.181 0.414-0.441 0.614-0.668 0.326-0.371 0.655-0.74 0.969-1.119 0.382-0.461 0.752-0.931 1.125-1.398 0.316-0.395 0.615-0.803 0.947-1.185 0.211-0.242 0.473-0.442 0.703-0.668 0.192-0.188 0.373-0.388 0.559-0.581-0.244 0.022-0.344-0.117-0.448-0.288-0.117-0.192-0.326-0.25-0.545-0.255-0.11-0.003-0.222 0.004-0.332 0.004-1.018 0-2.035-0.001-3.053-0.003-0.352 0-0.705 0.001-1.057-0.004-0.091-0.001-0.206 0.018-0.225-0.128-0.023-0.186-0.071-0.373-0.075-0.559-0.021-0.749-0.034-1.499-0.040-2.249-0.006-0.878-0.001-1.756-0.001-2.669 0.040-0.009 0.125-0.044 0.211-0.047 0.319-0.010 0.637-0.010 0.957-0.012 0.383 0 0.766-0.003 1.15 0.004 0.33 0.006 0.661 0.035 0.993 0.035 0.344 0 0.686-0.025 1.029-0.038 0.788-0.031 1.575 0.076 2.364 0.003 0.276-0.026 0.559 0.007 0.838 0.022 0.288 0.015 0.574 0.044 0.86 0.059 0.082 0.004 0.166-0.021 0.248-0.032 0.050-0.007 0.1-0.025 0.148-0.022 0.167 0.012 0.336 0.047 0.502 0.041 0.308-0.010 0.615-0.041 0.922-0.065 0.035-0.003 0.070-0.015 0.16-0.035-1.242-1.429-2.458-2.829-3.677-4.232-0.056 0.035-0.101 0.065-0.154 0.098-0.16-0.247-0.373-0.42-0.655-0.429-0.355-0.009-0.715-0.056-1.066 0.076-0.125 0.047-0.269 0.056-0.405 0.057-0.47 0.007-0.938 0.016-1.408 0.001-0.508-0.015-1.028 0.113-1.524-0.107-0.050-0.022-0.116-0.009-0.175-0.009-0.307 0-0.614 0.006-0.919 0-0.272-0.004-0.361-0.095-0.363-0.355-0.001-0.391 0.009-0.783 0.001-1.173-0.025-0.982 0.062-1.968-0.090-2.947-0.029-0.184-0.034-0.371-0.047-0.53 0.31-0.176 0.611-0.197 0.921-0.175 0.063 0.004 0.131-0.009 0.192-0.025 0.288-0.072 0.576-0.15 0.863-0.22 0.043-0.010 0.091-0.003 0.137-0.004 0.515-0.003 1.031 0.009 1.545-0.010 0.399-0.016 0.796-0.098 1.194-0.103 1.37-0.015 2.74-0.009 4.108-0.003 0.069 0 0.157 0.053 0.204 0.109 0.154 0.182 0.277 0.392 0.442 0.564 0.37 0.389 0.755 0.766 1.141 1.139 0.125 0.12 0.267 0.27 0.421 0.298 0.179 0.034 0.307 0.151 0.335 0.255 0.073 0.28 0.301 0.41 0.47 0.599s0.424 0.3 0.515 0.567c0.025 0.072 0.112 0.167 0.175 0.172 0.226 0.013 0.305 0.201 0.435 0.326 0.101 0.098 0.175 0.223 0.27 0.329 0.229 0.254 0.463 0.505 0.696 0.755 0.164 0.175 0.329 0.351 0.504 0.515 0.090 0.085 0.222 0.131 0.301 0.222 0.248 0.286 0.31 0.308 0.643 0.15 0.019 0.216 0.101 0.327 0.322 0.184 0.013-0.009 0.038-0.001 0.057 0 0.457 0.029 0.737-0.144 0.953-0.549 0.138-0.258 0.3-0.502 0.633-0.556 0.088-0.015 0.175-0.087 0.244-0.153 0.371-0.357 0.733-0.724 1.107-1.078 0.241-0.228 0.512-0.424 0.749-0.658 0.351-0.347 0.628-0.764 1.048-1.045 0.159-0.107 0.288-0.261 0.418-0.405 0.113-0.125 0.213-0.263 0.313-0.401 0.267-0.367 0.552-0.724 0.79-1.109 0.254-0.413 0.363-0.471 0.81-0.289 0.031 0.012 0.057 0.034 0.090 0.040 0.144 0.032 0.288 0.079 0.433 0.088 0.693 0.040 1.386-0.010 2.083 0.088 0.753 0.107 1.528 0.161 2.286-0.046 0.050-0.013 0.104-0.010 0.156-0.010 0.84 0 1.68 0 2.549 0 0.141 0.241 0.295 0.512 0.455 0.78 0.081 0.139 0.172 0.27 0.26 0.404zM9.462 22.526c-0.117 0.147-0.22 0.28-0.326 0.41-0.117 0.142-0.156 0.301-0.091 0.476 0.069 0.182 0.21 0.275 0.404 0.294 0.279 0.028 0.549 0.029 0.831-0.038 0.219-0.053 0.463 0.004 0.696 0.006 0.828 0.006 1.655 0.016 2.483 0.012 0.527-0.003 1.063 0.021 1.58-0.059 0.568-0.087 1.125-0.122 1.684 0.003 0.78 0.173 1.57 0.098 2.355 0.1 0.283 0.001 0.567-0.073 0.85-0.079 0.938-0.022 1.876-0.028 2.815-0.044 0.273-0.004 0.479-0.128 0.578-0.389 0.098-0.26 0.028-0.485-0.172-0.675-0.038-0.037-0.078-0.094-0.079-0.142-0.004-0.317-0.154-0.539-0.413-0.711-0.188-0.125-0.399-0.242-0.534-0.414-0.301-0.38-0.577-0.781-0.832-1.194-0.338-0.546-0.73-1.037-1.22-1.455-0.485-0.414-0.946-0.856-1.413-1.291-0.194-0.181-0.402-0.355-0.551-0.57-0.335-0.48-0.614-0.998-1.031-1.42-0.347-0.349-0.678-0.471-1.073-0.209-0.194 0.129-0.358 0.251-0.416 0.487-0.016 0.066-0.059 0.132-0.106 0.185-0.15 0.167-0.307 0.33-0.463 0.493-0.595 0.618-1.189 1.236-1.785 1.853-0.379 0.393-0.764 0.781-1.136 1.182-0.131 0.14-0.222 0.317-0.349 0.46-0.094 0.106-0.228 0.176-0.325 0.279-0.267 0.285-0.521 0.581-0.787 0.868-0.122 0.132-0.267 0.242-0.388 0.376-0.178 0.197-0.339 0.408-0.512 0.608-0.166 0.191-0.341 0.376-0.531 0.584 0.103 0.007 0.17 0.012 0.257 0.015z"></path>
</svg>
