<!-- Generated by IcoMoon.io -->
<svg version="1.1" xmlns="http://www.w3.org/2000/svg" width="32" height="32" viewBox="0 0 32 32">
<title>factions-chaos-scions-of-the-flame</title>
<path fill="#fff" d="M7.099 16.666c-0.058-0.043-0.094-0.072-0.132-0.097-0.229-0.147-0.48-0.063-0.572 0.19-0.059 0.162-0.146 0.196-0.229 0.067-0.196-0.307-0.531-0.424-0.812-0.605-0.406-0.262-0.848-0.469-1.279-0.69-0.545-0.278-1.145-0.358-1.737-0.457-0.353-0.058-0.711-0.081-1.065-0.128-0.109-0.014-0.216-0.049-0.32-0.087-0.202-0.075-0.404-0.13-0.621-0.068-0.049 0.015-0.106 0.004-0.21 0.004 0.067-0.072 0.097-0.124 0.142-0.151 0.109-0.063 0.219-0.132 0.338-0.17 0.438-0.138 0.873-0.285 1.32-0.388 0.377-0.087 0.771-0.101 1.151-0.177 0.676-0.134 1.364-0.225 1.973-0.601 0.271-0.167 0.591-0.254 0.881-0.393 0.157-0.075 0.309-0.168 0.444-0.277 0.194-0.154 0.369-0.329 0.583-0.524 0.051 0.175 0.104 0.324 0.134 0.477 0.037 0.183 0.052 0.371 0.081 0.555 0.029 0.182 0.104 0.262 0.272 0.213 0.477-0.139 0.949 0.032 1.424-0.006 0.084-0.006 0.166-0.024 0.249-0.038 0.070-0.013 0.138-0.034 0.207-0.040 0.075-0.006 0.152-0.005 0.228 0.003 0.433 0.042 0.833-0.006 1.108-0.406 0.13 0.194 0.177 0.387 0.171 0.602-0.018 0.612-0.040 1.229 0.127 1.825 0.081 0.288 0.192 0.577 0.342 0.835 0.295 0.506 0.624 0.993 0.944 1.484 0.048 0.073 0.118 0.138 0.19 0.19 0.197 0.142 0.406 0.267 0.601 0.411 0.749 0.555 1.594 0.864 2.51 0.995 0.519 0.073 1.033-0.005 1.537-0.106 1.799-0.361 3.117-1.353 3.905-3.023 0.297-0.629 0.354-1.3 0.382-1.98 0.016-0.382 0.062-0.763 0.096-1.169 0.318 0.314 0.7 0.268 1.079 0.239 0.162-0.013 0.323-0.028 0.485-0.033 0.070-0.003 0.149-0.001 0.207 0.029 0.285 0.147 0.592 0.099 0.891 0.109 0.14 0.005 0.195-0.096 0.192-0.233-0.009-0.351-0.003-0.701-0.003-1.049 0.21 0.159 0.388 0.335 0.6 0.448 0.507 0.271 1.027 0.526 1.592 0.662 0.947 0.226 1.832 0.635 2.764 0.906 0.514 0.149 1.039 0.257 1.555 0.395 0.292 0.078 0.578 0.176 0.865 0.272 0.072 0.024 0.134 0.076 0.191 0.143-0.073 0.006-0.147 0.019-0.22 0.016-0.406-0.015-0.766 0.175-1.148 0.259-0.528 0.118-1.058 0.223-1.587 0.334-0.049 0.010-0.1 0.020-0.147 0.034-0.538 0.17-1.076 0.343-1.615 0.509-0.104 0.032-0.216 0.042-0.325 0.048-0.105 0.005-0.142-0.063-0.123-0.161 0.016-0.085 0.042-0.167 0.058-0.251 0.023-0.124-0.039-0.186-0.153-0.134-0.353 0.162-0.701 0.335-1.052 0.505-0.009 0.004-0.019 0.010-0.024 0.019-0.263 0.461-0.8 0.683-1.025 1.187-0.054 0.123-0.239 0.187-0.369 0.282-0.051-0.461-0.096-0.903-0.148-1.346-0.009-0.080-0.042-0.156-0.062-0.234-0.029-0.111-0.105-0.153-0.215-0.147-0.223 0.011-0.445 0.016-0.667 0.034-0.044 0.004-0.099 0.044-0.125 0.084-0.062 0.091-0.109 0.194-0.165 0.29-0.077 0.134-0.106 0.271-0.046 0.42 0.019 0.046 0.024 0.097 0.042 0.176-0.149 0.020-0.29 0.047-0.433 0.057-0.171 0.011-0.344 0.005-0.515 0.016-0.049 0.004-0.119 0.034-0.137 0.072-0.014 0.030 0.021 0.113 0.058 0.135 0.223 0.142 0.281 0.319 0.147 0.552-0.009 0.015-0.001 0.039-0.001 0.066 0.077 0.004 0.152 0.008 0.256 0.011-0.094 0.115-0.175 0.214-0.254 0.315-0.111 0.142-0.099 0.182 0.059 0.258 0.047 0.023 0.085 0.065 0.123 0.102 0.116 0.115 0.221 0.245 0.349 0.347 0.116 0.091 0.2 0.177 0.229 0.335 0.021 0.12 0.105 0.238 0.187 0.337 0.671 0.81 1.35 1.615 2.021 2.424 0.086 0.104 0.144 0.23 0.211 0.349 0.019 0.034 0.023 0.077 0.034 0.116-0.010 0.008-0.021 0.014-0.032 0.021-0.048-0.033-0.095-0.067-0.143-0.097-0.458-0.297-0.922-0.585-1.372-0.893-0.295-0.202-0.588-0.414-0.85-0.655-0.378-0.349-0.733-0.726-1.088-1.1-0.14-0.148-0.194-0.018-0.272 0.065-0.084-0.139-0.165-0.276-0.249-0.418-0.343 0.221-0.667 0.435-0.996 0.642-0.061 0.038-0.138 0.047-0.207 0.071-0.143 0.048-0.288 0.089-0.426 0.148-0.219 0.095-0.29 0.080-0.407-0.123-0.056-0.096-0.113-0.175-0.245-0.167-0.044 0.003-0.091-0.052-0.138-0.081-0.206 0.161-0.204 0.328 0.029 0.801-0.172 0.039-0.335 0.078-0.501 0.111-0.070 0.014-0.142 0.010-0.211 0.019-0.095 0.013-0.211 0.004-0.275 0.056-0.051 0.042-0.020 0.17-0.057 0.245-0.1 0.21-0.038 0.419-0.013 0.626 0.032 0.263 0.009 0.502-0.183 0.706-0.053 0.056-0.068 0.145-0.111 0.213-0.034 0.053-0.096 0.091-0.124 0.147-0.034 0.066-0.046 0.143-0.078 0.256 0.247-0.059 0.448-0.116 0.654-0.156 0.151-0.028 0.307-0.032 0.461-0.047 0.054-0.005 0.11-0.009 0.163-0.021 0.204-0.051 0.254-0.027 0.333 0.135-0.159 0.234-0.313 0.444-0.447 0.666-0.047 0.077-0.048 0.183-0.065 0.277-0.030 0.168-0.037 0.343-0.087 0.504-0.166 0.52-0.359 1.030-0.521 1.551-0.235 0.757-0.449 1.52-0.677 2.279-0.059 0.197-0.138 0.39-0.209 0.585-0.042 0.116-0.123 0.147-0.24 0.116-0.191-0.048-0.239-0.029-0.287 0.161-0.061 0.237-0.105 0.48-0.14 0.721-0.009 0.057 0.030 0.142 0.076 0.18 0.023 0.019 0.113-0.032 0.166-0.061 0.073-0.039 0.142-0.089 0.248-0.157-0.016 0.233-0.016 0.423-0.046 0.609-0.082 0.523-0.171 1.043-0.268 1.563-0.018 0.094-0.091 0.176-0.138 0.263-0.021-0.004-0.042-0.008-0.063-0.011-0.021-0.062-0.053-0.124-0.063-0.189-0.11-0.658-0.216-1.316-0.321-1.975-0.016-0.1-0.030-0.202-0.023-0.302 0.037-0.463-0.076-0.917-0.087-1.374-0.009-0.366-0.132-0.677-0.271-0.996-0.091-0.209-0.175-0.42-0.273-0.625-0.416-0.876-0.649-1.814-0.964-2.726-0.116-0.335-0.226-0.671-0.488-0.953 0.433-0.247 0.807 0.048 1.22 0.081-0.010-0.11 0.009-0.228-0.033-0.315-0.108-0.22-0.086-0.442-0.054-0.668 0.052-0.371 0.1-0.741 0.153-1.133-0.271-0.054-0.537-0.108-0.801-0.159-0.328-0.065-0.655-0.128-0.983-0.19-0.068-0.013-0.11-0.034-0.127-0.118-0.014-0.072-0.065-0.158-0.125-0.195-0.118-0.072-0.102-0.143-0.042-0.237 0.135-0.205 0.245-0.419 0.224-0.709-0.087 0.025-0.178 0.033-0.249 0.076-0.267 0.158-0.545 0.256-0.862 0.254-0.070 0-0.153 0.049-0.209 0.1-0.215 0.199-0.418 0.414-0.635 0.61-0.087 0.078-0.195 0.143-0.305 0.183-0.196 0.072-0.362 0.177-0.486 0.347-0.032 0.044-0.073 0.084-0.118 0.115-0.642 0.459-1.283 0.917-1.925 1.377-0.038 0.027-0.077 0.049-0.116 0.075-0.014-0.013-0.027-0.025-0.040-0.038 0.059-0.094 0.11-0.194 0.18-0.28 0.19-0.237 0.385-0.469 0.582-0.701 0.228-0.267 0.431-0.548 0.564-0.876 0.072-0.178 0.202-0.3 0.383-0.366 0.258-0.092 0.423-0.276 0.543-0.52 0.109-0.221 0.249-0.428 0.38-0.638 0.062-0.1 0.077-0.186 0.037-0.309-0.096-0.292-0.245-0.548-0.405-0.807-0.347-0.567-0.616-1.17-0.731-1.833-0.042-0.237-0.072-0.256-0.314-0.239-0.626 0.043-1.251 0.085-1.878 0.129-0.056 0.004-0.113 0.009-0.165 0.025-0.097 0.032-0.147 0.105-0.095 0.2 0.101 0.2 0.018 0.375-0.038 0.574zM5.287 14.292c-0.040 0.166 0.054 0.282 0.19 0.38 0.049 0.035 0.104 0.066 0.146 0.109 0.309 0.307 0.668 0.239 0.962-0.016 0.080-0.070 0.163-0.166 0.183-0.263 0.078-0.368-0.168-0.854-0.506-1.022-0.065-0.032-0.147-0.052-0.216-0.043-0.344 0.039-0.747 0.492-0.758 0.857zM24.126 14.329c0.008 0.537 0.187 0.759 0.61 0.755 0.335-0.003 0.642-0.368 0.635-0.759-0.003-0.177-0.453-0.583-0.643-0.58-0.343 0.008-0.606 0.263-0.602 0.583zM22.365 16.369c0.005-0.021 0.010-0.042 0.015-0.063-0.071-0.089-0.142-0.177-0.22-0.276-0.051 0.057-0.104 0.095-0.124 0.147-0.015 0.039 0.003 0.132 0.025 0.138 0.097 0.030 0.202 0.038 0.304 0.054zM15.151 23.094c0.018 0 0.034 0 0.052 0 0.006-0.054 0.030-0.114 0.014-0.159-0.010-0.029-0.080-0.038-0.123-0.056-0.008 0.011-0.016 0.021-0.024 0.033 0.027 0.061 0.053 0.121 0.081 0.182z"></path>
<path fill="#fff" d="M11.42 11.114c0.165 0.998 0.27 2.021 0.863 2.92-0.081 0.015-0.147 0.009-0.181 0.039-0.054 0.047-0.115 0.116-0.12 0.18-0.003 0.035 0.106 0.116 0.159 0.113 0.204-0.018 0.323 0.080 0.418 0.24 0.053 0.091 0.129 0.171 0.177 0.264 0.067 0.13 0.119 0.268 0.187 0.426 0.192-0.051 0.335 0.097 0.473 0.259 0.042 0.049 0.090 0.097 0.143 0.135 0.824 0.591 1.699 1.074 2.708 1.272 0.404 0.080 0.785 0.027 1.189-0.085 0.764-0.213 1.265-0.758 1.802-1.264 0.227-0.214 0.368-0.495 0.457-0.795 0.135-0.466 0.286-0.929 0.383-1.402 0.138-0.667 0.058-1.325-0.238-1.938-0.285-0.591-0.381-1.205-0.266-1.844 0.039-0.219 0.153-0.425 0.23-0.638 0.028-0.077 0.053-0.157 0.061-0.248-0.247 0.148-0.537 0.248-0.672 0.511-0.144 0.28-0.247 0.582-0.349 0.882-0.142 0.414-0.013 0.819 0.068 1.225 0.119 0.595 0.067 1.176-0.063 1.77-0.17 0.771-0.602 1.332-1.187 1.812-0.090 0.073-0.181 0.147-0.266 0.226-0.521 0.492-1.116 0.652-1.828 0.505-0.574-0.118-0.829-0.497-1.008-0.984-0.019-0.052-0.016-0.111-0.034-0.163-0.219-0.623-0.101-1.234 0.065-1.842 0.109-0.4 0.326-0.74 0.61-1.035 0.659-0.686 1.33-1.362 2.080-1.95 0.612-0.48 1.129-1.058 1.642-1.637 0.415-0.468 0.542-1.060 0.682-1.647 0.111-0.464 0.015-0.916-0.019-1.372-0.023-0.3-0.072-0.597-0.114-0.93 0.138 0.132 0.28 0.243 0.391 0.38 0.283 0.342 0.491 0.731 0.642 1.146 0.304 0.841 0.58 1.694 0.712 2.583 0.102 0.686 0.114 1.368-0.172 2.028-0.062 0.142-0.038 0.328-0.029 0.492 0.028 0.561 0.096 1.121 0.094 1.682-0.005 0.902-0.099 1.797-0.352 2.669-0.204 0.705-0.514 1.377-1.020 1.894-0.778 0.795-1.647 1.477-2.829 1.607-0.84 0.092-1.682 0.172-2.499-0.071-1.117-0.331-1.998-0.982-2.496-2.074-0.201-0.44-0.447-0.869-0.58-1.331-0.218-0.757-0.277-1.534-0.124-2.324 0.105-0.557 0.142-1.125 0.21-1.687z"></path>
<path fill="#fff" d="M14.784 15.909c-0.181-0.054-0.333-0.156-0.457-0.306-0.043-0.052-0.090-0.106-0.146-0.14-0.409-0.243-0.715-0.576-0.984-0.968-0.58-0.841-0.852-1.816-1.248-2.737-0.139-0.325-0.187-0.691-0.264-1.041-0.016-0.073 0.013-0.159 0.028-0.238 0.087-0.447 0.178-0.892 0.266-1.337 0.066-0.332 0.219-0.625 0.445-0.867 0.372-0.399 0.767-0.778 1.153-1.164 0.018-0.018 0.048-0.021 0.11-0.048-0.030 0.062-0.040 0.090-0.057 0.115-0.037 0.054-0.086 0.103-0.113 0.161-0.071 0.156-0.096 0.328 0.025 0.458 0.113 0.121 0.268 0.049 0.396-0.005 0.096-0.040 0.187-0.101 0.267-0.171 0.619-0.538 1.24-1.073 1.846-1.623 0.102-0.094 0.192-0.258 0.196-0.394 0.016-0.621 0.023-1.244-0.010-1.864-0.025-0.481-0.237-0.91-0.547-1.278-0.447-0.53-0.698-1.155-0.926-1.794-0.084-0.234-0.003-0.448 0.066-0.662 0.018-0.001 0.035-0.004 0.052-0.005 0.047 0.181 0.094 0.362 0.147 0.566 0.252-0.085 0.382 0.095 0.54 0.239 0.137 0.124 0.29 0.24 0.456 0.319 0.758 0.356 1.387 0.859 1.884 1.536 0.257 0.35 0.554 0.671 0.82 1.015 0.299 0.387 0.471 0.822 0.453 1.321-0.003 0.085 0.014 0.171 0.027 0.256 0.165 1.033-0.176 1.918-0.79 2.724-0.371 0.487-0.838 0.877-1.292 1.278-0.094 0.082-0.197 0.161-0.31 0.216-0.326 0.161-0.605 0.382-0.878 0.617-0.261 0.224-0.547 0.419-0.802 0.649-0.154 0.139-0.297 0.307-0.401 0.487-0.313 0.543-0.631 1.084-0.795 1.698-0.056 0.21-0.096 0.424-0.137 0.636-0.044 0.23 0.028 0.442 0.134 0.64 0.205 0.383 0.418 0.763 0.621 1.146 0.042 0.078 0.058 0.17 0.091 0.252 0.020 0.049 0.051 0.096 0.080 0.142 0.028 0.043 0.061 0.084 0.092 0.125-0.011 0.016-0.025 0.032-0.039 0.046z"></path>
</svg>
