<!-- Generated by IcoMoon.io -->
<svg version="1.1" xmlns="http://www.w3.org/2000/svg" width="32" height="32" viewBox="0 0 32 32">
<title>factions-chaos-beasts-of-chaos</title>
<path fill="#fff" d="M30.332 0.558c0.135 0.292 0.269 0.583 0.401 0.875 0.013 0.027 0.013 0.061 0.011 0.091-0.027 0.587-0.047 1.173-0.083 1.761-0.033 0.523-0.158 1.029-0.315 1.53-0.248 0.793-0.733 1.447-1.19 2.121-0.101 0.148-0.138 0.338-0.235 0.49-0.074 0.115-0.187 0.21-0.296 0.296-0.383 0.305-0.766 0.616-1.166 0.898-0.239 0.168-0.509 0.296-0.774 0.425-0.215 0.104-0.441 0.19-0.666 0.268-0.124 0.043-0.259 0.048-0.388 0.080-0.077 0.019-0.151 0.048-0.222 0.080-0.080 0.036-0.154 0.090-0.237 0.117-0.262 0.086-0.525 0.212-0.791 0.228-0.224 0.013-0.395 0.077-0.573 0.187-0.088 0.054-0.194 0.094-0.297 0.108-0.076 0.011-0.187 0-0.235-0.048-0.145-0.145-0.231-0.148-0.395 0.004-0.245 0.228-0.385 0.479-0.331 0.804 0.031 0.182 0.12 0.359 0.2 0.53 0.084 0.182 0.198 0.352 0.281 0.535 0.063 0.138 0.1 0.289-0.029 0.423-0.014 0.016-0.020 0.046-0.019 0.070 0.007 0.415 0.023 0.83 0.023 1.245 0 0.296-0.013 0.593-0.038 0.887-0.009 0.097-0.080 0.187-0.118 0.281-0.031 0.080-0.081 0.164-0.080 0.245 0.001 0.229-0.076 0.419-0.23 0.586-0.037 0.040-0.054 0.1-0.091 0.14-0.048 0.051-0.104 0.096-0.163 0.135-0.030 0.020-0.080 0.013-0.107 0.034-0.314 0.248-0.63 0.495-0.895 0.8-0.064 0.074-0.144 0.14-0.23 0.188-0.181 0.103-0.308 0.235-0.332 0.453-0.017 0.157-0.050 0.312-0.077 0.468-0.038 0.225 0.021 0.366 0.181 0.428 0.154 0.058 0.282 0 0.406-0.185 0.016-0.024 0.037-0.046 0.060-0.074 0.020 0.023 0.040 0.034 0.043 0.048 0.131 0.56 0.562 0.969 0.758 1.497 0.12 0.321 0.352 0.56 0.606 0.767 0.302 0.248 0.613 0.5 0.959 0.674 0.294 0.148 0.639 0.225 0.968 0.269 0.342 0.046 0.696 0.004 1.044 0.017 0.148 0.006 0.294 0.051 0.441 0.078 0.043 0.009 0.088 0.026 0.13 0.021 0.254-0.031 0.508-0.060 0.76-0.103 0.468-0.081 0.818-0.389 1.192-0.643 0.385-0.262 0.778-0.526 1.108-0.851 0.379-0.373 0.71-0.801 1.025-1.232 0.088-0.121 0.066-0.336 0.064-0.509-0.001-0.108 0.021-0.165 0.107-0.235 0.090-0.073 0.171-0.181 0.205-0.289 0.1-0.308 0.178-0.623 0.259-0.937 0.024-0.091 0.030-0.187 0.046-0.279 0.034-0.202 0.076-0.405 0.101-0.609 0.023-0.181 0.043-0.365 0.041-0.547-0.001-0.215 0.138-0.349 0.251-0.559 0.125 0.436 0.237 0.818 0.346 1.2 0.078 0.272 0.178 0.542 0.23 0.82 0.037 0.201 0.020 0.415 0.013 0.623-0.009 0.291-0.030 0.582-0.046 0.872-0.027 0.505-0.029 1.012-0.091 1.513-0.048 0.383-0.177 0.756-0.264 1.133-0.064 0.275-0.108 0.555-0.182 0.827-0.050 0.187-0.105 0.382-0.21 0.54-0.181 0.275-0.402 0.522-0.603 0.784-0.046 0.058-0.1 0.124-0.111 0.192-0.076 0.455-0.361 0.767-0.683 1.063-0.686 0.633-1.505 1.039-2.349 1.403-0.435 0.187-0.892 0.262-1.371 0.201-0.123-0.016-0.254 0.040-0.381 0.064-0.080 0.014-0.158 0.038-0.238 0.046-0.164 0.013-0.329 0.031-0.493 0.019-0.16-0.013-0.328-0.036-0.473-0.097-0.235-0.101-0.462-0.195-0.718-0.252-0.259-0.058-0.546-0.104-0.78-0.297-0.221-0.184-0.48-0.329-0.738-0.46-0.372-0.187-0.693-0.428-0.979-0.728-0.18-0.188-0.379-0.388-0.612-0.488-0.218-0.094-0.492-0.098-0.737-0.083s-0.345 0.241-0.269 0.48c0.036 0.11 0.043 0.202-0.041 0.315-0.053 0.071-0.017 0.214-0.004 0.324 0.010 0.083 0.061 0.163 0.064 0.244 0.010 0.381-0.031 0.767 0.030 1.138 0.037 0.224 0.108 0.449 0.077 0.67-0.053 0.373-0.153 0.741-0.241 1.109-0.009 0.038-0.078 0.058-0.108 0.097-0.054 0.067-0.117 0.134-0.147 0.212-0.134 0.359-0.134 0.754-0.375 1.093-0.204 0.288-0.302 0.65-0.449 0.979-0.067 0.15-0.151 0.248-0.339 0.285-0.098 0.019-0.167 0.207-0.242 0.322-0.058 0.088-0.094 0.198-0.168 0.267-0.046 0.041-0.168 0.053-0.218 0.020s-0.083-0.14-0.077-0.21c0.009-0.104 0.046-0.212 0.096-0.305 0.081-0.15 0.057-0.277 0.023-0.439-0.033-0.158 0.054-0.351 0.118-0.516 0.070-0.185 0.127-0.342-0.029-0.523-0.063-0.073-0.054-0.217-0.056-0.329-0.004-0.577-0.003-1.153 0-1.731 0.001-0.15-0.034-0.268-0.175-0.349-0.053-0.030-0.101-0.105-0.11-0.167-0.038-0.274-0.077-0.549-0.088-0.825-0.014-0.348-0.017-0.697 0.001-1.045 0.019-0.366-0.13-0.696-0.187-1.045-0.031-0.187-0.058-0.373-0.088-0.56-0.010-0.067-0.023-0.134-0.033-0.201-0.019-0.003-0.038-0.007-0.057-0.010-0.031 0.113-0.083 0.225-0.090 0.339-0.030 0.519-0.048 1.038-0.067 1.557-0.003 0.091 0.004 0.164-0.118 0.198-0.054 0.016-0.11 0.131-0.111 0.202-0.011 0.355-0.003 0.71-0.004 1.065-0.001 0.319-0.134 0.415-0.426 0.306-0.098 0.55 0.117 1.133-0.131 1.632 0.033 0.242 0.098 0.46 0.083 0.673-0.030 0.406 0.070 0.788 0.168 1.17 0.053 0.208 0.145 0.409 0.235 0.606 0.105 0.228 0.036 0.624-0.182 0.855-0.050-0.064-0.107-0.12-0.144-0.188-0.118-0.221-0.225-0.449-0.346-0.67-0.060-0.108-0.127-0.22-0.212-0.306-0.269-0.271-0.366-0.632-0.513-0.965-0.18-0.411-0.345-0.827-0.506-1.245-0.058-0.151-0.158-0.352-0.103-0.465 0.093-0.194 0.046-0.378 0.067-0.563 0.007-0.068-0.044-0.143-0.064-0.215-0.016-0.058-0.031-0.12-0.031-0.181-0.003-0.855-0.003-1.711-0.004-2.566 0-0.056 0-0.11 0-0.15-0.415-0.076-0.606-0.378-0.814-0.679-0.048 0.144-0.123 0.19-0.299 0.157-0.128-0.024-0.308 0.071-0.422 0.165-0.542 0.443-1.069 0.905-1.602 1.361-0.029 0.024-0.061 0.064-0.091 0.063-0.335-0.009-0.562 0.214-0.807 0.385-0.197 0.137-0.398 0.198-0.639 0.19-0.576-0.023-1.082 0.224-1.582 0.462-0.272 0.13-0.519 0.254-0.818 0.074-0.076-0.046-0.195-0.027-0.294-0.019-0.147 0.014-0.291 0.050-0.436 0.070-0.15 0.020-0.301 0.044-0.452 0.046-0.403 0.004-0.807 0-1.16-0.245-0.057-0.040-0.141-0.056-0.212-0.054-0.421 0.010-0.723-0.212-1.001-0.49-0.184-0.182-0.334-0.403-0.627-0.449-0.11-0.017-0.207-0.13-0.304-0.207-0.522-0.418-0.855-0.972-1.129-1.568-0.097-0.211-0.218-0.396-0.386-0.57-0.291-0.301-0.405-0.706-0.496-1.113-0.080-0.356-0.194-0.706-0.289-1.058-0.044-0.164-0.087-0.328-0.124-0.493-0.057-0.259-0.127-0.517-0.157-0.78-0.033-0.299-0.033-0.603-0.039-0.904-0.004-0.202 0.014-0.406 0.003-0.609-0.009-0.161-0.026-0.328-0.076-0.48-0.125-0.382-0.070-0.773-0.038-1.15 0.054-0.647 0.171-1.29 0.258-1.936 0.020-0.151 0.050-0.278 0.214-0.345 0.076-0.030 0.127-0.12 0.198-0.191 0.036 0.029 0.083 0.048 0.098 0.083 0.14 0.304 0.211 0.614 0.103 0.948-0.038 0.118-0.067 0.242-0.080 0.365-0.011 0.111 0.014 0.211 0.161 0.237 0.044 0.007 0.098 0.077 0.111 0.127 0.083 0.319 0.157 0.642 0.231 0.964 0.029 0.121 0.044 0.245 0.071 0.366 0.086 0.376 0.172 0.751 0.261 1.126 0.007 0.030 0.027 0.060 0.026 0.090-0.013 0.366 0.177 0.676 0.272 1.012 0.13 0.458 0.386 0.841 0.68 1.202 0.141 0.174 0.322 0.316 0.472 0.485 0.073 0.083 0.097 0.214 0.177 0.285 0.124 0.111 0.278 0.187 0.415 0.285 0.185 0.133 0.361 0.278 0.549 0.406 0.312 0.214 0.622 0.416 1.036 0.391 0.429-0.027 0.861-0.006 1.292-0.006 0.044 0 0.103 0.016 0.13-0.006 0.264-0.217 0.644-0.087 0.914-0.339 0.2-0.187 0.486-0.278 0.726-0.423 0.133-0.081 0.245-0.197 0.375-0.282 0.158-0.103 0.336-0.177 0.488-0.288 0.232-0.171 0.448-0.365 0.673-0.546 0.127-0.103 0.274-0.187 0.383-0.305 0.144-0.157 0.247-0.354 0.392-0.509 0.218-0.234 0.46-0.445 0.689-0.669 0.090-0.088 0.17-0.185 0.252-0.278 0.004 0.026 0.009 0.051 0.013 0.077 0.184 0.036 0.368 0.080 0.555 0.107 0.282 0.040 0.408-0.239 0.314-0.446-0.087-0.192-0.084-0.369-0.060-0.517-0.108-0.076-0.188-0.131-0.269-0.187-0.208-0.141-0.419-0.278-0.623-0.422-0.066-0.046-0.108-0.123-0.172-0.171-0.070-0.053-0.153-0.090-0.229-0.133-0.021-0.011-0.057-0.021-0.061-0.037-0.086-0.336-0.406-0.473-0.603-0.716-0.016-0.019-0.041-0.036-0.044-0.057-0.040-0.22-0.094-0.439-0.11-0.66-0.010-0.14-0.037-0.254-0.128-0.361-0.211-0.249-0.221-0.5-0.060-0.78 0.044-0.077 0.071-0.175 0.074-0.264 0.014-0.493 0.023-0.988 0.024-1.481 0-0.078-0.041-0.155-0.060-0.234-0.010-0.043-0.019-0.090-0.011-0.133 0.074-0.448-0.056-0.894 0-1.341 0.017-0.134-0.046-0.171-0.172-0.181-0.143-0.011-0.284-0.048-0.423-0.083-0.137-0.033-0.254-0.051-0.272 0.141-0.016 0.16-0.145 0.158-0.244 0.124-0.301-0.104-0.596-0.228-0.894-0.344-0.040-0.016-0.086-0.037-0.125-0.031-0.187 0.026-0.351-0.001-0.483-0.153-0.026-0.029-0.103-0.044-0.134-0.027-0.212 0.114-0.408 0.010-0.606-0.037-0.205-0.048-0.413-0.1-0.61-0.175-0.505-0.195-1.006-0.399-1.505-0.609-0.862-0.364-1.468-1.048-2.11-1.692-0.758-0.763-1.294-1.651-1.644-2.663-0.141-0.412-0.322-0.81-0.452-1.225-0.118-0.379-0.163-0.77 0.088-1.14 0.212 0.255 0.451 0.49 0.629 0.767 0.292 0.452 0.683 0.777 1.15 1.024 0.492 0.261 0.991 0.51 1.48 0.776 0.326 0.177 0.632 0.393 0.965 0.552 0.332 0.158 0.687 0.268 1.032 0.395 0.144 0.053 0.291 0.101 0.438 0.147 0.029 0.009 0.070 0.014 0.094 0.001 0.385-0.225 0.726 0.017 1.081 0.103 0.030 0.007 0.066 0.024 0.093 0.016 0.381-0.133 0.747 0.054 1.125 0.048 0.296-0.004 0.579-0.016 0.847-0.147 0.131-0.063 0.228-0.024 0.262 0.115 0.026 0.101 0.026 0.21 0.039 0.324 0 0 0.013 0.016 0.019 0.014 0.396-0.123 0.508 0.218 0.652 0.442 0.161 0.251 0.555 0.334 0.797 0.023 0.081-0.103 0.222-0.16 0.302-0.262 0.172-0.222 0.416-0.167 0.639-0.224 0.192-0.048 0.419-0.077 0.566-0.284 0.134-0.19 0.376-0.247 0.592-0.322 0.088-0.031 0.178-0.063 0.262-0.106 0.174-0.088 0.339-0.191 0.516-0.271 0.083-0.037 0.181-0.037 0.274-0.048 0.285-0.033 0.57-0.084 0.855-0.088 0.241-0.004 0.483 0.056 0.724 0.067 0.108 0.006 0.221-0.034 0.331-0.056 0.147-0.029 0.294-0.071 0.442-0.088 0.131-0.016 0.268 0.009 0.399-0.009 0.379-0.048 0.737 0.054 1.101 0.133 0.171 0.037 0.354 0.020 0.53 0.037 0.331 0.034 0.661 0.071 0.991 0.118 0.074 0.010 0.137 0.080 0.211 0.101 0.338 0.097 0.664 0.218 0.977 0.382 0.081 0.043 0.211 0.006 0.315-0.014 0.074-0.014 0.143-0.058 0.261-0.111 0 0.144-0.024 0.251 0.006 0.338 0.033 0.097 0.1 0.224 0.181 0.249s0.22-0.031 0.292-0.097c0.138-0.124 0.238-0.292 0.375-0.418 0.087-0.080 0.21-0.125 0.324-0.171 0.646-0.255 1.32-0.083 1.98-0.134 0.12-0.010 0.237-0.066 0.354-0.1 0.097-0.029 0.192-0.061 0.289-0.087 0.436-0.117 0.878-0.214 1.309-0.349 1.096-0.348 1.808-1.15 2.396-2.083 0.222-0.352 0.413-0.724 0.584-1.103 0.105-0.234 0.137-0.499 0.218-0.744 0.103-0.291 0.218-0.559 0.47-0.727zM11.308 14.418c-0.014 0.006-0.030 0.010-0.046 0.016 0.081 0.281 0.154 0.565 0.245 0.843 0.061 0.185 0.372 0.433 0.515 0.395 0.167-0.044 0.238 0.027 0.315 0.147s0.214 0.175 0.329 0.107c0.1-0.060 0.191-0.181 0.229-0.294 0.098-0.291 0.047-0.555-0.227-0.743-0.031-0.021-0.037-0.078-0.061-0.114-0.117-0.172-0.182-0.382-0.441-0.433-0.105-0.021-0.18-0.172-0.282-0.247-0.096-0.068-0.205-0.151-0.314-0.157-0.144-0.010-0.237 0.108-0.261 0.255-0.013 0.073-0.003 0.15-0.003 0.225zM22.502 13.796c-0.034 0.019-0.087 0.058-0.145 0.074-0.331 0.087-0.567 0.296-0.805 0.535-0.241 0.241-0.451 0.53-0.788 0.669-0.17 0.068-0.198 0.238-0.101 0.399 0.194 0.325 0.774 0.341 1.012 0.040 0.117-0.148 0.242-0.322 0.405-0.396 0.185-0.086 0.298-0.192 0.324-0.378 0.044-0.315 0.068-0.63 0.1-0.942z"></path>
</svg>
