<!-- Generated by IcoMoon.io -->
<svg version="1.1" xmlns="http://www.w3.org/2000/svg" width="1024" height="1024" viewBox="0 0 1024 1024">
<title></title>
<g id="icomoon-ignore">
</g>
<path fill="#FFF" d="M348.223 17.226c-62.576 16.378-109.296 41.68-162.311 87.901-16.73 14.588-33.491 26.529-37.242 26.534-3.755 0.009-23.281 26.252-43.392 58.318-67.272 107.255-41.174 281.53 32.102 214.359 48.025-44.024 175.446-69.377 160.022-31.835-4.015 9.758-12.37 51.965-18.575 93.792-18.866 127.219-59.872 146.062-156.466 71.891-65.982-50.667-96.131-62.019-109.083-41.067-9.948 16.103 17.107 151.7 30.267 151.7 17.37 0 35.895-21.984 35.895-42.59 0-24.157 3.189-23.419 52.31 12.166 43.923 31.816 79.808 37.519 125.891 20 35.831-13.624 39.244-8.535 23.498 35.014-15.244 42.151-21.048 42.982-114.31 16.309-110.006-31.456-133.287-6.546-76.533 81.889 54.474 84.893 105.918 124.253 136.346 104.322 33.146-21.721 32.246-25.597-15.327-65.977-49.159-41.726-51.249-54.064-7.659-45.187 73.363 14.934 80.283 12.959 104.339-29.758 26.617-47.263 55.393-59.517 55.319-23.558-0.045 22.289-61.846 154.501-81.872 175.152-17.62 18.174-9.325 46.581 17.121 58.631 29.062 13.241 54.659-7.446 54.659-44.181 0-24.914 51.443-140.692 62.516-140.692 11.091 0 1.745 84.417-18.284 165.14-16.78 67.632-13.236 78.221 26.165 78.221 33.127 0 40.79-17.781 41.006-95.153 0.147-52.831 18.551-127.93 31.354-127.93 7.538 0 18.331 80.625 23.092 172.517 2.815 54.401 11.335 70.844 36.707 70.844 26.423 0 27.225-7.152 15.294-136.405-5.845-63.328-8.586-121.277-6.089-128.77 4.614-13.842 61.095 174.925 61.695 206.189 0.438 22.829 39.42 34.59 56.136 16.937 10.584-11.179 9.514-24.034-5.791-69.488-10.322-30.677-21.638-76.306-25.144-101.401l-6.371-45.63 20.227 36.226c56.607 101.396 99.63 151.161 118.656 137.25 20.282-14.829 19.074-19.179-25.703-92.357-74.618-121.95-101.429-197.73-69.963-197.73 13.809 0 46.631-71.498 54.488-118.688 17.375-104.339-43.802-221.894-136.843-262.942-43.577-19.226-47.779-28.928-25.994-60.030 13.667-19.512 19.557-54.825 17.282-103.624-0.807-17.306-8.89-24.633-32.365-29.325-36.269-7.258-50.409-32.061-26.044-45.695 55.807-31.235-83.42-39.462-191.028-11.29zM666.664 33.13c-16.032 12.291-20.951 27.128-41.067 123.893-17.329 83.375-16.378 89.355 16.619 104.876 119.907 56.394 171.101 241.539 95.601 345.764-50.506 69.718-15.724 103.292 36.319 35.054 94.055-123.311 45.658-340.466-93.202-418.176-10.045-5.625-15.123-13.371-11.281-17.209 9.162-9.162 66.825 26.88 100.884 63.061 97.073 103.117 102.615 284.704 12.374 405.635-52.241 70.018-18.783 109.544 37.459 44.246 138.176-160.434 106.583-411.043-68.264-541.505-98.027-73.146-87.348-111.408 13.329-47.753 192.818 121.919 231.421 473.876 70.951 646.836-26.825 28.91-28.993 35.669-18.676 58.304 15.895 34.889 20.466 33.312 80.063-27.632 152.932-156.379 153.531-431.564 1.421-653.633-55.909-81.621-191.954-152.863-232.528-121.761zM478.455 80.975c5.168 25.838 10.75 30.419 37.076 30.419 62.161 0 49.183 62.386-22.492 108.128-52.675 33.61-187.148 74.396-245.289 74.396-23.286 0-60.236 9.126-82.116 20.277-49.358 25.163-45.63 26.035-45.63-10.644 0-84.777 127.035-202.598 255.831-237.275 82.729-22.27 95.591-20.43 102.619 14.699zM333.154 102.193c-75.92 31.008-83.859 80.288-12.886 79.956 55.535-0.258 90.531-22.464 95.537-60.615 3.816-29.053-36.043-38.382-82.651-19.341zM373.506 146.886c-6.944 8.364-23.331 15.206-36.416 15.206-16.979 0-22.119-4.351-17.952-15.206 3.4-8.868 18.589-15.211 36.411-15.211 26.030 0 28.702 2.261 17.957 15.211zM601.655 347.892c85.4 46.474 109.982 166.528 50.161 244.962-137.536 180.323-388.891 28.333-299.197-180.914 37.966-88.584 150.68-117.567 249.036-64.048z"></path>
</svg>
