<!-- Generated by IcoMoon.io -->
<svg version="1.1" xmlns="http://www.w3.org/2000/svg" width="32" height="32" viewBox="0 0 32 32">
<title>factions-chaos-slaanesh-daemons</title>
<path fill="#fff" d="M20.352 8.905c0.057-0.010 0.1-0.031 0.119-0.018 0.53 0.361 0.853 0.016 1.16-0.349 0.201-0.238 0.388-0.49 0.571-0.741 0.372-0.514 0.148-1.072 0.015-1.567-0.46-1.699-0.082-3.231 0.782-4.692 0.341-0.576 0.935-0.844 1.498-1.121 0.646-0.32 1.353-0.431 2.074-0.416 0.144 0.003 0.287 0.044 0.432 0.067 0.003 0.034 0.008 0.070 0.011 0.104-0.103 0.047-0.204 0.103-0.31 0.139-0.645 0.224-1.211 0.61-1.547 1.173-0.659 1.106-0.816 2.257 0.055 3.549 0.847 1.258 2.479 1.689 3.851 1.044 0.372-0.175 0.747-0.349 1.097-0.563 0.351-0.215 0.664-0.475 0.822-0.891 0.070-0.186 0.243-0.333 0.419-0.561 0.304 0.888 0.343 1.692 0.085 2.516-0.63 2.015-2.616 3.251-4.602 3.099-0.658-0.051-1.296-0.1-1.913-0.369-0.491-0.214-0.845 0.015-0.981 0.543-0.026 0.101-0.134 0.199-0.227 0.263-0.602 0.41-1.243 0.775-1.523 1.514-0.028 0.073-0.147 0.157-0.224 0.157-0.276 0.005-0.374 0.214-0.485 0.395-0.126 0.204-0.109 0.4 0.114 0.548 0.212 0.142 0.414 0.3 0.625 0.447 0.042 0.029 0.104 0.070 0.145 0.059 0.418-0.106 0.405 0.243 0.498 0.468 0.096 0.233 0.176 0.475 0.264 0.711 0.028 0.073 0.070 0.14 0.095 0.214 0.436 1.294 0.881 2.578 0.822 3.982-0.026 0.643 0.139 1.294 0.095 1.934-0.095 1.392-0.308 2.769-0.788 4.091-0.008 0.021-0.011 0.046-0.024 0.062-0.103 0.113-0.209 0.224-0.313 0.336-0.044-0.137-0.113-0.271-0.129-0.411-0.117-0.961-0.214-1.926-0.343-2.885-0.024-0.186-0.17-0.354-0.233-0.539-0.039-0.114-0.057-0.251-0.036-0.37 0.126-0.684 0.108-1.354-0.145-2.007-0.072-0.186-0.142-0.41-0.286-0.522-0.434-0.341-0.336-0.742-0.21-1.167 0.008-0.029 0.002-0.064 0.002-0.114-0.080-0.031-0.163-0.095-0.241-0.090-0.39 0.028-0.511-0.245-0.664-0.527-0.352-0.649-0.906-1.004-1.66-1.007-0.3-0.002-0.442 0.212-0.591 0.428-0.078 0.114-0.175 0.232-0.289 0.304-0.22 0.139-0.259 0.307-0.122 0.527 0.215 0.348 0.41 0.708 0.612 1.064 0.021 0.039 0.023 0.106 0.052 0.121 0.703 0.349 0.372 1.049 0.516 1.58 0.155 0.571 0.189 1.177 0.246 1.771 0.088 0.907 0.155 1.811-0.166 2.706-0.070 0.193 0.033 0.498 0.15 0.695 0.114 0.191 0.088 0.266-0.039 0.421-0.14 0.17-0.299 0.385-0.312 0.591-0.038 0.604-0.387 1.022-0.756 1.433-0.147 0.163-0.163 0.292-0.033 0.467 0.15 0.199 0.070 0.508-0.158 0.509-0.659 0.003-0.889 0.565-1.284 0.907-0.359 0.312-0.721 0.622-1.069 0.946-0.078 0.073-0.090 0.212-0.157 0.304-0.086 0.121-0.179 0.256-0.302 0.33-0.165 0.1-0.37 0.131-0.543 0.219-1.080 0.553-2.211 0.933-3.42 1.077-0.287 0.034-0.574 0.116-0.86 0.109-0.452-0.010-0.904-0.070-1.354-0.119-0.589-0.064-1.18-0.144-1.735 0.153-0.215 0.114-0.328 0.090-0.353-0.18-0.023-0.251-0.171-0.4-0.41-0.512-0.614-0.289-1.237-0.573-1.808-0.935-0.335-0.212-0.568-0.578-0.865-0.855-0.255-0.238-0.53-0.454-0.806-0.669-0.052-0.041-0.144-0.046-0.217-0.041-0.271 0.016-0.436-0.139-0.491-0.397-0.062-0.286-0.175-0.56-0.269-0.839-0.013-0.041-0.044-0.088-0.080-0.104-0.62-0.3-0.793-0.951-1.013-1.487-0.356-0.868-0.605-1.798-0.759-2.725-0.196-1.181-0.065-2.379 0.171-3.551 0.215-1.072 0.747-1.983 1.558-2.727 0.292-0.268 0.29-0.61 0.181-0.961-0.131-0.423-0.121-0.421 0.302-0.441 0.152-0.007 0.325-0.083 0.442-0.183 0.423-0.359 0.809-0.762 1.242-1.11 0.3-0.242 0.643-0.437 0.987-0.614 0.362-0.186 0.543-0.463 0.601-0.853 0.015-0.103 0.109-0.193 0.168-0.289 0.083 0.064 0.186 0.111 0.248 0.191 0.282 0.362 0.357 0.362 0.793 0.228 0.49-0.152 0.976-0.393 1.519-0.145 0.121 0.056 0.322 0.024 0.449-0.039 0.542-0.268 1.111-0.191 1.674-0.158 0.23 0.013 0.459 0.070 0.684 0.126 0.253 0.062 0.476 0.165 0.69-0.131 0.163-0.225 0.406-0.188 0.592 0.044 0.046 0.056 0.111 0.101 0.176 0.135 0.586 0.313 1.181 0.609 1.758 0.937 0.517 0.294 0.785 0.235 1.090-0.279 0.060-0.101 0.165-0.212 0.271-0.242 0.483-0.139 0.742-0.641 0.591-1.105-0.227-0.687-0.656-1.177-1.332-1.428-0.29-0.108-0.602-0.158-0.907-0.217-0.25-0.049-0.457-0.077-0.669-0.312-0.206-0.228-0.607-0.307-0.938-0.385-0.419-0.101-0.862-0.108-1.281-0.21-0.228-0.056-0.431-0.225-0.645-0.343-0.579-0.32-1.209-0.441-1.864-0.449-0.904-0.011-1.808-0.013-2.712-0.020-0.087 0-0.175-0.015-0.37-0.031 0.14-0.155 0.212-0.308 0.323-0.348 0.694-0.238 1.382-0.561 2.099-0.645 1.084-0.127 2.188-0.096 3.283-0.103 0.731-0.003 1.464 0.042 2.195 0.073 0.199 0.008 0.41 0.010 0.596 0.070 0.865 0.284 1.727 0.581 2.583 0.891 0.268 0.096 0.522 0.235 0.772 0.377 0.073 0.042 0.158 0.163 0.148 0.237-0.047 0.374 0.206 0.576 0.436 0.777 0.455 0.395 1.397 0.335 1.813-0.096 0.188-0.196 0.294-0.416 0.219-0.697-0.015-0.088-0.013-0.176-0.021-0.264z"></path>
</svg>
