<!-- Generated by IcoMoon.io -->
<svg version="1.1" xmlns="http://www.w3.org/2000/svg" width="32" height="32" viewBox="0 0 32 32">
<title>factions-order-seraphon</title>
<path fill="#fff" d="M2.365 18.924c0.048 0.046 0.088 0.065 0.096 0.093 0.255 0.874 0.933 1.485 1.397 2.229 0.057 0.091 0.193 0.168 0.303 0.185 0.542 0.087 0.976-0.032 1.247-0.589 0.23-0.473 0.536-0.91 0.811-1.36 0.096-0.156 0.199-0.307 0.327-0.505 0.1 0.12 0.171 0.193 0.229 0.275 0.44 0.64 0.882 1.278 1.315 1.922 0.283 0.422 0.704 0.601 1.176 0.592 0.195-0.005 0.456-0.171 0.562-0.343 0.273-0.433 0.474-0.912 0.709-1.369 0.175-0.34 0.357-0.675 0.581-1.097 0.165 0.241 0.281 0.382 0.366 0.539 0.326 0.609 0.632 1.228 0.972 1.829 0.069 0.124 0.243 0.215 0.388 0.266 0.15 0.053 0.331 0.014 0.487 0.059 0.332 0.094 0.493-0.071 0.576-0.352 0.056-0.19 0.11-0.389 0.111-0.585 0.015-1.35 0.017-2.7 0.020-4.051 0-0.099-0.036-0.199-0.076-0.413-0.272 0.252-0.501 0.425-0.681 0.64-0.286 0.341-0.542 0.709-0.805 1.071-0.365 0.501-0.76 0.499-1.066-0.034-0.326-0.57-0.624-1.156-0.933-1.736-0.178-0.332-0.405-0.403-0.664-0.145-0.657 0.65-1.295 1.318-1.925 1.994-0.221 0.238-0.321 0.252-0.499-0.025-0.417-0.652-0.836-1.304-1.256-1.953-0.243-0.375-0.672-0.394-0.93-0.032-0.448 0.63-0.894 1.264-1.332 1.903-0.266 0.388-0.635 0.416-0.862 0.008-0.397-0.718-0.768-1.454-1.114-2.197-0.171-0.368-0.429-0.627-0.808-0.657-0.672-0.053-0.837-0.573-0.894-1.037-0.12-0.942-0.122-1.899-0.153-2.849-0.029-0.893-0.048-1.786-0.034-2.679 0.003-0.178 0.128-0.396 0.264-0.522 0.84-0.785 1.712-1.537 2.549-2.327 0.256-0.241 0.501-0.383 0.865-0.371 0.74 0.026 1.483 0.011 2.225 0.011 0.519 0 0.545-0.036 0.687-0.55 0.294-1.064 0.204-2.12-0.039-3.175-0.11-0.479 0.026-0.672 0.528-0.701 0.388-0.023 0.777-0.017 1.165-0.012 0.53 0.008 1.058 0.022 1.588 0.043 0.417 0.017 0.64 0.402 0.516 0.799-0.142 0.457-0.28 0.922-0.345 1.395-0.17 1.224 0.891 2.101 1.846 2.152 0.222 0.012 0.459 0.045 0.667-0.012 0.247-0.066 0.518-0.171 0.698-0.343 0.507-0.48 0.796-1.066 0.704-1.8-0.036-0.29 0.025-0.592-0.014-0.881-0.036-0.269-0.108-0.544-0.226-0.786-0.185-0.379-0.036-0.766 0.389-0.771 0.879-0.009 1.76 0.039 2.639 0.065 0.141 0.005 0.281 0.019 0.422 0.023 0.545 0.017 0.735 0.352 0.518 0.859-0.159 0.371-0.304 0.754-0.399 1.145-0.142 0.587-0.065 1.166 0.187 1.719 0.179 0.394 0.468 0.66 0.898 0.711 0.406 0.048 0.822 0.074 1.23 0.053 0.386-0.020 0.687-0.244 0.867-0.59 0.482-0.929 0.507-1.865 0.031-2.807-0.063-0.125-0.12-0.256-0.167-0.388-0.125-0.354 0.070-0.655 0.453-0.67 0.893-0.036 1.787-0.073 2.68-0.074 0.286 0 0.579 0.093 0.856 0.181 0.201 0.065 0.294 0.23 0.202 0.451-0.019 0.043-0.025 0.096-0.053 0.13-0.715 0.901-0.329 1.947-0.369 2.932-0.014 0.332 0.684 0.857 1.083 0.898 0.128 0.012 0.261 0.026 0.388 0.009 0.66-0.088 1.159 0.175 1.556 0.681 0.057 0.074 0.117 0.151 0.193 0.205 0.419 0.295 0.57 0.704 0.598 1.203 0.023 0.423 0.331 0.667 0.825 0.72 0.896 0.094 1.791 0.077 2.654-0.209 0.307-0.102 0.446 0.015 0.541 0.264 0.049 0.13 0.097 0.272 0.093 0.408-0.026 0.87-0.065 1.738-0.107 2.608-0.006 0.116-0.040 0.232-0.074 0.345-0.083 0.273-0.222 0.349-0.53 0.252-0.623-0.199-1.259-0.382-1.903-0.487-0.582-0.096-0.953 0.382-1.373 0.686-0.051 0.037-0.062 0.153-0.059 0.232 0.017 0.623 0.017 1.248 0.071 1.868 0.057 0.655 0.652 0.762 1.115 0.908 0.366 0.116 0.791 0.053 1.19 0.057 0.385 0.006 0.637-0.256 0.922-0.46 0.097-0.069 0.28-0.108 0.378-0.063 0.096 0.043 0.184 0.21 0.188 0.326 0.037 0.928 0.066 1.858 0.073 2.787 0.005 0.606-0.292 0.793-0.799 0.491-0.494-0.295-0.995-0.38-1.554-0.273-0.252 0.048-0.518 0.012-0.776 0.032-0.388 0.028-0.585 0.224-0.684 0.596-0.219 0.837-0.162 1.681-0.063 2.523 0.049 0.419 0.626 0.894 1.177 0.979 0.624 0.096 1.242 0.063 1.848-0.136 0.476-0.158 0.796-0.005 0.827 0.494 0.048 0.771 0.039 1.551-0.015 2.323-0.032 0.459-0.28 0.587-0.732 0.456-1.017-0.295-2.050-0.467-3.099-0.297-0.428 0.070-0.85 0.258-1.236 0.465-0.165 0.088-0.255 0.351-0.341 0.55-0.53 1.217-1.047 2.439-1.57 3.66-0.17 0.397-0.357 0.789-0.514 1.191-0.178 0.451-0.553 0.63-0.975 0.626-1.434-0.014-2.867-0.102-4.301-0.099-0.658 0.002-0.961-0.27-1.197-0.861-0.311-0.771-0.757-1.486-1.136-2.229-0.133-0.26-0.252-0.528-0.352-0.803-0.15-0.408-0.504-0.683-0.97-0.691-2.906-0.051-5.81-0.091-8.716-0.15-0.573-0.012-1.143-0.11-1.716-0.137-0.598-0.029-1.197-0.008-1.795-0.043-0.176-0.011-0.399-0.093-0.508-0.219-0.621-0.723-1.217-1.466-1.811-2.212-0.082-0.102-0.119-0.252-0.142-0.385-0.028-0.161 0.006-0.334-0.029-0.493-0.311-1.343 0.425-2.314 1.143-3.297 0.182-0.244 0.332-0.507 0.513-0.786zM20.139 8.707c-0.212 0-0.425-0.019-0.635 0.003-0.671 0.068-1.295 0.269-1.767 0.774-0.752 0.806-0.663 1.835-0.703 2.826-0.003 0.065 0.039 0.134 0.065 0.199 0.11 0.272 0.213 0.548 0.335 0.814 0.068 0.147 0.136 0.329 0.26 0.409 0.842 0.544 1.634 1.171 2.748 1.111 1.222-0.066 2.249-0.7 2.645-1.855 0.131-0.385 0.122-0.83 0.122-1.247-0.006-1.857-1.227-3.054-3.070-3.034zM3.878 11.789c1.185-0.691 2.268-1.321 3.351-1.951-0.005-0.048-0.008-0.096-0.012-0.144-0.164-0.056-0.324-0.153-0.49-0.161-0.677-0.032-1.355-0.048-2.033-0.051-0.853-0.005-0.925 0.065-0.913 0.904 0.006 0.445 0.060 0.89 0.097 1.403z"></path>
<path fill="#fff" d="M22.549 11.905c0.070 1.588-1.386 2.413-2.846 2.127-0.721-0.142-1.264-0.555-1.741-1.068-0.15-0.161-0.244-0.406-0.284-0.627-0.122-0.683-0.051-1.349 0.26-1.985 0.346-0.712 0.967-0.952 1.69-1.020 0.244-0.023 0.493 0 0.74 0.002 1.023 0.005 1.848 0.66 2.067 1.667 0.065 0.295 0.077 0.602 0.114 0.904zM20.13 13.119c0.979 0.056 1.216-0.717 1.315-1.457 0.074-0.559-0.726-1.188-1.675-1.132-0.697 0.042-1.251 0.561-1.244 1.259 0.006 0.717 0.742 1.327 1.604 1.33z"></path>
</svg>
