<!-- Generated by IcoMoon.io -->
<svg version="1.1" xmlns="http://www.w3.org/2000/svg" width="32" height="32" viewBox="0 0 32 32">
<title>factions-order-daughters-of-khaine</title>
<path fill="#fff" d="M15.799 29.934c-0.583 0-1.167 0-1.75 0-0.028-0.009-0.055-0.020-0.083-0.025-0.656-0.102-1.327-0.147-1.964-0.318-0.636-0.169-1.239-0.461-1.855-0.706-0.089-0.035-0.163-0.111-0.245-0.166-0.198-0.134-0.394-0.27-0.595-0.398-0.56-0.357-1.13-0.7-1.678-1.073-0.287-0.195-0.54-0.439-0.672-0.786-0.063-0.162-0.031-0.261 0.070-0.391 0.782-1.011 1.783-1.764 2.823-2.482 0.831-0.573 1.712-1.062 2.603-1.534 0.611-0.324 1.247-0.572 1.919-0.732 0.233-0.055 0.385-0.191 0.423-0.432 0.028-0.172 0.054-0.347 0.057-0.521 0.028-1.288 0.063-2.575 0.069-3.863 0.003-0.881-0.038-1.76-0.057-2.641-0.003-0.134-0.053-0.201-0.192-0.216-0.168-0.016-0.334-0.050-0.5-0.079-0.475-0.085-0.941-0.191-1.401-0.351-0.939-0.327-1.909-0.569-2.683-1.248-0.246-0.216-0.327-0.213-0.576 0.001-0.547 0.472-1.078 0.964-1.623 1.438-0.181 0.157-0.289 0.344-0.34 0.575-0.14 0.624-0.347 1.229-0.392 1.877-0.029 0.421-0.165 0.834-0.211 1.254-0.080 0.717-0.089 1.442-0.332 2.135-0.054 0.155-0.077 0.334-0.064 0.497 0.060 0.801 0.445 1.486 0.801 2.178 0.098 0.19 0.090 0.303-0.074 0.442-0.082 0.069-0.14 0.165-0.225 0.227-0.050 0.036-0.14 0.060-0.195 0.041-0.071-0.025-0.134-0.090-0.19-0.149-0.213-0.223-0.414-0.459-0.634-0.677-0.828-0.814-1.255-1.852-1.467-2.944-0.192-0.993-0.099-2.012 0.163-3.014 0.289-1.102 0.506-2.224 0.745-3.338 0.073-0.343 0.204-0.64 0.488-0.86 0.064-0.050 0.111-0.12 0.171-0.175 0.507-0.471 1.008-0.949 1.527-1.406 0.22-0.194 0.244-0.22 0.108-0.474-0.236-0.446-0.467-0.897-0.696-1.346-0.050-0.096-0.121-0.141-0.21-0.079-0.353 0.246-0.744 0.459-1.038 0.764-0.551 0.569-1.043 1.194-1.562 1.794-0.251 0.29-0.445 0.607-0.551 0.981-0.105 0.369-0.238 0.731-0.354 1.097-0.251 0.782-0.545 1.551-0.736 2.348-0.236 0.984-0.375 1.99-0.576 2.983-0.139 0.682-0.124 1.365-0.067 2.052 0.057 0.684 0.297 1.314 0.541 1.945 0.176 0.455 0.359 0.908 0.537 1.363 0.114 0.29 0.235 0.58 0.332 0.876 0.022 0.064-0.012 0.191-0.063 0.229-0.384 0.284-0.273 0.366-0.623 0.029-0.101-0.096-0.217-0.178-0.313-0.28-0.099-0.105-0.216-0.211-0.267-0.341-0.143-0.363-0.402-0.634-0.649-0.923-0.491-0.573-0.938-1.183-1.12-1.932-0.086-0.356-0.134-0.722-0.176-1.086-0.071-0.612-0.21-1.234-0.165-1.839 0.082-1.070 0.27-2.133 0.437-3.196 0.080-0.516 0.203-1.027 0.324-1.535 0.093-0.394 0.213-0.782 0.321-1.172 0.036-0.134 0.063-0.274 0.112-0.402 0.309-0.795 0.669-1.565 1.132-2.282 0.416-0.645 0.784-1.323 1.352-1.862 0.392-0.373 0.755-0.779 1.121-1.18 0.945-1.037 2.027-1.906 3.209-2.655 0.098-0.063 0.201-0.125 0.278-0.208 0.4-0.433 0.892-0.748 1.369-1.082 0.114-0.080 0.232-0.168 0.362-0.207 0.089-0.028 0.235-0.013 0.297 0.044 0.311 0.284 0.312 0.439 0.104 0.811-0.309 0.548-0.598 1.104-0.784 1.712-0.143 0.467-0.187 0.945-0.257 1.423-0.076 0.512 0.006 0.978 0.27 1.409 0.427 0.694 0.863 1.384 1.315 2.063 0.271 0.407 0.624 0.741 1.070 0.958 0.293 0.143 0.585 0.295 0.891 0.402 0.548 0.194 1.107 0.359 1.661 0.537 0.104 0.034 0.207 0.070 0.318 0.109 0.007-0.039 0.015-0.061 0.016-0.083 0.023-0.554 0.038-1.107 0.071-1.659 0.010-0.169 0.058-0.343 0.118-0.503 0.073-0.192 0.061-0.238-0.152-0.248-0.623-0.031-1.191-0.232-1.702-0.573-0.465-0.312-0.907-0.665-1.204-1.152-0.165-0.271-0.378-0.456-0.677-0.54-0.14-0.039-0.182-0.117-0.174-0.255 0.031-0.455 0.15-0.884 0.372-1.282 0.439-0.787 0.984-1.498 1.559-2.19 0.47-0.563 1.005-1.022 1.686-1.301 0.063-0.026 0.137-0.023 0.206-0.034-0.018 0.077-0.013 0.174-0.057 0.229-0.181 0.22-0.362 0.446-0.572 0.637-0.455 0.414-0.758 0.926-1.009 1.476-0.034 0.074-0.036 0.163-0.058 0.267 0.080-0.013 0.131-0.020 0.179-0.029 0.262-0.053 0.523-0.125 0.789-0.155 0.99-0.106 1.982-0.21 2.982-0.141 0.324 0.022 0.636 0.054 0.924 0.22 0.12 0.069 0.261 0.099 0.394 0.147 0.013-0.015 0.026-0.029 0.039-0.044-0.020-0.074-0.034-0.153-0.064-0.223-0.073-0.165-0.174-0.321-0.227-0.49-0.179-0.575-0.513-1.040-0.959-1.433-0.066-0.058-0.125-0.121-0.187-0.184-0.069-0.070-0.125-0.149-0.047-0.244 0.076-0.092 0.16-0.085 0.262-0.028 0.54 0.297 0.98 0.707 1.363 1.183 0.172 0.213 0.328 0.439 0.503 0.65 0.633 0.76 0.971 1.649 1.159 2.606 0.042 0.217-0.009 0.388-0.206 0.51-0.238 0.149-0.414 0.353-0.55 0.599-0.067 0.121-0.15 0.235-0.236 0.346-0.561 0.729-1.369 1.035-2.212 1.271-0.155 0.044-0.207 0.112-0.2 0.249 0.028 0.617 0.060 1.235 0.087 1.852 0.006 0.124 0.070 0.191 0.188 0.174 0.246-0.038 0.505-0.053 0.732-0.143 0.556-0.223 1.095-0.486 1.642-0.731 1.002-0.448 1.786-1.146 2.394-2.053 0.087-0.131 0.181-0.258 0.267-0.389 0.37-0.573 0.656-1.169 0.713-1.869 0.079-0.971 0.020-1.916-0.325-2.839-0.093-0.251-0.144-0.531-0.152-0.799-0.009-0.341 0.296-0.623 0.598-0.564 0.33 0.063 0.656 0.152 0.927 0.379 0.086 0.073 0.213 0.122 0.325 0.131 0.293 0.023 0.548 0.102 0.726 0.353 0.032 0.045 0.086 0.076 0.13 0.115 0.384 0.34 0.774 0.672 1.146 1.024 0.33 0.311 0.621 0.663 0.959 0.964 0.647 0.574 1.255 1.184 1.782 1.871 0.265 0.347 0.507 0.712 0.742 1.081 0.216 0.337 0.439 0.675 0.604 1.038 0.192 0.421 0.306 0.878 0.487 1.306 0.617 1.465 0.897 2.997 0.919 4.579 0.010 0.735 0 1.47 0.007 2.205 0.003 0.207 0.036 0.414 0.057 0.623 0 0.373 0 0.747 0 1.12-0.031 0.265-0.041 0.534-0.096 0.795-0.090 0.427-0.244 0.843-0.309 1.271-0.102 0.675-0.435 1.241-0.796 1.788-0.531 0.802-1.244 1.43-2.001 2.012-0.264 0.203-0.556 0.258-0.873 0.214-0.354-0.048-0.394-0.133-0.172-0.408 0.528-0.655 0.9-1.401 1.289-2.136 0.076-0.141 0.118-0.303 0.159-0.461 0.147-0.569 0.258-1.149 0.437-1.707 0.207-0.646 0.271-1.305 0.233-1.967-0.054-0.948-0.176-1.891-0.268-2.836-0.039-0.4-0.035-0.808-0.118-1.199-0.209-0.978-0.43-1.957-0.698-2.921-0.172-0.614-0.394-1.223-0.68-1.792-0.159-0.315-0.48-0.56-0.76-0.799-0.235-0.201-0.522-0.341-0.777-0.522-0.347-0.246-0.68-0.51-1.027-0.757-0.178-0.127-0.265-0.092-0.312 0.112-0.099 0.443-0.198 0.887-0.277 1.334-0.017 0.098 0.028 0.242 0.098 0.311 0.223 0.22 0.456 0.439 0.715 0.615 0.442 0.303 0.78 0.7 1.089 1.124 0.083 0.114 0.146 0.257 0.169 0.394 0.19 1.104 0.292 2.219 0.311 3.336 0.016 0.967-0.038 1.934-0.060 2.9-0.007 0.36-0.115 0.687-0.309 0.987-0.264 0.41-0.575 0.776-0.942 1.098-0.932 0.815-1.957 1.486-3.080 2.004-0.069 0.032-0.175 0.003-0.255-0.022-0.057-0.017-0.101-0.077-0.153-0.114-0.216-0.152-0.232-0.254-0.051-0.446 0.306-0.328 0.627-0.643 0.924-0.98 0.297-0.334 0.58-0.681 0.855-1.034 0.074-0.095 0.125-0.23 0.131-0.35 0.017-0.343 0.012-0.687 0.004-1.029-0.022-1.066-0.050-2.133-0.071-3.199-0.013-0.646-0.201-1.203-0.715-1.642-0.369-0.318-0.697-0.684-1.044-1.027-0.188-0.185-0.344-0.198-0.579-0.042-0.252 0.168-0.493 0.354-0.755 0.506-1.174 0.681-2.425 1.121-3.787 1.226-0.258 0.020-0.264 0.047-0.271 0.322-0.054 2.11-0.109 4.22-0.165 6.33-0.013 0.478-0.028 0.957-0.047 1.433-0.013 0.349-0.188 0.573-0.496 0.659-0.365 0.102-0.735 0.187-1.091 0.311-1.184 0.411-2.333 0.898-3.451 1.468-1.012 0.516-1.931 1.149-2.733 1.954-0.134 0.134-0.144 0.214-0.001 0.334 0.223 0.187 0.449 0.372 0.691 0.534 0.946 0.631 2.021 0.949 3.112 1.187 0.626 0.136 1.283 0.141 1.929 0.159 0.582 0.016 1.165-0.023 1.748-0.055 1.468-0.083 2.819-0.551 4.064-1.312 0.42-0.257 0.785-0.602 1.167-0.917 0.146-0.12 0.118-0.22-0.060-0.296-0.032-0.013-0.066-0.025-0.099-0.035-0.529-0.157-1.062-0.309-1.588-0.474-0.86-0.268-1.725-0.321-2.601-0.090-0.171 0.045-0.187 0.082-0.087 0.222 0.020 0.029 0.045 0.054 0.061 0.085 0.125 0.229 0.114 0.474 0.001 0.688-0.090 0.172-0.297 0.124-0.464 0.12-0.885-0.029-1.772-0.060-2.657-0.090-0.385-0.013-0.774-0.067-1.152-0.022-0.277 0.032-0.426-0.042-0.553-0.264-0.095-0.166-0.090-0.27 0.070-0.384 0.104-0.074 0.223-0.128 0.324-0.207 0.643-0.512 1.347-0.917 2.107-1.225 0.27-0.109 0.54-0.222 0.818-0.297 0.678-0.181 1.369-0.276 2.072-0.284 0.61-0.007 1.222-0.083 1.815 0.15 0.163 0.064 0.356 0.052 0.532 0.089 0.283 0.058 0.566 0.122 0.846 0.197 0.213 0.057 0.416 0.15 0.63 0.2 0.56 0.13 1.085 0.351 1.598 0.604 0.124 0.061 0.249 0.099 0.382 0.023 0.111-0.064 0.217-0.031 0.276 0.066 0.048 0.080 0.104 0.216 0.069 0.276-0.271 0.461-0.519 0.943-0.857 1.352-0.569 0.684-1.26 1.242-2.014 1.721-0.65 0.413-1.315 0.789-2.043 1.060-0.852 0.318-1.742 0.465-2.623 0.655-0.292 0.060-0.604 0.069-0.908 0.104zM15.565 8.171c0.194-0.022 0.443-0.050 0.693-0.076 0.916-0.096 1.716-0.448 2.397-1.070 0.292-0.267 0.244-0.62-0.117-0.787-0.238-0.111-0.472-0.23-0.72-0.315-0.268-0.090-0.545-0.185-0.824-0.207-0.598-0.047-1.202-0.028-1.799-0.076-0.452-0.036-0.875 0.045-1.289 0.198-0.408 0.152-0.812 0.314-1.216 0.477-0.114 0.047-0.214 0.125-0.155 0.268 0.155 0.376 0.344 0.735 0.71 0.948 0.698 0.408 1.463 0.593 2.32 0.64z"></path>
</svg>
