<!-- Generated by IcoMoon.io -->
<svg version="1.1" xmlns="http://www.w3.org/2000/svg" width="32" height="32" viewBox="0 0 32 32">
<title>factions-destruction-ironjawz</title>
<path fill="#fff" d="M18.231 32c-0.016-0.023-0.027-0.056-0.048-0.067-0.039-0.019-0.087-0.016-0.125-0.034-0.578-0.303-1.156-0.605-1.731-0.914-0.377-0.203-0.737-0.442-1.123-0.627-0.478-0.228-0.98-0.406-1.462-0.625-0.253-0.114-0.481-0.283-0.731-0.406-0.239-0.117-0.494-0.205-0.741-0.306-0.167-0.069-0.334-0.137-0.502-0.208-0.328-0.139-0.625 0.039-0.661 0.395-0.019 0.192-0.037 0.386-0.070 0.575-0.037 0.211-0.15 0.27-0.348 0.184-0.955-0.417-1.901-0.85-2.8-1.422 0.134-0.209 0.031-0.394-0.055-0.592-0.166-0.377-0.298-0.767-0.47-1.141-0.122-0.262-0.272-0.516-0.439-0.753-0.056-0.080-0.2-0.125-0.309-0.134-0.23-0.020-0.462-0.003-0.694-0.006-0.387-0.006-0.553-0.155-0.553-0.547 0-0.636 0.030-1.273 0.037-1.909 0.016-1.244 0.028-2.486 0.031-3.729 0.002-0.712-0.017-1.423-0.031-2.136-0.003-0.156-0.014-0.314-0.052-0.464-0.025-0.1-0.081-0.219-0.161-0.275-0.123-0.086-0.134-0.159-0.069-0.278 0.345-0.622 0.673-1.253 1.036-1.865 0.486-0.822 0.986-1.636 1.503-2.439 0.214-0.334 0.483-0.633 0.733-0.945 0.078-0.098 0.202-0.173 0.309-0.094 0.072 0.053 0.128 0.191 0.117 0.281-0.070 0.6-0.173 1.197-0.242 1.797-0.055 0.483-0.195 0.939-0.373 1.387-0.202 0.511-0.228 1.026-0.072 1.559 0.256 0.873 0.506 1.748 0.736 2.628 0.248 0.948 0.389 1.917 0.512 2.889 0.028 0.216 0.158 0.334 0.341 0.406 0.162 0.064 0.214-0.069 0.248-0.18 0.084-0.267 0.155-0.539 0.231-0.809 0.136-0.486 0.266-0.975 0.412-1.458 0.088-0.291 0.177-0.37 0.33-0.328 0.173 0.047 0.259 0.094 0.236 0.419-0.033 0.45 0.084 0.856 0.292 1.256 0.156 0.3 0.228 0.644 0.348 0.964 0.037 0.1 0.098 0.256 0.167 0.266 0.217 0.033 0.305-0.086 0.345-0.317 0.052-0.288 0.122-0.572 0.198-0.853 0.030-0.111 0.098-0.212 0.13-0.277 0.255 0.053 0.483 0.086 0.701 0.152 0.088 0.027 0.181 0.109 0.227 0.192 0.241 0.444 0.467 0.897 0.697 1.345 0.023 0.044 0.031 0.105 0.066 0.133 0.078 0.063 0.167 0.15 0.252 0.152 0.075 0 0.18-0.089 0.219-0.166 0.125-0.244 0.233-0.497 0.336-0.752 0.069-0.17 0.145-0.236 0.361-0.211 0.291 0.033 0.486 0.139 0.636 0.386 0.081 0.136 0.211 0.245 0.325 0.361 0.3 0.3 0.606 0.592 0.906 0.892 0.194 0.194 0.261 0.177 0.402-0.058 0.352-0.584 0.489-1.223 0.514-1.894 0.008-0.195 0.078-0.353 0.264-0.439 0.206-0.095 0.386-0.052 0.503 0.136 0.119 0.188 0.195 0.406 0.425 0.505 0.038 0.016 0.038 0.103 0.070 0.147 0.070 0.095 0.15 0.183 0.227 0.273 0.081-0.086 0.197-0.156 0.239-0.258 0.227-0.547 0.436-1.101 0.648-1.655 0.245-0.641 0.483-1.284 0.73-1.925 0.223-0.581 0.325-1.189 0.42-1.8 0.030-0.189 0.116-0.369 0.148-0.558 0.059-0.336 0.119-0.675 0.139-1.016 0.064-1.086 0.108-2.172 0.161-3.258 0.003-0.063-0.009-0.142 0.025-0.183 0.080-0.095 0.172-0.214 0.278-0.239 0.081-0.019 0.228 0.070 0.281 0.153 0.113 0.175 0.219 0.32 0.452 0.342 0.067 0.006 0.161 0.109 0.183 0.184 0.325 1.158 0.664 2.314 0.948 3.483 0.122 0.498 0.175 1.026 0.167 1.539-0.008 0.564 0.156 1.083 0.267 1.617 0.1 0.477 0.225 0.948 0.292 1.428 0.047 0.337 0.042 0.687 0.012 1.028-0.016 0.173-0.1 0.367-0.212 0.503-0.645 0.78-1.333 1.525-1.959 2.319-0.548 0.695-1.087 1.408-1.53 2.172-0.33 0.569-0.55 1.217-0.725 1.856-0.383 1.397-0.93 2.712-1.739 3.915-0.058 0.084-0.188 0.125-0.291 0.173-0.127 0.058-0.259 0.102-0.389 0.152-0.033 0.003-0.070 0.003-0.108 0.003z"></path>
<path fill="#fff" d="M0.345 7.702c0.033-0.058 0.075-0.114 0.097-0.177 0.264-0.772 0.731-1.419 1.266-2.015 0.678-0.756 1.376-1.497 2.078-2.233 0.398-0.419 0.836-0.389 1.194 0.053 0.148 0.184 0.281 0.169 0.356-0.070 0.181-0.586 0.634-0.883 1.158-1.084 0.206-0.080 0.453-0.067 0.681-0.073 0.378-0.011 0.758-0.003 1.151-0.003-0.003 0.016-0.011 0.080-0.036 0.136-0.692 1.547-1.187 3.161-1.623 4.793-0.106 0.4-0.314 0.536-0.726 0.506-0.881-0.066-1.756-0.273-2.647-0.144-0.644 0.092-1.23 0.322-1.569 0.922-0.211 0.373-0.389 0.769-0.533 1.172-0.070 0.195-0.027 0.431-0.033 0.65-0.002 0.048 0.005 0.1-0.002 0.148-0.020 0.153 0.072 0.37-0.114 0.436-0.214 0.077-0.458 0.078-0.653-0.1-0.013-0.012-0.030-0.020-0.045-0.030 0-0.125 0-0.25 0-0.375 0.019-0.014 0.053-0.030 0.052-0.044-0.005-0.367-0.014-0.733-0.023-1.098 0-0.006-0.019-0.012-0.028-0.019 0-0.452 0-0.902 0-1.351z"></path>
<path fill="#fff" d="M12.114 19.145c-0.109-0.172-0.242-0.306-0.289-0.466-0.191-0.658-0.348-1.326-0.533-1.986-0.152-0.545-0.337-1.081-0.481-1.628-0.070-0.267-0.102-0.552-0.103-0.828-0.002-0.297-0.067-0.553-0.216-0.816-0.284-0.497-0.098-1.045 0.437-1.32 0.122-0.063 0.192-0.127 0.205-0.253 0.041-0.447 0.089-0.894 0.113-1.342 0.019-0.366 0.081-0.717 0.233-1.053 0.109-0.242 0.070-0.287-0.175-0.378-0.731-0.27-1.495-0.391-2.256-0.53-0.097-0.017-0.2 0.002-0.297-0.012-0.183-0.027-0.377-0.036-0.541-0.106-0.331-0.142-0.378-0.291-0.284-0.637 0.169-0.627 0.342-1.251 0.497-1.881 0.095-0.386 0.133-0.789 0.245-1.17 0.111-0.375 0.3-0.726 0.425-1.097 0.161-0.477 0.295-0.962 0.434-1.447 0.045-0.156 0.147-0.227 0.297-0.277 0.537-0.18 1.091-0.258 1.655-0.287 0.361-0.019 0.719-0.083 1.078-0.116 0.578-0.053 1.156-0.098 1.734-0.148 0.106-0.009 0.211-0.022 0.316-0.041 0.323-0.056 0.372-0.106 0.405-0.427 0.020-0.203 0.127-0.344 0.322-0.391 0.489-0.117 0.961-0.278 1.483-0.273 0.539 0.003 1.080-0.106 1.62-0.159 0.305-0.030 0.611-0.036 0.916-0.070 0.247-0.028 0.428 0.059 0.559 0.261 0.392 0.602 0.27 0.455 0.966 0.528 0.069 0.008 0.137 0.011 0.206 0.008 0.238-0.011 0.398 0.105 0.567 0.266 0.508 0.48 0.798 1.073 1.023 1.719 0.328 0.942 0.686 1.873 1 2.82 0.098 0.297 0.103 0.625 0.144 0.939 0.017 0.133-0.045 0.228-0.172 0.28-0.183 0.073-0.244 0.219-0.234 0.405 0.012 0.256 0.028 0.514-0.137 0.739-0.003 0.005-0.008 0.011-0.008 0.017 0.050 0.336-0.208 0.409-0.433 0.517-0.439 0.209-0.877 0.422-1.316 0.631-0.484 0.231-0.706 0.712-0.584 1.236 0.1 0.425 0.188 0.853 0.266 1.283 0.020 0.116 0.006 0.25-0.031 0.362-0.298 0.88-0.591 1.759-1.006 2.595-0.403 0.812-0.544 1.694-0.578 2.594-0.022 0.57-0.091 1.133-0.3 1.669-0.044 0.109-0.097 0.216-0.148 0.323-0.070 0.145-0.202 0.173-0.347 0.17-0.141-0.002-0.133-0.119-0.169-0.208-0.070-0.173-0.15-0.342-0.234-0.509-0.022-0.044-0.078-0.1-0.114-0.097-0.041 0.003-0.095 0.059-0.113 0.105-0.069 0.18-0.117 0.369-0.191 0.548-0.139 0.341-0.28 0.68-0.437 1.011-0.091 0.192-0.181 0.2-0.356 0.075-0.061-0.044-0.116-0.097-0.18-0.134-0.133-0.077-0.209-0.030-0.222 0.125-0.009 0.117-0.006 0.241-0.042 0.35-0.023 0.073-0.098 0.172-0.161 0.178-0.075 0.009-0.186-0.045-0.234-0.109-0.189-0.245-0.241-0.544-0.181-0.836 0.141-0.697 0.038-1.395 0.048-2.092 0.005-0.289-0.394-0.552-0.673-0.453-0.081 0.028-0.162 0.155-0.183 0.248-0.131 0.616-0.239 1.236-0.37 1.85-0.067 0.317-0.169 0.627-0.253 0.939-0.034 0.125-0.088 0.283-0.222 0.252-0.091-0.022-0.189-0.177-0.214-0.288-0.088-0.408-0.128-0.826-0.22-1.234-0.077-0.339-0.208-0.666-0.298-1.001-0.164-0.605-0.186-1.219-0.092-1.839 0.014-0.092 0.023-0.188 0.014-0.28-0.005-0.059-0.044-0.159-0.073-0.161-0.063-0.005-0.156 0.023-0.191 0.072-0.106 0.153-0.216 0.311-0.281 0.484-0.225 0.602-0.433 1.209-0.642 1.817-0.039 0.111-0.078 0.231-0.077 0.345 0.002 0.241-0.139 0.4-0.313 0.62zM19.668 7.175c0 0.002 0 0.005 0 0.006 0.038 0 0.075-0.002 0.113 0 0.352 0.009 0.505-0.17 0.434-0.516-0.1-0.489-0.216-0.975-0.303-1.466-0.077-0.423-0.136-0.434-0.491-0.17-0.734 0.55-1.469 1.101-2.201 1.656-0.18 0.136-0.358 0.273-0.523 0.423-0.045 0.041-0.064 0.13-0.064 0.195 0 0.020 0.102 0.059 0.158 0.059 0.219 0 0.437-0.003 0.655-0.019 0.742-0.056 1.483-0.114 2.223-0.17zM10.706 5.258c0.058 0.373 0.552 1.105 0.828 1.256 0.053 0.030 0.116 0.047 0.175 0.064 0.737 0.206 1.497 0.256 2.255 0.309 0.066 0.005 0.186-0.078 0.202-0.141 0.072-0.281 0.116-0.57 0.178-0.898-0.247-0.036-0.47-0.088-0.695-0.097-0.516-0.020-1.034 0.014-1.539-0.147-0.344-0.109-0.695-0.197-1.044-0.287-0.109-0.028-0.225-0.037-0.359-0.059zM15.084 11.25c0 0.1-0.014 0.203 0.006 0.298 0.009 0.042 0.091 0.098 0.137 0.095 0.148-0.008 0.467-0.313 0.505-0.455 0.095-0.373 0.202-0.744 0.286-1.119 0.020-0.092 0.012-0.223-0.041-0.295-0.213-0.292-0.439-0.575-0.678-0.845-0.058-0.066-0.189-0.095-0.283-0.089-0.045 0.003-0.098 0.125-0.119 0.2-0.077 0.302-0.137 0.606-0.211 0.908-0.045 0.183-0.023 0.352 0.108 0.487 0.222 0.228 0.33 0.492 0.289 0.814z"></path>
<path fill="#fff" d="M23.16 1.235c0.117 0.009 0.197 0.002 0.267 0.023 0.113 0.034 0.217 0.094 0.33 0.131 0.258 0.087 0.522 0.158 0.778 0.252 0.63 0.231 1.283 0.403 1.847 0.795 0.18 0.125 0.419 0.164 0.609 0.28 0.737 0.444 1.467 0.9 2.195 1.356 0.238 0.148 0.472 0.306 0.692 0.48 0.473 0.372 0.98 0.708 1.272 1.269 0.086 0.164 0.269 0.275 0.391 0.423 0.061 0.073 0.122 0.181 0.114 0.267-0.012 0.138-0.15 0.119-0.256 0.119-0.455-0.002-0.92-0.064-1.362 0.013-0.555 0.095-1.089 0.305-1.631 0.467-0.244 0.073-0.486 0.153-0.727 0.234-0.13 0.044-0.264 0.083-0.383 0.147-0.281 0.153-0.581 0.253-0.845 0.455-0.4 0.305-0.711 0.283-1.020 0.013-0.083-0.073-0.169-0.188-0.18-0.292-0.052-0.519-0.073-1.039-0.116-1.558-0.012-0.161-0.064-0.319-0.083-0.48-0.030-0.253-0.056-0.506-0.067-0.759-0.017-0.381-0.045-0.764-0.022-1.142 0.023-0.384-0.169-0.644-0.459-0.789-0.444-0.223-0.7-0.587-0.933-0.991-0.13-0.22-0.255-0.442-0.411-0.712z"></path>
</svg>
