<!-- Generated by IcoMoon.io -->
<svg version="1.1" xmlns="http://www.w3.org/2000/svg" width="32" height="32" viewBox="0 0 32 32">
<title>factions-chaos-slaanesh-sybarites</title>
<path fill="#fff" d="M21.878 30.473c-0.159-0.415-0.267-0.698-0.375-0.979-0.066-0.019-0.132-0.037-0.198-0.055-0.205 0.838-0.384 1.698-1.471 1.989 0-0.363 0.033-0.719-0.016-1.064-0.020-0.145-0.213-0.266-0.327-0.397-0.105 0.117-0.255 0.219-0.304 0.356-0.122 0.348-0.21 0.708-0.291 1.070-0.104 0.458-0.328 0.66-0.84 0.595-0.532-0.068-0.69-0.31-0.734-0.821-0.023-0.254-0.34-0.484-0.524-0.723-0.124 0.231-0.283 0.449-0.359 0.695-0.069 0.227-0.048 0.481-0.065 0.716-1.321 0.040-1.636 0.066-1.514-1.446 0.011-0.134-0.182-0.286-0.28-0.429-0.114 0.105-0.319 0.205-0.326 0.315-0.023 0.413 0.020 0.829 0.039 1.245-0.864 0.082-1.037-0.126-1.417-1.89-0.443 0.575-0.804 1.044-1.26 1.637-0.577-1.079-0.82-2.014-0.715-3.026 0.144-1.382-0.618-2.496-1.226-3.584-0.449-0.804-1.407-1.148-2.426-0.869-0.573 0.157-0.852-0.086-1.296-0.541-1.436-1.483-1.654-3.353-2.048-5.193-0.040-0.189-0.136-0.373-0.239-0.541-0.351-0.569-0.283-1.071 0.182-1.548 0.785-0.807 1.062-1.669 0.431-2.74-0.207-0.351-0.206-0.862-0.191-1.298 0.025-0.817 0.173-1.63 0.194-2.448 0.066-2.69 1.544-4.7 3.156-6.647 0.99-1.196 2.444-1.632 3.822-2.037 2.328-0.684 4.692-0.945 7.185-0.755 2.215 0.169 4.022 1.054 5.779 2.114 1.29 0.779 2.381 1.882 2.744 3.519 0.267 1.203 0.745 2.357 1.078 3.548 0.662 2.375 0.385 4.769 0.097 7.164-0.154 1.28-0.318 2.57 0.379 3.777 0.069 0.12 0.019 0.405-0.084 0.513-1.035 1.087-2.082 2.163-3.148 3.22-0.367 0.364-0.816 0.424-1.297 0.159-0.421-0.231-0.658-0.057-0.862 0.364-0.554 1.141-0.516 2.359-0.532 3.569-0.012 0.856-0.223 1.634-0.722 2.465zM12.427 5.419c1.306 0.344 2.542 0.642 3.754 1.014 0.217 0.066 0.336 0.444 0.501 0.679-0.295 0.108-0.597 0.318-0.884 0.299-0.517-0.035-1.021-0.276-1.537-0.303-0.655-0.035-1.446-0.154-1.945 0.149-0.639 0.387-1.308 0.807-1.761 1.56-1.293 2.15-0.035 5.318 2.43 5.617 1.341 0.163 2.695 0.055 3.815-1.003 1.145-1.082 1.56-3.099 0.789-4.477-0.085-0.152-0.035-0.38-0.047-0.573 0.223-0.012 0.496-0.113 0.662-0.021 0.639 0.351 0.823 0.986 0.916 1.662 0.080 0.579 0.177 1.156 0.282 1.827 0.874-1.48 0.577-3.731-0.587-4.836 0.589-0.601 1.079-1.354 2.13-1.019 0.178 0.057 0.397 0.017 0.591-0.015 1.017-0.161 1.592-0.985 1.362-1.933-1.092 0.815-1.89 0.954-2.425 0.324-0.222-0.26-0.352-0.728-0.294-1.062 0.056-0.32 0.407-0.59 0.635-0.89-1.199 0.024-1.952 0.666-1.809 1.761 0.105 0.808 0.009 1.306-0.723 1.754-0.431 0.264-0.666 0.316-0.987-0.054-0.109-0.126-0.25-0.255-0.403-0.311-1.464-0.534-2.945-0.47-4.466-0.149zM10.242 21.034c1.28-0.011 2.5-0.167 3.548-1.030 0.469-0.385 0.51-0.781 0.234-1.22-0.161-0.255-0.433-0.493-0.71-0.614-1.375-0.603-2.755-1.208-4.166-1.717-0.486-0.175-1.078-0.136-1.612-0.085-0.601 0.056-1.233 0.978-1.139 1.533 0.288 1.666 2.080 3.127 3.844 3.132zM24.156 16.407c-0.017-0.066-0.035-0.133-0.052-0.199-1.712 0.452-3.431 0.874-5.123 1.387-0.23 0.069-0.481 0.609-0.451 0.901 0.174 1.664 1.367 2.591 2.95 2.4 0.589-0.072 1.159-0.279 1.747-0.357 1.156-0.155 1.836-0.925 2.409-1.818 0.747-1.163 0.17-2.256-1.183-2.296-0.101-0.004-0.201-0.012-0.299-0.017zM16.74 25.001c0.15 0.197 0.306 0.555 0.577 0.711 0.278 0.159 0.684 0.195 1.005 0.134 0.14-0.027 0.347-0.484 0.284-0.659-0.501-1.405-1.019-2.808-1.619-4.173-0.28-0.638-0.594-0.634-0.852 0.003-0.543 1.341-1.019 2.712-1.458 4.091-0.159 0.5 0.51 0.981 1.018 0.728 0.376-0.189 0.674-0.532 1.044-0.836z"></path>
</svg>
