<!-- Generated by IcoMoon.io -->
<svg version="1.1" xmlns="http://www.w3.org/2000/svg" width="32" height="32" viewBox="0 0 32 32">
<title>factions-chaos-untamed-beasts</title>
<path fill="#fff" d="M0 11.618c0.009-0.118 0.026-0.237 0.025-0.354-0.004-0.515 0.072-1.005 0.322-1.469 0.162-0.3 0.255-0.636 0.39-0.951 0.032-0.076 0.103-0.137 0.162-0.202 0.105-0.117 0.219-0.228 0.319-0.35 0.187-0.23 0.346-0.488 0.552-0.7 0.888-0.915 1.755-1.849 2.717-2.69 0.71-0.621 1.49-1.097 2.429-1.269 0.811-0.147 1.591-0.078 2.364 0.253 1.204 0.517 2.231 1.281 3.195 2.144 0.327 0.294 0.662 0.574 1.061 0.766 0.070 0.034 0.166 0.050 0.238 0.031 0.66-0.173 1.335-0.232 2.009-0.254 0.337-0.011 0.681 0.061 1.018 0.122 0.213 0.039 0.401 0.022 0.59-0.081 1.032-0.561 2.043-1.158 3.008-1.83 0.832-0.579 1.722-1.057 2.633-1.49 0.279-0.133 0.613-0.153 0.922-0.222 0.844-0.186 1.496 0.23 2.111 0.71 0.914 0.711 1.58 1.642 2.275 2.556 0.778 1.023 1.477 2.089 2.021 3.251 0.495 1.057 0.951 2.134 1.412 3.207 0.093 0.217 0.133 0.457 0.188 0.688 0.061 0.261 0.001 0.514-0.087 0.761-0.055 0.151-0.077 0.286 0.067 0.406 0.032 0.027 0.049 0.088 0.052 0.136 0.025 0.285-0.007 0.555-0.199 0.788-0.078 0.096-0.118 0.244-0.215 0.299-0.195 0.112-0.303 0.305-0.466 0.438-0.698 0.569-1.409 1.123-2.217 1.533-0.564 0.286-1.041 0.696-1.544 1.068-0.271 0.202-0.553 0.39-0.828 0.588-0.364 0.263-0.778 0.308-1.206 0.289-0.169-0.007-0.336-0.040-0.505-0.049-0.305-0.016-0.549-0.152-0.766-0.357-0.513-0.486-0.857-1.078-1.125-1.724-0.37-0.889-0.542-1.816-0.598-2.771-0.032-0.547-0.098-1.092-0.106-1.638-0.006-0.451 0.045-0.903 0.086-1.352 0.010-0.103 0.090-0.198 0.128-0.3 0.050-0.13 0.076-0.269 0.137-0.392 0.062-0.126 0.128-0.281 0.238-0.345 0.608-0.35 1.24-0.655 1.932-0.804 0.111-0.024 0.228-0.016 0.342-0.022 0.218-0.010 0.437-0.011 0.655-0.031 0.289-0.025 0.51 0.075 0.649 0.33 0.187 0.345 0.376 0.69 0.542 1.046 0.171 0.366 0.086 0.716-0.12 1.050-0.088 0.143-0.158 0.298-0.233 0.448-0.144 0.289-0.281 0.58-0.436 0.864-0.035 0.065-0.127 0.097-0.193 0.144-0.016-0.012-0.032-0.025-0.050-0.037 0.030-0.168 0.075-0.336 0.085-0.505 0.036-0.624 0.269-1.228 0.198-1.861-0.010-0.091-0.050-0.197-0.112-0.259-0.24-0.242-0.494-0.464-0.864-0.478-0.137-0.005-0.245 0.011-0.285 0.172-0.010 0.039-0.071 0.078-0.116 0.092-0.223 0.071-0.448 0.134-0.671 0.2-0.254 0.076-0.28 0.102-0.295 0.375-0.042 0.83 0.093 1.637 0.35 2.424 0.21 0.647 0.423 1.294 0.652 1.935 0.098 0.275 0.234 0.537 0.36 0.802 0.057 0.122 0.158 0.154 0.288 0.103 0.235-0.093 0.479-0.169 0.708-0.276 0.178-0.083 0.34-0.202 0.505-0.311 0.12-0.080 0.225-0.183 0.349-0.256 0.605-0.359 1.101-0.853 1.613-1.323 0.073-0.068 0.125-0.182 0.146-0.283 0.052-0.242 0.088-0.488 0.117-0.735 0.010-0.090-0.006-0.192-0.040-0.276-0.357-0.884-0.718-1.768-1.084-2.649-0.356-0.859-0.9-1.602-1.47-2.327-0.042-0.054-0.098-0.103-0.159-0.132-0.402-0.189-0.808-0.355-1.27-0.334-0.332 0.016-0.666 0.002-1.022 0.002 0.006-0.106 0.010-0.208 0.017-0.31 0.012-0.192-0.034-0.23-0.21-0.173-0.21 0.068-0.421 0.133-0.478 0.395-0.009 0.041-0.078 0.071-0.125 0.1-0.453 0.279-0.909 0.553-1.362 0.833-0.27 0.167-0.477 0.397-0.681 0.64-0.32 0.38-0.672 0.732-1.016 1.092-0.179 0.188-0.184 0.21-0.093 0.459 0.037 0.101 0.064 0.212 0.062 0.317-0.007 0.588-0.019 1.175-0.044 1.762-0.014 0.3 0.065 0.56 0.248 0.792 0.107 0.136 0.168 0.321 0.375 0.356 0.025 0.004 0.050 0.034 0.067 0.057 0.106 0.139 0.097 0.613-0.025 0.736-0.294 0.298-0.505 0.65-0.722 1.002-0.117 0.19-0.281 0.359-0.447 0.512-0.228 0.212-0.263 0.324-0.117 0.596 0.019 0.035 0.039 0.070 0.056 0.106 0.136 0.269 0.045 0.437-0.254 0.458-0.184 0.012-0.331 0.096-0.462 0.218-0.142 0.132-0.188 0.13-0.321-0.004-0.151-0.152-0.235-0.146-0.316 0.057-0.095 0.239-0.172 0.487-0.234 0.737-0.071 0.284-0.115 0.574-0.172 0.862-0.045 0.23-0.032 0.452 0.065 0.671 0.029 0.064 0.019 0.156-0.002 0.225-0.076 0.261-0.054 0.352 0.154 0.519 0.163 0.131 0.177 0.181 0.113 0.371-0.035 0.103-0.080 0.207-0.096 0.313-0.019 0.128-0.036 0.266-0.011 0.391 0.066 0.329-0.017 0.624-0.174 0.903-0.28 0.499-0.573 0.99-0.855 1.488-0.152 0.266-0.291 0.54-0.439 0.808-0.016 0.029-0.054 0.054-0.087 0.064-0.071 0.021-0.146 0.032-0.24 0.052 0.022-0.149 0.044-0.289 0.065-0.428 0.204-1.312 0.232-2.637 0.244-3.962 0.002-0.218-0.036-0.436-0.067-0.652-0.021-0.147-0.193-0.227-0.355-0.161 0.024 0.072 0.036 0.152 0.073 0.218 0.182 0.332 0.192 0.68 0.121 1.043-0.087 0.443-0.161 0.889-0.229 1.336-0.037 0.239-0.091 0.466-0.266 0.671-0.224-0.799-0.443-1.579-0.662-2.359-0.014 0.001-0.027 0.002-0.042 0.004-0.010 0.030-0.025 0.058-0.027 0.088-0.073 0.754-0.146 1.513 0.012 2.261 0.143 0.677 0.124 1.364 0.176 2.048 0.040 0.535 0.077 1.071 0.111 1.606 0.011 0.173-0.005 0.349 0.009 0.523 0.026 0.337 0.054 0.675 0.103 1.008 0.022 0.153 0.006 0.273-0.102 0.38-0.020 0-0.040 0-0.060 0-0.040-0.062-0.088-0.12-0.118-0.187-0.142-0.313-0.285-0.624-0.415-0.941-0.204-0.5-0.396-1.007-0.598-1.51-0.042-0.105-0.1-0.204-0.149-0.306-0.070-0.142-0.159-0.276-0.205-0.426-0.083-0.265-0.146-0.538-0.208-0.809-0.035-0.154-0.055-0.311-0.068-0.393 0.123-0.149 0.25-0.24 0.28-0.356 0.036-0.142-0.050-0.276-0.2-0.346-0.044-0.020-0.082-0.058-0.112-0.097-0.218-0.284-0.437-0.568-0.649-0.857-0.078-0.107-0.061-0.402 0.030-0.494 0.030-0.030 0.092-0.030 0.141-0.040 0.046-0.009 0.11 0.005 0.138-0.020 0.167-0.153 0.301-0.317 0.305-0.57 0.009-0.682 0.041-1.363 0.054-2.045 0.004-0.177-0.010-0.361-0.054-0.532-0.168-0.665-0.345-1.328-0.534-1.987-0.041-0.142-0.133-0.276-0.227-0.393-0.126-0.159-0.271-0.304-0.417-0.447-0.138-0.134-0.286-0.258-0.43-0.387-0.027-0.025-0.055-0.054-0.076-0.085-0.068-0.105-0.128-0.214-0.2-0.317-0.076-0.11-0.163-0.212-0.263-0.341 0.107-0.016 0.166-0.025 0.224-0.034 0.217-0.031 0.357-0.232 0.309-0.446-0.027-0.121-0.055-0.242-0.085-0.362-0.025-0.102-0.082-0.146-0.185-0.096-0.068 0.034-0.137 0.067-0.204 0.101-0.015-0.014-0.030-0.027-0.045-0.042 0.141-0.225 0.271-0.457 0.423-0.675 0.144-0.208 0.253-0.415 0.177-0.679-0.019-0.063 0-0.138 0.006-0.207 0.042-0.474 0.11-0.949 0.123-1.424 0.017-0.604-0.188-1.13-0.646-1.547-0.932-0.847-1.864-1.696-2.791-2.547-0.105-0.096-0.213-0.13-0.351-0.125-0.329 0.012-0.657 0.027-0.985 0.016-0.265-0.010-0.508 0.040-0.721 0.192-0.843 0.601-1.692 1.196-2.35 2.014-0.108 0.136-0.24 0.253-0.351 0.387-0.12 0.144-0.233 0.296-0.335 0.452-0.1 0.151-0.133 0.341-0.294 0.456-0.032 0.024-0.052 0.073-0.066 0.115-0.106 0.325-0.172 0.657-0.116 0.998 0.148 0.904 0.488 1.732 1.035 2.466 0.365 0.492 0.762 0.959 1.134 1.445 0.25 0.329 0.573 0.548 0.952 0.692 0.116 0.045 0.233 0.088 0.349 0.131 0.316 0.115 0.461 0.076 0.644-0.212 0.209-0.326 0.413-0.657 0.6-0.997 0.518-0.94 0.793-1.957 0.961-3.012 0.035-0.215-0.014-0.375-0.146-0.534-0.355-0.429-0.82-0.667-1.348-0.803-0.315-0.081-0.544 0.014-0.692 0.307-0.238 0.471-0.467 0.945-0.698 1.418-0.090 0.183-0.103 0.371-0.026 0.564 0.026 0.065 0.056 0.133 0.054 0.2-0.002 0.091-0.034 0.181-0.052 0.27-0.017 0.001-0.036 0.001-0.054 0.002-0.238-0.355-0.493-0.7-0.708-1.068-0.341-0.584-0.194-1.356 0.336-1.78 0.608-0.486 1.241-0.929 1.967-1.23 0.227-0.093 0.418-0.111 0.65-0.037 0.426 0.136 0.838 0.288 1.169 0.601 0.385 0.365 0.722 0.771 0.994 1.226 0.116 0.194 0.258 0.351 0.447 0.469 0.208 0.13 0.227 0.188 0.174 0.433-0.167 0.783-0.371 1.56-0.486 2.351-0.163 1.128-0.696 2.073-1.33 2.98-0.098 0.142-0.223 0.266-0.337 0.397-0.133 0.152-0.249 0.331-0.41 0.446-0.401 0.285-0.817 0.552-1.239 0.803-0.144 0.086-0.325 0.118-0.494 0.151-0.061 0.011-0.172-0.034-0.198-0.085-0.082-0.158-0.21-0.188-0.362-0.177-0.253 0.021-0.476-0.060-0.7-0.171-0.373-0.183-0.671-0.462-0.974-0.735-0.718-0.646-1.434-1.297-1.927-2.148-0.611-1.054-1.232-2.103-1.836-3.161-0.148-0.246-0.243-0.532-0.361-0.803 0-0.139 0-0.279 0-0.418zM16.622 16.32c0.009 0.014 0.019 0.027 0.027 0.041 0.167-0.093 0.345-0.169 0.497-0.283 0.202-0.151 0.398-0.223 0.65-0.13 0.218 0.081 0.443 0.061 0.649-0.057 0.269-0.156 0.483-0.375 0.617-0.651 0.115-0.235 0.232-0.458 0.425-0.64 0.098-0.092 0.067-0.166-0.057-0.215-0.405-0.164-0.792-0.044-1.18 0.063-0.031 0.009-0.083 0.036-0.083 0.055 0.002 0.202-0.13 0.254-0.291 0.284-0.025 0.005-0.047 0.035-0.068 0.056-0.204 0.195-0.407 0.393-0.613 0.588-0.264 0.249-0.476 0.532-0.571 0.889zM14.611 15.931c-0.001-0.305-0.077-0.471-0.286-0.608-0.324-0.213-0.655-0.416-0.984-0.621-0.029-0.017-0.063-0.031-0.096-0.036-0.314-0.051-0.627-0.102-0.944-0.144-0.085-0.011-0.174 0.009-0.261 0.015 0.061 0.083 0.106 0.19 0.185 0.244 0.555 0.378 1.050 0.819 1.455 1.358 0.055 0.072 0.157 0.112 0.242 0.157s0.185 0.066 0.263 0.12c0.092 0.064 0.162 0.061 0.235-0.016 0.141-0.146 0.187-0.325 0.19-0.468zM17.145 22.962c0 0.127 0 0.225 0 0.325 0.014 0.004 0.026 0.006 0.040 0.010 0.039-0.070 0.078-0.139 0.122-0.217-0.052-0.039-0.096-0.070-0.162-0.118z"></path>
</svg>
