<!-- Generated by IcoMoon.io -->
<svg version="1.1" xmlns="http://www.w3.org/2000/svg" width="32" height="32" viewBox="0 0 32 32">
<title>factions-destruction-ogor-mawtribes</title>
<path fill="#fff" d="M26.313 28.079c-0.274-0.225-0.536-0.432-0.79-0.648-0.154-0.131-0.313-0.172-0.504-0.095-0.034 0.014-0.082 0.013-0.119 0.001-0.389-0.116-0.732-0.086-1.033 0.236-0.115 0.122-0.292 0.192-0.45 0.266-0.563 0.259-1.133 0.501-1.693 0.764-0.401 0.188-0.821 0.299-1.252 0.391-0.287 0.062-0.573 0.086-0.866 0.090-0.101 0.001-0.238 0.047-0.29 0.121-0.129 0.181-0.314 0.188-0.497 0.231-0.217 0.052-0.434 0.101-0.645 0.172-0.185 0.062-0.27 0.21-0.287 0.406-0.009 0.090-0.052 0.181-0.088 0.267-0.134 0.332-0.263 0.665-0.411 0.989-0.078 0.172-0.192 0.327-0.286 0.494-0.043 0.078-0.073 0.164-0.105 0.234-0.279-0.33-0.562-0.671-0.849-1.007-0.083-0.098-0.19-0.178-0.266-0.28-0.119-0.159-0.21-0.342-0.339-0.491-0.118-0.138-0.263-0.259-0.411-0.366-0.144-0.105-0.306-0.145-0.498-0.122-0.339 0.039-0.661-0.030-0.985-0.168-0.3-0.129-0.642-0.164-0.964-0.243-0.078-0.019-0.162-0.032-0.228-0.072-0.399-0.24-0.61-0.053-0.827 0.27-0.075 0.111-0.141 0.227-0.213 0.339s-0.144 0.224-0.231 0.358c-0.050-0.103-0.095-0.194-0.141-0.283-0.228-0.455-0.448-0.916-0.692-1.364-0.065-0.118-0.203-0.195-0.312-0.286-0.316-0.261-0.626-0.53-0.952-0.777-0.25-0.19-0.518-0.355-0.784-0.523-0.241-0.152-0.494-0.286-0.73-0.447-0.146-0.099-0.27-0.233-0.405-0.35-0.204-0.178-0.405-0.359-0.615-0.53-0.134-0.108-0.279-0.2-0.419-0.299-0.004-0.003-0.007-0.007-0.011-0.009-0.246-0.039-0.299-0.264-0.419-0.427-0.18-0.24-0.404-0.375-0.714-0.296-0.052-0.067-0.095-0.144-0.157-0.2-0.129-0.116-0.281-0.129-0.442-0.066-0.142 0.056-0.284 0.112-0.425 0.168-0.022 0.009-0.050 0.014-0.063 0.032-0.194 0.234-0.488 0.214-0.741 0.297-0.083 0.027-0.169 0.050-0.27 0.080 0.063-0.18 0.136-0.345 0.181-0.517 0.113-0.442 0.214-0.889 0.319-1.334 0.045-0.19 0.099-0.379 0.134-0.57 0.023-0.135 0.029-0.276 0.024-0.412-0.011-0.332-0.254-0.501-0.577-0.427-0.050 0.012-0.115-0.037-0.177-0.060 0.306-0.514 0.391-1.025 0.289-1.59-0.067-0.368-0.056-0.748-0.079-1.124 0-0.004 0.001-0.010 0-0.014-0.073-0.375-0.142-0.751-0.225-1.124-0.014-0.067-0.076-0.132-0.134-0.18-0.224-0.185-0.473-0.342-0.633-0.596-0.026-0.042-0.076-0.069-0.116-0.103 0.164-0.092 0.32-0.187 0.483-0.271 0.236-0.125 0.313-0.348 0.33-0.582 0.022-0.304-0.006-0.61 0.004-0.916 0.007-0.21 0.039-0.418 0.065-0.626 0.052-0.416 0.141-0.83 0.152-1.248 0.014-0.513 0.234-0.959 0.368-1.433 0.096-0.345 0.169-0.695 0.256-1.043 0.014-0.059 0.045-0.115 0.066-0.172 0.062-0.164 0.136-0.317 0.126-0.507-0.007-0.129 0.053-0.264 0.092-0.395 0.042-0.141 0.095-0.279 0.142-0.418 0.066-0.192 0.119-0.382 0.33-0.487 0.194-0.096 0.333-0.261 0.445-0.452 0.231-0.395 0.474-0.781 0.712-1.172 0.079-0.129 0.083-0.258 0.014-0.395-0.019-0.037-0.022-0.093-0.010-0.135 0.039-0.142 0.299-0.299 0.448-0.303 0.197-0.006 0.383-0.042 0.52-0.218 0.157-0.204 0.336-0.391 0.498-0.59 0.062-0.076 0.102-0.168 0.155-0.251 0.020-0.032 0.040-0.066 0.069-0.086 0.144-0.099 0.2-0.237 0.197-0.406-0.004-0.477-0.009-0.954-0.011-1.432 0-0.026 0.003-0.052 0.003-0.049 0.348 0.167 0.698 0.33 1.044 0.501 0.277 0.135 0.56 0.2 0.867 0.121 0.155-0.040 0.276-0.122 0.32-0.276 0.034-0.115 0.118-0.138 0.211-0.165 0.205-0.060 0.414-0.112 0.612-0.188 0.658-0.254 1.307-0.537 1.972-0.771 0.307-0.109 0.645-0.125 0.966-0.197 0.399-0.090 0.794-0.194 1.191-0.293 0.019-0.004 0.036-0.020 0.053-0.019 0.447 0.036 0.606-0.319 0.809-0.605 0.258-0.363 0.432-0.77 0.582-1.189 0.024-0.072 0.065-0.135 0.106-0.218 0.294 0.391 0.586 0.753 0.783 1.182 0.119 0.258 0.267 0.506 0.418 0.748 0.144 0.231 0.445 0.277 0.681 0.106 0.079-0.057 0.136-0.050 0.218-0.017 0.145 0.057 0.294 0.111 0.447 0.142 0.257 0.053 0.498 0.136 0.74 0.247 0.29 0.132 0.635 0.139 0.81-0.201 0.040-0.078 0.135-0.126 0.224-0.205 0.032 0.286 0.101 0.527 0.28 0.727 0.102 0.112 0.214 0.194 0.366 0.195 0.283 0.004 0.546 0.096 0.796 0.213 0.299 0.139 0.771 0.096 1.005-0.138 0.099-0.101 0.217-0.181 0.329-0.273-0.020 0.273-0.047 0.534-0.055 0.796-0.009 0.306 0.306 0.595 0.603 0.63 0.537 0.065 0.988-0.154 1.44-0.385 0.085-0.043 0.167-0.090 0.263-0.144 0 0.152-0.013 0.296 0.003 0.435 0.019 0.164 0.073 0.322 0.092 0.485 0.029 0.254 0.032 0.511 0.062 0.765 0.014 0.122 0.065 0.241 0.103 0.36 0.036 0.108 0.085 0.213 0.116 0.322 0.075 0.26 0.224 0.382 0.49 0.365 0.211-0.014 0.421-0.047 0.643-0.075 0.003 0.057 0.013 0.144 0.010 0.227-0.014 0.419 0.105 0.803 0.283 1.18 0.204 0.431 0.48 0.811 0.755 1.195 0.039 0.053 0.086 0.103 0.136 0.146 0.19 0.162 0.19 0.406 0.279 0.612s0.175 0.416 0.297 0.602c0.369 0.554 0.589 1.166 0.715 1.811 0.095 0.487 0.207 0.966 0.343 1.442 0.079 0.276 0.088 0.572 0.134 0.857 0.042 0.267 0.108 0.531 0.132 0.8 0.034 0.379 0.046 0.761 0.056 1.142 0.009 0.358 0.029 0.718-0.004 1.073-0.032 0.349-0.119 0.692-0.191 1.037-0.080 0.382-0.172 0.763-0.257 1.143-0.012 0.050-0.013 0.105-0.013 0.157 0.001 0.228 0.009 0.45-0.089 0.674-0.070 0.159-0.073 0.352-0.090 0.53-0.034 0.352-0.188 0.646-0.412 0.91-0.043 0.050-0.079 0.108-0.109 0.167-0.192 0.383-0.365 0.777-0.577 1.147-0.271 0.475-0.573 0.933-0.867 1.396-0.080 0.126-0.174 0.25-0.28 0.356-0.194 0.195-0.207 0.46-0.279 0.697-0.108 0.355-0.172 0.722-0.267 1.083-0.062 0.236-0.149 0.462-0.213 0.698-0.030 0.112-0.023 0.234-0.043 0.35-0.020 0.118-0.052 0.237-0.080 0.366zM24.013 18.874c0.007-0.013 0.014-0.026 0.022-0.039 0.277 0 0.553 0.010 0.83-0.003 0.224-0.012 0.464 0.020 0.649-0.164 0.026-0.024 0.079-0.024 0.121-0.029 0.203-0.023 0.406-0.040 0.608-0.069 0.059-0.009 0.128-0.032 0.168-0.072 0.201-0.203 0.365-0.435 0.382-0.73 0.014-0.247-0.013-0.498 0.004-0.745 0.017-0.234-0.070-0.402-0.241-0.55-0.263-0.23-0.534-0.451-0.905-0.431-0.256 0.013-0.447-0.049-0.572-0.299 0.138-0.119 0.284-0.238 0.424-0.368 0.274-0.256 0.547-0.516 0.816-0.778 0.244-0.24 0.395-0.452 0.138-0.783-0.037-0.047-0.060-0.108-0.086-0.165-0.138-0.297-0.274-0.596-0.411-0.893-0.092-0.2-0.191-0.395-0.274-0.597-0.101-0.241-0.172-0.495-0.287-0.73-0.082-0.168-0.192-0.336-0.329-0.462-0.161-0.148-0.358-0.261-0.553-0.366-0.093-0.050-0.223-0.072-0.326-0.053-0.132 0.024-0.276 0.076-0.378 0.161-0.316 0.261-0.704 0.363-1.074 0.485-0.638 0.21-1.301 0.34-1.91 0.639-0.080 0.040-0.178 0.045-0.293 0.072 0.014-0.101 0.016-0.174 0.037-0.24 0.126-0.399 0.26-0.797 0.383-1.198 0.063-0.204 0.103-0.416 0.165-0.62 0.086-0.281 0.188-0.56 0.279-0.84 0.092-0.284 0.188-0.569 0.26-0.857 0.020-0.080-0.040-0.181-0.066-0.27-0.022-0.075-0.055-0.146-0.067-0.223-0.013-0.075-0.006-0.152-0.013-0.228-0.022-0.24-0.228-0.408-0.461-0.348-0.118 0.030-0.241 0.099-0.329 0.184-0.178 0.177-0.333 0.379-0.5 0.569-0.158 0.18-0.319 0.358-0.478 0.537-0.016 0.017-0.019 0.045-0.033 0.063-0.111 0.142-0.223 0.284-0.335 0.427-0.036-0.055-0.042-0.086-0.042-0.119-0.006-0.672-0.014-1.346-0.013-2.018 0-0.32-0.312-0.645-0.612-0.668-0.218-0.017-0.441-0.075-0.646-0.154-0.316-0.121-0.616-0.287-0.965-0.294-0.439-0.009-0.879-0.022-1.318-0.020-0.244 0.001-0.501-0.027-0.709 0.155-0.023 0.020-0.062 0.024-0.095 0.027-0.279 0.022-0.424 0.214-0.516 0.439-0.090 0.224-0.144 0.464-0.211 0.698-0.108 0.373-0.213 0.747-0.317 1.116-0.251-0.444-0.506-0.885-0.75-1.331-0.121-0.218-0.287-0.309-0.516-0.251-0.231 0.059-0.348 0.215-0.34 0.462 0.011 0.386 0.042 0.773 0.033 1.157-0.009 0.434-0.055 0.866-0.079 1.3-0.010 0.185 0.006 0.371-0.090 0.543-0.023 0.042-0.019 0.102-0.019 0.155-0.001 0.376-0.001 0.751-0.001 1.127 0 0.062 0 0.123 0 0.184-0.013 0.004-0.027 0.009-0.040 0.013-0.076-0.076-0.157-0.149-0.227-0.231-0.187-0.217-0.36-0.445-0.556-0.653-0.251-0.267-0.516-0.524-0.784-0.774-0.201-0.188-0.408-0.375-0.63-0.536-0.203-0.146-0.427-0.266-0.648-0.383-0.248-0.132-0.501-0.085-0.718 0.089-0.29 0.231-0.488 0.536-0.674 0.846-0.083 0.138-0.088 0.327-0.18 0.455-0.185 0.256-0.098 0.514-0.052 0.77 0.059 0.33 0.25 0.605 0.415 0.89 0.181 0.313 0.349 0.633 0.526 0.949 0.060 0.108 0.128 0.211 0.195 0.316 0.101 0.155 0.208 0.306 0.302 0.465 0.069 0.119 0.109 0.254 0.178 0.373 0.169 0.287 0.349 0.569 0.521 0.854 0.037 0.063 0.062 0.134 0.102 0.224-0.046-0.017-0.063-0.023-0.080-0.029-0.437-0.148-0.869-0.317-1.313-0.437-0.57-0.154-1.152-0.269-1.729-0.396-0.125-0.027-0.256-0.056-0.381-0.045-0.246 0.020-0.47 0.332-0.447 0.585 0.004 0.049-0.006 0.101-0.017 0.149-0.020 0.082-0.063 0.162-0.067 0.244-0.017 0.348-0.013 0.698-0.037 1.044-0.016 0.234 0.062 0.404 0.248 0.541 0.095 0.070 0.172 0.165 0.251 0.253 0.023 0.026 0.049 0.075 0.039 0.101-0.059 0.148-0.128 0.293-0.192 0.439-0.043 0.098-0.128 0.198-0.122 0.294 0.022 0.406 0.043 0.817 0.116 1.216 0.046 0.254 0.088 0.503 0.096 0.763 0.010 0.284 0.204 0.629 0.527 0.603 0.149-0.012 0.306-0.042 0.444-0.101 0.434-0.187 0.859-0.391 1.288-0.586 0.086-0.039 0.177-0.070 0.286-0.112-0.037 0.161-0.072 0.286-0.095 0.412-0.066 0.356-0.125 0.714-0.192 1.070-0.050 0.271-0.131 0.539-0.155 0.811-0.027 0.299 0.092 0.576 0.31 0.773 0.276 0.248 0.632 0.408 0.823 0.754 0.065 0.118 0.169 0.215 0.23 0.336 0.098 0.194 0.274 0.325 0.481 0.289 0.204-0.036 0.396-0.118 0.526-0.292 0.214-0.287 0.415-0.583 0.63-0.869 0.092-0.122 0.205-0.227 0.329-0.36 0.009 0.169 0.006 0.299 0.023 0.425 0.068 0.485 0.135 0.971 0.218 1.455 0.046 0.266 0.129 0.518 0.421 0.635 0.144 0.057 0.273 0.154 0.409 0.233 0.243 0.142 0.686 0.056 0.87-0.154 0.19-0.217 0.307-0.467 0.411-0.731 0.073-0.187 0.171-0.363 0.263-0.556 0.065 0.167 0.118 0.309 0.177 0.45 0.060 0.145 0.128 0.287 0.187 0.432 0.020 0.050 0.036 0.109 0.033 0.162-0.022 0.322 0.119 0.556 0.435 0.63 0.214 0.050 0.425 0.112 0.638 0.162 0.211 0.050 0.441 0.024 0.662 0.022 0.233-0.003 0.467-0.014 0.699-0.030 0.297-0.022 0.596-0.046 0.892-0.079 0.319-0.036 0.517-0.201 0.541-0.541 0.006-0.075 0.017-0.164 0.062-0.215 0.148-0.171 0.169-0.381 0.21-0.584 0.047-0.244 0.085-0.49 0.119-0.698 0.257 0.366 0.526 0.753 0.8 1.133 0.046 0.063 0.115 0.126 0.187 0.148 0.139 0.043 0.287 0.079 0.432 0.079 0.223 0 0.447-0.057 0.666-0.045 0.359 0.022 0.602-0.213 0.88-0.363 0.080-0.043 0.134-0.174 0.157-0.274 0.026-0.113 0.017-0.238 0.001-0.356-0.062-0.434-0.128-0.866-0.2-1.298-0.122-0.748-0.251-1.495-0.372-2.243-0.027-0.172-0.032-0.349-0.046-0.523 0.067 0.055 0.099 0.116 0.148 0.161 0.391 0.358 0.783 0.714 1.176 1.068 0.213 0.191 0.431 0.376 0.641 0.57 0.158 0.145 0.302 0.306 0.462 0.447 0.292 0.254 0.744 0.18 1.015 0.001 0.29-0.19 0.395-0.5 0.477-0.821 0.079-0.31 0.049-0.602-0.146-0.855-0.254-0.327-0.524-0.642-0.791-0.959-0.144-0.172-0.294-0.336-0.442-0.503z"></path>
</svg>
