<!-- Generated by IcoMoon.io -->
<svg version="1.1" xmlns="http://www.w3.org/2000/svg" width="32" height="32" viewBox="0 0 32 32">
<title>factions-chaos-khorne-bloodbound</title>
<path fill="#fff" d="M17.118 32c-0.021 0-0.041 0-0.061 0-0.502-0.11-0.57-0.472-0.575-0.914-0.004-0.34-0.091-0.68-0.145-1.020-0.047-0.302-0.243-0.519-0.484-0.482-0.273 0.042-0.29 0.28-0.328 0.509-0.061 0.367-0.123 0.74-0.246 1.089-0.169 0.478-0.248 0.503-0.758 0.489-0.111-0.003-0.224 0.004-0.335-0.003-0.371-0.021-0.629-0.242-0.668-0.613-0.046-0.426-0.175-0.809-0.478-1.119-0.073-0.075-0.169-0.128-0.254-0.191-0.058 0.11-0.153 0.214-0.166 0.329-0.025 0.209 0.037 0.434-0.012 0.635-0.041 0.166-0.162 0.405-0.292 0.438-0.187 0.047-0.443 0.014-0.548-0.258-0.108-0.282-0.234-0.558-0.371-0.828-0.069-0.136-0.158-0.309-0.281-0.356-0.077-0.030-0.225 0.154-0.356 0.214-0.153 0.071-0.318 0.137-0.481 0.144-0.050 0.001-0.144-0.2-0.153-0.315-0.031-0.373 0.046-0.773-0.063-1.116-0.179-0.567-0.148-1.114-0.071-1.679 0.067-0.49 0.050-0.965-0.227-1.408-0.085-0.137-0.116-0.329-0.112-0.494 0.008-0.314-0.119-0.541-0.342-0.741-0.188-0.169-0.371-0.346-0.535-0.539-0.306-0.36-0.49-0.378-0.856-0.052-0.182 0.162-0.346 0.345-0.54 0.489-0.357 0.263-0.702 0.444-1.212 0.056-0.227-0.173-0.408-0.404-0.613-0.605-0.332-0.324-0.694-0.622-0.996-0.971-0.584-0.673-0.756-1.506-0.817-2.367-0.044-0.626-0.072-1.255-0.132-1.88-0.020-0.204-0.071-0.434-0.187-0.596-0.393-0.546-0.388-1.268 0.116-1.727 0.532-0.484 0.671-1.106 0.758-1.764 0.012-0.088-0.001-0.182-0.018-0.271-0.178-0.911-0.418-1.815-0.523-2.735-0.094-0.831-0.044-1.682 0.201-2.497 0.178-0.588 0.384-1.169 0.588-1.749 0.14-0.4 0.252-0.818 0.455-1.184 0.305-0.554 0.667-1.082 1.027-1.605 0.292-0.422 0.627-0.813 0.929-1.23 0.458-0.633 1.058-1.098 1.773-1.373 0.837-0.322 1.692-0.607 2.558-0.837s1.756-0.373 2.633-0.557c0.197-0.042 0.387-0.114 0.584-0.153 0.333-0.065 0.672-0.173 1.004-0.163 1.395 0.039 2.791 0.097 4.183 0.187 0.396 0.026 0.804 0.136 1.17 0.294 0.711 0.309 1.386 0.701 2.093 1.018 0.818 0.367 1.616 0.767 2.191 1.472 0.393 0.481 0.771 0.995 1.043 1.549 0.246 0.501 0.339 1.077 0.501 1.62 0.052 0.174 0.102 0.35 0.165 0.52 0.315 0.851 0.726 1.681 0.93 2.558 0.284 1.218 0.43 2.476 0.229 3.731-0.14 0.877 0.009 1.76-0.089 2.632-0.128 1.145 0.214 2.205 0.503 3.279 0.029 0.106 0.072 0.22 0.142 0.299 0.31 0.346 0.341 0.736 0.222 1.162-0.038 0.136-0.041 0.281-0.076 0.418-0.157 0.608-0.447 1.106-1.105 1.288-0.106 0.030-0.226 0.061-0.305 0.131-0.505 0.447-1 0.906-1.499 1.36-0.187 0.17-0.367 0.35-0.57 0.498-0.275 0.201-0.643 0.144-0.982-0.123-0.45-0.353-0.829-0.225-1.017 0.309-0.193 0.552-0.455 1.081-0.635 1.635-0.224 0.689-0.524 1.362-0.506 2.114 0.010 0.455-0.004 0.911-0.026 1.367-0.013 0.275-0.413 0.737-0.668 0.756-0.309 0.024-0.332-0.268-0.435-0.464-0.014-0.027-0.024-0.065-0.046-0.077-0.133-0.064-0.268-0.154-0.407-0.165-0.046-0.004-0.131 0.197-0.157 0.314-0.030 0.136-0.029 0.284-0.018 0.424 0.035 0.503-0.201 0.889-0.574 1.175-0.116 0.090-0.361 0.048-0.533 0.007-0.047-0.012-0.068-0.238-0.059-0.363 0.033-0.401 0.111-0.8 0.122-1.201 0.008-0.297-0.19-0.461-0.463-0.427-0.235 0.029-0.239 0.234-0.26 0.416-0.017 0.14-0.021 0.288-0.069 0.418-0.18 0.48-0.35 0.969-0.583 1.422-0.086 0.169-0.333 0.261-0.518 0.371-0.080 0.048-0.19 0.052-0.286 0.076zM11.782 9.417c-0.105 0.141-0.158 0.239-0.235 0.315-0.431 0.424-0.876 0.834-1.299 1.264-0.282 0.288-0.648 0.52-0.656 1.003-0.014 0.851-0.069 1.702-0.075 2.553-0.003 0.489 0.265 0.697 0.797 0.697 0.284 0 0.569-0.026 0.85 0.004 0.752 0.081 1.499 0.246 2.251 0.268 1.294 0.038 2.592 0.001 3.888-0.022 1.122-0.021 2.242-0.071 3.364-0.099 0.425-0.010 0.851 0.010 1.276 0.003 0.341-0.005 0.464-0.136 0.478-0.477 0.013-0.284 0.027-0.566 0.033-0.85 0.013-0.626 0.031-1.251 0.021-1.877-0.003-0.133-0.101-0.284-0.193-0.392-0.524-0.614-1.059-1.221-1.592-1.828-0.152-0.173-0.31-0.339-0.532-0.58 0.217-0.089 0.378-0.203 0.545-0.216 0.424-0.033 0.85-0.033 1.275-0.022 0.267 0.007 0.418-0.116 0.43-0.361 0.024-0.512 0.037-1.029 0.012-1.541-0.013-0.265-0.177-0.412-0.492-0.405-1.003 0.017-2.005 0.007-3.008-0.012-0.115-0.003-0.272-0.098-0.328-0.196-0.043-0.076 0.007-0.252 0.075-0.336 0.222-0.275 0.467-0.532 0.712-0.786 0.284-0.294 0.607-0.473 1.046-0.454 0.545 0.026 1.094 0.007 1.638-0.035 0.129-0.010 0.343-0.176 0.353-0.288 0.047-0.472 0.042-0.949 0.039-1.425-0.001-0.278-0.156-0.424-0.439-0.431-1.033-0.031-2.066-0.067-3.098-0.094-0.085-0.003-0.191 0.025-0.252 0.080-0.348 0.306-0.69 0.618-1.024 0.94-0.45 0.434-0.882 0.886-1.337 1.315-0.216 0.203-0.482 0.176-0.695-0.014-0.224-0.2-0.464-0.384-0.68-0.593-0.461-0.447-0.965-0.868-1.349-1.375-0.242-0.319-0.497-0.425-0.838-0.414-0.89 0.030-1.779 0.086-2.668 0.119-0.295 0.010-0.514 0.128-0.539 0.422-0.041 0.51-0.068 1.026-0.027 1.535 0.012 0.152 0.258 0.388 0.418 0.407 0.519 0.060 1.050 0.065 1.574 0.039 0.475-0.024 0.869 0.050 1.165 0.469 0.148 0.21 0.356 0.383 0.552 0.554 0.237 0.207 0.241 0.367-0.054 0.49-0.256 0.107-0.544 0.207-0.814 0.2-0.757-0.017-1.515-0.075-2.268-0.15-0.301-0.030-0.463 0.088-0.507 0.341-0.054 0.306-0.050 0.621-0.065 0.933-0.030 0.617 0.45 1.235 1.132 1.173 0.241-0.022 0.488-0.013 0.728 0.009 0.128 0.014 0.25 0.084 0.416 0.143zM10.131 21.246c0.553-0.035 0.978-0.084 1.401-0.081 0.452 0.003 0.824-0.188 1.186-0.412 0.273-0.169 0.545-0.346 0.79-0.554 0.604-0.511 0.586-1.156-0.071-1.625-0.323-0.23-0.697-0.403-1.067-0.55-0.871-0.348-1.732-0.748-2.635-0.97-0.788-0.195-1.614-0.227-2.369-0.59-0.244-0.118-0.575 0.056-0.724 0.293-0.091 0.145-0.187 0.29-0.301 0.416-0.271 0.295-0.323 0.63-0.169 0.983 0.311 0.712 0.676 1.39 1.216 1.967 0.511 0.548 1.086 0.965 1.842 1.068 0.339 0.047 0.685 0.043 0.901 0.055zM20.937 21.191c0.171-0.017 0.345-0.018 0.511-0.055 0.66-0.146 1.327-0.273 1.974-0.468 0.379-0.114 0.762-0.29 1.073-0.528 0.286-0.22 0.505-0.544 0.707-0.852 0.246-0.374 0.678-0.65 0.698-1.145 0.014-0.358-0.014-0.723-0.072-1.077-0.088-0.536-0.26-0.641-0.795-0.55-0.688 0.116-1.377 0.226-2.060 0.358-0.803 0.156-1.604 0.32-2.4 0.505-0.25 0.058-0.478 0.263-0.723 0.278-0.537 0.033-0.996 0.177-1.411 0.533-0.263 0.226-0.318 0.48-0.105 0.76 0.116 0.153 0.18 0.348 0.258 0.528 0.043 0.101 0.044 0.224 0.101 0.316 0.511 0.841 1.273 1.282 2.243 1.397zM16.539 26.418c0.407-0.099 0.898-0.183 1.362-0.344 0.37-0.128 0.426-0.369 0.21-0.68-0.235-0.339-0.404-0.695-0.486-1.099-0.031-0.154-0.116-0.301-0.191-0.442-0.258-0.49-0.532-0.963-0.512-1.556 0.012-0.361-0.064-0.726-0.106-1.088-0.022-0.197-0.095-0.339-0.335-0.356-0.235-0.018-0.4 0.038-0.456 0.284-0.068 0.295-0.143 0.59-0.197 0.888-0.088 0.481-0.268 0.911-0.51 1.345-0.341 0.612-0.58 1.286-0.816 1.95-0.107 0.302 0.050 0.57 0.377 0.6 0.443 0.042 0.786 0.298 1.187 0.414 0.125 0.034 0.256 0.044 0.473 0.082z"></path>
<path fill="#fff" d="M18.931 12.095c-0.282 0.046-0.486 0.107-0.69 0.106-0.689-0.003-1.377-0.038-2.066-0.042-0.779-0.005-1.558 0.009-2.336 0.013-0.132 0.001-0.267 0.014-0.393-0.010-0.118-0.024-0.32-0.086-0.323-0.139-0.008-0.169 0.007-0.386 0.107-0.506 0.348-0.416 0.733-0.797 1.106-1.192 0.428-0.452 0.851-0.909 1.29-1.348 0.065-0.065 0.22-0.086 0.319-0.065 0.111 0.024 0.224 0.103 0.306 0.187 0.756 0.762 1.51 1.524 2.249 2.302 0.161 0.17 0.255 0.404 0.431 0.694z"></path>
</svg>
