<!-- Generated by IcoMoon.io -->
<svg version="1.1" xmlns="http://www.w3.org/2000/svg" width="32" height="32" viewBox="0 0 32 32">
<title>factions-order-sylvaneth</title>
<path fill="#fff" d="M15.829 0c0.72 0.643 0.876 1.025 0.593 1.459 0.658 0.671 0.126 1.519 0.301 2.27 0.659-0.377 1.285-0.742 1.921-1.088 0.064-0.034 0.193 0.053 0.372 0.108-1.125 2.199-1.634 4.506-1.479 6.978 0.119-0.256 0.251-0.507 0.354-0.77 0.517-1.317 1.349-2.435 2.277-3.473 0.678-0.757 1.44-1.443 2.205-2.114 0.19-0.167 0.537-0.155 0.811-0.225-0.087 0.254-0.111 0.557-0.268 0.754-0.983 1.222-1.717 2.58-2.364 4-0.23 0.506-0.655 0.926-0.865 1.437-0.616 1.493-1.002 3.017-0.843 4.681 0.153 1.595 0.395 3.153 0.993 4.639 0.396 0.984 0.98 1.848 1.833 2.506 1.176 0.906 3.268 0.426 4.149-0.94 0.57-0.881 0.526-1.862 0.471-2.837-0.088-1.57-0.525-3.016-1.833-4.011-0.944-0.719-2.53-0.668-2.962 1.001-0.277 1.070-0.11 2.076 0.259 3.062 0.134 0.358 0.411 0.683 0.689 0.959 0.305 0.302 0.662 0.243 0.953-0.079 0.487-0.536 0.564-1.561 0.193-2.191-0.191-0.325-0.412-0.164-0.652-0.102-0.174 0.045-0.363 0.026-0.545 0.037 0.023-0.193-0.009-0.416 0.079-0.571 0.206-0.359 0.454-0.671 0.953-0.693 0.597-0.027 1.041 0.21 1.31 0.697 0.499 0.904 0.654 3.139-0.443 4.109-0.499 0.442-1.664 0.66-2.347 0.309-0.972-0.5-1.703-1.238-1.98-2.32-0.363-1.416-0.614-2.867 0.11-4.232 0.438-0.827 1.037-1.597 2.080-1.732 1.050-0.136 2.1-0.373 3.123 0.21 2.046 1.168 3.164 2.849 3.055 5.26-0.038 0.828-0.038 1.66-0.111 2.484-0.245 2.762-2.541 4.38-5.042 4.244-0.968-0.052-1.774-0.563-2.58-1.044-0.092-0.056-0.188-0.106-0.287-0.151-0.024-0.011-0.064 0.014-0.178 0.043 0.281 0.65 0.496 1.321 0.843 1.916 0.689 1.184 1.452 2.324 2.175 3.489 0.085 0.138 0.099 0.32 0.145 0.481-0.201-0.009-0.466 0.060-0.593-0.042-0.744-0.601-1.554-1.161-2.155-1.889-0.868-1.050-1.596-2.217-2.343-3.361-0.251-0.384-0.374-0.85-0.626-1.284 0 0.625-0.042 1.254 0.012 1.875 0.054 0.622 0.188 1.239 0.315 1.854 0.13 0.633 0.247 1.276 0.454 1.886 0.198 0.584 0.503 1.132 0.791 1.759-1.079 0.145-1.509-0.784-2.373-1.196 0 0.228 0.009 0.389-0.001 0.549-0.056 0.822-0.057 1.656-0.203 2.461-0.056 0.306-0.449 0.552-0.688 0.824-0.247-0.247-0.564-0.453-0.725-0.746-0.469-0.852-0.33-1.789-0.263-2.707 0.008-0.11 0.023-0.218 0.052-0.488-0.258 0.191-0.388 0.294-0.523 0.388-0.431 0.296-0.856 0.606-1.306 0.868-0.119 0.069-0.328-0.014-0.495-0.027 0.024-0.152 0.008-0.328 0.080-0.452 0.201-0.343 0.423-0.675 0.663-0.993 0.748-0.99 0.894-2.153 0.99-3.334 0.056-0.683 0.123-1.366 0.176-2.049 0.012-0.167-0.014-0.335-0.028-0.663-0.443 0.884-0.774 1.637-1.182 2.343-0.976 1.688-2.159 3.206-3.79 4.32-0.104 0.070-0.275 0.045-0.415 0.062 0.018-0.155-0.014-0.339 0.060-0.461 0.815-1.364 1.652-2.715 2.465-4.080 0.18-0.302 0.287-0.65 0.428-0.976-0.034-0.037-0.068-0.072-0.1-0.108-0.161 0.080-0.327 0.152-0.481 0.243-1.641 0.961-3.375 0.994-5.062 0.275-1.329-0.565-2.316-1.604-2.511-3.111-0.174-1.348-0.298-2.724-0.232-4.079 0.098-2.030 1.921-4.225 3.917-4.652 1.265-0.271 2.522-0.157 3.6 0.917 1.352 1.347 1.42 2.804 0.991 4.511-0.193 0.766-0.546 1.389-0.923 2.045-0.709 1.235-3.161 1.455-3.993-0.088-0.325-0.602-0.258-1.431-0.309-2.16-0.020-0.294 0.1-0.605 0.184-0.9 0.231-0.812 1.246-1.29 2.023-0.961 0.377 0.16 0.508 0.445 0.446 1.031-0.481-0.282-0.929-0.392-1.284 0.187-0.301 0.49-0.142 1.831 0.297 2.205 0.457 0.388 0.948 0.367 1.334-0.090 0.643-0.758 1.109-3.425 0.258-4.537-0.639-0.835-1.911-0.909-2.674-0.297-1.022 0.818-1.606 1.928-1.774 3.184-0.186 1.383-0.198 2.782 0.723 4.006 0.993 1.318 3.166 1.445 4.233 0.186 1.040-1.227 1.703-2.627 2.114-4.209 0.46-1.771 0.477-3.517 0.138-5.264-0.18-0.925-0.617-1.809-1.012-2.678-0.777-1.714-1.649-3.379-2.815-4.872-0.117-0.149-0.198-0.327-0.296-0.491 0.028-0.045 0.058-0.091 0.087-0.136 0.178 0.062 0.382 0.087 0.529 0.191 1.055 0.748 2.014 1.615 2.7 2.713 0.723 1.157 1.345 2.376 2.011 3.569 0.035 0.062 0.064 0.129 0.179 0.159 0.034-1.257 0.094-2.511-0.31-3.676-0.414-1.153-1.020-2.237-1.565-3.414 0.994-0.104 1.505 0.818 2.359 1.195-0.023-0.193-0.041-0.304-0.049-0.415-0.088-1.265-0.239-2.545 0.917-3.481 0.037 0 0.073 0 0.11 0z"></path>
</svg>
