<!-- Generated by IcoMoon.io -->
<svg version="1.1" xmlns="http://www.w3.org/2000/svg" width="32" height="32" viewBox="0 0 32 32">
<title>factions-death-flesh-eater-courts</title>
<path fill="#fff" d="M31.999 17.909c-0.043 0.075-0.087 0.152-0.127 0.224-0.022 0-0.034 0.003-0.043 0-0.094-0.027-0.187-0.055-0.282-0.082-0.017 0.089-0.049 0.179-0.049 0.268 0 0.509 0.028 1.018 0.007 1.525-0.039 0.917-0.32 1.786-0.572 2.661-0.296 1.032-0.628 2.048-1.083 3.022-0.143 0.303-0.31 0.58-0.553 0.811-0.356 0.338-0.713 0.678-1.071 1.015-0.039 0.036-0.084 0.066-0.126 0.099-0.015-0.008-0.032-0.017-0.048-0.025 0.134-0.481 0.233-0.976 0.415-1.438 0.18-0.461 0.243-0.928 0.235-1.409-0.015-0.878-0.225-1.714-0.597-2.506-0.077-0.165-0.184-0.32-0.305-0.456-0.061-0.068-0.186-0.117-0.278-0.112-0.176 0.008-0.351 0.057-0.524 0.098-0.205 0.048-0.412 0.092-0.611 0.158-0.148 0.049-0.303 0.11-0.426 0.204-0.208 0.158-0.397 0.342-0.588 0.523-0.080 0.075-0.157 0.161-0.215 0.253-0.229 0.363-0.447 0.735-0.679 1.097-0.066 0.102-0.164 0.182-0.247 0.271-0.027-0.007-0.053-0.014-0.080-0.022-0.011-0.095-0.050-0.2-0.027-0.285 0.053-0.191 0.122-0.384 0.212-0.561 0.314-0.609 0.64-1.215 0.966-1.818 0.082-0.152 0.074-0.289-0.006-0.443-0.127-0.247-0.245-0.502-0.352-0.759-0.242-0.572-0.688-0.938-1.213-1.227-0.137-0.075-0.282-0.134-0.421-0.208-0.426-0.228-0.839-0.184-1.24 0.061-0.19 0.116-0.379 0.148-0.586 0.038-0.117-0.063-0.138-0.143-0.103-0.261 0.025-0.084 0.052-0.175 0.046-0.26-0.025-0.401-0.046-0.804-0.101-1.201-0.043-0.313-0.123-0.623-0.205-0.93-0.031-0.115-0.098-0.231-0.18-0.316-0.285-0.299-0.375-0.66-0.384-1.057-0.013-0.496-0.045-0.992-0.063-1.489-0.007-0.207-0.061-0.372-0.25-0.493-0.177-0.115-0.232-0.303-0.21-0.471 0.137-0.035 0.246-0.075 0.358-0.088 0.071-0.008 0.148 0.022 0.222 0.038 0.138 0.029 0.277 0.082 0.417 0.087 0.474 0.014 0.949 0.013 1.423 0.017 0.061 0 0.124-0.007 0.184 0.006 0.321 0.064 0.482-0.094 0.602-0.376 0.18-0.422 0.299-0.85 0.303-1.311 0.006-0.615 0.031-1.229 0.035-1.844 0.006-0.841-0.151-1.641-0.607-2.368-0.18-0.288-0.317-0.602-0.478-0.903-0.12-0.226-0.113-0.45-0.001-0.674 0.155-0.312 0.389-0.544 0.704-0.69 0.177-0.084 0.309-0.035 0.37 0.15 0.032 0.099 0.035 0.208 0.043 0.313 0.027 0.375 0.197 0.579 0.553 0.678 0.099 0.028 0.196 0.082 0.281 0.141 0.594 0.407 1.167 0.847 1.781 1.22 0.918 0.558 1.711 1.259 2.41 2.060 0.405 0.464 0.73 1.001 1.065 1.521 0.247 0.384 0.451 0.797 0.682 1.192 0.358 0.614 0.547 1.294 0.777 1.957 0.424 1.222 0.711 2.475 0.806 3.768 0.004 0.060 0.021 0.12 0.032 0.179 0 0.138 0 0.284 0 0.429zM29.465 11.711c-0.018 0.008-0.036 0.018-0.056 0.027 0.020 0.070 0.036 0.141 0.057 0.211 0.168 0.537 0.368 1.066 0.495 1.612 0.203 0.865 0.25 1.765 0.598 2.597 0.008 0.020 0.004 0.045 0.004 0.067-0.003 1.381-0.007 2.761-0.011 4.141 0 0.049 0 0.098 0 0.148 0.048-0.034 0.064-0.067 0.070-0.103 0.073-0.463 0.143-0.925 0.218-1.388 0.027-0.158 0.108-0.314 0.101-0.47-0.043-0.841-0.073-1.687-0.169-2.524-0.161-1.395-0.573-2.727-1.118-4.018-0.045-0.108-0.126-0.2-0.189-0.299zM26.154 9.918c0.022 0.112 0.038 0.214 0.064 0.312 0.091 0.327 0.212 0.65 0.277 0.983 0.254 1.321 0.341 2.658 0.335 4-0.003 0.513-0.046 1.027-0.061 1.54-0.004 0.124 0.028 0.25 0.043 0.375 0.201-0.21 0.252-0.451 0.25-0.696-0.001-0.899 0.011-1.799-0.034-2.695-0.046-0.931-0.158-1.859-0.232-2.788-0.035-0.429-0.337-0.703-0.567-1.019-0.008-0.008-0.032-0.006-0.075-0.011z"></path>
<path fill="#fff" d="M4.157 27.738c-0.384-0.373-0.755-0.762-1.157-1.114-0.369-0.323-0.661-0.689-0.868-1.134-0.382-0.82-0.77-1.638-0.998-2.517-0.208-0.809-0.397-1.626-0.57-2.443-0.059-0.281-0.060-0.577-0.060-0.868 0-0.474 0.022-0.949 0.036-1.423 0.006-0.201-0.029-0.231-0.222-0.175-0.211 0.061-0.331-0.025-0.316-0.261 0.017-0.278 0.060-0.555 0.101-0.83 0.242-1.662 0.697-3.264 1.405-4.786 0.442-0.95 1.018-1.82 1.69-2.628 0.696-0.837 1.455-1.605 2.348-2.235 0.725-0.513 1.435-1.047 2.155-1.565 0.126-0.091 0.266-0.164 0.405-0.233 0.124-0.063 0.186-0.154 0.182-0.292-0.001-0.034-0.004-0.067-0.001-0.101 0.025-0.219 0.099-0.264 0.312-0.207 0.342 0.092 0.537 0.335 0.695 0.633 0.119 0.222 0.166 0.429 0.035 0.663-0.159 0.281-0.296 0.574-0.463 0.851-0.264 0.439-0.503 0.889-0.538 1.41-0.049 0.718-0.082 1.438-0.113 2.158-0.010 0.222 0.018 0.446 0.020 0.669 0.004 0.516 0.21 0.966 0.45 1.405 0.028 0.050 0.112 0.102 0.168 0.099 0.356-0.013 0.711-0.045 1.068-0.059 0.189-0.007 0.383-0.015 0.565 0.022 0.239 0.050 0.451 0.053 0.647-0.109 0.021-0.018 0.048-0.029 0.073-0.042 0.010-0.004 0.021-0.004 0.043-0.007 0.055 0.131 0.038 0.243-0.078 0.335-0.035 0.028-0.071 0.053-0.108 0.080-0.224 0.166-0.219 0.197-0.035 0.393 0.062 0.066 0.11 0.175 0.106 0.263-0.025 0.625-0.063 1.25-0.105 1.874-0.006 0.089-0.038 0.201-0.098 0.259-0.376 0.355-0.519 0.818-0.595 1.301-0.068 0.435-0.098 0.876-0.138 1.315-0.008 0.088-0.003 0.18 0.017 0.266 0.021 0.096 0.057 0.194-0.045 0.256-0.103 0.061-0.218 0.124-0.344 0.046-0.397-0.242-0.827-0.284-1.278-0.224-0.038 0.006-0.078 0.011-0.113 0.028-0.505 0.232-0.985 0.5-1.367 0.916-0.060 0.066-0.115 0.14-0.152 0.219-0.172 0.363-0.345 0.725-0.496 1.097-0.038 0.094-0.022 0.238 0.024 0.33 0.274 0.555 0.576 1.099 0.846 1.655 0.105 0.218 0.165 0.46 0.224 0.696 0.020 0.078-0.029 0.175-0.048 0.263-0.021 0.007-0.041 0.014-0.061 0.020-0.063-0.068-0.143-0.129-0.187-0.208-0.233-0.407-0.453-0.822-0.689-1.227-0.046-0.078-0.14-0.13-0.212-0.193-0.116-0.101-0.254-0.186-0.347-0.305-0.178-0.231-0.397-0.363-0.681-0.419-0.268-0.053-0.53-0.133-0.795-0.203-0.278-0.073-0.537 0.021-0.664 0.28-0.533 1.076-0.851 2.203-0.671 3.413 0.084 0.561 0.312 1.080 0.704 1.51 0.021 0.024 0.054 0.057 0.050 0.081-0.043 0.217 0.109 0.326 0.236 0.449 0.048 0.048 0.096 0.092 0.144 0.141 0.166 0.172 0.164 0.211-0.022 0.352-0.027 0.020-0.052 0.042-0.078 0.061-0.010-0.001-0.021-0.001-0.032-0.001zM2.593 11.928c-0.088 0.081-0.171 0.123-0.201 0.19-0.145 0.319-0.306 0.633-0.41 0.966-0.347 1.111-0.649 2.236-0.841 3.385-0.071 0.428-0.098 0.867-0.094 1.301 0.006 0.53 0.056 1.059 0.105 1.588 0.038 0.411 0.101 0.819 0.158 1.229 0.007 0.053 0.049 0.102 0.075 0.152 0.017-0.007 0.034-0.015 0.052-0.022 0.003-0.049 0.011-0.099 0.007-0.148-0.024-0.277-0.077-0.555-0.073-0.832 0.015-1.011 0.050-2.020 0.075-3.030 0.003-0.082-0.020-0.166-0.013-0.249 0.008-0.098 0.034-0.196 0.060-0.292 0.013-0.046 0.059-0.085 0.070-0.131 0.085-0.341 0.189-0.679 0.242-1.025 0.123-0.795 0.287-1.581 0.537-2.345 0.025-0.077 0.070-0.148 0.11-0.219 0.082-0.145 0.182-0.284 0.14-0.517zM4.973 17.297c0.021 0 0.042 0.001 0.061 0.001 0.014-0.073 0.038-0.145 0.038-0.219 0-0.507-0.008-1.015-0.008-1.522 0-1.118 0.053-2.232 0.246-3.335 0.096-0.553 0.243-1.099 0.368-1.646 0.013-0.055 0.018-0.11 0.027-0.165-0.020-0.010-0.039-0.020-0.057-0.029-0.17 0.228-0.345 0.453-0.509 0.686-0.035 0.050-0.043 0.13-0.039 0.194 0.028 0.394-0.034 0.777-0.098 1.163-0.049 0.295-0.035 0.601-0.059 0.9-0.046 0.567-0.109 1.132-0.144 1.7-0.021 0.355-0.017 0.713 0 1.068 0.015 0.338 0.059 0.675 0.098 1.012 0.007 0.067 0.050 0.129 0.077 0.193z"></path>
<path fill="#fff" d="M15.972 8.374c0.739-0.228 1.333 0.172 1.958 0.451 0.563 0.252 0.881 0.703 1.072 1.264 0.162 0.474 0.349 0.945 0.46 1.431 0.138 0.612 0.239 1.238 0.302 1.863 0.049 0.479 0.021 0.967 0.017 1.452 0 0.073-0.038 0.159-0.085 0.215-0.105 0.12-0.154 0.229-0.078 0.39 0.096 0.204 0.215 0.38 0.37 0.549 0.112 0.122 0.141 0.319 0.204 0.482 0.046 0.123 0.095 0.245 0.131 0.372 0.038 0.133 0.067 0.268 0.085 0.404 0.017 0.116 0.011 0.233 0.020 0.351 0.008 0.136 0.061 0.239 0.183 0.319 0.175 0.113 0.187 0.189 0.109 0.383-0.084 0.208-0.197 0.383-0.418 0.477-0.084 0.036-0.154 0.11-0.221 0.176-0.211 0.204-0.415 0.418-0.629 0.619-0.148 0.14-0.267 0.147-0.44 0.045-0.254-0.148-0.335-0.109-0.408 0.169-0.087 0.328-0.143 0.678-0.298 0.973-0.129 0.243-0.074 0.387 0.063 0.567 0.049 0.064 0.136 0.136 0.046 0.233-0.095 0.103-0.295 0.154-0.38 0.067-0.151-0.154-0.306-0.194-0.513-0.13-0.235 0.073-0.411 0.205-0.51 0.426-0.201 0.449-0.375 0.907-0.404 1.405-0.007 0.112-0.161 0.236-0.275 0.219-0.147-0.022-0.173-0.138-0.144-0.254 0.099-0.384-0.027-0.753-0.067-1.128-0.014-0.13-0.094-0.212-0.239-0.205s-0.18 0.095-0.196 0.222c-0.050 0.446-0.089 0.89-0.007 1.336 0.024 0.13-0.027 0.222-0.15 0.263-0.137 0.043-0.191-0.049-0.226-0.159-0.127-0.404-0.253-0.809-0.382-1.213-0.071-0.224-0.2-0.408-0.38-0.561-0.074-0.063-0.133-0.087-0.219-0.025-0.193 0.14-0.391 0.099-0.584-0.003-0.186-0.098-0.249-0.261-0.228-0.464 0.008-0.089 0.007-0.179 0.022-0.267 0.032-0.191-0.001-0.369-0.116-0.524-0.068-0.092-0.068-0.161 0.018-0.246 0.168-0.164 0.155-0.266-0.029-0.408-0.347-0.268-0.593-0.233-0.862 0.124-0.171 0.226-0.51 0.232-0.703 0.022-0.12-0.13-0.249-0.254-0.386-0.366-0.295-0.239-0.449-0.547-0.489-0.921-0.029-0.278-0.066-0.555-0.11-0.83-0.011-0.067-0.053-0.133-0.095-0.19-0.145-0.198-0.147-0.34 0.013-0.527 0.043-0.050 0.089-0.103 0.144-0.14 0.235-0.157 0.362-0.383 0.464-0.639 0.067-0.166 0.049-0.312-0.020-0.467-0.022-0.052-0.038-0.129-0.017-0.176 0.129-0.296 0.26-0.593 0.405-0.881 0.078-0.154 0.062-0.275 0.001-0.439-0.105-0.285-0.158-0.59-0.212-0.89-0.094-0.512 0.098-0.977 0.252-1.451 0.074-0.231 0.103-0.475 0.154-0.714 0.015-0.070 0.021-0.144 0.050-0.208 0.162-0.368 0.326-0.734 0.498-1.097 0.179-0.377 0.442-0.669 0.812-0.885 0.559-0.323 1.141-0.588 1.751-0.79 0.057-0.020 0.119-0.031 0.179-0.035 0.247-0.015 0.493-0.025 0.738-0.038zM13.308 18.928c0.544-0.039 1.082-0.087 1.497-0.514 0.15-0.155 0.194-0.235 0.082-0.419-0.060-0.101-0.152-0.21-0.254-0.252-0.537-0.215-1.073-0.436-1.663-0.485-0.224-0.018-0.444-0.094-0.661-0.159-0.113-0.035-0.196-0.028-0.261 0.071-0.087 0.13-0.179 0.256-0.254 0.391-0.025 0.045-0.032 0.131-0.006 0.171 0.183 0.278 0.356 0.569 0.574 0.818 0.242 0.275 0.572 0.401 0.946 0.379zM19.406 16.707c-0.025-0.008-0.038-0.017-0.046-0.015-0.721 0.183-1.482 0.228-2.155 0.587-0.020 0.010-0.043 0.025-0.061 0.022-0.268-0.052-0.419 0.143-0.595 0.282-0.089 0.071-0.096 0.134-0.004 0.218 0.063 0.057 0.117 0.137 0.145 0.217 0.144 0.428 0.672 0.72 1.111 0.601 0.285-0.077 0.576-0.144 0.851-0.247 0.166-0.063 0.341-0.158 0.458-0.288 0.159-0.175 0.277-0.391 0.391-0.601 0.046-0.087 0.061-0.208 0.045-0.306-0.029-0.164-0.094-0.32-0.14-0.47zM16.803 20.463c-0.087-0.112-0.19-0.217-0.261-0.341s-0.11-0.267-0.164-0.401c-0.004-0.010-0.010-0.021-0.018-0.028-0.173-0.14-0.193-0.344-0.228-0.541-0.027-0.148-0.046-0.299-0.085-0.443-0.015-0.057-0.089-0.154-0.11-0.147-0.077 0.024-0.172 0.068-0.204 0.133-0.045 0.089-0.049 0.205-0.050 0.31-0.003 0.207-0.071 0.383-0.165 0.567-0.126 0.246-0.21 0.516-0.285 0.781-0.050 0.175 0 0.224 0.178 0.239 0.143 0.011 0.273 0.020 0.401 0.117 0.133 0.102 0.86-0.099 0.992-0.247z"></path>
<path fill="#fff" d="M17.365 26.217c-0.129-0.060-0.2-0.092-0.257-0.12 0-0.507 0.004-1.008-0.003-1.507-0.001-0.112-0.046-0.225-0.071-0.337-0.006-0.027-0.022-0.053-0.022-0.080 0.008-0.477-0.003-0.956 0.039-1.431 0.017-0.201 0.127-0.403 0.226-0.587 0.141-0.26 0.28-0.285 0.629-0.164 0.212 0.074 0.337 0.27 0.305 0.499-0.052 0.363-0.108 0.725-0.164 1.089-0.001 0.006-0.001 0.011-0.003 0.017-0.224 0.868-0.449 1.733-0.679 2.621z"></path>
<path fill="#fff" d="M14.626 22.766c-0.028 0.221-0.049 0.387-0.070 0.552-0.109 0.844-0.070 1.693-0.101 2.54-0.001 0.050 0.017 0.115-0.008 0.147-0.046 0.060-0.115 0.136-0.179 0.141-0.057 0.004-0.158-0.064-0.179-0.122-0.398-1.096-0.451-2.243-0.477-3.392-0.004-0.19 0.179-0.369 0.41-0.43 0.205-0.055 0.328-0.007 0.444 0.198 0.074 0.129 0.12 0.273 0.159 0.366z"></path>
</svg>
