<!-- Generated by IcoMoon.io -->
<svg version="1.1" xmlns="http://www.w3.org/2000/svg" width="32" height="32" viewBox="0 0 32 32">
<title>factions-order-cities-of-sigmar</title>
<path fill="#fff" d="M11.424 22.253c-0.139 0.114-0.265 0.242-0.412 0.334-0.602 0.377-1.204 0.754-1.818 1.112-0.926 0.541-1.86 1.068-2.835 1.625-0.087-0.205-0.215-0.433-0.281-0.678-0.087-0.323-0.278-0.415-0.559-0.297-0.701 0.294-1.393 0.612-2.092 0.914-0.155 0.067-0.324 0.104-0.514 0.099 0.935-1.323 2.078-2.418 3.264-3.565 0.139 0.287 0.262 0.514 0.361 0.751 0.139 0.331 0.367 0.463 0.643 0.246 0.512-0.403 0.983-0.861 1.443-1.321 0.080-0.081 0.063-0.304 0.028-0.445-0.061-0.24-0.189-0.462-0.26-0.701-0.099-0.333-0.19-0.671-0.247-1.013-0.047-0.277-0.204-0.378-0.453-0.403-1.628-0.157-3.255-0.306-4.881-0.474-0.812-0.085-1.621-0.198-2.428-0.317-0.135-0.020-0.255-0.139-0.382-0.214 0.007-0.038 0.014-0.075 0.021-0.112 0.59-0.102 1.177-0.234 1.771-0.303 1.532-0.176 3.067-0.317 4.599-0.49 0.432-0.049 0.854-0.179 1.285-0.235 0.337-0.043 0.515-0.232 0.615-0.527 0.080-0.236 0.171-0.472 0.216-0.716 0.021-0.114-0.020-0.278-0.096-0.363-0.361-0.4-0.73-0.791-1.121-1.161-0.279-0.263-0.439-0.198-0.556 0.175-0.148 0.47-0.318 0.515-0.677 0.19-1.291-1.17-2.586-2.338-3.858-3.589 0.258 0.105 0.523 0.195 0.774 0.315 0.827 0.396 1.645 0.81 2.475 1.201 0.37 0.175 0.598 0.035 0.691-0.366 0.042-0.181 0.108-0.357 0.194-0.633 1.003 0.583 1.936 1.111 2.852 1.665 0.335 0.203 0.583 0.229 0.849-0.108 0.218-0.277 0.513-0.494 0.736-0.768 0.095-0.117 0.16-0.333 0.121-0.471-0.208-0.732-0.442-1.458-0.697-2.176-0.043-0.122-0.229-0.265-0.355-0.269-0.184-0.007-0.386 0.073-0.553 0.168-0.409 0.23-0.521 0.175-0.646-0.292-0.291-1.092-0.603-2.179-0.902-3.27-0.045-0.161-0.058-0.332-0.085-0.499 0.040-0.024 0.080-0.048 0.12-0.072 0.263 0.353 0.533 0.7 0.787 1.059 0.24 0.341 0.458 0.699 0.697 1.041 0.25 0.358 0.569 0.136 0.809 0.019 0.337-0.164 0.49-0.108 0.631 0.233 0.105 0.249 0.307 0.456 0.454 0.69 0.417 0.666 0.814 1.345 1.247 1.999 0.343 0.517 0.447 0.53 1.031 0.327 0.087-0.030 0.18-0.038 0.272-0.057 0.679-0.147 0.783-0.324 0.876-1.003 0.191-1.397 0.417-2.791 0.663-4.179 0.181-1.023 0.415-2.036 0.628-3.052 0.019-0.088 0.049-0.174 0.164-0.276 0.088 0.367 0.188 0.732 0.262 1.102 0.266 1.34 0.524 2.682 0.785 4.023 0.096 0.492 0.177 0.986 0.284 1.476 0.098 0.449 0.175 0.913 0.355 1.329 0.101 0.233 0.365 0.474 0.608 0.552 0.843 0.272 0.844 0.242 1.277-0.554 0.488-0.896 0.987-1.786 1.488-2.674 0.124-0.22 0.273-0.138 0.412-0.004 0.179 0.173 0.361 0.343 0.539 0.517 0.237 0.232 0.438 0.197 0.612-0.077 0.508-0.797 1.010-1.597 1.528-2.387 0.148-0.226 0.345-0.42 0.52-0.628 0.042 0.026 0.086 0.051 0.128 0.077-0.591 1.839-1.181 3.677-1.807 5.624-0.199-0.214-0.337-0.342-0.452-0.489-0.254-0.325-0.567-0.321-0.74 0.053-0.233 0.5-0.449 1.010-0.617 1.533-0.051 0.16 0.029 0.412 0.135 0.562 0.163 0.233 0.399 0.414 0.603 0.617 0.445 0.44 0.427 0.409 0.98 0.090 0.953-0.55 1.93-1.056 2.963-1.616 0.12 0.326 0.223 0.577 0.307 0.834 0.124 0.373 0.322 0.445 0.655 0.273 0.629-0.325 1.268-0.629 1.906-0.936 0.305-0.146 0.616-0.278 0.927-0.417-0.075 0.4-2.369 2.676-3.581 3.558-0.023-0.008-0.058-0.010-0.070-0.027-0.442-0.647-0.436-0.639-1.103-0.188-0.282 0.19-0.594 0.336-0.891 0.505-0.456 0.26-0.537 0.465-0.376 0.967 0.072 0.225 0.155 0.446 0.24 0.667 0.158 0.407 0.524 0.501 0.895 0.551 1.528 0.204 3.061 0.368 4.585 0.601 0.868 0.132 1.72 0.368 2.609 0.628-0.234 0.072-0.462 0.174-0.7 0.213-0.793 0.131-1.589 0.239-2.383 0.361-1.103 0.168-2.212 0.314-3.308 0.521-0.48 0.090-0.987 0.228-1.392 0.486-0.476 0.304-0.539 0.907-0.655 1.43-0.020 0.088 0.111 0.234 0.204 0.317 0.38 0.344 0.771 0.676 1.16 1.010 0.214 0.184 0.383 0.117 0.52-0.1 0.117-0.185 0.228-0.373 0.378-0.618 1.23 1.005 2.416 1.975 3.602 2.944-0.022 0.046-0.045 0.090-0.068 0.136-0.106-0.029-0.22-0.041-0.316-0.089-0.439-0.223-0.872-0.459-1.309-0.682-0.116-0.059-0.25-0.082-0.367-0.14-0.527-0.266-0.963-0.101-1.167 0.446-0.239 0.645-0.351 0.655-0.973 0.299-0.696-0.396-1.442-0.705-2.135-1.103s-1.353-0.854-2.012-1.307c-0.070-0.048-0.090-0.269-0.043-0.366 0.209-0.435 0.49-0.838 0.669-1.284 0.183-0.453 0.287-0.941 0.409-1.417 0.058-0.227 0.075-0.465 0.111-0.698 0.014-0.090 0.061-0.185 0.047-0.271-0.191-1.17-0.242-2.385-1.094-3.343-0.407-0.458-0.741-0.991-1.193-1.396-0.517-0.463-1.162-0.726-1.825-0.98-1.069-0.41-2.143-0.282-3.204-0.183-1.54 0.144-2.813 0.856-3.748 2.127-0.983 1.337-1.462 2.814-1.236 4.472 0.159 1.162 0.592 2.225 1.338 3.147 0.030 0.036 0.055 0.082 0.115 0.176zM23.005 18.091c0.266 0.144 0.419 0.285 0.577 0.291 0.096 0.003 0.296-0.222 0.278-0.307-0.028-0.134-0.208-0.335-0.314-0.33-0.15 0.008-0.293 0.177-0.541 0.346zM9.074 17.994c0.002-0.050 0.004-0.1 0.007-0.151-0.127-0.077-0.258-0.22-0.381-0.213-0.125 0.008-0.242 0.163-0.362 0.253 0.117 0.115 0.219 0.292 0.354 0.322 0.106 0.024 0.253-0.134 0.382-0.21zM19.991 11.261c-0.144 0.193-0.317 0.348-0.289 0.403 0.069 0.136 0.216 0.262 0.36 0.313 0.051 0.019 0.265-0.194 0.258-0.291-0.009-0.119-0.168-0.229-0.328-0.425zM11.982 11.881c-0.002 0.050-0.006 0.099-0.008 0.149 0.135 0.094 0.272 0.259 0.404 0.257 0.112-0.002 0.22-0.201 0.331-0.313-0.107-0.096-0.206-0.257-0.321-0.268-0.128-0.014-0.271 0.11-0.406 0.175zM22.756 21.508c-0.229-0.144-0.351-0.281-0.454-0.268-0.108 0.013-0.269 0.166-0.276 0.266-0.007 0.102 0.15 0.306 0.229 0.302 0.13-0.006 0.254-0.141 0.501-0.299zM9.841 22.455c0.163-0.226 0.333-0.361 0.316-0.466-0.019-0.122-0.204-0.219-0.316-0.327-0.090 0.108-0.243 0.21-0.254 0.326-0.011 0.112 0.122 0.238 0.254 0.468zM22.459 13.953c-0.156 0.2-0.313 0.314-0.311 0.425 0.002 0.101 0.167 0.255 0.281 0.277 0.079 0.016 0.271-0.148 0.275-0.238 0.007-0.12-0.121-0.247-0.245-0.464zM10.011 14.322c-0.051 0.001-0.102 0.002-0.154 0.003-0.070 0.117-0.209 0.248-0.19 0.348 0.021 0.106 0.184 0.23 0.303 0.253 0.067 0.012 0.238-0.165 0.238-0.257 0.001-0.115-0.126-0.232-0.197-0.347zM16.51 10.865c-0.196-0.105-0.314-0.219-0.4-0.199-0.104 0.023-0.179 0.164-0.267 0.253 0.089 0.078 0.185 0.224 0.267 0.217 0.111-0.010 0.214-0.137 0.4-0.271z"></path>
<path fill="#fff" d="M19.939 15.201c-0.061 0.433-0.35 0.675-0.548 0.961-0.215 0.311-0.471 0.593-0.672 0.912-0.281 0.442-0.479 0.53-0.93 0.281-0.296-0.164-0.58-0.362-0.836-0.582-0.49-0.422-1.030-0.669-1.689-0.635-0.431 0.022-0.865 0.357-0.981 0.779-0.185 0.674-0.067 1.134 0.394 1.393 0.135 0.076 0.326 0.1 0.482 0.079 0.558-0.072 1.088-0.033 1.638 0.129 0.661 0.195 1.323 0.371 1.836 0.847 0.904 0.839 1.275 2.13 0.481 3.344-0.233 0.355-0.533 0.554-0.898 0.767-0.72 0.42-1.463 0.338-2.218 0.328-0.277-0.003-0.554-0.011-0.832 0-0.384 0.016-0.734 0-1.066-0.269-0.306-0.248-0.715-0.367-1.034-0.603-0.257-0.19-0.464-0.458-0.657-0.718-0.055-0.072-0.029-0.296 0.041-0.355 0.39-0.326 0.807-0.619 1.208-0.933 0.19-0.15 0.298-0.194 0.447 0.077 0.475 0.864 1.671 1.444 2.644 1.323 0.712-0.089 1.261-1.090 0.891-1.701-0.46-0.757-1.163-1.23-2.043-1.324-0.629-0.067-1.296-0.149-1.85 0.347-0.071 0.065-0.364-0.006-0.466-0.104-1.317-1.266-1.29-2.631-0.136-4.134 0.401-0.523 0.937-0.817 1.571-1.051 1.063-0.392 1.919-0.002 2.79 0.481 0.665 0.368 1.392 0.368 2.117 0.387 0.075 0 0.152-0.013 0.316-0.026z"></path>
</svg>
