<!-- Generated by IcoMoon.io -->
<svg version="1.1" xmlns="http://www.w3.org/2000/svg" width="32" height="32" viewBox="0 0 32 32">
<title>factions-order-kharadron-overlords</title>
<path fill="#fff" d="M13.692 13.936c0.514 0.554 1.008 1.117 1.536 1.646 0.465 0.463 0.573 0.613 1.261 0.161 0.669-0.439 1.351-0.812 1.708-1.579 0.041-0.006 0.084-0.011 0.126-0.018 0.119 0.331 0.287 0.654 0.342 0.996 0.054 0.331 0.156 0.591 0.4 0.826 0.984 0.949 2.163 1.436 3.514 1.512 0.853 0.048 1.713 0.127 2.561 0.075 0.449-0.029 0.91-0.256 1.313-0.487 0.599-0.344 0.793-1.125 0.476-1.74-0.232-0.45-0.68-0.549-1.138-0.589-0.194-0.018-0.39-0.003-0.669-0.003 0.073 0.476 0.113 0.92 0.22 1.348 0.080 0.317-0.035 0.457-0.314 0.498-0.22 0.032-0.447 0.040-0.67 0.024-1.345-0.094-2.614-0.501-3.85-0.998-0.454-0.183-0.872-0.5-1.004-1.047-0.024-0.097-0.092-0.188-0.156-0.271-0.583-0.746-1.173-1.487-1.748-2.238-0.080-0.105-0.126-0.258-0.134-0.392-0.027-0.513-0.075-1.031-0.027-1.539 0.024-0.253 0.183-0.548 0.372-0.724 1.192-1.119 2.583-1.356 4.14-0.904 0.89 0.259 1.487 0.855 1.901 1.616 0.169 0.31 0.096 0.754 0.123 1.14 0.005 0.073-0.054 0.148-0.068 0.226-0.145 0.746 0.111 1.058 0.872 1.095 1.38 0.065 2.623 0.5 3.486 1.611 0.317 0.409 0.462 1.009 0.528 1.542 0.134 1.039-0.218 1.986-1.006 2.668-0.427 0.368-1.014 0.711-1.553 0.754-1.172 0.096-2.36-0.006-3.542-0.035-0.21-0.005-0.419-0.054-0.629-0.068-0.613-0.045-0.825 0.15-0.723 0.75 0.193 1.143 0.395 2.284 0.641 3.416 0.328 1.504 0.754 2.989 1.036 4.501 0.159 0.86 0.118 1.756 0.153 2.636 0.003 0.078-0.084 0.197-0.161 0.234-0.949 0.447-1.904 0.883-2.859 1.321-0.043 0.019-0.094 0.021-0.162 0.033 0.301-1.323 0.185-2.615-0.005-3.906-0.022-0.156-0.027-0.342-0.116-0.454-0.294-0.371-0.129-0.673 0.067-1.006 0.613-1.046 0.804-2.209 0.562-3.358-0.236-1.117-0.726-2.168-1.581-3.002-0.659-0.643-1.248-1.361-1.928-1.979-0.315-0.288-0.77-0.425-1.17-0.613-0.056-0.025-0.173 0.043-0.245 0.094-0.384 0.279-0.767 0.557-1.14 0.852-0.901 0.713-1.588 1.627-2.197 2.574-0.678 1.054-0.944 2.233-0.586 3.499 0.113 0.401 0.115 0.831 0.199 1.241 0.041 0.202 0.115 0.43 0.25 0.573 0.355 0.376 0.423 0.743 0.212 1.227-0.145 0.329-0.159 0.716-0.234 1.078-0.229 1.095 0.183 2.134 0.271 3.247-0.466-0.158-0.925-0.294-1.369-0.466-0.552-0.212-1.087-0.47-1.643-0.673-0.414-0.151-0.479-0.436-0.403-0.809 0.224-1.082 0.481-2.16 0.669-3.249 0.24-1.401 0.419-2.811 0.638-4.215 0.094-0.597 0.221-1.189 0.342-1.781 0.048-0.232 0.138-0.454 0.186-0.686 0.1-0.485-0.166-0.801-0.659-0.791-0.473 0.010-0.958 0.1-1.418 0.024-1.165-0.193-2.333-0.401-3.471-0.71-1.164-0.315-1.703-1.256-1.988-2.354-0.212-0.813 0.035-1.592 0.253-2.364 0.035-0.124 0.245-0.188 0.328-0.312 0.719-1.081 1.821-1.245 2.988-1.265 0.22-0.003 0.497 0.092 0.52-0.293 0.022-0.344-0.057-0.606-0.438-0.678-0.153-0.029-0.31-0.030-0.535-0.051 0.057-0.29 0.099-0.598 0.181-0.895 0.221-0.793 0.532-1.544 1.076-2.179 0.517-0.603 1.14-0.998 1.955-1.073 1.078-0.099 2.152-0.221 3.21 0.116 0.185 0.059 0.361 0.146 0.565 0.231-0.108 0.229-0.181 0.442-0.299 0.626-0.167 0.259-0.126 0.438 0.099 0.651 0.342 0.325 0.672 0.669 0.957 1.043 0.506 0.661 0.358 1.883-0.304 2.612-0.398 0.439-0.799 0.88-1.246 1.264-0.43 0.369-0.492 0.842-0.549 1.345-0.030 0.271-0.083 0.546-0.177 0.799-0.215 0.583-0.769 0.759-1.277 0.789-1.348 0.084-2.717 0.231-4.019-0.384 0.070-0.633 0.14-1.267 0.21-1.899-0.828-0.123-1.445 0.209-1.676 0.858-0.201 0.563 0.078 1.355 0.676 1.655 0.888 0.446 1.807 0.852 2.836 0.825 0.815-0.022 1.644 0.014 2.438-0.134 1.286-0.24 1.92-1.062 2.025-2.378 0.043-0.492 0.075-0.992 0.661-1.264zM11.318 13.232c0.245-0.057 0.495-0.054 0.667-0.169 0.45-0.301 0.92-0.556 1.235-1.058 0.43-0.688 0.353-1.865-0.299-2.367-0.253-0.194-0.549-0.374-0.853-0.454-0.831-0.216-1.593 0.088-2.29 0.49-0.641 0.371-0.987 1.487-0.689 2.072 0.465 0.914 1.315 1.253 2.23 1.485zM22.732 11.33c0-1.195-0.852-2.125-2.007-2.061-1.285 0.070-2.174 0.536-2.152 1.996 0.016 1.097 1.020 1.985 2.292 1.948 1.235-0.037 1.73-0.648 1.867-1.883z"></path>
<path fill="#fff" d="M14.273 13.266c0.113-0.132 0.183-0.228 0.267-0.307 0.904-0.839 0.797-1.921 0.681-2.983-0.029-0.261-0.263-0.506-0.422-0.746-0.167-0.252-0.334-0.509-0.541-0.726-0.315-0.328-0.027-0.606 0.068-0.863 0.226-0.603 0.107-1.012-0.528-1.2-0.565-0.166-1.159-0.33-1.738-0.325-1.076 0.008-2.166 0.048-3.222 0.24-1.222 0.223-2.007 1.121-2.572 2.173-0.463 0.863-0.824 1.773-0.751 2.868-0.415 0-0.809 0.035-1.189-0.019-0.126-0.018-0.31-0.261-0.314-0.404-0.016-1.052-0.002-2.107 0.021-3.163 0.005-0.247 0.051-0.5 0.131-0.732 0.030-0.089 0.204-0.177 0.315-0.181 0.5-0.019 1.003-0.022 1.503-0.003 0.4 0.014 0.632-0.158 0.778-0.524 0.264-0.659 0.506-1.335 0.856-1.95 0.294-0.514 0.718-0.957 1.103-1.417 0.269-0.322 0.567-0.621 0.86-0.922 0.089-0.092 0.202-0.162 0.314-0.25 0.207 0.29 0.382 0.568 0.594 0.815 0.103 0.119 0.267 0.223 0.422 0.258 0.317 0.072 0.533-0.158 0.42-0.463-0.135-0.366-0.334-0.708-0.524-1.095 1.776-0.832 3.729-1.087 5.713-1.347-0.032 0.452-0.062 0.853-0.086 1.256-0.017 0.293 0.059 0.535 0.403 0.567 0.299 0.029 0.541-0.229 0.563-0.578 0.016-0.263 0.013-0.53 0.070-0.785 0.024-0.103 0.197-0.261 0.285-0.25 1.149 0.146 2.289 0.309 3.339 0.867 0.649 0.345 1.337 0.603 1.823 1.207 0.188 0.234 0.231 0.377-0.022 0.575-0.236 0.185-0.447 0.404-0.692 0.63 0.223 0.252 0.401 0.455 0.605 0.684 0.285-0.244 0.541-0.465 0.805-0.691 0.567 0.221 0.855 0.692 1.073 1.203 0.258 0.605 0.481 1.226 0.704 1.843 0.121 0.336 0.333 0.466 0.689 0.452 0.54-0.022 1.082-0.022 1.622 0.005 0.129 0.006 0.361 0.15 0.361 0.232 0.022 1.482 0.016 2.965 0.016 4.449-1.183 0-2.357 0-3.597 0 0-0.314 0.002-0.665 0-1.017-0.006-1.291-0.632-2.139-1.81-2.652-0.992-0.431-2.015-0.575-3.054-0.384-0.971 0.178-1.902 0.581-2.48 1.418-0.279 0.403-0.353 0.976-0.427 1.487-0.134 0.918-0.021 1.787 0.74 2.458 0.263 0.231 0.256 0.498-0.008 0.745-0.374 0.35-0.754 0.696-1.117 1.060-0.236 0.236-0.446 0.188-0.643-0.019-0.473-0.493-0.933-0.993-1.405-1.498z"></path>
<path fill="#fff" d="M16.302 21.49c0.643 0.111 1.289 0.209 1.929 0.337 0.425 0.086 0.681 0.358 0.891 0.756 0.528 1.004 0.387 2.050 0.129 3.040-0.17 0.656-0.552 1.27-1.363 1.546-0.93 0.317-1.829 0.614-2.8 0.358-0.392-0.103-0.802-0.285-1.101-0.548-0.753-0.662-1.299-1.466-1.461-2.497-0.194-1.234 0.045-1.794 1.186-2.571 0.548-0.372 1.191-0.221 1.784-0.326 0.256-0.046 0.525-0.008 0.789-0.008 0.005-0.030 0.011-0.059 0.016-0.088zM16.455 24.201c-0.032-0.46-0.037-0.871-0.105-1.272-0.021-0.121-0.218-0.213-0.334-0.318-0.103 0.115-0.288 0.223-0.299 0.345-0.073 0.891-0.116 1.784-0.158 2.677-0.013 0.259 0.127 0.444 0.395 0.449s0.395-0.173 0.411-0.435c0.030-0.5 0.062-0.998 0.091-1.447zM17.29 24.759c-0.013 0.592 0.1 0.815 0.366 0.84 0.314 0.029 0.473-0.177 0.505-0.444 0.059-0.482 0.103-0.969 0.088-1.453-0.005-0.15-0.216-0.395-0.352-0.406-0.137-0.011-0.384 0.186-0.423 0.334-0.111 0.415-0.143 0.853-0.183 1.129zM14.658 24.172c-0.011-0.25 0.016-0.47-0.041-0.667-0.053-0.181-0.193-0.339-0.294-0.506-0.166 0.164-0.442 0.31-0.474 0.497-0.073 0.433-0.064 0.891-0.013 1.331 0.016 0.145 0.247 0.345 0.403 0.368 0.108 0.016 0.315-0.207 0.368-0.361 0.073-0.215 0.041-0.465 0.053-0.661z"></path>
<path fill="#fff" d="M7.887 20.034c0.643 0.032 1.256 0.061 1.918 0.092-0.622 3.349-0.879 6.72-1.756 10.106-0.49-0.28-0.95-0.533-1.399-0.804-0.291-0.177-0.565-0.384-0.852-0.567-0.336-0.215-0.419-0.43-0.239-0.791 1.046-2.099 1.616-4.358 2.203-6.61 0.059-0.228 0.099-0.465 0.121-0.699 0.019-0.221 0.003-0.446 0.003-0.727z"></path>
<path fill="#fff" d="M26.468 28.798c-0.689 0.36-1.418 0.74-2.204 1.152-0.713-3.425-1.417-6.808-2.128-10.231 0.696 0.084 1.369 0.161 2.039 0.258 0.064 0.010 0.137 0.143 0.154 0.231 0.363 1.83 0.67 3.674 1.093 5.49 0.237 1.014 0.662 1.986 1.046 3.101z"></path>
<path fill="#fff" d="M29.332 26.186c-0.516 0.971-1.27 1.636-2.27 2.107-0.686-1.285-1.031-2.658-1.307-4.064-0.274-1.393-0.605-2.774-0.922-4.21 0.42 0 0.802-0.017 1.178 0.013 0.089 0.008 0.215 0.166 0.239 0.274 0.148 0.667 0.272 1.34 0.403 2.012 0.256 1.331 0.958 2.408 1.918 3.331 0.213 0.207 0.489 0.349 0.761 0.536z"></path>
<path fill="#fff" d="M5.98 19.637c0.442 0.089 0.863 0.175 1.275 0.258 0.113 1.581-1.859 7.398-2.579 7.677-0.037 0.167-0.072 0.326-0.134 0.61-0.635-0.592-1.202-1.114-1.76-1.647-0.148-0.14-0.17-0.293 0.048-0.409 1.324-0.7 1.947-1.91 2.346-3.271 0.263-0.896 0.498-1.8 0.739-2.703 0.040-0.146 0.040-0.306 0.065-0.514z"></path>
<path fill="#fff" d="M18.591 20.887c-1.819-0.181-3.621-0.393-5.425 0.189 0.514-0.766 1.017-1.512 1.748-2.066 0.189-0.143 0.387-0.275 0.575-0.419 0.433-0.329 0.67-0.341 1.052 0.053 0.676 0.699 1.327 1.425 1.986 2.139 0.035 0.038 0.054 0.088 0.064 0.103z"></path>
<path fill="#fff" d="M9.752 11.152c0.099-0.853 1.273-1.557 2.018-1.175 0.271 0.138 0.591 0.291 0.743 0.53 0.495 0.777-0.118 1.996-1.062 2.026-0.447 0.014-1.019-0.056-1.326-0.519-0.172-0.255-0.253-0.573-0.374-0.863z"></path>
<path fill="#fff" d="M19.143 11.060c-0.145-0.783 0.926-1.452 1.659-1.455 0.774-0.003 1.391 0.832 1.364 1.778-0.017 0.606-0.783 1.135-1.624 1.119-0.81-0.016-1.415-0.637-1.399-1.442zM21.276 11.284c-0.011-0.522-0.361-0.947-0.767-0.933-0.263 0.010-0.535 0.307-0.536 0.586 0 0.387 0.417 0.867 0.748 0.861 0.368-0.008 0.562-0.188 0.555-0.514z"></path>
</svg>
