<!-- Generated by IcoMoon.io -->
<svg version="1.1" xmlns="http://www.w3.org/2000/svg" width="13" height="32" viewBox="0 0 13 32">
<title>factions-order-stormcast-warrior</title>
<path fill="#fff" d="M6.701 32c-0.2-0.022-0.403-0.040-0.602-0.070-0.12-0.018-0.257-0.030-0.353-0.093-0.263-0.175-0.54-0.347-0.75-0.575-0.218-0.236-0.386-0.528-0.535-0.816-0.13-0.251-0.022-0.464 0.212-0.617 0.215-0.141 0.384-0.334 0.418-0.607 0.004-0.042-0.016-0.101-0.047-0.129-0.132-0.12-0.282-0.221-0.408-0.347-0.203-0.202-0.099-0.642 0.154-0.771 0.119-0.061 0.314-0.080 0.283-0.295-0.006-0.040-0.027-0.079-0.040-0.117 0.282-0.039 0.289-0.039 0.28-0.337-0.015-0.541-0.050-1.083-0.056-1.623-0.007-0.632 0.007-1.264 0.010-1.895 0.001-0.265-0.007-0.531-0.001-0.795 0.001-0.056 0.034-0.128 0.077-0.166 0.2-0.178 0.236-0.359 0.099-0.587-0.030-0.049-0.053-0.104-0.095-0.139-0.184-0.151-0.182-0.353-0.181-0.567 0.004-2.189 0.001-4.378 0.004-6.569 0-0.132 0.003-0.239-0.165-0.277-0.055-0.012-0.132-0.113-0.129-0.171 0.027-0.574-0.062-1.152 0.071-1.723 0.033-0.138 0.101-0.206 0.212-0.252 0.116-0.049 0.138-0.107 0.047-0.2-0.021-0.022-0.037-0.058-0.040-0.088-0.037-0.596-0.080-1.191-0.105-1.787-0.018-0.435-0.009-0.871-0.013-1.305-0.001-0.19-0.191-0.39-0.377-0.396-0.654-0.024-1.308-0.046-1.961-0.070-0.045-0.001-0.099 0.006-0.133-0.016-0.233-0.147-0.492-0.092-0.743-0.099-0.288-0.010-0.578-0.022-0.865-0.001-0.123 0.009-0.258 0.080-0.356 0.162-0.206 0.172-0.395 0.151-0.438-0.107-0.053-0.319-0.049-0.65-0.061-0.974-0.007-0.215 0.010-0.43-0.004-0.645-0.013-0.182-0.082-0.363-0.082-0.546 0-1.194 0.010-2.386 0.019-3.58 0.001-0.271 0.053-0.553 0-0.811-0.101-0.473-0.010-0.937-0.027-1.403-0.003-0.095 0.010-0.193 0.031-0.286 0.061-0.286 0.344-0.393 0.587-0.23 0.049 0.033 0.119 0.031 0.171 0.062 0.095 0.056 0.182 0.129 0.276 0.19 0.074 0.049 0.153 0.125 0.231 0.128 0.211 0.007 0.423-0.021 0.633-0.031 0.242-0.012 0.483-0.025 0.725-0.027 1.572-0.013 3.143-0.025 4.715-0.031 0.258-0.001 0.515 0.046 0.773 0.052 0.463 0.009 0.927 0.018 1.39 0.001 0.777-0.027 1.553-0.074 2.33-0.113 0.028-0.001 0.071 0.001 0.080-0.015 0.123-0.196 0.353-0.147 0.525-0.228 0.13-0.062 0.35 0.053 0.411 0.212 0.043 0.113 0.071 0.236 0.077 0.354 0.030 0.519 0.009 1.043 0.077 1.556 0.199 1.492 0.042 2.989 0.090 4.481 0.019 0.587 0.004 1.176 0 1.763-0.001 0.227-0.058 0.251-0.274 0.298-0.185 0.040-0.313 0.013-0.458-0.108-0.104-0.088-0.251-0.104-0.412-0.068-0.251 0.053-0.515 0.055-0.774 0.059-0.384 0.006-0.77-0.013-1.154-0.004-0.451 0.010-0.902 0.037-1.351 0.062-0.169 0.009-0.386 0.288-0.386 0.5-0.001 0.294 0.007 0.589 0.007 0.882 0 0.372 0 0.746-0.010 1.118-0.006 0.19-0.047 0.378-0.055 0.568-0.004 0.105 0.031 0.214 0.043 0.283-0.019 0.178-0.037 0.329-0.055 0.494 0.262 0.030 0.294 0.217 0.297 0.411 0.006 0.481 0.006 0.96 0.003 1.44 0 0.044-0.024 0.095-0.050 0.133-0.070 0.105-0.148 0.205-0.23 0.319-0.010-0.004-0.046-0.016-0.099-0.036 0 0.062 0 0.111 0 0.162-0.001 2.179-0.006 4.356-0.001 6.535 0 0.178-0.074 0.303-0.16 0.445-0.12 0.199-0.208 0.42-0.294 0.638-0.050 0.126 0.059 0.187 0.141 0.26 0.047 0.042 0.095 0.113 0.096 0.171 0.012 0.537 0.010 1.074 0.019 1.611 0.006 0.412 0.027 0.823 0.031 1.235 0.006 0.558 0.001 1.117 0.001 1.698 0.154 0 0.332 0 0.463 0 0.071 0.222 0.16 0.406 0.184 0.599 0.030 0.243 0.015 0.495-0.003 0.74-0.003 0.042-0.117 0.098-0.185 0.108-0.125 0.018-0.165 0.095-0.171 0.196-0.006 0.111-0.062 0.24 0.080 0.317 0.079 0.043 0.172 0.076 0.228 0.139 0.070 0.077 0.139 0.179 0.154 0.277 0.024 0.172 0.001 0.35 0.004 0.525 0.010 0.537-0.251 0.897-0.721 1.124-0.050 0.025-0.116 0.037-0.15 0.076-0.193 0.225-0.454 0.306-0.728 0.36-0.157 0-0.316 0-0.475 0zM8.234 1.244c-0.009-0.006-0.018-0.012-0.025-0.018-0.018 0.013-0.040 0.022-0.052 0.040-0.267 0.423-0.681 0.602-1.142 0.725-0.128 0.034-0.258 0.148-0.334 0.261-0.165 0.24-0.36 0.408-0.65 0.478-0.113 0.027-0.228 0.101-0.311 0.185-0.114 0.114-0.19 0.265-0.295 0.389-0.138 0.16-0.277 0.325-0.442 0.455-0.113 0.089-0.35 0.019-0.374-0.082-0.033-0.145 0.079-0.206 0.184-0.267 0.208-0.119 0.356-0.277 0.429-0.521 0.043-0.144 0.125-0.319 0.242-0.39 0.214-0.131 0.273-0.341 0.406-0.532-0.568 0.165-0.561 0.171-0.906 0.586-0.12 0.144-0.267 0.294-0.433 0.363-0.304 0.129-0.529 0.328-0.672 0.608-0.114 0.225-0.277 0.353-0.509 0.43-0.681 0.228-1.052 0.727-1.145 1.421-0.089 0.669 0.144 1.234 0.684 1.64 0.552 0.415 1.175 0.522 1.804 0.211 0.319-0.157 0.638-0.237 0.98-0.283 0.159-0.021 0.326-0.067 0.46-0.15 0.2-0.123 0.387-0.138 0.595-0.049 0.215 0.092 0.424 0.074 0.614-0.058 0.243-0.169 0.476-0.35 0.725-0.534-0.172-0.085-0.325-0.098-0.481-0.033-0.12 0.050-0.245 0.092-0.357 0.156-0.169 0.096-0.319 0.099-0.491-0.003-0.11-0.065-0.248-0.101-0.375-0.108-0.114-0.006-0.233 0.040-0.347 0.073-0.148 0.042-0.271 0.028-0.338-0.129-0.056-0.132 0-0.319 0.151-0.366 0.148-0.046 0.331-0.079 0.473-0.036 0.454 0.136 0.856 0.119 1.201-0.243 0.135-0.141 0.303-0.162 0.486-0.122 0.148 0.033 0.298 0.074 0.448 0.085 0.114 0.009 0.26 0.015 0.343-0.045 0.225-0.16 0.424-0.356 0.666-0.568-0.273-0.080-0.476-0.043-0.678 0.009s-0.409 0.108-0.616 0.021c-0.34-0.144-0.648-0.090-0.945 0.117-0.077 0.053-0.174 0.116-0.258 0.111-0.105-0.006-0.224-0.058-0.306-0.126-0.095-0.079-0.040-0.19 0.021-0.276 0.052-0.073 0.11-0.142 0.174-0.208 0.221-0.23 0.513-0.283 0.81-0.289 0.479-0.007 0.856-0.166 1.090-0.61 0.139-0.261 0.362-0.36 0.667-0.32s0.564-0.076 0.774-0.303c0.199-0.215 0.408-0.423 0.604-0.642 0.165-0.185 0.313-0.384 0.469-0.577-0.35 0.037-0.641 0.16-0.85 0.426-0.323 0.409-0.73 0.568-1.241 0.429-0.279-0.076-0.513 0.001-0.702 0.22-0.052 0.059-0.117 0.11-0.159 0.175-0.162 0.251-0.399 0.337-0.682 0.335-0.254-0.001-0.472 0.093-0.676 0.236-0.116 0.080-0.24 0.157-0.372 0.197-0.105 0.033-0.239 0.037-0.341 0.001-0.2-0.068-0.221-0.279-0.042-0.389 0.107-0.067 0.236-0.119 0.359-0.133 0.245-0.030 0.424-0.148 0.51-0.366 0.133-0.341 0.366-0.573 0.688-0.736 0.111-0.056 0.228-0.15 0.282-0.257 0.089-0.193 0.138-0.409 0.208-0.615z"></path>
</svg>
