<!-- Generated by IcoMoon.io -->
<svg version="1.1" xmlns="http://www.w3.org/2000/svg" width="32" height="32" viewBox="0 0 32 32">
<title>factions-order-lumineth-realmlords</title>
<path fill="#fff" d="M15.894 29.216c-0.446-0.049-1.012 0.060-1.311-0.176-0.652-0.515-1.456-1.133-1.639-1.851-0.115-0.454 0.685-1.287 1.242-1.743 2.124-1.735 7.172-1.205 8.597 1.232 0.468 0.802 0.529 2.784-0.211 3.347-0.964 0.733-2.036 1.686-3.137 1.799-3.358 0.343-6.756 0.353-9.802-1.557-1.3-0.818-1.905-2.86-0.996-4.111 0.599-0.826 1.522-1.461 2.403-2.014 0.856-0.536 1.873-0.8 2.765-1.287 1.053-0.575 1.659-1.47 1.525-2.754-0.030-0.29-0.005-0.586-0.005-0.879 0-2.408-0.164-2.685-2.439-4.021-0.43 1.549-0.874 3.073-1.273 4.609-0.378 1.453-1.265 1.763-2.894 0.982 0.772-1.864 1.647-3.693 2.28-5.603 0.492-1.484 0.928-1.525-0.991-2.4-0.219-0.099-0.422-0.23-0.626-0.34 0.098-0.763 0.189-1.492 0.291-2.296 0.856 0.657 1.71 1.311 2.846 2.184 0.826-2.252 1.613-4.289 2.31-6.356 0.314-0.93-0.099-1.353-1.019-1.002-1.45 0.553-2.836 1.278-4.116 1.869 0.684-1.363 1.93-2.647 3.687-3.010 1.519-0.314 2.058-0.909 1.642-2.556-2.184 0.544-4.369 1.059-5.962 2.958-0.425-1.577-0.476-1.664 1.62-2.872 1.117-0.644 2.428-0.96 3.676-1.346 0.285-0.088 0.666 0.136 1.002 0.221 0.128 0.033 0.258 0.135 0.375 0.117 2.85-0.462 3.608-0.224 6.222 1.289 1.012 0.585 1.387 1.256 1.317 2.412-1.026-0.662-1.93-1.369-2.939-1.856-0.955-0.462-2.018-0.69-3.206-1.078 0 0.895 0 1.576 0 2.354 1.902-0.083 3.407 0.626 4.782 1.929 1.308 1.24 1.366 3.153-0.504 4.398-0.339 0.225-0.722 0.4-1.106 0.54-0.81 0.293-0.867 0.736-0.332 1.328 0.435-0.239 0.878-0.46 1.297-0.719 0.413-0.255 0.802-0.548 1.212-0.832 0.123 0.411 0.244 0.75 0.323 1.1 0.181 0.811 0.076 1.472-0.895 1.681-1.125 0.243-1.141 0.785-0.659 1.776 0.947 1.943 1.71 3.977 2.554 5.986-1.158 0.585-1.872 0.375-2.409-0.856-0.362-0.832-0.714-1.67-1.090-2.496-0.358-0.788-0.742-1.565-1.18-2.485-0.602 0.403-1.276 0.769-1.832 1.27-0.235 0.211-0.288 0.704-0.304 1.075-0.061 1.489-0.093 2.978-0.101 4.469-0.008 1.472-0.991 2.031-2.146 2.529-1.226 0.529-2.523 1.007-3.575 1.796-1.278 0.958-1.177 2.63 0.216 3.265 2.696 1.227 5.545 1.911 8.406 0.518 0.488-0.238 0.989-1.089 0.952-1.615-0.044-0.6-0.563-1.363-1.095-1.694-1.443-0.897-2.987-0.673-4.464 0.061-1.062 0.529-1.090 1.368-0.076 2.036 0.263 0.173 0.559 0.299 0.84 0.447-0.013 0.076-0.030 0.151-0.046 0.228zM15.82 14.633c0.594-0.476 1.064-0.974 1.634-1.279 0.824-0.443 0.674-0.958 0.347-1.615-0.574-1.15-1.105-2.321-1.703-3.586-0.759 1.519-1.486 2.932-2.162 4.372-0.090 0.192-0.006 0.611 0.151 0.755 0.537 0.488 1.144 0.903 1.733 1.354zM17.293 4.815c-0.236 1.007 0.734 3.763 1.483 4.265 0.124 0.085 0.353 0.202 0.424 0.151 0.476-0.34 1.125-0.64 1.32-1.117 0.186-0.455 0.049-1.213-0.228-1.658-0.67-1.070-1.793-1.467-2.998-1.642z"></path>
</svg>
