<!-- Generated by IcoMoon.io -->
<svg version="1.1" xmlns="http://www.w3.org/2000/svg" width="32" height="32" viewBox="0 0 32 32">
<title>factions-chaos-nurgle-rotbringers</title>
<path fill="#fff" d="M22.070 30.268c-0.248-0.306-0.416-0.514-0.674-0.831-0.153 0.234-0.347 0.418-0.4 0.635-0.197 0.816-0.179 0.821-0.948 1.319-0.028-0.273-0.004-0.521-0.087-0.728-0.094-0.233-0.281-0.429-0.429-0.64-0.17 0.198-0.394 0.372-0.498 0.601-0.157 0.346-0.17 0.766-0.364 1.081-0.113 0.181-0.502 0.342-0.695 0.281-0.225-0.069-0.402-0.372-0.538-0.609-0.084-0.146 0.011-0.408-0.085-0.531-0.132-0.167-0.367-0.329-0.565-0.339-0.131-0.007-0.3 0.241-0.407 0.405-0.058 0.090-0.018 0.24-0.030 0.362-0.026 0.245 0.080 0.6-0.362 0.55-0.358-0.041-0.839 0.092-0.901-0.493-0.025-0.244 0.037-0.511-0.043-0.729-0.077-0.211-0.288-0.372-0.44-0.554-0.174 0.168-0.433 0.307-0.499 0.51-0.095 0.294-0.050 0.633-0.066 0.983-0.542-0.047-0.754-0.365-0.866-0.776-0.048-0.176-0.011-0.383-0.084-0.543-0.066-0.143-0.216-0.298-0.361-0.338-0.088-0.025-0.27 0.13-0.347 0.247-0.219 0.332-0.407 0.685-0.685 1.165-0.522-1.010-0.878-1.833-0.773-2.763 0.103-0.908-0.026-1.748-0.542-2.517-0.077-0.114-0.116-0.259-0.15-0.396-0.343-1.333-1.537-2.096-2.874-1.817-0.543 0.113-0.988 0.174-1.276-0.499-0.203-0.473-0.657-0.83-0.929-1.283-0.276-0.459-0.52-0.955-0.675-1.465-0.307-1.006-0.549-2.032-0.808-3.051-0.149-0.586-0.237-1.116 0.342-1.607 0.681-0.576 0.735-1.567 0.415-2.413-0.19-0.502-0.229-1.078-0.248-1.624-0.019-0.527 0.040-1.063 0.125-1.585 0.208-1.283 0.193-2.686 0.739-3.812 0.823-1.695 1.754-3.462 3.463-4.482 0.947-0.564 2.033-0.94 3.1-1.245 2.398-0.684 4.843-0.879 7.345-0.639 1.454 0.139 2.725 0.656 3.951 1.349 0.805 0.455 1.622 0.932 2.307 1.541 0.611 0.543 1.13 1.234 1.535 1.947 0.342 0.601 0.504 1.319 0.667 2.004 0.342 1.449 0.776 2.897 0.903 4.368 0.124 1.451-0.101 2.93-0.145 4.398-0.037 1.228-0.040 2.456-0.052 3.684-0.001 0.121-0.007 0.277 0.059 0.36 0.56 0.695 0.114 1.242-0.295 1.734-0.848 1.017-1.708 2.038-2.945 2.617-0.185 0.087-0.451 0.135-0.633 0.072-0.867-0.3-1.138-0.216-1.369 0.702-0.205 0.82-0.298 1.67-0.409 2.511-0.061 0.464-0.025 0.943-0.092 1.406-0.065 0.437-0.209 0.866-0.364 1.477zM11.62 13.976c0.832-0.503 0.832-0.503 1.122 0.387 0.404 1.239 1.925 2.368 3.217 2.384 1.715 0.022 3.372-1.097 3.943-2.686 0.112-0.313 0.141-0.657 0.205-0.983 0.831 0.131 1.358 0.506 1.229 0.921-0.149 0.482 0.131 0.555 0.437 0.601 0.566 0.083 1.138 0.15 1.709 0.165 1.1 0.029 1.151-0.008 0.757-1.009-0.274-0.697-0.713-1.331-1.072-1.985-0.904 0.415-1.041 0.347-1.901-0.901 2.521-1.032 3.56-2.846 2.011-5.243-1.287-1.992-3.242-1.829-5.19-0.537 0-0.398-0.125-0.806 0.023-0.976 0.502-0.576 0.262-1.085 0.023-1.637-0.161-0.372-0.269-0.768-0.433-1.14-0.063-0.146-0.201-0.338-0.325-0.354-0.121-0.017-0.327 0.136-0.393 0.267-0.255 0.503-0.43 1.050-0.711 1.535-0.252 0.438-0.342 0.765 0.032 1.207 0.135 0.16-0.048 0.587-0.087 0.893-0.23-0.091-0.529-0.119-0.681-0.281-0.956-1.027-2.982-1.431-4.253-0.824-0.759 0.362-1.22 0.991-1.57 1.719-0.42 0.874-0.4 1.829-0.080 2.667 0.405 1.063 1.167 1.895 2.379 2.176 0.168 0.039 0.4 0.278 0.412 0.438 0.040 0.551-1.297 1.548-1.856 1.41-0.349-0.085-0.598-0.034-0.739 0.331-0.306 0.797-0.634 1.585-0.929 2.384-0.145 0.393-0.044 0.673 0.449 0.566 0.56-0.121 1.122-0.243 1.662-0.426 0.492-0.168 0.881-0.463 0.609-1.071zM10.729 21.286c1.046-0.010 2.269-0.262 3.224-1.222 0.193-0.194 0.436-0.529 0.387-0.736-0.143-0.611-0.515-1.086-1.16-1.318-0.686-0.245-1.352-0.547-2.026-0.826-0.768-0.317-1.512-0.714-2.306-0.933-0.875-0.241-1.644-0.163-2.251 0.634-0.56 0.735-0.386 1.402 0.145 2.055 0.063 0.077 0.085 0.186 0.139 0.271 0.824 1.341 1.921 2.212 3.848 2.074zM24.202 16.211c-0.693 0.090-1.235 0.103-1.743 0.237-1.063 0.278-2.107 0.63-3.164 0.929-0.525 0.149-1.032 0.66-0.956 1.123 0.265 1.617 1.29 2.747 3.049 2.595 0.525-0.045 1.034-0.309 1.556-0.334 1.373-0.065 2.183-0.868 2.836-1.953 0.412-0.684 0.35-1.843-0.288-2.271-0.386-0.256-0.948-0.248-1.289-0.327zM18.844 25.514c-0.034-0.040-0.069-0.079-0.103-0.119-0.015-0.121 0-0.256-0.048-0.362-0.602-1.32-0.699-2.842-1.602-4.038-0.128-0.17-0.354-0.373-0.531-0.368-0.182 0.006-0.402 0.214-0.526 0.39-0.815 1.16-0.871 2.595-1.366 3.874-0.183 0.474-0.147 0.866 0.38 1.12 0.551 0.266 0.985 0.052 1.286-0.357 0.314-0.429 0.449-0.564 0.702 0.040 0.179 0.429 0.627 0.641 1.064 0.484 0.292-0.106 0.5-0.437 0.744-0.664z"></path>
<path fill="#fff" d="M22.215 7.512c-0.015 0.944-1.006 1.81-2.092 1.829-0.649 0.011-1.414-0.808-1.403-1.505 0.018-1.174 0.827-2.114 1.836-2.073 0.908 0.037 1.781 0.87 1.659 1.749z"></path>
<path fill="#fff" d="M14.716 7.223c0 0.882-0.601 1.38-1.687 1.4-0.736 0.015-1.535-0.82-1.537-1.608-0.003-0.948 0.755-1.727 1.684-1.728 0.854 0 1.541 0.861 1.539 1.936z"></path>
<path fill="#fff" d="M16.487 11.546c0.925-0.119 1.349 0.423 1.418 1.415 0.069 0.99-0.679 1.753-1.607 1.764-0.795 0.010-1.546-0.788-1.563-1.665-0.019-1.045 0.513-1.506 1.752-1.515z"></path>
</svg>
