<!-- Generated by IcoMoon.io -->
<svg version="1.1" xmlns="http://www.w3.org/2000/svg" width="32" height="32" viewBox="0 0 32 32">
<title>factions-chaos-tzeentch-daemons</title>
<path fill="#fff" d="M19.815 0c0.179 0.226 0.203 0.88 0.066 1.164-0.308 0.636-0.737 1.188-1.204 1.708-0.212 0.236-0.457 0.468-0.806 0.51-0.032 0.005-0.066 0.017-0.093 0.036-0.531 0.374-1.119 0.686-1.446 1.287-0.023 0.041-0.051 0.081-0.060 0.125-0.093 0.453-0.244 0.893-0.22 1.368 0.018 0.332-0.005 0.668-0.024 1.001-0.026 0.432 0.101 0.828 0.239 1.228 0.116 0.334 0.265 0.677 0.277 1.018 0.014 0.389-0.036 0.815-0.188 1.17-0.245 0.579-0.597 1.114-0.901 1.669-0.14 0.257-0.352 0.436-0.574 0.622-0.397 0.334-0.765 0.705-1.116 1.090-0.305 0.335-0.45 0.759-0.46 1.213-0.008 0.346-0.021 0.701 0.047 1.036 0.131 0.647 0.6 1.069 1.093 1.46 0.041 0.033 0.084 0.062 0.126 0.092-0.232 0.317-0.549 0.456-0.914 0.552-0.277 0.072-0.525 0.25-0.786 0.377-0.059 0.029-0.12 0.066-0.183 0.071-0.338 0.023-0.522 0.238-0.662 0.511-0.018 0.036-0.023 0.086-0.051 0.108-0.4 0.305-0.522 0.859-0.986 1.107-0.033 0.018-0.059 0.056-0.081 0.087-0.322 0.442-0.665 0.871-0.955 1.332-0.164 0.26-0.266 0.568-0.35 0.868-0.174 0.615-0.379 1.231-0.459 1.86-0.071 0.561-0.024 1.144 0.032 1.713 0.057 0.589 0.177 1.173 0.287 1.756 0.032 0.165 0.119 0.322 0.194 0.477 0.141 0.292 0.304 0.576 0.436 0.872 0.107 0.241 0.198 0.493 0.265 0.747 0.062 0.239 0.080 0.489 0.116 0.729-0.415 0.104-0.728-0.045-1.040-0.197-0.298-0.144-0.597-0.286-0.893-0.435-0.069-0.035-0.125-0.096-0.186-0.144-0.062-0.050-0.119-0.125-0.188-0.141-0.232-0.054-0.331-0.227-0.43-0.413-0.045-0.086-0.108-0.174-0.188-0.226-0.361-0.232-0.737-0.439-1.095-0.675-0.147-0.098-0.292-0.226-0.389-0.371-0.201-0.302-0.505-0.486-0.762-0.723-0.095-0.087-0.165-0.201-0.245-0.304-0.017-0.021-0.024-0.050-0.044-0.068-0.538-0.466-0.755-1.155-1.167-1.711-0.386-0.523-0.633-1.149-0.949-1.726-0.101-0.183-0.239-0.347-0.337-0.532-0.059-0.114-0.069-0.253-0.105-0.38s-0.074-0.251-0.111-0.376c-0.006-0.020-0.024-0.035-0.027-0.053-0.063-0.332-0.126-0.666-0.189-1-0.003-0.014 0.005-0.029 0-0.039-0.186-0.391-0.084-0.854-0.31-1.236-0.024-0.042-0.023-0.102-0.023-0.155-0.004-0.842-0.008-1.684-0.006-2.526 0-0.069 0.035-0.138 0.060-0.204 0.020-0.056 0.066-0.107 0.071-0.162 0.030-0.4 0.176-0.764 0.32-1.132 0.144-0.365 0.248-0.747 0.383-1.117 0.241-0.653 0.665-1.182 1.164-1.651 0.988-0.928 2.146-1.579 3.403-2.067 0.598-0.233 1.204-0.46 1.684-0.905 0.595-0.552 0.971-1.218 0.976-2.055 0.003-0.401 0.003-0.803 0.012-1.203 0.015-0.662 0.191-1.283 0.483-1.876 0.11-0.224 0.147-0.489 0.281-0.695 0.167-0.257 0.406-0.468 0.601-0.708 0.209-0.257 0.38-0.552 0.616-0.777 0.215-0.206 0.401-0.492 0.756-0.496 0.014 0 0.027-0.003 0.039-0.006 0.383-0.101 0.767-0.2 1.149-0.302 0.238-0.063 0.477-0.119 0.71-0.197 0.149-0.050 0.283-0.144 0.432-0.2 0.135-0.051 0.278-0.104 0.419-0.108 0.361-0.014 0.722-0.002 1.083 0.002 0.066 0 0.138 0.014 0.2-0.004 0.358-0.099 0.72-0.185 1.066-0.316 0.257-0.096 0.501-0.238 0.732-0.388 0.278-0.18 0.522-0.419 0.809-0.582 0.188-0.105 0.376-0.189 0.499-0.373 0.027-0.008 0.053-0.008 0.080-0.008z"></path>
<path fill="#fff" d="M16.469 18.987c0.786 0.006 1.47 0.164 2.123 0.459 0.036 0.017 0.074 0.038 0.111 0.042 0.785 0.105 1.401 0.577 1.98 1.037 0.665 0.529 1.24 1.18 1.618 1.967 0.131 0.274 0.263 0.546 0.238 0.875-0.014 0.183 0.084 0.373 0.111 0.564 0.029 0.201 0.042 0.407 0.044 0.612 0.005 0.869 0.017 1.737-0.011 2.604-0.008 0.245-0.138 0.487-0.216 0.729-0.024 0.075-0.095 0.146-0.093 0.218 0.005 0.447-0.262 0.767-0.511 1.081-0.759 0.959-1.651 1.777-2.792 2.255-0.955 0.398-1.952 0.654-3.007 0.543-0.606-0.063-1.209-0.15-1.773-0.389-0.147-0.062-0.245-0.235-0.373-0.347-0.248-0.218-0.501-0.433-0.756-0.644-0.050-0.041-0.12-0.056-0.182-0.081-0.201-0.081-0.409-0.149-0.601-0.244-0.463-0.229-0.741-0.633-0.983-1.069-0.059-0.105-0.105-0.216-0.171-0.316-0.287-0.436-0.486-0.913-0.657-1.403-0.015-0.044-0.030-0.092-0.059-0.126-0.358-0.415-0.422-0.914-0.432-1.437-0.006-0.34-0.054-0.678-0.066-1.018-0.005-0.12 0.050-0.242 0.068-0.365 0.21-1.424 0.85-2.621 1.896-3.602 1.036-0.973 2.27-1.559 3.652-1.851 0.104-0.023 0.207-0.057 0.313-0.066 0.198-0.017 0.4-0.021 0.531-0.027z"></path>
<path fill="#fff" d="M29.194 20.062c0.432-0.059 0.798 0.245 0.818 0.722 0.002 0.053 0.005 0.108 0.024 0.156 0.241 0.573 0.226 1.146 0.020 1.725-0.035 0.096-0.036 0.213-0.021 0.316 0.060 0.407-0.101 0.774-0.22 1.143-0.126 0.392-0.302 0.768-0.456 1.152-0.329 0.825-0.815 1.555-1.34 2.267-0.559 0.759-1.28 1.337-2.012 1.907-0.215 0.167-0.409 0.364-0.627 0.526-0.153 0.114-0.326 0.206-0.499 0.292-0.496 0.244-1.001 0.471-1.492 0.723-0.239 0.123-0.329-0.063-0.433-0.185-0.041-0.048 0.008-0.183 0.033-0.274 0.060-0.21 0.132-0.416 0.195-0.625 0.074-0.239 0.132-0.483 0.216-0.719 0.114-0.319 0.277-0.622 0.362-0.949 0.072-0.272 0.062-0.567 0.092-0.851 0.014-0.131 0.041-0.26 0.059-0.389 0.020-0.131 0.053-0.263 0.053-0.395 0.005-1.028-0.026-2.058 0.020-3.085 0.012-0.284 0.241-0.561 0.379-0.836 0.011-0.021 0.096-0.008 0.147-0.003 0.505 0.038 1.010 0.108 1.516 0.107 0.376-0.002 0.752-0.098 1.128-0.152 0.020-0.003 0.041-0.006 0.059-0.015 0.295-0.135 0.571-0.305 0.905-0.361 0.122-0.021 0.257-0.173 0.319-0.298 0.21-0.418 0.462-0.819 0.526-1.304 0.023-0.195 0.141-0.38 0.229-0.594z"></path>
</svg>
