<!-- Generated by IcoMoon.io -->
<svg version="1.1" xmlns="http://www.w3.org/2000/svg" width="32" height="32" viewBox="0 0 32 32">
<title>factions-destruction-kruleboyz</title>
<path fill="#fff" d="M24.013 9.839c-0.156 0.175-0.386 0.324-0.611 0.389-0.397 0.116-0.815 0.16-1.19 0.226-0.24-0.051-0.455-0.051-0.564-0.284-0.025-0.055-0.127-0.095-0.197-0.109-0.218-0.040-0.331-0.2-0.247-0.404 0.076-0.186 0.178-0.338 0.371-0.455 0.622-0.368 1.241-0.742 1.59-1.423 0.095-0.189 0.306-0.237 0.491-0.142 0.215 0.116 0.426 0.255 0.604 0.422 0.084 0.076 0.087 0.244 0.109 0.375 0.015 0.095-0.018 0.2-0.004 0.298 0.062 0.429-0.084 0.801-0.353 1.106zM24.013 21.836c-0.076 0.080-0.029 0.28-0.040 0.426-0.036 0.426-0.298 0.691-0.644 0.881-0.091 0.051-0.255 0.058-0.331 0.007-0.273-0.182-0.546-0.342-0.615-0.731-0.153-0.859-0.4-1.696-0.83-2.46-0.127-0.222-0.342-0.397-0.524-0.586-0.040-0.036-0.153-0.055-0.186-0.025-0.051 0.040-0.080 0.131-0.080 0.2 0 0.557 0.022 1.113 0.018 1.67-0.004 0.517 0.007 1.023-0.226 1.525-0.197 0.422-0.233 0.913-0.36 1.368-0.084 0.295-0.182 0.593-0.32 0.866-0.127 0.258-0.459 0.331-0.782 0.222-0.255-0.087-0.346-0.258-0.338-0.586 0.011-0.36 0.051-0.706 0.211-1.037 0.146-0.302 0.033-0.619-0.022-0.921-0.080-0.451-0.186-0.899-0.277-1.35-0.011-0.044-0.015-0.091-0.018-0.131-0.222-0.047-0.302 0.091-0.306 0.255-0.007 0.349-0.029 0.68-0.258 0.975-0.084 0.109-0.073 0.287-0.135 0.422-0.080 0.171-0.186 0.331-0.284 0.495-0.036 0.066-0.109 0.131-0.109 0.197 0 0.382-0.218 0.659-0.4 0.964-0.095 0.16-0.204 0.255-0.371 0.244-0.098-0.007-0.255-0.069-0.284-0.142-0.211-0.553-0.422-1.106-0.586-1.67-0.146-0.498-0.247-1.012-0.502-1.477-0.018-0.033 0-0.084 0-0.127-0.025-0.004-0.047-0.007-0.073-0.015-0.055 0.222-0.12 0.44-0.16 0.662-0.12 0.684-0.197 1.379-0.364 2.052-0.069 0.287-0.011 0.546-0.025 0.819-0.022 0.378-0.207 0.6-0.513 0.593-0.349-0.007-0.571-0.251-0.571-0.626 0-0.207 0.062-0.433-0.004-0.611-0.164-0.444-0.4-0.855-0.582-1.292-0.116-0.277-0.189-0.575-0.287-0.859-0.084-0.251-0.178-0.498-0.266-0.75-0.029-0.076-0.047-0.156-0.069-0.233-0.029-0.007-0.058-0.011-0.087-0.018-0.106 0.313-0.218 0.626-0.306 0.946-0.047 0.178-0.047 0.368-0.073 0.553-0.007 0.058-0.011 0.142-0.051 0.171-0.207 0.167-0.164 0.4-0.197 0.619-0.033 0.197-0.109 0.382-0.164 0.575-0.004 0.015-0.015 0.029-0.025 0.040-0.244 0.262-0.557 0.051-0.833 0.106-0.047 0.007-0.135-0.167-0.193-0.266-0.226-0.386-0.451-0.775-0.666-1.164-0.215-0.393-0.448-0.775-0.444-1.255 0-0.287-0.036-0.582-0.113-0.859-0.055-0.186-0.182-0.368-0.324-0.502-0.408-0.389-0.48-0.899-0.524-1.408-0.022-0.251-0.113-0.4-0.357-0.509-0.066 0.167-0.124 0.338-0.193 0.506-0.178 0.44-0.371 0.881-0.531 1.328-0.066 0.189-0.073 0.408-0.084 0.611-0.015 0.262-0.011 0.52-0.015 0.782 0 0.033 0.011 0.066 0.004 0.095-0.018 0.087-0.695 0.477-0.782 0.469-0.306-0.022-0.357-0.222-0.433-0.48-0.109-0.349-0.262-0.71-0.182-1.052 0.076-0.335 0.055-0.742 0.408-0.986 0.156-0.106 0.28-0.258 0.415-0.397 0.127-0.127 0.051-0.36-0.113-0.448-0.335-0.175-0.63-0.408-0.811-0.75-0.106-0.2 0.015-0.68 0.197-0.811 0.051-0.036 0.156-0.073 0.189-0.047 0.262 0.193 0.648 0.007 0.884 0.284 0.018 0.025 0.153-0.004 0.186-0.044 0.12-0.153 0.218-0.317 0.291-0.426-0.197-0.302-0.368-0.571-0.542-0.837-0.073-0.106-0.153-0.207-0.233-0.306-0.12-0.149-0.116-0.266 0.025-0.451-0.011-0.018-0.022-0.040-0.036-0.058-0.102-0.171-0.127-0.338 0.055-0.473 0.16-0.116 0.306-0.066 0.48 0.12 0.386 0.411 0.775 0.819 1.179 1.208 0.106 0.102 0.277 0.153 0.426 0.193 0.2 0.051 0.408 0.066 0.695 0.109-0.073-0.204-0.109-0.375-0.189-0.52-0.156-0.284-0.222-0.604-0.349-0.888-0.142-0.313-0.066-0.6-0.076-0.895-0.007-0.262 0.346-0.542 0.593-0.455 0.109 0.040 0.251 0.251 0.229 0.349-0.076 0.335 0.124 0.56 0.247 0.808 0.277 0.549 0.542 1.11 0.873 1.623 0.229 0.357 0.56 0.648 0.848 0.964 0.018 0.018 0.069 0.004 0.167 0.004-0.153-0.4-0.313-0.771-0.429-1.154-0.080-0.255-0.102-0.531-0.153-0.797-0.011-0.066-0.011-0.153-0.055-0.193-0.349-0.324-0.138-0.728-0.146-1.095 0-0.062 0.226-0.156 0.36-0.182 0.051-0.007 0.193 0.142 0.189 0.215-0.022 0.349 0.091 0.659 0.189 0.986 0.116 0.382 0.215 0.761 0.397 1.121 0.138 0.269 0.408 0.448 0.477 0.753 0.004 0.022 0.080 0.055 0.091 0.047 0.040-0.040 0.095-0.087 0.106-0.142 0.066-0.302 0.124-0.611 0.178-0.917 0.087-0.448 0.193-0.899 0.24-1.35 0.018-0.2 0.087-0.309 0.258-0.342 0.087-0.015 0.244 0.018 0.28 0.084 0.164 0.266 0.32 0.542 0.426 0.833 0.131 0.364 0.204 0.753 0.317 1.124 0.022 0.080 0.098 0.149 0.164 0.204 0.022 0.015 0.146-0.051 0.142-0.069-0.025-0.233 0.146-0.393 0.215-0.586 0.116-0.317 0.247-0.63 0.382-0.939 0.058-0.135 0.149-0.255 0.211-0.386 0.058-0.127 0.047-0.291 0.269-0.269 0.044 0.004 0.098-0.146 0.16-0.215 0.098-0.113 0.193-0.237 0.317-0.32 0.204-0.142 0.393-0.076 0.433 0.167 0.091 0.517 0.237 1.048 0.2 1.561-0.040 0.6 0.2 1.135 0.251 1.714 0.080-0.226 0.156-0.451 0.237-0.677 0.015-0.036 0.025-0.073 0.051-0.102 0.553-0.597 0.819-1.372 1.263-2.034 0.178-0.258 0.317-0.546 0.506-0.793 0.066-0.091 0.229-0.146 0.353-0.149 0.197-0.011 0.28 0.146 0.167 0.313-0.211 0.313-0.2 0.68-0.291 1.023-0.040 0.164-0.084 0.324-0.138 0.484-0.087 0.266-0.193 0.528-0.269 0.797-0.109 0.397-0.2 0.801-0.298 1.201-0.018 0.084-0.029 0.167-0.040 0.226 0.233-0.16 0.506-0.291 0.71-0.495 0.298-0.302 0.549-0.651 0.819-0.982 0.029-0.036 0.040-0.091 0.073-0.12 0.331-0.284 0.437-0.684 0.549-1.077 0.051-0.193 0.24-0.306 0.433-0.24 0.178 0.055 0.131 0.197 0.106 0.342-0.058 0.378-0.226 0.691-0.469 0.99-0.382 0.473-0.731 0.975-1.092 1.466 0.007 0.018 0.018 0.036 0.029 0.058 0.127-0.058 0.269-0.091 0.375-0.175 0.197-0.149 0.4-0.207 0.648-0.167 0.32 0.051 0.6-0.018 0.83-0.284 0.091-0.106 0.258-0.153 0.4-0.186 0.073-0.018 0.215 0.022 0.237 0.073 0.025 0.066-0.011 0.197-0.069 0.251-0.167 0.167-0.364 0.306-0.542 0.462-0.113 0.098-0.218 0.211-0.32 0.32-0.215 0.229-0.422 0.462-0.633 0.695l-0.058-0.033c0.025 0.062 0.047 0.124 0.058 0.156 0.4 0 0.775-0.007 1.154 0.004 0.102 0 0.204 0.055 0.309 0.069 0.091 0.011 0.186 0.025 0.273 0.004 0.113-0.025 0.215-0.087 0.324-0.127 0.637-0.244 1.015 0.197 1.052 0.764 0.044 0.706 0.029 1.412 0.036 2.121 0 0.215-0.007 0.418-0.189 0.597zM8.18 6.695c0.156-0.025 0.331-0.029 0.48 0.015 0.098 0.025 0.16 0.207 0.251 0.218 0.218 0.033 0.368 0.153 0.517 0.284 0.215 0.189 0.426 0.386 0.622 0.597 0.153 0.171 0.277 0.368 0.426 0.542 0.12 0.138 0.258 0.262 0.386 0.393 0.2 0.197 0.175 0.411-0.091 0.517-0.237 0.095-0.495 0.146-0.768 0.222-0.32-0.106-0.659-0.156-0.932-0.32-0.277-0.16-0.568-0.375-0.571-0.771 0-0.047-0.069-0.116-0.12-0.135-0.164-0.055-0.226-0.167-0.24-0.331-0.029-0.338-0.073-0.673-0.091-1.012-0.004-0.073 0.076-0.207 0.131-0.218zM13.322 10.694c0.2-0.015 0.266 0.087 0.298 0.269 0.015 0.084 0.109 0.175 0.189 0.229 0.226 0.153 0.422 0.32 0.451 0.619-0.197 0.058-0.32 0.033-0.411-0.175-0.047-0.106-0.215-0.16-0.331-0.226-0.087-0.047-0.186-0.073-0.28-0.109-0.047 0.087-0.091 0.156-0.135 0.229-0.018-0.007-0.040-0.018-0.062-0.025-0.007-0.167-0.018-0.335-0.022-0.502 0-0.193 0.106-0.291 0.302-0.309zM16.266 11.585c0.098-0.156 0.178-0.328 0.24-0.502 0.076-0.204 0.233-0.298 0.418-0.364 0.149-0.051 0.24 0.058 0.222 0.175-0.029 0.197-0.109 0.386-0.186 0.571-0.018 0.051-0.087 0.087-0.138 0.12-0.16 0.102-0.32 0.211-0.491 0.291-0.091 0.044-0.204 0.044-0.309 0.062-0.011-0.029-0.022-0.058-0.029-0.087 0.091-0.087 0.207-0.16 0.273-0.266zM30.224 13.579c0.004-0.469 0.073-0.953-0.025-1.401-0.076-0.342-0.338-0.655-0.568-0.946-0.331-0.418-0.626-0.855-0.746-1.379-0.091-0.408-0.098-0.83-0.138-1.244-0.044-0.437-0.066-0.888-0.368-1.266-0.204-0.258-0.349-0.56-0.509-0.848-0.051-0.091-0.091-0.193-0.12-0.295-0.175-0.604-0.495-1.081-1.092-1.35-0.287-0.127-0.546-0.317-0.815-0.477-0.291-0.175-0.52-0.484-0.932-0.357-0.055 0.018-0.153-0.033-0.207-0.080-0.2-0.186-0.233-0.782-0.058-0.99-0.193-0.153-0.382-0.306-0.575-0.451-0.062-0.047-0.142-0.066-0.197-0.116-0.273-0.244-0.702-0.309-0.837-0.717-0.011-0.029-0.055-0.055-0.084-0.069-0.229-0.113-0.393-0.342-0.673-0.368-0.091-0.007-0.171-0.102-0.251-0.16-0.229-0.164-0.433-0.378-0.761-0.331-0.055 0.007-0.12-0.022-0.175-0.047-0.269-0.12-0.648 0.022-0.768 0.302-0.080 0.178-0.222 0.277-0.404 0.237-0.178-0.040-0.233-0.2-0.193-0.371 0.033-0.149-0.036-0.226-0.153-0.298-0.237-0.142-0.462-0.298-0.691-0.448-0.025-0.015-0.058-0.022-0.087-0.025-0.295-0.025-0.597-0.029-0.888-0.076-0.204-0.033-0.338 0.058-0.48 0.167-0.186 0.138-0.36 0.306-0.568 0.389-0.353 0.146-0.524 0.411-0.637 0.746-0.047 0.146-0.12 0.291-0.207 0.415-0.073 0.102-0.175 0.226-0.284 0.251-0.357 0.084-0.575-0.171-0.571-0.542 0.004-0.207 0.025-0.466-0.24-0.597-0.109-0.051-0.193-0.156-0.291-0.233-0.076-0.058-0.153-0.116-0.237-0.156-0.186-0.084-0.393-0.127-0.56-0.237-0.138-0.087-0.218-0.095-0.346 0-0.418 0.302-0.877 0.386-1.375 0.244-0.047-0.015-0.138-0.022-0.146-0.004-0.087 0.218-0.309 0.167-0.466 0.247-0.167 0.084-0.313 0.215-0.48 0.287-0.142 0.062-0.302 0.084-0.459 0.091-0.022 0.004-0.055-0.164-0.087-0.277-0.175 0.022-0.258 0.182-0.306 0.353-0.12 0.437-0.418 0.633-0.851 0.662-0.164 0.011-0.324 0.015-0.488 0.033-0.098 0.007-0.204 0.015-0.295 0.055-0.579 0.258-1.070 0.64-1.546 1.048-0.066 0.058-0.164 0.076-0.247 0.109-0.149 0.058-0.313 0.087-0.44 0.175-0.386 0.258-0.535 0.662-0.611 1.095-0.084 0.462-0.509 0.917-0.964 1.041-0.171 0.047-0.36 0.124-0.48 0.244-0.262 0.258-0.313 0.68-0.673 0.87-0.029 0.015-0.044 0.066-0.058 0.102-0.066 0.16-0.116 0.331-0.196 0.488-0.153 0.298-0.331 0.586-0.484 0.884-0.131 0.258-0.247 0.528-0.353 0.797-0.076 0.2-0.124 0.411-0.193 0.611-0.069 0.197-0.175 0.386-0.218 0.586-0.073 0.317 0.047 0.684-0.251 0.946-0.022 0.018-0.015 0.073-0.015 0.113 0.011 0.575 0.007 1.15 0.036 1.725 0.044 0.815 0.153 1.627-0.087 2.431-0.015 0.044 0.004 0.12 0.033 0.146 0.306 0.251 0.386 0.597 0.397 0.964 0.011 0.28 0.069 0.579-0.138 0.811-0.211 0.233-0.262 0.506-0.273 0.797-0.015 0.455 0.244 0.826 0.404 1.219 0.175 0.429 0.477 0.804 0.491 1.295 0.007 0.277 0.025 0.557 0.047 0.837 0.007 0.058 0.029 0.153 0.073 0.171 0.182 0.080 0.189 0.229 0.175 0.386-0.047 0.48-0.102 0.961-0.149 1.441-0.022 0.24-0.004 0.48 0.164 0.68 0.182 0.215 0.4 0.404 0.549 0.637 0.182 0.284 0.415 0.429 0.742 0.459 0.106 0.011 0.211 0.055 0.342 0.091-0.051 0.215-0.116 0.4-0.131 0.59-0.040 0.586 0.287 1.019 0.626 1.445 0.087 0.113 0.171 0.2 0.335 0.204 0.080 0.004 0.189 0.069 0.233 0.138 0.204 0.328 0.378 0.67 0.582 0.997 0.058 0.098 0.16 0.189 0.262 0.237 0.098 0.044 0.229 0.015 0.342 0.040 0.156 0.033 0.371 0.058 0.382 0.244 0.015 0.36 0.262 0.626 0.466 0.797 0.535 0.451 1.19 0.673 1.918 0.586 0.433-0.051 0.706-0.113 0.724 0.408 0.011 0.313 0.011 0.546 0.44 0.615 0.4 0.066 0.786 0.135 1.186 0.091 0.153-0.018 0.309-0.047 0.462-0.044 0.742 0.011 1.488 0.022 2.227 0.062 0.16 0.007 0.309 0.142 0.466 0.211 0.138 0.066 0.277 0.131 0.422 0.182 0.066 0.022 0.142 0.018 0.215 0.022 0.462 0.025 0.935 0.116 1.386 0.058 0.593-0.080 1.117-0.386 1.619-0.724 0.437-0.295 0.862-0.637 1.452-0.604 0.16 0.011 0.331-0.076 0.488-0.146 0.968-0.426 1.932-0.859 2.896-1.292 0.644-0.291 1.288-0.582 1.929-0.888 0.109-0.051 0.207-0.156 0.277-0.258 0.189-0.291 0.364-0.593 0.531-0.899 0.055-0.098 0.091-0.215 0.109-0.328 0.040-0.258 0.076-0.517 0.095-0.779 0.025-0.404 0.215-0.68 0.571-0.877 0.207-0.116 0.426-0.277 0.546-0.473 0.193-0.317 0.309-0.677 0.455-1.019 0.058-0.138 0.135-0.273 0.164-0.415 0.095-0.448 0.488-0.811 0.932-0.844 0.186-0.018 0.309-0.124 0.317-0.306 0.015-0.426 0.018-0.851 0.004-1.274-0.004-0.109-0.076-0.226-0.146-0.317-0.098-0.127-0.24-0.222-0.328-0.357-0.171-0.269-0.127-0.659 0.12-0.739 0.404-0.127 0.498-0.382 0.473-0.75 0-0.044 0.040-0.091 0.033-0.135-0.011-0.098-0.029-0.197-0.066-0.287-0.091-0.226-0.258-0.44-0.277-0.67-0.033-0.408 0.022-0.819 0.044-1.23 0.015-0.28 0.189-0.444 0.418-0.571 0.073-0.040 0.16-0.076 0.204-0.142 0.226-0.357 0.284-0.822 0.033-1.157-0.204-0.277-0.156-0.553 0.084-0.793 0.040-0.036 0.091-0.087 0.095-0.131z"></path>
</svg>
