<!-- Generated by IcoMoon.io -->
<svg version="1.1" xmlns="http://www.w3.org/2000/svg" width="32" height="32" viewBox="0 0 32 32">
<title>factions-chaos-horns-of-hashut</title>
<path fill="#fff" d="M15.168 30.067c-0.828-1.124-1.636-2.523-1.951-3.312-0.296-0.749-0.769-1.853-1.045-2.444s-0.749-1.695-1.064-2.464c-0.296-0.749-0.611-1.459-0.71-1.557-0.079-0.118-0.158-0.355-0.158-0.532 0-0.197-0.394-0.788-0.867-1.36-0.473-0.552-1.005-1.419-1.202-1.932-0.394-1.124-0.473-1.281-1.459-3.41-0.552-1.163-1.025-1.873-1.537-2.287-0.414-0.335-0.946-0.769-1.202-0.986-0.355-0.276-0.473-0.65-0.631-1.952-0.099-0.867-0.237-1.814-0.296-2.089-0.237-0.887 2.898-5.086 3.785-5.086 0.118 0 0.039 0.355-0.177 0.788-0.611 1.202-0.848 3.095-0.532 4.021 0.375 1.045 0.926 1.399 3.331 2.030 2.030 0.532 2.168 0.552 7.077 0.512 2.819-0.020 5.48-0.138 6.111-0.276 1.478-0.296 2.503-0.887 2.819-1.636 0.375-0.867 0.355-5.263-0.020-5.716-0.532-0.65-0.099-0.453 1.163 0.493 0.749 0.572 1.399 1.242 1.557 1.616 0.453 1.045 0.808 2.543 0.808 3.391 0 1.518-0.986 4.337-2.030 5.776-0.946 1.321-2.503 4.435-2.503 5.027 0 0.256-0.079 0.532-0.177 0.651-0.296 0.315-1.202 2.937-1.202 3.469 0 0.591-0.434 1.636-2.070 5.184-0.355 0.769-0.769 1.675-0.887 2.030-0.138 0.355-0.434 0.808-0.67 0.986-0.217 0.197-0.552 0.572-0.71 0.867-0.493 0.848-1.616 2.129-1.873 2.129-0.138 0-0.887-0.867-1.676-1.932zM17.711 25.691c0.414-0.434 0.986-1.262 1.262-1.814 1.34-2.819 2.090-4.475 2.306-5.184 0.158-0.434 0.473-1.242 0.729-1.814 0.256-0.552 0.453-1.104 0.453-1.202s0.138-0.453 0.315-0.789c0.375-0.749 0.552-2.405 0.256-2.405-0.099 0-0.158-0.079-0.079-0.177 0.059-0.118-0.079-0.375-0.315-0.572-0.355-0.335-0.828-0.414-3.666-0.532-1.794-0.079-3.942-0.079-4.77 0-0.828 0.099-1.833 0.177-2.267 0.217-0.414 0.039-0.926 0.217-1.143 0.414-0.355 0.315-0.375 0.512-0.256 1.833 0.079 1.005 0.276 1.695 0.572 2.168 0.237 0.375 0.69 1.321 0.986 2.070 0.315 0.769 0.729 1.518 0.926 1.675 0.177 0.158 0.473 0.946 0.65 1.735 0.493 2.208 2.227 5.165 3.016 5.165 0.138 0 0.591-0.355 1.025-0.788z"></path>
</svg>
