<!-- Generated by IcoMoon.io -->
<svg version="1.1" xmlns="http://www.w3.org/2000/svg" width="32" height="32" viewBox="0 0 32 32">
<title>factions-chaos-skaven</title>
<path fill="#fff" d="M0 4.29c0.387 0.121 0.773 0.248 1.162 0.364 0.573 0.171 1.156 0.284 1.754 0.304 0.625 0.020 1.251 0.029 1.876 0.041 0.202 0.004 0.403 0 0.646 0-0.139-0.286-0.256-0.568-0.408-0.832-0.206-0.358-0.449-0.694-0.652-1.054-0.118-0.209-0.175-0.452-0.284-0.666-0.194-0.386-0.406-0.761-0.609-1.141-0.031-0.057-0.056-0.118-0.095-0.206 0.26 0 0.495-0.012 0.729 0.003 0.497 0.029 0.995 0.105 1.492 0.108 0.84 0.003 1.681-0.031 2.521-0.063 0.189-0.007 0.267 0.039 0.307 0.234 0.175 0.871 0.354 1.743 0.677 2.576 0.137 0.355 0.262 0.716 0.405 1.070 0.016 0.039 0.108 0.066 0.167 0.069 0.772 0.023 1.545 0.028 2.315 0.066 0.821 0.041 1.638 0.041 2.458-0.044 0.471-0.048 0.95-0.025 1.425-0.032 1.017-0.013 2.036-0.034 3.053-0.034 0.754 0 1.508 0.019 2.262 0.039 0.357 0.010 0.712 0.047 1.067 0.073 0.124 0.009 0.193-0.028 0.247-0.155 0.064-0.151 0.197-0.27 0.263-0.419 0.066-0.146 0.070-0.319 0.126-0.471 0.118-0.327 0.267-0.646 0.377-0.976 0.2-0.598 0.441-1.185 0.462-1.83 0.001-0.037 0.069-0.101 0.107-0.102 0.767-0.023 1.534-0.042 2.302-0.056 0.076-0.001 0.153 0.048 0.231 0.047 0.374-0.004 0.747-0.029 1.119-0.028 0.449 0.001 0.897 0.018 1.344 0.039 0.139 0.007 0.143 0.102 0.056 0.235-0.257 0.39-0.536 0.772-0.739 1.19-0.187 0.386-0.276 0.817-0.428 1.22-0.156 0.415-0.336 0.82-0.517 1.261 0.229-0.016 0.45-0.022 0.668-0.047 0.465-0.056 0.929-0.114 1.394-0.183 0.625-0.092 1.248-0.196 1.872-0.295 0.241-0.038 0.481-0.077 0.722-0.11 0.039-0.006 0.105 0.012 0.121 0.039 0.018 0.031 0.001 0.092-0.019 0.13-0.031 0.058-0.075 0.111-0.115 0.164-0.085 0.111-0.118 0.219-0.089 0.37 0.063 0.322-0.086 0.59-0.266 0.845-0.053 0.073-0.094 0.153-0.14 0.231-0.094 0.155-0.189 0.308-0.279 0.466-0.088 0.152-0.175 0.304-0.256 0.46-0.273 0.536-0.533 1.078-0.815 1.609-0.136 0.256-0.509 0.361-0.855 0.267-0.596-0.161-1.2-0.297-1.816-0.292-0.583 0.004-1.165 0.083-1.746 0.092-0.248 0.003-0.305 0.14-0.386 0.314-0.161 0.346-0.346 0.681-0.506 1.029-0.124 0.27-0.213 0.555-0.333 0.827-0.083 0.187-0.191 0.364-0.288 0.545-0.124 0.235-0.245 0.473-0.371 0.709-0.206 0.384-0.416 0.767-0.624 1.15-0.216 0.399-0.433 0.799-0.647 1.198-0.238 0.444-0.479 0.887-0.712 1.334-0.284 0.545-0.498 1.116-0.678 1.704-0.13 0.424-0.345 0.811-0.598 1.181-0.215 0.314-0.383 0.66-0.56 1-0.329 0.63-0.649 1.263-0.969 1.897-0.091 0.178-0.191 0.358-0.243 0.549-0.035 0.13-0.028 0.297 0.025 0.419 0.403 0.941 0.831 1.869 1.581 2.601 0.196 0.191 0.36 0.418 0.564 0.598 0.199 0.174 0.425 0.317 0.652 0.456 0.152 0.094 0.165 0.148 0.031 0.267-0.18 0.161-0.418 0.301-0.509 0.506-0.155 0.346-0.46 0.532-0.688 0.798-0.282 0.33-0.602 0.636-0.831 1-0.115 0.184-0.238 0.352-0.381 0.51-0.080 0.089-0.153 0.187-0.24 0.272-0.237 0.238-0.482 0.466-0.715 0.707-0.279 0.291-0.453 0.254-0.582-0.142-0.259-0.791-0.513-1.584-0.773-2.375-0.020-0.061-0.063-0.115-0.092-0.174-0.051-0.104-0.123-0.206-0.142-0.316-0.034-0.206-0.105-0.322-0.263-0.343s-0.336 0.089-0.408 0.245c-0.193 0.418-0.393 0.831-0.582 1.251-0.113 0.25-0.205 0.509-0.316 0.757-0.207 0.466-0.414 0.932-0.642 1.388-0.044 0.088-0.18 0.129-0.245 0.174-0.186-0.177-0.36-0.333-0.522-0.498-0.158-0.161-0.305-0.33-0.456-0.498-0.427-0.473-0.855-0.947-1.277-1.423-0.067-0.076-0.137-0.167-0.161-0.26-0.073-0.289-0.259-0.494-0.478-0.671-0.216-0.175-0.446-0.336-0.674-0.495-0.134-0.094-0.187-0.224-0.181-0.376 0.006-0.14 0.094-0.213 0.231-0.244 0.048-0.010 0.091-0.057 0.129-0.095 1.019-1.013 1.913-2.128 2.709-3.322 0.108-0.162 0.186-0.343 0.3-0.501 0.186-0.254 0.241-0.506 0.114-0.811-0.238-0.568-0.424-1.162-0.682-1.72-0.339-0.732-0.734-1.439-1.093-2.163-0.13-0.26-0.244-0.53-0.338-0.807-0.158-0.468-0.468-0.848-0.697-1.271-0.421-0.777-0.786-1.586-1.181-2.379-0.156-0.313-0.333-0.615-0.492-0.926-0.484-0.937-0.963-1.876-1.444-2.815-0.088-0.172-0.186-0.341-0.26-0.519-0.080-0.189-0.224-0.241-0.408-0.238-0.304 0.006-0.611-0.003-0.913 0.022-0.259 0.020-0.522 0.051-0.767 0.127-0.647 0.202-1.286 0.435-1.93 0.649-0.27 0.089-0.245 0.056-0.433-0.148-0.284-0.31-0.621-0.568-0.913-0.871-0.139-0.145-0.241-0.332-0.332-0.513-0.13-0.26-0.237-0.533-0.349-0.802-0.153-0.364-0.292-0.734-0.457-1.092-0.113-0.241-0.251-0.471-0.395-0.696-0.186-0.289-0.386-0.571-0.585-0.852-0.053-0.070-0.127-0.126-0.19-0.189 0-0.073 0-0.146 0-0.219zM12.205 8.582c0.053 0.167 0.104 0.273 0.12 0.386 0.121 0.795 0.459 1.514 0.823 2.212 0.314 0.602 0.668 1.185 1.057 1.749 0.409 0.595 0.753 1.236 1.106 1.868 0.234 0.419 0.443 0.853 0.649 1.287 0.175 0.368 0.33 0.747 0.494 1.121 0.022-0.001 0.044-0.003 0.066-0.004 0.2-0.411 0.402-0.82 0.599-1.23 0.326-0.678 0.64-1.362 0.978-2.034 0.225-0.449 0.414-0.919 0.76-1.301 0.107-0.117 0.161-0.284 0.225-0.434 0.13-0.298 0.251-0.601 0.374-0.903 0.053-0.129 0.095-0.262 0.148-0.392 0.048-0.118 0.089-0.241 0.156-0.348 0.343-0.533 0.64-1.086 0.785-1.711 0.045-0.194 0.044-0.212-0.149-0.218-0.65-0.022-1.301-0.050-1.952-0.060-0.779-0.013-1.553-0.076-2.337-0.018-0.837 0.063-1.681 0.032-2.522 0.039-0.248 0.001-0.498-0.007-0.748-0.010-0.197-0.001-0.395 0-0.63 0z"></path>
</svg>
