<!-- Generated by IcoMoon.io -->
<svg version="1.1" xmlns="http://www.w3.org/2000/svg" width="32" height="32" viewBox="0 0 32 32">
<title>factions-chaos-splintered-fang</title>
<path fill="#fff" d="M13.942 18.454c1.452-1.79 1.118-4.15-0.497-5.014-0.77-0.413-1.785-0.202-2.336 0.475-0.296 0.364-0.558 0.782-0.923 1.058-0.266 0.2-0.675 0.212-1.021 0.307-0.029-0.083-0.059-0.165-0.088-0.248 0.334-0.409 0.682-0.807 0.997-1.23 0.334-0.451 0.635-0.926 1.053-1.543-0.069-0.062-0.244-0.344-0.475-0.403-0.588-0.153-1.204-0.296-1.801-0.268-0.398 0.019-0.861 0.268-1.13 0.564-0.116 0.126 0.182 0.632 0.307 1.014-0.699 0.238-1.243-0.187-1.558-0.684-0.148-0.232 0.123-0.857 0.367-1.184 0.352-0.473 0.851-0.837 1.206-1.171 0.408 0.19 0.662 0.312 0.918 0.431 0.089-0.195 0.177-0.391 0.266-0.584-0.141-0.035-0.283-0.072-0.494-0.126 0.17-0.16 0.32-0.429 0.505-0.456 1.211-0.175 2.429-0.307 3.647-0.426 0.174-0.017 0.497 0.072 0.519 0.167 0.296 1.26 1.518 1.62 2.311 2.382 1.701 1.634 2.424 3.61 2.023 5.892-0.138 0.788-0.79 1.487-1.204 2.228-0.081 0.143-0.15 0.293-0.335 0.655 0.969 0 1.812 0.083 2.636-0.017 1.612-0.195 3.098-0.837 4.3-1.902 0.702-0.623 1.186-1.518 1.678-2.343 0.162-0.271 0.157-0.765 0.015-1.053-0.115-0.234-0.547-0.312-0.839-0.46-0.084 0.263-0.291 0.559-0.231 0.782 0.318 1.155-0.051 2.22-1.088 2.754-0.162 0.083-0.536-0.019-0.675-0.165-0.856-0.899-0.721-3.076 0.138-3.978 0.775-0.815 1.469-1.706 2.313-2.7 2.419-0.126 3.53 1.865 3.081 4.167-0.16 0.822-0.227 1.673-0.495 2.457-0.197 0.576-0.544 1.199-1.011 1.565-1.327 1.038-2.649 2.171-4.16 2.855-1.566 0.711-3.33 1.039-5.12 0.551-0.734-0.2-1.513-0.241-2.267-0.367-1.71-0.288-3.37-2.527-3.436-4.246-0.057-1.47 0.059-2.847 1.278-3.893 0.723-0.62 1.437-0.435 1.62 0.5 0.084 0.428 0.012 0.886 0.010 1.329-0.005 0.702-0.003 1.406-0.003 2.328z"></path>
<path fill="#fff" d="M7.009 17.476c0.756 0.91 1.583 1.588 2.809 1.604 0.734 0.008 1.155 0.278 1.275 1.117 0.071 0.49 0.531 0.938 0.864 1.369 0.18 0.234 0.46 0.391 0.694 0.581-0.030 0.062-0.062 0.123-0.093 0.185-1.086 0-2.193 0.131-3.254-0.034-1.28-0.2-2.459-0.751-3.554-1.516-1.758-1.226-2.783-3.473-2.249-5.558 0.258-1.004 0.928-1.817 1.819-2.382 0.16-0.101 0.509-0.027 0.707 0.083 0.605 0.328 1.209 0.672 1.748 1.095 0.271 0.214 0.473 0.586 0.579 0.928 0.335 1.081-0.344 2.367-1.348 2.528z"></path>
<path fill="#fff" d="M21.085 13.435c0.264-0.285 0.536-0.574 0.94-1.011-1.189-0.076-2.208-0.141-3.288-0.211-0.2 0.409 0.069 0.846 1.007 1.423-0.377 0.846-0.349 0.894 0.8 1.361-0.051 0.066-0.084 0.14-0.141 0.18-1.046 0.736-1.075 0.702-1.666-0.342-0.413-0.729-0.911-1.413-1.415-2.085-0.473-0.633-1.032-1.203-1.489-1.846-0.103-0.145-0.024-0.608 0.12-0.706 0.953-0.645 1.999-0.943 3.167-0.66 0.595 0.143 1.204 0.224 1.784 0.33-0.071 0.3-0.236 0.595-0.162 0.805 0.059 0.168 0.406 0.238 0.729 0.404-0.019-0.404-0.029-0.638-0.039-0.876 0.936 0.022 1.831 0.665 1.871 1.267 0.051 0.679-1.166 1.989-2.218 1.966z"></path>
<path fill="#fff" d="M29.172 10.519c0.443 0.276 0.923 0.45 1.223 0.787 0.995 1.117 1.878 2.367 1.526 3.952-0.278 1.248-0.566 2.442-1.792 3.384-0.999 0.766-1.969 1.248-3.138 1.491-0.128 0.027-0.268 0.003-0.477 0.003 0.052-0.241 0.052-0.44 0.135-0.593 0.18-0.332 0.475-0.616 0.591-0.963 0.275-0.819 0.706-1.326 1.565-1.708 1.588-0.706 1.876-3.2 1.381-4.418-0.244-0.608-0.606-1.169-1.014-1.934z"></path>
<path fill="#fff" d="M2.588 11.154c-1.225 1.193-1.312 2.611-1.125 4.078 0.096 0.748 0.254 1.489 1.155 1.742 0.179 0.051 0.406 0.241 0.451 0.411 0.243 0.916 0.436 1.846 0.645 2.771-1.371 0.276-3.354-1.422-3.618-3.155-0.502-3.281 1.065-5.636 2.491-5.846z"></path>
</svg>
