<!-- Generated by IcoMoon.io -->
<svg version="1.1" xmlns="http://www.w3.org/2000/svg" width="32" height="32" viewBox="0 0 32 32">
<title>factions-order-fyreslayers</title>
<path fill="#fff" d="M19.498 21.967c-0.382-0.262-0.739-0.503-1.090-0.752-0.127-0.089-0.266-0.181-0.351-0.305-0.099-0.143-0.222-0.338-0.19-0.481 0.022-0.099 0.287-0.215 0.435-0.206 0.402 0.024 0.802 0.098 1.195 0.183 0.262 0.056 0.513 0.167 0.868 0.287-0.184-0.35-0.321-0.608-0.456-0.868-0.481-0.932-0.193-1.881 0.73-2.385 0.356-0.194 0.723-0.37 1.109-0.566-0.279-0.227-0.543-0.418-0.778-0.635-0.487-0.451-0.498-0.881-0.061-1.377 0.464-0.527 1.048-0.78 1.761-0.759 0.058-0.325-0.046-0.553-0.297-0.753-0.526-0.419-1.034-0.858-1.547-1.292-0.317-0.266-0.416-0.569-0.264-0.988 0.235-0.642 0.235-1.31 0.115-1.986-0.115-0.655-0.196-1.316-0.297-2.016-0.514 0.688-0.994 1.329-1.472 1.97-0.043 0.058-0.085 0.117-0.134 0.168-0.176 0.186-0.379 0.261-0.609 0.108-0.235-0.154-0.206-0.373-0.075-0.567 0.357-0.53 0.32-1.11 0.255-1.748-0.117 0.061-0.21 0.099-0.295 0.153-0.547 0.346-1.077 0.721-1.642 1.037-0.708 0.396-1.441 0.75-2.17 1.106-0.72 0.351-1.449 0.687-2.177 1.022-0.412 0.189-0.608 0.143-0.796-0.249-0.5-1.031-1.398-1.539-2.418-1.896-0.446-0.157-0.899-0.301-1.41-0.471 0.104-0.078 0.143-0.125 0.192-0.14 0.753-0.23 1.503-0.475 2.265-0.674 0.217-0.056 0.469 0.017 0.704 0.033 0.2 0.013 0.409 0.066 0.6 0.030 0.128-0.023 0.3-0.151 0.334-0.266 0.035-0.118-0.030-0.34-0.128-0.409-0.248-0.174-0.53-0.386-0.812-0.407-1.112-0.084-2.228-0.102-3.342-0.143-0.151-0.006-0.304-0.001-0.518-0.001 0.498-0.68 1.067-1.129 1.868-1.218 0.452-0.050 0.907-0.078 1.359-0.13 0.39-0.045 0.549-0.259 0.467-0.645-0.086-0.402-0.321-0.711-0.727-0.815-0.554-0.143-1.12-0.242-1.682-0.359-0.137-0.029-0.274-0.053-0.472-0.092 0.494-0.487 1.037-0.739 1.646-0.842 1.103-0.186 2.111 0.101 3.063 0.645 0.229 0.131 0.451 0.276 0.69 0.386 0.284 0.128 0.567 0.13 0.766-0.164 0.204-0.301 0.048-0.54-0.19-0.708-0.634-0.451-1.28-0.883-1.927-1.315-0.164-0.111-0.346-0.196-0.52-0.292 0.009-0.032 0.019-0.062 0.027-0.094 0.51 0.092 1.040 0.122 1.522 0.291 0.969 0.337 1.924 0.726 2.863 1.142 0.353 0.155 0.634 0.468 0.969 0.671 0.259 0.157 0.543 0.31 0.835 0.367 0.442 0.086 0.7-0.255 0.501-0.664-0.192-0.396-0.454-0.759-0.693-1.13-0.15-0.225-0.315-0.444-0.537-0.757 1.060 0.31 1.993 0.634 2.605 1.487 0.276 0.386 0.467 0.834 0.693 1.254 0.068 0.127 0.096 0.294 0.197 0.379 0.151 0.13 0.344 0.266 0.53 0.284 0.251 0.024 0.422-0.173 0.452-0.425 0.050-0.416 0.073-0.835 0.104-1.253 0.009-0.13 0.001-0.259 0.001-0.433 0.611 0.17 1.079 0.48 1.467 0.917 0.776 0.871 1.051 1.944 1.207 3.060 0.045 0.32 0.046 0.645 0.053 0.969 0.006 0.279-0.029 0.615 0.305 0.69 0.323 0.073 0.645-0.050 0.845-0.353 0.176-0.266 0.336-0.543 0.508-0.827 0.374 0.341 0.389 0.77 0.446 1.179 0.104 0.747 0.192 1.498 0.289 2.245 0.017 0.13 0.045 0.261 0.088 0.384 0.173 0.488 0.579 0.6 0.973 0.278 0.062-0.050 0.124-0.101 0.209-0.168 0.143 1.002-0.045 1.889-0.611 2.684-0.099 0.14-0.265 0.239-0.416 0.333-0.24 0.15-0.422 0.384-0.285 0.616 0.089 0.151 0.396 0.2 0.615 0.242 0.144 0.027 0.305-0.042 0.504-0.075 0 0.107 0.024 0.215-0.004 0.305-0.212 0.69-0.442 1.371-1.035 1.85-0.137 0.111-0.251 0.256-0.359 0.399-0.181 0.238-0.193 0.497 0 0.727 0.207 0.246 0.474 0.255 0.747 0.105 0.163-0.089 0.321-0.189 0.531-0.314-0.23 0.878-0.534 1.617-1.414 1.96-0.256 0.099-0.481 0.281-0.753 0.445 0.39 0.344 0.711 0.122 1.112 0.107-0.174 0.266-0.321 0.559-0.53 0.795-0.514 0.579-1.205 0.896-1.896 1.207-0.54 0.242-0.6 0.419-0.238 0.88 0.168 0.213 0.127 0.338-0.035 0.52-0.733 0.824-1.604 1.395-2.716 1.557-0.048 0.007-0.096 0.010-0.141 0.024-0.276 0.086-0.531 0.196-0.477 0.562 0.042 0.279 0.34 0.458 0.694 0.418 0.196-0.022 0.39-0.040 0.586-0.062 0.010 0.029 0.019 0.058 0.029 0.085-0.341 0.187-0.68 0.38-1.025 0.56-0.573 0.3-1.162 0.57-1.721 0.894-0.72 0.418-0.854 0.858-0.524 1.627 0.098 0.227 0.032 0.356-0.141 0.49-1.194 0.923-2.465 1.699-3.93 2.117-1.23 0.35-2.452 0.729-3.696 1.021-0.706 0.166-1.444 0.204-2.171 0.252-0.272 0.017-0.551-0.101-0.919-0.176 0.191-0.206 0.31-0.347 0.441-0.475 0.89-0.873 1.672-1.819 2.046-3.038 0.039-0.125 0.075-0.253 0.094-0.383 0.062-0.42-0.042-0.546-0.461-0.552-0.249-0.004-0.505-0.029-0.747 0.013-0.599 0.104-0.976 0.586-0.973 1.195 0.003 0.625-0.143 0.815-0.762 0.991-0.263 0.075-0.528 0.144-0.796 0.207-0.049 0.012-0.109-0.024-0.176-0.042 0.006-0.063-0.006-0.12 0.017-0.153 0.713-1.084 0.828-2.36 1.136-3.571 0.333-1.31 0.622-2.631 0.932-3.947 0.023-0.099 0.055-0.197 0.098-0.351 0.18 0.271 0.33 0.498 0.481 0.724 0.305 0.455 0.461 0.485 0.906 0.177 0.585-0.405 1.181-0.783 1.909-0.867 0.148-0.017 0.301-0.003 0.521-0.003-0.133 0.227-0.223 0.419-0.347 0.589-0.557 0.766-0.814 1.616-0.776 2.563 0.019 0.467 0.001 0.936-0.019 1.404-0.030 0.726 0.289 1.302 0.779 1.788 0.153 0.151 0.387 0.295 0.59 0.305 0.884 0.045 1.777 0.105 2.657 0.033 1.037-0.085 1.866-0.955 2.045-1.976 0.069-0.395 0.102-0.786-0.108-1.155-0.023-0.040-0.037-0.094-0.032-0.138 0.079-0.733-0.412-1.096-0.922-1.46-0.166-0.118-0.284-0.3-0.425-0.452 0.179-0.102 0.347-0.261 0.539-0.295 0.655-0.121 1.315-0.239 1.979-0.284 0.612-0.048 1.089-0.318 1.555-0.704z"></path>
<path fill="#fff" d="M22.040 13.639c-0.819 0.084-1.313 0.439-1.542 1.155-0.216 0.677-0.22 1.28 0.5 1.725-0.134 0.127-0.22 0.22-0.318 0.297-0.209 0.16-0.42 0.318-0.641 0.464-0.72 0.474-0.95 0.84-0.615 2.020 0.078 0.271 0.219 0.524 0.363 0.858-0.311-0.053-0.563-0.133-0.815-0.131-0.446 0.003-0.912-0.009-1.336 0.105-0.42 0.114-0.48 0.429-0.158 0.732 0.325 0.305 0.716 0.544 1.084 0.803 0.121 0.085 0.262 0.14 0.454 0.239-0.386 0.301-0.733 0.567-1.166 0.518-1.407-0.16-2.629 0.406-3.858 0.94-0.723 0.315-1.058 1.043-0.814 1.626 0.013 0.032 0.042 0.056 0.097 0.13 0.144-0.206 0.276-0.395 0.409-0.585 0.333-0.475 0.821-0.622 1.355-0.405 0.865 0.351 1.387 1.343 1.202 2.275-0.167 0.84-0.978 1.561-1.928 1.502-0.514-0.032-1.031-0.001-1.548-0.004-0.874-0.004-1.4-0.445-1.528-1.306-0.334-2.232 0.377-4.028 2.228-5.36 0.973-0.7 1.968-1.38 2.714-2.343 0.433-0.559 0.76-1.162 0.759-1.898 0-0.192-0.007-0.419-0.245-0.382-0.144 0.023-0.376 0.24-0.367 0.356 0.062 0.791-0.374 1.31-0.891 1.799-0.34 0.321-0.674 0.649-1.024 0.958-0.798 0.7-1.378 0.742-2.212 0.086-0.328-0.258-0.549-0.265-0.899-0.052-1.020 0.624-2.098 0.268-2.555-0.844-0.108-0.265-0.091-0.608-0.040-0.9 0.029-0.17 0.239-0.308 0.367-0.459 0.037 0.022 0.075 0.043 0.112 0.066 0 0.076 0 0.154 0 0.23 0.004 0.66 0.248 0.863 0.916 0.818 0.77-0.050 1.3-0.456 1.662-1.099 0.193-0.343 0.357-0.707 0.484-1.079 0.202-0.589 0.552-1.027 1.119-1.29 0.114-0.053 0.219-0.128 0.341-0.202-0.418-0.31-1.168-0.334-1.594-0.073-0.498 0.305-0.71 0.732-0.514 1.322-0.026 0.022-0.050 0.043-0.076 0.066-0.351-0.261-0.703-0.521-1.063-0.788-0.562 0.471-0.337 1.125-0.4 1.809-0.215-0.245-0.402-0.42-0.544-0.628-0.262-0.382-0.593-0.556-1.066-0.628-0.524-0.079-1.012-0.372-1.536-0.477-0.567-0.114-0.924-0.523-1.338-0.837-0.426-0.321-0.772-0.759-1.155-1.149 0.029-0.037 0.056-0.075 0.085-0.112 0.217 0.099 0.441 0.187 0.651 0.302 0.618 0.34 1.274 0.395 1.953 0.269 0.115-0.022 0.219-0.12 0.318-0.197 0.196-0.153 0.363-0.363 0.58-0.464 1.136-0.524 2.042-1.333 2.864-2.251 0.157-0.176 0.294-0.343 0.576-0.21 0.084 0.039 0.229-0.029 0.336-0.072 0.831-0.337 1.653-0.7 2.493-1.014 1.277-0.479 2.448-1.146 3.619-2.002-0.030 0.216-0.035 0.373-0.075 0.52-0.082 0.288-0.186 0.569-0.276 0.852-0.118 0.376 0.020 0.583 0.415 0.589 0.498 0.007 0.909-0.204 1.221-0.586 0.227-0.278 0.431-0.576 0.651-0.861 0.086-0.111 0.189-0.209 0.351-0.386 0.078 0.21 0.166 0.35 0.177 0.495 0.081 1.032 0.096 2.055-0.356 3.033-0.181 0.393-0.095 0.444 0.274 0.664 0.488 0.291 0.949 0.632 1.405 0.973 0.134 0.099 0.213 0.276 0.36 0.474zM12.030 19.208c0.507 0.124 0.618 0.065 0.793-0.36 0.030-0.073 0.122-0.14 0.202-0.173 0.474-0.206 0.477-0.207 0.3-0.717-0.024-0.072-0.039-0.148-0.065-0.246 0.157 0.026 0.272 0.046 0.389 0.063 0.557 0.082 0.927-0.229 0.878-0.788-0.020-0.239-0.147-0.474-0.245-0.703-0.118-0.278-0.311-0.301-0.531-0.109-0.088 0.078-0.181 0.161-0.236 0.262-0.495 0.913-0.983 1.832-1.485 2.771zM12.896 11.43c-0.684 0.212-1.048 0.498-1.136 0.874 0.605-0.012 0.932-0.253 1.136-0.874z"></path>
</svg>
