<!-- Generated by IcoMoon.io -->
<svg version="1.1" xmlns="http://www.w3.org/2000/svg" width="32" height="32" viewBox="0 0 32 32">
<title>factions-death-ossiarch-bonereapers</title>
<path fill="#fff" d="M16.254 0.066c1.073-0.259 2.133 0.301 3.233 0.679 0.65 0.222 1.175 0.609 1.596 1.142 0.151 0.192 0.295 0.402 0.385 0.627 0.19 0.481 0.48 0.895 0.757 1.325 0.175 0.273 0.317 0.577 0.414 0.886 0.187 0.601 0.361 1.212 0.489 1.829 0.105 0.512 0.195 1.040 0.186 1.561-0.011 0.668-0.125 1.334-0.199 2.001-0.038 0.333 0.014 0.624 0.172 0.941 0.154 0.308 0.213 0.693 0.209 1.043-0.008 0.638 0.178 1.224 0.416 1.786 0.288 0.678 0.097 1.081-0.481 1.509-0.629 0.464-1.244 0.946-1.871 1.41-0.096 0.072-0.227 0.126-0.346 0.132-0.324 0.018-0.65-0.008-0.974 0.014-0.108 0.008-0.235 0.082-0.311 0.166-0.536 0.586-0.667 1.302-0.661 2.068 0.003 0.39-0.040 0.781-0.059 1.172-0.005 0.079-0.023 0.174 0.011 0.238 0.227 0.426-0.053 0.65-0.338 0.869-0.323 0.247-0.661 0.474-0.974 0.729-0.239 0.196-0.442 0.439-0.679 0.636-0.207 0.174-0.437 0.323-0.668 0.463-0.157 0.096-0.305 0.102-0.477-0.043-0.157-0.131-0.394-0.16-0.579-0.266-0.601-0.347-1.195-0.708-1.789-1.067-0.486-0.294-0.964-0.598-1.453-0.886-0.18-0.105-0.149-0.244-0.134-0.405 0.059-0.618 0.128-1.236 0.157-1.856 0.017-0.361-0.069-0.713-0.266-1.031-0.117-0.187-0.207-0.391-0.306-0.591-0.297-0.598-1.197-0.685-1.596-0.152-0.37 0.493-0.906 0.507-1.314 0.044-0.131-0.149-0.27-0.303-0.434-0.41-0.696-0.445-1.045-1.096-1.2-1.883-0.082-0.416-0.178-0.828-0.289-1.236-0.030-0.114-0.132-0.213-0.212-0.311-0.26-0.312-0.266-0.554 0.018-0.844 0.174-0.175 0.381-0.317 0.566-0.48 0.39-0.34 0.527-1.054 0.298-1.506-0.026-0.052-0.040-0.123-0.026-0.178 0.221-0.891 0.157-1.785 0.094-2.689-0.059-0.863-0.146-1.754 0.224-2.578 0.218-0.486 0.474-0.967 0.792-1.39 0.478-0.636 1.017-1.23 1.549-1.824 0.524-0.586 1.238-0.837 1.97-1.031 0.827-0.218 1.654-0.449 2.494-0.6 0.467-0.082 0.968-0.014 1.608-0.014zM18.488 14.941c0.163-0.018 0.291-0.021 0.414-0.050 0.266-0.061 0.531-0.132 0.795-0.207 0.362-0.102 0.743-0.168 1.080-0.326 0.559-0.265 0.894-0.783 1.22-1.279 0.101-0.154 0.062-0.413 0.052-0.623-0.008-0.152-0.087-0.298-0.111-0.451-0.038-0.239-0.139-0.35-0.376-0.34-0.245 0.012-0.495 0.027-0.734 0.081-0.405 0.090-0.799 0.218-1.203 0.317-0.323 0.079-0.667 0.099-0.971 0.219-0.27 0.107-0.499 0.32-0.748 0.481-0.035 0.023-0.082 0.046-0.119 0.040-0.161-0.027-0.247 0.046-0.32 0.184-0.053 0.102-0.14 0.192-0.227 0.273-0.239 0.224-0.295 0.804-0.075 1.037 0.365 0.387 0.836 0.568 1.323 0.644zM11.241 15.306c0.419-0.052 0.926-0.050 1.39-0.189 0.39-0.117 0.732-0.394 1.092-0.608 0.338-0.199 0.323-0.381 0.104-0.716-0.093-0.143-0.26-0.266-0.42-0.329-0.499-0.196-1.006-0.381-1.523-0.53-0.981-0.285-1.973-0.47-2.997-0.209-0.266 0.067-0.437 0.422-0.286 0.646 0.204 0.302 0.399 0.612 0.632 0.891 0.504 0.6 1.119 1.010 2.008 1.043zM14.512 17.747c-0.012 0.186 0.084 0.262 0.238 0.28 0.134 0.017 0.271 0.009 0.405 0.024 0.067 0.008 0.152 0.018 0.193 0.061 0.183 0.187 0.385 0.207 0.626 0.136 0.323-0.096 0.652-0.175 0.979-0.256 0.143-0.035 0.181-0.168 0.099-0.227-0.25-0.18-0.227-0.457-0.309-0.699-0.215-0.635-0.437-1.267-0.664-1.897-0.076-0.212-0.308-0.254-0.46-0.073-0.157 0.187-0.309 0.39-0.407 0.609-0.148 0.333-0.248 0.69-0.365 1.037-0.114 0.337-0.224 0.671-0.335 1.005z"></path>
<path fill="#fff" d="M2.066 18.655c0.259-0.177 0.474-0.308 0.67-0.463 0.090-0.072 0.178-0.18 0.206-0.288 0.041-0.168 0.090-0.376 0.024-0.516-0.102-0.219-0.352-0.251-0.585-0.231-0.166 0.015-0.33 0.049-0.496 0.065-0.166 0.015-0.305-0.040-0.358-0.213-0.151-0.478-0.329-0.952-0.435-1.44-0.137-0.621-0.263-1.252-0.305-1.883-0.043-0.667 0.011-1.34 0.041-2.010 0.029-0.638 0.035-1.284 0.143-1.911 0.102-0.592 0.326-1.162 0.495-1.743 0.041-0.143 0.049-0.301 0.113-0.432 0.321-0.659 0.623-1.332 0.993-1.964 0.478-0.813 1.226-1.376 1.963-1.94 0.065-0.050 0.169-0.049 0.254-0.070 0.005 0.091 0.044 0.199 0.009 0.271-0.207 0.414-0.413 0.83-0.652 1.226-0.509 0.842-0.799 1.765-0.943 2.723-0.131 0.883-0.193 1.778-0.235 2.672-0.047 1.022 0.12 2.018 0.425 3 0.148 0.477 0.434 0.847 0.679 1.253 0.062 0.102 0.105 0.219 0.18 0.311 0.26 0.326 0.193 0.598-0.079 0.886-0.248 0.263-0.238 0.489-0.035 0.799 0.195 0.297 0.504 0.312 0.767 0.034 0.049-0.052 0.087-0.111 0.151-0.195 0.125 0.183 0.247 0.346 0.347 0.521 0.023 0.040-0.021 0.129-0.053 0.186-0.078 0.139-0.19 0.26-0.247 0.407-0.099 0.257-0.021 0.457 0.187 0.58 0.207 0.122 0.486 0.075 0.653-0.11 0.037-0.041 0.072-0.082 0.131-0.148 0.155 0.152 0.311 0.288 0.446 0.442 0.102 0.116 0.050 0.204-0.082 0.282-0.166 0.097-0.349 0.201-0.457 0.35-0.079 0.11-0.091 0.306-0.058 0.446 0.040 0.168 0.203 0.241 0.382 0.221 0.347-0.038 0.697-0.072 0.812-0.501 0.008-0.027 0.163-0.053 0.219-0.023 0.087 0.047 0.142 0.148 0.216 0.219 0.23 0.219 0.234 0.295 0.005 0.522-0.175 0.172-0.186 0.385-0.155 0.601 0.008 0.049 0.108 0.114 0.171 0.12 0.222 0.024 0.402-0.065 0.541-0.247 0.183-0.238 0.33-0.248 0.557-0.052 0.3 0.259 0.309 0.32 0.125 0.688-0.046 0.093-0.081 0.192-0.113 0.291-0.067 0.207-0.026 0.381 0.175 0.493 0.164 0.091 0.417 0.041 0.531-0.14 0.091-0.146 0.148-0.318 0.195-0.484 0.056-0.199 0.14-0.247 0.315-0.134 0.114 0.073 0.221 0.158 0.327 0.242 0.099 0.078 0.113 0.149 0.047 0.282-0.096 0.193-0.158 0.416-0.183 0.63-0.024 0.212 0.183 0.419 0.388 0.449 0.198 0.029 0.353-0.090 0.434-0.332 0.157-0.474 0.157-0.472 0.565-0.178 0.076 0.055 0.158 0.104 0.259 0.168-0.096 0.204-0.199 0.391-0.276 0.589-0.151 0.393 0.16 0.856 0.544 0.786 0.151-0.027 0.303-0.161 0.405-0.288 0.101-0.123 0.137-0.298 0.212-0.477 0.195 0.215 0.388 0.413 0.559 0.627 0.032 0.040-0.015 0.149-0.037 0.224-0.104 0.367-0.041 0.489 0.335 0.522 0.327 0.029 0.653 0.065 0.967-0.143 0.183-0.122 0.434-0.177 0.659-0.192 0.594-0.040 1.195-0.146 1.771 0.123 0.085 0.040 0.184 0.078 0.276 0.075 0.41-0.017 0.708 0.233 1.019 0.432 0.186 0.12 0.283 0.058 0.376-0.078 0.204-0.302 0.104-0.579-0.114-0.853 0.201-0.151 0.397-0.297 0.588-0.44 0.128 0.12 0.227 0.25 0.358 0.33 0.195 0.119 0.413 0.14 0.606-0.017 0.177-0.145 0.21-0.323 0.123-0.538-0.049-0.119-0.132-0.3-0.082-0.37 0.139-0.195 0.338-0.346 0.563-0.562 0.088 0.341 0.151 0.636 0.481 0.694 0.111 0.020 0.25 0.011 0.344-0.041 0.276-0.151 0.242-0.464-0.102-0.973 0.286-0.137 0.568-0.273 0.851-0.408 0.375 0.391 0.621 0.48 0.834 0.302 0.209-0.174 0.195-0.504-0.008-0.809 0.096-0.117 0.177-0.236 0.279-0.333 0.139-0.132 0.28-0.193 0.452-0.017 0.090 0.093 0.227 0.152 0.353 0.193 0.577 0.192 0.874-0.030 0.837-0.636-0.008-0.122-0.096-0.268-0.192-0.35-0.277-0.236-0.288-0.375-0.006-0.598 0.032-0.024 0.061-0.052 0.090-0.079 0.477-0.452 0.501-0.372 0.866 0.026 0.101 0.11 0.492 0.142 0.58 0.035 0.043-0.052 0.055-0.174 0.024-0.236-0.136-0.285-0.25-0.588-0.576-0.737-0.055-0.024-0.097-0.206-0.062-0.274 0.111-0.221 0.254-0.425 0.396-0.629 0.12-0.174 0.295-0.154 0.4 0.034 0.035 0.062 0.056 0.136 0.101 0.187 0.33 0.381 0.702 0.329 0.879-0.143 0.145-0.385 0.302-0.781 0.193-1.206-0.043-0.168-0.139-0.321-0.183-0.489-0.024-0.091-0.024-0.222 0.024-0.292 0.451-0.65 0.711-1.369 0.819-2.15 0.035-0.253 0.116-0.498 0.157-0.751 0.247-1.509 0.443-3.018 0.241-4.553-0.131-0.999-0.358-1.963-0.869-2.844-0.096-0.164-0.14-0.359-0.228-0.528-0.087-0.164-0.186-0.329-0.308-0.467-0.195-0.221-0.238-0.534-0.034-0.813 0.253 0.212 0.524 0.402 0.749 0.638 0.337 0.352 0.644 0.732 0.956 1.107 0.317 0.381 0.617 0.767 0.789 1.247 0.225 0.63 0.541 1.233 0.726 1.874 0.241 0.833 0.41 1.69 0.574 2.543 0.101 0.524 0.145 1.058 0.189 1.591 0.079 0.946-0.070 1.871-0.355 2.765-0.265 0.833-0.601 1.644-0.898 2.444-0.075 0.003-0.093 0.011-0.104 0.005-0.309-0.161-0.589-0.155-0.842 0.117-0.152 0.163-0.333 0.302-0.478 0.471-0.064 0.075-0.093 0.196-0.102 0.3-0.018 0.199 0.085 0.297 0.291 0.271 0.032-0.005 0.064-0.002 0.096-0.002 0.18 0.005 0.384-0.047 0.461 0.193 0.075 0.23-0.003 0.439-0.201 0.598-0.073 0.059-0.128 0.139-0.203 0.222-0.282-0.239-0.615-0.209-0.938-0.174-0.326 0.035-0.457 0.207-0.478 0.556-0.014 0.218 0.184 0.487 0.41 0.56 0.073 0.023 0.146 0.044 0.265 0.079-0.23 0.289-0.434 0.545-0.644 0.809-0.323-0.524-0.608-0.662-1.093-0.493-0.146 0.052-0.314 0.184-0.368 0.321-0.075 0.184 0.027 0.382 0.207 0.493 0.174 0.11 0.362 0.195 0.568 0.302-0.041 0.046-0.096 0.108-0.149 0.171-0.093 0.11-0.207 0.209-0.274 0.332-0.168 0.311-0.256 0.327-0.484 0.053-0.050-0.061-0.101-0.131-0.12-0.204-0.044-0.161-0.161-0.186-0.295-0.183-0.343 0.008-0.598 0.388-0.48 0.71 0.097 0.262 0.256 0.46 0.544 0.524-0.094 0.233-0.279 0.382-0.714 0.58-0.122-0.195-0.244-0.388-0.367-0.583-0.114-0.183-0.286-0.187-0.466-0.137-0.314 0.088-0.533 0.597-0.362 0.872 0.094 0.154 0.23 0.285 0.362 0.41 0.105 0.101 0.108 0.178 0.009 0.28-0.151 0.154-0.289 0.32-0.44 0.475-0.101 0.102-0.198 0.107-0.253-0.049-0.061-0.172-0.094-0.361-0.184-0.516-0.087-0.149-0.26-0.391-0.343-0.372-0.207 0.050-0.437 0.187-0.562 0.358-0.244 0.333-0.204 0.439 0.094 0.738 0.056 0.056 0.119 0.113 0.157 0.18 0.079 0.143 0.094 0.288-0.069 0.39-0.129 0.081-0.257 0.166-0.397 0.221-0.268 0.104-0.387 0.027-0.467-0.251-0.043-0.145-0.105-0.285-0.171-0.422-0.122-0.257-0.326-0.34-0.592-0.245-0.3 0.107-0.445 0.338-0.347 0.612 0.064 0.177 0.161 0.347 0.276 0.498 0.222 0.292 0.218 0.455-0.062 0.693-0.187 0.158-0.391 0.274-0.652 0.256-0.166-0.012-0.245-0.079-0.244-0.253 0.002-0.216 0.009-0.435-0.026-0.646-0.062-0.368-0.233-0.426-0.512-0.186-0.169 0.146-0.33 0.303-0.487 0.461-0.035 0.035-0.052 0.096-0.058 0.148-0.044 0.434-0.024 0.859 0.119 1.279 0.186 0.547-0.091 1.014-0.656 1.145-0.464 0.107-0.793 0.504-0.834 1.046-0.035 0.448-0.149 0.871-0.408 1.232-0.096 0.134-0.309 0.236-0.478 0.254-0.42 0.044-0.847 0.037-1.27 0.038-0.239 0-0.338-0.218-0.333-0.376 0.014-0.46-0.213-0.816-0.413-1.192-0.093-0.174-0.149-0.367-0.241-0.541-0.107-0.204-0.289-0.265-0.521-0.274-0.171-0.006-0.432-0.043-0.49-0.152-0.16-0.305-0.416-0.603-0.294-1 0.032-0.104 0.053-0.215 0.052-0.323 0-0.359-0.012-0.72-0.021-1.080-0.009-0.347-0.294-0.565-0.635-0.486-0.419 0.096-0.588 0.289-0.601 0.697-0.006 0.175-0.132 0.242-0.257 0.204-0.239-0.073-0.478-0.171-0.691-0.3-0.145-0.088-0.105-0.263 0.069-0.352 0.323-0.166 0.504-0.42 0.569-0.78 0.064-0.352-0.215-0.442-0.41-0.605-0.169-0.14-0.346-0.097-0.483 0.020-0.199 0.168-0.385 0.358-0.545 0.563-0.181 0.233-0.295 0.257-0.492 0.041-0.053-0.059-0.107-0.119-0.163-0.175-0.224-0.225-0.18-0.423 0.12-0.547 0.347-0.142 0.44-0.273 0.44-0.621 0-0.37-0.263-0.588-0.598-0.429-0.248 0.117-0.483 0.317-0.653 0.534-0.161 0.209-0.311 0.157-0.478 0.088-0.244-0.101-0.417-0.361-0.355-0.512 0.020-0.047 0.091-0.076 0.143-0.107 0.213-0.125 0.414-0.271 0.428-0.538 0.006-0.12-0.034-0.292-0.117-0.361-0.445-0.359-0.953-0.277-1.171 0.259-0.102 0.253-0.195 0.28-0.394 0.088-0.108-0.105-0.209-0.221-0.303-0.34-0.111-0.143-0.015-0.247 0.078-0.355 0.248-0.288 0.222-0.775-0.047-0.994-0.263-0.213-0.74-0.113-0.892 0.189-0.143 0.283-0.213 0.302-0.466 0.108-0.088-0.069-0.163-0.152-0.247-0.227-0.148-0.134-0.151-0.257-0.003-0.407 0.244-0.248 0.294-0.557 0.222-0.888-0.053-0.244-0.276-0.303-0.461-0.315-0.126-0.008-0.265 0.123-0.391 0.203-0.107 0.067-0.218 0.224-0.303 0.209-0.125-0.024-0.27-0.143-0.332-0.26-0.301-0.569-0.292-0.574 0.25-0.903 0.23-0.14 0.291-0.323 0.166-0.493-0.134-0.183-0.449-0.216-0.623-0.069-0.359 0.308-0.37 0.306-0.684-0.037-0.169-0.181-0.343-0.352-0.499-0.513zM17.286 28.77c0.461 0.005 0.738-0.178 0.743-0.521 0.002-0.158-0.099-0.346-0.209-0.472-0.126-0.148-0.271-0.017-0.4 0.064-0.107 0.065-0.244 0.093-0.335 0.174-0.117 0.104-0.282 0.245-0.282 0.368 0 0.117 0.178 0.245 0.297 0.347 0.052 0.044 0.151 0.034 0.186 0.040zM13.84 28.056c0.030 0.341 0.128 0.557 0.396 0.681 0.204 0.093 0.385 0.085 0.56-0.053 0.19-0.151 0.189-0.32-0.006-0.466-0.154-0.116-0.306-0.233-0.469-0.333-0.088-0.053-0.235-0.129-0.289-0.094-0.099 0.064-0.151 0.204-0.192 0.266zM15.975 28.892c-0.027 0.009-0.055 0.018-0.084 0.027-0.076 0.251-0.163 0.499-0.219 0.754-0.015 0.065 0.052 0.21 0.101 0.219 0.146 0.027 0.303 0.020 0.449-0.008 0.032-0.006 0.064-0.157 0.050-0.233-0.030-0.181-0.078-0.361-0.137-0.533-0.030-0.084-0.105-0.152-0.16-0.227z"></path>
</svg>
