<!-- Generated by IcoMoon.io -->
<svg version="1.1" xmlns="http://www.w3.org/2000/svg" width="32" height="32" viewBox="0 0 32 32">
<title>factions-order-khainite-shadowstalkers</title>
<path fill="#fff" d="M19.602 12.452c-0.796 0.854-1.605 1.699-2.387 2.568-0.706 0.784-1.427 1.561-2.062 2.402-0.935 1.239-1.81 2.523-2.685 3.805-0.226 0.331-0.318 0.503-0.706 0.117-1.699-1.689-2.425-3.666-2.212-6.080 0.128-1.441 0.576-2.742 1.133-4.032 0.128-0.295 0.362-0.552 0.577-0.801 0.201-0.231 0.355-0.118 0.509 0.102 0.58 0.83 1.17 1.652 1.766 2.47 0.266 0.364 0.566 0.701 0.825 1.069 0.077 0.108 0.068 0.277 0.098 0.418-0.133-0.027-0.283-0.025-0.391-0.091-0.078-0.048-0.102-0.187-0.149-0.285-0.055 0.050-0.109 0.098-0.163 0.148 0.088 0.206 0.175 0.412 0.329 0.771-1.267-0.393-1.667-1.476-2.482-2.316-0.11 0.315-0.21 0.54-0.268 0.774-0.187 0.758-0.36 1.519-0.537 2.28-0.257 1.1 0.077 2.050 0.737 2.918 0.022 0.029 0.043 0.058 0.062 0.089 0.475 0.825 0.552 0.807 1.095-0.041 0.344-0.536 0.757-1.029 1.153-1.529 0.626-0.787 1.29-1.544 1.889-2.349 1.123-1.512 2.212-3.048 3.315-4.575 0.062-0.087 0.13-0.169 0.176-0.228 0.912 0.176 1.282 0.909 1.661 1.575 0.372 0.657 0.686 1.363 0.907 2.084 0.182 0.594 0.218 1.241 0.272 1.868 0.045 0.524 0.047 1.055 0.021 1.58-0.043 0.85-0.056 1.708-0.556 2.467-0.371 0.563-0.681 1.169-1.045 1.739-0.081 0.125-0.273 0.179-0.413 0.266-0.055-0.145-0.168-0.295-0.153-0.433 0.042-0.387-0.125-0.544-0.474-0.68-0.253-0.099-0.483-0.336-0.648-0.566-0.642-0.891-1.188-1.864-2.289-2.332 0.204-0.55 0.377-1.044 0.576-1.528 0.040-0.096 0.171-0.173 0.278-0.212 0.040-0.015 0.177 0.093 0.186 0.158 0.135 0.951 0.807 1.421 1.554 1.889 0.417 0.261 0.707 0.725 1.108 1.155 0.252-1.108 0.731-2.171 0.588-3.383-0.135-1.211-0.3-2.394-1.198-3.248z"></path>
<path fill="#fff" d="M22.784 6.353c-0.026-0.213-0.047-0.391-0.068-0.561 1.251-1.21 2.495-2.411 3.762-3.635 0.177 0.504-0.127 0.876-0.37 1.23-0.508 0.74-1.056 1.451-1.597 2.166-0.287 0.379-0.614 0.729-0.889 1.116-0.181 0.256-0.298 0.556-0.523 0.987 0.477 0.017 0.797 0.030 1.254 0.046-0.237 0.354-0.429 0.719-0.694 1.020-0.331 0.377-0.274 0.657-0.043 1.092 0.529 1 1.081 2.001 1.277 3.149 0.086 0.505 0.215 1.030 0.457 1.472 0.15 0.274 0.444 0.612 0.895 0.503 0.107-0.026 0.223-0.032 0.321-0.078 0.491-0.226 0.958-0.257 1.522-0.166 1.188 0.191 2.405 0.205 3.609 0.295 0.099 0.007 0.197 0.047 0.303 0.194-0.58 0.081-1.159 0.155-1.738 0.242-1.091 0.165-2.182 0.338-3.273 0.504-0.163 0.025-0.328 0.045-0.491 0.047-0.475 0.009-0.882 0.089-0.905 0.695-0.003 0.062-0.138 0.109-0.186 0.181-0.092 0.137-0.246 0.293-0.232 0.427 0.082 0.817-0.001 1.575-0.566 2.228-0.082 0.094-0.139 0.354-0.086 0.401 0.436 0.388 0.056 0.753-0.048 1.081-0.196 0.621-0.465 1.209-0.34 1.89 0.025 0.135-0.082 0.32-0.175 0.448-0.29 0.403-0.206 0.725 0.144 1.043 0.228 0.207 0.453 0.679 0.619 0.652 0.897-0.143 0.894 0.631 1.218 1.070 0.856 1.16 1.715 2.321 2.572 3.481 0.029 0.040 0.043 0.091 0.129 0.273-0.22-0.077-0.359-0.084-0.432-0.158-0.789-0.796-1.775-1.36-2.426-2.342-0.401-0.603-1.169-0.961-1.759-1.445-0.143-0.117-0.316-0.287-0.333-0.447-0.047-0.459-0.312-0.685-0.706-0.807-0.493-0.153-0.799-0.406-0.664-0.989 0.119-0.515-0.235-0.722-0.635-0.875-0.447-0.17-0.486-0.32-0.197-0.688 0.895-1.137 1.592-2.358 1.711-3.849 0.027-0.348 0.192-0.683 0.294-1.024 0.026-0.087 0.078-0.175 0.073-0.261-0.086-1.577 0.146-3.206-0.59-4.686-0.371-0.747-0.884-1.424-1.311-2.145-0.133-0.226-0.189-0.496-0.29-0.742-0.038-0.093-0.094-0.236-0.165-0.252-0.503-0.114-0.345-0.39-0.218-0.702 0.068-0.166 0.065-0.371 0.056-0.557-0.020-0.413 0.262-0.724 0.626-0.604 0.456 0.15 0.546-0.094 0.557-0.442 0.012-0.345 0.071-0.617 0.552-0.477zM25.326 15.696c-0.35-0.222-0.578-0.48-0.787-0.465-0.18 0.014-0.338 0.338-0.505 0.525 0.213 0.184 0.406 0.448 0.652 0.515 0.12 0.034 0.343-0.295 0.64-0.575z"></path>
<path fill="#fff" d="M5.343 28.816c0.298-0.486 0.596-0.972 0.892-1.458 0.16-0.263 0.3-0.541 0.483-0.787 0.196-0.264 0.449-0.485 0.642-0.752 0.155-0.215 0.284-0.458 0.376-0.706 0.145-0.392 0.254-0.798 0.369-1.2 0.087-0.304 0.189-0.523 0.594-0.484 0.29 0.029 0.411-0.452 0.21-0.835-0.118-0.226-0.253-0.451-0.417-0.645-0.766-0.91-1.136-1.983-1.514-3.097-0.215-0.629-0.405-1.395-1.055-1.867-0.493-0.357-0.793-0.386-1.292 0.021-0.128 0.104-0.379 0.089-0.571 0.079-0.448-0.022-0.896-0.060-1.34-0.119-0.403-0.055-0.799-0.165-1.204-0.218-0.344-0.046-0.695-0.037-1.043-0.068-0.163-0.015-0.321-0.065-0.473-0.201 0.619-0.145 1.235-0.312 1.859-0.431 0.971-0.184 1.951-0.32 2.92-0.51 0.283-0.056 0.458-0.072 0.633 0.216 0.092 0.153 0.449 0.328 0.524 0.272 0.173-0.129 0.314-0.38 0.35-0.599 0.14-0.858 0.169-1.738 0.367-2.578 0.138-0.586 0.468-1.131 0.747-1.675 0.386-0.756 0.647-1.537 0.586-2.397-0.022-0.316-0.118-0.55-0.52-0.571-0.151-0.007-0.374-0.196-0.423-0.348-0.154-0.464-0.22-0.958-0.366-1.426-0.046-0.148-0.227-0.267-0.367-0.37-0.604-0.436-0.978-1.004-1.129-1.71 0.042-0.037 0.083-0.076 0.125-0.113 0.382 0.318 0.772 0.626 1.144 0.953 0.709 0.622 1.421 1.24 2.1 1.893 0.127 0.123 0.143 0.403 0.138 0.609-0.007 0.316 0.094 0.491 0.396 0.632 0.346 0.161 0.649 0.416 1.067 0.695-0.4 0.884-0.82 1.798-1.227 2.72-0.63 1.426-1.102 2.887-0.918 4.482 0.078 0.679 0.077 1.376 0.237 2.034 0.103 0.423 0.403 0.812 0.668 1.178 0.721 0.997 1.474 1.971 2.203 2.964 0.069 0.094 0.123 0.305 0.071 0.365-0.129 0.146-0.315 0.32-0.491 0.335-0.568 0.047-0.644 0.13-0.598 0.685 0.014 0.161-0.11 0.369-0.231 0.5-1.278 1.39-2.568 2.769-3.855 4.15-0.158 0.17-0.319 0.336-0.478 0.504-0.062-0.041-0.125-0.082-0.187-0.122zM7.593 16.501c0.038-0.040 0.077-0.078 0.115-0.118-0.19-0.181-0.38-0.364-0.57-0.545-0.201 0.217-0.525 0.417-0.561 0.659-0.026 0.171 0.312 0.527 0.535 0.575 0.323 0.068 0.575-0.161 0.48-0.571z"></path>
<path fill="#fff" d="M17.472 19.411c0.186 0.419 0.339 0.813 0.146 1.317-0.122 0.319-0.046 0.664 0.187 1.043 0.328 0.532 0.484 1.216 0.546 1.852 0.045 0.462-0.412 0.769-0.841 0.887-0.18 0.050-0.506-0.099-0.634-0.262-0.23-0.292-0.422-0.577-0.187-1.064 0.237-0.495 0.187-1.126 0.276-1.695 0.107-0.693 0.227-1.384 0.343-2.076 0.056 0 0.11 0 0.165-0.001z"></path>
</svg>
