<!-- Generated by IcoMoon.io -->
<svg version="1.1" xmlns="http://www.w3.org/2000/svg" width="32" height="32" viewBox="0 0 32 32">
<title>factions-chaos-nurgle-daemons</title>
<path fill="#fff" d="M3.382 22.993c0.218 0.158 0.402 0.366 0.63 0.437 0.274 0.086 0.41 0.215 0.446 0.489 0.011 0.078 0.075 0.157 0.134 0.217 0.030 0.032 0.122 0.050 0.152 0.027 0.223-0.163 0.482-0.303 0.646-0.515 0.419-0.545 0.872-1.054 1.393-1.502 0.309-0.265 0.628-0.514 0.857-0.862 0.151-0.229 0.327-0.44 0.503-0.651 0.098-0.116 0.226-0.206 0.327-0.321 0.071-0.081 0.13-0.178 0.166-0.277 0.012-0.032-0.066-0.139-0.108-0.142-0.744-0.041-1.413-0.301-2.059-0.655-0.218-0.119-0.487-0.145-0.712-0.25-0.22-0.104-0.474-0.187-0.526-0.497-0.015-0.087-0.131-0.184-0.223-0.229-0.443-0.221-0.819-0.493-0.979-0.999-0.063-0.199-0.199-0.375-0.303-0.562-0.282-0.508-0.571-1.011-0.837-1.527-0.063-0.124-0.054-0.285-0.071-0.431-0.047-0.398 0.036-0.791 0.051-1.185 0.020-0.527 0.009-1.054 0.008-1.581 0-0.065-0.005-0.146-0.041-0.194-0.124-0.164-0.047-0.297 0.041-0.434 0.268-0.422 0.536-0.843 0.804-1.265 0.018-0.029 0.047-0.054 0.051-0.084 0.071-0.432 0.402-0.676 0.687-0.955 0.152-0.149 0.295-0.309 0.434-0.471 0.282-0.336 0.645-0.548 1.036-0.732 0.422-0.199 0.822-0.443 1.285-0.55 0.119-0.027 0.233-0.104 0.334-0.178 0.17-0.125 0.358-0.127 0.553-0.124 0.187 0.003 0.375 0.002 0.562 0.003 0.205 0.002 0.411-0.024 0.596 0.111 0.060 0.044 0.154 0.062 0.23 0.056 0.38-0.029 0.736 0.081 1.101 0.155 0.116 0.024 0.238 0.029 0.357 0.035 0.211 0.009 0.429-0.027 0.618 0.111 0.026 0.018 0.068 0.035 0.095 0.027 0.328-0.093 0.592 0.104 0.855 0.226 0.235 0.108 0.431 0.309 0.628 0.487 0.303 0.271 0.599 0.551 0.886 0.84 0.208 0.209 0.459 0.386 0.541 0.702 0.045 0.175 0.235 0.271 0.414 0.241 0.197-0.033 0.313-0.164 0.325-0.354 0.029-0.428 0.035-0.855 0.054-1.283 0.009-0.214 0.035-0.428 0.035-0.642 0-0.137-0.033-0.274-0.050-0.401-0.175 0.021-0.322 0.039-0.47 0.059-0.032 0.005-0.072 0.011-0.090 0.032-0.17 0.2-0.395 0.146-0.599 0.108-0.092-0.017-0.205-0.117-0.236-0.206-0.029-0.078 0.027-0.199 0.074-0.288 0.081-0.157 0.182-0.301 0.274-0.452 0.042-0.068 0.087-0.134 0.127-0.203 0.142-0.259 0.282-0.52 0.42-0.779 0.072-0.134 0.145-0.267 0.212-0.402 0.181-0.364 0.357-0.729 0.538-1.093 0.288-0.58 0.578-1.16 0.866-1.74 0.114-0.232 0.223-0.468 0.337-0.702 0.023-0.047 0.060-0.107 0.102-0.119 0.194-0.054 0.19-0.199 0.178-0.349-0.020-0.247 0.069-0.438 0.256-0.601 0.108-0.096 0.184-0.229 0.285-0.336 0.033-0.035 0.117-0.069 0.146-0.051 0.224 0.14 0.446 0.265 0.515 0.572 0.074 0.331 0.206 0.649 0.173 0.999-0.003 0.024 0.006 0.054 0.020 0.075 0.224 0.333 0.291 0.717 0.377 1.098 0.098 0.434 0.235 0.859 0.375 1.28 0.149 0.452 0.316 0.898 0.488 1.342 0.084 0.218 0.218 0.419 0.295 0.639 0.099 0.285 0.181 0.578 0.238 0.874 0.033 0.175 0.008 0.36 0.008 0.541 0 0.324-0.119 0.462-0.443 0.503-0.059 0.008-0.12 0.006-0.181 0.006-0.166 0-0.333 0-0.542 0 0.023 0.514 0.044 1.017 0.063 1.52 0.005 0.099-0.006 0.2-0.006 0.3 0 0.093-0.008 0.19 0.014 0.277 0.036 0.145 0.169 0.191 0.274 0.084 0.158-0.16 0.325-0.283 0.55-0.34 0.081-0.021 0.163-0.101 0.212-0.175 0.31-0.462 0.791-0.687 1.273-0.893 0.634-0.273 1.321-0.312 1.994-0.422 0.843-0.139 1.637-0.012 2.426 0.252 0.044 0.015 0.090 0.026 0.136 0.039 0.273 0.078 0.518 0.166 0.755 0.363 0.396 0.33 0.877 0.559 1.304 0.854 0.175 0.12 0.319 0.295 0.453 0.464 0.173 0.22 0.31 0.47 0.486 0.687 0.116 0.145 0.2 0.298 0.173 0.473-0.044 0.279 0.113 0.441 0.31 0.553 0.235 0.133 0.297 0.325 0.333 0.571 0.078 0.529 0.187 1.054 0.282 1.581 0.011 0.059 0.032 0.12 0.024 0.178-0.084 0.676-0.111 1.368-0.285 2.021-0.116 0.437-0.432 0.822-0.673 1.223-0.211 0.349-0.438 0.688-0.667 1.027-0.071 0.102-0.157 0.208-0.259 0.274-0.911 0.589-1.833 1.16-2.884 1.473-0.012 0.005-0.026 0.008-0.038 0.015-0.342 0.205-0.699 0.33-1.11 0.315-0.2-0.008-0.274 0.209-0.134 0.364 0.334 0.369 0.715 0.67 1.16 0.911 0.253 0.137 0.482 0.367 0.649 0.607 0.245 0.352 0.542 0.598 0.947 0.723 0.020 0.006 0.044 0.003 0.059 0.014 0.319 0.245 0.526 0.014 0.746-0.173 0.069-0.059 0.148-0.108 0.214-0.17 0.029-0.027 0.047-0.075 0.051-0.116 0.009-0.066-0.002-0.134 0.003-0.2 0.018-0.271 0.145-0.431 0.348-0.443 0.259-0.015 0.429 0.136 0.517 0.377 0.105 0.286 0.258 0.554 0.384 0.834 0.071 0.157 0.133 0.318 0.193 0.479 0.096 0.262 0.181 0.53 0.288 0.789 0.039 0.093 0.114 0.185 0.197 0.244 0.381 0.27 0.545 0.679 0.729 1.081 0.155 0.342 0.318 0.682 0.491 1.017 0.081 0.157 0.212 0.288 0.291 0.446 0.063 0.128 0.087 0.277 0.113 0.419 0.087 0.488 0.295 0.926 0.526 1.359 0.033 0.060 0.056 0.184 0.026 0.208-0.057 0.047-0.182 0.086-0.23 0.054-0.224-0.146-0.473-0.185-0.729-0.212-0.036-0.003-0.078-0.032-0.101-0.062-0.173-0.241-0.416-0.283-0.69-0.267-0.098 0.006-0.203-0.009-0.294-0.044-0.393-0.146-0.8-0.19-1.215-0.2-0.523-0.012-1.044-0.024-1.565-0.059-0.773-0.050-1.547-0.108-2.316-0.187-0.154-0.015-0.297-0.136-0.44-0.206 0.057-0.211 0.104-0.404 0.166-0.59 0.020-0.057 0.083-0.101 0.133-0.145 0.14-0.124 0.286-0.241 0.423-0.369 0.114-0.105 0.143-0.233 0.020-0.349-0.134-0.125-0.277-0.244-0.426-0.352-0.42-0.307-0.843-0.613-1.273-0.91-0.113-0.078-0.25-0.119-0.369-0.19-0.048-0.029-0.069-0.096-0.111-0.139-0.057-0.056-0.128-0.148-0.182-0.14-0.060 0.008-0.152 0.11-0.152 0.172-0.008 0.744-0.255 1.432-0.473 2.127-0.072 0.227-0.184 0.444-0.289 0.66-0.020 0.042-0.093 0.065-0.146 0.081-0.102 0.032-0.211 0.044-0.31 0.080-0.416 0.154-0.474 0.256-0.497 0.694-0.008 0.134-0.122 0.262-0.137 0.399-0.023 0.212-0.145 0.352-0.267 0.503-0.221 0.276-0.544 0.386-0.851 0.5-0.23 0.086-0.456 0.139-0.589 0.374-0.036 0.062-0.119 0.108-0.19 0.137-0.788 0.327-1.594 0.581-2.447 0.672-0.425 0.045-0.845 0.124-1.268 0.182-0.098 0.014-0.2 0.018-0.298 0.008-0.187-0.021-0.371-0.081-0.556-0.081-0.702 0-1.267-0.38-1.874-0.649-0.199-0.089-0.425-0.12-0.622-0.209-0.23-0.104-0.485-0.188-0.541-0.505-0.015-0.087-0.134-0.179-0.226-0.226-0.443-0.223-0.815-0.497-0.979-1-0.069-0.211-0.208-0.402-0.328-0.593-0.336-0.53-0.667-1.063-0.852-1.67-0.030-0.098-0.012-0.211-0.023-0.316-0.015-0.145-0.024-0.292-0.059-0.434-0.012-0.048-0.092-0.11-0.143-0.111-0.053-0.002-0.114 0.054-0.158 0.099-0.086 0.086-0.157 0.185-0.241 0.273-0.142 0.146-0.285 0.292-0.435 0.429-0.051 0.047-0.127 0.095-0.191 0.098-0.364 0.011-0.536 0.164-0.527 0.526 0.005 0.155 0.062 0.309 0.086 0.464 0.021 0.133 0.012 0.273 0.045 0.401 0.024 0.090 0.083 0.182 0.149 0.25 0.142 0.143 0.205 0.3 0.128 0.489-0.074 0.185-0.224 0.244-0.417 0.252-0.122 0.005-0.242 0.051-0.363 0.077-0.136 0.030-0.271 0.059-0.407 0.090-0.089 0.021-0.176 0.048-0.264 0.069-0.154 0.038-0.31 0.069-0.462 0.113-0.158 0.044-0.319 0.086-0.471 0.149-0.22 0.092-0.428 0.217-0.652 0.3-0.14 0.051-0.3 0.071-0.45 0.071-0.649 0.002-1.3 0.002-1.947-0.024-0.315-0.012-0.592 0.056-0.854 0.221-0.145 0.090-0.279 0.131-0.464 0.050-0.163-0.071-0.366-0.050-0.551-0.074-0.074-0.009-0.146-0.027-0.218-0.041 0.018-0.095 0.018-0.2 0.062-0.28 0.059-0.108 0.173-0.188 0.229-0.298 0.437-0.857 0.875-1.712 1.292-2.58 0.355-0.74 0.703-1.485 1.015-2.246 0.119-0.292 0.316-0.523 0.453-0.792 0.125-0.245 0.173-0.53 0.252-0.798 0.029-0.11 0.054-0.22 0.078-0.315zM27.26 14.516c0.023-1.892-1.47-3.491-3.351-3.542-1.5-0.041-2.595 0.694-3.381 1.926-0.151 0.236-0.277 0.514-0.324 0.786-0.060 0.358-0.029 0.732-0.042 1.099-0.003 0.098-0.003 0.206-0.044 0.292-0.127 0.27-0.146 0.551-0.039 0.816 0.131 0.325 0.28 0.652 0.476 0.941 0.226 0.333 0.477 0.666 0.919 0.753 0.047 0.009 0.090 0.054 0.128 0.089 0.127 0.117 0.239 0.255 0.38 0.354 0.233 0.166 0.474 0.322 0.786 0.303 0.16-0.011 0.321 0.026 0.48 0.015 0.27-0.018 0.577 0.039 0.782-0.175s0.456-0.288 0.717-0.366c1.533-0.453 2.472-1.803 2.514-3.292zM12.145 24.302c0.027 0.279 0.030 0.562 0.090 0.833 0.089 0.401 0.217 0.792 0.334 1.187 0.096 0.328 0.202 0.652 0.465 0.893 0.128 0.117 0.264 0.226 0.389 0.346 0.511 0.494 1.116 0.788 1.813 0.92 1.892 0.355 3.913-1.161 3.913-3.183 0-0.486-0.006-0.977-0.259-1.422-0.111-0.197-0.233-0.398-0.3-0.611-0.184-0.601-0.548-1.047-1.089-1.352-0.125-0.071-0.259-0.142-0.398-0.17-0.392-0.083-0.791-0.062-1.193-0.152-0.455-0.101-0.982-0.164-1.443 0.117-0.047 0.029-0.119 0.035-0.175 0.027-0.304-0.041-0.547 0.111-0.815 0.22-0.63 0.255-0.905 0.789-1.184 1.343-0.166 0.327-0.113 0.664-0.151 1.003zM6.262 13.762c-0.137 0.583 0.149 1.11 0.514 1.601 0.205 0.276 0.491 0.491 0.693 0.768 0.202 0.279 0.467 0.452 0.753 0.61 0.116 0.065 0.235 0.161 0.357 0.166 0.524 0.021 1.051 0.089 1.572-0.059 0.202-0.057 0.419-0.060 0.628-0.083 0.255-0.027 0.544 0.057 0.752-0.14 0.38-0.363 0.762-0.729 1.093-1.134 0.196-0.239 0.342-0.532 0.297-0.889-0.036-0.282 0.012-0.572 0.003-0.858-0.015-0.443 0.009-0.893-0.258-1.294-0.12-0.181-0.182-0.398-0.292-0.587-0.166-0.289-0.322-0.589-0.532-0.845-0.384-0.468-0.857-0.831-1.467-0.958-1.972-0.41-3.809 1.069-4.11 3.033-0.029 0.196-0.003 0.401-0.003 0.669z"></path>
</svg>
