<!-- Generated by IcoMoon.io -->
<svg version="1.1" xmlns="http://www.w3.org/2000/svg" width="1024" height="1024" viewBox="0 0 1024 1024">
<title></title>
<g id="icomoon-ignore">
</g>
<path fill="#FFF" d="M345.354 25.84c-65.747 19.051-129.958 37.712-142.694 41.47-15.377 4.536-19.614 20.957-12.61 48.86 5.803 23.119 3.149 74.916-5.895 115.113-15.28 67.915-12.986 76.699 32.487 124.309 57.904 60.623 74.131 233.459 24.526 261.219-64.503 36.097 159.147 259.627 259.763 259.627 7.805 0 242.602-147.162 260.286-163.139 3.309-2.988-3.019-73.172-14.068-155.957l-20.085-150.52 51.467-43.082c75.125-62.881 63.058-306.995-15.171-306.995-25.674 0-72.594-10.513-104.265-23.361-103.791-42.105-187.515-44.116-313.74-7.545zM401.934 226.592c18.15 9.734 17.698 15.95-2.357 32.592-40.1 33.279-138.070-18.976-102.421-54.629 11.517-11.513 62.013-0.895 104.777 22.037zM469.743 244.916c-4.382 29.837 1.681 59.23 14.389 69.776 37.023 30.724 59.356 0.010 48.837-67.163l-9.82-62.707 26.917 58.751c33.176 72.426-15.465 146.028-72.6 109.846-31.018-19.642-44.093-160.031-14.904-160.048 8.112-0.007 11.343 23.19 7.183 51.545zM729.585 217.148c0 26.111-35.882 44.519-86.782 44.519-44.325 0-41.364-24.782 5.666-47.467 53.694-25.896 81.115-24.898 81.115 2.948zM803.013 262.324c12.272 46.935-99.749 107.953-124.542 67.844-16.524-26.736-7.414-51.422 18.976-51.422 9.393 0 12.33 7.685 6.523 17.077-13.627 22.050 2.179 21.681 44.636-1.042 24.146-12.921 30.642-28.222 22.665-53.368-6.78-21.36-4.553-31.148 5.656-24.84 9.263 5.725 21.005 26.316 26.087 45.752zM238.973 267.918c-9.45 49.427 74.063 78.26 85.893 29.659 5.748-23.607 8.515-23.104 20.113 3.662 22.289 51.429-13.306 68.335-82.762 39.315-68.106-28.457-70.050-31.964-44.338-80.008 23.579-44.061 30.466-41.654 21.093 7.374zM166.047 387.098c0 23.060 52.477 79.493 73.922 79.493 23.054 0 10.614-46.706-19.768-74.199-37.857-34.26-54.154-35.851-54.154-5.294zM784.389 390.873c-38.382 26.882-51.698 75.718-20.65 75.718 9.393 0 33.214-16.137 52.938-35.861 45.322-45.322 20.052-76.518-32.289-39.857zM388.047 432.438c0 59.414 16.992 65.555 47.269 17.077 27.962-44.775 97.769-43.744 129.75 1.916 24.946 35.613 25.335 35.449 30.855-12.807 7.080-61.928 50.538-64.396 71.754-4.074 13.204 37.546 7.248 55.53-36.754 110.999-33.556 42.303-56.715 95.272-64.161 146.749-17.268 119.357-127.483 133.77-127.483 16.671 0-48.494-63.495-191.146-85.080-191.146-24.573 0-33.878-50.53-17.322-94.070 22.203-58.406 51.173-53.488 51.173 8.685zM143.516 443.582c-23.030 23.030-10.862 69.001 27.9 105.415 48.15 45.233 80.016 47.692 80.016 6.172 0-35.558-90.433-129.067-107.915-111.587zM808.733 467.831c-41.124 32.35-64.564 118.428-32.187 118.214 26.356-0.174 104.196-78.174 114.949-115.184 14.446-49.735-21.705-51.057-82.762-3.030zM422.201 542.429c0 22.928 7.685 46.433 17.077 52.238s17.192 35.076 17.339 65.046c0.561 117.287 74.216 131.355 90.778 17.339 5.219-35.92 14.208-92.205 19.984-125.078 9.396-53.522 7.961-56.648-13.723-29.884-29.81 36.783-97.301 39.745-97.301 4.269 0-14.089-7.685-25.615-17.077-25.615s-17.077 18.757-17.077 41.685zM831.21 584.34c-56.925 56.921-61.064 108.623-9.494 118.554 31.999 6.162 110.938-71.531 112.178-110.405 1.8-56.453-50.247-60.585-102.684-8.149zM97.472 577.912c-21.11 25.438 4.095 73.588 60.036 114.685 51.313 37.699 61.959-66.661 11.462-112.359-38.376-34.731-44.441-34.926-71.497-2.326zM166.047 789.225c0 74.968 27.733 87.406 132.347 59.373 51.234-13.734 48.448-24.987-17.192-69.417-102.974-69.697-115.153-68.636-115.153 10.045zM706.761 772.913c-93.438 54.81-88.387 64.028 43.584 79.541l93.691 11.011 11.083-55.418c6.097-30.479 11.083-62.143 11.083-70.361 0-29.601-78.479-12.265-159.441 35.226zM553.915 870.057c-39.464 20.906-57.621 21.585-106.3 3.982-82.84-29.956-88.185-11.749-22.678 77.262 71.248 96.809 80.992 96.85 150.106 0.611 61.938-86.246 52.942-121.088-21.127-81.857z"></path>
</svg>
