<!-- Generated by IcoMoon.io -->
<svg version="1.1" xmlns="http://www.w3.org/2000/svg" width="32" height="32" viewBox="0 0 32 32">
<title>factions-order-stormcast-eternals-alternative</title>
<path fill="#fff" d="M4.716 28.057c-3.244-1.144-5.111-4.131-4.644-7.398 0.513-3.594 3.127-5.928 6.651-5.905 3.874 0 6.885 2.941 6.885 6.745 0 2.801-1.914 5.531-4.481 6.418-1.517 0.537-3.174 0.583-4.411 0.14z"></path>
<path fill="#fff" d="M14.191 21.872c0-0.724-0.093-1.727-0.187-2.24l-0.187-0.957 1.774-0.443c0.98-0.233 1.844-0.537 1.914-0.653s-0.257-0.583-0.724-1.074l-0.84-0.84 2.054-0.56c1.12-0.303 2.544-0.724 3.174-0.887l1.144-0.35-0.864-0.864c-0.467-0.467-0.84-0.91-0.84-0.98s0.653-0.14 1.47-0.163c0.794-0.023 3.337-0.163 5.625-0.28 2.311-0.117 4.224-0.187 4.294-0.14 0.047 0.070-1.494 0.607-3.431 1.237-1.937 0.607-3.501 1.167-3.501 1.237-0.023 0.070 0.35 0.513 0.794 1.027 0.443 0.49 0.817 0.934 0.817 0.957 0 0.047-0.7 0.303-1.564 0.583-0.887 0.257-2.147 0.653-2.824 0.887-0.677 0.21-1.19 0.443-1.167 0.537 0.047 0.093 0.677 0.7 1.424 1.354 0.794 0.7 1.237 1.237 1.050 1.284-0.163 0.047-1.657 0.467-3.337 0.957-1.657 0.49-3.711 1.050-4.551 1.284l-1.517 0.397v-1.307z"></path>
<path fill="#fff" d="M10.224 14.941c-0.513-0.303-1.424-0.63-2.030-0.7-0.63-0.093-1.12-0.187-1.12-0.233s0.397-0.7 0.887-1.447c0.467-0.77 1.657-2.661 2.614-4.201l1.75-2.824 0.887 1.774 0.887 1.75 1.494-2.38c0.817-1.33 1.587-2.497 1.727-2.637 0.117-0.117 0.443 0.187 0.84 0.864 0.35 0.583 0.7 1.074 0.77 1.074 0.093 0 0.35-0.28 0.56-0.653 1.027-1.657 3.687-5.508 3.687-5.321 0 0.117-0.794 2.637-1.774 5.578l-1.797 5.368-0.607-1.074c-0.327-0.607-0.653-1.097-0.724-1.097s-0.84 1.214-1.704 2.684c-0.887 1.47-1.634 2.684-1.68 2.684-0.070 0-0.397-0.42-0.723-0.934-0.35-0.513-0.7-0.864-0.793-0.817-0.117 0.070-0.583 0.793-1.074 1.634s-0.957 1.517-1.027 1.494c-0.070 0-0.537-0.28-1.050-0.583z"></path>
</svg>
