<!-- Generated by IcoMoon.io -->
<svg version="1.1" xmlns="http://www.w3.org/2000/svg" width="32" height="32" viewBox="0 0 32 32">
<title>factions-order-sylvaneth-alternative</title>
<path fill="#fff" d="M13.644 29.742c0-0.663 0.204-1.275 0.561-1.734 0.867-1.096 0.408-1.504-1.81-1.606-1.708-0.076-1.835-0.102-2.192-0.816-0.204-0.408-0.382-1.071-0.382-1.453v-0.714h-2.090c-2.677-0.026-4.181-0.637-6.093-2.575-0.739-0.739-1.249-1.377-1.122-1.377 0.102 0 0.433 0.204 0.714 0.459 0.459 0.408 0.459 0.382-0.051-0.459-0.28-0.484-0.714-1.734-0.943-2.753-0.484-2.192-0.229-3.697 0.867-4.767 1.453-1.453 2.677-0.357 3.442 3.136 0.178 0.816-0.127 0.688-0.765-0.331-0.331-0.484-0.79-0.994-1.071-1.147-1.173-0.612-1.377 2.192-0.306 4.257 0.816 1.606 3.824 4.13 3.212 2.702-0.102-0.255-0.255-1.147-0.306-1.988l-0.102-1.53 0.739 1.555c0.892 1.861 1.581 2.396 3.059 2.396 1.147 0 1.198-0.051 1.428-1.555 0.153-0.867 0.102-0.943-1.096-1.708-1.479-0.969-2.932-2.983-3.493-4.869-0.586-1.963-0.408-5.099 0.306-6.067 0.586-0.765 1.912-1.096 2.498-0.612 0.459 0.382 1.249 3.085 1.122 3.849-0.076 0.612-0.102 0.586-0.535-0.255-0.79-1.581-1.147-1.937-1.657-1.632-0.688 0.433-0.969 1.937-0.561 3.212 0.459 1.428 0.765 1.759 0.79 0.816 0-0.663 0.077-0.586 0.637 0.663 0.714 1.581 1.428 2.422 2.498 2.983 0.688 0.357 0.765 0.357 0.994-0.076 0.153-0.255 0.535-0.739 0.867-1.071l0.586-0.586-0.51-0.535c-1.147-1.249-2.294-4.665-2.294-6.832 0-2.371 1.147-5.124 2.269-5.481 0.739-0.229 1.784 0.306 2.090 1.071 0.357 0.943 0.357 4.13 0 4.487-0.204 0.204-0.28 0.077-0.306-0.459-0.025-1.326-0.229-2.039-0.739-2.549-0.51-0.484-0.51-0.484-1.045 0.051-0.408 0.382-0.561 0.969-0.663 2.218-0.102 1.173-0.051 1.683 0.153 1.683 0.153 0 0.28-0.178 0.28-0.382s0.127-0.382 0.255-0.382c0.153 0 0.255 0.535 0.28 1.224 0 1.198 0.51 2.779 1.275 3.9 0.408 0.612 0.433 0.612 0.969 0.127s0.561-0.484 1.3 0.229c0.663 0.637 0.714 0.637 0.586 0.153-0.076-0.306-0.026-0.535 0.127-0.535 0.357 0 1.326-3.11 1.326-4.232 0-0.867 0.484-1.275 0.535-0.408 0 0.306 0.076 0.255 0.255-0.204 0.484-1.198-0.28-3.824-1.147-3.824-0.408 0-0.867 0.969-1.071 2.294-0.229 1.428-0.535 1.275-0.739-0.382-0.51-4.002 2.422-5.685 3.9-2.218 0.867 2.039 0.994 4.41 0.306 6.679-0.535 1.861-1.708 4.079-2.116 4.079-0.127 0 0.153 0.51 0.612 1.147s0.867 1.147 0.918 1.147c0.051 0 0.433-0.178 0.841-0.382 0.892-0.459 1.835-1.657 2.524-3.187 0.357-0.841 0.51-0.994 0.51-0.561 0.026 0.892 0.433 0.663 0.765-0.484 0.357-1.198 0.178-2.855-0.382-3.314-0.484-0.408-1.275 0.306-1.912 1.683l-0.459 1.020v-1.020c-0.026-1.020 0.331-2.294 0.943-3.365 0.663-1.173 2.498-0.535 3.11 1.096 0.382 0.969 0.306 3.926-0.127 5.328-0.51 1.759-2.039 3.824-3.467 4.767-1.198 0.765-1.249 0.841-1.096 1.708 0.229 1.453 0.229 1.453 1.479 1.53 1.045 0.051 1.3-0.051 1.937-0.739 0.408-0.433 0.867-1.198 1.045-1.734 0.153-0.51 0.382-1.045 0.51-1.173 0.306-0.357 0.28 2.192-0.026 3.008-0.382 1.071 0.153 0.816 1.785-0.816 1.275-1.275 1.504-1.683 1.785-2.932 0.382-1.886 0.153-3.034-0.586-2.932-0.306 0.051-0.816 0.484-1.147 0.969-0.841 1.275-1.045 1.224-0.765-0.153 0.306-1.453 1.096-2.83 1.734-3.034 1.198-0.382 2.804 1.683 2.804 3.62 0 0.943-0.867 3.747-1.428 4.614l-0.433 0.688 0.561-0.484c0.28-0.28 0.612-0.433 0.688-0.331 0.255 0.255-2.116 2.345-3.544 3.136-1.173 0.637-1.581 0.739-3.544 0.739h-2.243v0.918c0 0.535-0.204 1.198-0.484 1.53-0.408 0.51-0.714 0.586-2.192 0.612-2.116 0-2.575 0.433-1.708 1.53 0.382 0.459 0.561 1.071 0.561 1.759v1.045l-0.663-0.969c-0.714-1.071-0.994-1.045-1.249 0.076-0.204 0.969-0.51 0.969-0.79-0.026-0.306-1.045-0.612-1.045-1.3 0l-0.586 0.867v-1.020zM14.664 25.077c0-0.127-0.459-0.535-1.020-0.892s-1.071-0.918-1.173-1.275c-0.127-0.535-0.229-0.586-0.663-0.357-0.382 0.204-0.459 0.484-0.408 1.198 0.076 0.943 0.076 0.943 1.351 1.020 0.714 0.051 1.377 0.178 1.53 0.331 0.306 0.306 0.382 0.28 0.382-0.026zM19.125 24.847c1.249-0.153 1.275-0.178 1.351-1.096 0.051-0.714-0.026-0.994-0.408-1.198-0.433-0.229-0.535-0.178-0.663 0.357-0.102 0.357-0.612 0.918-1.147 1.275-1.122 0.688-1.708 1.377-0.892 1.020 0.255-0.102 1.071-0.28 1.759-0.357zM14.944 22.884c-0.28-0.382-0.535-1.045-0.535-1.479-0.025-0.739-0.025-0.765-0.382-0.306-0.612 0.79-0.433 1.504 0.459 2.090 1.020 0.663 1.147 0.586 0.459-0.306zM18.233 22.12c0-0.306-0.178-0.688-0.382-0.867-0.331-0.255-0.382-0.229-0.382 0.306 0 0.357-0.229 0.943-0.51 1.3-0.714 0.918-0.637 0.994 0.382 0.357 0.535-0.357 0.867-0.765 0.892-1.096zM12.854 19.851c1.071-0.535 1.428-1.657 0.561-1.657-0.535 0-1.555 1.122-1.555 1.683 0 0.459 0.102 0.433 0.994-0.026zM20.017 20.106c0-0.867-1.53-2.269-1.963-1.81-0.28 0.28 0.433 1.428 0.994 1.683 0.688 0.28 0.969 0.306 0.969 0.127zM16.703 15.389c-0.663-0.918-0.688-0.918-1.453-0.204-0.867 0.79-0.739 0.969 0.714 0.969h1.275l-0.535-0.765zM17.213 15.033c0-0.076-0.127-0.204-0.306-0.306s-0.204-0.076-0.102 0.102c0.178 0.306 0.408 0.408 0.408 0.204zM16.958 14.268c0-0.076-0.127-0.204-0.306-0.306s-0.204-0.076-0.102 0.102c0.178 0.306 0.408 0.408 0.408 0.204z"></path>
</svg>
