<!-- Generated by IcoMoon.io -->
<svg version="1.1" xmlns="http://www.w3.org/2000/svg" width="32" height="32" viewBox="0 0 32 32">
<title>factions-chaos-rotmire-creed</title>
<path fill="#fff" d="M16.695 31.631c-0.38-0.456-0.76-0.494-1.083-0.095-0.285 0.342-1.197 0.38-1.71 0.057-0.304-0.19-0.456-0.19-0.76-0.019-0.266 0.171-0.399 0.171-0.494 0.038-0.076-0.133-0.665-0.456-1.311-0.76-1.14-0.513-1.197-0.57-1.33-1.349-0.076-0.456-0.209-0.912-0.285-1.007-0.095-0.114-0.19-0.627-0.228-1.14-0.057-0.836-0.133-0.988-0.722-1.387-0.513-0.342-0.874-0.437-1.52-0.38-1.235 0.076-2.299-0.437-2.717-1.33-0.171-0.38-0.399-0.836-0.475-0.988-0.684-1.216-0.779-1.52-0.513-1.52 0.703 0 0.855-1.406 0.323-2.698-0.304-0.684-0.589-2.945-0.665-4.998-0.038-0.95 0.494-5.226 0.741-6.119 1.444-5.017 9.254-9.045 14.841-7.658 3.838 0.969 8.114 4.408 9.349 7.563 0.513 1.311 0.836 5.473 0.57 7.354-0.095 0.741-0.228 2.052-0.304 2.945-0.057 0.893-0.228 1.786-0.361 1.995-0.38 0.551-0.323 1.292 0.152 1.9s0.475 0.589-1.026 2.508c-0.855 1.083-1.026 1.197-1.52 1.121-0.304-0.038-1.064 0.095-1.672 0.304-1.482 0.494-1.9 1.045-1.9 2.565-0.019 0.931-0.095 1.197-0.551 1.729-0.779 0.912-1.824 1.425-2.318 1.159-0.323-0.171-0.475-0.133-0.817 0.19-0.532 0.513-1.273 0.513-1.691 0.019zM15.611 25.531l0.475-0.76 0.152 0.627c0.095 0.342 0.228 0.703 0.323 0.798 0.076 0.076 0.589-0.095 1.121-0.38 0.893-0.513 0.969-0.608 0.969-1.254 0-0.399-0.076-0.722-0.19-0.722-0.095 0-0.19-0.133-0.19-0.304 0-0.152-0.076-0.228-0.19-0.171-0.095 0.057-0.19-0.019-0.19-0.171s-0.247-0.703-0.57-1.197c-0.304-0.494-0.57-1.007-0.57-1.14 0-0.418-1.026-0.285-1.425 0.19-0.741 0.855-1.824 3.173-1.691 3.591 0.114 0.38 1.159 1.577 1.406 1.634 0.057 0.019 0.304-0.323 0.57-0.741zM10.937 21.712c-0.057-0.076 0.209-0.19 0.589-0.266 0.361-0.057 0.665-0.19 0.665-0.285s0.133-0.171 0.285-0.171c0.152 0 0.285-0.076 0.285-0.171 0-0.114 0.209-0.418 0.475-0.703 0.342-0.38 0.475-0.722 0.475-1.292 0-1.387-0.114-1.52-1.387-1.881-0.646-0.171-1.577-0.532-2.090-0.798-1.311-0.703-2.128-0.627-3.154 0.266-0.76 0.646-0.836 0.798-0.912 1.748-0.171 2.242 1.52 3.8 4.066 3.705 0.418 0 0.741-0.076 0.703-0.152zM24.808 21.256c0.304-0.228 0.627-0.798 0.855-1.501 0.38-1.083 0.703-2.926 0.494-2.736-0.057 0.057-0.513-0.304-1.045-0.817-1.235-1.178-1.995-1.235-3.477-0.247-2.394 1.577-2.508 1.691-2.565 2.413-0.19 2.223 3.857 4.256 5.739 2.888zM16.885 15.137c0.608-0.608 1.33-1.52 1.634-2.033 0.285-0.532 0.855-1.501 1.273-2.185 0.418-0.703 0.912-1.881 1.14-2.755 0.209-0.836 0.475-1.672 0.57-1.843 0.399-0.703-0.19-0.304-1.083 0.703-1.843 2.147-3.591 5.245-4.294 7.601-0.152 0.532-0.342 1.102-0.418 1.292-0.228 0.551 0.038 0.38 1.178-0.779zM11.982 13.75c1.368-0.703 2.641-2.489 4.294-5.967 0.399-0.836 0.874-1.729 1.064-1.995 0.418-0.627 1.9-3.42 1.786-3.42-0.038 0-0.437 0.247-0.893 0.551-1.843 1.254-3.667 3.667-5.302 6.993-0.722 1.463-1.311 2.793-1.311 2.945s-0.133 0.437-0.285 0.646c-0.551 0.741-0.399 0.798 0.646 0.247zM7.935 12.116c1.235-1.159 3.002-3.724 3.762-5.416 0.247-0.551 0.798-1.634 1.216-2.375 0.418-0.76 0.684-1.387 0.589-1.387-0.494 0-1.387 0.684-2.546 1.938-1.292 1.406-2.546 3.667-3.61 6.518-0.228 0.627-0.494 1.292-0.57 1.482-0.076 0.171-0.114 0.323-0.076 0.323s0.608-0.494 1.235-1.083z"></path>
</svg>
