<!-- Generated by IcoMoon.io -->
<svg version="1.1" xmlns="http://www.w3.org/2000/svg" width="32" height="32" viewBox="0 0 32 32">
<title>factions-death-nighthaunt</title>
<path fill="#fff" d="M23.515 12.839c0 0.286 0 0.572 0 0.858-0.025 0.095-0.061 0.188-0.070 0.285-0.047 0.452-0.093 0.906-0.124 1.36-0.014 0.206 0.023 0.417 0.007 0.623-0.051 0.613-0.11 1.225-0.179 1.837-0.056 0.507-0.103 1.019-0.206 1.518-0.133 0.645-0.311 1.28-0.487 1.914-0.041 0.146-0.127 0.303-0.239 0.4-0.162 0.142-0.242 0.305-0.274 0.506-0.019 0.131-0.036 0.261-0.045 0.392-0.026 0.338-0.095 0.663-0.272 0.959-0.127 0.21-0.254 0.422-0.38 0.633-0.114 0.193-0.257 0.252-0.458 0.16-0.272-0.124-0.516-0.059-0.745 0.098-0.16 0.109-0.312 0.226-0.463 0.345-0.049 0.040-0.096 0.092-0.125 0.149-0.062 0.122-0.155 0.169-0.283 0.139-0.147-0.034-0.171 0.029-0.154 0.158 0.022 0.162 0.048 0.329 0.034 0.49-0.019 0.216-0.070 0.429-0.116 0.641-0.084 0.403-0.176 0.805-0.256 1.207-0.015 0.076 0.007 0.158 0.011 0.238 0.026 0.006 0.054 0.012 0.080 0.018 0.041-0.080 0.1-0.155 0.12-0.241 0.102-0.461 0.223-0.921 0.279-1.389 0.058-0.477 0.422-0.656 0.723-0.913 0.184 0.217 0.182 0.333 0.054 0.55-0.099 0.168-0.205 0.348-0.242 0.535-0.092 0.474-0.158 0.953-0.215 1.433-0.072 0.594-0.213 1.158-0.609 1.625-0.213 0.252-0.44 0.491-0.663 0.736-0.102 0.111-0.22 0.171-0.38 0.161-0.076-0.004-0.161 0.022-0.23 0.059-0.121 0.065-0.23 0.151-0.348 0.22-0.166 0.095-0.267 0.234-0.33 0.414-0.087 0.243-0.177 0.485-0.289 0.718-0.158 0.329-0.473 0.415-0.788 0.227-0.198-0.118-0.389-0.249-0.576-0.384-0.114-0.082-0.239-0.169-0.316-0.283-0.381-0.557-0.828-1.070-1.118-1.689-0.055-0.117-0.164-0.208-0.228-0.32-0.103-0.177-0.21-0.358-0.281-0.55-0.099-0.271-0.166-0.553-0.246-0.831-0.022-0.078-0.059-0.16-0.054-0.237 0.012-0.155-0.050-0.265-0.162-0.358-0.161-0.133-0.323-0.264-0.481-0.4-0.355-0.304-0.562-0.683-0.583-1.158-0.015-0.351-0.146-0.661-0.353-0.942-0.045-0.061-0.107-0.138-0.1-0.201 0.011-0.106 0.072-0.205 0.11-0.308 0.072 0.036 0.151 0.061 0.212 0.109 0.089 0.072 0.161 0.166 0.252 0.238 0.072 0.056 0.154 0.107 0.241 0.132 0.143 0.041 0.23 0.121 0.257 0.267 0.066 0.345 0.136 0.689 0.195 1.034 0.032 0.186 0.118 0.285 0.309 0.305 0-0.093 0.011-0.188-0.003-0.279-0.030-0.201-0.074-0.399-0.11-0.6-0.027-0.154 0.034-0.261 0.209-0.347 0.15 0.336 0.293 0.66 0.44 0.983 0.036 0.078 0.082 0.151 0.124 0.228 0.017-0.004 0.034-0.008 0.051-0.011 0.026-0.070 0.054-0.139 0.077-0.21 0.089-0.275 0.153-0.562 0.271-0.825 0.146-0.323 0.124-0.545-0.146-0.777-0.237-0.205-0.481-0.403-0.707-0.62-0.168-0.161-0.359-0.259-0.573-0.342-0.388-0.151-0.803-0.278-1.137-0.512-0.329-0.23-0.675-0.402-1.026-0.58-0.084-0.043-0.168-0.164-0.176-0.256-0.011-0.127 0.023-0.275 0.088-0.385 0.249-0.428 0.535-0.833 0.771-1.267 0.132-0.242 0.199-0.52 0.279-0.785 0.040-0.135-0.019-0.243-0.183-0.304-0.118 0.381-0.293 0.719-0.639 0.961-0.033-0.171-0.066-0.342-0.034-0.501 0.128-0.645 0.12-1.25-0.241-1.844-0.198-0.326-0.29-0.719-0.403-1.091-0.107-0.352-0.221-0.7-0.49-0.957-0.604-0.58-0.787-1.324-0.872-2.115-0.081-0.751 0.161-1.434 0.455-2.101 0.104-0.237 0.259-0.461 0.426-0.66 0.254-0.303 0.525-0.595 0.818-0.861 0.348-0.316 0.289-0.604 0.107-0.909-0.104-0.175-0.227-0.338-0.33-0.513-0.292-0.501-0.237-0.891 0.182-1.286 0.204-0.193 0.353-0.414 0.447-0.682 0.055-0.158 0.132-0.32 0.238-0.448 0.227-0.274 0.239-0.549 0.088-0.857-0.169-0.342-0.149-0.703-0.067-1.064 0.023-0.103 0.077-0.168 0.194-0.158 0.107 0.008 0.166 0.062 0.191 0.169 0.088 0.391 0.182 0.778 0.271 1.168 0.055 0.242 0.040 0.472-0.063 0.707-0.106 0.239-0.197 0.49-0.25 0.745-0.078 0.377-0.161 0.739-0.45 1.023-0.058 0.056-0.089 0.194-0.063 0.27 0.089 0.261 0.209 0.529 0.454 0.668 0.237 0.135 0.413 0.322 0.605 0.499 0.122 0.113 0.197 0.099 0.257-0.054 0.161-0.407 0.429-0.725 0.781-0.979 0.362-0.261 0.418-0.513 0.209-0.909-0.142-0.267-0.289-0.531-0.413-0.806-0.237-0.525-0.228-1.020 0.205-1.459 0.165-0.168 0.245-0.375 0.282-0.616 0.051-0.334 0.154-0.661 0.234-0.992 0.037-0.149 0.085-0.296 0.111-0.447 0.136-0.824 0.265-1.649 0.399-2.473 0.015-0.095 0.021-0.209 0.157-0.216 0.128-0.007 0.213 0.059 0.235 0.183 0.040 0.23 0.099 0.462 0.1 0.693 0.004 0.703 0.050 1.412-0.135 2.1-0.127 0.473-0.142 0.941-0.037 1.418 0.076 0.345 0.091 0.684-0.122 1-0.036 0.054-0.015 0.169 0.017 0.241 0.058 0.129 0.14 0.249 0.216 0.37 0.355 0.568 0.408 1.195 0.363 1.843-0.007 0.089-0.001 0.18-0.001 0.27 0.018 0.010 0.036 0.019 0.054 0.029 0.065-0.040 0.139-0.069 0.191-0.121 0.261-0.257 0.45-0.254 0.69 0.015 0.044 0.050 0.082 0.106 0.136 0.143 0.070 0.048 0.151 0.111 0.228 0.113 0.393 0.001 0.675 0.197 0.912 0.487 0.278 0.341 0.473 0.714 0.473 1.166 0 0.169 0.080 0.242 0.259 0.271 0.146 0.023 0.29 0.118 0.414 0.209 0.116 0.085 0.205 0.206 0.327 0.334 0-0.136 0.015-0.245-0.003-0.348-0.048-0.27-0.089-0.545-0.173-0.805-0.197-0.609-0.135-1.194 0.135-1.762 0.032-0.067 0.114-0.142 0.184-0.155 0.234-0.045 0.293-0.076 0.327-0.315 0.037-0.254 0.056-0.513 0.072-0.77 0.011-0.186 0.061-0.348 0.224-0.452 0.12-0.076 0.245-0.044 0.279 0.087 0.124 0.469 0.336 0.927 0.19 1.433-0.007 0.026-0.004 0.055-0.003 0.082 0.018 0.349 0.036 0.699 0.055 1.048 0.036 0.686 0.072 1.372 0.106 2.057 0.003 0.050-0.001 0.099-0.008 0.147-0.026 0.216-0.055 0.432-0.082 0.648-0.021 0.162-0.027 0.329-0.062 0.488-0.051 0.235-0.127 0.466-0.184 0.701-0.103 0.418-0.051 0.802 0.257 1.129 0.099 0.106 0.153 0.106 0.224-0.014 0.135-0.227 0.272-0.451 0.402-0.682 0.033-0.059 0.063-0.136 0.056-0.202-0.040-0.393-0.059-0.792-0.146-1.176-0.1-0.446-0.078-0.862 0.072-1.293 0.113-0.322 0.175-0.663 0.235-1 0.056-0.318 0.074-0.642 0.121-0.961 0.034-0.227 0.138-0.454 0.127-0.675-0.025-0.47-0.1-0.939-0.166-1.407-0.032-0.227-0.172-0.392-0.373-0.495-0.286-0.144-0.469-0.377-0.527-0.679-0.067-0.349-0.113-0.705-0.121-1.060-0.010-0.4 0.118-0.774 0.4-1.071 0.209-0.22 0.271-0.473 0.226-0.759-0.037-0.232-0.081-0.466-0.14-0.693-0.113-0.429-0.187-0.86-0.11-1.304 0.019-0.113 0.054-0.209 0.184-0.215 0.124-0.005 0.186 0.070 0.213 0.187 0.061 0.25 0.118 0.503 0.193 0.75 0.19 0.637 0.389 1.271 0.582 1.906 0.074 0.245 0.066 0.485-0.034 0.726-0.037 0.088-0.043 0.193-0.047 0.29-0.021 0.509 0.065 1.022-0.051 1.528-0.010 0.041-0.007 0.091 0.006 0.131 0.076 0.234 0.161 0.465 0.235 0.699s0.208 0.472 0.198 0.704c-0.023 0.551-0.081 1.107-0.19 1.649-0.098 0.494-0.093 0.952 0.109 1.416 0.111 0.254 0.177 0.528 0.253 0.798 0.041 0.147 0.045 0.305 0.091 0.451 0.098 0.316 0.12 0.637 0.093 0.963-0.044 0.55-0.045 0.551 0.406 0.86 0.063 0.043 0.133 0.076 0.227 0.129 0.047-0.481 0.037-0.91-0.135-1.322-0.14-0.338-0.206-0.693-0.114-1.048 0.084-0.322 0.213-0.633 0.333-0.945 0.099-0.257 0.153-0.506 0.142-0.795-0.019-0.507 0.161-0.66 0.605-0.499 0.021 0.007 0.041 0.015 0.063 0.018 0.128 0.014 0.183 0.078 0.169 0.209-0.008 0.076 0 0.154 0.007 0.231 0.049 0.513 0.048 1.020-0.105 1.52-0.021 0.067-0.022 0.14-0.036 0.21-0.081 0.413 0.114 0.765 0.231 1.133zM11.856 10.662c-0.062 0.056-0.114 0.096-0.158 0.143-0.407 0.432-0.814 0.864-1.218 1.298-0.377 0.406-0.573 0.91-0.556 1.44 0.019 0.6 0.121 1.205 0.26 1.791 0.198 0.837 0.502 1.649 0.619 2.507 0.008 0.063 0.043 0.122 0.065 0.184 0.022-0.003 0.044-0.007 0.067-0.010 0-0.26 0.012-0.521-0.003-0.78-0.017-0.268-0.076-0.534-0.087-0.802-0.018-0.402-0.076-0.784-0.326-1.119-0.143-0.19-0.149-0.408-0.063-0.627 0.041-0.107 0.099-0.21 0.125-0.322 0.023-0.098 0.037-0.209 0.012-0.304-0.081-0.312-0.005-0.565 0.279-0.734 0.205-0.122 0.43-0.209 0.66-0.318 0.027 0.281-0.033 0.506-0.265 0.661-0.103 0.069-0.128 0.136-0.066 0.261 0.047 0.094 0.054 0.22 0.039 0.326-0.026 0.172-0.091 0.338-0.128 0.51-0.019 0.089 0.015 0.184 0.118 0.175 0.062-0.005 0.15-0.073 0.169-0.132 0.139-0.415 0.259-0.836 0.393-1.253 0.085-0.264 0.228-0.495 0.419-0.701 0.067-0.073 0.113-0.215 0.094-0.311-0.113-0.576-0.246-1.148-0.374-1.72-0.017-0.052-0.047-0.099-0.076-0.164zM18.622 23.057c0.197 0 0.337-0.074 0.52-0.232 0.257-0.223 0.502-0.468 0.789-0.645 0.481-0.297 0.73-0.762 0.982-1.229 0.022-0.041-0.023-0.171-0.059-0.182-0.237-0.065-0.484-0.168-0.719-0.147-0.496 0.044-0.99 0.14-1.403 0.463-0.111 0.088-0.245 0.149-0.356 0.237-0.065 0.051-0.125 0.124-0.153 0.198-0.103 0.278-0.26 0.518-0.466 0.73-0.069 0.070-0.146 0.135-0.208 0.212-0.129 0.164-0.098 0.257 0.102 0.32 0.272 0.085 0.545 0.166 0.818 0.248 0.058 0.017 0.12 0.022 0.153 0.027zM14.204 22.847c0.003 0.014 0.005 0.027 0.010 0.040 0.312-0.081 0.624-0.16 0.935-0.242 0.204-0.055 0.221-0.109 0.069-0.256-0.245-0.235-0.523-0.441-0.744-0.696-0.212-0.243-0.465-0.36-0.761-0.454-0.202-0.065-0.386-0.194-0.571-0.309-0.149-0.093-0.278-0.216-0.425-0.311-0.15-0.098-0.217-0.061-0.245 0.114-0.027 0.179-0.067 0.356-0.084 0.536-0.034 0.397 0.076 0.756 0.364 1.033 0.402 0.385 0.893 0.561 1.451 0.545zM16.932 24.296c0.026-0.008 0.051-0.015 0.077-0.023-0.12-0.305-0.237-0.612-0.366-0.913-0.012-0.029-0.143-0.051-0.161-0.027-0.131 0.158-0.3 0.312-0.353 0.498-0.113 0.382-0.168 0.782-0.232 1.177-0.054 0.326 0.142 0.677 0.435 0.82 0.175 0.085 0.219 0.061 0.298-0.117 0.037-0.084 0.098-0.187 0.173-0.217 0.276-0.114 0.364-0.272 0.285-0.561-0.059-0.21-0.105-0.424-0.155-0.635zM15.95 30.794c0.023-0.091 0.043-0.14 0.050-0.193 0.043-0.311 0.085-0.62 0.124-0.931 0.015-0.12 0.055-0.253 0.019-0.358-0.118-0.345-0.018-0.642 0.129-0.949 0.069-0.142 0.103-0.312 0.107-0.47 0.008-0.422-0.006-0.846-0.018-1.268-0.001-0.062-0.036-0.153-0.081-0.173-0.049-0.022-0.14 0.007-0.191 0.043-0.114 0.082-0.143 0.206-0.142 0.349 0.001 0.168 0.026 0.364-0.051 0.496-0.161 0.275-0.227 0.553-0.204 0.862 0.045 0.586 0.092 1.172 0.136 1.759 0.005 0.076 0.023 0.168-0.010 0.227-0.124 0.226 0.001 0.388 0.131 0.605zM18.003 26.619c-0.019-0.011-0.040-0.022-0.059-0.033-0.1 0.117-0.21 0.228-0.298 0.355-0.099 0.143-0.195 0.248-0.389 0.158-0.080-0.036-0.117 0.011-0.096 0.106 0.055 0.261 0.106 0.523 0.15 0.785 0.040 0.238-0.018 0.458-0.157 0.656-0.18 0.257-0.278 0.546-0.333 0.851-0.021 0.114-0.027 0.231-0.041 0.347 0.018 0.010 0.036 0.021 0.054 0.030 0.078-0.087 0.153-0.179 0.237-0.261 0.096-0.095 0.188-0.212 0.305-0.267 0.259-0.122 0.377-0.312 0.397-0.591 0.037-0.503 0.082-1.005 0.133-1.509 0.023-0.209 0.065-0.417 0.098-0.627zM14.627 25.955c-0.023 0.063-0.043 0.096-0.047 0.131-0.045 0.441-0.094 0.881-0.127 1.323-0.005 0.080 0.034 0.176 0.082 0.243 0.263 0.369 0.496 0.75 0.641 1.183 0.015 0.047 0.059 0.084 0.091 0.125 0.030-0.107 0.021-0.193 0.014-0.279-0.039-0.421-0.095-0.84-0.111-1.261-0.015-0.385-0.037-0.755-0.308-1.063-0.060-0.069-0.089-0.162-0.136-0.243-0.025-0.047-0.055-0.089-0.099-0.158zM14.733 19.786c0.021-0.015 0.041-0.030 0.060-0.047-0.019-0.054-0.027-0.114-0.058-0.16-0.197-0.296-0.397-0.589-0.598-0.881-0.206-0.303-0.414-0.604-0.619-0.908-0.058-0.087-0.109-0.179-0.162-0.27-0.021 0.004-0.040 0.008-0.060 0.011-0.029 0.179-0.085 0.36-0.078 0.538 0.007 0.176 0.077 0.349 0.127 0.523 0.014 0.047 0.045 0.093 0.081 0.127 0.1 0.092 0.208 0.177 0.314 0.263 0.333 0.27 0.664 0.536 0.994 0.805zM17.723 25.54c0.231-0.154 0.309-0.349 0.22-0.525-0.072 0.173-0.14 0.336-0.22 0.525zM17.14 22.87c0.052 0.111 0.093 0.201 0.144 0.309 0.089-0.202 0.077-0.228-0.144-0.309z"></path>
<path fill="#fff" d="M16.683 0.001c0.194 0.14 0.239 0.363 0.252 0.569 0.034 0.575 0.045 1.152 0.044 1.727 0 0.177-0.080 0.352-0.109 0.531-0.027 0.166-0.069 0.34-0.047 0.503 0.099 0.77 0.248 1.531 0.628 2.221 0.058 0.104 0.12 0.224 0.215 0.287 0.615 0.408 0.528 1.628-0.051 2.114-0.447 0.374-0.96 0.392-1.456 0.084-0.248-0.154-0.305-0.364-0.363-0.605-0.056-0.239-0.003-0.457 0.122-0.661 0.199-0.329 0.175-0.403-0.059-0.715-0.292-0.392-0.558-0.802-0.822-1.213-0.131-0.204-0.166-0.441-0.146-0.682 0.047-0.543 0.235-1.020 0.637-1.408 0.193-0.187 0.374-0.389 0.534-0.605 0.084-0.113 0.132-0.263 0.157-0.404 0.089-0.485 0.155-0.975 0.245-1.462 0.018-0.099 0.102-0.186 0.155-0.279 0.021-0.001 0.043-0.001 0.065-0.001z"></path>
</svg>
