<!-- Generated by IcoMoon.io -->
<svg version="1.1" xmlns="http://www.w3.org/2000/svg" width="32" height="32" viewBox="0 0 32 32">
<title>factions-destruction-gloomspite-gitz</title>
<path fill="#fff" d="M3.081 8.804c0-0.045 0-0.089 0-0.134 0.134-0.17 0.259-0.347 0.404-0.507 0.873-0.969 1.117-2.203 1.44-3.405 0.059-0.219 0.1-0.451 0.21-0.645 0.171-0.302 0.507-0.263 0.664 0.047 0.205 0.407 0.244 0.837 0.219 1.284-0.031 0.546-0.025 1.089 0.171 1.614 0.089 0.24 0.194 0.458 0.394 0.627 0.153 0.128 0.304 0.262 0.444 0.405 0.202 0.205 0.213 0.469 0.032 0.677-0.166 0.191-0.39 0.298-0.627 0.223-0.21-0.065-0.393-0.015-0.586 0.020-0.175 0.032-0.207 0.095-0.127 0.255 0.131 0.258 0.256 0.519 0.405 0.767 0.063 0.104 0.163 0.205 0.272 0.256 0.146 0.070 0.315 0.102 0.478 0.125 0.065 0.010 0.157-0.028 0.209-0.074 0.247-0.221 0.418-0.483 0.447-0.83 0.015-0.174 0.075-0.345 0.117-0.518 0.035-0.139 0.091-0.274 0.107-0.416 0.025-0.23 0.092-0.433 0.26-0.599 0.107-0.106 0.205-0.221 0.319-0.317 0.149-0.127 0.198-0.277 0.199-0.469 0.007-0.695 0.036-1.391 0.042-2.086 0-0.079-0.077-0.173-0.142-0.237-0.047-0.046-0.132-0.053-0.201-0.077-0.426-0.145-0.855-0.284-1.278-0.436-0.065-0.024-0.15-0.097-0.16-0.16-0.047-0.274 0.171-0.511 0.446-0.529 0.135-0.008 0.287-0.015 0.4-0.081 0.657-0.379 1.010-1.005 1.28-1.679 0.177-0.443 0.302-0.907 0.447-1.362 0.065-0.205 0.184-0.359 0.366-0.478 0.123-0.079 0.181-0.068 0.234 0.068 0.15 0.39 0.168 0.791 0.116 1.2-0.038 0.285-0.107 0.57-0.020 0.861 0.046 0.153 0.071 0.313 0.109 0.469 0.072 0.297 0.118 0.61 0.469 0.732 0.053 0.018 0.111 0.071 0.131 0.123 0.097 0.247 0.297 0.372 0.518 0.49 0.319 0.171 0.329 0.517 0.033 0.721-0.063 0.043-0.135 0.077-0.207 0.104-0.337 0.127-0.684 0.192-1.046 0.163-0.095-0.007-0.189 0-0.284 0.001-0.121 0.001-0.17 0.059-0.148 0.181 0.056 0.301 0.102 0.603 0.162 0.902 0.056 0.283 0.223 0.37 0.473 0.228 0.192-0.109 0.365-0.252 0.537-0.393 0.322-0.263 0.659-0.425 1.083-0.248 0.187 0.077 0.267 0.024 0.311-0.175 0.111-0.522 0.219-1.044 0.327-1.568 0.022-0.107-0.010-0.177-0.131-0.18-0.38-0.010-0.693-0.185-0.992-0.397-0.175-0.124-0.164-0.341 0.028-0.44 0.143-0.074 0.29-0.145 0.443-0.194 0.531-0.17 0.827-0.564 1.051-1.043 0.246-0.528 0.507-1.050 0.76-1.575 0.052-0.107 0.142-0.113 0.242-0.085 0.102 0.028 0.192 0.068 0.181 0.201-0.013 0.149-0.022 0.299-0.040 0.448-0.072 0.585-0.063 1.154 0.146 1.725 0.138 0.377 0.348 0.65 0.693 0.83 0.103 0.053 0.162 0.13 0.134 0.24-0.042 0.17-0.085 0.345-0.159 0.503-0.111 0.237-0.213 0.272-0.473 0.213-0.109-0.024-0.217-0.049-0.327-0.067-0.202-0.035-0.265 0.008-0.305 0.205-0.031 0.153-0.064 0.305-0.093 0.458-0.071 0.368-0.132 0.731 0.047 1.093 0.097 0.198 0.394 0.322 0.536 0.173 0.397-0.416 0.863-0.769 0.993-1.401 0.152-0.746 0.639-1.188 1.42-1.27 0.298-0.031 0.595-0.085 0.893-0.095 0.242-0.007 0.486 0.036 0.73 0.058 0.216 0.019 0.43 0.046 0.646 0.056 0.131 0.006 0.262-0.018 0.393-0.025 0.093-0.006 0.188-0.017 0.28-0.004 0.373 0.052 0.744 0.142 1.12 0.163 0.643 0.036 1.246 0.245 1.845 0.436 0.632 0.202 1.232 0.51 1.841 0.784 0.191 0.086 0.366 0.207 0.543 0.322 0.042 0.026 0.058 0.088 0.095 0.127 0.065 0.074 0.127 0.156 0.206 0.213 0.107 0.075 0.244 0.113 0.344 0.196 0.235 0.195 0.458 0.407 0.684 0.614 0.446 0.407 0.721 0.929 0.966 1.466 0.052 0.113 0.017 0.267 0.015 0.402-0.001 0.091-0.035 0.188-0.014 0.272 0.079 0.306 0.173 0.609 0.265 0.912 0.035 0.116 0.042 0.219-0.071 0.297-0.111 0.078-0.223 0.118-0.354 0.038-0.269-0.166-0.54-0.329-0.815-0.487-0.671-0.39-1.384-0.671-2.16-0.735-0.508-0.042-1.024-0.035-1.533-0.011-0.876 0.040-1.73 0.24-2.566 0.485-0.524 0.153-1.001 0.429-1.423 0.785-0.256 0.214-0.508 0.434-0.763 0.65-0.309 0.262-0.565 0.567-0.762 0.922-0.402 0.731-0.806 1.461-1.21 2.19-0.046 0.082-0.093 0.164-0.138 0.248-0.065 0.123-0.042 0.221 0.042 0.336 0.081 0.111 0.146 0.251 0.17 0.386 0.052 0.305 0.001 0.596-0.185 0.859-0.045 0.064-0.070 0.177-0.043 0.245 0.015 0.042 0.142 0.047 0.22 0.061 0.196 0.035 0.418 0.018 0.583 0.107 0.432 0.23 0.866 0.444 1.221 0.819 0.732 0.774 1.299 1.635 1.631 2.649 0.045 0.135 0.078 0.28 0.081 0.422 0.006 0.209-0.135 0.333-0.315 0.409-0.169 0.072-0.297 0.008-0.439-0.102-0.18-0.141-0.384-0.263-0.597-0.348-0.241-0.096-0.501-0.142-0.755-0.206-0.607-0.152-1.174-0.103-1.696 0.287-0.373 0.279-0.71 0.59-1 0.954-0.149 0.187-0.142 0.249-0.006 0.441 0.191 0.267 0.383 0.533 0.561 0.809 0.17 0.265 0.294 0.313 0.61 0.281 0.217-0.022 0.473-0.104 0.617 0.173 0.008 0.017 0.035 0.028 0.054 0.036 0.12 0.057 0.157 0.159 0.132 0.279-0.035 0.167-0.072 0.336-0.13 0.497-0.068 0.196-0.040 0.248 0.173 0.255 0.128 0.004 0.258-0.001 0.383 0.022 0.135 0.026 0.287 0.050 0.391 0.13 0.547 0.409 1.085 0.833 1.619 1.259 0.159 0.125 0.273 0.142 0.433 0.020 0.045-0.033 0.085-0.072 0.124-0.111 0.383-0.39 0.833-0.685 1.324-0.919 0.053-0.025 0.121-0.049 0.173-0.036 0.294 0.072 0.611 0.061 0.876 0.245 0.052 0.036 0.127 0.060 0.189 0.057 0.068-0.003 0.141-0.032 0.202-0.067 0.093-0.052 0.171-0.145 0.27-0.174 0.281-0.084 0.57-0.148 0.856-0.213 0.28-0.064 0.579-0.075 0.84-0.184 1.033-0.43 1.877-1.115 2.488-2.053 0.643-0.985 1.192-2.021 1.537-3.153 0.017-0.054 0.045-0.106 0.067-0.159 0.017 0 0.032-0.001 0.049-0.001 0.054 0.136 0.125 0.27 0.157 0.412 0.067 0.292 0.1 0.593 0.171 0.884 0.118 0.49 0.13 0.98 0.029 1.473-0.092 0.453-0.187 0.904-0.291 1.352-0.093 0.4-0.195 0.797-0.304 1.193-0.106 0.386-0.228 0.767-0.336 1.153-0.068 0.244-0.086 0.51-0.192 0.735-0.522 1.11-1.12 2.178-1.911 3.123-0.703 0.841-1.518 1.558-2.504 2.047-0.766 0.38-1.575 0.661-2.404 0.891-1.122 0.312-2.253 0.565-3.412 0.696-0.281 0.032-0.564 0.056-0.845 0.084-0.412 0-0.824 0-1.237 0-0.276-0.063-0.553-0.124-0.829-0.188-0.443-0.103-0.89-0.194-1.327-0.316-0.503-0.142-1.011-0.279-1.49-0.48-0.667-0.28-1.317-0.607-1.963-0.936-0.567-0.288-1.106-0.625-1.555-1.085-0.338-0.347-0.685-0.686-1.005-1.049-0.24-0.27-0.471-0.554-0.656-0.862-0.678-1.124-1.198-2.32-1.569-3.58-0.018-0.063-0.039-0.136-0.085-0.177-0.274-0.241-0.368-0.564-0.415-0.905-0.071-0.518-0.127-1.039-0.199-1.557-0.054-0.386-0.223-0.702-0.571-0.915-0.274-0.169-0.356-0.479-0.203-0.763 0.344-0.639 0.493-1.341 0.684-2.032 0.017-0.058 0.018-0.121 0.024-0.182 0.056-0.686 0.008-1.356-0.312-1.984-0.117-0.23-0.097-0.458 0.019-0.689 0.050-0.1 0.077-0.221 0.082-0.334 0.010-0.212 0.018-0.241 0.233-0.262 0.409-0.039 0.756-0.212 1.068-0.469 0.060-0.050 0.124-0.095 0.185-0.143 0.326-0.255 0.536-0.588 0.649-0.983 0.035-0.124-0.004-0.205-0.123-0.274-0.22-0.13-0.433-0.273-0.641-0.422-0.057-0.042-0.131-0.123-0.125-0.18 0.025-0.292-0.13-0.51-0.266-0.738-0.163-0.273-0.312-0.553-0.338-0.879-0.024-0.287-0.16-0.423-0.448-0.433-0.114-0.003-0.249-0.004-0.343 0.050-0.302 0.18-0.485-0.007-0.668-0.192-0.068-0.063-0.102-0.156-0.149-0.235zM14.018 22.294c-0.015 0.006-0.031 0.013-0.047 0.018-0.052-0.067-0.116-0.128-0.153-0.203-0.171-0.331-0.32-0.673-0.507-0.994-0.085-0.148-0.221-0.277-0.361-0.382-0.244-0.181-0.507-0.336-0.762-0.501-0.149-0.096-0.291-0.207-0.45-0.285-0.359-0.175-0.727-0.334-1.092-0.5-0.285-0.13-0.586-0.171-0.895-0.149-0.166 0.013-0.32 0.136-0.324 0.263-0.006 0.174 0.141 0.189 0.258 0.234 0.021 0.008 0.043 0.010 0.064 0.017 0.391 0.116 0.726 0.324 1.022 0.606 0.597 0.567 1.049 1.238 1.426 1.962 0.113 0.217 0.219 0.439 0.312 0.664 0.095 0.23-0.029 0.376-0.273 0.33-0.070-0.013-0.142-0.038-0.203-0.074-0.375-0.219-0.777-0.294-1.203-0.245-0.065 0.007-0.162 0.029-0.182 0.072-0.022 0.049 0.015 0.135 0.045 0.196 0.025 0.053 0.075 0.096 0.116 0.142 0.226 0.255 0.451 0.508 0.675 0.763 0.084 0.095 0.138 0.202 0.057 0.316-0.097 0.138-0.113 0.355-0.372 0.343-0.37-0.018-0.744-0.006-1.114-0.003-0.149 0.001-0.26 0.060-0.283 0.224-0.022 0.153 0.068 0.223 0.191 0.294 0.185 0.107 0.362 0.234 0.531 0.366 0.207 0.163 0.241 0.361 0.104 0.599-0.128 0.226-0.089 0.464 0.013 0.691 0.057 0.127 0.308 0.23 0.414 0.18 0.091-0.043 0.138-0.245 0.067-0.382-0.106-0.202-0.056-0.37 0.059-0.546 0.117-0.181 0.219-0.373 0.327-0.558 0.050-0.086 0.1-0.173 0.159-0.253 0.287-0.395 0.59-0.78 0.862-1.185 0.269-0.404 0.611-0.738 0.973-1.049 0.162-0.138 0.387-0.207 0.59-0.291 0.28-0.117 0.575-0.202 0.849-0.331 0.255-0.121 0.302-0.355 0.155-0.6-0.155-0.256-0.304-0.518-0.476-0.763-0.121-0.17-0.267-0.329-0.426-0.464-0.071-0.061-0.202-0.052-0.306-0.074-0.011 0.088-0.045 0.18-0.032 0.263 0.057 0.362 0.131 0.723 0.194 1.083 0.011 0.065 0.001 0.136 0.001 0.206zM11.285 13.276c-0.010 0.018-0.020 0.036-0.029 0.054 0.168 0.159 0.201 0.356 0.188 0.57-0.001 0.032 0.003 0.068 0.017 0.097 0.145 0.33 0.28 0.667 0.446 0.986 0.052 0.099 0.181 0.175 0.292 0.22 0.185 0.074 0.387 0.1 0.574 0.168 0.182 0.067 0.348 0.078 0.531-0.003 0.166-0.072 0.195-0.114 0.106-0.27-0.168-0.295-0.341-0.586-0.517-0.877-0.242-0.402-0.6-0.673-1.032-0.836-0.178-0.070-0.382-0.075-0.575-0.11zM15.189 18.25c-0.195 0.058-0.432 0.092-0.632 0.196-0.295 0.153-0.568 0.35-0.841 0.539-0.217 0.15-0.242 0.302-0.102 0.528 0.053 0.084 0.114 0.171 0.194 0.226 0.333 0.234 0.376 0.195 0.59-0.033 0.329-0.351 0.675-0.677 1.106-0.902 0.092-0.049 0.174-0.12 0.251-0.192 0.096-0.092 0.084-0.189-0.040-0.234-0.153-0.056-0.319-0.079-0.525-0.127zM10.721 24.692c0.071-0.081 0.113-0.128 0.156-0.174-0.052-0.045-0.099-0.107-0.159-0.127-0.026-0.008-0.114 0.072-0.114 0.113 0 0.052 0.061 0.103 0.117 0.188zM12.12 6.016c0 0.032 0.001 0.063 0.001 0.095 0.077 0.008 0.152 0.018 0.228 0.026-0.007-0.050-0.013-0.142-0.022-0.143-0.068-0.003-0.138 0.013-0.207 0.022z"></path>
</svg>
