<!-- Generated by IcoMoon.io -->
<svg version="1.1" xmlns="http://www.w3.org/2000/svg" width="32" height="32" viewBox="0 0 32 32">
<title>factions-order-idoneth-deepkin</title>
<path fill="#fff" d="M15.496 32c-0.043-0.095-0.113-0.188-0.122-0.288-0.108-1.179-0.259-2.355-0.245-3.542 0.011-0.878 0.033-1.757 0.025-2.634-0.008-0.867-0.048-1.733-0.076-2.6-0.001-0.048-0.014-0.115-0.047-0.137-0.363-0.264-0.724-0.53-1.206-0.528-0.306 0.001-0.543 0.118-0.72 0.374-0.296 0.429-0.361 0.895-0.244 1.394 0.271 1.145 0.545 2.289 0.815 3.434 0.023 0.095 0.017 0.197 0.024 0.295-0.021 0.007-0.041 0.014-0.062 0.021-0.045-0.045-0.098-0.084-0.133-0.135-0.228-0.337-0.459-0.674-0.674-1.020-0.095-0.152-0.173-0.32-0.227-0.49-0.2-0.63-0.388-1.265-0.577-1.898-0.123-0.416-0.279-0.83-0.344-1.257-0.057-0.375-0.054-0.774 0.003-1.149 0.149-0.986 1.189-1.546 2.108-1.177 0.387 0.156 0.783 0.288 1.194 0.436 0-0.078 0-0.128 0-0.179 0-1.071-0.001-2.142 0.003-3.213 0-0.132-0.025-0.186-0.171-0.198-2.134-0.187-4.103-0.854-5.879-2.059-1.058-0.717-1.92-1.621-2.515-2.76-0.096-0.184-0.147-0.405-0.169-0.615-0.129-1.288 0.196-2.469 0.881-3.556 0.384-0.608 0.751-1.225 1.241-1.761 0.907-0.992 2.046-1.585 3.304-1.996 0.618-0.201 1.252-0.245 1.89-0.299 0.976-0.084 1.947-0.041 2.914 0.093 0.028 0.004 0.058 0.003 0.084 0.011 0.689 0.224 1.381 0.432 2.061 0.677 0.39 0.14 0.704 0.404 0.944 0.749 0.222 0.322 0.452 0.638 0.679 0.956 0.167 0.235 0.205 0.503 0.16 0.779-0.106 0.652-0.401 1.199-0.929 1.605-0.078 0.059-0.181 0.084-0.271 0.129-0.093 0.047-0.183 0.099-0.275 0.15-0.009 0.006-0.013 0.025-0.020 0.027-0.326 0.040-0.555 0.346-0.907 0.322-0.326-0.021-0.659 0.007-0.976-0.051-0.371-0.068-0.728-0.207-1.091-0.316-0.027-0.008-0.061-0.011-0.078-0.030-0.048-0.051-0.089-0.108-0.132-0.163 0.055-0.040 0.105-0.101 0.166-0.116 0.483-0.12 0.97-0.225 1.452-0.347 0.8-0.201 1.455-0.64 1.998-1.254 0.383-0.432 0.34-0.847-0.129-1.183-0.588-0.419-1.259-0.635-1.964-0.755-0.64-0.111-1.278-0.116-1.925-0.013-0.619 0.099-1.251 0.119-1.876 0.184-0.953 0.098-1.871 0.322-2.727 0.769-0.33 0.173-0.674 0.322-1.007 0.489-0.707 0.356-1.265 0.877-1.648 1.57-0.268 0.485-0.531 0.975-0.757 1.48-0.439 0.98-0.224 1.846 0.595 2.543 0.194 0.166 0.395 0.324 0.577 0.503 0.517 0.507 1.184 0.766 1.796 1.115s1.278 0.55 1.962 0.686c0.854 0.171 1.707 0.36 2.57 0.466 0.545 0.068 1.111 0.033 1.662-0.013 2.61-0.217 4.906-1.227 6.969-2.808 0.604-0.462 1.074-1.054 1.529-1.656 0.116-0.153 0.231-0.31 0.36-0.452 0.079-0.085 0.187-0.145 0.281-0.215 0.017 0.013 0.034 0.025 0.051 0.038-0.020 0.096-0.031 0.196-0.059 0.29-0.171 0.585-0.506 1.089-0.854 1.575-0.424 0.591-0.85 1.183-1.421 1.655-0.638 0.527-1.245 1.088-1.874 1.625-0.227 0.194-0.485 0.332-0.803 0.312-0.050-0.003-0.13 0.081-0.154 0.142-0.048 0.118-0.118 0.19-0.242 0.21-0.028 0.004-0.064 0.003-0.081 0.020-0.424 0.407-0.973 0.56-1.512 0.697-0.667 0.17-1.354 0.264-2.034 0.377-0.167 0.028-0.227 0.081-0.224 0.258 0.020 1.002 0.027 2.005 0.038 3.008 0 0.061 0 0.122 0 0.22 0.221-0.132 0.425-0.239 0.613-0.37 0.435-0.3 0.867-0.286 1.303-0.016 0.477 0.298 0.724 0.747 0.834 1.286 0.081 0.394 0.081 0.775-0.021 1.173-0.098 0.381-0.103 0.783-0.163 1.174-0.188 1.235-0.577 2.407-1.125 3.526-0.030 0.061-0.052 0.129-0.093 0.18-0.034 0.043-0.092 0.068-0.139 0.101-0.018-0.050-0.054-0.101-0.051-0.149 0.007-0.129 0.020-0.261 0.048-0.387 0.282-1.298 0.472-2.608 0.51-3.936 0.009-0.273-0.031-0.553-0.086-0.822-0.052-0.254-0.252-0.384-0.513-0.383-0.405 0.003-0.727 0.197-0.999 0.476-0.045 0.047-0.051 0.146-0.054 0.221-0.023 0.633-0.021 1.269-0.068 1.901-0.037 0.502-0.123 1-0.208 1.496-0.162 0.939-0.227 1.886-0.269 2.836-0.037 0.83-0.147 1.658-0.235 2.485-0.014 0.129-0.086 0.251-0.132 0.375-0.038 0.006-0.072 0.006-0.106 0.006z"></path>
<path fill="#fff" d="M26.036 2.758c-0.055 0.062-0.103 0.135-0.166 0.187-0.561 0.468-1.129 0.928-1.686 1.4-0.22 0.186-0.419 0.397-0.629 0.595-0.098 0.093-0.115 0.194-0.065 0.322 0.462 1.203 0.361 2.359-0.167 3.536-0.442 0.986-1.123 1.801-1.71 2.683-0.465 0.697-1.111 1.234-1.869 1.592-0.262 0.123-0.497 0.269-0.744 0.412-0.608 0.351-1.293 0.475-1.982 0.605-0.911 0.171-1.767 0.051-2.642-0.198-1.031-0.293-2.016-0.684-2.934-1.225-0.747-0.439-1.18-1.125-1.312-1.988-0.052-0.34 0.034-0.655 0.238-0.931 0.428-0.577 0.996-0.924 1.716-0.973 0.574-0.040 1.152-0.129 1.727-0.001 0.069 0.016 0.127 0.082 0.191 0.126-0.059 0.061-0.108 0.154-0.179 0.176-0.384 0.115-0.783 0.187-1.16 0.319-0.381 0.135-0.751 0.307-1.111 0.494-0.16 0.084-0.293 0.231-0.418 0.368-0.244 0.268-0.221 0.545 0.086 0.745 0.312 0.203 0.638 0.391 0.978 0.54 0.9 0.394 1.849 0.643 2.802 0.86 0.764 0.174 1.536 0.088 2.295-0.061 1.395-0.273 2.69-0.796 3.75-1.76 0.541-0.492 1.007-1.072 1.463-1.648 0.588-0.74 0.445-1.529 0.076-2.319-0.316-0.677-0.805-1.177-1.422-1.599-1.067-0.73-2.237-1.122-3.505-1.272-0.871-0.102-1.741-0.221-2.615-0.29-0.402-0.031-0.816 0.011-1.218 0.071-0.9 0.135-1.796 0.302-2.693 0.458-0.095 0.017-0.19 0.040-0.278 0.075-0.952 0.392-1.897 0.803-2.763 1.37-0.735 0.482-1.282 1.149-1.816 1.826-0.067 0.085-0.169 0.142-0.255 0.213-0.018-0.013-0.038-0.024-0.057-0.037 0.004-0.074-0.004-0.153 0.017-0.221 0.081-0.254 0.159-0.509 0.262-0.752 0.075-0.174 0.171-0.347 0.29-0.493 0.547-0.66 1.227-1.172 1.901-1.69 0.103-0.079 0.203-0.164 0.31-0.237 0.129-0.088 0.145-0.18 0.028-0.286-0.288-0.264-0.571-0.533-0.868-0.786-0.306-0.261-0.629-0.502-0.939-0.757-0.051-0.042-0.075-0.116-0.112-0.176 0.061-0.035 0.122-0.099 0.184-0.102 0.218-0.007 0.443-0.023 0.656 0.018 0.611 0.119 1.223 0.249 1.711 0.684 0.092 0.082 0.146 0.156 0.146 0.283-0.001 0.232 0.065 0.305 0.293 0.286 0.177-0.014 0.36-0.048 0.524-0.113 0.499-0.198 0.99-0.418 1.485-0.628 0.221-0.094 0.228-0.118 0.072-0.288-0.31-0.339-0.615-0.683-0.935-1.010-0.205-0.21-0.441-0.39-0.656-0.589-0.102-0.095-0.203-0.198-0.281-0.313-0.092-0.139-0.006-0.286 0.152-0.255 0.595 0.119 1.214 0.17 1.711 0.587 0.299 0.251 0.616 0.48 0.927 0.717 0.106 0.081 0.139 0.163 0.062 0.289-0.079 0.132-0.040 0.23 0.105 0.302 0.252 0.127 0.517 0.149 0.793 0.092 0.785-0.159 1.574-0.288 2.377-0.213 0.901 0.084 1.801 0.191 2.666 0.482 0.215 0.072 0.452 0.103 0.68 0.116 0.208 0.013 0.312-0.132 0.237-0.322-0.065-0.166-0.017-0.279 0.085-0.401 0.418-0.499 0.785-1.043 1.316-1.438 0.041-0.030 0.079-0.067 0.126-0.082 0.105-0.037 0.17 0.003 0.157 0.119-0.007 0.067-0.031 0.132-0.054 0.196-0.249 0.691-0.5 1.383-0.749 2.074-0.086 0.241-0.075 0.275 0.15 0.385 0.591 0.286 1.123 0.657 1.607 1.099 0.147 0.135 0.31 0.194 0.513 0.162 0.205-0.033 0.329-0.139 0.364-0.344 0.044-0.254 0.196-0.407 0.433-0.497 0.513-0.194 1.019-0.409 1.536-0.592 0.187-0.067 0.398-0.071 0.598-0.088 0.058-0.004 0.122 0.045 0.183 0.071 0.007 0.018 0.007 0.030 0.007 0.041z"></path>
</svg>
