<!-- Generated by IcoMoon.io -->
<svg version="1.1" xmlns="http://www.w3.org/2000/svg" width="32" height="32" viewBox="0 0 32 32">
<title>factions-chaos-the-unmade</title>
<path fill="#fff" d="M16.22 32c-0.027-0.087-0.077-0.172-0.078-0.259-0.009-0.491-0.005-0.982-0.005-1.472 0-0.094 0.006-0.189 0.005-0.283-0.002-0.294-0.004-0.295-0.3-0.261-0.122 0.014-0.162-0.078-0.179-0.159-0.020-0.099-0.017-0.208 0.001-0.309 0.082-0.409 0.129-0.816 0.096-1.239-0.072-0.923-0.094-1.851-0.174-2.774-0.041-0.48-0.161-0.954-0.247-1.44-0.074 0.009-0.12 0.006-0.16 0.019-0.335 0.113-0.669 0.103-1.007 0.011-0.53-0.144-1.062-0.277-1.592-0.422-0.097-0.027-0.18-0.103-0.275-0.14-0.076-0.030-0.176-0.073-0.239-0.047-0.334 0.134-0.659 0.288-0.989 0.433-0.030 0.014-0.074 0.015-0.105 0.004-0.128-0.048-0.242-0.036-0.342 0.062-0.13 0.128-0.261 0.254-0.392 0.38-0.031 0.030-0.065 0.067-0.104 0.079-0.716 0.216-1.222 0.736-1.769 1.2-0.386 0.328-0.78 0.644-1.17 0.966-0.128 0.107-0.252 0.218-0.377 0.328-0.011-0.007-0.022-0.015-0.034-0.022 0.034-0.053 0.058-0.113 0.099-0.158 0.718-0.762 1.443-1.517 2.155-2.284 0.216-0.232 0.398-0.494 0.598-0.741 0.068-0.084 0.15-0.159 0.22-0.243 0.036-0.043 0.074-0.096 0.084-0.149 0.048-0.242 0.135-0.295 0.375-0.221 0.032 0.010 0.066 0.017 0.099 0.027 0.047-0.468-0.144-0.707-0.633-0.796-0.244-0.045-0.324-0.169-0.303-0.412 0.006-0.077-0.035-0.179-0.089-0.237-0.904-0.969-1.341-2.173-1.714-3.406-0.057-0.189-0.067-0.391-0.113-0.583-0.016-0.068-0.066-0.135-0.117-0.187-0.057-0.060-0.135-0.1-0.2-0.155-0.141-0.12-0.143-0.258 0.005-0.373 0.094-0.074 0.149-0.159 0.125-0.28-0.027-0.144-0.124-0.176-0.247-0.097-0.051 0.032-0.118 0.050-0.179 0.052-0.48 0.020-0.961 0.048-1.441 0.047-1.037-0.004-2.069-0.069-3.078-0.341-0.109-0.030-0.22-0.051-0.33-0.076-0.001-0.026-0.002-0.052-0.002-0.079 0.187-0.052 0.371-0.128 0.562-0.151 0.684-0.087 1.372-0.133 2.052-0.241 0.581-0.092 1.152-0.244 1.727-0.372 0.145-0.032 0.285-0.084 0.432-0.112 0.083-0.015 0.176-0.015 0.256 0.009 0.109 0.032 0.171 0.022 0.216-0.094 0.103-0.267 0.218-0.528 0.372-0.808 0.099 0.195 0.211 0.385 0.293 0.586 0.034 0.083 0.011 0.194 0.004 0.29-0.015 0.19-0.036 0.38-0.053 0.558 0.042 0.019 0.055 0.027 0.060 0.025 0.31-0.159 0.655-0.139 0.985-0.198 0.184-0.034 0.363-0.096 0.542-0.151 0.185-0.058 0.292-0.196 0.361-0.37 0.215-0.543 0.447-1.079 0.638-1.63 0.118-0.341 0.102-0.69-0.171-0.979-0.263-0.278-0.525-0.556-0.788-0.834-0.027-0.029-0.055-0.057-0.086-0.083-0.247-0.211-0.335-0.206-0.559 0.025-0.216 0.222-0.216 0.222-0.5 0.086-0.254-0.123-0.257-0.132-0.118-0.387 0.045-0.083 0.093-0.166 0.119-0.256 0.020-0.069 0.072-0.159-0.058-0.208-0.027-0.010-0.027-0.134-0.015-0.2 0.009-0.048 0.053-0.094 0.093-0.13 0.2-0.181 0.212-0.262 0.058-0.488-0.038-0.057-0.082-0.115-0.135-0.158-0.527-0.427-0.909-0.98-1.314-1.512-0.144-0.19-0.279-0.386-0.417-0.579-0.024-0.034-0.042-0.069-0.062-0.104 0.011-0.010 0.021-0.020 0.032-0.030 0.148 0.103 0.304 0.195 0.442 0.309 0.582 0.486 1.159 0.98 1.737 1.472 0.041 0.035 0.077 0.077 0.112 0.119 0.207 0.246 0.528 0.221 0.696-0.056 0.055-0.091 0.081-0.21 0.223-0.205 0.011 0 0.029-0.012 0.035-0.025 0.16-0.298 0.438-0.469 0.695-0.665 0.125-0.096 0.233-0.215 0.35-0.321 0.19-0.174 0.371-0.359 0.574-0.515 0.118-0.091 0.27-0.139 0.408-0.202 0.077-0.035 0.164-0.050 0.234-0.091 0.716-0.419 1.494-0.681 2.291-0.892 0.213-0.056 0.434-0.088 0.649-0.143 0.047-0.012 0.097-0.068 0.118-0.115 0.035-0.074 0.020-0.196 0.072-0.234 0.132-0.097 0.292-0.143 0.475-0.099 0 0.071-0.016 0.144 0.005 0.205 0.017 0.050 0.076 0.109 0.123 0.117 0.043 0.007 0.122-0.037 0.143-0.079 0.135-0.275 0.259-0.557 0.386-0.837 0.071-0.156 0.064-0.304-0.037-0.449-0.16-0.228-0.216-0.463-0.134-0.753 0.17-0.595 0.326-1.197 0.437-1.805 0.123-0.672 0.187-1.355 0.278-2.032 0.007-0.055 0.024-0.107 0.036-0.161 0.020-0.002 0.040-0.005 0.060-0.007 0.026 0.088 0.063 0.176 0.077 0.267 0.113 0.716 0.053 1.435 0.020 2.152-0.029 0.584-0.079 1.167-0.108 1.753-0.004 0.087 0.053 0.179 0.093 0.264 0.043 0.093 0.11 0.177 0.148 0.273 0.068 0.175 0.122 0.356 0.184 0.533 0.055 0.156 0.042 0.29-0.011 0.463-0.113 0.359-0.143 0.743-0.211 1.139 0.165-0.035 0.205-0.125 0.228-0.229 0.048-0.217 0.098-0.434 0.151-0.672 0.197 0.045 0.383 0.086 0.568 0.133 0.021 0.005 0.038 0.053 0.042 0.083 0.010 0.063 0.009 0.129 0.012 0.194 0.007 0.11 0.064 0.181 0.175 0.184 0.898 0.022 1.651 0.468 2.418 0.852 0.351 0.176 0.661 0.435 0.982 0.666 0.261 0.187 0.512 0.388 0.763 0.588 0.061 0.048 0.105 0.118 0.15 0.184 0.105 0.155 0.244 0.216 0.412 0.146 0.289-0.118 0.574-0.244 0.856-0.38 0.066-0.031 0.103-0.119 0.166-0.162 0.444-0.308 0.891-0.612 1.336-0.917 0.017-0.012 0.042-0.015 0.077 0.001-0.12 0.098-0.246 0.191-0.361 0.295-0.109 0.099-0.218 0.201-0.31 0.315-0.234 0.295-0.452 0.604-0.69 0.896-0.15 0.184-0.32 0.35-0.49 0.515-0.119 0.115-0.133 0.153-0.027 0.285 0.221 0.28 0.442 0.562 0.671 0.835 0.349 0.413 0.573 0.878 0.72 1.402 0.103 0.368 0.091 0.746 0.17 1.111 0.043 0.2 0.084 0.396 0.094 0.607 0.010 0.194 0.159 0.383 0.262 0.567 0.020 0.036 0.107 0.045 0.165 0.047 0.95 0.047 1.902 0.084 2.852 0.138 0.34 0.020 0.679 0.068 1.015 0.123 0.096 0.016 0.181 0.098 0.275 0.153-0.029 0.031-0.037 0.045-0.040 0.043-0.382-0.138-0.762-0.040-1.145 0.001-0.483 0.051-0.968 0.077-1.453 0.114-0.050 0.004-0.1 0.001-0.148 0.014-0.427 0.11-0.852 0.22-1.278 0.336-0.161 0.045-0.203 0.202-0.208 0.33-0.016 0.375-0.169 0.675-0.424 0.938-0.088 0.092-0.156 0.203-0.27 0.304 0-0.563 0-1.126 0-1.707-0.223 0.020-0.445 0.030-0.664 0.062-0.347 0.051-0.693 0.117-1.038 0.179-0.053 0.010-0.117 0.020-0.153 0.053-0.207 0.191-0.481 0.223-0.728 0.318-0.234 0.089-0.398 0.237-0.519 0.46-0.316 0.581-0.595 1.176-0.778 1.812-0.128 0.444-0.133 0.873 0.12 1.289 0.211 0.347 0.39 0.713 0.592 1.066 0.071 0.124 0.17 0.231 0.256 0.346 0.047 0.063 0.094 0.118 0.040 0.212-0.022 0.038 0.010 0.138 0.050 0.177 0.083 0.083 0.186 0.148 0.283 0.216 0.082 0.058 0.15 0.034 0.201-0.047 0.066-0.105 0.125-0.213 0.194-0.316 0.208-0.313 0.411-0.629 0.631-0.933 0.253-0.349 0.522-0.686 0.784-1.027 0.038-0.051 0.079-0.099 0.123-0.156 0.123 0.089 0.093 0.196 0.051 0.294-0.133 0.31-0.269 0.618-0.408 0.924-0.096 0.212-0.19 0.425-0.298 0.631-0.074 0.143-0.051 0.274 0.026 0.393 0.053 0.082 0.072 0.141 0.030 0.238-0.062 0.14 0 0.189 0.156 0.179 0.089-0.006 0.207 0.010 0.269 0.066 0.127 0.114 0.239 0.252 0.331 0.396 0.313 0.495 0.594 1.009 0.924 1.491 0.248 0.362 0.548 0.69 0.831 1.026 0.163 0.194 0.331 0.383 0.511 0.561 0.134 0.133 0.167 0.294 0.205 0.496-0.138-0.083-0.263-0.138-0.362-0.222-0.521-0.444-1.032-0.897-1.552-1.343-0.184-0.158-0.382-0.3-0.568-0.455-0.179-0.148-0.358-0.296-0.526-0.456-0.159-0.151-0.36-0.148-0.552-0.185-0.024-0.005-0.050-0.001-0.086-0.001 0-0.153-0.082-0.196-0.225-0.23-0.082-0.019-0.14-0.159-0.196-0.253-0.025-0.043-0.016-0.105-0.019-0.123-0.084-0.062-0.138-0.119-0.203-0.145-0.052-0.021-0.122-0.016-0.18-0.005-0.292 0.055-0.515 0.237-0.744 0.407-0.356 0.264-0.768 0.406-1.188 0.525-0.181-0.468 0.022-0.76 0.521-1.044 0.149-0.084 0.324-0.124 0.479-0.201 0.313-0.155 0.324-0.163 0.242-0.492-0.038-0.151-0.112-0.314-0.218-0.424-0.177-0.182-0.392-0.328-0.594-0.486-0.097-0.077-0.196-0.151-0.298-0.221-0.064-0.045-0.131-0.091-0.203-0.114-0.2-0.064-0.233-0.048-0.335 0.123-0.077-0.030-0.15-0.076-0.23-0.087-0.349-0.052-0.479 0.034-0.537 0.377-0.063 0.365-0.104 0.734-0.155 1.102-0.002 0.021-0.009 0.042-0.012 0.064-0.016 0.001-0.031 0.004-0.047 0.005-0.032-0.175-0.066-0.349-0.096-0.523-0.034-0.195-0.056-0.391-0.096-0.584-0.022-0.112-0.104-0.164-0.221-0.149-0.123 0.016-0.247 0.026-0.367 0.052-0.045 0.010-0.102 0.050-0.119 0.089-0.104 0.239-0.191 0.485-0.299 0.723-0.031 0.069-0.099 0.154-0.165 0.171-0.211 0.055-0.331 0.203-0.414 0.378-0.182 0.38-0.201 0.794-0.223 1.204-0.007 0.133 0.099 0.13 0.189 0.125 0.406-0.025 0.811-0.043 1.214-0.083 0.143-0.014 0.211 0.035 0.257 0.153-0.779 0.345-1.056 0.623-1.753 0.54-0.041 0.501-0.079 1.002-0.123 1.502-0.020 0.231-0.034 0.465-0.078 0.692-0.078 0.401-0.119 0.795-0.040 1.206 0.041 0.213-0.014 0.444-0.017 0.667-0.001 0.097 0.019 0.194 0.024 0.292 0.005 0.114 0.016 0.23 0.002 0.341-0.069 0.564-0.11 1.135-0.279 1.683-0.021 0.071-0.029 0.146-0.031 0.221-0.001 0.025 0.029 0.051 0.067 0.114-0.081 0.464-0.17 0.975-0.259 1.487-0.042 0.004-0.082 0.004-0.122 0.004zM21.61 11.368c-0.014-0.005-0.027-0.009-0.042-0.014-0.032-0.151-0.002-0.294 0.083-0.43 0.179-0.285 0.354-0.573 0.54-0.853 0.035-0.052 0.114-0.107 0.171-0.104 0.172 0.006 0.288-0.072 0.363-0.211 0.035-0.063 0.074-0.18 0.046-0.208-0.058-0.060-0.164-0.112-0.244-0.105-0.114 0.010-0.191-0.022-0.263-0.098-0.197-0.206-0.382-0.418-0.643-0.561-0.217-0.12-0.386-0.331-0.607-0.438-0.136-0.066-0.242-0.156-0.362-0.234-0.099-0.065-0.167-0.213-0.325-0.119-0.007 0.004-0.026-0.009-0.038-0.015-0.156-0.073-0.319-0.135-0.468-0.222-0.525-0.309-1.084-0.444-1.693-0.378-0.128 0.014-0.189 0.053-0.205 0.179-0.027 0.216-0.074 0.43-0.091 0.648-0.011 0.15-0.027 0.324 0.035 0.45 0.315 0.639 0.7 1.233 1.252 1.701 0.030 0.025 0.062 0.061 0.097 0.065 0.138 0.017 0.2 0.112 0.258 0.221 0.179 0.332 0.424 0.605 0.728 0.832 0.221 0.165 0.419 0.362 0.624 0.547 0.036 0.032 0.076 0.081 0.078 0.123 0.014 0.194 0.159 0.288 0.282 0.401 0.139 0.128 0.275 0.258 0.418 0.381 0.414 0.36 0.285 0.361 0.813 0.18 0.005-0.001 0.010-0.004 0.014-0.005 0.315-0.094 0.531 0.032 0.625 0.346 0.026 0.086 0.093 0.175 0.166 0.226 0.179 0.124 0.385 0.211 0.557 0.341 0.282 0.211 0.574 0.246 0.906 0.149 0.242-0.071 0.265-0.077 0.288-0.342-0.149 0-0.242-0.071-0.264-0.223-0.022-0.158-0.048-0.314-0.068-0.47-0.062-0.491-0.269-0.929-0.492-1.361-0.12-0.232-0.268-0.449-0.398-0.677-0.136-0.239-0.295-0.458-0.521-0.623-0.092-0.067-0.17-0.081-0.268-0.012-0.143 0.099-0.292 0.187-0.439 0.279-0.037 0.024-0.078 0.053-0.119 0.055-0.331 0.017-0.577 0.16-0.716 0.469-0.014 0.042-0.048 0.077-0.076 0.115zM14.712 9.887c0.047-0.012 0.096-0.020 0.141-0.037s0.097-0.035 0.124-0.068c0.298-0.377 0.66-0.684 1.039-0.974 0.177-0.135 0.207-0.279 0.133-0.486-0.128-0.354-0.254-0.708-0.371-1.066-0.038-0.118-0.103-0.18-0.222-0.174-0.222 0.011-0.453-0.005-0.664 0.052-0.914 0.247-1.789 0.582-2.611 1.074-0.552 0.331-1.068 0.698-1.564 1.102-0.053 0.043-0.109 0.109-0.119 0.172-0.016 0.094-0.061 0.113-0.141 0.136-0.104 0.031-0.233 0.068-0.292 0.146-0.15 0.201-0.27 0.424-0.398 0.641-0.082 0.138-0.050 0.191 0.114 0.212 0.118 0.015 0.237 0.029 0.352 0.051 0.569 0.112 1.137 0.238 1.722 0.22 0.543-0.017 1.085-0.063 1.588-0.094 0.078-0.072 0.135-0.164 0.191-0.164 0.087 0.001 0.187 0.048 0.254 0.107 0.076 0.066 0.139 0.16 0.177 0.254 0.074 0.186 0.221 0.233 0.43 0.254 0.038-0.452 0.077-0.903 0.115-1.36zM11.299 20.143c0.215 0.113 0.257 0.092 0.301-0.117 0.012-0.058 0.016-0.118 0.029-0.176 0.009-0.037 0.016-0.084 0.042-0.105 0.104-0.084 0.086-0.177 0.038-0.28-0.13-0.284-0.263-0.566-0.385-0.852-0.089-0.207-0.223-0.371-0.407-0.5-0.368-0.259-0.749-0.504-1.097-0.789-0.44-0.363-0.959-0.593-1.436-0.892-0.088-0.055-0.203-0.079-0.309-0.089-0.135-0.012-0.241 0.153-0.161 0.247 0.231 0.272 0.277 0.618 0.407 0.93 0.315 0.758 0.652 1.507 1.007 2.248 0.265 0.552 0.65 1.030 1.035 1.503 0.191 0.237 0.326 0.495 0.316 0.813-0.001 0.051 0.046 0.104 0.092 0.198 0.048-0.103 0.089-0.156 0.098-0.216 0.047-0.31 0.166-0.588 0.34-0.849 0.099-0.15 0.124-0.31 0.096-0.495-0.029-0.181-0.006-0.371-0.006-0.579zM18.456 14.123c-0.22 0.189-0.442 0.378-0.662 0.569-0.077 0.066-0.196 0.129-0.136 0.249 0.058 0.12 0.186 0.056 0.28 0.043 0.181-0.022 0.357-0.058 0.542 0.005 0.074 0.025 0.177-0.001 0.258-0.031 0.402-0.146 0.739-0.371 0.92-0.783 0.041-0.094 0.109-0.177 0.166-0.263 0.088-0.132 0.181-0.261 0.269-0.392 0.103-0.153 0.089-0.186-0.086-0.223-0.043-0.009-0.088-0.016-0.13-0.027-0.163-0.041-0.304-0.022-0.447 0.083-0.074 0.056-0.194 0.058-0.294 0.071-0.071 0.009-0.145-0.005-0.232-0.009 0.035 0.094 0.063 0.171 0.107 0.287-0.104 0-0.186-0.002-0.268 0.001-0.067 0.004-0.14 0-0.198 0.026-0.129 0.058-0.155 0.197-0.089 0.393zM18.695 17.135c-0.051-0.174-0.154-0.288-0.315-0.355-0.118-0.048-0.257-0.082-0.345-0.166-0.334-0.318-0.655-0.65-0.835-1.088-0.020-0.048-0.093-0.114-0.134-0.109-0.098 0.012-0.093 0.104-0.068 0.177 0.097 0.28 0.184 0.566 0.303 0.837 0.143 0.325 0.38 0.553 0.754 0.599 0.043 0.005 0.094 0.015 0.125 0.042 0.156 0.136 0.328 0.105 0.515 0.062zM15.163 16.096c-0.001-0.019-0.004-0.038-0.005-0.057-0.226-0.108-0.449-0.22-0.677-0.321-0.056-0.025-0.129-0.037-0.189-0.025-0.372 0.077-0.744 0.159-1.114 0.248-0.038 0.009-0.062 0.079-0.092 0.122 0.047 0.024 0.092 0.055 0.141 0.068 0.030 0.007 0.066-0.015 0.1-0.020 0.211-0.034 0.422-0.040 0.581 0.134 0.132 0.144 0.282 0.161 0.458 0.113s0.357-0.077 0.531-0.128c0.094-0.031 0.177-0.089 0.265-0.134zM12.646 19.53c-0.016-0.051-0.025-0.118-0.056-0.171-0.162-0.277-0.331-0.55-0.495-0.826-0.067-0.112-0.16-0.115-0.226-0.025-0.051 0.071-0.096 0.194-0.068 0.264 0.134 0.35 0.288 0.692 0.448 1.032 0.019 0.040 0.124 0.078 0.164 0.061 0.134-0.058 0.207-0.175 0.233-0.335zM21.699 16.129c-0.016-0.010-0.031-0.020-0.047-0.029-0.027 0.010-0.058 0.015-0.079 0.031-0.191 0.149-0.385 0.295-0.568 0.455-0.040 0.035-0.048 0.114-0.055 0.175-0.010 0.097 0.004 0.196-0.007 0.292-0.029 0.241-0.067 0.481-0.097 0.722-0.005 0.045 0.014 0.093 0.021 0.139 0.011-0.001 0.021-0.002 0.032-0.004 0.267-0.593 0.533-1.187 0.8-1.781zM17.523 18.503c-0.108-0.268-0.314-0.34-0.558-0.399-0.241-0.060-0.444-0.020-0.654 0.128 0.007 0.067 0.007 0.172 0.035 0.272 0.041 0.149 0.154 0.225 0.306 0.243s0.19-0.094 0.231-0.203c0.006-0.017 0.019-0.034 0.022-0.040 0.205 0 0.401 0 0.618 0zM14.691 22.859c0.010-0.012 0.020-0.026 0.030-0.038-0.092-0.113-0.18-0.23-0.275-0.339-0.1-0.114-0.227-0.155-0.376-0.1-0.251 0.092-0.502 0.182-0.751 0.279-0.045 0.017-0.077 0.066-0.114 0.1 0.050 0.032 0.099 0.092 0.15 0.093 0.444 0.009 0.891 0.005 1.336 0.005zM18.728 17.688c-0.072 0-0.122 0.001-0.172 0-0.035-0.001-0.076 0.002-0.1-0.015-0.079-0.052-0.146-0.034-0.194 0.035-0.118 0.17-0.234 0.341-0.339 0.52-0.038 0.066-0.037 0.154-0.056 0.242 0.221-0.048 0.755-0.532 0.861-0.782zM18.707 10.513c-0.038-0.239-0.448-0.839-0.595-0.867 0.077 0.3 0.153 0.593 0.23 0.893 0.128-0.010 0.241-0.017 0.366-0.026zM20.587 18.178c0.015-0.012 0.029-0.025 0.043-0.036 0.007-0.372 0.155-0.757-0.114-1.125-0.022 0.051-0.047 0.082-0.047 0.113-0.001 0.311-0.002 0.623 0.009 0.933 0.002 0.038 0.072 0.076 0.109 0.115zM17.43 10.789c0-0.179 0-0.347 0-0.53-0.1 0.038-0.19 0.068-0.274 0.104-0.078 0.034-0.185 0.047-0.167 0.171 0.017 0.125 0.087 0.208 0.216 0.229 0.073 0.014 0.148 0.016 0.226 0.025zM11.037 23.198c0.010 0.012 0.021 0.025 0.031 0.036 0.091-0.034 0.185-0.058 0.268-0.104 0.036-0.020 0.078-0.097 0.065-0.122-0.040-0.078-0.104-0.144-0.164-0.21-0.002-0.002-0.061 0.030-0.072 0.055-0.046 0.113-0.086 0.23-0.128 0.345zM17.616 11.713c-0.114 0.156-0.311 0.253-0.335 0.481 0.285 0 0.409-0.172 0.335-0.481zM16.568 7.637c0.063 0.222 0.114 0.398 0.167 0.584 0.105-0.069 0.177-0.143 0.14-0.264-0.041-0.138-0.117-0.252-0.308-0.32zM17.236 12.384c-0.411 0.195-0.437 0.225-0.34 0.388 0.189-0.053 0.293-0.179 0.34-0.388zM13.267 15.583c0.011 0.009 0.022 0.016 0.034 0.025 0.134-0.045 0.269-0.086 0.399-0.138 0.026-0.011 0.050-0.072 0.043-0.104-0.004-0.021-0.069-0.052-0.096-0.043-0.102 0.034-0.203 0.072-0.295 0.127-0.042 0.024-0.058 0.088-0.086 0.134z"></path>
</svg>
