<!-- Generated by IcoMoon.io -->
<svg version="1.1" xmlns="http://www.w3.org/2000/svg" width="32" height="32" viewBox="0 0 32 32">
<title>factions-death-legions-of-nagash</title>
<path fill="#fff" d="M14.507 31.997c-0.154-0.032-0.307-0.067-0.463-0.095-0.094-0.017-0.19-0.015-0.282-0.031-0.169-0.029-0.205-0.098-0.166-0.274 0.031-0.141 0.057-0.283 0.077-0.426 0.015-0.11-0.042-0.194-0.151-0.205-0.18-0.018-0.24-0.117-0.218-0.296-0.056-0.004-0.102-0.008-0.158-0.013-0.013 0.057-0.029 0.105-0.031 0.154-0.001 0.108-0.061 0.138-0.159 0.151-0.363 0.045-0.423 0.018-0.395-0.346 0.025-0.352 0.119-0.701 0.188-1.048 0.035-0.174 0.107-0.345 0.123-0.519 0.027-0.313 0.239-0.48 0.472-0.611 0.13-0.073 0.317-0.112 0.461-0.080 0.399 0.087 0.794 0.105 1.195 0.039 0.292-0.047 0.581-0.11 0.874-0.141 0.215-0.022 0.434-0.013 0.65-0.001 0.047 0.003 0.109 0.068 0.134 0.12 0.117 0.239 0.121 0.494 0.094 0.754-0.054 0.515-0.106 1.032-0.169 1.545-0.011 0.089-0.054 0.226-0.114 0.247-0.119 0.040-0.251 0.004-0.324-0.135-0.053-0.103-0.113-0.103-0.186-0.004-0.029 0.040-0.102 0.082-0.147 0.074-0.145-0.025-0.288-0.067-0.427-0.114-0.085-0.029-0.116 0-0.174 0.063-0.197 0.211-0.188 0.455-0.173 0.713 0.013 0.187-0.075 0.332-0.258 0.409-0.039 0.017-0.070 0.049-0.105 0.074-0.056-0.003-0.112-0.003-0.168-0.003z"></path>
<path fill="#fff" d="M0.873 16.822c0.021-0.050 0.052-0.098 0.060-0.151 0.018-0.11 0.038-0.215 0.179-0.222 0.135-0.007 0.232 0.056 0.255 0.19 0.027 0.156 0.117 0.169 0.269 0.127-0.027-0.212-0.040-0.427-0.080-0.637-0.084-0.443 0.103-0.69 0.549-0.681 0.579 0.013 1.159 0.038 1.738 0.063 0.225 0.010 0.283 0.11 0.193 0.321-0.068 0.158-0.142 0.314-0.218 0.469-0.063 0.127-0.077 0.247-0.017 0.384 0.043 0.099 0.032 0.223 0.082 0.318 0.040 0.077 0.126 0.155 0.207 0.18 0.145 0.042 0.233 0.12 0.279 0.257 0.123 0.36 0.017 0.599-0.345 0.691-0.583 0.148-1.161 0.303-1.721 0.528-0.262 0.106-0.431-0.007-0.511-0.283-0.050-0.174-0.113-0.345-0.17-0.516-0.183 0.020-0.236 0.137-0.24 0.258-0.007 0.181-0.095 0.227-0.257 0.218-0.173-0.010-0.188-0.12-0.19-0.254-0.004-0.212-0.013-0.424-0.024-0.635-0.003-0.053-0.024-0.105-0.038-0.158-0.001-0.154-0.001-0.31-0.001-0.466zM3.441 15.583c-0.027 0-0.052-0.001-0.078-0.001-0.021 0.075-0.042 0.152-0.063 0.227 0.061-0.001 0.124-0.003 0.186-0.004-0.015-0.075-0.029-0.148-0.045-0.222z"></path>
<path fill="#fff" d="M31.123 15.348c-0.194 0.011-0.389 0.017-0.582 0.039-0.043 0.006-0.092 0.067-0.114 0.113-0.028 0.059-0.024 0.131-0.043 0.194-0.039 0.127-0.078 0.174-0.255 0.147-0.436-0.071-0.884-0.074-1.326-0.102-0.060-0.004-0.121 0.011-0.183 0.013-0.258 0.001-0.399-0.145-0.334-0.394 0.080-0.308 0.042-0.607 0-0.911-0.029-0.207 0.040-0.318 0.223-0.416 0.293-0.156 0.592-0.283 0.928-0.299 0.057-0.003 0.134 0.001 0.17 0.035 0.12 0.113 0.246 0.091 0.373 0.038 0.331-0.137 0.544-0.003 0.581 0.368 0.004 0.049 0.006 0.099 0.008 0.159 0.049 0.003 0.091 0.006 0.134 0.007 0.219 0.004 0.328 0.101 0.356 0.315 0.022 0.165 0.045 0.329 0.068 0.494-0.004 0.066-0.004 0.133-0.004 0.2z"></path>
<path fill="#fff" d="M16.214 0c0.66 0.694 1.42 1.252 2.027 1.975 0.367 0.437 0.833 0.79 1.237 1.199 0.772 0.782 1.533 1.576 2.298 2.365 0.101 0.105 0.205 0.205 0.302 0.314 0.176 0.198 0.186 0.346 0.022 0.553-0.339 0.43-0.515 0.911-0.535 1.464-0.042 1.193-0.088 2.385-0.159 3.578-0.057 0.952-0.152 1.901-0.237 2.852-0.008 0.096-0.067 0.187-0.099 0.281-0.024 0.071-0.031 0.152-0.067 0.216-0.040 0.071-0.094 0.154-0.162 0.187-0.536 0.261-1.079 0.508-1.616 0.765-0.205 0.099-0.403 0.214-0.606 0.318-0.181 0.095-0.272 0.052-0.268-0.152 0.015-0.886 0.018-1.774 0.067-2.659 0.038-0.662 0.109-1.325 0.226-1.977 0.063-0.353 0.028-0.63-0.187-0.917-0.36-0.482-0.694-0.984-1.036-1.48-0.255-0.371-0.505-0.747-0.759-1.119-0.040-0.059-0.085-0.12-0.141-0.163-0.177-0.141-0.286-0.121-0.395 0.074-0.701 1.256-1.4 2.513-2.097 3.772-0.036 0.064-0.053 0.147-0.057 0.222-0.042 0.814-0.089 1.628-0.114 2.441-0.010 0.304 0.045 0.61 0.053 0.914 0.008 0.295 0.013 0.592-0.114 0.871-0.099 0.219-0.235 0.276-0.454 0.172-0.126-0.060-0.244-0.135-0.373-0.19-0.42-0.176-0.842-0.352-1.267-0.514-0.116-0.045-0.251-0.050-0.377-0.053-0.225-0.004-0.353-0.116-0.368-0.342-0.001-0.022-0.001-0.045-0.001-0.067-0.020-1.305-0.021-2.612-0.067-3.915-0.027-0.745-0.109-1.489-0.198-2.231-0.068-0.575-0.191-1.142-0.282-1.714-0.073-0.452-0.296-0.838-0.522-1.223-0.152-0.258-0.149-0.339 0.080-0.526 0.871-0.715 1.746-1.424 2.621-2.134 1.015-0.824 1.964-1.721 2.909-2.623 0.207-0.202 0.468-0.35 0.719-0.533zM19.374 14.982c0.227 0.003 0.2-0.205 0.288-0.325-0.236-0.039-0.355 0.101-0.288 0.325zM21.503 6.383c0.066-0.085 0.123-0.133 0.138-0.19 0.008-0.032-0.052-0.082-0.081-0.124-0.047 0.053-0.103 0.102-0.137 0.163-0.011 0.021 0.036 0.073 0.080 0.151zM15.566 5.377c0.059-0.056 0.117-0.113 0.176-0.169-0.038-0.034-0.080-0.098-0.113-0.094-0.124 0.017-0.133 0.11-0.063 0.262z"></path>
<path fill="#fff" d="M8.183 17.666c-0.031-0.41-0.061-0.856-0.099-1.3-0.061-0.734-0.137-1.467-0.188-2.201-0.042-0.59-0.042-1.182-0.089-1.771-0.059-0.712-0.14-1.421-0.226-2.13-0.036-0.3 0.011-0.567 0.208-0.798 0.484-0.569 0.969-1.14 1.46-1.704 0.050-0.059 0.179-0.124 0.218-0.099 0.067 0.040 0.117 0.147 0.128 0.232 0.202 1.682 0.161 3.377 0.264 5.063 0.017 0.283 0.081 0.564 0.092 0.847 0.017 0.445 0.007 0.892 0.008 1.339 0.001 0.223 0.008 0.311 0.278 0.389 0.678 0.198 1.341 0.447 2.014 0.667 0.677 0.222 1.357 0.434 2.071 0.663 0.017-0.186 0.045-0.366 0.049-0.546 0.013-0.72 0.008-1.441 0.025-2.159 0.015-0.624 0.078-1.248 0.066-1.872-0.007-0.374 0.141-0.664 0.311-0.965 0.514-0.907 1.026-1.815 1.538-2.722 0.028-0.049 0.059-0.094 0.095-0.152 0.223 0.101 0.399 0.244 0.514 0.459 0.283 0.532 0.581 1.055 0.842 1.598 0.151 0.314 0.265 0.652 0.348 0.99 0.049 0.204 0.040 0.437-0.004 0.643-0.095 0.44-0.142 0.878-0.138 1.327 0.007 0.709 0.007 1.418-0.006 2.127-0.006 0.317-0.057 0.632-0.082 0.948-0.017 0.215-0.027 0.431-0.040 0.674 0.088-0.011 0.148-0.007 0.2-0.028 1.234-0.487 2.464-0.984 3.7-1.46 0.274-0.105 0.364-0.26 0.37-0.544 0.038-1.809 0.087-3.617 0.141-5.424 0.021-0.692 0.060-1.383 0.096-2.074 0.013-0.233 0.116-0.335 0.321-0.307 0.068 0.010 0.152 0.066 0.19 0.126 0.434 0.697 0.906 1.365 1.452 1.978 0.094 0.105 0.135 0.212 0.124 0.349-0.036 0.422-0.049 0.846-0.108 1.265-0.133 0.958-0.043 1.918-0.071 2.875-0.024 0.826-0.015 1.654-0.080 2.476-0.020 0.261-0.084 0.581-0.387 0.738-0.306 0.159-0.595 0.35-0.907 0.494-0.729 0.335-1.461 0.663-2.204 0.967-0.685 0.281-1.387 0.519-2.077 0.787-0.275 0.106-0.532 0.258-0.805 0.366-0.419 0.166-0.843 0.32-1.272 0.459-0.102 0.034-0.239 0.014-0.343-0.025-0.772-0.29-1.551-0.567-2.306-0.896-1.139-0.495-2.327-0.828-3.518-1.157-0.413-0.114-0.839-0.184-1.259-0.268-0.087-0.018-0.177-0.010-0.267-0.020-0.060-0.006-0.123-0.011-0.179-0.032-0.145-0.053-0.288-0.117-0.468-0.193z"></path>
<path fill="#fff" d="M16.849 26.428c-0.109 0-0.202 0-0.318 0 0.022-0.349 0.046-0.691 0.067-1.033 0.007-0.117 0.014-0.235 0.007-0.35-0.003-0.040-0.052-0.113-0.070-0.11-0.047 0.007-0.11 0.039-0.128 0.078-0.031 0.068-0.042 0.149-0.046 0.226-0.020 0.3-0.025 0.603-0.053 0.903-0.008 0.092-0.050 0.198-0.112 0.262-0.046 0.047-0.16 0.067-0.226 0.045-0.047-0.015-0.088-0.12-0.091-0.186-0.008-0.341 0-0.681-0.008-1.022-0.001-0.063-0.040-0.174-0.075-0.179-0.121-0.018-0.159 0.080-0.161 0.184-0.004 0.24-0.003 0.48-0.004 0.72-0.001 0.128 0 0.257-0.004 0.385-0.003 0.116-0.036 0.212-0.176 0.219-0.142 0.006-0.289 0.013-0.35-0.155-0.021-0.056-0.027-0.12-0.027-0.18-0.003-0.318 0.001-0.637-0.003-0.955-0.003-0.227-0.066-0.269-0.269-0.211 0.010 0.434 0.018 0.861 0.027 1.288 0.001 0.056 0.017 0.121-0.007 0.165-0.035 0.066-0.098 0.116-0.149 0.172-0.045-0.049-0.116-0.091-0.128-0.147-0.087-0.38-0.158-0.764-0.241-1.145-0.021-0.095-0.060-0.191-0.113-0.271-0.031-0.046-0.107-0.061-0.163-0.091-0.020 0.059-0.060 0.12-0.053 0.176 0.015 0.144 0.047 0.286 0.080 0.427 0.085 0.369 0.173 0.737 0.26 1.105 0.006 0.025 0.001 0.052 0.001 0.101-0.216-0.155-0.355-0.35-0.429-0.576-0.128-0.396-0.233-0.8-0.349-1.2-0.035-0.121-0.017-0.226 0.070-0.325 0.11-0.127 0.141-0.276 0.088-0.438-0.119-0.36-0.227-0.723-0.362-1.078-0.060-0.158-0.168-0.297-0.253-0.445-0.060-0.103-0.119-0.209-0.181-0.311-0.028-0.047-0.054-0.099-0.096-0.133-0.227-0.188-0.63-0.179-0.849 0.015-0.155 0.137-0.353 0.151-0.501 0.011-0.324-0.307-0.642-0.62-0.952-0.941-0.060-0.063-0.092-0.177-0.091-0.268 0.003-0.329 0.013-0.659 0.045-0.987 0.032-0.321 0.096-0.638 0.144-0.958 0.017-0.116 0.020-0.235 0.040-0.349 0.039-0.202 0.179-0.283 0.37-0.207 0.261 0.105 0.544 0.17 0.751 0.385-0.008 0.021-0.010 0.040-0.020 0.050-0.366 0.378-0.385 0.893-0.032 1.287 0.078 0.087 0.191 0.166 0.302 0.195 0.43 0.116 0.861 0.23 1.3 0.307 0.334 0.060 0.676 0.073 1.015 0.089 0.304 0.015 0.537-0.173 0.765-0.338 0.061-0.043 0.045-0.195 0.064-0.297 0.29-0.018 0.56 0.063 0.831 0.177 0.123 0.052 0.283 0.053 0.42 0.031 0.197-0.034 0.385-0.112 0.578-0.168 0.202-0.059 0.286-0.020 0.371 0.169 0.126 0.275 0.324 0.357 0.614 0.258 0.046-0.015 0.099-0.035 0.145-0.029 0.596 0.064 1.161-0.112 1.736-0.214 0.225-0.040 0.451-0.080 0.671-0.137 0.067-0.017 0.145-0.084 0.172-0.147 0.131-0.308 0.158-0.637 0.148-0.969-0.001-0.043-0.007-0.096-0.034-0.126-0.114-0.134-0.050-0.204 0.078-0.264 0.251-0.119 0.5-0.243 0.751-0.36 0.102-0.046 0.172-0.011 0.193 0.121-0.163 0.042-0.169 0.179-0.169 0.315 0.001 0.639-0.092 1.266-0.212 1.893-0.050 0.264-0.173 0.426-0.422 0.528-0.131 0.054-0.244 0.172-0.345 0.281-0.128 0.138-0.237 0.296-0.353 0.445-0.194 0.248-0.427 0.283-0.683 0.096-0.108-0.080-0.208-0.168-0.31-0.255-0.133-0.113-0.254-0.098-0.412-0.025-0.68 0.31-0.899 0.918-1.058 1.572-0.045 0.184-0.084 0.369-0.13 0.551-0.029 0.114-0.010 0.205 0.119 0.229 0.215 0.040 0.223 0.218 0.133 0.359-0.174 0.275-0.275 0.564-0.285 0.893-0.007 0.225-0.066 0.447-0.106 0.67-0.054 0.311-0.302 0.461-0.556 0.618 0.018-0.101 0.038-0.2 0.052-0.302 0.035-0.241 0.066-0.484 0.099-0.727 0.038-0.275 0.082-0.55 0.11-0.826 0.007-0.067-0.025-0.177-0.073-0.201-0.099-0.050-0.131 0.052-0.145 0.128-0.068 0.395-0.133 0.79-0.197 1.186-0.015 0.098-0.022 0.197-0.036 0.313zM16.655 23.014c0.007-0.169 0.021-0.295 0.017-0.42-0.011-0.339-0.032-0.678-0.047-1.018-0.008-0.186-0.191-0.371-0.406-0.405-0.209-0.032-0.402 0.075-0.465 0.268-0.034 0.106-0.047 0.218-0.078 0.324-0.074 0.261-0.145 0.525-0.233 0.782-0.031 0.088-0.163 0.17-0.151 0.237 0.015 0.081 0.135 0.142 0.207 0.215 0.158 0.156 0.215 0.159 0.385-0.003 0.128-0.123 0.267-0.142 0.429-0.078 0.099 0.038 0.201 0.057 0.343 0.098zM14.293 23.233c-0.022-0.133-0.025-0.223-0.054-0.304-0.014-0.038-0.085-0.087-0.117-0.078-0.038 0.011-0.082 0.074-0.085 0.117-0.006 0.075 0.010 0.156 0.032 0.229 0.027 0.082-0.032 0.235 0.124 0.219 0.045-0.004 0.077-0.137 0.101-0.183z"></path>
<path fill="#fff" d="M6.073 27.283c-0.177-0.274-0.339-0.525-0.53-0.819 0.035-0.053 0.088-0.163 0.168-0.248 0.521-0.553 1.046-1.1 1.57-1.646 0.243-0.253 0.65-0.223 0.835 0.073 0.098 0.156 0.147 0.342 0.221 0.514 0.017 0.039 0.036 0.080 0.064 0.11 0.070 0.080 0.151 0.149 0.215 0.233 0.128 0.168 0.279 0.237 0.501 0.229 0.385-0.015 0.639 0.429 0.445 0.764-0.109 0.187-0.184 0.412-0.424 0.494-0.042 0.014-0.075 0.067-0.101 0.109-0.267 0.442-0.532 0.888-0.797 1.33-0.054 0.091-0.103 0.186-0.169 0.268-0.095 0.12-0.215 0.134-0.335 0.038-0.165-0.133-0.321-0.276-0.483-0.413-0.211-0.176-0.313-0.154-0.405 0.101-0.047 0.13-0.127 0.208-0.261 0.226-0.138 0.018-0.243-0.038-0.334-0.148-0.194-0.235-0.395-0.465-0.602-0.687-0.105-0.113-0.11-0.239-0.085-0.373 0.006-0.027 0.061-0.053 0.099-0.063 0.12-0.032 0.24-0.054 0.408-0.091z"></path>
<path fill="#fff" d="M3.664 24.145c-0.036-0.226-0.138-0.382-0.283-0.508-0.117-0.101-0.123-0.211-0.074-0.345 0.070-0.193 0.19-0.346 0.367-0.441 0.575-0.308 1.083-0.704 1.552-1.154 0.094-0.089 0.187-0.101 0.304-0.054 0.29 0.114 0.424 0.332 0.385 0.643-0.025 0.207 0.169 0.602 0.349 0.704 0.024 0.014 0.053 0.021 0.080 0.022 0.431 0.027 0.61 0.352 0.779 0.674 0.081 0.155 0.024 0.345-0.152 0.431-0.528 0.258-0.821 0.759-1.231 1.138-0.215 0.198-0.468 0.356-0.709 0.525-0.029 0.021-0.095 0.008-0.137-0.007-0.251-0.087-0.343-0.317-0.473-0.518-0.036-0.056-0.105-0.092-0.158-0.137-0.038 0.075-0.092 0.145-0.11 0.225-0.025 0.108-0.015 0.225-0.039 0.332-0.008 0.036-0.067 0.077-0.11 0.089-0.057 0.015-0.123-0.001-0.183 0.007-0.119 0.018-0.173-0.031-0.191-0.147-0.024-0.151-0.059-0.285-0.25-0.324-0.067-0.014-0.141-0.126-0.162-0.205-0.064-0.244-0.16-0.462-0.36-0.625-0.1-0.082-0.106-0.165-0.014-0.268 0.187-0.212 0.314-0.246 0.574-0.135 0.073 0.035 0.152 0.050 0.247 0.078z"></path>
<path fill="#fff" d="M10.273 30.057c-0.068 0.155-0.038 0.257 0.095 0.328 0.121 0.066 0.218 0.144 0.138 0.304-0.105 0.211-0.248 0.303-0.42 0.235-0.243-0.096-0.479-0.212-0.719-0.318-0.087-0.038-0.174-0.070-0.267-0.108-0.057-0.264 0.054-0.417 0.327-0.408 0.174 0.007 0.2-0.12 0.236-0.232 0.038-0.117-0.064-0.154-0.147-0.184-0.198-0.075-0.398-0.142-0.596-0.219-0.226-0.088-0.297-0.289-0.172-0.498 0.117-0.195 0.244-0.387 0.367-0.579 0.011-0.018 0.025-0.049 0.040-0.050 0.229-0.034 0.251-0.233 0.338-0.392 0.126-0.233 0.282-0.449 0.424-0.674 0.027-0.042 0.059-0.084 0.074-0.13 0.061-0.177 0.193-0.281 0.355-0.359 0.198-0.096 0.267-0.091 0.408 0.080 0.172 0.208 0.345 0.42 0.607 0.511 0.198 0.068 0.408 0.112 0.616 0.14 0.253 0.035 0.468 0.215 0.53 0.462 0.067 0.264 0.043 0.514-0.039 0.772-0.126 0.398-0.232 0.803-0.341 1.205-0.067 0.247-0.151 0.48-0.37 0.637-0.235 0.168-0.382 0.131-0.596-0.057-0.149-0.133-0.348-0.214-0.529-0.308-0.113-0.060-0.235-0.102-0.36-0.155z"></path>
<path fill="#fff" d="M24.26 28.57c-0.44 0.233-0.87 0.466-1.305 0.69-0.133 0.068-0.219-0.007-0.276-0.131-0.144-0.31-0.35-0.353-0.611-0.133-0.177 0.149-0.282 0.113-0.385-0.108-0.14-0.296-0.317-0.576-0.438-0.878-0.116-0.289-0.225-0.593-0.26-0.899-0.039-0.346 0.423-0.881 0.907-0.737 0.172 0.052 0.315 0.022 0.452-0.089 0.060-0.049 0.131-0.084 0.201-0.12 0.13-0.067 0.219-0.158 0.258-0.308 0.025-0.099 0.087-0.194 0.149-0.278 0.237-0.321 0.613-0.311 0.843 0.021 0.047 0.068 0.081 0.147 0.124 0.218 0.254 0.431 0.507 0.864 0.766 1.293 0.056 0.092 0.060 0.162-0.034 0.223-0.264 0.174-0.528 0.346-0.791 0.521-0.046 0.031-0.126 0.080-0.12 0.102 0.017 0.068 0.061 0.174 0.108 0.181 0.254 0.039 0.299 0.258 0.412 0.433z"></path>
<path fill="#fff" d="M26.289 26.63c0-0.155 0-0.299 0-0.504-0.126 0.057-0.233 0.082-0.306 0.147-0.191 0.17-0.369 0.357-0.549 0.54-0.089 0.091-0.181 0.172-0.321 0.121-0.134-0.049-0.137-0.174-0.188-0.285-0.080-0.173-0.227-0.315-0.346-0.472-0.056-0.074-0.133-0.141-0.162-0.223-0.099-0.278-0.251-0.518-0.451-0.734-0.172-0.186-0.166-0.207-0.003-0.406 0.071-0.087 0.149-0.166 0.215-0.257 0.123-0.166 0.307-0.219 0.482-0.307 0.289-0.145 0.568-0.329 0.805-0.546 0.102-0.094 0.105-0.308 0.127-0.472 0.052-0.38 0.074-0.395 0.441-0.281 0.526 0.163 1.030 0.36 1.425 0.769 0.087 0.089 0.114 0.169 0.075 0.282-0.112 0.321-0.23 0.639-0.328 0.965-0.028 0.095-0.022 0.222 0.018 0.31 0.070 0.154 0.075 0.282-0.024 0.422-0.177 0.25-0.345 0.507-0.521 0.758-0.102 0.152-0.174 0.181-0.391 0.173z"></path>
<path fill="#fff" d="M20.163 27.433c0.248 0.188 0.398 0.429 0.508 0.694 0.144 0.345 0.285 0.691 0.419 1.038 0.123 0.318 0.018 0.557-0.299 0.691-0.108 0.045-0.222 0.073-0.334 0.105-0.253 0.073-0.371 0.292-0.29 0.544 0.050 0.158-0.032 0.303-0.211 0.352-0.236 0.064-0.475 0.124-0.713 0.181-0.173 0.042-0.363-0.099-0.382-0.276-0.028-0.239-0.091-0.278-0.318-0.2-0.080 0.027-0.158 0.057-0.236 0.084-0.321 0.108-0.639-0.063-0.751-0.384-0.173-0.501-0.24-1.018-0.236-1.545 0.003-0.447 0.355-0.664 0.755-0.463 0.020 0.010 0.043 0.018 0.059 0.032 0.289 0.271 0.575 0.184 0.857-0.008 0.335-0.229 0.666-0.466 0.997-0.701 0.056-0.045 0.11-0.092 0.176-0.144z"></path>
<path fill="#fff" d="M4.454 20.413c0.188 0.042 0.371 0.068 0.544 0.123 0.289 0.092 0.378 0.281 0.26 0.56-0.176 0.416-0.543 0.623-0.944 0.734-0.366 0.102-0.673 0.288-0.971 0.501-0.127 0.091-0.25 0.18-0.41 0.105s-0.179-0.227-0.218-0.385c-0.056-0.223-0.165-0.433-0.255-0.645-0.010-0.021-0.061-0.042-0.085-0.035-0.031 0.008-0.071 0.043-0.075 0.071-0.013 0.077-0.007 0.155-0.014 0.233-0.007 0.092 0.042 0.211-0.114 0.235-0.208 0.032-0.335-0.021-0.375-0.184-0.074-0.297-0.134-0.597-0.202-0.896-0.040-0.17-0.028-0.325 0.080-0.475 0.074-0.102 0.12-0.094 0.211-0.025 0.134 0.099 0.283 0.177 0.427 0.265 0.021-0.017 0.042-0.034 0.063-0.050-0.068-0.183-0.123-0.373-0.211-0.544-0.156-0.308-0.151-0.395 0.142-0.571 0.195-0.116 0.406-0.207 0.614-0.3 0.325-0.145 0.653-0.283 0.983-0.42 0.241-0.099 0.469-0.061 0.68 0.089 0.162 0.114 0.201 0.226 0.149 0.419-0.094 0.346-0.187 0.692-0.275 1.038-0.013 0.052-0.001 0.108-0.001 0.158z"></path>
<path fill="#fff" d="M29.183 21.436c0.179 0.018 0.334 0.021 0.484 0.052 0.152 0.032 0.168 0.087 0.081 0.225-0.177 0.283-0.355 0.567-0.535 0.849-0.088 0.138-0.212 0.166-0.356 0.085-0.211-0.12-0.292-0.091-0.403 0.13-0.075 0.149-0.158 0.295-0.248 0.436-0.108 0.165-0.16 0.177-0.322 0.073-0.371-0.243-0.737-0.498-1.11-0.738-0.101-0.066-0.219-0.11-0.335-0.142-0.147-0.040-0.211-0.102-0.158-0.261 0.024-0.071 0.008-0.154 0.015-0.232 0.013-0.133 0.021-0.267 0.046-0.395 0.040-0.204 0.162-0.339 0.355-0.431 0.103-0.049 0.194-0.144 0.264-0.237 0.124-0.17 0.236-0.352 0.336-0.537 0.052-0.095 0.074-0.208 0.103-0.314 0.018-0.064 0.020-0.133 0.039-0.197 0.112-0.378 0.226-0.434 0.607-0.346 0.308 0.073 0.621 0.127 0.934 0.181 0.12 0.021 0.17 0.078 0.212 0.195 0.17 0.482 0.034 0.959 0.007 1.439-0.004 0.059-0.013 0.119-0.017 0.168z"></path>
<path fill="#fff" d="M7.888 6.125c-0.131 0.155-0.258 0.315-0.394 0.465-0.569 0.63-1.152 1.246-1.707 1.887-0.265 0.306-0.48 0.656-0.717 0.987-0.276 0.385-0.556 0.768-0.821 1.161-0.060 0.088-0.081 0.212-0.092 0.322s0.018 0.222 0.022 0.334c0.006 0.152-0.133 0.327-0.282 0.348-0.043 0.006-0.106-0.011-0.134-0.040-0.184-0.204-0.399-0.2-0.627-0.102-0.214 0.092-0.431 0.099-0.656 0.050-0.214-0.046-0.288-0.117-0.313-0.331-0.013-0.105-0.007-0.212 0.003-0.317 0.013-0.138-0.021-0.244-0.162-0.292-0.127-0.043-0.13-0.134-0.070-0.225 0.080-0.12 0.177-0.227 0.261-0.345 0.126-0.176 0.246-0.355 0.367-0.533 0.018-0.028 0.029-0.060 0.049-0.088 0.176-0.244 0.229-0.24 0.363 0.024 0.038 0.074 0.075 0.148 0.128 0.25 0.096-0.071 0.184-0.124 0.26-0.194 1.096-1.020 2.242-1.981 3.459-2.853 0.204-0.147 0.409-0.293 0.625-0.417 0.123-0.071 0.271-0.099 0.408-0.145 0.007 0.018 0.018 0.036 0.029 0.054z"></path>
<path fill="#fff" d="M24.431 5.17c0.089 0.040 0.183 0.074 0.267 0.124 0.791 0.461 1.562 0.949 2.228 1.587 0.307 0.295 0.537 0.636 0.741 1.004 0.124 0.223 0.258 0.443 0.402 0.655 0.050 0.073 0.145 0.113 0.219 0.169 0.021-0.015 0.042-0.031 0.063-0.046-0.035-0.099-0.064-0.201-0.108-0.296-0.035-0.080-0.061-0.148 0.047-0.186 0.006-0.001 0.011-0.004 0.014-0.008 0.078-0.095 0.148-0.205 0.3-0.159 0.162 0.049 0.247 0.174 0.322 0.318 0.186 0.355 0.375 0.708 0.575 1.054 0.074 0.127 0.067 0.197-0.075 0.254s-0.268 0.109-0.43 0.038c-0.064-0.028-0.173 0.045-0.262 0.073 0.031 0.067 0.052 0.142 0.095 0.2 0.042 0.056 0.108 0.094 0.184 0.156-0.455 0.308-0.895 0.607-1.355 0.92-0.116-0.363-0.235-0.691-0.327-1.026-0.307-1.121-0.976-2.045-1.622-2.98-0.412-0.596-0.849-1.174-1.274-1.76-0.013-0.017-0.020-0.036-0.029-0.056 0.010-0.013 0.018-0.024 0.025-0.034z"></path>
<path fill="#fff" d="M28.793 16.122c0.201 0.040 0.424 0.088 0.649 0.128 0.154 0.028 0.308 0.050 0.463 0.064 0.156 0.015 0.237 0.092 0.268 0.247 0.039 0.2 0.088 0.396 0.148 0.59 0.008 0.027 0.133 0.053 0.144 0.036 0.121-0.166 0.247-0.034 0.338 0.015 0.064 0.035 0.113 0.174 0.101 0.255-0.040 0.247-0.109 0.489-0.176 0.73-0.043 0.155-0.138 0.195-0.296 0.145-0.295-0.095-0.342-0.059-0.381 0.253-0.017 0.137-0.052 0.274-0.094 0.406-0.077 0.246-0.257 0.339-0.503 0.253-0.168-0.060-0.329-0.137-0.487-0.218-0.248-0.128-0.501-0.169-0.775-0.088-0.271 0.080-0.463-0.074-0.456-0.359 0.007-0.255 0.020-0.511 0.046-0.765 0.008-0.082 0.061-0.165 0.106-0.239 0.060-0.099 0.135-0.19 0.198-0.289 0.082-0.128 0.068-0.241-0.034-0.364-0.049-0.060-0.070-0.179-0.046-0.253 0.098-0.32 0.43-0.549 0.786-0.55z"></path>
<path fill="#fff" d="M1.896 14.139c-0.101 0.040-0.149 0.073-0.202 0.078-0.078 0.008-0.177 0.024-0.232-0.014-0.045-0.031-0.067-0.151-0.043-0.208 0.078-0.187 0.045-0.368 0.031-0.558-0.014-0.187 0.015-0.377 0.031-0.565 0.008-0.11 0.077-0.195 0.181-0.17 0.075 0.018 0.151 0.099 0.194 0.172 0.032 0.054 0.013 0.14 0.020 0.268 0.070-0.059 0.128-0.085 0.147-0.127 0.059-0.138 0.114-0.279 0.148-0.426 0.063-0.275 0.26-0.396 0.505-0.409 0.419-0.021 0.837 0.010 1.216 0.227 0.251 0.145 0.257 0.226 0.080 0.447-0.243 0.302-0.2 0.641-0.103 0.984 0.052 0.186 0.103 0.374 0.127 0.564 0.027 0.218-0.106 0.362-0.328 0.371-0.495 0.022-0.99 0.040-1.485 0.059-0.18 0.006-0.251-0.073-0.262-0.269-0.008-0.131-0.015-0.261-0.022-0.423z"></path>
<path fill="#fff" d="M29.999 12.468c0.020 0.381-0.052 0.519-0.412 0.652-0.328 0.12-0.67 0.204-1.005 0.303-0.117 0.035-0.18-0.020-0.201-0.134-0.035-0.191-0.059-0.387-0.109-0.574-0.042-0.159-0.114-0.311-0.174-0.466-0.028-0.073-0.056-0.144-0.088-0.215-0.031-0.066-0.053-0.142-0.102-0.193-0.091-0.094-0.106-0.179 0.011-0.244 0.408-0.229 0.815-0.459 1.235-0.666 0.099-0.049 0.247-0.021 0.367 0.003 0.119 0.024 0.225 0.099 0.342 0.128 0.19 0.047 0.296 0.168 0.345 0.348 0.052 0.188 0.105 0.376 0.149 0.565 0.022 0.096-0.001 0.176-0.12 0.198-0.251 0.049-0.251 0.050-0.239 0.295z"></path>
</svg>
