<!-- Generated by IcoMoon.io -->
<svg version="1.1" xmlns="http://www.w3.org/2000/svg" width="32" height="32" viewBox="0 0 32 32">
<title>factions-chaos-spire-tyrants</title>
<path fill="#fff" d="M8.671 31.998c-0.202-0.231-0.142-0.488-0.043-0.727 0.182-0.441 0.398-0.867 0.581-1.308 0.353-0.848 0.709-1.695 1.029-2.556 0.119-0.32 0.166-0.669 0.336-0.974 0.061-0.111 0.132-0.217 0.187-0.33 0.061-0.123 0.108-0.253 0.169-0.395 0.029 0.014 0.081 0.041 0.133 0.066 0.105 0.051 0.194 0.139 0.336 0.1 0.052-0.014 0.126 0.051 0.208 0.089 0.118-0.506 0.234-1.008 0.36-1.548-0.117 0.066-0.217 0.103-0.291 0.17-0.128 0.117-0.275 0.164-0.435 0.122-0.241-0.062-0.412 0.025-0.521 0.229-0.193 0.361-0.399 0.719-0.555 1.098-0.226 0.55-0.6 0.999-0.948 1.465-0.022 0.029-0.056 0.051-0.1 0.090-0.006-0.046-0.017-0.071-0.010-0.090 0.233-0.862 0.463-1.726 0.844-2.538 0.119-0.255 0.273-0.483 0.478-0.681 0.107-0.103 0.188-0.239 0.261-0.371 0.296-0.549 0.596-1.098 0.873-1.657 0.178-0.358 0.275-0.761 0.482-1.099 0.524-0.857 0.731-1.848 1.206-2.721 0.224-0.411 0.466-0.81 0.699-1.214 0.205-0.356 0.408-0.714 0.613-1.070 0.022-0.038 0.053-0.071 0.090-0.119 0.1 0.105 0.193 0.203 0.295 0.311 0.174-0.212 0.248-0.438 0.254-0.688 0.008-0.283 0.090-0.411 0.358-0.517 0.089-0.036 0.182-0.065 0.271-0.103 0.153-0.066 0.158-0.099 0.038-0.207-0.027-0.024-0.053-0.047-0.079-0.071-0.084-0.083-0.119-0.182-0.066-0.291 0.079-0.161 0.071-0.324 0.070-0.499-0.001-0.168 0.053-0.356 0.141-0.499 0.212-0.343 0.479-0.644 0.859-0.819 0.028-0.013 0.052-0.032 0.078-0.048 0.013-0.008 0.024-0.018-0.009-0.036 0.006-0.098-0.014-0.206 0.022-0.292 0.469-1.135 0.949-2.265 1.42-3.399 0.088-0.21 0.141-0.433 0.225-0.644 0.121-0.3 0.224-0.613 0.389-0.888 0.375-0.627 0.55-1.329 0.835-1.99 0.188-0.435 0.212-0.825 0.018-1.275-0.248-0.574-0.046-1.051 0.488-1.387 0.28-0.175 0.562-0.347 0.834-0.534 0.151-0.103 0.297-0.108 0.461-0.055 0.577 0.188 0.914 0.744 0.835 1.378-0.010 0.085-0.032 0.178-0.009 0.255 0.018 0.058 0.095 0.104 0.155 0.142 0.009 0.006 0.079-0.060 0.099-0.102 0.074-0.155 0.137-0.314 0.203-0.469 0.418 0.065 0.791 0.558 0.723 0.957-0.024 0.147 0.020 0.244 0.159 0.282 0.2 0.055 0.403 0.121 0.608 0.133 0.459 0.030 0.757 0.611 0.635 0.957-0.085 0.24-0.102 0.517-0.349 0.671-0.13 0.080-0.264 0.15-0.395 0.226-0.416 0.241-0.801 0.517-1.107 0.897-0.097 0.119-0.244 0.197-0.361 0.301-0.168 0.153-0.348 0.296-0.491 0.472-0.805 0.988-1.472 2.069-2.098 3.174-0.192 0.338-0.352 0.696-0.502 1.056-0.174 0.417-0.452 0.759-0.746 1.087-0.088 0.098-0.291 0.15-0.43 0.133-0.286-0.036-0.544-0.005-0.794 0.13-0.013 0.008-0.028 0.011-0.043 0.017-0.365 0.125-0.363 0.114-0.174 0.469 0.071 0.135 0.133 0.278 0.229 0.394 0.142 0.173 0.309 0.325 0.48 0.501-0.164 0.2-0.351 0.432-0.544 0.661-0.097 0.114-0.164 0.226-0.114 0.386 0.014 0.044-0.025 0.112-0.053 0.161-0.060 0.105-0.137 0.202-0.189 0.311-0.535 1.106-1.082 2.205-1.727 3.251-0.173 0.281-0.33 0.572-0.48 0.866-0.079 0.153-0.122 0.322-0.191 0.479-0.104 0.235-0.186 0.488-0.33 0.695-0.403 0.578-0.718 1.202-1.015 1.837-0.058 0.125-0.081 0.272-0.1 0.411-0.036 0.267-0.061 0.535-0.085 0.803-0.020 0.226-0.13 0.4-0.315 0.512-0.29 0.175-0.475 0.432-0.649 0.713-0.074 0.119-0.205 0.203-0.297 0.314-0.070 0.083-0.119 0.183-0.178 0.276-0.048 0.076-0.099 0.151-0.142 0.229-0.107 0.189-0.22 0.375-0.313 0.571-0.238 0.505-0.465 1.014-0.698 1.521-0.029 0.065-0.065 0.127-0.105 0.184-0.515 0.73-1.032 1.458-1.547 2.187-0.041 0.057-0.061 0.128-0.103 0.186-0.074 0.099-0.156 0.192-0.234 0.287-0.034-0.003-0.065-0.003-0.095-0.003z"></path>
<path fill="#fff" d="M16.358 0c0.151 0.281 0.093 0.596 0.149 0.892 0.053 0.278 0.125 0.553 0.182 0.83 0.085 0.407 0.169 0.815 0.247 1.223 0.142 0.749 0.381 1.463 0.766 2.122 0.089 0.153 0.099 0.264-0.015 0.437-0.098 0.149-0.079 0.377-0.095 0.572-0.003 0.027 0.084 0.076 0.137 0.092 0.258 0.074 0.519 0.142 0.779 0.205 0.212 0.051 0.276 0.221 0.336 0.397 0.009 0.025-0.006 0.074-0.028 0.090-0.196 0.154-0.268 0.376-0.352 0.595-0.036 0.094-0.079 0.186-0.125 0.29-0.053-0.022-0.097-0.038-0.153-0.061-0.006 0.095-0.013 0.178-0.019 0.273-0.039-0.011-0.080-0.010-0.093-0.028-0.113-0.161-0.304-0.172-0.464-0.238-0.062-0.025-0.165-0.033-0.211 0.003-0.116 0.089-0.22 0.109-0.371-0.008-0.044 0.248-0.089 0.463-0.121 0.681-0.094 0.639-0.216 1.271-0.458 1.875-0.009 0.023-0.020 0.046-0.030 0.069-0.116-0.044-0.126-0.025-0.236 0.377-0.027-0.042-0.074-0.081-0.078-0.125-0.009-0.111 0.003-0.224 0.005-0.336 0.010-0.486 0.039-0.968-0.123-1.444-0.093-0.272-0.128-0.564-0.175-0.849-0.027-0.167-0.116-0.222-0.272-0.25-0.323-0.058-0.635-0.025-0.951 0.045-0.421 0.094-0.85 0.154-1.266 0.264-0.639 0.172-1.195 0.525-1.746 0.879-0.097 0.062-0.109 0.125-0.069 0.238 0.076 0.212 0.159 0.414 0.324 0.577 0.089 0.088 0.108 0.203 0.064 0.311-0.222 0-0.437-0.001-0.652 0-0.252 0.003-0.423-0.113-0.515-0.362-0.374 0.489-0.702 0.981-0.901 1.548-0.064 0.182-0.132 0.362-0.194 0.545-0.053 0.155-0.136 0.281-0.255 0.403-0.182 0.187-0.241 0.451-0.24 0.705 0.003 0.45-0.030 0.905 0.099 1.347 0.023 0.076 0.017 0.161 0.030 0.241 0.019 0.108 0.094 0.14 0.172 0.065 0.187-0.183 0.433-0.207 0.662-0.213 0.547-0.014 1.092-0.010 1.628 0.166 0.268 0.088 0.571 0.080 0.859 0.094 0.665 0.032 1.331 0.047 1.995 0.078 0.095 0.004 0.188 0.055 0.282 0.083 0.003 0.020 0.004 0.039 0.006 0.060-0.078 0.033-0.153 0.090-0.233 0.097-0.694 0.055-1.388 0.095-2.081 0.15-0.241 0.019-0.484 0.056-0.722 0.102-0.483 0.093-0.962 0.205-1.446 0.29-0.099 0.018-0.219-0.028-0.318-0.071-0.327-0.14-0.365-0.119-0.597 0.135-0.192 0.21-0.273 0.431-0.253 0.714 0.024 0.333-0.028 0.677 0.033 1.003 0.127 0.666 0.4 1.249 0.991 1.669 0.403 0.286 0.737 0.666 1.108 0.995 0.119 0.107 0.262 0.188 0.437 0.311-0.090 0.252-0.169 0.576-0.322 0.86-0.121 0.224-0.226 0.438-0.258 0.69-0.003 0.015-0.004 0.030-0.006 0.046-0.051 0.285-0.168 0.362-0.455 0.296-0.008-0.036-0.011-0.075-0.023-0.113-0.027-0.086-0.037-0.227-0.092-0.248-0.163-0.061-0.324 0.032-0.423 0.175-0.187 0.272-0.38 0.54-0.572 0.808-0.048 0.067-0.095 0.119-0.201 0.064-0.043-0.023-0.14 0.017-0.193 0.055-0.083 0.060-0.149 0.141-0.222 0.215-0.014-0.008-0.027-0.017-0.041-0.024 0.011-0.037 0.020-0.076 0.037-0.112 0.111-0.24 0.212-0.484 0.337-0.717 0.113-0.211 0.137-0.427 0.066-0.647-0.099-0.31-0.052-0.59 0.128-0.854 0.028-0.042 0.047-0.090 0.067-0.136 0.052-0.118 0.017-0.206-0.111-0.229-0.192-0.034-0.294-0.156-0.376-0.32-0.048-0.097-0.118-0.194-0.203-0.259-0.365-0.283-0.624-0.643-0.774-1.074-0.188-0.54-0.349-1.090-0.524-1.636-0.075-0.236-0.146-0.474-0.226-0.708-0.023-0.066-0.057-0.137-0.107-0.182-0.133-0.121-0.24-0.249-0.269-0.435-0.006-0.041-0.069-0.088-0.116-0.105-0.132-0.051-0.269-0.086-0.397-0.127-0.048 0.1-0.092 0.191-0.156 0.324-0.079-0.104-0.123-0.175-0.179-0.234-0.039-0.041-0.098-0.064-0.147-0.095-0.028 0.051-0.070 0.099-0.080 0.153-0.020 0.111-0.024 0.224-0.041 0.389-0.407-0.308-0.867-0.188-1.276-0.325-0.442-0.149-0.891-0.282-1.346-0.384-0.449-0.1-0.909-0.154-1.364-0.222-0.36-0.055-0.722-0.103-1.087-0.187 0.022-0.011 0.043-0.030 0.066-0.034 0.449-0.085 0.9-0.154 1.345-0.254 0.534-0.122 1.060-0.271 1.59-0.409 0.211-0.055 0.418-0.121 0.632-0.161 0.173-0.033 0.313-0.109 0.435-0.231 0.111-0.111 0.229-0.215 0.346-0.324 0.14 0.078 0.181 0.207 0.212 0.341 0.090 0.377 0.088 0.369 0.445 0.255 0.163-0.051 0.337-0.074 0.508-0.084 0.127-0.008 0.222-0.046 0.308-0.136 0.098-0.105 0.188-0.234 0.367-0.178 0.019 0.006 0.052-0.010 0.069-0.025 0.172-0.175 0.409-0.189 0.623-0.261 0.042-0.014 0.078-0.050 0.117-0.075-0.038-0.024-0.075-0.053-0.116-0.069-0.064-0.024-0.13-0.037-0.222-0.064 0.014-0.057 0.027-0.14 0.055-0.219 0.177-0.497 0.353-0.994 0.535-1.49 0.043-0.117 0.050-0.202-0.071-0.286-0.136-0.095-0.147-0.294-0.046-0.455 0.151-0.24 0.311-0.477 0.46-0.718 0.125-0.203 0.231-0.417 0.358-0.619 0.094-0.149 0.206-0.289 0.316-0.427 0.113-0.141 0.102-0.159-0.015-0.288-0.155-0.172-0.299-0.357-0.428-0.549-0.153-0.228-0.266-0.484-0.433-0.698-0.17-0.217-0.375-0.412-0.586-0.592-0.191-0.164-0.219-0.238-0.065-0.455-0.126-0.149-0.311-0.273-0.31-0.529 0.403 0.197 0.792 0.38 1.174 0.577 0.407 0.208 0.806 0.431 1.21 0.644 0.247 0.131 0.464 0.292 0.587 0.566 0.037-0.014 0.071-0.023 0.099-0.039 1.056-0.609 2.203-1.010 3.341-1.425 0.348-0.127 0.723-0.179 1.083-0.276 0.203-0.055 0.198-0.062 0.137-0.255-0.023-0.072-0.034-0.147-0.046-0.222-0.020-0.127-0.053-0.255 0.159-0.245 0.047 0.003 0.114-0.080 0.145-0.137 0.444-0.846 0.735-1.749 0.937-2.679 0.050-0.229 0.020-0.475 0.030-0.714 0.024-0.507 0.050-1.014 0.076-1.521 0.001-0.029 0.017-0.057 0.025-0.086 0.023-0.005 0.043-0.005 0.064-0.005zM7.856 13.589c-0.182-0.009-0.333-0.037-0.447 0.114-0.066 0.086-0.151 0.161-0.239 0.229-0.181 0.139-0.222 0.239-0.172 0.461 0.020 0.089 0.048 0.177 0.055 0.267 0.037 0.507 0.637 0.832 1.080 0.577 0.058-0.033 0.112-0.093 0.142-0.153 0.075-0.149 0.142-0.304 0.201-0.46 0.116-0.314-0.027-0.571-0.188-0.826-0.113-0.177-0.257-0.254-0.432-0.21zM7.962 13.269c0.050 0.052 0.088 0.121 0.145 0.15 0.23 0.114 0.377 0.299 0.482 0.526 0.037 0.081 0.094 0.154 0.161 0.262 0.015-0.222-0.168-0.757-0.308-0.957-0.023 0.013-0.047 0.024-0.074 0.038-0.027-0.182-0.142-0.186-0.407-0.019z"></path>
<path fill="#fff" d="M25.242 8.877c0.105 0.024 0.184 0.042 0.304 0.070-0.094 0.165-0.202 0.332-0.287 0.508-0.118 0.247-0.213 0.503-0.327 0.752-0.103 0.225-0.092 0.442-0.020 0.677 0.144 0.48 0.271 0.967 0.388 1.457 0.030 0.126 0.023 0.275-0.013 0.4-0.071 0.252 0.015 0.483 0.053 0.721 0.004 0.022 0.066 0.056 0.094 0.051 0.342-0.074 0.621 0.097 0.911 0.227 0.056 0.025 0.109 0.055 0.159 0.090 0.074 0.053 0.135 0.053 0.219 0.004 0.147-0.088 0.305-0.066 0.447 0.027 0.339 0.222 0.699 0.391 1.102 0.459 0.119 0.020 0.241 0.033 0.361 0.055 0.141 0.025 0.291 0.010 0.414 0.119 0.041 0.037 0.125 0.032 0.189 0.037 0.633 0.038 1.267 0.074 1.92 0.112 0 0.076 0 0.14 0 0.203-0.001 0.142-0.081 0.205-0.215 0.193-0.166-0.014-0.333-0.052-0.5-0.053-0.275-0.003-0.549 0.011-0.822 0.030-0.071 0.005-0.144 0.046-0.206 0.086-0.327 0.215-0.685 0.341-1.059 0.452-0.367 0.109-0.722 0.266-1.076 0.416-0.18 0.076-0.348 0.183-0.521 0.277-0.075 0.041-0.145 0.098-0.225 0.126-0.118 0.042-0.197-0.015-0.186-0.139 0.010-0.121-0.037-0.149-0.139-0.123-0.222 0.053-0.445 0.104-0.665 0.168-0.048 0.014-0.098 0.069-0.122 0.117-0.030 0.062-0.044 0.136-0.053 0.206-0.050 0.417-0.243 0.768-0.474 1.108-0.355 0.52-0.698 1.049-1.043 1.575-0.097 0.147-0.085 0.208 0.067 0.291 0.125 0.067 0.153 0.172 0.163 0.302 0.010 0.122 0.032 0.253 0.086 0.36 0.086 0.172 0.196 0.333 0.31 0.487 0.243 0.325 0.494 0.644 0.747 0.962 0.116 0.144 0.245 0.277 0.377 0.426-0.041-0.013-0.084-0.020-0.122-0.038-0.177-0.089-0.346-0.197-0.529-0.271-0.566-0.231-1.132-0.464-1.708-0.666-0.205-0.072-0.44-0.085-0.66-0.078-0.142 0.005-0.29 0.084-0.417 0.16-0.125 0.075-0.234 0.18-0.337 0.285-0.604 0.614-1.343 1.007-2.129 1.329-0.113 0.046-0.229 0.085-0.337 0.141-0.311 0.161-0.644 0.238-0.99 0.276-0.261 0.028-0.52 0.076-0.779 0.116-0.034 0.005-0.069 0.015-0.103 0.028-0.197 0.072-0.221 0.132-0.109 0.314 0.090 0.147 0.186 0.292 0.29 0.428 0.064 0.083 0.061 0.142 0.006 0.229-0.258 0.407-0.533 0.811-0.629 1.294-0.102 0.507-0.187 1.018-0.264 1.53-0.047 0.315-0.057 0.637-0.1 0.953-0.041 0.295-0.111 0.587-0.156 0.882-0.036 0.226-0.069 0.454-0.075 0.681-0.005 0.189-0.055 0.315-0.305 0.333-0.023-0.1-0.070-0.217-0.075-0.336-0.024-0.604-0.027-1.209-0.055-1.814-0.046-1.010-0.104-2.020-0.158-3.030-0.009-0.156-0.053-0.285-0.225-0.343-0.050-0.017-0.097-0.088-0.113-0.144-0.046-0.156-0.023-0.308 0.048-0.458 0.139-0.29 0.067-0.421-0.247-0.487-0.253-0.053-0.506-0.111-0.76-0.156-0.058-0.010-0.127 0.013-0.188 0.033-0.052 0.018-0.095 0.067-0.147 0.076-0.064 0.011-0.132-0.004-0.2-0.008 0.011-0.053 0.013-0.113 0.036-0.161 0.15-0.305 0.302-0.608 0.459-0.907 0.019-0.038 0.081-0.089 0.108-0.081 0.168 0.046 0.213-0.079 0.271-0.182 0.024-0.043 0.036-0.097 0.041-0.146 0.015-0.139 0.080-0.196 0.225-0.172 0.052 0.009 0.122-0.008 0.164-0.039 0.219-0.158 0.438-0.314 0.639-0.492 0.079-0.070 0.15-0.191 0.156-0.294 0.034-0.519 0.093-1.031 0.277-1.523 0.034-0.090 0.013-0.201 0.023-0.301 0.022-0.193 0.048-0.385 0.104-0.576 0.239 1.080 0.292 2.178 0.427 3.262 0.611-0.092 1.169-0.314 1.74-0.506 0.962-0.325 1.821-0.843 2.675-1.374 0.108-0.067 0.136-0.151 0.098-0.271-0.058-0.189-0.116-0.379-0.159-0.572-0.017-0.072 0.006-0.154 0.011-0.23 0.081 0.008 0.169-0.003 0.243 0.025 0.141 0.055 0.277 0.126 0.409 0.201 0.126 0.071 0.211 0.047 0.301-0.065 0.338-0.419 0.582-0.891 0.811-1.374 0.142-0.302 0.288-0.605 0.442-0.901 0.165-0.315 0.226-0.638 0.123-0.985-0.013-0.043-0.019-0.089-0.028-0.133-0.055-0.263-0.055-0.262-0.32-0.31-0.559-0.102-1.116-0.222-1.678-0.304-0.522-0.075-1.051-0.104-1.576-0.159-0.494-0.052-0.989-0.111-1.483-0.166-0.343-0.038-0.511-0.31-0.705-0.54-0.065-0.076-0.018-0.142 0.084-0.154 0.539-0.064 1.076-0.058 1.603 0.089 0.336 0.094 0.675 0.108 1.009 0.033 0.243-0.053 0.473-0.010 0.71 0.009 0.231 0.019 0.464 0.017 0.696 0.030 0.156 0.010 0.313 0.027 0.468 0.051 0.366 0.055 0.703-0.065 1.043-0.168 0.311-0.093 0.308-0.093 0.288-0.416-0.053-0.899-0.272-1.764-0.524-2.622-0.069-0.235-0.196-0.438-0.381-0.596-0.221-0.186-0.452-0.36-0.686-0.529-0.119-0.086-0.177-0.198-0.128-0.327 0.056-0.149 0.145-0.287 0.227-0.425 0.075-0.123 0.17-0.227 0.165-0.397-0.003-0.076 0.097-0.17 0.172-0.227 0.022-0.018 0.128 0.048 0.177 0.095 0.137 0.133 0.297 0.202 0.484 0.236 0.104 0.019 0.21 0.069 0.299 0.128 0.109 0.072 0.202 0.17 0.302 0.255 0.296 0.25 0.479 0.266 0.813 0.060 0.198-0.125 0.39-0.248 0.554-0.352zM25.795 14.148c-0.005-0.014-0.010-0.029-0.015-0.043-0.16 0.061-0.365 0.081-0.473 0.193-0.278 0.287-0.175 0.644-0.066 0.974 0.027 0.083 0.151 0.144 0.241 0.192 0.561 0.302 1.009 0.107 1.179-0.508 0.008-0.029 0.011-0.060 0.020-0.089 0.052-0.189-0.008-0.342-0.156-0.459-0.215-0.169-0.452-0.273-0.731-0.259z"></path>
</svg>
