<!-- Generated by IcoMoon.io -->
<svg version="1.1" xmlns="http://www.w3.org/2000/svg" width="32" height="32" viewBox="0 0 32 32">
<title>factions-destruction-bonesplitterz</title>
<path fill="#fff" d="M6.712 31.998c-0.098-0.098-0.199-0.193-0.292-0.295-0.138-0.151-0.271-0.309-0.411-0.47 0.434-0.474 0.853-0.993 1.334-1.448 1.399-1.32 2.82-2.617 4.239-3.916 0.111-0.101 0.262-0.18 0.406-0.217 0.975-0.243 1.892-0.639 2.8-1.060 0.315-0.147 0.639-0.276 1-0.217 0.028 0.004 0.059 0.003 0.083 0.014 0.509 0.235 1.070 0.203 1.603 0.322 0.348 0.078 0.699 0.148 1.046 0.235 0.098 0.024 0.2 0.080 0.27 0.151 1.792 1.822 3.581 3.649 5.367 5.477 0.088 0.091 0.165 0.197 0.225 0.309 0.064 0.12 0.003 0.225-0.131 0.213-0.243-0.022-0.497-0.036-0.723-0.116-1.131-0.397-2.234-0.884-3.414-1.129-0.81-0.168-1.624-0.309-2.434-0.473-0.41-0.083-0.811-0.221-1.224-0.277-0.551-0.074-1.092-0.062-1.653 0.098-1.358 0.386-2.736 0.705-4.151 0.822-0.211 0.017-0.425 0.035-0.632 0.076-0.133 0.025-0.27 0.074-0.385 0.145-0.799 0.494-1.589 0.997-2.386 1.494-0.159 0.099-0.334 0.176-0.502 0.263-0.011-0.001-0.022-0.001-0.034-0.001z"></path>
<path fill="#fff" d="M24.384 16.595c-0.032-0.337-0.063-0.653-0.094-0.968-0.096-0.996-0.2-1.992-0.29-2.988-0.14-1.566-0.418-3.108-0.811-4.631-0.129-0.498-0.136-1.027-0.194-1.543-0.018-0.155 0-0.32-0.045-0.466-0.057-0.182-0.151-0.354-0.25-0.518-0.074-0.123-0.193-0.218-0.274-0.337-0.453-0.664-0.892-1.339-1.355-1.996-0.443-0.631-0.901-1.252-1.369-1.864-0.208-0.274-0.491-0.488-0.639-0.813-0.080-0.175-0.069-0.26 0.105-0.42 0.116-0.106 0.211-0.029 0.295 0.039 0.323 0.266 0.636 0.544 0.964 0.806 0.145 0.118 0.302 0.241 0.474 0.304 0.331 0.122 0.62 0.301 0.891 0.523 0.449 0.369 0.926 0.705 1.354 1.097 0.684 0.627 1.343 1.281 2.003 1.933 0.39 0.385 0.775 0.775 1.139 1.185 0.362 0.408 0.72 0.828 1.029 1.277 0.137 0.199 0.165 0.481 0.218 0.73 0.144 0.683 0.276 1.368 0.411 2.053 0.062 0.306 0.098 0.621 0.187 0.919 0.169 0.565 0.351 1.129 0.562 1.68 0.15 0.389 0.393 0.743 0.534 1.134 0.323 0.894 0.524 1.813 0.625 2.767 0.143 1.35 0.105 2.704 0.189 4.053 0.034 0.541 0.085 1.081 0.108 1.624 0.013 0.334-0.017 0.669-0.027 1.004-0.004 0.137-0.083 0.203-0.213 0.208-0.090 0.004-0.18-0.007-0.269 0.004-0.115 0.014-0.256 0.007-0.337 0.070-0.299 0.236-0.617 0.155-0.925 0.071-0.456-0.125-0.906-0.274-1.354-0.429-0.49-0.171-0.98-0.344-1.456-0.551-0.235-0.104-0.435-0.287-0.652-0.434-0.18-0.12-0.357-0.249-0.544-0.357-0.301-0.172-0.61-0.327-0.915-0.491-0.157-0.084-0.218-0.201-0.18-0.386 0.148-0.716 0.322-1.429 0.418-2.154 0.077-0.572 0.070-1.158 0.069-1.737 0-0.354 0.098-0.471 0.457-0.42 0.036 0.003 0.074 0.008 0.159 0.020z"></path>
<path fill="#fff" d="M2.597 25.903c0.032-0.697 0.041-1.394 0.103-2.087 0.085-0.945 0.203-1.89 0.322-2.831 0.077-0.61 0.175-1.217 0.269-1.824 0.123-0.794 0.206-1.599 0.385-2.381 0.362-1.572 0.772-3.133 1.173-4.695 0.453-1.769 0.962-3.52 1.603-5.234 0.464-1.245 1.060-2.424 1.657-3.606 0.088-0.175 0.182-0.347 0.28-0.516 0.094-0.162 0.186-0.182 0.365-0.092 0.211 0.106 0.235 0.176 0.183 0.361-0.032 0.113-0.064 0.256-0.025 0.358 0.225 0.607 0.164 1.231 0.099 1.843-0.186 1.797-0.187 3.596-0.099 5.396 0.014 0.291-0.069 0.554-0.238 0.786-0.138 0.19-0.171 0.39-0.123 0.618 0.095 0.453 0.183 0.908 0.262 1.364 0.027 0.152 0.032 0.313 0.015 0.469-0.066 0.618 0.045 1.228 0.084 1.841 0.018 0.273 0.029 0.547 0.045 0.82 0.042 0.732 0.087 1.462 0.124 2.193 0.056 1.088 0.178 2.174 0.141 3.267-0.011 0.327-0.124 0.561-0.404 0.715-0.343 0.189-0.676 0.401-1.035 0.551-1.112 0.464-2.146 1.078-3.203 1.646-0.571 0.306-1.134 0.628-1.701 0.943-0.073 0.041-0.147 0.077-0.221 0.116-0.022-0.008-0.042-0.014-0.062-0.021z"></path>
<path fill="#fff" d="M15.438 19.728c0.319 0.050 0.628 0.088 0.932 0.15 0.276 0.056 0.266 0.069 0.313 0.341 0.027 0.152 0.087 0.298 0.134 0.453 0.178-0.045 0.173-0.187 0.185-0.308 0.038-0.4 0.34-0.597 0.726-0.464 0.161 0.055 0.269 0.162 0.302 0.33 0.027 0.134 0.11 0.182 0.232 0.224 0.792 0.27 1.58 0.548 2.371 0.825 0.041 0.014 0.080 0.036 0.117 0.088-0.134 0.015-0.27 0.024-0.401 0.049-0.362 0.067-0.726 0.129-1.083 0.221-0.178 0.046-0.313 0.027-0.443-0.096-0.092-0.088-0.187-0.161-0.324-0.064-0.031 0.022-0.105-0.004-0.154-0.022-0.529-0.211-1.057-0.425-1.585-0.638-0.041-0.017-0.081-0.031-0.147-0.017 0.801 0.785 1.601 1.571 2.403 2.355-0.004 0.011-0.008 0.022-0.013 0.034-0.119-0.032-0.235-0.069-0.355-0.094-0.354-0.074-0.711-0.137-1.063-0.218-0.152-0.035-0.316-0.080-0.442-0.166-0.301-0.204-0.578-0.442-0.874-0.652-0.071-0.050-0.183-0.071-0.271-0.062-0.143 0.015-0.201-0.069-0.266-0.162-0.063-0.092-0.078-0.185-0.001-0.277 0.081-0.099 0.169-0.194 0.241-0.301 0.029-0.043 0.024-0.11 0.034-0.166-0.020-0.008-0.039-0.015-0.057-0.024-0.036 0.042-0.080 0.081-0.108 0.129-0.098 0.165-0.238 0.245-0.432 0.229-0.053-0.004-0.12-0.007-0.161 0.021-0.171 0.113-0.348 0.104-0.531 0.056-0.13-0.034-0.257-0.080-0.387-0.105-0.213-0.042-0.347-0.159-0.418-0.365-0.060-0.173-0.105-0.182-0.276-0.094-0.238 0.123-0.471 0.259-0.716 0.365-0.47 0.204-0.947 0.392-1.421 0.587-0.165 0.069-0.334 0.129-0.492 0.21-0.28 0.144-0.571 0.186-0.878 0.13-0.204-0.036-0.266-0.119-0.227-0.326 0.322-1.72 0.895-3.353 1.704-4.904 0.119-0.227 0.221-0.464 0.313-0.702 0.495-1.269 0.985-2.539 1.476-3.809 0.052-0.134 0.127-0.232 0.263-0.306 0.109-0.060 0.182-0.192 0.266-0.295 0.112-0.141 0.227-0.18 0.361-0.108 0.138 0.076 0.126 0.192 0.088 0.32-0.021 0.074-0.032 0.154-0.032 0.231 0.008 1.162 0.008 2.326 0.032 3.488 0.014 0.692 0.064 1.385 0.106 2.077 0.013 0.208-0.028 0.393-0.13 0.576-0.15 0.269-0.283 0.545-0.411 0.824-0.124 0.271-0.106 0.301 0.147 0.452 0.081 0.049 0.154 0.112 0.232 0.203-0.276 0.087-0.531 0.176-0.614 0.471-0.018 0.064-0.003 0.138-0.003 0.207 0.015 0.007 0.032 0.014 0.048 0.020 0.043-0.043 0.097-0.081 0.127-0.131 0.157-0.263 0.365-0.389 0.653-0.32 0.243 0.057 0.397-0.022 0.531-0.207 0.062-0.085 0.134-0.164 0.207-0.253-0.035-0.045-0.084-0.080-0.090-0.122-0.013-0.080-0.032-0.187 0.008-0.241 0.354-0.462 1.168-0.469 1.53-0.022 0.025 0.031 0.049 0.063 0.064 0.098 0.049 0.116 0.010 0.164-0.117 0.15-0.273-0.029-0.544-0.059-0.817-0.085-0.178-0.017-0.309 0.057-0.404 0.213zM18.942 20.802c-0.004-0.022-0.010-0.045-0.014-0.067-0.078-0.013-0.158-0.042-0.235-0.035-0.355 0.034-0.709 0.073-1.063 0.122-0.053 0.007-0.096 0.080-0.144 0.122 0.053 0.042 0.113 0.125 0.157 0.117 0.378-0.069 0.775-0.013 1.14-0.164 0.056-0.022 0.106-0.063 0.159-0.095zM16.364 21.865c0 0.022 0.001 0.045 0.001 0.067 0.513 0.137 1.025 0.274 1.539 0.413 0.008-0.013 0.017-0.027 0.027-0.039-0.092-0.056-0.178-0.136-0.277-0.165-0.358-0.108-0.72-0.203-1.083-0.294-0.064-0.017-0.138 0.011-0.207 0.018z"></path>
<path fill="#fff" d="M17.463 17.136c0.085-1.21-0.062-2.413-0.099-3.618-0.008-0.273 0.010-0.547 0.010-0.82 0-0.185-0.006-0.369-0.021-0.552-0.038-0.432-0.090-0.86-0.171-1.29-0.084-0.452-0.26-0.834-0.506-1.204-0.053-0.080-0.091-0.241-0.048-0.299 0.080-0.108 0.22-0.176 0.344-0.243 0.028-0.015 0.109 0.029 0.14 0.069 0.206 0.263 0.403 0.533 0.603 0.8 0.050 0.067 0.084 0.152 0.147 0.201 0.301 0.229 0.498 0.543 0.698 0.85 0.434 0.664 0.904 1.309 1.273 2.007 0.304 0.572 0.481 1.21 0.719 1.818 0.222 0.571 0.455 1.139 0.673 1.712 0.263 0.688 0.524 1.376 0.773 2.069 0.159 0.446 0.302 0.898 0.434 1.352 0.064 0.224 0.087 0.46 0.131 0.691 0.024 0.123-0.027 0.208-0.13 0.263-0.203 0.106-0.401 0.224-0.613 0.304-0.099 0.038-0.241 0.032-0.338-0.010-1.007-0.427-2.020-0.845-3.004-1.316-0.239-0.115-0.421-0.302-0.722-0.259-0.145 0.021-0.239-0.129-0.256-0.267-0.043-0.365-0.091-0.733-0.096-1.099-0.004-0.387 0.039-0.773 0.060-1.158z"></path>
<path fill="#fff" d="M27.949 30.817c-0.101-0.074-0.204-0.13-0.283-0.21-0.66-0.677-1.322-1.352-1.971-2.041-1.064-1.126-2.111-2.27-3.185-3.386-0.355-0.368-0.773-0.676-1.168-1.006-0.652-0.547-1.308-1.087-1.958-1.634-0.162-0.136-0.168-0.252-0.028-0.311 0.039-0.017 0.098-0.014 0.137 0.004 0.85 0.385 1.695 0.782 2.474 1.301 0.102 0.069 0.176 0.183 0.25 0.287 0.099 0.137 0.187 0.259 0.386 0.281 0.147 0.015 0.297 0.101 0.427 0.183 0.948 0.607 1.946 1.119 2.969 1.583 0.382 0.173 0.723 0.439 1.080 0.667 0.183 0.116 0.365 0.238 0.544 0.361 0.368 0.253 0.736 0.508 1.102 0.764 0.085 0.059 0.104 0.127 0.059 0.231-0.105 0.239-0.18 0.491-0.383 0.678-0.117 0.109-0.064 0.238 0.024 0.345 0.084 0.102 0.164 0.199 0.074 0.343-0.022 0.035-0.003 0.098 0.001 0.148 0.004 0.045 0.024 0.091 0.017 0.133-0.067 0.399-0.125 0.803-0.379 1.139-0.039 0.050-0.109 0.081-0.19 0.138z"></path>
<path fill="#fff" d="M7.782 28.608c0.007-0.052 0.008-0.104 0.020-0.154 0.070-0.299 0.145-0.597 0.214-0.897 0.018-0.080 0.013-0.166 0.018-0.249-0.020-0.006-0.038-0.013-0.057-0.018-0.032 0.045-0.078 0.085-0.092 0.136-0.123 0.435-0.235 0.871-0.361 1.305-0.034 0.115-0.078 0.239-0.157 0.323-0.225 0.241-0.469 0.464-0.708 0.691-0.036 0.035-0.090 0.055-0.148 0.088-0.011-0.446 0.151-0.848 0.162-1.263-0.025-0.006-0.049-0.011-0.074-0.015-0.025 0.063-0.063 0.123-0.074 0.189-0.063 0.364-0.125 0.727-0.178 1.092-0.025 0.173-0.085 0.319-0.218 0.438-0.164 0.147-0.317 0.304-0.477 0.457-0.015-0.007-0.031-0.015-0.046-0.022 0.021-0.179 0.046-0.358 0.064-0.537s0.031-0.358 0.045-0.536c-0.022-0.006-0.043-0.011-0.066-0.017-0.036 0.057-0.091 0.11-0.105 0.172-0.055 0.243-0.123 0.49-0.138 0.737-0.021 0.336-0.145 0.617-0.361 0.864-0.194 0.222-0.413 0.266-0.606 0.131-0.208-0.143-0.287-0.467-0.145-0.691 0.085-0.134 0.206-0.249 0.319-0.364 0.481-0.484 0.99-0.943 1.445-1.45 1.078-1.204 2.297-2.269 3.39-3.456 0.364-0.394 0.727-0.79 1.097-1.18 0.326-0.345 0.662-0.681 0.99-1.025 0.062-0.064 0.106-0.143 0.159-0.215-0.011-0.013-0.021-0.025-0.032-0.038-0.267 0.070-0.543 0.119-0.799 0.217-0.252 0.095-0.485 0.241-0.773 0.387 0.064-0.297 0.192-0.537 0.329-0.769 0.151-0.257 0.708-0.494 1.256-0.55-0.032 0.134-0.214 0.266-0.011 0.413 0.094-0.125 0.173-0.256 0.278-0.361 0.124-0.125 0.256-0.269 0.414-0.327 0.529-0.194 1.045-0.399 1.449-0.836 0.299 0.326 0.666 0.459 1.108 0.492-0.301 0.267-0.6 0.536-0.915 0.815-0.136-0.34-0.162-0.694-0.352-0.985-0.018 0.003-0.036 0.006-0.055 0.008 0.006 0.094 0 0.19 0.020 0.28 0.049 0.224 0.123 0.442 0.159 0.667 0.015 0.091-0.007 0.222-0.066 0.287-0.54 0.582-1.076 1.171-1.645 1.723-1.281 1.242-2.582 2.464-3.873 3.697-0.123 0.117-0.232 0.248-0.347 0.373-0.022-0.011-0.039-0.020-0.057-0.028zM12.327 22.655c-0.045 0.085-0.076 0.126-0.088 0.171-0.088 0.341 0.060 0.631 0.224 0.909 0.022 0.039 0.126 0.031 0.192 0.045 0.011-0.059 0.043-0.123 0.029-0.175-0.069-0.239-0.147-0.477-0.229-0.712-0.025-0.071-0.071-0.134-0.127-0.238zM9.775 26.57c0.029 0 0.059 0 0.088 0.001 0.112-0.466 0.224-0.933 0.259-1.418-0.060 0.038-0.104 0.083-0.116 0.134-0.090 0.369-0.176 0.738-0.256 1.111-0.011 0.053 0.015 0.115 0.025 0.172zM10.937 25.447c0.129-0.166 0.27-1.176 0.193-1.33-0.131 0.144-0.287 1.166-0.193 1.33zM8.926 26.545c-0.123 0.323-0.175 0.653-0.124 0.994 0.13-0.322 0.182-0.652 0.124-0.994z"></path>
<path fill="#fff" d="M9.611 24.738c-0.288 0.253-0.561 0.512-0.853 0.745-0.709 0.568-1.369 1.189-1.954 1.881-0.526 0.622-1.134 1.155-1.723 1.713-0.499 0.473-0.986 0.959-1.471 1.446-0.060 0.060-0.083 0.159-0.119 0.242-0.021 0.045-0.022 0.106-0.055 0.137-0.207 0.193-0.42 0.38-0.604 0.544 0.066-0.724-0.013-1.519 0.253-2.278 0.109-0.311 0.103-0.611-0.105-0.892-0.092-0.123 0.053-0.322 0.242-0.373 0.116-0.031 0.239-0.071 0.333-0.141 1.095-0.817 2.27-1.508 3.455-2.183 0.646-0.369 1.311-0.698 1.996-0.986 0.245-0.104 0.393-0.071 0.606 0.145z"></path>
<path fill="#fff" d="M26.582 24.846c0.257-0.032 0.513-0.067 0.771-0.096 0.428-0.049 0.856-0.088 1.283-0.145 0.096-0.013 0.186-0.087 0.278-0.131-0.007-0.024-0.014-0.048-0.020-0.073-0.078-0.007-0.159-0.029-0.235-0.021-0.754 0.092-1.508 0.193-2.263 0.28-0.133 0.015-0.281 0.004-0.407-0.039-0.305-0.106-0.603-0.238-0.902-0.362-0.049-0.020-0.092-0.052-0.136-0.119 0.366-0.085 0.733-0.176 1.101-0.256 0.267-0.059 0.538-0.096 0.807-0.154 0.242-0.052 0.48-0.043 0.709 0.048 0.82 0.324 1.643 0.642 2.455 0.986 0.429 0.182 0.495 0.711 0.162 1.038-0.255 0.25-0.527 0.334-0.864 0.164-0.201-0.102-0.418-0.173-0.662-0.271 0.42-0.189 0.901-0.056 1.242-0.35-0.004-0.024-0.008-0.048-0.014-0.071-0.070-0.004-0.141-0.022-0.208-0.013-0.38 0.063-0.758 0.148-1.14 0.194-0.217 0.027-0.456 0.039-0.66-0.025-0.41-0.127-0.801-0.309-1.2-0.47-0.035-0.014-0.066-0.039-0.099-0.060 0.003-0.015 0.003-0.034 0.003-0.052z"></path>
<path fill="#fff" d="M4.050 25.695c-0.136 0.424-0.351 0.772-0.453 1.159 0.024 0.014 0.046 0.028 0.070 0.041 0.048-0.050 0.111-0.094 0.138-0.152 0.147-0.306 0.294-0.614 0.425-0.927 0.083-0.196 0.2-0.341 0.397-0.429 0.659-0.29 1.313-0.585 1.971-0.877 0.13-0.057 0.262-0.112 0.441-0.189-0.038 0.087-0.052 0.13-0.074 0.168-0.095 0.171-0.193 0.34-0.288 0.509-0.064 0.115-0.088 0.221 0.083 0.291-0.036 0.027-0.056 0.043-0.077 0.055-1.207 0.656-2.411 1.313-3.621 1.964-0.26 0.14-0.533 0.257-0.808 0.364-0.085 0.034-0.211 0.021-0.298-0.017-0.109-0.048-0.204-0.136-0.292-0.221-0.143-0.138-0.011-0.46 0.221-0.573 0.246-0.119 0.49-0.243 0.729-0.375 0.241-0.131 0.471-0.277 0.711-0.41 0.231-0.125 0.464-0.241 0.727-0.379z"></path>
<path fill="#fff" d="M21.293 22.542c0.397-0.080 0.796-0.158 1.193-0.238 0.032-0.007 0.070-0.001 0.099-0.014 0.415-0.178 0.796-0.053 1.194 0.096 0.766 0.29 1.548 0.541 2.32 0.814 0.231 0.081 0.453 0.185 0.702 0.287-0.039 0.024-0.055 0.039-0.071 0.042-0.68 0.15-1.36 0.302-2.042 0.441-0.106 0.021-0.235-0.006-0.337-0.049-0.698-0.295-1.392-0.603-2.087-0.904-0.322-0.138-0.645-0.27-0.968-0.406-0.001-0.022-0.003-0.046-0.004-0.070z"></path>
<path fill="#fff" d="M23.931 29.169c0.095 0.021 0.193 0.035 0.287 0.064 0.453 0.141 0.904 0.29 1.357 0.427 0.361 0.109 0.53 0.425 0.755 0.701-0.298-0.064-0.594-0.13-0.915-0.2 0.048 0.179 0.162 0.246 0.287 0.291 0.204 0.074 0.417 0.129 0.62 0.206 0.197 0.076 0.394 0.157 0.579 0.259 0.206 0.115 0.344 0.294 0.403 0.531 0.036 0.147 0.014 0.267-0.108 0.358-0.125 0.095-0.266 0.168-0.417 0.074-0.255-0.159-0.526-0.306-0.744-0.508-0.698-0.643-1.429-1.253-2.006-2.018-0.039-0.052-0.078-0.101-0.117-0.152 0.006-0.010 0.013-0.021 0.020-0.032z"></path>
<path fill="#fff" d="M8.701 23.525c0.495-0.21 0.989-0.42 1.504-0.638-0.13 0.308-0.245 0.596-0.375 0.876-0.029 0.063-0.105 0.126-0.172 0.147-0.954 0.299-1.81 0.81-2.695 1.256-0.020 0.010-0.041 0.017-0.101 0.042 0.057-0.127 0.099-0.224 0.145-0.32 0.354-0.748 0.354-0.751 1.098-1.105 0.196-0.094 0.399-0.173 0.597-0.259-0.088 0.204-0.176 0.407-0.264 0.611 0.017 0.013 0.034 0.024 0.050 0.036 0.039-0.029 0.088-0.050 0.115-0.088 0.060-0.087 0.106-0.183 0.161-0.274 0.071-0.119 0.046-0.21-0.063-0.284z"></path>
<path fill="#fff" d="M20.851 26.131c0.348 0.109 0.698 0.22 1.046 0.329 1.038 0.327 1.036 0.327 1.797 1.099 0.165 0.166 0.334 0.33 0.501 0.495 0.036 0.036 0.070 0.077 0.133 0.147-0.074-0.010-0.106-0.008-0.134-0.018-0.551-0.18-1.108-0.347-1.649-0.551-0.228-0.087-0.449-0.228-0.632-0.392-0.35-0.312-0.67-0.656-1.003-0.987-0.029-0.029-0.050-0.064-0.076-0.096 0.004-0.008 0.010-0.017 0.017-0.025z"></path>
<path fill="#fff" d="M19.476 24.587c0.643 0.243 1.267 0.478 1.888 0.719 0.071 0.028 0.137 0.078 0.193 0.13 0.316 0.298 0.629 0.6 0.972 0.929-0.403-0.122-0.766-0.243-1.136-0.34-0.25-0.064-0.512-0.090-0.766-0.141-0.066-0.014-0.136-0.048-0.185-0.094-0.372-0.344-0.708-0.719-0.966-1.203z"></path>
<path fill="#fff" d="M19.483 21.781c0.252-0.038 0.502-0.081 0.755-0.113 0.331-0.043 0.664-0.080 0.997-0.116 0.043-0.006 0.092-0.011 0.131 0.001 0.394 0.134 0.787 0.271 1.231 0.425-0.084 0.027-0.116 0.038-0.15 0.046-0.487 0.112-0.973 0.227-1.463 0.333-0.099 0.021-0.218 0.038-0.308 0.003-0.369-0.14-0.732-0.301-1.095-0.456-0.038-0.017-0.069-0.052-0.102-0.078 0.001-0.014 0.001-0.029 0.003-0.045z"></path>
<path fill="#fff" d="M17.75 23.114c1.157 0.196 2.141 0.676 2.911 1.576-0.060-0.018-0.119-0.036-0.179-0.053-0.445-0.126-0.891-0.246-1.334-0.379-0.126-0.038-0.256-0.095-0.354-0.179-0.344-0.294-0.677-0.603-1.013-0.906-0.010-0.011-0.014-0.029-0.031-0.059z"></path>
<path fill="#fff" d="M22.621 27.861c0.211 0.067 0.401 0.126 0.592 0.186 0.336 0.106 0.671 0.207 1.004 0.32 0.125 0.042 0.259 0.092 0.357 0.176 0.249 0.214 0.48 0.448 0.747 0.701-0.069-0.011-0.102-0.014-0.133-0.022-0.333-0.095-0.663-0.199-0.997-0.285-0.122-0.032-0.253-0.022-0.379-0.043-0.088-0.014-0.2-0.021-0.256-0.077-0.312-0.302-0.608-0.62-0.934-0.955z"></path>
</svg>
