<!-- Generated by IcoMoon.io -->
<svg version="1.1" xmlns="http://www.w3.org/2000/svg" width="32" height="32" viewBox="0 0 32 32">
<title>factions-chaos-iron-golems</title>
<path fill="#fff" d="M1.401 17.873c0.152 0 0.307 0.015 0.457-0.003 0.437-0.050 0.873-0.125 1.312-0.167 0.487-0.046 0.975-0.069 1.464-0.096 0.382-0.022 0.751-0.090 1.123-0.19 0.426-0.114 0.877-0.141 1.317-0.195 0.196-0.024 0.398-0.008 0.593-0.040 0.207-0.035 0.254-0.131 0.257-0.339 0.004-0.296 0.023-0.59 0.039-0.886 0.016-0.307-0.027-0.589-0.187-0.866-0.198-0.34-0.157-0.728-0.132-1.104 0.011-0.16 0.035-0.32 0.059-0.48 0.019-0.118-0.023-0.176-0.144-0.171-0.23 0.012-0.464 0.007-0.691 0.043-0.611 0.1-1.208-0.026-1.811-0.074-0.636-0.051-1.275-0.094-1.91 0.065-0.223 0.056-0.464 0.039-0.698 0.056-0.005-0.022-0.009-0.044-0.015-0.066 0.183-0.059 0.362-0.14 0.549-0.174 0.763-0.133 1.525-0.265 2.292-0.367 0.382-0.051 0.772-0.039 1.16-0.056 0.226-0.009 0.451-0.022 0.677-0.028 0.121-0.004 0.192-0.061 0.208-0.18 0.026-0.186 0.074-0.355 0.226-0.484 0.027-0.023 0.027-0.102 0.012-0.148-0.052-0.169-0.106-0.338-0.179-0.499-0.024-0.054-0.102-0.113-0.157-0.116-0.326-0.019-0.43 0.062-0.573 0.354-0.043 0.087-0.141 0.147-0.214 0.219-0.066-0.091-0.151-0.176-0.19-0.278-0.027-0.071-0.004-0.171 0.020-0.252 0.106-0.361 0.213-0.722 0.339-1.075 0.043-0.118 0.128-0.241 0.229-0.316 0.219-0.167 0.304-0.412 0.421-0.639 0.018-0.034-0.016-0.102-0.040-0.145-0.082-0.141-0.061-0.273-0.026-0.429 0.11-0.508 0.374-0.952 0.615-1.392 0.34-0.62 0.406-1.282 0.472-1.956 0.034-0.343 0.065-0.685 0.095-1.028 0.020-0.221 0.163-0.284 0.424-0.179-0.081 0.202-0.039 0.401-0.013 0.611 0.082 0.677 0.26 1.34 0.278 2.027 0.008 0.295 0.133 0.584 0.19 0.88 0.028 0.147 0.051 0.307 0.022 0.448-0.093 0.447 0.075 0.837 0.23 1.231 0.122 0.309 0.27 0.608 0.301 0.947 0.013 0.147 0.117 0.202 0.262 0.203 0.055 0 0.145 0.039 0.157 0.079 0.031 0.101-0.051 0.128-0.14 0.147-0.157 0.034-0.317 0.069-0.465 0.126-0.075 0.030-0.168 0.104-0.186 0.174-0.1 0.412-0.19 0.827-0.258 1.244-0.038 0.229 0.036 0.269 0.256 0.196 0.105-0.035 0.219-0.058 0.33-0.061 0.404-0.008 0.807-0.001 1.211-0.008 0.439-0.008 0.759-0.219 0.987-0.588 0.067-0.109 0.149-0.211 0.233-0.308 0.078-0.090 0.168-0.075 0.204 0.040 0.047 0.148 0.087 0.3 0.106 0.452 0.038 0.299 0.11 0.381 0.408 0.375 0.624-0.009 1.25-0.004 1.871-0.043 0.428-0.027 0.441 0.027 0.34-0.418-0.094-0.418 0.036-0.819 0.038-1.25-0.035 0-0.093 0.009-0.145-0.003-0.086-0.020-0.183-0.036-0.249-0.087-0.101-0.077-0.199-0.175-0.168-0.326 0.031-0.153 0.167-0.165 0.285-0.198 0.129-0.036 0.258-0.069 0.393-0.104-0.137-0.362-0.335-0.671-0.589-0.943-0.036-0.039-0.144-0.048-0.198-0.024-0.316 0.14-0.56 0.377-0.783 0.635-0.026 0.030-0.028 0.078-0.039 0.118-0.031 0.117-0.178 0.213-0.303 0.184-0.137-0.031-0.129-0.143-0.109-0.246 0.018-0.089 0.032-0.188 0.082-0.258 0.239-0.342 0.357-0.733 0.46-1.127 0.046-0.175 0.12-0.305 0.292-0.397 0.265-0.141 0.284-0.258 0.126-0.511-0.13-0.211-0.1-0.429-0.042-0.654 0.199-0.782 0.444-1.548 0.736-2.3 0.067-0.175 0.126-0.348 0.042-0.545-0.058-0.135 0.144-0.379 0.321-0.396 0.133-0.012 0.164-0.074 0.179-0.194 0.040-0.335 0.101-0.669 0.147-1.002 0.048-0.35 0.087-0.702 0.135-1.052 0.009-0.074 0.026-0.151 0.056-0.218 0.117-0.257 0.139-0.525 0.121-0.803-0.013-0.213 0.085-0.291 0.272-0.223 0.044 0.016 0.094 0.070 0.108 0.117 0.087 0.316 0.174 0.632 0.243 0.952 0.024 0.113 0.011 0.235 0.001 0.352-0.003 0.036-0.046 0.075-0.081 0.1-0.038 0.028-0.101 0.030-0.126 0.063-0.062 0.081-0.16 0.182-0.148 0.261 0.011 0.071 0.14 0.164 0.229 0.179 0.316 0.051 0.483 0.227 0.581 0.526 0.089 0.273 0.226 0.53 0.348 0.791 0.067 0.143 0.016 0.363-0.118 0.46-0.149 0.106-0.153 0.178-0.020 0.308 0.023 0.023 0.046 0.050 0.074 0.062 0.292 0.117 0.402 0.37 0.484 0.646 0.14 0.468 0.291 0.934 0.421 1.404 0.086 0.309 0.147 0.627 0.21 0.942 0.015 0.070 0.020 0.164-0.015 0.218-0.098 0.152-0.081 0.303-0.050 0.465 0.126 0.667 0.288 1.322 0.631 1.92 0.047 0.082 0.071 0.179 0.094 0.273 0.032 0.132-0.030 0.192-0.163 0.19-0.239-0.005-0.468-0.061-0.639-0.23-0.343-0.339-0.67-0.695-1.005-1.044-0.051-0.052-0.104-0.114-0.168-0.141-0.105-0.046-0.176-0.036-0.213 0.116-0.071 0.296-0.182 0.584-0.278 0.873-0.071 0.213-0.056 0.237 0.151 0.323 0.066 0.027 0.114 0.1 0.169 0.152-0.047 0.044-0.086 0.108-0.141 0.13-0.113 0.047-0.137 0.117-0.109 0.229 0.038 0.151 0.062 0.305 0.096 0.457 0.024 0.106 0.034 0.202-0.034 0.307-0.030 0.047-0.005 0.164 0.036 0.215 0.121 0.151 0.174 0.307 0.116 0.494-0.043 0.14 0.019 0.184 0.152 0.182 0.823-0.018 1.645-0.035 2.468-0.046 0.172-0.003 0.261-0.078 0.313-0.238 0.075-0.226 0.118-0.471 0.324-0.666 0.036 0.069 0.073 0.125 0.097 0.186 0.070 0.175 0.136 0.35 0.199 0.527 0.040 0.112 0.113 0.157 0.23 0.161 0.827 0.028 1.656 0.061 2.483 0.090 0.178 0.007 0.209-0.022 0.213-0.198 0.003-0.097-0.013-0.196 0.003-0.291 0.074-0.441-0.071-0.837-0.249-1.225-0.023-0.050-0.096-0.086-0.153-0.108-0.047-0.018-0.108-0.008-0.16 0.001-0.198 0.035-0.334-0.043-0.439-0.242 0.101-0.032 0.202-0.055 0.296-0.095 0.175-0.075 0.361-0.137 0.514-0.245 0.151-0.106 0.113-0.233-0.063-0.292-0.32-0.109-0.508-0.429-0.448-0.76 0.077-0.417 0.152-0.834 0.226-1.252 0.034-0.191 0.141-0.303 0.324-0.359 0.249-0.077 0.264-0.094 0.25-0.354-0.028-0.566-0.023-1.131 0.069-1.69 0.116-0.704 0.261-1.403 0.401-2.103 0.013-0.066 0.083-0.12 0.128-0.179 0.013 0.007 0.028 0.012 0.042 0.019 0.020 0.174 0.032 0.348 0.062 0.521 0.074 0.432 0.238 0.845 0.233 1.295-0.003 0.184 0.043 0.375 0.102 0.553 0.065 0.196 0.149 0.393 0.262 0.565 0.235 0.362 0.4 0.745 0.461 1.174 0.016 0.11 0.089 0.214 0.139 0.317 0.046 0.097 0.097 0.191 0.164 0.321-0.102-0.009-0.148-0.012-0.194-0.018-0.254-0.035-0.43 0.179-0.326 0.412 0.023 0.050 0.118 0.081 0.184 0.094 0.347 0.066 0.638 0.219 0.858 0.515-0.133 0.136-0.087 0.273-0.004 0.418 0.249 0.439 0.492 0.881 0.733 1.325 0.034 0.062 0.050 0.147 0.040 0.215-0.008 0.052-0.061 0.121-0.109 0.14-0.039 0.015-0.124-0.018-0.151-0.056-0.128-0.183-0.303-0.176-0.492-0.149-0.245 0.035-0.49 0.067-0.734 0.095-0.171 0.020-0.334 0.078-0.395 0.239-0.18 0.475-0.338 0.958-0.517 1.473 0.358 0.044 0.67 0.109 0.983 0.117 0.962 0.023 1.924 0.028 2.887 0.031 0.188 0.001 0.328 0.063 0.459 0.23-0.126 0.011-0.23 0.026-0.335 0.028-1.108 0.024-2.215 0.048-3.324 0.069-0.151 0.003-0.301-0.013-0.452-0.020-0.11-0.005-0.155 0.042-0.139 0.156 0.061 0.444 0.062 0.886 0.013 1.334-0.042 0.378-0.008 0.764-0.048 1.143-0.038 0.361-0.083 0.713 0.001 1.072 0.017 0.073-0.038 0.161-0.056 0.242-0.016 0.065-0.030 0.129-0.043 0.194 0.065 0.013 0.132 0.046 0.195 0.039 1.161-0.12 2.323-0.012 3.484-0.019 0.687-0.004 1.376 0.056 2.064 0.089 0.191 0.009 0.363 0.063 0.521 0.223-0.075 0-0.125 0-0.178 0-0.005 0.058-0.009 0.105-0.013 0.155-0.558-0.016-1.11-0.039-1.66-0.043-0.241-0.003-0.482 0.034-0.724 0.052-0.702 0.054-1.403 0.108-2.105 0.16-0.519 0.039-1.038 0.075-1.558 0.112-0.163 0.011-0.238 0.077-0.241 0.238-0.005 0.483 0 0.967-0.008 1.45-0.005 0.257-0.038 0.514-0.046 0.771-0.004 0.143 0.017 0.287 0.027 0.43 0.009 0.169 0.032 0.34 0.024 0.51-0.013 0.27 0.128 0.434 0.394 0.393 1.048-0.161 2.102-0.093 3.154-0.1 0.608-0.004 1.216-0.031 1.823-0.031 0.256 0 0.512 0.042 0.767 0.077 0.070 0.009 0.133 0.065 0.226 0.113-0.054 0.024-0.066 0.035-0.079 0.036-0.686 0.051-1.371 0.116-2.058 0.145-0.599 0.026-1.185 0.105-1.776 0.2-0.592 0.096-1.2 0.096-1.8 0.144-0.133 0.011-0.265 0.044-0.395 0.074s-0.196 0.117-0.175 0.249c0.14 0.842 0.169 1.69 0.141 2.541-0.004 0.102 0.028 0.217 0.075 0.309 0.204 0.402 0.254 0.823 0.221 1.268-0.036 0.478-0.046 0.956-0.071 1.434-0.011 0.211-0.042 0.418-0.186 0.589-0.121 0.143-0.169 0.148-0.324 0.044-0.075-0.051-0.155-0.097-0.23-0.148-0.137-0.094-0.262-0.11-0.413-0.007-0.196 0.133-0.441 0.027-0.483-0.209-0.027-0.151-0.047-0.317-0.009-0.463 0.129-0.507 0.069-1.016 0.056-1.525-0.013-0.57-0.038-1.139-0.050-1.71-0.015-0.656-0.019-1.313-0.035-1.968-0.001-0.071-0.042-0.199-0.077-0.203-0.12-0.015-0.27-0.026-0.361 0.035s-0.164 0.077-0.261 0.079c-0.207 0.007-0.414 0.030-0.621 0.028-0.198-0.001-0.397-0.024-0.595-0.040-0.172-0.013-0.343-0.031-0.514-0.044-0.172-0.012-0.207 0.031-0.2 0.199 0.001 0.055-0.026 0.124-0.062 0.167-0.062 0.073-0.139 0.135-0.215 0.194-0.155 0.12-0.26 0.086-0.332-0.101-0.051-0.131-0.090-0.266-0.159-0.386-0.032-0.056-0.117-0.086-0.182-0.12-0.026-0.012-0.065-0.004-0.096 0.001-0.367 0.061-0.717-0.001-1.079-0.090-0.506-0.124-1.026-0.091-1.532 0.050-0.036 0.009-0.083 0.071-0.082 0.106 0.015 0.304 0.038 0.608 0.062 0.911 0.009 0.122 0.028 0.245 0.042 0.367 0.027 0.234 0.043 0.469 0.081 0.701 0.030 0.183 0.005 0.347-0.070 0.517-0.046 0.102-0.074 0.227-0.062 0.338 0.061 0.593 0.14 1.184 0.204 1.777 0.016 0.148 0.078 0.198 0.225 0.209 0.299 0.020 0.599 0.046 0.893 0.098 0.174 0.031 0.308 0.144 0.363 0.377-0.307 0-0.595-0.003-0.884 0.001-0.14 0.003-0.278 0.022-0.418 0.027-0.113 0.004-0.152 0.062-0.14 0.167 0.040 0.352 0.079 0.705 0.12 1.057 0.004 0.042 0.009 0.085 0.008 0.126-0.008 0.223-0.040 0.448-0.026 0.67 0.040 0.566-0.071 1.114-0.183 1.66-0.073 0.351-0.304 0.514-0.597 0.49-0.366-0.030-0.669-0.297-0.706-0.64-0.012-0.11 0.001-0.225 0.016-0.336 0.028-0.21-0.013-0.397-0.167-0.547-0.089-0.087-0.126-0.172-0.069-0.301 0.028-0.062 0.020-0.163-0.012-0.225-0.070-0.133-0.070-0.249 0.004-0.379 0.132-0.229 0.031-0.456-0.227-0.492-0.182-0.026-0.297-0.098-0.352-0.277-0.020-0.063-0.078-0.114-0.114-0.174-0.087-0.143-0.059-0.192 0.101-0.234 0.075-0.020 0.171-0.058 0.206-0.118 0.101-0.172 0.018-0.326-0.183-0.343-0.277-0.023-0.557-0.019-0.833-0.052-0.094-0.011-0.209-0.082-0.258-0.16-0.055-0.086 0.054-0.102 0.121-0.112 0.383-0.054 0.768-0.102 1.149-0.163 0.056-0.009 0.144-0.075 0.148-0.122 0.044-0.486 0.128-0.975 0.012-1.461-0.042-0.178-0.129-0.35-0.221-0.51-0.082-0.143-0.071-0.288 0.085-0.359 0.133-0.061 0.133-0.131 0.095-0.254-0.040-0.131-0.062-0.276-0.052-0.412 0.023-0.332 0.078-0.662 0.1-0.994 0.016-0.25 0.001-0.503-0.001-0.755-0.001-0.104-0.067-0.143-0.159-0.141-0.299 0.008-0.597-0.040-0.896 0.055-0.125 0.040-0.284-0.024-0.428-0.036-0.379-0.034-0.759-0.081-1.138-0.094-0.311-0.011-0.484 0.206-0.457 0.522 0.004 0.043 0.022 0.087 0.013 0.128-0.013 0.075-0.039 0.149-0.061 0.223-0.078-0.026-0.161-0.039-0.231-0.078-0.059-0.034-0.1-0.097-0.151-0.144-0.055-0.051-0.106-0.113-0.172-0.144-0.137-0.067-0.157-0.157-0.104-0.291 0.067-0.165 0.043-0.21-0.132-0.211-0.434-0.003-0.87 0.005-1.305 0.008-0.145 0.001-0.291 0.001-0.434-0.001-0.132-0.003-0.233 0.048-0.229 0.19 0.018 0.639 0.044 1.278 0.067 1.917 0.001 0.027 0.001 0.059 0.018 0.078 0.248 0.292 0.133 0.648 0.174 0.977 0.056 0.463 0.098 0.928 0.147 1.404 0.004 0-0.031-0.008-0.052 0.005-0.054 0.034-0.102 0.077-0.152 0.116 0.050 0.030 0.098 0.059 0.148 0.087 0.008 0.005 0.027-0.003 0.031 0.003 0.048 0.056 0.121 0.108 0.137 0.172 0.035 0.137 0.165 0.28 0.034 0.42-0.031 0.032-0.155 0.030-0.194-0.004-0.291-0.254-0.612-0.304-0.979-0.209-0.122 0.031-0.27 0.011-0.394-0.027-0.208-0.063-0.332-0.214-0.324-0.445 0.004-0.102 0.013-0.203 0.020-0.305 0.019-0.277 0.048-0.556 0.055-0.833 0.008-0.371-0.003-0.741-0.001-1.112 0-0.165-0.004-0.327 0.086-0.483 0.044-0.077 0.042-0.188 0.039-0.284-0.012-0.457-0.034-0.913-0.050-1.371-0.007-0.19-0.023-0.206-0.208-0.178-1.287 0.196-2.579 0.354-3.885 0.317-0.307-0.008-0.613 0.007-0.92 0.022-0.235 0.012-0.433-0.061-0.599-0.225-0.024-0.024-0.042-0.056-0.062-0.085 0.034-0.019 0.067-0.050 0.104-0.052 0.343-0.031 0.686-0.058 1.029-0.086 0.943-0.081 1.885-0.169 2.829-0.241 0.478-0.035 0.956-0.039 1.435-0.055 0.211-0.007 0.226-0.039 0.229-0.247 0.004-0.514-0.003-1.026 0.055-1.54 0.065-0.576 0.067-1.16 0.091-1.739 0.008-0.194-0.040-0.239-0.23-0.246-0.383-0.013-0.761-0.003-1.131 0.128-0.222 0.078-0.434 0.044-0.616-0.122-0.038-0.034-0.091-0.061-0.141-0.069-0.27-0.046-0.541-0.101-0.812-0.12-0.2-0.013-0.409 0.005-0.607 0.044-0.23 0.044-0.456 0.087-0.682 0.004-0.443-0.163-0.899-0.126-1.355-0.12-0.257 0.004-0.514-0.016-0.769-0.043-0.095-0.009-0.187-0.067-0.281-0.104 0.004-0.007 0.007-0.023 0.009-0.038zM19.773 16.487c0.015-0.003 0.030-0.005 0.044-0.008 0.016 0.035 0.038 0.070 0.046 0.108 0.034 0.141 0.073 0.282 0.090 0.425 0.016 0.124 0.077 0.167 0.192 0.163 0.081-0.003 0.161 0.001 0.242 0.003 0.802 0.003 1.602 0.004 2.404 0.008 0.105 0 0.198 0.007 0.219-0.144 0.061-0.425 0.133-0.847 0.204-1.271 0.073-0.428 0.199-0.846 0.16-1.29-0.032-0.374-0.038-0.751-0.054-1.127-0.005-0.113-0.007-0.226-0.015-0.338-0.007-0.097-0.054-0.155-0.161-0.164-0.242-0.020-0.482-0.042-0.71 0.075-0.048 0.026-0.114 0.024-0.172 0.023-0.451-0.007-0.901-0.019-1.352-0.023-0.221-0.001-0.237 0.022-0.172 0.233 0.042 0.137 0.023 0.222-0.133 0.266-0.075 0.022-0.135 0.101-0.198 0.157-0.055 0.050-0.1 0.116-0.16 0.159-0.132 0.091-0.211 0.051-0.221-0.109-0.007-0.118 0.004-0.237-0.004-0.355-0.015-0.207-0.136-0.343-0.309-0.347-0.436-0.008-0.872-0.018-1.297 0.102-0.206 0.058-0.4 0.056-0.585-0.074-0.059-0.042-0.139-0.067-0.211-0.070-0.284-0.015-0.569-0.022-0.853-0.024-0.117-0.001-0.163 0.070-0.135 0.183 0.026 0.104 0.061 0.206 0.083 0.311 0.082 0.386 0.106 0.764-0.141 1.112-0.062 0.087-0.089 0.207-0.104 0.316-0.038 0.264-0.046 0.531-0.089 0.794-0.069 0.409-0.074 0.8 0.167 1.164 0.054 0.082 0.082 0.187 0.102 0.285 0.024 0.117 0.083 0.161 0.199 0.161 0.876 0.007 1.753 0.016 2.628 0.027 0.118 0.001 0.178-0.044 0.195-0.163 0.027-0.19 0.065-0.378 0.098-0.568zM16.159 19.435c0.083 0.765 0.159 1.45 0.233 2.133 0.013 0.125 0.087 0.167 0.21 0.171 0.759 0.017 1.516 0.042 2.273 0.061 0.135 0.004 0.269 0.001 0.402-0.013 0.261-0.028 0.342-0.122 0.365-0.382 0.009-0.1 0.024-0.204 0.062-0.296s0.106-0.171 0.161-0.257c0.094 0.073 0.192 0.141 0.28 0.221 0.028 0.026 0.028 0.081 0.048 0.117 0.056 0.101 0.1 0.215 0.179 0.295 0.245 0.247 0.556 0.303 0.892 0.278 0.478-0.035 0.955-0.063 1.433-0.085 0.151-0.007 0.206-0.055 0.204-0.213-0.008-0.666-0.016-1.333-0.001-1.999 0.009-0.429 0.059-0.858 0.089-1.287 0.013-0.182-0.027-0.223-0.183-0.227-0.413-0.012-0.826-0.027-1.239-0.046-0.449-0.020-0.9-0.047-1.349-0.071-0.141-0.008-0.203 0.054-0.242 0.196-0.035 0.126-0.112 0.254-0.203 0.351-0.086 0.091-0.183 0.048-0.207-0.077-0.019-0.1-0.024-0.203-0.020-0.304 0.004-0.117-0.042-0.163-0.157-0.169-0.913-0.048-1.824-0.052-2.735 0.059-0.217 0.027-0.25 0.063-0.272 0.28-0.019 0.192-0.032 0.386-0.069 0.576-0.044 0.254-0.112 0.507-0.153 0.689zM11.538 16.67c0.090 0.153 0.18 0.3 0.261 0.451 0.048 0.090 0.106 0.136 0.214 0.135 0.962-0.015 1.925-0.027 2.887-0.036 0.114-0.001 0.168-0.048 0.163-0.165-0.013-0.355-0.032-0.709-0.032-1.064 0-0.418-0.004-0.838 0.031-1.255 0.035-0.408 0.090-0.81-0.003-1.217-0.030-0.13-0.011-0.278 0.015-0.413 0.034-0.18 0.011-0.229-0.172-0.226-0.28 0.003-0.56 0.004-0.838 0.019-0.133 0.007-0.28 0.013-0.391 0.074-0.186 0.101-0.37 0.087-0.562 0.070-0.108-0.009-0.217-0.031-0.32-0.018-0.067 0.008-0.152 0.056-0.186 0.112-0.073 0.117-0.106 0.258-0.176 0.378-0.039 0.065-0.114 0.137-0.183 0.149-0.149 0.027-0.425-0.266-0.405-0.418 0.016-0.122-0.036-0.172-0.147-0.178-0.054-0.003-0.108 0.004-0.16 0.008-0.311 0.023-0.627 0.097-0.929 0.059-0.473-0.059-0.92 0.031-1.372 0.121-0.074 0.015-0.174 0.098-0.19 0.165-0.059 0.25-0.086 0.503 0.023 0.759 0.132 0.308 0.101 0.62 0.011 0.944-0.1 0.355-0.174 0.729-0.081 1.098 0.058 0.233 0.139 0.455 0.136 0.702-0.001 0.11 0.069 0.225 0.116 0.332 0.012 0.028 0.063 0.055 0.095 0.055 0.522-0.005 1.043-0.012 1.564-0.023 0.32-0.007 0.359-0.040 0.396-0.355 0.013-0.14 0.071-0.233 0.237-0.262zM14.902 21.701c-0.016-0.081-0.028-0.133-0.035-0.186-0.026-0.202-0.077-0.405-0.067-0.605 0.013-0.288 0.078-0.573 0.109-0.861 0.077-0.702 0.319-1.384 0.245-2.105-0.013-0.128-0.040-0.184-0.176-0.183-0.301 0.004-0.603-0.016-0.903-0.001-0.2 0.011-0.398 0.069-0.599 0.097-0.174 0.024-0.348 0.050-0.523 0.047-0.278-0.005-0.557-0.039-0.837-0.050-0.178-0.007-0.198 0.026-0.168 0.198 0.012 0.074 0.042 0.151 0.031 0.222-0.012 0.077-0.046 0.19-0.1 0.211-0.097 0.039-0.183-0.032-0.221-0.136-0.027-0.075-0.054-0.152-0.074-0.23-0.038-0.144-0.118-0.198-0.273-0.175-0.243 0.036-0.496 0.094-0.736 0.067-0.37-0.042-0.728-0.007-1.091 0.042-0.313 0.042-0.328 0.051-0.394 0.361-0.007 0.031-0.012 0.063-0.013 0.096-0.022 0.424-0.043 0.847-0.063 1.273-0.011 0.235-0.039 0.474-0.024 0.708 0.020 0.338 0.077 0.673 0.11 1.009 0.023 0.222 0.036 0.235 0.253 0.226 0.591-0.027 1.182-0.070 1.773-0.067 0.284 0.001 0.433-0.090 0.517-0.355 0.058-0.186 0.157-0.358 0.238-0.537 0.018 0 0.034-0.001 0.051-0.001 0.043 0.075 0.098 0.148 0.126 0.229 0.042 0.121 0.059 0.25 0.094 0.375 0.074 0.265 0.16 0.331 0.437 0.331 0.586 0.001 1.173 0.001 1.759 0.001 0.176 0.001 0.354 0.001 0.553 0.001zM14.54 8.741c0.187-0.018 0.348-0.027 0.507-0.048 0.047-0.007 0.125-0.040 0.129-0.071 0.020-0.137 0.051-0.287 0.018-0.416-0.050-0.195-0.231-0.268-0.414-0.313-0.094-0.023-0.149 0.003-0.179 0.102-0.056 0.184-0.122 0.366-0.187 0.547-0.062 0.169-0.032 0.207 0.126 0.199zM8.071 8.379c-0.179-0.040-0.268 0.031-0.321 0.157-0.035 0.083-0.058 0.174-0.086 0.26-0.038 0.113 0.098 0.324 0.217 0.327 0.031 0 0.086-0.036 0.091-0.063 0.038-0.226 0.067-0.453 0.1-0.681zM15.248 10.653c0.022 0.005 0.043 0.009 0.065 0.015 0.063-0.036 0.128-0.071 0.191-0.108 0.001-0.019 0.003-0.038 0.005-0.055-0.083-0.019-0.167-0.038-0.25-0.056-0.005 0.069-0.008 0.136-0.011 0.204z"></path>
</svg>
