<!-- Generated by IcoMoon.io -->
<svg version="1.1" xmlns="http://www.w3.org/2000/svg" width="32" height="32" viewBox="0 0 32 32">
<title>factions-chaos-tzeentch-arcanites</title>
<path fill="#fff" d="M14.537 15.961c-0.195 0.302-0.478 0.189-0.738 0.114-0.227-0.065-0.44-0.167-0.684-0.176-0.117-0.003-0.231-0.064-0.348-0.091-0.42-0.1-0.839-0.198-1.26-0.293-0.296-0.066-0.59-0.146-0.891-0.18-0.186-0.022-0.381 0.033-0.585 0.055 0.074 0.16 0.061 0.323 0.16 0.472 0.082 0.123 0.087 0.3 0.116 0.455 0.071 0.375 0.12 0.755 0.205 1.128 0.11 0.478 0.253 0.947 0.367 1.423 0.079 0.336 0.085 0.681-0.066 1-0.098 0.208-0.299 0.332-0.51 0.396-0.289 0.088-0.589 0.14-0.885 0.204-0.24 0.052-0.484 0.088-0.719 0.152-0.23 0.062-0.449 0.143-0.66 0.274-0.329 0.205-0.696 0.351-1.045 0.523-0.004 0.001-0.007 0.003-0.012 0.004-0.261 0.105-0.274 0.152-0.111 0.384 0.090 0.127 0.172 0.26 0.263 0.387 0.040 0.058 0.085 0.116 0.139 0.159 0.302 0.251 0.603 0.504 0.914 0.745 0.232 0.18 0.476 0.345 0.715 0.517 0.218 0.157 0.445 0.306 0.651 0.476 0.133 0.11 0.237 0.253 0.357 0.384 0.137-0.017 0.273 0.091 0.32 0.26 0.077 0.276 0.154 0.552 0.232 0.827 0.004 0.016 0.012 0.032 0.012 0.049 0.004 0.143 0.007 0.286 0.010 0.429-0.186 0.121-0.352 0.29-0.59 0.297-0.075 0.001-0.156-0.045-0.227-0.082-0.11-0.061-0.214-0.134-0.319-0.202-0.052-0.033-0.102-0.068-0.156-0.1-0.061-0.036-0.118-0.094-0.182-0.101-0.248-0.025-0.417-0.199-0.616-0.31-0.279-0.156-0.549-0.325-0.821-0.489-0.1-0.061-0.201-0.118-0.295-0.186-0.25-0.179-0.5-0.357-0.742-0.544-0.183-0.141-0.357-0.297-0.537-0.445-0.095-0.079-0.196-0.152-0.29-0.232-0.303-0.257-0.608-0.512-0.806-0.872-0.111-0.202-0.257-0.387-0.456-0.52-0.048-0.032-0.085-0.087-0.113-0.139-0.097-0.183-0.208-0.362-0.276-0.556-0.064-0.18-0.201-0.3-0.289-0.453-0.105-0.18-0.198-0.384-0.182-0.612 0.004-0.059-0.007-0.134-0.042-0.178-0.105-0.13-0.090-0.277-0.098-0.426-0.006-0.095-0.045-0.189-0.071-0.283-0.025-0.090-0.056-0.176-0.077-0.267-0.026-0.12-0.019-0.254-0.071-0.361-0.085-0.175-0.069-0.355-0.092-0.534-0.013-0.101-0.068-0.198-0.103-0.296-0.016-0.045-0.036-0.092-0.038-0.139-0.007-0.774-0.010-1.548-0.010-2.321 0-0.048 0.004-0.107 0.032-0.141 0.107-0.134 0.101-0.293 0.118-0.45 0.007-0.071 0.039-0.139 0.064-0.206 0.010-0.027 0.039-0.049 0.042-0.075 0.026-0.18 0.118-0.344 0.156-0.514 0.052-0.232 0.144-0.436 0.266-0.632 0.013-0.020 0.030-0.046 0.029-0.068-0.006-0.212 0.107-0.391 0.189-0.572 0.097-0.212 0.227-0.416 0.371-0.599 0.449-0.57 0.986-1.048 1.605-1.425 0.463-0.283 0.938-0.552 1.425-0.793 0.378-0.188 0.785-0.318 1.172-0.489 0.443-0.196 0.862-0.435 1.178-0.816 0.375-0.453 0.634-0.954 0.642-1.558 0.006-0.358 0-0.716 0.013-1.073 0.009-0.251 0.022-0.505 0.064-0.754 0.030-0.182 0.104-0.358 0.17-0.533 0.068-0.178 0.154-0.348 0.225-0.524 0.064-0.16 0.114-0.325 0.179-0.484 0.062-0.152 0.144-0.284 0.274-0.401 0.199-0.179 0.364-0.397 0.541-0.599 0.068-0.078 0.136-0.157 0.198-0.24 0.045-0.058 0.081-0.123 0.121-0.185 0.020-0.030 0.038-0.065 0.062-0.090 0.032-0.032 0.077-0.053 0.107-0.087 0.345-0.374 0.826-0.383 1.275-0.453 0.599-0.094 1.205-0.104 1.813-0.103 0.381 0.001 0.764-0.023 1.143-0.058 0.196-0.017 0.393-0.065 0.582-0.126 0.323-0.104 0.666-0.167 0.944-0.372 0.182-0.134 0.361-0.279 0.517-0.443 0.235-0.25 0.445-0.525 0.676-0.78 0.039-0.042 0.133-0.046 0.201-0.043 0.019 0.001 0.048 0.088 0.049 0.136 0.007 0.141 0 0.283 0.003 0.424 0.003 0.234-0.133 0.416-0.228 0.611-0.116 0.241-0.277 0.449-0.459 0.647-0.18 0.196-0.31 0.442-0.495 0.635-0.156 0.163-0.357 0.282-0.54 0.417-0.017 0.013-0.048 0.012-0.072 0.012-0.176 0.009-0.313 0.101-0.442 0.208-0.071 0.058-0.13 0.137-0.209 0.175-0.372 0.179-0.619 0.481-0.836 0.816-0.016 0.025-0.042 0.049-0.043 0.075-0.016 0.308-0.204 0.572-0.198 0.888 0.007 0.436-0.017 0.872-0.040 1.308-0.022 0.401 0.102 0.768 0.231 1.139 0.108 0.313 0.209 0.635 0.251 0.961 0.029 0.227-0.032 0.471-0.087 0.7-0.166 0.693-0.583 1.259-0.943 1.857-0.179 0.297-0.474 0.432-0.697 0.66-0.29 0.296-0.593 0.585-0.859 0.901-0.225 0.269-0.334 0.605-0.355 0.956-0.022 0.352-0.046 0.704 0.043 1.055 0.078 0.305 0.244 0.556 0.455 0.777 0.196 0.211 0.416 0.401 0.628 0.603z"></path>
<path fill="#fff" d="M8.094 21.908c0.156-0.211 0.414-0.287 0.676-0.364 0.31-0.091 0.618-0.189 0.925-0.29 0.391-0.127 0.78-0.261 1.169-0.391 0.14-0.046 0.289-0.077 0.42-0.14 0.075-0.036 0.134-0.12 0.183-0.192 0.081-0.12 0.153-0.247 0.217-0.377 0.075-0.152 0.154-0.306 0.196-0.468 0.020-0.081-0.043-0.18-0.061-0.274-0.010-0.055-0.003-0.111-0.003-0.167-0.001-0.078 0.016-0.16-0.006-0.232-0.118-0.398-0.243-0.795-0.374-1.19-0.154-0.465-0.321-0.927-0.475-1.39-0.019-0.055-0.026-0.149 0.004-0.178 0.059-0.056 0.131-0.126 0.241-0.075 0.162 0.075 0.338 0.121 0.492 0.209 0.387 0.222 0.807 0.309 1.243 0.359 0.085 0.010 0.169 0.062 0.245 0.107 0.143 0.082 0.273 0.191 0.423 0.257 0.121 0.053 0.263 0.075 0.396 0.079 0.186 0.006 0.357 0.033 0.518 0.14 0.202 0.133 0.437 0.035 0.531-0.205 0.133-0.344 0.261-0.692 0.397-1.034 0.042-0.107 0.111-0.204 0.157-0.31 0.149-0.342 0.294-0.686 0.439-1.029 0.131-0.313 0.26-0.629 0.393-0.943 0.068-0.16 0.14-0.319 0.222-0.472 0.022-0.040 0.085-0.079 0.13-0.081 0.072-0.001 0.143 0.019 0.167 0.116 0.162 0.621 0.41 1.21 0.658 1.8 0.030 0.072 0.043 0.152 0.068 0.227 0.121 0.362 0.245 0.723 0.364 1.086 0.058 0.176 0.088 0.365 0.167 0.533 0.143 0.299 0.352 0.54 0.681 0.657 0.128 0.046 0.254 0.111 0.362 0.193 0.131 0.101 0.251 0.064 0.387 0.026 0.202-0.058 0.407-0.104 0.614-0.149 0.606-0.131 1.24-0.156 1.805-0.456 0.043-0.023 0.095-0.056 0.139-0.051 0.066 0.009 0.137 0.038 0.191 0.078 0.020 0.014 0.012 0.090-0.004 0.13-0.134 0.331-0.282 0.657-0.409 0.99-0.074 0.192-0.114 0.396-0.179 0.592-0.104 0.313-0.237 0.619-0.32 0.94-0.082 0.32-0.035 0.634 0.222 0.875 0.069 0.065 0.172 0.097 0.258 0.144 0.118 0.066 0.238 0.133 0.355 0.199 0.108 0.062 0.218 0.12 0.32 0.189 0.196 0.131 0.384 0.277 0.585 0.403 0.299 0.188 0.605 0.362 0.908 0.544 0.075 0.045 0.149 0.091 0.218 0.144 0.107 0.084 0.087 0.221-0.026 0.297-0.209 0.141-0.414 0.292-0.621 0.437-0.013 0.010-0.023 0.026-0.038 0.033-0.286 0.152-0.57 0.308-0.86 0.45-0.152 0.075-0.316 0.128-0.475 0.189-0.166 0.064-0.261 0.189-0.303 0.355s-0.088 0.329-0.221 0.45c-0.014 0.013-0.025 0.036-0.026 0.056-0.003 0.169-0.079 0.309-0.159 0.45-0.025 0.045-0.038 0.104-0.036 0.156 0.004 0.169-0.048 0.315-0.141 0.455-0.023 0.035-0.007 0.12 0.020 0.163 0.081 0.133 0.192 0.248 0.261 0.387 0.219 0.433 0.424 0.875 0.637 1.312 0.12 0.245 0.247 0.486 0.365 0.732 0.029 0.062 0.046 0.136 0.046 0.204 0 0.208-0.077 0.266-0.277 0.219-0.437-0.1-0.866-0.221-1.278-0.413-0.31-0.146-0.653-0.219-0.977-0.336-0.167-0.061-0.329-0.139-0.488-0.221-0.196-0.102-0.393-0.137-0.595-0.030-0.139 0.074-0.273 0.157-0.409 0.238-0.025 0.014-0.046 0.043-0.072 0.048-0.258 0.049-0.442 0.221-0.629 0.383-0.053 0.046-0.102 0.113-0.123 0.179-0.146 0.494-0.283 0.99-0.423 1.486-0.007 0.023-0.017 0.046-0.029 0.069-0.232 0.463-0.458 0.931-0.702 1.389-0.077 0.143-0.198 0.264-0.309 0.385-0.017 0.019-0.108 0.003-0.133-0.026-0.111-0.131-0.247-0.26-0.308-0.414-0.092-0.237-0.121-0.497-0.198-0.741-0.048-0.152-0.13-0.293-0.198-0.439-0.066-0.143-0.146-0.282-0.198-0.429-0.147-0.419-0.283-0.843-0.424-1.265-0.012-0.035-0.035-0.066-0.046-0.102-0.123-0.375-0.432-0.446-0.765-0.466-0.309-0.019-0.606 0.058-0.907 0.116-0.166 0.032-0.342 0.013-0.508 0.048-0.43 0.091-0.855 0.219-1.288 0.29-0.344 0.056-0.641 0.224-0.963 0.328-0.13 0.042-0.264 0.068-0.397 0.1-0.036 0.009-0.074 0.010-0.111 0.009-0.104-0.003-0.209-0.010-0.326-0.016-0.016-0.072-0.042-0.175-0.061-0.279-0.004-0.023 0.016-0.053 0.033-0.075 0.27-0.336 0.474-0.712 0.663-1.097 0.033-0.068 0.107-0.116 0.146-0.18 0.149-0.245 0.292-0.494 0.436-0.741 0.066-0.116 0.128-0.232 0.192-0.349 0.091-0.165 0.182-0.328 0.27-0.494 0.009-0.017 0.003-0.052-0.010-0.069-0.147-0.201-0.152-0.453-0.247-0.674-0.075-0.176-0.131-0.359-0.196-0.538-0.009-0.023-0.025-0.048-0.025-0.071 0.001-0.297-0.206-0.459-0.406-0.621-0.468-0.381-0.961-0.723-1.491-1.013-0.117-0.064-0.212-0.169-0.309-0.263-0.199-0.198-0.393-0.401-0.598-0.611zM16.559 25.182c0.422 0.029 0.785-0.102 1.096-0.388 0.069-0.064 0.149-0.118 0.231-0.163 0.491-0.266 0.769-0.671 0.829-1.227 0.009-0.081 0.027-0.165 0.058-0.24 0.165-0.422 0.159-0.836-0.029-1.249-0.029-0.064-0.048-0.134-0.055-0.202-0.051-0.491-0.283-0.869-0.693-1.142-0.078-0.052-0.152-0.116-0.215-0.186-0.306-0.336-0.684-0.502-1.139-0.505-0.185-0.001-0.372 0.001-0.556-0.016-0.534-0.051-0.957 0.189-1.358 0.498-0.068 0.052-0.141 0.101-0.219 0.139-0.557 0.27-0.849 0.712-0.879 1.33-0.004 0.090-0.019 0.182-0.043 0.269-0.068 0.244-0.097 0.486-0.030 0.738 0.039 0.144 0.078 0.292 0.085 0.439 0.022 0.453 0.186 0.834 0.538 1.123 0.234 0.192 0.474 0.381 0.729 0.544 0.388 0.247 0.811 0.381 1.282 0.29 0.123-0.026 0.247-0.035 0.37-0.051z"></path>
<path fill="#fff" d="M27.677 16.959c0.123 0.001 0.232 0.036 0.305 0.136 0.306 0.424 0.605 0.855 0.774 1.358 0.038 0.114 0.072 0.23 0.117 0.342 0.088 0.218 0.136 0.439 0.13 0.678-0.009 0.361 0.007 0.723 0.012 1.084 0 0.049 0.004 0.104-0.014 0.147-0.143 0.335-0.14 0.693-0.191 1.044-0.045 0.309-0.143 0.616-0.258 0.91-0.217 0.55-0.507 1.064-0.84 1.553-0.117 0.172-0.282 0.279-0.433 0.407-0.234 0.198-0.469 0.397-0.689 0.609-0.328 0.316-0.65 0.635-1.088 0.795-0.312 0.114-0.624 0.227-0.938 0.335-0.165 0.056-0.335 0.092-0.497 0.154-0.123 0.048-0.232 0.126-0.352 0.182-0.266 0.124-0.544 0.196-0.839 0.217-0.075 0.004-0.117-0.026-0.157-0.092-0.163-0.271-0.244-0.57-0.319-0.873-0.014-0.056-0.026-0.114-0.048-0.167-0.105-0.274-0.035-0.462 0.166-0.664 0.218-0.219 0.485-0.322 0.758-0.43 0.090-0.036 0.176-0.1 0.243-0.17 0.205-0.217 0.396-0.446 0.602-0.661 0.111-0.117 0.232-0.227 0.364-0.32 0.234-0.167 0.349-0.417 0.491-0.65 0.023-0.038 0.029-0.107 0.010-0.143-0.081-0.146-0.053-0.3-0.045-0.452 0.006-0.102-0.029-0.154-0.118-0.204-0.338-0.188-0.673-0.378-1-0.582-0.271-0.167-0.527-0.362-0.798-0.53-0.292-0.179-0.593-0.344-0.894-0.507-0.131-0.072-0.154-0.179-0.038-0.273 0.113-0.090 0.231-0.14 0.388-0.133 0.359 0.017 0.719 0.030 1.077-0.062 0.149-0.038 0.315-0.019 0.472-0.004 0.566 0.052 1.129 0.141 1.695 0.165 0.492 0.020 0.94-0.152 1.253-0.554 0.133-0.17 0.219-0.381 0.305-0.582 0.107-0.253 0.225-0.508 0.271-0.774 0.055-0.313 0.23-0.603 0.192-0.933-0.013-0.117-0.043-0.232-0.066-0.357z"></path>
</svg>
