<svg id="Layer_1" data-name="Layer 1" xmlns="http://www.w3.org/2000/svg" viewBox="0 0 87.77 84.82"><defs><style>.cls-1{fill:#fff;}</style></defs><path class="cls-1" d="M1052,256.09a4.33,4.33,0,0,1-.49.29c-1.72.73-3.6,1.06-5.09,2.33-.27.22-.81.09-1.19.22a3.38,3.38,0,0,0-2.69,3,31,31,0,0,1-6.52,15.31,2.28,2.28,0,0,0-.56,2.42c.41,1.28.25,2.75,1.09,4,.12.18.06.48.07.73,0,.77-.23,1-1,.77a19,19,0,0,1-3.29-.91,3.28,3.28,0,0,0-4,.78,9.54,9.54,0,0,1-3.49,2.26c-1.29.49-2.24,1.5-3.75,1.72a22.18,22.18,0,0,0-5.26,1.91,2.38,2.38,0,0,0-1.14,1.12c-.89,1.92-1.68,3.89-2.55,5.82-.09.2-.48.26-.73.39-.08-.22-.29-.49-.23-.64.7-1.62.29-3.15,0-4.8a38,38,0,0,1-.09-6.23c0-1.05,1-1.06,1.6-1.25,1.54-.5,3.21-.65,4.71-1.24a33.37,33.37,0,0,0,8.48-4.72,33.72,33.72,0,0,0,7.54-8.68,11.17,11.17,0,0,0,1.06-2.17c.76-2.14,1.5-4.3,2.17-6.47a8.91,8.91,0,0,0,.37-2.41c.06-1.83,0-3.66,0-5.49a17,17,0,0,0-1.17-6.21c-.51-1.36-.61-2.84-1.33-4.17a35.27,35.27,0,0,0-7-9.68,29.14,29.14,0,0,0-7.27-5,20.86,20.86,0,0,0-7.64-2.16c-.74,0-1-.34-1.07-1s-.43-1.09-.43-1.64c0-3.16,0-6.33,0-9.49a2.77,2.77,0,0,1,.36-.84c.28.23.68.4.81.69.75,1.71,1.48,3.44,2.14,5.19a3.15,3.15,0,0,0,2.58,2,28.35,28.35,0,0,1,11.52,5.6c1.65,1.31,3.33,1.94,5.41.81a12.6,12.6,0,0,1,3-.75c.74,1-.09,1.88-.26,2.8a11.22,11.22,0,0,1-.7,2.07,2.65,2.65,0,0,0,.4,3,26,26,0,0,1,4.4,8.11,31,31,0,0,1,2,7.28,2.72,2.72,0,0,0,1.9,2.36c2.29.85,4.54,1.82,6.8,2.74C1051.52,255.88,1051.71,256,1052,256.09Z" transform="translate(-964.18 -213.94)"/><path class="cls-1" d="M1003.64,298.75c-.33-.16-.54-.21-.55-.27-.18-2.39-1.92-4.14-2.58-6.33,0-.07,0-.19,0-.24-.31-.34-.57-.85-1-1-2.06-.73-4.21-1.23-6.21-2.1a27.23,27.23,0,0,1-5.55-3.06c-3.54-2.63-3.47-2.71-7.67-1.42-.59.18-1.48.53-1.78.27-.59-.52-.26-1.33.08-2,.19-.43,0-1.05.24-1.44,1.23-2.11.4-4-.8-5.61a33.46,33.46,0,0,1-4.51-9.65,19.88,19.88,0,0,1-.76-3.82c-.23-1.85-.77-2.72-2.55-3.1s-3.35-1.53-5-2.34c-.29-.15-.55-.34-.82-.5a3.94,3.94,0,0,1,.89-.8c1-.49,2.1-.88,3.14-1.36a34,34,0,0,0,3.47-1.73,2,2,0,0,0,.82-1.36,37.85,37.85,0,0,1,2.5-9.15c1.1-2.8,2.92-5.09,4.51-7.54a1.86,1.86,0,0,0,.16-2,25.94,25.94,0,0,1-1.12-4.22c-.19-.89.13-1.09,1.1-.84.71.17,1.41.37,2.12.56,3,.82,4,.62,6.48-1.3a21.5,21.5,0,0,1,8.56-4.06,8.4,8.4,0,0,0,.91-.34c2.64-.84,2.63-.84,3.62-3.25.46-1.13.95-2.25,1.42-3.38.19-.44.37-.88.55-1.32.1.45.18.91.31,1.35.63,2.18-.33,4.35,0,6.52.15,1.05.23,2.11.37,3.16a1.66,1.66,0,0,1-1.36,1.89c-1.21.18-2.42.33-3.63.52a2.7,2.7,0,0,0-.93.27c-2.38,1.24-4.85,2.33-7.1,3.78a27.15,27.15,0,0,0-8.84,9.48c-.77,1.33-1.58,2.64-2.26,4a10.73,10.73,0,0,0-.7,2.32c-.08.32.07.71-.06,1-1.71,3.81-1,7.85-.84,11.76a16.69,16.69,0,0,0,1.87,7c1.22,2.41,2.12,5,4,7a63.82,63.82,0,0,0,5.5,5.65,26.5,26.5,0,0,0,5.34,3.45,29,29,0,0,0,4.86,1.57c.77.23,1.58.34,2.38.53,1.8.42,2.32,1.52,1.89,2.87-.71,2.21-.33,4.43-.4,6.65,0,.78.39,1.58.43,2.38A5.53,5.53,0,0,1,1003.64,298.75Z" transform="translate(-964.18 -213.94)"/><path class="cls-1" d="M1007.05,254.1c.83.28,1.53.46,2.2.74,1.28.53,2.55,1.1,3.8,1.69s2.77,1.34,4.12,2.09c1.62.9,3.2,1.88,4.78,2.85.47.3.72.69.14,1.15-.13.11-.24.23-.36.35-1.76,1.85-1.74,1.82-3.9.15a14.52,14.52,0,0,0-2.29-1.41c-2.53-1.3-5.09-2.55-7.63-3.84a1.36,1.36,0,0,0-1.55-.11c-2.82,1.58-5.67,3.11-8.57,4.55-.89.45-.69.81-.17,1.23,1.35,1.06,2.74,2.06,4.11,3.09.72.54,1.42,1.1,2.12,1.66,1.41,1.15,2.08,1.22,3.53.32a24,24,0,0,1,2.08-1.3c.76-.37.5-.78.09-1.1a18.26,18.26,0,0,0-2-1.31c-.64-.37-1.33-.64-2-1-1.73-1-1.56-1-.12-2.38s2.58-.5,3.57.05c2.2,1.23,4.22,2.78,6.32,4.19.2.14.38.33.59.45.38.23,1,.35,1.12.67.32.75-.32,1.24-.83,1.63-2.52,1.91-5.15,3.67-7.56,5.7a2,2,0,0,1-2.87.05c-3.26-2.31-6.46-4.71-9.68-7.08a10.35,10.35,0,0,0-2.18-1.57c-1.63-.58-1.35-1.83-1.39-3.06s.79-1.86,1.81-2.36c3.43-1.7,6.84-3.46,10.27-5.16A25.38,25.38,0,0,1,1007.05,254.1Z" transform="translate(-964.18 -213.94)"/><path class="cls-1" d="M992.9,251.86a18.9,18.9,0,0,1,.6-1.94q1-2.37,2.06-4.7a3.36,3.36,0,0,1,.77-1c.66-.61,1.36-1.19,2-1.79a19.75,19.75,0,0,1,.23,2.65,12.89,12.89,0,0,0,1.07,5.48,3.51,3.51,0,0,1-.33,3.21,15.42,15.42,0,0,0-1.49,2.47c-.4,1.13-1.12,1.05-2.3.44C993.59,255.72,993.2,254,992.9,251.86Z" transform="translate(-964.18 -213.94)"/><path class="cls-1" d="M1007.6,240.2c-.75,1.36-.41,3-.49,4.5a9,9,0,0,0,.72,4.55,1.66,1.66,0,0,1-.65,2.47,10.3,10.3,0,0,0-.86.77c-.55.42-1.44,1.26-1.65,1.12a21.44,21.44,0,0,1-3.11-2.69c-.14-.14,0-.63.1-.93.61-2.18,1.09-4.41,1.9-6.51a28,28,0,0,1,2.52-4.44c.16-.26.75-.54.92-.43s.43.63.59,1A1.89,1.89,0,0,1,1007.6,240.2Z" transform="translate(-964.18 -213.94)"/><path class="cls-1" d="M1013.65,251.12c-.23,1-.4,2-.71,3a.87.87,0,0,1-1.56.33c-1.28-1.54-2.25-3.16-1.58-5.34a34.63,34.63,0,0,0,.69-3.84,11,11,0,0,1,.51-2.13c.25-.63.76-1.73,1-1.69,1.07.16.57,1.19.55,1.81a20.91,20.91,0,0,0,.91,6.29A10.08,10.08,0,0,1,1013.65,251.12Z" transform="translate(-964.18 -213.94)"/><path class="cls-1" d="M1019.13,253.65c-.14.51-.33,1.38-.59,2.23-.19.59-.52.52-1,.06-1.82-1.62-2.07-3.65-2.11-6a12.09,12.09,0,0,1,1.8-6c.1-.2.37-.3.57-.45.11.27.24.52.33.79a2.07,2.07,0,0,1,0,.5,19,19,0,0,0,.95,7.49A6.44,6.44,0,0,1,1019.13,253.65Z" transform="translate(-964.18 -213.94)"/></svg>