<svg id="Layer_1" data-name="Layer 1" xmlns="http://www.w3.org/2000/svg" viewBox="0 0 88.05 85.51"><defs><style>.cls-1{fill:#fff;}</style></defs><path class="cls-1" d="M570.89-301.92c0-1.83,0-3.66,0-5.49a1.42,1.42,0,0,1,1.37-1.67c.16,0,.3-.2.45-.19,2.7.18,4.85-1.51,7.25-2.29a15.45,15.45,0,0,0,5.25-3.16,60.72,60.72,0,0,0,6.46-6.76,17.7,17.7,0,0,0,2.63-4.74c1.15-2.91,2.26-5.85,2.09-9.08a35.7,35.7,0,0,1,0-4.74c.37-4.73-1.13-9-3.46-12.94a30.43,30.43,0,0,0-11.2-11.3c-3-1.68-6.24-2.46-9.47-3.34-.83-.23-1.37-.34-1.36-1.33,0-3.82,0-7.65,0-11.48,0-.2.19-.41.29-.62a4.21,4.21,0,0,1,.38.59,52.44,52.44,0,0,1,2.38,5.65,2.52,2.52,0,0,0,2,1.88,35.18,35.18,0,0,1,13.37,6.69,2.35,2.35,0,0,0,2.27.42c1.41-.42,2.86-.68,4.31-1,.74-.15,1.07.23.86,1-.35,1.27-.77,2.52-1.1,3.79a3.65,3.65,0,0,0,.71,3.43,30.13,30.13,0,0,1,5.63,12.75c.09.48.44,1,.38,1.41-.34,2.25,1.36,2.76,2.85,3.45s3,1.37,4.53,2a9.85,9.85,0,0,0,1.9.39c-.63.32-1.25.65-1.88,1a22.48,22.48,0,0,1-5.22,2.2c-1.25.27-1.9,1.18-2.15,2.66a38.67,38.67,0,0,1-4.43,12.47,33.19,33.19,0,0,1-2.43,3.7,2.26,2.26,0,0,0-.32,2.3,33.52,33.52,0,0,1,.76,3.61c.27,1.42,0,1.8-1.43,1.44a25.18,25.18,0,0,1-3.23-1.22,2.2,2.2,0,0,0-2.28.37c-2.78,1.88-5.53,3.82-8.76,4.88a2.6,2.6,0,0,0-.9.38c-1.58,1.37-4.4.37-5.39,2.87-.79,2-1.65,3.93-2.49,5.89a3.47,3.47,0,0,1-.39.58c-.09-.22-.27-.43-.27-.65,0-1.91,0-3.83,0-5.74Z" transform="translate(-523.68 381.05)"/><path class="cls-1" d="M563.59-374.44c0,1.83,0,3.66,0,5.49,0,.77-.25,1.15-1.11,1.3A28.81,28.81,0,0,0,545-357.79a25.74,25.74,0,0,0-5.91,11,.94.94,0,0,1-.06.24c-1.84,3.57-1.39,7.42-1.37,11.21a13,13,0,0,0,.49,2.66c1.38,6,3.92,11.42,8.53,15.58,2.91,2.62,5.89,5.24,9.9,6.32,1.72.46,3.26,1.42,5.15,1.57s1.86.46,1.87,2.25c0,3.33,0,6.66,0,10a4,4,0,0,1-.22.94c-.21-.21-.51-.38-.62-.64-.49-1.12-.9-2.28-1.37-3.42a11,11,0,0,0-1.16-2.45,3.73,3.73,0,0,0-1.77-1.14,39.65,39.65,0,0,1-9.55-4.2,28.18,28.18,0,0,1-4.28-2.85,2.07,2.07,0,0,0-1.54-.19c-1.29.23-2.55.62-3.84.88a8.43,8.43,0,0,1-1.59,0,14.66,14.66,0,0,1,.22-1.62,7.85,7.85,0,0,1,.56-1.63A4.11,4.11,0,0,0,538-318a25.86,25.86,0,0,1-3.91-7.11,53,53,0,0,1-2.06-7.82c-.3-1.75-1.36-2.27-2.72-2.8q-2.64-1-5.2-2.24c-.51-.25-.66-.72.09-1,2-.81,3.95-1.64,5.93-2.47A2.86,2.86,0,0,0,532-344a31.32,31.32,0,0,1,6.5-15.22,2.93,2.93,0,0,0,.62-3.21c-.49-1.2-.59-2.56-1-3.81-.24-.79,0-1.19.74-1.11a11.72,11.72,0,0,1,2.88.6,4.8,4.8,0,0,0,5.37-.93,24.68,24.68,0,0,1,8.05-4.21,15.56,15.56,0,0,1,2.57-.87c2.16-.32,3-1.88,3.59-3.64.41-1.16.84-2.31,1.31-3.44a3.2,3.2,0,0,1,.61-.73,3.29,3.29,0,0,1,.29.85C563.61-377.94,563.59-376.19,563.59-374.44Z" transform="translate(-523.68 381.05)"/><path class="cls-1" d="M557.88-332.43c.2-3.13.48-6.24,2.49-8.89.23-.31.15-.86.22-1.3a4.78,4.78,0,0,0-1.34-.12,5.26,5.26,0,0,0-1.62.59,2.51,2.51,0,0,1-2.8-.09c-.69-.44-1.39-.85-2.08-1.27a22,22,0,0,1,2.25-.37,3.93,3.93,0,0,0,3.85-2.93,4.36,4.36,0,0,0-1.68-5L557-352c-2.39-1.57-2.73-1.56-5,.12a3.7,3.7,0,0,1-.82.33c0-.39-.16-.86,0-1.15,1.46-2.52,5.38-3.31,8-2a6.33,6.33,0,0,1,3.63,3.82,7.19,7.19,0,0,1-.1,4.86c-.1.25.08.62.13.93a3.27,3.27,0,0,0,.85-.37,16.2,16.2,0,0,1,7.2-3.66c4-.69,8.07-.78,11.88,1.11.29.15.43.58.64.88-.38.1-.86.4-1.11.26-2.73-1.46-5.35-.8-8.15-.06a23.11,23.11,0,0,0-6.24,2.73,2.78,2.78,0,0,0-.92.81c-.21.32-.42.87-.28,1.11s.76.8,1.12.76a6,6,0,0,0,2.07-.69,10.27,10.27,0,0,1,10.32,0,10.43,10.43,0,0,1,5.5,6.64c1.76,6.91-1.87,12.78-8.23,14.09-6.77,1.4-11.49-2.08-13.43-8.38a8.52,8.52,0,0,1,.43-6.34,4.94,4.94,0,0,0,.67-1.84,1.9,1.9,0,0,0-.69-1.36c-.2-.16-.89.13-1.23.39a2.76,2.76,0,0,0-.61,1.06c-1.84,4.18-2.72,8.44-1.32,13a25.89,25.89,0,0,1,.59,3.3,15.5,15.5,0,0,1-2.3-2.94A16.53,16.53,0,0,1,557.88-332.43Zm25,0c.13-4.24-4.13-7.78-8-7.81-3.6,0-7.79,4.29-7.81,7.9s4.34,8.14,8,7.94C579-324.6,583.1-328.12,582.87-332.41Z" transform="translate(-523.68 381.05)"/><path class="cls-1" d="M581.58-332.24a6.44,6.44,0,0,1-6.67,6.51c-3.11.05-6.39-2.88-6.44-6.82,0-3.07,3.26-6.57,6.71-6.43S581.93-335.79,581.58-332.24Z" transform="translate(-523.68 381.05)"/></svg>