<svg id="Layer_1" data-name="Layer 1" xmlns="http://www.w3.org/2000/svg" viewBox="0 0 87.62 84.35"><defs><style>.cls-1{fill:#fff;}</style></defs><path class="cls-1" d="M945.69,70.83a25.9,25.9,0,0,0,0,3.74,7,7,0,0,1-1.8,5.46,43.89,43.89,0,0,0-4.32,6.24A3.57,3.57,0,0,1,937,88c-3.34.68-6.7,1.29-10,1.9a1.62,1.62,0,0,1-.91-.17,23.62,23.62,0,0,1-2.15-1.17c-1.8-1.09-3.57-2.23-5.37-3.32-2-1.2-3.59-2.59-3.48-5.24a9.07,9.07,0,0,0-.61-2.35c-.05-.19-.08-.53,0-.58a.82.82,0,0,1,.69-.09A7.83,7.83,0,0,1,917,78.15a5,5,0,0,0,4.1,1.32,4,4,0,0,1,1.24,0c2,.43,3.17-.82,4.07-2.22s1.34-2.8,2.48-3.94a.71.71,0,0,0-.56-1.2c-.75-.05-1.5,0-2.25,0a2.9,2.9,0,0,1-.82-.3,3,3,0,0,1,.38-.91c1.09-1.19,2.19-2.38,3.35-3.51.49-.47.45-.72,0-1.16-1.35-1.25-2.62-2.6-4-3.81a2.2,2.2,0,0,0-2.45-.52,54.32,54.32,0,0,1-6.11,1.62.72.72,0,0,1-.64-.17.74.74,0,0,1,0-.65c1.36-2.43,2.76-4.83,4.11-7.26.3-.52.53-1,1.26-.92,2.19.24,4.14-.84,6.24-1.14a46.52,46.52,0,0,0,7.16-1.42c2-.63,2.8-.16,3.75,1.7a29.68,29.68,0,0,0,5.16,7.7c2.23,2.21,2.28,4.6,2.22,7.26C945.67,69.34,945.69,70.09,945.69,70.83Zm-8.62-6.22h0a10,10,0,0,0-1.73,0c-1.43.25-3.27.34-3.83,1.66-.45,1,.91,2.24,1.56,3.33a2.85,2.85,0,0,0,.34.36c.31.4.6.41,1,0,1.46-1.66,2.94-3.29,4.39-4.95,0-.05-.12-.4-.2-.41C938.06,64.59,937.56,64.61,937.07,64.61Zm.5,14-.2-1.35c-.48.44-1,.85-1.43,1.33s-.46.87-.78,1.21-.26.62.05,1a1.56,1.56,0,0,0,1.95.57c.31-.17.3-1,.4-1.5A8.48,8.48,0,0,0,937.57,78.62Zm-7-1.88-.27-1.43c-.39.5-.79,1-1.19,1.49a6.21,6.21,0,0,0-.76,1c-.23.45-.32,1,.32,1.2s1.06.3,1.59.45c.1-.46.22-.91.3-1.37A11.2,11.2,0,0,0,930.58,76.74Zm2.63-1.14c-.15.14-.41.26-.46.43a3,3,0,0,0,0,1c.07.78.19,1.57.28,2.35,1.28-.06,1.08-1.52,1.9-2,.09,0,0-.66-.16-.81A12.46,12.46,0,0,0,933.21,75.6Z" transform="translate(-886.34 -28.61)"/><path class="cls-1" d="M933.08,106.55c0-1.83,0-3.66,0-5.49,0-.68.19-1,1-1.14a27.22,27.22,0,0,0,3.57-.73,28.33,28.33,0,0,0,12-6.72A39.65,39.65,0,0,0,955.77,85a4.92,4.92,0,0,0,.57-1.09c.79-2.39,1.57-4.78,2.31-7.19a7.9,7.9,0,0,0,.38-2.15c0-2.33,0-4.66,0-7A14.11,14.11,0,0,0,958,62.34c-.31-.83-.58-1.67-.86-2.52a24.64,24.64,0,0,0-5.85-9.52,31.36,31.36,0,0,0-7.77-5.84c-2.94-1.57-6.1-2.17-9.11-3.36a1.51,1.51,0,0,1-.79-.72,6.63,6.63,0,0,1-.51-2.13c-.06-2.82,0-5.65,0-8.48a2,2,0,0,1,.06-.74,1,1,0,0,1,.51-.41.46.46,0,0,1,.41.18,17.36,17.36,0,0,1,1,2c.59,1.44,1.07,2.91,1.69,4.32a2,2,0,0,0,1.06.89c1.23.41,2.51.67,3.75,1.06a28.25,28.25,0,0,1,7.84,4,13.5,13.5,0,0,1,1.77,1.31c1.2,1.24,2.53,1.18,4,.66a24.75,24.75,0,0,1,3.28-.87c.17,0,.64.47.66.76a7.13,7.13,0,0,1-1,4c-.7,1.3-.66,1.47.17,2.61a34.18,34.18,0,0,1,4.32,7.63,29.64,29.64,0,0,1,2.05,7.76,3,3,0,0,0,2.27,2.8c2.28.63,4.2,2.25,6.65,2.38.12,0,.23.17.35.26a2.11,2.11,0,0,1-.37.3,26.19,26.19,0,0,1-5.76,2.58A4.13,4.13,0,0,0,964.6,77a28.87,28.87,0,0,1-6,14.23c-1.53,1.92-1.06,3.51-.64,5.36.06.24.21.45.28.69.2.73.38,1.47.57,2.21a16.68,16.68,0,0,1-2.45,0,13,13,0,0,1-1.84-.65,3.86,3.86,0,0,0-3.47.49,49.73,49.73,0,0,1-8.77,4.73,14.9,14.9,0,0,1-3.5,1,2.39,2.39,0,0,0-2.11,1.74c-.71,1.8-1.52,3.57-2.29,5.35a3.61,3.61,0,0,1-.33.65.48.48,0,0,1-.41.18c-.2-.08-.46-.24-.5-.41a5.67,5.67,0,0,1-.07-1.24c0-1.58,0-3.16,0-4.74Z" transform="translate(-886.34 -28.61)"/><path class="cls-1" d="M900,98.48c.15-.54.32-1.08.45-1.63.23-1,.38-2.09.69-3.09a2.45,2.45,0,0,0-.45-2.42A29.28,29.28,0,0,1,896,82.26c-.63-2.18-.95-4.44-1.43-6.66a1.59,1.59,0,0,0-.5-1c-1.12-.65-2.28-1.22-3.46-1.77-1.38-.65-2.81-1.23-4.19-1.9a.93.93,0,0,1-.05-.78,12,12,0,0,1,1.55-.7c1.85-.81,3.68-1.68,5.56-2.43a1.68,1.68,0,0,0,1.12-1.69,23.26,23.26,0,0,1,2.29-8.44c.4-.8.58-1.71,1-2.48a56.48,56.48,0,0,1,3.43-5.35,2,2,0,0,0,.32-2.41,18.49,18.49,0,0,1-1.07-4c-.19-.92.14-1.14,1.07-.92,1.57.38,3.14.8,4.73,1.11a2,2,0,0,0,1.34-.29c1.94-1.2,3.79-2.57,5.77-3.68A37.65,37.65,0,0,1,918,37a5,5,0,0,1,1.4-.42c2.46-.22,3.49-1.88,4.19-4,.41-1.24,1-2.42,1.49-3.62.06-.13.22-.21.33-.32.08.15.23.29.22.43-.09,1.18,1.08,2.33.07,3.52.14,2.21-.42,4.45.33,6.65.35,1,.08,1.46-1.05,1.82-1.32.41-2.69.64-4,1a17.31,17.31,0,0,0-3.41,1.31c-2.94,1.62-6,3.15-8.24,5.72a8.94,8.94,0,0,1-1.23,1.23c-2.29,1.74-3.58,4.28-5,6.63-1.2,2-1.68,4.5-2.42,6.79-.87,2.74-.39,5.58-.52,8.37a20.06,20.06,0,0,0,2.07,9.49c.85,1.85,1.77,3.67,2.79,5.43a16.68,16.68,0,0,0,4.42,5.06c1.77,1.31,3.29,3,5.25,4.07,2.63,1.43,5.27,2.92,8.36,3.2a2.52,2.52,0,0,1,.73.08c2.23,1,2.43.25,2.34,3-.06,1.88.3,3.78-.41,5.66-.21.56.31,1.39.41,2.11.24,1.64-.22,2.91-.51,2.6a6.56,6.56,0,0,1-1.07-2c-.7-1.64-1.32-3.31-2.1-4.9-.21-.43-.87-.68-1.37-.9-1.5-.64-3.17-.54-4.68-1.34-3.31-1.75-6.81-3.17-9.62-5.75-.43-.39-.74-.34-1.3-.15-1.45.52-3,.75-4.44,1.28C900.29,99.43,900.07,99.32,900,98.48Z" transform="translate(-886.34 -28.61)"/></svg>