<!-- Generated by IcoMoon.io -->
<svg version="1.1" xmlns="http://www.w3.org/2000/svg" width="32" height="32" viewBox="0 0 32 32">
<title>fighters-fly</title>
<path fill="#fff" d="M22.107 0.001c0.16 0.019 0.322 0.033 0.481 0.062 0.081 0.014 0.157 0.055 0.23 0.107-0.289 0.27-0.599 0.416-0.989 0.385-0.18-0.014-0.37 0.010-0.544 0.056-0.381 0.101-0.755 0.23-1.132 0.347-0.049 0.015-0.1 0.041-0.148 0.035-0.352-0.041-0.674 0.069-0.983 0.204-0.463 0.201-0.952 0.311-1.435 0.452-0.48 0.14-0.942 0.341-1.41 0.518-0.219 0.082-0.441 0.163-0.656 0.257-0.085 0.037-0.159 0.104-0.231 0.164-0.117 0.098-0.218 0.221-0.347 0.299-0.665 0.406-1.337 0.8-2.005 1.201-0.105 0.063-0.217 0.13-0.291 0.223-0.16 0.198-0.371 0.3-0.602 0.38-0.112 0.038-0.219 0.086-0.331 0.126-0.124 0.045-0.198 0.128-0.253 0.249-0.047 0.104-0.126 0.198-0.204 0.284-0.058 0.063-0.131 0.117-0.207 0.159-0.688 0.382-1.142 1.004-1.625 1.594-0.071 0.087-0.092 0.212-0.144 0.317-0.065 0.135-0.117 0.286-0.212 0.397-0.166 0.193-0.18 0.397-0.11 0.619 0.045 0.142 0.178 0.184 0.329 0.104 0.245-0.13 0.481-0.273 0.728-0.399 0.429-0.219 0.864-0.426 1.292-0.644 0.687-0.348 1.433-0.438 2.183-0.524 0.652-0.074 1.303-0.168 1.956-0.231 1.028-0.099 2.057-0.153 3.086-0.014 0.92 0.124 1.848 0.205 2.756 0.386 1.104 0.221 2.184 0.549 3.256 0.903 1.042 0.345 1.924 0.924 2.706 1.679 0.443 0.427 0.907 0.833 1.359 1.251 0.053 0.049 0.087 0.116 0.13 0.175-0.010 0.017-0.021 0.033-0.029 0.051-0.060-0.015-0.13-0.017-0.181-0.047-0.502-0.298-1.005-0.595-1.5-0.903-0.33-0.205-0.656-0.421-0.97-0.649-0.359-0.259-0.726-0.5-1.163-0.613-0.035-0.009-0.068-0.024-0.1-0.039-0.248-0.11-0.499-0.184-0.776-0.212-0.302-0.031-0.613-0.11-0.885-0.24-0.25-0.119-0.495-0.164-0.764-0.199-0.313-0.041-0.613-0.166-0.925-0.221-0.656-0.117-1.317-0.2-1.971-0.322-0.553-0.103-1.106-0.162-1.667-0.141-0.154 0.005-0.307 0.021-0.461 0.028-0.429 0.021-0.86 0.024-1.286 0.065-0.311 0.029-0.613 0.14-0.923 0.158-0.779 0.042-1.496 0.334-2.243 0.503-0.145 0.033-0.291 0.064-0.431 0.113-0.231 0.078-0.457 0.169-0.685 0.257-0.124 0.047-0.25 0.091-0.371 0.145-0.195 0.086-0.397 0.163-0.577 0.272-0.237 0.144-0.458 0.305-0.751 0.33-0.153 0.013-0.54 0.521-0.526 0.676 0.005 0.050 0.063 0.11 0.112 0.135 0.050 0.026 0.121 0.017 0.181 0.018 0.642 0.014 1.283 0.022 1.924 0.045 0.244 0.009 0.486 0.059 0.73 0.086 0.112 0.013 0.225 0.022 0.336 0.018 0.295-0.010 0.581 0.027 0.861 0.127 0.168 0.060 0.345 0.094 0.518 0.141 1.021 0.286 2.038 0.586 2.99 1.065 0.339 0.171 0.681 0.336 1.006 0.531 0.368 0.222 0.721 0.47 1.073 0.717 0.214 0.15 0.408 0.329 0.62 0.481 0.87 0.624 1.567 1.413 2.183 2.279 0.033 0.047 0.046 0.11 0.069 0.167-0.015 0.013-0.031 0.026-0.046 0.039-0.055-0.036-0.116-0.067-0.167-0.109-0.706-0.572-1.408-1.149-2.115-1.718-0.508-0.409-1.095-0.679-1.689-0.938-0.348-0.151-0.683-0.331-1.029-0.481-0.23-0.099-0.47-0.176-0.708-0.252-0.508-0.159-1.020-0.309-1.528-0.467-0.561-0.175-1.12-0.355-1.681-0.533-0.044-0.014-0.092-0.030-0.135-0.022-0.33 0.060-0.639-0.062-0.957-0.094-0.232-0.024-0.47-0.017-0.705-0.005-0.338 0.017-0.672 0.047-1.009 0.077-0.096 0.008-0.193 0.026-0.287 0.046-0.219 0.047-0.439 0.098-0.657 0.151-0.073 0.018-0.157 0.039-0.208 0.087-0.044 0.042-0.047 0.126-0.069 0.191 0.059 0.018 0.121 0.056 0.177 0.051 0.261-0.028 0.517-0.081 0.778-0.101 0.903-0.072 1.8-0.077 2.682 0.189 0.458 0.137 0.914 0.276 1.328 0.52 0.366 0.216 0.788 0.253 1.177 0.393 0.939 0.336 1.91 0.588 2.81 1.033 0.201 0.1 0.416 0.175 0.622 0.264 0.443 0.193 0.814 0.476 1.074 0.888 0.046 0.073 0.087 0.151 0.117 0.232 0.064 0.18 0.005 0.298-0.176 0.361-0.072 0.024-0.153 0.028-0.222 0.059-0.068 0.030-0.145 0.069-0.182 0.127-0.059 0.090-0.072 0.209-0.212 0.235-0.019 0.004-0.037 0.11-0.026 0.162 0.081 0.386 0.018 0.52-0.352 0.685-0.127 0.056-0.187 0.145-0.196 0.284-0.035 0.529-0.337 0.919-0.851 1.065-0.39 0.11-0.572 0.397-0.679 0.748-0.064 0.213 0.005 0.415 0.176 0.556 0.205 0.169 0.425 0.321 0.639 0.479 0.053 0.038 0.109 0.072 0.191 0.127-0.083 0.065-0.142 0.142-0.217 0.166-0.44 0.137-0.882 0.266-1.326 0.391-0.082 0.023-0.173 0.022-0.259 0.024-0.358 0.012-0.716 0.035-1.073 0.026-0.295-0.008-0.589-0.063-0.885-0.083-0.276-0.018-0.556-0.049-0.826-0.018-0.395 0.045-0.671-0.13-0.916-0.398-0.055-0.060-0.101-0.13-0.144-0.199-0.1-0.163-0.086-0.234 0.065-0.353 0.117-0.092 0.237-0.18 0.355-0.271 0.151-0.116 0.267-0.252 0.37-0.421 0.14-0.23 0.312-0.45 0.612-0.521 0.121-0.028 0.235-0.124 0.332-0.21 0.281-0.248 0.553-0.506 0.828-0.76 0.045-0.042 0.091-0.082 0.132-0.128 0.227-0.255 0.198-0.507-0.098-0.676-0.462-0.266-0.91-0.575-1.403-0.762-0.482-0.185-0.918-0.415-1.318-0.731-0.108-0.085-0.262-0.11-0.391-0.169-0.171-0.077-0.352-0.142-0.507-0.244-0.647-0.425-1.272-0.882-2.051-1.056-0.141-0.032-0.284-0.15-0.381-0.267-0.37-0.444-0.928-0.634-1.474-0.432-0.349 0.128-0.675 0.32-1.014 0.477-0.104 0.049-0.226 0.063-0.327 0.116-0.085 0.044-0.168 0.108-0.223 0.185-0.080 0.109-0.171 0.128-0.252 0.015-0.095-0.133-0.098-0.278-0.015-0.42 0.151-0.262 0.308-0.521 0.459-0.782 0.031-0.053 0.065-0.107 0.081-0.164 0.033-0.127-0.041-0.243-0.169-0.254-0.121-0.010-0.169-0.076-0.194-0.182-0.087-0.377-0.068-0.747 0.099-1.097 0.489-1.032 0.918-2.096 1.587-3.034 0.187-0.263 0.371-0.529 0.565-0.787 0.236-0.314 0.465-0.636 0.725-0.929 0.723-0.814 1.559-1.5 2.445-2.128 0.086-0.062 0.154-0.148 0.232-0.219 0.098-0.090 0.189-0.192 0.3-0.262 0.757-0.462 1.517-0.919 2.279-1.372 0.234-0.139 0.481-0.254 0.712-0.397 0.191-0.117 0.375-0.248 0.547-0.39 0.198-0.164 0.421-0.257 0.671-0.28 0.449-0.041 0.869-0.186 1.294-0.323 0.373-0.121 0.761-0.201 1.141-0.304 0.201-0.055 0.406-0.108 0.601-0.182 0.339-0.128 0.683-0.214 1.047-0.227 0.167-0.005 0.332-0.053 0.499-0.077 0.287-0.041 0.576-0.080 0.865-0.119 0.095-0.013 0.19-0.024 0.285-0.036 0.131-0.004 0.264-0.004 0.398-0.004zM16.394 14.965c-0.019-0.15-0.114-0.16-0.198-0.157-0.036 0.001-0.069 0.064-0.104 0.099 0.063 0.047 0.119 0.109 0.19 0.137 0.026 0.010 0.083-0.058 0.112-0.080z"></path>
<path fill="#fff" d="M3.258 25.256c0.095-0.085 0.19-0.171 0.286-0.254 0.34-0.295 0.675-0.584 0.938-0.965 0.361-0.522 0.779-1.005 1.177-1.5 0.163-0.203 0.338-0.398 0.502-0.599 0.257-0.313 0.521-0.621 0.762-0.946 0.399-0.538 0.832-1.045 1.32-1.499 0.548-0.509 0.975-1.106 1.337-1.754 0.085-0.151 0.178-0.302 0.293-0.431 0.059-0.068 0.168-0.1 0.262-0.127 0.166-0.047 0.336-0.078 0.506-0.116 0.059-0.013 0.118-0.037 0.177-0.036 0.216 0.006 0.431 0.017 0.646 0.036 0.063 0.005 0.136 0.027 0.182 0.067 0.222 0.195 0.4 0.416 0.488 0.711 0.166 0.559 0.078 1.090-0.171 1.595-0.076 0.153-0.225 0.277-0.359 0.393-0.323 0.277-0.663 0.534-0.984 0.814-0.193 0.168-0.361 0.363-0.539 0.547-0.050 0.051-0.096 0.107-0.151 0.153-1.205 1.002-2.497 1.885-3.782 2.777-0.287 0.2-0.559 0.408-0.814 0.643-0.094 0.086-0.183 0.103-0.308 0.063-0.076-0.026-0.183-0.019-0.255 0.017-0.366 0.185-0.724 0.386-1.086 0.577-0.237 0.126-0.25 0.121-0.426-0.072 0-0.031 0-0.062 0-0.092z"></path>
<path fill="#fff" d="M25.271 7.503c-0.091-0.035-0.171-0.065-0.253-0.098-0.017 0.032-0.029 0.049-0.035 0.068-0.059 0.217-0.058 0.214-0.259 0.123-1.090-0.49-2.239-0.785-3.403-1.034-0.361-0.077-0.719-0.171-1.082-0.228-0.647-0.103-1.297-0.185-1.947-0.269-0.198-0.026-0.399-0.054-0.597-0.044-0.721 0.033-1.441 0.085-2.162 0.124-0.24 0.013-0.482 0.037-0.719 0.012-0.33-0.036-0.64 0.035-0.959 0.092-0.518 0.094-1.041 0.177-1.564 0.239-0.434 0.051-0.835 0.2-1.244 0.332-0.136 0.044-0.273 0.092-0.413 0.118-0.065 0.012-0.171-0.003-0.204-0.046s-0.027-0.159 0.010-0.207c0.136-0.178 0.268-0.373 0.444-0.504 0.725-0.536 1.435-1.105 2.209-1.563 1.061-0.626 2.111-1.287 3.261-1.75 0.459-0.185 0.933-0.336 1.399-0.508 0.744-0.276 1.496-0.531 2.271-0.71 0.359-0.082 0.716-0.172 1.075-0.255 0.022-0.005 0.049 0.005 0.104 0.013-0.068 0.136-0.121 0.262-0.192 0.376-0.353 0.565-0.388 1.155-0.050 1.717 0.284 0.474 0.563 0.973 1.081 1.255 0.711 0.69 1.598 1.125 2.424 1.645 0.33 0.207 0.593 0.468 0.837 0.761 0.108 0.124 0.095 0.203-0.032 0.341z"></path>
<path fill="#fff" d="M11.558 9.701c0.172-0.296 0.403-0.445 0.711-0.503 0.285-0.054 0.571-0.127 0.841-0.232 0.561-0.221 1.146-0.309 1.739-0.368 0.602-0.059 1.206-0.101 1.809-0.154 0.403-0.035 0.803-0.101 1.206-0.107 0.527-0.006 1.059 0.001 1.581 0.059 0.973 0.108 1.952 0.207 2.909 0.4 1.036 0.209 2.080 0.436 3.029 0.935 0.35 0.185 0.666 0.439 0.983 0.679 0.175 0.132 0.212 0.321 0.142 0.48-0.059 0.137-0.15 0.185-0.295 0.14-0.173-0.055-0.343-0.051-0.512 0.010-0.038 0.014-0.080 0.033-0.118 0.030-0.376-0.032-0.671 0.225-1.023 0.277-0.349 0.053-0.699 0.105-1.047 0.167-0.176 0.032-0.348 0.086-0.521 0.131-0.029 0.008-0.067 0.013-0.086 0.032-0.198 0.204-0.48 0.246-0.713 0.38-0.266 0.153-0.509 0.341-0.757 0.524-0.063 0.046-0.107 0.124-0.15 0.193-0.114 0.175-0.221 0.354-0.34 0.524-0.018 0.026-0.103 0.033-0.136 0.014-0.055-0.032-0.098-0.090-0.139-0.142-0.37-0.48-0.832-0.865-1.299-1.241-0.185-0.149-0.409-0.248-0.612-0.376-0.575-0.363-1.205-0.611-1.824-0.882-0.065-0.028-0.132-0.059-0.191-0.099-0.612-0.406-1.315-0.508-2.019-0.558-0.69-0.049-1.358-0.205-2.033-0.326-0.159-0.028-0.304-0.049-0.476-0.003-0.208 0.058-0.439 0.017-0.66 0.017zM13.334 9.731c0.045-0.091 0.086-0.157 0.108-0.227 0.005-0.017-0.055-0.077-0.080-0.073-0.067 0.008-0.131 0.040-0.209 0.067 0.036 0.053 0.049 0.074 0.064 0.094 0.027 0.036 0.058 0.069 0.117 0.14zM17.546 10.455c-0.005 0.014-0.010 0.028-0.015 0.044 0.131 0.047 0.262 0.095 0.427 0.154-0.065-0.184-0.163-0.219-0.412-0.198zM21.022 12.446c-0.029 0.005-0.058 0.012-0.087 0.017 0.014 0.081 0.029 0.162 0.044 0.243 0.029-0.012 0.086-0.027 0.086-0.035-0.008-0.076-0.026-0.15-0.042-0.225z"></path>
<path fill="#fff" d="M13.192 21.581c0.171-0.053 0.296-0.092 0.423-0.13 0.033-0.010 0.072-0.015 0.107-0.012 0.278 0.027 0.557 0.055 0.834 0.086 0.060 0.006 0.124 0.017 0.18 0.041 0.42 0.186 0.844 0.13 1.265 0.015 0.316-0.086 0.625-0.198 0.938-0.298 0.277-0.089 0.415-0.003 0.43 0.29 0.008 0.136-0.014 0.275-0.029 0.411-0.051 0.458-0.117 0.915-0.154 1.374-0.032 0.388-0.010 0.782-0.053 1.168-0.045 0.417-0.136 0.829-0.208 1.242-0.008 0.045-0.023 0.091-0.022 0.136 0.026 0.735-0.222 1.418-0.391 2.119-0.099 0.404-0.107 0.83-0.155 1.247-0.022 0.194-0.050 0.386-0.064 0.58-0.027 0.367-0.033 0.737-0.073 1.104-0.032 0.287-0.092 0.574-0.159 0.856-0.023 0.098-0.080 0.21-0.225 0.183-0.252-0.046-0.397-0.157-0.412-0.309-0.041-0.397-0.081-0.792-0.122-1.188-0.003-0.021-0.006-0.040-0.010-0.060-0.101-0.48-0.239-0.956-0.299-1.441-0.098-0.784-0.372-1.522-0.527-2.289-0.073-0.361-0.151-0.717-0.263-1.072-0.121-0.382-0.234-0.793-0.217-1.186 0.018-0.435-0.021-0.841-0.16-1.245-0.046-0.132-0.051-0.278-0.173-0.382-0.041-0.035-0.060-0.108-0.069-0.167-0.062-0.375-0.062-0.77-0.39-1.074z"></path>
<path fill="#fff" d="M20.851 17.401c0.208 0.059 0.461 0.098 0.683 0.201 0.436 0.201 0.82 0.48 1.118 0.87 0.11 0.145 0.27 0.252 0.402 0.38 0.227 0.222 0.447 0.452 0.679 0.669 0.167 0.157 0.344 0.304 0.526 0.444 0.216 0.164 0.448 0.307 0.66 0.476 0.385 0.307 0.767 0.619 1.136 0.945 0.253 0.223 0.476 0.479 0.721 0.711 0.467 0.444 0.852 0.957 1.233 1.472 0.201 0.271 0.376 0.562 0.562 0.844 0.054 0.081 0.078 0.18-0.008 0.231-0.047 0.028-0.145-0.010-0.214-0.035-0.090-0.032-0.172-0.089-0.263-0.121-0.194-0.067-0.397-0.109-0.583-0.191-0.171-0.076-0.325-0.19-0.483-0.291-0.051-0.033-0.090-0.086-0.142-0.117-0.63-0.382-1.258-0.77-1.894-1.142-0.358-0.209-0.731-0.393-1.095-0.592-0.997-0.548-1.992-1.097-2.989-1.646-0.195-0.108-0.399-0.195-0.603-0.286-0.367-0.162-0.719-0.386-0.85-0.812-0.068-0.221-0.13-0.443-0.187-0.665-0.012-0.046-0.004-0.101 0.008-0.149 0.153-0.612 0.671-1.064 1.332-1.161 0.072-0.013 0.144-0.021 0.252-0.035z"></path>
</svg>
