<svg id="Layer_1" data-name="Layer 1" xmlns="http://www.w3.org/2000/svg" viewBox="0 0 86.76 85.15"><defs><style>.cls-1{fill:#fff;}</style></defs><path class="cls-1" d="M1087.89,106.83c0-1.91,0-3.83,0-5.74,0-.66.13-1.08.92-1.16a17.3,17.3,0,0,0,3.36-.62c4.42-1.37,8.55-3.31,11.83-6.71a48.68,48.68,0,0,0,5-5.5c1.62-2.31,3.2-4.74,3.43-7.71,1.7-3.12,1.46-6.52,1.47-9.89a26.38,26.38,0,0,0-3.55-12.82,28.79,28.79,0,0,0-6.08-7.94c-3.5-3.13-7.32-5.75-12.08-6.64a16,16,0,0,1-2.31-.77c-1.93-.67-1.95-.68-1.95-2.51,0-3.25,0-6.49,0-9.74a3.74,3.74,0,0,1,.26-.89,4.6,4.6,0,0,1,.54.79c.78,1.71,1.63,3.39,2.25,5.16a2.54,2.54,0,0,0,2,1.92,33.58,33.58,0,0,1,4.39,1.43,34.08,34.08,0,0,1,8.71,4.89,3.45,3.45,0,0,0,3.55.63c1.09-.35,2.18-.67,3.28-1a.84.84,0,0,1,1.1,1.11c-.38,1.33-.77,2.65-1.24,4a3.09,3.09,0,0,0,.67,3.15,25.06,25.06,0,0,1,4.18,7.69c.76,2.57,1.9,5,1.94,7.78,0,1,.72,1.41,1.54,1.74,2.11.83,4.23,1.68,6.35,2.53a4.36,4.36,0,0,1,.42.23c-.12.2-.2.5-.38.59q-2.28,1.16-4.59,2.25a15,15,0,0,1-1.82.72c-1.2.38-1.45,1.21-1.6,2.43a11.3,11.3,0,0,1-1.11,4.72.92.92,0,0,0-.13.21c-.91,4.17-3.26,7.62-5.63,11a2.37,2.37,0,0,0-.45,2.06c.34,1.5.58,3,1,4.51.25.79-.08.87-.62.8a12.15,12.15,0,0,1-2.62-.51c-1.63-.58-3-.94-4.67.33a29.17,29.17,0,0,1-9,4.82c-1,.3-2,.63-3,.87a2.64,2.64,0,0,0-2.08,1.85c-.61,2.12-1.81,4-2.57,6a2,2,0,0,1-.24.4c-.11-.17-.32-.35-.32-.52,0-2,0-4,0-6Z" transform="translate(-1041.04 -28.19)"/><path class="cls-1" d="M1080.52,34.55c0,1.83,0,3.66,0,5.49,0,.7-.27.92-1,1.12a64.06,64.06,0,0,0-8.1,2.56,29.39,29.39,0,0,0-5.12,3.34A29.13,29.13,0,0,0,1055,66a21.77,21.77,0,0,0-.39,5.39,32.05,32.05,0,0,0,2.09,10.24,29.83,29.83,0,0,0,8.48,11.61c3.17,2.56,6.54,4.81,10.6,5.78,1.26.3,2.51.66,3.79.86.74.12,1,.42,1,1.11,0,1.92,0,3.83,0,5.74,0,1.75,0,3.5,0,5.25a3.53,3.53,0,0,1-.28.85,4.62,4.62,0,0,1-.53-.8c-.72-1.71-1.41-3.42-2.11-5.14a3.11,3.11,0,0,0-2.54-2,29.32,29.32,0,0,1-6.79-2.62,29.49,29.49,0,0,1-6.52-4.25,1.47,1.47,0,0,0-1.77-.28c-1.36.54-2.81.84-4.18,1.37-.7.27-.94.11-.84-.54a21.62,21.62,0,0,1,.72-3.58,4.61,4.61,0,0,0-.63-4.19,34.08,34.08,0,0,1-3.52-6.38c-.86-2.42-2.14-4.74-2.13-7.47a3.26,3.26,0,0,0-2.51-3.48,30.5,30.5,0,0,1-3.63-1.45,4.14,4.14,0,0,1-1.06-.56,13.25,13.25,0,0,1-1.15-1.1,9.48,9.48,0,0,1,1.39-.91c1.87-.81,3.76-1.56,5.63-2.36.44-.18.87-.32.9-1a17.35,17.35,0,0,1,.5-3.37c.34-1.32.85-2.58,1.29-3.87a32.64,32.64,0,0,1,4.92-9.27,3.16,3.16,0,0,0,.59-3.5,17.69,17.69,0,0,1-.81-3.56c-.14-.82.19-1,1.15-.77,1.5.34,3,.7,4.52,1a1.78,1.78,0,0,0,1.09-.23c.85-.48,1.65-1.06,2.49-1.55,2.79-1.63,5.42-3.59,8.77-4.07a12,12,0,0,0,3-1,2,2,0,0,0,.91-1c.89-2.1,1.71-4.23,2.57-6.34a1.69,1.69,0,0,1,.28-.38c.1.2.28.4.28.61,0,1.91,0,3.83,0,5.74Z" transform="translate(-1041.04 -28.19)"/><path class="cls-1" d="M1084.05,65.1h-12.73a4.86,4.86,0,0,1-1.48,0,2.38,2.38,0,0,1-1.32-.9,1.46,1.46,0,0,1,.36-1.31,24.38,24.38,0,0,1,3.55-3,26.1,26.1,0,0,1,4.62-2.28,5.14,5.14,0,0,0,2.66-1.93,5.34,5.34,0,0,1,4.48-2.64,4.42,4.42,0,0,1,3.34,1.32A19.48,19.48,0,0,0,1089.3,56a8.65,8.65,0,0,0,2.27,1.4,26.09,26.09,0,0,1,7.5,4.41c.13.11.23.25.36.35a1.73,1.73,0,0,1,.47,2c-.24.72-.89.88-1.62.87-2.08,0-4.16,0-6.24,0Z" transform="translate(-1041.04 -28.19)"/><path class="cls-1" d="M1083.42,89.06c-1.51,0-2.67,0-3.83,0a1.65,1.65,0,0,1-1-.65c-.07-.08.19-.58.41-.75a3.74,3.74,0,0,0,1.39-3.47c-.1-3.24,0-6.48,0-9.71,0-1.42,0-1.44,1.33-1.47,1.49,0,3,0,4.48,0s1.62.28,1.38,1.91a21,21,0,0,0-.08,3c0,1.91,0,3.82,0,5.73a4.22,4.22,0,0,0,1.21,3.36c.37.38,1,.69.64,1.43s-1,.15-1.39.31C1086.35,89.38,1084.69,88.91,1083.42,89.06Z" transform="translate(-1041.04 -28.19)"/><path class="cls-1" d="M1084.11,66.48c.66,0,1.32,0,2,0,1.64,0,1.6,0,2,1.62a7.11,7.11,0,0,0,.75,1.48c.49,1,0,2.15-1,1.94-2.78-.61-5.63.57-8.37-.44-.8-.3-1-.78-.44-1.36a2.48,2.48,0,0,0,.93-2.16c-.11-.92.44-1.11,1.22-1.09C1082.12,66.5,1083.11,66.48,1084.11,66.48Z" transform="translate(-1041.04 -28.19)"/></svg>