<svg id="Layer_1" data-name="Layer 1" xmlns="http://www.w3.org/2000/svg" viewBox="0 0 87.61 85.15"><defs><style>.cls-1{fill:#fff;}</style></defs><path class="cls-1" d="M1166.8,295.53c0-1.74,0-3.49,0-5.24,0-.93.1-1.43,1.27-1.59a25.66,25.66,0,0,0,8.94-3.11,27.8,27.8,0,0,0,9.62-8.31,33.1,33.1,0,0,0,4.19-7.7c.75-2.14,1.63-4.26,1.48-6.64-.12-2.07-.09-4.16,0-6.24a14,14,0,0,0-1-6c-1.19-2.86-2.06-5.92-4-8.35s-3.81-5-6.67-6.55a38.46,38.46,0,0,1-4.68-3.12c-1.28-1-2.87-1.05-4.27-1.68a29.3,29.3,0,0,0-4.21-1.13c-.24-.07-.44-.41-.56-.67a2,2,0,0,1,0-.74c0-3.5,0-7,0-10.48a3.92,3.92,0,0,1,.22-.93l.43,1a31.22,31.22,0,0,1,1.65,3.82c.76,2.63,2.9,3.37,5.13,4a23.35,23.35,0,0,1,8.53,4.14,25.83,25.83,0,0,0,3.06,2,2,2,0,0,0,1.35.13c1.58-.38,3.13-.87,4.7-1.25.45-.11,1-.15.67.74s-.28,2.14-.71,3.08c-1.18,2.54.09,4.35,1.58,6.15a3.74,3.74,0,0,1,.55.77c1.72,3.77,3.64,7.46,4,11.74a2.94,2.94,0,0,0,2.42,3,17.1,17.1,0,0,1,2,.93c1.44.55,2.9,1,4.36,1.53l.44.19-.41.43c-1.42,1.35-3.37,1.61-5,2.46-.21.11-.48.1-.71.19a4.81,4.81,0,0,0-3.18,4.11c-.86,4.48-2.15,8.87-5.06,12.58a29.91,29.91,0,0,0-2,3.05,1.6,1.6,0,0,0,0,1.08,35.32,35.32,0,0,0,1.25,4.45c.45,1.12-.1,1.12-.82,1a15.93,15.93,0,0,1-3.1-.63,3.77,3.77,0,0,0-3.9.47,57.25,57.25,0,0,1-5.47,3.22,21.63,21.63,0,0,1-6.63,2.4,2.53,2.53,0,0,0-2.19,1.95c-.67,1.92-1.62,3.74-2.46,5.6a1.53,1.53,0,0,1-.34.33c-.08-.14-.22-.29-.22-.43,0-1.91,0-3.82,0-5.74Z" transform="translate(-1119.53 -217.05)"/><path class="cls-1" d="M1159.43,223.42c0,1.5,0,3,0,4.5s-.11,1.39-1.52,2.07c-1.93.94-4.08,1-6.05,1.86a31.33,31.33,0,0,0-8.41,5.31c-1.1,1-2.15,2.08-3.17,3.18a25.59,25.59,0,0,0-4.15,6.34,43.06,43.06,0,0,0-2.25,6.95,10.73,10.73,0,0,0-.39,2.64c-.06,1.83,0,3.66,0,5.5a19.77,19.77,0,0,0,1.51,7.14,24.63,24.63,0,0,0,7.33,11.59,30.8,30.8,0,0,0,5.4,4.28c2.76,1.59,5.5,3.25,8.8,3.49.56,0,1.08.38,1.64.47,1,.17,1.3.84,1.29,1.78,0,3.66,0,7.33,0,11a2.25,2.25,0,0,1-.22.68c-.25-.19-.67-.35-.72-.59a23.29,23.29,0,0,0-2.55-6.3,2.65,2.65,0,0,0-1.51-1.37c-.91-.33-1.91-.4-2.84-.7a34.21,34.21,0,0,1-8.45-4.31c-1.07-.72-2.37-1.08-3.21-2.18-.14-.18-.72-.16-1-.06-1.48.44-2.94.95-4.42,1.42-.93.29-1.28.06-1.09-.86a16.78,16.78,0,0,1,1-3.5,3,3,0,0,0-.43-3.59c-1.89-2.28-2.86-5.1-4.12-7.76a26.91,26.91,0,0,1-2-8,1.44,1.44,0,0,0-.94-1.24c-1.54-.74-3.06-1.5-4.59-2.26-.43-.21-.88-.39-1.3-.61s-1.55-.66-1.52-.89c.12-1,1.14-.89,1.86-1.19,1.74-.7,3.42-1.56,5.15-2.28a1.92,1.92,0,0,0,1.35-1.82c.14-1.44.66-2.84.91-4.28a27.25,27.25,0,0,1,2.56-6.84,18.65,18.65,0,0,1,3-4.41,2.84,2.84,0,0,0,.73-3.14c-.45-1.3-.86-2.62-1.24-4-.24-.8.26-1.35,1-1.16,1.5.38,3,.72,4.46,1.24a1.65,1.65,0,0,0,1.78-.3,34.77,34.77,0,0,1,5.18-3.27,37,37,0,0,1,7.72-3,2.71,2.71,0,0,0,2.1-1.8c.7-1.73,1.43-3.47,2.17-5.19.11-.23.41-.38.61-.57.16.25.44.5.45.75,0,1.75,0,3.5,0,5.24Z" transform="translate(-1119.53 -217.05)"/><path class="cls-1" d="M1169.29,256.77c-2.06-.76-4-.63-5.54,1-.69.73-1.24.67-1.81-.06-1.39-1.78-3.14-1.63-5-1l-.15.14c-1.2.17-2.43.27-3.61.53-1,.21-1.39,1.16-1.66,1.92s-.5,1.61-1.57,1.51a2.23,2.23,0,0,1-2.13-2.26c0-.16,0-.33,0-.49,0-2.16,0-2.2-2.16-2.7-.73-.17-1.21-.47-1.32-1.23-.3-2.05,2.2-5,4.28-4.84a3.8,3.8,0,0,1,2.09,1.13c.54.53.17,1.19-.33,1.75-.2.23-.32.89-.18,1,.34.28,1,.61,1.26.47a4.61,4.61,0,0,1,3.31,0c1.76.4,3.62.43,4.9-1.41.43-.61.76-1,.24-1.7a1.09,1.09,0,0,1-.1-.72c.49-3.39-1.62-5.67-3.39-8.11a3.83,3.83,0,0,1-.34-.77,8.68,8.68,0,0,1,.89.14,9.18,9.18,0,0,1,5.39,3.62c.4.59.64.64,1.09.2s1.21-1.14,1.76-1.76a5,5,0,0,1,3.84-1.94l.8,0c-.13.29-.18.66-.39.85a10.94,10.94,0,0,0-2.25,3.21,6.33,6.33,0,0,0-.81,3.29,5,5,0,0,1-.32,1.92,1.37,1.37,0,0,0,.29,1.57c.49.54.84,1.5,1.38,1.61a8.26,8.26,0,0,0,3.7,0,4.11,4.11,0,0,1,3.08-.06c.22.11.6,0,.87-.14s1-.26.43-.93a5.4,5.4,0,0,1-.64-1,.9.9,0,0,1-.15-.61,4.19,4.19,0,0,1,2.66-1.59c1.4.1,3.94,2.36,4.19,3.73.28,1.53-.16,2.16-1.67,2.37-1.77.25-2.46,1.18-2.27,3a2,2,0,0,1-2.25,2.45c-.6-.05-.79-.32-.93-.9-.46-1.87-1.2-2.44-3-2.62a21.63,21.63,0,0,1-2.37-.48Z" transform="translate(-1119.53 -217.05)"/><path class="cls-1" d="M1169.43,256.91a67.13,67.13,0,0,1,2.07,7.5,11.68,11.68,0,0,1,0,6.29c-.42,1.4-.68,2.84-1.06,4.25a6.35,6.35,0,0,1-.75,1.8c-.17.28-.66.36-1,.53a2.51,2.51,0,0,1-.35-.84c0-.83,0-1.67,0-2.5-.16-1.79-.42-3.57-.6-5.36-.23-2.26-1.67-3.86-3-5.53-2-2.49-1.77-3.17.5-5.31,1.31-1.23,2.68-.83,4.07-1Z" transform="translate(-1119.53 -217.05)"/><path class="cls-1" d="M1156.94,256.77c1.28.09,2.51-.13,3.73.86,1.95,1.58,2.41,3.44.82,5.4-.46.58-1,1.08-1.51,1.64-1.41,1.62-1.68,3.68-2,5.66s-.35,3.75-.54,5.62a6.63,6.63,0,0,1-.38,1.22c-.36-.33-.86-.6-1-1-.35-.81-.51-1.71-.78-2.56a19.13,19.13,0,0,1-.49-9.67,13.88,13.88,0,0,1,1-4.5c-.54-1.2,1.13-1.5,1-2.52Z" transform="translate(-1119.53 -217.05)"/><path class="cls-1" d="M1169.34,253.41a2.14,2.14,0,0,1-2.43-1.77c-.26-.83.26-2.46,1.2-2.72,2.6-.71,4.4-2.44,6.16-4.29.1-.09.34-.17.42-.12a.54.54,0,0,1,.19.43,13.22,13.22,0,0,1-.56,2.6,26,26,0,0,1-2,4C1171.66,252.59,1170.84,253.73,1169.34,253.41Z" transform="translate(-1119.53 -217.05)"/><path class="cls-1" d="M1156.23,253.38a1.73,1.73,0,0,1-.93-.33,12,12,0,0,1-4-7.77c0-.26.21-.53.32-.79a2.34,2.34,0,0,1,.58.44,10.36,10.36,0,0,0,4.82,3.74,2.78,2.78,0,0,1,1.21.78c.46.55,1.54.85.9,2S1158.12,253.52,1156.23,253.38Z" transform="translate(-1119.53 -217.05)"/></svg>