<svg id="Layer_1" data-name="Layer 1" xmlns="http://www.w3.org/2000/svg" viewBox="0 0 88.14 85.14"><defs><style>.cls-1{fill:#fff;}</style></defs><path class="cls-1" d="M1388.08,869.26q0-2.75,0-5.49a.86.86,0,0,1,.81-1,45.37,45.37,0,0,0,5.36-1.51,32.44,32.44,0,0,0,14.92-11.43c1.49-2.08,2.32-4.64,3.34-7a17.61,17.61,0,0,0,1-3.48,30,30,0,0,0,.06-11.48,30.43,30.43,0,0,0-8-15.42,35.72,35.72,0,0,0-6.17-4.9,22.06,22.06,0,0,0-3.92-1.73,31.8,31.8,0,0,0-4.3-1.51,11.65,11.65,0,0,0-1.43-.28c-1.37-.19-1.64-.39-1.65-1.63,0-3.74,0-7.49,0-11.23,0-.19.19-.38.3-.57a1.65,1.65,0,0,1,.27.38c.85,2,1.67,4,2.55,6a2.15,2.15,0,0,0,1.64,1.54,39.78,39.78,0,0,1,7.94,3,23.74,23.74,0,0,1,4.88,3.23,4.25,4.25,0,0,0,4.56.82c1-.39,2-.65,3-1,.69-.25,1,.08.91.67a6.55,6.55,0,0,1-.33,1.41c-.36,1.24-.79,2.46-1.09,3.71a2,2,0,0,0,.43,1.84,36.86,36.86,0,0,1,6.52,15.92,2.58,2.58,0,0,0,1.83,2.16,36.79,36.79,0,0,1,6.06,2.55,5.88,5.88,0,0,0,1.41.28,9.66,9.66,0,0,1-1.43.65c-2,.57-3.73,1.88-5.78,2.43a2.75,2.75,0,0,0-2.18,2.88,10.45,10.45,0,0,1-1.06,4.71,3.94,3.94,0,0,0-.36.9,26,26,0,0,1-5.08,9.61,2.39,2.39,0,0,0-.56,2.89,16.45,16.45,0,0,1,.81,4c.16.91-.25,1.28-1.15,1a25,25,0,0,1-3-1,3.52,3.52,0,0,0-3.67.59,59.64,59.64,0,0,1-6,3.84,32.62,32.62,0,0,1-5.52,1.77c-1.37.4-2.62.81-2.92,2.53a9.94,9.94,0,0,1-1.07,2.71c-.52,1-1.16,2-1.75,3-.08-1.14-.17-2.28-.21-3.42S1388.08,870.26,1388.08,869.26Z" transform="translate(-1340.83 -790.58)"/><path class="cls-1" d="M1380.69,797.32c0,1.91,0,3.83,0,5.74,0,.58-.2.89-.85,1a24.73,24.73,0,0,0-10,3.46,18.4,18.4,0,0,0-2.2,1.53,33.16,33.16,0,0,0-8.21,8.37,34.76,34.76,0,0,0-4.14,10,18.47,18.47,0,0,0-.53,5.84,33.46,33.46,0,0,0,2,10.7,27.86,27.86,0,0,0,5.15,8.77,40.29,40.29,0,0,0,7.46,6.13c2.54,1.61,5.43,2.12,8,3.39a3.48,3.48,0,0,0,1,.08c2.26.3,3,1.42,2.44,3.69a8.93,8.93,0,0,0-.19,1.94c0,2.42,0,4.83,0,7.24,0,.18-.2.36-.31.54a2,2,0,0,1-.24-.4c-.85-2.1-1.65-4.22-2.57-6.3a2.26,2.26,0,0,0-1.22-1c-2-.75-4-1.26-5.93-2.13a42.8,42.8,0,0,1-6.61-3.63c-2.58-1.8-2.91-2-5.94-1.17-.39.11-.78.25-1.16.37-.6.18-1.27.92-1.76.27-.27-.35,0-1.22.23-1.8.45-1.39,1.15-2.72.95-4.24a3.07,3.07,0,0,0-.38-1.37,29.07,29.07,0,0,1-5.21-10.91,31.56,31.56,0,0,1-1-4.24c-.08-1.12-.43-2.4-1.94-2.72a10.23,10.23,0,0,1-1.83-.65c-.67-.3-1.32-.64-2-1l-3-1.57c1.1-.62,2.16-1.31,3.3-1.83a33.93,33.93,0,0,1,3.85-1.48c.86-.28,1-.83,1.18-1.64a42.92,42.92,0,0,1,3.47-10.83,23.77,23.77,0,0,1,3.12-5,3.37,3.37,0,0,0,.7-3.43,31,31,0,0,1-.81-3.29,4.68,4.68,0,0,1,0-1.24c0-.55.38-.65.86-.5,1.23.39,2.48.73,3.7,1.14a3,3,0,0,0,3-.47,41.66,41.66,0,0,1,10.84-5.46,10.73,10.73,0,0,0,1.65-.38c.82-.42,1.72-.59,2-1.87a22.74,22.74,0,0,1,2-4.32c.26-.51.54-1,.81-1.52.06.64.17,1.29.19,1.93C1380.72,794.49,1380.7,795.91,1380.69,797.32Z" transform="translate(-1340.83 -790.58)"/><path class="cls-1" d="M1393.27,818.13c-.23,1.32-.47,2.36-.56,3.4,0,.42.13,1.14.4,1.24a1.36,1.36,0,0,0,1.77-.46,10.32,10.32,0,0,1,.79-1.23,1.66,1.66,0,1,1,2.47,2.14c-.15.19-.42.32-.51.54s-.36.86-.23,1c.4.44.68,1.26,1.53.94a5,5,0,0,0,2.18-1.31,1.51,1.51,0,0,1,1.3-.38c.59.16.76.76.77,1.4,0,1.51-.22,1.79-1.77,2.05-1.12.18-2.2.51-3.31.75a11.64,11.64,0,0,1-1.44.22c-.87.08-1.5.07-1.69-1.17s-1.32-1.81-2.35-2.27-1.73.38-1.6,1.55c.2,1.77,1.6,3,1.94,4.76.14.72,1.76,1.13,2.56.82,1-.38,1.9-.86,2.85-1.28a5.78,5.78,0,0,1,.9-.35c1.19-.35,2.06-.08,2.35.71a1.89,1.89,0,0,1-1.1,2c-1,.49-2.11.76-3.08,1.3a3.4,3.4,0,0,1-3.29,0c-.4-.18-1.23-.42-1.43.44a1.4,1.4,0,0,0,.61,1.73c.42.22,1,.19,1.35.49,1.6,1.49,3.11,1.46,4.81.09,1.07-.87,2-.57,2.66.53.4.64.33,1-.22,1.66a5.24,5.24,0,0,1-7.23.87,6.37,6.37,0,0,0-3.59-1.42,1.21,1.21,0,0,0-1.25,1.21c.6,2.25,1,4.66,3.53,5.81.47.21.8.52,1.33.11a1.79,1.79,0,0,1,.94-.2c1.33-.09,1.86.26,2,1.26.19,1.29-.45,2.64-1.51,2.76a4.34,4.34,0,0,1-2.62-.31c-1.62-1-3.22-2.17-4-4.11a11.23,11.23,0,0,0-1-2.15,1.59,1.59,0,0,0-2.5-.48c-.2.15-.35.36-.54.52-1,.83-1,.83-2-.25s-2.2-.93-2.82.59a16,16,0,0,1-3.62,5.16,4.12,4.12,0,0,1-3.65,1.08,2.36,2.36,0,0,1-1.52-3.47,1.91,1.91,0,0,1,1.27-.58,3.62,3.62,0,0,1,1.65.31,1.72,1.72,0,0,0,2.18-.62,42.17,42.17,0,0,0,2.6-5.21,1.06,1.06,0,0,0-1-1.36,5.94,5.94,0,0,0-2.12.43,24.43,24.43,0,0,0-3.26,1.57c-2.34,1.34-5.07-.48-6.21-2a.61.61,0,0,1-.15-.41c.18-1.26,2-2.31,2.77-1.47,2.21,2.34,4.1,1,6.08-.23a3.72,3.72,0,0,0,1-.74c.21-.28.44-.78.32-1s-.62-.43-1-.63a.33.33,0,0,0-.24,0c-2.4,1.23-4.44.17-6.46-1a7.44,7.44,0,0,1-1-.68,1.28,1.28,0,0,1-.45-1.74,1.41,1.41,0,0,1,1.73-.65,14.66,14.66,0,0,1,2.23,1,15.23,15.23,0,0,0,1.75.9,2,2,0,0,0,2.75-1.24c.68-1.39,1.16-2.88,1.93-4.2.51-.89-.07-1.16-.51-1.57a1,1,0,0,0-1.55,0,11,11,0,0,0-1.36,1.46c-1.32,1.82-2,2.1-4.09,1.44a9.44,9.44,0,0,0-3.56-.77c-.65,0-1.53-1-1.42-1.63a4.17,4.17,0,0,1,.55-1.6.91.91,0,0,1,1.5,0,4.23,4.23,0,0,0,2.49,1.43,1.35,1.35,0,0,0,1-.19,1.31,1.31,0,0,0,.3-1.1,4.8,4.8,0,0,0-1-1.67c-.67-.71-.33-1.16.21-1.65,1.13-1,2.25-.88,3,.47.56,1,1.45,1.59,2.12,1.32s.91-1,.5-2.37c-.14-.46-.29-.92-.43-1.39-.22-.73.09-2,.59-2.09a5.68,5.68,0,0,1,1.49-.05c.72,0,.57.61.75,1,.3.7.44,1.51,1.64,1.5a1.83,1.83,0,0,1,1.82,1.95,2.21,2.21,0,0,0,1.09,2,2.46,2.46,0,0,0,3.78-1.71c.08-.31,0-.71.1-1,.36-.69.58-1.58,1.72-1.37.76.14,1.15-.08,1.24-1a1.67,1.67,0,0,1,2.52-1.36C1393,817.12,1393.14,817.85,1393.27,818.13Zm-10.64,16.29c.27.93-.57,1.25-1,1.81-.11.15-.23.49-.19.52a13.53,13.53,0,0,0,1.85,1c.16.07.71-.24.71-.39a25.63,25.63,0,0,0,0-3.16c0-.15-.54-.25-.82-.37a2.82,2.82,0,0,0-.39-.84c-.13-.13-.47,0-.71-.09s-.54-.21-.81-.31l.61-.36c1.16-.67,1.16-.67.17-1.66l-.88-.87a.67.67,0,0,0-1.18.23c-.18.65-1.57,1.43,0,2.1.09,0,.1.59,0,.61-1.58.65-.56,1.63-.24,2.39s.84.88,1.69.17C1381.84,835,1382.24,834.69,1382.63,834.42Zm5.09-4.92-.17-.18c.13-.2.43-.48.37-.6-.4-1-1.35-1.32-2.24-1.68-.09,0-.44.27-.45.42,0,1.07,0,2.15,0,3.23,0,.86.37.38.68.16a5.6,5.6,0,0,1,.59-.33c0,.22.19.53.1.66-.39.52,0,.55.33.78.73.43,1.09.93-.22,1-.14,0-.41.58-.35.65a25.12,25.12,0,0,0,1.89,2,.76.76,0,0,0,.66.11c.6-.19,1.32-2.24.89-2.69-.28-.29-.83-.39-.27-.79.9-.65.2-1.26.12-1.93C1389.44,828.88,1388.4,829.65,1387.72,829.5Zm-3.63-.53v-.74c0-1.41-.12-1.45-1.29-.8-1.78,1-1.79,1.05-.37,2.44a3.58,3.58,0,0,0,.52.51,6.89,6.89,0,0,0,.82.4,3.84,3.84,0,0,0,.3-.84A5.22,5.22,0,0,0,1384.09,829Zm1.26,5.1a1.55,1.55,0,0,0-.15.46c0,.74,0,1.48,0,2.22,0,.36.16.91.39,1a1.26,1.26,0,0,0,1.08-.28c.38-.34,1.2-.68.76-1.33a14.4,14.4,0,0,0-1.88-1.95A.72.72,0,0,0,1385.35,834.07Z" transform="translate(-1340.83 -790.58)"/><path class="cls-1" d="M1387.72,829.5l-.45.28.28-.46Z" transform="translate(-1340.83 -790.58)"/><path class="cls-1" d="M1383.12,833.92l-.46.46Z" transform="translate(-1340.83 -790.58)"/></svg>