<svg id="Layer_1" data-name="Layer 1" xmlns="http://www.w3.org/2000/svg" viewBox="0 0 87.13 84.92"><defs><style>.cls-1{fill:#fff;}</style></defs><path class="cls-1" d="M1094.38,480c0,1.75,0,3.5,0,5.25,0,1.06-.37,1.71-1.53,1.85a26.1,26.1,0,0,0-8.55,2.87,23.14,23.14,0,0,0-5.17,3.65,32.48,32.48,0,0,0-7.18,8.49,35.77,35.77,0,0,0-3,8.07,26,26,0,0,0,.37,13,37.93,37.93,0,0,0,4.48,10.07,2.94,2.94,0,0,0,.34.66c3.24,3.15,6.15,6.61,10.38,8.69a24,24,0,0,0,7,2.29c.56.09,1.09.35,1.65.49a1.38,1.38,0,0,1,1.19,1.39c0,3.83,0,7.66,0,11.48,0,.15-.13.3-.19.44-.15-.13-.36-.24-.43-.41-.66-1.51-1.3-3-1.94-4.54a5.09,5.09,0,0,0-3.82-3.42,26.77,26.77,0,0,1-10.14-4.9,16.7,16.7,0,0,0-2.75-1.65,2.35,2.35,0,0,0-1.44-.08c-1.44.33-2.86.74-4.28,1.12-.88.23-1.3-.13-1-1,.32-1.11.71-2.2,1.1-3.28a3.88,3.88,0,0,0-.65-3.88,46.2,46.2,0,0,1-3.66-7,23,23,0,0,1-2.38-8.75c0-1-.92-1.08-1.54-1.38-1.93-.94-3.9-1.79-5.83-2.71a4.22,4.22,0,0,1-.85-.74,5,5,0,0,1,.93-.75c2-.88,4.07-1.71,6.09-2.59a1.69,1.69,0,0,0,1.25-1.61,29.26,29.26,0,0,1,2.67-9.44,40.69,40.69,0,0,1,4.08-6.75,2.22,2.22,0,0,0,.53-2.25c-.58-1.45-.24-3.1-1.18-4.51-.5-.77.18-1.41,1.16-1.19a23.77,23.77,0,0,1,4,1.07,2.52,2.52,0,0,0,2.53-.36c.65-.36,1.22-.84,1.85-1.24,2.83-1.83,5.68-3.58,9.08-4.22a5.78,5.78,0,0,0,4.69-4.53,29.61,29.61,0,0,1,1.36-3.44,2.53,2.53,0,0,1,.45-.54c.12.26.34.52.34.78,0,1.83,0,3.66,0,5.49Z" transform="translate(-1054.49 -473.68)"/><path class="cls-1" d="M1101.67,552.12c0-1.66,0-3.33,0-5s0-1.54,1.55-1.87a36.27,36.27,0,0,0,5-1.28,27.38,27.38,0,0,0,10.23-6.64,29.67,29.67,0,0,0,4.24-4.78,45.69,45.69,0,0,0,3.44-7.07c1.35-3.33.78-6.85,1-10.3a23,23,0,0,0-3.81-14.11,28.56,28.56,0,0,0-5.33-6.64,38.06,38.06,0,0,0-4.58-3.66,25.94,25.94,0,0,0-9.83-3.74c-1.85-.29-1.94-.36-2-2.16,0-3.5,0-7,0-10.49a2.34,2.34,0,0,1,.21-.7c.21.2.51.36.62.6.82,1.85,1.65,3.7,2.36,5.6a2.65,2.65,0,0,0,1.89,1.7c2.11.66,4.19,1.43,6.26,2.25,2.66,1.05,4.82,2.83,7.19,4.29a2.66,2.66,0,0,0,2.73.37,24.51,24.51,0,0,1,3.79-1.08c.66-.15,1.14.07.9.95-.37,1.34-.6,2.74-1.05,4.05a3.31,3.31,0,0,0,.58,3.21,44,44,0,0,1,3.65,6.39,49,49,0,0,1,2,6.33,11.19,11.19,0,0,1,.48,2.41,2.31,2.31,0,0,0,1.54,2.07c1.51.67,3,1.31,4.54,1.95a10.88,10.88,0,0,1,1.37.55,4.44,4.44,0,0,1,.86.82,5.39,5.39,0,0,1-.79.56c-1.93.9-3.83,1.9-5.83,2.62a2.17,2.17,0,0,0-1.71,2,36.89,36.89,0,0,1-6.86,16.23,2.19,2.19,0,0,0-.44,2.06c.31,1.18.6,2.38.85,3.58.36,1.72.12,2-1.66,1.73a12.53,12.53,0,0,1-2.37-.68,3.67,3.67,0,0,0-3.7.52,31.88,31.88,0,0,1-12.17,5.77,2.3,2.3,0,0,0-2.1,2.09c0,.37-.34.72-.52,1.08l-2.43,4.84-.21-5.69C1101.66,552.62,1101.67,552.37,1101.67,552.12Z" transform="translate(-1054.49 -473.68)"/><path class="cls-1" d="M1098.72,497.83a8.43,8.43,0,0,1,6.24,4.28c.57,1,1.26,1.95,1.74,3a6.94,6.94,0,0,1,.63,2.6,8.5,8.5,0,0,0,1.06,4c1.21,2.14.2,6-1.94,7.22-2.76,1.63-3.69,4.25-4,7.15-.19,1.56,0,3.16-.06,4.73s-.32,3.11-.56,4.66c0,.27-.41.72-.59.7a1.42,1.42,0,0,1-.91-.57,3.09,3.09,0,0,0-4.55-1c-.26.21-.23.75-.41,1.1-.08.15-.38.19-.58.28-.57-1.58-1.55-3-1.22-4.88a15.52,15.52,0,0,0-1.73-10.3,4.8,4.8,0,0,0-1.77-1.63c-2.28-1.38-3.58-4.58-2.48-6.9a12.63,12.63,0,0,0,1.22-5,9.35,9.35,0,0,1,1.25-3.45,22,22,0,0,1,1.75-2.68A9.28,9.28,0,0,1,1098.72,497.83Zm3.65,20.49c1.07.13,1.65-.53,2.25-1.28,1-1.28.22-2.54,0-3.79s-.9-1.37-1.66-.53a24.74,24.74,0,0,0-2.69,3.51c-.68,1.06-.37,1.63.85,2A7.12,7.12,0,0,0,1102.37,518.32Zm-8.06,0c1.81,0,2.26-.71,1.38-2.27a13.42,13.42,0,0,0-1.65-2.42,13,13,0,0,0-1.87-1.48,20.86,20.86,0,0,0-.81,2.25A3,3,0,0,0,1094.31,518.3Zm5.31,9.53a17.62,17.62,0,0,0-2.82,0c-.49.09-1.16,2-.84,2.43a3.56,3.56,0,0,0,1.55,1.41,2,2,0,0,0,2.38-.87,3.5,3.5,0,0,0-.36-3.05C1099.43,527.69,1099.25,527.67,1099.62,527.83Z" transform="translate(-1054.49 -473.68)"/></svg>