<svg id="Layer_1" data-name="Layer 1" xmlns="http://www.w3.org/2000/svg" viewBox="0 0 87.58 84.74"><defs><style>.cls-1{fill:#fff;}</style></defs><path class="cls-1" d="M-228.73,156.58c-.32.26-.62.53-1,.76s-1.09,1-1.42.84a1.15,1.15,0,0,1-.72-1.73,1.69,1.69,0,0,0-1.52-2.48c-.37,0-.74-.14-1.12-.21a10.62,10.62,0,0,1,.51,1,4.59,4.59,0,0,1,.43,1.62c0,.43-.43.84-.66,1.26-.2-.28-.33-.72-.6-.82a16.76,16.76,0,0,0-2.1-.59c0,.8-.28,1.9.13,2.32.62.64,1.35,1.05.73,2-.45.67-1,1.36-2,.61-.22-.17-.86,0-1.14.2-2.4,1.83-4.21,4-4.05,7.27.09,1.7-.08,3.32.85,5,1.08,2,0,3.31-2.31,3.41h-1c-3.26,0-3.59-.74-3.2-4a28.44,28.44,0,0,0-.24-8.34c-.48-2.67-1.62-3-4.18-1.9a2.05,2.05,0,0,1-1,.19c-3.64-.35-4.7,2.85-3.56,6.27.08.23.16.47.26.7.22.51.46,1,.7,1.52a7.47,7.47,0,0,1-1.85-.33c-3.05-1.35-4.12-3.58-3.43-6.95a6.32,6.32,0,0,0-1.24-5.14c-.95-1.3-.21-1.47.78-1.38a7.26,7.26,0,0,1,2,.75c1.65.71,2.46.2,2.52-1.59.11-3.31.12-3.29-3.17-2.88-.77.1-1.57.15-1-1.16a5.79,5.79,0,0,0,.14-2.22c0-1.63.33-1.85,1.88-1.25s2.39.26,2.57-1.42.06-2-1.65-1.93c-1.32.06-2.65-.08-4-.14.06-1.26.13-2.53.17-3.79.05-1.55-.34-3.22.87-4.5a10.81,10.81,0,0,1,2.35-1.77c.29-.18.79,0,1.19,0a5.4,5.4,0,0,1-.14,1.07,21.54,21.54,0,0,0-.86,2.53,2.11,2.11,0,0,0,2.29,2.75,5.23,5.23,0,0,1,4,1.41c.63.59,1.78,1.2,2.64.23a7.68,7.68,0,0,0,1.39-2.5c.1-.27-.44-.85-.78-1.19a3.87,3.87,0,0,1-1-3.44,3.42,3.42,0,0,1,.31-.84,5.85,5.85,0,0,1,.82.44c.12.09.14.3.23.44,1.11,1.75,1.12,1.74,2.17-.13.87-1.55,2.25-1.62,3.22-.14a4.52,4.52,0,0,1,.44.88c.38,1.07.91,1,1.58.26.52-.59,1.06-1.16,1.59-1.74a24.28,24.28,0,0,1-.07,2.7,3.42,3.42,0,0,1-.58,1.35c-.34.54-1.2,1.23-1.08,1.5a5.47,5.47,0,0,0,1.74,1.94,1.45,1.45,0,0,0,1.37-.31c.44-.56.3-1.83,1.56-.89a.28.28,0,0,0,.24,0c.83-2.11,1.71-.34,2.58-.05,1.79.6,3.67-1.31,3.56-3.52a14.4,14.4,0,0,1,.22-2.25c.63.58,1.65,1.06,1.82,1.75a16.87,16.87,0,0,1,.34,4.55c0,.95-.64,2,1.13,1.2.88-.41,1.54-.36.89.89,0,.07-.1.2-.07.23,1.84,2.1,1.39,5.1,2.93,7.32a1.6,1.6,0,0,1,.34.85c-.05,2-2.59,5.3-4.53,5.82a3.76,3.76,0,0,1-1,0c.07-.29.13-.59.21-.87.14-.46.3-.92.45-1.37s.55-.82.54-1.22c0-.24-.58-.46-.9-.69l.21,1.32C-228.76,156.25-228.75,156.41-228.73,156.58Zm-27.52-3.78c0,1.83-.05,3.66,0,5.49,0,.45.39,1.22.7,1.28,1,.19.89-.72.89-1.34,0-2.41,0-4.83,0-7.24a2.49,2.49,0,0,1,.42-1.44,1.83,1.83,0,0,0-.18-2.89,1.72,1.72,0,0,0-1.28-.47c-.27.06-.57.72-.58,1.12C-256.28,149.14-256.25,151-256.25,152.8Zm26.06,1.73c-.2.23-.43.38-.43.54s.21.35.32.52a3.25,3.25,0,0,0,.56-.55S-230,154.75-230.19,154.53Z" transform="translate(287.9 -113.65)"/><path class="cls-1" d="M-247.76,119.73c0,1.67,0,3.33,0,5a1.6,1.6,0,0,1-1.46,1.89c-1.9.45-3.74,1.15-5.6,1.73a24.43,24.43,0,0,0-9.76,6,32.48,32.48,0,0,0-6.87,9.78c-2.26,5-2.55,10-2.25,15.24.22,4,1.82,7.61,3.61,11.13,2.36,4.61,6.1,7.9,10.36,10.68a28.56,28.56,0,0,0,10.15,4c1,.21,1.86.49,1.83,1.85-.06,3.5,0,7,0,10.5a3.14,3.14,0,0,1-.3.84,3.66,3.66,0,0,1-.54-.65,52.48,52.48,0,0,1-2.33-5.41,2.39,2.39,0,0,0-1.78-1.75A42.78,42.78,0,0,1-266.33,184a2.33,2.33,0,0,0-2.64-.47,18.76,18.76,0,0,1-3.11.72c-1.4.33-2.06-.12-1.45-1.34,2-4-.19-6.94-2.09-10.14a26.2,26.2,0,0,1-3.45-10.66,3.23,3.23,0,0,0-2.28-3.1c-2-.74-3.93-1.61-5.88-2.46-.87-.38-.92-.92,0-1.28,1.82-.73,3.65-1.43,5.51-2.06a3.38,3.38,0,0,0,2.62-2.92,30.84,30.84,0,0,1,5.83-14.62c1.18-1.6,2.28-3,.74-5-.17-.21,0-.65-.1-1-.18-1-.37-1.92-.56-2.88,1,.15,1.93.23,2.87.46.79.19,1.53.66,2.32.77a3.72,3.72,0,0,0,2.06-.33c3-1.63,6-3.45,9-5a37,37,0,0,1,4.65-1.46,2.13,2.13,0,0,0,1.13-1c.91-2,1.72-4,2.6-6,.07-.17.33-.25.51-.37.09.21.26.41.26.62,0,1.75,0,3.5,0,5.25Z" transform="translate(287.9 -113.65)"/><path class="cls-1" d="M-240.61,192c0-1.58.09-3.17,0-4.75-.1-1.27.54-1.73,1.59-2.08a84.36,84.36,0,0,0,9-3.1c3.71-1.7,6.47-4.64,9.15-7.73a27.08,27.08,0,0,0,6-13c.82-4.44,1.08-9.23-.88-13.68-1-2.3-1.89-4.67-3-6.93-1.79-3.68-4.82-6.25-8-8.75a28.43,28.43,0,0,0-12.35-5.4,1.56,1.56,0,0,1-1.5-1.83c0-3.42,0-6.83,0-10.25a3.55,3.55,0,0,1,.23-.86c.22.2.52.36.63.61a35.19,35.19,0,0,1,2.37,5.34,2.72,2.72,0,0,0,2.44,2.06,29.46,29.46,0,0,1,12.44,6.08,3.56,3.56,0,0,0,4.07.54,16.24,16.24,0,0,1,3-1c.66-.15,1.46-.1.82,1-.23.4,0,1.05-.25,1.45-1.83,3.08-.61,5.69,1.21,8.2a25.54,25.54,0,0,1,4.37,12,3.36,3.36,0,0,0,2.1,3.05c2,.83,4.06,1.71,6.09,2.58.25.11.5.25.75.38-.19.16-.35.4-.57.48q-2.85,1.09-5.71,2.15a3.6,3.6,0,0,0-2.57,2.95,24,24,0,0,1-2.56,8.66c-1.19,2.22-2,4.8-3.65,6.57-1.79,1.92-.71,3.59-.61,5.4,0,.23.25.44.28.67.09.69.13,1.38.18,2.06-.62-.11-1.24-.19-1.85-.34a7.45,7.45,0,0,1-1.88-.57,3.13,3.13,0,0,0-3.84.53c-3.61,3-7.91,4.57-12.27,6a2.89,2.89,0,0,0-2.14,2c-.62,1.77-1.5,3.45-2.29,5.16-.08.18-.34.28-.52.42-.09-.19-.27-.38-.27-.57,0-1.83,0-3.66,0-5.49Z" transform="translate(287.9 -113.65)"/></svg>