<svg id="Layer_1" data-name="Layer 1" xmlns="http://www.w3.org/2000/svg" viewBox="0 0 87.89 84.52"><defs><style>.cls-1{fill:#fff;}</style></defs><path class="cls-1" d="M-403.08,356.51c-.21,1.21-.49,2.41-.61,3.63a14.58,14.58,0,0,0,.15,2.46c.08.81.22,1.62.26,2.44a2.64,2.64,0,0,1-.26.86,2.71,2.71,0,0,1-.56-.62,41.29,41.29,0,0,1-2.31-5.41,3.05,3.05,0,0,0-2.53-2.32,26.67,26.67,0,0,1-8.37-3.35,28.21,28.21,0,0,1-2.66-1.73c-2-1.64-4-2.35-6.55-1.3a19.47,19.47,0,0,1-2.77.75,15.71,15.71,0,0,1,.56-2.95c.91-2.26.51-4.08-.82-6.19-2.5-3.93-4.62-8.12-5.1-12.92a4.2,4.2,0,0,0-2.84-3.81c-1.81-.69-3.53-1.67-5.28-2.54-.2-.1-.33-.33-.5-.5.24-.12.48-.26.73-.37,2.1-.89,4.23-1.73,6.3-2.7a2.07,2.07,0,0,0,1.07-1.39,30.74,30.74,0,0,1,6.76-16.29,3.21,3.21,0,0,0,.65-3c-.3-1.35-.58-2.7-.86-4.06-.18-.88-.06-1.2,1-.76,3.51,1.46,6.64.88,9.64-1.6a15.08,15.08,0,0,1,7-3.33c2.67-.48,4.88-1.86,5.42-4.93a6.43,6.43,0,0,1,.89-1.75c.27-.49.56-1,.85-1.44a7.62,7.62,0,0,1,.52,1.86c0,1-.21,2-.27,2.93s-.05,2.14-.05,3.2c0,.15.16.29.2.45.74,3.15.06,4.19-3.07,4.67A23.33,23.33,0,0,0-419.42,301c-2.55,2.48-5.19,4.91-6.69,8.21a32,32,0,0,0-3.17,10.95,32.18,32.18,0,0,0,.91,10.87,28.34,28.34,0,0,0,10.79,16,25.32,25.32,0,0,0,9,4.71c.79.18,1.59.33,2.39.44,2.54.36,2.88.73,2.9,3.29v1Z" transform="translate(443.27 -281.39)"/><path class="cls-1" d="M-396.12,359.41a37.44,37.44,0,0,0,0-4.74c-.22-1.72.8-2.26,2.05-2.41,8.52-1,14.39-6.2,19.16-12.71a22.67,22.67,0,0,0,3.55-8,31,31,0,0,0,1.23-9c-.34-7.43-2.66-14.14-8.18-19.43a40,40,0,0,0-6.12-5.4,23.86,23.86,0,0,0-9.78-3.63c-1.39-.16-1.9-.62-1.88-2,.05-3.33,0-6.66,0-10a6,6,0,0,1,.08-.74c.24.19.59.33.71.59a25.36,25.36,0,0,1,1.9,4.44,3.17,3.17,0,0,0,2.67,2.51,25.75,25.75,0,0,1,9.58,4.13c3.09,2.37,6.06,3.54,9.78,1.74.79-.38,1.28.18,1,1.06q-.52,1.88-1.17,3.72a3.19,3.19,0,0,0,.74,3.38,19.5,19.5,0,0,1,3.31,5.43c1.1,3.05,2.5,6.05,2.74,9.38a2.43,2.43,0,0,0,1.62,2.24c2.36.91,4.73,1.8,7.09,2.7.22.08.43.18.64.27a2.68,2.68,0,0,1-.63.55c-2.19.92-4.4,1.78-6.58,2.7a3.54,3.54,0,0,0-2.25,3.16c-.77,4.87-2.28,9.58-5.48,13.45-1.91,2.32-1.91,4.62-1,7.22.66,1.86.26,2.28-1.65,2a1.42,1.42,0,0,1-.47-.13c-2.63-1.54-4.78-.54-7,1.07a25.47,25.47,0,0,1-10.18,4.55,3.51,3.51,0,0,0-2.64,2.29c-.61,1.33-1.23,2.65-1.87,4-.27.54-.59,1.06-.89,1.59,0-.57-.09-1.14-.1-1.71C-396.13,362.24-396.12,360.82-396.12,359.41Z" transform="translate(443.27 -281.39)"/><path class="cls-1" d="M-400,339.88c1.79-.23,3.58-.43,5.36-.7a4.86,4.86,0,0,0,1.62-.55c1.82-1,1.88-2.32,0-3.15a13.87,13.87,0,0,0-9.87-.27,1.17,1.17,0,0,0-.67.9c0,.26.49.67.81.72,2.28.37,4.59,1,6.81-.38.3-.18.86,0,1.3.08a4.58,4.58,0,0,1-.44,1.12,1.45,1.45,0,0,1-.84.48c-3.26.64-6.54,1.08-9.57-.78-1.52-.93-1.47-2.18.18-3a11.79,11.79,0,0,1,4.36-1.53c3.78-.28,7.64-.48,11,1.84a6,6,0,0,1,1.66,1.4c.68,1,.52,1.78-.6,2.63a17.77,17.77,0,0,1-8.55,3.37c-3.33.47-6.55-.38-9.78-1.06-.36-.08-.63-.53-1-.7-1.75-.82-3.81-1.77-3.67-3.86.16-2.29,2.05-3.84,4.11-4.8,1.38-.65,2.94-.91,4.39-1.44.79-.28,1.87-.56,2.18-1.17.55-1-.4-1.8-1.24-2.4-.33-.23-.69-.44-1-.66-.87-.55-2.13-1.75-2.52-1.52a10.24,10.24,0,0,0-2.56,2.92,1.23,1.23,0,0,0,0,1.15c1.52,1.71.19,1.56-1,1.56-1.3,0-2.6.08-3.89,0-1.58-.11-1.66-.23-.66-1.52,1.26-1.63,2.69-3.13,4-4.71.5-.6.89-1.3,1.33-1.95-.95-.6-2.11-1.87-2.8-1.66-2,.62-1.62-.57-1.57-1.56a21.27,21.27,0,0,1,.41-2.6c.82.46,1.66.88,2.44,1.39,1.1.71,2.16,2.08,3.21,2s1.86-1.54,2.75-2.43a25.85,25.85,0,0,0,2.48-2.65,2,2,0,0,0,.34-1.71,1.84,1.84,0,0,0-1.66-.39c-1.24.38-2.4,1-3.61,1.5a1.53,1.53,0,0,1-.6,0c.08-.14.14-.34.27-.42a35.22,35.22,0,0,1,4.43-2.58c1-.41,1.78-.76,1.39-1.86s-1.39-1-2.34-.7c-4,1.12-8,2.31-10.81,5.75a3.87,3.87,0,0,1-1,.63,7.48,7.48,0,0,1-.21-1.13,14.08,14.08,0,0,1,0-2.25,1.38,1.38,0,0,1,.53-1c2.26-1.13,4.6-2.09,6.82-3.3,6.89-3.75,13.42-2.63,19.82,1.25,1.24.75,2.59,1.31,3.87,2a2.8,2.8,0,0,1,.75.78c.08.11,0,.32,0,.49-.06,1.12-.12,2.24-.19,3.36-.76-.7-1.49-1.45-2.28-2.11a18,18,0,0,0-9.52-4.15c-.67-.08-1.91-.53-1.91.82,0,1.17,1.11.78,1.74.75a6.59,6.59,0,0,1,5.25,2.33c1.43,1.51,1.28,3.23-.28,4.67a26.26,26.26,0,0,0-2,2.34c1.44.63,2-.84,2.95-1.32s1.43-1.38,2.19-2c.24-.2.69-.14,1.05-.2a26.66,26.66,0,0,1,.42,3.32c0,.25-.78.53-1.21.78-1,.56-2,1.07-2.91,1.69-.13.09-.07.78.12,1,1,1.22,2,2.39,3,3.59.79.94,1.56,1.91,2.35,2.85.52.62.26.84-.42.85h-5.25c-.68,0-1.14-.08-.66-1a2.53,2.53,0,0,0,.33-1.93,18.42,18.42,0,0,0-2.34-2.83c-.05-.06-.31,0-.41.06a45.09,45.09,0,0,0-4.07,3.16c-.43.4-.35,1.36-.47,2.07-.05.33.09.72,0,1s-.51.86-.85.93c-1.28.26-2.59.4-3.89.55a8.81,8.81,0,0,0-5.17,3.05c-1,1.06-.68,2.17.81,3A12.93,12.93,0,0,0-400,339.88Zm4.37-18.17-3.84-4.56s-.16,0-.24,0c-1,0-4.43,4.68-3.84,5.28a14,14,0,0,0,3.67,2.72C-399,325.56-395.78,323.1-395.63,321.71Zm-.87-9.83c-.56.23-1.47.35-1.59.72a2.49,2.49,0,0,0,.51,1.78,5.57,5.57,0,0,0,1.8,1.87,2.72,2.72,0,0,0,2.2,0,1.47,1.47,0,0,0,.47-2.12C-393.88,312.87-394.74,311.8-396.5,311.88Z" transform="translate(443.27 -281.39)"/></svg>