<svg id="Layer_1" data-name="Layer 1" xmlns="http://www.w3.org/2000/svg" viewBox="0 0 87.42 84.97"><defs><style>.cls-1{fill:#fff;}</style></defs><path class="cls-1" d="M-93,117c0,2.54-.07,5.08,0,7.62.05,1.14-.12,1.72-1.39,2a47.13,47.13,0,0,0-6.06,1.86,28.71,28.71,0,0,0-14.35,12.21c-2.47,3.93-3.46,8.17-4,12.71-.53,4.21.29,8.16,1.32,12.07a25,25,0,0,0,5.89,10.06,29.63,29.63,0,0,0,15.23,9.32c1.17.3,2.83.38,3.33,1.16.61,1,.3,2.56.32,3.88,0,2.7,0,5.4,0,8.1a4.22,4.22,0,0,1-.22.9,3.47,3.47,0,0,1-.64-.8c-.85-1.93-1.58-3.93-2.55-5.8a3.62,3.62,0,0,0-1.94-1.63,67.92,67.92,0,0,1-10.7-4.69,11.93,11.93,0,0,1-1.5-1.29c-1.14-.87-2.21-1.85-3.89-1.15a16.69,16.69,0,0,1-2.88.57c-2,.45-2,.46-1.51-1.62a15.5,15.5,0,0,1,.63-2.11,4.2,4.2,0,0,0-.61-4.09c-2.57-4.26-5-8.64-5.55-13.76a4,4,0,0,0-3.22-4,33.41,33.41,0,0,1-5-2c-.57-.25-.75-.58,0-.9a33.94,33.94,0,0,1,4.26-1.86c2.57-.69,3.53-2.37,4-4.83a27.42,27.42,0,0,1,5.72-13.13c1.77-2.12.89-4.15.67-6.28,0-.47-.35-.93-.39-1.4-.1-1,.09-1.72,1.33-.93.25.17.64.12.94.25a6.15,6.15,0,0,0,6.8-.9,26.49,26.49,0,0,1,10.66-4.84A2.63,2.63,0,0,0-96,119.52a27.08,27.08,0,0,1,2-4.7c.09-.21.34-.35.52-.52a3.66,3.66,0,0,1,.21.55c.14.7.25,1.41.38,2.12Z" transform="translate(132.82 -113.91)"/><path class="cls-1" d="M-85.61,192.11c0-1.67.07-3.34,0-5a1.63,1.63,0,0,1,1.54-1.86,26.69,26.69,0,0,0,10.65-4.15c1.77-1.26,3.25-2.94,5-4.24,3-2.18,4.56-5.38,6.1-8.47a27,27,0,0,0,2.63-8.87,29,29,0,0,0-2.15-15A31.16,31.16,0,0,0-75,129.92a28.67,28.67,0,0,0-9.39-3.34c-.74-.14-1.25-.21-1.24-1.12,0-3.67,0-7.33,0-11a1.62,1.62,0,0,1,.23-.55c.18.16.43.28.53.48a29.76,29.76,0,0,1,1.92,4.52,3.76,3.76,0,0,0,3.07,2.8,35.33,35.33,0,0,1,9.62,4.23,10.69,10.69,0,0,1,1.61,1.11,5,5,0,0,0,5.86,1.14,23.76,23.76,0,0,1,2.76-.84c-.09,1-.15,2.05-.29,3.07a5,5,0,0,1-.43,1.15,3.88,3.88,0,0,0,.67,4.24A31.2,31.2,0,0,1-54.29,150a3.72,3.72,0,0,0,2.36,3.16c1.94.83,3.87,1.7,5.81,2.54a3.4,3.4,0,0,0,.72.14,7.78,7.78,0,0,1-.74.42c-1.94.82-3.87,1.67-5.83,2.43a3.19,3.19,0,0,0-2.25,2.68,33,33,0,0,1-5.69,14.74c-1.79,2.62-1.4,4.78-.75,7.3.12.45.18.91.26,1.37-.52,0-1-.05-1.55-.11a3.1,3.1,0,0,1-1-.2c-2.49-1.21-4.49-.78-6.66,1.09-2.67,2.29-6.11,3.45-9.46,4.37a6.17,6.17,0,0,0-4.7,5c0,.15,0,.36,0,.49-.49.83-1,1.64-1.52,2.46-.11-.83-.26-1.65-.3-2.48C-85.66,194.27-85.62,193.19-85.61,192.11Z" transform="translate(132.82 -113.91)"/><path class="cls-1" d="M-89.5,175.92c-4.32,1-8.3-.79-12.11-2.71a9.92,9.92,0,0,1-3.48-3.82c-.74-1.21.17-2.53,1-3.48a17.6,17.6,0,0,1,7.27-5.22c2.71-.93,5.54-1.25,8.24-2.06,3.11-.93,6.28-1.77,8.93-3.89a3.37,3.37,0,0,0,1.53-3.1,3.11,3.11,0,0,0-2.31-2.89c-3.43-1.05-7-2-10.57-1.64-2.81.29-5.67.72-8.11,2.41-1.62,1.12-1.69,2.11,0,3a14.69,14.69,0,0,0,4.57,1.58,40.17,40.17,0,0,0,5.49.06c1,0,1.81-.26,1.85-1.48a1.87,1.87,0,0,0-1.72-2.07,17.14,17.14,0,0,0-3.37.41,2.71,2.71,0,0,1-.83-.16c.11-.29.14-.69.35-.85a5.87,5.87,0,0,1,8.54,1c1.09,1.48.3,4.34-1.38,5.46A10.88,10.88,0,0,1-93.63,158,32.12,32.12,0,0,1-100.2,156a8.66,8.66,0,0,1-4.63-3.82c-.6-1.1-.72-2,.24-2.8a19,19,0,0,1,4.39-3.11c3.31-1.34,2.91-1.14,2.36-4.67,0-.15-.22-.29-.22-.43,0-.47.06-.94.09-1.41.25.31.48.64.74.93A27.3,27.3,0,0,0-95,143.08a2.37,2.37,0,0,0,4-1.18c.39-1.16.61-2.37.92-3.55a11.29,11.29,0,0,1,.51-1.62c.07-.18.33-.28.51-.41a3,3,0,0,1,.31.59c.19.87.38,1.75.52,2.64.38,2.34,1.55,4,2.91,4.13s3.38-1.44,4.24-3.31c0-.07,0-.2,0-.24.22-.22.45-.42.68-.62a3.25,3.25,0,0,1,.11,1,21.21,21.21,0,0,1-.72,3.08c-.45,1.24,0,1.76,1.15,2.18a11.93,11.93,0,0,1,5.37,3.4C-72.93,151-73,152-74.32,154c-3.05,4.54-7.75,6.1-12.7,7.05a49.07,49.07,0,0,0-10.27,3.16,7.41,7.41,0,0,0-2.7,2.53A3.11,3.11,0,0,0-98.6,171a21.84,21.84,0,0,0,19-.11c1.69-.78,1.9-2.3.31-3.09a18.37,18.37,0,0,0-5.31-1.68c-1.72-.26-3.56-1-5.27,0a10.19,10.19,0,0,0-1.81,1.73c.62.6,1.19,1.63,1.87,1.71a13.71,13.71,0,0,0,3.58-.52,6.27,6.27,0,0,1,.87,0,3.68,3.68,0,0,1-.39.85,2.69,2.69,0,0,1-2.54,1.25,18.79,18.79,0,0,0-2.49,0,4.71,4.71,0,0,1-4.3-3c-.32-1.22.87-3.57,2.35-4.31,3.36-1.66,6.82-2.3,10.46-.84,1,.42,2.29.45,3.28,1a20.83,20.83,0,0,1,4.49,2.88c1.88,1.69,1.62,3.77-.47,5.21C-79.28,174.91-83.94,176.74-89.5,175.92Z" transform="translate(132.82 -113.91)"/></svg>