<!-- Generated by IcoMoon.io -->
<svg version="1.1" xmlns="http://www.w3.org/2000/svg" width="32" height="32" viewBox="0 0 32 32">
<title>fighters-icon-bearer</title>
<path fill="#fff" d="M18.857 0c0.936 0.163 1.713 0.684 2.52 1.13 0.277 0.153 0.509 0.388 0.769 0.574 0.085 0.060 0.196 0.084 0.291 0.132 0.073 0.036 0.164 0.069 0.204 0.13 0.425 0.667 0.916 1.289 1.292 1.992 0.29 0.542 0.445 1.118 0.616 1.695 0.011 0.038 0.024 0.078 0.046 0.109 0.245 0.326 0.38 0.702 0.506 1.084 0.046 0.142 0.107 0.28 0.167 0.415 0.059 0.133 0.021 0.202-0.124 0.237-0.346 0.082-0.679 0.004-1.010-0.079-0.61-0.152-1.084 0.068-1.456 0.537-0.080 0.1-0.095 0.251-0.152 0.373-0.544 1.16 0.378 2.196 1.356 2.357 0.367 0.060 0.725 0.065 1.084-0.051 0.206-0.068 0.361-0.182 0.475-0.366 0.034-0.054 0.114-0.13 0.157-0.12 0.124 0.029 0.286 0.031 0.331 0.191 0.025 0.089 0.038 0.189 0.021 0.28-0.061 0.34-0.135 0.676-0.206 1.013-0.009 0.044-0.020 0.088-0.033 0.132-0.201 0.638-0.404 1.277-0.598 1.918-0.033 0.108-0.046 0.226-0.044 0.337 0.005 0.213-0.122 0.366-0.228 0.527-0.018 0.026-0.112 0.024-0.156 0.002-0.065-0.031-0.119-0.090-0.176-0.139-0.139-0.119-0.283-0.211-0.482-0.208-0.084 0.001-0.178-0.058-0.25-0.112-0.127-0.098-0.253-0.135-0.405-0.075-0.098 0.038-0.198 0.070-0.297 0.104-0.29 0.099-0.462 0.31-0.449 0.608 0.019 0.429 0.079 0.857 0.132 1.283 0.016 0.127 0.025 0.25-0.075 0.335-0.198 0.169-0.286 0.406-0.419 0.617-0.065 0.103-0.151 0.207-0.252 0.268-0.243 0.148-0.5 0.275-0.755 0.403-0.051 0.026-0.145 0.045-0.177 0.018-0.041-0.036-0.043-0.12-0.059-0.184-0.026-0.103-0.043-0.208-0.079-0.306-0.034-0.093-0.078-0.187-0.137-0.265-0.114-0.149-0.238-0.292-0.37-0.425-0.026-0.026-0.119-0.019-0.159 0.006-0.035 0.023-0.065 0.1-0.053 0.139 0.011 0.034 0.084 0.068 0.13 0.068 0.149 0.001 0.186 0.065 0.144 0.201-0.013 0.041-0.003 0.089-0.003 0.134 0.001 0.050 0.024 0.11 0.003 0.148-0.137 0.253-0.030 0.507-0.021 0.761 0.006 0.183-0.024 0.369-0.048 0.552-0.038 0.277-0.076 0.554-0.132 0.829-0.026 0.13-0.095 0.252-0.14 0.379-0.048 0.138-0.151 0.189-0.286 0.204-0.201 0.023-0.322-0.054-0.324-0.256-0.001-0.213 0.035-0.426 0.068-0.638 0.049-0.321 0.117-0.641 0.161-0.963 0.009-0.064-0.053-0.137-0.082-0.204-0.074 0.035-0.156 0.059-0.217 0.108-0.038 0.030-0.038 0.102-0.065 0.148-0.090 0.154-0.172 0.315-0.282 0.454-0.11 0.14-0.179 0.13-0.347 0.019-0.129-0.085-0.113-0.184-0.068-0.312 0.148-0.419 0.301-0.837 0.411-1.267 0.041-0.162 0.006-0.366-0.055-0.528-0.113-0.294-0.237-0.595-0.421-0.844-0.191-0.257-0.443-0.478-0.778-0.561-0.066-0.016-0.137-0.043-0.191-0.084-0.36-0.275-0.761-0.27-1.177-0.189-0.074 0.014-0.149 0.045-0.221 0.038-0.359-0.034-0.627 0.134-0.869 0.369-0.108 0.104-0.222 0.204-0.319 0.319-0.065 0.078-0.135 0.174-0.148 0.271-0.066 0.472-0.134 0.943-0.162 1.417-0.020 0.349 0.061 0.689 0.304 0.967 0.036 0.041 0.079 0.088 0.089 0.137 0.014 0.068 0.013 0.147-0.013 0.209-0.009 0.023-0.109 0.026-0.161 0.011-0.142-0.043-0.278-0.1-0.428-0.157 0 0.059-0.001 0.099 0 0.138 0.008 0.191-0.046 0.242-0.217 0.171-0.161-0.066-0.322-0.144-0.458-0.251-0.203-0.158-0.299-0.37-0.282-0.645 0.016-0.261 0.065-0.529-0.058-0.785-0.122-0.252-0.465-0.359-0.681-0.181-0.25 0.206-0.502 0.309-0.805 0.133-0.020 0.129-0.033 0.25-0.058 0.367-0.023 0.102-0.092 0.125-0.182 0.076-0.048-0.026-0.094-0.056-0.135-0.092-0.226-0.189-0.453-0.379-0.674-0.574-0.058-0.051-0.102-0.123-0.143-0.191-0.063-0.105-0.073-0.194 0.076-0.243 0.043-0.014 0.078-0.072 0.103-0.117 0.11-0.201 0.216-0.404 0.322-0.607 0.104-0.199 0.23-0.39 0.305-0.6 0.148-0.415-0.147-0.827-0.581-0.865-0.542-0.049-1.002 0.132-1.415 0.465-0.119 0.097-0.389 0.078-0.519-0.038-0.236-0.208-0.482-0.408-0.702-0.631-0.321-0.326-0.502-0.738-0.607-1.175-0.098-0.409-0.164-0.825-0.238-1.239-0.029-0.163 0.055-0.246 0.223-0.237 0.231 0.011 0.46 0.019 0.691 0.034 0.571 0.036 0.981-0.232 1.247-0.707 0.351-0.626 0.448-1.289 0.209-1.986-0.192-0.559-0.923-0.968-1.489-0.814-0.241 0.065-0.478 0.147-0.707 0.243-0.266 0.112-0.423 0.030-0.438-0.258-0.010-0.188-0.031-0.378-0.014-0.563 0.016-0.172 0.060-0.346 0.122-0.508 0.209-0.552 0.419-1.104 0.652-1.646 0.251-0.578 0.586-1.106 1.036-1.555 0.134-0.134 0.266-0.275 0.379-0.428 0.439-0.595 1.010-1.024 1.652-1.372 0.59-0.321 1.175-0.648 1.764-0.973 0.048-0.026 0.098-0.053 0.151-0.068 0.312-0.090 0.59-0.247 0.847-0.443 0.099-0.075 0.213-0.097 0.309-0.029 0.14 0.1 0.271 0.221 0.389 0.347 0.087 0.094-0.015 0.144-0.083 0.178-0.242 0.12-0.4 0.314-0.502 0.557-0.159 0.379-0.134 0.758 0.043 1.12 0.056 0.115 0.164 0.213 0.266 0.3 0.174 0.149 0.359 0.288 0.546 0.421 0.361 0.26 0.773 0.385 1.212 0.391 0.477 0.006 0.95-0.038 1.392-0.247 0.194-0.093 0.357-0.212 0.492-0.383 0.408-0.519 0.6-1.093 0.48-1.755-0.038-0.207-0.13-0.374-0.294-0.508-0.166-0.137-0.324-0.283-0.507-0.445 0.139-0.069 0.213-0.104 0.287-0.138 0.291 0 0.582 0 0.873 0zM19.623 16.931c0.089-0.035 0.184-0.048 0.237-0.102 0.050-0.050 0.088-0.156 0.069-0.217-0.018-0.054-0.119-0.102-0.188-0.109-0.034-0.004-0.099 0.085-0.113 0.142-0.020 0.083-0.005 0.176-0.005 0.286zM8.653 7.343c-0.045 0.005-0.095-0.005-0.122 0.015-0.041 0.033-0.068 0.087-0.1 0.13 0.041 0.024 0.083 0.065 0.127 0.069 0.068 0.005 0.14-0.009 0.206-0.029 0.030-0.009 0.073-0.053 0.072-0.079-0.001-0.031-0.038-0.070-0.069-0.088-0.034-0.018-0.078-0.014-0.113-0.019zM9.649 13.918c0.083 0.083 0.1 0.080 0.235-0.033-0.098-0.122-0.114-0.119-0.235 0.033z"></path>
<path fill="#fff" d="M12.204 32c-0.329-0.202-0.406-0.452-0.305-0.834 0.206-0.779 0.4-1.562 0.586-2.346 0.090-0.379 0.159-0.764 0.216-1.15 0.025-0.176-0.006-0.36-0.011-0.539-0.001-0.060-0.004-0.12-0.004-0.181 0.001-0.178 0.080-0.325 0.193-0.361 0.129-0.041 0.32 0.039 0.414 0.183s0.174 0.292 0.268 0.434c0.148 0.222 0.286 0.225 0.448 0.014 0.208-0.268 0.344-0.571 0.45-0.893 0.069-0.208 0.196-0.401 0.316-0.588 0.080-0.124 0.222-0.109 0.341-0.059s0.080 0.162 0.061 0.251c-0.049 0.246-0.105 0.489-0.161 0.733-0.069 0.302-0.26 0.526-0.483 0.727-0.034 0.030-0.080 0.053-0.1 0.090-0.033 0.063-0.049 0.133-0.073 0.201 0.066 0.023 0.137 0.072 0.199 0.063 0.123-0.016 0.24-0.070 0.361-0.099 0.161-0.039 0.321-0.073 0.484-0.102 0.099-0.018 0.212-0.004 0.237 0.105 0.024 0.109-0.008 0.22-0.118 0.296-0.181 0.125-0.359 0.256-0.527 0.398-0.107 0.089-0.201 0.196-0.29 0.304-0.325 0.388-0.647 0.779-0.968 1.17-0.070 0.085-0.137 0.173-0.196 0.265-0.374 0.582-0.744 1.165-1.119 1.746-0.043 0.065-0.108 0.115-0.163 0.172-0.019 0.001-0.039 0.001-0.059 0.001zM12.647 30.050c-0.105 0.129-0.125 0.28-0.119 0.436 0.001 0.040 0.029 0.078 0.045 0.118 0.044-0.019 0.098-0.028 0.129-0.059 0.083-0.082 0.046-0.401-0.055-0.495z"></path>
<path fill="#fff" d="M16.973 15.276c0.258 0.085 0.549 0.135 0.756 0.344 0.304 0.307 0.527 0.666 0.62 1.098 0.149 0.696-0.199 1.296-0.884 1.485-0.124 0.034-0.149 0.093-0.142 0.201 0.011 0.151-0.014 0.28-0.143 0.389-0.060 0.050-0.088 0.156-0.102 0.241-0.046 0.292-0.058 0.591-0.123 0.878-0.093 0.404-0.221 0.8-0.34 1.198-0.011 0.036-0.068 0.076-0.108 0.083-0.277 0.043-0.513-0.158-0.507-0.44 0.003-0.134 0.036-0.267 0.063-0.4 0.095-0.465 0.191-0.932 0.291-1.396 0.021-0.102 0.050-0.204 0.089-0.301 0.089-0.226 0.046-0.354-0.162-0.477-0.474-0.282-0.775-0.71-0.936-1.223-0.181-0.579 0.177-1.214 0.763-1.421 0.212-0.075 0.426-0.144 0.641-0.212 0.068-0.020 0.138-0.029 0.223-0.045z"></path>
<path fill="#fff" d="M7.191 20.283c0.049-0.319 0.14-0.638 0.342-0.917 0.041-0.056 0.082-0.114 0.124-0.169 0.095-0.123 0.102-0.246 0.040-0.393-0.085-0.202-0.157-0.411-0.217-0.622-0.023-0.080-0.016-0.178 0.005-0.261 0.104-0.421 0.319-0.785 0.596-1.116 0.163-0.196 0.321-0.398 0.482-0.596 0.016-0.020 0.030-0.040 0.049-0.056 0.095-0.083 0.192-0.176 0.332-0.117 0.092 0.039 0.128 0.226 0.065 0.371-0.068 0.156-0.156 0.302-0.232 0.454-0.149 0.295-0.309 0.584-0.438 0.888-0.066 0.157-0.085 0.336-0.104 0.508-0.013 0.11 0.055 0.148 0.167 0.109 0.083-0.030 0.171-0.055 0.258-0.061 0.099-0.008 0.134 0.056 0.103 0.148-0.016 0.046-0.043 0.090-0.068 0.133-0.192 0.335-0.384 0.669-0.576 1.003-0.184 0.321-0.277 0.661-0.248 1.035 0.010 0.128-0.004 0.261-0.030 0.388-0.031 0.149-0.143 0.191-0.273 0.115-0.043-0.025-0.092-0.055-0.114-0.095-0.125-0.232-0.25-0.463-0.263-0.749z"></path>
<path fill="#fff" d="M19.842 21.777c0.041-0.084 0.102-0.164 0.12-0.253 0.050-0.24 0.066-0.488 0.128-0.724 0.139-0.537 0.3-1.069 0.447-1.603 0.030-0.11 0.095-0.157 0.199-0.171 0.204-0.028 0.344 0.139 0.257 0.33-0.058 0.128-0.064 0.245-0.029 0.376 0.018 0.063 0.003 0.139-0.015 0.204-0.076 0.28-0.167 0.556-0.237 0.838-0.049 0.197-0.074 0.4-0.109 0.601-0.066 0.384-0.208 0.712-0.615 0.85-0.186 0.063-0.305 0.192-0.351 0.38-0.083 0.33-0.158 0.661-0.236 0.992-0.020 0.083-0.031 0.168-0.059 0.247-0.055 0.161-0.188 0.204-0.335 0.114-0.176-0.109-0.203-0.276-0.172-0.46 0.069-0.405 0.153-0.807 0.212-1.213 0.035-0.242 0.033-0.489 0.049-0.734 0.004-0.049 0.010-0.1 0.026-0.147 0.049-0.142 0.186-0.228 0.327-0.211 0.157 0.020 0.189 0.14 0.22 0.267 0.025 0.103 0.059 0.202 0.089 0.304 0.028 0.003 0.055 0.008 0.083 0.011z"></path>
<path fill="#fff" d="M11.282 24.429c-0.029 0.054-0.049 0.114-0.088 0.159-0.153 0.177-0.286 0.197-0.423 0.073-0.207-0.187-0.232-0.391-0.080-0.563 0.129-0.145 0.257-0.292 0.37-0.45 0.411-0.569 0.606-1.204 0.537-1.909-0.010-0.099 0.011-0.178 0.103-0.23 0.143-0.080 0.233-0.053 0.3 0.099 0.157 0.357 0.122 0.725 0.049 1.093-0.028 0.142-0.065 0.282-0.090 0.425-0.025 0.149-0.056 0.29-0.171 0.406-0.129 0.133-0.108 0.256 0.041 0.365 0.187 0.137 0.251 0.304 0.192 0.524-0.142 0.532-0.319 1.049-0.735 1.439-0.082 0.076-0.183 0.129-0.275 0.196-0.060 0.043-0.122 0.085-0.178 0.134-0.13 0.113-0.245 0.048-0.352-0.033-0.114-0.084-0.199-0.198-0.154-0.345 0.018-0.058 0.099-0.118 0.163-0.134 0.326-0.082 0.526-0.295 0.66-0.587 0.066-0.145 0.14-0.288 0.202-0.436 0.020-0.049 0.010-0.112 0.015-0.168-0.028-0.020-0.056-0.039-0.085-0.058z"></path>
<path fill="#fff" d="M9.013 17.431c0.008-0.046 0.009-0.135 0.038-0.213 0.166-0.436 0.192-0.898 0.265-1.351 0.018-0.109 0.061-0.222 0.119-0.316 0.134-0.217 0.277-0.429 0.433-0.631 0.217-0.281 0.497-0.478 0.854-0.544 0.059-0.011 0.119-0.016 0.179-0.015 0.154 0.005 0.266 0.082 0.334 0.218 0.068 0.138 0.036 0.27-0.065 0.374-0.093 0.097-0.199 0.182-0.306 0.265-0.127 0.099-0.226 0.207-0.231 0.383-0.001 0.060-0.043 0.122-0.074 0.177-0.242 0.42-0.494 0.835-0.728 1.261-0.083 0.151-0.122 0.325-0.183 0.487-0.048 0.125-0.090 0.255-0.154 0.371s-0.192 0.127-0.293 0.031c-0.132-0.122-0.188-0.278-0.187-0.495z"></path>
<path fill="#fff" d="M24.569 16.094c-0.036 0.144-0.066 0.296-0.114 0.442-0.050 0.156-0.118 0.306-0.174 0.46-0.051 0.138-0.357 0.361-0.507 0.36-0.033 0-0.080-0.010-0.095-0.033-0.137-0.199-0.349-0.329-0.326-0.648 0.044-0.602-0.149-1.175-0.386-1.726-0.112-0.261-0.072-0.395 0.194-0.508 0.138-0.058 0.282-0.105 0.429-0.133 0.063-0.013 0.152 0.016 0.203 0.059 0.311 0.253 0.536 0.564 0.616 0.967 0.049 0.248 0.104 0.497 0.161 0.76z"></path>
<path fill="#fff" d="M13.368 17.213c-0.117 0.607-0.044 1.232-0.268 1.823-0.178 0.47-0.292 0.965-0.443 1.446-0.058 0.187-0.127 0.209-0.304 0.138-0.248-0.102-0.384-0.489-0.29-0.739 0.154-0.405 0.295-0.817 0.423-1.23 0.060-0.193 0.070-0.401 0.114-0.601 0.074-0.331 0.156-0.661 0.241-0.99 0.029-0.109 0.199-0.171 0.363-0.138 0.172 0.034 0.152 0.174 0.164 0.291z"></path>
<path fill="#fff" d="M11.262 22.482c-0.27-0.144-0.346-0.401-0.41-0.666-0.014-0.058-0.010-0.122-0.030-0.177-0.1-0.275-0.074-0.546-0.005-0.823 0.038-0.149 0.035-0.31 0.075-0.458 0.054-0.201 0.117-0.403 0.203-0.592 0.083-0.181 0.199-0.346 0.302-0.518 0.015-0.026 0.031-0.051 0.051-0.074 0.089-0.107 0.281-0.158 0.381-0.103 0.098 0.054 0.152 0.248 0.094 0.38-0.056 0.128-0.123 0.252-0.193 0.373-0.277 0.473-0.374 1.002-0.447 1.532-0.031 0.226 0.040 0.465 0.064 0.7 0.015 0.144 0.046 0.291-0.087 0.426z"></path>
<path fill="#fff" d="M14.77 22.147c0.069-0.426 0.12-0.839 0.206-1.244 0.073-0.341 0.263-0.626 0.529-0.853 0.059-0.050 0.149-0.085 0.227-0.088 0.183-0.006 0.268 0.115 0.202 0.287-0.105 0.275-0.227 0.544-0.331 0.82-0.035 0.090-0.041 0.192-0.058 0.29-0.046 0.263-0.093 0.528-0.139 0.791-0.013 0.073-0.033 0.145-0.039 0.22-0.009 0.099 0.015 0.208-0.018 0.297-0.031 0.083-0.105 0.178-0.183 0.208-0.104 0.039-0.168-0.063-0.202-0.157-0.069-0.193-0.132-0.386-0.194-0.572z"></path>
<path fill="#fff" d="M24.829 17.362c-0.079 0.315-0.137 0.595-0.222 0.867-0.117 0.371-0.253 0.736-0.385 1.104-0.097 0.27-0.334 0.379-0.573 0.468-0.162 0.060-0.434-0.206-0.391-0.375 0.013-0.049 0.068-0.1 0.117-0.124 0.157-0.076 0.257-0.187 0.272-0.366 0.003-0.029 0.016-0.058 0.028-0.085 0.128-0.302 0.247-0.61 0.389-0.907 0.107-0.225 0.23-0.443 0.369-0.648 0.040-0.059 0.166-0.094 0.243-0.084 0.063 0.010 0.112 0.107 0.154 0.152z"></path>
<path fill="#fff" d="M15.122 24.469c0.036-0.176 0.069-0.433 0.144-0.676 0.14-0.459 0.305-0.911 0.462-1.365 0.041-0.119 0.080-0.238 0.255-0.215 0.208 0.029 0.261 0.095 0.247 0.309-0.038 0.601-0.162 1.178-0.429 1.722-0.041 0.083-0.049 0.183-0.072 0.275-0.010 0.039-0.013 0.079-0.025 0.117-0.051 0.171-0.192 0.273-0.342 0.255-0.154-0.020-0.242-0.145-0.24-0.421z"></path>
<path fill="#fff" d="M23.197 18.862c-0.020 0.158-0.068 0.319-0.056 0.474 0.019 0.251-0.038 0.477-0.118 0.71-0.133 0.383-0.233 0.775-0.349 1.164-0.018 0.058-0.034 0.117-0.061 0.168-0.115 0.221-0.263 0.233-0.411 0.033-0.122-0.166-0.198-0.321-0.14-0.559 0.082-0.339 0.188-0.661 0.341-0.972 0.151-0.305 0.287-0.616 0.439-0.921 0.041-0.082 0.103-0.162 0.176-0.216 0.089-0.064 0.196 0.010 0.181 0.119z"></path>
<path fill="#fff" d="M8.737 21.148c-0.115 0.449-0.235 0.948-0.375 1.441-0.048 0.169-0.198 0.271-0.359 0.342-0.112 0.050-0.203 0.021-0.281-0.069-0.166-0.196-0.147-0.265-0.040-0.502 0.156-0.345 0.273-0.706 0.399-1.064 0.092-0.261 0.152-0.527 0.056-0.805-0.021-0.061-0.005-0.196 0.019-0.202 0.082-0.020 0.187-0.025 0.257 0.013 0.082 0.044 0.168 0.128 0.196 0.213 0.058 0.186 0.080 0.381 0.128 0.632z"></path>
<path fill="#fff" d="M22.173 23.646c-0.089-0.050-0.161-0.078-0.215-0.125-0.098-0.089-0.084-0.202 0.039-0.25 0.271-0.104 0.389-0.307 0.433-0.581 0.016-0.102 0.056-0.203 0.107-0.294 0.198-0.359 0.24-0.76 0.326-1.149 0.026-0.12 0.066-0.241 0.118-0.352 0.053-0.117 0.161-0.147 0.28-0.114 0.095 0.026 0.199 0.204 0.181 0.296-0.084 0.431-0.162 0.864-0.257 1.293-0.083 0.375-0.272 0.702-0.536 0.975-0.127 0.132-0.315 0.203-0.475 0.301z"></path>
<path fill="#fff" d="M17.514 20.34c-0.024 0.346-0.018 0.697-0.082 1.036-0.070 0.376-0.202 0.74-0.315 1.108-0.041 0.133-0.094 0.265-0.161 0.386-0.031 0.058-0.109 0.127-0.166 0.125-0.054-0.001-0.129-0.075-0.156-0.135-0.073-0.169-0.115-0.344-0.061-0.537 0.128-0.463 0.245-0.928 0.359-1.394 0.019-0.078 0.018-0.168 0-0.247-0.045-0.207 0.025-0.385 0.153-0.527 0.054-0.059 0.193-0.070 0.285-0.055 0.117 0.019 0.144 0.128 0.143 0.24z"></path>
<path fill="#fff" d="M22.901 16.764c0.172 0.004 0.295 0.248 0.193 0.398-0.324 0.475-0.271 1.045-0.413 1.565-0.046 0.173-0.063 0.354-0.093 0.532-0.021 0.127-0.102 0.162-0.207 0.114-0.084-0.038-0.201-0.089-0.223-0.159-0.060-0.189-0.13-0.4-0.102-0.587 0.066-0.429 0.194-0.847 0.29-1.272 0.061-0.275 0.252-0.435 0.472-0.573 0.029-0.018 0.069-0.015 0.083-0.018z"></path>
<path fill="#fff" d="M20.128 23.515c-0.059 0.311-0.118 0.586-0.163 0.862s-0.087 0.553-0.115 0.832c-0.035 0.341-0.43 0.729-0.769 0.727-0.074 0-0.158-0.036-0.22-0.080-0.127-0.090-0.108-0.211 0.040-0.251 0.246-0.066 0.363-0.236 0.405-0.469 0.109-0.596 0.212-1.192 0.326-1.786 0.015-0.078 0.074-0.202 0.123-0.207 0.076-0.008 0.184 0.049 0.24 0.112 0.070 0.076 0.099 0.189 0.133 0.261z"></path>
<path fill="#fff" d="M12.244 22.195c0.013-0.024 0.038-0.076 0.066-0.127 0.069-0.117 0.148-0.226 0.207-0.347 0.135-0.278 0.277-0.554 0.383-0.844 0.076-0.208 0.097-0.438 0.146-0.657 0.016-0.073 0.034-0.147 0.061-0.216 0.055-0.134 0.192-0.154 0.266-0.034 0.087 0.14 0.156 0.291 0.228 0.439 0.010 0.019 0.009 0.048 0.004 0.070-0.036 0.171-0.074 0.34-0.114 0.509-0.013 0.054-0.025 0.109-0.049 0.157-0.152 0.299-0.282 0.612-0.472 0.886-0.123 0.177-0.325 0.304-0.508 0.43-0.104 0.072-0.22-0.056-0.218-0.266z"></path>
<path fill="#fff" d="M6.043 21.521c0.014-0.533 0.167-0.936 0.413-1.304 0.049-0.073 0.118-0.142 0.194-0.182 0.072-0.036 0.163-0.031 0.247-0.045 0.014 0.092 0.072 0.211 0.034 0.268-0.207 0.312-0.172 0.672-0.232 1.013-0.066 0.376-0.103 0.754-0.009 1.131 0.008 0.029 0.006 0.060 0.005 0.090-0.008 0.182-0.094 0.23-0.251 0.138-0.164-0.095-0.285-0.232-0.316-0.419-0.044-0.256-0.064-0.516-0.085-0.691z"></path>
<path fill="#fff" d="M10.385 17.748c-0.021 0.072-0.046 0.167-0.079 0.261-0.040 0.113-0.079 0.227-0.13 0.334-0.048 0.097-0.097 0.199-0.171 0.276-0.237 0.245-0.477 0.488-0.733 0.712-0.172 0.151-0.37 0.272-0.559 0.403-0.082 0.056-0.148 0.029-0.202-0.053-0.149-0.228-0.105-0.366 0.153-0.484 0.076-0.035 0.157-0.075 0.214-0.134 0.245-0.25 0.488-0.503 0.721-0.764 0.179-0.202 0.221-0.467 0.281-0.72 0.031-0.132 0.048-0.262 0.23-0.253 0.161 0.008 0.197 0.134 0.245 0.247 0.018 0.045 0.016 0.098 0.030 0.176z"></path>
<path fill="#fff" d="M9.347 24.864c0.040-0.375 0.128-0.71 0.388-0.975 0.161-0.164 0.314-0.339 0.492-0.482 0.104-0.083 0.248-0.123 0.38-0.161 0.048-0.014 0.139 0.021 0.163 0.061 0.024 0.041 0.008 0.128-0.023 0.176-0.080 0.132-0.179 0.253-0.267 0.381-0.119 0.173-0.241 0.345-0.354 0.522-0.139 0.216-0.193 0.453-0.202 0.711-0.005 0.147-0.075 0.296-0.134 0.436-0.048 0.114-0.137 0.093-0.197 0.008-0.149-0.208-0.231-0.443-0.246-0.679z"></path>
<path fill="#fff" d="M18.731 23.054c-0.252 0.070-0.252 0.262-0.271 0.465-0.061 0.654-0.138 1.304-0.217 1.955-0.021 0.178-0.124 0.215-0.275 0.112-0.154-0.104-0.227-0.25-0.209-0.436 0.054-0.543 0.107-1.086 0.163-1.629 0.033-0.314 0.283-0.546 0.595-0.549 0.068-0.001 0.135 0.028 0.203 0.044 0.004 0.013 0.008 0.025 0.011 0.039z"></path>
<path fill="#fff" d="M16.244 23.902c0.167-0.004 0.292 0.128 0.272 0.255-0.082 0.506-0.076 1.031-0.346 1.496-0.089 0.154-0.127 0.337-0.203 0.5-0.056 0.12-0.134 0.233-0.213 0.341-0.058 0.078-0.14 0.12-0.235 0.049-0.093-0.072-0.154-0.152-0.097-0.282 0.102-0.228 0.213-0.454 0.286-0.692 0.102-0.339 0.171-0.687 0.256-1.030 0.039-0.156 0.073-0.314 0.133-0.46 0.031-0.080 0.112-0.137 0.147-0.177z"></path>
<path fill="#fff" d="M14.947 23.733c-0.028 0.076-0.048 0.153-0.082 0.223-0.125 0.256-0.256 0.511-0.386 0.764-0.137 0.265-0.199 0.542-0.171 0.842 0.014 0.144 0.008 0.291 0.002 0.435-0.005 0.161-0.151 0.256-0.277 0.162-0.1-0.075-0.196-0.196-0.228-0.314-0.089-0.314-0.050-0.628 0.102-0.919 0.177-0.337 0.363-0.67 0.549-1.001 0.102-0.178 0.247-0.233 0.49-0.192z"></path>
<path fill="#fff" d="M21.433 23.461c-0.474-0.129-0.654-0.439-0.532-0.904 0.084-0.319 0.156-0.641 0.245-0.958 0.038-0.134 0.099-0.261 0.159-0.388 0.056-0.118 0.188-0.167 0.301-0.118 0.127 0.055 0.115 0.156 0.087 0.266-0.080 0.3-0.151 0.602-0.233 0.901-0.087 0.314-0.092 0.622 0.018 0.929 0.035 0.098 0.051 0.194-0.044 0.272z"></path>
<path fill="#fff" d="M18.557 20.845c0.006-0.425 0.076-0.834 0.262-1.222 0.088-0.182 0.247-0.22 0.424-0.174 0.152 0.039 0.222 0.174 0.132 0.301-0.237 0.332-0.203 0.724-0.277 1.091-0.039 0.196-0.073 0.394-0.134 0.582-0.051 0.158-0.134 0.166-0.253 0.045-0.152-0.154-0.151-0.351-0.153-0.548 0-0.025 0-0.050 0-0.075z"></path>
</svg>
