<svg id="Layer_1" data-name="Layer 1" xmlns="http://www.w3.org/2000/svg" viewBox="0 0 87.6 85.02"><defs><style>.cls-1{fill:#fff;}</style></defs><path class="cls-1" d="M-403.26,474.31c0,1.42-.05,2.84,0,4.25.05,1-.34,1.43-1.3,1.67-2,.52-4.09,1.11-6.09,1.79a25.31,25.31,0,0,0-13.67,11.21,45.66,45.66,0,0,0-2.87,4.69,32.09,32.09,0,0,0-2.18,8.75c-.59,4,.17,7.65,1.11,11.37.78,3.11,2.47,5.8,4.1,8.54,2.39,4,6,6.7,9.78,9a28.07,28.07,0,0,0,8.21,3c2.41.58,2.89.75,2.89,3.31,0,3.17,0,6.33,0,9.5a2.81,2.81,0,0,1-.42,1c-.14-.27-.31-.53-.43-.8a53.77,53.77,0,0,1-2.28-5.17c-.61-1.88-2.09-2.42-3.67-2.83a29.61,29.61,0,0,1-11.33-5.68,4.21,4.21,0,0,0-3.8-.84,6.46,6.46,0,0,0-.67.29l-3.47,1a20.37,20.37,0,0,1,.78-3.94,4.44,4.44,0,0,0-.61-4.59A36.9,36.9,0,0,1-435,515.15a3.19,3.19,0,0,0-2.19-2.61c-1.79-.79-3.55-1.61-5.31-2.45a4.78,4.78,0,0,1-.9-.74,10.52,10.52,0,0,1,1.09-.59c1.73-.69,3.44-1.46,5.22-2a2.55,2.55,0,0,0,2-2.45,35.94,35.94,0,0,1,5-13.71,8.7,8.7,0,0,1,1.11-1.33c1.05-1.15,1.73-2.3,1-4a25.61,25.61,0,0,1-.68-3.59c-.29-1.16.41-1.05,1.06-.91,1.35.29,2.67.78,4,1a3.5,3.5,0,0,0,2.46-.45c3.56-3.09,7.87-4.63,12.2-6.17,1.28-.45,2.27-1,2.65-2.51a21.33,21.33,0,0,1,1.88-4c.14-.28.31-.56.46-.84.18.35.51.69.52,1,.05,1.83,0,3.65,0,5.48Z" transform="translate(443.39 -467.4)"/><path class="cls-1" d="M-396.11,545.69c0-1.66,0-3.33,0-5,0-1.31.37-1.9,1.82-2a22.44,22.44,0,0,0,10.42-3.93,32.68,32.68,0,0,0,8.62-8.24,24.08,24.08,0,0,0,3-5.64,30.92,30.92,0,0,0,2.13-11.77,29.94,29.94,0,0,0-6.28-17.51,28.31,28.31,0,0,0-17.62-11c-1.66-.32-2.17-1-2.12-2.62.11-3.25,0-6.5,0-9.75a4.21,4.21,0,0,1,.21-.83,2.87,2.87,0,0,1,.6.71c.76,1.79,1.4,3.63,2.25,5.38a3.19,3.19,0,0,0,1.7,1.58,38.37,38.37,0,0,1,11.4,5.06,4.54,4.54,0,0,1,1.2.82c1.25,1.59,2.86,1.36,4.53,1.05,1.24-.23,2.5-.38,3.75-.57a26.86,26.86,0,0,1-.79,3.71,3.66,3.66,0,0,0,.8,4.21,18.69,18.69,0,0,1,3,5.54c1.18,3,2.76,6,2.69,9.39a2.48,2.48,0,0,0,1.84,2.35c2.2.88,4.41,1.71,6.62,2.56a3.74,3.74,0,0,0,.48.12c-.17.18-.3.43-.5.53-1.34.6-2.67,1.26-4.05,1.74-4,1.4-4.28,1.68-4.9,5.74a29.6,29.6,0,0,1-3.12,8.92c-.92,1.81-2.28,3.4-3.37,5.13a2.28,2.28,0,0,0-.38,1.56c.32,1.5.79,3,1.22,4.45.2.69.07,1.2-.74,1.14a6.66,6.66,0,0,1-2.37-.46,4.36,4.36,0,0,0-5.14.4,30,30,0,0,1-11.42,5.5,3.32,3.32,0,0,0-2.8,2.64,27.23,27.23,0,0,1-2.08,4.41,6.72,6.72,0,0,1-.52.79,5.2,5.2,0,0,1-.16-.86Q-396.12,548.32-396.11,545.69Z" transform="translate(443.39 -467.4)"/><path class="cls-1" d="M-413.67,506.7h4.75c.68,0,1.17-.1.87,1.07-.77,3.05-.66,3,2.31,2.42a26.79,26.79,0,0,1,3.81-.21,35.44,35.44,0,0,1-.57,3.55c-.68,2.68-1.49,5.34-2.18,8a3.5,3.5,0,0,0,.21,1.36,4.65,4.65,0,0,0,1-.67c2.28-2.6,4.57-5.21,6.78-7.87,1.89-2.26,3.66-4.64,5.57-6.89a2.5,2.5,0,0,1,1.7-.75c3-.07,6,0,9,0,1.06,0,1,.3.84,1.32a15.2,15.2,0,0,1-2.16,6,13.2,13.2,0,0,1-2.2,2.53c-.28.28-.84.28-1.28.4a9.75,9.75,0,0,0,.5-1c.26-.68.52-1.37.73-2.07.39-1.3-.12-2.14-1.27-1.76-2.39.8-4.94,1.54-6.43,3.85-1.8,2.81-.61,6.39,2.66,8.26a19.9,19.9,0,0,1,2.54,1.49c.38.3.48,1,.71,1.47a5.29,5.29,0,0,1-1.46.36c-5.19-.31-10.37-.82-15.56-.93a65.44,65.44,0,0,0-8.31.87,5.32,5.32,0,0,1-1.49,0c-.33,0-.86-.3-.89-.52a1.3,1.3,0,0,1,.44-1,30.41,30.41,0,0,0,2.92-1.8,9.88,9.88,0,0,0,2.75-3.07c1.2-2.61,1.57-4.41-2-6.58a21.42,21.42,0,0,0-4.46-1.89c-.5-.17-1.19.24-1.79.39a8.46,8.46,0,0,0,.42,1.61c.36.73.86,1.39,1.26,2.11.09.16,0,.42,0,.64-.22,0-.5,0-.64-.06-1-.84-2.32-1.54-2.88-2.62a45.85,45.85,0,0,1-2.55-6.61c-.29-.86.08-1.41,1.13-1.38C-417.17,506.73-415.42,506.7-413.67,506.7Z" transform="translate(443.39 -467.4)"/><path class="cls-1" d="M-406.1,507.05l1.53-6.42c.5-2.14,1-4.29,1.5-6.43a16.57,16.57,0,0,1,.7-1.56c.27-.7.85-.81,1.26-.4,2.46,2.46,5.15,1.8,7.92.74a4.77,4.77,0,0,1,1.15-.14c-.23.33-.46.65-.68,1-1.45,2.27-2.91,4.54-4.35,6.83a9.06,9.06,0,0,0-.53,1.28,5.21,5.21,0,0,0,1.44.2c2.1-.31,4.2-.69,6.29-1,.25,0,.51,0,.76,0a2.07,2.07,0,0,1-.2.72c-1.05,1.46-2.11,2.92-3.21,4.34-2.06,2.67-4.15,5.31-6.23,7.95-.64.82-1.29,1.63-2,2.42a7.77,7.77,0,0,1-.78.74,7.48,7.48,0,0,1,.2-1.15c.8-2.48,1.65-4.94,2.43-7.42.43-1.35.16-1.75-1.22-1.55-1.61.23-3.19.69-4.79,1C-406,508.39-406.13,508.32-406.1,507.05Z" transform="translate(443.39 -467.4)"/></svg>