<!-- Generated by IcoMoon.io -->
<svg version="1.1" xmlns="http://www.w3.org/2000/svg" width="32" height="32" viewBox="0 0 32 32">
<title>fighters-warrior</title>
<path fill="#fff" d="M0.004 16.154c0.43-0.149 0.864-0.288 1.289-0.45 0.401-0.153 0.794-0.327 1.186-0.499 0.1-0.044 0.178-0.137 0.276-0.186 0.187-0.094 0.353-0.181 0.493-0.368 0.115-0.157 0.368-0.215 0.564-0.308 0.2-0.096 0.408-0.177 0.609-0.268 0.125-0.056 0.25-0.116 0.372-0.179 0.235-0.122 0.471-0.239 0.698-0.373 0.112-0.066 0.204-0.165 0.301-0.252 0.089-0.080 0.173-0.166 0.272-0.263 0.056 0.118 0.090 0.214 0.143 0.296 0.064 0.1 0.145 0.189 0.219 0.281 0.036 0.045 0.098 0.084 0.108 0.133 0.073 0.351 0.358 0.433 0.64 0.485 0.392 0.073 0.734-0.090 1.028-0.331 0.1-0.082 0.177-0.242 0.186-0.372 0.031-0.431-0.068-0.835-0.52-1.014-0.256-0.102-0.478-0.267-0.781-0.207-0.154 0.031-0.214-0.080-0.2-0.228 0.005-0.064-0.016-0.135 0.009-0.189 0.035-0.074 0.090-0.145 0.154-0.195 0.085-0.068 0.207-0.096 0.279-0.171 0.721-0.762 1.531-1.423 2.322-2.107 0.305-0.264 0.544-0.605 0.831-0.895 0.185-0.186 0.396-0.348 0.603-0.51 0.19-0.149 0.381-0.301 0.591-0.417 0.098-0.054 0.244-0.038 0.364-0.021 0.033 0.005 0.064 0.122 0.074 0.191 0.036 0.219 0.058 0.442 0.096 0.661 0.013 0.082 0.039 0.169 0.081 0.239 0.198 0.319 0.842 0.494 1.178 0.328 0.304-0.15 0.43-0.475 0.315-0.826-0.086-0.264-0.259-0.459-0.507-0.587-0.198-0.102-0.398-0.199-0.595-0.303-0.212-0.113-0.262-0.304-0.129-0.506 0.073-0.11 0.171-0.204 0.239-0.319 0.113-0.189 0.21-0.388 0.313-0.582 0.017-0.032 0.028-0.074 0.056-0.094 0.175-0.123 0.235-0.319 0.328-0.497 0.28-0.542 0.587-1.069 0.859-1.614 0.17-0.34 0.295-0.701 0.445-1.052 0.077-0.179 0.155-0.358 0.244-0.534 0.189-0.373 0.396-0.738 0.571-1.117 0.084-0.179 0.109-0.385 0.167-0.578 0.029-0.096 0.068-0.189 0.116-0.276 0.019-0.036 0.074-0.077 0.108-0.072 0.035 0.004 0.077 0.056 0.092 0.094 0.078 0.208 0.133 0.426 0.226 0.628 0.13 0.283 0.26 0.571 0.436 0.826 0.348 0.507 0.724 0.994 1.093 1.487 0.108 0.145 0.158 0.299 0.135 0.475-0.032 0.264 0.040 0.474 0.28 0.624 0.202 0.125 0.271 0.348 0.335 0.563 0.041 0.142 0.096 0.254 0.259 0.287 0.045 0.009 0.085 0.072 0.118 0.118 0.135 0.187 0.28 0.37 0.397 0.571 0.082 0.142 0.127 0.308 0.183 0.465 0.057 0.162 0.090 0.336 0.165 0.49 0.093 0.195 0.219 0.374 0.327 0.564 0.084 0.149 0.037 0.267-0.13 0.317-0.131 0.040-0.267 0.072-0.402 0.093-0.259 0.040-0.447 0.194-0.608 0.378-0.057 0.065-0.080 0.187-0.070 0.279 0.062 0.624 0.814 1.002 1.399 0.712 0.158-0.078 0.283-0.169 0.319-0.377 0.045-0.264 0.146-0.519 0.228-0.777 0.052-0.165 0.307-0.236 0.426-0.123 0.429 0.402 0.866 0.797 1.284 1.21 0.167 0.165 0.304 0.364 0.434 0.562 0.208 0.315 0.503 0.532 0.807 0.734 0.643 0.428 1.13 0.993 1.5 1.66 0.062 0.112 0.037 0.276 0.032 0.414-0.001 0.027-0.096 0.068-0.149 0.070-0.089 0.005-0.179-0.021-0.268-0.024-0.526-0.009-0.834 0.49-0.597 0.963 0.17 0.34 0.486 0.473 0.818 0.583 0.035 0.012 0.084-0.004 0.122-0.019 0.262-0.097 0.483-0.243 0.6-0.511 0.065-0.147 0.183-0.215 0.339-0.222 0.080-0.004 0.159 0.001 0.239 0 0.169-0.003 0.275 0.078 0.303 0.243 0.038 0.224 0.139 0.372 0.377 0.434 0.239 0.064 0.47 0.162 0.7 0.255 0.135 0.054 0.262 0.129 0.392 0.197 0.084 0.044 0.163 0.101 0.251 0.137 0.347 0.143 0.696 0.281 1.044 0.421 0.015 0.005 0.032 0.011 0.042 0.021 0.482 0.445 1.129 0.544 1.697 0.809 0.25 0.117 0.509 0.212 0.709 0.416 0.182 0.185 0.159 0.362-0.065 0.489-0.927 0.523-1.856 1.042-2.778 1.575-0.242 0.139-0.467 0.215-0.732 0.082-0.074-0.037-0.163-0.046-0.242-0.077-0.108-0.041-0.187-0.028-0.262 0.073-0.029 0.040-0.114 0.057-0.173 0.054-0.166-0.005-0.21 0.023-0.175 0.173 0.080 0.341-0.011 0.608-0.281 0.835-0.194 0.162-0.352 0.365-0.542 0.534-0.121 0.108-0.191 0.090-0.258-0.060-0.078-0.177-0.147-0.36-0.19-0.547-0.058-0.258-0.357-0.527-0.623-0.514-0.157 0.008-0.325 0.011-0.467 0.069-0.457 0.189-0.571 0.771-0.238 1.144 0.23 0.255 0.518 0.376 0.858 0.307 0.194-0.040 0.328 0.029 0.469 0.159-0.288 0.394-0.574 0.789-0.866 1.179-0.040 0.053-0.106 0.088-0.159 0.131-0.159 0.13-0.332 0.247-0.474 0.394-0.686 0.716-1.369 1.437-2.045 2.163-0.271 0.291-0.509 0.612-0.789 0.894-0.149 0.149-0.357 0.238-0.536 0.357-0.061 0.041-0.117 0.090-0.175 0.134-0.114 0.084-0.183 0.064-0.226-0.070-0.088-0.277-0.179-0.555-0.258-0.835-0.082-0.292-0.262-0.474-0.567-0.499-0.301-0.025-0.56 0.077-0.717 0.348-0.081 0.139-0.141 0.299-0.175 0.457-0.068 0.316 0.090 0.56 0.405 0.633 0.175 0.041 0.305 0.135 0.426 0.259 0.078 0.080 0.088 0.159 0.017 0.239-0.381 0.434-0.637 0.947-0.933 1.438-0.512 0.848-1.077 1.665-1.62 2.496-0.012 0.017-0.024 0.035-0.035 0.053-0.369 0.623-0.74 1.245-1.109 1.868-0.011 0-0.021 0-0.032 0-0.056-0.056-0.113-0.109-0.165-0.167-0.358-0.402-0.589-0.888-0.866-1.344-0.244-0.402-0.481-0.81-0.732-1.208-0.175-0.277-0.369-0.543-0.552-0.815-0.023-0.035-0.042-0.077-0.044-0.117-0.007-0.247-0.135-0.429-0.304-0.592-0.214-0.207-0.433-0.409-0.633-0.627-0.23-0.25-0.186-0.519 0.089-0.716 0.173-0.123 0.339-0.256 0.503-0.389 0.333-0.27 0.389-0.632 0.27-1.008-0.092-0.285-0.236-0.575-0.559-0.669-0.238-0.070-0.479-0.033-0.709 0.086-0.223 0.116-0.373 0.268-0.393 0.53-0.005 0.062-0.031 0.123-0.044 0.186-0.086 0.413-0.085 0.413-0.495 0.473-0.027 0.004-0.054 0.013-0.078 0.007-0.069-0.020-0.15-0.031-0.203-0.073-0.27-0.222-0.544-0.439-0.795-0.681-0.588-0.567-1.162-1.148-1.747-1.719-0.244-0.238-0.483-0.473-0.645-0.781-0.078-0.149-0.189-0.283-0.299-0.412-0.248-0.289-0.52-0.562-0.755-0.862-0.161-0.206-0.283-0.443-0.412-0.672-0.058-0.104-0.016-0.181 0.102-0.216 0.068-0.021 0.131-0.054 0.218-0.092-0.060-0.081-0.126-0.138-0.145-0.208-0.020-0.073-0.008-0.162 0.015-0.238 0.011-0.033 0.077-0.065 0.122-0.070 0.246-0.027 0.497-0.024 0.737-0.072 0.453-0.089 0.741-0.754 0.515-1.155-0.142-0.252-0.526-0.429-0.821-0.376-0.477 0.085-0.716 0.378-0.775 0.844-0.031 0.247-0.138 0.491-0.25 0.718-0.090 0.186-0.133 0.178-0.308 0.068-0.834-0.527-1.694-1.004-2.622-1.349-0.044-0.016-0.084-0.044-0.125-0.069-0.292-0.177-0.582-0.358-0.876-0.53-0.316-0.183-0.636-0.358-0.956-0.534-0.119-0.066-0.239-0.155-0.369-0.179-0.512-0.094-0.846-0.454-1.208-0.774 0.004-0.015 0.004-0.025 0.004-0.036zM17.818 24.974c0.023-0.031 0.038-0.041 0.041-0.054 0.081-0.388 0.166-0.775 0.235-1.166 0.016-0.093 0.004-0.206-0.036-0.289-0.069-0.143-0.058-0.263 0.031-0.386 0.47-0.657 1.062-1.137 1.875-1.296 0.203-0.040 0.408-0.069 0.609-0.113 0.467-0.102 0.7-0.417 0.643-0.887-0.048-0.393 0.016-0.761 0.203-1.107 0.057-0.105 0.046-0.197-0.015-0.299-0.062-0.104-0.117-0.214-0.157-0.327-0.089-0.255-0.179-0.511-0.246-0.773-0.048-0.187-0.085-0.385-0.081-0.578 0.020-0.992 0.046-1.985 0.089-2.975 0.024-0.555-0.105-1.079-0.324-1.573-0.227-0.511-0.516-0.996-0.787-1.487-0.056-0.101-0.133-0.197-0.22-0.27-0.486-0.409-1.005-0.767-1.628-0.936-0.563-0.153-1.129-0.295-1.694-0.437-0.097-0.024-0.202-0.046-0.297-0.032-0.377 0.057-0.765 0.090-1.125 0.206-0.829 0.268-1.612 0.644-2.357 1.095-0.305 0.185-0.52 0.447-0.66 0.775-0.078 0.186-0.158 0.37-0.239 0.555-0.404 0.919-0.532 1.881-0.458 2.876 0.009 0.126 0.053 0.259 0.027 0.377-0.061 0.272-0.069 0.543 0.011 0.803 0.12 0.388 0.077 0.753-0.080 1.115-0.096 0.22-0.074 0.422 0.074 0.612 0.073 0.094 0.104 0.202 0.032 0.311-0.183 0.277-0.357 0.563-0.56 0.826-0.166 0.215-0.19 0.478-0.024 0.697 0.36 0.473 0.721 0.944 1.074 1.422 0.092 0.123 0.166 0.165 0.312 0.080 0.23-0.131 0.471-0.145 0.713-0.009 0.125 0.070 0.254 0.13 0.381 0.195 0.64 0.325 1.148 0.722 1.287 1.516 0.089 0.511 0.365 0.989 0.424 1.523 0.005 0.050 0.069 0.094 0.106 0.142 0.042-0.042 0.102-0.078 0.123-0.13 0.044-0.112 0.109-0.129 0.212-0.089 0.118 0.045 0.24 0.085 0.361 0.123 0.202 0.065 0.216 0.045 0.251-0.163 0.025-0.151 0.064-0.311 0.141-0.439 0.070-0.118 0.171-0.1 0.254 0.016 0.093 0.129 0.178 0.264 0.271 0.393 0.089 0.125 0.349 0.116 0.433-0.012 0.112-0.173 0.287-0.203 0.454-0.077 0.108 0.077 0.214 0.162 0.321 0.246zM14.301 5.531c0.096-0.235 0.191-0.47 0.3-0.74-0.295 0.114-0.449 0.481-0.3 0.74zM20.171 11.44c0.082 0.155 0.134 0.312 0.323 0.353 0.016-0.26-0.074-0.362-0.323-0.353zM20.759 12.164c-0.015 0.009-0.029 0.020-0.042 0.029 0.056 0.116 0.109 0.232 0.171 0.344 0.012 0.023 0.057 0.028 0.086 0.041 0.009-0.028 0.033-0.057 0.028-0.081-0.035-0.147-0.109-0.266-0.243-0.333zM15.267 27.844c0.045-0.038 0.089-0.077 0.15-0.13-0.116-0.033-0.137-0.203-0.264-0.113-0.012 0.009 0.074 0.158 0.114 0.243zM19.529 25.916c-0.049 0.038-0.089 0.070-0.141 0.109 0.1 0.078 0.17 0.197 0.271 0.031-0.020-0.025-0.035-0.046-0.053-0.066-0.020-0.023-0.044-0.042-0.077-0.073zM16.785 3.413c-0.157 0.122-0.146 0.198 0.015 0.264-0.004-0.081-0.008-0.157-0.015-0.264z"></path>
<path fill="#fff" d="M14.969 21.004c-0.096-0.145-0.197-0.125-0.315-0.061-0.149 0.080-0.303 0.153-0.459 0.215-0.072 0.029-0.159 0.049-0.232 0.036-0.347-0.065-0.706-0.068-1.032-0.231-0.336-0.169-0.673-0.339-1.018-0.486-0.274-0.117-0.313-0.368-0.389-0.6-0.011-0.035 0.019-0.096 0.049-0.127 0.295-0.305 0.617-0.587 1.053-0.64 0.231-0.028 0.473 0.029 0.709 0.054 0.621 0.068 1.188 0.309 1.746 0.57 0.348 0.162 0.425 0.463 0.224 0.795-0.097 0.158-0.214 0.303-0.336 0.475z"></path>
<path fill="#fff" d="M18.648 20.916c-0.153-0.027-0.259-0.021-0.315 0.123-0.011 0.029-0.11 0.057-0.147 0.040-0.297-0.137-0.595-0.272-0.879-0.433-0.142-0.080-0.238-0.211-0.263-0.394-0.032-0.24 0.073-0.369 0.255-0.512 0.404-0.317 0.864-0.475 1.352-0.6 0.285-0.073 0.558-0.199 0.83-0.313 0.319-0.133 0.631-0.13 0.935 0.029 0.361 0.19 0.418 0.613 0.138 0.907-0.474 0.498-1.057 0.827-1.672 1.109-0.078 0.036-0.174 0.035-0.234 0.045z"></path>
<path fill="#fff" d="M17.045 22.077c0 0.069 0 0.138 0 0.207 0 0.352 0.003 0.357-0.305 0.52-0.050 0.027-0.165 0.008-0.204-0.035-0.094-0.101-0.195-0.116-0.325-0.118-0.216-0.004-0.434-0.032-0.645-0.076-0.186-0.038-0.277-0.211-0.26-0.42 0.021-0.254 0.045-0.507 0.061-0.761 0.011-0.171 0.058-0.316 0.195-0.434 0.177-0.151 0.345-0.315 0.514-0.475 0.089-0.085 0.169-0.086 0.266-0.009 0.438 0.349 0.688 0.794 0.704 1.36 0.003 0.080 0 0.159 0 0.239-0.001 0.001 0 0.001 0.001 0.001zM16.671 22.212c-0.028-0.037-0.050-0.081-0.085-0.102-0.012-0.008-0.068 0.033-0.086 0.064-0.038 0.062-0.073 0.129-0.094 0.198-0.011 0.035 0.004 0.106 0.025 0.113 0.035 0.012 0.105 0.001 0.122-0.024 0.046-0.072 0.076-0.158 0.118-0.248z"></path>
</svg>
