<svg id="Layer_1" data-name="Layer 1" xmlns="http://www.w3.org/2000/svg" viewBox="0 0 87.07 84.35"><defs><style>.cls-1{fill:#fff;}</style></defs><path class="cls-1" d="M-169.26,730.21c0,1.75,0,3.5,0,5.25a2.25,2.25,0,0,1-.2.64c-.21-.19-.51-.35-.61-.59-.6-1.43-1.23-2.86-1.7-4.33a3.87,3.87,0,0,0-3.56-2.91c-2.36-.11-4.12-1.54-6.1-2.42a26.77,26.77,0,0,1-5.6-3.52,3.33,3.33,0,0,0-3.34-.77c-1,.32-2,.67-3,1-1.59.49-2.06.1-1.63-1.5.31-1.18.9-2.29,1.18-3.47a2.81,2.81,0,0,0-.19-2.06,42.05,42.05,0,0,1-5.92-12.2,10.71,10.71,0,0,1-.59-3.63c.05-1.47-.76-2.07-1.87-2.56-1.93-.87-3.86-1.72-5.78-2.61-.27-.12-.46-.43-.69-.66a6.1,6.1,0,0,1,.85-.5q2.93-1.22,5.86-2.39a2.4,2.4,0,0,0,1.62-2.2c.81-5.58,2.52-10.88,6.33-15.17,1.75-2,.64-3.86.46-5.81a17.56,17.56,0,0,0-.53-2.45,12,12,0,0,1,2.85.39,5.15,5.15,0,0,0,5.66-.66,32.73,32.73,0,0,1,11-5.34,4.38,4.38,0,0,0,3.08-2.77c.51-1.3,1.06-2.58,1.64-3.84a4.28,4.28,0,0,1,.74-.87,6.14,6.14,0,0,1,.49,1.12,5,5,0,0,1,.1,1.23c0,2.67,0,5.34,0,8a1.73,1.73,0,0,1-1.59,2,42.61,42.61,0,0,0-6.54,1.92,26.47,26.47,0,0,0-11.88,9.21,33.1,33.1,0,0,0-4.43,7.87c-2.12,6-2.95,12-1,18.33a31.32,31.32,0,0,0,6,11.39,31.9,31.9,0,0,0,15.24,9.71c1.09.33,2.8.12,3.21.79.62,1,.35,2.53.42,3.84,0,.83,0,1.67,0,2.5Z" transform="translate(208.9 -651.94)"/><path class="cls-1" d="M-161.62,730.24c0-1.59.09-3.18,0-4.75a1.88,1.88,0,0,1,1.9-2.29c4.91-.57,9-2.94,12.74-5.94a29.53,29.53,0,0,0,9.09-12,18.28,18.28,0,0,0,1.81-7.59c-.08-2,0-4,0-6,.06-6.34-2.67-11.54-6.53-16.33A27.79,27.79,0,0,0-153.38,667a57.74,57.74,0,0,0-7.19-2.4c-.83-.24-1.05-.57-1.05-1.34,0-3.58,0-7.17,0-10.75a2.75,2.75,0,0,1,.16-.61c.12.2.25.4.35.61.75,1.62,1.59,3.2,2.22,4.87a3.35,3.35,0,0,0,2.39,2.15,42.55,42.55,0,0,1,13.12,6.57c.84.6,2.34.43,3.53.36a28.86,28.86,0,0,0,3.77-.65,17.68,17.68,0,0,1-.73,3.67c-.76,1.86-.21,3.26.89,4.75a31.52,31.52,0,0,1,5.63,14.23,3.07,3.07,0,0,0,2.35,2.74c1.91.66,3.73,1.59,5.59,2.41.18.08.34.19.51.28-.18.17-.33.41-.54.5a57.28,57.28,0,0,1-5.63,2.48,3,3,0,0,0-2.32,2.72A32.49,32.49,0,0,1-136,713.88a6.42,6.42,0,0,0-1.23,6.1c.08.31.3.59.36.91.13.66.2,1.34.29,2a16.28,16.28,0,0,1-2.63-.21c-.93-.23-1.79-.76-2.71-1a1.83,1.83,0,0,0-1.37.25,39,39,0,0,1-9.58,5.44c-1.45.53-3,.86-4.37,1.49a3.67,3.67,0,0,0-1.52,1.7c-.85,1.66-1.56,3.39-2.32,5.09-.1.22-.23.42-.34.63a4,4,0,0,1-.2-.81C-161.62,733.74-161.62,732-161.62,730.24Z" transform="translate(208.9 -651.94)"/><path class="cls-1" d="M-173.75,690.77a6.89,6.89,0,0,0,2.3,6,3.6,3.6,0,0,1,.7,4.73c-.78,1.27-.66,3.72-3.35,2.86-.2-.06-.61.5-.9.79s-.68.69-1,1c.11-.45.22-.91.35-1.36a14.81,14.81,0,0,1,.57-1.86c.18-.42.52-1.13.75-1.12,1.94.13,1.78-1.21,1.69-2.37-.11-1.45-1.37-2.2-2.55-1.35-1.92,1.4-4.1,1.06-6.18,1.4-.05,0-.29-.48-.23-.54.8-.85,1.62-1.67,2.47-2.47.14-.14.57-.24.64-.16,1.83,2.06,2.19-.43,2.72-1.09.73-.9,0-2.15-1.68-2.73a38,38,0,0,0-4.53-1c-1-.21-2-.46-3-.69a17.39,17.39,0,0,1,2.71-1.08c1.44-.3,2.92-.42,4.39-.59s2.38-1.08,2.22-2.38c-.18-1.53-1-2-2.61-2a5.91,5.91,0,0,1-2.5-1.13c-.35-.22-.51-.76-.75-1.15a6.58,6.58,0,0,0,1.21.33c.38,0,1,0,1.11-.17.46-1.09,1.15-.65,1.76-.33s1.21.86,1.85,1.21c1.47.78,2.13.59,3.06-.76a3.73,3.73,0,0,0-.31-3.47.78.78,0,0,0-.43-.2c-.58-.1-1.52,0-1.69-.28a18.11,18.11,0,0,1-1.13-3.2c0-.12.08-.29.12-.43.12.12.22.25.34.36.8.72,1.4,1.51,2.79,1.49.64,0,1.44,1.46,1.92,2.39s1.19,1.59,2.12,1.16a3.23,3.23,0,0,0,1.6-1.91c.51-2,.72-4,1.07-6a15.48,15.48,0,0,1,.36-1.64,4.16,4.16,0,0,1,.4-.71c.17.19.44.35.49.56.23,1,.45,2.08.6,3.13a37.19,37.19,0,0,0,.58,4.38,3.88,3.88,0,0,0,1.62,2.22c.88.48,1.66-.19,2.09-1.18.22-.51,1-.84,1.08-1.32.2-1.38,1.06-1.48,2.12-1.4a1,1,0,0,0,.25,0l1.67-.58c.16.79-1.08,3.2-1.78,3.15-2-.15-1.32,1.67-1.9,2.52-.15.22.27,1.08.64,1.33.82.56,1.64,1.18,2.8.35s2.53-2.21,4.09-.41c.09.11.48.07.68,0a10.39,10.39,0,0,0,1.19-.63c-.33.43-.57,1-1,1.26-.89.54-1.58,1.51-3,1.06-.42-.13-1.72,1.26-2,2.13-.31,1.14.89,2.07,2.28,2.36,1.91.39,3.8.88,5.69,1.34a3.91,3.91,0,0,1,.68.28,5.5,5.5,0,0,1-.75.25c-1.6.34-3.2.62-4.78,1a5.36,5.36,0,0,0-2.25.85c-.68.61-1.34,1.4-.61,2.58.62,1,1,1.84,2.41,1.16a1.42,1.42,0,0,1,1.18.3,17.29,17.29,0,0,1,1.78,1.75,14.32,14.32,0,0,1,.91,1.12,13.35,13.35,0,0,0-1.21-.57c-.3-.11-.72-.29-.94-.17-2,1.08-3.37-.44-4.9-1.24-.37-.19-1-.52-1.16-.39-.63.67-1.6,1.47-1.57,2.2s-.31,2.69,1.88,2.37c.39-.06,1.13,1.45,1.52,2.32a11.34,11.34,0,0,1,.51,2.34c-.5-.56-1-1.12-1.5-1.67a4.44,4.44,0,0,0-.73-.65c-1.74,1.51-1.74-.13-2.17-1.14a11.23,11.23,0,0,0-1.07-1.64,3.1,3.1,0,0,1,.36-4.28c3.57-3.76,3.88-8.27.92-12.26-2.11-2.85-6.92-4-10-2.34a12.6,12.6,0,0,0-2.64,1.68C-173.67,686.66-173.75,687-173.75,690.77Z" transform="translate(208.9 -651.94)"/><path class="cls-1" d="M-165.09,686.69c.33,0,.67,0,1,0l4.64.32c0,2.14.11,4.29.11,6.43,0,.11-.56.35-.83.32-3.83-.51-4-.31-4.09,3.65-.08,5.33-.24,10.66-.31,16a39.24,39.24,0,0,0,.34,4.18c.07.65.41,1.36-.67,1.45s-1.65-.19-1.7-1.29a3.27,3.27,0,0,1,0-1,24.65,24.65,0,0,0,.06-9.3,48.5,48.5,0,0,1-.06-7.72c0-1.18.31-2.35.37-3.52.1-2-1.26-3.15-3.46-2.55-1.47.41-1.5-.06-1.46-1.16.07-1.81.11-3.63.16-5.45l5.86-.52Z" transform="translate(208.9 -651.94)"/><path class="cls-1" d="M-154.3,674.61l-.08.19-.19-.26.16-.11Z" transform="translate(208.9 -651.94)"/></svg>