<svg id="Layer_1" data-name="Layer 1" xmlns="http://www.w3.org/2000/svg" viewBox="0 0 88.12 85.22"><defs><style>.cls-1{fill:#fff;}</style></defs><path class="cls-1" d="M1011,486.28v-5.74c0-.56.16-.92.81-1,.48-.06.92-.39,1.39-.45a24.54,24.54,0,0,0,14.36-7.35c1.29-1.27,2.43-2.69,3.66-4a19,19,0,0,0,4.16-7.87,24.41,24.41,0,0,0,1.21-4.21c.36-3.27.75-9.45-.22-12-.79-2.06-1-4.3-2.06-6.23a32.08,32.08,0,0,0-3.56-5.56,34.28,34.28,0,0,0-9-7.7,21,21,0,0,0-6.8-2.49c-4-.71-4-.93-4-5,0-2.41,0-4.83,0-7.24a9.14,9.14,0,0,1,.14-1.47c0-.09.24-.2.38-.21s.37.06.41.16c.41,1,.77,2,1.18,2.94s1,2.24,1.51,3.35c.83,1.71,2.64,2,4.12,2.34a25,25,0,0,1,8.93,4.42,10,10,0,0,0,2.9,1.8,6.27,6.27,0,0,0,2.79-.33c.86-.19,1.7-.54,2.56-.77s1.33.3,1.12,1.09c-.37,1.33-.76,2.66-1.23,4a2.15,2.15,0,0,0,.32,2.28,35.53,35.53,0,0,1,3.14,4.66,37.23,37.23,0,0,1,1.79,4.54,20.06,20.06,0,0,1,1.55,6.62,2.09,2.09,0,0,0,1.47,2.06c2.47.82,4.64,2.42,7.3,2.74a1.85,1.85,0,0,1,.44.18c-.12.14-.23.35-.39.43-1.84.83-3.64,1.8-5.55,2.44a4.26,4.26,0,0,0-3.34,4,27.26,27.26,0,0,1-3.11,9.45,38.47,38.47,0,0,1-3.37,5.27,3.23,3.23,0,0,0-.57,2.88,11.81,11.81,0,0,0,.92,3.52c.49.91.09,1.41-1,1.37a6.28,6.28,0,0,1-1.64-.37c-.78-.26-1.55-.53-2.29-.86a2.11,2.11,0,0,0-2.46.45,33.48,33.48,0,0,1-7.33,4.38,50.18,50.18,0,0,1-5.48,1.92,2.31,2.31,0,0,0-1.8,1.68,43.41,43.41,0,0,1-2.5,5.59c-.11.23-.49.35-.74.52a2.57,2.57,0,0,1-.2-.69C1011,489.94,1011,488.11,1011,486.28Z" transform="translate(-963.7 -407.74)"/><path class="cls-1" d="M978,477.65a28.33,28.33,0,0,1,.71-2.95,4.61,4.61,0,0,0-.72-4.6c-3-3.82-4.23-8.35-5.45-12.91a2.07,2.07,0,0,1,0-1c.4-1.55-.67-2.21-1.7-2.88a9,9,0,0,0-1.34-.6c-1.79-.74-3.59-1.48-5.36-2.25-.2-.09-.3-.38-.44-.58.2-.1.41-.21.62-.3l6.78-2.77a2.27,2.27,0,0,0,1.43-2.09,30.44,30.44,0,0,1,6.89-16.21,1.6,1.6,0,0,0,.42-1.77c-.51-1.44-.88-2.95-1.27-4.44-.24-.93.28-1.34,1.29-1.08a23.9,23.9,0,0,1,4,1.07,1.69,1.69,0,0,0,1.79-.22c2-1.22,4-2.63,6-3.75a47.15,47.15,0,0,1,5.19-2.14,11.24,11.24,0,0,1,1.88-.55,2.48,2.48,0,0,0,2-1.82c.73-1.9,1.9-3.62,2.32-5.66,0-.13.19-.25.29-.37.08.14.23.27.24.41,0,.49,0,1,0,1.49,0,2.5,0,5,0,7.49a9,9,0,0,0,.12,1.72c.26,1.44.22,1.48-1,1.85-2.33.68-4.69,1.3-7,2.16a22.82,22.82,0,0,0-7,4.45,31.83,31.83,0,0,0-4.65,4.71c-1.39,1.89-2.93,3.72-3.6,6.15-.37,1.34-1.6,2.46-1.41,4.07-1.34,2.28-.89,4.8-1,7.26,0,.91,0,1.83,0,2.74a20.18,20.18,0,0,0,2,8.77,26.91,26.91,0,0,0,3,5.89,47.06,47.06,0,0,0,7,7.14c2.29,1.9,5,2.94,7.62,4.25a11.44,11.44,0,0,0,3.08.71c.48.09,1,0,1.47.12,1.8.43,1.8.45,1.82,2.28,0,1.24,0,2.49,0,3.74,0,2.26-.65,4.5,0,6.77.07.28-.22.67-.34,1-.23-.22-.62-.41-.67-.67-.48-2.18-1.83-4-2.47-6.07a2.11,2.11,0,0,0-1.2-1.36,1.06,1.06,0,0,0-.45-.16c-3-.31-5.58-1.8-8.2-3.08a38.53,38.53,0,0,1-5.53-3.56c-.7-.51-1.09-1-2.1-.47a22.71,22.71,0,0,1-4,1.11C978.07,479,978,479,978,477.65Z" transform="translate(-963.7 -407.74)"/><path class="cls-1" d="M1000.35,453.78c-.32,0-.75-.14-1,0-1.88,1.52-3.92-.09-5.85.32-.12,0-.53-.47-.5-.68.25-1.43-1.32-1.83-1.66-2.94,0-.13-.91-.17-1.29,0-.82.35-1.15,0-1.06-.71.12-1-.5-1.66-.95-2.45-.56-1-1.19-.63-1.85-.35-.33.14-.75.66-.86.59-.62-.39-.09-.81,0-1.25s.09-.8-.08-.93c-1.17-.91-.4-1.48.27-2.13.84-.8,1.63-1.67,2.49-2.45.34-.31.85-.71,1.24-.67,1.52.16,2.5-.81,3.45-1.63a27.71,27.71,0,0,0,2.79-3.12c.27-.31.55-.62.84-.91a.77.77,0,0,1,1.28,0c.57.69,1,1.47,1.66,2.12a71.72,71.72,0,0,0,5.63,5.67c.66.56,1.61,1.13.69,2.24-.07.09.1.47.24.64,1.42,1.61,2.81,3.24,4.29,4.79.87.9,1.13.86,2.09.07s2.16-1.77,3.2-2.7a8,8,0,0,0,1.79-2.58c.39-.81,1.71-1.15,2.55-1.79a3,3,0,0,0,.79-1.22c1.05-2.74,2.39-5.39,2.35-8.43a.4.4,0,1,1,.76-.24c1.64,1.6,3.48,3.07,4,5.48.18.79.23,1.62.48,2.38a3.12,3.12,0,0,0,1.42,2.13c.6.31.46,1.05-.15,1.4a9.12,9.12,0,0,1-.93.28c-2.06.81-2.55,2.35-1.41,4.26a6.86,6.86,0,0,1,.88,2c.25,1.28,0,1.47-1.47,1.24a3.54,3.54,0,0,0-3.38,1.1c-.76.88-1.22.66-1.93,0a7,7,0,0,0-1.89-1.11c-1.26-.61-1.46-.5-1.79.88-.26,1.08-.25,1.07-1,.48-.38-.29-.62-1.1-1.32-.31s-.88.95,0,1.92c1.31,1.47,2.69,2.9,4,4.39a11.32,11.32,0,0,1,2.2,2.93,3,3,0,0,0,1.45,1.8c.89.46.76,1.33.56,2.19a2,2,0,0,1-2,1.48c-.8.08-1.85-.35-1.86-1.2,0-1.12-.69-1.5-1.34-2.12a12.48,12.48,0,0,1-1.74-2.37,28.12,28.12,0,0,0-4.41-5.2c-.5-.48-.85-.38-1.05.29,0,.16-.19.28-.25.43a1.52,1.52,0,0,1-1.88.65,1,1,0,0,0-.78.18,19.58,19.58,0,0,0-1.8,1.6c-1.3,1.32-2.63,2.62-3.8,4-.73.89-2,1.28-2.18,2.77-.08.79-2.09,1-2.84.39s-1.07-2-.37-2.55c1.11-.86,1.59-2.22,3-2.91s2.32-2.1,3.45-3.2c.77-.76,1.55-1.51,2.28-2.31.24-.27.57-.84.46-1a1.72,1.72,0,0,1,.75-2.52c.94-.6.52-.8.08-1.33-1-1.2-1.91-2.45-2.86-3.68-2.22-.37-3.38-2.22-5-3.49-.74-.6-1.55,0-2,.49a2.3,2.3,0,0,0-.6,1.95,19,19,0,0,0,2.11,3.3,5.31,5.31,0,0,0,3.56,1.95c.41.09.63.26.33.62A2.24,2.24,0,0,1,1000.35,453.78ZM1022,465.24a7.65,7.65,0,0,0-1,.49c-.16.11-.35.44-.29.55a1.25,1.25,0,0,0,.65.67.9.9,0,0,0,.8-.32,2.83,2.83,0,0,0,.27-1.11C1022.41,465.45,1022.18,465.35,1022,465.24Zm-23.13,2.23a5.83,5.83,0,0,0,.58-1.05c.06-.33-.88-1.18-1.08-1a.9.9,0,0,0-.24.75A7.5,7.5,0,0,0,998.89,467.47Z" transform="translate(-963.7 -407.74)"/></svg>