<!-- Generated by IcoMoon.io -->
<svg version="1.1" xmlns="http://www.w3.org/2000/svg" width="32" height="32" viewBox="0 0 32 32">
<title>fighters-leader</title>
<path fill="#fff" d="M0 16.21c0.164-0.041 0.324-0.082 0.499-0.019 0.073 0.025 0.176-0.054 0.259-0.040 0.403 0.064 0.769-0.088 1.15-0.167 0.589-0.124 1.176-0.279 1.772-0.328 0.557-0.046 1.103-0.136 1.652-0.228 0.162-0.028 0.321-0.075 0.481-0.122 0.259-0.075 0.518-0.097 0.788-0.056 0.262 0.040 0.472-0.049 0.626-0.287 0.064-0.098 0.192-0.172 0.306-0.213 0.061-0.023 0.167 0.033 0.232 0.082 0.075 0.055 0.133 0.137 0.188 0.215 0.142 0.2 0.349 0.257 0.575 0.28 0.122 0.013 0.211-0.045 0.25-0.152 0.055-0.154 0.108-0.314 0.132-0.476 0.051-0.35 0.151-0.684 0.299-1.005 0.202-0.437 0.432-0.863 0.597-1.313 0.226-0.614 0.564-1.162 0.899-1.714 0.36-0.595 0.816-1.098 1.428-1.457 0.397-0.232 0.759-0.522 1.145-0.776 0.441-0.29 0.899-0.545 1.426-0.656 0.264-0.055 0.36-0.266 0.27-0.52-0.015-0.043-0.030-0.085-0.046-0.127-0.063-0.167-0.177-0.228-0.358-0.236-0.264-0.010-0.326-0.084-0.257-0.311 0.104-0.344 0.166-0.7 0.254-1.049 0.051-0.203 0.115-0.404 0.179-0.604 0.049-0.152 0.062-0.291-0.063-0.419-0.038-0.039-0.045-0.107-0.073-0.177 0.070-0.021 0.129-0.058 0.181-0.050 0.259 0.035 0.505-0.287 0.543-0.517 0.034-0.195-0.011-0.275-0.202-0.369-0.225-0.11-0.223-0.109-0.107-0.325 0.035-0.065 0.070-0.136 0.085-0.208 0.12-0.564 0.242-1.127 0.35-1.692 0.035-0.181 0.031-0.369 0.050-0.553 0.024-0.23 0.144-0.39 0.358-0.481 0.083-0.035 0.168-0.065 0.248-0.104 0.124-0.060 0.203-0.033 0.232 0.104 0.056 0.265 0.103 0.531 0.152 0.797 0.013 0.069 0.020 0.139 0.034 0.207 0.189 0.941 0.407 1.878 0.56 2.824 0.11 0.68 0.309 1.333 0.484 1.994 0.021 0.082 0.030 0.168 0.041 0.252 0.033 0.264 0.055 0.528 0.095 0.791 0.023 0.152-0.010 0.252-0.164 0.305-0.141 0.048-0.23 0.153-0.285 0.31 0.117 0.046 0.227 0.090 0.338 0.134 0.904 0.355 1.718 0.842 2.377 1.569 0.404 0.446 0.809 0.89 1.217 1.333 0.072 0.078 0.146 0.154 0.23 0.216 0.335 0.245 0.547 0.574 0.714 0.949 0.345 0.776 0.636 1.569 0.826 2.398 0.018 0.075 0.008 0.172-0.026 0.241-0.094 0.193-0.074 0.256 0.154 0.334 0.039-0.056 0.080-0.117 0.127-0.184 0.123 0.063 0.235 0.118 0.299 0.257 0.031 0.068 0.123 0.134 0.198 0.148 0.151 0.029 0.31 0.035 0.464 0.026 0.078-0.004 0.162-0.048 0.228-0.095 0.124-0.089 0.257-0.112 0.399-0.075 0.567 0.144 1.137 0.282 1.701 0.442 0.779 0.22 1.575 0.297 2.381 0.29 0.694-0.006 1.338 0.233 2.001 0.385 0.232 0.053 0.472 0.068 0.709 0.102 0.118 0.016 0.237 0.030 0.351 0.059 0.079 0.020 0.102 0.084 0.015 0.12-0.169 0.070-0.341 0.161-0.518 0.179-0.594 0.061-1.191 0.083-1.785 0.142-0.963 0.097-1.924 0.205-2.884 0.323-0.205 0.025-0.403 0.11-0.602 0.173-0.148 0.046-0.292 0.102-0.439 0.151-0.181 0.060-0.359 0.127-0.542 0.177-0.216 0.060-0.437 0.102-0.654 0.159-0.095 0.025-0.192 0.055-0.277 0.104-0.243 0.138-0.477 0.292-0.722 0.428-0.084 0.046-0.188 0.074-0.285 0.083-0.198 0.016-0.31 0.085-0.32 0.277-0.013 0.241-0.104 0.446-0.212 0.651-0.023 0.044-0.049 0.089-0.060 0.137-0.094 0.378-0.325 0.67-0.582 0.95-0.114 0.124-0.203 0.271-0.304 0.408-0.030 0.040-0.053 0.088-0.089 0.12-0.356 0.32-0.635 0.722-1.053 0.98-0.216 0.133-0.394 0.326-0.602 0.476-0.132 0.094-0.291 0.151-0.433 0.235-0.174 0.104-0.334 0.123-0.522 0.011-0.118-0.070-0.366 0.063-0.446 0.237-0.12 0.264-0.228 0.536-0.308 0.813-0.025 0.090 0.043 0.22 0.095 0.315 0.065 0.119 0.171 0.226 0.060 0.364-0.080 0.099-0.227 0.082-0.394-0.029-0.113-0.074-0.227-0.147-0.345-0.213-0.099-0.056-0.168-0.031-0.166 0.094 0.001 0.115-0.044 0.144-0.158 0.124-0.183-0.033-0.252 0.046-0.223 0.23 0.025 0.161 0.12 0.261 0.271 0.311 0.104 0.035 0.215 0.053 0.318 0.092 0.243 0.092 0.305 0.335 0.138 0.533-0.074 0.088-0.148 0.182-0.24 0.25-0.295 0.22-0.325 0.541-0.365 0.867-0.024 0.197-0.055 0.402-0.133 0.58-0.148 0.339-0.236 0.688-0.305 1.049-0.159 0.846-0.335 1.689-0.523 2.53-0.084 0.375-0.051 0.748-0.056 1.123-0.003 0.205-0.038 0.27-0.178 0.295-0.159 0.028-0.277-0.038-0.316-0.222-0.053-0.254-0.085-0.513-0.11-0.771-0.064-0.684-0.087-1.374-0.191-2.052-0.070-0.461-0.245-0.907-0.38-1.357-0.067-0.222-0.138-0.436-0.094-0.675 0.046-0.25-0.056-0.481-0.169-0.689-0.055-0.102-0.205-0.153-0.311-0.226-0.049-0.034-0.1-0.064-0.164-0.104 0.123-0.11 0.245-0.201 0.341-0.314 0.088-0.103 0.171-0.222 0.215-0.349 0.053-0.147 0.005-0.188-0.151-0.191-0.030 0-0.060 0.005-0.090 0.001-0.11-0.011-0.152-0.093-0.098-0.188 0.126-0.225 0.104-0.436-0.050-0.644-0.128-0.173-0.25-0.351-0.361-0.536-0.029-0.048-0.028-0.136-0.004-0.188 0.092-0.21 0.054-0.285-0.164-0.35-0.243-0.073-0.482-0.162-0.719-0.255-0.875-0.339-1.6-0.917-2.344-1.465-0.154-0.114-0.297-0.261-0.404-0.42-0.545-0.813-1.048-1.65-1.36-2.588-0.040-0.122-0.021-0.231 0.002-0.359 0.031-0.169-0.030-0.359-0.068-0.536-0.002-0.014-0.142-0.021-0.205 0.004-0.123 0.048-0.238 0.118-0.354 0.182-0.117 0.065-0.241 0.123-0.344 0.207-0.12 0.099-0.241 0.134-0.389 0.085-0.152-0.050-0.302-0.115-0.459-0.141-0.225-0.035-0.456-0.039-0.684-0.059-0.143-0.013-0.291-0.006-0.425-0.046-0.486-0.144-0.963-0.314-1.476-0.336-0.080-0.004-0.168-0.039-0.237-0.084-0.129-0.084-0.262-0.105-0.414-0.1-0.382 0.014-0.756-0.024-1.127-0.142-0.297-0.095-0.616-0.125-0.926-0.181-0.414-0.073-0.83-0.142-1.245-0.212-0.049-0.009-0.099-0.016-0.146-0.034-0.171-0.065-0.345-0.124-0.508-0.206-0.074-0.038-0.126-0.12-0.188-0.183-0.003-0.024-0.003-0.044-0.003-0.064zM16.762 22.799c0.262 0.087 0.328 0.163 0.398 0.471 0.025 0.11 0.075 0.154 0.187 0.138 0.108-0.015 0.211-0.001 0.221-0.172 0.024-0.395 0.075-0.788 0.114-1.183 0.050-0.506 0.217-0.951 0.605-1.305 0.147-0.134 0.257-0.308 0.387-0.461 0.319-0.378 0.659-0.729 1.14-0.909 0.11-0.041 0.207-0.122 0.314-0.176 0.173-0.089 0.346-0.178 0.523-0.255 0.124-0.053 0.225-0.122 0.238-0.262 0.018-0.183 0.058-0.374 0.030-0.552-0.074-0.466-0.184-0.925-0.489-1.308-0.019-0.023-0.030-0.051-0.040-0.080-0.181-0.518-0.328-1.049-0.321-1.599 0.009-0.818-0.089-1.62-0.276-2.415-0.12-0.512-0.184-1.039-0.339-1.54-0.233-0.753-0.597-1.412-1.431-1.683-0.609-0.198-1.197-0.457-1.801-0.673-0.104-0.036-0.24 0-0.358 0.021-0.109 0.020-0.213 0.094-0.32 0.093-0.423-0.001-0.83 0.053-1.211 0.246-0.098 0.050-0.196 0.102-0.297 0.143-0.768 0.304-1.364 0.742-1.648 1.591-0.365 1.094-0.567 2.179-0.313 3.321 0.028 0.126 0.046 0.264 0.023 0.387-0.046 0.24-0.105 0.482-0.195 0.708-0.143 0.363-0.32 0.712-0.477 1.069-0.128 0.294-0.243 0.594-0.374 0.886-0.094 0.211-0.123 0.423-0.056 0.644 0.104 0.35 0.196 0.707 0.323 1.048 0.059 0.157 0.172 0.306 0.295 0.422 0.129 0.122 0.291 0.216 0.453 0.29 0.333 0.152 0.674 0.282 1.013 0.419 0.316 0.128 0.633 0.248 0.861 0.526 0.323 0.392 0.537 0.83 0.644 1.325 0.049 0.23 0.093 0.464 0.181 0.679 0.070 0.171 0.077 0.313-0.009 0.471-0.098 0.181-0.084 0.222 0.093 0.323 0.039 0.023 0.104 0.044 0.134 0.026 0.029-0.016 0.046-0.087 0.039-0.129-0.023-0.139 0.039-0.207 0.138-0.231 0.134 0.141 0.246 0.279 0.379 0.392 0.164 0.141 0.245 0.105 0.287-0.109 0.009-0.046-0.001-0.098-0.006-0.147-0.023-0.225-0.008-0.438 0.207-0.631 0.074 0.119 0.153 0.216 0.197 0.325 0.050 0.124 0.065 0.262 0.107 0.39 0.014 0.043 0.063 0.105 0.098 0.107 0.166 0.006 0.264-0.008 0.27-0.208 0.008-0.138 0.041-0.277 0.064-0.432zM15.073 24.441c-0.036 0.045-0.097 0.087-0.103 0.136-0.011 0.098 0.045 0.189 0.148 0.179 0.055-0.005 0.137-0.089 0.147-0.147 0.018-0.097-0.056-0.151-0.192-0.168zM17.151 23.855c-0.050-0.014-0.093-0.031-0.136-0.033-0.010 0-0.034 0.055-0.029 0.082 0.005 0.029 0.036 0.053 0.059 0.084 0.039-0.030 0.070-0.054 0.11-0.085 0.097 0.144 0.168 0.046 0.247-0.023-0.125-0.112-0.125-0.112-0.252-0.025z"></path>
<path fill="#fff" d="M3.741 26.838c0.088-0.107 0.169-0.206 0.252-0.305 0.364-0.434 0.746-0.847 1.156-1.241 0.57-0.547 1.064-1.172 1.591-1.763 0.157-0.176 0.295-0.375 0.476-0.522 0.281-0.228 0.378-0.532 0.434-0.863 0.021-0.123 0.035-0.248 0.058-0.372 0.035-0.189 0.142-0.271 0.336-0.267 0.227 0.004 0.344-0.168 0.235-0.373-0.141-0.265-0.289-0.53-0.457-0.777-0.221-0.326-0.309-0.68-0.294-1.068 0.010-0.26 0.055-0.308 0.306-0.309 0.25 0 0.491-0.029 0.714-0.196 0.049 0.139 0.090 0.26 0.136 0.38 0.115 0.31 0.222 0.624 0.353 0.927 0.097 0.225 0.212 0.442 0.34 0.65 0.131 0.213 0.276 0.42 0.434 0.614 0.154 0.189 0.326 0.364 0.501 0.535 0.338 0.329 0.675 0.658 1.025 0.973 0.423 0.382 0.882 0.712 1.433 0.891 0.153 0.050 0.274 0.148 0.33 0.308 0.055 0.152 0.002 0.266-0.147 0.326-0.023 0.009-0.048 0.014-0.072 0.023-0.225 0.079-0.292 0.201-0.26 0.441 0.013 0.095 0.002 0.193 0.002 0.341-0.138-0.061-0.247-0.087-0.328-0.149-0.23-0.178-0.447-0.372-0.669-0.56-0.034-0.029-0.065-0.064-0.104-0.087-0.414-0.245-0.831-0.483-1.241-0.733-0.073-0.044-0.128-0.123-0.179-0.193-0.089-0.123-0.166-0.124-0.255-0.001-0.034 0.048-0.073 0.098-0.122 0.129-0.202 0.129-0.403 0.262-0.616 0.373-0.271 0.142-0.551 0.27-0.833 0.389-0.19 0.080-0.37 0.159-0.532 0.297-0.412 0.349-0.906 0.569-1.376 0.826-0.162 0.088-0.31 0.2-0.467 0.297-0.128 0.079-0.266 0.142-0.387 0.23-0.384 0.281-0.764 0.567-1.14 0.86-0.266 0.203-0.351 0.208-0.636-0.030z"></path>
<path fill="#fff" d="M19.816 7.166c0.162-0.044 0.294-0.065 0.387 0.094 0.020 0.034 0.083 0.049 0.129 0.060 0.088 0.020 0.178 0.031 0.267 0.044 0.112 0.014 0.195 0.053 0.24 0.171 0.023 0.060 0.084 0.112 0.138 0.154 0.33 0.261 0.675 0.506 0.993 0.782 0.255 0.221 0.525 0.246 0.825 0.154 0.039-0.011 0.083-0.060 0.092-0.1 0.024-0.097 0.034-0.197 0.040-0.296 0.006-0.089 0.031-0.147 0.136-0.128 0.186 0.034 0.329-0.018 0.442-0.181 0.048-0.068 0.144-0.103 0.222-0.147 0.442-0.246 0.904-0.462 1.32-0.745 0.262-0.178 0.51-0.361 0.809-0.476 0.093-0.035 0.152-0.153 0.235-0.223 0.088-0.075 0.177-0.162 0.282-0.201 0.174-0.065 0.311-0.152 0.437-0.297 0.238-0.275 0.482-0.553 0.855-0.663 0.094-0.028 0.177-0.051 0.241 0.040 0.064 0.093-0.004 0.157-0.063 0.221-0.365 0.394-0.756 0.767-1.086 1.187-0.433 0.552-0.822 1.138-1.219 1.717-0.094 0.138-0.143 0.307-0.218 0.459-0.056 0.117-0.118 0.231-0.184 0.343-0.131 0.22-0.274 0.432-0.398 0.654-0.129 0.231-0.328 0.377-0.557 0.484-0.060 0.029-0.146-0.001-0.217 0.009-0.079 0.011-0.188 0.015-0.225 0.065-0.030 0.041 0.023 0.148 0.049 0.222 0.040 0.109 0.092 0.215 0.134 0.323 0.050 0.124 0.084 0.257 0.144 0.377 0.228 0.452 0.467 0.897 0.695 1.349 0.044 0.088 0.064 0.188 0.093 0.284 0.065 0.215 0.124 0.432 0.197 0.644 0.092 0.27 0.036 0.385-0.241 0.444-0.191 0.040-0.384 0.072-0.577 0.1-0.149 0.023-0.252-0.044-0.315-0.218-0.147-0.405-0.302-0.808-0.424-1.221-0.267-0.907-0.796-1.67-1.324-2.432-0.124-0.179-0.333-0.301-0.503-0.448-0.103-0.088-0.207-0.174-0.315-0.257-0.089-0.069-0.168-0.138-0.172-0.265-0.001-0.039-0.030-0.089-0.061-0.115-0.166-0.138-0.333-0.274-0.505-0.404-0.255-0.195-0.516-0.382-0.771-0.576-0.090-0.069-0.177-0.12-0.3-0.105-0.051 0.006-0.144-0.035-0.158-0.074-0.018-0.054 0.003-0.143 0.041-0.188 0.087-0.103 0.191-0.192 0.295-0.279 0.11-0.088 0.167-0.187 0.095-0.34z"></path>
<path fill="#fff" d="M25.122 19.334c-0.213 0.522-0.422 1.030-0.63 1.539-0.095 0.232-0.191 0.463-0.286 0.694-0.011 0.028-0.025 0.055-0.036 0.083-0.064 0.152-0.129 0.341-0.014 0.453 0.077 0.074 0.272 0.048 0.409 0.030 0.191-0.025 0.226-0.004 0.266 0.178 0.034 0.154 0.072 0.319 0.153 0.451 0.272 0.438 0.556 0.869 0.852 1.29 0.259 0.368 0.548 0.715 0.811 1.081 0.094 0.132 0.162 0.289 0.22 0.442 0.139 0.375 0.304 0.729 0.61 1.004 0.093 0.084 0.159 0.207 0.213 0.324 0.073 0.154-0.001 0.25-0.168 0.241-0.22-0.013-0.403-0.083-0.543-0.271-0.236-0.315-0.545-0.546-0.91-0.695-0.241-0.099-0.442-0.235-0.536-0.492-0.006-0.019-0.016-0.039-0.030-0.051-0.274-0.238-0.525-0.511-0.828-0.702-0.282-0.178-0.567-0.335-0.769-0.609-0.059-0.080-0.12-0.167-0.2-0.223-0.072-0.050-0.173-0.097-0.255-0.087-0.23 0.028-0.423-0.074-0.614-0.162-0.056-0.026-0.069-0.157-0.089-0.243-0.006-0.026 0.026-0.063 0.040-0.095 0.041-0.1 0.078-0.205-0.015-0.294-0.095-0.090-0.202-0.055-0.309-0.014-0.067 0.026-0.142 0.031-0.211 0.053-0.084 0.026-0.173 0.048-0.248 0.090-0.213 0.12-0.419 0.252-0.63 0.377-0.228 0.134-0.466 0.256-0.688 0.4-0.267 0.174-0.562 0.174-0.857 0.149-0.171-0.014-0.3-0.136-0.383-0.289-0.073-0.132-0.046-0.223 0.084-0.304 0.649-0.399 1.291-0.809 1.95-1.194 0.866-0.505 1.579-1.157 2.116-2.009 0.235-0.373 0.417-0.764 0.562-1.176 0.030-0.085 0.059-0.172 0.103-0.25 0.075-0.137 0.237-0.168 0.341-0.055 0.099 0.108 0.208 0.177 0.35 0.216 0.065 0.024 0.124 0.090 0.168 0.12zM20.032 24.014c0.212 0.149 0.486 0.113 0.634-0.088 0.025-0.034 0.030-0.097 0.016-0.136-0.008-0.021-0.079-0.030-0.118-0.025-0.104 0.014-0.207 0.058-0.309 0.053-0.154-0.008-0.205 0.069-0.223 0.196zM23.687 22.078c0.056-0.092 0.1-0.146 0.122-0.208 0.008-0.020-0.041-0.060-0.065-0.092-0.049 0.054-0.104 0.104-0.143 0.166-0.009 0.013 0.038 0.063 0.087 0.134zM23.301 23.476c-0.015-0.001-0.030-0.003-0.046-0.003-0.011 0.059-0.044 0.128-0.025 0.174 0.016 0.040 0.093 0.056 0.143 0.083 0.009-0.011 0.016-0.021 0.025-0.033-0.033-0.074-0.064-0.148-0.097-0.222z"></path>
<path fill="#fff" d="M12.813 7.394c-0.173-0.029-0.285 0.023-0.331 0.203-0.013 0.049-0.083 0.093-0.137 0.118-0.108 0.051-0.232 0.072-0.334 0.133-0.495 0.296-0.99 0.589-1.397 1.012-0.236 0.245-0.505 0.458-0.756 0.689-0.046 0.043-0.080 0.099-0.118 0.151-0.030 0.040-0.050 0.095-0.089 0.118-0.359 0.207-0.487 0.586-0.68 0.914-0.422 0.714-0.729 1.481-1.013 2.257-0.050 0.138-0.070 0.29-0.090 0.438-0.015 0.113-0.056 0.156-0.167 0.115-0.028-0.010-0.059-0.016-0.084-0.031-0.205-0.122-0.412-0.085-0.624-0.023-0.067 0.020-0.166 0.025-0.215-0.010-0.092-0.065-0.137-0.174-0.090-0.295 0.055-0.146 0.105-0.292 0.171-0.433 0.147-0.318 0.302-0.633 0.453-0.949 0.072-0.149 0.154-0.294 0.208-0.449 0.094-0.274 0.228-0.52 0.413-0.744 0.060-0.073 0.088-0.192 0.087-0.29-0.002-0.139 0.039-0.22 0.174-0.255 0.089-0.023 0.172-0.054 0.187-0.167 0.023-0.164-0.018-0.212-0.181-0.242-0.067-0.013-0.137-0.053-0.187-0.099-0.084-0.078-0.153-0.172-0.231-0.257-0.251-0.272-0.463-0.562-0.535-0.94-0.029-0.154-0.105-0.302-0.173-0.447-0.077-0.161-0.179-0.3-0.35-0.378-0.058-0.026-0.11-0.072-0.154-0.118-0.25-0.274-0.501-0.548-0.742-0.831-0.055-0.065-0.073-0.161-0.113-0.24-0.030-0.060-0.056-0.129-0.103-0.174-0.174-0.173-0.355-0.34-0.533-0.51-0.019-0.018-0.036-0.034-0.055-0.051-0.077-0.069-0.143-0.171-0.061-0.243 0.084-0.075 0.167-0.005 0.243 0.085 0.336 0.399 0.735 0.693 1.29 0.705 0.082 0.001 0.164 0.068 0.241 0.112 0.060 0.034 0.112 0.083 0.172 0.12 0.245 0.153 0.489 0.308 0.738 0.456 0.133 0.079 0.269 0.157 0.413 0.211 0.384 0.144 0.735 0.338 1.057 0.594 0.103 0.083 0.238 0.123 0.356 0.189 0.122 0.069 0.241 0.144 0.36 0.217 0.196 0.119 0.297 0.084 0.41-0.105 0.043-0.073 0.133-0.132 0.215-0.167 0.316-0.137 0.636-0.266 0.958-0.389 0.21-0.080 0.428-0.139 0.638-0.223 0.181-0.073 0.356-0.159 0.527-0.252 0.109-0.059 0.201-0.079 0.299 0.013 0.048 0.044 0.109 0.073 0.154 0.119 0.048 0.050 0.127 0.153 0.118 0.162-0.068 0.072-0.152 0.131-0.236 0.183-0.029 0.014-0.072 0-0.103 0zM7.38 12.894c-0.031 0.036-0.070 0.070-0.092 0.113-0.019 0.036-0.016 0.083-0.024 0.126 0.049 0.008 0.107 0.035 0.147 0.020 0.108-0.043 0.098-0.151-0.031-0.259zM8.263 9.233c-0.021 0.026-0.043 0.051-0.064 0.078 0.050 0.045 0.099 0.092 0.154 0.132 0.004 0.002 0.050-0.054 0.077-0.084-0.055-0.043-0.11-0.084-0.167-0.126z"></path>
<path fill="#fff" d="M12.621 17.18c0.059-0.181 0.22-0.269 0.433-0.203 0.444 0.138 0.887 0.281 1.325 0.441 0.282 0.102 0.553 0.235 0.83 0.354 0.363 0.157 0.42 0.397 0.212 0.732-0.188 0.302-0.4 0.582-0.638 0.847-0.127 0.141-0.282 0.169-0.452 0.128-0.341-0.083-0.679-0.176-1.019-0.261-0.063-0.016-0.128-0.029-0.192-0.026-0.248 0.011-0.444-0.092-0.619-0.26-0.156-0.149-0.315-0.295-0.482-0.43-0.267-0.217-0.33-0.594-0.113-0.855 0.184-0.221 0.414-0.387 0.714-0.466z"></path>
<path fill="#fff" d="M17.061 17.871c0.129-0.036 0.264-0.059 0.385-0.112 0.276-0.119 0.54-0.265 0.818-0.379 0.407-0.167 0.82-0.323 1.234-0.467 0.232-0.080 0.438 0.026 0.546 0.248 0.020 0.040 0.036 0.083 0.055 0.124 0.264 0.609 0.067 1.158-0.53 1.456-0.237 0.119-0.478 0.233-0.727 0.325-0.166 0.061-0.349 0.077-0.523 0.12-0.105 0.026-0.216 0.050-0.308 0.104-0.297 0.176-0.596 0.139-0.828-0.113-0.058-0.063-0.119-0.125-0.189-0.168-0.271-0.164-0.355-0.428-0.373-0.717-0.015-0.251 0.198-0.454 0.439-0.423z"></path>
<path fill="#fff" d="M16.184 20.696c-0.112 0.151-0.221 0.294-0.323 0.441-0.080 0.115-0.162 0.132-0.271 0.035-0.082-0.073-0.178-0.129-0.266-0.196-0.089-0.069-0.112-0.158-0.077-0.267 0.119-0.365 0.237-0.73 0.353-1.097 0.051-0.162 0.093-0.328 0.152-0.487 0.069-0.188 0.198-0.241 0.383-0.163 0.202 0.085 0.361 0.233 0.441 0.432 0.174 0.436 0.334 0.879 0.483 1.323 0.055 0.163-0.113 0.415-0.321 0.533-0.142 0.080-0.302 0.053-0.457-0.077-0.061-0.051-0.070-0.097-0.011-0.163 0.115-0.125 0.095-0.203-0.085-0.314z"></path>
</svg>
