<svg id="Layer_1" data-name="Layer 1" xmlns="http://www.w3.org/2000/svg" viewBox="0 0 87.91 84.76"><defs><style>.cls-1{fill:#fff;}</style></defs><path class="cls-1" d="M-244.42,343.05c-1.42,0-2.83,0-4.25,0-2.27,0-2.88-.6-2.93-2.95-.06-2.59,0-5.17,0-7.75s-.07-2.78-2.81-2.79c-1.75,0-3.5,0-5.25,0-1.08,0-1.23.55-.82,1.46a10.57,10.57,0,0,1,.73,2.16,22.43,22.43,0,0,1,.46,3.9c0,.63-.36,1.61-.82,1.8a3,3,0,0,1-2.37-.13c-.4-.22-.45-1.28-.44-1.95a17.77,17.77,0,0,1,.34-3.17c.24-1.17,1.05-2.42.8-3.42-.21-.84-1.71-1.28-2.44-2.08s-.21-2.64.83-3.23a.93.93,0,0,1,.63,0,.94.94,0,0,1,.39.3c1.1,1.17,1.64-.4,2.44-.47s1.24,1.56,2.24.64c.78-.72,1.34-.77,2.06,0,.12.14.56,0,.85,0,0-.29,0-.68-.16-.87-.75-.8-1.38-1.95-2.82-1-.28.19-.83,0-1.24-.08s-1-.37-1.36-.28c-.69.16-1.06,1.33-2.09.38s-2-1.66-1.66-3.21a2.07,2.07,0,0,0,0-1c-.76-2.92,1.12-4.53,3-6.1.11-.1.62.08.78.27,1.62,1.9,3.11,1.67,4.21-.67a8.77,8.77,0,0,1,.64-1c.23.31.59.59.67.94.36,1.47,1.33,1.86,2.75,1.93s1.61-1.12,2.12-2c.12-.21.18-.45.29-.67.24-.46.5-.92.75-1.38a9.11,9.11,0,0,0,.64,1.29c.64.93,1.31,1.82,2,2.71a3.94,3.94,0,0,0,.5.5c2.47,2.41,2.49,2.82.29,5.36-1.62,1.86-1.62,1.87.26,3.66.16.16.3.35.45.53,1.38,1.59,1.38,1.59,0,3.24-.3.36-.7.64-1,1-1,1.41-.93,2,.43,3.19,1.91,1.73,1.9,2.19,0,4.66a9.21,9.21,0,0,0-.76,1.58,11.13,11.13,0,0,0,1.58-1.2c.81-.9,2.08-1.87,2.12-2.85s-1.2-2-2.07-2.75-.55-1.4-.18-2.14a3.18,3.18,0,0,1,.45-.59c2.08-2.69,2.13-2.74-.15-5.16-1-1-1.07-1.74-.06-2.71.47-.44.69-1.14,1.17-1.57,1.14-1,1.46-1.95.11-3.06-.83-.67-.6-1.49.32-1.61,1.33-.18,1.45-1.08,1.81-2a11.7,11.7,0,0,1,1.29-2,13.64,13.64,0,0,1,.83,1.94,2.24,2.24,0,0,0,2.21,1.95c1.41.1,2.47-.15,2.6-1.86,0-.3.44-.57.67-.85a8.34,8.34,0,0,1,.58.75c1.5,2.49,2,2.58,4.19.84a1.18,1.18,0,0,1,1-.18c3,1.78,3.91,4.17,3.23,7.89-.25,1.35-2.3,2.26-3.57,2-.9-.16-2.46.92-2.8.57-1-1-1.66-.63-2.5-.11a1.62,1.62,0,0,0-.53.51,10.27,10.27,0,0,0-.48,1.07c.46.05,1.08.32,1.34.11.72-.56,1.24-1.06,1.91.06.09.16.94.15,1.11-.06.83-1,1.5-.73,2.27,0,.18.18.82.24.92.1,1.07-1.37,1.77-.61,2.25.43a2.3,2.3,0,0,1-1.13,3.07c-1.25.51-2.36.83-.92,2.4.35.38.12,1.29.15,1.95a16,16,0,0,0,.19,3.47c.21.8.49,1.55-.34,1.89a2.71,2.71,0,0,1-2.13,0c-.51-.29-1.12-1.35-.95-1.76.85-2-.26-4.34,1.22-6.24.48-.62,0-1.25-.93-1.23h-.75l-6.45.18c-.12,2.12-.27,4.25-.35,6.38-.06,1.33,0,2.67,0,4a2.73,2.73,0,0,1-2.91,2.92C-241.25,343.09-242.84,343.05-244.42,343.05Zm-8.5-23.29a5.54,5.54,0,0,0,1.42-.18c.74-.37,1.44-.81,2.16-1.23-.84-.43-1.66-.88-2.51-1.28a2,2,0,0,0-.73,0c-.95,0-1.76.38-1.57,1.36C-254,319-253.23,319.45-252.92,319.76Zm17.23.1c.42-.36,1.33-.76,1.45-1.33.27-1.2-.69-1.5-1.72-1.47-.42,0-.95-.14-1.23.07a10.6,10.6,0,0,0-1.47,1.52c.47.26.92.54,1.4.76A14.76,14.76,0,0,0-235.69,319.86Z" transform="translate(287.8 -284.14)"/><path class="cls-1" d="M-240.61,362.62a33.59,33.59,0,0,0,0-4.49c-.25-1.78.89-2.21,2.09-2.37,8.15-1.09,14.16-5.84,18.77-12a26.54,26.54,0,0,0,5.26-15.84,29.87,29.87,0,0,0-2.57-13.42,28.89,28.89,0,0,0-8.62-10.92,28.5,28.5,0,0,0-4.81-3.39,61.87,61.87,0,0,0-8.47-3c-1.06-.32-1.62-.6-1.61-1.74,0-3.5,0-7,0-10.5,0-.25.24-.49.37-.74a4.65,4.65,0,0,1,.54.74,44.33,44.33,0,0,1,2.35,5.35,2.69,2.69,0,0,0,2.31,1.92,34.33,34.33,0,0,1,12.5,6.08,4.32,4.32,0,0,0,3.66.82c.56-.1,1.11-.28,1.67-.39.79-.14,1.58-.24,2.37-.36-.07.95-.07,1.91-.23,2.84-.11.63-.47,1.22-.64,1.84a3.4,3.4,0,0,0,.58,3.14c3,4.32,5.36,9,5.88,14.37.15,1.63.62,2.84,2.58,3.31a46.67,46.67,0,0,1,6.35,2.44c.18.08.29.31.43.48-.2.1-.4.23-.61.31-2.14.8-4.25,1.68-6.43,2.37a3,3,0,0,0-2.27,2.84c-.28,3.68-1.76,7-3.14,10.28a15.07,15.07,0,0,1-3,4.76c-1.76,1.78-1.05,3.55-.66,5.41.07.31.34.58.4.89.11.55.34,1.48.15,1.59a2.76,2.76,0,0,1-1.85.28,13.12,13.12,0,0,1-2.74-1.08,2.14,2.14,0,0,0-2.7.4,20.07,20.07,0,0,1-6.43,4c-1.87.73-3.74,1.52-5.68,2.07a3.77,3.77,0,0,0-2.91,2.55c-.55,1.62-1.33,3.17-2,4.74a2.21,2.21,0,0,1-.47.5c-.13-.24-.36-.48-.36-.73C-240.63,366.12-240.61,364.37-240.61,362.62Z" transform="translate(287.8 -284.14)"/><path class="cls-1" d="M-247.76,290.35c0,1.66,0,3.33,0,5a1.53,1.53,0,0,1-1.33,1.75c-2,.5-3.89,1.18-5.83,1.81-5.55,1.82-9.57,5.78-13.27,10-1.45,1.66-2.15,4-3.21,6-2.51,4.79-2.77,10-2.27,15.15a31.52,31.52,0,0,0,2.27,8.22c2.72,7,7.86,11.9,14.41,15.22a17.41,17.41,0,0,0,6.93,2.28c2.11.1,2.29.47,2.29,2.62,0,3.25,0,6.5,0,9.75,0,.26-.24.52-.36.78a5.74,5.74,0,0,1-.48-.73c-.73-1.65-1.56-3.26-2.12-5a3.4,3.4,0,0,0-2.76-2.34,33.14,33.14,0,0,1-12.54-6.4,2.25,2.25,0,0,0-2.68-.5,14.92,14.92,0,0,1-3.34.75c-.5.1-1,.25-1.46.39a10.94,10.94,0,0,1,0-1.72,11.09,11.09,0,0,1,.58-2.12,4.91,4.91,0,0,0-.77-4.86,30.75,30.75,0,0,1-5.45-14.3c-.19-1.62-1.47-2.32-2.74-2.89-1.77-.81-3.6-1.48-5.4-2.22-.21-.09-.35-.32-.53-.48a2.94,2.94,0,0,1,.5-.31c1.87-.83,3.71-1.75,5.63-2.44a3.51,3.51,0,0,0,2.6-3.16,27.45,27.45,0,0,1,4.7-12.48,33.66,33.66,0,0,0,2.21-3.24,2.72,2.72,0,0,0,.27-1.77c-.33-1.51-.83-3-1.24-4.47-.25-.93-.38-1.78,1.07-1.1.52.24,1.1.34,1.63.56a5.54,5.54,0,0,0,6-.77,29.71,29.71,0,0,1,11.57-5.15,2.46,2.46,0,0,0,2-1.84c.63-1.93,1.52-3.78,2.32-5.66a2.7,2.7,0,0,1,.43-.53c.14.23.38.46.38.7C-247.74,286.68-247.76,288.51-247.76,290.35Z" transform="translate(287.8 -284.14)"/></svg>