<svg id="Layer_1" data-name="Layer 1" xmlns="http://www.w3.org/2000/svg" viewBox="0 0 87.18 85.7"><defs><style>.cls-1{fill:#fff;}</style></defs><path class="cls-1" d="M1242.7,106.5c0-1.66,0-3.33,0-5,0-.91,0-1.44,1.25-1.62a30.24,30.24,0,0,0,9.86-3.48,14.36,14.36,0,0,0,3.06-2c3-2.79,6.1-5.53,8.05-9.31,1.35-2.63,2.77-5.29,3-8.21a63.75,63.75,0,0,0,.07-12.43,21.69,21.69,0,0,0-3.61-9.22c-2.21-3.31-4.63-6.53-8.24-8.7-2.51-1.51-4.8-3.35-7.74-4.06-1.57-.37-3.1-1-4.67-1.3-.69-.15-1-.33-1-1.06,0-3.91,0-7.83,0-11.74a2.12,2.12,0,0,1,.25-.67,4.25,4.25,0,0,1,.35.58c.85,2.1,1.66,4.21,2.54,6.3a2.42,2.42,0,0,0,1.82,1.49,32.55,32.55,0,0,1,4.39,1.42,30.1,30.1,0,0,1,8.51,4.74c1.36,1.14,2.59,1,4,.61,1.11-.26,2.2-.58,3.31-.79.56-.1,1,.14.77.85-.42,1.48-.88,3-1.24,4.46a2.68,2.68,0,0,0,.44,2.54,29.82,29.82,0,0,1,5.05,10c.58,1.88.86,3.8,1.34,5.68a2.46,2.46,0,0,0,1.66,1.92c2.12.82,4.23,1.68,6.35,2.52.47.19.39.46.1.7a19.1,19.1,0,0,1-4.78,2.39c-.68.28-1.33.64-2,.87-.92.3-1.16.88-1.31,1.83a37.79,37.79,0,0,1-4.5,12.86,29.25,29.25,0,0,1-2.49,3.64,2,2,0,0,0-.39,1.86c.25,1.1.63,2.18.87,3.28a15.59,15.59,0,0,1,.16,2,14.25,14.25,0,0,1-2.45-.07,11.07,11.07,0,0,1-2.52-.87,2,2,0,0,0-2.21.34,48.67,48.67,0,0,1-6.47,4,29.88,29.88,0,0,1-6,2.14c-1.34.38-2.31.83-2.71,2.4-.51,1.94-1.86,3.59-2.3,5.61,0,.13-.19.25-.29.37a1.92,1.92,0,0,1-.26-.64c0-2.09,0-4.17,0-6.25Z" transform="translate(-1195.42 -27.69)"/><path class="cls-1" d="M1235.34,34.37c0,1.83,0,3.66,0,5.49,0,.74-.24,1-1,1.33-2,.88-4.25.93-6.32,1.76a36.68,36.68,0,0,0-6.34,3.63,26.9,26.9,0,0,0-9.22,11,30,30,0,0,0-3.15,12,30.05,30.05,0,0,0,2.21,12,26.41,26.41,0,0,0,5.84,9.26,34.3,34.3,0,0,0,10.17,7.25,16.39,16.39,0,0,0,4.65,1.39c3.17.46,3.18.44,3.18,3.52s0,6.16,0,9.23a2.31,2.31,0,0,1-.22.69,3,3,0,0,1-.41-.54,31.19,31.19,0,0,1-2.31-5.12,2.85,2.85,0,0,0-2.1-2.11c-1.45-.53-2.94-.88-4.4-1.44a29.24,29.24,0,0,1-9.21-5.48,1.59,1.59,0,0,0-2-.34c-1.41.61-2.92,1-4.39,1.48-.83.26-1.26-.13-1-1,.33-1.09.72-2.16,1.11-3.24a3.75,3.75,0,0,0-.39-3.68,36.61,36.61,0,0,1-5.39-11.69c-.32-1.42-.64-2.85-.86-4.29a1.6,1.6,0,0,0-1.14-1.4c-2.29-1-4.53-2.12-6.78-3.21-.19-.1-.29-.39-.43-.59L1196,70c2.26-.93,4.53-1.83,6.77-2.8.38-.16.88-.62.9-1,.2-3.91,1.59-7.48,3.09-11a23.9,23.9,0,0,1,3.06-5c1-1.32,1.68-2.41,1-4.22-.4-1.09-.52-2.37-.91-3.53-.24-.72.1-1.1.83-1a26,26,0,0,1,4.49,1.05,2.56,2.56,0,0,0,2.65-.49c2.16-1.32,4.26-2.75,6.51-3.89a23.28,23.28,0,0,1,5.27-1.87c2.36-.55,2.9-2.36,3.53-4.25.42-1.23,1-2.41,1.53-3.6,0-.12.22-.2.33-.3.08.15.21.29.21.44,0,1.91,0,3.82,0,5.74Z" transform="translate(-1195.42 -27.69)"/><path class="cls-1" d="M1236.33,55.94c0,1,.16,1.53,0,1.82-1.07,1.56.12,2.62.82,3.72.37.59,1.18,1.42,1.62,1.33.91-.18.45-1.24.44-1.89a4.21,4.21,0,0,1,1.25-3.36c.94-.91,1.51-1.87.83-3.25-.14-.28.16-.94.46-1.21a1.12,1.12,0,0,1,1.08.23c.54.83,1.83.86,2,2s-.72,1.58-1.26,2.29a5.2,5.2,0,0,0-.78,5.72c.07.15.13.31.19.46.19-.13.44-.23.54-.4a13,13,0,0,0,.73-1.56,2.75,2.75,0,0,1,2.11-1.84,4,4,0,0,0,3.23-2.72c.38-1,.76-.55,1.14-.09s.51.83.79,1.23a1.37,1.37,0,0,1-.47,2.13c-1,.58-1.69,1.52-3,1.58a1.85,1.85,0,0,0-1.74,1.78c0,.16,0,.33,0,.5-.1.61-.49,1.65-.29,1.77.89.56,1.1-.6,1.69-.92.94-.5,1.82-1.1,3-.6a3,3,0,0,0,4-1.23c.43-.66.78-.06.87.18.7,2.05,0,4.35-2.6,4-.24,0-.54.08-.74,0-2.51-1.27-3.47.86-4.8,2.17-.08.08,0,.3,0,.45a2.47,2.47,0,0,0,.38,0,1.81,1.81,0,0,0,.46-.17c1.89-1,3.51,0,4.93,1,.69.44,1,.6,1.62.19a2.78,2.78,0,0,1,1-.6,1.4,1.4,0,0,1,1.06.43,1.2,1.2,0,0,1,.13,1.06,9.18,9.18,0,0,1-1.06,1.64,1.91,1.91,0,0,1-2.87.54c-.34-.24-.58-.61-.91-.85a3.69,3.69,0,0,0-4.91.49,2.92,2.92,0,0,0-.29.4,2.08,2.08,0,0,0,.58.22c1.49.05,2.32,1,3.06,2.12.93,1.37,1.8,2.79,3.69,3,.14,0,.41.63.34.72a7.17,7.17,0,0,1-1.77,1.71,2.53,2.53,0,0,1-3.14-1.26,16.88,16.88,0,0,0-.58-1.6c-.33-.54-.76-1.24-1.29-1.4a24,24,0,0,0-3.6-.62,1.21,1.21,0,0,0,0,.38s.17,0,.22.08c1.29,1.46,2.24,3,1.81,5.1-.25,1.21.76,1.73,1.36,2.49.26.33.54.94.4,1.22a1.73,1.73,0,0,1-1.19.68c-2.25.32-3.16-.53-3.2-2.86,0-.34,0-.67,0-1a4.4,4.4,0,0,0-3-4.31c-.15-.06-.71.45-.68.53.81,2,.12,3.71-.82,5.39a1.85,1.85,0,0,0,.13,2.48c.72.72,0,1.06-.45,1.23-1.25.42-2-.43-2.73-1.26a2.55,2.55,0,0,1-.17-2.77c.12-.21.37-.35.49-.57.4-.69,1.16-1.46,1-2.09a13,13,0,0,0-1.39-3.36s-.62.13-.63.23c-.16,2.06-1.53,3.12-3.12,4.12a2.87,2.87,0,0,0-1.6,3.11c.07.4-.19.5-.61.37a2.81,2.81,0,0,1-2-2.6c-.16-1,0-2,1.27-2.34.29-.08.48-.56.76-.61,2.27-.42,2.32-2.19,2.43-3.91a4.36,4.36,0,0,0-.26-1.14,6.15,6.15,0,0,0-.77.76,2.72,2.72,0,0,1-2.57,1.16c-1.6-.11-3.14,0-4,1.76a1.32,1.32,0,0,1-1.23.43c-.33-.15-.53-.77-.63-1.22a5.3,5.3,0,0,1,0-1.49,2.1,2.1,0,0,1,2.22-2.12,2.69,2.69,0,0,1,.75,0c2.32.57,3.47-1.11,4.74-2.5.58-.62.27-1.37-.53-1.36-1.75,0-3.43,0-4.86-1.32-.38-.35-1.27-.16-1.93-.2s-1.16,0-1.74,0-.77-.41-.5-.84a22.22,22.22,0,0,1,1.77-2.35,1.13,1.13,0,0,1,1.57-.18,15,15,0,0,1,1.63,1.1c1.13.91,2.23,1.68,3.77.76a8.33,8.33,0,0,1,1.86-.5c.32-.1,1-.14.08-.52-.51-.21-.91-.69-1.42-.94a4.67,4.67,0,0,1-2.46-2.85,2.91,2.91,0,0,0-2.68-2.18c-.87-.06-1-.5-.42-1.14a2.88,2.88,0,0,1,4.5.14,7.18,7.18,0,0,1,.86,1.76c.68,2,2.53,2.11,4.13,2.6.11,0,.47-.49.58-.8.06-.16-.14-.47-.3-.63-1.33-1.3-2.1-2.63-1.22-4.61.49-1.1-.2-2.25-1-3.14-.56-.61-.05-1,.36-1.09a2.61,2.61,0,0,1,2.8.41A3,3,0,0,1,1236.33,55.94Z" transform="translate(-1195.42 -27.69)"/></svg>