<!-- Generated by IcoMoon.io -->
<svg version="1.1" xmlns="http://www.w3.org/2000/svg" width="32" height="32" viewBox="0 0 32 32">
<title>fighters-frenzied</title>
<path fill="#fff" d="M21.103 3.441c-0.155 0.236-0.331 0.471-0.481 0.727-0.331 0.557-0.376 1.148-0.201 1.76 0.135 0.481 0.251 0.968 0.426 1.434 0.241 0.627 0.206 1.254 0.085 1.936 0.361-0.015 0.697-0.030 1.033-0.050 0.035 0 0.070-0.040 0.105-0.065 0.296-0.241 0.627-0.446 0.873-0.727 0.176-0.201 0.311-0.486 0.341-0.752 0.075-0.677 0.471-1.153 0.928-1.67-0.065 0.301-0.145 0.542-0.155 0.782-0.020 0.431-0.025 0.863 0.005 1.294 0.035 0.537 0.010 1.068-0.166 1.58-0.11 0.321-0.281 0.592-0.542 0.822-0.396 0.361-0.742 0.762-0.878 1.309-0.030 0.115-0.115 0.216-0.191 0.316-0.346 0.446-0.687 0.903-1.053 1.329-0.166 0.196-0.376 0.376-0.737 0.366 0.251-0.792 0.491-1.555 0.732-2.317-0.015-0.020-0.030-0.040-0.040-0.055-0.557 0.386-1.113 0.777-1.68 1.169-0.005-0.035-0.010-0.090-0.020-0.145-0.095-0.597-0.191-1.189-0.281-1.785-0.015-0.080-0.040-0.165-0.040-0.246-0.005-0.722 0-1.444 0-2.136-1.073 0.456-1.725 1.384-2.337 2.287-0.552-0.537-1.118-1.038-1.62-1.6-0.286-0.321-0.471-0.737-0.677-1.123-0.055-0.105-0.030-0.256-0.020-0.386 0.030-0.456 0.070-0.918 0.070-1.379-1.058 1.264-1.078 2.768-1.048 4.323-0.647-0.461-1.028-1.098-1.404-1.755 0.13 1.439 0.231 2.869-0.386 4.253-0.822-0.637-1.575-1.329-2.247-2.146-0.035 0.070-0.060 0.115-0.080 0.165-0.316 0.998-0.241 1.956 0.326 2.854 0.135 0.211 0.1 0.376-0.055 0.532-0.13 0.13-0.145 0.401-0.421 0.361-0.065-0.010-0.135-0.010-0.191-0.045-0.371-0.241-0.742-0.481-0.923-0.908-0.241-0.557-0.481-1.118-0.697-1.685-0.191-0.517-0.236-1.043-0.115-1.595 0.135-0.602 0.206-1.224-0.020-1.825-0.090-0.241-0.236-0.476-0.401-0.677-0.266-0.321-0.567-0.607-0.888-0.943 0.502-0.045 0.948 0.030 1.389 0.14 0.687 0.171 1.194 0.602 1.68 1.083 0.341 0.336 0.707 0.652 1.113 1.018 0.125-0.446 0.236-0.828 0.331-1.214 0.226-0.918 0.431-1.846 0.321-2.788-0.065-0.552-0.301-1.083-0.466-1.625-0.045-0.14-0.1-0.276-0.176-0.476 0.652 0.321 1.249 0.627 1.645 1.204 0.080 0.11 0.105 0.261 0.155 0.391 0.125 0.326 0.236 0.657 0.376 0.978 0.055 0.125 0.186 0.221 0.321 0.376 0.216-0.381 0.401-0.712 0.592-1.038 0.085-0.15 0.171-0.301 0.271-0.441 0.492-0.712 0.617-1.505 0.582-2.347-0.005-0.135 0.045-0.311 0.13-0.411 0.241-0.286 0.496-0.567 0.782-0.802 0.476-0.386 0.983-0.742 1.5-1.068-0.14 0.311-0.296 0.622-0.421 0.938-0.246 0.612-0.261 1.214 0.1 1.8 0.166 0.271 0.301 0.557 0.471 0.828 0.401 0.637 0.517 1.324 0.386 2.061-0.045 0.271-0.040 0.547-0.040 0.822 0.005 0.316 0.326 0.476 0.607 0.336 0.376-0.191 0.627-0.466 0.838-0.843 0.602-1.113 1.399-2.026 2.583-2.503z"></path>
<path fill="#fff" d="M22.066 15.969c0.080 0.16 0.125 0.271 0.186 0.371 0.316 0.572 0.702 1.088 1.244 1.464 0.171 0.12 0.191 0.211 0.055 0.351-0.14 0.14-0.286 0.281-0.411 0.401-0.657-0.115-0.963-0.687-1.449-1.108-0.532 0.542-1.048 1.068-1.565 1.595-2.924 2.999-5.853 6.003-8.777 9.002-0.707 0.722-1.404 1.454-2.111 2.172-0.476 0.481-1.053 0.828-1.655 1.113-0.497 0.231-1.013 0.416-1.525 0.622-0.251 0.1-0.321 0.045-0.286-0.216 0.050-0.381 0.1-0.757 0.155-1.138 0.080-0.542 0.371-0.983 0.692-1.394 0.351-0.451 0.757-0.868 1.148-1.289 3.496-3.726 6.991-7.453 10.492-11.174 0.336-0.356 0.692-0.692 1.023-1.053 0.11-0.12 0.16-0.256 0-0.431-0.301-0.321-0.557-0.682-0.832-1.023-0.135-0.16-0.11-0.291 0.045-0.421 0.095-0.080 0.176-0.181 0.231-0.236 0.286 0.211 0.562 0.411 0.838 0.612 0.316 0.231 0.627 0.476 0.953 0.687 0.075 0.050 0.261 0.030 0.326-0.030 0.356-0.321 0.692-0.667 1.033-1.003 0.341-0.341 0.687-0.672 1.013-1.023 0.266-0.281 0.532-0.577 0.622-0.968 0.030-0.125-0.015-0.266-0.035-0.471 0.276-0.426 0.777-0.552 1.329-0.572 0.065-0.005 0.135 0.010 0.196 0.035 0.692 0.291 1.033 1.409 0.627 2.036-0.075 0.115-0.135 0.16-0.296 0.105-0.301-0.1-0.617-0.025-0.848 0.171-0.376 0.326-0.737 0.677-1.053 1.058-0.486 0.577-0.933 1.194-1.364 1.755z"></path>
<path fill="#fff" d="M12.913 22.022c-1.234-1.159-2.447-2.292-3.661-3.425-0.040-0.296-0.291-0.391-0.496-0.537-0.16-0.115-0.291-0.11-0.446 0.005-0.431 0.311-0.873 0.607-1.319 0.913-0.186-0.176-0.346-0.316-0.497-0.471-0.105-0.105-0.095-0.196 0.035-0.306 0.351-0.316 0.682-0.652 1.023-0.983 0.055-0.050 0.095-0.115 0.15-0.166 0.321-0.301 0.346-0.582 0.055-0.918-0.632-0.732-1.264-1.464-1.916-2.177-0.226-0.251-0.502-0.476-0.863-0.512-0.206-0.020-0.416-0.005-0.697-0.005-0.386-0.356-0.416-1.274 0.020-1.76 0.572-0.642 1.189-0.597 2.061 0.15-0.216 0.155-0.15 0.366-0.045 0.532 0.186 0.286 0.396 0.567 0.632 0.812 0.321 0.331 0.682 0.627 1.023 0.943 0.321 0.301 0.632 0.617 0.963 0.903 0.276 0.241 0.341 0.226 0.637-0.010 0.406-0.316 0.812-0.632 1.214-0.958 0.11-0.090 0.201-0.216 0.306-0.331-0.005 0 0.015-0.005 0.025 0.005 0.486 0.431 0.492 0.496 0.11 1.028-0.16 0.226-0.321 0.446-0.481 0.672-0.186 0.256-0.186 0.326 0.050 0.552 0.522 0.512 1.053 1.008 1.575 1.52 0.767 0.742 1.53 1.489 2.297 2.237 0.045 0.045 0.090 0.095 0.15 0.16-0.642 0.702-1.264 1.404-1.906 2.126z"></path>
<path fill="#fff" d="M27.056 18.527c-1.058 0.361-2.056 0.552-3.114 0.647 0.221-1.5 1.048-2.658 1.941-3.806-0.672 0.356-1.344 0.687-2.167 0.702 0.271-0.306 0.517-0.637 0.812-0.908 0.512-0.466 1.068-0.878 1.58-1.339 0.326-0.291 0.577-0.667 0.913-0.948 0.236-0.196 0.542-0.311 0.832-0.431s0.592-0.231 0.898-0.306c0.271-0.065 0.557-0.070 0.838-0.1 0.13-0.015 0.261-0.020 0.436-0.035-0.090 0.070-0.155 0.13-0.231 0.176-1.053 0.647-1.555 1.685-1.976 2.778-0.206 0.537-0.361 1.093-0.537 1.64-0.020 0.070-0.030 0.14-0.060 0.266 0.502-0.090 0.973-0.135 1.424-0.261 1.133-0.316 2.177-0.15 3.154 0.497 0.025 0.020 0.050 0.040 0.125 0.095-0.296 0.075-0.552 0.171-0.812 0.206-1.043 0.135-1.68 0.792-1.991 1.715-0.386 1.159-1.244 1.836-2.217 2.402-0.451 0.261-0.993 0.371-1.5 0.527-0.1 0.030-0.236-0.035-0.356-0.095 0.406-0.13 0.542-0.497 0.672-0.797 0.256-0.587 0.652-1.078 0.943-1.635 0.145-0.296 0.241-0.612 0.391-0.988z"></path>
<path fill="#fff" d="M15.521 24.455c0.637-0.687 1.259-1.359 1.891-2.041 0.732 0.712 1.429 1.404 2.136 2.086 1.304 1.269 2.618 2.528 3.912 3.801 0.286 0.281 0.517 0.607 0.772 0.913 0.446 0.537 0.486 1.209 0.602 1.851 0.105 0.577 0.095 0.577-0.456 0.376-0.537-0.196-1.078-0.386-1.615-0.592-0.166-0.065-0.316-0.176-0.471-0.271-0.055-0.035-0.1-0.1-0.16-0.115-0.497-0.145-0.802-0.552-1.159-0.883-0.371-0.336-0.727-0.687-1.093-1.028-1.429-1.344-2.859-2.683-4.293-4.022-0.020-0.020-0.040-0.045-0.065-0.075z"></path>
<path fill="#fff" d="M7.477 16.561c-0.105 0.045-0.216 0.1-0.331 0.135-0.406 0.125-0.817 0.241-1.229 0.356-0.060 0.020-0.13 0.025-0.191 0.030-0.341 0.010-0.461 0.246-0.296 0.547 0.125 0.231 0.216 0.476 0.321 0.712 0.015 0.040 0.030 0.080 0.050 0.115 0.311 0.456 0.642 0.898 0.923 1.369 0.171 0.296 0.261 0.637 0.386 0.958 0.075 0.191 0.145 0.386 0.226 0.577 0.035 0.080 0.080 0.155 0.11 0.216-0.692-0.065-1.369-0.13-2.066-0.201 0.341 0.863 0.848 1.469 1.68 1.8-0.241 0.11-0.497 0.060-0.727-0.030-0.567-0.211-1.123-0.456-1.685-0.687-0.075-0.030-0.15-0.075-0.206-0.135-0.346-0.386-0.802-0.577-1.284-0.672-0.687-0.135-1.148-0.547-1.515-1.098-0.191-0.291-0.346-0.607-0.476-0.933-0.211-0.517-0.567-0.918-0.928-1.324-0.040-0.045-0.080-0.085-0.166-0.176 0.637 0.241 1.229 0.411 1.6 0.968 0.296 0.446 0.737 0.612 1.259 0.617 0.080 0 0.176 0.005 0.246 0.035 0.356 0.171 0.657 0.030 0.953-0.145 0.125-0.075 0.266-0.135 0.411-0.206-0.040-0.070-0.065-0.135-0.105-0.181-0.597-0.612-0.717-1.409-0.873-2.192-0.060-0.311-0.14-0.617-0.226-0.923-0.221-0.817-0.782-1.314-1.545-1.62-0.080-0.030-0.16-0.065-0.301-0.12 0.888-0.085 1.69-0.005 2.442 0.351 0.471 0.221 0.938 0.471 1.389 0.732 0.481 0.271 0.938 0.582 1.424 0.853 0.216 0.12 0.466 0.181 0.727 0.271z"></path>
</svg>
