<svg id="Layer_1" data-name="Layer 1" xmlns="http://www.w3.org/2000/svg" viewBox="0 0 87.65 84.62"><defs><style>.cls-1{fill:#fff;}</style></defs><path class="cls-1" d="M939.52,368.62c0,1.92,0,3.83,0,5.74,0,.22-.37.43-.57.64-.16-.15-.4-.28-.48-.47-.83-1.89-1.75-3.74-2.4-5.69a2.35,2.35,0,0,0-1.62-1.63c-1.85-.68-3.69-1.37-5.56-2a28.61,28.61,0,0,1-8-4.7,2,2,0,0,0-2.22-.45,28.48,28.48,0,0,1-4,1.14c-1.08.29-1.3.12-1.19-1a10.23,10.23,0,0,1,.37-1.42c.31-1.27.63-2.55.9-3.83a1.15,1.15,0,0,0-.15-.88c-2.47-2.77-3.71-6.22-5.1-9.55a29.58,29.58,0,0,1-1.49-6.44,2,2,0,0,0-1.07-1.75c-.66-.33-1.26-.78-1.93-1.08-1.56-.72-3.15-1.36-4.72-2.07a3,3,0,0,1-.67-.58c.21-.22.38-.53.64-.65,1.87-.84,3.74-1.71,5.66-2.44a2.72,2.72,0,0,0,2-2.47c.39-4.09,2-7.79,3.77-11.42a24.32,24.32,0,0,1,3-4.5,2.34,2.34,0,0,0,.37-2.7,22.23,22.23,0,0,1-1.07-3.77c-.18-.81.32-1.23,1.2-1,1.43.34,2.88.67,4.27,1.15a1.7,1.7,0,0,0,1.81-.27c1.19-.88,2.48-1.61,3.68-2.48,2.79-2,6.06-2.91,9.25-4a3.13,3.13,0,0,0,2.19-2.09c.58-1.61,1.3-3.17,2-4.74.08-.18.35-.42.48-.4a.83.83,0,0,1,.53.47,3.78,3.78,0,0,1,.19,1.21c0,2.91,0,5.82,0,8.73,0,1.16-.4,1.69-1.63,2-3.78,1.07-7.59,2.07-10.9,4.4a38.1,38.1,0,0,0-8,7.41,25.78,25.78,0,0,0-4.92,10.83,28.77,28.77,0,0,0,.6,15.41c1.39,4,3.09,7.9,6.31,11a37.78,37.78,0,0,0,7.37,6.1,21.09,21.09,0,0,0,8.27,3c.56.06,1.1.35,1.67.4,1,.1,1.24.62,1.22,1.5,0,1.75,0,3.5,0,5.24Z" transform="translate(-899.55 -290.38)"/><path class="cls-1" d="M946.85,368.71c0-1.66.09-3.33,0-5a1.69,1.69,0,0,1,1.61-2c.16,0,.31-.16.47-.16,2.29,0,4.2-1.21,6.28-1.94a18.72,18.72,0,0,0,5.64-3.45,32.53,32.53,0,0,0,7-7.33c2.14-3.37,4-7,4.41-10.93.9-7.89,0-15.6-4.91-22.23a32.78,32.78,0,0,0-8.48-8.07c-3.4-2.21-7.11-3.27-10.88-4.34-.66-.19-1.06-.38-1.06-1.09,0-3.75,0-7.49,0-11.23,0-.19.21-.37.32-.55a1.64,1.64,0,0,1,.29.36c.86,1.86,1.75,3.71,2.52,5.6a2.74,2.74,0,0,0,1.88,1.76,45.41,45.41,0,0,1,6,2.19,41.37,41.37,0,0,1,6.12,3.62,5,5,0,0,0,4.77,1,28.08,28.08,0,0,1,3.81-.67c-.21,1.26-.39,2.53-.62,3.78a6.72,6.72,0,0,1-.51,1.65,1.55,1.55,0,0,0,.11,1.61c.75,1.18,1.6,2.3,2.31,3.5.54.91.94,1.91,1.39,2.87a29.53,29.53,0,0,1,2.78,9.17,2.82,2.82,0,0,0,2.26,2.81,28.5,28.5,0,0,1,3.83,1.75c1,.4,2,.62,3,.93a35.15,35.15,0,0,1-3.07,1.8c-1.11.52-2.32.85-3.47,1.28a3.87,3.87,0,0,0-2.64,3.3,32.06,32.06,0,0,1-6.87,15.83c-1,1.24,0,2.64.12,4,0,.21.42.38.44.58a4.64,4.64,0,0,1-.06,2.3c-.19.34-1.34.21-2,.16-.39,0-.73-.38-1.13-.5-1.45-.47-2.65-.81-4.2.42a36.5,36.5,0,0,1-9.12,4.87,20.48,20.48,0,0,1-3.32.86,2.38,2.38,0,0,0-1.77,1.56c-.81,1.88-1.66,3.74-2.51,5.6a3.73,3.73,0,0,1-.41.57,2,2,0,0,1-.26-.66c0-1.83,0-3.67,0-5.5Z" transform="translate(-899.55 -290.38)"/><path class="cls-1" d="M943.36,322.77c0-2.32,0-4.64,0-7,0-1.28.4-1.5,1.5-.8,1.52,1,3,2,4.42,3.1.46.34.88.77.54,1.48-1.43,3-1.6,6.32-2.71,9.4a2.94,2.94,0,0,1-2.85,2.13,1.17,1.17,0,0,1-.83-.66,4.82,4.82,0,0,1-.09-1.48c0-2.07,0-4.14,0-6.21Z" transform="translate(-899.55 -290.38)"/><path class="cls-1" d="M924.89,342.91c0-.59,0-1.17,0-1.75a2.09,2.09,0,0,1,1.5-2.08c3.09-1.12,6.2-2.15,9.31-3.2.37-.12.88-.3,1.14-.15a12.84,12.84,0,0,1,1.93,1.53c.06.06-.07.46-.21.6a13.09,13.09,0,0,1-1.49,1.3q-3.09,2.25-6.22,4.44-2.33,1.62-4.71,3.15c-.14.09-.65-.08-.68-.21-.29-1.19-.51-2.39-.76-3.59Z" transform="translate(-899.55 -290.38)"/><path class="cls-1" d="M954.26,350.45a7.81,7.81,0,0,1-1.93-1.14c-1.7-1.81-3.3-3.7-4.93-5.57-.49-.56-1-1.13-1.4-1.73-.23-.31-.56-.73-.51-1.05a17.66,17.66,0,0,1,.73-2.31,11.8,11.8,0,0,1,2,.85c3.54,2.27,7,4.59,10.55,6.89a3.77,3.77,0,0,1,1,.72c.14.19.12.78,0,.84C958,348.8,956.16,349.6,954.26,350.45Z" transform="translate(-899.55 -290.38)"/><path class="cls-1" d="M932.71,350.72c-1.94-.59-3.77-1.08-5.54-1.72-.9-.32-.95-1.15-.18-1.74,1-.79,2.13-1.52,3.21-2.28,2.61-1.84,5.22-3.69,7.85-5.51a9.53,9.53,0,0,1,1.45-.65c.33.81.71,1.6,1,2.43.06.23-.22.62-.42.87q-3.22,4-6.48,7.95A4.58,4.58,0,0,1,932.71,350.72Z" transform="translate(-899.55 -290.38)"/><path class="cls-1" d="M961.17,343.1l-.45,3.39c-1.34.11-1.92-1.12-2.86-1.69-2.81-1.71-5.47-3.64-8.19-5.49-.34-.23-.8-.36-1-.67-.37-.52-1.51-.74-.86-1.73.79-1.21,1.61-1.54,2.67-1.17,3.17,1.09,6.33,2.23,9.53,3.23.84.26,1,.64,1,1.37v2.74Z" transform="translate(-899.55 -290.38)"/><path class="cls-1" d="M942.56,322.9c0,2.25,0,4.5,0,6.74,0,1.59,0,1.47-1.53,1.17a2.28,2.28,0,0,1-1.91-1.71q-1.4-4.73-2.65-9.48a1.53,1.53,0,0,1,.48-1.3c1.56-1.19,3.17-2.34,4.83-3.39.74-.47.77.27.78.74,0,2.41,0,4.82,0,7.23Z" transform="translate(-899.55 -290.38)"/><path class="cls-1" d="M942.55,334c0,1.24-1.42,2.75-2.44,2.69a2.68,2.68,0,0,1-2.24-3.05,2.5,2.5,0,0,1,2.37-2.07A2.81,2.81,0,0,1,942.55,334Z" transform="translate(-899.55 -290.38)"/><path class="cls-1" d="M948.05,334.19a2.27,2.27,0,0,1-2.19,2.42,3,3,0,0,1-2.49-2.64c.07-1,1.52-2.47,2.42-2.43A2.37,2.37,0,0,1,948.05,334.19Z" transform="translate(-899.55 -290.38)"/><path class="cls-1" d="M943.14,340.69c-1.68,0-2.31-.64-2.28-2.21a2.24,2.24,0,0,1,2.27-2.39,2.58,2.58,0,0,1,2.41,2.62A2.18,2.18,0,0,1,943.14,340.69Z" transform="translate(-899.55 -290.38)"/></svg>