<svg id="Layer_1" data-name="Layer 1" xmlns="http://www.w3.org/2000/svg" viewBox="0 0 87.69 84.67"><defs><style>.cls-1{fill:#fff;}</style></defs><path class="cls-1" d="M1149.46,993.17c0,1.58,0,3.16,0,4.74,0,1.33-.25,1.29-1.5,1.81-1.88.77-4,.8-5.77,1.83s-3.8,1.55-5.4,2.73c-2.25,1.65-4.17,3.76-6.3,5.57-1.92,1.63-2.6,4.12-4.31,5.88-1.07,3.88-3.14,7.54-2.69,11.78a11.23,11.23,0,0,1,0,1.74,26.44,26.44,0,0,0,2.5,11.84,29.74,29.74,0,0,0,8.46,11,29.35,29.35,0,0,0,10.36,5.6,19.54,19.54,0,0,0,3.53.78c.84.11,1.15.36,1.14,1.22,0,3.57,0,7.15,0,10.73a1.74,1.74,0,0,1-.06.73,1,1,0,0,1-.54.36.45.45,0,0,1-.38-.22c-.39-1.15-.69-2.32-1.13-3.45a12.48,12.48,0,0,0-1.67-3.44,5.06,5.06,0,0,0-2.6-1.2,30.68,30.68,0,0,1-11.68-5.87c-1-.82-1.9-1.3-3.25-.73s-2.67.68-4,1.17c-.78.31-.9,0-.79-.56a19.63,19.63,0,0,1,1.07-4.22,2.76,2.76,0,0,0-.44-3.11,39,39,0,0,1-5.18-10.94,47.51,47.51,0,0,1-.95-4.75,1.28,1.28,0,0,0-.69-1.12,45.33,45.33,0,0,0-4.79-2.37c-.29-.13-.68-.09-.93-.26-.66-.45-1.28-1-1.92-1.48l2.07-1c1.7-.79,3.37-1.64,5.1-2.35a1.67,1.67,0,0,0,1.17-1.65,27.18,27.18,0,0,1,2.33-8.63,44,44,0,0,1,4.77-8.19,2.53,2.53,0,0,0,.19-1.83c-.26-1.09-.79-2.12-1.07-3.22a8.17,8.17,0,0,1,0-1.85,14.59,14.59,0,0,1,1.88.14,8.41,8.41,0,0,1,3,.79c1,.68,1.58,0,2.22-.29a19.77,19.77,0,0,0,2.39-1.72,23,23,0,0,1,8.79-4c3-.62,4.19-2.39,4.94-5a24.18,24.18,0,0,1,1-2.72.67.67,0,0,1,.57-.3.65.65,0,0,1,.41.47c0,1.83,0,3.66,0,5.49Z" transform="translate(-1109.58 -986.79)"/><path class="cls-1" d="M1156.85,1065.09c0-1.83,0-3.66,0-5.49,0-.64.09-1.13.92-1.15.29,0,.59-.36.89-.36,2.6,0,4.75-1.44,7.1-2.23,2-.67,3.45-2.11,5.14-3.2a24,24,0,0,0,8.06-9.13,49.77,49.77,0,0,0,3.29-8.59,12.88,12.88,0,0,0,.07-3.73,31.82,31.82,0,0,1,0-3.24c.37-3.63-.86-6.9-2.13-10.19a28.15,28.15,0,0,0-5.29-8.61c-2.18-2.48-4.88-4.17-7.5-6a19.17,19.17,0,0,0-5.81-2.36c-1.37-.41-2.61-1.49-4.21-1.17-.12,0-.51-.59-.52-.91-.06-1.5,0-3,0-4.49,0-2.25,0-4.49,0-6.74a2.92,2.92,0,0,1,.22-.67c.13.24.27.48.38.72.89,2,1.73,4,2.68,6a2.16,2.16,0,0,0,1.29,1.07,33.36,33.36,0,0,1,7.29,2.63,16.42,16.42,0,0,1,5.21,3.14,8.89,8.89,0,0,0,2.29,1.38,1.27,1.27,0,0,0,.82,0c1.49-.35,3-.76,4.47-1.1.86-.21,1.13.09.93,1-.32,1.5-.63,3-1.06,4.48-.16.56-.34,1.08.06,1.51.89.95,1,2.4,2.24,3.11.17.1.23.42.33.64,1.72,3.76,3.63,7.43,3.94,11.68a3.13,3.13,0,0,0,2.36,3c1.7.53,3.29,1.41,4.93,2.09a10.78,10.78,0,0,0,1.41.36,5.65,5.65,0,0,1,.62.28c-.13.1-.23.24-.37.29-2,.81-3.79,2.18-6,2.61a3.7,3.7,0,0,0-3,3.49,26.93,26.93,0,0,1-2.34,8.13,33.41,33.41,0,0,1-4.4,7.25c-1,1.23-.19,2.45-.1,3.66,0,.45.56.86.62,1.32a16.75,16.75,0,0,1,0,2.35,8.31,8.31,0,0,1-2.36-.16c-3.43-1.31-3.42-1.35-6.39.58-.2.13-.35.36-.55.5a38.9,38.9,0,0,1-7.31,3.84,12.07,12.07,0,0,1-3.26.86A2.27,2.27,0,0,0,1160,1065c-.88,2-1.7,4-2.55,6a2.48,2.48,0,0,1-.26.4c-.1-.2-.29-.39-.29-.58,0-1.92,0-3.83,0-5.74Z" transform="translate(-1109.58 -986.79)"/><path class="cls-1" d="M1161,1021.18c0,.08,0,.66-.13,1.23-.12.84.1,1.13.93,1.1.13,0,.38-.28.36-.33-.51-1.07-.12-2,.15-3.08a14.39,14.39,0,0,0,.07-3.48c0-.34-.06-.68-.09-1a3.34,3.34,0,0,1,1.17.23,14.51,14.51,0,0,1,4.21,3.6c1,1.48,2.17,2.86,2.57,4.66a5.76,5.76,0,0,1,.21,1.69c0,.3-.36.63-.64.83a7.87,7.87,0,0,1-1.11.47c-.81.41-.93.82-.43,1.5a5.21,5.21,0,0,0,.7.71c.67.58.65,1.18-.07,1.6s-1.5.7-1.49,1.76c0,.16-.46.43-.72.46-.66.06-1.33,0-2,0-1.39.06-2.11.65-2.15,2.09,0,1.08-.35,1.48-1.43,1.43-.66,0-1,.46-1.11,1.11a7.28,7.28,0,0,1-.63,2.08,16.2,16.2,0,0,1-1.63,2.1c-.75-.75-.15-1.69-.33-2.52,0-.24,0-.52,0-.74s-.26-.49-.41-.5-.76,0-.87.23c-.28.48-.37,1.07-.61,1.58a5.8,5.8,0,0,1-.71.94,4.68,4.68,0,0,1-.35-1c-.06-.49,0-1,0-1.49-.08-1-.44-1.28-1.41-1.33-.54,0-1,.05-1,.77a2.67,2.67,0,0,1,0,.49c-.1.72-.21,1.43-.32,2.14-1.07-.08-1-1.1-1.4-1.73a1.3,1.3,0,0,0-.53-.51,1.69,1.69,0,0,0-.94-.08c-.14,0-.31.42-.28.61.18,1,.42,2.06.63,3.09a6,6,0,0,1,0,.61c-.26-.13-.63-.18-.75-.38a29.47,29.47,0,0,1-2.45-4.51c-.3-.81-.53-1.09-1.3-1-.94.11-1.38-.24-1.31-1.25,0-.55,0-1.45-.26-1.6-.87-.46-1.76-1.12-2.87-.76-.58.18-1.11.28-1.37-.53a3.37,3.37,0,0,0-1.56-1.77c-.51-.31-.51-.81-.06-1.25a6,6,0,0,0,.7-.72c.8-1,.54-1.94-.8-2s-1.35-.67-1.24-1.58a6.62,6.62,0,0,1,.34-1.66,16.16,16.16,0,0,1,4.77-6.63,2.45,2.45,0,0,1,.64-.34c.66-.29,1.53-1,1.95-.77.93.46-.06,1.26-.06,1.92,0,1.1-.49,2.32.51,3.3.15.15.1.54.09.81a5.62,5.62,0,0,0-.11,1.21.85.85,0,0,0,.61.54c.23,0,.68-.29.68-.45a22.11,22.11,0,0,0-.2-2.43,6.26,6.26,0,0,1-.18-1.18.72.72,0,0,1,1.24-.4c1.18,1,2.42,2,3.53,3.06.88.85,2.43.54,3,1.85,0,0,.33.06.45,0,1.33-.79,2.69-1.54,4-2.41.94-.64,1.78-1.44,2.68-2.15.3-.23.64-.42,1-.63.06.4.13.8.18,1.2C1161,1020.19,1161,1020.44,1161,1021.18Zm-12.94,12.9c.78-.67,1.58-1.32,2.3-2,.12-.12,0-.68-.19-.89a20.36,20.36,0,0,0-2.28-2.27c-.79-.64-1.62-.23-2.13.69-.69,1.23.11,2.24.47,3.23C1146.38,1033.34,1147.31,1033.61,1148,1034.08Zm10.45-.14s.23,0,.32-.11a18.77,18.77,0,0,0,1.8-2.3,2.37,2.37,0,0,0-.89-2.76c-.88-.48-1.36.21-1.88.73a9.34,9.34,0,0,0-1.54,1.61c-.26.43-.42,1.37-.19,1.57A11.33,11.33,0,0,0,1158.46,1033.94Zm-3.14-3.36a1.37,1.37,0,0,0-1.7-1.28,1.66,1.66,0,0,1-1.33.07.91.91,0,0,0-1.28,1.07,13.86,13.86,0,0,0,1.42,2.76c.15.23,1,.38,1.07.25C1154.16,1032.56,1154.7,1031.58,1155.32,1030.58Z" transform="translate(-1109.58 -986.79)"/></svg>