<svg id="Layer_1" data-name="Layer 1" xmlns="http://www.w3.org/2000/svg" viewBox="0 0 87.73 85.17"><defs><style>.cls-1{fill:#fff;}</style></defs><path class="cls-1" d="M1071.55,869.61c0,1.83,0,3.66,0,5.49a2.14,2.14,0,0,1-.24.65c-.2-.14-.51-.24-.59-.43-.45-1-.84-2.1-1.25-3.16,0-.07,0-.17,0-.25-.86-2.35-2.06-4.13-4.84-4.8a22.33,22.33,0,0,1-7.06-3.09,35.62,35.62,0,0,1-4.83-3.18,1.83,1.83,0,0,0-1.85-.36c-1.49.37-3,.79-4.42,1.26-.69.23-1,0-.92-.63a11.62,11.62,0,0,1,.75-2.79,4.5,4.5,0,0,0-.61-5.16c-2.31-2.95-3.6-6.5-4.74-10a21.65,21.65,0,0,1-.88-5,1.44,1.44,0,0,0-1-1.43,38.86,38.86,0,0,1-5.08-2.22c-.76-.45-1.53-.86-2.3-1.29a23.44,23.44,0,0,1,2.47-1.42c1.82-.62,3.77-1.07,5.28-2.38a1.59,1.59,0,0,0,.59-.9c.5-6.29,3.15-11.69,6.88-16.63a2.21,2.21,0,0,0,.48-2.25c-.49-1.45-1-2.91-1.32-4.4-.25-1,.13-1.28,1.14-1,1.39.42,2.82.73,4.18,1.23a2.22,2.22,0,0,0,2.2-.31,22.14,22.14,0,0,0,2.82-1.91c2-1.92,4.84-2.22,7.06-3.73a5.25,5.25,0,0,1,2.59-.55,2.67,2.67,0,0,0,2.38-1.78c.59-1.24,1-2.54,1.56-3.82a10.64,10.64,0,0,1,.53-1.36,5.92,5.92,0,0,1,.77-.9,4,4,0,0,1,.3,1.08c0,3.32,0,6.65,0,10,0,1.46-.12,1.56-1.66,1.88a36.61,36.61,0,0,0-9.45,3.37,21,21,0,0,0-4,3,67.24,67.24,0,0,0-4.86,4.84,16.66,16.66,0,0,0-1.42,2,26.79,26.79,0,0,0-2,3.31,24.43,24.43,0,0,0-1.15,3.7c-.6,2.18-1.65,4.25-1.41,6.62a19.28,19.28,0,0,1,0,2.74,24.25,24.25,0,0,0,2.25,10.9,30.17,30.17,0,0,0,6.93,10.26,30.59,30.59,0,0,0,8,5.53,22.57,22.57,0,0,0,6.19,2c.16,0,.33,0,.49,0,2,.4,2.07.54,2.08,2.55,0,1.58,0,3.16,0,4.74Z" transform="translate(-1031.63 -790.58)"/><path class="cls-1" d="M1078.94,869.39c0-1.66,0-3.32,0-5,0-1.32.37-2,1.53-2,1.87,0,3.41-1,5.13-1.45a22,22,0,0,0,8.18-4.72,25.46,25.46,0,0,0,6-6.52c1-1.61,1.64-3.37,2.61-5s1-3.72,1.78-5.48a4.28,4.28,0,0,0,.2-1.69c0-2-.1-4,0-6,.23-3.53-.83-6.72-2.09-10a30.34,30.34,0,0,0-8.6-11.5,19.36,19.36,0,0,0-6.13-3.94c-2.48-.87-4.93-2.14-7.67-2.17-.75,0-1-.32-1-1,0-2.25,0-4.49,0-6.73,0-1.75,0-3.5,0-5.24,0-.14.15-.28.23-.42.1.1.29.19.3.3.35,2.3,1.85,4.15,2.52,6.32a1.64,1.64,0,0,0,1.29,1.24,43.28,43.28,0,0,1,8.57,3.45,26.06,26.06,0,0,1,4.73,3c1.41,1.31,2.78,1.16,4.32.78.94-.24,1.85-.58,2.79-.85s1.08-.15.87,1a13.2,13.2,0,0,1-.66,3.33c-.84,1.71-.23,2.93.74,4.28a28.13,28.13,0,0,1,4.47,9.37,31,31,0,0,1,.85,4,4.08,4.08,0,0,0,2.84,3.77c2.06.72,4.09,1.55,6.12,2.34a2.8,2.8,0,0,1,.41.25c-.11.1-.2.25-.34.31-2,.85-4,1.68-6,2.54-1.3.56-2.34,1.13-2.57,2.91a34.52,34.52,0,0,1-1.8,6.26,22.72,22.72,0,0,1-3.58,7.12c-.72.91-1.22,2.06-2,3a1.54,1.54,0,0,0-.11,1.52,25.34,25.34,0,0,1,1,4.48c.15,1-.08,1.12-1.07.85-1.16-.31-2.34-.61-3.48-1a3.06,3.06,0,0,0-3.14.64,29.38,29.38,0,0,1-8,4.53c-1.69.57-3.39,1.1-5,1.74a2,2,0,0,0-1.26,1.54,30.77,30.77,0,0,1-2.19,4.84c-.2.43-.34.88-.52,1.32a9.87,9.87,0,0,1-.28-1.61C1078.92,872.55,1078.94,871,1078.94,869.39Z" transform="translate(-1031.63 -790.58)"/><path class="cls-1" d="M1081.45,846.83c0-.58,0-1.17,0-1.75.07-1.07-.07-1.25-1-1.14-.08,0-.19,0-.24,0-1.11.93-2.57.82-3.81,1.35a2.2,2.2,0,0,1-2.61-.11c-.88-.64-2.36-.34-3.44-1.05-.36-.24-.95-.13-1.43-.17,0,.42.13.84.14,1.26,0,1,0,2,0,3,0,.19-.2.36-.3.54-.14-.09-.35-.15-.4-.27-.43-1-1.3-2.21-.76-3.21s0-1.51-.56-2-1.15-.9-1.73-1.35c-1.52-1.16-2.58-2.54-2.32-4.61a16.92,16.92,0,0,1,.4-3.89c.48-1.38-.24-2.87-.83-4.21a8.36,8.36,0,0,1-.23-5.5,16.15,16.15,0,0,1,2.23-4.81,7.69,7.69,0,0,1,2.65-2.48,16.13,16.13,0,0,1,9.55-2.49,8,8,0,0,1,2.12.47,25,25,0,0,1,4.84,2.13,8.64,8.64,0,0,1,3.85,6,5.15,5.15,0,0,0,.26.93,7.07,7.07,0,0,1-.35,5.78,9.65,9.65,0,0,0-.69,1.81,1.93,1.93,0,0,0,.06,1.35c1,1.43.75,3,.69,4.56a10.21,10.21,0,0,1-.55,3.1,7.92,7.92,0,0,1-1.42,1.9c0,.05-.17,0-.23.07a9.58,9.58,0,0,0-2.46,2c-.43.68-.19,1.77-.32,2.67a15.33,15.33,0,0,1-.48,2.11c0,.19-.25.33-.38.49a2.57,2.57,0,0,1-.22-.68c0-.58,0-1.16,0-1.74Zm-10-9.92c0,.32-.11.63-.14.94,0,.79-.39,1.72-.08,2.33a21.52,21.52,0,0,0,2.53,3.53s1-.39,1-.67a14.54,14.54,0,0,0,.1-2.95c-.13-2.61-.61-3.06-3.17-3.17l-.25,0c.17-.27.27-.61.5-.78.45-.32,1-.44,1-1.22s-.53-1-1-1.49c-1.85-1.72-4.06-1.46-6.25-1.41-.19,0-.5.18-.54.33a.85.85,0,0,0,.24.63c1,1.06,2.13,2.06,3.12,3.17A2.75,2.75,0,0,0,1071.49,836.91Zm11.62-4.93c-1.83-.35-3.28.61-4.61,1.78a1.34,1.34,0,0,0,0,2.07,7,7,0,0,0,1.19.85,3.07,3.07,0,0,0,3.16-.5,29.84,29.84,0,0,0,2-3.28c.1-.17-.21-.76-.47-.88A3.42,3.42,0,0,0,1083.11,832Zm-3.68,7.31a9.29,9.29,0,0,0,0-1.3c-.13-.78-.66-1-1.42-1s-1.62-.08-1.87.8c-.33,1.16.11,2.4-.46,3.61-.25.5.21,1.38.44,2,.05.16.63.33.7.26.64-.72,1.17-1.57,1.86-2.23A2.25,2.25,0,0,0,1079.43,839.29Z" transform="translate(-1031.63 -790.58)"/><path class="cls-1" d="M1073.28,845.74c.24.18.67.33.7.53.21,1.69-.17,3.44.54,5.09a.45.45,0,0,1-.21.4c-.1,0-.3-.09-.41-.19-1.28-1.1-2-4.08-1.31-5.43C1072.68,846,1073,845.91,1073.28,845.74Z" transform="translate(-1031.63 -790.58)"/><path class="cls-1" d="M1079.58,845.18c.38.22.86.35.87.52.08.9.84,1.68.16,2.74-.48.76-.4,1.88-1.44,2.33-.08-.8-.19-1.6-.22-2.4a20.2,20.2,0,0,1,0-2.46C1079,845.68,1079.34,845.47,1079.58,845.18Z" transform="translate(-1031.63 -790.58)"/><path class="cls-1" d="M1071.11,845.36c.08.12.42.48.36.57-1,1.43,0,2.81.07,4.21a2.05,2.05,0,0,1-.24.65c-.2-.13-.49-.23-.58-.42a21.94,21.94,0,0,1-1.21-2.88A1.78,1.78,0,0,1,1071.11,845.36Z" transform="translate(-1031.63 -790.58)"/><path class="cls-1" d="M1078.05,847.94a4.32,4.32,0,0,1-1,3.27l-.38.58c-.08-.22-.25-.45-.23-.66.07-1,.21-1.93.3-2.9,0-.38.17-.86,0-1.15-.49-.85.14-1,.67-1.14.13,0,.47.5.57.83A4.24,4.24,0,0,1,1078.05,847.94Z" transform="translate(-1031.63 -790.58)"/></svg>