<svg id="Layer_1" data-name="Layer 1" xmlns="http://www.w3.org/2000/svg" viewBox="0 0 87.63 84.75"><defs><style>.cls-1{fill:#fff;}</style></defs><path class="cls-1" d="M-240.62,546.37c0-1.66.11-3.34,0-5-.1-1.31.56-1.76,1.61-2s2.25-.4,3.36-.66c5.68-1.36,10-4.76,13.84-9a30.08,30.08,0,0,0,6.4-12,25.52,25.52,0,0,0,.81-5.32,27.06,27.06,0,0,0-2.45-13.94c-3-6.36-7.09-11.5-13.68-14.51a30,30,0,0,0-8.53-2.88,1.32,1.32,0,0,1-1.32-1.47q0-5.38,0-10.75a2.75,2.75,0,0,1,.17-.67c.23.17.56.3.67.54.85,1.84,1.77,3.67,2.44,5.58.33.94.87,1.16,1.69,1.51,2.39,1,5.09,1.13,7.3,2.79,2,1.5,4.41,2.46,6.49,3.87a2.34,2.34,0,0,0,2.69.31,10.91,10.91,0,0,1,2.38-.59c2.71-.65,3-.49,1.85,2.07-1.41,3.05-.54,5.26,1.18,7.76a25.33,25.33,0,0,1,4.46,12.26,3.11,3.11,0,0,0,2.11,3c2.19.88,4.36,1.84,6.54,2.76l.72.31-.63.27c-2.25.93-4.47,1.94-6.76,2.76-1.47.53-1.7,1.81-1.88,2.93a31.18,31.18,0,0,1-2.61,8.64,34.06,34.06,0,0,1-3.58,6.42,4.41,4.41,0,0,0-.8,4.05c.13.64.31,1.26.47,1.9.52,2,.52,2-1.48,1.78a3.41,3.41,0,0,1-1.16-.36c-2.21-1.18-4.19-.5-5.9.92a21.86,21.86,0,0,1-8.85,4.39c-3.11.75-4.61,2.71-5.61,5.43-.44,1.19-1,2.33-1.52,3.49-.14-1.27-.3-2.52-.38-3.79C-240.66,548.21-240.62,547.29-240.62,546.37Z" transform="translate(287.53 -468.16)"/><path class="cls-1" d="M-247.77,546.74c0,1.84,0,3.67,0,5.5a1.86,1.86,0,0,1-.24.64c-.19-.19-.47-.35-.57-.58a42.88,42.88,0,0,1-2.32-5.42,3.17,3.17,0,0,0-2.52-2.34c-1.18-.33-2.35-.69-3.5-1.1a31.84,31.84,0,0,1-9.37-5.21,3.22,3.22,0,0,0-2.23-.48,17.4,17.4,0,0,0-4,1c-.88.34-1.1.08-1-.65a7.68,7.68,0,0,1,.52-2.38,5.76,5.76,0,0,0-.69-5.86,30.64,30.64,0,0,1-5.37-14.27c-.17-1.64-1.48-2-2.69-2.53-1.7-.75-3.34-1.61-5-2.37-1.12-.51-.73-.83.08-1.16,1.88-.78,3.77-1.58,5.66-2.34a3.13,3.13,0,0,0,2-2.78,33,33,0,0,1,6.79-15.79,1.91,1.91,0,0,0,.35-2.23,21.57,21.57,0,0,1-1.13-4c-.11-.55-.26-1.43,1-.92,1.05.43,2.36.28,3.33.79,1.58.84,2.73.13,3.83-.71a27.17,27.17,0,0,1,10.52-5.16c3-.65,3.77-2.73,4.76-4.92.4-.88.67-1.84,1-2.74.07-.17.33-.27.51-.4.11.2.3.39.3.58q0,5.38,0,10.75c0,.92-.52,1.32-1.42,1.37a22,22,0,0,0-9.23,3.13A29.22,29.22,0,0,0-271,497.31a29.64,29.64,0,0,0-2.63,16.87A30.05,30.05,0,0,0-267,529.26a31.52,31.52,0,0,0,12.82,9.14,20.49,20.49,0,0,0,4.75,1.16,1.77,1.77,0,0,1,1.73,2.18c-.08,1.67,0,3.34,0,5Z" transform="translate(287.53 -468.16)"/><path class="cls-1" d="M-242.18,529.19c-1.13.82-2.33,1.32-3.63.47-.5-.33-1.2-.87-1.21-1.31a2.62,2.62,0,0,1,.91-1.86c1.94-1.44,6.78-.92,8.65.67,1,.84,1.08,2.54-.56,3.84a7.76,7.76,0,0,1-5.15,2.07c-2.38-.1-4.79.28-7-1.22-1.66-1.14-3.17-3.39-2.37-4.63a12.83,12.83,0,0,1,3.45-3,8.39,8.39,0,0,1,2.24-1c.95-.32,1.44-1,1.12-1.89a3.46,3.46,0,0,0-1.55-1.72,8.57,8.57,0,0,0-2.61-.58,5.66,5.66,0,0,1-4.75-6c0-.76.15-1.14.93-.35a3.52,3.52,0,0,0,1.94.89,5.13,5.13,0,0,1,4.82,4.08c.1.39,1,1,1.15.87a4.86,4.86,0,0,0,1.12-1.39.62.62,0,0,0,0-.48,25.81,25.81,0,0,0-2.07-4.14,3.54,3.54,0,0,0-2.34-1,6.27,6.27,0,0,1-6-6.87,4.79,4.79,0,0,1,.38-1.1c.28.22.59.42.86.66.64.59,1.2,1.61,1.91,1.73,2.4.41,3.63,1.92,4.64,3.9.25.49.88.79,1.34,1.18a7,7,0,0,0,.81-1.74,4.29,4.29,0,0,0-2.42-4c-1.58-.77-3.44-1-4.43-2.84-.9-1.64-1.56-3.22-.7-5.08.39-.84.51-.8,1.06,0a27.39,27.39,0,0,0,2.37,2.32,22.86,22.86,0,0,1,2,2.42c.16.23-.05.73.11,1a13.42,13.42,0,0,0,1.28,1.45c.42-.49,1.19-1,1.21-1.45,0-1.2.15-2.87-.54-3.53-2.92-2.82-1.05-5.51-.18-8.26a9.21,9.21,0,0,1,.86-1.72,7.31,7.31,0,0,1,.69-.89,4.8,4.8,0,0,1,.56.8c.5,1.12,1,2.24,1.43,3.38.85,2.23,1.39,4.38-.7,6.36-1.31,1.25-.66,3-.49,4.5a1,1,0,0,0,1.72.37,3.24,3.24,0,0,0,.72-1.49,4.33,4.33,0,0,1,2.44-3.19,5.41,5.41,0,0,0,2-2c.55-.95.68-.23.86.09a3.33,3.33,0,0,1,.18,3.27,6.87,6.87,0,0,1-3.92,3.81c-2.75,1.15-3.9,2.34-3.67,4.88.05.55.57,1.06.87,1.6.45-.42,1.11-.75,1.3-1.26.76-2.11,2-3.47,4.36-3.77.75-.09,1.38-1.11,2.07-1.68.26-.22.55-.41.83-.61a4.1,4.1,0,0,1,.5,1.09c.41,3-2.25,6.27-5.45,6.67a5.71,5.71,0,0,0-5,4.81,3.14,3.14,0,0,0,.21,1.69,1,1,0,0,0,1.86,0,7.56,7.56,0,0,0,1-2c.36-1.59,1.6-1.93,2.87-2.36,1.06-.36,2.09-.82,3.14-1.23l.8-.32a6.26,6.26,0,0,1,.1.74c-.05,3.78-2.16,6.12-5.8,6.13a2.92,2.92,0,0,0-3.07,2c-.67,2.66-2.67,3.66-4.82,4.47-1.59.59-3.12,1.43-3.13,3.07s1.75,2.35,3.26,2.78c2.7.77,5.17-.19,7.59-1.2.83-.34.82-1.58.12-2.27-1-1-4-1.14-5.15-.31-.81.56-.36,1.1.12,1.33a6.73,6.73,0,0,0,1.93.33Z" transform="translate(287.53 -468.16)"/><path class="cls-1" d="M-242.21,529.24l.16-.08-.13,0Z" transform="translate(287.53 -468.16)"/></svg>