<svg id="Layer_1" data-name="Layer 1" xmlns="http://www.w3.org/2000/svg" viewBox="0 0 87.72 85.19"><defs><style>.cls-1{fill:#fff;}</style></defs><path class="cls-1" d="M1312.17,1065.8c0-1.91,0-3.82,0-5.74,0-.69.19-1,.95-1.1a26.5,26.5,0,0,0,15.49-7.67,42.52,42.52,0,0,0,4.44-5,29.36,29.36,0,0,0,4.57-10.94,7.5,7.5,0,0,0,0-1.5c0-2.33-.09-4.66,0-7,.17-3.29-.92-6.23-2.17-9.18a27.25,27.25,0,0,0-5.68-8.5,30.3,30.3,0,0,0-7.74-5.7,31,31,0,0,0-6.78-2.53c-.55-.14-1.11-.22-1.67-.31-1.11-.18-1.43-.45-1.44-1.6,0-3.74,0-7.48,0-11.23,0-.2.19-.41.28-.61.1.21.21.42.3.64,1,2.13,1.92,4.26,2.85,6.4a1.47,1.47,0,0,0,1,.86c2.68.92,5.51,1.43,8,2.93a45.62,45.62,0,0,1,5.11,3.32c1.54,1.24,3,1.56,4.72.59.22-.12.49-.41.63-.35,1.08.43,2-1.16,3-.29-.21.93-.39,1.87-.63,2.79s-.54,1.54-.66,2.32a2.71,2.71,0,0,0,.51,2.54,25.24,25.24,0,0,1,3.89,6.7,29.79,29.79,0,0,1,1.47,4.36,24.11,24.11,0,0,1,1,4.24,2.59,2.59,0,0,0,1.82,2.36c1.42.59,2.82,1.25,4.24,1.86.36.16.77.23,1.14.4.58.28,1.15.6,1.72.9a14.16,14.16,0,0,1-1.72.81c-2.14.71-4,2.12-6.25,2.57a1.5,1.5,0,0,0-.85,1.06,30.8,30.8,0,0,1-2,7.73c-.91,2.08-1.86,4.16-2.9,6.18-.59,1.16-1.44,2.18-2.08,3.31a2.27,2.27,0,0,0-.23,2.28,26.53,26.53,0,0,1,1,4.25c.15.67-.2,1-.69.88a26.56,26.56,0,0,1-3.49-1,3.6,3.6,0,0,0-3.84.58,22.89,22.89,0,0,1-10.66,5.11,6.33,6.33,0,0,0-1.13.45c-1.2.46-2.28.82-2.52,2.48-.17,1.21-1.07,2.32-1.63,3.48-.28.58-.51,1.19-.77,1.79-.09.21-.2.42-.31.63-.09-.21-.27-.42-.27-.64,0-2,0-4,0-6Z" transform="translate(-1264.88 -987.24)"/><path class="cls-1" d="M1304.77,1066.27c0,1.91,0,3.82,0,5.74,0,.14-.15.27-.23.41-.1-.11-.26-.2-.31-.33-.52-1.28-1-2.56-1.53-3.84a15.89,15.89,0,0,0-1-2.22,4.05,4.05,0,0,0-2.85-2,25.51,25.51,0,0,1-10.46-5,16.54,16.54,0,0,0-2.69-1.67,2.22,2.22,0,0,0-1.43-.19c-1.56.38-3.1.87-4.65,1.31-.61.17-1-.15-.86-.75a32.33,32.33,0,0,1,1.1-3.46c.55-1.4.77-2.68-.5-3.82a2.37,2.37,0,0,1-.59-.78c-1.26-2.72-2.87-5.26-3.86-8.13a33,33,0,0,1-1.69-7.06,1.32,1.32,0,0,0-.63-.85c-1.76-.85-3.55-1.63-5.32-2.46-.65-.3-1.25-.74-1.92-1s-.42-.57-.09-.82a6.22,6.22,0,0,1,1.29-.71c2.07-.89,4.16-1.74,6.23-2.65a1,1,0,0,0,.45-.73c.08-3.75,1.52-7.13,3-10.44a37.28,37.28,0,0,1,3.83-6.22,2.76,2.76,0,0,0,.62-2.27c-.32-1.58-.81-3.12-1.21-4.69a4.27,4.27,0,0,1,0-.88,6.56,6.56,0,0,1,.89.11c1.4.36,2.79.81,4.21,1.09a4.08,4.08,0,0,0,1.87-.27,4.87,4.87,0,0,0,1.24-.76,39.17,39.17,0,0,1,8.55-4.54,30.33,30.33,0,0,1,4.17-1.26,1.53,1.53,0,0,0,1.34-1.19c.43-1.4,1-2.75,1.49-4.11,0-.16,0-.35.12-.47.37-.54.76-1.06,1.14-1.58a11.1,11.1,0,0,1,.32,1.78q0,4.62,0,9.24c0,1.49-.15,1.39-1.63,1.93s-3.4.21-5,1.19c-1.34.85-3,1.22-4.36,2a21.94,21.94,0,0,0-3.86,2.84,34.09,34.09,0,0,0-5,5c-2,2.74-4,5.58-4.58,9-.22,1.4-.91,2.57-1.17,4a29.51,29.51,0,0,0,1.17,14.48,34.83,34.83,0,0,0,3.59,7.42,18.59,18.59,0,0,0,3.19,3.62,44.84,44.84,0,0,0,4.6,3.91,20.39,20.39,0,0,0,9.9,4.25,6,6,0,0,1,1,.18c2.15.61,2.15.62,2.16,2.86,0,1.58,0,3.17,0,4.75Z" transform="translate(-1264.88 -987.24)"/><path class="cls-1" d="M1322.39,1026.19c-.35,2.28-.71,4.45-1,6.62a5.05,5.05,0,0,0,.1,2.16,3.33,3.33,0,0,1-.63,3.37,4.54,4.54,0,0,1-4.49,2.3c-.93-.09-1.49.57-1.59,1.71-.08.91.07,1.84,0,2.74-.07.5-.47,1.33-.78,1.36-1.87.17-3.45,1.65-5.46,1.16-1.65-.4-3.34-.65-5-1.13-.39-.11-.75-.86-.82-1.35-.13-1,0-2,0-3,0-1.18-.32-1.44-1.46-1.52-.33,0-.67,0-1,0-.8,0-1.58.14-2.33-.54a11.88,11.88,0,0,1-2.62-3.83.76.76,0,0,1,.19-.67c1.23-1.18.75-2.57.52-3.93a29.49,29.49,0,0,1-.73-4.8c0-2.94.32-5.86,2.23-8.32a.6.6,0,0,0,.13-.21c.84-3.91,4.27-4.6,7.27-5.69a12.52,12.52,0,0,1,4.11-.53,18.58,18.58,0,0,1,3.36.51c.08,0,.2.47.14.52-.57.46-1.09.89-.88,1.77,0,.12-.65.39-1,.62a6.26,6.26,0,0,0-.57.45,2.78,2.78,0,0,1,.72.13.71.71,0,0,1,.21.43c-.19.13-.44.21-.64.33-.41.26-.81.54-1.21.82.18.22.36.45.53.68,0,0-.1.12-.16.18l-1.17,1.11c.66.28,1.07-.27,1.59-.47.68-.27,1.39-.45,2-.75.22-.1.33-.44.5-.67-1.72-.83,0-1,.25-1.51s.23-.94.45-1.37.88-.87.8-1.09c-.28-.67.09-.85.47-.64a14.35,14.35,0,0,1,2.76,1.51,10.49,10.49,0,0,1,3.58,5.6c.28,1.08,1.13,1.93,1.16,3.14A19,19,0,0,0,1322.39,1026.19Zm-11.22,6.51a11.57,11.57,0,0,0,.27,2.15,2.19,2.19,0,0,0,.81,1.12,6.34,6.34,0,0,0,4.87-.18,2,2,0,0,0,1.06-1.81,10,10,0,0,0-.46-3.11c-.24-.62-.53-.62-1-.76-1.61-.47-2.74.78-4.12,1.1C1311.69,1031.41,1310.89,1032,1311.17,1032.7Zm-7.88,3.82c1.82,0,2.26-.42,2.91-2.54a3.08,3.08,0,0,0,.25-1.31,1.81,1.81,0,0,0-1.28-1.34c-.92-.33-1.78-.82-2.71-1.07a3,3,0,0,0-1.91,0c-1.36.68-1.68,3.39-.71,4.58A5.45,5.45,0,0,0,1303.29,1036.52Zm7.37,3.68c-.28-.87-.65-1.93-1-3-.19-.69-.72-.53-1.19-.55s-.63.27-.75.74c-.25.93-.71,1.81-.93,2.74a3.42,3.42,0,0,0,.29,1.35,5.45,5.45,0,0,0,1.14-.29c.38-.18.54-.77,1.19-.26S1310.66,1041.12,1310.66,1040.2Z" transform="translate(-1264.88 -987.24)"/></svg>