<svg id="Layer_1" data-name="Layer 1" xmlns="http://www.w3.org/2000/svg" viewBox="0 0 87.5 84.52"><defs><style>.cls-1{fill:#fff;}</style></defs><path class="cls-1" d="M-85.62,362.72a44.06,44.06,0,0,0,0-4.74c-.18-1.62.91-1.87,2-2.24,2.54-.87,5.25-1.41,7.6-2.63A29.34,29.34,0,0,0-61.48,337a28.59,28.59,0,0,0,1.81-13.31,29.18,29.18,0,0,0-5.59-14.46,28.77,28.77,0,0,0-10-8.87,51.78,51.78,0,0,0-9-3.19c-1-.29-1.36-.56-1.35-1.56,0-3.41,0-6.82,0-10.24a5.94,5.94,0,0,1,.13-.93,4.68,4.68,0,0,1,.75.87,35.43,35.43,0,0,1,1.91,4.51,3.25,3.25,0,0,0,2.65,2.47,34.6,34.6,0,0,1,12.08,5.86,4.67,4.67,0,0,0,4.4.88c.93-.27,1.88-.49,2.82-.71s1.27.37,1.07,1.13A37.54,37.54,0,0,1-61,303.11a2.43,2.43,0,0,0,.45,2.51c3.29,4.64,5.75,9.67,6.32,15.44a2.83,2.83,0,0,0,1.92,2.58l6.58,2.56c.15.05.31.08.47.12-.16.18-.29.43-.49.51-1.78.77-3.56,1.55-5.38,2.24a4.39,4.39,0,0,0-3.21,4,23.6,23.6,0,0,1-4.31,11.31,43.15,43.15,0,0,0-2.67,4.11,2.09,2.09,0,0,0-.28,1.37c.35,1.49.79,3,1.24,4.44.28.9-.07,1.36-.92,1.19a14.84,14.84,0,0,1-3.49-1.06c-1.25-.61-2-.31-3.11.48-3.71,2.73-7.63,5.13-12.22,6.09a3.52,3.52,0,0,0-2.62,2.31q-1,2.34-2.15,4.65a8.33,8.33,0,0,1-.51.8,6.79,6.79,0,0,1-.19-1.08C-85.63,366.05-85.62,364.38-85.62,362.72Z" transform="translate(132.8 -284.39)"/><path class="cls-1" d="M-117,303.53c-.36-1.54-.7-2.8-.93-4.08a10.48,10.48,0,0,1,0-1.94c.54.12,1.09.21,1.62.37s1.21.51,1.84.68a5,5,0,0,0,4.91-1.07,23.84,23.84,0,0,1,9.62-4.73c2.86-.68,4.42-2.1,4.93-5,.18-1.05,1.08-2,1.65-2.94a24.91,24.91,0,0,1,.56,3.6c0,2.44,0,4.89-.17,7.32A1.8,1.8,0,0,1-94,297c-2.06.75-4.2,1.31-6.28,2-6.36,2.22-11,6.54-14.52,12.15a29,29,0,0,0-4,12.71,29.12,29.12,0,0,0,6.36,21.55,26.83,26.83,0,0,0,11.93,8.71c1.83.66,3.76,1,5.64,1.56,1.24.35,2.4.79,2.15,2.48a25.84,25.84,0,0,0-.43,3.91c0,1.71.28,3.42.38,5.14a9.49,9.49,0,0,1-.19,1.66,5,5,0,0,1-1-1.19,22.43,22.43,0,0,1-1.3-3.63c-.55-2.2-2-3.1-4.11-3.55a22.06,22.06,0,0,1-7.94-3.45,32.13,32.13,0,0,0-4.9-3.23c-.87-.39-2.19.19-3.3.38-.31.05-.57.31-.88.4-.81.25-1.63.46-2.45.68a9.88,9.88,0,0,1,.51-2.53,6.31,6.31,0,0,0-.73-6.9,29.21,29.21,0,0,1-5-13.12,3.72,3.72,0,0,0-2.92-3.51,34.13,34.13,0,0,1-5.17-2.25,2.45,2.45,0,0,1-.54-.48c.2-.18.37-.44.61-.54a43.43,43.43,0,0,1,4.5-1.79,4.71,4.71,0,0,0,3.55-4.13A32.16,32.16,0,0,1-118,305.75,10.11,10.11,0,0,0-117,303.53Z" transform="translate(132.8 -284.39)"/><path class="cls-1" d="M-88.75,334.05c0,3.16,0,6.33,0,9.49,0,1.39.33,2.76.46,4.15.08.87,0,1.8-1.16,1.81s-1.28-.92-1.17-1.79c1.07-7.95.24-15.93.45-23.89a28.82,28.82,0,0,0-.53-5.14,1.24,1.24,0,0,0-1.88-.94c-1,.54-1.89,3.09-1.26,4.09,1.1,1.74.68,3.14-.48,4.62a24.48,24.48,0,0,0-1.51,2.82,2.33,2.33,0,0,0,.07,2.74,2.53,2.53,0,0,1,0,2.2c-1,1.76-2.28,3.38-3.48,5a2.83,2.83,0,0,1-.76.52c0-.32-.14-.68,0-.94.61-1.33,1.29-2.62,1.93-3.94.57-1.17.91-2.26-.56-3.15a1.59,1.59,0,0,1-.25-1.49,18.73,18.73,0,0,1,2-3.59c.94-1.26,1.12-2.44,0-3.52s-.79-2.05-.22-3.13c1-1.87,2-3.75,3-5.58.57-1,.39-1.37-.71-1.37H-95c-1.14,0-2.91.4-3.28-.14-.59-.87-.29-2.37-.32-3.61,0-1.5,0-3,0-4.49,0-.35.45-1,.68-1,5.3.07,10.6.26,15.9.29,1.32,0,1.87.18,1.78,1.66-.14,2.24,0,4.49,0,6.74,0,.64-.08,1.21-1,.7a2.73,2.73,0,0,0-1.22-.19c-2.85-.05-2.85,0-1.58,2.52.88,1.75,1.78,3.49,2.63,5.25a1.81,1.81,0,0,1-.72,2.4c-1.36,1-1.06,2-.18,3.11.63.82,1.11,1.77,1.67,2.66s1.37,1.92,0,3.14c-.49.42-.39,1.83-.16,2.68a36.57,36.57,0,0,0,1.64,4.08,4.11,4.11,0,0,1,.18.86,3.69,3.69,0,0,1-.75-.59c-1.18-1.64-2.39-3.26-3.43-5a2.22,2.22,0,0,1-.09-2c1-1.26.68-2.18-.17-3.31a29.73,29.73,0,0,1-1.58-3c-1.19-2.09-1.21-2.08.39-4.17.1-.12.37-.27.36-.29-.81-1.43-1.65-2.84-2.48-4.26-.63.67-1.5,1.08-1.53,2.26-.09,3.89-.31,7.77-.47,11.65C-88.79,332.05-88.75,333.05-88.75,334.05Z" transform="translate(132.8 -284.39)"/></svg>