<svg id="Layer_1" data-name="Layer 1" xmlns="http://www.w3.org/2000/svg" viewBox="0 0 88.04 85.41"><defs><style>.cls-1{fill:#fff;}</style></defs><path class="cls-1" d="M1087.91,147.2a35.88,35.88,0,0,0,3.74,0,3.74,3.74,0,0,1,3.71,2,15.29,15.29,0,0,0,1.93,2.25c.76.78,1.32.74,1.89-.25a12.53,12.53,0,0,1,3.17-3.32,3.68,3.68,0,0,1,3-.72,41.3,41.3,0,0,0,4.44-.13c1.46,0,2.93.16,4.38.32a1,1,0,0,1,.65.6c.54,1.78,0,3.58,0,5.37,0,.67-1.89,1.47-2.94,1.38a5,5,0,0,1-1.45-.29,3.53,3.53,0,0,0-2.6-.07,4.2,4.2,0,0,1-2.69-.05,2.24,2.24,0,0,0-2.45.63c-1,.75-1,1.3-.12,2.28,1.3,1.53,2.63,2.61,4.93,1.8,1-.37,2.5.46,3.6.13,1.32-.39,2.41.26,3.61.21.19,0,.61.53.57.6-.55.91,0,1.74.06,2.61a1.67,1.67,0,0,1-1.26,1.89,7.74,7.74,0,0,1-2.39.38c-.71-.07-1.56-.79-1.91.17-.16.43.51,1.29,1,1.81,1,1.1,2,2.1,3.07,3.15s1.94,2.45,1.2,4.18c0,.07,0,.16,0,.24-.14,1.1-.27,2.2-.41,3.3l-3.68.25c-.84,0-1.2-.38-1.19-1.2,0-1.25,0-2.5,0-3.75,0-.54-.1-1-.79-1s-1,.36-1,1.06c0,1.16,0,2.33,0,3.49s-.48,1.47-1.5,1.43-2,0-3,0c-.84,0-1.21-.38-1.19-1.21s0-1.83,0-2.74a10.48,10.48,0,0,0-.07-1.49c0-.18-.35-.47-.47-.44s-.67.29-.68.47c-.07,1.33-.11,2.66-.07,4,0,1.1-.46,1.44-1.49,1.44-4.47,0-4.26.19-4.21-3.93,0-.58,0-1.16,0-1.74s-.4-.45-.75-.52c-.5-.1-.55.11-.54.49,0,.92,0,1.84,0,2.75a6.46,6.46,0,0,1-.2,1.71c-.24.72-.64,1.39-1.61,1.23a2.67,2.67,0,0,0-.49,0c-3.87,0-3.35.36-3.39-3.27,0-.58,0-1.17,0-1.75s-.18-.95-.85-.95-.93.25-.93.87c0,1.25,0,2.5,0,3.74,0,.93-.35,1.35-1.31,1.37-4.85.05-4.37.12-4.4-4a4.16,4.16,0,0,1,.93-3c1.05-1.23,1.74-2.76,3.24-3.63a3.27,3.27,0,0,0,.88-1.16c.22-.37.38-.77.57-1.16a7.88,7.88,0,0,0-1.41-.3c-.78,0-1.58.17-2.35.1-1-.08-1.65-.49-1.52-1.69.06-.53-.27-1.09-.27-1.64,0-1.84.21-2.1,2-2.22,1-.06,2.09,0,3.14,0a7.14,7.14,0,0,0,2.68-.27c.69-.32.93-.39,1.6.08a1.45,1.45,0,0,0,2.13-.48c.44-.65,1.28-1,1.86-1.58a1.07,1.07,0,0,0-.17-1.87,6.76,6.76,0,0,0-5.29-1,7.49,7.49,0,0,1-4.35,0,5.17,5.17,0,0,0-1.48-.11c-1.94-.12-2.16-.32-2.22-2.16q0-1.12,0-2.25c0-2,.77-2.61,2.74-2.46,1.48.11,3,.17,4.46.25Zm8.2,18v-.12l5.58.07a4.51,4.51,0,0,0,.72-.12,6.25,6.25,0,0,0-.38-.61c-.89-1.07-1.8-2.12-2.69-3.18s-1.25-1.06-2.22,0c-.6.67-1.27,1.28-1.89,2s-1,1.22-1.57,1.84Z" transform="translate(-1054.49 -119.56)"/><path class="cls-1" d="M1101.67,198.54c0-1.66,0-3.33,0-5,0-1.83.26-2.06,2.1-2.39.72-.13,1.44-.32,2.15-.49a28.6,28.6,0,0,0,11.83-6.45,22.62,22.62,0,0,0,6.93-9.41c.44-1.23.93-2.43,1.47-3.62,1.24-2.75,1-5.66,1-8.55,0-1.08-.05-2.17,0-3.25.19-3.38-.92-6.44-2.2-9.5a28.94,28.94,0,0,0-8.29-10.69,22.85,22.85,0,0,0-7.35-4.39,28.12,28.12,0,0,0-6.79-2,1.31,1.31,0,0,1-.79-1c-.06-3.91,0-7.82,0-11.73,0-.19.2-.38.31-.56a1.69,1.69,0,0,1,.3.36,58.94,58.94,0,0,1,2.44,5.89,2.52,2.52,0,0,0,2.09,1.85,38.94,38.94,0,0,1,11.66,5.16,2.76,2.76,0,0,1,.76.64c1.22,1.62,2.81,1.46,4.49,1,.39-.11.79-.21,1.18-.34.82-.26,1.85-1,2.42-.32.38.47-.12,1.65-.25,2.52a2.49,2.49,0,0,1-.2.45,6.12,6.12,0,0,0,1.09,6.15,28.19,28.19,0,0,1,4.89,12c.24,1.39.25,3.07,1.76,3.91a22.45,22.45,0,0,0,2.92,1.31c1.53.59,3.09,1.11,4.63,1.68.13,0,.22.19.33.29a1.74,1.74,0,0,1-.38.29l-6.41,2.59a3.5,3.5,0,0,0-2.54,3,35.24,35.24,0,0,1-2,7.36,51.34,51.34,0,0,1-3.38,6.27c-.36.64-.88,1.19-1.26,1.83a3.09,3.09,0,0,0-.47,3A22.33,22.33,0,0,1,1127,190c.21,1-.18,1.44-1.1,1.2-1.27-.34-2.52-.75-3.78-1.12a2.51,2.51,0,0,0-2.56.33,31.37,31.37,0,0,1-11.56,6c-1.84.51-3.07,1.34-3.58,3.27a18.14,18.14,0,0,1-1.45,3.1c-.36.75-.69,1.52-1,2.27-.08-.89-.19-1.79-.22-2.69C1101.64,201,1101.67,199.79,1101.67,198.54Z" transform="translate(-1054.49 -119.56)"/><path class="cls-1" d="M1094.38,126.12c0,1.66,0,3.32,0,5a1.59,1.59,0,0,1-1.56,1.83,34.85,34.85,0,0,0-8.52,2.84,16.05,16.05,0,0,0-4,2.74,37.21,37.21,0,0,0-7,7.34c-2.43,3.49-3.41,7.43-4.54,11.35a22.1,22.1,0,0,0-.35,3.93c-.45,4.75.91,9.18,2.74,13.42a24,24,0,0,0,4.16,6.68c3.62,3.95,7.79,7.29,13.07,8.88,1.4.42,2.68,1.2,4.27,1.13a1.56,1.56,0,0,1,1.74,1.67c0,3.66,0,7.32,0,11a1.84,1.84,0,0,1-.26.64c-.16-.17-.4-.31-.48-.51-.51-1.27-1-2.57-1.49-3.85-.74-1.79-1.69-3.27-3.82-3.82a36.15,36.15,0,0,1-7.93-3.33c-1.62-.86-3-2-4.51-2.93-.74-.46-1.26-.84-2.23-.45a28.78,28.78,0,0,1-4,1.07c-1.13.28-1.55-.16-1.2-1.33a23.79,23.79,0,0,1,.87-2.31,4.4,4.4,0,0,0-.51-4.6,44.75,44.75,0,0,1-3.66-7,24.05,24.05,0,0,1-2.3-8,2.15,2.15,0,0,0-1.83-2.23c-2-.44-3.53-1.7-5.34-2.46a6.37,6.37,0,0,1-1.14-.83,10.26,10.26,0,0,1,1.25-.77c1.58-.7,3.18-1.36,4.78-2a3.13,3.13,0,0,0,2.3-2.76,35,35,0,0,1,4.87-13.06,16.65,16.65,0,0,1,1.84-2.62,2.69,2.69,0,0,0,.5-2.77c-.36-1.34-.66-2.7-1-4.06-.2-.79.1-1.1.87-.9,1.2.32,2.39.62,3.56,1a3,3,0,0,0,3.16-.37,36.25,36.25,0,0,1,9.55-5.14,5.71,5.71,0,0,1,1.63-.55c2.48-.1,3.5-1.73,4.2-3.79a29.24,29.24,0,0,1,1.22-3,7.86,7.86,0,0,1,.83-1.18,9.84,9.84,0,0,1,.32,1.58c0,1.49,0,3,0,4.49Z" transform="translate(-1054.49 -119.56)"/></svg>