<svg id="Layer_1" data-name="Layer 1" xmlns="http://www.w3.org/2000/svg" viewBox="0 0 87.49 85.01"><defs><style>.cls-1{fill:#fff;}</style></defs><path class="cls-1" d="M791.54,368.09c0-1.67,0-3.33,0-5,0-1.39.29-1.68,1.63-2.07a23.83,23.83,0,0,1,3.08-.85c3.22-.48,5.89-2.17,8.39-4,3.8-2.82,7.21-6.07,9.33-10.45,1.15-2.38,2.37-4.71,2.67-7.4.09-.81.33-1.61.35-2.42,0-2.25-.13-4.51,0-6.74a15.1,15.1,0,0,0-1.38-7.47c-1.07-2.34-1.91-4.88-3.76-6.84-1.57-1.66-2.81-3.66-4.53-5.12-4.31-3.65-9.09-6.46-14.89-7-.77-.07-.93-.55-.93-1.2,0-1.91,0-3.83,0-5.74s0-3.83,0-5.74a2.21,2.21,0,0,1,.24-.68,2.84,2.84,0,0,1,.42.51c.87,1.95,1.73,3.89,2.57,5.85a2.58,2.58,0,0,0,1.74,1.53,79.17,79.17,0,0,1,7.83,2.95,19.73,19.73,0,0,1,4.9,3.28,4,4,0,0,0,4.34.77c.95-.27,1.87-.63,2.82-.87,1.19-.31,1.42,0,1.08,1.2s-.61,2.39-1,3.54a2.9,2.9,0,0,0,.6,3.2,24.91,24.91,0,0,1,4.11,7.79,48.91,48.91,0,0,1,2,7.11,3.47,3.47,0,0,0,2.39,2.83c2,.78,4,1.64,5.92,2.48a1.85,1.85,0,0,1,.43.41,1.74,1.74,0,0,1-.38.29c-2,.84-4.06,1.71-6.13,2.47a2.85,2.85,0,0,0-2.24,2.48A36.57,36.57,0,0,1,817.23,352c-1.11,1.54-1.87,3.07-1,5a5.83,5.83,0,0,1,.21,1c.89,3.53.89,3.54-2.66,2.56-.71-.2-1.37-.59-2.09-.74a2.57,2.57,0,0,0-2.33.47,24.75,24.75,0,0,1-10.93,5.5c-2.66.49-3.75,2.21-4.62,4.37-.33.82-.66,1.65-1,2.45-.28.59-.66,1.15-1,1.73-.07-.74-.19-1.47-.21-2.2C791.51,370.75,791.54,369.42,791.54,368.09Z" transform="translate(-744.37 -289.36)"/><path class="cls-1" d="M784.24,295.91c0,1.67,0,3.33,0,5,0,1.06-.39,1.72-1.55,1.84a29,29,0,0,0-2.91.5,7.76,7.76,0,0,0-1.4.42,40.27,40.27,0,0,0-4.86,2.2,34.16,34.16,0,0,0-4.71,3.52,35.93,35.93,0,0,0-7.58,9.12,19.49,19.49,0,0,0-1.34,3.41,31.46,31.46,0,0,0-1.57,13.43,34.3,34.3,0,0,0,1.4,5.23,24.37,24.37,0,0,0,5.63,10.57,36.57,36.57,0,0,0,8.55,6.87c2.62,1.53,5.52,2,8.32,2.92,2,.65,2,.67,2,2.76q0,5,0,10a2.34,2.34,0,0,1-.23.69c-.17-.16-.41-.29-.49-.49-.51-1.19-1-2.38-1.46-3.61-.74-2.14-1.84-3.76-4.28-4.31a28.33,28.33,0,0,1-11.37-5.73c-1.92-1.54-3.71-.6-5.58-.34a12,12,0,0,0-1.41.43c-1.2.34-1.46.1-1.12-1.16.28-1,.64-2,1-3a3.85,3.85,0,0,0-.51-3.68,87.5,87.5,0,0,1-4.13-7.85,22.8,22.8,0,0,1-2-7.59,2,2,0,0,0-1.4-1.78c-1.88-.86-3.77-1.67-5.63-2.56a6.76,6.76,0,0,1-1.24-1,8.08,8.08,0,0,1,1.39-1c1.73-.76,3.48-1.5,5.26-2.15,1.17-.43,1.42-1.16,1.63-2.38.89-5.24,2.52-10.28,6-14.38,1.84-2.16,1.13-4.26.72-6.48-.16-.85-.35-1.69-.53-2.53a9.35,9.35,0,0,1,2.58.41c2.66,1.22,4.78.52,7-1.18a25.46,25.46,0,0,1,10.09-4.44,3.16,3.16,0,0,0,2.52-2c.46-1.15.92-2.29,1.43-3.42.3-.66.68-1.29,1-1.93a1.67,1.67,0,0,1,.34-.31c.11.18.31.36.32.54,0,1.33,0,2.66,0,4v1.5Z" transform="translate(-744.37 -289.36)"/><path class="cls-1" d="M779.57,331.58c-.5-1.9.39-3.73,1.7-5.41a8.11,8.11,0,0,1,4.46-2.95,9,9,0,0,1,9.88,3.52,8.15,8.15,0,0,1,.82,8.88,8.39,8.39,0,0,1-7.57,5.09c-3.77.21-6.42-1.52-8.49-4.5C779.43,334.86,779.53,333.4,779.57,331.58Z" transform="translate(-744.37 -289.36)"/><path class="cls-1" d="M774.51,325.51c0-6,2.08-9.57,5.43-12.53a5.71,5.71,0,0,1,1.49-.87,4.38,4.38,0,0,1,1.1-.21c-.07.37-.12.75-.22,1.12-.19.71-.39,1.42-.61,2.13a4.25,4.25,0,0,0,1.42,5c.26.2.59.3.85.49.92.7.85.95-.29,1.6-3.58,2.05-5.9,4.93-5.94,9.27a3.26,3.26,0,0,1-.28.87l-.64-.69A8.89,8.89,0,0,1,774.51,325.51Z" transform="translate(-744.37 -289.36)"/><path class="cls-1" d="M801.13,339.28c.69,3.15-.93,5.67-2.38,8.1-1.26,2.1-3.34,3.55-5.24,5.09-.12.1-.43,0-.64-.06,0,0-.06-.28,0-.41.42-1.07.92-2.12,1.28-3.21.87-2.61.28-4.14-2-5.61-1-.62-1-.68,0-1.23a13.24,13.24,0,0,0,6.12-6.48,9.65,9.65,0,0,0,.29-2.44,2.69,2.69,0,0,1,.41-.73c.2.14.47.24.57.43C800.71,334.76,801.74,336.84,801.13,339.28Z" transform="translate(-744.37 -289.36)"/></svg>