<!-- Generated by IcoMoon.io -->
<svg version="1.1" xmlns="http://www.w3.org/2000/svg" width="32" height="32" viewBox="0 0 32 32">
<title>fighters-destroyer</title>
<path fill="#fff" d="M31.973 22.992c-0.163 0.263-0.212 0.267-0.498 0.123-0.599-0.299-1.099-0.705-1.519-1.232-0.272-0.343-0.627-0.62-0.915-0.951-0.335-0.384-0.636-0.795-0.955-1.192-0.274-0.339-0.55-0.675-0.83-1.008-0.105-0.123-0.171-0.121-0.258 0.025-0.275 0.465-0.542 0.935-0.811 1.404-0.050 0.088-0.089 0.182-0.147 0.263-0.108 0.149-0.24 0.163-0.384 0.049-0.049-0.040-0.101-0.082-0.135-0.134-0.255-0.384-0.518-0.764-0.757-1.157-0.187-0.308-0.352-0.629-0.513-0.952-0.1-0.198-0.177-0.408-0.26-0.613-0.048-0.118-0.013-0.219 0.105-0.262 0.247-0.092 0.361-0.284 0.465-0.51 0.366-0.802 0.728-1.605 0.915-2.47 0.066-0.308 0.061-0.632 0.090-0.963 0.264 0.082 0.404 0.288 0.517 0.53 0.22 0.47 0.436 0.944 0.681 1.401 0.134 0.25 0.328 0.466 0.497 0.697 0.025 0.033 0.057 0.064 0.093 0.086 0.163 0.104 0.295 0.054 0.329-0.137 0.036-0.195 0.109-0.361 0.262-0.494 0.044-0.039 0.064-0.108 0.089-0.165 0.056-0.122 0.142-0.202 0.282-0.193 0.135 0.009 0.223 0.105 0.235 0.226 0.072 0.748 0.466 1.358 0.84 1.973 0.428 0.702 0.713 1.467 1.046 2.211 0.489 1.087 0.996 2.167 1.496 3.25 0.011 0.024 0.027 0.045 0.040 0.066 0 0.041 0 0.084 0 0.126zM28.465 18.403c0.023-0.004 0.045-0.009 0.069-0.013-0.007-0.078-0.012-0.157-0.019-0.235-0.076 0.015-0.151 0.029-0.226 0.044 0.001 0.017 0.003 0.033 0.004 0.050 0.056 0.052 0.113 0.102 0.171 0.154z"></path>
<path fill="#fff" d="M15.402 31.309c-0.274-0.157-0.315-0.242-0.279-0.552 0.093-0.79 0.179-1.581 0.279-2.371 0.088-0.694 0.191-1.386 0.281-2.081 0.035-0.266 0.052-0.535 0.074-0.802 0.013-0.165-0.096-0.251-0.232-0.239-0.486 0.046-0.971-0.121-1.457 0.008-0.171 0.046-0.332-0.016-0.436-0.163-0.108-0.153-0.070-0.315 0.015-0.466 0.277-0.495 0.562-0.987 0.838-1.482 0.126-0.227 0.266-0.45 0.357-0.69 0.157-0.41 0.467-0.599 0.871-0.637 0.255-0.024 0.487-0.090 0.712-0.204 0.167-0.085 0.327-0.097 0.502-0.012 0.169 0.082 0.347 0.081 0.523 0 0.060-0.027 0.133-0.028 0.201-0.032 0.074-0.004 0.153 0.017 0.222 0 0.335-0.084 0.624 0.052 0.919 0.171 0.064 0.025 0.127 0.053 0.193 0.074 0.238 0.080 0.351 0.244 0.336 0.493-0.012 0.186-0.096 0.258-0.277 0.239-0.021-0.003-0.041-0.008-0.062-0.012-0.41-0.094-0.442-0.080-0.631 0.309-0.085 0.177-0.165 0.356-0.247 0.534-0.201 0.428-0.194 0.872-0.119 1.324 0.021 0.131 0.093 0.197 0.219 0.157 0.181-0.056 0.36-0.122 0.534-0.197 0.27-0.117 0.483-0.025 0.539 0.26 0.015 0.070-0.011 0.173-0.057 0.226-0.244 0.277-0.426 0.588-0.578 0.927-0.088 0.195-0.258 0.356-0.393 0.528-0.068 0.086-0.165 0.155-0.215 0.25-0.307 0.563-0.607 1.13-0.903 1.698-0.319 0.611-0.632 1.223-0.943 1.838-0.084 0.165-0.15 0.34-0.218 0.513s-0.165 0.317-0.344 0.392c-0.074 0.001-0.149 0.001-0.223 0.001zM14.225 24.485c-0.068 0.089-0.102 0.134-0.153 0.199 0.081 0.065 0.154 0.127 0.234 0.181 0.008 0.005 0.085-0.064 0.080-0.076-0.041-0.096-0.096-0.185-0.161-0.304z"></path>
<path fill="#fff" d="M11.781 17.298c0.097-0.122 0.189-0.106 0.28-0.023 0.097 0.089 0.202 0.134 0.331 0.081 0.033-0.235-0.122-0.483-0.337-0.54-0.219-0.058-0.433-0.138-0.671-0.068-0.057 0.017-0.155-0.054-0.215-0.106-0.074-0.065-0.122-0.162-0.195-0.228-0.066-0.061-0.154-0.1-0.232-0.147-0.017-0.011-0.043-0.011-0.058-0.024-0.365-0.281-0.75-0.55-0.821-1.060-0.009-0.068-0.011-0.143-0.041-0.202-0.154-0.291-0.116-0.583-0.037-0.883 0.049-0.185 0.084-0.373 0.113-0.562 0.040-0.25 0.094-0.494 0.255-0.694 0.292-0.363 0.457-0.769 0.485-1.238 0.013-0.226 0.092-0.449 0.106-0.675 0.020-0.3 0.011-0.603 0.008-0.906-0.008-0.855-0.019-1.709-0.032-2.564-0.003-0.143-0.017-0.285-0.029-0.429-0.058-0.678 0.105-1.307 0.441-1.891 0.203-0.352 0.414-0.7 0.627-1.046 0.040-0.065 0.094-0.13 0.157-0.174 0.554-0.394 1.11-0.785 1.665-1.175 0.035-0.024 0.070-0.049 0.109-0.065 0.644-0.247 1.167-0.688 1.726-1.072 0.357-0.246 0.675-0.544 1.085-0.716 0.289-0.122 0.582-0.208 0.892-0.202 1.234 0.027 2.354 0.356 3.262 1.242 0.171 0.167 0.345 0.332 0.524 0.489 0.143 0.125 0.307 0.227 0.445 0.357 0.189 0.177 0.384 0.355 0.538 0.56 0.301 0.404 0.562 0.839 0.868 1.238 0.32 0.417 0.439 0.891 0.461 1.394 0.017 0.39-0.012 0.783-0.020 1.176-0.003 0.122-0.004 0.244-0.005 0.366-0.004 0.462 0.012 0.924-0.015 1.385-0.038 0.697 0.048 1.384 0.191 2.055 0.090 0.422 0.293 0.831 0.498 1.218 0.279 0.526 0.348 1.098 0.455 1.664 0.011 0.058-0.009 0.126-0.027 0.187-0.28 0.961-0.717 1.859-1.122 2.768-0.054 0.123-0.161 0.207-0.288 0.19-0.401-0.056-0.775 0.076-1.162 0.127-0.183 0.025-0.37 0.046-0.555 0.043-0.222-0.004-0.335 0.116-0.429 0.292-0.078 0.146-0.169 0.288-0.268 0.421-0.101 0.135-0.088 0.428 0.066 0.555 0.158 0.13 0.154 0.27 0.127 0.453-0.092 0.635-0.34 1.224-0.506 1.836-0.082 0.303-0.251 0.543-0.509 0.729-0.098 0.070-0.174 0.068-0.255-0.003-0.159-0.138-0.25-0.311-0.255-0.527-0.004-0.154-0.011-0.308-0.028-0.459-0.020-0.169-0.127-0.212-0.267-0.108-0.118 0.089-0.231 0.187-0.34 0.288-0.177 0.163-0.368 0.203-0.582 0.081-0.138-0.080-0.244-0.069-0.332 0.081-0.070 0.118-0.198 0.114-0.315 0.088-0.119-0.027-0.173-0.118-0.179-0.235-0.017-0.296-0.054-0.59 0.057-0.882 0.064-0.167-0.149-0.623-0.303-0.721-0.102-0.065-0.194-0.033-0.244 0.061-0.219 0.406-0.357 0.829-0.215 1.295 0.076 0.248-0.023 0.382-0.28 0.382-0.043 0-0.086 0.001-0.127-0.005-0.315-0.056-0.616-0.036-0.915 0.097-0.179 0.080-0.268 0.027-0.365-0.145-0.133-0.236-0.262-0.474-0.394-0.709-0.031-0.054-0.064-0.114-0.112-0.153-0.040-0.032-0.108-0.057-0.154-0.046-0.032 0.007-0.062 0.080-0.068 0.126-0.021 0.218-0.004 0.428 0.088 0.637 0.072 0.162 0.092 0.347 0.134 0.522 0.024 0.098 0.062 0.194 0.068 0.293 0.004 0.068-0.017 0.153-0.060 0.204-0.089 0.11-0.203 0.201-0.299 0.305-0.163 0.181-0.328 0.193-0.509 0.028-0.198-0.178-0.291-0.416-0.297-0.667-0.016-0.552-0.199-1.073-0.274-1.612-0.088-0.639-0.369-1.166-0.764-1.652-0.181-0.23-0.365-0.463-0.558-0.705zM21.69 12.412c-0.382 0.135-0.835 0.244-1.228 0.511-0.109 0.074-0.246 0.108-0.369 0.161-0.072 0.031-0.166 0.043-0.208 0.097-0.247 0.312-0.567 0.518-0.924 0.678-0.045 0.021-0.108 0.108-0.096 0.138 0.101 0.254 0.153 0.534 0.373 0.726 0.329 0.288 0.698 0.457 1.146 0.422 0.074-0.005 0.15 0.012 0.223 0 0.215-0.036 0.445-0.044 0.639-0.131 0.351-0.159 0.685-0.358 1.016-0.559 0.287-0.174 0.471-0.436 0.574-0.757 0.040-0.126 0.028-0.236-0.054-0.344-0.163-0.216-0.317-0.438-0.481-0.655-0.137-0.178-0.32-0.274-0.609-0.288zM13.889 15.014c0-0.004-0.001-0.009-0.001-0.013 0.252-0.024 0.51-0.029 0.758-0.080 0.234-0.046 0.458-0.141 0.685-0.215 0.009-0.003 0.016-0.013 0.024-0.020 0.145-0.133 0.291-0.263 0.436-0.397 0.1-0.092 0.081-0.173-0.028-0.244-0.125-0.081-0.244-0.169-0.37-0.247-0.39-0.243-0.786-0.481-1.175-0.725-0.219-0.138-0.446-0.27-0.645-0.433-0.275-0.226-0.726-0.235-0.976 0.021-0.252 0.259-0.426 0.57-0.522 0.918-0.019 0.069 0.009 0.173 0.052 0.234 0.134 0.19 0.287 0.368 0.432 0.55 0.336 0.424 0.848 0.49 1.315 0.649 0.007 0.004 0.012 0.003 0.017 0.003zM18.231 17.492c-0.031-0.126-0.052-0.219-0.076-0.311-0.025-0.097-0.065-0.191-0.074-0.289-0.038-0.422-0.078-0.844-0.101-1.267-0.024-0.453-0.183-0.781-0.683-0.842-0.025-0.003-0.052-0.028-0.074-0.024-0.052 0.008-0.134 0.012-0.149 0.044-0.061 0.131-0.122 0.27-0.145 0.41-0.050 0.323-0.076 0.651-0.117 0.975-0.019 0.146-0.077 0.292-0.072 0.437 0.011 0.243-0.027 0.471-0.108 0.698-0.054 0.153 0.035 0.243 0.189 0.191 0.064-0.021 0.109-0.090 0.166-0.135 0.098-0.077 0.195-0.155 0.299-0.224 0.025-0.017 0.092-0.013 0.113 0.008 0.219 0.219 0.514 0.234 0.831 0.329zM11.352 10.569c-0.118 0.163-0.275 0.921-0.234 1.103 0.208-0.057 0.402-0.929 0.234-1.103zM17.846 2.938c-0.116 0.134-0.057 0.567 0.082 0.672 0.139-0.145 0.093-0.562-0.082-0.672zM13.631 5.374c-0.157 0.116-0.174 0.57-0.031 0.668 0.113-0.138 0.135-0.527 0.031-0.668z"></path>
<path fill="#fff" d="M6.061 16.46c0.109-0.081 0.195-0.119 0.246-0.186 0.445-0.595 0.894-1.186 1.316-1.796 0.195-0.281 0.397-0.544 0.656-0.771 0.177-0.155 0.317-0.351 0.471-0.53 0.057-0.066 0.108-0.137 0.178-0.228 0.023 0.064 0.045 0.096 0.045 0.127 0.003 0.333 0.005 0.667 0.001 1.001 0 0.044-0.033 0.088-0.053 0.13-0.023 0.048-0.061 0.092-0.072 0.141-0.084 0.397-0.166 0.794-0.236 1.192-0.011 0.061 0.025 0.145 0.065 0.199 0.243 0.335 0.489 0.668 0.742 0.995 0.191 0.246 0.455 0.347 0.761 0.325 0.126-0.009 0.235 0.011 0.316 0.109 0.105 0.126 0.212 0.254 0.3 0.392 0.032 0.049 0.028 0.139 0.007 0.198-0.024 0.066-0.078 0.126-0.133 0.175-0.337 0.307-0.693 0.595-1.017 0.915-0.77 0.765-1.704 1.312-2.564 1.957-0.076 0.056-0.169 0.088-0.251 0.135-0.159 0.092-0.324 0.175-0.473 0.283-0.157 0.113-0.252 0.141-0.37-0.008s-0.207-0.329-0.275-0.509c-0.106-0.276-0.19-0.562-0.27-0.847-0.054-0.193-0.090-0.392-0.129-0.588-0.045-0.232-0.093-0.275-0.307-0.183-0.296 0.127-0.592 0.262-0.866 0.429-0.438 0.268-0.867 0.555-1.284 0.858-0.303 0.22-0.598 0.459-0.863 0.724-0.449 0.447-0.895 0.891-1.459 1.196-0.069 0.037-0.123 0.105-0.193 0.139-0.089 0.045-0.186 0.070-0.28 0.105-0.015-0.015-0.029-0.029-0.044-0.044 0.024-0.081 0.027-0.178 0.074-0.242 0.683-0.928 1.357-1.862 2.062-2.771 0.396-0.511 0.81-1.009 1.215-1.512 0.337-0.42 0.628-0.864 0.937-1.299 0.175-0.246 0.4-0.455 0.57-0.702 0.165-0.239 0.293-0.503 0.432-0.759 0.126-0.231 0.287-0.321 0.543-0.305 0.117 0.008 0.121 0.090 0.123 0.169 0.009 0.34 0.009 0.68 0.020 1.020 0.007 0.108 0.033 0.215 0.057 0.368zM1.109 21.564c0.404-0.169 0.604-0.388 0.575-0.619-0.28 0.057-0.526 0.316-0.575 0.619z"></path>
<path fill="#fff" d="M9.123 7.172c0.11 0.046 0.171 0.157 0.22 0.295 0.123 0.348 0.12 0.705 0.135 1.066 0.021 0.449 0.104 0.895 0.134 1.344 0.027 0.385 0.019 0.773 0.023 1.159 0 0.031-0.024 0.068-0.048 0.088-0.011 0.008-0.062-0.013-0.077-0.033-0.313-0.475-0.864-0.499-1.326-0.673-0.368-0.138-0.774-0.175-1.163-0.251-0.082-0.016-0.173-0.027-0.254-0.012-0.292 0.057-0.571-0.007-0.848-0.081-0.271-0.073-0.534-0.175-0.807-0.24-0.159-0.039-0.332-0.045-0.497-0.039-0.37 0.013-0.744 0.024-1.11 0.069-0.679 0.084-1.354 0.2-1.994 0.457-0.165 0.066-0.22-0.021-0.279-0.15 0.042-0.033 0.084-0.065 0.125-0.097 1.032-0.793 2.187-1.352 3.398-1.808 0.094-0.036 0.17-0.117 0.259-0.17 0.108-0.064 0.216-0.127 0.331-0.178 0.153-0.068 0.316-0.112 0.465-0.186 0.175-0.086 0.343-0.191 0.511-0.291 0.123-0.073 0.218-0.033 0.246 0.092s0.015 0.258 0.019 0.388c0.003 0.112 0.003 0.224 0.004 0.336 0.108-0.027 0.22-0.041 0.323-0.082 0.595-0.238 1.19-0.478 1.779-0.729 0.145-0.060 0.271-0.167 0.433-0.272z"></path>
<path fill="#fff" d="M24.447 6.511c0.061 0.1 0.121 0.193 0.177 0.288 0.282 0.487 0.987 0.513 1.292 0.035 0.064-0.1 0.081-0.24 0.088-0.364 0.008-0.139 0.077-0.165 0.185-0.139 0.070 0.016 0.142 0.045 0.201 0.088 0.214 0.157 0.45 0.21 0.712 0.231 0.292 0.024 0.584 0.090 0.87 0.166 0.291 0.077 0.575 0.185 0.859 0.288 0.102 0.037 0.193 0.109 0.295 0.145 0.174 0.060 0.349 0.122 0.53 0.151 0.365 0.057 0.692 0.193 0.988 0.412 0.183 0.135 0.368 0.268 0.55 0.405 0.050 0.037 0.093 0.086 0.177 0.165-0.114 0.045-0.201 0.104-0.288 0.108-0.317 0.016-0.636 0.015-0.955 0.015-0.084 0-0.175 0-0.252-0.028-0.357-0.131-0.724-0.070-1.087-0.062-0.328 0.008-0.655 0.011-0.983 0.024-0.109 0.004-0.222 0.016-0.325 0.046-0.284 0.085-0.568 0.171-0.844 0.279-0.255 0.1-0.507 0.211-0.745 0.347-0.3 0.17-0.58 0.373-0.875 0.552-0.207 0.125-0.369 0.28-0.455 0.511-0.027 0.072-0.080 0.135-0.126 0.212-0.178-0.126-0.224-0.301-0.23-0.49-0.008-0.266 0-0.531-0.004-0.797-0.015-0.716-0.027-1.433-0.049-2.148-0.011-0.323-0.023-0.323 0.299-0.438z"></path>
<path fill="#fff" d="M12.173 20.81c0.057 0.279-0.070 0.49-0.236 0.686-0.027 0.032-0.058 0.066-0.096 0.080-0.517 0.178-0.959 0.491-1.419 0.771-0.267 0.162-0.53 0.332-0.789 0.507-0.482 0.328-0.953 0.669-1.439 0.989-0.228 0.15-0.487 0.255-0.722 0.397-0.198 0.119-0.385 0.258-0.568 0.397-0.074 0.056-0.134 0.097-0.227 0.046-0.090-0.049-0.098-0.116-0.060-0.201 0.004-0.009 0.012-0.021 0.011-0.029-0.081-0.396 0.198-0.625 0.413-0.882 0.818-0.976 1.638-1.949 2.456-2.925 0.12-0.143 0.272-0.26 0.328-0.458 0.020-0.069 0.137-0.135 0.22-0.155 0.276-0.066 0.493-0.222 0.724-0.377 0.193-0.13 0.449-0.167 0.681-0.232 0.027-0.008 0.102 0.062 0.109 0.104 0.037 0.251 0.178 0.449 0.309 0.656 0.1 0.155 0.183 0.321 0.268 0.486 0.021 0.038 0.025 0.092 0.037 0.139zM7.528 23.766c-0.062-0.097-0.134-0.151-0.22-0.057-0.077 0.084-0.116 0.181 0.019 0.271 0.066-0.070 0.131-0.139 0.202-0.214z"></path>
<path fill="#fff" d="M25.744 24.935c-0.466-0.469-0.947-0.924-1.396-1.41-0.584-0.633-1.179-1.253-1.871-1.77-0.151-0.113-0.325-0.199-0.498-0.276-0.333-0.149-0.462-0.37-0.409-0.734 0.011-0.068 0.019-0.139 0.008-0.206-0.073-0.458 0.118-0.866 0.246-1.283 0.078-0.256 0.563-0.38 0.775-0.216 0.17 0.131 0.353 0.178 0.566 0.15 0.28-0.036 0.463 0.13 0.453 0.416-0.008 0.212 0.050 0.39 0.167 0.567 0.096 0.145 0.151 0.315 0.235 0.467 0.388 0.712 0.779 1.422 1.167 2.134 0.066 0.121 0.138 0.243 0.178 0.372 0.116 0.374 0.315 0.705 0.524 1.030 0.238 0.366 0.215 0.465-0.146 0.759z"></path>
</svg>
