<!-- Generated by IcoMoon.io -->
<svg version="1.1" xmlns="http://www.w3.org/2000/svg" width="32" height="32" viewBox="0 0 32 32">
<title>fighters-gargantuan</title>
<path fill="#fff" d="M0 20.487c0-0.585 0-1.17 0-1.754 0.012-0.069 0.023-0.136 0.034-0.205 0.092-0.611 0.161-1.228 0.282-1.833 0.165-0.825 0.377-1.637 0.437-2.481 0.051-0.711 0.213-1.395 0.49-2.054 0.133-0.316 0.354-0.51 0.656-0.637 0.232-0.098 0.282-0.060 0.289 0.194 0.006 0.202 0.013 0.406 0.048 0.604 0.105 0.594 0.522 1.035 0.788 1.55 0.042 0.082 0.135 0.149 0.219 0.193 0.594 0.31 1.206 0.563 1.882 0.623 0.092 0.009 0.186-0.012 0.278-0.015 0.11-0.004 0.222-0.020 0.327-0.001 0.18 0.034 0.345 0.025 0.506-0.070 0.079-0.047 0.17-0.092 0.259-0.104 0.459-0.056 0.801-0.291 1.104-0.63 0.159-0.18 0.392-0.292 0.585-0.443 0.528-0.409 0.909-0.906 0.924-1.61 0.004-0.193 0.003-0.389-0.029-0.578-0.020-0.123-0.076-0.266-0.165-0.347-0.113-0.101-0.272-0.153-0.417-0.213-0.034-0.015-0.098 0.018-0.136 0.045-0.152 0.104-0.298 0.219-0.452 0.323-0.218 0.146-0.447 0.276-0.661 0.428-0.225 0.161-0.373 0.38-0.443 0.654-0.095 0.368-0.294 0.512-0.668 0.449-0.526-0.088-1.006-0.311-1.499-0.575 0.177-0.12 0.329-0.227 0.482-0.329 0.213-0.143 0.225-0.205 0.086-0.427-0.057-0.091-0.107-0.184-0.175-0.304 0.146 0 0.251 0.013 0.352-0.003 0.199-0.031 0.406-0.050 0.589-0.124 0.266-0.108 0.336-0.418 0.184-0.659-0.028-0.044-0.051-0.092-0.066-0.142-0.048-0.161 0.045-0.262 0.2-0.199 0.285 0.117 0.554 0.018 0.823-0.042 0.212-0.048 0.342-0.241 0.352-0.452 0.012-0.243-0.079-0.393-0.31-0.491-0.129-0.054-0.26-0.104-0.395-0.145-0.181-0.056-0.228-0.020-0.246 0.17-0.037 0.366-0.294 0.542-0.652 0.453-0.124-0.031-0.253-0.047-0.38-0.058-0.095-0.007-0.173 0.042-0.142 0.146 0.057 0.193 0.12 0.386 0.209 0.566 0.057 0.114 0.064 0.203 0.010 0.311-0.056 0.108-0.137 0.156-0.256 0.134-0.308-0.054-0.62-0.105-0.927-0.17-0.205-0.042-0.253-0.007-0.231 0.205 0.025 0.238 0.113 0.449 0.257 0.642 0.129 0.171 0.099 0.336-0.098 0.412-0.142 0.054-0.325 0.077-0.469 0.041-0.477-0.124-0.839-0.431-1.132-0.816-0.335-0.439-0.434-0.874-0.061-1.38 0.228-0.309 0.364-0.659 0.497-1.018 0.143-0.386 0.298-0.784 0.534-1.115 0.675-0.953 1.383-1.885 2.098-2.81 0.52-0.673 1.111-1.272 1.887-1.67 0.69-0.352 1.355-0.751 2.037-1.121 0.215-0.115 0.44-0.224 0.673-0.291 0.224-0.064 0.463-0.072 0.74-0.11-0.041 0.077-0.051 0.104-0.067 0.124-0.177 0.225-0.352 0.452-0.532 0.675-0.117 0.145-0.162 0.308-0.142 0.491 0.019 0.159 0.051 0.328 0.221 0.39 0.183 0.069 0.364 0.031 0.497-0.121 0.123-0.14 0.232-0.291 0.341-0.443 0.058-0.083 0.116-0.13 0.23-0.121 0.088 0.007 0.189-0.016 0.266-0.058 0.493-0.266 0.975-0.551 1.471-0.811 0.48-0.253 0.959-0.516 1.509-0.589 0.307-0.041 0.614-0.079 0.923-0.108 0.073-0.007 0.151 0.022 0.227 0.034-0.079 0.094-0.164 0.142-0.244 0.194-0.079 0.050-0.162 0.095-0.23 0.158-0.126 0.117-0.153 0.338-0.060 0.466 0.108 0.151 0.237 0.067 0.361 0.020 0.504-0.189 1.035-0.308 1.563-0.241 0.683 0.088 1.361 0.24 2.029 0.414 0.368 0.096 0.712 0.291 1.064 0.446 0.099 0.044 0.192 0.105 0.291 0.159-0.029 0.094-0.050 0.172-0.079 0.249-0.11 0.281-0.041 0.501 0.189 0.7 0.472 0.409 0.936 0.83 1.393 1.257 0.114 0.107 0.19 0.253 0.317 0.427-0.224 0.048-0.386 0.086-0.548 0.118-0.395 0.077-0.522 0.357-0.336 0.715 0.077 0.149 0.158 0.306 0.184 0.468 0.042 0.246 0.136 0.459 0.288 0.648 0.244 0.306 0.504 0.599 0.747 0.906 0.237 0.3 0.519 0.44 0.899 0.3 0.026-0.010 0.057-0.010 0.086-0.012 0.51-0.029 0.801-0.352 0.993-0.778 0.192-0.424 0.354-0.861 0.52-1.295 0.108-0.281 0.317-0.39 0.602-0.383 0.525 0.013 0.974 0.213 1.316 0.605 0.602 0.692 1.202 1.387 1.772 2.105 0.836 1.053 1.427 2.25 1.845 3.518 0.282 0.854 0.563 1.718 0.681 2.618 0.004 0.035 0.013 0.070 0.026 0.102 0.212 0.507 0.256 1.039 0.247 1.58-0.003 0.162 0.018 0.325 0.028 0.487 0 0.246 0 0.491 0 0.737-0.010 0.063-0.025 0.124-0.032 0.187-0.057 0.558-0.091 1.12-0.177 1.673-0.098 0.627-0.26 1.244-0.364 1.87-0.146 0.882-0.458 1.699-0.877 2.481-0.042 0.077-0.121 0.134-0.183 0.202-0.038-0.114-0.047-0.2-0.037-0.285 0.016-0.139 0.056-0.275 0.063-0.414 0.026-0.484 0.041-0.968 0.064-1.452 0.006-0.134 0.032-0.268 0.031-0.401-0.003-0.164-0.070-0.301-0.244-0.342-0.178-0.041-0.292 0.063-0.366 0.208-0.056 0.108-0.095 0.227-0.129 0.344-0.213 0.738-0.504 1.443-0.873 2.116-0.025 0.047-0.057 0.089-0.114 0.177-0.016-0.099-0.025-0.143-0.029-0.187-0.022-0.238-0.031-0.478-0.067-0.715-0.034-0.218-0.151-0.285-0.366-0.235-0.156 0.037-0.26 0.137-0.282 0.298-0.105 0.791-0.728 1.259-1.145 1.901-0.057-0.197-0.089-0.357-0.148-0.506-0.057-0.143-0.148-0.276-0.326-0.281-0.17-0.004-0.251 0.117-0.328 0.251-0.244 0.433-0.482 0.867-0.746 1.288-0.118 0.19-0.265 0.38-0.44 0.516-0.395 0.31-0.797 0.617-1.23 0.871-0.632 0.371-1.063 0.906-1.39 1.538-0.234 0.45-0.001 0.95 0.491 1.070 0.18 0.044 0.37 0.047 0.556 0.072 0.050 0.007 0.099 0.025 0.174 0.042-0.171 0.101-0.314 0.178-0.45 0.266-0.618 0.395-1.294 0.645-2.004 0.804-0.364 0.082-0.728 0.159-1.091 0.24-0.569 0.127-1.134 0.27-1.706 0.38-0.314 0.060-0.637 0.045-0.953-0.057 0.022-0.060 0.038-0.105 0.073-0.2-0.475 0.042-0.915 0.080-1.354 0.121-0.389 0.037-0.778 0.098-1.167 0.111-0.455 0.016-0.909-0.023-1.364-0.013-0.74 0.016-1.469 0.066-2.211-0.104-0.671-0.154-1.376-0.167-2.067-0.222-0.655-0.053-1.253-0.247-1.797-0.617-0.168-0.114-0.355-0.2-0.532-0.304-0.050-0.029-0.092-0.070-0.145-0.111 0.146-0.064 0.281-0.098 0.385-0.174 0.256-0.184 0.501-0.382 0.743-0.586 0.31-0.265 0.263-0.636-0.098-0.827-0.243-0.129-0.482-0.263-0.734-0.373-0.93-0.406-1.648-1.031-2.059-1.978-0.007-0.016-0.016-0.031-0.025-0.047-0.232-0.395-0.387-0.415-0.699-0.088-0.284-0.37-0.481-0.785-0.646-1.215-0.089-0.234-0.167-0.474-0.249-0.711-0.067-0.194-0.219-0.295-0.398-0.266-0.162 0.026-0.234 0.133-0.24 0.352-0.001 0.099-0.001 0.199-0.001 0.298 0 0.064 0 0.129 0 0.193-0.020 0.004-0.042 0.007-0.063 0.012-0.026-0.053-0.056-0.104-0.079-0.158-0.3-0.711-0.594-1.423-0.899-2.129-0.045-0.105-0.127-0.215-0.222-0.278-0.218-0.143-0.401-0.056-0.447 0.2-0.018 0.096-0.022 0.199-0.010 0.295 0.039 0.313 0.094 0.624 0.132 0.937 0.015 0.118 0.003 0.24 0.003 0.36-0.022 0.004-0.045 0.009-0.067 0.012-0.096-0.123-0.227-0.231-0.284-0.37-0.132-0.323-0.249-0.655-0.332-0.994-0.161-0.629-0.289-1.275-0.43-1.917zM15.326 9.934c-0.058-0.003-0.104-0.007-0.151-0.009-0.25-0.009-0.257-0.009-0.297 0.243-0.034 0.213-0.050 0.43-0.067 0.645-0.015 0.168-0.139 0.183-0.262 0.199-0.126 0.016-0.162-0.066-0.172-0.17-0.016-0.174-0.053-0.349-0.039-0.522 0.032-0.422 0.035-0.425-0.379-0.363-0.136 0.020-0.206 0.076-0.222 0.218-0.025 0.215-0.064 0.427-0.105 0.639-0.044 0.222-0.167 0.297-0.442 0.304-0.209 0.006-0.186-0.151-0.211-0.276-0.003-0.018-0.004-0.038-0.015-0.050-0.041-0.045-0.085-0.118-0.13-0.121s-0.108 0.060-0.136 0.11c-0.045 0.080-0.072 0.172-0.102 0.26-0.256 0.75-0.503 1.504-0.77 2.25-0.167 0.466-0.246 0.415 0.278 0.582 0.347 0.11 0.422 0.246 0.389 0.611-0.042 0.471-0.086 0.943-0.080 1.414 0.010 0.703-0.013 1.402-0.092 2.099-0.025 0.215-0.114 0.276-0.329 0.253-0.132-0.015-0.268-0.012-0.398 0.009-0.618 0.095-1.232 0.211-1.864 0.123-0.183-0.025-0.371-0.010-0.557-0.001-0.153 0.006-0.205 0.092-0.186 0.249 0.048 0.395 0.095 0.789 0.12 1.186 0.018 0.291 0.013 0.583-0.007 0.874-0.010 0.152 0.018 0.253 0.149 0.338 0.191 0.123 0.393 0.241 0.553 0.399 0.396 0.39 0.649 0.849 0.591 1.436-0.016 0.161 0.009 0.326 0.016 0.488 0.029 0.642 0.070 1.284 0.083 1.925 0.007 0.317-0.164 0.465-0.484 0.475-0.134 0.004-0.269-0.009-0.402-0.015-0.453-0.016-0.908-0.032-1.361-0.048-0.111-0.004-0.172 0.042-0.183 0.161-0.020 0.209-0.042 0.42-0.077 0.626-0.026 0.152 0.025 0.206 0.175 0.23 0.193 0.031 0.396 0.066 0.569 0.152 0.599 0.297 0.946 1.417 0.702 1.899-0.104 0.206-0.067 0.411 0.075 0.592 0.096 0.123 0.127 0.256 0.092 0.411-0.048 0.209-0.085 0.42-0.127 0.629 0.032 0.012 0.048 0.019 0.066 0.022 0.966 0.154 1.939 0.218 2.917 0.227 0.436 0.004 0.468-0.019 0.402-0.456-0.077-0.512 0.009-1 0.165-1.482 0.019-0.058 0.060-0.113 0.099-0.162 0.209-0.263 0.472-0.197 0.737-0.116 0.189 0.057 0.32 0.216 0.322 0.412 0.003 0.328-0.007 0.655-0.009 0.982-0.001 0.227 0.013 0.453-0.003 0.678-0.010 0.158 0.026 0.237 0.191 0.235 0.415-0.001 0.832 0.007 1.244-0.028 0.436-0.037 0.865-0.145 1.303-0.172 1.148-0.075 2.263-0.339 3.382-0.578 0.414-0.088 0.699-0.351 0.855-0.775-0.209-0.057-0.225-0.216-0.19-0.379 0.098-0.446 0.019-0.883-0.038-1.323-0.016-0.124-0.076-0.187-0.194-0.211-0.178-0.034-0.354-0.077-0.531-0.113-0.275-0.054-0.428-0.25-0.449-0.497-0.019-0.247-0.136-0.548 0.177-0.73 0.023-0.013 0.018-0.067 0.038-0.094 0.086-0.111 0.164-0.235 0.272-0.32 0.092-0.073 0.221-0.107 0.338-0.14 0.194-0.054 0.256-0.18 0.235-0.37-0.013-0.133-0.031-0.27-0.018-0.402 0.044-0.447 0.096-0.893 0.156-1.338 0.016-0.12-0.006-0.177-0.13-0.187-0.145-0.012-0.289-0.038-0.436-0.047-0.387-0.025-0.444-0.076-0.544-0.459-0.221-0.846-0.446-1.693-0.674-2.538-0.022-0.080-0.064-0.155-0.117-0.273-0.069 0.096-0.12 0.151-0.152 0.215-0.089 0.184-0.167 0.373-0.253 0.558-0.384 0.819-0.773 1.636-1.152 2.458-0.073 0.158-0.202 0.211-0.336 0.187-0.069-0.013-0.134-0.139-0.171-0.228-0.168-0.414-0.092-0.839-0.042-1.262 0.022-0.178 0.044-0.36 0.039-0.538-0.009-0.322-0.042-0.642-0.057-0.962-0.026-0.572-0.039-1.145-0.069-1.718-0.031-0.613-0.077-1.225-0.111-1.838-0.039-0.722-0.004-1.449-0.215-2.156-0.082-0.273 0.146-0.525 0.439-0.51 0.154 0.007 0.189-0.051 0.156-0.184-0.076-0.31-0.142-0.621-0.23-0.927-0.262-0.927-0.532-1.851-0.795-2.776-0.026-0.095-0.051-0.161-0.17-0.149-0.123 0.012-0.133 0.091-0.133 0.186 0.001 0.281 0.007 0.561-0.003 0.842-0.001 0.057-0.054 0.14-0.104 0.164-0.208 0.096-0.325 0.013-0.349-0.25-0.026-0.279-0.14-0.561 0.003-0.841 0.010-0.020-0.001-0.048-0.006-0.091zM6.996 5.775c-0.009-0.042-0.012-0.133-0.045-0.212-0.028-0.063-0.085-0.148-0.139-0.155-0.048-0.007-0.129 0.066-0.162 0.123-0.108 0.186-0.206 0.379-0.297 0.575-0.041 0.088-0.053 0.189-0.077 0.282 0.111 0.023 0.221 0.058 0.333 0.064 0.054 0.003 0.121-0.039 0.165-0.080 0.154-0.149 0.224-0.336 0.222-0.596z"></path>
<path fill="#fff" d="M14.033 24.273c0 0.121 0.006 0.244-0.001 0.366-0.010 0.167-0.105 0.225-0.259 0.168-0.222-0.083-0.328-0.281-0.273-0.513 0.035-0.152 0.075-0.304 0.111-0.456 0.028-0.116 0.105-0.209 0.216-0.174 0.080 0.025 0.168 0.127 0.189 0.212 0.032 0.126 0.009 0.265 0.009 0.399 0.003-0.001 0.006-0.001 0.009-0.001z"></path>
<path fill="#fff" d="M13.939 15.313c0.053-0.158 0.111-0.345 0.181-0.528 0.035-0.092 0.104-0.104 0.199-0.056 0.213 0.105 0.224 0.303 0.222 0.494-0.001 0.132-0.050 0.262-0.077 0.393-0.031 0.145-0.14 0.218-0.266 0.199-0.073-0.012-0.148-0.113-0.19-0.19-0.042-0.080-0.042-0.18-0.069-0.313z"></path>
<path fill="#fff" d="M14.36 20.693c-0.019 0.048-0.029 0.145-0.083 0.199-0.151 0.151-0.26 0.116-0.376-0.064-0.158-0.251-0.077-0.506-0.023-0.754 0.015-0.064 0.14-0.146 0.212-0.143 0.067 0.003 0.167 0.098 0.186 0.171 0.048 0.178 0.057 0.367 0.085 0.592z"></path>
</svg>
