<svg id="Layer_1" data-name="Layer 1" xmlns="http://www.w3.org/2000/svg" viewBox="0 0 87.68 84.98"><defs><style>.cls-1{fill:#fff;}</style></defs><path class="cls-1" d="M946.85,552.43c0-1.67,0-3.33,0-5s.09-1.76,1.71-2.16,3-.68,4.55-1.12a24.3,24.3,0,0,0,7.75-4.2c3.86-3,7.22-6.47,9.16-11.05,1.6-3.79,3.1-7.63,2.81-11.9-.16-2.38.13-4.77-.49-7.16a31.29,31.29,0,0,0-9.37-15.9,27.79,27.79,0,0,0-6.12-4.08,26.19,26.19,0,0,0-8.58-2.83,1.48,1.48,0,0,1-1.42-1.7q0-5.49,0-11a2.34,2.34,0,0,1,.23-.69c.17.15.41.27.5.46a36.51,36.51,0,0,1,2.22,5,3.73,3.73,0,0,0,3.1,2.8,26.58,26.58,0,0,1,7.56,3,50.77,50.77,0,0,1,4.94,3.26,2.9,2.9,0,0,0,3,.47c1.09-.37,2.21-.65,3.33-.92s1.52.18,1.22,1.25a21.84,21.84,0,0,1-1.08,3.26,3.09,3.09,0,0,0,.68,3.59,23.52,23.52,0,0,1,3.89,7.12c.91,2.63,2.06,5.21,2.09,8.08,0,1.06.79,1.57,1.67,1.94l6.83,2.88c.22.09.44.2.65.3a4.48,4.48,0,0,1-.72.44c-2.2.94-4.4,1.86-6.61,2.78a2.68,2.68,0,0,0-1.88,2.61,19.25,19.25,0,0,1-1.42,5.4,31.44,31.44,0,0,1-3,6.72c-.47.73-.66,1.73-1.28,2.26-2.13,1.8-1.58,3.9-1,6.07a1.15,1.15,0,0,1,.1.23c.6,2.37.06,2.86-2.38,2.18a5.51,5.51,0,0,1-1.17-.37,3.82,3.82,0,0,0-4.58.68,25.82,25.82,0,0,1-7.68,4.33,23.07,23.07,0,0,1-3.54,1,3.31,3.31,0,0,0-2.49,2.14c-.69,1.58-1.43,3.13-2.17,4.68a15.32,15.32,0,0,1-.79,1.35,16,16,0,0,1-.23-1.69C946.83,555.42,946.85,553.93,946.85,552.43Z" transform="translate(-900.01 -473.65)"/><path class="cls-1" d="M939.56,480.24c0,1.67,0,3.33,0,5,0,1.09-.42,1.72-1.57,1.81-3.33.29-6.3,1.71-9.22,3.17a18.19,18.19,0,0,0-4.17,3c-2.82,2.66-5.67,5.34-7.45,8.89a30,30,0,0,0-3.06,9.81,33.25,33.25,0,0,0-.47,3.41,29.73,29.73,0,0,0,12.12,24.5,39.05,39.05,0,0,0,5.19,3.33,21.16,21.16,0,0,0,5.17,1.55c3.45.65,3.46.58,3.46,4.12,0,3,0,6,0,9,0,.26-.22.52-.34.79-.11-.2-.25-.39-.35-.61-.76-1.73-1.64-3.43-2.24-5.22a3.46,3.46,0,0,0-2.56-2.35c-.87-.26-1.75-.45-2.61-.73a28.11,28.11,0,0,1-8.47-4.43c-.32-.25-.76-.37-1.06-.64a3.46,3.46,0,0,0-4.08-.73,18.43,18.43,0,0,1-3.3,1c-.47.12-1,.14-.79-.72s.39-1.95.73-2.86a5.65,5.65,0,0,0-.86-5.55,56.1,56.1,0,0,1-3.71-7.49,14.3,14.3,0,0,1-.75-2.35c-.28-1-.51-2-.75-3.08-.13-.55-.3-1.1-.38-1.67-.13-1-.67-1.43-1.68-1.81a41.86,41.86,0,0,1-5.69-2.83c-.89-.5-.84-.9.07-1.3a50.85,50.85,0,0,1,5-2c1.89-.6,2.36-2.06,2.62-3.72A31.3,31.3,0,0,1,914,496c1-1.36,1.93-2.68,1-4.51a8.71,8.71,0,0,1-.42-2.16c-.48-2.17-.23-2.44,1.92-2,.25.05.5.06.74.12,3.8,1,3.82,1,6.92-1.2a26.54,26.54,0,0,1,9.57-4.35,3.29,3.29,0,0,0,2.95-2.48,35.52,35.52,0,0,1,2-4.53,3.7,3.7,0,0,1,.61-.72,2.71,2.71,0,0,1,.29.84C939.57,476.75,939.56,478.5,939.56,480.24Z" transform="translate(-900.01 -473.65)"/><path class="cls-1" d="M938.43,523.69c-.7.41-1.49.59-1.72,1-1,2-3.37,2.35-4.71,3.92,0,.07-.32.05-.4,0a.52.52,0,0,1-.12-.44,12.24,12.24,0,0,1,3.55-4.92c1.5-1.14,1.5-1.2.6-2.79a9.17,9.17,0,0,1-.76-1.76c-.42-1.29-.77-1.42-1.74-.39-.39.41-.5.56-.79,0-.48-.9-1.09-1-1.72-.16s-1.06.54-1.84.09a38.13,38.13,0,0,0-3.66-1.44c-.71-.32-.73-1,0-1.29,1.42-.62,2.9-1.13,4.38-1.63a1,1,0,0,1,.9.23c.71,1,1.38.82,1.91-.06s.56-.36.93.06c.74.84.89.79,1.34-.15.27-.59.48-1.22.78-1.8.88-1.7.8-1.86-.78-3.15a10.9,10.9,0,0,1-3.07-4.4.51.51,0,0,1,.12-.43.39.39,0,0,1,.4,0c1.55,1.37,3.8,1.89,4.76,4,.37.84,1.21.78,2,.48s1.32-.64,2-.95,1.54-.74.52-1.72c-.2-.2-.1-.74-.07-1.12s.28-.7.18-1c-1-2.36.63-4.26,1.09-6.36,0-.21.32-.56.39-.53.28.08.64.23.74.46.65,1.51,1.24,3,1.83,4.58a.82.82,0,0,1,0,.69c-.68.83-1.27,1.6,0,2.45.09.06,0,.67-.2.85-.83.82-.48,1.26.42,1.57.39.13.8.21,1.18.36a7.78,7.78,0,0,0,2,.77c1,.07.83-1.11,1.3-1.54a33.08,33.08,0,0,1,3.41-2.4,3.7,3.7,0,0,1,.43-.25l1.25-.56c-.16.4-.3.81-.48,1.2a10.37,10.37,0,0,1-3.28,4.22,1.44,1.44,0,0,0-.5,2.14,17.74,17.74,0,0,1,.8,2.07c.35.79.73,1.61,1.69.52a.64.64,0,0,1,.43-.22c.77,0,1.27,1.61,2.26.46s1.69-.12,2.5,0a14.34,14.34,0,0,1,2.55.9c.28.11.77.37.75.47a1.64,1.64,0,0,1-.54,1,17.26,17.26,0,0,1-1.81.77,9.29,9.29,0,0,0-1.73.93c-.66.51-1.1.62-1.54-.24s-1-1-1.49-.13c-.54,1-.9.5-1.45.07-1.1-.87-1.38-.75-1.75.65a11.5,11.5,0,0,1-.3,1.19,2,2,0,0,0,.86,2.72,6.43,6.43,0,0,1,2.51,3.32c.19.56,1.27.88.57,1.59-.14.15-1.1-.44-1.64-.77a11.65,11.65,0,0,1-3.71-3.17c-.42-.61-.88-.77-1.65-.24a24.43,24.43,0,0,1-3.08,1.51c-.69.35-.85,1-.06,1.23,1.26.41.74.84.1,1.21s-.76,1-.29,1.4c.76.74.52,1.43.23,2.23-.42,1.16-.72,2.35-1.15,3.5-.13.33-.57.55-.86.82-.24-.27-.59-.5-.72-.82-.57-1.46-1.09-2.93-1.59-4.41a1,1,0,0,1,.13-.81c.74-.81.69-1.4-.26-2-.6-.37-.93-.83.15-1.08a1.62,1.62,0,0,0,.8-.5c.11-.11.09-.56,0-.6C940.58,524.65,939.54,524.2,938.43,523.69Zm1.68-3.32c0,.17,0,.34,0,.5-.09.83.56.8,1.08,1,.82.39.75-.37,1-.67s.1-.48.21-.7c.2-.38.45-.74.67-1.12a5.29,5.29,0,0,1,1,1c.19.34.11.82.24,1.2a.82.82,0,0,0,.54.46A1.68,1.68,0,0,0,946.6,520c-.24-1,0-1.26.92-.91s1.24-.5,1.5-1.14-.32-.77-.77-.92a2.6,2.6,0,0,1-.7-.22c-.49-.31-.68-.73-.15-1.17a7.93,7.93,0,0,1,.86-.48c.45-.27,1-.39.66-1.22s-.32-1.56-1.38-1.17c-.77.29-1.08.07-1.17-.68a5.24,5.24,0,0,0-.23-1.45,1,1,0,0,0-1.83-.09c-.16.27-.12.66-.27.94-.24.47-.57.89-.86,1.34-.27-.47-.56-.92-.81-1.4-.07-.14,0-.38-.07-.48-.25-.3-.57-.79-.82-.77a2,2,0,0,0-1.24.67c-.22.27-.15.78-.19,1.19-.06.74-.34,1-1.13.75-1.33-.5-1.16.66-1.46,1.36-.41,1,.58.75.9,1.08.14.15.51,0,.71.17a4.72,4.72,0,0,1,.71.64,6.48,6.48,0,0,1-.67.5,9,9,0,0,1-.89.41c-1,.44-.69,1.19-.41,1.88s.57,1.26,1.45.83S940.59,519.24,940.11,520.37Z" transform="translate(-900.01 -473.65)"/></svg>