<svg id="Layer_1" data-name="Layer 1" xmlns="http://www.w3.org/2000/svg" viewBox="0 0 88.04 84.78"><defs><style>.cls-1{fill:#fff;}</style></defs><path class="cls-1" d="M785.33,122.86A20.1,20.1,0,0,0,785,125c-.06,1.06,0,2.12,0,3.18,0,.16.15.3.19.46.67,3.11,0,4.12-3.13,4.76a29.46,29.46,0,0,0-11.82,5.7,27.64,27.64,0,0,0-7.84,9.44,23.27,23.27,0,0,0-3.08,11c0,1.08.07,2.16,0,3.24-.28,4.17,1,8,2.63,11.7a27.77,27.77,0,0,0,8.5,10.71,29.62,29.62,0,0,0,12.8,5.95c1.77.35,2.09.6,2,2.44s.38,3.81-.38,5.67c-.16.39.11,1,.15,1.44.09,1,.21,2,.22,3,0,.33-.31.67-.48,1a4,4,0,0,1-.66-.84c-.91-2.1-1.78-4.22-2.7-6.31a1.31,1.31,0,0,0-.74-.6c-1.08-.39-2.17-.76-3.27-1.06a29.29,29.29,0,0,1-10.64-5.61,2.51,2.51,0,0,0-3-.51,18,18,0,0,1-3.35.77c-1.15.28-1.52,0-1.29-1.17.17-.88.45-1.75.69-2.62a5.14,5.14,0,0,0-.74-4.69,29,29,0,0,1-5.51-14.36c-.12-1.35-1.06-1.92-2.19-2.41-2-.85-3.9-1.78-5.83-2.7a3.43,3.43,0,0,1-.68-.59,4.89,4.89,0,0,1,.6-.41c1.35-.61,2.71-1.21,4.07-1.8.75-.33,1.52-.62,2.28-.93a2.81,2.81,0,0,0,1.81-2.65,27.7,27.7,0,0,1,3.93-11.32c1-1.52,2.11-2.93,3.07-4.46a2.36,2.36,0,0,0,.16-1.56c-.34-1.61-.84-3.18-1.18-4.78-.2-1,.23-1.29,1.24-1,.4.11.8.21,1.19.34,3.71,1.13,3.82,1.29,6.85-.85a31.63,31.63,0,0,1,10.25-4.72,3.83,3.83,0,0,0,3-2.73,46.57,46.57,0,0,1,1.85-4.31,8,8,0,0,1,.44-.74,2.82,2.82,0,0,1,.54.8A19.31,19.31,0,0,1,785.33,122.86Z" transform="translate(-744.87 -119.9)"/><path class="cls-1" d="M818.3,134.56a43.43,43.43,0,0,1-1.25,4.5,1.87,1.87,0,0,0,.37,2.21,28.88,28.88,0,0,1,5.78,12.4c.22,1,.32,1.94.53,2.9a3,3,0,0,0,1.92,2.39c2.3.89,4.57,1.85,6.85,2.78a3.1,3.1,0,0,1,.41.26c-.11.11-.2.28-.33.31-2.32.57-4.22,2.16-6.58,2.68a2.85,2.85,0,0,0-2.25,2.39c-.23,1.21-.3,2.45-.57,3.65-.22.95-.66,1.85-.93,2.79-1.07,3.8-3.23,7-5.49,10.16a1.66,1.66,0,0,0-.31,1.79c.47,1.21.77,2.49,1.13,3.75a2.57,2.57,0,0,1,.1.73c0,.66-.15,1.16-1,.89-1.17-.36-2.38-.63-3.54-1a2.77,2.77,0,0,0-3,.46c-.86.74-1.91,1.27-2.82,2-2.56,1.94-5.63,2.7-8.57,3.7-1.77.61-3,1.38-3.6,3.24a32.67,32.67,0,0,1-1.93,4.27c-.11.22-.5.3-.76.44-.06-.28-.24-.6-.18-.85a11.37,11.37,0,0,0,0-4.89,36.12,36.12,0,0,1-.16-5.71c0-.72.4-1,1.05-1.13,1.58-.42,3.1-1.06,4.7-1.39,4.27-.91,7.58-3.43,10.72-6.25.43-.39.8-.85,1.24-1.23,3.43-2.95,5.24-6.88,6.84-11A20.09,20.09,0,0,0,818,163c-.17-2.55.25-5.11-.48-7.66-2.36-8.28-6.91-14.88-14.49-19.2a27.79,27.79,0,0,0-9.23-3.21c-.75-.13-1.22-.27-1.29-1.14-.1-1.23-.43-2.44-.46-3.66-.07-2.49,0-5,0-7.49,0-.25.31-.5.47-.75.24.18.59.31.69.55.69,1.58,1.36,3.17,2,4.79a4,4,0,0,0,3,2.58,35,35,0,0,1,12.69,6.41c1,.78,2,.54,3.07.27a31.77,31.77,0,0,0,3.08-.84C818,133.31,818.27,133.67,818.3,134.56Z" transform="translate(-744.87 -119.9)"/><path class="cls-1" d="M771.62,149.36c0-.67,0-1.33,0-2,0-.12.17-.23.27-.35.1.12.28.24.29.37a4.92,4.92,0,0,0,1.84,3.4,4.69,4.69,0,0,0,6.44.36,37.69,37.69,0,0,1,4.63-2.83c.44-.23,1.69-1.09,1.66.63,0,.33,0,.85.3.05.72-2.11,2.51-1.4,3.78-1.09a18.73,18.73,0,0,1,4.19,2c.8.43.7,1.26.71,2,0,.36.09.73.51.34.59-.55,1.08-.44,1.78-.13a5.07,5.07,0,0,0,5.9-1.65l1.45-1.94a11.77,11.77,0,0,1,.31,2.55,6.58,6.58,0,0,1-6.06,6.33,3.94,3.94,0,0,0-3.59,4.48,1.62,1.62,0,0,1-1.54,2c-1.7.34-1.67.34-1.77,2-.09,1.39-.27,2.78-.39,4.17,0,.32-.09.75.07.95,1.11,1.29.16,2.27-.44,3.28a15.6,15.6,0,0,1-1.24,1.77c-.44.53-1,1-1.44,1.5-.08-.56-.2-1.12-.25-1.68a2.59,2.59,0,0,0-1.3-2.24,2.81,2.81,0,0,1-1-1.07c-.32-.63-.07-2.43-1.32-.49,0,0-.77-.31-.78-.49a31.29,31.29,0,0,1,.1-3.21c0-.65.28-1.29.3-1.94,0-1.3,0-1.3-1.43-1.34-1.66,0-2.28-.41-2-2,.46-2.52-1.43-3.72-2.5-5.39-.16-.25-.74-.29-1.13-.35a7.63,7.63,0,0,1-5.69-4.22,14.74,14.74,0,0,1-1-3.76Zm12.79,12.15c1.24-.32,2.18-.53,3.1-.83a.78.78,0,0,0,.31-.72c-.16-.44-.39-1-.76-1.19a6.54,6.54,0,0,0-2.09-.33c-.7-.05-1.79,1.12-1.59,1.85C783.53,160.79,784.1,161.16,784.41,161.51Zm8.57-.58c.72.28,1.42.15,1.41-.69a4.88,4.88,0,0,0-.6-1.82.68.68,0,0,0-.58-.25,18.36,18.36,0,0,0-2.48,1.32,1.17,1.17,0,0,0-.28,1.06c.16.5.58.65,1.18.41A3.79,3.79,0,0,1,793,160.93Zm-2.21,4.15c0-1.85-.76-2.34-2.18-1.63l-.21.11a1.92,1.92,0,0,0-.54,2.2,8.12,8.12,0,0,0,1.49,1.21Z" transform="translate(-744.87 -119.9)"/></svg>