<svg id="Layer_1" data-name="Layer 1" xmlns="http://www.w3.org/2000/svg" viewBox="0 0 87.07 85.27"><defs><style>.cls-1{fill:#fff;}</style></defs><path class="cls-1" d="M-324.76,657c0,1.75,0,3.5,0,5.25,0,1-.23,1.76-1.46,1.84-3.31.23-6.19,1.81-9.13,3.11a15,15,0,0,0-4.12,2.94c-2.58,2.44-5.23,4.83-7.05,8a29.44,29.44,0,0,0-4.31,13.65,30.58,30.58,0,0,0,2.72,14.14,26,26,0,0,0,8.58,10.79c2.59,1.86,5.13,3.78,8.22,4.73a39.08,39.08,0,0,0,5,1.27c1.14.18,1.58.64,1.57,1.76,0,3.58,0,7.16,0,10.74,0,.26-.25.51-.39.76a8.35,8.35,0,0,1-.43-.77,41.78,41.78,0,0,0-2.72-6.23c-.59-.93-2.14-1.5-3.36-1.77a29.91,29.91,0,0,1-11-5.51c-1.23-.89-2.13-1.28-3.55-.66-.95.42-2.15.27-3.09.7-1.55.72-1.29-.29-1.2-1.09a5.73,5.73,0,0,1,.55-2.12c1.28-2.2.37-4-.85-5.81a29.53,29.53,0,0,1-5.24-13.78c-.21-1.92-1.68-2.19-3-2.81-1.53-.73-3.06-1.44-4.57-2.21-.6-.3-1.17-.7,0-1.17,1.51-.62,3-1.37,4.51-1.94,1.79-.66,2.89-1.46,3.15-3.74a30.56,30.56,0,0,1,4.49-12.07c.75-1.27,1.73-2.4,2.46-3.68a2.76,2.76,0,0,0,.08-1.78c-.32-1.43-.74-2.83-1.16-4.23-.31-1,.25-1.14,1-1a6.46,6.46,0,0,1,1.87.5c2.62,1.4,4.73.43,6.93-1.1,3.1-2.15,6.37-4,10.24-4.53a2.71,2.71,0,0,0,2.34-2.09c.58-1.95,1.39-3.84,2.14-5.74.1-.25.37-.43.57-.65a3,3,0,0,1,.25.84C-324.75,653.31-324.76,655.14-324.76,657Z" transform="translate(364.3 -650.64)"/><path class="cls-1" d="M-317.2,730.47c0-2.19.13-4.38-.06-6.55-.09-1,.17-1.12.92-1.22a26,26,0,0,0,10.94-4,30.06,30.06,0,0,0,9.08-8.86,32.11,32.11,0,0,0,4-8.87,43,43,0,0,0,.71-6.35,25.72,25.72,0,0,0-2.61-14.14,29.82,29.82,0,0,0-8.84-10.84,28.51,28.51,0,0,0-13-5.54c-.88-.14-1.06-.49-1.11-1.26-.12-2.06-.37-4.1-.47-6.15-.08-1.67,0-3.33,0-5a2.45,2.45,0,0,1,.32-.82c.21.21.5.38.61.63a27.66,27.66,0,0,1,2.29,5.15c.41,1.72,1.51,2.08,2.84,2.56a75.07,75.07,0,0,1,7.51,3,20.64,20.64,0,0,1,4.63,3.19,3.63,3.63,0,0,0,3.68.64c1.39-.36,2.77-.75,4.15-1.13a15.65,15.65,0,0,1-.76,3.93c-1.1,2.31.15,4,1.24,5.66a28.21,28.21,0,0,1,4.87,12.94,3.11,3.11,0,0,0,2.18,2.9c1.78.6,3.51,1.36,5.23,2.11a10.34,10.34,0,0,1,1.57,1c-.52.23-1,.46-1.55.67-1.72.7-3.51,1.28-5.15,2.14a3.22,3.22,0,0,0-1.94,2.26c-.83,3.56-1.33,7.27-3.33,10.48-1.2,1.93-2.27,3.95-3.55,5.82a2.8,2.8,0,0,0-.51,2.69c.28.85.45,1.74.7,2.6.65,2.26.45,2.73-1.53,1.86-3.43-1.51-5.9-.33-8.46,1.72-2.94,2.35-6.68,3-10.07,4.41a2.32,2.32,0,0,0-1.73,1.75,28.3,28.3,0,0,1-2.23,4.86c-.1.21-.23.41-.34.61a4,4,0,0,1-.19-.83c0-1.33,0-2.66,0-4Z" transform="translate(364.3 -650.64)"/><path class="cls-1" d="M-310.23,703.67a11.76,11.76,0,0,1,.72,1c.42.67,1.27,1.77,1.11,2a7.69,7.69,0,0,1-2.93,2.32c-.95.36-1.71-.64-2.19-1.57s-1-2-1.65-3c-.15-.24-.6-.3-.92-.45a3.87,3.87,0,0,0,.22.86c.72,1.39,1.39,2.8,2.22,4.11s-.19,1.69-.93,2.07a1.8,1.8,0,0,1-2.53-.9,7.23,7.23,0,0,0-.26-.94c-.2-.41-.47-.79-.71-1.18-.05.41-.13.82-.17,1.22s0,.5,0,.75c0,3.35,0,3.3-3.45,3.19-1.37,0-2-.52-1.93-1.92s0-3,0-4.49l.36-.23-.22-.22-.23.36a17.28,17.28,0,0,1-.56,2.49c-.26.7-.76,1.85-1.15,1.85a8.13,8.13,0,0,1-2.9-.93c-.1,0,0-.73.13-1,.35-.74.85-1.41,1.16-2.15s.62-1.82.92-2.73l-.09.1.57-1.1-.07.1.57-1.1-.08.1.59-.59-.08.09c2.52-1.6,6.11-1.38,8,.5l.24.82c.1-.08.29-.21.28-.24a6.9,6.9,0,0,0-.43-.67c.13-.54.25-1.09.39-1.63.33-1.28-.21-1.86-1.48-1.87l.1.08c-1.34-1.59-1.1-1.63.7-2.52,2.65-1.32,4.4.07,6.28,1.4.94.66,1.85,1.37,2.73,2.12.67.56,1.75,1.17,1.79,1.82A10.32,10.32,0,0,1-307,705c0,.1-.7.14-1,0-.76-.42-1.46-.93-2.19-1.41l-.5-.5-.5-.5-.5-.5-.5-.5-.5-.5-.23-.36-.21.22.35.23.5.5.5.5.5.5.5.5Zm-4-4,.23.35.21-.22-.35-.22-.23-.36-.21.22Zm-4.2,6.05c-.08.13-.22.26-.22.39s.13.27.21.41c.08-.13.22-.26.22-.39S-318.35,705.86-318.43,705.72Z" transform="translate(364.3 -650.64)"/><path class="cls-1" d="M-323.23,685.67c.18.42.24,1,.55,1.24,1.19.9,1.75,1.59-.16,2.25-.24.08-.29.67-.43,1l.08-.09c-.92,1.13-1.79,2.32-2.8,3.37a1.48,1.48,0,0,1-1.39.12,11.92,11.92,0,0,1-1.76-1.51l-.23-.36-.21.22.35.23c.51,2.58-1,3.91-3,4.91a14.79,14.79,0,0,0-1.71,1.17,9.38,9.38,0,0,1-1.27-2.07c-1.35-4.63-1.76-10.3,3.19-14.33.59-.49,1.09-1.07,1.84-.27q-1,.54,0,1.08l.24.83c.1-.08.29-.21.28-.24a6.9,6.9,0,0,0-.43-.67v-.91h2.5l-.1-.09,1.18,1,.41-1.52-.08.1.59-.59-.1.09c2.55-.09,2.58-.11,2.62-2.44,0-.5,0-1,0-1.5,0-2.41.41-2.71,2.75-2.55,1.17.07,1.65.58,1.61,1.71,0,.58,0,1.16,0,1.74,0,1.52-.16,2.87,2,3.35,1.3.3,1.24,1.17.18,2.23a31.89,31.89,0,0,1-2.77,2.69,3,3,0,0,1-2,.5,5.5,5.5,0,0,1-1.76-.82l-.5-.5-.5-.5-.5-.5-1-.5-.23-.36-.21.22.35.23,1,.5.5.5.5.5Zm-7.41,2.91v-1.42l.4-1.62-.33-.06c-.06.46-.12.91-.17,1.37a1.93,1.93,0,0,0,0,.24c-.79.52-.78,1,0,1.57a5.9,5.9,0,0,0,0,.94,3.92,3.92,0,0,0,.32.77c.09-.29.3-.59.25-.85A3.22,3.22,0,0,0-330.64,688.58Zm7.14-.11a26.29,26.29,0,0,0-2.59-1.87,4.7,4.7,0,0,0-1.49-.25c.16.57.17,1.28.53,1.67a4.42,4.42,0,0,0,1.85,1.08C-324.91,689.2-324.45,688.85-323.5,688.47Z" transform="translate(364.3 -650.64)"/><path class="cls-1" d="M-326.13,704.07c-.85,1.26-1.73,2.5-2.54,3.79s-1.37,1.52-2.72.7l-.82-.52c-1.76-1.2-1.8-1.62-.33-3.23.32-.36.6-.76.9-1.15l.5-.49.5-.5.5-.5.5-.5a1.27,1.27,0,0,0,1.5-1.5l.36-.23-.22-.22-.23.36-1.5,1.5-.5.5-.5.5-.5.5-.5.5a9.15,9.15,0,0,0-1.47.73c-1.27.93-1.39.91-2.06-.58s-.49-2.63,1-3.71c1.85-1.35,3.7-2.7,5.59-4,.51-.35,1.26-.79,1.74-.66a26.2,26.2,0,0,1,3.53,1.54l-.82,1.75.1-.08c-1.9.68-2,.85-.9,2.24a3,3,0,0,1,.32.85l.08-.09-.59.59.08-.1-.57,1.1.07-.1-.57,1.1Z" transform="translate(364.3 -650.64)"/><path class="cls-1" d="M-312.18,691.65c2-1.95,1.23-4.31,1-6.6a9.58,9.58,0,0,1,0-2.27c.23-1.45.53-1.57,1.55-.7a10.52,10.52,0,0,1,3.9,7.93,25.67,25.67,0,0,1-1.1,7c-.24,1-.95,1.32-1.87.72-.35-.22-.56-.7-.92-.83-2.7-.93-3.38-2.77-2.51-5.35Z" transform="translate(364.3 -650.64)"/><path class="cls-1" d="M-312.1,691.56a13.19,13.19,0,0,1-1.73,1.62c-.44.29-1.34.59-1.6.37a22.35,22.35,0,0,1-2.69-2.89c-.35-.43-.41-1.3-.8-1.46-1.79-.71-1.11-1.47-.19-2.31,1.8-1.64,3.61-3.26,5.39-4.91,1.05-1,1.43-.55,1.46.65.07,3,.95,6,.08,9Zm-1.69-4.29c-.47-.54-.69-1-1-1.15-.77-.3-3.15,1.38-3.19,2.21,0,.19.22.56.33.56a9.55,9.55,0,0,0,2.52-.28C-314.67,688.44-314.33,687.81-313.79,687.27Z" transform="translate(364.3 -650.64)"/><path class="cls-1" d="M-323.27,690.19a10.58,10.58,0,0,1,1.87-.57c.59-.07,1.65-.09,1.76.18a17.24,17.24,0,0,0,3.17,4.51c.07.07-.27.61-.52.79-.89.68-1.84,1.27-2.74,1.94a1.92,1.92,0,0,1-2.49,0,21.94,21.94,0,0,0-2.36-1.62c-1-.5-1.23-.91-.31-1.73s2.23-1.86,1.7-3.56Z" transform="translate(364.3 -650.64)"/><path class="cls-1" d="M-327.64,681.68c-.51-.63-.9-1.47-1.56-1.84-1.42-.8-1-1.59-.08-2.22a37,37,0,0,1,3.62-2c1.05-.56,1.53.15,1.83.92.47,1.19-.13,2.43-1.38,3.28-.25.16-.36.52-.53.8l.1-.09-.59.59.08-.1-1.59.52Z" transform="translate(364.3 -650.64)"/><path class="cls-1" d="M-318.12,678c0-2.33.87-2.92,2.65-2.23a5,5,0,0,1,1.29.7c.82.66,2.31,1.55,2.2,2-.23,1-1.34,1.75-2.1,2.6-.1.12-.33.27-.39.24a32.86,32.86,0,0,1-3.23-2.21C-318.06,678.85-318.08,678.14-318.12,678Z" transform="translate(364.3 -650.64)"/><path class="cls-1" d="M-324.24,698.66h6.61l-.1-.08c-.11.32-.22.91-.35.91-1.9.06-3.81.06-5.71,0-.13,0-.24-.59-.35-.91Z" transform="translate(364.3 -650.64)"/></svg>