<!-- Generated by IcoMoon.io -->
<svg version="1.1" xmlns="http://www.w3.org/2000/svg" width="32" height="32" viewBox="0 0 32 32">
<title>fighters-ally</title>
<path fill="#fff" d="M25.842 6.12c-0.043 0.079-0.065 0.18-0.129 0.237-0.216 0.201-0.424 0.439-0.676 0.583-0.302 0.173-0.36 0.784-0.137 1.057 0.403 0.496 0.77 1.029 1.115 1.575 0.259 0.417 0.489 0.863 0.683 1.316 0.216 0.511 0.396 1.036 0.561 1.561 0.115 0.36 0.245 0.741 0.237 1.108-0.014 0.921 0.748 0.698 1.223 0.87 0.525 0.187 1.086 0.288 1.626 0.46 0.093 0.029 0.201 0.367 0.165 0.396-0.18 0.151-0.396 0.266-0.619 0.345-0.201 0.072-0.424 0.094-0.633 0.122-0.338 0.058-0.683 0.151-1.021 0.151-0.41 0-0.59 0.115-0.633 0.561-0.065 0.604-0.216 1.194-0.36 1.784-0.173 0.683-0.345 1.374-0.583 2.035-0.165 0.453-0.446 0.87-0.705 1.287-0.266 0.432-0.669 0.806-0.827 1.266-0.086 0.266 0.151 0.683 0.316 0.985 0.194 0.36 0.482 0.669 0.726 1 0.108 0.144 0.295 0.309 0.28 0.453-0.043 0.374-0.475 0.381-0.892 0.072-0.388-0.288-0.842-0.489-1.216-0.791-0.662-0.539-1 0.065-1.431 0.352-0.597 0.403-1.151 0.913-1.813 1.165-1.18 0.453-2.431 0.719-3.625 1.129-0.194 0.065-0.288 0.482-0.381 0.755-0.151 0.446-0.266 0.906-0.396 1.367-0.194 0.726-0.396 1.453-0.575 2.187-0.079 0.331-0.237 0.525-0.604 0.468-0.022 0-0.050-0.022-0.050-0.036-0.014-0.065 0-0.137-0.029-0.187-0.043-0.101-0.151-0.194-0.158-0.295-0.043-0.532-0.007-1.079-0.101-1.604-0.129-0.719-0.417-1.417-0.511-2.136-0.122-0.928-0.892-0.583-1.374-0.77-0.676-0.259-1.417-0.374-2.093-0.633-0.568-0.216-1.115-0.503-1.618-0.842-0.64-0.439-1.208-0.978-1.841-1.424-0.151-0.108-0.489-0.065-0.676 0.036-0.489 0.259-0.913 0.633-1.41 0.856-0.259 0.122-0.611 0.029-0.921 0.029 0.043-0.194 0.022-0.432 0.137-0.568 0.324-0.396 0.741-0.726 1.043-1.136 0.194-0.259 0.403-0.669 0.324-0.928-0.129-0.46-0.475-0.856-0.712-1.287-0.129-0.23-0.23-0.482-0.331-0.726-0.18-0.41-0.381-0.82-0.518-1.244-0.137-0.432-0.216-0.878-0.309-1.316-0.072-0.345-0.129-0.698-0.18-1.050-0.029-0.223-0.058-0.453-0.043-0.683 0.022-0.568-0.475-0.446-0.755-0.525-0.575-0.165-1.18-0.223-1.769-0.352-0.072-0.014-0.165-0.316-0.137-0.331 0.18-0.129 0.374-0.252 0.583-0.316 0.446-0.137 0.899-0.23 1.345-0.338 0.23-0.058 0.583-0.036 0.669-0.18 0.194-0.316 0.245-0.712 0.367-1.072 0.201-0.604 0.403-1.216 0.633-1.805 0.137-0.352 0.345-0.676 0.518-1.014 0.158-0.302 0.288-0.619 0.468-0.899 0.209-0.331 0.547-0.597 0.676-0.949 0.079-0.209-0.108-0.532-0.201-0.791-0.065-0.187-0.165-0.367-0.273-0.532-0.122-0.187-0.288-0.352-0.417-0.539-0.194-0.266-0.367-0.554-0.561-0.834-0.216-0.302-0.453-0.604-0.676-0.906-0.187-0.259-0.381-0.525-0.561-0.791-0.022-0.029 0.029-0.108-0.014-0.173 0.029-0.058 0.050-0.115 0.072-0.151 0.108-0.036 0.223-0.094 0.345-0.108 0.065-0.007 0.144 0.058 0.201 0.101 0.165 0.129 0.331 0.266 0.496 0.396 0.194 0.158 0.381 0.324 0.583 0.468 0.223 0.165 0.475 0.288 0.705 0.446 0.352 0.259 0.691 0.539 1.050 0.798 0.18 0.137 0.388 0.237 0.59 0.36 0.151 0.086 0.316 0.266 0.446 0.245 0.288-0.050 0.568-0.173 0.827-0.309 0.273-0.144 0.518-0.36 0.791-0.518 0.432-0.252 0.87-0.489 1.323-0.705 0.273-0.137 0.568-0.23 0.863-0.324 0.338-0.108 0.683-0.223 1.036-0.288 0.273-0.058 0.561-0.036 0.834-0.079 0.245-0.043 0.496-0.101 0.719-0.209 0.050-0.029-0.036-0.28 0.007-0.41 0.043-0.165 0.165-0.302 0.237-0.46 0.072-0.173 0.122-0.352 0.173-0.532 0.137-0.439 0.266-0.885 0.396-1.323 0.079-0.273 0.137-0.554 0.223-0.82 0.022-0.058 0.144-0.072 0.216-0.108 0.093-0.043 0.18-0.093 0.266-0.137 0.036 0.108 0.079 0.216 0.101 0.331 0.093 0.453 0.194 0.906 0.266 1.367 0.050 0.309 0.022 0.64 0.093 0.942 0.093 0.424 0.158 0.899 0.41 1.23 0.158 0.209 0.626 0.158 0.949 0.252 0.64 0.173 1.287 0.345 1.92 0.539 0.316 0.093 0.64 0.209 0.935 0.36 0.424 0.216 0.842 0.46 1.244 0.712 0.439 0.273 0.842 0.64 1.309 0.834 0.194 0.079 0.525-0.165 0.791-0.266 0.273-0.101 0.539-0.237 0.82-0.288 0.173-0.050 0.374 0.050 0.561 0.093v0zM5.494 19.261c0.014 0.022 0.058 0.101 0.101 0.18 0.475 0.863 0.827 1.841 1.46 2.568 0.935 1.064 2.007 2.043 3.15 2.884 1.273 0.935 2.762 1.489 4.38 1.503 1.237 0.007 2.489-0.022 3.711-0.194 0.726-0.108 1.431-0.489 2.107-0.82 0.633-0.302 1.23-0.683 1.82-1.064 0.381-0.245 0.748-0.539 1.086-0.842 0.259-0.23 0.482-0.511 0.698-0.791 0.453-0.575 0.949-1.129 1.323-1.755 0.324-0.532 0.525-1.144 0.741-1.741 0.201-0.554 0.403-1.108 0.511-1.683s0.101-1.165 0.144-1.748c0.029-0.352 0.101-0.719 0.065-1.065-0.043-0.439-0.18-0.87-0.273-1.309-0.086-0.417-0.122-0.863-0.273-1.259-0.187-0.511-0.46-1-0.712-1.482-0.252-0.475-0.489-0.964-0.813-1.395-0.41-0.547-0.885-1.057-1.367-1.546-0.324-0.331-0.705-0.611-1.079-0.885-0.338-0.252-0.698-0.475-1.064-0.683-0.396-0.23-0.784-0.482-1.216-0.626-0.647-0.209-1.331-0.331-1.992-0.489-0.46-0.108-0.921-0.23-1.388-0.302-0.396-0.065-0.798-0.122-1.194-0.093-0.619 0.050-1.23 0.144-1.834 0.273-0.611 0.137-1.216 0.309-1.805 0.518-0.345 0.122-0.633 0.381-0.964 0.554-0.18 0.093-0.424 0.086-0.583 0.209-0.503 0.374-1.007 0.762-1.453 1.201-0.511 0.496-0.964 1.065-1.453 1.59-0.029 0.036-0.165-0.029-0.194 0.007-0.122 0.137-0.23 0.288-0.324 0.446-0.259 0.432-0.525 0.856-0.755 1.309-0.194 0.381-0.367 0.784-0.496 1.194s-0.23 0.827-0.288 1.252c-0.129 0.877-0.266 1.755-0.331 2.64-0.029 0.403 0.093 0.82 0.144 1.223 0.029 0.245 0.050 0.496 0.093 0.734 0.093 0.482 0.201 0.949 0.316 1.489z"></path>
<path fill="#fff" d="M5.444 5.868c0.007 0 0.014 0 0.022-0.007 0 0 0 0.007 0 0.007-0.007 0-0.014 0-0.022 0.007 0.007 0.007 0 0 0-0.007z"></path>
<path fill="#fff" d="M25.842 6.12c0.007 0.022 0.014 0.036 0.022 0.058 0 0-0.007 0-0.007 0-0.007-0.014-0.007-0.036-0.014-0.058 0 0 0 0 0 0z"></path>
<path fill="#fff" d="M5.868 4.336c0 0-0.007 0-0.007-0.007 0 0 0-0.007 0.007-0.007 0 0 0.007 0 0.007 0.007 0 0 0 0-0.007 0.007z"></path>
<path fill="#fff" d="M7.192 9.191c0.007 0.007 0.007 0.014 0.007 0.022 0 0-0.007 0.007-0.007 0.007-0.007-0.007-0.007-0.014-0.014-0.022 0.007-0.007 0.007-0.007 0.014-0.007z"></path>
<path fill="#fff" d="M6.962 9.522c0 0 0-0.007 0-0.007s0.007 0 0.007 0c0 0.007 0 0.014 0 0.014 0-0.007 0-0.007-0.007-0.007z"></path>
</svg>
