<!-- Generated by IcoMoon.io -->
<svg version="1.1" xmlns="http://www.w3.org/2000/svg" width="32" height="32" viewBox="0 0 32 32">
<title>fighters-mystic</title>
<path fill="#fff" d="M32.010 16.772c-0.017 0.239-0.040 0.477-0.049 0.716-0.046 1.149-0.402 2.215-0.847 3.261-0.223 0.523-0.393 1.070-0.58 1.609-0.224 0.646-0.612 1.196-0.998 1.749-0.084 0.121-0.179 0.239-0.279 0.347-0.424 0.462-0.84 0.93-1.282 1.375-0.342 0.343-0.752 0.59-1.213 0.753-0.156 0.054-0.303 0.133-0.449 0.212-0.499 0.269-1.016 0.457-1.596 0.45-0.22-0.003-0.446 0.037-0.66 0.090-0.509 0.123-1.012 0.016-1.516-0.016-0.111-0.007-0.227 0.037-0.342 0.050-0.129 0.014-0.26 0.043-0.386 0.027-0.779-0.096-1.532-0.287-2.267-0.575-0.62-0.242-1.269-0.413-1.888-0.657-0.998-0.393-1.794-1.049-2.425-1.921-0.342-0.47-0.726-0.909-1.092-1.362-0.293-0.363-0.459-0.782-0.576-1.229-0.046-0.177-0.109-0.366-0.214-0.512-0.337-0.462-0.676-0.923-1.056-1.349-0.507-0.57-0.763-1.249-0.88-1.975-0.051-0.317 0.034-0.673 0.123-0.993 0.193-0.695 0.433-1.389 0.929-1.927 0.63-0.685 1.385-1.209 2.309-1.433 0.191-0.047 0.396-0.053 0.595-0.060 0.073-0.003 0.152 0.037 0.222 0.071 0.167 0.083 0.327 0.131 0.523 0.063 0.394-0.137 0.787-0.094 1.168 0.076 0.031 0.014 0.066 0.027 0.089 0.050 0.669 0.655 1.311 1.331 1.589 2.259 0.207 0.692 0.282 1.398 0.196 2.118-0.007 0.057-0.016 0.114-0.010 0.172 0.049 0.464-0.050 0.909-0.179 1.348-0.029 0.1-0.1 0.189-0.154 0.28-0.106 0.174-0.213 0.347-0.32 0.52-0.14 0.223-0.094 0.426 0.044 0.636 0.352 0.535 0.785 0.993 1.269 1.409 0.144 0.124 0.25 0.292 0.389 0.423 0.117 0.113 0.242 0.236 0.387 0.297 0.849 0.366 1.729 0.462 2.63 0.224 0.564-0.149 1.070-0.427 1.536-0.772 0.28-0.207 0.546-0.433 0.815-0.655 0.409-0.339 0.75-0.735 1.009-1.2 0.244-0.439 0.535-0.856 0.729-1.316 0.284-0.67 0.393-1.393 0.484-2.114 0.116-0.906 0.232-1.814 0.317-2.723 0.031-0.337-0.003-0.685-0.041-1.022-0.063-0.55-0.124-1.103-0.24-1.644-0.117-0.552-0.317-1.078-0.613-1.571-0.254-0.424-0.462-0.88-0.514-1.386 0-0.006 0-0.011-0.001-0.017-0.21-0.427-0.389-0.877-0.75-1.209-0.142-0.13-0.33-0.212-0.469-0.343-0.159-0.152-0.279-0.34-0.427-0.503-0.113-0.124-0.229-0.252-0.366-0.347-0.193-0.134-0.394-0.249-0.487-0.486-0.019-0.049-0.104-0.076-0.163-0.101-0.209-0.087-0.432-0.147-0.627-0.256-0.259-0.144-0.502-0.317-0.742-0.492-0.449-0.324-0.936-0.566-1.463-0.733-0.151-0.049-0.306-0.101-0.446-0.176-0.916-0.487-1.896-0.773-2.91-0.973-0.559-0.11-1.11-0.259-1.669-0.376-0.166-0.034-0.342-0.021-0.512-0.030-0.256-0.011-0.513-0.026-0.769-0.029-0.164-0.001-0.33 0.007-0.493 0.026-0.442 0.051-0.883 0.1-1.322 0.171-0.717 0.116-1.422 0.282-2.054 0.667-0.19 0.116-0.387 0.222-0.593 0.306-0.366 0.153-0.713 0.324-0.983 0.632-0.071 0.081-0.184 0.152-0.289 0.171-0.189 0.034-0.296 0.152-0.407 0.286-0.123 0.147-0.254 0.29-0.397 0.419-0.532 0.479-1.036 0.98-1.459 1.562-0.133 0.183-0.304 0.336-0.452 0.509-0.126 0.147-0.254 0.293-0.363 0.452-0.377 0.552-0.74 1.112-1.122 1.662-0.12 0.173-0.27 0.324-0.419 0.474-0.339 0.342-0.543 0.753-0.677 1.212-0.077 0.266-0.206 0.517-0.306 0.776-0.126 0.323-0.257 0.643-0.364 0.972-0.086 0.266-0.149 0.54-0.202 0.813-0.056 0.29-0.084 0.586-0.131 0.877-0.043 0.263-0.129 0.524-0.134 0.787-0.011 0.449 0.006 0.902 0.043 1.349 0.093 1.146 0.316 2.272 0.567 3.393 0.007 0.033 0.009 0.071 0.024 0.099 0.292 0.493 0.242 1.103 0.55 1.588 0.449 1.499 1.351 2.717 2.391 3.849 0.777 0.846 1.542 1.704 2.338 2.532 0.26 0.272 0.602 0.466 0.902 0.7 0.296 0.232 0.585 0.473 0.879 0.705 0.093 0.073 0.19 0.15 0.297 0.192 0.719 0.273 1.441 0.537 2.161 0.803 0.063 0.023 0.133 0.040 0.2 0.037 0.346-0.014 0.669 0.076 0.979 0.212 0.309 0.133 0.607 0.166 0.928 0.029 0.079-0.033 0.223 0.021 0.306 0.079 0.129 0.090 0.257 0.123 0.412 0.134 0.506 0.037 1.012 0.101 1.518 0.139 0.237 0.017 0.479 0.014 0.715-0.011 0.267-0.029 0.517 0.014 0.74 0.15 0.084 0.051 0.127 0.173 0.209 0.293-0.134 0.024-0.222 0.053-0.31 0.054-0.564 0.010-1.129 0.023-1.695 0.014-0.289-0.004-0.577-0.051-0.866-0.081-0.101-0.011-0.204-0.051-0.304-0.044-0.219 0.016-0.392-0.057-0.567-0.183-0.079-0.056-0.236-0.060-0.33-0.023-0.184 0.076-0.34 0.071-0.502-0.039-0.027-0.019-0.060-0.030-0.093-0.037-0.223-0.059-0.446-0.123-0.672-0.172-0.159-0.034-0.322-0.050-0.483-0.071-0.023-0.003-0.050 0.010-0.067 0.001-0.28-0.127-0.565-0.043-0.85-0.041-0.232 0-0.467-0.080-0.692-0.153-0.417-0.136-0.819-0.376-1.243-0.419-0.756-0.077-1.308-0.567-1.965-0.833-0.62-0.252-1.189-0.609-1.675-1.082-0.037-0.036-0.090-0.067-0.104-0.11-0.076-0.239-0.276-0.347-0.459-0.486-0.267-0.201-0.533-0.414-0.763-0.656-0.353-0.373-0.686-0.767-1.009-1.168-0.179-0.222-0.316-0.474-0.48-0.709-0.294-0.42-0.603-0.832-0.89-1.256-0.151-0.226-0.274-0.472-0.404-0.712-0.306-0.567-0.617-1.132-0.909-1.706-0.103-0.201-0.161-0.424-0.232-0.642-0.166-0.522-0.294-1.056-0.493-1.564-0.277-0.713-0.389-1.465-0.573-2.201-0.166-0.662-0.304-1.329-0.24-2.015 0.099-1.033 0.179-2.072 0.544-3.060 0.044-0.12 0.037-0.257 0.066-0.384 0.051-0.22 0.1-0.44 0.173-0.653 0.077-0.224 0.196-0.434 0.267-0.66 0.253-0.802 0.554-1.578 0.983-2.308 0.433-0.737 0.812-1.508 1.229-2.255 0.094-0.17 0.23-0.326 0.372-0.463 0.206-0.2 0.359-0.424 0.456-0.693 0.047-0.131 0.117-0.257 0.189-0.379 0.070-0.117 0.163-0.222 0.232-0.34 0.499-0.872 1.221-1.536 2.015-2.121 0.459-0.337 0.96-0.615 1.446-0.915 0.081-0.050 0.173-0.099 0.266-0.117 0.387-0.076 0.72-0.274 1.068-0.442 0.576-0.276 1.2-0.356 1.825-0.429 0.6-0.070 1.202-0.113 1.791-0.282 0.273-0.077 0.577-0.044 0.867-0.063 0.113-0.007 0.226-0.021 0.337-0.031 0.32 0 0.64 0 0.96 0 0.26 0.023 0.52 0.044 0.78 0.069 0.802 0.074 1.605 0.134 2.404 0.229 0.939 0.111 1.842 0.38 2.73 0.703 0.813 0.297 1.642 0.553 2.441 0.883 0.639 0.263 1.18 0.74 1.875 0.897 1.049 0.556 2.041 1.192 2.881 2.045 0.549 0.559 1.006 1.182 1.396 1.858 0.089 0.153 0.177 0.314 0.303 0.433 0.203 0.19 0.343 0.412 0.447 0.66 0.126 0.3 0.262 0.597 0.37 0.902 0.2 0.557 0.399 1.118 0.569 1.685 0.066 0.22 0.049 0.464 0.079 0.695 0.189 1.398 0.384 2.794 0.57 4.192 0.039 0.287 0.044 0.579 0.064 0.869 0.004 0.223 0.004 0.44 0.004 0.657zM28.021 24.941c-0.36 0.26-0.364 0.267-0.267 0.407 0.121-0.091 0.242-0.181 0.372-0.279-0.039-0.049-0.070-0.086-0.104-0.129z"></path>
<path fill="#fff" d="M5.046 18.293c-0.141-0.19-0.264-0.34-0.372-0.502-0.144-0.217-0.147-0.45 0.014-0.656 0.32-0.407 0.657-0.802 0.983-1.206 0.11-0.137 0.199-0.292 0.309-0.43 0.123-0.156 0.256-0.302 0.386-0.45 0.053-0.060 0.123-0.11 0.16-0.177 0.314-0.583 0.807-1.008 1.299-1.422 0.773-0.652 1.535-1.329 2.378-1.878 0.99-0.646 2.042-1.215 3.22-1.482 0.712-0.162 1.416-0.356 2.135-0.467 0.462-0.071 0.945 0.003 1.416-0.027 0.697-0.044 1.343 0.142 1.988 0.364 0.107 0.037 0.236 0.021 0.354 0.016 0.343-0.017 0.596 0.129 0.719 0.443 0.054 0.137 0.040 0.306 0.039 0.46-0.001 0.083-0.067 0.169-0.057 0.247 0.013 0.097 0.054 0.239 0.121 0.266 0.069 0.029 0.212-0.034 0.273-0.103 0.101-0.111 0.163-0.26 0.242-0.393 0.149-0.25 0.277-0.254 0.429-0.011 0.103 0.166 0.259 0.25 0.443 0.297 0.247 0.064 0.506 0.109 0.739 0.21 0.22 0.096 0.416 0.252 0.62 0.383 0.071 0.046 0.136 0.104 0.207 0.15 0.266 0.176 0.535 0.347 0.799 0.524 0.061 0.041 0.117 0.093 0.163 0.15 0.323 0.402 0.657 0.795 0.96 1.212 0.302 0.416 0.567 0.857 0.85 1.286 0.463 0.699 0.696 1.486 0.85 2.297 0.037 0.193-0.023 0.403-0.040 0.643-0.249-0.14-0.409-0.29-0.532-0.5-0.076-0.13-0.203-0.236-0.319-0.339-0.179-0.157-0.38-0.289-0.55-0.454-0.437-0.427-0.863-0.865-1.289-1.302-0.166-0.171-0.297-0.386-0.484-0.526-0.447-0.334-0.909-0.655-1.383-0.949-1.106-0.686-2.331-1.029-3.61-1.209-0.463-0.066-0.919-0.184-1.383-0.226-0.367-0.033-0.742 0.011-1.112 0.033-0.496 0.027-0.992 0.064-1.488 0.099-0.050 0.003-0.101 0.016-0.15 0.031-0.716 0.233-1.435 0.46-2.107 0.809-0.136 0.070-0.29 0.1-0.432 0.162-0.276 0.121-0.556 0.236-0.819 0.382-0.559 0.31-1.099 0.655-1.662 0.955-0.699 0.372-1.289 0.885-1.894 1.381-0.45 0.37-0.88 0.762-1.322 1.142-0.077 0.067-0.159 0.137-0.252 0.177-0.314 0.136-0.616 0.28-0.842 0.592zM25.576 15.756c-0.104 0.222-0.021 0.377 0.217 0.422 0.059-0.2-0.073-0.304-0.217-0.422z"></path>
<path fill="#fff" d="M19.838 19.698c0.076-0.312 0.163-0.652 0.237-0.998 0.021-0.1-0.003-0.209-0.001-0.314 0-0.216-0.011-0.432 0.014-0.645 0.007-0.057 0.124-0.13 0.201-0.143 0.236-0.041 0.477-0.050 0.713-0.086 0.647-0.099 1.282-0.239 1.892-0.489 0.32-0.131 0.66-0.216 0.989-0.327 0.104-0.036 0.181-0.006 0.201 0.090 0.029 0.146 0.069 0.306 0.034 0.444-0.083 0.34-0.313 0.599-0.593 0.793-0.756 0.523-1.511 1.048-2.29 1.532-0.36 0.223-0.776 0.356-1.17 0.519-0.039 0.016-0.134-0.031-0.156-0.073-0.041-0.079-0.046-0.174-0.073-0.304z"></path>
<path fill="#fff" d="M11.843 20.485c-0.040 0.057-0.089 0.139-0.15 0.207-0.027 0.030-0.081 0.039-0.124 0.051-0.233 0.071-0.403 0.066-0.579-0.179-0.142-0.196-0.406-0.336-0.643-0.424-0.68-0.252-1.303-0.603-1.909-0.992-0.181-0.116-0.316-0.263-0.383-0.466-0.073-0.222-0.141-0.444-0.207-0.669-0.040-0.134 0.019-0.186 0.152-0.156 0.094 0.021 0.193 0.040 0.279 0.081 0.492 0.243 1.025 0.302 1.556 0.373 0.113 0.016 0.227 0.021 0.34 0.040 0.149 0.026 0.276 0.003 0.399-0.097 0.136-0.11 0.28-0.083 0.33 0.083 0.217 0.703 0.579 1.339 0.902 1.992 0.017 0.037 0.020 0.079 0.039 0.154z"></path>
</svg>
