<svg id="Layer_1" data-name="Layer 1" xmlns="http://www.w3.org/2000/svg" viewBox="0 0 87.65 85.56"><defs><style>.cls-1{fill:#fff;}</style></defs><path class="cls-1" d="M-92.76,470.19a11.91,11.91,0,0,0-.45,2.62,51.47,51.47,0,0,0,.43,5.4c.21,1.72-.32,2.51-2,2.86a29.45,29.45,0,0,0-19,12.54,28.32,28.32,0,0,0-5,14.34,29,29,0,0,0,2.91,15.39,28.86,28.86,0,0,0,18.12,15.54,32.38,32.38,0,0,0,3.82.81,1.32,1.32,0,0,1,1.21,1.58c-.13,1.89-.36,3.77-.38,5.66,0,1.38.31,2.76.36,4.15a13.19,13.19,0,0,1-.31,2.32c-.34-.68-.72-1.35-1-2-.69-1.66-1.23-3.4-2.06-5a3.46,3.46,0,0,0-2-1.54c-5.11-1.25-9.5-3.89-13.79-6.79a2.07,2.07,0,0,0-1.34-.4c-1.12.2-2.19.6-3.3.85-.76.17-1.54.21-2.31.31a20.9,20.9,0,0,1,.35-2.1c.19-.71.52-1.38.73-2.08a4.09,4.09,0,0,0-.58-3.72,41,41,0,0,1-5.42-11.79,12.62,12.62,0,0,1-.67-3.34c0-1.51-.94-1.92-2-2.4-1.71-.75-3.41-1.53-5.11-2.32-.43-.2-.84-.48-1.25-.72a7.94,7.94,0,0,1,1.37-1c1.81-.77,3.65-1.45,5.47-2.2a2.25,2.25,0,0,0,1.5-2c1-5.52,2.61-10.87,6.34-15.21,1.79-2.07.8-4.07.46-6.07-.49-2.88-.62-2.86,2-2.19.4.1.76.3,1.15.42a4.7,4.7,0,0,0,4.74-.85,29.94,29.94,0,0,1,11.75-5.39,2.47,2.47,0,0,0,2.15-2,35.76,35.76,0,0,1,2.29-5.16,8.73,8.73,0,0,1,.55-.93,8.76,8.76,0,0,1,.33,1.07A9.08,9.08,0,0,1-92.76,470.19Z" transform="translate(132.89 -467.84)"/><path class="cls-1" d="M-85.61,546.14c0-1.34,0-2.67,0-4,0-2.33,0-2.54,2.3-2.82,5.28-.64,9.52-3.29,13.47-6.57,5.36-4.44,8.35-10.23,9.75-17a29.34,29.34,0,0,0-2.26-18,29.54,29.54,0,0,0-9.76-11.66,26.88,26.88,0,0,0-12.06-5c-.87-.13-1.42-.44-1.43-1.36q0-5.37,0-10.74a1.54,1.54,0,0,1,.23-.55c.2.15.48.26.57.45a31.52,31.52,0,0,1,2,4.72,3.24,3.24,0,0,0,2.71,2.54c4.89.95,9,3.46,12.89,6.34a3,3,0,0,0,3.2.43,24.53,24.53,0,0,1,2.8-.87c1.43-.38,1.74-.06,1.34,1.39a15.73,15.73,0,0,1-.69,1.84,4.31,4.31,0,0,0,.85,5.34,17.56,17.56,0,0,1,3,5.82c1,2.66,1.66,5.45,2.49,8.17.38,1.25.81,2.3,2.4,2.7a31.3,31.3,0,0,1,5.14,2.2,11.91,11.91,0,0,1,1.43.91c-.44.21-.88.43-1.33.62-1.63.73-3.25,1.49-4.91,2.15a4.08,4.08,0,0,0-2.79,3.32c-.94,4.85-2.39,9.59-5.52,13.46-2,2.48-1.82,4.81-1,7.44a5.75,5.75,0,0,0,.2.71c.48,1,.62,1.58-.93,1.1-1.7-.54-3.58-1.25-5.22-1s-3.1,1.65-4.56,2.67A30.39,30.39,0,0,1-80,544.62a3.62,3.62,0,0,0-2.92,2.64,24.6,24.6,0,0,1-1.93,4.5c-.12.25-.46.4-.7.6a5.82,5.82,0,0,1-.09-.73C-85.62,549.8-85.61,548-85.61,546.14Z" transform="translate(132.89 -467.84)"/><path class="cls-1" d="M-74.81,499.68c-.41-1.3-.88-2.59-1.22-3.92a4.57,4.57,0,0,1,.12-1.45c.38.26.93.43,1.1.78.6,1.22,1.06,2.51,1.59,3.77a4.87,4.87,0,0,0,.31.6c.23-.22.67-.44.66-.66a8.32,8.32,0,0,0-.28-2.39c-.45-1.48-1.06-2.91-1.53-4.39a3.09,3.09,0,0,1,.15-1.21,3.38,3.38,0,0,1,1,.52,5.52,5.52,0,0,1,1.11,1.61c1.62,3.88,3.39,7.85.54,11.86A18.27,18.27,0,0,1-75.41,509c-2.3,1.63-4.88,2.85-7.28,4.34-3.11,1.94-5.27,7-4.52,10.56a4,4,0,0,0,.88,1.42c1.4,1.87,1.4,2-.42,3.26-.07,0-.16.05-.23.09-.83.46-1.82,1.45-2.46,1.27a8.78,8.78,0,0,1-3.18-2.19,1.7,1.7,0,0,1-.06-1.66c1.78-1.57,1.06-3.6,1-5.39a8.81,8.81,0,0,0-1.46-3.81c-1.8-3-4.9-4.46-7.89-6a22,22,0,0,1-4.1-2.59c-3.77-3.24-4.5-7.43-3.22-12a26.58,26.58,0,0,1,2-4.45c.14-.28.66-.37,1-.54,0,.36.23.76.13,1.06a27,27,0,0,1-1.57,4.37,3.67,3.67,0,0,0,.14,3.3c.09.24.4.4.62.59a4.56,4.56,0,0,0,.45-.77c.51-1.44,1-2.91,1.52-4.34.12-.3.63-.45,1-.67a10,10,0,0,1,0,1.23c-.3,2-1.26,3.78-.61,6,.72,2.44,2.77,3.34,4.52,4.62.23.17,1-.09,1.3-.38q2-2.11,3.9-4.38a1.7,1.7,0,0,0-.39-2.75,7.17,7.17,0,0,1-2.69-5.18,4.27,4.27,0,0,1,.08-1.38,2.44,2.44,0,0,1,.47-.71,6.49,6.49,0,0,1,.36.55c.68,1.3,1.26,2.67,2.06,3.89,1.85,2.84,4.74,3.33,7.6,1.68,2-1.17,3.53-2.52,3.64-5,0-.38.54-.73.83-1.09.15.35.27.71.45,1.05.79,1.53,0,2.81-.69,4.07a7.41,7.41,0,0,1-1.28,1.42c-.8.87-2.19,1.73-2.22,2.63s1.42,1.68,2.23,2.52a7.93,7.93,0,0,0,.71.71c1.13.93,1.84,2.68,3.91,1.67s4-2.31,3.92-5.1c0-.33,0-.67,0-1ZM-84,507.41a3,3,0,0,0-.37-.76c-1.29-1.17-2.56-2.38-3.94-3.44a2.12,2.12,0,0,0-2.84.26c-1.15,1-2.23,2.15-3.38,3.18-.84.75-.7,1.37.09,2,1.07.89,2.1,1.82,3.2,2.67s2.21,1.28,3.41-.1a34.35,34.35,0,0,1,3.07-2.67A5.21,5.21,0,0,0-84,507.41Z" transform="translate(132.89 -467.84)"/></svg>