<svg id="Layer_1" data-name="Layer 1" xmlns="http://www.w3.org/2000/svg" viewBox="0 0 87.74 85.14"><defs><style>.cls-1{fill:#fff;}</style></defs><path class="cls-1" d="M1159.43,414.82c0,1.75,0,3.5,0,5.25,0,1.17-.34,1.59-1.39,1.65-4.68.27-8.6,2.43-12.32,5a29.7,29.7,0,0,0-8.73,9.81,24.7,24.7,0,0,0-3.39,9.83c-.53,5.22-.54,10.56,1.94,15.49a48.29,48.29,0,0,0,2.94,5.62c1.6,2.36,3.24,4.77,5.81,6.27,1.89,1.1,3.51,2.58,5.47,3.65a45.09,45.09,0,0,0,5.69,2.12,12.07,12.07,0,0,0,2.62.54c1,.14,1.38.73,1.37,1.7,0,3.67,0,7.33,0,11,0,.24-.25.47-.38.71-.19-.16-.46-.28-.54-.48-.42-1.06-.81-2.13-1.18-3.21-.77-2.29-1.76-4.35-4.49-4.87a21.31,21.31,0,0,1-6.73-2.78,32.1,32.1,0,0,1-5.7-3.58,2.15,2.15,0,0,0-1.63-.27,45.72,45.72,0,0,0-4.44,1.25c-.69.22-1,0-1-.64a9.88,9.88,0,0,1,.42-1.64,5.31,5.31,0,0,1,.21-1,5,5,0,0,0-.65-5.8c-2.49-3-3.67-6.67-4.75-10.35a15,15,0,0,1-.7-4.08c0-1.08-.64-1.44-1.34-1.78-2.13-1-4.3-2-6.45-3a3.34,3.34,0,0,1-.67-.59c.22-.19.4-.46.65-.56,2.19-.89,4.39-1.75,6.58-2.64a1.89,1.89,0,0,0,1.22-1.84,27.71,27.71,0,0,1,2.19-8.47,25.69,25.69,0,0,1,4.7-7.68,2.36,2.36,0,0,0,.49-2.32c-.23-1.1-.69-2.16-1-3.24a6.47,6.47,0,0,1-.38-1.4c0-.56.16-1,.87-.77,1.41.4,2.84.72,4.23,1.16a2.34,2.34,0,0,0,2.28-.35c1.81-1.25,3.78-2.27,5.64-3.45,2.39-1.53,5.19-1.9,7.78-2.88a2.25,2.25,0,0,0,1.28-1.13,18.69,18.69,0,0,0,2-4.7,5.62,5.62,0,0,1,.71-1.29c.08-.13.34-.29.39-.25a.78.78,0,0,1,.36.47c0,1,0,2,0,3Z" transform="translate(-1119.44 -408.36)"/><path class="cls-1" d="M1166.8,486.87c0-1.92,0-3.83,0-5.75,0-.7.29-.94,1-1.09a34.59,34.59,0,0,0,6.84-1.71,23.7,23.7,0,0,0,6.45-3.95c3.6-3.22,7.35-6.4,8.8-11.39.42-1.43,1.26-2.73,1.68-4.25a19.06,19.06,0,0,0,.71-5.33c0-1.92-.09-3.84,0-5.75a17.35,17.35,0,0,0-1.17-6.23,36.53,36.53,0,0,0-1.86-4.27,23.17,23.17,0,0,0-4.89-6.9,32.49,32.49,0,0,0-6.8-5.2,26,26,0,0,0-9.61-3.34,1.25,1.25,0,0,1-1.16-1.38q0-5.74,0-11.48c0-.17.21-.33.32-.49a3.26,3.26,0,0,1,.24.4c.85,2.12,1.75,4.22,2.52,6.36a2.19,2.19,0,0,0,1.88,1.41c3,.3,5.59,1.82,8.19,3.15a26.33,26.33,0,0,1,4.71,3.08,3.24,3.24,0,0,0,3.85.45c.45-.2.94-.6,1.35-.53,1,.17,1.8-1.07,2.82-.32-.23.85-.5,1.7-.69,2.57a25.84,25.84,0,0,0-.6,3.11,3.11,3.11,0,0,0,.31,1.65c.7,1.29,1.55,2.5,2.28,3.77a23.55,23.55,0,0,1,3.38,8.82,18.54,18.54,0,0,0,.55,2.88,3.21,3.21,0,0,0,2,2.5c2.3.82,4.5,1.91,6.74,2.9a2.36,2.36,0,0,1,.51.4,3.36,3.36,0,0,1-.42.22c-2.27.91-4.53,1.84-6.81,2.7a3.14,3.14,0,0,0-2.06,2.54,15.07,15.07,0,0,0-.47,2.39c-.24,4.16-2.34,7.56-4.42,11-.73,1.18-1.6,2.27-2.36,3.43a1.26,1.26,0,0,0,0,.88c.42,1.57.82,3.15,1.33,4.69.2.58.34,1-.45.89s-1.61-.23-2.41-.35a2.05,2.05,0,0,1-.72-.16c-1.87-1.06-3.5-.38-5,.78a25,25,0,0,1-10,4.78,5,5,0,0,0-1.37.49c-1,.55-1.9,1-2.29,2.27a49,49,0,0,1-2.29,5.41c-.09.21-.21.41-.32.62a1.76,1.76,0,0,1-.27-.64c0-2,0-4,0-6Z" transform="translate(-1119.44 -408.36)"/><path class="cls-1" d="M1182.59,442.49a5.47,5.47,0,0,1-2.93,5.37c-.73.43-1.11,1.53-1.52,2.39s-.62,1-1.07,0a21.54,21.54,0,0,0-1.35-2.32.94.94,0,0,0-1.59-.13c-.86.88-.85,1.7,0,2.78s.87,1.08-.1,2.18c-.48.55-.86,1.19-1.32,1.76s-1.06,1.3-2,1.16c-1.31-.19-1.6.62-1.91,1.71-.7,2.48.26,4,2.82,4.15.74,0,1.49,0,2.24,0l1,0a3.91,3.91,0,0,1-.4.85c-.38.44-.85.8-1.22,1.25a2.73,2.73,0,0,1-2.6,1.1,4.43,4.43,0,0,0-3.14,1c-2.69,1.85-5.61,2.17-8.43,0a5.67,5.67,0,0,0-1.52-1,5.54,5.54,0,0,0-1.73,0,4,4,0,0,1-3.66-2.44c-.19-.36-.19-.63.29-.65a14.68,14.68,0,0,1,2,0,3.2,3.2,0,0,0,3.39-1.56c.25-.47.71-.89.2-1.56-.26-.34-.13-1-.21-1.44-.17-1.11-.47-1.34-1.64-1.25-.22,0-.57.27-.63.2a42.65,42.65,0,0,1-3-3.54c-.61-.85.08-1.73.4-2.56a3.25,3.25,0,0,0,.34-.89c0-.18-.24-.44-.45-.54a.59.59,0,0,0-.54.2c-.38.63-.67,1.31-1,1.95-.12.19-.38.3-.58.45-.12-.21-.24-.41-.35-.62a8.79,8.79,0,0,1-.43-.87c-.58-1.47-.58-1.47-2-.85-1.29.56-2.37.12-2.41-1.27a8.28,8.28,0,0,0-1.14-3.47,4.31,4.31,0,0,1-.07-3.55c.89-2.55,3-4,4.88-5.67.2-.17.62-.09,1-.12a3.69,3.69,0,0,1-.09,1,11.81,11.81,0,0,1-1,2c-.87,1.34-.46,2.51.41,3.62a2.13,2.13,0,0,0,3.25.3c.93-.87,1.76-1.75,3.2-1.51.25,0,.58-.28.82-.48,1.24-1.05,2.47-2.1,3.68-3.17,1.91-1.7,3.43-1.77,5.43-.22l4.28,3.29a9,9,0,0,0,.79.59c.58.34,1.16-.73,1.78,0,.41.48.92.87,1.33,1.34a2,2,0,0,0,2.68.49,3.72,3.72,0,0,0,1.16-2.29c.28-1.52-.54-2.85-1.07-4.22a3.09,3.09,0,0,1-.1-.62c.23,0,.5-.06.68,0a11.82,11.82,0,0,1,4.68,4.62A11.33,11.33,0,0,1,1182.59,442.49Zm-24.76,4.23c-1,0-2.1,1.49-1.69,2.21a14.13,14.13,0,0,0,2.16,2.62c.76.79,1.65.2,2.48,0,1.13-.23,1.2-.38.77-1.41-.16-.38-.5-.72-.53-1.1C1160.83,446.86,1159,447.11,1157.83,446.72Zm8.88,4.87a2.44,2.44,0,0,0,2.53-.94c.56-1,1.23-1.92.82-3.36-.27-1-.81-.8-1.19-.77-2,.16-3.09,1.57-3.78,3.31C1164.57,451.14,1164.9,451.56,1166.71,451.59Zm-5.63,5.26c0,.15-.17.33-.13.46a27.2,27.2,0,0,0,1.2,3.64c.16.36.94.53,1.46.59s1-.38,1.18-1,.37-1.07.5-1.61c.15-.69.23-1.38.35-2.07-.49.44-1,.85-1.46,1.33a1,1,0,0,1-1.64,0,14.71,14.71,0,0,0-1-1A3.62,3.62,0,0,0,1161.08,456.85Z" transform="translate(-1119.44 -408.36)"/></svg>