<svg id="Layer_1" data-name="Layer 1" xmlns="http://www.w3.org/2000/svg" viewBox="0 0 87.16 85.23"><defs><style>.cls-1{fill:#fff;}</style></defs><path class="cls-1" d="M-402.76,192.33c0,1.67,0,3.33,0,5a2.52,2.52,0,0,1-.32.77,4.88,4.88,0,0,1-.51-.71,45,45,0,0,1-2.35-5.09c-.38-1.14-1.11-1.39-2-1.79-3.29-1.42-6.93-2.06-9.85-4.33-.32-.24-.8-.33-1-.63-2.24-2.7-5-2.56-7.9-1.47a9.29,9.29,0,0,1-1.59.29c0-.62,0-1.24.08-1.85a2.75,2.75,0,0,1,.22-1c1.11-2.18.67-3.93-.7-6a30.07,30.07,0,0,1-5.33-14.29,2.15,2.15,0,0,0-1.58-2c-1.93-.89-3.87-1.78-5.79-2.69a6.66,6.66,0,0,1-1-.69,4.78,4.78,0,0,1,.9-.74,34.56,34.56,0,0,1,3.38-1.43c2.25-.76,3.81-1.54,4.25-4.57a29.16,29.16,0,0,1,6.7-14.77,3,3,0,0,0,.34-2.24c-.26-1.35-.86-2.63-1.16-4-.17-.74-.38-1.92,1.16-1.09.34.18.89,0,1.22.17,2.8,1.64,5.06.65,7.4-1.15a24.36,24.36,0,0,1,8.62-4,6.11,6.11,0,0,0,4.54-4.19,38.33,38.33,0,0,1,1.78-4.31c.13-.3.51-.5.78-.75a3,3,0,0,1,.26.87c-.15,3.72-.35,7.43-.47,11.15,0,1.14-.57,1.42-1.63,1.72a66.26,66.26,0,0,0-9,3.09c-1.75.78-3.2,2.26-4.74,3.49-.71.57-1.28,1.32-2,1.92-4.56,4-7,9.24-8.19,15a28.65,28.65,0,0,0,3.22,20.2,28.29,28.29,0,0,0,8.46,9.66,46.75,46.75,0,0,0,8,4.14A34.63,34.63,0,0,0-404,185.3a1.61,1.61,0,0,1,1.31,1.79C-402.82,188.83-402.76,190.59-402.76,192.33Z" transform="translate(442.44 -112.87)"/><path class="cls-1" d="M-395.11,192.08c0-1.74,0-3.49,0-5.24a1.43,1.43,0,0,1,1.41-1.66c7.86-1.15,13.72-5.66,18.68-11.47a20.21,20.21,0,0,0,2.88-5.39,28.23,28.23,0,0,0,1.7-4.26,31.44,31.44,0,0,0-.31-17.32A26,26,0,0,0-380.3,133c-1.2-.86-2.39-1.73-3.6-2.56a25.08,25.08,0,0,0-9.93-3.85c-1.17-.21-1.3-.68-1.29-1.61,0-3.41,0-6.83,0-10.24a4,4,0,0,1,.2-.81,6.43,6.43,0,0,1,.5.82,19.5,19.5,0,0,1,1.5,3.62c.5,2.3,2.13,3,4.11,3.52a30.46,30.46,0,0,1,11.25,5.79,4.43,4.43,0,0,0,4.57.61c1.14-.35,2.31-.61,3.46-.91a21.13,21.13,0,0,1-.69,3.49,5.61,5.61,0,0,0,.89,5.72,27.73,27.73,0,0,1,5.12,12.84,4.14,4.14,0,0,0,3.3,4A31.07,31.07,0,0,1-356,155.6a7.21,7.21,0,0,0,.7.25,3.12,3.12,0,0,1-.7.62c-1.88.78-3.79,1.5-5.67,2.3a3.6,3.6,0,0,0-2.21,2.69,114.16,114.16,0,0,1-3.58,10.92,11.45,11.45,0,0,1-2.36,3.7c-1.78,1.88-1.21,3.89-.77,6,.1.47.23.94.33,1.42.31,1.47,0,1.86-1.4,1.55a1.92,1.92,0,0,1-.45-.18c-2.47-1.19-4.49-1.59-7.1.54a27.58,27.58,0,0,1-9.46,4.51,6.46,6.46,0,0,0-4.6,4.28c-.5,1.26-1.19,2.45-1.79,3.66,0-1.33,0-2.66-.07-4,0-.58,0-1.16,0-1.75Z" transform="translate(442.44 -112.87)"/><path class="cls-1" d="M-395.47,165.94c.27,1.2.67,2.69.92,4.21a5,5,0,0,1-.28,1.75c0,.13-.22.24-.34.35l-4.2,4.12c-1.55-1.48-3.14-2.93-4.63-4.46-.33-.35-.64-1.3-.47-1.48,1.4-1.43.73-3.16.83-4.75s0-3,0-4.49c0-.86.06-1.66-1.2-1.72-.28,0-.61-.76-.77-1.22a9.26,9.26,0,0,0-.57-2.09c-.35-.5-1.28-1.12-1.66-1-1.52.61-1.48-.22-1.87-1.3-.76-2.17-.25-4.22.09-6.31.23-1.45.71-1.68,1.84-.63a2.23,2.23,0,0,0,3.13.18,2.59,2.59,0,0,0,.9-3.09,3.84,3.84,0,0,0-1.61-1.82c-1-.56-.66-.63,0-1.24,1.3-1.18,2.33-2.67,3.59-3.91,1.78-1.78,2.72-1.76,4.42-.22s3,3,4.48,4.53c.07.07-.13.6-.29.65-1.11.33-2,1-2,2.15a4.68,4.68,0,0,0,.89,2.89,2.29,2.29,0,0,0,2.95.19c1.85-1,2-1,2.39,1a11.64,11.64,0,0,1-.46,6.58c-.18.46-.35,1.29-1.32.48s-2.11.11-2.32,1a12.08,12.08,0,0,1-1.57,4.2C-395.46,161.81-395.19,163.85-395.47,165.94Zm-1.13-12.54c2.73,0,4.45-.89,4.46-2.06,0-.8-1.5-2.71-2.13-2.72-1.07,0-3.06,2.29-2.94,3.56A3.39,3.39,0,0,0-396.6,153.4Zm-6.79,0,2-.75a15.51,15.51,0,0,0-.83-1.91c-.33-.53-.93-.9-1.21-1.44-.46-.89-.9-.56-1.58-.3-1.39.51-1.39,1.62-1.12,2.64C-405.83,152.9-404.77,153.37-403.39,153.37Zm.65,11.6h.05c0,1.57,0,3.14,0,4.72,0,.25.38.48.58.73a4.92,4.92,0,0,0,.57-.64,1.86,1.86,0,0,0,.36-.88q-.19-4.31-.48-8.59a3.43,3.43,0,0,0-.4-1c-.23.4-.65.79-.68,1.2C-402.79,162-402.74,163.48-402.74,165Zm3,.92h0c0,1.74,0,3.48,0,5.22a5.34,5.34,0,0,0,.35,1.27c.25-.37.72-.74.73-1.12.05-3.73,0-7.45,0-11.18,0-.3-.37-.59-.57-.88-.17.32-.48.65-.49,1C-399.77,162.08-399.74,164-399.74,165.89Zm3.59-.78c0-1.74,0-3.49,0-5.23,0-.24-.33-.46-.51-.68-.18.23-.5.46-.51.69,0,3.33,0,6.65,0,10,0,.23.33.45.51.68.18-.23.5-.46.51-.7C-396.13,168.28-396.15,166.69-396.15,165.11Zm-.76-8a23.74,23.74,0,0,0-2.37-3c-.34-.32-2.47,1.75-2.37,2.38,0,.33.4.84.66.87a29.48,29.48,0,0,0,3.25.17C-397.55,157.6-397.36,157.4-396.91,157.15Z" transform="translate(442.44 -112.87)"/></svg>