<svg id="Layer_1" data-name="Layer 1" xmlns="http://www.w3.org/2000/svg" viewBox="0 0 87.68 84.73"><defs><style>.cls-1{fill:#fff;}</style></defs><path class="cls-1" d="M1259.34,805.89a21.81,21.81,0,0,1-1.08,3.68,2.46,2.46,0,0,0,.48,3.07,24.37,24.37,0,0,1,4.1,7.42,30.67,30.67,0,0,1,2.05,7.72,2.31,2.31,0,0,0,1.47,2.1c2.52.89,4.73,2.54,7.43,3a1.37,1.37,0,0,1,.4.26,1.69,1.69,0,0,1-.38.28c-1.82.67-3.75,1.1-5.27,2.43-2.84,0-3.74,1.72-3.86,4.31a16.2,16.2,0,0,1-1,4,21.8,21.8,0,0,1-1.46,3.85,26,26,0,0,1-3.31,5.4c-1.76,2-1.52,3.87-.83,6,.22.7.5,1.37.68,2.08s-.23,1-.81.81c-1.24-.35-2.48-.71-3.7-1.13a2.84,2.84,0,0,0-3,.41,27,27,0,0,1-6.2,3.77c-1.19.49-2.36,1-3.56,1.46s-2.34.69-3.43,1.2a2.62,2.62,0,0,0-1.37,1.2c-1,1.84-1.56,3.85-2.46,5.72a.73.73,0,0,1-.53.35c-.17,0-.33-.26-.47-.43a.28.28,0,0,1,0-.24c.75-3.41-.35-6.81-.08-10.24a1.61,1.61,0,0,1,1.48-1.75c2.19-.56,4.35-1.21,6.52-1.82a4.37,4.37,0,0,0,.67-.29,32.82,32.82,0,0,0,11-8.75c1-1.27,1.84-2.59,2.72-3.92a17.55,17.55,0,0,0,2.16-5.11,2.57,2.57,0,0,1,.18-.7c1.43-2.2,1.41-4.66,1.33-7.14,0-.42,0-.83,0-1.25,0-6.14.11-6.18-2.06-11.7a28.2,28.2,0,0,0-3.7-6.53,27.21,27.21,0,0,0-6.27-6.22c-1.49-1-3-2-4.57-3a1.86,1.86,0,0,0-1-.16,4.19,4.19,0,0,1-1.81-.58,24.44,24.44,0,0,0-4.6-1.4c-1.46-.33-1.93-.68-2-2.16,0-1.08,0-2.16,0-3.24,0-2.33,0-4.66,0-7,0-.19.18-.37.29-.56a1.31,1.31,0,0,1,.41.26,9.1,9.1,0,0,1,.87,1.43c.58,1.33,1.17,2.67,1.65,4.05a2.88,2.88,0,0,0,2.27,2A25.11,25.11,0,0,1,1245,801a34.75,34.75,0,0,1,6.68,4,3.67,3.67,0,0,0,3.64.59,29.75,29.75,0,0,0,3.27-.9C1259.38,804.4,1259.33,804.81,1259.34,805.89Z" transform="translate(-1186.51 -791.05)"/><path class="cls-1" d="M1226.51,794.73c-.16.84-.41,1.95-.57,3.08a5.46,5.46,0,0,0,.08,1.45,20.18,20.18,0,0,1,.34,2.16c.05,2.24,0,2.11-2.19,2.61-4.89,1.11-9.52,2.8-13.14,6.52a23.83,23.83,0,0,1-2.48,2c-2.13,1.68-3.24,4.12-4.6,6.34-1.21,2-2.52,4-2.56,6.47-1.76,3.79-1,7.83-.89,11.73a22.63,22.63,0,0,0,2.36,8.29,29.17,29.17,0,0,0,7.53,10.17,29.69,29.69,0,0,0,6.42,4.45,21.82,21.82,0,0,0,2.27.81,38.73,38.73,0,0,0,6.48,2c.65.12.86.43.81,1-.22,2.45.37,4.92-.37,7.38-.27.92.25,2.06.36,3.1a5.16,5.16,0,0,1,0,1.24.47.47,0,0,1-.35.29c-.21,0-.59-.15-.6-.26-.2-2.51-1.8-4.48-2.63-6.74-.13-.34-.53-.81-.83-.82-2.42-.15-4.28-2-6.71-2.09-2.41-1.65-5.3-2.54-7.35-4.73a2,2,0,0,0-2.22-.63c-1.48.41-2.95.82-4.42,1.26-.7.21-.91-.15-.88-.73a6.1,6.1,0,0,1,.23-1.19c.37-1.4.79-2.79,1.11-4.2a1.66,1.66,0,0,0-.4-1,38.68,38.68,0,0,1-5.56-11.51,26.69,26.69,0,0,1-.87-4c-.22-1.8-.81-2.8-2.54-3.08-2.12-.33-3.74-1.54-5.49-2.56-.46-.26-.32-.31,0-.6,1.61-1.37,3.64-1.77,5.54-2.43a3.31,3.31,0,0,0,2.51-3.16,25,25,0,0,1,1.6-6.58,28,28,0,0,1,5.32-9,1.65,1.65,0,0,0,.35-2,9.72,9.72,0,0,1-.91-3.27c-.4-2.59-.51-2.58,2.11-1.76,1.23.39,2.51,1.26,3.66,1.1s2.23-1.27,3.26-2.06c2.36-1.81,5.16-2.75,7.76-4.08a15,15,0,0,1,3.06-.7,2.25,2.25,0,0,0,1.83-1.6c.7-2,2-3.74,2.39-5.86,0-.13.17-.25.25-.38.2.15.54.27.57.44C1226.28,792.46,1226.36,793.44,1226.51,794.73Z" transform="translate(-1186.51 -791.05)"/><path class="cls-1" d="M1235.37,837.57c0,1.49,0,3,0,4.49,0,.55-.16,1.19.68,1.39.1,0,.19.56.13.82-.42,1.73-.87,3.44-1.32,5.16a3.76,3.76,0,0,1-.43,1.1c-.32.51-1,.45-1.1-.1-.33-2.44-1.72-4.8-.64-7.37a1.93,1.93,0,0,0,.07-.73q0-4.74,0-9.48c0-.59-.18-.92-.85-.9-1.25,0-2.49,0-3.74,0-.7,0-.85.38-.8.94.21,2.28-.49,4.63.45,6.87a1.14,1.14,0,0,1,0,.73q-1,3.5-2,7c0,.12-.2.2-.31.29a2.05,2.05,0,0,1-.22-.41q-.77-3.18-1.49-6.37a1.72,1.72,0,0,1,0-1c.92-2.16.31-4.42.45-6.62.08-1.33.18-1.47-1.55-1.43-.75,0-1.5,0-2.24,0-.53,0-1.44-.34-1.48.4s-.9,1.18-.36,2.06c1,1.66.53,3.37-.05,5.09-.45,1.37-.77,2.79-1.16,4.18a3.05,3.05,0,0,1-.34.61,2.75,2.75,0,0,1-.34-.63c-.5-1.86-1.08-3.72-1.42-5.61a7.39,7.39,0,0,1,.32-4.9c.11-.21-.17-.76-.42-1-1.21-1.18-1.28-1.81-.25-3.35,0-.07.17-.12.17-.17,0-2.18.69-4.41-.41-6.51-.66-1.25-.64-1.62.37-2.92a4.36,4.36,0,0,0,.32-.65c.73-1.49.77-1.52,2-1.72s1.46,0,1.44,1c0,1.43,0,1.45,1.18,1.49,1,0,2,0,3,0a1.16,1.16,0,0,0,1.23-1.26c0-1.08,0-2.16,0-3.24,0-.68.12-.93,1-.82,2,.24,2,.13,2.09,2.13,0,1,.07,2,.11,3l3.16.24a6.17,6.17,0,0,0,1.49,0,.94.94,0,0,0,.58-.59,4,4,0,0,0,0-1.24c-.13-2,.47-1.56,1.67-1.62.81,0,.93.45.94,1.1s-.16,1.83.22,2.1a4.22,4.22,0,0,0,2.36.28c1.65-.06,3.3-.2,4.94-.31.08,0,.14-.1.22-.12a1.83,1.83,0,0,1,2.11.86,2.92,2.92,0,0,1-.28,2.53,1.94,1.94,0,0,0-.58,1.44c0,1.08,0,2.16,0,3.24,0,.77-.1,1.45.72,2.15a2,2,0,0,1-.11,2.67,1.45,1.45,0,0,0-.6,1.43,17.25,17.25,0,0,0,.35,4.15c.28.92-.44,2.15-.78,3.22-.27.85-.67,1.66-1,2.5-.17.53-.25,1.09-.37,1.64-.26-.55-.74-1.1-.74-1.65,0-1.56-1.13-2.7-1.33-4.15-.08-.63-.1-1.27-.14-1.9,0-.07.12-.14.12-.21l.12-4.65c-1.55-.08-3.11-.19-4.66-.19-.2,0-.58.53-.59.82C1235.34,834.41,1235.37,836,1235.37,837.57Zm0-12.15h0c0,.75,0,1.49,0,2.23a1.15,1.15,0,0,0,1.26,1.2c1.16,0,2.31,0,3.47,0,.2,0,.56-.19.58-.32a37.82,37.82,0,0,0,.49-5.07,1.67,1.67,0,0,0-1.72-1.46,11.89,11.89,0,0,0-2,0c-1.85.25-2.1.57-2.11,2.44C1235.36,824.77,1235.36,825.1,1235.36,825.42Zm-11.09.28c0-.33,0-.66,0-1,0-1.93-.67-2.62-2.58-2.73-.49,0-1,0-1.48,0a1.23,1.23,0,0,0-1.33,1.41,17.61,17.61,0,0,1-.12,4.18c-.25,1,0,1.17.75,1.28a12.13,12.13,0,0,0,1.48,0C1224.27,828.89,1224.35,829.12,1224.27,825.7Zm8.49-.3c0-.66,0-1.33,0-2,0-.31-.09-.74-.29-.87-1.45-.92-2.93-.64-4.44-.08-1.17.43-.45,1.38-.64,2.08a2.3,2.3,0,0,0,0,.74c.06,1.13.13,2.27.2,3.4l3.67.17h.25a1.16,1.16,0,0,0,1.25-1.22C1232.78,826.89,1232.76,826.14,1232.76,825.4Z" transform="translate(-1186.51 -791.05)"/></svg>