<svg id="Layer_1" data-name="Layer 1" xmlns="http://www.w3.org/2000/svg" viewBox="0 0 88.02 85.01"><defs><style>.cls-1{fill:#fff;}</style></defs><path class="cls-1" d="M946.85,198.63c0-1.74.09-3.5,0-5.24-.09-1.28.54-1.72,1.62-2,1.73-.47,3.45-1,5.16-1.57a28.59,28.59,0,0,0,7.93-4.45,27.65,27.65,0,0,0,6.18-6.37,29.35,29.35,0,0,0,3.06-5.92,38,38,0,0,0,1.54-5.17,25.25,25.25,0,0,0-.09-11.79,30.1,30.1,0,0,0-14.51-19.9,24.87,24.87,0,0,0-9.4-3.24c-1-.14-1.49-.4-1.48-1.48,0-3.58,0-7.16,0-10.73,0-.24.28-.48.42-.71.2.14.48.24.57.43.74,1.65,1.56,3.29,2.13,5a3,3,0,0,0,2.54,2.29,31.35,31.35,0,0,1,12.09,5.89,4.28,4.28,0,0,0,4.39.76c.92-.35,1.87-.63,2.82-.91s1.18-.06,1.16.92a5.44,5.44,0,0,1-.25,1.44,31.65,31.65,0,0,1-1,3,2.5,2.5,0,0,0,.59,2.74,26.32,26.32,0,0,1,4.76,9.26,30.9,30.9,0,0,1,1.49,6.14c.11,1.12,1,1.78,2.14,2.18,2.24.81,4.45,1.69,6.67,2.55.12.05.21.19.32.29-.13.1-.24.25-.38.28-2.35.52-4.12,2.38-6.58,2.7a2.58,2.58,0,0,0-2.17,2.42,39.44,39.44,0,0,1-2,7.35,26.1,26.1,0,0,1-4.36,8c-.84,1.13-1.41,2.08-.82,3.57a17.18,17.18,0,0,1,.69,3.62c.19,1.16-.13,1.44-1.3,1.11a20.52,20.52,0,0,1-2.81-.92,3,3,0,0,0-3.49.5c-3.12,3-7.12,4.35-11.09,5.58-2.12.67-3.39,1.66-4,3.78a39.91,39.91,0,0,1-1.89,4.49,2.71,2.71,0,0,1-.41.55,2.09,2.09,0,0,1-.25-.68c0-1.91,0-3.82,0-5.74Z" transform="translate(-899.69 -120.04)"/><path class="cls-1" d="M939.36,124.18c.23,1.63.48,3.25.66,4.88a16.88,16.88,0,0,1,0,2.25,1.48,1.48,0,0,1-1.5,1.61c-7.22.93-12.95,4.62-17.64,9.94a27.78,27.78,0,0,0-6,10.91c-.67,2.34-.72,4.7-1.27,7-.27,1.14.17,2.44.26,3.67a29.19,29.19,0,0,0,8.24,18.23,31.2,31.2,0,0,0,7.61,5.78,37.32,37.32,0,0,0,7.41,2.64c2.13.57,2.12.46,2.41,2.65a15.71,15.71,0,0,1,0,4.84c-.2,1.16.35,2.43.38,3.65,0,.81.47,1.82-.55,2.43a20.22,20.22,0,0,1-1.06-1.8,32.64,32.64,0,0,1-1.92-4.48,2.05,2.05,0,0,0-1.47-1.48c-2.09-.73-4.24-1.31-6.3-2.12a20.7,20.7,0,0,1-3.45-1.89c-1.53-1-3-2-4.5-3a1.73,1.73,0,0,0-1.81-.28,35.08,35.08,0,0,1-3.83.94,10.7,10.7,0,0,1-1.39.1,7.31,7.31,0,0,1,.11-1.33c.22-.88.55-1.73.79-2.6a4.62,4.62,0,0,0-.61-4.2,45.33,45.33,0,0,1-5.52-12.09,5.51,5.51,0,0,1-.11-1.73,3.62,3.62,0,0,0-2.64-3.69c-1.84-.72-3.61-1.62-5.4-2.46a3,3,0,0,1-.67-.58,4,4,0,0,1,.6-.41c1.13-.5,2.26-1,3.4-1.47a7.29,7.29,0,0,1,1.16-.41c2.32-.55,3.37-2.09,3.55-4.38a25.16,25.16,0,0,1,2.28-7.5,23.45,23.45,0,0,1,3.77-6.65,3.09,3.09,0,0,0,.68-3.42,16.46,16.46,0,0,1-.71-3.36,1.66,1.66,0,0,1,.18-1.18c.14-.17.71-.06,1.08,0a9.61,9.61,0,0,1,2.14.55,4.06,4.06,0,0,0,4.72-.53A28.24,28.24,0,0,1,933.61,128c2.24-.53,2.94-2.11,3.71-3.8.54-1.18,1-2.41,1.47-3.6.08-.21.31-.35.47-.52a1.68,1.68,0,0,1,.27.62c0,1.16,0,2.33,0,3.49Z" transform="translate(-899.69 -120.04)"/><path class="cls-1" d="M947.85,169.31c0-1.67.08-3.34-.05-5,0-.63-.62-1.22-.95-1.83-.43.57-1.17,1.1-1.23,1.7-.29,2.95-.38,5.93-.57,8.89a2.94,2.94,0,0,0,.8,2.25c1,1.15.9,1.68.11,2.84s-1.27,2.11-2,3.14a.82.82,0,0,1-.72.08c-.91-1.55-1.8-3.11-2.63-4.71-.09-.17.15-.59.33-.82a4.83,4.83,0,0,0,.89-3.28c0-1.91.06-3.83,0-5.74a17.87,17.87,0,0,0-.6-3.63,1.36,1.36,0,0,0-1.11-.72,1.49,1.49,0,0,0-1,.9,5.57,5.57,0,0,0-.08,1.74c0,2.91,0,5.82,0,8.73a2.56,2.56,0,0,1-.21.7c-.28-.12-.66-.17-.82-.38-.92-1.22-1.74-2.23-1.31-4.16.54-2.46.15-5.13.14-7.71a1.36,1.36,0,0,0-.27-.92,8.14,8.14,0,0,0-1.36-.84c-.22.42-.6.83-.61,1.26-.07,1.91,0,3.83,0,5.74,0,.67,0,1.33,0,2s-.32.71-.8.36c-.13-.1-.24-.23-.37-.34-.89-.73-2.13-1.3-2.56-2.25s.08-2.18.05-3.3c-.06-1.81-.25-3.62-.3-5.43a1.11,1.11,0,0,1,.57-.84,15.34,15.34,0,0,1,2.14-.58A4.82,4.82,0,0,0,936.2,155c.3-.47.19-1.08-.5-1.07-1.45,0-3-.49-4.29.67-.49.44-.92.07-1-.55,0-.42,0-.84,0-1.25,0-.8-.44-1.91-.06-2.33.76-.87,1.37.39,2.1.63,2.54.81,6-.12,7.25-2,.64-.91.59-1.52-.34-2a6.55,6.55,0,0,0-2.33-.7,31.24,31.24,0,0,0-3.49,0,2.53,2.53,0,0,0-2.23.71c-.54.6-1.26.2-1.36-.63a11.36,11.36,0,0,1,0-1.75c0-1.15,0-1.11,1.27-.74a6.51,6.51,0,0,0,1.71.2c1.58,0,3.16,0,4.74,0,.5,0,1.18.13,1.45-.13,1.3-1.24,2.1-.48,3.07.46,1.33,1.29,1.48,1.28,2.75-.07.9-1,1.7-1.45,3-.64a3.2,3.2,0,0,0,1.66.37c2.24,0,4.48,0,6.72-.14.54,0,.77,0,.81.54a8.35,8.35,0,0,1,0,1c0,.65-.13,1.3-.2,1.95a10.17,10.17,0,0,0-1.71-.72c-2.51-.63-5-.88-7.48.28-1,.46-1.06,1.15-.42,2a4.53,4.53,0,0,0,4,2.11c1.64-.08,3.32.22,4.82-.8.36-.24.8-.23.7.47a18.5,18.5,0,0,0-.19,2c-.07,1.74,0,1.65-1.81,1.25a10.78,10.78,0,0,0-3.21-.13c-.91.07-1,.82-.43,1.59.94,1.2,2.32,1.55,3.64,2,1.69.57,1.52.52,1.43,2.15a34.29,34.29,0,0,0,.23,6.16c.16,1.18.05,1.9-1.07,2.38a8.41,8.41,0,0,0-1.19.85c-.5.34-1,.66-1.53,1a10.59,10.59,0,0,1-.23-1.93c.1-1.55.36-3.1.44-4.66a4.65,4.65,0,0,0-.4-1.89,4.87,4.87,0,0,0-.89-1.12,8.88,8.88,0,0,0-1.37,1.29c-.21.29-.1.8-.1,1.22,0,2-.06,4,0,6a4.48,4.48,0,0,0,.57,2.06,1.1,1.1,0,0,1-.11,1.54c-.78.82-1.53,1.66-2.3,2.5-.13-1.18-.29-2.35-.38-3.53-.05-.74,0-1.49,0-2.24Z" transform="translate(-899.69 -120.04)"/></svg>