<!-- Generated by IcoMoon.io -->
<svg version="1.1" xmlns="http://www.w3.org/2000/svg" width="32" height="32" viewBox="0 0 32 32">
<title>fighters-thrall</title>
<path fill="#fff" d="M16.356 0c0.042 0.081 0.112 0.159 0.122 0.243 0.136 1.185 0.266 2.371 0.393 3.557 0.013 0.122 0.075 0.161 0.187 0.176 1.052 0.145 2.028 0.507 2.949 1.027 0.574 0.324 1.096 0.718 1.579 1.167 0.169 0.159 0.216 0.178 0.407 0.051 0.515-0.34 1.031-0.68 1.53-1.045 0.823-0.601 1.735-1.056 2.594-1.595 0.044-0.028 0.105-0.031 0.202-0.059-0.063 0.086-0.095 0.134-0.132 0.179-0.496 0.608-0.999 1.212-1.489 1.825-0.393 0.491-0.769 0.995-1.154 1.491-0.161 0.208-0.323 0.417-0.488 0.621-0.090 0.112-0.089 0.214-0.027 0.34 0.26 0.524 0.518 1.050 0.761 1.581 0.222 0.483 0.299 1.006 0.378 1.528 0.009 0.063 0.022 0.128 0.023 0.192 0.004 0.128 0.069 0.199 0.191 0.222 0.323 0.059 0.644 0.117 0.967 0.176 0.749 0.14 1.498 0.282 2.247 0.418 0.19 0.034 0.386 0.031 0.574 0.070 0.195 0.040 0.385 0.113 0.576 0.171 0 0.015 0 0.031 0 0.046-0.237 0.055-0.472 0.12-0.71 0.165-0.491 0.093-0.987 0.159-1.475 0.264-0.66 0.143-1.315 0.315-1.973 0.469-0.233 0.055-0.352 0.171-0.402 0.428-0.157 0.811-0.34 1.619-0.722 2.365-0.264 0.515-0.576 0.995-0.965 1.423-0.203 0.223-0.204 0.245-0.052 0.503 0.621 1.061 1.244 2.123 1.865 3.186 0.030 0.051 0.058 0.102 0.102 0.184-0.073 0-0.132 0.017-0.175-0.003-0.155-0.073-0.316-0.14-0.45-0.241-0.847-0.636-1.686-1.282-2.529-1.923-0.294-0.223-0.316-0.219-0.644-0.035-0.506 0.284-0.996 0.604-1.526 0.828-0.805 0.343-1.666 0.494-2.543 0.527-0.334 0.013-0.666 0.031-0.999 0.040-0.144 0.004-0.195 0.063-0.196 0.207s0.048 0.207 0.194 0.211c0.278 0.008 0.519 0.12 0.738 0.286 0.35 0.265 0.662 0.563 0.883 0.949 0.171 0.3 0.293 0.604 0.262 0.961-0.022 0.249 0.027 0.28 0.272 0.281 0.285 0.001 0.57 0.012 0.855-0.003 0.089-0.004 0.202-0.056 0.256-0.125 0.35-0.45 0.8-0.686 1.369-0.757 1.039-0.132 2.002 0.109 2.932 0.542 0.312 0.145 0.523 0.387 0.569 0.75 0.007 0.054 0.070 0.122 0.122 0.144 0.39 0.153 0.78 0.305 1.178 0.436 0.112 0.036 0.262 0.031 0.371-0.013 0.387-0.156 0.768-0.144 1.12 0.055 0.504 0.286 1.011 0.577 1.473 0.922 0.441 0.329 0.706 0.791 0.679 1.376-0.005 0.124-0.008 0.247 0.001 0.371 0.055 0.671-0.325 1.123-0.779 1.532-0.202 0.183-0.463 0.219-0.727 0.203-0.188-0.012-0.374-0.048-0.562-0.050-0.085 0-0.196 0.034-0.249 0.094-0.264 0.304-0.508 0.625-0.769 0.933-0.116 0.137-0.156 0.282-0.156 0.457 0 0.208-0.007 0.421-0.048 0.624-0.113 0.546-0.516 0.913-1.070 0.961-0.916 0.079-1.834 0.143-2.751-0.003-0.175-0.028-0.352-0.035-0.528-0.056-0.308-0.036-0.566-0.179-0.762-0.41-0.086-0.101-0.143-0.239-0.18-0.37-0.059-0.204-0.161-0.312-0.368-0.316-0.274-0.007-0.549-0.004-0.823-0.007-0.172-0.001-0.262 0.117-0.36 0.237-0.203 0.247-0.416 0.489-0.632 0.726-0.097 0.106-0.225 0.143-0.375 0.149-0.319 0.013-0.613-0.028-0.894-0.202-0.506-0.313-1.045-0.577-1.532-0.918-0.375-0.262-0.699-0.6-1.027-0.922-0.196-0.194-0.218-0.445-0.12-0.706 0.090-0.242 0.082-0.25-0.165-0.348-0.114-0.046-0.227-0.095-0.338-0.153-0.129-0.067-0.206-0.047-0.251 0.102-0.032 0.106-0.087 0.208-0.144 0.304-0.206 0.342-0.489 0.53-0.908 0.535-0.871 0.009-1.741 0.046-2.613 0.065-0.28 0.005-0.523-0.102-0.733-0.289-0.167-0.149-0.202-0.145-0.394-0.030-0.234 0.141-0.469 0.284-0.713 0.409-0.492 0.253-0.988 0.496-1.485 0.74-0.561 0.274-1.158 0.054-1.442-0.506-0.211-0.416 0.020-1.082 0.537-1.131 0.087-0.008 0.176-0.077 0.25-0.136 0.407-0.324 0.854-0.578 1.353-0.732 0.090-0.028 0.19-0.048 0.281-0.038 0.069 0.008 0.176 0.065 0.186 0.114 0.015 0.078-0.017 0.187-0.070 0.249-0.078 0.091-0.19 0.157-0.292 0.227-0.247 0.168-0.496 0.334-0.737 0.541 0.039 0 0.083 0.012 0.117-0.001 0.173-0.071 0.35-0.139 0.515-0.226 0.336-0.179 0.666-0.372 1-0.554 0.104-0.056 0.151-0.13 0.137-0.246-0.015-0.122-0.024-0.246-0.043-0.368-0.098-0.625 0.226-1.084 0.847-1.204 0.522-0.099 1.039-0.216 1.564-0.301 0.598-0.097 1.201-0.175 1.803-0.242 0.377-0.042 1.048 0.378 1.178 0.732 0.044 0.121 0.040 0.265 0.034 0.397-0.008 0.167 0.060 0.243 0.214 0.308 0.379 0.159 0.746 0.348 1.123 0.515 0.052 0.023 0.145 0.009 0.195-0.024 0.21-0.14 0.406-0.3 0.615-0.441 0.203-0.139 0.409-0.112 0.598 0.031 0.18 0.136 0.351 0.285 0.535 0.416 0.276 0.195 0.567 0.366 0.836 0.57 0.41 0.311 0.816 0.629 1.206 0.965 0.151 0.13 0.285 0.231 0.492 0.215 0.155-0.012 0.312-0.004 0.468-0.003 0.093 0 0.14-0.042 0.143-0.134 0.009-0.343 0.194-0.577 0.463-0.769 0.367-0.261 0.766-0.399 1.22-0.397 0.624 0.004 1.248 0.007 1.872-0.009 0.456-0.011 0.812 0.161 1.1 0.503 0.165 0.196 0.196 0.195 0.372 0.003 0.241-0.261 0.479-0.524 0.723-0.781 0.099-0.105 0.106-0.184 0.015-0.304-0.336-0.44-0.66-0.887-0.987-1.334-0.13-0.179-0.149-0.377-0.085-0.582 0.036-0.116 0.007-0.218-0.095-0.262-0.299-0.129-0.604-0.245-0.912-0.352-0.043-0.015-0.125 0.032-0.168 0.073-0.289 0.269-0.633 0.375-1.021 0.363-0.563-0.017-1.131-0.011-1.69-0.069-0.37-0.038-0.738-0.145-1.092-0.266-0.179-0.061-0.338-0.206-0.481-0.339s-0.288-0.221-0.489-0.243c-0.432-0.048-0.862-0.118-1.29-0.191-0.151-0.026-0.257 0.020-0.36 0.122-0.3 0.299-0.636 0.545-1.034 0.699-0.346 0.134-0.695 0.171-1.060 0.094-0.58-0.124-1.127-0.319-1.584-0.714-0.303-0.261-0.512-0.577-0.58-0.978-0.007-0.042-0.011-0.090-0.034-0.124-0.168-0.257-0.078-0.496 0.019-0.75 0.23-0.602 0.624-1.060 1.173-1.39 0.028-0.016 0.054-0.039 0.083-0.048 0.386-0.134 0.433-0.464 0.468-0.803 0.012-0.114-0.060-0.145-0.151-0.171-0.36-0.105-0.721-0.214-1.081-0.319-0.76-0.219-1.428-0.615-2.056-1.084-0.171-0.128-0.321-0.147-0.502-0.042-0.791 0.457-1.581 0.912-2.373 1.365-0.401 0.23-0.803 0.456-1.206 0.68-0.055 0.031-0.122 0.042-0.184 0.062-0.008-0.012-0.016-0.024-0.023-0.036 0.034-0.046 0.066-0.093 0.101-0.137 0.808-1.033 1.618-2.066 2.425-3.101 0.173-0.222 0.173-0.285-0.001-0.51-0.775-0.994-1.26-2.119-1.513-3.347-0.074-0.362-0.105-0.734-0.144-1.103-0.017-0.161-0.090-0.251-0.245-0.296-1.080-0.307-2.157-0.624-3.269-0.791-0.296-0.044-0.602-0.039-0.878-0.179 0-0.022 0-0.043 0-0.065 0.144-0.040 0.285-0.106 0.432-0.118 0.512-0.046 1.027-0.078 1.541-0.109 0.424-0.026 0.849-0.031 1.271-0.067 0.299-0.026 0.594-0.098 0.893-0.129 0.276-0.028 0.332-0.059 0.377-0.335 0.176-1.070 0.569-2.057 1.155-2.965 0.133-0.207 0.128-0.37-0.009-0.572-0.597-0.879-1.183-1.768-1.771-2.655-0.040-0.062-0.065-0.133-0.097-0.2 0.016-0.013 0.032-0.028 0.047-0.042 0.216 0.134 0.437 0.262 0.648 0.406 0.703 0.481 1.334 1.069 2.114 1.439 0.124 0.059 0.221 0.101 0.328-0.017 0.649-0.71 1.473-1.158 2.336-1.544 0.787-0.352 1.61-0.565 2.464-0.663 0.192-0.023 0.294-0.118 0.342-0.304 0.156-0.608 0.319-1.214 0.485-1.819 0.168-0.611 0.343-1.218 0.515-1.828 0.011 0 0.022 0 0.032 0zM15.070 18.329c0.023 0.001 0.046 0.003 0.069 0.004 0.056 0.093 0.129 0.18 0.165 0.28 0.098 0.266 0.188 0.538 0.268 0.81 0.030 0.102 0.079 0.141 0.18 0.134 0.397-0.023 0.796-0.020 1.19-0.070 1.304-0.164 2.472-0.663 3.506-1.475 0.114-0.090 0.16-0.199 0.129-0.338-0.017-0.083-0.044-0.165-0.063-0.25-0.046-0.2 0.052-0.321 0.256-0.296 0.091 0.011 0.184 0.055 0.265 0.104 0.13 0.079 0.23 0.061 0.319-0.061 0.198-0.269 0.399-0.534 0.596-0.803 0.733-1.002 1.122-2.13 1.243-3.359 0.012-0.124-0.023-0.203-0.132-0.264-0.121-0.069-0.241-0.144-0.351-0.229-0.121-0.093-0.12-0.172 0.012-0.25 0.105-0.062 0.225-0.101 0.34-0.143 0.11-0.040 0.171-0.105 0.153-0.229-0.061-0.409-0.098-0.823-0.184-1.226-0.188-0.887-0.565-1.698-1.070-2.45-0.075-0.113-0.152-0.157-0.277-0.073-0.075 0.050-0.16 0.089-0.246 0.12-0.066 0.024-0.14 0.027-0.21 0.040-0.011-0.071-0.038-0.144-0.028-0.212 0.024-0.164 0.058-0.328 0.101-0.488 0.035-0.132-0.003-0.229-0.099-0.316-0.156-0.141-0.304-0.289-0.461-0.428-1.177-1.034-2.547-1.616-4.104-1.763-0.159-0.015-0.269 0.026-0.344 0.171-0.071 0.138-0.152 0.273-0.237 0.402-0.093 0.143-0.204 0.141-0.278-0.008-0.067-0.138-0.12-0.286-0.159-0.434-0.027-0.102-0.070-0.151-0.176-0.14-0.122 0.012-0.246 0.022-0.368 0.038-1.666 0.208-3.079 0.929-4.268 2.107-0.108 0.108-0.128 0.211-0.062 0.346 0.082 0.169 0.169 0.339 0.222 0.516 0.022 0.074-0.023 0.186-0.073 0.254-0.023 0.031-0.14 0.019-0.2-0.007-0.108-0.046-0.206-0.116-0.308-0.175-0.203-0.116-0.308-0.090-0.422 0.114-0.19 0.336-0.379 0.674-0.559 1.017-0.331 0.631-0.504 1.31-0.604 2.012-0.023 0.164 0.030 0.258 0.199 0.282 0.095 0.013 0.192 0.031 0.282 0.062 0.067 0.022 0.126 0.067 0.19 0.102-0.036 0.066-0.058 0.155-0.114 0.192-0.126 0.086-0.264 0.168-0.409 0.21-0.16 0.046-0.221 0.121-0.216 0.282 0.039 1.684 0.598 3.172 1.653 4.482 0.098 0.122 0.195 0.148 0.334 0.081 0.261-0.128 0.522-0.253 0.787-0.37 0.133-0.059 0.294-0.18 0.411-0.034 0.105 0.132-0.044 0.257-0.118 0.368-0.182 0.272-0.368 0.539-0.562 0.82 0.982 0.834 2.084 1.385 3.366 1.635 0.104-0.264 0.202-0.518 0.307-0.769 0.048-0.113 0.11-0.219 0.165-0.328zM12.277 27.065c-0.121-0.229-0.288-0.231-0.464-0.203-0.746 0.12-1.493 0.239-2.239 0.362-0.126 0.020-0.262 0.035-0.373 0.093-0.077 0.040-0.117 0.149-0.175 0.229 0.067 0.031 0.13 0.075 0.2 0.090 0.223 0.046 0.346 0.206 0.305 0.43-0.022 0.121-0.056 0.239-0.095 0.356-0.055 0.169-0.013 0.237 0.165 0.227 0.528-0.028 1.056-0.061 1.584-0.095 0.192-0.012 0.386-0.031 0.577-0.059 0.114-0.016 0.235-0.065 0.235-0.2 0-0.153-0.136-0.116-0.233-0.124-0.16-0.012-0.214-0.066-0.199-0.225 0.017-0.182 0.052-0.362 0.069-0.543 0.016-0.169 0.109-0.221 0.266-0.234 0.125-0.011 0.245-0.066 0.375-0.104zM21.031 30.796c0.114 0.028 0.179 0.052 0.245 0.059 0.182 0.020 0.367 0.017 0.545 0.052 0.754 0.148 1.512 0.056 2.267 0.040 0.089-0.001 0.218-0.003 0.199-0.148-0.019-0.133-0.129-0.12-0.229-0.104-0.303 0.047-0.668-0.188-0.754-0.485-0.079-0.274 0.012-0.502 0.257-0.641 0.109-0.062 0.118-0.132 0.013-0.203-0.054-0.036-0.126-0.051-0.194-0.061-0.645-0.093-1.295-0.026-1.943-0.031-0.065 0-0.129 0.024-0.234 0.046 0.083 0.090 0.134 0.157 0.196 0.211 0.188 0.165 0.272 0.372 0.182 0.606-0.055 0.144-0.165 0.27-0.265 0.393-0.069 0.083-0.161 0.151-0.285 0.265zM22.244 24.65c-0.028-0.070-0.044-0.121-0.067-0.168-0.144-0.296-0.105-0.467 0.147-0.676 0.036-0.031 0.085-0.093 0.075-0.121-0.013-0.039-0.075-0.077-0.122-0.087-0.21-0.046-0.421-0.083-0.632-0.121-0.528-0.095-1.054-0.191-1.596-0.079-0.226 0.047-0.245 0.055-0.16 0.276 0.086 0.225 0.169 0.452 0.251 0.678 0.050 0.137 0.133 0.226 0.284 0.251 0.55 0.093 1.103 0.132 1.661 0.089 0.047-0.004 0.093-0.023 0.16-0.040zM15.838 28.422c-0.013 0.183-0.023 0.311-0.034 0.438-0.023 0.29-0.147 0.426-0.433 0.473-0.038 0.007-0.082-0.003-0.11 0.015-0.062 0.038-0.163 0.089-0.163 0.134 0 0.075 0.047 0.182 0.109 0.222 0.332 0.215 0.678 0.411 1.015 0.62 0.274 0.168 0.546 0.343 0.818 0.515 0.079 0.051 0.159 0.079 0.226-0.013 0.065-0.087 0.028-0.161-0.042-0.227-0.012-0.011-0.024-0.022-0.035-0.034-0.125-0.13-0.156-0.538-0.044-0.678 0.027-0.034 0.078-0.052 0.122-0.065 0.179-0.044 0.219-0.161 0.082-0.29-0.113-0.106-0.247-0.187-0.372-0.28-0.233-0.172-0.465-0.344-0.698-0.516-0.133-0.095-0.268-0.191-0.441-0.315zM27.227 27.591c0.134-0.042 0.251-0.073 0.366-0.114 0.167-0.061 0.227-0.164 0.152-0.327-0.112-0.242-0.239-0.479-0.383-0.703-0.126-0.198-0.273-0.387-0.434-0.557-0.168-0.176-0.356-0.339-0.553-0.481-0.136-0.098-0.223-0.048-0.321 0.086-0.132 0.18-0.274 0.355-0.425 0.52-0.071 0.079-0.069 0.134-0.005 0.206 0.204 0.227 0.407 0.457 0.616 0.68 0.036 0.039 0.11 0.082 0.151 0.070 0.257-0.077 0.453 0.099 0.676 0.156 0.061 0.016 0.106 0.134 0.136 0.214 0.026 0.074 0.017 0.157 0.026 0.25zM14.932 24.324c0.005-0.013 0.009-0.028 0.015-0.042 0.027 0 0.054 0.001 0.081 0 0.183-0.007 0.359-0.11 0.387-0.281 0.012-0.071-0.086-0.173-0.153-0.243-0.112-0.117-0.136-0.237-0.031-0.358 0.097-0.112 0.221-0.2 0.321-0.308 0.046-0.048 0.11-0.143 0.091-0.177-0.055-0.104-0.14-0.194-0.229-0.273-0.015-0.013-0.117 0.051-0.16 0.097-0.087 0.094-0.157 0.206-0.245 0.299-0.144 0.155-0.335 0.175-0.523 0.122-0.165-0.046-0.195-0.199-0.202-0.351 0-0.011-0.001-0.022-0.004-0.032-0.026-0.132-0.112-0.171-0.196-0.070-0.126 0.151-0.257 0.311-0.334 0.488-0.128 0.292 0.031 0.659 0.385 0.847 0.246 0.13 0.53 0.191 0.796 0.282z"></path>
</svg>
