<svg id="Layer_1" data-name="Layer 1" xmlns="http://www.w3.org/2000/svg" viewBox="0 0 87.58 85.14"><defs><style>.cls-1{fill:#fff;}</style></defs><path class="cls-1" d="M791.54,551.77c0-1.67,0-3.33,0-5,0-2.16-.19-1.78,1.83-2.28a33.11,33.11,0,0,0,5.39-1.7,32.71,32.71,0,0,0,12.57-9.33c2.94-3.61,4.23-7.78,5.58-12a6.52,6.52,0,0,0,.09-2c0-2-.07-4,0-6,.2-4.27-1.21-8.08-3-11.82a28.1,28.1,0,0,0-9.52-10.84,22.81,22.81,0,0,0-8.26-3.79c-1.36-.28-2.69-.7-4-1.08-.77-.21-.63-.89-.63-1.44,0-2.91,0-5.83,0-8.74,0-.66,0-1.33,0-2a2,2,0,0,1,.27-.62,2.36,2.36,0,0,1,.48.52,42.1,42.1,0,0,1,2.29,5.15,2.73,2.73,0,0,0,1.77,1.86,15.92,15.92,0,0,0,2.52,1,28.89,28.89,0,0,1,10.7,5.45,3.81,3.81,0,0,0,3.41.65c.8-.15,1.6-.34,2.41-.48,2.36-.44,2.34-.45,1.65,2a22.3,22.3,0,0,0-.81,3.6,2.79,2.79,0,0,0,.53,1.8,28.33,28.33,0,0,1,5.48,11.75c.25,1.28.66,2.54,1,3.81a2.84,2.84,0,0,0,1.9,2.08l6.19,2.5c.22.09.42.22.64.33-.21.24-.36.61-.62.72-2,.9-4.06,1.74-6.1,2.6a3.17,3.17,0,0,0-2.15,2.61,38.63,38.63,0,0,1-4.36,12.24c-.81,1.34-1.77,2.58-2.54,3.93a3.16,3.16,0,0,0-.33,1.84c.19,1.29.58,2.56.84,3.84.31,1.56.2,1.75-1.37,1.52a12.35,12.35,0,0,1-3-1,2.57,2.57,0,0,0-2.88.4c-3,2.14-6.1,4.25-9.71,5.34-1.17.36-2.36.65-3.52,1a2.37,2.37,0,0,0-1.57,1.72c-.64,1.94-1.57,3.78-2.39,5.66a3.09,3.09,0,0,1-.4.57,2.3,2.3,0,0,1-.27-.66c0-1.91,0-3.83,0-5.74Z" transform="translate(-744.38 -473.16)"/><path class="cls-1" d="M784.24,479.39c0,1.75,0,3.5,0,5.25,0,.89-.31,1.25-1.25,1.45-1.92.41-3.79,1-5.67,1.62a22.55,22.55,0,0,0-6.24,3.36,29.87,29.87,0,0,0-8.05,8.3,28.86,28.86,0,0,0-4.63,19.56,26.7,26.7,0,0,0,3.49,10.47,33.44,33.44,0,0,0,5.27,7.08,28.7,28.7,0,0,0,12.3,7.42,27.71,27.71,0,0,0,3.59.79c1,.13,1.2.68,1.19,1.53,0,2-.06,4,0,6,.05,1.39.29,2.77.42,4.16a6.76,6.76,0,0,1,0,1.49c0,.17-.31.34-.51.42s-.36-.07-.42-.17c-.4-.81-.81-1.62-1.16-2.46-.44-1.06-.84-2.14-1.24-3.22a4.25,4.25,0,0,0-3.18-2.75,30.86,30.86,0,0,1-10.87-5.16c-.19-.15-.53-.17-.64-.35-1.35-2.06-3.14-1.63-5-.92l-2.31.88c-.94.36-1.44,0-1.22-1a11.27,11.27,0,0,1,.89-2.56,4.42,4.42,0,0,0-.55-5.07,33.9,33.9,0,0,1-4.81-9.69,22.19,22.19,0,0,1-1-5,2.12,2.12,0,0,0-1.49-2c-1.3-.53-2.57-1.12-3.87-1.66-.22-.1-.53,0-.72-.16-.74-.5-1.45-1-2.17-1.59.73-.41,1.43-.86,2.18-1.22q2.46-1.17,5-2.25a1.58,1.58,0,0,0,1.07-1.5A29,29,0,0,1,755.65,500a35,35,0,0,1,3.28-5.21c.79-1.13,1.45-2.11.82-3.62a29.51,29.51,0,0,1-1-3.81c-.24-.87.25-1.09.89-1a13.07,13.07,0,0,1,2.38.64,5.73,5.73,0,0,0,5.7-.93c2.58-1.85,5.28-3.66,8.54-4.3a20.31,20.31,0,0,0,3.68-1.4c1.43-.58,1.23-2.22,2-3.21.17-.22,0-.69.17-1,.58-1,1.23-2,1.85-3,.07,1.07.17,2.13.21,3.2s0,2,0,3Z" transform="translate(-744.38 -473.16)"/><path class="cls-1" d="M775.22,497.21c3.21.11,3.21.11,4.24,3.09.69,2,.69,2,2.74,2q6,0,12,0c2,0,2,0,2.58-1.88,1-3.12,1-3.12,4.35-3.11.59,0,1.17,0,1.75,0s.73.21.44.78A25.33,25.33,0,0,0,802,501c-.37,1,0,1.4,1,1.26a26.62,26.62,0,0,1,3.16-.43c1,0,1.22.38.73,1.19-.64,1.06-1.4,2.05-2,3.14-.45.87-1.11.88-1.87.75a13.83,13.83,0,0,0-2.16-.39,2.2,2.2,0,0,0-2.23,1.48c-2.06,4.29-4.2,8.56-6.57,12.68-1.45,2.51-.13,4.19,1.08,6.06,0,.05.16.05.22.11,1.75,1.86,1.73,1.84,0,3.68-.89,1-1.67,2-2.57,3-.5.53-1,.51-1.23-.37s-.33-1.77-.54-2.65a6.38,6.38,0,0,0-.51-1.34c-.1-.2-.37-.32-.57-.47a2.94,2.94,0,0,0-.36.58c-.3.94-.53,1.89-.85,2.82-.49,1.43-.8,1.52-1.78.45s-1.9-2.28-2.9-3.38c-.59-.64-.46-1.11.08-1.7.76-.86,1.46-1.78,2.17-2.68,1.22-1.55.75-3.18,0-4.68-1.75-3.7-3.66-7.33-5.43-11-.76-1.59-1.45-2.66-3.66-2.17-3.73.82-4.88-1.78-5.83-4.31-.2-.54,0-.78.52-.79,1.16,0,2.33,0,3.49-.06.35,0,.9-.2,1-.44s-.2-.73-.34-1.09c0-.07-.12-.12-.16-.18l-1.59-2.47Zm12.55,8.61,0,.2c-1.16,0-2.32,0-3.48,0-1.37.07-1.62.48-1.06,1.67,1.38,3,2.77,5.94,4.2,8.9.12.26.55.61.71.55a1.6,1.6,0,0,0,.86-.74c1.46-2.84,2.86-5.71,4.3-8.56.39-.78.32-1.26-.63-1.38Z" transform="translate(-744.38 -473.16)"/></svg>