<!-- Generated by IcoMoon.io -->
<svg version="1.1" xmlns="http://www.w3.org/2000/svg" width="32" height="32" viewBox="0 0 32 32">
<title>grand-alliance-chaos</title>
<path fill="#fff" d="M15.112 31.966c-0.017-0.017-0.041-0.040-0.054-0.050-0.017-0.013-0.023-0.042-0.023-0.11 0-0.102-0.013-0.134-0.068-0.183-0.031-0.027-0.037-0.042-0.034-0.099 0.001-0.037-0.004-0.096-0.013-0.132-0.008-0.037-0.021-0.12-0.028-0.185s-0.023-0.136-0.034-0.156c-0.034-0.064-0.051-0.168-0.041-0.262 0.006-0.061 0.004-0.093-0.007-0.099-0.008-0.006-0.016-0.023-0.016-0.040 0-0.016-0.023-0.051-0.050-0.078s-0.050-0.062-0.050-0.076c0-0.016-0.016-0.034-0.035-0.044-0.020-0.009-0.035-0.024-0.035-0.034s-0.013-0.031-0.030-0.045c-0.028-0.027-0.028-0.034-0.013-0.202 0.008-0.096 0.023-0.194 0.031-0.215 0.020-0.052-0.003-0.13-0.059-0.201-0.033-0.041-0.042-0.068-0.042-0.116 0-0.054-0.007-0.071-0.054-0.115-0.069-0.067-0.079-0.095-0.051-0.137 0.020-0.031 0.021-0.048 0.006-0.13-0.008-0.054-0.020-0.127-0.024-0.167-0.004-0.038-0.017-0.084-0.028-0.102-0.013-0.020-0.017-0.047-0.011-0.072 0.007-0.037 0.004-0.042-0.028-0.051-0.020-0.006-0.042-0.006-0.050-0.001-0.018 0.011-0.033-0.054-0.024-0.11 0.003-0.024-0.003-0.074-0.013-0.109s-0.020-0.084-0.020-0.108c0-0.025-0.011-0.054-0.030-0.069-0.023-0.023-0.027-0.037-0.020-0.082s0.004-0.061-0.024-0.092c-0.020-0.021-0.047-0.068-0.059-0.105-0.021-0.058-0.023-0.086-0.010-0.211 0.014-0.153 0.011-0.176-0.030-0.215-0.017-0.016-0.024-0.037-0.018-0.052 0.010-0.033-0.030-0.113-0.055-0.113-0.031 0-0.037-0.037-0.016-0.081 0.017-0.033 0.017-0.059 0.004-0.139-0.013-0.082-0.024-0.108-0.062-0.149-0.037-0.040-0.048-0.062-0.048-0.105s-0.010-0.064-0.050-0.103c-0.048-0.048-0.050-0.052-0.050-0.161 0-0.074-0.007-0.127-0.021-0.154-0.020-0.038-0.020-0.057 0.001-0.18 0.025-0.153 0.035-0.174 0.085-0.174 0.034 0 0.034 0.001 0.013 0.042-0.011 0.023-0.021 0.045-0.021 0.050s0.041 0.004 0.092 0c0.078-0.006 0.102-0.003 0.166 0.028 0.058 0.028 0.095 0.035 0.183 0.035 0.183 0 0.252-0.050 0.252-0.178 0-0.038 0.010-0.093 0.021-0.122 0.028-0.067 0.028-0.136 0.001-0.167-0.034-0.038-0.034-0.405 0-0.566 0.011-0.051 0.027-0.123 0.034-0.163 0.008-0.038 0.014-0.11 0.013-0.16-0.003-0.072 0-0.093 0.021-0.108 0.021-0.017 0.021-0.021 0.003-0.037-0.011-0.010-0.021-0.030-0.021-0.044 0-0.051-0.068-0.176-0.115-0.212-0.027-0.020-0.069-0.041-0.095-0.045-0.042-0.009-0.125-0.057-0.149-0.088-0.008-0.013-0.006-0.119 0.007-0.229 0.003-0.018 0.014-0.033 0.025-0.034s0.041-0.003 0.064-0.003c0.037-0.003 0.042-0.009 0.042-0.041-0.001-0.034 0.004-0.040 0.035-0.040 0.020 0 0.044 0.007 0.054 0.017 0.011 0.011 0.017 0.011 0.017 0.001s0.020-0.023 0.042-0.031c0.025-0.009 0.048-0.030 0.057-0.051 0.017-0.044 0.017-0.171 0.001-0.212-0.007-0.016-0.007-0.044 0-0.064s0.013-0.072 0.017-0.117c0.006-0.081 0.006-0.082-0.064-0.151-0.037-0.038-0.068-0.078-0.068-0.091s-0.010-0.017-0.027-0.013c-0.014 0.004-0.031 0-0.035-0.009-0.006-0.009-0.025-0.016-0.044-0.016-0.025 0-0.037-0.010-0.044-0.035-0.006-0.023-0.024-0.040-0.057-0.050-0.038-0.013-0.048-0.024-0.048-0.052 0-0.023-0.018-0.051-0.050-0.079-0.027-0.024-0.050-0.052-0.050-0.062s-0.006-0.018-0.014-0.018c-0.007 0-0.017-0.023-0.023-0.050-0.018-0.101 0.059-0.201 0.144-0.184 0.038 0.007 0.054 0 0.101-0.042 0.030-0.027 0.058-0.050 0.062-0.050 0.017 0 0.038-0.076 0.040-0.142 0.001-0.057-0.004-0.071-0.055-0.125-0.031-0.033-0.057-0.065-0.057-0.072s-0.016-0.023-0.034-0.035c-0.031-0.020-0.038-0.020-0.079 0-0.028 0.016-0.062 0.020-0.096 0.014-0.106-0.017-0.272-0.025-0.331-0.017-0.045 0.007-0.065 0.018-0.075 0.041-0.011 0.024-0.028 0.033-0.074 0.035-0.055 0.004-0.064 0.010-0.096 0.067-0.021 0.034-0.058 0.074-0.084 0.089-0.045 0.027-0.079 0.055-0.161 0.132-0.021 0.020-0.050 0.040-0.062 0.045-0.014 0.004-0.031 0.035-0.041 0.074-0.014 0.057-0.020 0.064-0.057 0.064-0.025 0-0.041 0.007-0.041 0.018 0 0.025-0.161 0.18-0.187 0.18-0.010 0-0.064 0.045-0.117 0.101-0.055 0.055-0.123 0.116-0.153 0.134-0.030 0.020-0.059 0.050-0.067 0.068s-0.020 0.038-0.027 0.044c-0.008 0.004-0.016 0.024-0.016 0.042s-0.011 0.042-0.024 0.052c-0.048 0.035-0.089 0.109-0.089 0.157 0 0.042-0.006 0.050-0.041 0.057-0.027 0.006-0.045 0.020-0.051 0.041-0.016 0.048-0.051 0.084-0.078 0.075-0.016-0.006-0.031 0.011-0.054 0.057-0.020 0.041-0.045 0.069-0.069 0.079-0.045 0.017-0.157 0.133-0.225 0.232-0.037 0.054-0.061 0.074-0.108 0.088-0.064 0.018-0.092 0.007-0.164-0.071l-0.034-0.035 0.024-0.112c0.014-0.064 0.025-0.193 0.028-0.306 0.003-0.134 0.013-0.217 0.028-0.266 0.014-0.040 0.021-0.092 0.017-0.117-0.008-0.052-0.001-0.068 0.044-0.092 0.018-0.010 0.031-0.030 0.031-0.051 0-0.018 0.016-0.052 0.035-0.075 0.033-0.040 0.035-0.054 0.035-0.185 0-0.137 0.021-0.289 0.064-0.457 0.011-0.045 0.021-0.11 0.021-0.146 0-0.044 0.007-0.067 0.021-0.072 0.011-0.004 0.024-0.023 0.030-0.038 0.006-0.017 0.030-0.059 0.054-0.095 0.037-0.055 0.044-0.081 0.051-0.184 0.006-0.067 0.016-0.136 0.024-0.156 0.033-0.076 0.047-0.202 0.028-0.255-0.027-0.075-0.035-0.085-0.088-0.085-0.037 0-0.048-0.007-0.054-0.033-0.007-0.024-0.030-0.038-0.112-0.064-0.057-0.017-0.125-0.031-0.15-0.031-0.035 0-0.050-0.009-0.062-0.035-0.020-0.042-0.027-0.044-0.051-0.007-0.014 0.023-0.033 0.028-0.099 0.028-0.079 0-0.081 0.001-0.13 0.067-0.082 0.11-0.2 0.217-0.239 0.217-0.024 0-0.062 0.028-0.129 0.096-0.051 0.052-0.105 0.113-0.12 0.136-0.052 0.076-0.103 0.12-0.159 0.134-0.037 0.010-0.086 0.047-0.156 0.115-0.057 0.055-0.103 0.105-0.103 0.112 0 0.020-0.048 0.055-0.088 0.065-0.021 0.006-0.076 0.051-0.123 0.101-0.062 0.068-0.093 0.091-0.122 0.091-0.044 0-0.146 0.075-0.163 0.119-0.011 0.033 0.041 0.12 0.108 0.177 0.034 0.030 0.034 0.031 0.011 0.084-0.013 0.028-0.027 0.075-0.031 0.102-0.010 0.076-0.025 0.088-0.105 0.078-0.068-0.010-0.084-0.004-0.259 0.102-0.050 0.030-0.093 0.047-0.12 0.047-0.014 0-0.092 0.014-0.173 0.030s-0.163 0.033-0.184 0.034c-0.023 0.001-0.051 0.013-0.065 0.025-0.014 0.014-0.037 0.024-0.051 0.024s-0.027 0.010-0.031 0.021c-0.010 0.023-0.089 0.050-0.151 0.050-0.055 0-0.177 0.055-0.183 0.081-0.004 0.024-0.025 0.027-0.249 0.038-0.177 0.010-0.293 0.034-0.347 0.074-0.025 0.018-0.067 0.044-0.092 0.055-0.025 0.013-0.052 0.037-0.061 0.055-0.013 0.027-0.030 0.035-0.096 0.042-0.044 0.004-0.115 0.013-0.157 0.017-0.088 0.010-0.115 0.028-0.149 0.099-0.014 0.030-0.033 0.048-0.050 0.048s-0.038 0.013-0.054 0.028c-0.014 0.014-0.048 0.037-0.075 0.048s-0.058 0.031-0.069 0.042c-0.021 0.027-0.058 0.030-0.081 0.007-0.028-0.028-0.26-0.040-0.401-0.020-0.075 0.010-0.081 0.013-0.117 0.079-0.021 0.040-0.052 0.076-0.071 0.082-0.017 0.007-0.051 0.034-0.075 0.059-0.024 0.027-0.061 0.062-0.082 0.079s-0.037 0.045-0.037 0.065c0 0.045-0.028 0.068-0.098 0.076-0.040 0.006-0.059 0.017-0.071 0.041-0.013 0.030-0.024 0.034-0.091 0.034-0.057 0-0.082 0.007-0.101 0.027-0.014 0.016-0.061 0.042-0.105 0.059-0.093 0.038-0.197 0.095-0.208 0.113-0.006 0.007-0.040 0.013-0.076 0.013-0.044 0-0.081 0.010-0.102 0.025-0.018 0.014-0.065 0.040-0.105 0.058-0.038 0.020-0.075 0.041-0.079 0.048-0.006 0.007-0.042 0.016-0.083 0.017-0.059 0.003-0.081 0.011-0.108 0.041-0.020 0.020-0.051 0.037-0.069 0.037s-0.040 0.011-0.047 0.024c-0.017 0.030-0.126 0.062-0.231 0.069-0.076 0.004-0.083 0.003-0.154-0.055l-0.074-0.059 0.008-0.084c0.004-0.045 0.008-0.102 0.008-0.123 0-0.034 0.006-0.041 0.035-0.041 0.025 0 0.040-0.010 0.050-0.035 0.007-0.020 0.024-0.040 0.035-0.044 0.016-0.007 0.021-0.027 0.018-0.074-0.001-0.057 0.004-0.069 0.041-0.101 0.025-0.021 0.047-0.055 0.051-0.079 0.006-0.040 0.007-0.041 0.017-0.010 0.006 0.017 0.021 0.031 0.035 0.031 0.035 0 0.089-0.069 0.076-0.098-0.017-0.040-0.010-0.089 0.021-0.13 0.017-0.021 0.030-0.050 0.030-0.061s0.013-0.025 0.028-0.030c0.051-0.016 0.17-0.146 0.17-0.185 0-0.035 0.018-0.058 0.117-0.143 0.045-0.038 0.051-0.050 0.044-0.088-0.007-0.037-0.001-0.052 0.042-0.101 0.028-0.031 0.051-0.069 0.051-0.084 0-0.021 0.011-0.030 0.045-0.033 0.044-0.004 0.047-0.009 0.055-0.068 0.014-0.088 0.037-0.142 0.061-0.142 0.013 0 0.031-0.018 0.044-0.042 0.014-0.025 0.038-0.045 0.065-0.052 0.038-0.011 0.050-0.025 0.091-0.129 0.034-0.086 0.067-0.139 0.122-0.2 0.042-0.045 0.099-0.115 0.126-0.154s0.057-0.074 0.065-0.074c0.033 0 0.065-0.055 0.059-0.098-0.006-0.035 0-0.045 0.034-0.059 0.041-0.017 0.050-0.033 0.025-0.048-0.021-0.013-0.017-0.072 0.007-0.092 0.018-0.016 0.025-0.014 0.044 0.011 0.023 0.033 0.055 0.028 0.068-0.007 0.006-0.013 0.001-0.031-0.007-0.041-0.035-0.044 0.008-0.122 0.102-0.18 0.023-0.014 0.045-0.047 0.057-0.084 0.017-0.050 0.025-0.061 0.054-0.061 0.030 0 0.038-0.010 0.050-0.059 0.010-0.038 0.042-0.091 0.088-0.142 0.040-0.045 0.086-0.119 0.105-0.163 0.023-0.057 0.041-0.082 0.058-0.082 0.014 0 0.037-0.017 0.051-0.037s0.038-0.052 0.055-0.074c0.017-0.021 0.034-0.067 0.038-0.099 0.004-0.037 0.021-0.076 0.040-0.096 0.030-0.031 0.034-0.033 0.057-0.011 0.033 0.030 0.065 0.017 0.083-0.030 0.021-0.055 0.071-0.071 0.149-0.048 0.050 0.014 0.064 0.025 0.059 0.044-0.004 0.013 0.008 0.035 0.027 0.052s0.034 0.035 0.034 0.044c0 0.007 0.017 0.014 0.037 0.014 0.021 0 0.061 0.014 0.088 0.031 0.075 0.045 0.18 0.055 0.251 0.024 0.031-0.014 0.071-0.027 0.089-0.027 0.020 0 0.038-0.013 0.048-0.035 0.008-0.020 0.020-0.035 0.025-0.035 0.016 0 0.042-0.069 0.042-0.108 0-0.020 0.011-0.055 0.024-0.078 0.024-0.040 0.024-0.045 0-0.11s-0.025-0.235-0.003-0.27c0.011-0.020 0.068-0.018 0.089 0.003 0.013 0.013 0.023 0.011 0.042-0.007 0.031-0.028 0.125-0.031 0.229-0.007 0.069 0.016 0.076 0.014 0.149-0.024 0.047-0.025 0.079-0.054 0.084-0.072 0.006-0.021 0.028-0.038 0.068-0.051 0.048-0.017 0.064-0.030 0.074-0.065 0.007-0.027 0.025-0.050 0.050-0.059 0.059-0.024 0.125-0.078 0.117-0.096-0.003-0.010 0.004-0.030 0.016-0.042 0.013-0.013 0.028-0.042 0.037-0.064 0.014-0.035 0.021-0.038 0.061-0.031 0.062 0.011 0.095-0.014 0.112-0.091 0.016-0.069 0.048-0.103 0.088-0.092 0.041 0.013 0.078-0.007 0.109-0.061 0.025-0.044 0.027-0.057 0.013-0.092-0.013-0.033-0.013-0.045 0.004-0.065 0.028-0.031 0.050-0.101 0.042-0.14-0.006-0.041-0.081-0.103-0.125-0.103-0.018 0-0.059-0.010-0.091-0.023-0.042-0.017-0.079-0.021-0.137-0.014-0.044 0.006-0.163 0.004-0.263 0-0.161-0.009-0.184-0.013-0.191-0.037-0.007-0.031-0.028-0.033-0.103-0.003-0.050 0.020-0.061 0.021-0.076 0.004-0.024-0.024-0.027-0.042-0.024-0.193l0.003-0.117h0.068c0.067 0 0.071-0.001 0.115-0.071 0.034-0.052 0.055-0.071 0.079-0.071 0.059 0 0.126-0.042 0.166-0.108 0.027-0.044 0.051-0.065 0.078-0.071 0.042-0.009 0.075-0.058 0.075-0.113 0-0.018 0.007-0.037 0.014-0.041 0.008-0.006 0.025-0.035 0.038-0.065 0.016-0.040 0.038-0.065 0.076-0.085 0.035-0.017 0.055-0.037 0.055-0.055 0-0.014 0.006-0.031 0.014-0.035 0.008-0.006 0.014-0.078 0.014-0.17 0-0.157-0.001-0.163-0.035-0.185-0.041-0.027-0.050-0.109-0.014-0.129 0.018-0.010 0.018-0.020 0.003-0.061-0.024-0.069-0.062-0.106-0.089-0.084-0.027 0.021-0.025-0.011 0.001-0.184 0.013-0.072 0.018-0.153 0.013-0.178-0.008-0.048-0.116-0.163-0.153-0.163-0.010 0-0.023-0.013-0.027-0.028-0.006-0.021-0.020-0.028-0.055-0.030-0.025-0.001-0.078-0.006-0.117-0.010-0.084-0.009-0.116-0.009-0.461 0.001-0.26 0.007-0.263 0.007-0.338 0.050-0.095 0.054-0.156 0.149-0.156 0.244 0 0.048 0.007 0.068 0.028 0.082 0.030 0.018 0.037 0.059 0.016 0.099-0.008 0.013-0.018 0.042-0.023 0.065-0.008 0.038-0.011 0.040-0.071 0.031-0.047-0.007-0.072-0.004-0.099 0.014-0.054 0.035-0.191 0.025-0.191-0.013 0-0.010-0.028-0.044-0.062-0.076-0.045-0.045-0.075-0.061-0.106-0.061-0.044 0-0.115-0.059-0.115-0.095 0-0.024-0.115-0.089-0.157-0.089-0.018 0-0.052-0.013-0.076-0.028-0.023-0.016-0.052-0.028-0.064-0.028-0.041 0-0.137-0.105-0.147-0.16-0.008-0.047-0.014-0.052-0.052-0.052-0.024 0-0.055 0.006-0.069 0.014-0.044 0.023-0.113-0.010-0.123-0.059-0.004-0.023-0.020-0.047-0.034-0.054-0.014-0.009-0.028-0.025-0.034-0.041-0.004-0.016-0.025-0.030-0.057-0.034-0.025-0.004-0.067-0.021-0.089-0.038-0.038-0.028-0.048-0.030-0.123-0.016-0.045 0.009-0.119 0.016-0.163 0.016s-0.101 0.007-0.125 0.016c-0.040 0.014-0.050 0.011-0.086-0.018-0.023-0.020-0.082-0.055-0.132-0.079s-0.102-0.057-0.116-0.072c-0.017-0.018-0.045-0.030-0.071-0.030-0.024 0-0.079-0.017-0.122-0.037-0.058-0.027-0.089-0.034-0.129-0.027-0.038 0.007-0.067 0.001-0.106-0.020-0.033-0.018-0.067-0.025-0.086-0.021-0.027 0.007-0.047-0.004-0.096-0.054-0.086-0.088-0.14-0.102-0.401-0.099-0.159 0.001-0.234-0.004-0.276-0.018-0.033-0.011-0.092-0.021-0.133-0.021-0.040 0-0.088-0.006-0.106-0.013-0.061-0.024-0.174-0.149-0.221-0.244-0.041-0.085-0.051-0.096-0.096-0.105-0.054-0.010-0.156-0.058-0.17-0.079-0.004-0.007-0.048-0.013-0.099-0.013-0.086 0-0.095-0.003-0.151-0.054-0.033-0.030-0.072-0.059-0.086-0.065-0.016-0.004-0.076-0.001-0.139 0.007-0.099 0.016-0.116 0.016-0.163-0.007-0.041-0.020-0.105-0.027-0.273-0.033-0.204-0.009-0.222-0.011-0.259-0.041-0.024-0.021-0.059-0.034-0.088-0.034-0.064 0-0.083-0.028-0.074-0.106 0.006-0.041 0.004-0.064-0.006-0.064s-0.013-0.008-0.009-0.017c0.003-0.010 0.021-0.018 0.040-0.018 0.028 0 0.035-0.008 0.038-0.045l0.004-0.044 0.105 0.007c0.071 0.006 0.112 0.003 0.126-0.008 0.011-0.010 0.035-0.013 0.054-0.008 0.025 0.006 0.047-0.006 0.099-0.058l0.068-0.065 0.013 0.035c0.014 0.035 0.016 0.035 0.058 0.016 0.023-0.013 0.042-0.028 0.042-0.035s0.011-0.024 0.027-0.040c0.030-0.030 0.098-0.025 0.11 0.008 0.004 0.011 0.014 0.014 0.024 0.007 0.009-0.007 0.051-0.021 0.093-0.033 0.042-0.010 0.089-0.027 0.102-0.038s0.057-0.021 0.096-0.021c0.059-0.001 0.078 0.006 0.112 0.038 0.038 0.035 0.050 0.040 0.102 0.031 0.072-0.011 0.112-0.038 0.142-0.096 0.023-0.044 0.024-0.044 0.040-0.014 0.025 0.047 0.048 0.038 0.133-0.047 0.061-0.061 0.086-0.078 0.12-0.078 0.030 0 0.050 0.010 0.059 0.028 0.021 0.040 0.092 0.037 0.132-0.004 0.042-0.044 0.112-0.071 0.17-0.064 0.045 0.004 0.050 0.001 0.078-0.059 0.020-0.041 0.057-0.085 0.109-0.125 0.042-0.034 0.078-0.071 0.078-0.081 0-0.027 0.045-0.12 0.058-0.12 0.035 0 0.074-0.214 0.041-0.234-0.007-0.004-0.014-0.021-0.014-0.038 0-0.027 0.006-0.028 0.089-0.018 0.048 0.006 0.11 0.023 0.139 0.037 0.045 0.023 0.054 0.037 0.091 0.15 0.023 0.068 0.050 0.134 0.059 0.147 0.011 0.013 0.025 0.042 0.031 0.064 0.008 0.033 0.025 0.047 0.078 0.067 0.076 0.027 0.147 0.017 0.208-0.031 0.018-0.014 0.065-0.042 0.102-0.062 0.058-0.030 0.076-0.034 0.11-0.021 0.023 0.007 0.041 0.020 0.041 0.028 0 0.017 0.17 0.008 0.354-0.017 0.067-0.010 0.143-0.018 0.17-0.020 0.065-0.004 0.122-0.033 0.149-0.074s0.132-0.076 0.149-0.050c0.008 0.016 0.014 0.014 0.024-0.006 0.011-0.020 0.020-0.021 0.044-0.008 0.017 0.008 0.048 0.013 0.069 0.007 0.072-0.017 0.246-0.12 0.262-0.156 0.010-0.020 0.024-0.033 0.034-0.028 0.021 0.008 0.235-0.065 0.286-0.099 0.021-0.014 0.051-0.041 0.065-0.059 0.025-0.033 0.033-0.034 0.122-0.025 0.076 0.008 0.098 0.006 0.113-0.013 0.010-0.011 0.028-0.021 0.042-0.021s0.033-0.010 0.042-0.021c0.008-0.011 0.031-0.024 0.047-0.030 0.017-0.006 0.047-0.021 0.065-0.035 0.018-0.016 0.051-0.027 0.072-0.027s0.051-0.014 0.071-0.035c0.017-0.018 0.057-0.051 0.088-0.072 0.047-0.033 0.057-0.035 0.072-0.018 0.008 0.011 0.044 0.040 0.078 0.062 0.068 0.045 0.084 0.085 0.061 0.15-0.023 0.067-0.018 0.117 0.013 0.159 0.016 0.020 0.028 0.041 0.028 0.047s0.027 0.050 0.059 0.098c0.062 0.091 0.127 0.129 0.193 0.112 0.034-0.010 0.127 0.017 0.161 0.047 0.013 0.011 0.035 0.018 0.050 0.017s0.052 0.001 0.085 0.007c0.065 0.011 0.117-0.008 0.167-0.062 0.016-0.017 0.042-0.037 0.059-0.044s0.034-0.028 0.040-0.055c0.007-0.031 0.024-0.051 0.062-0.071 0.030-0.014 0.065-0.044 0.078-0.064s0.038-0.044 0.057-0.051c0.034-0.016 0.099-0.142 0.115-0.221 0.007-0.034 0.001-0.061-0.021-0.101-0.030-0.052-0.030-0.058-0.008-0.098 0.011-0.024 0.037-0.047 0.057-0.052 0.024-0.006 0.040-0.021 0.045-0.048 0.004-0.021 0.023-0.082 0.042-0.137 0.044-0.129 0.044-0.17-0.004-0.211-0.030-0.025-0.038-0.048-0.044-0.115-0.004-0.054-0.016-0.091-0.033-0.108-0.014-0.014-0.047-0.061-0.071-0.105-0.024-0.042-0.050-0.078-0.057-0.078s-0.013-0.007-0.013-0.016c0-0.008-0.021-0.042-0.048-0.075s-0.055-0.075-0.064-0.095c-0.008-0.025-0.028-0.041-0.061-0.048-0.025-0.007-0.062-0.016-0.081-0.020-0.028-0.007-0.034-0.018-0.035-0.062-0.001-0.038 0.006-0.059 0.023-0.068 0.013-0.007 0.037-0.035 0.054-0.062 0.018-0.030 0.042-0.050 0.058-0.050s0.047-0.010 0.069-0.021c0.038-0.020 0.047-0.020 0.088 0.001 0.051 0.027 0.157 0.020 0.268-0.016 0.051-0.017 0.072-0.034 0.099-0.082 0.051-0.088 0.065-0.139 0.058-0.197-0.004-0.040-0.013-0.054-0.040-0.059-0.035-0.010-0.037-0.017-0.040-0.115-0.001-0.047-0.008-0.059-0.040-0.075-0.024-0.011-0.040-0.031-0.041-0.050 0-0.017-0.020-0.062-0.041-0.102-0.023-0.038-0.057-0.099-0.076-0.134s-0.064-0.092-0.099-0.127c-0.035-0.034-0.065-0.071-0.065-0.081 0-0.008-0.035-0.054-0.076-0.098-0.076-0.079-0.078-0.079-0.142-0.071-0.054 0.008-0.074 0.004-0.14-0.033-0.088-0.051-0.134-0.055-0.183-0.016-0.034 0.025-0.037 0.025-0.058 0.003-0.031-0.034-0.052-0.093-0.044-0.125 0.004-0.016-0.001-0.040-0.013-0.054-0.020-0.027-0.025-0.027-0.089-0.008-0.038 0.010-0.108 0.018-0.153 0.020-0.082 0.001-0.085 0.003-0.105 0.051-0.010 0.027-0.031 0.057-0.047 0.068s-0.027 0.035-0.027 0.059c0 0.033-0.011 0.047-0.067 0.078-0.038 0.021-0.079 0.050-0.093 0.061-0.023 0.021-0.025 0.020-0.034-0.008-0.004-0.017-0.020-0.034-0.034-0.038-0.016-0.006-0.037-0.027-0.048-0.050-0.011-0.021-0.044-0.054-0.072-0.071-0.041-0.027-0.050-0.038-0.044-0.068 0.004-0.018-0.006-0.068-0.020-0.11-0.016-0.041-0.027-0.085-0.027-0.098 0-0.011-0.016-0.031-0.035-0.044-0.024-0.016-0.035-0.035-0.035-0.064s-0.016-0.058-0.050-0.092c-0.027-0.027-0.050-0.061-0.050-0.075s-0.010-0.034-0.021-0.044c-0.011-0.010-0.025-0.048-0.030-0.086-0.008-0.064-0.014-0.072-0.057-0.091-0.033-0.013-0.045-0.027-0.040-0.040 0.010-0.027-0.045-0.156-0.079-0.187-0.021-0.018-0.023-0.033-0.013-0.068 0.023-0.082-0.028-0.173-0.117-0.207-0.024-0.010-0.042-0.028-0.048-0.054-0.006-0.021-0.018-0.052-0.028-0.068-0.011-0.016-0.020-0.048-0.020-0.074 0-0.033-0.011-0.057-0.035-0.078-0.021-0.018-0.035-0.045-0.035-0.067s-0.011-0.044-0.027-0.054c-0.014-0.010-0.038-0.051-0.052-0.092-0.030-0.092-0.096-0.215-0.15-0.279-0.038-0.042-0.041-0.052-0.031-0.123 0.006-0.057 0.004-0.076-0.008-0.076-0.010 0-0.035-0.016-0.059-0.035-0.023-0.020-0.057-0.035-0.076-0.035s-0.042-0.014-0.055-0.033c-0.028-0.044-0.117-0.081-0.185-0.078-0.031 0-0.071-0.006-0.088-0.016s-0.044-0.014-0.057-0.010c-0.035 0.011-0.074-0.020-0.074-0.062 0-0.020 0.006-0.086 0.014-0.149s0.020-0.157 0.025-0.212c0.008-0.089 0.013-0.099 0.042-0.103 0.031-0.004 0.033-0.008 0.028-0.149l-0.004-0.143-0.050-0.034c-0.027-0.018-0.048-0.042-0.045-0.055 0.007-0.030-0.068-0.102-0.105-0.103-0.072 0-0.127-0.089-0.154-0.244-0.006-0.038-0.016-0.054-0.033-0.054-0.013 0-0.042-0.016-0.067-0.034-0.035-0.028-0.038-0.037-0.023-0.055 0.045-0.057-0.030-0.168-0.125-0.187-0.028-0.006-0.042-0.014-0.033-0.017s0.017-0.018 0.017-0.033 0.007-0.031 0.014-0.035c0.008-0.004 0.014-0.024 0.014-0.041 0-0.024-0.014-0.040-0.048-0.057-0.027-0.013-0.055-0.023-0.064-0.023s-0.018-0.016-0.024-0.035c-0.007-0.027-0.018-0.035-0.050-0.035-0.028 0-0.041-0.007-0.041-0.023 0-0.041-0.069-0.173-0.095-0.181-0.014-0.004-0.054-0.038-0.089-0.074-0.035-0.037-0.085-0.075-0.109-0.086-0.041-0.016-0.047-0.025-0.047-0.069s-0.011-0.062-0.076-0.125c-0.096-0.093-0.144-0.184-0.137-0.26 0-0.010 0.024-0.028 0.051-0.041 0.048-0.023 0.051-0.023 0.091 0.007 0.037 0.027 0.054 0.030 0.125 0.023 0.074-0.008 0.088-0.006 0.125 0.025 0.074 0.059 0.149 0.096 0.2 0.096 0.030 0 0.048 0.007 0.048 0.018 0 0.047 0.18 0.093 0.205 0.052 0.024-0.040 0.134 0.004 0.134 0.052 0 0.018 0.051 0.052 0.099 0.068 0.020 0.006 0.071 0.035 0.115 0.064 0.069 0.047 0.093 0.054 0.185 0.059 0.076 0.004 0.122 0.016 0.159 0.038 0.030 0.018 0.061 0.028 0.078 0.023 0.034-0.010 0.101 0.016 0.101 0.040 0 0.021 0.13 0.108 0.241 0.16 0.035 0.017 0.092 0.064 0.127 0.105s0.088 0.089 0.117 0.109c0.054 0.034 0.064 0.051 0.095 0.154 0.010 0.031 0.042 0.085 0.075 0.117l0.058 0.062 0.095-0.010c0.059-0.006 0.123-0.023 0.168-0.045 0.051-0.025 0.085-0.034 0.11-0.028 0.021 0.006 0.061 0.014 0.088 0.021s0.072 0.024 0.099 0.041 0.069 0.031 0.092 0.031c0.054 0 0.106 0.014 0.106 0.028 0 0.007 0.061 0.072 0.136 0.147 0.134 0.134 0.136 0.136 0.204 0.136 0.086 0 0.113 0.010 0.113 0.042 0 0.028 0.037 0.048 0.050 0.028 0.028-0.047 0.122 0.013 0.14 0.089 0.006 0.025 0.018 0.038 0.038 0.038 0.016 0 0.062 0.016 0.103 0.035s0.096 0.040 0.123 0.044c0.035 0.007 0.074 0.035 0.143 0.11 0.117 0.123 0.133 0.14 0.151 0.176 0.007 0.014 0.044 0.038 0.081 0.052 0.064 0.024 0.068 0.024 0.085 0.001 0.025-0.035 0.071-0.008 0.081 0.048 0.008 0.035 0.016 0.042 0.051 0.042 0.031 0 0.045 0.008 0.052 0.033 0.017 0.057 0.103 0.157 0.166 0.195 0.033 0.020 0.068 0.054 0.079 0.075 0.014 0.033 0.025 0.038 0.058 0.034 0.025-0.004 0.044 0.001 0.054 0.018 0.013 0.020 0.025 0.023 0.067 0.013 0.027-0.006 0.061-0.020 0.072-0.030 0.014-0.011 0.025-0.013 0.031-0.003 0.006 0.007 0.024 0.021 0.042 0.031 0.017 0.008 0.031 0.027 0.031 0.038 0 0.028 0.055 0.021 0.176-0.021 0.105-0.037 0.127-0.037 0.178 0.001 0.048 0.034 0.052 0.064 0.021 0.125-0.020 0.038-0.020 0.044 0.007 0.068 0.025 0.024 0.027 0.028 0.007 0.037-0.016 0.006-0.023 0.025-0.021 0.068 0.001 0.034-0.008 0.096-0.021 0.139-0.016 0.055-0.020 0.105-0.014 0.17 0.006 0.051 0.001 0.123-0.007 0.161-0.014 0.064-0.013 0.076 0.021 0.143 0.020 0.041 0.035 0.081 0.035 0.089 0 0.031 0.047 0.062 0.079 0.054 0.018-0.006 0.057 0 0.085 0.013 0.028 0.011 0.067 0.021 0.085 0.021 0.017 0 0.037 0.007 0.041 0.016 0.006 0.007 0.020 0.011 0.033 0.008s0.055 0.010 0.092 0.028c0.038 0.018 0.102 0.038 0.142 0.042 0.079 0.008 0.137 0.037 0.137 0.067 0 0.010 0.013 0.030 0.028 0.044s0.028 0.042 0.028 0.062c0 0.020 0.010 0.050 0.021 0.064 0.011 0.016 0.021 0.042 0.021 0.061 0 0.021 0.008 0.033 0.024 0.033 0.038 0 0.126 0.068 0.166 0.127 0.034 0.051 0.040 0.054 0.125 0.061 0.050 0.003 0.139 0.024 0.198 0.045 0.109 0.040 0.109 0.040 0.174 0.014 0.047-0.017 0.079-0.044 0.113-0.091l0.048-0.065 0.001-0.205c0-0.113 0-0.224 0-0.246s-0.013-0.057-0.028-0.076c-0.016-0.018-0.028-0.045-0.028-0.058s-0.016-0.052-0.035-0.089c-0.020-0.037-0.035-0.076-0.035-0.088 0-0.013-0.013-0.030-0.027-0.040-0.021-0.013-0.024-0.024-0.014-0.050 0.020-0.052 0.016-0.105-0.010-0.133-0.014-0.016-0.028-0.067-0.034-0.129-0.007-0.057-0.018-0.122-0.027-0.146-0.008-0.023-0.020-0.081-0.027-0.127l-0.010-0.085-0.059-0.004c-0.055-0.004-0.058-0.007-0.048-0.035 0.021-0.057 0.030-0.241 0.018-0.395-0.010-0.122-0.020-0.166-0.050-0.225-0.037-0.069-0.038-0.076-0.021-0.154 0.016-0.076 0.014-0.084-0.016-0.126-0.024-0.033-0.037-0.079-0.047-0.161-0.008-0.071-0.023-0.126-0.037-0.142-0.020-0.021-0.023-0.058-0.020-0.212l0.003-0.187 0.059-0.052c0.069-0.061 0.079-0.064 0.092-0.028 0.011 0.030 0.038 0.051 0.108 0.088 0.028 0.016 0.052 0.038 0.052 0.048s0.010 0.027 0.021 0.037c0.011 0.010 0.024 0.040 0.030 0.068s0.025 0.064 0.044 0.079c0.020 0.018 0.042 0.064 0.057 0.115 0.014 0.052 0.040 0.102 0.067 0.132 0.038 0.041 0.050 0.045 0.092 0.038l0.047-0.008-0.008 0.050c-0.008 0.044-0.004 0.052 0.041 0.086 0.048 0.037 0.050 0.042 0.047 0.119-0.004 0.069 0.001 0.088 0.034 0.126 0.021 0.025 0.041 0.058 0.047 0.074 0.006 0.020 0.021 0.028 0.050 0.028 0.023 0 0.065 0.016 0.093 0.035 0.048 0.033 0.064 0.035 0.207 0.034 0.171-0.001 0.195 0.008 0.195 0.078 0.001 0.037 0.011 0.051 0.065 0.084 0.034 0.023 0.074 0.057 0.088 0.076s0.045 0.059 0.071 0.089c0.024 0.028 0.045 0.062 0.045 0.074s0.013 0.033 0.028 0.047c0.016 0.014 0.028 0.034 0.028 0.045s0.010 0.023 0.021 0.027c0.011 0.006 0.021 0.017 0.021 0.027s0.023 0.027 0.050 0.037 0.050 0.027 0.050 0.038c0 0.031 0.085 0.102 0.122 0.102 0.038 0 0.064 0.040 0.054 0.079-0.006 0.021 0.010 0.044 0.054 0.085 0.033 0.030 0.099 0.095 0.146 0.142 0.084 0.084 0.088 0.086 0.123 0.068 0.054-0.028 0.181-0.044 0.238-0.030 0.113 0.027 0.127 0.028 0.127 0.004 0-0.011 0.013-0.028 0.027-0.037 0.037-0.018 0.161-0.018 0.181 0.001 0.010 0.010 0.034-0.007 0.081-0.061 0.109-0.122 0.125-0.163 0.113-0.292-0.007-0.096-0.007-0.106 0.011-0.084 0.011 0.016 0.033 0.025 0.052 0.021 0.025-0.003 0.041-0.027 0.078-0.12 0.044-0.11 0.045-0.12 0.035-0.241-0.006-0.068-0.017-0.168-0.025-0.224-0.008-0.054-0.014-0.109-0.016-0.122 0-0.013-0.018-0.042-0.041-0.067-0.044-0.045-0.064-0.11-0.055-0.181 0.003-0.031 0.017-0.047 0.054-0.065 0.055-0.028 0.084-0.079 0.085-0.15 0-0.027 0.014-0.067 0.030-0.091 0.025-0.035 0.028-0.052 0.020-0.115-0.006-0.041-0.010-0.092-0.010-0.116 0.008-0.28-0.008-0.562-0.034-0.604-0.006-0.008-0.010-0.037-0.008-0.062s-0.010-0.061-0.024-0.079c-0.014-0.017-0.030-0.051-0.035-0.075-0.006-0.023-0.023-0.055-0.037-0.071s-0.041-0.059-0.059-0.099c-0.040-0.086-0.098-0.122-0.137-0.086-0.047 0.042-0.086 0.021-0.086-0.047 0-0.040-0.103-0.115-0.159-0.115-0.025 0-0.065-0.013-0.088-0.027-0.028-0.018-0.055-0.025-0.082-0.020-0.023 0.004-0.057 0-0.075-0.010-0.030-0.016-0.033-0.021-0.014-0.045 0.013-0.020 0.016-0.041 0.007-0.071-0.023-0.078 0.038-0.174 0.123-0.19 0.041-0.007 0.047-0.014 0.047-0.054 0-0.024-0.013-0.071-0.027-0.103-0.031-0.068-0.028-0.074 0.067-0.11 0.065-0.027 0.091-0.076 0.061-0.122-0.008-0.014-0.016-0.050-0.016-0.076 0-0.040 0.006-0.050 0.028-0.050 0.034 0 0.064-0.055 0.082-0.154 0.010-0.057 0.008-0.093-0.008-0.157-0.013-0.047-0.020-0.088-0.016-0.092 0.006-0.004 0.027 0.001 0.050 0.014 0.037 0.018 0.042 0.018 0.072-0.010 0.021-0.020 0.033-0.047 0.033-0.075 0-0.027 0.011-0.055 0.027-0.069 0.028-0.025 0.058-0.122 0.058-0.19 0-0.030-0.010-0.045-0.037-0.058-0.035-0.016-0.037-0.021-0.028-0.082 0.004-0.035 0.016-0.074 0.024-0.083 0.024-0.028 0.055-0.024 0.067 0.010 0.011 0.028 0.013 0.028 0.042 0.003 0.021-0.017 0.034-0.048 0.041-0.096 0.006-0.044 0.023-0.089 0.047-0.12 0.089-0.115 0.125-0.211 0.137-0.371 0.013-0.147 0.016-0.153 0.075-0.241 0.057-0.081 0.062-0.099 0.068-0.188 0.004-0.069 0.014-0.108 0.031-0.127 0.014-0.016 0.040-0.057 0.057-0.092s0.038-0.068 0.047-0.074c0.010-0.006 0.008-0.023-0.003-0.050-0.033-0.079-0.001-0.35 0.042-0.374 0.033-0.017 0.098-0.151 0.098-0.201 0-0.095 0.047-0.345 0.071-0.378 0.014-0.021 0.031-0.055 0.037-0.079 0.008-0.038 0.054-0.139 0.099-0.218 0.010-0.020 0.020-0.071 0.020-0.115 0-0.058 0.007-0.089 0.028-0.116 0.023-0.028 0.028-0.058 0.030-0.154 0-0.178 0.017-0.252 0.059-0.283 0.023-0.017 0.041-0.047 0.047-0.076 0.006-0.028 0.023-0.058 0.041-0.071 0.035-0.023 0.045-0.071 0.055-0.253 0.004-0.054 0.013-0.143 0.021-0.195 0.010-0.054 0.016-0.137 0.013-0.185-0.003-0.069 0.003-0.096 0.027-0.13 0.041-0.058 0.089-0.156 0.089-0.183 0-0.011-0.009-0.021-0.018-0.021-0.028 0-0.057-0.062-0.045-0.098 0.014-0.047 0.069-0.078 0.105-0.058 0.017 0.009 0.030 0.021 0.030 0.028s0.018 0.016 0.041 0.021c0.044 0.010 0.11 0.098 0.125 0.166 0.004 0.021 0.027 0.058 0.050 0.081 0.040 0.038 0.042 0.050 0.050 0.184 0.007 0.12 0.014 0.15 0.041 0.188 0.018 0.025 0.034 0.059 0.034 0.076 0 0.041 0.068 0.248 0.091 0.275 0.011 0.013 0.023 0.088 0.030 0.191 0.006 0.093 0.013 0.188 0.014 0.211s0.013 0.045 0.025 0.052c0.011 0.007 0.045 0.061 0.074 0.117 0.041 0.085 0.050 0.115 0.042 0.15-0.006 0.025-0.006 0.081 0 0.126 0.009 0.072 0.016 0.085 0.086 0.153 0.042 0.040 0.076 0.082 0.076 0.093s0.033 0.040 0.071 0.064c0.092 0.057 0.093 0.092 0.011 0.215-0.052 0.076-0.061 0.101-0.062 0.168-0.001 0.042-0.009 0.081-0.016 0.082-0.037 0.013-0.064 0.045-0.086 0.112-0.028 0.075-0.021 0.127 0.017 0.142 0.037 0.014 0.068 0.156 0.065 0.289-0.004 0.173-0.006 0.168 0.051 0.193 0.047 0.020 0.051 0.025 0.042 0.064-0.004 0.025 0.003 0.068 0.020 0.113 0.016 0.038 0.028 0.093 0.028 0.122s0.007 0.092 0.017 0.142c0.014 0.078 0.023 0.095 0.057 0.112s0.040 0.030 0.040 0.078c0 0.031 0.010 0.079 0.023 0.109 0.013 0.028 0.025 0.079 0.027 0.11 0.001 0.042 0.016 0.075 0.047 0.113 0.038 0.045 0.045 0.067 0.045 0.127 0 0.055 0.014 0.102 0.057 0.193 0.031 0.067 0.065 0.127 0.075 0.137 0.011 0.008 0.031 0.057 0.044 0.106 0.014 0.051 0.034 0.095 0.045 0.099s0.020 0.020 0.020 0.034c0 0.016 0.017 0.052 0.038 0.082 0.027 0.041 0.040 0.081 0.045 0.151l0.010 0.095-0.047 0.017c-0.025 0.010-0.050 0.028-0.055 0.042-0.009 0.028-0.064 0.047-0.099 0.034-0.013-0.004-0.051 0.004-0.086 0.020s-0.085 0.028-0.11 0.028c-0.035 0-0.076 0.021-0.159 0.082-0.061 0.044-0.127 0.092-0.149 0.105-0.045 0.030-0.075 0.11-0.061 0.171 0.006 0.025 0.011 0.178 0.016 0.341 0.004 0.244 0.009 0.302 0.028 0.331 0.017 0.027 0.020 0.048 0.011 0.093-0.030 0.156-0.001 0.5 0.048 0.599 0.028 0.055 0.030 0.067 0.016 0.184-0.014 0.11-0.017 0.156-0.013 0.313 0 0.021-0.003 0.129-0.007 0.239-0.007 0.149-0.004 0.21 0.010 0.234 0.011 0.021 0.018 0.109 0.020 0.26 0.003 0.198 0.007 0.235 0.033 0.283 0.016 0.030 0.038 0.075 0.051 0.101 0.011 0.025 0.034 0.052 0.050 0.061 0.023 0.013 0.028 0.030 0.028 0.086 0 0.038 0.010 0.093 0.021 0.122 0.014 0.031 0.018 0.069 0.013 0.098-0.007 0.037-0.003 0.050 0.013 0.057 0.013 0.004 0.034 0.035 0.047 0.071 0.031 0.081 0.071 0.093 0.232 0.078 0.103-0.011 0.122-0.010 0.136 0.011 0.010 0.013 0.033 0.024 0.051 0.025s0.052 0.007 0.075 0.011c0.061 0.013 0.204-0.042 0.219-0.085 0.007-0.018 0.025-0.037 0.041-0.042s0.030-0.016 0.030-0.023 0.009-0.013 0.020-0.013c0.010 0 0.027-0.010 0.037-0.021s0.037-0.021 0.059-0.021c0.055 0 0.106-0.028 0.168-0.095 0.059-0.062 0.084-0.103 0.084-0.143 0-0.034 0.025-0.045 0.108-0.045 0.068 0 0.119-0.035 0.119-0.085 0-0.040 0.079-0.159 0.119-0.18 0.025-0.014 0.037-0.034 0.044-0.086 0.009-0.061 0.017-0.074 0.096-0.137 0.11-0.091 0.146-0.125 0.154-0.15 0.006-0.016 0.011-0.017 0.027-0.001 0.028 0.027 0.068 0.020 0.085-0.014 0.038-0.088 0.146-0.208 0.229-0.256 0.061-0.037 0.067-0.044 0.067-0.095 0-0.044 0.009-0.061 0.041-0.083 0.023-0.017 0.054-0.030 0.071-0.030 0.016 0 0.042-0.020 0.061-0.044 0.040-0.054 0.098-0.086 0.125-0.069 0.013 0.007 0.027 0.007 0.038-0.003 0.013-0.010 0.024-0.010 0.040 0.003 0.017 0.014 0.020 0.034 0.013 0.083-0.006 0.035-0.016 0.072-0.023 0.082s-0.010 0.035-0.004 0.058c0.006 0.027-0.001 0.072-0.020 0.125-0.017 0.045-0.030 0.116-0.030 0.156 0 0.064-0.009 0.088-0.064 0.17-0.041 0.064-0.058 0.102-0.050 0.11s0.014 0.068 0.014 0.133c0 0.103-0.006 0.132-0.042 0.21-0.025 0.051-0.065 0.108-0.095 0.132l-0.051 0.042 0.009 0.109c0.009 0.095 0.006 0.115-0.020 0.157-0.028 0.047-0.030 0.078-0.006 0.153 0.006 0.021-0.006 0.047-0.041 0.092-0.028 0.035-0.051 0.074-0.051 0.085s-0.016 0.051-0.035 0.088c-0.018 0.035-0.038 0.092-0.044 0.125-0.006 0.037-0.020 0.065-0.038 0.075-0.044 0.027-0.11 0.188-0.112 0.27 0 0.057 0.006 0.075 0.034 0.096 0.020 0.016 0.047 0.024 0.069 0.020 0.031-0.006 0.040 0.001 0.062 0.052 0.014 0.033 0.059 0.092 0.099 0.13 0.041 0.040 0.078 0.084 0.084 0.099 0.014 0.044 0.101 0.092 0.17 0.095 0.048 0.003 0.074-0.006 0.112-0.035 0.030-0.023 0.068-0.038 0.093-0.038 0.034 0 0.048-0.010 0.065-0.042 0.013-0.024 0.031-0.042 0.042-0.042s0.034-0.014 0.050-0.031c0.025-0.028 0.044-0.033 0.122-0.031 0.091 0.001 0.093 0 0.164-0.067s0.072-0.067 0.061-0.134c-0.006-0.042-0.020-0.076-0.037-0.088-0.016-0.011-0.027-0.035-0.027-0.059s-0.013-0.067-0.028-0.096c-0.016-0.031-0.025-0.065-0.021-0.076 0.010-0.025 0.136-0.054 0.241-0.054 0.054 0 0.085 0.008 0.112 0.030 0.031 0.024 0.061 0.030 0.212 0.034 0.185 0.004 0.212-0.003 0.214-0.062 0-0.013 0.014-0.024 0.031-0.027 0.018-0.003 0.035-0.020 0.044-0.042 0.023-0.067 0.086-0.13 0.13-0.13 0.021 0 0.047-0.008 0.055-0.020 0.010-0.011 0.028-0.017 0.042-0.013 0.016 0.004 0.045-0.016 0.084-0.055 0.033-0.033 0.059-0.065 0.059-0.071s0.021-0.011 0.048-0.011c0.065 0 0.11-0.018 0.156-0.064 0.034-0.034 0.047-0.037 0.126-0.033l0.088 0.004-0.003-0.052c-0.001-0.030-0.020-0.109-0.038-0.177-0.028-0.099-0.045-0.133-0.082-0.163-0.041-0.037-0.044-0.042-0.030-0.088 0.010-0.031 0.010-0.054 0.001-0.062-0.007-0.007-0.011-0.041-0.009-0.074 0.007-0.092 0.047-0.116 0.204-0.12 0.069-0.001 0.149-0.008 0.176-0.016 0.030-0.008 0.074-0.008 0.116 0 0.058 0.013 0.078 0.010 0.147-0.018l0.079-0.034 0.040 0.031c0.059 0.044 0.126 0.038 0.181-0.013 0.025-0.024 0.055-0.042 0.067-0.042 0.010 0 0.037-0.016 0.059-0.034 0.021-0.018 0.064-0.041 0.092-0.050s0.069-0.040 0.091-0.067 0.048-0.048 0.059-0.048c0.011 0 0.041 0.023 0.067 0.051 0.044 0.048 0.050 0.050 0.156 0.052l0.109 0.003 0.016-0.048c0.014-0.040 0.028-0.051 0.078-0.067 0.033-0.008 0.069-0.025 0.081-0.034 0.021-0.017 0.294-0.021 0.321-0.006 0.007 0.004 0.031 0 0.055-0.008 0.033-0.014 0.041-0.025 0.041-0.062 0-0.058 0.051-0.108 0.115-0.113 0.052-0.006 0.12-0.031 0.156-0.062 0.014-0.010 0.067-0.021 0.123-0.024 0.055-0.003 0.108-0.008 0.116-0.014 0.010-0.006 0.014-0.031 0.011-0.055-0.004-0.041 0-0.048 0.041-0.061 0.025-0.007 0.054-0.008 0.064-0.003 0.034 0.023 0.061 0.011 0.093-0.038 0.017-0.028 0.031-0.058 0.031-0.068 0-0.035 0.037-0.051 0.123-0.051 0.084 0 0.089-0.003 0.11-0.042 0.011-0.023 0.021-0.055 0.021-0.071 0-0.028 0.007-0.031 0.068-0.025 0.061 0.004 0.074 0 0.115-0.041 0.024-0.025 0.067-0.051 0.092-0.059 0.062-0.016 0.156 0.001 0.208 0.040s0.069 0.038 0.069-0.006c0-0.024 0.030-0.067 0.099-0.136 0.055-0.057 0.099-0.109 0.099-0.116s0.023-0.034 0.051-0.059c0.045-0.042 0.054-0.045 0.093-0.030 0.038 0.014 0.045 0.013 0.072-0.021 0.028-0.035 0.040-0.038 0.13-0.038 0.055 0 0.12 0.007 0.146 0.016 0.040 0.014 0.050 0.011 0.078-0.016 0.068-0.068 0.168-0.144 0.188-0.144 0.028 0 0.074-0.050 0.085-0.092 0.009-0.037 0.016-0.040 0.076-0.037 0.020 0.001 0.058-0.011 0.085-0.030s0.079-0.051 0.117-0.072c0.037-0.021 0.067-0.045 0.067-0.052 0-0.008 0.006-0.014 0.014-0.014 0.023 0 0.059 0.086 0.052 0.125-0.004 0.020 0 0.047 0.009 0.061 0.024 0.038-0.013 0.171-0.065 0.239-0.041 0.051-0.050 0.055-0.093 0.048s-0.047-0.006-0.031 0.014c0.016 0.018 0.014 0.025-0.001 0.042-0.011 0.011-0.030 0.040-0.040 0.064s-0.025 0.044-0.035 0.044c-0.021 0-0.074 0.082-0.086 0.136-0.006 0.020-0.027 0.050-0.050 0.065-0.033 0.025-0.041 0.041-0.041 0.085 0 0.057-0.014 0.076-0.106 0.153-0.024 0.020-0.065 0.064-0.092 0.098s-0.067 0.069-0.088 0.081c-0.055 0.028-0.079 0.058-0.096 0.116-0.010 0.035-0.035 0.068-0.078 0.102-0.062 0.048-0.088 0.092-0.089 0.151-0.001 0.042-0.065 0.15-0.127 0.214-0.067 0.068-0.127 0.171-0.163 0.275-0.006 0.014-0.018 0.025-0.030 0.025-0.010 0-0.024 0.017-0.030 0.038-0.004 0.020-0.021 0.054-0.037 0.072-0.014 0.020-0.027 0.044-0.027 0.054s-0.006 0.020-0.014 0.020c-0.007 0-0.014 0.007-0.014 0.016 0 0.037-0.061 0.142-0.106 0.184-0.028 0.027-0.074 0.096-0.103 0.154-0.028 0.058-0.071 0.13-0.093 0.16-0.028 0.035-0.045 0.076-0.052 0.13-0.006 0.042-0.023 0.093-0.038 0.113-0.017 0.020-0.033 0.055-0.038 0.076-0.009 0.041-0.041 0.064-0.109 0.078-0.028 0.007-0.042 0.023-0.059 0.068-0.011 0.034-0.024 0.079-0.025 0.103-0.003 0.030-0.018 0.051-0.054 0.072-0.027 0.018-0.067 0.047-0.088 0.065-0.050 0.041-0.163 0.208-0.184 0.269-0.009 0.025-0.031 0.062-0.050 0.081-0.018 0.020-0.031 0.045-0.030 0.057s-0.007 0.038-0.021 0.058c-0.013 0.018-0.024 0.042-0.024 0.051s-0.016 0.035-0.034 0.058c-0.018 0.021-0.035 0.052-0.038 0.068s-0.021 0.031-0.041 0.035c-0.023 0.004-0.045 0.027-0.061 0.061l-0.027 0.054 0.037 0.047c0.031 0.041 0.033 0.050 0.014 0.057-0.040 0.016-0.048 0.008-0.048-0.034 0-0.050-0.025-0.055-0.064-0.014-0.014 0.016-0.035 0.031-0.048 0.035-0.025 0.007-0.082 0.102-0.069 0.115 0.004 0.004-0.030 0.044-0.075 0.089s-0.084 0.089-0.084 0.096c0 0.008-0.011 0.025-0.027 0.038-0.014 0.013-0.030 0.051-0.034 0.084-0.011 0.084-0.061 0.116-0.116 0.075-0.027-0.020-0.027-0.023-0.004-0.089 0.059-0.18 0.062-0.289 0.007-0.31-0.017-0.006-0.017-0.016-0.003-0.055 0.009-0.027 0.020-0.054 0.025-0.058 0.006-0.006 0.010-0.031 0.010-0.058 0-0.038-0.009-0.052-0.045-0.075-0.040-0.024-0.061-0.027-0.132-0.020-0.047 0.006-0.103 0.021-0.127 0.035-0.054 0.033-0.061 0.037-0.113 0.048-0.023 0.006-0.067 0.037-0.099 0.071-0.041 0.045-0.074 0.067-0.117 0.076-0.034 0.007-0.072 0.023-0.086 0.035s-0.057 0.033-0.096 0.044c-0.045 0.014-0.092 0.041-0.126 0.076-0.031 0.030-0.069 0.061-0.086 0.071-0.018 0.008-0.037 0.033-0.041 0.051-0.004 0.020-0.020 0.037-0.033 0.038-0.092 0.010-0.154 0.027-0.173 0.048-0.009 0.011-0.023 0.020-0.030 0.020s-0.058 0.044-0.112 0.099c-0.054 0.054-0.117 0.109-0.14 0.123-0.024 0.013-0.042 0.030-0.042 0.035 0 0.025-0.059 0.068-0.093 0.068-0.027 0-0.067 0.028-0.146 0.106-0.059 0.058-0.117 0.106-0.129 0.106s-0.033 0.010-0.047 0.020c-0.014 0.011-0.037 0.017-0.050 0.013-0.017-0.004-0.037 0.014-0.067 0.062-0.047 0.075-0.217 0.243-0.245 0.245-0.010 0-0.025 0.016-0.034 0.035s-0.031 0.040-0.048 0.044c-0.038 0.010-0.047 0.037-0.033 0.102s-0.023 0.17-0.074 0.218c-0.038 0.035-0.041 0.045-0.041 0.143 0 0.115 0.031 0.184 0.096 0.217 0.018 0.008 0.051 0.033 0.072 0.054 0.021 0.020 0.052 0.037 0.071 0.037s0.058 0.014 0.089 0.031c0.055 0.031 0.057 0.031 0.076 0.006 0.023-0.033 0.108-0.065 0.168-0.065 0.031 0 0.061-0.017 0.105-0.057 0.067-0.062 0.091-0.068 0.151-0.035 0.023 0.011 0.068 0.021 0.101 0.021 0.050 0 0.071-0.010 0.113-0.048 0.030-0.025 0.068-0.051 0.084-0.057 0.017-0.006 0.041-0.021 0.055-0.037s0.038-0.028 0.052-0.028c0.016 0 0.058-0.013 0.093-0.028l0.068-0.030 0.088 0.028c0.048 0.016 0.098 0.025 0.108 0.021 0.021-0.008 0.079 0.017 0.095 0.041 0.006 0.007 0.001 0.045-0.010 0.084-0.010 0.038-0.014 0.079-0.010 0.091s-0.009 0.050-0.028 0.086c-0.018 0.038-0.040 0.084-0.045 0.103-0.011 0.037-0.065 0.109-0.13 0.174-0.021 0.021-0.042 0.055-0.047 0.076-0.004 0.025-0.028 0.052-0.068 0.079-0.033 0.021-0.059 0.047-0.059 0.054s-0.018 0.055-0.042 0.105c-0.033 0.071-0.058 0.101-0.109 0.136-0.081 0.055-0.089 0.065-0.089 0.113 0 0.025-0.020 0.055-0.062 0.093-0.074 0.068-0.089 0.123-0.061 0.217 0.013 0.044 0.016 0.076 0.006 0.103-0.024 0.074 0.054 0.231 0.106 0.218 0.037-0.010 0.041 0.006 0.020 0.076-0.024 0.082-0.016 0.109 0.038 0.123 0.027 0.007 0.052 0.027 0.067 0.052 0.041 0.074 0.079 0.079 0.488 0.074 0.166-0.003 0.188-0.006 0.228-0.034 0.024-0.017 0.061-0.038 0.082-0.047 0.020-0.007 0.042-0.028 0.050-0.045 0.007-0.018 0.030-0.057 0.050-0.086 0.041-0.059 0.045-0.099 0.016-0.151-0.027-0.047-0.027-0.132 0-0.26 0.017-0.082 0.018-0.13 0.009-0.235l-0.014-0.132 0.058-0.068c0.033-0.038 0.065-0.069 0.074-0.069 0.010 0 0.041 0.013 0.072 0.028s0.075 0.034 0.101 0.042c0.030 0.010 0.048 0.027 0.054 0.050 0.007 0.027 0.018 0.035 0.050 0.035 0.042 0 0.074 0.034 0.11 0.117 0.013 0.028 0.025 0.038 0.042 0.033 0.014-0.004 0.044 0.001 0.067 0.013 0.021 0.011 0.054 0.021 0.071 0.021 0.035 0 0.102 0.064 0.11 0.105 0.004 0.030 0.194 0.139 0.285 0.164 0.028 0.008 0.072 0.034 0.095 0.057 0.033 0.031 0.058 0.042 0.096 0.044 0.147 0.001 0.191 0.008 0.208 0.031 0.020 0.027 0.106 0.067 0.146 0.067 0.014 0 0.045 0.021 0.071 0.047 0.047 0.048 0.109 0.058 0.168 0.027 0.017-0.010 0.054-0.017 0.082-0.017s0.122-0.023 0.207-0.051c0.086-0.028 0.16-0.048 0.164-0.044 0.003 0.004 0.030-0.003 0.058-0.014l0.051-0.021 0.11 0.119-0.011 0.093c-0.014 0.116-0.011 0.195 0.009 0.272 0.013 0.050 0.020 0.057 0.057 0.057 0.025 0 0.048 0.011 0.062 0.031 0.017 0.024 0.034 0.031 0.072 0.028 0.028-0.003 0.065 0.006 0.082 0.018 0.017 0.011 0.051 0.021 0.078 0.021s0.050 0.008 0.055 0.021c0.004 0.013 0.034 0.035 0.065 0.051 0.048 0.025 0.072 0.028 0.15 0.020 0.051-0.004 0.105-0.011 0.117-0.016 0.014-0.004 0.042 0.013 0.074 0.044 0.055 0.055 0.075 0.059 0.116 0.028 0.048-0.037 0.076-0.027 0.076 0.027 0 0.027-0.009 0.052-0.017 0.057-0.010 0.004 0.006 0.006 0.034 0.001s0.055-0.001 0.061 0.007c0.004 0.008 0.065 0.014 0.139 0.014 0.089 0.001 0.139 0.007 0.156 0.021 0.016 0.010 0.051 0.023 0.081 0.028 0.037 0.006 0.058 0.018 0.068 0.044 0.010 0.018 0.025 0.034 0.035 0.034s0.038 0.014 0.059 0.031c0.037 0.028 0.044 0.030 0.123 0.013 0.081-0.017 0.085-0.016 0.126 0.020 0.034 0.027 0.059 0.035 0.112 0.035 0.076 0 0.113 0.025 0.113 0.076 0 0.045 0.013 0.052 0.052 0.027 0.027-0.018 0.052-0.020 0.136-0.011 0.057 0.007 0.133 0.011 0.17 0.010 0.059-0.003 0.078 0.004 0.143 0.054 0.055 0.042 0.088 0.057 0.123 0.055 0.082-0.003 0.246 0.017 0.26 0.031 0.007 0.007 0.062 0.013 0.122 0.013 0.095 0 0.115 0.004 0.15 0.034 0.023 0.018 0.067 0.035 0.103 0.041 0.054 0.007 0.074 0.018 0.127 0.079 0.035 0.038 0.081 0.076 0.102 0.085 0.051 0.020 0.208 0.023 0.253 0.004 0.033-0.013 0.042-0.010 0.068 0.017 0.075 0.079 0.006 0.166-0.139 0.17-0.058 0.003-0.102 0.016-0.153 0.042-0.040 0.023-0.079 0.035-0.088 0.030-0.010-0.006-0.048 0.010-0.085 0.035-0.064 0.040-0.076 0.042-0.146 0.034-0.041-0.006-0.089-0.016-0.108-0.021-0.025-0.010-0.038-0.006-0.064 0.024-0.018 0.021-0.059 0.042-0.102 0.052-0.061 0.016-0.072 0.024-0.085 0.065-0.010 0.034-0.020 0.044-0.038 0.040-0.014-0.004-0.025-0.001-0.025 0.006s-0.035 0.013-0.078 0.013c-0.057 0-0.081 0.006-0.086 0.021-0.007 0.016-0.014 0.017-0.037 0.006-0.020-0.011-0.079-0.013-0.177-0.006-0.159 0.011-0.262 0.051-0.28 0.108-0.007 0.023-0.023 0.027-0.093 0.027-0.074 0-0.088 0.004-0.12 0.041-0.031 0.035-0.051 0.042-0.134 0.051-0.102 0.010-0.14 0.031-0.14 0.078 0 0.061-0.101 0.093-0.171 0.057-0.020-0.011-0.038-0.009-0.072 0.010-0.025 0.013-0.078 0.028-0.117 0.034-0.117 0.017-0.181 0.038-0.205 0.067-0.035 0.045-0.076 0.059-0.153 0.050-0.084-0.010-0.265 0.016-0.372 0.052-0.042 0.014-0.068 0.027-0.058 0.027 0.009 0.001 0.017 0.014 0.017 0.028 0 0.018-0.018 0.034-0.057 0.050-0.041 0.016-0.058 0.033-0.065 0.061-0.014 0.057-0.091 0.204-0.127 0.245-0.017 0.020-0.034 0.054-0.037 0.078-0.006 0.058-0.041 0.059-0.098 0.004-0.027-0.025-0.065-0.058-0.084-0.071-0.020-0.014-0.064-0.045-0.099-0.069-0.112-0.079-0.18-0.095-0.401-0.088-0.113 0.004-0.211 0.001-0.236-0.007-0.034-0.013-0.047-0.010-0.074 0.011-0.024 0.018-0.067 0.027-0.153 0.033-0.151 0.010-0.246 0.028-0.276 0.052-0.013 0.011-0.045 0.018-0.072 0.017-0.040-0.003-0.051 0.003-0.068 0.038-0.028 0.052-0.037 0.055-0.256 0.072-0.238 0.018-0.275 0.025-0.323 0.065-0.042 0.035-0.051 0.038-0.144 0.040-0.051 0.001-0.057 0.006-0.052 0.034 0.004 0.033-0.011 0.037-0.122 0.031-0.025-0.001-0.072 0.010-0.106 0.025-0.117 0.057-0.17 0.074-0.222 0.074-0.028 0-0.057-0.004-0.062-0.010s-0.030-0.011-0.052-0.013c-0.023-0.001-0.050-0.010-0.061-0.018-0.027-0.023-0.011-0.086 0.027-0.101 0.023-0.009 0.034-0.028 0.041-0.074 0.004-0.034 0.013-0.084 0.017-0.112 0.007-0.047 0.003-0.054-0.062-0.109-0.059-0.051-0.081-0.059-0.134-0.059-0.048 0-0.075-0.009-0.106-0.035l-0.041-0.035-0.232 0.010c-0.127 0.004-0.239 0.014-0.249 0.021s-0.054 0.016-0.099 0.020c-0.112 0.010-0.17 0.040-0.183 0.096-0.006 0.024-0.021 0.059-0.035 0.078-0.017 0.020-0.027 0.057-0.027 0.092 0 0.033-0.007 0.067-0.016 0.075-0.011 0.011-0.009 0.033 0.011 0.076 0.025 0.057 0.035 0.065 0.112 0.089 0.045 0.016 0.093 0.035 0.105 0.044 0.011 0.010 0.040 0.021 0.061 0.027 0.023 0.006 0.051 0.028 0.068 0.055 0.014 0.025 0.050 0.061 0.076 0.081s0.052 0.047 0.057 0.059c0.006 0.014 0.023 0.035 0.040 0.050s0.042 0.042 0.057 0.065c0.014 0.021 0.037 0.038 0.052 0.038 0.017 0 0.041 0.021 0.062 0.054 0.018 0.028 0.042 0.061 0.055 0.071 0.017 0.014 0.018 0.030 0.009 0.071-0.037 0.146-0.042 0.159-0.084 0.18-0.025 0.014-0.042 0.033-0.042 0.051 0 0.045-0.062 0.098-0.116 0.098-0.025 0-0.068 0.013-0.093 0.028s-0.055 0.028-0.067 0.028c-0.011 0-0.028 0.013-0.038 0.028-0.014 0.021-0.034 0.028-0.078 0.028-0.033 0-0.064 0.007-0.068 0.014-0.004 0.009-0.031 0.014-0.059 0.014-0.065 0-0.167 0.068-0.277 0.184-0.062 0.064-0.091 0.084-0.11 0.078-0.044-0.014-0.078 0.016-0.119 0.109-0.033 0.071-0.041 0.112-0.042 0.195 0 0.059-0.007 0.115-0.013 0.125s-0.007 0.034-0.003 0.052c0.007 0.027 0.024 0.038 0.072 0.051 0.038 0.010 0.071 0.028 0.085 0.050 0.018 0.030 0.033 0.034 0.105 0.034 0.075 0 0.088 0.004 0.119 0.042 0.020 0.023 0.054 0.045 0.075 0.051 0.023 0.004 0.065 0.024 0.093 0.044 0.051 0.035 0.052 0.035 0.13 0.013 0.042-0.013 0.082-0.030 0.086-0.037 0.004-0.009 0.031-0.014 0.058-0.014 0.062 0 0.075 0.031 0.059 0.147-0.007 0.047-0.010 0.098-0.006 0.11 0.003 0.014 0 0.030-0.009 0.034-0.024 0.016-0.040 0.076-0.025 0.102 0.007 0.013 0.016 0.041 0.020 0.061s0.024 0.054 0.044 0.075c0.020 0.021 0.035 0.044 0.035 0.052s0.020 0.013 0.044 0.013c0.052 0 0.108 0.052 0.132 0.126 0.016 0.048 0.030 0.057 0.126 0.078 0.035 0.009 0.038 0.014 0.038 0.072 0 0.051 0.004 0.064 0.025 0.064 0.014 0 0.062 0.038 0.109 0.085 0.091 0.092 0.127 0.103 0.202 0.065 0.021-0.010 0.072-0.024 0.112-0.030 0.041-0.006 0.092-0.023 0.112-0.040 0.035-0.027 0.037-0.034 0.031-0.134-0.007-0.11 0.001-0.154 0.051-0.253 0.021-0.044 0.038-0.061 0.061-0.061 0.031 0 0.075 0.047 0.075 0.081 0 0.035 0.074 0.132 0.101 0.132 0.020 0 0.031 0.017 0.042 0.064 0.009 0.034 0.024 0.071 0.035 0.079s0.020 0.027 0.020 0.040c0 0.027 0.044 0.154 0.064 0.185 0.028 0.045 0.064 0.12 0.064 0.137 0 0.010 0.020 0.027 0.042 0.040 0.024 0.013 0.042 0.033 0.042 0.047 0 0.042 0.025 0.057 0.081 0.045 0.028-0.007 0.067-0.006 0.091 0.003 0.034 0.011 0.041 0.023 0.041 0.061 0 0.030 0.009 0.050 0.023 0.055 0.027 0.010 0.048 0 0.048-0.024s0.122-0.098 0.167-0.099c0.126-0.004 0.187 0.006 0.222 0.037 0.037 0.031 0.038 0.033 0.021 0.122-0.009 0.048-0.030 0.115-0.045 0.146-0.027 0.051-0.031 0.086-0.035 0.328-0.009 0.432-0.003 0.507 0.045 0.603 0.025 0.050 0.055 0.159 0.051 0.187-0.006 0.045 0.068 0.161 0.119 0.185 0.035 0.017 0.058 0.044 0.085 0.101 0.028 0.059 0.051 0.086 0.096 0.11 0.048 0.027 0.064 0.045 0.084 0.103 0.025 0.078 0.096 0.149 0.147 0.149 0.017 0 0.058 0.010 0.091 0.021s0.109 0.021 0.17 0.021h0.11l0.040 0.052c0.048 0.064 0.064 0.154 0.040 0.226-0.045 0.13-0.052 0.195-0.030 0.268 0.027 0.086 0.041 0.209 0.038 0.341-0.001 0.088 0.003 0.11 0.041 0.177 0.024 0.042 0.044 0.091 0.044 0.108 0 0.020 0.020 0.042 0.057 0.067 0.044 0.028 0.057 0.044 0.057 0.076 0 0.082 0.017 0.132 0.052 0.147 0.030 0.013 0.034 0.023 0.028 0.062-0.006 0.033 0 0.055 0.020 0.081 0.014 0.018 0.027 0.044 0.027 0.057s0.016 0.055 0.035 0.095c0.028 0.055 0.045 0.072 0.079 0.079 0.024 0.004 0.047 0.017 0.051 0.027s-0.003 0.064-0.017 0.116c-0.013 0.054-0.021 0.129-0.018 0.167l0.004 0.069-0.071 0.027c-0.038 0.014-0.098 0.030-0.129 0.033-0.105 0.011-0.222-0.072-0.277-0.197-0.016-0.034-0.025-0.038-0.095-0.042-0.076-0.004-0.081-0.007-0.108-0.058-0.037-0.072-0.117-0.105-0.18-0.072-0.035 0.018-0.041 0.018-0.048-0.001-0.006-0.013-0.006-0.040-0.001-0.062 0.011-0.057-0.025-0.086-0.106-0.086-0.054 0-0.069-0.006-0.088-0.035-0.013-0.020-0.034-0.035-0.048-0.035s-0.037-0.023-0.052-0.052c-0.021-0.037-0.048-0.059-0.102-0.085-0.041-0.017-0.075-0.038-0.075-0.045s-0.017-0.020-0.038-0.028c-0.023-0.009-0.057-0.030-0.079-0.047-0.024-0.020-0.057-0.031-0.088-0.030-0.037 0.001-0.057-0.007-0.076-0.033-0.014-0.018-0.033-0.034-0.041-0.034s-0.024-0.016-0.035-0.034c-0.017-0.025-0.041-0.037-0.093-0.044-0.065-0.009-0.072-0.014-0.086-0.058-0.010-0.028-0.025-0.048-0.040-0.048-0.013 0-0.058-0.038-0.103-0.084-0.089-0.093-0.147-0.129-0.208-0.129-0.023 0-0.050-0.010-0.059-0.023-0.037-0.044-0.067-0.048-0.202-0.034l-0.134 0.014-0.042-0.040c-0.054-0.051-0.132-0.048-0.157 0.006-0.021 0.048-0.068 0.042-0.123-0.017-0.052-0.054-0.062-0.106-0.025-0.136 0.069-0.057 0.15-0.156 0.164-0.2 0.004-0.017 0.009-0.059 0.010-0.095 0.001-0.057-0.004-0.068-0.048-0.103-0.027-0.021-0.059-0.058-0.071-0.079-0.013-0.027-0.042-0.050-0.085-0.065-0.035-0.014-0.064-0.030-0.064-0.037s-0.020-0.014-0.042-0.020c-0.024-0.006-0.052-0.024-0.064-0.041-0.030-0.044-0.081-0.065-0.161-0.065-0.044 0-0.075-0.007-0.086-0.021-0.010-0.011-0.027-0.021-0.038-0.021s-0.042-0.017-0.069-0.037c-0.040-0.031-0.052-0.034-0.069-0.020-0.018 0.016-0.028 0.013-0.055-0.013-0.030-0.028-0.042-0.031-0.116-0.023-0.052 0.007-0.108 0.003-0.147-0.009-0.084-0.023-0.331-0.023-0.36 0-0.017 0.014-0.030 0.013-0.064-0.004-0.023-0.013-0.065-0.023-0.093-0.023-0.047 0-0.050-0.003-0.050-0.048 0-0.035-0.010-0.055-0.031-0.071-0.025-0.018-0.031-0.035-0.030-0.093 0.003-0.086 0.010-0.099 0.055-0.099 0.051 0 0.167-0.119 0.156-0.16-0.004-0.017-0.009-0.055-0.009-0.085 0-0.048-0.007-0.057-0.067-0.095-0.037-0.024-0.078-0.042-0.092-0.042-0.016 0-0.042-0.025-0.065-0.064-0.021-0.034-0.048-0.064-0.062-0.064-0.013 0-0.069 0.009-0.127 0.020-0.057 0.011-0.144 0.018-0.194 0.016-0.085-0.006-0.092-0.009-0.125-0.057-0.065-0.096-0.078-0.14-0.054-0.197 0.030-0.069 0.028-0.072-0.042-0.149-0.035-0.037-0.064-0.075-0.064-0.082 0-0.021-0.048-0.061-0.075-0.061-0.011 0-0.041-0.017-0.065-0.037-0.030-0.025-0.054-0.034-0.076-0.030-0.027 0.007-0.035-0.001-0.059-0.057-0.016-0.035-0.041-0.069-0.057-0.078-0.016-0.007-0.044-0.021-0.062-0.033-0.024-0.013-0.042-0.016-0.061-0.006s-0.041 0.006-0.081-0.016c-0.031-0.016-0.059-0.034-0.065-0.042-0.004-0.007-0.018-0.014-0.031-0.014s-0.062-0.018-0.109-0.041c-0.078-0.037-0.101-0.041-0.242-0.041-0.133 0-0.167 0.004-0.234 0.033-0.042 0.018-0.092 0.038-0.11 0.042-0.021 0.006-0.035 0.024-0.041 0.051-0.007 0.035-0.014 0.041-0.057 0.041-0.048 0-0.051 0.004-0.067 0.074-0.006 0.023-0.021 0.042-0.041 0.048-0.017 0.006-0.051 0.027-0.076 0.048-0.024 0.021-0.052 0.042-0.064 0.045-0.013 0.004-0.018 0.034-0.020 0.091-0.001 0.081-0.014 0.205-0.028 0.27-0.003 0.017-0.021 0.048-0.040 0.071-0.030 0.037-0.034 0.057-0.042 0.252-0.006 0.117-0.010 0.251-0.009 0.297 0.001 0.048-0.004 0.103-0.013 0.123-0.009 0.024-0.009 0.054 0 0.086 0.011 0.040 0.007 0.065-0.016 0.125-0.017 0.041-0.042 0.084-0.059 0.095-0.023 0.016-0.025 0.030-0.020 0.067 0.020 0.103-0.091 0.12-0.181 0.028-0.027-0.025-0.059-0.079-0.072-0.119-0.017-0.054-0.031-0.072-0.051-0.072-0.014 0-0.027-0.006-0.027-0.014s-0.021-0.018-0.045-0.025c-0.030-0.007-0.054-0.025-0.065-0.048-0.010-0.021-0.030-0.042-0.045-0.047-0.016-0.006-0.033-0.024-0.037-0.041-0.004-0.018-0.023-0.040-0.042-0.050-0.018-0.009-0.034-0.027-0.034-0.041 0-0.030-0.154-0.18-0.198-0.194-0.016-0.004-0.055-0.040-0.088-0.076-0.034-0.038-0.088-0.082-0.117-0.098-0.031-0.017-0.088-0.067-0.127-0.11-0.125-0.143-0.117-0.137-0.183-0.126-0.031 0.006-0.086 0.011-0.122 0.013-0.076 0.001-0.099 0.014-0.099 0.055 0 0.018-0.004 0.024-0.011 0.016-0.027-0.041-0.185-0.031-0.217 0.014-0.006 0.007-0.028 0.009-0.051 0.004-0.030-0.006-0.059 0.003-0.106 0.030-0.054 0.031-0.075 0.058-0.122 0.147-0.050 0.096-0.057 0.123-0.061 0.225l-0.006 0.115 0.050 0.017c0.048 0.016 0.050 0.018 0.051 0.086 0.001 0.040 0.007 0.098 0.013 0.13 0.014 0.076-0.014 0.123-0.088 0.146-0.030 0.010-0.064 0.027-0.076 0.038s-0.045 0.025-0.071 0.034c-0.027 0.007-0.071 0.034-0.099 0.059-0.048 0.041-0.054 0.057-0.076 0.18-0.047 0.258-0.051 0.307-0.058 0.687-0.010 0.459-0.009 0.542 0.010 0.575 0.023 0.044 0.014 0.099-0.023 0.143-0.034 0.040-0.037 0.054-0.035 0.166 0.001 0.067-0.001 0.188-0.006 0.27-0.006 0.142-0.007 0.149-0.047 0.18-0.040 0.033-0.040 0.033-0.035 0.177 0.003 0.079 0.011 0.154 0.020 0.164 0.013 0.014 0.052 0.017 0.167 0.013 0.134-0.006 0.157-0.010 0.207-0.044 0.079-0.054 0.166-0.047 0.232 0.020 0.023 0.023 0.028 0.047 0.028 0.112 0 0.108-0.035 0.276-0.069 0.333-0.014 0.024-0.030 0.061-0.035 0.082s-0.017 0.047-0.028 0.057c-0.047 0.047-0.067 0.112-0.064 0.208 0.001 0.054-0.003 0.105-0.009 0.115-0.007 0.010-0.010 0.047-0.009 0.079 0.001 0.048-0.006 0.069-0.030 0.093-0.074 0.072-0.112 0.13-0.105 0.16 0.004 0.016-0.004 0.048-0.018 0.072-0.014 0.023-0.030 0.067-0.035 0.098-0.009 0.040-0.028 0.071-0.076 0.116-0.037 0.033-0.075 0.061-0.085 0.061s-0.025 0.020-0.033 0.042c-0.018 0.050-0.069 0.061-0.069 0.014 0-0.016-0.006-0.028-0.013-0.028-0.017 0-0.030 0.109-0.016 0.153 0.006 0.021 0.016 0.127 0.021 0.234 0.009 0.174 0.007 0.198-0.014 0.222-0.014 0.016-0.021 0.037-0.017 0.048 0.006 0.013-0.007 0.041-0.030 0.067-0.025 0.033-0.035 0.058-0.034 0.091 0.004 0.037-0.003 0.047-0.034 0.062-0.037 0.016-0.038 0.020-0.031 0.108 0.007 0.085 0.006 0.092-0.027 0.113s-0.034 0.030-0.033 0.153c0.001 0.072 0.001 0.139 0.001 0.147-0.001 0.010-0.020 0.027-0.044 0.040-0.030 0.016-0.045 0.038-0.057 0.078-0.007 0.031-0.021 0.082-0.028 0.113-0.011 0.041-0.023 0.057-0.042 0.057-0.028 0-0.034 0.014-0.048 0.12-0.006 0.038-0.020 0.068-0.045 0.089-0.034 0.030-0.038 0.044-0.038 0.123-0.001 0.082-0.004 0.091-0.034 0.099-0.023 0.006-0.033 0.018-0.033 0.041 0 0.018-0.016 0.068-0.035 0.11s-0.035 0.089-0.035 0.106c0 0.018-0.013 0.040-0.030 0.050-0.051 0.033-0.092 0.174-0.085 0.302 0 0.024 0.003 0.061 0.003 0.082 0.001 0.023-0.011 0.057-0.028 0.078-0.078 0.098-0.116 0.166-0.108 0.2 0.006 0.021 0 0.042-0.017 0.061s-0.025 0.051-0.025 0.096c0 0.058-0.006 0.074-0.038 0.099-0.037 0.028-0.040 0.038-0.040 0.133 0 0.057-0.004 0.161-0.010 0.234-0.008 0.129-0.008 0.13-0.052 0.149-0.024 0.010-0.052 0.030-0.064 0.042-0.025 0.031-0.092 0.065-0.125 0.065-0.014 0-0.040-0.014-0.055-0.033zM17.075 21.466c0-0.007 0.027-0.031 0.059-0.051 0.033-0.021 0.072-0.050 0.088-0.064 0.016-0.016 0.037-0.027 0.048-0.027s0.040-0.016 0.064-0.034c0.054-0.040 0.082-0.047 0.157-0.031 0.045 0.009 0.059 0.006 0.088-0.021s0.115-0.065 0.211-0.093c0.016-0.004 0.048-0.025 0.071-0.047 0.062-0.055 0.115-0.085 0.193-0.108 0.057-0.017 0.074-0.030 0.089-0.067 0.010-0.025 0.040-0.065 0.064-0.089s0.071-0.065 0.101-0.093c0.031-0.030 0.069-0.054 0.086-0.054s0.058-0.024 0.091-0.052c0.033-0.030 0.069-0.059 0.082-0.068 0.033-0.018 0.055-0.137 0.059-0.311 0.003-0.12 0-0.146-0.021-0.17-0.014-0.016-0.028-0.051-0.031-0.078-0.004-0.044-0.010-0.051-0.057-0.062-0.045-0.011-0.054-0.020-0.059-0.057-0.033-0.226-0.042-0.289-0.054-0.32-0.007-0.020-0.013-0.061-0.014-0.092s-0.009-0.075-0.018-0.099c-0.010-0.023-0.023-0.067-0.027-0.098s-0.018-0.067-0.031-0.081-0.020-0.038-0.016-0.054c0.003-0.016 0.001-0.055-0.006-0.089-0.010-0.045-0.024-0.067-0.055-0.085-0.047-0.027-0.064-0.076-0.076-0.234-0.007-0.092-0.006-0.105 0.024-0.139 0.031-0.037 0.033-0.037 0.127-0.021 0.065 0.011 0.099 0.025 0.109 0.042 0.007 0.014 0.031 0.030 0.052 0.035 0.044 0.010 0.174 0.089 0.174 0.105 0 0.011 0.149 0.079 0.202 0.092 0.021 0.006 0.047 0.024 0.055 0.044 0.021 0.047 0.048 0.054 0.125 0.034 0.059-0.016 0.071-0.014 0.134 0.021 0.040 0.020 0.091 0.037 0.116 0.037 0.034 0 0.052 0.010 0.069 0.035 0.025 0.040 0.061 0.044 0.133 0.018 0.035-0.011 0.062-0.011 0.113 0.001 0.054 0.014 0.084 0.013 0.154-0.003 0.129-0.030 0.193-0.081 0.229-0.181 0.035-0.095 0.102-0.178 0.193-0.241 0.12-0.084 0.211-0.187 0.238-0.273 0.016-0.047 0.021-0.096 0.016-0.122-0.004-0.028 0-0.059 0.013-0.086 0.018-0.033 0.031-0.041 0.071-0.041 0.045 0 0.050-0.004 0.065-0.059 0.010-0.034 0.025-0.071 0.037-0.084 0.010-0.011 0.018-0.048 0.018-0.079 0-0.035 0.016-0.089 0.042-0.14 0.051-0.101 0.052-0.154 0.010-0.229l-0.033-0.057 0.020-0.211c0.016-0.156 0.017-0.221 0.004-0.251-0.011-0.031-0.011-0.047 0.001-0.061 0.020-0.024-0.040-0.113-0.13-0.194-0.035-0.033-0.092-0.085-0.127-0.119-0.103-0.099-0.108-0.102-0.143-0.102-0.018 0-0.055-0.014-0.082-0.033-0.027-0.017-0.065-0.042-0.085-0.055s-0.062-0.031-0.093-0.040c-0.081-0.023-0.146-0.058-0.153-0.085-0.006-0.020-0.11-0.059-0.219-0.079-0.027-0.006-0.062-0.028-0.088-0.058-0.055-0.062-0.146-0.103-0.207-0.093-0.025 0.004-0.082 0.003-0.125-0.001-0.069-0.010-0.078-0.014-0.092-0.054-0.009-0.024-0.028-0.052-0.044-0.064-0.028-0.020-0.028-0.021 0.013-0.062 0.023-0.023 0.045-0.054 0.051-0.068 0.004-0.014 0.027-0.035 0.051-0.044s0.052-0.033 0.064-0.050c0.027-0.041 0.059-0.050 0.112-0.027 0.048 0.020 0.132 0.011 0.164-0.018 0.020-0.017 0.025-0.016 0.041 0.003 0.024 0.030 0.035 0.027 0.054-0.014 0.009-0.020 0.025-0.035 0.037-0.035 0.013 0 0.067-0.041 0.122-0.091 0.057-0.051 0.119-0.093 0.143-0.099 0.027-0.006 0.047-0.021 0.059-0.047 0.009-0.023 0.051-0.072 0.091-0.112 0.045-0.044 0.079-0.091 0.084-0.116 0.010-0.048 0.069-0.086 0.096-0.059 0.025 0.025 0.089 0.016 0.173-0.030 0.045-0.024 0.089-0.048 0.098-0.055 0.007-0.006 0.033-0.011 0.055-0.011 0.068 0.001 0.112-0.058 0.119-0.159 0.006-0.074 0.001-0.093-0.024-0.127-0.018-0.025-0.030-0.062-0.030-0.096 0-0.033-0.011-0.069-0.027-0.089-0.014-0.018-0.030-0.057-0.035-0.085s-0.028-0.078-0.051-0.11c-0.024-0.031-0.042-0.061-0.042-0.065 0-0.006-0.013-0.038-0.030-0.074-0.016-0.035-0.033-0.086-0.037-0.112-0.007-0.045-0.011-0.048-0.052-0.040-0.054 0.010-0.078-0.014-0.101-0.091-0.014-0.048-0.050-0.079-0.129-0.115-0.017-0.007-0.034-0.024-0.038-0.035-0.006-0.013-0.025-0.023-0.048-0.023s-0.054-0.010-0.071-0.021c-0.027-0.020-0.045-0.020-0.163 0-0.072 0.013-0.163 0.030-0.2 0.041-0.040 0.010-0.096 0.014-0.136 0.008-0.041-0.006-0.084-0.001-0.109 0.010-0.023 0.008-0.055 0.017-0.072 0.018-0.016 0-0.076 0.025-0.132 0.058-0.109 0.061-0.201 0.082-0.362 0.084-0.071 0-0.105 0.010-0.188 0.051s-0.115 0.050-0.161 0.045c-0.033-0.004-0.079 0.003-0.105 0.013-0.044 0.017-0.047 0.017-0.065-0.018l-0.018-0.037-0.040 0.052c-0.021 0.028-0.054 0.057-0.071 0.064s-0.050 0.045-0.072 0.091l-0.040 0.079 0.037 0.054c0.023 0.030 0.038 0.074 0.038 0.099 0 0.030 0.014 0.061 0.042 0.092 0.048 0.055 0.051 0.081 0.030 0.201-0.020 0.112-0.023 0.105 0.033 0.127 0.068 0.028 0.106 0.113 0.102 0.234-0.001 0.051-0.007 0.099-0.013 0.108-0.009 0.016-0.013 0.185-0.010 0.45 0 0.054 0.009 0.108 0.017 0.117 0.009 0.011 0.017 0.047 0.020 0.079s0.009 0.109 0.014 0.17c0.009 0.101 0.007 0.113-0.021 0.139-0.021 0.020-0.030 0.045-0.030 0.086s-0.011 0.076-0.037 0.113c-0.033 0.047-0.035 0.058-0.021 0.098 0.009 0.025 0.016 0.058 0.016 0.075s0.013 0.045 0.028 0.065c0.017 0.023 0.028 0.058 0.028 0.095 0 0.050 0.007 0.065 0.045 0.095 0.041 0.031 0.044 0.040 0.031 0.075-0.010 0.028-0.009 0.061 0.004 0.117 0.025 0.105 0.047 0.142 0.078 0.142 0.016 0 0.024 0.006 0.020 0.013s-0.016 0.065-0.024 0.13c-0.009 0.065-0.020 0.151-0.027 0.19s-0.017 0.101-0.023 0.139c-0.009 0.064-0.011 0.067-0.054 0.067-0.037 0-0.057 0.013-0.099 0.064-0.031 0.035-0.062 0.064-0.072 0.064s-0.025 0.009-0.034 0.020c-0.010 0.011-0.034 0.024-0.054 0.030-0.085 0.021-0.188 0.084-0.217 0.13-0.014 0.025-0.037 0.047-0.050 0.047-0.011 0-0.021 0.006-0.021 0.014s-0.020 0.035-0.044 0.064c-0.034 0.038-0.050 0.047-0.068 0.035-0.025-0.013-0.088-0.003-0.161 0.027-0.023 0.009-0.088 0.016-0.146 0.016-0.151 0-0.208 0.021-0.289 0.109-0.079 0.086-0.106 0.166-0.076 0.225 0.027 0.051 0.025 0.062-0.011 0.062-0.054 0-0.071 0.020-0.067 0.074 0.003 0.030-0.006 0.065-0.020 0.088-0.018 0.027-0.023 0.051-0.016 0.089 0.007 0.041 0.004 0.055-0.017 0.071-0.023 0.016-0.027 0.041-0.030 0.157-0.001 0.075 0.003 0.167 0.013 0.202 0.014 0.059 0.013 0.069-0.024 0.132-0.021 0.037-0.047 0.069-0.055 0.072s-0.033 0.009-0.054 0.013c-0.021 0.006-0.042 0.021-0.047 0.038-0.009 0.025-0.018 0.030-0.064 0.023-0.038-0.004-0.057-0.001-0.062 0.013-0.004 0.010-0.024 0.023-0.044 0.028-0.027 0.007-0.035 0.018-0.035 0.048 0 0.041-0.020 0.065-0.062 0.072-0.030 0.007-0.069 0.076-0.095 0.168-0.010 0.035-0.040 0.086-0.068 0.117l-0.051 0.054-0.127-0.003c-0.069-0.001-0.14 0.001-0.157 0.007-0.023 0.007-0.033 0.001-0.045-0.025-0.010-0.021-0.033-0.038-0.059-0.044s-0.058-0.023-0.074-0.038c-0.021-0.021-0.033-0.024-0.044-0.013-0.034 0.034-0.074 0.017-0.11-0.052-0.035-0.064-0.037-0.069-0.020-0.137 0.021-0.079 0.007-0.117-0.051-0.15-0.025-0.013-0.034-0.011-0.044 0.007-0.007 0.013-0.023 0.023-0.034 0.023s-0.031 0.024-0.044 0.052c-0.011 0.030-0.047 0.081-0.076 0.116-0.044 0.050-0.055 0.074-0.055 0.119s-0.010 0.065-0.055 0.11c-0.040 0.040-0.067 0.055-0.098 0.055-0.024 0-0.048 0.007-0.052 0.014-0.027 0.044-0.12-0.030-0.12-0.095 0-0.054-0.023-0.075-0.079-0.075-0.064 0-0.091-0.013-0.091-0.042 0-0.014-0.011-0.030-0.024-0.034-0.014-0.006-0.044-0.035-0.068-0.067-0.023-0.031-0.064-0.074-0.089-0.092-0.025-0.020-0.055-0.057-0.065-0.084-0.025-0.059-0.062-0.079-0.116-0.065-0.037 0.010-0.047 0.003-0.112-0.067-0.061-0.067-0.074-0.092-0.089-0.17-0.010-0.051-0.031-0.117-0.047-0.149-0.025-0.050-0.028-0.072-0.020-0.219 0.004-0.091 0.011-0.178 0.016-0.194 0.010-0.041-0.020-0.164-0.045-0.183-0.023-0.017-0.035-0.197-0.016-0.236 0.008-0.018-0.001-0.031-0.050-0.058-0.052-0.028-0.062-0.041-0.068-0.089-0.007-0.055-0.010-0.057-0.064-0.061-0.031-0.003-0.062-0.013-0.071-0.023-0.031-0.041-0.078-0.052-0.167-0.042-0.048 0.006-0.095 0.016-0.105 0.023-0.008 0.007-0.028 0.011-0.042 0.009s-0.051 0.009-0.082 0.023c-0.075 0.037-0.14 0.031-0.236-0.016-0.068-0.034-0.084-0.050-0.103-0.101-0.013-0.034-0.042-0.075-0.065-0.091s-0.041-0.042-0.041-0.055c0-0.014-0.021-0.052-0.047-0.086s-0.052-0.079-0.057-0.101c-0.006-0.020-0.031-0.057-0.055-0.079-0.044-0.041-0.045-0.044-0.042-0.16 0.001-0.065-0.003-0.168-0.008-0.232-0.006-0.062-0.006-0.136 0-0.163 0.007-0.037 0.004-0.057-0.017-0.086-0.024-0.033-0.028-0.062-0.028-0.178 0-0.144-0.021-0.239-0.065-0.287-0.027-0.030-0.016-0.052 0.031-0.069 0.018-0.007 0.037-0.030 0.042-0.051 0.011-0.042 0.086-0.161 0.102-0.161s0.074-0.092 0.074-0.119c0-0.014 0.016-0.044 0.035-0.068 0.045-0.054 0.044-0.072-0.007-0.174-0.023-0.047-0.042-0.102-0.042-0.123 0-0.030-0.007-0.040-0.027-0.040-0.016 0-0.033-0.008-0.038-0.017-0.025-0.041-0.024-0.705 0.001-0.783s0.031-0.142 0.011-0.164c-0.008-0.011-0.020-0.034-0.024-0.051-0.008-0.027-0.001-0.035 0.040-0.052s0.052-0.031 0.065-0.082c0.033-0.126 0.059-0.195 0.082-0.212 0.013-0.010 0.033-0.035 0.044-0.057s0.031-0.042 0.044-0.047c0.035-0.011 0.071-0.098 0.079-0.195 0.011-0.134 0.017-0.151 0.048-0.151 0.016 0 0.058-0.027 0.092-0.058 0.059-0.055 0.064-0.064 0.064-0.132 0-0.101 0.011-0.113 0.088-0.102 0.058 0.008 0.062 0.007 0.079-0.030 0.010-0.023 0.037-0.075 0.059-0.117 0.024-0.042 0.042-0.085 0.042-0.093 0-0.010 0.052-0.069 0.117-0.133 0.103-0.101 0.12-0.113 0.156-0.105 0.024 0.004 0.048 0.001 0.062-0.011 0.013-0.010 0.065-0.021 0.116-0.025 0.079-0.006 0.093-0.011 0.099-0.035 0.006-0.034 0.027-0.050 0.068-0.050 0.017 0 0.042-0.017 0.058-0.038 0.027-0.037 0.035-0.040 0.13-0.038 0.084 0.003 0.108-0.003 0.129-0.024 0.014-0.014 0.038-0.027 0.051-0.027 0.033 0 0.075-0.041 0.075-0.072s0.079-0.126 0.105-0.126c0.008 0 0.040 0.016 0.068 0.035 0.062 0.042 0.091 0.044 0.109 0.008 0.008-0.014 0.033-0.034 0.054-0.042 0.062-0.025 0.108-0.054 0.119-0.076 0.007-0.013 0.047-0.024 0.096-0.030 0.047-0.006 0.089-0.016 0.093-0.023 0.013-0.020 0.102-0.017 0.134 0.003 0.023 0.014 0.034 0.014 0.057 0 0.044-0.027 0.067-0.020 0.084 0.025 0.007 0.024 0.023 0.042 0.034 0.042s0.037 0.016 0.058 0.035c0.047 0.042 0.101 0.058 0.127 0.035 0.011-0.008 0.055-0.020 0.096-0.024 0.059-0.006 0.081-0.003 0.095 0.016 0.010 0.013 0.030 0.023 0.042 0.023s0.045 0.016 0.072 0.034c0.074 0.050 0.098 0.052 0.235 0.037 0.122-0.014 0.127-0.013 0.15 0.017 0.048 0.062 0.074 0.084 0.093 0.075 0.011-0.004 0.030 0.004 0.040 0.020 0.024 0.033 0.098 0.072 0.136 0.072 0.041 0 0.082 0.027 0.082 0.052 0 0.018 0.013 0.020 0.078 0.011 0.076-0.008 0.081-0.007 0.134 0.041 0.031 0.028 0.067 0.051 0.079 0.051 0.011 0 0.031 0.023 0.042 0.050 0.014 0.034 0.033 0.052 0.059 0.058 0.021 0.006 0.074 0.027 0.116 0.050s0.088 0.042 0.101 0.047c0.014 0.004 0.027 0.028 0.033 0.064 0.004 0.033 0.014 0.058 0.020 0.058s0.041 0.028 0.078 0.061c0.045 0.042 0.065 0.069 0.059 0.085-0.007 0.016 0 0.023 0.024 0.027 0.023 0.003 0.034 0.016 0.037 0.040 0.003 0.021 0.020 0.045 0.042 0.058 0.024 0.014 0.047 0.044 0.059 0.082 0.011 0.037 0.037 0.072 0.062 0.091 0.057 0.040 0.078 0.067 0.079 0.102 0 0.021 0.018 0.035 0.069 0.054 0.117 0.041 0.115 0.042 0.287-0.129 0.037-0.037 0.068-0.074 0.068-0.082s0.027-0.034 0.061-0.057c0.091-0.061 0.098-0.072 0.086-0.161-0.006-0.042-0.018-0.091-0.028-0.106-0.042-0.059-0.014-0.177 0.042-0.177 0.035 0 0.038-0.006 0.057-0.088 0.013-0.055 0.133-0.167 0.18-0.167 0.033 0 0.040-0.007 0.047-0.050 0.007-0.038 0.024-0.058 0.067-0.086 0.069-0.042 0.149-0.122 0.202-0.201 0.033-0.047 0.038-0.068 0.031-0.108-0.010-0.052-0.025-0.071-0.079-0.086-0.042-0.013-0.057-0.031-0.057-0.074 0-0.017-0.020-0.047-0.045-0.068s-0.058-0.047-0.074-0.059c-0.020-0.017-0.024-0.033-0.017-0.076s0.001-0.074-0.027-0.132c-0.020-0.041-0.035-0.084-0.035-0.095s-0.020-0.058-0.042-0.105c-0.023-0.047-0.042-0.101-0.042-0.119 0-0.044-0.137-0.177-0.178-0.173-0.020 0.001-0.041-0.011-0.059-0.038-0.021-0.030-0.052-0.047-0.116-0.064-0.048-0.014-0.092-0.021-0.099-0.017s-0.023-0.010-0.034-0.033c-0.024-0.047-0.048-0.059-0.109-0.059-0.027 0-0.057-0.016-0.086-0.044-0.033-0.031-0.054-0.041-0.076-0.035s-0.038 0-0.052-0.020c-0.013-0.018-0.054-0.035-0.117-0.051-0.15-0.035-0.194-0.050-0.222-0.074-0.020-0.018-0.061-0.023-0.195-0.024-0.092 0-0.168-0.004-0.168-0.008 0-0.028-0.105-0.041-0.224-0.028-0.009 0-0.031 0.017-0.048 0.037s-0.037 0.035-0.045 0.035c-0.040 0-0.143 0.069-0.15 0.101-0.013 0.052-0.098 0.076-0.207 0.057-0.106-0.018-0.19-0.020-0.19-0.003 0 0.007-0.031 0.028-0.069 0.048-0.082 0.041-0.355 0.313-0.355 0.354 0 0.007-0.028 0.041-0.064 0.076s-0.064 0.075-0.064 0.089c0 0.045-0.038 0.064-0.091 0.045-0.025-0.010-0.057-0.017-0.069-0.017-0.031 0-0.109-0.12-0.109-0.171 0-0.045-0.038-0.092-0.093-0.112-0.033-0.013-0.035-0.020-0.025-0.061 0.014-0.061 0.010-0.11-0.014-0.168-0.025-0.059-0.19-0.161-0.251-0.156-0.023 0.003-0.057-0.007-0.079-0.024-0.044-0.033-0.074-0.037-0.226-0.033-0.086 0.003-0.109 0.008-0.134 0.034-0.027 0.027-0.047 0.031-0.125 0.031-0.051-0.001-0.126-0.007-0.166-0.013-0.071-0.010-0.075-0.008-0.075 0.020 0 0.033-0.037 0.040-0.082 0.017-0.041-0.021-0.163-0.042-0.231-0.041-0.061 0.001-0.067 0.006-0.082 0.050-0.018 0.048-0.031 0.052-0.117 0.047-0.034-0.001-0.065 0.010-0.193 0.078-0.025 0.013-0.054 0.040-0.062 0.058-0.011 0.025-0.027 0.034-0.061 0.034-0.024 0-0.050 0.006-0.057 0.013s-0.078 0.040-0.156 0.072c-0.078 0.034-0.151 0.069-0.164 0.079-0.011 0.011-0.037 0.020-0.057 0.020-0.018 0-0.062 0.014-0.098 0.031s-0.086 0.035-0.113 0.040c-0.034 0.004-0.051 0.016-0.055 0.035-0.003 0.016-0.024 0.051-0.050 0.079-0.092 0.109-0.112 0.156-0.115 0.292-0.001 0.079-0.011 0.144-0.027 0.18-0.017 0.041-0.021 0.078-0.014 0.142 0.004 0.048 0.001 0.103-0.006 0.123-0.013 0.030-0.008 0.054 0.017 0.119 0.018 0.044 0.041 0.088 0.050 0.096s0.016 0.027 0.016 0.040c0 0.014 0.007 0.030 0.014 0.034s0.014 0.030 0.014 0.057 0.011 0.058 0.025 0.072c0.028 0.028 0.059 0.122 0.059 0.181 0 0.028 0.016 0.055 0.055 0.092 0.030 0.028 0.062 0.065 0.071 0.082 0.020 0.040 0.021 0.255 0 0.266-0.007 0.006-0.020 0.025-0.027 0.044-0.016 0.040-0.023 0.040-0.129 0.016-0.042-0.011-0.091-0.014-0.106-0.008-0.071 0.028-0.142 0.011-0.306-0.074-0.028-0.014-0.081-0.027-0.116-0.027s-0.067-0.006-0.071-0.013c-0.004-0.007-0.050-0.017-0.099-0.023-0.051-0.004-0.122-0.017-0.16-0.027-0.044-0.011-0.082-0.014-0.11-0.006-0.023 0.007-0.076 0.008-0.117 0.004-0.052-0.006-0.086-0.001-0.117 0.014-0.023 0.013-0.067 0.021-0.095 0.020-0.040-0.003-0.062 0.004-0.085 0.027-0.035 0.035-0.040 0.037-0.099 0.016-0.057-0.020-0.108 0.004-0.098 0.045 0.006 0.018-0.003 0.034-0.021 0.045-0.025 0.016-0.082 0.112-0.082 0.142 0 0.007-0.025 0.041-0.057 0.075s-0.057 0.074-0.057 0.088c0 0.016-0.013 0.041-0.028 0.059s-0.028 0.044-0.028 0.058c0 0.014-0.006 0.030-0.014 0.034s-0.014 0.024-0.014 0.041c0 0.018-0.013 0.050-0.028 0.069s-0.028 0.045-0.028 0.057c0 0.011-0.010 0.028-0.021 0.038s-0.021 0.030-0.021 0.045c0 0.027-0.037 0.086-0.091 0.15-0.024 0.025-0.030 0.055-0.031 0.156-0.003 0.068-0.007 0.202-0.010 0.3-0.007 0.201 0.014 0.314 0.068 0.357 0.018 0.014 0.035 0.040 0.041 0.059 0.010 0.042 0.057 0.052 0.229 0.052 0.109-0.001 0.136 0.004 0.166 0.027 0.021 0.017 0.057 0.028 0.091 0.028 0.038 0 0.065 0.010 0.093 0.035 0.021 0.020 0.038 0.042 0.038 0.050s0.059 0.014 0.139 0.014c0.091 0 0.163 0.008 0.207 0.023 0.038 0.013 0.088 0.020 0.113 0.016 0.042-0.007 0.052-0.001 0.095 0.055 0.025 0.034 0.054 0.062 0.065 0.062 0.034 0 0.050 0.052 0.027 0.096-0.030 0.057-0.058 0.078-0.093 0.067-0.038-0.011-0.071 0.016-0.071 0.058 0 0.037-0.037 0.062-0.089 0.062-0.020 0-0.038 0.009-0.042 0.020-0.006 0.013-0.041 0.024-0.096 0.030-0.102 0.011-0.14 0.031-0.14 0.068 0 0.016-0.013 0.030-0.030 0.034-0.017 0.006-0.061 0.024-0.096 0.044-0.035 0.018-0.081 0.042-0.101 0.052s-0.072 0.033-0.116 0.050c-0.045 0.017-0.082 0.037-0.082 0.042 0 0.014-0.122 0.057-0.163 0.057-0.017 0-0.055 0.020-0.085 0.042-0.030 0.024-0.064 0.042-0.076 0.042-0.045 0-0.058 0.031-0.058 0.136 0 0.059-0.007 0.108-0.016 0.113-0.017 0.010-0.006 0.116 0.018 0.17 0.017 0.038 0.003 0.102-0.051 0.224-0.024 0.058-0.030 0.093-0.025 0.198 0.003 0.115 0.008 0.134 0.044 0.185 0.021 0.031 0.051 0.076 0.064 0.102 0.021 0.041 0.025 0.044 0.068 0.033 0.047-0.014 0.082 0.001 0.082 0.037 0 0.025 0.045 0.048 0.099 0.048 0.041 0 0.042 0.001 0.025 0.033-0.010 0.018-0.016 0.079-0.014 0.159 0.001 0.071-0.003 0.149-0.010 0.174-0.013 0.041-0.010 0.050 0.037 0.095 0.028 0.028 0.065 0.050 0.084 0.050 0.024 0 0.044 0.017 0.069 0.057 0.045 0.072 0.075 0.086 0.154 0.076 0.059-0.009 0.068-0.006 0.109 0.038 0.037 0.040 0.047 0.044 0.069 0.030 0.018-0.011 0.050-0.011 0.11-0.003 0.045 0.009 0.125 0.016 0.176 0.017 0.078 0.004 0.099-0.001 0.143-0.031 0.028-0.020 0.057-0.048 0.064-0.062 0.010-0.023 0.028-0.028 0.096-0.031 0.045-0.001 0.112-0.007 0.147-0.014 0.098-0.020 0.14-0.010 0.168 0.038 0.023 0.037 0.028 0.040 0.044 0.020 0.010-0.011 0.023-0.017 0.030-0.013 0.028 0.017 0.001 0.204-0.030 0.204-0.006 0-0.030 0.034-0.054 0.075-0.030 0.052-0.040 0.086-0.035 0.117 0.006 0.038-0.003 0.054-0.058 0.108-0.035 0.035-0.065 0.075-0.065 0.089s-0.016 0.047-0.035 0.072c-0.020 0.025-0.035 0.062-0.035 0.084 0 0.020-0.010 0.069-0.023 0.108-0.027 0.081-0.023 0.224 0.008 0.26 0.024 0.030 0.034 0.249 0.016 0.334-0.017 0.072 0.006 0.12 0.058 0.129 0.024 0.003 0.034 0.016 0.040 0.047 0.006 0.034 0.016 0.044 0.045 0.047 0.033 0.004 0.042 0.014 0.054 0.059 0.020 0.072 0.059 0.099 0.149 0.099s0.103 0.010 0.117 0.078c0.010 0.054 0.014 0.057 0.067 0.061 0.031 0.003 0.064 0.011 0.074 0.020 0.042 0.035 0.241 0.125 0.276 0.125s0.040 0.006 0.040 0.042c0 0.031 0.008 0.047 0.030 0.055 0.017 0.006 0.048 0.035 0.068 0.067 0.025 0.035 0.052 0.058 0.078 0.062 0.028 0.006 0.047 0.021 0.064 0.057 0.023 0.048 0.027 0.050 0.122 0.059 0.055 0.006 0.113 0.017 0.132 0.025s0.054 0.014 0.081 0.014 0.086 0.013 0.13 0.027c0.132 0.044 0.239 0.072 0.276 0.072 0.020 0 0.047 0.013 0.059 0.027 0.020 0.021 0.037 0.025 0.082 0.018 0.052-0.007 0.061-0.003 0.098 0.041l0.038 0.047 0.096-0.016c0.088-0.016 0.101-0.014 0.14 0.010 0.081 0.050 0.328 0.021 0.367-0.041 0.006-0.009 0.025-0.016 0.044-0.016 0.021 0 0.041-0.013 0.051-0.031 0.008-0.017 0.028-0.044 0.042-0.059 0.016-0.016 0.027-0.037 0.027-0.048 0-0.018 0.249-0.272 0.269-0.272 0.006 0 0.017-0.014 0.024-0.033 0.014-0.031 0.021-0.033 0.106-0.024 0.106 0.011 0.129 0.023 0.198 0.095 0.050 0.051 0.18 0.285 0.198 0.352 0.004 0.017 0.042 0.057 0.086 0.088 0.072 0.054 0.129 0.113 0.14 0.146 0.003 0.007 0.038 0.017 0.078 0.023 0.041 0.004 0.082 0.017 0.091 0.027s0.025 0.020 0.037 0.020 0.038 0.013 0.058 0.030c0.034 0.025 0.051 0.028 0.208 0.021 0.093-0.004 0.191-0.003 0.218 0.003 0.082 0.017 0.185 0.018 0.185 0.003zM15.921 18.72c0.020 0 0.057-0.020 0.085-0.044 0.044-0.038 0.050-0.052 0.050-0.109 0-0.075-0.034-0.18-0.074-0.224-0.014-0.016-0.025-0.047-0.025-0.069s-0.014-0.055-0.031-0.075c-0.027-0.027-0.034-0.057-0.041-0.156-0.017-0.224-0.034-0.286-0.095-0.347-0.055-0.054-0.057-0.055-0.171-0.055-0.062-0.001-0.119 0.001-0.123 0.007-0.004 0.004-0.011 0.034-0.014 0.067-0.006 0.069-0.048 0.168-0.081 0.197-0.014 0.010-0.024 0.030-0.024 0.042 0 0.028-0.048 0.11-0.095 0.159-0.024 0.027-0.035 0.057-0.040 0.103-0.003 0.042-0.014 0.078-0.033 0.098-0.040 0.044-0.051 0.092-0.030 0.117 0.014 0.017 0.014 0.028 0.001 0.048-0.014 0.024-0.010 0.031 0.045 0.064 0.033 0.020 0.078 0.035 0.098 0.035s0.050 0.014 0.065 0.031c0.031 0.033 0.108 0.051 0.255 0.061 0.12 0.009 0.166 0.018 0.187 0.044 0.010 0.011 0.027 0.017 0.037 0.013s0.035-0.007 0.054-0.007zM16.983 17.528c0.031 0 0.076 0.004 0.099 0.009 0.025 0.006 0.055 0.001 0.074-0.009 0.017-0.010 0.093-0.055 0.171-0.099 0.088-0.052 0.156-0.082 0.183-0.082 0.047 0 0.082-0.025 0.096-0.069 0.004-0.016 0.017-0.031 0.030-0.035 0.011-0.004 0.033-0.035 0.047-0.069 0.020-0.044 0.038-0.065 0.064-0.072 0.020-0.004 0.045-0.027 0.058-0.052 0.013-0.023 0.035-0.055 0.050-0.069 0.016-0.016 0.031-0.045 0.035-0.067 0.004-0.023 0.014-0.069 0.023-0.106 0.018-0.079-0.009-0.184-0.067-0.259l-0.037-0.050h-0.136c-0.132 0-0.137 0.001-0.167 0.040-0.030 0.035-0.041 0.038-0.185 0.050-0.084 0.006-0.176 0.011-0.202 0.011-0.058 0-0.137 0.055-0.15 0.103-0.004 0.018-0.021 0.041-0.038 0.051s-0.059 0.051-0.095 0.095c-0.092 0.11-0.184 0.202-0.205 0.202-0.010 0-0.021 0.009-0.025 0.018-0.013 0.033-0.102 0.067-0.15 0.058-0.030-0.006-0.055-0.001-0.079 0.014-0.020 0.013-0.042 0.020-0.050 0.016s-0.030 0.009-0.050 0.027c-0.030 0.028-0.038 0.050-0.038 0.101-0.001 0.058 0.004 0.072 0.055 0.123 0.054 0.052 0.064 0.058 0.144 0.061 0.064 0.003 0.102 0.014 0.146 0.041 0.058 0.037 0.067 0.037 0.202 0.028 0.078-0.004 0.167-0.009 0.198-0.009zM14.708 17.5c0.008-0.009 0.045-0.014 0.082-0.014 0.072 0.003 0.071 0.004 0.201-0.13 0.041-0.042 0.091-0.081 0.11-0.085 0.020-0.006 0.031-0.016 0.027-0.023-0.006-0.009-0.011-0.041-0.016-0.075-0.006-0.057-0.033-0.095-0.069-0.095-0.010 0-0.024-0.016-0.033-0.034-0.020-0.045-0.166-0.112-0.219-0.102-0.028 0.006-0.052 0-0.076-0.020-0.027-0.021-0.042-0.024-0.061-0.014-0.054 0.028-0.079 0.017-0.098-0.042-0.011-0.037-0.030-0.064-0.055-0.076-0.021-0.011-0.051-0.034-0.065-0.050-0.021-0.023-0.038-0.028-0.067-0.023-0.047 0.011-0.133-0.024-0.153-0.061-0.023-0.044-0.113-0.089-0.17-0.088-0.088 0.004-0.098 0.001-0.123-0.042-0.014-0.023-0.050-0.051-0.078-0.062-0.030-0.011-0.057-0.028-0.062-0.037-0.004-0.007-0.052-0.014-0.105-0.014-0.084 0-0.099 0.004-0.129 0.037-0.028 0.028-0.044 0.034-0.085 0.028-0.042-0.007-0.058-0.001-0.102 0.038-0.058 0.051-0.055 0.038-0.048 0.293 0.003 0.102 0.010 0.133 0.048 0.205 0.055 0.109 0.139 0.195 0.211 0.217 0.058 0.017 0.146 0.099 0.146 0.136 0 0.024 0.091 0.058 0.12 0.045 0.013-0.004 0.030 0.006 0.044 0.025 0.028 0.045 0.069 0.054 0.246 0.052 0.082 0 0.171 0.004 0.198 0.011 0.076 0.020 0.36 0.018 0.379-0.001z"></path>
<path fill="#fff" d="M22.256 2.541c0-0.017 0.009-0.030 0.023-0.030s0.020 0.010 0.017 0.024c-0.007 0.035-0.040 0.040-0.040 0.006z"></path>
</svg>
