<!-- Generated by IcoMoon.io -->
<svg version="1.1" xmlns="http://www.w3.org/2000/svg" width="32" height="32" viewBox="0 0 32 32">
<title>grand-alliance-order</title>
<path fill="#fff" d="M13.722 31.804c-0.050-0.021-0.087-0.182-0.040-0.182 0.015 0 0.022-0.015 0.022-0.044 0-0.031 0.012-0.052 0.038-0.069 0.021-0.013 0.055-0.049 0.074-0.080s0.047-0.059 0.063-0.065c0.019-0.006 0.037-0.031 0.047-0.071 0.009-0.034 0.040-0.096 0.068-0.139 0.041-0.064 0.063-0.081 0.112-0.095 0.072-0.021 0.114-0.061 0.114-0.111 0-0.021 0.010-0.052 0.021-0.069 0.012-0.018 0.021-0.053 0.021-0.078-0.001-0.071 0.013-0.084 0.083-0.074 0.061 0.009 0.063 0.007 0.102-0.052 0.022-0.032 0.040-0.069 0.040-0.080 0-0.028 0.040-0.056 0.066-0.047 0.031 0.013 0.065-0.028 0.056-0.064-0.006-0.021 0.004-0.044 0.030-0.071 0.038-0.043 0.062-0.099 0.058-0.137-0.003-0.012 0.015-0.047 0.038-0.077s0.052-0.075 0.063-0.102c0.010-0.027 0.030-0.056 0.041-0.065 0.016-0.013 0.022-0.041 0.019-0.108-0.003-0.084-0.001-0.090 0.034-0.099 0.044-0.010 0.081-0.059 0.081-0.105 0-0.024 0.009-0.034 0.028-0.034s0.047-0.032 0.084-0.092c0.046-0.077 0.056-0.105 0.053-0.161-0.001-0.046 0.004-0.075 0.019-0.087 0.028-0.024 0.126-0.226 0.126-0.261 0-0.015 0.010-0.043 0.021-0.064s0.037-0.068 0.055-0.106c0.018-0.040 0.037-0.071 0.044-0.071s0.025-0.013 0.040-0.030c0.022-0.025 0.027-0.052 0.025-0.179-0.003-0.13-0.007-0.152-0.035-0.18-0.016-0.018-0.044-0.049-0.059-0.069-0.025-0.032-0.041-0.037-0.17-0.046-0.159-0.010-0.188-0.028-0.217-0.14-0.015-0.058-0.047-0.093-0.164-0.183-0.046-0.035-0.053-0.075-0.019-0.103 0.012-0.010 0.022-0.027 0.022-0.037 0-0.012 0.016-0.038 0.035-0.062 0.021-0.024 0.041-0.061 0.046-0.083 0.006-0.022 0.018-0.041 0.028-0.043 0.009 0 0.024-0.003 0.032-0.003 0.009-0.001 0.035-0.024 0.058-0.050 0.034-0.041 0.044-0.069 0.053-0.162 0.006-0.062 0.016-0.139 0.022-0.168 0.006-0.038 0.004-0.056-0.007-0.056-0.028 0-0.018-0.028 0.024-0.064 0.151-0.124 0.171-0.152 0.17-0.216-0.003-0.071 0.059-0.208 0.121-0.266 0.031-0.030 0.038-0.050 0.038-0.109 0-0.052 0.012-0.093 0.041-0.145 0.043-0.078 0.055-0.084 0.093-0.049 0.022 0.021 0.028 0.019 0.066-0.021 0.040-0.040 0.041-0.046 0.038-0.182-0.006-0.17-0.009-0.182-0.071-0.26-0.050-0.061-0.053-0.062-0.136-0.061-0.046 0.001-0.117-0.009-0.158-0.022s-0.139-0.028-0.219-0.031c-0.134-0.006-0.151-0.010-0.199-0.049-0.081-0.064-0.084-0.065-0.149-0.050-0.046 0.010-0.063 0.007-0.077-0.007-0.009-0.012-0.035-0.021-0.059-0.021-0.022 0-0.046-0.007-0.050-0.016-0.010-0.016-0.068-0.009-0.149 0.019-0.035 0.012-0.055 0.010-0.093-0.009-0.034-0.019-0.065-0.024-0.106-0.016-0.049 0.009-0.077 0.001-0.165-0.041-0.059-0.030-0.134-0.062-0.17-0.074-0.061-0.021-0.062-0.021-0.055 0.006 0.007 0.024 0.001 0.028-0.034 0.028-0.032 0-0.046-0.009-0.052-0.031-0.007-0.025-0.018-0.030-0.046-0.025s-0.040-0.001-0.052-0.028c-0.018-0.038-0.061-0.044-0.109-0.013-0.037 0.024-0.109 0.027-0.148 0.006-0.015-0.007-0.053-0.037-0.084-0.066-0.043-0.037-0.068-0.050-0.099-0.046-0.025 0.003-0.084-0.016-0.152-0.049-0.149-0.072-0.211-0.090-0.27-0.080-0.043 0.009-0.058 0.003-0.086-0.028-0.035-0.037-0.037-0.037-0.174-0.024-0.121 0.012-0.143 0.009-0.173-0.012-0.037-0.028-0.056-0.080-0.043-0.121s-0.032-0.058-0.149-0.056c-0.090 0.001-0.117-0.004-0.233-0.059-0.072-0.034-0.14-0.062-0.151-0.062s-0.040-0.019-0.065-0.044c-0.025-0.024-0.058-0.044-0.072-0.044s-0.058-0.016-0.096-0.037c-0.038-0.021-0.086-0.037-0.105-0.037-0.027 0-0.035-0.009-0.040-0.040-0.004-0.035-0.013-0.043-0.071-0.056-0.038-0.009-0.102-0.041-0.148-0.077-0.044-0.032-0.106-0.068-0.136-0.075-0.031-0.009-0.074-0.030-0.095-0.046-0.022-0.018-0.055-0.031-0.074-0.031-0.021 0-0.056-0.024-0.090-0.059-0.072-0.080-0.137-0.118-0.198-0.118-0.040 0-0.063-0.013-0.115-0.066-0.035-0.037-0.077-0.066-0.093-0.066-0.030 0-0.248-0.201-0.248-0.227 0-0.024-0.075-0.078-0.124-0.092-0.021-0.004-0.044-0.018-0.055-0.030-0.009-0.012-0.031-0.021-0.050-0.021s-0.044-0.013-0.061-0.031c-0.015-0.018-0.053-0.052-0.084-0.077l-0.058-0.044-0.034 0.043c-0.034 0.044-0.034 0.044-0.18 0.040-0.129-0.003-0.152 0.001-0.214 0.032-0.086 0.044-0.143 0.047-0.193 0.007l-0.037-0.030-0.063 0.061c-0.052 0.050-0.071 0.059-0.108 0.053-0.052-0.007-0.18 0.028-0.22 0.061-0.024 0.021-0.143 0.027-0.202 0.010-0.013-0.003-0.043 0.021-0.071 0.056-0.047 0.058-0.049 0.065-0.040 0.143 0.006 0.044 0.019 0.098 0.030 0.118s0.022 0.055 0.028 0.077c0.010 0.046 0.066 0.133 0.115 0.182 0.019 0.018 0.052 0.056 0.074 0.084 0.022 0.030 0.065 0.065 0.096 0.081 0.056 0.030 0.056 0.030 0.066 0.143 0.006 0.062 0.004 0.13-0.003 0.148s-0.010 0.038-0.006 0.043 0.010 0.035 0.013 0.069c0.007 0.072-0.018 0.118-0.089 0.161-0.031 0.018-0.055 0.047-0.066 0.081-0.018 0.056-0.058 0.078-0.1 0.055-0.058-0.031-0.566 0.003-0.631 0.041-0.007 0.004-0.052 0.009-0.098 0.009-0.065 0-0.095 0.009-0.143 0.041-0.075 0.049-0.142 0.065-0.173 0.040-0.016-0.013-0.043-0.012-0.127 0.007-0.059 0.013-0.125 0.019-0.151 0.013-0.024-0.004-0.080-0.004-0.124 0.001-0.066 0.007-0.083 0.016-0.093 0.044l-0.013 0.035-0.062-0.027c-0.053-0.025-0.087-0.027-0.233-0.021-0.095 0.004-0.179 0.015-0.188 0.022-0.021 0.016-0.22 0.007-0.384-0.018-0.105-0.015-0.127-0.015-0.165 0.006-0.058 0.030-0.075 0.030-0.109-0.001-0.024-0.021-0.040-0.022-0.12-0.009-0.050 0.009-0.137 0.015-0.195 0.010-0.248-0.013-0.31-0.012-0.359 0.015-0.044 0.022-0.056 0.024-0.155 0.001-0.16-0.034-0.499-0.056-0.607-0.040-0.112 0.016-0.4 0.010-0.459-0.010-0.115-0.038-0.219-0.064-0.242-0.056-0.015 0.003-0.080-0.003-0.143-0.013-0.065-0.012-0.128-0.018-0.145-0.015-0.015 0.004-0.053-0.003-0.084-0.016s-0.068-0.019-0.080-0.013c-0.015 0.006-0.037-0.012-0.063-0.050-0.022-0.032-0.056-0.061-0.078-0.066-0.024-0.006-0.047-0.027-0.061-0.056-0.016-0.035-0.031-0.046-0.065-0.047-0.038 0-0.043-0.004-0.043-0.052 0-0.046 0.004-0.052 0.037-0.052 0.043 0 0.049-0.009 0.035-0.061-0.007-0.031 0.001-0.049 0.047-0.096 0.056-0.058 0.158-0.117 0.199-0.117 0.012 0 0.047-0.013 0.080-0.030 0.047-0.024 0.074-0.028 0.157-0.021 0.090 0.009 0.1 0.007 0.118-0.022 0.015-0.022 0.035-0.031 0.072-0.031 0.028 0 0.089-0.010 0.133-0.022 0.099-0.027 0.17-0.028 0.258-0.004 0.058 0.015 0.074 0.015 0.115-0.006 0.037-0.019 0.095-0.024 0.266-0.025 0.193 0 0.224-0.004 0.267-0.031 0.028-0.016 0.065-0.030 0.086-0.030 0.019 0 0.043-0.007 0.053-0.018 0.013-0.013 0.027-0.012 0.056 0.003 0.034 0.019 0.040 0.019 0.058-0.006 0.016-0.021 0.032-0.025 0.072-0.018 0.030 0.006 0.055 0.003 0.061-0.006 0.004-0.007 0.043-0.015 0.084-0.015 0.062 0 0.083-0.007 0.127-0.046 0.047-0.041 0.058-0.044 0.127-0.037 0.227 0.028 0.241 0.028 0.275-0.006 0.018-0.018 0.068-0.040 0.114-0.049 0.058-0.012 0.086-0.025 0.090-0.043 0.006-0.024 0.025-0.027 0.145-0.027h0.137l0.035-0.052c0.034-0.049 0.037-0.050 0.044-0.022 0.010 0.040 0.058 0.030 0.115-0.024 0.021-0.019 0.044-0.035 0.055-0.035 0.009 0 0.025-0.018 0.037-0.038 0.010-0.021 0.035-0.046 0.056-0.055 0.032-0.016 0.035-0.030 0.040-0.123 0.003-0.090 0-0.111-0.032-0.158-0.021-0.031-0.043-0.074-0.047-0.096-0.006-0.022-0.030-0.062-0.053-0.089-0.043-0.050-0.047-0.075-0.031-0.207 0.007-0.071 0.013-0.081 0.065-0.111 0.047-0.027 0.062-0.046 0.080-0.108 0.028-0.099 0.062-0.128 0.13-0.117 0.030 0.006 0.062 0.004 0.072-0.001 0.010-0.007 0.061-0.015 0.111-0.015 0.077-0.003 0.105-0.012 0.162-0.049 0.038-0.027 0.086-0.050 0.103-0.055 0.019-0.006 0.034-0.018 0.034-0.028 0-0.031 0.049-0.064 0.114-0.074 0.034-0.004 0.069-0.019 0.080-0.031 0.019-0.024 0.096-0.028 0.109-0.006 0.004 0.009 0.035 0.015 0.066 0.015 0.047 0 0.064-0.009 0.092-0.046 0.052-0.069 0.134-0.1 0.236-0.089 0.047 0.006 0.092 0.004 0.099-0.003s0.038-0.013 0.069-0.013c0.034 0 0.071-0.012 0.093-0.028 0.022-0.018 0.059-0.028 0.099-0.028 0.034 0 0.068-0.006 0.072-0.015 0.004-0.007 0.035-0.015 0.068-0.015 0.099 0 0.167-0.098 0.133-0.193-0.009-0.025-0.012-0.072-0.007-0.103 0.009-0.052 0.004-0.064-0.044-0.117-0.030-0.032-0.053-0.068-0.053-0.080s-0.013-0.027-0.030-0.031c-0.058-0.018-0.092-0.069-0.081-0.121 0.006-0.037 0.003-0.049-0.012-0.049-0.012 0-0.030-0.010-0.041-0.024-0.010-0.012-0.031-0.019-0.044-0.016-0.040 0.010-0.062-0.025-0.074-0.118-0.007-0.055-0.024-0.095-0.046-0.121-0.046-0.050-0.093-0.124-0.089-0.139 0.001-0.006-0.021-0.031-0.049-0.056-0.041-0.037-0.052-0.056-0.052-0.102 0-0.049-0.004-0.056-0.041-0.064-0.062-0.012-0.161-0.123-0.189-0.21-0.013-0.040-0.038-0.089-0.055-0.108-0.021-0.022-0.030-0.050-0.028-0.084 0.003-0.041-0.006-0.059-0.055-0.103-0.047-0.044-0.058-0.065-0.064-0.123-0.004-0.044-0.025-0.099-0.056-0.149-0.027-0.043-0.050-0.095-0.053-0.112-0.001-0.019-0.013-0.049-0.025-0.066s-0.019-0.043-0.015-0.058c0.004-0.019-0.012-0.035-0.059-0.061-0.064-0.034-0.065-0.037-0.059-0.092 0.009-0.065-0.013-0.13-0.074-0.208-0.038-0.049-0.041-0.061-0.027-0.102 0.009-0.025 0.016-0.047 0.016-0.049 0-0.003-0.019-0.012-0.044-0.022-0.031-0.013-0.044-0.028-0.044-0.053 0-0.019-0.009-0.040-0.021-0.046-0.025-0.015-0.080-0.167-0.071-0.201 0.003-0.015-0.004-0.043-0.018-0.062s-0.024-0.043-0.024-0.053c0-0.009-0.013-0.032-0.028-0.052-0.022-0.027-0.027-0.050-0.021-0.089 0.013-0.078-0.037-0.287-0.080-0.332-0.025-0.028-0.040-0.068-0.050-0.133-0.019-0.143-0.035-0.207-0.068-0.279-0.021-0.043-0.035-0.117-0.043-0.207-0.006-0.086-0.024-0.177-0.044-0.236-0.025-0.068-0.035-0.127-0.035-0.202 0-0.058-0.006-0.109-0.013-0.114-0.007-0.006-0.043-0.066-0.077-0.137-0.056-0.111-0.185-0.281-0.226-0.298-0.007-0.003-0.041-0.031-0.075-0.062s-0.072-0.058-0.086-0.058c-0.012 0-0.059-0.034-0.103-0.074-0.046-0.041-0.125-0.095-0.179-0.118-0.052-0.024-0.112-0.061-0.133-0.081s-0.049-0.037-0.065-0.037c-0.031 0-0.139-0.049-0.196-0.090-0.025-0.018-0.061-0.025-0.108-0.024-0.059 0.003-0.075-0.003-0.102-0.034s-0.046-0.037-0.114-0.037c-0.052 0-0.095 0.009-0.118 0.025-0.021 0.013-0.055 0.028-0.075 0.034-0.037 0.009-0.038 0.013-0.038 0.127-0.001 0.083-0.009 0.128-0.027 0.155-0.030 0.046-0.032 0.089-0.016 0.264l0.010 0.133-0.089 0.103c-0.049 0.058-0.089 0.111-0.090 0.121 0 0.025-0.155 0.137-0.189 0.137-0.015 0-0.043-0.016-0.062-0.037s-0.041-0.037-0.050-0.037c-0.009 0-0.069-0.027-0.134-0.059s-0.128-0.059-0.143-0.059c-0.013 0-0.034-0.009-0.044-0.021-0.012-0.010-0.043-0.032-0.069-0.047-0.028-0.016-0.062-0.035-0.078-0.044s-0.040-0.040-0.053-0.066c-0.019-0.040-0.038-0.053-0.084-0.064-0.115-0.025-0.18-0.056-0.198-0.092-0.009-0.019-0.024-0.035-0.032-0.035-0.010 0-0.032-0.015-0.050-0.032-0.018-0.019-0.072-0.064-0.123-0.099-0.065-0.046-0.092-0.074-0.092-0.098 0-0.025-0.015-0.038-0.066-0.058-0.037-0.015-0.071-0.034-0.077-0.046-0.022-0.035-0.235-0.195-0.276-0.205-0.030-0.007-0.047-0.025-0.063-0.068-0.019-0.049-0.035-0.062-0.092-0.083-0.071-0.027-0.126-0.069-0.108-0.086 0.013-0.015-0.028-0.038-0.065-0.038-0.047 0-0.309-0.233-0.322-0.289-0.006-0.019-0.018-0.035-0.027-0.035-0.022 0-0.301-0.287-0.344-0.354-0.019-0.028-0.058-0.074-0.087-0.102s-0.061-0.074-0.069-0.102c-0.013-0.041-0.022-0.049-0.050-0.041-0.027 0.007-0.043-0.001-0.065-0.031-0.078-0.103-0.238-0.27-0.399-0.418-0.055-0.050-0.089-0.093-0.089-0.114-0.001-0.019-0.013-0.035-0.031-0.041-0.016-0.004-0.030-0.015-0.030-0.022s-0.021-0.016-0.046-0.022c-0.032-0.007-0.050-0.022-0.061-0.052-0.007-0.024-0.050-0.069-0.095-0.103-0.044-0.032-0.080-0.071-0.080-0.083s-0.021-0.044-0.046-0.069c-0.027-0.025-0.053-0.068-0.061-0.095-0.007-0.028-0.031-0.061-0.053-0.074-0.065-0.040-0.136-0.112-0.136-0.137 0-0.030-0.061-0.115-0.136-0.193-0.034-0.034-0.056-0.071-0.056-0.092s-0.015-0.046-0.037-0.061c-0.047-0.031-0.096-0.109-0.096-0.154 0-0.034 0.003-0.034 0.112-0.027 0.084 0.006 0.111 0.003 0.105-0.010-0.012-0.031 0.016-0.084 0.044-0.084 0.015 0 0.038 0.010 0.055 0.022 0.018 0.013 0.049 0.018 0.096 0.012 0.056-0.006 0.074-0.001 0.103 0.024 0.021 0.018 0.046 0.028 0.058 0.024 0.027-0.010 0.186 0.089 0.233 0.145 0.025 0.030 0.064 0.052 0.111 0.063 0.081 0.021 0.17 0.083 0.185 0.127 0.007 0.025 0.018 0.030 0.066 0.022 0.031-0.004 0.058-0.003 0.058 0.003 0 0.024 0.159 0.174 0.211 0.201 0.031 0.015 0.066 0.046 0.078 0.068 0.010 0.022 0.035 0.046 0.052 0.050 0.018 0.006 0.055 0.034 0.081 0.063 0.040 0.044 0.056 0.052 0.106 0.050 0.053-0.003 0.068 0.006 0.149 0.083 0.050 0.047 0.090 0.098 0.090 0.111 0 0.028 0.043 0.055 0.087 0.055 0.018 0 0.046 0.016 0.063 0.037s0.058 0.044 0.087 0.052c0.031 0.009 0.075 0.032 0.099 0.052 0.025 0.021 0.056 0.037 0.071 0.037 0.058 0 0.14 0.032 0.179 0.069 0.071 0.065 0.099 0.078 0.198 0.089 0.087 0.009 0.1 0.015 0.17 0.081 0.065 0.061 0.084 0.071 0.136 0.071 0.063 0 0.226 0.077 0.295 0.137 0.027 0.025 0.050 0.030 0.14 0.028 0.117-0.003 0.158-0.012 0.158-0.034 0-0.007 0.018-0.040 0.038-0.072 0.031-0.046 0.041-0.084 0.047-0.165 0.010-0.142 0.062-0.239 0.152-0.288 0.035-0.019 0.083-0.034 0.105-0.034s0.044-0.006 0.049-0.015c0.004-0.007 0.024-0.015 0.041-0.015s0.059-0.013 0.092-0.028c0.074-0.032 0.12-0.021 0.216 0.061 0.038 0.031 0.084 0.056 0.102 0.056 0.062 0 0.155 0.034 0.192 0.069 0.021 0.021 0.064 0.052 0.096 0.069 0.037 0.019 0.061 0.044 0.064 0.065 0.003 0.018 0.016 0.034 0.030 0.034 0.013 0.001 0.032 0.003 0.040 0.006 0.009 0.001 0.025 0.004 0.037 0.004 0.013 0.001 0.044 0.022 0.069 0.046 0.046 0.041 0.124 0.071 0.149 0.055 0.006-0.004 0.031 0.006 0.056 0.022 0.024 0.015 0.059 0.028 0.077 0.028 0.022 0 0.059 0.025 0.1 0.066 0.065 0.068 0.115 0.096 0.17 0.096 0.016 0 0.058 0.028 0.092 0.062 0.078 0.080 0.177 0.129 0.257 0.13 0.034 0 0.065 0.006 0.069 0.013s0.030 0.016 0.056 0.021c0.027 0.004 0.078 0.015 0.114 0.022 0.062 0.013 0.065 0.013 0.123-0.043l0.059-0.056-0.003-0.174c-0.003-0.303 0.035-0.769 0.071-0.861 0.007-0.021 0.009-0.055 0.003-0.075-0.010-0.035-0.003-0.047 0.052-0.098l0.065-0.058v-0.136c0-0.075 0.004-0.161 0.009-0.192 0.021-0.133 0.043-0.226 0.053-0.233 0.007-0.004 0.013-0.022 0.013-0.041s0.010-0.046 0.022-0.062c0.012-0.015 0.022-0.043 0.022-0.061s0.016-0.049 0.035-0.069c0.027-0.030 0.035-0.061 0.043-0.14 0.004-0.056 0.019-0.123 0.031-0.148 0.013-0.024 0.024-0.068 0.024-0.098 0-0.074 0.037-0.146 0.115-0.226 0.068-0.069 0.074-0.102 0.040-0.205-0.009-0.027-0.001-0.038 0.037-0.062 0.061-0.037 0.146-0.205 0.148-0.289 0-0.052 0.044-0.186 0.078-0.239 0.007-0.010 0.024-0.019 0.038-0.019 0.018 0 0.031-0.015 0.035-0.040 0.006-0.025 0.027-0.052 0.055-0.066 0.044-0.025 0.044-0.028 0.035-0.098-0.006-0.053-0.003-0.084 0.015-0.118 0.013-0.025 0.024-0.081 0.024-0.126 0-0.083 0.018-0.105 0.096-0.117 0.024-0.004 0.031-0.021 0.038-0.086 0.016-0.148 0.038-0.199 0.114-0.269s0.093-0.095 0.128-0.171c0.024-0.053 0.077-0.105 0.108-0.106 0.013 0 0.016-0.015 0.010-0.049-0.007-0.035-0.003-0.055 0.013-0.068 0.028-0.024 0.031-0.084 0.006-0.096-0.010-0.004 0.001-0.006 0.025-0.001 0.068 0.010 0.154-0.071 0.16-0.154 0.003-0.050 0.016-0.072 0.074-0.131 0.038-0.038 0.069-0.077 0.069-0.083 0-0.040 0.066-0.137 0.108-0.157 0.037-0.018 0.053-0.040 0.077-0.105 0.016-0.046 0.052-0.108 0.080-0.139 0.047-0.055 0.049-0.061 0.040-0.143-0.004-0.049-0.015-0.099-0.022-0.114-0.009-0.016-0.009-0.063 0.001-0.129l0.015-0.102-0.069-0.114-0.071-0.114-0.001-0.148c-0.001-0.124-0.006-0.151-0.031-0.179-0.024-0.027-0.030-0.056-0.032-0.158-0.003-0.114-0.007-0.127-0.041-0.155-0.021-0.015-0.037-0.038-0.037-0.052 0-0.012-0.019-0.046-0.044-0.074-0.024-0.027-0.044-0.058-0.044-0.068s-0.015-0.055-0.034-0.099l-0.032-0.081-0.063 0.004c-0.055 0.004-0.065 0.010-0.083 0.055-0.022 0.052-0.062 0.081-0.108 0.081-0.016 0-0.044 0.015-0.062 0.031-0.019 0.018-0.049 0.032-0.066 0.034-0.022 0.001-0.032 0.012-0.035 0.044-0.006 0.055-0.074 0.129-0.173 0.188-0.044 0.027-0.083 0.061-0.086 0.075-0.009 0.034-0.032 0.034-0.066 0-0.021-0.019-0.056-0.027-0.168-0.030-0.087-0.003-0.146 0.001-0.152 0.012-0.004 0.007-0.021 0.015-0.034 0.015-0.030 0-0.106-0.072-0.106-0.1 0-0.010-0.010-0.031-0.024-0.043-0.015-0.015-0.019-0.035-0.013-0.055 0.018-0.061 0.015-0.072-0.030-0.098-0.025-0.013-0.044-0.037-0.044-0.053s-0.006-0.043-0.013-0.062c-0.007-0.025-0.004-0.043 0.012-0.061 0.025-0.027 0.022-0.055-0.019-0.216-0.012-0.046-0.010-0.068 0.009-0.108 0.018-0.038 0.019-0.056 0.006-0.086-0.021-0.046-0.021-0.128-0.001-0.198 0.009-0.031 0.009-0.083 0.001-0.13s-0.006-0.106 0.003-0.148c0.012-0.058 0.009-0.084-0.027-0.191-0.038-0.112-0.040-0.133-0.028-0.219s0.012-0.1-0.019-0.158c-0.035-0.065-0.044-0.13-0.019-0.13 0.022 0 0.018-0.041-0.009-0.083-0.021-0.030-0.022-0.061-0.015-0.196 0.010-0.146 0.009-0.162-0.016-0.18-0.030-0.022-0.066-0.167-0.047-0.186 0.013-0.015 0.037-0.498 0.044-0.905 0.003-0.151 0.043-0.514 0.064-0.576 0.043-0.133 0.068-0.276 0.068-0.385 0-0.061 0.010-0.145 0.022-0.185 0.015-0.052 0.021-0.143 0.019-0.323-0.001-0.405 0.003-0.498 0.027-0.53 0.012-0.018 0.021-0.065 0.021-0.114 0-0.083 0.027-0.131 0.071-0.131 0.010 0 0.018-0.012 0.018-0.027 0-0.034 0.028-0.062 0.061-0.062 0.013 0 0.034-0.010 0.044-0.024 0.027-0.032 0.146-0.019 0.168 0.016 0.007 0.015 0.030 0.046 0.047 0.072 0.019 0.025 0.065 0.109 0.102 0.186 0.038 0.077 0.072 0.146 0.077 0.154 0.003 0.006-0.007 0.007-0.025 0.001-0.025-0.007-0.030-0.004-0.021 0.018 0.006 0.015 0.022 0.043 0.037 0.063 0.024 0.032 0.025 0.049 0.013 0.112-0.015 0.074-0.009 0.131 0.015 0.162 0.013 0.016 0.006 0.208-0.009 0.257-0.004 0.015-0.003 0.031 0.004 0.035 0.009 0.004 0.007 0.035-0.001 0.075-0.013 0.059-0.012 0.071 0.016 0.1 0.019 0.019 0.030 0.050 0.030 0.080-0.001 0.027 0.007 0.058 0.016 0.069 0.018 0.021 0.032 0.217 0.032 0.384-0.001 0.034 0.010 0.071 0.028 0.093 0.022 0.028 0.030 0.061 0.030 0.125 0 0.096 0.018 0.145 0.053 0.145 0.019 0 0.022 0.015 0.019 0.071-0.004 0.049 0.003 0.081 0.022 0.111 0.022 0.032 0.027 0.058 0.019 0.124-0.010 0.093 0.015 0.155 0.098 0.254 0.034 0.040 0.041 0.059 0.034 0.096-0.004 0.025-0.012 0.087-0.015 0.136-0.007 0.084-0.004 0.092 0.030 0.106 0.019 0.010 0.035 0.025 0.037 0.035s0.003 0.049 0.006 0.086c0.004 0.093 0.040 0.199 0.078 0.241 0.022 0.022 0.032 0.053 0.032 0.089 0 0.040 0.007 0.059 0.027 0.065 0.041 0.016 0.049 0.037 0.038 0.121-0.012 0.093-0.001 0.105 0.102 0.105 0.056 0 0.086-0.010 0.14-0.047 0.038-0.025 0.083-0.062 0.1-0.080 0.022-0.022 0.043-0.030 0.068-0.025 0.022 0.004 0.055-0.003 0.077-0.018 0.030-0.021 0.053-0.024 0.102-0.015 0.034 0.006 0.099 0.015 0.143 0.019 0.078 0.010 0.081 0.012 0.086 0.058 0.004 0.052 0.035 0.077 0.112 0.092 0.034 0.007 0.047 0.022 0.063 0.066 0.010 0.031 0.028 0.065 0.040 0.074s0.024 0.038 0.027 0.066c0.003 0.031 0.015 0.056 0.034 0.066 0.016 0.009 0.032 0.018 0.037 0.021s-0.004 0.013-0.018 0.024c-0.030 0.022-0.053 0.127-0.028 0.127 0.009 0 0.024 0.016 0.031 0.037 0.015 0.037 0.050 0.049 0.066 0.022 0.019-0.030 0.037 0.003 0.037 0.065 0 0.040 0.009 0.071 0.022 0.083 0.013 0.010 0.022 0.043 0.022 0.075s0.013 0.083 0.030 0.112c0.016 0.031 0.030 0.081 0.030 0.112 0 0.035 0.007 0.059 0.022 0.064 0.025 0.010 0.028 0.065 0.007 0.137-0.012 0.043-0.010 0.056 0.013 0.078 0.037 0.032 0.053 0.157 0.040 0.307-0.009 0.117-0.001 0.168 0.022 0.154 0.028-0.018 0.071 0.059 0.072 0.129 0 0.059 0.009 0.078 0.062 0.139l0.062 0.069 0.093-0.006c0.065-0.004 0.105-0.015 0.136-0.038 0.025-0.018 0.058-0.032 0.072-0.032 0.022 0 0.176-0.137 0.207-0.186 0.013-0.022 0.179-0.109 0.205-0.109 0.012 0 0.040-0.010 0.063-0.022 0.031-0.016 0.044-0.034 0.047-0.069 0.003-0.040 0.012-0.050 0.041-0.053 0.149-0.015 0.164-0.019 0.146-0.041-0.027-0.032 0.007-0.062 0.084-0.074 0.046-0.006 0.074-0.021 0.089-0.044 0.032-0.049 0.173-0.154 0.207-0.154 0.016 0 0.044-0.012 0.063-0.025 0.021-0.013 0.069-0.030 0.109-0.035 0.047-0.007 0.081-0.022 0.095-0.043 0.012-0.016 0.030-0.030 0.041-0.030 0.010 0 0.030-0.009 0.040-0.021 0.012-0.012 0.059-0.041 0.103-0.066 0.046-0.027 0.092-0.058 0.1-0.068 0.010-0.012 0.043-0.022 0.074-0.022 0.035 0 0.063-0.010 0.081-0.030 0.015-0.016 0.046-0.030 0.071-0.030 0.028 0 0.056-0.015 0.083-0.043 0.030-0.032 0.058-0.044 0.12-0.053 0.059-0.007 0.089-0.019 0.111-0.046 0.018-0.019 0.052-0.037 0.077-0.041 0.027-0.003 0.068-0.022 0.093-0.044s0.061-0.038 0.078-0.038 0.058-0.016 0.087-0.037c0.030-0.021 0.071-0.037 0.092-0.037 0.055 0 0.112-0.027 0.112-0.050 0-0.013 0.025-0.030 0.061-0.041 0.053-0.015 0.068-0.015 0.105 0.007 0.053 0.030 0.071 0.031 0.071 0.006 0-0.010 0.013-0.034 0.031-0.053 0.028-0.031 0.038-0.032 0.146-0.022 0.093 0.007 0.131 0.004 0.191-0.018 0.041-0.015 0.075-0.032 0.075-0.038s0.018-0.012 0.038-0.012c0.021 0 0.050-0.007 0.066-0.016 0.022-0.012 0.037-0.009 0.066 0.015 0.037 0.030 0.037 0.030 0.066 0 0.016-0.016 0.025-0.035 0.021-0.041s0.004-0.010 0.019-0.006c0.016 0.003 0.056-0.013 0.095-0.038 0.037-0.025 0.078-0.046 0.090-0.046s0.027-0.006 0.031-0.013c0.004-0.006 0.030-0.016 0.056-0.022 0.025-0.004 0.058-0.019 0.071-0.031 0.015-0.013 0.059-0.022 0.118-0.024 0.061-0.001 0.146-0.019 0.229-0.046 0.124-0.041 0.139-0.043 0.21-0.027 0.041 0.010 0.092 0.015 0.111 0.009s0.124-0.013 0.233-0.018c0.247-0.009 0.247-0.009 0.318-0.072 0.032-0.028 0.080-0.059 0.103-0.066 0.031-0.010 0.056-0.038 0.084-0.087 0.028-0.053 0.061-0.084 0.112-0.114 0.083-0.046 0.106-0.092 0.106-0.208 0-0.087 0.083-0.281 0.131-0.31 0.037-0.024 0.090-0.124 0.090-0.171 0-0.019 0.022-0.055 0.052-0.084 0.043-0.041 0.050-0.059 0.049-0.111 0-0.032 0.004-0.081 0.010-0.108 0.013-0.064-0.001-0.103-0.041-0.109-0.025-0.003-0.034-0.016-0.037-0.052-0.004-0.050-0.032-0.069-0.032-0.022 0 0.015-0.004 0.031-0.009 0.035-0.015 0.016-0.065-0.007-0.065-0.031-0.001-0.049-0.071-0.105-0.13-0.105-0.016 0-0.044 0.012-0.063 0.028-0.046 0.034-0.244 0.055-0.298 0.030-0.032-0.015-0.046-0.013-0.080 0.010-0.065 0.043-0.139 0.009-0.127-0.059 0.006-0.025-0.012-0.064-0.053-0.125-0.034-0.049-0.061-0.095-0.061-0.102s-0.013-0.025-0.030-0.040c-0.022-0.021-0.030-0.046-0.030-0.103 0-0.084 0.028-0.125 0.086-0.125 0.019 0 0.034-0.012 0.040-0.032 0.006-0.019 0.022-0.047 0.037-0.064 0.013-0.016 0.030-0.047 0.035-0.069 0.004-0.022 0.041-0.068 0.083-0.102s0.074-0.071 0.074-0.083c0-0.049 0.090-0.195 0.139-0.224 0.027-0.018 0.055-0.049 0.059-0.068 0.006-0.025 0.019-0.037 0.041-0.037 0.031 0 0.129-0.053 0.148-0.080 0.006-0.009 0.007-0.040 0.003-0.071-0.007-0.044-0.003-0.058 0.025-0.081 0.037-0.030 0.129-0.12 0.157-0.157 0.013-0.016 0.034-0.021 0.078-0.015 0.083 0.012 0.133-0.016 0.133-0.072 0-0.080 0.040-0.128 0.137-0.173 0.095-0.043 0.106-0.059 0.139-0.191 0.010-0.041-0.021-0.118-0.056-0.137-0.028-0.015-0.038-0.080-0.016-0.111 0.025-0.038 0.072-0.050 0.117-0.028 0.056 0.030 0.064 0.028 0.064-0.015 0-0.021 0.012-0.049 0.027-0.063 0.019-0.019 0.025-0.043 0.021-0.089-0.006-0.061-0.004-0.063 0.050-0.086 0.098-0.038 0.124-0.055 0.124-0.075 0-0.043 0.046-0.108 0.074-0.108 0.018 0 0.093-0.062 0.185-0.152 0.222-0.217 0.241-0.233 0.285-0.245 0.025-0.007 0.041-0.024 0.047-0.047 0.004-0.021 0.031-0.047 0.062-0.065 0.035-0.019 0.056-0.041 0.062-0.068 0.004-0.024 0.021-0.044 0.038-0.050s0.030-0.022 0.030-0.044c0-0.062 0.047-0.1 0.123-0.1 0.058 0.001 0.075-0.006 0.12-0.049 0.030-0.028 0.053-0.061 0.053-0.071 0-0.012 0.021-0.028 0.044-0.038 0.025-0.010 0.044-0.030 0.044-0.044 0-0.013 0.032-0.053 0.074-0.087 0.040-0.034 0.081-0.078 0.092-0.1s0.037-0.044 0.058-0.050c0.058-0.015 0.173-0.105 0.179-0.139 0.003-0.024 0.019-0.031 0.071-0.037 0.059-0.006 0.066-0.012 0.071-0.049 0.006-0.046 0.061-0.090 0.096-0.077 0.012 0.006 0.030 0.027 0.038 0.049 0.022 0.052 0.133 0.177 0.177 0.199 0.059 0.030 0.047 0.173-0.013 0.173-0.007 0-0.024 0.018-0.035 0.040-0.012 0.024-0.044 0.055-0.074 0.069-0.061 0.032-0.058 0.025-0.059 0.164l-0.001 0.103-0.083 0.043c-0.074 0.038-0.086 0.050-0.096 0.102-0.007 0.032-0.024 0.064-0.035 0.069s-0.061 0.030-0.106 0.052c-0.075 0.035-0.087 0.047-0.102 0.099-0.009 0.032-0.010 0.086-0.006 0.117 0.009 0.047 0.003 0.065-0.028 0.106-0.024 0.031-0.058 0.055-0.084 0.061-0.024 0.004-0.046 0.016-0.049 0.027s-0.013 0.052-0.022 0.092c-0.009 0.040-0.034 0.092-0.053 0.115-0.021 0.024-0.037 0.052-0.037 0.063 0 0.010-0.009 0.027-0.021 0.035-0.012 0.010-0.025 0.041-0.031 0.069-0.004 0.028-0.019 0.056-0.031 0.061-0.010 0.004-0.021 0.016-0.021 0.027s-0.012 0.031-0.025 0.046c-0.015 0.015-0.032 0.038-0.041 0.055-0.007 0.016-0.034 0.037-0.059 0.044-0.058 0.019-0.066 0.034-0.050 0.089 0.013 0.049 0.015 0.047-0.052 0.146-0.049 0.074-0.065 0.083-0.112 0.053-0.050-0.032-0.062 0.003-0.027 0.075s0.034 0.077-0.053 0.186c-0.024 0.030-0.047 0.078-0.052 0.108-0.009 0.052-0.012 0.055-0.058 0.050-0.058-0.006-0.075 0.025-0.050 0.090 0.015 0.040 0.012 0.053-0.019 0.108-0.043 0.072-0.047 0.143-0.013 0.21 0.012 0.027 0.019 0.059 0.013 0.075-0.004 0.016 0.001 0.037 0.015 0.052 0.013 0.012 0.034 0.047 0.046 0.077l0.022 0.053 0.117-0.010c0.093-0.009 0.131-0.006 0.188 0.016 0.1 0.035 0.167 0.102 0.167 0.164 0 0.031 0.007 0.049 0.019 0.049s0.035 0.016 0.055 0.037c0.027 0.028 0.037 0.056 0.038 0.115 0.001 0.043 0.007 0.105 0.013 0.139 0.010 0.058 0.009 0.064-0.018 0.064-0.019 0-0.044 0.022-0.068 0.058-0.028 0.043-0.046 0.056-0.066 0.050-0.016-0.004-0.044 0.007-0.069 0.028-0.038 0.034-0.040 0.037-0.018 0.080 0.018 0.034 0.019 0.050 0.004 0.080-0.037 0.083-0.077 0.134-0.108 0.142-0.046 0.012-0.046 0.065 0 0.065 0.068 0 0.093 0.066 0.038 0.1-0.027 0.018-0.035 0.016-0.064-0.010-0.018-0.018-0.037-0.031-0.041-0.031-0.006 0-0.013 0.044-0.019 0.1-0.022 0.245-0.022 0.251-0.053 0.258-0.019 0.004-0.028 0.021-0.028 0.046 0 0.030-0.007 0.038-0.032 0.038-0.019 0-0.041 0.006-0.050 0.012-0.022 0.015-0.065 0.106-0.065 0.14 0 0.016-0.012 0.050-0.027 0.075s-0.037 0.075-0.047 0.112c-0.010 0.037-0.032 0.080-0.047 0.098-0.015 0.016-0.027 0.053-0.027 0.083 0 0.040-0.012 0.065-0.053 0.106-0.058 0.061-0.059 0.084-0.007 0.186 0.035 0.071 0.146 0.139 0.195 0.121 0.019-0.007 0.089-0.012 0.154-0.009 0.065 0.004 0.146 0.006 0.182 0.006 0.052-0.001 0.065 0.004 0.075 0.034 0.019 0.049 0.050 0.069 0.106 0.069 0.224 0.001 0.255 0.006 0.273 0.041 0.028 0.058 0.041 0.065 0.087 0.047 0.032-0.012 0.046-0.010 0.066 0.007 0.013 0.012 0.037 0.022 0.053 0.022s0.043 0.010 0.059 0.022c0.015 0.012 0.055 0.022 0.089 0.022 0.032 0 0.072 0.010 0.089 0.022 0.015 0.012 0.053 0.022 0.083 0.022s0.072 0.007 0.096 0.016c0.022 0.009 0.066 0.016 0.098 0.016 0.032-0.001 0.074 0.006 0.096 0.013s0.106 0.015 0.189 0.015c0.127 0.001 0.16 0.006 0.189 0.030 0.028 0.022 0.049 0.027 0.105 0.018 0.066-0.009 0.072-0.006 0.117 0.043 0.061 0.068 0.183 0.12 0.254 0.106 0.047-0.009 0.058-0.004 0.087 0.032 0.028 0.035 0.044 0.041 0.109 0.043 0.069 0.001 0.083 0.007 0.128 0.056 0.058 0.061 0.058 0.061 0.123 0.038 0.038-0.013 0.059-0.012 0.125 0.016 0.050 0.021 0.084 0.044 0.096 0.068 0.009 0.019 0.027 0.040 0.038 0.044 0.012 0.006 0.022 0.018 0.022 0.027s0.021 0.019 0.049 0.021c0.069 0.003 0.157 0.043 0.217 0.098 0.066 0.062 0.134 0.089 0.198 0.078 0.041-0.006 0.059 0 0.090 0.028 0.021 0.019 0.050 0.035 0.064 0.035 0.035 0 0.121 0.055 0.121 0.077 0 0.010 0.015 0.021 0.034 0.022 0.074 0.006 0.173 0.030 0.193 0.049 0.013 0.010 0.024 0.030 0.024 0.044 0 0.019 0.009 0.025 0.028 0.019 0.018-0.004 0.053 0.016 0.103 0.061 0.041 0.037 0.087 0.068 0.099 0.068 0.013 0 0.044 0.009 0.069 0.021 0.027 0.012 0.064 0.024 0.084 0.027 0.027 0.003 0.044 0.021 0.064 0.061 0.013 0.030 0.031 0.055 0.038 0.055s0.034 0.018 0.059 0.038c0.025 0.021 0.077 0.046 0.115 0.055 0.059 0.015 0.072 0.024 0.075 0.055 0.003 0.021 0.013 0.046 0.022 0.058 0.025 0.030 0.128 0.075 0.173 0.075 0.038 0 0.131 0.075 0.161 0.13 0.009 0.018 0.027 0.032 0.038 0.032s0.059 0.038 0.105 0.087c0.1 0.108 0.22 0.159 0.312 0.136 0.031-0.007 0.095-0.018 0.14-0.024 0.047-0.004 0.089-0.016 0.095-0.024 0.004-0.007 0.043-0.013 0.084-0.013 0.196 0 0.275-0.009 0.301-0.034 0.015-0.013 0.065-0.044 0.111-0.068 0.075-0.040 0.095-0.044 0.17-0.037 0.096 0.010 0.195-0.024 0.247-0.081 0.016-0.016 0.040-0.031 0.056-0.031 0.021 0 0.027-0.012 0.027-0.058 0-0.031-0.010-0.077-0.022-0.099-0.012-0.024-0.022-0.053-0.022-0.066s-0.064-0.086-0.14-0.162c-0.077-0.077-0.14-0.149-0.14-0.162s-0.010-0.032-0.024-0.044c-0.059-0.049-0.131-0.248-0.146-0.408l-0.010-0.106 0.058 0.003c0.061 0.001 0.134-0.041 0.174-0.103 0.013-0.019 0.037-0.034 0.053-0.034s0.055-0.013 0.084-0.028c0.133-0.071 0.16-0.077 0.204-0.053 0.055 0.028 0.13 0.028 0.154 0 0.010-0.012 0.035-0.022 0.058-0.022s0.055-0.010 0.072-0.024c0.037-0.025 0.272-0.032 0.415-0.013 0.089 0.012 0.235-0.013 0.341-0.059 0.072-0.031 0.303-0.068 0.428-0.068 0.021 0 0.065-0.010 0.1-0.022 0.037-0.012 0.125-0.021 0.222-0.021 0.087-0.001 0.171-0.001 0.188-0.001 0.016-0.001 0.165 0.003 0.332 0.007 0.38 0.009 0.546 0.027 0.57 0.059 0.015 0.022 0.018 0.021 0.025-0.006s0.015-0.031 0.080-0.021c0.038 0.006 0.086 0.016 0.105 0.022s0.131 0.013 0.25 0.013c0.202 0 0.292 0.012 0.369 0.047 0.019 0.010 0.074 0.012 0.139 0.006 0.102-0.010 0.108-0.009 0.148 0.030s0.044 0.040 0.171 0.030c0.114-0.009 0.136-0.006 0.171 0.019 0.024 0.015 0.055 0.024 0.069 0.021 0.015-0.004 0.062 0.003 0.106 0.015 0.058 0.018 0.133 0.022 0.288 0.019 0.189-0.004 0.213-0.003 0.241 0.024 0.016 0.015 0.030 0.037 0.030 0.049 0 0.015 0.016 0.022 0.049 0.022 0.062 0 0.161 0.058 0.185 0.108 0.018 0.035 0.016 0.044-0.009 0.077-0.034 0.043-0.028 0.105 0.010 0.115 0.015 0.003 0.031 0.027 0.035 0.050s0.022 0.050 0.040 0.058c0.028 0.013 0.030 0.015 0.006 0.049s-0.031 0.034-0.142 0.025c-0.095-0.007-0.127-0.004-0.179 0.018-0.053 0.024-0.092 0.027-0.261 0.022-0.109-0.003-0.258-0.012-0.332-0.018-0.072-0.007-0.143-0.007-0.157 0s-0.037 0.009-0.053 0.004c-0.031-0.009-0.078 0.027-0.078 0.058 0 0.025-0.052 0.055-0.072 0.041-0.010-0.007-0.043 0-0.072 0.015-0.066 0.034-0.111 0.035-0.16 0.004-0.035-0.024-0.040-0.024-0.080 0.007-0.031 0.022-0.065 0.031-0.117 0.031-0.040 0-0.083 0.009-0.093 0.019-0.050 0.050-0.154 0.084-0.255 0.083-0.357-0.003-0.416 0.004-0.431 0.059-0.009 0.037-0.099 0.075-0.182 0.077-0.098 0.001-0.298 0.028-0.328 0.044-0.015 0.007-0.059 0.013-0.099 0.013-0.077 0-0.191 0.043-0.224 0.083-0.035 0.043-0.114 0.068-0.18 0.058-0.139-0.021-0.263 0.096-0.232 0.217 0.038 0.142 0.069 0.23 0.099 0.272 0.022 0.031 0.028 0.052 0.018 0.066-0.007 0.010-0.013 0.061-0.013 0.108 0 0.071-0.006 0.095-0.032 0.123-0.031 0.034-0.032 0.035-0.007 0.105 0.013 0.038 0.025 0.077 0.025 0.087 0 0.037-0.047 0.063-0.108 0.062-0.043-0.001-0.083 0.010-0.128 0.037-0.049 0.028-0.078 0.035-0.114 0.030s-0.059 0-0.102 0.030c-0.044 0.030-0.068 0.035-0.111 0.030-0.031-0.006-0.071-0.001-0.096 0.012-0.044 0.019-0.201 0.024-0.244 0.006-0.016-0.007-0.028 0.003-0.044 0.037-0.030 0.066-0.089 0.108-0.149 0.102-0.173-0.013-0.36 0.019-0.418 0.074-0.018 0.018-0.058 0.037-0.087 0.046-0.030 0.007-0.053 0.021-0.053 0.028 0 0.009-0.019 0.015-0.041 0.015-0.064 0-0.186 0.093-0.191 0.145-0.003 0.022-0.007 0.065-0.013 0.096-0.009 0.050-0.003 0.065 0.058 0.142 0.037 0.047 0.071 0.108 0.077 0.134s0.021 0.058 0.032 0.072c0.046 0.052 0.092 0.136 0.102 0.186 0.004 0.028 0.018 0.052 0.030 0.052 0.024 0 0.050 0.046 0.050 0.086 0 0.016 0.027 0.065 0.059 0.108s0.059 0.087 0.059 0.098 0.030 0.052 0.066 0.093c0.037 0.041 0.066 0.084 0.066 0.096s0.022 0.047 0.050 0.077c0.071 0.081 0.087 0.118 0.077 0.183-0.009 0.055-0.007 0.058 0.043 0.078 0.050 0.022 0.052 0.025 0.043 0.081s-0.006 0.062 0.037 0.086c0.025 0.015 0.046 0.037 0.046 0.050s0.024 0.077 0.053 0.14c0.046 0.102 0.050 0.12 0.034 0.151-0.016 0.028-0.016 0.037 0.001 0.049 0.012 0.007 0.035 0.010 0.050 0.007 0.068-0.016 0.115 0.069 0.080 0.146-0.013 0.030-0.010 0.043 0.012 0.075 0.043 0.061 0.093 0.158 0.093 0.185 0.001 0.013 0.015 0.035 0.031 0.050 0.059 0.053 0.109 0.161 0.121 0.258 0.006 0.053 0.016 0.13 0.021 0.171 0.007 0.062 0.016 0.080 0.046 0.093 0.019 0.009 0.034 0.025 0.032 0.034-0.006 0.046 0.004 0.072 0.053 0.136 0.038 0.052 0.052 0.083 0.052 0.126 0 0.032-0.006 0.063-0.015 0.068-0.024 0.015-0.018 0.034 0.013 0.044 0.016 0.004 0.034 0.028 0.040 0.055 0.004 0.027 0.021 0.068 0.035 0.095 0.019 0.031 0.030 0.095 0.037 0.199 0.006 0.084 0.019 0.186 0.031 0.226s0.021 0.124 0.021 0.186c0 0.102 0.004 0.121 0.044 0.179 0.046 0.068 0.053 0.121 0.030 0.205-0.016 0.055-0.001 0.089 0.069 0.164 0.019 0.022 0.035 0.049 0.034 0.059-0.007 0.050 0.001 0.089 0.027 0.112 0.015 0.015 0.041 0.050 0.059 0.080 0.038 0.063 0.109 0.121 0.198 0.159 0.035 0.015 0.078 0.049 0.098 0.074 0.028 0.038 0.043 0.046 0.092 0.046 0.040 0 0.059 0.006 0.059 0.019 0 0.027 0.171 0.188 0.198 0.188 0.010 0 0.028 0.010 0.038 0.022s0.043 0.022 0.072 0.022c0.046 0 0.058 0.006 0.069 0.040 0.012 0.032 0.027 0.041 0.102 0.058 0.050 0.009 0.134 0.037 0.188 0.062 0.084 0.038 0.098 0.049 0.090 0.075-0.007 0.030-0.003 0.031 0.102 0.031 0.108 0 0.109 0 0.167-0.059l0.059-0.061 0.004-0.351c0.004-0.292 0.001-0.362-0.018-0.408-0.028-0.068-0.013-0.102 0.058-0.133 0.028-0.010 0.052-0.027 0.052-0.034s0.028-0.032 0.061-0.055c0.056-0.037 0.066-0.038 0.115-0.024 0.046 0.015 0.106 0.021 0.294 0.030 0.021 0.001 0.032 0.010 0.032 0.028 0 0.038 0.056 0.121 0.081 0.121 0.012 0 0.022 0.009 0.022 0.021 0 0.025 0.083 0.098 0.111 0.098 0.012 0 0.028 0.013 0.037 0.030 0.009 0.018 0.031 0.030 0.053 0.030 0.025 0 0.041 0.010 0.046 0.028 0.004 0.016 0.025 0.032 0.046 0.038s0.086 0.031 0.14 0.056c0.080 0.038 0.099 0.053 0.093 0.075-0.004 0.019 0.004 0.031 0.035 0.043 0.041 0.016 0.089 0.078 0.089 0.117 0 0.034 0.081 0.102 0.127 0.108 0.030 0.003 0.065 0.030 0.117 0.087 0.041 0.046 0.081 0.083 0.090 0.083s0.031 0.016 0.050 0.037c0.025 0.027 0.050 0.037 0.092 0.037 0.059 0 0.061 0.003 0.056 0.084-0.001 0.040 0.004 0.052 0.034 0.062 0.021 0.009 0.041 0.022 0.047 0.030 0.004 0.009 0.035 0.016 0.068 0.016 0.044 0 0.065 0.009 0.092 0.040 0.018 0.021 0.044 0.050 0.058 0.065s0.035 0.043 0.049 0.064c0.013 0.019 0.044 0.041 0.066 0.046 0.025 0.006 0.062 0.034 0.089 0.065 0.027 0.034 0.061 0.061 0.087 0.065 0.027 0.006 0.047 0.021 0.053 0.040 0.010 0.034 0.146 0.148 0.177 0.148 0.010 0 0.047 0.041 0.083 0.092 0.035 0.049 0.090 0.115 0.121 0.146s0.055 0.066 0.055 0.078c0 0.030 0.103 0.136 0.145 0.149 0.030 0.009 0.034 0.018 0.030 0.053-0.006 0.035 0.007 0.059 0.072 0.134 0.044 0.050 0.083 0.106 0.087 0.125 0.010 0.038 0.061 0.059 0.084 0.035 0.027-0.027 0.049-0.019 0.066 0.021 0.010 0.022 0.030 0.037 0.047 0.037 0.049 0 0.089 0.052 0.089 0.117s0.016 0.083 0.077 0.078c0.022-0.001 0.041 0.004 0.041 0.013s0.030 0.046 0.066 0.083c0.037 0.035 0.066 0.074 0.066 0.083 0.001 0.024 0.099 0.128 0.121 0.128 0.010 0 0.059 0.043 0.111 0.096 0.078 0.081 0.093 0.105 0.093 0.148 0 0.040 0.013 0.065 0.059 0.111 0.032 0.032 0.065 0.059 0.071 0.059 0.015 0 0.058 0.092 0.066 0.14 0.003 0.016-0.004 0.049-0.015 0.071-0.012 0.024-0.018 0.052-0.013 0.064s-0.010 0.050-0.032 0.084c-0.022 0.034-0.043 0.092-0.047 0.128-0.009 0.078-0.040 0.093-0.087 0.043-0.049-0.052-0.109-0.087-0.151-0.087-0.030 0-0.044-0.010-0.058-0.043-0.009-0.024-0.032-0.058-0.053-0.077-0.019-0.018-0.035-0.041-0.035-0.052s-0.013-0.022-0.028-0.028c-0.016-0.004-0.041-0.030-0.058-0.056-0.019-0.034-0.044-0.052-0.086-0.062-0.037-0.010-0.064-0.028-0.075-0.050-0.009-0.021-0.055-0.062-0.102-0.093-0.046-0.031-0.111-0.084-0.142-0.117-0.040-0.041-0.066-0.056-0.084-0.050s-0.049-0.010-0.090-0.044c-0.034-0.028-0.068-0.052-0.077-0.052-0.031 0-0.13-0.092-0.13-0.12 0-0.016-0.037-0.065-0.081-0.109s-0.081-0.087-0.081-0.093c0-0.006-0.024-0.021-0.050-0.030-0.028-0.010-0.055-0.031-0.059-0.044-0.013-0.041-0.171-0.195-0.201-0.195-0.015 0-0.030-0.013-0.034-0.030s-0.025-0.031-0.049-0.037c-0.024-0.004-0.064-0.015-0.089-0.022-0.064-0.021-0.105-0.018-0.145 0.007-0.027 0.018-0.065 0.022-0.151 0.019-0.105-0.004-0.117-0.007-0.117-0.034 0-0.022 0.009-0.028 0.034-0.025 0.047 0.007 0.043-0.041-0.012-0.093-0.040-0.038-0.053-0.043-0.161-0.043-0.123-0.001-0.143-0.012-0.217-0.096-0.024-0.028-0.043-0.034-0.102-0.034-0.064 0.001-0.077-0.003-0.125-0.055l-0.056-0.058-0.133 0.003c-0.157 0.004-0.189 0.021-0.248 0.12-0.032 0.058-0.038 0.078-0.030 0.139 0.007 0.055 0.004 0.075-0.013 0.090-0.015 0.012-0.022 0.044-0.022 0.092 0 0.080-0.027 0.106-0.071 0.066-0.027-0.024-0.077-0.010-0.077 0.021 0 0.034-0.069 0.105-0.127 0.131-0.123 0.053-0.14 0.052-0.238-0.022-0.050-0.037-0.103-0.066-0.121-0.066s-0.056-0.010-0.084-0.022c-0.028-0.012-0.056-0.021-0.062-0.019-0.019 0.006-0.077-0.019-0.077-0.034 0-0.007-0.022-0.022-0.049-0.032-0.056-0.024-0.128-0.112-0.128-0.157 0-0.018-0.009-0.031-0.021-0.031-0.040 0-0.068 0.018-0.068 0.044 0 0.024-0.004 0.025-0.037 0.010-0.021-0.010-0.037-0.024-0.037-0.030 0-0.007-0.027-0.038-0.059-0.071-0.049-0.049-0.068-0.058-0.12-0.058-0.047 0-0.072-0.010-0.112-0.044-0.027-0.024-0.064-0.044-0.080-0.044-0.034 0-0.106-0.035-0.16-0.075-0.019-0.016-0.078-0.041-0.13-0.058-0.053-0.016-0.115-0.043-0.139-0.061s-0.071-0.034-0.102-0.038c-0.032-0.004-0.055-0.015-0.050-0.022 0.015-0.024-0.041-0.071-0.083-0.071-0.031 0-0.044 0.010-0.059 0.043-0.010 0.027-0.035 0.050-0.061 0.059-0.066 0.022-0.146 0.093-0.146 0.128 0 0.022 0.009 0.031 0.027 0.030 0.034-0.003 0.043 0.087 0.012 0.123-0.043 0.047-0.068 0.165-0.068 0.325 0 0.14-0.004 0.161-0.046 0.251-0.034 0.071-0.044 0.109-0.038 0.146 0.004 0.027-0.004 0.098-0.019 0.158-0.022 0.086-0.025 0.12-0.013 0.155 0.021 0.058 0.007 0.093-0.030 0.081-0.015-0.004-0.034 0-0.041 0.010-0.030 0.037-0.052 0.173-0.041 0.25 0.009 0.064 0.006 0.080-0.021 0.108-0.022 0.024-0.032 0.058-0.037 0.124-0.006 0.078-0.013 0.098-0.049 0.127l-0.041 0.037 0.028 0.050c0.031 0.059 0.022 0.084-0.030 0.084-0.027 0-0.035 0.007-0.035 0.034 0 0.040-0.025 0.069-0.061 0.069-0.034 0-0.049 0.050-0.028 0.089 0.012 0.021 0.013 0.069 0.007 0.139-0.010 0.105-0.012 0.109-0.061 0.131-0.040 0.021-0.053 0.038-0.072 0.106-0.013 0.044-0.035 0.089-0.050 0.099s-0.031 0.046-0.037 0.078c-0.022 0.114-0.035 0.177-0.056 0.251-0.019 0.071-0.022 0.074-0.069 0.071l-0.049-0.001 0.010 0.084c0.007 0.059 0.003 0.103-0.015 0.154-0.013 0.038-0.019 0.084-0.015 0.099 0.007 0.022 0 0.032-0.025 0.043-0.049 0.019-0.111 0.090-0.124 0.142-0.006 0.025-0.032 0.071-0.061 0.105-0.027 0.032-0.053 0.081-0.058 0.105-0.006 0.027-0.024 0.053-0.044 0.065-0.027 0.013-0.035 0.031-0.035 0.066 0 0.028-0.013 0.065-0.034 0.090-0.019 0.022-0.056 0.084-0.083 0.137s-0.064 0.127-0.084 0.164c-0.019 0.038-0.038 0.095-0.043 0.125-0.004 0.044-0.021 0.069-0.066 0.109-0.032 0.028-0.075 0.086-0.096 0.125-0.043 0.087-0.131 0.185-0.168 0.185s-0.061 0.030-0.061 0.077c0 0.022-0.018 0.065-0.038 0.096s-0.041 0.075-0.046 0.098c-0.006 0.027-0.024 0.049-0.047 0.059-0.055 0.025-0.056 0.030-0.049 0.151 0.006 0.108 0.006 0.109-0.041 0.152l-0.047 0.044 0.009 0.13c0.015 0.195 0.015 0.195-0.013 0.222-0.053 0.053 0.019 0.272 0.075 0.226 0.010-0.009 0.031-0.013 0.046-0.010 0.024 0.004 0.024 0.007-0.004 0.034-0.049 0.047-0.052 0.092-0.012 0.205 0.030 0.084 0.032 0.112 0.021 0.149-0.012 0.035-0.009 0.056 0.013 0.1s0.025 0.066 0.013 0.117c-0.012 0.056-0.009 0.066 0.034 0.127 0.044 0.062 0.046 0.069 0.040 0.176l-0.007 0.112 0.061 0.064c0.056 0.058 0.068 0.064 0.127 0.062 0.037-0.001 0.083 0.001 0.103 0.007 0.031 0.010 0.047 0.001 0.1-0.049 0.035-0.032 0.077-0.059 0.093-0.059s0.050-0.032 0.084-0.077c0.083-0.111 0.176-0.204 0.205-0.204 0.015 0 0.055-0.013 0.090-0.030 0.052-0.024 0.062-0.035 0.062-0.071 0-0.087 0.096-0.125 0.189-0.078 0.052 0.027 0.059 0.035 0.058 0.078-0.003 0.050 0.028 0.075 0.112 0.093 0.030 0.006 0.047 0.024 0.062 0.058 0.015 0.032 0.037 0.055 0.066 0.065 0.071 0.025 0.114 0.173 0.068 0.242-0.022 0.032-0.021 0.040 0.006 0.090 0.016 0.030 0.030 0.064 0.030 0.075s0.013 0.027 0.030 0.031c0.027 0.009 0.030 0.022 0.030 0.137 0 0.139-0.019 0.244-0.043 0.251-0.009 0.003-0.016 0.025-0.016 0.049 0 0.032 0.007 0.043 0.028 0.043 0.018 0 0.034 0.016 0.044 0.046 0.021 0.061 0.021 0.238 0 0.31-0.013 0.041-0.013 0.084 0 0.167 0.016 0.109 0.012 0.154-0.027 0.289-0.010 0.037 0.040 0.164 0.072 0.185 0.021 0.012 0.019 0.164-0.003 0.198-0.013 0.021-0.012 0.034 0.007 0.062 0.016 0.024 0.025 0.065 0.025 0.125 0 0.049 0.004 0.095 0.012 0.1 0.018 0.018 0.025 0.248 0.019 0.611-0.001 0.124-0.004 0.139-0.030 0.146-0.016 0.004-0.043 0.037-0.059 0.071-0.028 0.059-0.028 0.069-0.009 0.115 0.015 0.035 0.021 0.114 0.021 0.278 0 0.125 0.004 0.269 0.010 0.319 0.006 0.058 0.004 0.099-0.004 0.111-0.010 0.013-0.012 0.053-0.001 0.118 0.010 0.080 0.009 0.108-0.009 0.142-0.015 0.030-0.024 0.112-0.030 0.272-0.004 0.127-0.015 0.248-0.024 0.269-0.007 0.022-0.015 0.061-0.015 0.086s-0.019 0.080-0.041 0.121c-0.024 0.041-0.047 0.103-0.053 0.139-0.025 0.168-0.171 0.322-0.171 0.182 0-0.022-0.012-0.052-0.027-0.065-0.025-0.024-0.030-0.024-0.058 0.003-0.016 0.016-0.034 0.052-0.040 0.080-0.012 0.062-0.040 0.089-0.086 0.081-0.025-0.003-0.035-0.016-0.038-0.044-0.004-0.032 0-0.040 0.018-0.032 0.015 0.006 0.028-0.004 0.040-0.028 0.022-0.047 0.009-0.084-0.030-0.084-0.034 0-0.044-0.027-0.043-0.114 0-0.035-0.010-0.080-0.025-0.102-0.021-0.031-0.022-0.046-0.009-0.075 0.053-0.118-0.030-0.468-0.125-0.532-0.046-0.030-0.053-0.058-0.030-0.105 0.013-0.028 0.018-0.078 0.013-0.165-0.019-0.353-0.016-0.473 0.009-0.487 0.022-0.013 0.022-0.013 0-0.015-0.027 0-0.043-0.030-0.043-0.075 0-0.015-0.013-0.041-0.030-0.058s-0.030-0.049-0.030-0.075c0-0.027-0.013-0.068-0.028-0.093-0.031-0.052-0.075-0.211-0.075-0.275 0-0.024-0.007-0.047-0.016-0.053-0.012-0.007-0.015-0.049-0.009-0.133 0.007-0.096 0.004-0.125-0.013-0.139-0.010-0.010-0.021-0.040-0.021-0.068 0-0.032-0.010-0.056-0.031-0.071-0.050-0.034-0.074-0.093-0.064-0.158 0.009-0.049 0.004-0.062-0.035-0.102-0.043-0.041-0.046-0.052-0.041-0.139 0.003-0.050 0.009-0.1 0.015-0.109 0.004-0.007-0.007-0.035-0.028-0.059s-0.037-0.052-0.037-0.059c0-0.009-0.019-0.027-0.043-0.041-0.022-0.013-0.053-0.044-0.066-0.066-0.015-0.024-0.032-0.043-0.043-0.043-0.009 0-0.037-0.021-0.064-0.046l-0.047-0.046-0.075 0.035c-0.064 0.028-0.078 0.043-0.090 0.089-0.013 0.047-0.022 0.055-0.086 0.069-0.047 0.012-0.086 0.012-0.12 0.001-0.028-0.007-0.065-0.010-0.084-0.006s-0.037 0.001-0.041-0.007c-0.006-0.010-0.024-0.009-0.055 0.001-0.034 0.012-0.050 0.010-0.069-0.007-0.013-0.012-0.032-0.019-0.041-0.015-0.021 0.007-0.040-0.016-0.093-0.115-0.041-0.078-0.041-0.081-0.022-0.158 0.018-0.068 0.018-0.084-0.001-0.121-0.012-0.024-0.024-0.068-0.027-0.099s-0.022-0.083-0.043-0.115c-0.021-0.032-0.041-0.074-0.047-0.092-0.006-0.019-0.016-0.034-0.024-0.034-0.030 0-0.046-0.059-0.031-0.108 0.022-0.065-0.012-0.168-0.072-0.229-0.030-0.031-0.043-0.056-0.038-0.072s0.003-0.081-0.004-0.149c-0.009-0.092-0.021-0.131-0.043-0.155-0.016-0.018-0.043-0.068-0.059-0.111l-0.031-0.078 0.031-0.012c0.028-0.010 0.028-0.012-0.010-0.037-0.022-0.015-0.047-0.022-0.058-0.019-0.015 0.006-0.016-0.021-0.012-0.112 0.009-0.142-0.016-0.202-0.099-0.241-0.030-0.013-0.068-0.037-0.086-0.053-0.022-0.022-0.058-0.031-0.118-0.034-0.047-0.003-0.092-0.006-0.1-0.009-0.007-0.003-0.049 0.012-0.090 0.031-0.055 0.025-0.080 0.047-0.093 0.080-0.028 0.075-0.096 0.142-0.173 0.168-0.050 0.018-0.083 0.043-0.106 0.077-0.019 0.028-0.050 0.061-0.071 0.071s-0.032 0.025-0.028 0.034c0.015 0.024-0.007 0.071-0.037 0.080-0.016 0.006-0.052 0.001-0.080-0.009-0.066-0.024-0.108 0.003-0.158 0.099-0.049 0.093-0.098 0.123-0.164 0.098-0.049-0.018-0.050-0.018-0.123 0.061-0.041 0.044-0.089 0.084-0.106 0.090-0.016 0.006-0.038 0.030-0.049 0.052-0.019 0.047-0.056 0.064-0.118 0.050-0.053-0.010-0.127 0.030-0.155 0.084-0.013 0.027-0.038 0.047-0.064 0.053-0.022 0.004-0.059 0.015-0.083 0.022s-0.058 0.013-0.075 0.013c-0.018 0-0.049 0.012-0.068 0.028s-0.056 0.032-0.083 0.037c-0.027 0.006-0.064 0.027-0.081 0.047-0.025 0.027-0.050 0.035-0.096 0.035-0.050 0-0.061 0.004-0.055 0.022 0.013 0.031-0.021 0.066-0.062 0.066-0.022 0-0.049 0.019-0.074 0.052-0.031 0.041-0.049 0.052-0.089 0.052-0.027 0-0.053 0.007-0.058 0.015-0.004 0.009-0.031 0.015-0.059 0.015-0.040 0-0.058 0.010-0.089 0.050-0.052 0.068-0.074 0.074-0.148 0.038-0.080-0.038-0.117-0.037-0.146 0.007-0.032 0.049-0.103 0.065-0.245 0.056l-0.118-0.007 0.009 0.044c0.009 0.043 0.007 0.043-0.078 0.056-0.047 0.006-0.164 0.012-0.258 0.013-0.17 0-0.174 0.001-0.211 0.041-0.021 0.022-0.047 0.040-0.058 0.040s-0.031 0.013-0.046 0.030c-0.015 0.016-0.046 0.030-0.069 0.030-0.031 0-0.046 0.009-0.052 0.028-0.009 0.035-0.086 0.065-0.121 0.047-0.032-0.018-0.258 0.007-0.312 0.035-0.024 0.012-0.080 0.022-0.124 0.022-0.145 0-0.304 0.038-0.354 0.087-0.025 0.022-0.068 0.049-0.095 0.058s-0.065 0.030-0.086 0.046c-0.021 0.016-0.068 0.034-0.105 0.040-0.058 0.009-0.069 0.016-0.087 0.061-0.012 0.028-0.031 0.053-0.043 0.059-0.012 0.004-0.022 0.015-0.022 0.025s-0.019 0.034-0.044 0.056c-0.037 0.032-0.043 0.046-0.035 0.084s0.001 0.055-0.043 0.103c-0.035 0.040-0.058 0.083-0.071 0.14-0.015 0.066-0.028 0.090-0.074 0.127-0.038 0.031-0.058 0.058-0.058 0.083 0 0.041-0.055 0.095-0.123 0.117-0.032 0.010-0.052 0.028-0.062 0.059-0.007 0.025-0.027 0.061-0.040 0.081-0.028 0.037-0.038 0.207-0.015 0.207 0.025 0 0.151 0.108 0.202 0.174 0.037 0.047 0.050 0.078 0.046 0.1-0.015 0.058 0.019 0.065 0.128 0.028 0.106-0.035 0.199-0.035 0.251 0 0.028 0.019 0.080 0.012 0.162-0.021 0.075-0.030 0.123-0.021 0.143 0.027 0.016 0.040 0.034 0.058 0.155 0.155 0.038 0.031 0.043 0.043 0.038 0.103-0.003 0.044 0.004 0.083 0.019 0.105 0.016 0.024 0.019 0.046 0.010 0.077-0.024 0.080-0.062 0.139-0.102 0.155-0.038 0.016-0.038 0.018-0.006 0.022 0.050 0.010 0.044 0.072-0.012 0.1-0.024 0.013-0.044 0.031-0.044 0.040 0 0.028-0.046 0.069-0.068 0.061-0.013-0.004-0.018 0-0.013 0.013s-0.016 0.049-0.052 0.087c-0.032 0.035-0.059 0.072-0.059 0.083 0 0.019-0.058 0.139-0.074 0.152-0.021 0.018-0.059 0.090-0.059 0.109 0 0.028-0.083 0.090-0.137 0.103-0.027 0.006-0.046 0.024-0.056 0.050-0.009 0.022-0.050 0.077-0.093 0.121s-0.093 0.103-0.111 0.128c-0.018 0.027-0.050 0.053-0.072 0.058-0.099 0.022-0.095 0.016-0.173 0.182-0.021 0.043-0.074 0.114-0.118 0.157-0.078 0.074-0.081 0.081-0.081 0.154 0 0.043-0.006 0.089-0.015 0.103-0.007 0.015-0.053 0.041-0.1 0.059-0.061 0.022-0.093 0.044-0.105 0.069-0.009 0.019-0.028 0.035-0.044 0.035s-0.040 0.019-0.055 0.043c-0.015 0.024-0.041 0.052-0.061 0.062s-0.049 0.040-0.065 0.066c-0.030 0.050-0.090 0.105-0.183 0.168-0.028 0.021-0.066 0.062-0.083 0.093-0.021 0.038-0.061 0.077-0.126 0.117-0.052 0.032-0.095 0.068-0.095 0.078 0 0.012-0.012 0.024-0.028 0.030-0.043 0.013-0.224 0.201-0.248 0.255-0.010 0.027-0.040 0.081-0.065 0.121-0.038 0.062-0.053 0.074-0.090 0.074-0.063 0-0.136 0.075-0.124 0.128 0.009 0.030 0.006 0.035-0.010 0.030-0.025-0.009-0.084 0.064-0.084 0.103 0 0.056-0.034 0.075-0.183 0.103-0.024 0.004-0.084 0.037-0.136 0.072s-0.099 0.065-0.103 0.065c-0.006 0-0.025 0.016-0.044 0.037-0.028 0.030-0.049 0.037-0.106 0.037s-0.077 0.006-0.095 0.031c-0.016 0.025-0.040 0.032-0.126 0.038-0.087 0.007-0.112 0.015-0.139 0.043-0.034 0.037-0.038 0.038-0.069 0.025zM14.029 31.65c0.009-0.016 0.015-0.044 0.012-0.062-0.004-0.031-0.007-0.031-0.053 0.015-0.027 0.027-0.046 0.055-0.040 0.064 0.016 0.025 0.065 0.016 0.081-0.016zM16.739 23.927c0.074-0.007 0.158-0.021 0.188-0.031 0.044-0.013 0.083-0.012 0.185 0.007 0.247 0.044 0.291 0.044 0.4-0.007 0.125-0.059 0.183-0.072 0.372-0.080 0.13-0.004 0.168-0.012 0.233-0.046 0.044-0.022 0.084-0.053 0.092-0.071 0.015-0.040 0.099-0.081 0.167-0.081 0.028 0 0.066-0.013 0.089-0.030 0.049-0.038 0.072-0.037 0.125 0.007 0.025 0.021 0.050 0.037 0.059 0.037 0.007 0 0.044-0.027 0.081-0.059s0.072-0.059 0.080-0.059c0.007 0 0.031-0.021 0.052-0.046 0.037-0.041 0.046-0.044 0.106-0.035 0.059 0.009 0.069 0.006 0.1-0.030 0.049-0.058 0.143-0.102 0.207-0.098 0.031 0.001 0.078-0.010 0.111-0.028 0.031-0.016 0.064-0.030 0.072-0.030s0.028-0.013 0.043-0.030c0.015-0.016 0.035-0.030 0.044-0.030 0.016 0 0.22-0.095 0.303-0.14 0.021-0.012 0.068-0.025 0.106-0.030 0.059-0.007 0.071-0.015 0.084-0.053 0.007-0.024 0.027-0.047 0.041-0.053s0.038-0.025 0.052-0.043c0.025-0.031 0.074-0.055 0.148-0.071 0.028-0.006 0.038-0.016 0.032-0.031s-0.003-0.019 0.012-0.015c0.010 0.004 0.055-0.024 0.099-0.065s0.098-0.078 0.12-0.083c0.052-0.012 0.143-0.087 0.173-0.145 0.028-0.058 0.044-0.069 0.096-0.069 0.044 0 0.066-0.022 0.040-0.038-0.013-0.007-0.012-0.015 0.004-0.027 0.012-0.009 0.030-0.031 0.040-0.049s0.041-0.040 0.077-0.049c0.032-0.009 0.069-0.028 0.081-0.041 0.061-0.068 0.109-0.143 0.109-0.168s0.007-0.028 0.046-0.019c0.037 0.009 0.053 0.003 0.087-0.030 0.024-0.022 0.050-0.037 0.062-0.032 0.027 0.009 0.071-0.016 0.071-0.040 0-0.012 0.010-0.024 0.022-0.030 0.012-0.004 0.030-0.025 0.037-0.046s0.037-0.052 0.066-0.068c0.032-0.019 0.062-0.055 0.080-0.095 0.015-0.035 0.041-0.068 0.056-0.072 0.016-0.006 0.052-0.040 0.077-0.077 0.027-0.037 0.083-0.093 0.124-0.125 0.152-0.121 0.222-0.191 0.226-0.229 0.001-0.022 0.025-0.059 0.053-0.086 0.027-0.025 0.080-0.083 0.117-0.127s0.1-0.098 0.14-0.118c0.061-0.032 0.072-0.046 0.074-0.081 0-0.025 0.009-0.059 0.018-0.078 0.010-0.018 0.018-0.041 0.016-0.052-0.006-0.047 0.004-0.068 0.043-0.081 0.024-0.007 0.052-0.009 0.064-0.003 0.012 0.007 0.032 0.003 0.050-0.009 0.025-0.019 0.031-0.044 0.037-0.164l0.007-0.142 0.052-0.018c0.071-0.024 0.118-0.096 0.118-0.183 0-0.058 0.007-0.075 0.055-0.123 0.030-0.031 0.064-0.056 0.074-0.056 0.034 0 0.069-0.071 0.053-0.106-0.021-0.047 0.068-0.224 0.128-0.255 0.024-0.012 0.062-0.050 0.084-0.083 0.037-0.056 0.040-0.072 0.035-0.176-0.003-0.106-0.001-0.117 0.027-0.125 0.022-0.007 0.031-0.022 0.031-0.056 0-0.050 0.053-0.173 0.075-0.173 0.007 0 0.027-0.021 0.041-0.047 0.022-0.035 0.027-0.062 0.021-0.117-0.007-0.066-0.004-0.075 0.047-0.133l0.055-0.061-0.010-0.1c-0.009-0.083-0.006-0.109 0.019-0.157 0.016-0.032 0.043-0.071 0.061-0.086 0.019-0.018 0.031-0.046 0.031-0.077 0-0.027 0.007-0.066 0.016-0.090 0.009-0.022 0.015-0.095 0.015-0.158-0.001-0.090 0.003-0.123 0.022-0.143s0.022-0.043 0.015-0.1c-0.006-0.041-0.003-0.090 0.007-0.114 0.009-0.024 0.018-0.077 0.021-0.117 0.003-0.041 0.019-0.114 0.037-0.16 0.028-0.072 0.030-0.096 0.018-0.148-0.009-0.034-0.021-0.106-0.027-0.161l-0.010-0.098 0.049-0.025c0.041-0.021 0.046-0.030 0.037-0.064-0.013-0.055-0.009-0.22 0.009-0.264 0.010-0.028 0.016-0.193 0.015-0.411 0-0.078-0.024-0.182-0.049-0.216-0.022-0.030-0.027-0.050-0.019-0.093 0.007-0.038 0.018-0.053 0.031-0.047 0.027 0.010 0.027-0.021-0.001-0.123-0.012-0.047-0.018-0.106-0.012-0.145 0.007-0.056 0.004-0.068-0.024-0.087-0.037-0.027-0.040-0.090-0.010-0.217l0.021-0.086-0.052-0.061c-0.046-0.056-0.047-0.062-0.027-0.086 0.028-0.032 0.018-0.117-0.022-0.185-0.031-0.052-0.040-0.105-0.024-0.152 0.007-0.021 0.001-0.065-0.012-0.111-0.012-0.043-0.030-0.123-0.040-0.18-0.009-0.056-0.022-0.109-0.028-0.118-0.007-0.007-0.019-0.043-0.030-0.078-0.009-0.035-0.027-0.068-0.038-0.072s-0.021-0.027-0.021-0.055c0-0.025-0.016-0.099-0.037-0.164s-0.041-0.151-0.046-0.192c-0.004-0.040-0.027-0.103-0.047-0.14-0.075-0.134-0.092-0.177-0.084-0.211 0.007-0.025-0.006-0.049-0.050-0.096-0.059-0.062-0.075-0.109-0.046-0.129 0.027-0.016 0.016-0.061-0.030-0.123-0.028-0.040-0.056-0.062-0.078-0.063-0.028 0-0.030-0.003-0.009-0.016 0.019-0.013 0.016-0.030-0.034-0.129-0.031-0.061-0.056-0.126-0.056-0.143 0-0.032-0.117-0.154-0.148-0.154-0.018 0-0.103-0.173-0.103-0.21 0-0.013-0.018-0.040-0.040-0.059-0.053-0.046-0.093-0.121-0.093-0.173 0-0.044-0.056-0.126-0.128-0.186-0.030-0.024-0.052-0.058-0.058-0.089-0.006-0.034-0.027-0.063-0.059-0.089-0.028-0.022-0.047-0.044-0.043-0.052 0.013-0.022-0.084-0.152-0.128-0.168-0.022-0.009-0.041-0.024-0.041-0.035 0-0.028-0.052-0.123-0.087-0.161-0.018-0.018-0.031-0.038-0.031-0.044s-0.041-0.055-0.093-0.108c-0.050-0.053-0.123-0.131-0.161-0.174-0.038-0.041-0.080-0.077-0.093-0.077-0.012 0-0.022-0.006-0.022-0.015 0-0.007-0.044-0.056-0.098-0.106-0.053-0.052-0.106-0.112-0.118-0.134-0.016-0.031-0.031-0.041-0.052-0.035-0.024 0.006-0.031-0.001-0.038-0.037-0.006-0.030-0.022-0.049-0.047-0.059-0.083-0.032-0.105-0.047-0.105-0.066 0-0.030-0.291-0.335-0.334-0.348-0.032-0.012-0.074-0.044-0.165-0.133-0.019-0.018-0.053-0.043-0.077-0.055-0.044-0.024-0.146-0.133-0.174-0.188-0.012-0.022-0.041-0.037-0.095-0.049-0.090-0.019-0.204-0.081-0.204-0.111 0-0.025-0.034-0.044-0.103-0.058-0.080-0.015-0.291-0.157-0.31-0.21-0.016-0.041-0.074-0.049-0.103-0.013-0.027 0.031-0.049 0.028-0.086-0.015-0.018-0.021-0.047-0.037-0.066-0.037-0.022 0-0.043-0.013-0.055-0.035-0.018-0.035-0.093-0.071-0.188-0.090-0.025-0.004-0.055-0.019-0.065-0.031-0.025-0.031-0.095-0.065-0.128-0.065-0.016 0-0.046-0.022-0.066-0.049-0.030-0.038-0.055-0.053-0.118-0.068-0.044-0.009-0.095-0.031-0.111-0.047-0.024-0.021-0.049-0.028-0.095-0.025-0.053 0.004-0.065-0.001-0.077-0.028-0.019-0.043-0.069-0.063-0.131-0.053-0.034 0.004-0.066-0.001-0.1-0.019-0.030-0.016-0.081-0.028-0.125-0.028-0.059 0-0.084-0.009-0.123-0.040-0.050-0.043-0.089-0.050-0.134-0.027-0.019 0.010-0.031 0.009-0.044-0.007-0.010-0.012-0.025-0.022-0.034-0.022-0.007 0-0.047-0.019-0.087-0.044-0.084-0.052-0.115-0.055-0.152-0.015-0.055 0.061-0.171 0.018-0.204-0.078-0.013-0.037-0.050-0.047-0.093-0.025-0.031 0.018-0.040 0.016-0.069-0.012-0.031-0.030-0.046-0.031-0.188-0.025-0.086 0.003-0.173 0.010-0.195 0.016-0.028 0.006-0.056 0-0.095-0.025-0.052-0.031-0.068-0.032-0.374-0.034-0.213 0-0.34 0.006-0.382 0.018-0.044 0.013-0.084 0.015-0.14 0.004-0.049-0.009-0.133-0.009-0.232 0.001-0.258 0.024-0.353 0.028-0.569 0.028-0.232-0.001-0.362 0.016-0.43 0.059-0.034 0.021-0.068 0.027-0.133 0.024-0.074-0.003-0.095 0.003-0.136 0.034-0.050 0.037-0.14 0.046-0.233 0.024-0.032-0.009-0.037-0.006-0.030 0.018 0.006 0.018-0.006 0.041-0.035 0.069-0.043 0.041-0.047 0.043-0.111 0.025-0.092-0.025-0.098-0.024-0.171 0.027-0.052 0.035-0.081 0.044-0.143 0.044-0.056 0-0.090 0.009-0.117 0.030-0.024 0.019-0.050 0.025-0.075 0.021-0.022-0.004-0.059 0.001-0.084 0.015-0.024 0.013-0.050 0.024-0.059 0.024-0.007 0-0.047 0.016-0.087 0.037s-0.098 0.037-0.127 0.037c-0.050 0-0.108 0.018-0.266 0.084-0.055 0.022-0.121 0.093-0.139 0.146-0.010 0.032-0.105 0.098-0.213 0.146-0.053 0.022-0.072 0.025-0.108 0.012-0.040-0.015-0.044-0.013-0.065 0.024-0.010 0.022-0.062 0.065-0.115 0.096-0.052 0.031-0.145 0.105-0.205 0.164-0.103 0.1-0.117 0.109-0.191 0.118-0.078 0.010-0.083 0.013-0.198 0.142-0.095 0.105-0.129 0.133-0.17 0.139-0.106 0.018-0.118 0.024-0.143 0.063-0.038 0.058-0.149 0.168-0.226 0.222-0.118 0.083-0.189 0.157-0.219 0.224-0.032 0.075-0.136 0.177-0.18 0.177-0.019 0-0.037 0.015-0.047 0.041-0.030 0.066-0.137 0.165-0.182 0.165-0.038 0-0.040 0.003-0.031 0.053 0.009 0.047 0.004 0.058-0.049 0.111-0.047 0.049-0.065 0.058-0.096 0.049-0.043-0.010-0.044-0.007-0.025 0.041 0.012 0.031 0.006 0.040-0.037 0.069-0.034 0.024-0.053 0.050-0.059 0.084-0.006 0.032-0.025 0.063-0.053 0.084-0.024 0.018-0.084 0.069-0.131 0.112-0.071 0.065-0.087 0.089-0.084 0.118 0.004 0.040-0.010 0.044-0.069 0.024-0.021-0.007-0.024-0.006-0.009 0.004 0.025 0.018-0.006 0.083-0.035 0.071-0.025-0.009-0.037 0.022-0.037 0.096 0 0.052-0.006 0.059-0.059 0.087-0.032 0.016-0.059 0.035-0.059 0.041s-0.018 0.032-0.040 0.058c-0.062 0.071-0.108 0.151-0.092 0.159 0.027 0.018 0.010 0.061-0.046 0.124-0.049 0.053-0.062 0.061-0.081 0.046-0.015-0.013-0.022-0.013-0.022-0.001 0 0.009-0.007 0.016-0.015 0.016-0.028 0-0.089 0.077-0.089 0.112 0 0.040-0.030 0.109-0.046 0.109-0.006 0-0.016 0.022-0.021 0.049-0.006 0.025-0.015 0.050-0.021 0.055-0.021 0.016-0.046 0.075-0.046 0.106 0 0.019-0.006 0.041-0.012 0.049-0.015 0.022-0.072 0.052-0.099 0.052-0.031 0-0.028 0.025 0.007 0.044 0.038 0.021 0.038 0.077 0 0.111-0.016 0.015-0.030 0.037-0.030 0.049 0 0.010-0.012 0.038-0.028 0.059-0.015 0.022-0.032 0.062-0.038 0.089s-0.028 0.062-0.052 0.080c-0.062 0.046-0.083 0.105-0.053 0.148 0.013 0.018 0.024 0.053 0.024 0.078 0 0.047-0.049 0.14-0.074 0.14-0.009 0-0.027 0.024-0.040 0.052-0.015 0.031-0.034 0.050-0.047 0.049-0.018-0.003-0.025 0.013-0.031 0.074-0.004 0.044-0.003 0.083 0.004 0.087s0.006 0.015-0.001 0.024c-0.007 0.010-0.019 0.044-0.024 0.077-0.006 0.032-0.021 0.074-0.032 0.093-0.016 0.024-0.019 0.053-0.012 0.099 0.007 0.053 0.004 0.068-0.013 0.075-0.018 0.006-0.022 0.021-0.015 0.050 0.006 0.035 0.001 0.046-0.038 0.065-0.025 0.013-0.049 0.038-0.052 0.058-0.003 0.018-0.015 0.075-0.025 0.129s-0.016 0.13-0.016 0.171c0.003 0.058-0.004 0.086-0.028 0.115-0.031 0.040-0.031 0.043-0.007 0.092 0.031 0.066 0.030 0.090-0.006 0.102-0.058 0.018-0.074 0.050-0.074 0.145 0 0.050 0.007 0.115 0.016 0.143s0.019 0.155 0.021 0.281c0.003 0.126 0.012 0.253 0.021 0.281 0.016 0.053-0.001 0.195-0.032 0.263-0.013 0.028-0.012 0.044 0.009 0.080 0.018 0.030 0.022 0.061 0.016 0.098-0.004 0.030 0 0.105 0.009 0.165 0.044 0.276 0.040 0.369-0.018 0.369-0.015 0-0.027 0.007-0.027 0.015 0 0.009 0.009 0.015 0.019 0.015 0.012 0 0.032 0.013 0.047 0.030 0.025 0.028 0.025 0.032-0.021 0.118-0.049 0.090-0.050 0.137-0.009 0.154 0.013 0.004 0.028-0.004 0.037-0.021 0.018-0.032 0.059-0.040 0.059-0.010 0 0.010-0.010 0.032-0.022 0.049-0.030 0.040-0.027 0.084 0.007 0.128 0.032 0.040 0.038 0.077 0.015 0.092-0.018 0.010-0.019 0.081-0.003 0.106 0.006 0.009 0.030 0.022 0.052 0.027 0.027 0.007 0.040 0.021 0.040 0.040 0 0.025-0.007 0.030-0.044 0.024-0.044-0.007-0.050 0-0.044 0.055 0.004 0.038 0.084 0.188 0.114 0.21 0.016 0.012 0.019 0.030 0.013 0.056-0.007 0.027-0.001 0.052 0.018 0.078 0.030 0.041 0.052 0.193 0.053 0.375 0.001 0.078 0.007 0.105 0.032 0.133 0.018 0.018 0.041 0.055 0.055 0.078 0.012 0.025 0.040 0.064 0.062 0.087 0.035 0.038 0.038 0.052 0.035 0.143-0.004 0.090-0.001 0.105 0.031 0.139 0.021 0.022 0.035 0.052 0.032 0.068-0.003 0.015 0.004 0.041 0.016 0.059 0.016 0.022 0.018 0.040 0.006 0.071-0.013 0.034-0.009 0.049 0.024 0.099 0.022 0.031 0.040 0.065 0.040 0.075s0.009 0.019 0.019 0.019c0.021 0 0.077 0.089 0.129 0.201 0.021 0.044 0.055 0.087 0.084 0.106 0.047 0.032 0.049 0.035 0.049 0.136 0 0.098 0.003 0.105 0.038 0.121 0.022 0.010 0.040 0.034 0.046 0.059 0.004 0.025 0.030 0.059 0.061 0.083 0.032 0.025 0.066 0.074 0.093 0.131 0.022 0.050 0.055 0.1 0.071 0.111 0.018 0.010 0.031 0.031 0.031 0.044 0 0.015 0.009 0.027 0.019 0.027 0.031 0 0.103 0.12 0.084 0.139-0.021 0.021-0.019 0.072 0.003 0.095 0.010 0.010 0.038 0.018 0.063 0.018 0.065 0 0.084 0.018 0.078 0.075-0.003 0.040 0.001 0.053 0.027 0.064 0.016 0.007 0.047 0.052 0.068 0.098 0.028 0.066 0.056 0.098 0.12 0.146 0.046 0.034 0.092 0.075 0.1 0.095 0.018 0.031 0.123 0.161 0.183 0.226 0.016 0.018 0.050 0.061 0.074 0.095 0.025 0.034 0.093 0.102 0.152 0.151 0.063 0.052 0.115 0.108 0.129 0.137 0.021 0.052 0.103 0.137 0.244 0.258 0.043 0.037 0.102 0.087 0.13 0.114s0.055 0.049 0.061 0.052c0.004 0.003 0.019 0.025 0.031 0.049 0.018 0.034 0.035 0.046 0.075 0.052 0.043 0.006 0.069 0.027 0.145 0.115 0.052 0.061 0.115 0.121 0.14 0.136s0.066 0.049 0.093 0.075c0.038 0.040 0.050 0.046 0.069 0.030s0.027-0.013 0.052 0.012c0.018 0.018 0.031 0.040 0.031 0.050 0 0.021 0.027 0.037 0.115 0.071 0.030 0.010 0.065 0.041 0.086 0.075 0.038 0.061 0.155 0.145 0.202 0.145 0.046 0 0.078 0.025 0.136 0.103 0.061 0.081 0.126 0.118 0.208 0.115 0.041-0.001 0.061 0.007 0.095 0.044 0.028 0.032 0.056 0.047 0.084 0.047 0.030 0 0.046 0.010 0.056 0.032 0.009 0.019 0.032 0.037 0.059 0.041 0.025 0.006 0.059 0.018 0.077 0.027 0.018 0.010 0.049 0.018 0.068 0.018 0.021 0 0.044 0.009 0.053 0.019 0.009 0.012 0.034 0.018 0.061 0.013 0.041-0.006 0.044-0.003 0.037 0.028s0.001 0.040 0.077 0.077c0.058 0.027 0.108 0.040 0.152 0.038 0.089-0.001 0.137 0.019 0.226 0.099 0.052 0.046 0.083 0.065 0.102 0.059 0.015-0.004 0.040-0.013 0.056-0.018 0.021-0.007 0.044 0.007 0.087 0.050 0.032 0.032 0.072 0.064 0.090 0.069 0.016 0.004 0.030 0.015 0.030 0.021 0 0.007 0.055 0.012 0.123 0.010 0.066-0.001 0.146 0.006 0.179 0.016 0.031 0.010 0.072 0.019 0.090 0.019s0.041 0.010 0.052 0.022c0.012 0.013 0.043 0.022 0.083 0.022 0.055 0 0.068 0.007 0.102 0.052l0.040 0.050h0.176c0.098 0 0.183 0.004 0.189 0.009 0.007 0.003 0.030-0.006 0.050-0.022 0.047-0.037 0.053-0.037 0.069 0.006 0.012 0.032 0.022 0.037 0.121 0.041 0.059 0.003 0.164 0 0.233-0.007 0.263-0.025 0.315-0.025 0.375 0.006 0.052 0.027 0.066 0.028 0.199 0.012 0.213-0.025 0.363-0.022 0.394 0.009 0.018 0.016 0.037 0.022 0.064 0.015 0.021-0.004 0.099-0.016 0.171-0.024zM6.997 19.541c-0.003-0.009-0.012-0.015-0.019-0.015s-0.016 0.006-0.019 0.015c-0.003 0.009 0.006 0.016 0.019 0.016s0.022-0.007 0.019-0.016zM25.902 16.935c0-0.012-0.006-0.021-0.015-0.021-0.007 0-0.015 0.013-0.015 0.031 0 0.016 0.007 0.025 0.015 0.021 0.009-0.004 0.015-0.019 0.015-0.031zM7.399 11.93c0-0.019-0.006-0.021-0.030-0.007-0.016 0.009-0.030 0.019-0.030 0.022s0.013 0.007 0.030 0.007 0.030-0.010 0.030-0.022z"></path>
<path fill="#fff" d="M16.643 22.075c-0.034-0.035-0.041-0.037-0.142-0.028-0.105 0.009-0.108 0.009-0.099-0.022 0.010-0.040-0.015-0.040-0.115-0.001-0.099 0.037-0.276 0.028-0.397-0.021-0.063-0.027-0.092-0.031-0.131-0.019-0.032 0.007-0.063 0.007-0.086-0.003-0.050-0.024-0.579-0.018-0.66 0.006-0.035 0.010-0.068 0.016-0.072 0.012-0.006-0.006-0.032-0.009-0.145-0.018-0.004-0.001-0.016-0.018-0.025-0.038s-0.027-0.037-0.038-0.037c-0.012 0-0.059-0.019-0.105-0.044-0.046-0.024-0.102-0.044-0.123-0.044-0.024 0-0.050-0.015-0.069-0.037s-0.058-0.043-0.103-0.053c-0.077-0.018-0.090-0.022-0.201-0.071-0.077-0.034-0.083-0.040-0.139-0.143l-0.040-0.077 0.032-0.044c0.044-0.059 0.037-0.127-0.015-0.133-0.102-0.012-0.096 0.003-0.099-0.211-0.003-0.146-0.009-0.202-0.027-0.229-0.012-0.019-0.022-0.053-0.022-0.077s-0.015-0.059-0.037-0.083c-0.021-0.022-0.037-0.050-0.037-0.062s-0.016-0.046-0.035-0.077c-0.021-0.030-0.041-0.072-0.046-0.096-0.006-0.022-0.016-0.044-0.024-0.049s-0.013-0.019-0.013-0.034c0-0.015-0.010-0.035-0.022-0.046s-0.022-0.030-0.022-0.044c0-0.015-0.018-0.037-0.038-0.052-0.022-0.013-0.059-0.047-0.083-0.075s-0.052-0.050-0.062-0.050c-0.021 0-0.068-0.053-0.068-0.078-0.001-0.035-0.040-0.068-0.12-0.098-0.044-0.018-0.098-0.031-0.118-0.031-0.022 0-0.047-0.010-0.058-0.022s-0.043-0.022-0.072-0.022c-0.031 0-0.083-0.013-0.115-0.030s-0.089-0.034-0.124-0.038c-0.068-0.010-0.146-0.046-0.235-0.105-0.028-0.019-0.066-0.034-0.084-0.034s-0.050-0.021-0.074-0.049c-0.022-0.027-0.065-0.064-0.093-0.083s-0.069-0.062-0.090-0.098c-0.032-0.050-0.050-0.065-0.106-0.080-0.050-0.012-0.074-0.028-0.090-0.058-0.012-0.022-0.035-0.053-0.053-0.069-0.019-0.018-0.030-0.043-0.027-0.066 0.003-0.035-0.031-0.133-0.047-0.133-0.004 0-0.027-0.015-0.049-0.034-0.043-0.032-0.061-0.084-0.077-0.222-0.004-0.031-0.013-0.068-0.022-0.084-0.007-0.015-0.015-0.052-0.015-0.083 0-0.069-0.040-0.279-0.066-0.346-0.010-0.028-0.028-0.089-0.037-0.133-0.024-0.105-0.047-0.143-0.112-0.17-0.047-0.019-0.052-0.027-0.047-0.074 0.003-0.044-0.006-0.065-0.055-0.12-0.031-0.037-0.081-0.080-0.112-0.095-0.056-0.030-0.062-0.043-0.081-0.17-0.010-0.071-0.069-0.185-0.096-0.185-0.021 0-0.016-0.071 0.004-0.077 0.013-0.004 0.013-0.016-0.004-0.043-0.032-0.049-0.062-0.183-0.053-0.233 0.006-0.025 0-0.053-0.012-0.069s-0.022-0.041-0.022-0.058c0-0.018-0.007-0.038-0.018-0.049-0.024-0.024-0.046-0.238-0.049-0.483-0.003-0.114-0.009-0.226-0.015-0.25-0.007-0.028-0.003-0.071 0.013-0.123 0.015-0.044 0.022-0.084 0.018-0.089s0.001-0.027 0.013-0.050c0.012-0.022 0.022-0.063 0.022-0.089 0-0.035 0.016-0.068 0.059-0.118 0.032-0.038 0.059-0.086 0.059-0.105s0.013-0.053 0.030-0.078c0.049-0.074 0.055-0.086 0.102-0.18l0.046-0.093v-0.261c-0.001-0.272 0.003-0.315 0.038-0.315 0.031 0 0.025-0.027-0.007-0.037-0.040-0.012-0.044-0.032-0.028-0.148 0.007-0.058 0.016-0.143 0.018-0.192s0.009-0.105 0.018-0.126c0.009-0.024 0.012-0.115 0.004-0.251-0.010-0.229-0.009-0.23 0.069-0.338 0.032-0.047 0.035-0.059 0.027-0.164-0.007-0.089-0.004-0.123 0.015-0.159 0.019-0.038 0.024-0.078 0.018-0.21-0.007-0.161-0.006-0.164 0.028-0.177 0.032-0.012 0.032-0.018 0.021-0.075-0.010-0.041-0.009-0.077 0-0.1 0.019-0.049 0.027-0.145 0.012-0.158-0.024-0.025-0.007-0.093 0.043-0.168 0.071-0.106 0.112-0.189 0.124-0.244 0.006-0.032 0.025-0.053 0.066-0.075 0.040-0.019 0.063-0.044 0.072-0.074 0.019-0.068 0.145-0.316 0.158-0.316 0.007 0 0.013-0.010 0.013-0.022s0.013-0.022 0.030-0.022c0.031 0 0.059-0.040 0.059-0.087 0-0.021 0.009-0.031 0.030-0.031 0.015 0 0.040-0.018 0.055-0.040 0.035-0.052 0.149-0.162 0.201-0.193 0.022-0.013 0.043-0.035 0.047-0.049 0.004-0.012 0.025-0.032 0.044-0.043 0.021-0.010 0.037-0.025 0.037-0.032 0-0.024 0.056-0.074 0.072-0.063 0.019 0.012 0.1-0.072 0.126-0.13 0.016-0.037 0.021-0.038 0.038-0.019 0.025 0.032 0.069 0.030 0.081-0.004 0.004-0.015 0.019-0.038 0.034-0.050 0.024-0.022 0.031-0.022 0.069-0.001 0.038 0.019 0.044 0.019 0.078-0.012 0.019-0.019 0.065-0.075 0.102-0.126l0.066-0.093h0.1c0.1 0 0.102 0 0.149-0.058 0.052-0.065 0.105-0.084 0.168-0.061 0.034 0.013 0.047 0.010 0.072-0.012 0.018-0.015 0.047-0.035 0.068-0.044s0.047-0.024 0.059-0.032 0.047-0.025 0.078-0.038c0.032-0.012 0.068-0.041 0.081-0.065 0.030-0.052 0.053-0.059 0.191-0.059h0.106l0.046-0.066c0.049-0.071 0.050-0.072 0.14-0.068 0.043 0.003 0.072-0.006 0.1-0.030 0.035-0.027 0.053-0.030 0.118-0.022 0.186 0.025 0.205 0.027 0.25 0.007 0.027-0.010 0.071-0.018 0.1-0.015 0.028 0.001 0.099-0.013 0.155-0.032 0.155-0.055 0.257-0.075 0.347-0.071 0.050 0.001 0.092-0.004 0.109-0.018 0.019-0.013 0.047-0.016 0.095-0.010 0.081 0.013 0.229-0.003 0.257-0.027 0.015-0.012 0.063-0.013 0.155-0.009 0.090 0.006 0.145 0.003 0.167-0.009 0.041-0.022 0.312-0.022 0.325 0 0.006 0.009 0.046 0.016 0.090 0.016 0.168-0.001 0.453 0.025 0.542 0.050 0.077 0.021 0.1 0.022 0.136 0.007 0.032-0.013 0.055-0.015 0.086-0.003 0.022 0.009 0.080 0.024 0.127 0.032 0.049 0.007 0.099 0.025 0.112 0.037 0.032 0.030 0.176 0.066 0.255 0.066 0.035 0 0.075 0.009 0.092 0.021 0.016 0.010 0.066 0.024 0.111 0.028 0.167 0.019 0.241 0.035 0.257 0.058 0.019 0.027 0.183 0.095 0.264 0.109 0.035 0.006 0.061 0.021 0.071 0.041 0.030 0.058 0.155 0.164 0.189 0.159 0.018-0.003 0.047 0.007 0.068 0.024s0.061 0.034 0.089 0.038c0.030 0.006 0.056 0.019 0.061 0.031 0.004 0.010 0.034 0.037 0.066 0.059s0.066 0.055 0.075 0.074 0.031 0.038 0.050 0.043c0.019 0.006 0.035 0.016 0.035 0.027 0 0.009 0.013 0.004 0.030-0.010 0.027-0.025 0.031-0.025 0.066-0.001 0.021 0.013 0.037 0.032 0.037 0.043 0 0.009 0.034 0.041 0.075 0.069s0.090 0.065 0.106 0.083c0.050 0.049 0.22 0.23 0.275 0.294 0.044 0.053 0.050 0.056 0.068 0.032 0.021-0.030 0.037-0.032 0.037-0.006 0 0.009 0.018 0.028 0.041 0.041 0.044 0.025 0.072 0.093 0.090 0.213 0.019 0.136 0.095 0.229 0.185 0.229 0.040 0 0.052 0.009 0.074 0.053 0.013 0.031 0.041 0.068 0.062 0.083 0.028 0.024 0.035 0.041 0.035 0.1 0 0.062 0.007 0.080 0.053 0.129 0.064 0.066 0.115 0.171 0.102 0.21-0.004 0.018 0.004 0.043 0.027 0.069 0.046 0.055 0.084 0.13 0.084 0.164 0 0.016 0.027 0.055 0.061 0.086 0.058 0.058 0.12 0.168 0.118 0.214 0 0.012-0.004 0.061-0.009 0.106-0.007 0.078-0.004 0.086 0.035 0.118l0.043 0.034-0.013 0.325c-0.007 0.179-0.009 0.335-0.004 0.347 0.006 0.012 0.012 0.124 0.015 0.25 0.003 0.211 0.006 0.23 0.038 0.273 0.027 0.037 0.035 0.069 0.038 0.161 0.004 0.074 0 0.114-0.010 0.114-0.021 0-0.009 0.117 0.019 0.183 0.012 0.028 0.018 0.055 0.013 0.058-0.003 0.004-0.009 0.083-0.013 0.174-0.006 0.149-0.003 0.173 0.027 0.233 0.018 0.038 0.035 0.106 0.038 0.157 0.003 0.049 0.012 0.096 0.019 0.105s0.009 0.028 0.004 0.043c-0.007 0.018 0.006 0.040 0.046 0.077 0.083 0.075 0.125 0.146 0.136 0.222 0.009 0.063 0.021 0.081 0.084 0.134 0.016 0.013 0.024 0.044 0.024 0.099 0 0.043 0.007 0.097 0.016 0.121 0.021 0.055 0.027 0.298 0.009 0.341-0.009 0.018-0.027 0.032-0.043 0.032s-0.027 0.004-0.028 0.012c0 0.006-0.003 0.058-0.004 0.114-0.001 0.058-0.019 0.168-0.037 0.248-0.028 0.117-0.040 0.143-0.062 0.143-0.015 0-0.031-0.007-0.037-0.016-0.006-0.010-0.024 0.004-0.044 0.038-0.027 0.046-0.030 0.062-0.018 0.090 0.034 0.074-0.032 0.245-0.096 0.251-0.010 0-0.028 0.003-0.040 0.003-0.013 0.001-0.034 0.021-0.046 0.041-0.021 0.034-0.022 0.047-0.004 0.106 0.032 0.106 0.016 0.152-0.083 0.233-0.052 0.043-0.089 0.086-0.093 0.109-0.004 0.021-0.015 0.062-0.024 0.093-0.038 0.131-0.044 0.165-0.031 0.179 0.022 0.022 0.018 0.030-0.034 0.058-0.028 0.015-0.069 0.056-0.092 0.093-0.022 0.035-0.050 0.072-0.061 0.081-0.012 0.009-0.021 0.038-0.021 0.065s-0.010 0.072-0.022 0.102c-0.016 0.038-0.021 0.077-0.013 0.128 0.007 0.055 0.004 0.078-0.009 0.087-0.012 0.007-0.021 0.043-0.022 0.084-0.001 0.056-0.013 0.089-0.056 0.152-0.031 0.044-0.059 0.098-0.065 0.115-0.006 0.024-0.030 0.044-0.072 0.064-0.061 0.025-0.065 0.031-0.065 0.086 0 0.032-0.007 0.075-0.016 0.096-0.016 0.034-0.024 0.037-0.078 0.030-0.052-0.007-0.065-0.003-0.096 0.030-0.021 0.021-0.044 0.038-0.053 0.038-0.010 0-0.032 0.013-0.052 0.030-0.021 0.018-0.055 0.030-0.090 0.030-0.062 0-0.165 0.047-0.195 0.089-0.035 0.049-0.080 0.062-0.127 0.037-0.055-0.027-0.192-0.030-0.199-0.003-0.004 0.009-0.010 0.035-0.015 0.059-0.009 0.037-0.015 0.040-0.084 0.040-0.044 0-0.096 0.012-0.131 0.030-0.032 0.016-0.066 0.030-0.078 0.030-0.022 0-0.143 0.109-0.143 0.131 0 0.007-0.018 0.016-0.040 0.019-0.035 0.004-0.046 0.018-0.080 0.115-0.022 0.061-0.041 0.123-0.041 0.139-0.001 0.015-0.041 0.072-0.090 0.13-0.049 0.056-0.089 0.115-0.089 0.13s-0.013 0.056-0.031 0.089c-0.028 0.052-0.030 0.069-0.016 0.143 0.009 0.055 0.009 0.096 0 0.112-0.007 0.015-0.012 0.081-0.010 0.149s-0.001 0.131-0.007 0.14c-0.006 0.009-0.003 0.016 0.004 0.016 0.022 0 0.021 0.142-0.001 0.182-0.016 0.031-0.037 0.151-0.046 0.281-0.003 0.037-0.016 0.068-0.046 0.096-0.022 0.022-0.055 0.064-0.072 0.092s-0.058 0.064-0.087 0.078c-0.030 0.015-0.081 0.053-0.114 0.084-0.047 0.046-0.072 0.059-0.112 0.059-0.035 0-0.052 0.007-0.052 0.021 0 0.061-0.089 0.086-0.173 0.050-0.049-0.021-0.047-0.021-0.338-0.035-0.219-0.010-0.223-0.010-0.254 0.024-0.022 0.024-0.041 0.031-0.069 0.027-0.021-0.004-0.083-0.001-0.137 0.006s-0.13 0.012-0.167 0.012c-0.044-0.001-0.078 0.009-0.103 0.027-0.062 0.049-0.093 0.052-0.131 0.010zM15.959 19.915c0.038-0.025 0.080-0.059 0.090-0.077 0.028-0.046 0.098-0.040 0.136 0.013 0.028 0.040 0.037 0.044 0.112 0.041 0.062-0.003 0.087 0.003 0.1 0.022 0.015 0.021 0.044 0.024 0.192 0.021 0.157-0.001 0.176-0.004 0.189-0.031 0.009-0.016 0.030-0.044 0.047-0.064 0.027-0.030 0.032-0.061 0.041-0.222 0.004-0.103 0.013-0.267 0.019-0.365l0.010-0.177-0.044-0.043c-0.025-0.022-0.041-0.052-0.037-0.062 0.010-0.030-0.032-0.090-0.083-0.117-0.041-0.021-0.059-0.066-0.069-0.17 0-0.012-0.003-0.030-0.004-0.040 0-0.009-0.016-0.019-0.034-0.022-0.030-0.004-0.035-0.015-0.041-0.093-0.006-0.055-0.022-0.109-0.043-0.143-0.018-0.031-0.031-0.064-0.027-0.074s-0.003-0.041-0.013-0.069c-0.012-0.027-0.021-0.065-0.021-0.083 0-0.027-0.013-0.038-0.053-0.052-0.030-0.010-0.059-0.032-0.068-0.052-0.021-0.047-0.053-0.058-0.095-0.030-0.025 0.016-0.075 0.024-0.177 0.024-0.12 0-0.151 0.006-0.208 0.037-0.037 0.019-0.084 0.035-0.105 0.035-0.019 0-0.068 0.024-0.105 0.052-0.083 0.059-0.115 0.136-0.098 0.224 0.016 0.086 0.013 0.127-0.015 0.146-0.016 0.012-0.024 0.035-0.022 0.068 0.001 0.027 0.003 0.080 0.001 0.12-0.001 0.058-0.006 0.069-0.030 0.069-0.038 0-0.047 0.034-0.043 0.171 0.004 0.103 0 0.123-0.031 0.164-0.032 0.043-0.034 0.056-0.028 0.177 0.004 0.078 0 0.185-0.013 0.266-0.012 0.074-0.019 0.167-0.016 0.205 0.004 0.066 0.007 0.071 0.056 0.084 0.028 0.007 0.059 0.019 0.068 0.027 0.037 0.031 0.192 0.065 0.288 0.064 0.086-0.001 0.111-0.009 0.171-0.047zM14.26 18.001c0.069-0.010 0.133-0.027 0.142-0.035 0.022-0.022 0.108-0.024 0.145-0.003 0.024 0.012 0.041 0.001 0.105-0.059 0.043-0.040 0.083-0.074 0.090-0.074 0.025 0 0.071-0.061 0.071-0.096 0-0.027 0.013-0.043 0.056-0.065 0.030-0.015 0.072-0.047 0.095-0.071 0.052-0.055 0.105-0.191 0.096-0.248-0.003-0.024-0.001-0.059 0.006-0.078s0.012-0.087 0.012-0.155c0-0.066 0.001-0.158 0.001-0.204 0.001-0.083 0-0.084-0.061-0.125-0.034-0.024-0.089-0.068-0.121-0.098-0.034-0.031-0.065-0.056-0.069-0.056-0.006 0-0.021-0.024-0.034-0.052-0.016-0.034-0.038-0.055-0.065-0.061-0.022-0.006-0.047-0.015-0.056-0.021-0.007-0.006-0.038-0.015-0.066-0.019-0.078-0.012-0.158-0.046-0.204-0.087-0.022-0.021-0.062-0.044-0.089-0.053s-0.069-0.034-0.095-0.055c-0.037-0.031-0.059-0.037-0.137-0.037-0.055 0-0.102-0.007-0.114-0.018-0.096-0.092-0.174-0.114-0.453-0.123l-0.155-0.006-0.066 0.061c-0.037 0.034-0.080 0.080-0.095 0.103s-0.041 0.041-0.059 0.041c-0.046 0-0.129 0.069-0.127 0.108 0 0.018-0.006 0.075-0.016 0.127-0.015 0.089-0.031 0.335-0.028 0.437 0.001 0.084 0.001 0.118-0.007 0.306l-0.007 0.188 0.043 0.047c0.025 0.025 0.044 0.061 0.044 0.078 0 0.041 0.059 0.099 0.108 0.103 0.021 0.003 0.059 0.022 0.084 0.044 0.025 0.021 0.052 0.038 0.059 0.038s0.019 0.019 0.027 0.043c0.024 0.068 0.199 0.143 0.294 0.125 0.027-0.004 0.075 0 0.111 0.013 0.096 0.034 0.238 0.056 0.288 0.046 0.027-0.006 0.049-0.001 0.056 0.007 0.006 0.010 0.024 0.013 0.040 0.007 0.016-0.004 0.086-0.016 0.154-0.027zM18.371 17.967c0.136 0.006 0.371 0 0.45-0.013 0.049-0.007 0.118-0.010 0.154-0.004 0.105 0.013 0.202-0.044 0.378-0.226l0.148-0.152 0.001-0.222c0.001-0.124 0.009-0.239 0.018-0.263 0.010-0.022 0.022-0.103 0.027-0.18 0.010-0.146-0.015-0.279-0.061-0.317-0.012-0.009-0.025-0.049-0.031-0.086-0.006-0.038-0.018-0.084-0.027-0.1-0.022-0.043-0.108-0.139-0.124-0.139-0.007 0-0.028-0.018-0.049-0.038-0.019-0.021-0.078-0.059-0.131-0.084-0.096-0.047-0.096-0.047-0.266-0.037-0.093 0.004-0.18 0.003-0.193-0.003-0.012-0.007-0.065-0.013-0.115-0.012-0.071 0.001-0.095 0.007-0.102 0.025-0.012 0.034-0.034 0.046-0.086 0.046-0.025 0-0.071 0.010-0.102 0.022-0.030 0.013-0.065 0.019-0.078 0.016-0.015-0.004-0.055-0.003-0.092 0.003-0.064 0.010-0.066 0.013-0.066 0.062 0 0.041-0.007 0.055-0.041 0.071-0.022 0.010-0.052 0.037-0.065 0.058-0.022 0.034-0.030 0.035-0.102 0.027-0.083-0.010-0.095-0.003-0.158 0.087-0.015 0.021-0.044 0.043-0.066 0.047-0.022 0.006-0.072 0.043-0.111 0.081-0.061 0.062-0.071 0.081-0.078 0.146-0.003 0.041-0.013 0.090-0.019 0.109-0.007 0.018-0.012 0.112-0.009 0.208 0.004 0.136 0.001 0.182-0.016 0.207-0.028 0.043-0.016 0.096 0.040 0.186 0.024 0.037 0.043 0.083 0.043 0.1 0 0.038 0.133 0.176 0.207 0.216 0.077 0.040 0.081 0.041 0.124 0.072 0.022 0.015 0.092 0.043 0.154 0.062 0.093 0.028 0.139 0.032 0.254 0.028 0.077-0.003 0.164-0.004 0.192-0.003z"></path>
<path fill="#fff" d="M16.735 18.993c-0.021-0.021-0.024-0.071-0.004-0.071 0.009 0 0.025 0.015 0.037 0.032 0.032 0.046 0.006 0.077-0.032 0.038z"></path>
<path fill="#fff" d="M8.61 17.627c0-0.007 0.007-0.022 0.015-0.034 0.012-0.018 0.015-0.016 0.015 0.012 0 0.018-0.006 0.032-0.015 0.032-0.007 0-0.015-0.004-0.015-0.010z"></path>
<path fill="#fff" d="M14.901 27.62c0-0.032 0.001-0.034 0.035-0.021 0.019 0.007 0.021 0.013 0.007 0.030-0.024 0.030-0.043 0.025-0.043-0.009z"></path>
<path fill="#fff" d="M31.967 18.795c-0.006-0.006-0.010-0.030-0.010-0.053 0-0.052 0.034-0.050 0.041 0.001 0.006 0.037-0.015 0.068-0.031 0.052z"></path>
<path fill="#fff" d="M30.064 17.413c0.013-0.013 0.022-0.013 0.035 0s0.010 0.018-0.018 0.018c-0.028 0-0.031-0.004-0.018-0.018z"></path>
<path fill="#fff" d="M28.295 14.87c0-0.012 0.007-0.027 0.015-0.031 0.009-0.004 0.015 0.004 0.015 0.021s-0.006 0.031-0.015 0.031c-0.007 0-0.015-0.009-0.015-0.021z"></path>
<path fill="#fff" d="M9.282 6.784c-0.004-0.007 0.004-0.015 0.021-0.015s0.031 0.007 0.031 0.015c0 0.009-0.009 0.015-0.021 0.015s-0.027-0.006-0.031-0.015z"></path>
<path fill="#fff" d="M18.804 0.603c-0.013-0.028-0.035-0.055-0.049-0.059-0.038-0.012-0.086-0.114-0.072-0.152 0.015-0.038 0.034-0.041 0.061-0.009 0.066 0.081 0.071 0.084 0.1 0.058 0.018-0.016 0.030-0.019 0.037-0.009 0.004 0.009 0.022 0.024 0.038 0.031 0.025 0.015 0.031 0.010 0.044-0.028 0.016-0.046 0.052-0.059 0.081-0.032 0.007 0.007 0.038 0.021 0.069 0.031 0.044 0.013 0.055 0.024 0.055 0.053 0 0.037-0.003 0.037-0.099 0.034l-0.099-0.003-0.010 0.046c-0.013 0.065-0.038 0.092-0.089 0.092-0.035 0-0.049-0.010-0.068-0.052z"></path>
<path fill="#fff" d="M18.801 0.296c-0.015-0.019-0.015-0.028 0.009-0.050 0.066-0.068 0.077-0.071 0.115-0.034 0.043 0.040 0.047 0.086 0.012 0.099-0.016 0.006-0.031-0.001-0.046-0.022l-0.021-0.032-0.025 0.031c-0.022 0.028-0.027 0.028-0.044 0.009z"></path>
</svg>
