<!-- Generated by IcoMoon.io -->
<svg version="1.1" xmlns="http://www.w3.org/2000/svg" width="32" height="32" viewBox="0 0 32 32">
<title>misc-active</title>
<path fill="#fff" d="M23.662 9.747c0.958-0.32 0.959-1.381 0.030-1.587-0.803-0.178-2.226 0.17-2.961 0.552-0.859 0.447-1.367 1.283-2.063 1.922-0.244 0.225-0.886 1.319-1.147 1.28 0.031 0.073 0.068 0.143 0.113 0.208 0.028 0.053-0.554-0.041-0.276 0.51-0.329-0.167-0.417-0.169-0.246 0.138-1.181 0-0.476 2.266-1.706 0.452-0.667-0.984-0.962-1.898-1.449-2.957-0.239-0.519-0.559-1.222-0.757-1.633-0.094-0.195 0.174-0.106 0.034-0.339-0.028-0.047-0.48-0.343-0.557-0.367-0.554-0.17-1.435 0.102-2.017 0.234-0.434 0.099-2.16 0.54-1.932 0.709-0.281-0.065-1.017 0.236-0.964 0.732 0.166-0.117 0.103-0.216 0.329-0.032 0-0.417 0.454 0.2-0.223 0.136 0.197 0.282 0.453 0.204 0.753 0.39 0.659 0.408-0.011 0.2 0.753 0.607 0.222 0.118 0.799 0.472 0.829 0.471 0.060-0.001-0.393-0.095-0.257-0.003 0.153 0.104 0.725 0.423 0.233 0.195 0.208 0.119 0.256 0.028 0.414 0.105 0.426 0.208 0.967 1.328 1.257 1.683 0.237 0.29 0.93 0.693 1.151 1.219 0.021 0-0.305-0.15-0.268-0.027 0.097 0.318 0.978 0.668 1.158 1.083 0.281 0.646-0.334 1.064-0.977 1.705-0.485 0.484-0.783 0.746-1.456 1.464-0.113 0.121-0.449 0.903-0.777 0.817 0.127 0.299-0.393 0.921-0.637 0.829 0.049 0.49-0.441 0.648-0.605 0.885-0.353 0.512-0.836 1.559-1.204 2.235 0.392 0 0.297 0.757 0.674 0.863 0.262 0.073 0.077-0.133 0.258-0.17 0.564-0.116 0.85-1.044 1.502-1.040-0.402-0.632 1.045-1.202 1.123-1.481-0.016-0.077-0.066-0.125-0.151-0.144 0.68-0.189 1.425-1.437 1.894-1.99 0.479-0.564 2.208-1.708 1.976-2.186 0.443-0.244 1.838 2.149 2.17 2.535 0.475 0.552 0.573 0.907 0.883 1.459 0.079 0.142 0.781 1.035 0.781 0.976 0.214 0.44 0.489 0.904 0.753 1.278 0.096 0.136 0.754 0.824 0.73 0.964 0.088-0.084 0.274-0.517 0.367-0.547 0.219-0.071 0.263 0.043 0.442-0.136 0.008 0.182 1.527 1.78 1.705 1.372 0.026-0.060-0.356-1.099-0.335-0.757-0.012-0.203 0.292-0.472 0.262-0.595-0.128-0.522-0.498-0.795-0.808-1.215-0.337-0.456-1.618-1.786-1.502-2.264-0.246 0.087-0.884-0.868-1.081-1.151-0.197-0.282-0.721-1.013-0.492-1.047-0.52-0.404-1.833-1.915-1.681-2.55-0.163 0.115-0.297 0.095-0.403-0.061 0.362 0.291 0.251-0.448 0.4-0.073 0.18-0.243 0.163-0.449 0.447-0.735 0.194-0.196 0.321-0.254 0.513-0.431 0.369-0.34 0.912-0.848 1.512-1.291 0.688-0.509 1.366-1.194 2.041-1.808 0.307-0.279 1.474-1.339 1.445-1.391zM19.235 17.571c0.093 0.149-0.272-0.316-0.214-0.197 0.016 0.152 0.087 0.218 0.214 0.197zM21.389 20.743c-0.061-0.077-0.117-0.073-0.168 0.012 0.048 0.080 0.104 0.077 0.168-0.012zM23.346 25.308c-0.070-0.066-0.129-0.064-0.178 0.007 0.059 0.065 0.118 0.063 0.178-0.007zM20.003 23.449c-0.185-0.141-0.181 0.111 0 0z"></path>
<path fill="#fff" d="M1.661 21.789c-0.025-0.207-0.038-0.417-0.082-0.62-0.019-0.087-0.086-0.197-0.161-0.233-0.489-0.233-0.464-0.506-0.393-0.981 0.024-0.165-0.061-0.346-0.093-0.521-0.004-0.021 0.005-0.061 0.019-0.067 0.076-0.034 0.162-0.050 0.231-0.094 0.054-0.035 0.104-0.099 0.122-0.159 0.008-0.026-0.062-0.1-0.107-0.112-0.128-0.035-0.118-0.28-0.313-0.2 0.001-0.054 0.004-0.107 0.001-0.16-0.003-0.056-0.013-0.111-0.020-0.167-0.006-0.049-0.036-0.112-0.016-0.144 0.067-0.104 0.157-0.194 0.228-0.295 0.024-0.034 0.021-0.089 0.030-0.134-0.028 0.011-0.055 0.026-0.083 0.032-0.026 0.006-0.063 0.014-0.081 0.001-0.086-0.057-0.161-0.135-0.253-0.179-0.182-0.087-0.279-0.207-0.227-0.416 0.005-0.018 0.006-0.051 0.013-0.053 0.274-0.052 0.059-0.147 0.022-0.229-0.075-0.168 0.056-0.43 0.224-0.464 0.031-0.006 0.078-0.047 0.078-0.072-0.001-0.187 0.071-0.374-0.125-0.543-0.099-0.084-0.13-0.29-0.127-0.439 0.004-0.213 0.083-0.423 0.103-0.637 0.021-0.23 0.012-0.462 0.015-0.693 0-0.019-0.015-0.041-0.010-0.057 0.061-0.193 0.034-0.306-0.203-0.349-0.068-0.013-0.16-0.232-0.139-0.335 0.076-0.369 0.116-0.785 0.32-1.078 0.242-0.347 0.281-0.697 0.344-1.079 0.092-0.561 0.272-1.101 0.653-1.549 0.031-0.036 0.066-0.086 0.066-0.129-0.008-0.387 0.22-0.671 0.395-0.986 0.203-0.365 0.333-0.771 0.547-1.128 0.204-0.34 0.472-0.642 0.717-0.957 0.291-0.373 0.579-0.75 0.883-1.112 0.25-0.298 0.471-0.671 0.794-0.848 0.594-0.325 0.898-0.927 1.421-1.301 0.217-0.155 0.475-0.253 0.715-0.373 0.333-0.166 0.673-0.321 1.001-0.497 0.296-0.158 0.593-0.201 0.916-0.103 0.050 0.015 0.134-0.018 0.179-0.057 0.116-0.101 0.228-0.21 0.325-0.329 0.286-0.352 0.648-0.556 1.090-0.669 0.315-0.081 0.598-0.274 0.908-0.38 0.573-0.195 1.1-0.515 1.725-0.572 0.519-0.047 1.029-0.182 1.548-0.237 0.293-0.031 0.596 0.047 0.893 0.033 0.392-0.018 0.782-0.104 1.174-0.114 0.511-0.014 1.023 0.013 1.534 0.030 0.673 0.022 1.3 0.241 1.92 0.476 0.363 0.137 0.716 0.299 1.072 0.455 0.456 0.199 0.8 0.537 1.156 0.876 0.251 0.239 0.605 0.37 0.912 0.551 0.041 0.025 0.105 0.054 0.111 0.089 0.033 0.203 0.145 0.27 0.338 0.226 0.005-0.001 0.013-0.005 0.014-0.003 0.135 0.207 0.281 0.027 0.423 0.017 0.040-0.003 0.088 0.025 0.123 0.051 0.215 0.155 0.408 0.33 0.508 0.587 0.008 0.021 0.032 0.035 0.050 0.052 0.024 0.022 0.163-0.011 0.038 0.084-0.009 0.007 0.014 0.090 0.040 0.107 0.11 0.066 0.227 0.119 0.342 0.176 0.004 0.002 0.010 0.001 0.015 0.002-0.072 0.322 0.313 0.288 0.392 0.499 0.020 0.052 0.111 0.074 0.164 0.117 0.072 0.059 0.141 0.122 0.209 0.186 0.024 0.022 0.036 0.068 0.062 0.075 0.532 0.15 0.8 0.627 1.173 0.968 0.22 0.201 0.365 0.483 0.554 0.719 0.038 0.047 0.133 0.043 0.192 0.079 0.104 0.064 0.206 0.132 0.297 0.212 0.324 0.29 0.319 0.679 0.317 1.071-0.002 0.318 0.264 0.551 0.584 0.505 0.068-0.010 0.119-0.145 0.174-0.225 0.039-0.057 0.071-0.118 0.107-0.178-0.004 0.076 0.005 0.154-0.013 0.226-0.033 0.127-0.083 0.249-0.124 0.374-0.011 0.032-0.012 0.067-0.017 0.101 0.043-0.012 0.086-0.024 0.13-0.037 0.090-0.026 0.179-0.061 0.271-0.072 0.023-0.003 0.087 0.083 0.078 0.11-0.091 0.28 0.060 0.492 0.208 0.687 0.509 0.671 0.847 1.4 0.89 2.257 0.009 0.17 0.152 0.33 0.206 0.503 0.051 0.165 0.246 0.329-0.009 0.523-0.070 0.054-0.024 0.286-0.001 0.431 0.031 0.199 0.095 0.393 0.138 0.59 0.035 0.159 0.066 0.32 0.090 0.482 0.006 0.044-0.035 0.095-0.030 0.14 0.007 0.058 0.039 0.112 0.059 0.168 0.079 0.224 0.113 0.444-0.018 0.667-0.028 0.049-0.003 0.128-0.005 0.194-0.008 0.337-0.001 0.675-0.035 1.010-0.009 0.089-0.075 0.16 0.020 0.235 0.011 0.009 0.014 0.051 0.010 0.053-0.246 0.117-0.071 0.32-0.097 0.481-0.039 0.24-0.022 0.496-0.101 0.72-0.083 0.238-0.255 0.444-0.372 0.672-0.030 0.059-0.011 0.152 0.006 0.224 0.019 0.079 0.103 0.16 0.089 0.226-0.049 0.237-0.124 0.469-0.199 0.699-0.014 0.041-0.074 0.073-0.119 0.097-0.118 0.063-0.165 0.12-0.048 0.241 0.043 0.045 0.023 0.154 0.022 0.234 0 0.005-0.088-0.004-0.117 0.018-0.115 0.087-0.251 0.167-0.326 0.284-0.051 0.080-0.040 0.225-0.009 0.326 0.125 0.402-0.086 0.675-0.333 0.938-0.165 0.175-0.344 0.337-0.501 0.519-0.051 0.059-0.069 0.162-0.068 0.245 0.001 0.057 0.061 0.112 0.094 0.169 0.054-0.040 0.104-0.088 0.163-0.117 0.088-0.043 0.198-0.121 0.273-0.099 0.178 0.053 0.159-0.066 0.184-0.158 0.006-0.022 0.017-0.044 0.025-0.066 0.015 0.010 0.037 0.017 0.042 0.030 0.008 0.020 0.014 0.051 0.005 0.067-0.069 0.125-0.142 0.247-0.214 0.37-0.004 0.007-0.005 0.016-0.007 0.024 0.013 0 0.030 0.007 0.039 0 0.059-0.043 0.115-0.091 0.175-0.133 0.037-0.026 0.079-0.044 0.119-0.065 0.016 0.047 0.055 0.102 0.043 0.14-0.084 0.262-0.145 0.54-0.281 0.774-0.132 0.228-0.31 0.502-0.531 0.583-0.214 0.078-0.318 0.23-0.472 0.345-0.26 0.195-0.384 0.461-0.486 0.777-0.081 0.25-0.342 0.442-0.524 0.66-0.137 0.164-0.273 0.328-0.411 0.492-0.097 0.115-0.195 0.229-0.291 0.344-0.126 0.149-0.249 0.299-0.378 0.446-0.031 0.035-0.079 0.055-0.117 0.084-0.062 0.047-0.157 0.085-0.179 0.147-0.096 0.278-0.317 0.44-0.526 0.617-0.247 0.209-0.488 0.427-0.734 0.638-0.096 0.082-0.212 0.145-0.295 0.238-0.085 0.095-0.12 0.242-0.216 0.319-0.106 0.085-0.262 0.104-0.383 0.174-0.137 0.079-0.266 0.174-0.386 0.277-0.135 0.116-0.265 0.155-0.432 0.069-0.032-0.017-0.11 0.028-0.151 0.063-0.123 0.103-0.222 0.26-0.361 0.314-0.33 0.127-0.648 0.268-0.962 0.435-0.491 0.262-0.998 0.501-1.516 0.703-0.527 0.205-1.068 0.387-1.617 0.517-0.387 0.091-0.798 0.087-1.198 0.111-0.514 0.030-1.018 0.076-1.53 0.175-0.581 0.113-1.201 0.030-1.805 0.020-0.258-0.004-0.518-0.018-0.771-0.062-0.239-0.041-0.463 0.061-0.697 0.034-0.012-0.001-0.026 0.018-0.040 0.027 0.023 0.024 0.048 0.046 0.068 0.071 0.019 0.023 0.034 0.050 0.051 0.075-0.027-0.004-0.055-0.006-0.081-0.011-0.154-0.029-0.341-0.013-0.456-0.096-0.404-0.289-0.886-0.298-1.334-0.428-0.217-0.063-0.427-0.157-0.632-0.255-0.033-0.016-0.012-0.129-0.031-0.193-0.009-0.030-0.053-0.049-0.082-0.072-0.017 0.039-0.038 0.078-0.048 0.119-0.010 0.038-0.008 0.079-0.011 0.119-0.027-0.030-0.054-0.059-0.080-0.089-0.088-0.105-0.176-0.21-0.264-0.315-0.034-0.040-0.063-0.090-0.107-0.116-0.075-0.045-0.155-0.094-0.239-0.109-0.215-0.040-0.441-0.038-0.648-0.098-0.185-0.054-0.353-0.167-0.527-0.258-0.307-0.161-0.613-0.325-0.918-0.491-0.029-0.016-0.044-0.056-0.066-0.084 0.031 0.012 0.071 0.015 0.092 0.037 0.188 0.202 0.446 0.243 0.695 0.293 0.048 0.010 0.108-0.046 0.163-0.071-0.028-0.029-0.052-0.068-0.086-0.085-0.248-0.121-0.499-0.238-0.749-0.356-0.022-0.010-0.056-0.032-0.066-0.025-0.201 0.154-0.276-0.086-0.413-0.127-0.075-0.022-0.157-0.028-0.236-0.033-0.127-0.008-0.28 0.034-0.378-0.022-0.228-0.129-0.486-0.248-0.547-0.554-0.009-0.047-0.053-0.099-0.095-0.124-0.192-0.112-0.39-0.213-0.583-0.322-0.116-0.065-0.229-0.133-0.338-0.208-0.008-0.005 0.026-0.077 0.046-0.115 0.012-0.023 0.034-0.042 0.052-0.063-0.020-0.011-0.041-0.032-0.061-0.031-0.301 0.014-0.306-0.28-0.446-0.431-0.089-0.097-0.158-0.213-0.231-0.324-0.096-0.146-0.181-0.299-0.284-0.439-0.049-0.067-0.141-0.102-0.19-0.169-0.059-0.080-0.28-0.158-0.032-0.28 0.012-0.006 0.016-0.026 0.024-0.039-0.041-0.008-0.087-0.008-0.123-0.026-0.061-0.031-0.118-0.072-0.172-0.114-0.006-0.005 0.010-0.053 0.027-0.070 0.028-0.028 0.092-0.046 0.093-0.070 0.002-0.044-0.021-0.119-0.052-0.13-0.107-0.038-0.228-0.039-0.332-0.082-0.112-0.046-0.212-0.121-0.314-0.188-0.107-0.070-0.217-0.139-0.313-0.223-0.13-0.112-0.288-0.218-0.361-0.364-0.13-0.259-0.217-0.542-0.293-0.822-0.021-0.075 0.040-0.195 0.098-0.265 0.2-0.243 0.191-0.331-0.015-0.567-0.135-0.155-0.218-0.354-0.346-0.516-0.088-0.111-0.22-0.187-0.32-0.29-0.051-0.053-0.084-0.128-0.109-0.199-0.051-0.143-0.090-0.29-0.135-0.435-0.009-0.029-0.025-0.056-0.038-0.083 0.018-0.005 0.041-0.019 0.053-0.012 0.026 0.014 0.052 0.035 0.066 0.060 0.026 0.046 0.032 0.113 0.068 0.143 0.073 0.060 0.161 0.101 0.243 0.149-0.007-0.082-0.014-0.165-0.021-0.247-0.018 0.001-0.032 0.002-0.047 0.004zM24.095 5.087c-0.118-0.346-0.572-0.668-0.851-0.663-0.030 0.001-0.085 0.006-0.086 0.004-0.028-0.231-0.257-0.216-0.39-0.313-0.087-0.063-0.214-0.073-0.325-0.096-0.064-0.014-0.153 0.019-0.197-0.014-0.255-0.194-0.5-0.403-0.75-0.604-0.028-0.023-0.071-0.034-0.109-0.038-0.194-0.022-0.748-1.016-0.938-0.994-0.15 0.018-0.462-0.245-0.435 0.194 0.001 0.008-0.028 0.020-0.044 0.027-0.163 0.079-0.305 0.086-0.39-0.114-0.006-0.014-0.055-0.022-0.074-0.014-0.039 0.018-0.072 0.051-0.107 0.077 0.010-0.047 0.020-0.094 0.028-0.142 0.007-0.038 0.012-0.076 0.018-0.114-0.031 0.013-0.066 0.021-0.094 0.038-0.054 0.033-0.108 0.107-0.156 0.103-0.183-0.018-0.364-0.063-0.545-0.095-0.041-0.007-0.085-0.002-0.127-0.007-0.107-0.011-0.214-0.029-0.322-0.033-0.047-0.002-0.111 0.012-0.138 0.043-0.057 0.066-0.085 0.206-0.141 0.215-0.191 0.031-0.389 0.025-0.584 0.021-0.237-0.006-0.474-0.018-0.71-0.040-0.12-0.011-0.25-0.025-0.352-0.081-0.093-0.051-0.072-0.309-0.283-0.151-0.004 0.003-0.032-0.012-0.036-0.022-0.094-0.266-0.362-0.341-0.563-0.377-0.352-0.063-0.36 0.302-0.766 0.393-0.362 0.081-0.651 0.339-1.025 0.367-0.010 0.001-0.022 0.004-0.028 0.010-0.149 0.188-0.326 0.009-0.49 0.033-0.194 0.028-0.416-0.042-0.589 0.026-0.242 0.094-0.464 0.193-0.736 0.186-0.386-0.011-0.776 0.053-1.16 0.030-0.298-0.018-0.536 0.048-0.757 0.241-0.174 0.151-0.351 0.307-0.55 0.419-0.312 0.176-0.657 0.293-0.961 0.48-0.349 0.215-0.735 0.345-1.015 0.711-0.362 0.474-0.739 0.981-1.361 1.175-0.048 0.015-0.077 0.083-0.125 0.105-0.097 0.045-0.159 0.175-0.319 0.051-0.143-0.11-0.316-0.080-0.378 0.153-0.026 0.099-0.102 0.184-0.147 0.28-0.386 0.824-0.767 1.65-1.158 2.472-0.136 0.286-0.311 0.554-0.434 0.845-0.119 0.281-0.2 0.579-0.288 0.873-0.087 0.292-0.101 0.627-0.257 0.872-0.2 0.313-0.241 0.652-0.323 0.987-0.091 0.375-0.138 0.761-0.234 1.135-0.124 0.481-0.276 0.954-0.418 1.429-0.029 0.096-0.076 0.186-0.105 0.282-0.026 0.085-0.070 0.184-0.049 0.262 0.164 0.604 0.194 1.217 0.168 1.836-0.008 0.195-0.043 0.402 0.008 0.583 0.104 0.372 0.272 0.725 0.388 1.094 0.171 0.543 0.318 1.093 0.479 1.638 0.010 0.033 0.065 0.085 0.086 0.079 0.364-0.099 0.553 0.287 0.869 0.319 0.022 0.002 0.058 0.095 0.050 0.139-0.032 0.179-0.049 0.369-0.124 0.531-0.17 0.365-0.094 0.645 0.152 0.963 0.378 0.486 0.684 1.028 1.040 1.533 0.253 0.359 0.566 0.678 0.803 1.047 0.267 0.414 0.587 0.764 0.971 1.062 0.22 0.171 0.455 0.324 0.663 0.507 0.155 0.137 0.259 0.337 0.421 0.463 0.421 0.327 0.86 0.63 1.297 0.936 0.056 0.039 0.139 0.046 0.21 0.058 0.255 0.042 0.535 0.025 0.762 0.128 0.948 0.429 1.878 0.9 2.821 1.342 0.416 0.195 0.825 0.423 1.318 0.361 0.233-0.029 0.472-0.003 0.709 0.002 0.139 0.003 0.308 0.068 0.412 0.011 0.403-0.221 0.816-0.114 1.231-0.105 0.216 0.005 0.442-0.033 0.648-0.099 0.269-0.086 0.514-0.255 0.786-0.323 0.304-0.076 0.627-0.080 0.941-0.112 0.25-0.025 0.486-0.069 0.653-0.292 0.1-0.133 0.235-0.25 0.422-0.181 0.185 0.068 0.332 0.045 0.453-0.116 0.019-0.025 0.060-0.034 0.091-0.049 0.159-0.075 0.32-0.149 0.479-0.225 0.217-0.102 0.43-0.215 0.653-0.301 0.125-0.048 0.327-0.002 0.392-0.082 0.24-0.298 0.616-0.258 0.905-0.421 0.186-0.105 0.461-0.144 0.553-0.299 0.105-0.177 0.187-0.364 0.352-0.491 0.183-0.14 0.364-0.312 0.575-0.379 0.311-0.098 0.567-0.235 0.762-0.501 0.098-0.133 0.227-0.244 0.354-0.351 0.354-0.299 0.718-0.586 1.069-0.887 0.099-0.084 0.162-0.21 0.259-0.298 0.092-0.084 0.224-0.126 0.306-0.216 0.205-0.228 0.397-0.468 0.581-0.713 0.048-0.064 0.074-0.168 0.061-0.246-0.024-0.148-0.102-0.288-0.118-0.436-0.007-0.068 0.076-0.149 0.128-0.217 0.010-0.012 0.068 0.014 0.104 0.022 0.006-0.055 0.029-0.114 0.015-0.163-0.097-0.334-0.15-0.377 0.088-0.493 0.066-0.032 0.158-0.037 0.232-0.022 0.181 0.036 0.666-0.921 0.366-1.018-0.064-0.021-0.132-0.042-0.187-0.080-0.143-0.099-0.334 0.008-0.459 0.044-0.028 0.008-0.051 0.031-0.077 0.047 0.012-0.031 0.018-0.066 0.036-0.093 0.139-0.203 0.281-0.405 0.42-0.608 0.149-0.217-0.346-0.231-0.183-0.436 0.181-0.226-0.071-0.357 0.254-0.43 0.109-0.024 0.202-0.125 0.301-0.194 0.015-0.010 0.036-0.039 0.032-0.047-0.1-0.185 0.083-0.020 0.109-0.086 0.028-0.071 0.163-0.108 0.176-0.174 0.043-0.223 0.040-0.456 0.079-0.68 0.026-0.149 0.1-0.29 0.142-0.438 0.014-0.047 0.012-0.121-0.016-0.152-0.027-0.030-0.081-0.382 0.094-0.466 0.034-0.017 0.086-0.040 0.092-0.068 0.068-0.331 0.142-0.662 0.189-0.997 0.038-0.273 0.026-0.553 0.065-0.825 0.097-0.675 0.147-1.338-0.278-1.941-0.041-0.058-0.033-0.15-0.045-0.227-0.058-0.375-0.094-0.755-0.178-1.124-0.089-0.391-0.232-0.77-0.337-1.158-0.095-0.348-0.165-0.702-0.255-1.051-0.109-0.423-0.368-0.764-0.617-1.113-0.195-0.272-0.343-0.578-0.541-0.847-0.287-0.391-0.601-0.763-0.902-1.144-0.148-0.188-0.27-0.405-0.443-0.565-0.253-0.233-0.555-0.411-0.81-0.641-0.295-0.265-0.504-0.632-0.913-0.758-0.039-0.012-0.109-0.027-0.12-0.011-0.040 0.006-0.058 0.044-0.104 0.022z"></path>
</svg>
