<!-- Generated by IcoMoon.io -->
<svg version="1.1" xmlns="http://www.w3.org/2000/svg" width="32" height="32" viewBox="0 0 32 32">
<title>misc-wait</title>
<path fill="#fff" d="M6.784 14.714c0-0.001 0.001 0.004 0 0z"></path>
<path fill="#fff" d="M18.020 6.832c0.001-0.001 0.001-0.002 0.002-0.003-0.013-0.007-0.011-0.004-0.002 0.003z"></path>
<path fill="#fff" d="M24.278 14.802c0.002-0.001 0.003-0.003 0.004-0.003-0.001 0.001-0.002 0.002-0.004 0.003z"></path>
<path fill="#fff" d="M6.78 14.702c0-0.001 0-0.001 0-0.001s0 0.001 0 0.001z"></path>
<path fill="#fff" d="M25.525 15.339c0.046 0.030 0.071-0.017 0.076-0.141-0.025 0.047-0.051 0.094-0.076 0.141z"></path>
<path fill="#fff" d="M24.281 14.799c0.003-0.002 0.003-0.002 0 0z"></path>
<path fill="#fff" d="M6.779 14.701c0-0.001 0-0.001 0 0z"></path>
<path fill="#fff" d="M6.781 14.705c0-0.001-0.001-0.002-0.001-0.003 0 0.001 0.001 0.001 0.001 0.003z"></path>
<path fill="#fff" d="M6.784 14.714c0 0 0-0.001 0-0.001s0 0.001 0 0.001z"></path>
<path fill="#fff" d="M23.005 16.886c-0.001 0.001 0 0.001 0 0z"></path>
<path fill="#fff" d="M20.983 25.561v0.003c0.005-0.002 0.004-0.003 0-0.003z"></path>
<path fill="#fff" d="M6.781 14.706c0 0 0-0.001 0-0.001s0 0.001 0 0.001z"></path>
<path fill="#fff" d="M6.783 14.713c0-0.001-0.001-0.003-0.001-0.004 0 0.001 0.001 0.003 0.001 0.004z"></path>
<path fill="#fff" d="M6.782 14.709c0-0.001-0.001-0.002-0.001-0.003 0 0.001 0.001 0.002 0.001 0.003z"></path>
<path fill="#fff" d="M11.274 16.982c-0.154-0.178 0.067 0.077 0 0z"></path>
<path fill="#fff" d="M11.523 10.126c-0.004 0.001-0.011 0.004-0.020 0.007 0.011-0.004 0.017-0.006 0.020-0.007z"></path>
<path fill="#fff" d="M12.738 22.773c-0.002-0.004-0.002-0.004 0 0z"></path>
<path fill="#fff" d="M11.502 10.133c-0.002 0.001-0.004 0.002-0.007 0.002 0.002-0.001 0.005-0.001 0.007-0.002z"></path>
<path fill="#fff" d="M12.738 22.773c0.003 0.007 0.001 0.002 0 0z"></path>
<path fill="#fff" d="M26.268 15.823c-0.232-0.153-0.491-0.352-0.742-0.482-0.186-0.096-1.191-0.259-0.65-0.385-0.22-0.032-0.44-0.065-0.66-0.097 0.103-0.094-0.755-0.51-0.894-0.59 0.106 0.025 0.152 0.002 0.138-0.070-0.192-0.054-0.405-0.071-0.602-0.1 0.028 0.286 0.232 1.158-0.035 1.069 0.054 0.091 0.206 0.211 0.178 0.311-0.088-0.037-0.504-0.113-0.259 0.059-0.298 0.024-1.241 0.286-1.488 0.094-0.258-0.2-0.084-1.476-0.1-1.818-0.029-0.63 0.051-1.059 0.042-1.878-0.012-0.994 0.558-5.6-0.802-5.563 0.529 0.742-1.876 0.479-2.15 0.489-0.794 0.030-1.807 0.093-2.723 0.091-0.819-0.002-1.61 0.069-2.403 0.047-0.508-0.014-1.784 0.145-2.178-0.107-0.435-0.279-0.037-0.636-0.728-0.56-0.008 0.076 0.030 0.090 0.114 0.041-0.195 0.621-0.142 1.115-0.105 1.762 0.044 0.777-0.042 1.502-0.081 2.273-0.042 0.84 0.001 1.697 0.031 2.537 0.027 0.758-0.116 1.861 0.192 2.543-0.402 0.009-0.801-0.042-1.203-0.048 0.073 0.001-1.155 0.086-1.136 0.099-0.683-0.44 0.539-1.59-0.902-1.065-0.811 0.295-2.12 1.070-3.039 1.608 0.352 0.408 0.795 0.499 1.357 0.691 0.621 0.212 2.094 0.466 2.318 0.906 0.034 0.005 0.067 0 0.098-0.013 0.041-0.482-0.114-0.977 0.395-1.085 0.212-0.044 0.627 0.11 0.773 0.139 0.837 0.168 1.086 0.015 1.095 0.945 0.007 0.717-0.052 1.427-0.102 2.142-0.085 1.207-0.233 2.439-0.202 3.65 0.009 0.344 0.099 3.049 0.133 3.035 0.183-0.074 0.201-0.261 0.387-0.295 0.179-0.032 0.273 0.063 0.471 0.017 0.345-0.080 0.702-0.158 1.141-0.161 1.376-0.009 2.755 0.007 4.127 0.012 0.551 0.002 1.249 0.050 1.769 0.054 0.416 0.004 1.038-0.095 1.534-0.082 0.269 0.007 0.846 0.213 0.782 0.003-0.016 0.26 0.086 0.441 0.307 0.542-0.19-0.124 0.42-0.668 0.433-0.7 0.067-0.164 0.081-0.457 0.084-0.76 0.012-1.044 0.089-1.809 0.083-2.778-0.004-0.623 0.079-1.32 0.104-2.028 0.025-0.706 0.056-1.452 0.012-2.148-0.027-0.419-0.294-1.255 0.123-1.225-0.5-0.404 1.092-0.264 1.264-0.228 0.758 0.159 0.185 0.683 0.759 0.951 0.496 0.231 2.303-1.839 2.574-1.221-0.036-0.146-0.008-0.27 0.085-0.372 0.11 0.199 0.184 0.191 0.224-0.024 0.086-0.072 0.105-0.148 0.059-0.226zM10.761 20.918c0.286-0.847 0.172-1.856 0.211-2.748 0.015-0.333 0.037-0.914 0.205-1.209 0.165-0.288 0.723-0.418 0.858-0.697 0.303-0.625-0.276-0.279-0.714-0.664-0.324-0.284-0.128-1.037-0.112-1.48 0.020-0.57-0.437-2.659 0.422-2.121-0.085 0.020-0.171 0.039-0.256 0.059 0.453 0.457 0.851 1.053 1.363 1.613 0.264 0.288 0.528 0.577 0.792 0.865 0.204 0.223 1.068 0.78 0.326 0.644 0.284 0.224 0.499 0.389 0.493 0.8 0.057-0.050 0.114-0.101 0.171-0.151-0.043 0.232-0.063 0.755-0.159 0.99-0.123 0.301 0.046 0.236-0.357 0.528-0.537 0.388-0.953 0.453-1.431 0.942-0.902 0.923-1.138 1.881-1.539 2.972-0.071-0.19-0.377-0.036-0.273-0.343zM15.301 20.155c-0.232 1.245-2.045 2.291-3.063 2.955 0.195 0.084-0.724 0.562-0.834 0.549-0.438-0.054-0.248-0.486-0.213-0.851 0.121-1.251 0.398-2.401 1.099-3.452 0.503-0.755 1.25-1.449 2.16-1.782 1.236-0.451 1.006 1.749 0.851 2.58zM14.773 13.731c-1.253-0.4-2.143-0.411-2.726-1.69-0.342-0.751-0.663-1.711-0.48-2.529 0.228-1.021 0.472-1.395 1.562-1.413 1.128-0.019 2.265 0.095 3.387 0.098 0.65 0.002 1.298-0.034 1.948-0.002 0.331 0.016 0.781-0.001 1.090 0.107 0.524 0.183 0.352 0.040 0.447 0.581 0.145 0.82 0.171 2.282-0.131 3.039-0.29 0.725-0.86 1.365-1.664 1.544-1.024 0.227-2.323 0.263-3.432 0.263zM19.764 23.023c-0.092 0.311 0.032 0.825-0.329 0.954-0.136 0.049-1.196-0.95-1.343-1.085-0.591-0.542-1.269-1.083-1.847-1.658-0.665-0.662-0.514-1.631-0.488-2.53 0.020-0.667 0.197-1.959 1.077-0.981 0.002-0.004 0.004-0.009 0.005-0.013-0.005 0.012 1.748 1.188 1.915 1.356 0.855 0.859 1.348 2.816 1.010 3.957zM20.142 14.344c-0.054 0.464-0.088 0.877-0.24 1.319 0.071-0.23 0.166-0.289 0.283-0.176-0.261 0.357-0.543 0.328-0.969 0.455 0.218 0.356 0.604 0.603 0.779 0.943 0.165 0.32 0.047 0.772 0.062 1.108 0.031 0.701-0.009 1.431-0.009 2.251-0.519-0.843-1.058-1.709-1.816-2.362-0.861-0.743-1.159-0.746-1.401-1.911 0.3 0.178 2.726-2.519 3.046-2.838-0.168 0.143-0.297 0.138-0.388-0.016 0.127-0.109 0.519-0.563 0.713-0.496-0.048 0.192-0.089 1.72-0.061 1.723z"></path>
<path fill="#fff" d="M11.524 10.125c0.002-0.001 0.002-0.001 0 0z"></path>
<path fill="#fff" d="M16.819 31.678c-0.206-0.044-0.41-0.101-0.618-0.126-0.089-0.011-0.216 0.017-0.275 0.078-0.382 0.39-0.635 0.276-1.065 0.053-0.149-0.078-0.35-0.055-0.527-0.082-0.022-0.003-0.056-0.025-0.057-0.040-0.008-0.083 0.006-0.171-0.014-0.251-0.016-0.063-0.060-0.131-0.112-0.169-0.022-0.016-0.116 0.026-0.142 0.065-0.075 0.11-0.305 0.021-0.293 0.233-0.051-0.018-0.101-0.039-0.153-0.053-0.054-0.015-0.111-0.024-0.166-0.036-0.049-0.010-0.119-0.003-0.142-0.032-0.077-0.098-0.133-0.213-0.207-0.315-0.025-0.035-0.077-0.049-0.117-0.073 0.002 0.030 0.007 0.060 0.004 0.090-0.003 0.027-0.008 0.064-0.026 0.078-0.083 0.064-0.182 0.11-0.254 0.183-0.142 0.145-0.289 0.198-0.471 0.080-0.016-0.010-0.047-0.022-0.046-0.030 0.040-0.278-0.121-0.104-0.211-0.096-0.185 0.017-0.392-0.194-0.369-0.366 0.004-0.031-0.019-0.090-0.043-0.098-0.179-0.061-0.334-0.191-0.558-0.059-0.113 0.066-0.319 0.029-0.461-0.023-0.202-0.074-0.376-0.218-0.574-0.307-0.212-0.096-0.436-0.163-0.656-0.242-0.018-0.006-0.044 0.001-0.057-0.009-0.164-0.121-0.28-0.133-0.4 0.079-0.034 0.061-0.274 0.077-0.365 0.023-0.327-0.194-0.711-0.368-0.923-0.659-0.251-0.344-0.573-0.497-0.917-0.682-0.505-0.272-0.961-0.621-1.264-1.131-0.024-0.041-0.060-0.092-0.101-0.105-0.371-0.119-0.568-0.43-0.811-0.7-0.281-0.313-0.626-0.57-0.897-0.892-0.257-0.306-0.457-0.661-0.677-0.998-0.261-0.4-0.525-0.798-0.771-1.207-0.203-0.336-0.486-0.669-0.548-1.035-0.115-0.674-0.589-1.161-0.774-1.782-0.077-0.257-0.085-0.536-0.121-0.805-0.049-0.372-0.085-0.747-0.145-1.118-0.054-0.334 0.003-0.632 0.203-0.907 0.031-0.043 0.027-0.134 0.005-0.189-0.058-0.144-0.126-0.286-0.208-0.418-0.241-0.388-0.318-0.8-0.281-1.259 0.026-0.326-0.065-0.66-0.064-0.991 0.002-0.61-0.13-1.219 0.020-1.834 0.125-0.51 0.164-1.042 0.283-1.554 0.067-0.29 0.24-0.553 0.324-0.841 0.111-0.38 0.158-0.78 0.276-1.157 0.154-0.491 0.348-0.971 0.532-1.453 0.242-0.634 0.657-1.161 1.084-1.675 0.25-0.301 0.521-0.585 0.786-0.873 0.34-0.37 0.774-0.587 1.215-0.815 0.311-0.161 0.552-0.455 0.825-0.689 0.037-0.032 0.086-0.082 0.122-0.076 0.204 0.035 0.305-0.050 0.326-0.248 0.001-0.005 0-0.014 0.001-0.014 0.242-0.060 0.118-0.259 0.155-0.398 0.010-0.039 0.053-0.075 0.089-0.101 0.218-0.155 0.449-0.281 0.726-0.292 0.022-0.001 0.044-0.019 0.066-0.031 0.028-0.016 0.043-0.159 0.092-0.008 0.004 0.011 0.091 0.017 0.115-0.004 0.099-0.083 0.188-0.178 0.28-0.268 0.003-0.003 0.005-0.009 0.007-0.013 0.283 0.174 0.377-0.204 0.604-0.21 0.056-0.002 0.107-0.081 0.165-0.118 0.080-0.050 0.163-0.094 0.246-0.138 0.029-0.015 0.077-0.012 0.092-0.034 0.318-0.458 0.86-0.557 1.308-0.801 0.264-0.143 0.58-0.189 0.868-0.292 0.057-0.021 0.084-0.113 0.138-0.157 0.095-0.078 0.193-0.154 0.3-0.213 0.383-0.214 0.752-0.082 1.126 0.049 0.302 0.106 0.612-0.071 0.673-0.391 0.013-0.068-0.099-0.161-0.158-0.24-0.041-0.056-0.089-0.107-0.134-0.16 0.071 0.028 0.149 0.046 0.211 0.087 0.11 0.073 0.211 0.161 0.316 0.241 0.027 0.020 0.060 0.033 0.091 0.049 0.003-0.045 0.005-0.090 0.008-0.136 0.005-0.094 0.001-0.191 0.020-0.282 0.005-0.023 0.107-0.055 0.13-0.038 0.237 0.179 0.488 0.104 0.723 0.027 0.807-0.266 1.613-0.348 2.444-0.108 0.165 0.048 0.364-0.037 0.547-0.032 0.175 0.005 0.395-0.126 0.496 0.18 0.028 0.085 0.265 0.117 0.411 0.142 0.2 0.035 0.406 0.039 0.609 0.062 0.164 0.019 0.327 0.042 0.489 0.072 0.044 0.008 0.079 0.065 0.123 0.075 0.057 0.013 0.12 0 0.18-0.001 0.24-0.002 0.46 0.038 0.63 0.235 0.037 0.043 0.121 0.045 0.183 0.068 0.319 0.118 0.644 0.222 0.951 0.365 0.082 0.038 0.128 0.124 0.231 0.058 0.012-0.008 0.053 0.003 0.054 0.008 0.030 0.273 0.282 0.173 0.426 0.251 0.216 0.116 0.465 0.184 0.654 0.332 0.2 0.157 0.339 0.389 0.518 0.576 0.046 0.048 0.141 0.061 0.216 0.068 0.082 0.008 0.186-0.046 0.244-0.011 0.21 0.125 0.407 0.272 0.601 0.42 0.035 0.026 0.045 0.094 0.053 0.145 0.021 0.134 0.060 0.197 0.215 0.125 0.057-0.027 0.154 0.029 0.23 0.055 0.005 0.002-0.033 0.083-0.021 0.117 0.045 0.139 0.077 0.294 0.164 0.403 0.059 0.075 0.201 0.112 0.308 0.115 0.424 0.013 0.616 0.304 0.784 0.626 0.113 0.215 0.208 0.439 0.33 0.648 0.040 0.068 0.132 0.119 0.211 0.146 0.054 0.018 0.127-0.021 0.192-0.034-0.020-0.065-0.050-0.128-0.058-0.194-0.012-0.099-0.051-0.228-0.005-0.293 0.108-0.152-0.011-0.173-0.091-0.228-0.019-0.013-0.036-0.030-0.055-0.045 0.014-0.011 0.028-0.030 0.042-0.030 0.022-0.001 0.053 0.003 0.066 0.018 0.096 0.107 0.189 0.217 0.283 0.325 0.005 0.006 0.014 0.010 0.021 0.014 0.005-0.012 0.016-0.027 0.013-0.037-0.022-0.071-0.049-0.14-0.069-0.21-0.013-0.044-0.016-0.090-0.023-0.135 0.050 0 0.115-0.019 0.147 0.005 0.222 0.166 0.468 0.316 0.646 0.522 0.174 0.201 0.377 0.46 0.382 0.698 0.004 0.23 0.115 0.379 0.174 0.563 0.1 0.312 0.314 0.518 0.582 0.718 0.212 0.159 0.309 0.472 0.457 0.716 0.112 0.184 0.223 0.368 0.334 0.553 0.078 0.13 0.155 0.261 0.233 0.391 0.101 0.169 0.204 0.336 0.301 0.506 0.023 0.041 0.026 0.093 0.041 0.139 0.025 0.075 0.029 0.178 0.082 0.219 0.234 0.183 0.316 0.447 0.416 0.704 0.118 0.305 0.247 0.606 0.367 0.91 0.047 0.119 0.069 0.249 0.13 0.359 0.063 0.112 0.191 0.194 0.233 0.31 0.046 0.129 0.013 0.283 0.040 0.422 0.030 0.156 0.079 0.311 0.137 0.459 0.066 0.166 0.060 0.304-0.076 0.435-0.026 0.025-0.009 0.114 0.010 0.165 0.057 0.151 0.175 0.297 0.18 0.447 0.013 0.357 0.042 0.706 0.099 1.060 0.089 0.554 0.151 1.116 0.173 1.677 0.023 0.57 0.018 1.146-0.038 1.712-0.040 0.399-0.179 0.789-0.288 1.18-0.14 0.5-0.262 0.995-0.335 1.517-0.083 0.591-0.366 1.156-0.573 1.728-0.088 0.244-0.187 0.488-0.312 0.715-0.118 0.214-0.094 0.461-0.196 0.675-0.005 0.011 0.008 0.031 0.013 0.047 0.030-0.014 0.059-0.030 0.091-0.042 0.028-0.011 0.059-0.016 0.088-0.024-0.012 0.025-0.024 0.050-0.037 0.074-0.078 0.138-0.124 0.321-0.241 0.404-0.409 0.29-0.575 0.747-0.846 1.132-0.131 0.187-0.29 0.356-0.45 0.519-0.026 0.026-0.127-0.031-0.194-0.034-0.031-0.001-0.064 0.035-0.096 0.054 0.032 0.029 0.062 0.062 0.097 0.085 0.033 0.022 0.073 0.034 0.11 0.050-0.037 0.016-0.074 0.032-0.112 0.047-0.129 0.050-0.258 0.099-0.387 0.149-0.050 0.019-0.106 0.031-0.146 0.064-0.068 0.056-0.14 0.117-0.183 0.192-0.108 0.192-0.18 0.408-0.306 0.586-0.112 0.159-0.275 0.282-0.419 0.418-0.255 0.24-0.511 0.478-0.77 0.714-0.024 0.022-0.067 0.024-0.102 0.035 0.022-0.026 0.038-0.063 0.065-0.075 0.254-0.113 0.378-0.345 0.508-0.567 0.025-0.042-0.008-0.118-0.014-0.178-0.037 0.018-0.082 0.027-0.109 0.054-0.197 0.197-0.391 0.398-0.585 0.598-0.017 0.018-0.049 0.043-0.045 0.055 0.081 0.242-0.173 0.235-0.257 0.352-0.046 0.064-0.078 0.14-0.109 0.214-0.049 0.119-0.059 0.278-0.145 0.353-0.198 0.175-0.397 0.382-0.708 0.34-0.047-0.006-0.112 0.018-0.149 0.050-0.17 0.146-0.331 0.302-0.498 0.451-0.1 0.089-0.203 0.175-0.31 0.254-0.008 0.006-0.065-0.050-0.095-0.082-0.018-0.019-0.029-0.047-0.043-0.070-0.017 0.016-0.044 0.029-0.050 0.048-0.085 0.292-0.367 0.2-0.558 0.283-0.122 0.053-0.255 0.081-0.385 0.114-0.17 0.044-0.344 0.074-0.512 0.126-0.080 0.025-0.144 0.101-0.223 0.126-0.095 0.030-0.243 0.215-0.277-0.061-0.002-0.013-0.019-0.024-0.029-0.036-0.021 0.037-0.036 0.081-0.065 0.109-0.050 0.048-0.107 0.089-0.165 0.127-0.007 0.004-0.047-0.027-0.058-0.049-0.018-0.036-0.014-0.103-0.037-0.112-0.042-0.016-0.12-0.019-0.141 0.007-0.071 0.090-0.112 0.205-0.187 0.29-0.081 0.091-0.185 0.163-0.283 0.238-0.102 0.079-0.204 0.161-0.315 0.226-0.15 0.087-0.303 0.203-0.465 0.225-0.289 0.039-0.588 0.029-0.881 0.010-0.078-0.005-0.172-0.102-0.221-0.18-0.167-0.271-0.253-0.291-0.546-0.172-0.192 0.078-0.409 0.092-0.605 0.161-0.135 0.048-0.25 0.149-0.381 0.21-0.067 0.031-0.15 0.038-0.225 0.039-0.153 0.001-0.306-0.010-0.459-0.014-0.031-0.001-0.061 0.006-0.092 0.009 0.001-0.019-0.004-0.045 0.006-0.054 0.022-0.020 0.051-0.038 0.079-0.044 0.053-0.010 0.118 0.007 0.159-0.018 0.081-0.050 0.149-0.121 0.222-0.183-0.081-0.020-0.162-0.041-0.243-0.061-0.001 0.014-0.004 0.029-0.007 0.043zM8.26 4.808c-0.368-0.001-0.824 0.326-0.912 0.594-0.009 0.029-0.022 0.083-0.024 0.083-0.229-0.049-0.291 0.174-0.426 0.269-0.088 0.062-0.14 0.18-0.198 0.278-0.034 0.057-0.032 0.152-0.078 0.183-0.269 0.179-0.548 0.344-0.821 0.516-0.031 0.020-0.056 0.057-0.072 0.091-0.084 0.178-1.214 0.38-1.255 0.567-0.033 0.149-0.385 0.36 0.042 0.478 0.008 0.002 0.010 0.033 0.012 0.051 0.022 0.181-0.018 0.319-0.236 0.335-0.015 0.001-0.039 0.045-0.037 0.066 0.005 0.043 0.025 0.085 0.038 0.127-0.042-0.025-0.084-0.050-0.126-0.074-0.034-0.019-0.068-0.037-0.102-0.055 0.002 0.034-0.002 0.069 0.006 0.102 0.014 0.062 0.067 0.138 0.046 0.182-0.077 0.168-0.179 0.326-0.269 0.489-0.021 0.037-0.030 0.080-0.048 0.119-0.046 0.099-0.098 0.194-0.137 0.295-0.017 0.044-0.025 0.109-0.004 0.146 0.045 0.076 0.168 0.148 0.159 0.205-0.033 0.192-0.103 0.379-0.172 0.563-0.083 0.224-0.173 0.445-0.271 0.663-0.050 0.11-0.105 0.23-0.192 0.309-0.079 0.072-0.318-0.033-0.237 0.22 0.002 0.005-0.021 0.026-0.033 0.027-0.284 0.002-0.444 0.233-0.544 0.413-0.175 0.315 0.17 0.442 0.123 0.859-0.042 0.371 0.109 0.732 0.013 1.097-0.002 0.009-0.004 0.023 0.001 0.030 0.13 0.203-0.098 0.314-0.129 0.477-0.037 0.194-0.176 0.382-0.169 0.569 0.010 0.262 0.032 0.506-0.064 0.763-0.137 0.365-0.204 0.757-0.352 1.116-0.115 0.278-0.13 0.526-0.018 0.8 0.088 0.215 0.177 0.435 0.219 0.661 0.066 0.355 0.064 0.723 0.143 1.074 0.090 0.403 0.088 0.814 0.344 1.2 0.333 0.501 0.692 1.026 0.674 1.683-0.001 0.050 0.054 0.101 0.059 0.153 0.011 0.107 0.114 0.209-0.056 0.321-0.152 0.1-0.18 0.275 0.022 0.41 0.086 0.058 0.142 0.158 0.218 0.232 0.658 0.638 1.321 1.273 1.976 1.914 0.228 0.223 0.426 0.478 0.662 0.691 0.229 0.206 0.486 0.381 0.737 0.561 0.25 0.179 0.565 0.302 0.747 0.531 0.233 0.293 0.542 0.443 0.835 0.631 0.327 0.21 0.68 0.381 1.004 0.595 0.417 0.275 0.819 0.575 1.225 0.867 0.082 0.059 0.152 0.134 0.234 0.193 0.073 0.052 0.153 0.127 0.233 0.132 0.629 0.041 1.223 0.215 1.805 0.442 0.183 0.071 0.369 0.173 0.558 0.184 0.388 0.023 0.78-0.021 1.17-0.011 0.573 0.015 1.146 0.055 1.718 0.080 0.035 0.002 0.102-0.034 0.104-0.056 0.025-0.379 0.455-0.433 0.589-0.724 0.009-0.020 0.11-0.024 0.149-0.002 0.16 0.089 0.336 0.168 0.465 0.293 0.292 0.281 0.584 0.302 0.967 0.171 0.587-0.201 1.204-0.315 1.802-0.488 0.425-0.124 0.832-0.316 1.261-0.422 0.482-0.118 0.921-0.309 1.33-0.577 0.235-0.154 0.458-0.327 0.701-0.465 0.182-0.103 0.406-0.136 0.579-0.249 0.449-0.294 0.883-0.613 1.318-0.929 0.056-0.041 0.089-0.117 0.124-0.181 0.123-0.229 0.199-0.502 0.372-0.684 0.72-0.763 1.474-1.494 2.204-2.248 0.322-0.332 0.674-0.647 0.776-1.138 0.048-0.231 0.152-0.451 0.234-0.675 0.048-0.132 0.165-0.271 0.145-0.389-0.078-0.456 0.159-0.815 0.304-1.208 0.075-0.204 0.113-0.432 0.118-0.65 0.006-0.285-0.074-0.574-0.050-0.855 0.028-0.315 0.129-0.623 0.202-0.934 0.058-0.247 0.093-0.485-0.064-0.718-0.094-0.139-0.161-0.306-0.034-0.462 0.125-0.154 0.151-0.301 0.038-0.47-0.018-0.026-0.013-0.068-0.017-0.103-0.019-0.177-0.038-0.353-0.057-0.53-0.026-0.24-0.064-0.48-0.073-0.721-0.005-0.135 0.105-0.312 0.050-0.4-0.206-0.326-0.044-0.672-0.104-1.001-0.039-0.212 0.014-0.487-0.103-0.625-0.134-0.158-0.286-0.297-0.352-0.496-0.074-0.22-0.178-0.449-0.172-0.672 0.008-0.329-0.038-0.617-0.228-0.891-0.094-0.136-0.158-0.297-0.219-0.453-0.169-0.435-0.323-0.876-0.495-1.31-0.048-0.122-0.147-0.223-0.199-0.344-0.050-0.115-0.046-0.255-0.106-0.362-0.15-0.27-0.316-0.532-0.489-0.787-0.045-0.066-0.136-0.125-0.215-0.139-0.149-0.026-0.308 0.003-0.454-0.030-0.067-0.015-0.118-0.121-0.165-0.193-0.009-0.013 0.035-0.060 0.055-0.092-0.050-0.024-0.1-0.066-0.151-0.068-0.35-0.017-0.408 0.019-0.441-0.246-0.009-0.074 0.017-0.163 0.055-0.229 0.094-0.16-0.659-0.936-0.85-0.682-0.041 0.054-0.083 0.112-0.137 0.152-0.141 0.104-0.102 0.321-0.109 0.452-0.001 0.029 0.013 0.059 0.020 0.089-0.026-0.021-0.057-0.039-0.076-0.064-0.148-0.199-0.293-0.401-0.441-0.6-0.158-0.213-0.334 0.254-0.475 0.031-0.156-0.246-0.364-0.049-0.326-0.383 0.013-0.113-0.053-0.234-0.086-0.351-0.005-0.018-0.025-0.047-0.034-0.046-0.209 0.035 0.008-0.086-0.046-0.132-0.058-0.050-0.049-0.191-0.108-0.225-0.198-0.114-0.421-0.187-0.622-0.299-0.134-0.074-0.244-0.191-0.37-0.279-0.041-0.028-0.112-0.051-0.151-0.035-0.037 0.016-0.39-0.048-0.413-0.243-0.004-0.038-0.009-0.095-0.034-0.11-0.293-0.174-0.585-0.353-0.888-0.507-0.247-0.126-0.518-0.206-0.765-0.333-0.612-0.314-1.227-0.579-1.941-0.372-0.068 0.020-0.154-0.017-0.231-0.031-0.376-0.068-0.75-0.158-1.13-0.199-0.402-0.043-0.81-0.032-1.215-0.058-0.362-0.024-0.723-0.073-1.085-0.101-0.439-0.034-0.849 0.1-1.263 0.223-0.323 0.096-0.663 0.138-0.985 0.238-0.467 0.145-0.924 0.323-1.386 0.484-0.228 0.080-0.474 0.124-0.683 0.237-0.305 0.164-0.574 0.394-0.877 0.562-0.35 0.194-0.768 0.273-1.022 0.622-0.024 0.033-0.062 0.095-0.050 0.111-0.010 0.039 0.020 0.069-0.016 0.105z"></path>
</svg>
