<!-- Generated by IcoMoon.io -->
<svg version="1.1" xmlns="http://www.w3.org/2000/svg" width="32" height="32" viewBox="0 0 32 32">
<title>misc-circle</title>
<path fill="#fff" d="M7.543 26.17c0-0.38-0.114-0.745 0.018-0.907 0.863-1.055 0.516-2.065 0.232-3.245-0.288-1.198-1.198-2.146-1.191-3.444 0.004-0.273-0.487-0.642-0.826-0.811-0.915-0.468-1.881-0.841-2.81-1.28-0.332-0.155-0.623-0.398-1.309-0.844 1.221 0 1.995-0.077 2.747 0.018 0.874 0.111 1.243-0.52 1.752-0.973 0.553-0.49 0.656-1.003 0.277-1.681-0.114-0.203 0.044-0.623 0.184-0.892 0.509-0.977 1.121-1.906 1.586-2.906 0.498-1.073 0.254-1.516-0.922-2.028-0.557-0.243-0.796-0.918-0.605-1.711 0.144-0.601 0.634-0.435 1.018-0.439 0.992-0.015 0.992 0.004 1.091 1.040 0.107 1.106 0.107 1.117 1.202 1.121 1.114 0.004 2.22 0.1 3.024-1.014 0.277-0.383 0.959-0.49 1.468-0.693 1.232-0.483 1.519-0.87 1.527-2.139 0-0.354-0.041-0.704-0.030-1.058 0.037-1.154 0.815-2.53 0.926-2.249 0.339 0.848 0.778 1.807 0.667 2.659-0.273 2.135-0.336 2.017 1.67 2.965 1.106 0.524 2.319 0.708 3.407 1.394 0.745 0.468 2.080 0.431 2.817-0.66 0.35-0.516 0.844-0.981 1.029-1.549 0.254-0.785 0.785-0.667 1.328-0.631 0.111 0.007 0.313 0.288 0.295 0.317-0.384 0.557-0.122 1.53-0.955 1.748-0.745 0.195-0.826 0.881-1.25 1.291-0.535 0.516-0.553 0.855 0.011 1.331 0.173 0.144 0.265 0.509 0.24 0.756-0.162 1.479 0.177 2.895 0.413 4.333 0.17 1.014 0.712 1.541 1.781 1.648 0.667 0.066 1.328 0.199 1.988 0.302-0.1 1.117-1.139 1.029-1.807 1.431-0.752 0.454-1.659 0.741-1.689 1.925-0.007 0.291-0.24 0.815-0.8 1.095-0.819 0.413-1.088 1.648-0.531 2.334 0.542 0.667 0.671 1.737 1.755 1.958 0.214 0.044 0.387 0.38 0.531 0.612 0.052 0.081-0.007 0.288-0.081 0.376-0.074 0.085-0.243 0.136-0.361 0.122-0.122-0.015-0.277-0.096-0.343-0.195-0.538-0.822-1.427-1.077-2.275-1.328-0.745-0.221-1.674-0.933-2.102 0.505-0.070 0.24-0.549 0.413-0.874 0.509-1.176 0.347-2.378 0.612-3.547 0.985-0.354 0.114-0.889 0.476-0.892 0.734-0.011 0.944-0.483 2.006 0.343 2.817 0.553 0.542 0.461 0.929-0.055 1.394-0.192 0.173-0.229 0.527-0.424 0.69-0.151 0.122-0.634 0.114-0.642 0.088-0.151-0.627-0.922-1.099-0.395-1.921 0.236-0.369 0.184-0.929 0.251-1.405 0.144-1.003-0.454-1.571-1.246-1.965-0.424-0.21-0.926-0.461-1.357-0.409-1.224 0.148-1.988-0.479-2.692-1.316-0.38-0.457-0.726-0.468-1.246-0.088-0.671 0.49-1.468 0.826-2.319 1.287zM25.755 16.254c0.114-2.607-0.896-4.65-2.312-6.472-1.667-2.142-4.196-2.895-6.685-2.928-1.884-0.026-3.89 0.435-5.513 1.844-2.279 1.976-3.695 4.348-3.695 7.371 0.004 2.596 1.128 4.764 2.965 6.619 1.718 1.733 3.975 2.080 6.154 2.67 5.151-0.686 9.097-4.171 9.086-9.104z"></path>
</svg>
