<!-- Generated by IcoMoon.io -->
<svg version="1.1" xmlns="http://www.w3.org/2000/svg" width="32" height="32" viewBox="0 0 32 32">
<title>monsters-of-death</title>
<path fill="#fff" d="M12.391 1.9c0.010-0.123 0.005-0.131-0.139-0.27-0.112-0.107-0.351-0.13-0.461-0.029-0.095 0.087-0.182 0.187-0.252 0.294-0.16 0.244-0.335 0.473-0.544 0.676-0.117 0.113-0.122 0.241-0.029 0.364 0.203 0.269 0.583 0.325 0.842 0.105 0.347-0.296 0.595-0.654 0.583-1.141zM12.965 26.829c0.002-0.107 0.007-0.215 0.006-0.321-0.005-0.326-0.015-0.651-0.015-0.977 0-0.131 0.021-0.262 0.033-0.394 0.036-0.401 0.076-0.8 0.107-1.202 0.016-0.205 0.076-0.393 0.171-0.573 0.118-0.223 0.235-0.276 0.481-0.211 0.072 0.019 0.145 0.031 0.218 0.039 0.024 0.003 0.059-0.012 0.074-0.032 0.108-0.134 0.228-0.262 0.316-0.407 0.178-0.297 0.336-0.607 0.51-0.905 0.056-0.095 0.14-0.171 0.209-0.258 0.055-0.068 0.107-0.138 0.187-0.244-0.214 0.021-0.369 0.046-0.499 0.167-0.055 0.052-0.12 0.137-0.212 0.057-0.060-0.051-0.042-0.14 0.030-0.243 0.327-0.473 0.667-0.939 0.975-1.425 0.227-0.357 0.391-0.749 0.515-1.157 0.094-0.312 0.187-0.624 0.29-0.933 0.030-0.090 0.085-0.175 0.146-0.248 0.117-0.143 0.265-0.159 0.439-0.046 0.063-0.202 0.113-0.388 0.177-0.57 0.17-0.478 0.17-0.981 0.235-1.475 0.019-0.143 0.066-0.282 0.090-0.424 0.021-0.137 0.029-0.275 0.039-0.413 0.011-0.151 0.063-0.267 0.227-0.309 0.107-0.027 0.105-0.032 0.228 0.068 0.105-0.189 0.22-0.374 0.25-0.586 0.068-0.48 0.155-0.959 0.12-1.448-0.009-0.13-0.019-0.264-0.058-0.387-0.081-0.261-0.059-0.485 0.084-0.732 0.248-0.428 0.394-0.899 0.47-1.391 0.037-0.238-0.057-0.432-0.174-0.62-0.025-0.039-0.092-0.055-0.143-0.073-0.14-0.052-0.235-0.139-0.263-0.294-0.010-0.056-0.052-0.107-0.081-0.159-0.021-0.036-0.063-0.067-0.067-0.103-0.029-0.263-0.13-0.505-0.212-0.753-0.042-0.13-0.063-0.266-0.13-0.391-0.039-0.072-0.054-0.156-0.082-0.234-0.016-0.045-0.025-0.097-0.055-0.131-0.131-0.155-0.151-0.34-0.144-0.529 0.006-0.199 0.102-0.303 0.302-0.336 0.082-0.014 0.165-0.015 0.265-0.025-0.059-0.113-0.101-0.218-0.223-0.279-0.061-0.032-0.095-0.114-0.144-0.171-0.055-0.062-0.113-0.121-0.184-0.198-0.113 0.167-0.23 0.317-0.322 0.482-0.085 0.152-0.19 0.274-0.349 0.34-0.138 0.058-0.179 0.152-0.155 0.296 0.025 0.151 0.032 0.303 0.046 0.453 0.143 0.083 0.172 0.142 0.096 0.279-0.059 0.105-0.059 0.205-0.056 0.318 0.009 0.285 0.011 0.57 0.002 0.854-0.003 0.093-0.024 0.204-0.078 0.275-0.086 0.11-0.088 0.224-0.094 0.35-0.005 0.102-0.012 0.216-0.063 0.299-0.083 0.138-0.107 0.279-0.11 0.434-0.005 0.236-0.126 0.411-0.294 0.572-0.275 0.265-0.526 0.553-0.616 0.943-0.009 0.039-0.022 0.079-0.036 0.13-0.122-0.008-0.197-0.073-0.236-0.174-0.079-0.204-0.246-0.317-0.421-0.424-0.059-0.036-0.116-0.072-0.175-0.105s-0.118-0.077-0.183-0.091c-0.275-0.059-0.551-0.046-0.827 0.001-0.039 0.006-0.086 0.022-0.112 0.050-0.118 0.125-0.268 0.132-0.424 0.13-0.104-0.001-0.208 0.007-0.313 0.008-0.177 0.004-0.341 0.032-0.474 0.169-0.106 0.109-0.245 0.156-0.396 0.158-0.224 0.003-0.419 0.1-0.6 0.212-0.217 0.134-0.431 0.278-0.585 0.492-0.043 0.059-0.114 0.1-0.172 0.149-0.096 0.080-0.191 0.16-0.288 0.239-0.153 0.127-0.314 0.245-0.458 0.384-0.168 0.163-0.321 0.343-0.482 0.514-0.028 0.030-0.063 0.071-0.097 0.074-0.238 0.021-0.482 0.075-0.705-0.075-0.061-0.042-0.137-0.062-0.198-0.101-0.079-0.052-0.162-0.104-0.226-0.173-0.106-0.113-0.218-0.175-0.38-0.171-0.41 0.010-0.82-0.002-1.229 0.002-0.159 0.002-0.289-0.026-0.35-0.195-0.013-0.036-0.056-0.059-0.085-0.089-0.106-0.105-0.107-0.131-0.031-0.262 0.019-0.032 0.022-0.074 0.035-0.112s0.015-0.093 0.041-0.11c0.123-0.078 0.096-0.187 0.072-0.296-0.035-0.162-0.064-0.326-0.113-0.484-0.079-0.253-0.042-0.51-0.042-0.765-0.001-0.11 0.050-0.212 0.144-0.289 0.068-0.056 0.123-0.129 0.207-0.219 0.033 0.088 0.070 0.152 0.083 0.221 0.064 0.354 0.265 0.618 0.536 0.84 0.114 0.093 0.231 0.107 0.367 0.052 0.165-0.065 0.336-0.117 0.531-0.183 0-0.155 0.001-0.341 0-0.527-0.001-0.131-0.001-0.254 0.076-0.378 0.063-0.102 0.069-0.238 0.104-0.357 0.022-0.079 0.049-0.158 0.076-0.237 0.032-0.095 0.107-0.123 0.198-0.116 0.086 0.008 0.144 0.064 0.157 0.144 0.015 0.096 0.018 0.194 0.012 0.291-0.013 0.176 0.016 0.343 0.067 0.51 0.022 0.072 0.023 0.15 0.032 0.225 0.012 0.103 0.052 0.183 0.186 0.224 0.019-0.071 0.042-0.133 0.052-0.196 0.022-0.123 0.031-0.248 0.057-0.37 0.046-0.218 0.133-0.251 0.319-0.14 0.076 0.046 0.161 0.076 0.242 0.112 0.099 0.044 0.196 0.071 0.276-0.066 0.039 0.088 0.067 0.149 0.1 0.225 0.039-0.014 0.078-0.028 0.144-0.052-0.123-0.11-0.116-0.224-0.085-0.35 0.033-0.134 0.046-0.274 0.072-0.41 0.019-0.103 0.036-0.208 0.143-0.261 0.187 0.087 0.37 0.174 0.563 0.264 0.036-0.024 0.073-0.049 0.127-0.085 0.029 0.074 0.056 0.141 0.085 0.216 0.084-0.009 0.158-0.049 0.086-0.123-0.098-0.101-0.069-0.2-0.055-0.309 0.020-0.157 0.039-0.316 0.056-0.474 0.012-0.106 0.032-0.206 0.137-0.284 0.042 0.024 0.089 0.049 0.134 0.076 0.030 0.018 0.065 0.060 0.086 0.054 0.184-0.055 0.28 0.106 0.419 0.174 0.105-0.105 0.038-0.213 0.026-0.316-0.012-0.102-0.024-0.204-0.039-0.324 0.255-0.002 0.312-0.187 0.367-0.368 0.115 0.032 0.181 0.092 0.226 0.186 0.090 0.187 0.172 0.238 0.311 0.211 0.148-0.028 0.265-0.177 0.272-0.351 0.002-0.049-0.008-0.098-0.003-0.146 0.015-0.153 0.083-0.202 0.242-0.202 0.074 0 0.149-0.019 0.222-0.029 0.068-0.112 0.039-0.191-0.030-0.287-0.146-0.202-0.28-0.414-0.401-0.631-0.099-0.179-0.215-0.34-0.368-0.472-0.138-0.119-0.268-0.242-0.319-0.451-0.079 0.019-0.164 0.015-0.218 0.055-0.155 0.11-0.326 0.101-0.521 0.097-0.063-0.171-0.191-0.279-0.389-0.251-0.076 0.011-0.176 0.045-0.215 0.102-0.112 0.164-0.229 0.33-0.223 0.548 0.005 0.144-0.013 0.289-0.020 0.424-0.112 0.084-0.211 0.066-0.259-0.035-0.042-0.090-0.115-0.13-0.174-0.194-0.075-0.080-0.131-0.177-0.204-0.259-0.053-0.061-0.114-0.121-0.184-0.161-0.090-0.051-0.139-0.019-0.184 0.084-0.066 0.151-0.135 0.3-0.206 0.449-0.039 0.082-0.103 0.098-0.164 0.032-0.070-0.075-0.13-0.146-0.24-0.176-0.056-0.016-0.086-0.119-0.134-0.178-0.062-0.076-0.103-0.188-0.25-0.165 0.017 0.123-0.026 0.208-0.15 0.249-0.096 0.033-0.125 0.126-0.133 0.218-0.011 0.124-0.020 0.248-0.020 0.374 0.001 0.12-0.036 0.218-0.129 0.293-0.128 0.103-0.245 0.068-0.319-0.076-0.096-0.188-0.159-0.384-0.154-0.595 0.004-0.166-0.068-0.272-0.238-0.357-0.019 0.216-0.053 0.422-0.049 0.627 0.004 0.213-0.069 0.362-0.288 0.469-0.083-0.073-0.176-0.151-0.264-0.235-0.063-0.059-0.086-0.133-0.093-0.222-0.008-0.114-0.045-0.226-0.069-0.34-0.11 0.002-0.147 0.054-0.171 0.123-0.113 0.335-0.227 0.67-0.338 1.006-0.161 0.489-0.286 0.986-0.244 1.508 0.003 0.049-0.002 0.097-0.006 0.146-0.001 0.013-0.010 0.025-0.016 0.040-0.127 0.045-0.181-0.044-0.217-0.134-0.080-0.199-0.151-0.402-0.225-0.604-0.017-0.045-0.029-0.091-0.052-0.133-0.134-0.242-0.215-0.502-0.195-0.775 0.018-0.242-0.184-0.389-0.41-0.283-0.263 0.123-0.509 0.262-0.595 0.568-0.005 0.020-0.016 0.039-0.029 0.055-0.008 0.010-0.022 0.015-0.042 0.027-0.092-0.052-0.146-0.13-0.104-0.235 0.106-0.266 0.161-0.549 0.319-0.802 0.29-0.462 0.55-0.944 0.82-1.419 0.035-0.063 0.076-0.123 0.032-0.211-0.016-0.032 0.035-0.119 0.076-0.157 0.251-0.229 0.505-0.454 0.763-0.675 0.424-0.364 0.921-0.613 1.399-0.892 0.268-0.158 0.553-0.288 0.826-0.438 0.333-0.182 0.582-0.467 0.861-0.715 0.289-0.256 0.597-0.492 0.903-0.729 0.169-0.13 0.346-0.254 0.529-0.365 0.509-0.309 1.023-0.599 1.627-0.695 0.278-0.044 0.553-0.129 0.82-0.223 0.444-0.157 0.898-0.218 1.366-0.23 0.387-0.010 0.774-0.036 1.159-0.075 0.619-0.062 1.217 0.050 1.804 0.223 0.429 0.126 0.847 0.291 1.27 0.439 0.013 0.005 0.027 0.008 0.039 0.016 0.21 0.139 0.448 0.209 0.679 0.3 0.225 0.088 0.36 0.279 0.434 0.503 0.050 0.152 0.084 0.306 0.203 0.425 0.032 0.032 0.046 0.085 0.064 0.13 0.107 0.263 0.214 0.526 0.322 0.789 0.007 0.018 0.026 0.030 0.050 0.056 0.048-0.043 0.090-0.086 0.138-0.123 0.072-0.052 0.141-0.117 0.222-0.144 0.090-0.030 0.132-0.082 0.166-0.165 0.074-0.178 0.157-0.353 0.243-0.527 0.079-0.164 0.199-0.225 0.35-0.193 0.136 0.030 0.195 0.139 0.238 0.306 0.083 0.315 0.069 0.642 0.152 0.958 0.052 0.197 0.040 0.414 0.034 0.621-0.007 0.224 0.009 0.428 0.249 0.564 0.040-0.036 0.094-0.086 0.148-0.135 0.093-0.086 0.2-0.127 0.324-0.083 0.13 0.046 0.206 0.143 0.212 0.281 0.005 0.125 0.027 0.258-0.007 0.374-0.114 0.389-0.068 0.785-0.083 1.178-0.004 0.117-0.012 0.235-0.022 0.353-0.013 0.161-0.090 0.274-0.255 0.315-0.026 0.007-0.066 0.013-0.074 0.031-0.104 0.245-0.389 0.304-0.527 0.512-0.025 0.038-0.066 0.083-0.061 0.12 0.026 0.226 0.063 0.451 0.098 0.682 0.067 0.012 0.132 0.013 0.188 0.036 0.054 0.022 0.121 0.056 0.143 0.103 0.088 0.191 0.254 0.262 0.438 0.269 0.402 0.014 0.805 0.008 1.208 0.005 0.075 0 0.15-0.025 0.252-0.042 0.015 0.163 0.042 0.326 0.043 0.489 0.005 0.381 0.005 0.762-0.009 1.142-0.007 0.185-0.068 0.368-0.076 0.553-0.019 0.431-0.104 0.851-0.199 1.269-0.050 0.221-0.14 0.434-0.223 0.647-0.104 0.265-0.347 0.291-0.526 0.064-0.055-0.070-0.105-0.144-0.165-0.21-0.139-0.153-0.283-0.3-0.424-0.451-0.090-0.096-0.215-0.11-0.384-0.032 0.008 0.043 0.010 0.091 0.023 0.136 0.076 0.253 0 0.482-0.123 0.696-0.056 0.099-0.153 0.159-0.28 0.137-0.040-0.007-0.081-0.005-0.121-0.008-0.069 0.094-0.075 0.189-0.015 0.276 0.050 0.073 0.044 0.14 0.019 0.216-0.016 0.052-0.019 0.11-0.038 0.161-0.103 0.274-0.005 0.531 0.073 0.786 0.054 0.179 0.245 0.266 0.444 0.194 0.181-0.067 0.313-0.030 0.455 0.091 0.079 0.066 0.197 0.097 0.303 0.116 0.13 0.022 0.194 0.090 0.219 0.211 0.044 0.209 0.128 0.416 0.040 0.631-0.061 0.147-0.131 0.291-0.191 0.438-0.025 0.064-0.045 0.132-0.054 0.2-0.037 0.273-0.15 0.516-0.282 0.754-0.125 0.227-0.273 0.428-0.473 0.6-0.117 0.102-0.228 0.173-0.385 0.167-0.054-0.002-0.109 0.015-0.186 0.028-0.009-0.085-0.019-0.164-0.028-0.243-0.032-0.278-0.149-0.372-0.427-0.344-0.101-0.153-0.159-0.34-0.352-0.435-0.134 0.113-0.215 0.309-0.428 0.304-0.017 0.204 0.039 0.382 0.11 0.554 0.059 0.144 0.042 0.263-0.078 0.373-0.148 0.135-0.236 0.303-0.243 0.51-0.004 0.090-0.010 0.182-0.035 0.268-0.024 0.084-0.066 0.165-0.112 0.24-0.043 0.069-0.102 0.128-0.155 0.191-0.026 0.032-0.050 0.072-0.085 0.090-0.394 0.21-0.509 0.6-0.627 0.982-0.068 0.218-0.105 0.443-0.308 0.593-0.081 0.059-0.040 0.18 0.079 0.193 0.156 0.016 0.219 0.111 0.299 0.221 0.069 0.098 0.068 0.188 0.054 0.302-0.057 0.011-0.111 0.033-0.163 0.029-0.286-0.021-0.499 0.12-0.66 0.33-0.21 0.275-0.406 0.562-0.592 0.854-0.083 0.13-0.124 0.285-0.153 0.455 0.033-0.015 0.067-0.026 0.099-0.044 0.029-0.018 0.054-0.046 0.085-0.060 0.114-0.054 0.238-0.052 0.338 0.013 0.097 0.063 0.019 0.164 0.004 0.248-0.067 0.377-0.27 0.654-0.595 0.859-0.235 0.148-0.451 0.328-0.57 0.59-0.134 0.293-0.215 0.6-0.208 0.925 0.001 0.015 0.021 0.031 0.042 0.060 0.029-0.039 0.052-0.069 0.076-0.099 0.101-0.123 0.191-0.256 0.306-0.363 0.192-0.177 0.356-0.392 0.601-0.507 0.125-0.059 0.248-0.127 0.378-0.167 0.072-0.022 0.165-0.011 0.238 0.016 0.191 0.071 0.222 0.127 0.204 0.331-0.009 0.095-0.039 0.19 0.059 0.28 0.081-0.073 0.13-0.157 0.178-0.249 0.154-0.293 0.32-0.577 0.53-0.839 0.145-0.18 0.228-0.41 0.331-0.621s0.198-0.424 0.296-0.637c0.015-0.031 0.029-0.065 0.032-0.098 0.012-0.126 0.082-0.194 0.194-0.245 0.064-0.029 0.113-0.096 0.161-0.154 0.123-0.148 0.264-0.198 0.421-0.141 0.164 0.059 0.261 0.207 0.244 0.392-0.008 0.089-0.016 0.188-0.060 0.261-0.090 0.147-0.12 0.308-0.169 0.466-0.045 0.144-0.108 0.289-0.195 0.409-0.237 0.325-0.384 0.685-0.497 1.067-0.093 0.311-0.115 0.637-0.217 0.944-0.13 0.393-0.27 0.783-0.397 1.176-0.044 0.137-0.076 0.281-0.091 0.424-0.011 0.109 0.016 0.212 0.13 0.286 0.050 0.032 0.063 0.129 0.083 0.199 0.047 0.157 0.1 0.307 0.273 0.32 0.226-0.258 0.451-0.492 0.649-0.745 0.157-0.201 0.293-0.42 0.423-0.641 0.26-0.441 0.531-0.878 0.759-1.337 0.33-0.662 0.63-1.34 0.936-2.014 0.349-0.764 0.59-1.566 0.837-2.366 0.109-0.351 0.22-0.701 0.244-1.070 0.010-0.143 0.012-0.287 0.005-0.43-0.006-0.103 0.018-0.189 0.114-0.219 0.101-0.032 0.111-0.101 0.136-0.184 0.054-0.183 0.137-0.353 0.293-0.542 0.043 0.172 0.073 0.297 0.107 0.422 0.138 0.516 0.164 1.038 0.073 1.566-0.041 0.234-0.032 0.456 0.036 0.695 0.055 0.192-0.004 0.424-0.040 0.633-0.042 0.235-0.132 0.462-0.171 0.698-0.076 0.462-0.13 0.928-0.194 1.391-0.005 0.041-0.015 0.082-0.024 0.122-0.049 0.236-0.089 0.474-0.15 0.706-0.035 0.139-0.089 0.279-0.164 0.401-0.107 0.174-0.17 0.36-0.231 0.552-0.089 0.276-0.194 0.546-0.291 0.819-0.069 0.197-0.11 0.394-0.032 0.601 0.078 0.209 0.146 0.418 0.33 0.567 0.092 0.075 0.157 0.096 0.275 0.035 0.182-0.096 0.384-0.157 0.576-0.232 0.058-0.022 0.122-0.036 0.173-0.069 0.308-0.199 0.643-0.36 0.887-0.646 0.099-0.116 0.225-0.21 0.313-0.332s0.144-0.266 0.213-0.401c0.031-0.062 0.051-0.13 0.090-0.185 0.238-0.338 0.383-0.72 0.528-1.101 0.012-0.032 0.015-0.068 0.015-0.102-0.005-0.357 0.075-0.701 0.157-1.046 0.031-0.132 0.013-0.276 0.028-0.413 0.009-0.077 0.037-0.153 0.063-0.252 0.236 0.204 0.445 0.384 0.653 0.565 0.015 0.013 0.036 0.032 0.035 0.049-0.005 0.225 0.119 0.419 0.145 0.643 0.039 0.34-0.023 0.661-0.062 0.989-0.002 0.021-0.009 0.042-0.008 0.063 0.051 0.62-0.149 1.208-0.248 1.808-0.036 0.219-0.084 0.437-0.143 0.651-0.043 0.158-0.117 0.309-0.17 0.466-0.127 0.373-0.38 0.696-0.442 1.094-0.034 0.225-0.17 0.395-0.289 0.57-0.12 0.177-0.257 0.352-0.421 0.486-0.142 0.116-0.301 0.188-0.337 0.4-0.011 0.062-0.129 0.124-0.209 0.151-0.266 0.086-0.537 0.145-0.817 0.052-0.059-0.020-0.123-0.023-0.182-0.044-0.079-0.028-0.145-0.019-0.215 0.030-0.167 0.116-0.361 0.144-0.556 0.134-0.232-0.013-0.453 0.033-0.675 0.086-0.007 0.002-0.013 0.006-0.019 0.007-0.468 0.025-0.91 0.178-1.359 0.291-0.194 0.049-0.382 0.122-0.573 0.184-0.099 0.032-0.195 0.070-0.295 0.097-0.125 0.034-0.252 0.050-0.368 0.126-0.080 0.052-0.2 0.049-0.303 0.059-0.096 0.009-0.194-0.003-0.291 0.004-0.203 0.014-0.401-0.001-0.607 0.076-0.2 0.076-0.435 0.057-0.655 0.076-0.242 0.021-0.48-0.032-0.72-0.054-0.164-0.015-0.331-0.056-0.491 0.026-0.012 0.005-0.028 0.006-0.041 0.006-0.491-0.009-0.984 0.071-1.472-0.017-0.176-0.032-0.345-0.1-0.517-0.153-0.046-0.014-0.093-0.045-0.137-0.040-0.259 0.028-0.492-0.063-0.726-0.144-0.167-0.058-0.251-0.21-0.355-0.337-0.017-0.021-0.028-0.046-0.039-0.067-0.316 0.035-0.472-0.039-0.61-0.32-0.103-0.211-0.25-0.381-0.417-0.54-0.151-0.144-0.295-0.292-0.356-0.503-0.018-0.062-0.073-0.116-0.12-0.166-0.102-0.113-0.225-0.21-0.309-0.333-0.072-0.104-0.107-0.235-0.15-0.357-0.028-0.076-0.025-0.167-0.067-0.233-0.080-0.127-0.123-0.261-0.138-0.408-0.007-0.066-0.022-0.144-0.061-0.192-0.108-0.135-0.13-0.29-0.129-0.451 0.002-0.576 0.003-1.152 0.015-1.729 0.002-0.115 0.043-0.23 0.076-0.342 0.029-0.096 0.105-0.149 0.203-0.153 0.108-0.005 0.193 0.048 0.224 0.152 0.036 0.125 0.068 0.254 0.079 0.384 0.008 0.095 0.032 0.162 0.1 0.235 0.094 0.099 0.16 0.225 0.239 0.337 0.059 0.083 0.122 0.164 0.183 0.246 0.015-0.004 0.029-0.008 0.043-0.011z"></path>
</svg>
