<!-- Generated by IcoMoon.io -->
<svg version="1.1" xmlns="http://www.w3.org/2000/svg" width="32" height="32" viewBox="0 0 32 32">
<title>treasure-supplies</title>
<path fill="#fff" d="M17.599 31.873c-0.18-0.090-0.657-0.373-1.056-0.631s-0.824-0.476-0.94-0.476c-0.116 0-0.232-0.090-0.27-0.193-0.052-0.129-0.258-0.193-0.579-0.193-0.464 0-0.502-0.026-0.502-0.348 0-0.438 0.167-0.708 0.386-0.657 0.090 0.026 0.18-0.077 0.206-0.219 0.013-0.142 0.116-0.309 0.219-0.386 0.103-0.064 0.219-0.399 0.27-0.734s0.142-0.644 0.219-0.682c0.064-0.052 0.116-0.348 0.116-0.67 0-0.464 0.064-0.657 0.335-0.889 0.18-0.167 0.386-0.309 0.476-0.309s0.077 0.052-0.039 0.129c-0.142 0.090-0.155 0.129-0.026 0.129 0.103 0 0.206-0.116 0.245-0.258 0.039-0.167 0.18-0.258 0.373-0.258 0.167 0 0.309-0.052 0.309-0.129 0-0.064 0.142-0.129 0.322-0.129s0.322-0.064 0.322-0.129c0-0.077 0.103-0.18 0.232-0.219 0.116-0.052 0.283-0.155 0.373-0.219 0.412-0.361 0.528-0.438 0.785-0.515 0.142-0.052 0.476-0.309 0.721-0.567 1.481-1.545 2.009-2.176 2.009-2.369 0-0.116 0.090-0.296 0.193-0.412 0.103-0.103 0.193-0.245 0.193-0.309 0-0.077 0.077-0.296 0.18-0.502 0.245-0.489 0.425-0.94 0.528-1.288 0.052-0.167 0.142-0.296 0.206-0.296s0.116-0.283 0.116-0.631c0-0.657 0.116-0.785 0.657-0.785 0.142 0 0.283-0.077 0.322-0.18 0.064-0.18 0.515-0.18 0.682 0 0.039 0.052-0.026 0.052-0.155 0.013-0.129-0.052-0.206-0.039-0.167 0.026 0.052 0.064 0.322 0.090 0.631 0.064 0.296-0.026 0.438-0.013 0.309 0.026-0.18 0.064-0.206 0.116-0.077 0.258 0.077 0.103 0.232 0.18 0.322 0.18 0.103 0 0.18 0.064 0.18 0.129 0 0.077 0.052 0.129 0.116 0.129 0.077 0 0.322 0.18 0.554 0.386 0.232 0.219 0.489 0.386 0.579 0.386s0.167 0.064 0.167 0.129c0 0.077 0.142 0.129 0.309 0.129 0.18 0 0.361 0.052 0.399 0.129 0.052 0.077-0.013 0.090-0.142 0.039-0.155-0.052-0.193-0.039-0.129 0.064 0.052 0.090 0.206 0.155 0.348 0.155 0.129 0 0.245 0.052 0.245 0.129 0 0.064 0.142 0.155 0.322 0.206 0.18 0.039 0.322 0.129 0.322 0.193s0.309 0.116 0.682 0.116c0.605 0 0.734 0.052 1.030 0.386 0.438 0.476 0.438 0.811 0.026 1.082-0.18 0.116-0.322 0.27-0.322 0.361 0 0.077-0.090 0.206-0.193 0.283s-0.206 0.322-0.219 0.554c-0.013 0.219-0.077 0.373-0.129 0.348-0.052-0.039-0.103 0.052-0.103 0.193 0 0.206-0.077 0.27-0.322 0.27-0.167 0-0.361-0.090-0.412-0.193-0.064-0.116-0.335-0.206-0.644-0.232-0.296-0.013-0.502-0.077-0.464-0.129 0.039-0.064 0.167-0.090 0.296-0.052 0.155 0.039 0.219-0.013 0.206-0.219-0.013-0.232-0.077-0.27-0.528-0.232-0.631 0.064-0.708 0.129-0.412 0.335 0.258 0.193 0.283 0.335 0.064 0.335-0.155 0-1.275 0.682-1.674 1.030-0.129 0.103-0.232 0.283-0.232 0.412 0 0.116-0.064 0.258-0.155 0.309-0.090 0.064-0.103 0.039-0.039-0.077s0.052-0.142-0.039-0.077c-0.090 0.052-0.155 0.18-0.155 0.283s-0.052 0.18-0.129 0.18c-0.064 0-0.167 0.155-0.206 0.361-0.052 0.193-0.142 0.412-0.206 0.502s-0.116 0.618-0.116 1.185c0 0.579-0.052 1.043-0.116 1.043s-0.103-0.219-0.090-0.476c0.026-0.412-0.013-0.489-0.219-0.489-0.142 0-0.27 0.077-0.296 0.167-0.039 0.077 0.026 0.155 0.142 0.155 0.129 0 0.206 0.116 0.206 0.322 0 0.27-0.064 0.322-0.386 0.322-0.206 0-0.386-0.052-0.386-0.103 0-0.206-1.159-0.386-1.713-0.27-0.644 0.142-1.919 0.747-2.060 0.979-0.052 0.090-0.18 0.167-0.283 0.167-0.090 0-0.206 0.116-0.258 0.245-0.039 0.142-0.155 0.283-0.258 0.322s-0.193 0.155-0.193 0.27c0 0.103-0.052 0.193-0.103 0.193-0.193 0-0.541 0.76-0.541 1.198 0 0.258-0.052 0.476-0.116 0.502-0.077 0.026-0.155 0.206-0.193 0.412-0.090 0.476-0.103 0.489-0.464 0.283zM18.063 30.946c-0.039-0.116-0.077-0.27-0.077-0.361 0-0.103-0.116-0.155-0.309-0.116-0.219 0.052-0.296 0.142-0.27 0.335 0.039 0.373 0.013 0.348 0.399 0.348 0.258 0 0.322-0.052 0.258-0.206zM14.599 29.645c-0.052-0.039-0.129-0.039-0.18 0-0.039 0.052 0 0.090 0.090 0.090s0.129-0.039 0.090-0.090zM25.326 21.056c0-0.103 0.064-0.206 0.155-0.232 0.090-0.039 0.155-0.283 0.142-0.567 0-0.785-0.077-1.095-0.219-0.953-0.077 0.077-0.18 0.077-0.296-0.013-0.129-0.116-0.167-0.013-0.18 0.541-0.013 0.592-0.039 0.631-0.116 0.309-0.064-0.258-0.103-0.296-0.116-0.129-0.026 0.464 0.245 1.223 0.438 1.223 0.103 0 0.193-0.077 0.193-0.18zM25.583 18.648c0-0.077 0.090-0.219 0.193-0.322 0.103-0.116 0.193-0.373 0.193-0.579 0-0.348-0.039-0.373-0.476-0.373-0.631 0-0.94 0.296-0.94 0.927 0 0.489 0 0.489 0.515 0.489 0.283 0 0.515-0.064 0.515-0.142z"></path>
<path fill="#fff" d="M8.328 25.988c-0.605-0.039-1.249-0.142-1.442-0.219-0.18-0.077-0.657-0.155-1.056-0.167-0.386-0.013-0.695-0.090-0.682-0.155 0.013-0.077-0.167-0.155-0.412-0.18-0.502-0.039-1.429-0.425-1.429-0.579 0-0.052-0.090-0.103-0.193-0.103s-0.193-0.052-0.193-0.129c0-0.064-0.142-0.155-0.322-0.206-0.18-0.039-0.322-0.129-0.322-0.193s-0.090-0.116-0.193-0.116c-0.103 0-0.193-0.052-0.193-0.129 0-0.064-0.142-0.155-0.322-0.206-0.18-0.039-0.322-0.155-0.322-0.258s-0.129-0.18-0.296-0.18c-0.206 0-0.296-0.077-0.309-0.258-0.026-0.27 0.142-0.348 0.283-0.129 0.039 0.077 0.425 0.129 0.837 0.129s0.798 0.064 0.837 0.129c0.039 0.077 0.451 0.129 0.914 0.129s0.824-0.052 0.824-0.129c0-0.077 0.644-0.129 1.674-0.129 1.442 0 1.674-0.026 1.79-0.219 0.077-0.129 0.142-0.155 0.142-0.077 0 0.116 0.090 0.129 0.335 0.039 0.18-0.077 0.502-0.129 0.708-0.129s0.412-0.077 0.451-0.18c0.039-0.103 0.167-0.155 0.322-0.116 0.129 0.039 0.386-0.026 0.567-0.142 0.167-0.116 0.425-0.206 0.579-0.206 0.142 0 0.258-0.052 0.258-0.129 0-0.064 0.155-0.167 0.361-0.206 0.399-0.103 1.558-0.682 1.803-0.914 0.090-0.090 0.258-0.167 0.348-0.167 0.103 0 0.232-0.090 0.296-0.206 0.103-0.18 0.129-0.18 0.193-0.013 0.039 0.116-0.013 0.232-0.116 0.27s-0.18 0.129-0.18 0.206c0 0.077 0.116 0.026 0.27-0.116s0.232-0.309 0.193-0.386c-0.064-0.090-0.013-0.103 0.129-0.052 0.167 0.064 0.206 0.039 0.142-0.116-0.077-0.219 0.27-0.618 0.528-0.618 0.090 0 0.155-0.077 0.155-0.18s0.090-0.206 0.193-0.258c0.103-0.039 0.193-0.155 0.193-0.258 0-0.116 0.142-0.232 0.322-0.283 0.232-0.052 0.322-0.167 0.322-0.386 0-0.167 0.064-0.309 0.129-0.309 0.129 0 0.901-1.519 0.901-1.79 0-0.348 0.515-0.721 0.94-0.67 0.695 0.064 0.953 0.695 0.489 1.185-0.193 0.206-0.373 0.258-0.811 0.232l-0.554-0.039 0.039 0.76c0.013 0.425 0.103 0.901 0.18 1.056 0.103 0.219 0.090 0.399-0.077 0.811-0.258 0.644-0.27 1.339-0.026 1.545 0.103 0.077 0.206 0.309 0.232 0.489 0.052 0.489 0.399 0.399 1.082-0.27 0.296-0.296 0.618-0.605 0.721-0.682 0.296-0.245 0.876-0.94 0.876-1.056 0-0.064 0.219-0.219 0.489-0.361 0.258-0.129 0.528-0.322 0.579-0.399 0.052-0.090 0.219-0.167 0.348-0.167 0.155 0 0.27-0.090 0.283-0.219 0.026-0.438-0.052-1.004-0.167-1.12-0.18-0.193-0.142-0.438 0.116-0.695 0.193-0.206 0.258-0.206 0.644-0.039 0.219 0.116 0.425 0.283 0.425 0.399 0.026 0.361-0.039 0.708-0.155 0.824-0.064 0.077-0.116 0.309-0.116 0.541 0 0.219-0.090 0.476-0.193 0.567s-0.193 0.258-0.193 0.373c0 0.116-0.090 0.322-0.193 0.451-0.103 0.142-0.193 0.361-0.193 0.489s-0.052 0.232-0.129 0.232c-0.064 0-0.129 0.116-0.129 0.258 0 0.129-0.167 0.425-0.386 0.644-0.206 0.219-0.386 0.451-0.386 0.515 0 0.206-1.777 1.932-1.996 1.932-0.116 0-0.232 0.090-0.27 0.193-0.052 0.103-0.219 0.193-0.386 0.193s-0.309 0.064-0.309 0.129c0 0.077-0.090 0.129-0.193 0.129-0.116 0-0.232 0.090-0.27 0.193-0.052 0.103-0.18 0.193-0.309 0.193s-0.296 0.090-0.386 0.193c-0.090 0.103-0.361 0.193-0.592 0.193-0.245 0-0.438 0.052-0.438 0.116s-0.142 0.155-0.322 0.193c-0.18 0.052-0.322 0.129-0.322 0.193 0 0.052-0.335 0.116-0.734 0.129-0.425 0.013-0.824 0.103-0.94 0.206-0.167 0.155-1.262 0.27-2.060 0.206-0.103-0.013-0.631 0-1.159 0.013-0.528 0.026-1.455 0-2.060-0.039zM13.878 21.198c-0.129-0.116-0.142-0.103-0.064 0.077 0.039 0.129 0.116 0.193 0.155 0.155s0-0.142-0.090-0.232z"></path>
<path fill="#fff" d="M18.063 20.889c-0.103-0.27 0.039-1.301 0.193-1.404 0.064-0.039 0.116-0.502 0.116-1.030 0-0.901 0.026-0.992 0.386-1.339 0.219-0.219 0.425-0.386 0.451-0.386 0.18 0 0.579-0.476 0.579-0.682 0-0.67-0.914-1.378-1.777-1.378-0.155 0-0.283-0.052-0.283-0.129 0-0.064-0.142-0.155-0.322-0.206-0.232-0.052-0.322-0.167-0.322-0.399 0-0.309 0.039-0.322 0.554-0.258 0.618 0.077 1.584 0.322 1.919 0.489 0.129 0.064 0.425 0.116 0.657 0.116s0.528 0.077 0.67 0.18c0.142 0.090 0.438 0.206 0.644 0.245 0.824 0.167 1.61 0.412 1.61 0.502 0 0.064 0.232 0.103 0.502 0.103 0.695 0 1.21 0.502 0.708 0.695-0.554 0.219-1.854-0.116-1.854-0.464 0-0.052-0.142-0.103-0.322-0.103s-0.322 0.077-0.322 0.167c0 0.077-0.18 0.348-0.386 0.592-0.438 0.489-0.476 0.682-0.193 0.914 0.103 0.090 0.193 0.361 0.193 0.592 0 0.309-0.064 0.438-0.193 0.438-0.103 0-0.193 0.064-0.193 0.129 0 0.077-0.116 0.129-0.258 0.129s-0.296 0.090-0.335 0.193c-0.052 0.103-0.129 0.193-0.206 0.193-0.167 0-0.489 0.335-0.489 0.502 0 0.077-0.090 0.142-0.193 0.142s-0.193 0.064-0.193 0.142c0 0.077-0.232 0.373-0.515 0.644-0.283 0.283-0.515 0.592-0.515 0.695 0 0.258-0.206 0.245-0.309-0.026zM20.484 17.824c0.399-0.605-0.309-1.365-0.837-0.889-0.129 0.116-0.245 0.296-0.245 0.399 0 0.090-0.064 0.167-0.129 0.167-0.206 0 0.245 0.618 0.489 0.682 0.322 0.064 0.502-0.026 0.721-0.361z"></path>
<path fill="#fff" d="M19.789 17.567c0-0.116 0.064-0.193 0.142-0.167s0.142 0.103 0.142 0.167c0 0.064-0.064 0.142-0.142 0.167s-0.142-0.052-0.142-0.167z"></path>
<path fill="#fff" d="M12.578 19.511c0-0.026 0.090-0.090 0.206-0.129 0.103-0.039 0.155-0.026 0.116 0.052-0.077 0.129-0.322 0.18-0.322 0.077z"></path>
<path fill="#fff" d="M13.479 19.151c-0.296-0.399-0.515-0.464-0.515-0.167 0 0.232-0.386 0.258-0.399 0.039 0-0.090-0.013-0.425-0.026-0.747s-0.090-0.567-0.155-0.554c-0.077 0.013-0.155-0.335-0.167-0.811-0.026-0.451-0.129-0.992-0.232-1.185-0.090-0.193-0.18-0.425-0.18-0.502 0-0.090-0.052-0.167-0.129-0.167-0.064 0-0.129-0.077-0.129-0.18s-0.090-0.206-0.193-0.258c-0.103-0.039-0.193-0.219-0.193-0.399s-0.052-0.322-0.116-0.322c-0.064 0-0.167-0.116-0.206-0.258s-0.232-0.296-0.412-0.335c-0.283-0.077-0.296-0.103-0.103-0.206 0.155-0.090 0.193-0.219 0.129-0.451-0.052-0.232-0.026-0.296 0.077-0.219 0.103 0.052 0.116 0.039 0.064-0.052-0.052-0.077-0.245-0.116-0.451-0.077-0.232 0.052-0.425 0-0.567-0.129-0.103-0.116-0.399-0.206-0.631-0.206-0.386 0-0.438-0.052-0.592-0.515-0.116-0.373-0.116-0.592-0.026-0.773 0.064-0.129 0.129-0.528 0.129-0.889s0.064-0.657 0.129-0.657c0.077 0 0.129-0.232 0.129-0.515 0-0.502 0.077-0.579 0.489-0.528 0.27 0.039 0.541-0.335 0.541-0.773 0-0.412 0.438-1.275 0.657-1.275 0.064 0 0.116-0.116 0.116-0.258 0-0.335 0.348-1.030 0.515-1.030 0.077 0 0.129-0.077 0.129-0.18 0-0.090 0.090-0.245 0.193-0.335 0.116-0.090 0.18-0.245 0.142-0.348-0.039-0.090 0.013-0.167 0.116-0.167s0.193-0.052 0.193-0.129c0-0.064-0.077-0.129-0.155-0.129-0.090 0-0.026-0.090 0.142-0.206s0.373-0.412 0.476-0.644c0.167-0.386 0.155-0.476-0.077-0.901-0.322-0.554-0.232-0.734 0.142-0.322 0.335 0.361 0.554 0.296 0.605-0.167 0.026-0.245-0.052-0.451-0.219-0.605-0.27-0.258-0.361-0.451-0.155-0.322 0.064 0.039 0.18-0.013 0.27-0.116 0.193-0.232 0.889-0.245 1.172-0.026 0.116 0.090 0.245 0.283 0.296 0.451 0.064 0.193 0.193 0.283 0.399 0.283 0.167 0 0.348 0.052 0.386 0.129 0.052 0.077-0.013 0.090-0.155 0.039-0.155-0.052-0.103 0.039 0.129 0.258 0.335 0.322 0.451 0.348 1.545 0.373 1.095 0.013 1.12 0.026 0.412 0.090l-0.773 0.077 0.631 0.103c0.348 0.052 0.927 0.090 1.288 0.103 0.489 0 0.592 0.039 0.399 0.116-0.232 0.103-0.219 0.116 0.103 0.116 0.193 0.013 0.464-0.052 0.605-0.142 0.245-0.155 0.335-0.142 1.326 0.361 0.206 0.103 0.476 0.18 0.618 0.18s0.348 0.052 0.476 0.116c0.116 0.077 0.451 0.167 0.734 0.206 0.412 0.077 0.464 0.116 0.283 0.206-0.129 0.077-0.219 0.283-0.219 0.502 0 0.245-0.064 0.373-0.155 0.348-0.103-0.013-0.18 0.155-0.206 0.425-0.026 0.245-0.103 0.502-0.167 0.579-0.064 0.064-0.116 0.322-0.116 0.579 0 0.708-0.129 0.798-1.056 0.785-0.734-0.013-0.876 0.026-1.236 0.348-0.219 0.193-0.425 0.502-0.476 0.682-0.090 0.386-0.592 0.708-0.901 0.579-0.116-0.039-0.18-0.026-0.129 0.039 0.039 0.064 0 0.193-0.090 0.296-0.464 0.476-0.734 1.764-0.399 1.867 0.064 0.026 0.103 0.399 0.090 0.85-0.026 0.785-0.026 0.785 0.064 0.155 0.064-0.464 0.116-0.579 0.193-0.425 0.103 0.232 0.052 0.837-0.129 1.584-0.103 0.489-0.412 0.837-0.708 0.837-0.502 0-0.657 0.837-0.232 1.21 0.232 0.193 0.27 0.335 0.206 0.889-0.026 0.361-0.129 0.682-0.206 0.708s-0.142 0.18-0.142 0.348c0 0.155-0.090 0.361-0.193 0.451s-0.193 0.245-0.193 0.348c0 0.193-0.090 0.322-0.67 0.953-0.206 0.206-0.361 0.412-0.361 0.451 0 0.219-0.773 0.798-1.12 0.85-0.335 0.052-0.464-0.013-0.682-0.309zM10.865 12.648c-0.052-0.039-0.129-0.039-0.18 0-0.039 0.052 0 0.090 0.090 0.090s0.129-0.039 0.090-0.090zM12.191 7.755c0.335-0.283 0.386-0.425 0.386-0.966 0-0.528 0.064-0.695 0.373-1.017 0.206-0.206 0.464-0.373 0.567-0.373 0.412 0 1.378-0.631 1.378-0.889 0-0.245 0.979-0.167 1.172 0.090 0.167 0.193 0.155 0.206-0.052 0.039-0.116-0.103-0.258-0.142-0.296-0.103-0.052 0.039 0.129 0.18 0.373 0.296 0.451 0.219 0.476 0.219 1.236-0.155 0.438-0.206 0.785-0.451 0.785-0.541s0.052-0.142 0.103-0.103c0.193 0.116 0.541-0.438 0.541-0.876 0-0.386-0.052-0.451-0.386-0.528-0.206-0.052-0.386-0.129-0.386-0.193s-0.386-0.103-0.863-0.077c-0.682 0.013-0.94-0.026-1.185-0.206-0.167-0.129-0.438-0.232-0.605-0.232s-0.309-0.052-0.309-0.129c0-0.064-0.167-0.129-0.386-0.129-0.361 0-0.464 0.142-0.399 0.554 0.013 0.064-0.039 0.077-0.103 0.026-0.167-0.090-0.927 0.219-1.21 0.502-0.116 0.129-0.219 0.386-0.219 0.592s-0.052 0.399-0.116 0.438c-0.064 0.052-0.090-0.052-0.052-0.193 0.052-0.206 0.026-0.258-0.103-0.219-0.103 0.026-0.206 0.193-0.219 0.348-0.026 0.167-0.206 0.451-0.386 0.644-0.193 0.18-0.579 0.798-0.863 1.365s-0.592 1.107-0.67 1.198c-0.232 0.232-0.206 0.541 0.026 0.541 0.103 0 0.193 0.064 0.193 0.142 0 0.258 0.425 0.489 0.876 0.502 0.27 0 0.541-0.116 0.798-0.348zM15.629 5.694c-0.052-0.039-0.129-0.039-0.18 0-0.039 0.052 0 0.090 0.090 0.090s0.129-0.039 0.090-0.090zM15.616 5.282c0-0.142-0.052-0.219-0.103-0.193-0.052 0.039-0.103 0.155-0.103 0.258s0.052 0.18 0.103 0.18c0.052 0 0.103-0.116 0.103-0.245zM13.994 1.471c0-0.258-0.322-0.245-0.567 0.013-0.232 0.219-0.27 0.361-0.077 0.245 0.077-0.039 0.129-0.013 0.129 0.064 0 0.103 0.077 0.103 0.258 0 0.142-0.077 0.258-0.219 0.258-0.322z"></path>
<path fill="#fff" d="M24.141 16.511c0.090-0.039 0.206-0.026 0.245 0.013 0.052 0.039-0.026 0.077-0.167 0.064-0.142 0-0.18-0.039-0.077-0.077z"></path>
<path fill="#fff" d="M25.197 15.893c0-0.103-0.052-0.193-0.129-0.193-0.064 0-0.129-0.129-0.129-0.283 0-0.167-0.090-0.412-0.193-0.541-0.309-0.412-0.245-1.043 0.167-1.481 0.193-0.206 0.412-0.464 0.502-0.554 0.27-0.296 0.605-0.554 0.747-0.567 0.064-0.013 0.206-0.026 0.309-0.039 0.090 0 0.142-0.090 0.103-0.193-0.039-0.090-0.013-0.232 0.039-0.283 0.077-0.077 0.039-0.258-0.064-0.438s-0.232-0.425-0.27-0.541c-0.052-0.142-0.219-0.232-0.386-0.232s-0.309-0.064-0.309-0.142c0-0.090-0.116-0.116-0.283-0.077-0.193 0.052-0.386-0.013-0.579-0.193-0.232-0.219-0.335-0.245-0.451-0.129-0.18 0.18-0.785 0.206-1.107 0.039-0.476-0.245-1.223-0.412-2.086-0.489-0.502-0.039-0.94-0.129-0.992-0.206-0.039-0.064 0.155-0.103 0.515-0.077 0.322 0.026 0.554 0 0.515-0.052s-0.412-0.090-0.85-0.077c-0.502 0.026-0.798-0.026-0.837-0.116-0.026-0.090-0.309-0.155-0.682-0.155-0.451 0-0.631-0.052-0.631-0.18 0-0.116 0.129-0.167 0.399-0.155 0.219 0.013 0.489-0.052 0.592-0.155 0.167-0.167 0.206-0.167 0.322-0.013 0.090 0.129 0.103 0.013 0.052-0.373-0.052-0.373-0.039-0.528 0.052-0.476 0.064 0.039 0.129-0.013 0.129-0.116 0-0.142 0.116-0.206 0.361-0.206 0.193 0 0.425-0.064 0.489-0.129 0.206-0.206 0.528-0.026 0.618 0.335 0.116 0.425 0.489 0.399 0.94-0.090 0.193-0.232 0.464-0.515 0.592-0.644 0.27-0.296 0.773-0.322 1.043-0.039 0.116 0.116 0.206 0.412 0.206 0.708 0 0.451 0.039 0.502 0.322 0.502 0.206 0 0.322-0.077 0.322-0.193 0-0.155 0.167-0.193 0.721-0.193 0.399 0 0.682 0.052 0.631 0.116-0.039 0.064 0.039 0.142 0.155 0.167 0.18 0.039 0.232 0.167 0.232 0.682 0 0.605 0.026 0.644 0.361 0.682 0.193 0.026 0.348-0.013 0.348-0.090s0.129-0.142 0.296-0.142c0.348 0.013 0.734 0.76 0.734 1.429 0 0.464-0.489 1.172-0.889 1.301-0.103 0.026-0.193 0.18-0.206 0.335-0.013 0.232 0.052 0.283 0.348 0.283 0.361 0 0.361 0.013 0.361 0.747-0.013 0.528-0.077 0.811-0.245 1.030-0.258 0.283-0.785 0.399-0.785 0.142 0-0.077-0.206-0.116-0.476-0.090-0.399 0.026-0.502 0.090-0.528 0.335-0.026 0.155 0 0.283 0.064 0.27 0.425-0.077 0.554 0.039 0.554 0.464 0 0.245-0.103 0.567-0.219 0.708-0.27 0.309-0.811 0.348-0.811 0.064z"></path>
<path fill="#fff" d="M23.587 14.798c-0.039-0.064-0.245-0.129-0.438-0.129-0.206 0-0.541-0.090-0.734-0.193-0.206-0.103-0.502-0.193-0.657-0.193s-0.322-0.052-0.361-0.129c-0.039-0.064-0.27-0.129-0.502-0.129s-0.528-0.090-0.67-0.193c-0.129-0.103-0.412-0.193-0.631-0.193-0.206 0-0.502-0.090-0.631-0.193-0.142-0.103-0.412-0.193-0.618-0.193-0.296 0-0.361-0.052-0.361-0.309 0-0.167 0.090-0.335 0.193-0.373 0.129-0.052 0.193-0.322 0.219-0.889 0.026-0.644 0.077-0.798 0.232-0.76 0.103 0.026 0.386 0.052 0.618 0.039 0.219 0 0.451 0.052 0.489 0.116s0.348 0.116 0.682 0.116c0.399 0 0.682 0.064 0.785 0.193 0.103 0.116 0.386 0.193 0.721 0.193 0.309 0 0.567 0.052 0.567 0.116s0.232 0.155 0.515 0.206c0.283 0.052 0.541 0.142 0.592 0.206 0.039 0.064 0.258 0.116 0.489 0.116 0.554 0 0.979 0.425 0.747 0.747-0.090 0.116-0.193 0.322-0.232 0.451-0.052 0.116-0.129 0.219-0.18 0.219s-0.129 0.296-0.18 0.644c-0.064 0.515-0.129 0.644-0.335 0.644-0.129 0-0.283-0.052-0.322-0.129zM18.758 11.721c0-0.142-0.052-0.283-0.116-0.322s-0.103 0.064-0.090 0.245c0.013 0.373 0.206 0.438 0.206 0.077z"></path>
<path fill="#fff" d="M24.811 12.107c-0.348-0.193-1.082-0.425-1.519-0.489-0.232-0.039-0.451-0.116-0.489-0.18s-0.193-0.116-0.348-0.116c-0.167 0-0.399-0.077-0.541-0.18-0.142-0.090-0.399-0.206-0.579-0.245s-0.657-0.155-1.056-0.258c-0.412-0.103-0.785-0.142-0.824-0.103-0.052 0.039-0.052 0.013-0.013-0.064 0.064-0.103-0.142-0.18-0.605-0.232-0.695-0.090-0.914-0.27-0.734-0.579 0.116-0.193 1.532-0.167 1.648 0.026 0.039 0.077 0.013 0.090-0.064 0.039-0.090-0.052-0.155-0.039-0.155 0.013 0 0.064 0.335 0.129 0.734 0.142 0.412 0.013 0.798 0.090 0.863 0.155 0.077 0.077 0.309 0.129 0.528 0.129s0.515 0.090 0.657 0.193c0.129 0.103 0.476 0.193 0.76 0.193s0.657 0.090 0.837 0.193c0.18 0.103 0.67 0.18 1.133 0.193 0.438 0 0.798 0.052 0.798 0.129s0.077 0.129 0.18 0.129c0.103 0 0.232 0.064 0.27 0.142 0.103 0.155-0.296 0.631-0.541 0.631-0.090 0-0.167 0.064-0.167 0.129 0 0.155-0.502 0.155-0.773 0.013z"></path>
<path fill="#fff" d="M26.227 12.094c0-0.090 0.039-0.129 0.090-0.090 0.039 0.052 0.039 0.129 0 0.18-0.052 0.039-0.090 0-0.090-0.090z"></path>
<path fill="#fff" d="M5.366 11.077c-0.296-0.077-0.322-0.155-0.361-0.979-0.013-0.502 0.013-1.133 0.077-1.416 0.090-0.464 0.142-0.515 0.476-0.489 0.219 0.026 0.399 0.090 0.425 0.167 0.064 0.18 1.223 0.167 1.416-0.026 0.077-0.077 0.193-0.116 0.245-0.064 0.142 0.155 0.18 1.507 0.039 1.738-0.090 0.167-0.116 0.090-0.064-0.296 0.039-0.348 0.013-0.451-0.064-0.309-0.064 0.103-0.129 0.554-0.142 0.992-0.026 0.554-0.077 0.76-0.167 0.67-0.167-0.167-1.236-0.167-1.236 0 0 0.142-0.167 0.142-0.644 0.013z"></path>
<path fill="#fff" d="M22.763 3.518c0-0.142 0.039-0.18 0.077-0.077 0.039 0.090 0.026 0.206-0.013 0.245-0.039 0.052-0.077-0.026-0.064-0.167z"></path>
<path fill="#fff" d="M12.191 0.762c0-0.090 0.039-0.129 0.090-0.090 0.039 0.052 0.039 0.129 0 0.18-0.052 0.039-0.090 0-0.090-0.090z"></path>
</svg>
