<!-- Generated by IcoMoon.io -->
<svg version="1.1" xmlns="http://www.w3.org/2000/svg" width="32" height="32" viewBox="0 0 32 32">
<title>treasure-skull</title>
<path fill="#fff" d="M15.344 31.839c0.013-0.395-0.051-0.612-0.166-0.612-0.076 0-0.255-0.115-0.408-0.255-0.153-0.127-0.319-0.217-0.382-0.178-0.051 0.038-0.102-0.089-0.102-0.268 0-0.191 0.051-0.306 0.127-0.255 0.076 0.038 0.127-0.064 0.127-0.229 0-0.178-0.089-0.357-0.204-0.395-0.28-0.115-0.306-0.102-0.319 0.153 0 0.127-0.038 0.153-0.076 0.064-0.076-0.204-0.548 0.026-0.548 0.255 0 0.089 0.051 0.076 0.127-0.038 0.089-0.14 0.127-0.051 0.127 0.357 0 0.293-0.051 0.535-0.127 0.535-0.064 0-0.089-0.102-0.038-0.217 0.051-0.153-0.013-0.115-0.178 0.076l-0.255 0.319-0.089-0.28c-0.051-0.14-0.051-0.51-0.013-0.803 0.064-0.382 0.025-0.561-0.089-0.637-0.127-0.089-0.115-0.115 0.051-0.115 0.115 0 0.242 0.076 0.268 0.166 0.038 0.089 0.076 0.064 0.076-0.076 0.013-0.191-0.076-0.217-0.497-0.191-0.472 0.026-0.51 0.051-0.51 0.395 0 0.191-0.051 0.331-0.102 0.293-0.204-0.115-0.535 0.433-0.535 0.879 0 0.497-0.204 0.701-0.319 0.319-0.038-0.14-0.127-0.255-0.166-0.255-0.051 0-0.204-0.217-0.344-0.472-0.127-0.268-0.306-0.574-0.395-0.676s-0.178-0.446-0.217-0.765c-0.166-1.326-0.306-1.988-0.459-2.294-0.178-0.331-0.586-0.765-0.727-0.765-0.166 0-0.714-0.51-0.548-0.51 0.497-0.026-0.905-0.51-1.44-0.51-0.472 0-0.612-0.051-0.612-0.204 0-0.102-0.051-0.153-0.127-0.115-0.064 0.038-0.127 0.013-0.127-0.064s-0.14-0.268-0.319-0.433c-0.178-0.166-0.319-0.357-0.319-0.446 0-0.076-0.051-0.14-0.115-0.14s-0.153-0.166-0.204-0.37c-0.038-0.204-0.166-0.446-0.268-0.535-0.102-0.076-0.178-0.217-0.178-0.306 0-0.102-0.064-0.191-0.127-0.217-0.076-0.026 0.013-0.191 0.191-0.382s0.319-0.459 0.319-0.612c0-0.14 0.089-0.255 0.191-0.255s0.191-0.089 0.191-0.191c0-0.102 0.051-0.191 0.115-0.191s0.153-0.178 0.204-0.382c0.051-0.217 0.14-0.357 0.204-0.306 0.127 0.076 0.191-2.192 0.127-4.474-0.038-1.402 0.115-2.294 0.306-1.81 0.051 0.115 0.153 0.217 0.242 0.217 0.076 0 0.153 0.115 0.166 0.255s0.255 0.472 0.535 0.727c0.331 0.293 0.523 0.574 0.523 0.765 0 0.166 0.064 0.408 0.153 0.535 0.115 0.191 0.115 0.319 0 0.586-0.089 0.178-0.153 0.433-0.153 0.574 0 0.127-0.076 0.319-0.178 0.408-0.497 0.484-0.981 0.867-1.096 0.867-0.064 0-0.127 0.14-0.127 0.306 0 0.28 0.064 0.293 0.918 0.37 1.083 0.089 1.313-0.064 1.453-0.93 0.051-0.28 0.14-0.548 0.191-0.586 0.153-0.089 0.14-2.167-0.013-2.447-0.064-0.115-0.217-0.433-0.331-0.701s-0.535-0.816-0.93-1.211c-0.395-0.395-0.701-0.765-0.688-0.816 0.026-0.051-0.102-0.102-0.28-0.102-0.204 0-0.319-0.076-0.319-0.204 0-0.102 0.051-0.166 0.115-0.127s0.153-0.076 0.191-0.255c0.089-0.331 0.727-1.071 0.93-1.071 0.051 0 0.306-0.229 0.548-0.51s0.548-0.51 0.676-0.51c0.115 0 0.217-0.051 0.217-0.127 0-0.064 0.14-0.153 0.319-0.204 0.178-0.038 0.319-0.115 0.319-0.166 0-0.038 0.178-0.153 0.408-0.255 0.217-0.102 0.51-0.293 0.637-0.421 0.14-0.14 0.331-0.217 0.446-0.178 0.102 0.038 0.344 0 0.523-0.089 1.058-0.535 1.262-0.599 1.976-0.574 0.523 0.026 0.765-0.013 0.854-0.14 0.178-0.306 0.574-0.28 0.701 0.026 0.076 0.153 0.306 0.331 0.51 0.408 0.217 0.064 0.433 0.191 0.484 0.28s0.242 0.166 0.408 0.166c0.178 0 0.319 0.064 0.319 0.127 0 0.076 0.076 0.127 0.178 0.127 0.089 0 0.242 0.089 0.331 0.191s0.255 0.191 0.37 0.191c0.115 0 0.382 0.166 0.599 0.357 0.229 0.191 0.586 0.484 0.803 0.663 0.204 0.178 0.382 0.395 0.395 0.484 0 0.076 0.051 0.153 0.102 0.153 0.204 0 0.829 1.466 0.892 2.078 0.026 0.331 0.102 0.599 0.166 0.599 0.166 0 0.14 3.786-0.013 3.888-0.064 0.038-0.115 0.268-0.115 0.484l0.013 0.408 0.102-0.382c0.089-0.344 0.102-0.331 0.115 0.191 0 0.408-0.026 0.523-0.115 0.382-0.102-0.153-0.127-0.127-0.127 0.102 0 0.178-0.051 0.268-0.14 0.204-0.089-0.051-0.115 0-0.064 0.153 0.038 0.14 0.026 0.306-0.026 0.395s-0.115-0.166-0.127-0.574c-0.038-0.918-0.064-1.045-0.255-1.389-0.204-0.37-0.204-3.085 0-3.569 0.178-0.433 0.229-0.816 0.102-0.739s-0.28-0.306-0.178-0.459c0.089-0.14-0.204-0.153-0.433-0.013-0.089 0.064-0.127 0.204-0.076 0.319 0.038 0.115 0.026 0.217-0.051 0.217s-0.14 0.727-0.14 1.925c-0.013 1.058-0.026 1.963-0.038 2.014 0 0.038 0 0.408 0.013 0.816 0.013 0.497 0.064 0.727 0.178 0.727 0.102 0 0.178 0.191 0.191 0.472 0.038 0.586 0.064 0.599 0.586 0.586 0.331-0.013 0.459 0.064 0.625 0.344 0.115 0.191 0.178 0.382 0.127 0.421-0.038 0.051 0.026 0.229 0.14 0.395 0.115 0.178 0.204 0.433 0.204 0.586 0 0.14 0.089 0.255 0.191 0.255s0.191 0.089 0.191 0.191c0 0.102 0.064 0.191 0.127 0.191 0.076 0 0.127 0.14 0.127 0.306 0 0.178-0.051 0.357-0.127 0.395-0.064 0.038-0.127 0.242-0.127 0.446 0 0.357-0.14 0.561-1.045 1.53-0.204 0.204-0.357 0.408-0.357 0.446s-0.14 0.293-0.319 0.548c-0.204 0.306-0.319 0.395-0.319 0.242 0-0.115 0.064-0.217 0.127-0.217 0.076 0 0.127-0.064 0.127-0.14s-0.115-0.115-0.255-0.076c-0.191 0.051-0.255 0.013-0.229-0.14 0.026-0.166-0.076-0.229-0.433-0.255-0.408-0.038-0.548 0.026-1.020 0.51-0.739 0.727-0.905 1.134-0.943 2.282-0.038 0.956-0.408 2.027-0.701 2.027-0.064 0-0.115 0.089-0.115 0.191s-0.051 0.191-0.127 0.191c-0.064 0-0.166 0.153-0.204 0.357-0.051 0.191-0.127 0.408-0.191 0.472-0.051 0.076-0.115 0.319-0.14 0.561-0.038 0.408-0.344 0.739-0.319 0.37zM13.585 29.43c-0.076-0.421-0.191-0.459-0.191-0.076 0 0.191 0.051 0.344 0.115 0.344 0.076 0 0.102-0.127 0.076-0.268zM12.068 29.481c-0.115-0.115-1.096-0.153-1.096-0.051 0 0.051 0.268 0.089 0.586 0.102s0.548-0.013 0.51-0.051zM15.306 29.315c0-0.14-0.051-0.268-0.127-0.268-0.37-0.064-0.421-0.026-0.446 0.242-0.013 0.217 0.051 0.28 0.28 0.28 0.204 0 0.293-0.076 0.293-0.255zM12.247 28.742c0-0.102-0.089-0.191-0.191-0.191s-0.191 0.089-0.191 0.191c0 0.102 0.089 0.191 0.191 0.191s0.191-0.089 0.191-0.191zM13.241 26.69c0.191-0.127 0.408-0.166 0.65-0.115 0.217 0.038 0.408 0.026 0.459-0.064 0.038-0.064 0.14-0.102 0.204-0.064 0.178 0.115 0.14-0.064-0.076-0.268-0.102-0.115-0.191-0.331-0.191-0.484 0-0.166-0.14-0.625-0.319-1.020s-0.319-0.829-0.319-0.969c0-0.191-0.089-0.255-0.319-0.255-0.204 0-0.319 0.076-0.319 0.191s-0.076 0.229-0.153 0.255c-0.115 0.051-0.166 0.331-0.14 0.867 0.013 0.701 0 0.727-0.064 0.217-0.051-0.357-0.115-0.497-0.166-0.37-0.051 0.102-0.064 0.357-0.038 0.574 0.051 0.306 0.038 0.331-0.064 0.115-0.115-0.242-0.127-0.242-0.127 0.038-0.013 0.153 0.076 0.319 0.178 0.357 0.255 0.102 0.242 0.433-0.013 0.625-0.191 0.127-0.191 0.166 0.013 0.357 0.268 0.268 0.433 0.268 0.803 0.013zM14.63 26.677c-0.051-0.038-0.089 0-0.089 0.089s0.038 0.127 0.089 0.089c0.038-0.051 0.038-0.127 0-0.178zM12.502 26.001c0-0.064-0.064-0.127-0.14-0.127-0.064 0-0.089 0.064-0.051 0.127 0.038 0.076 0.102 0.127 0.14 0.127 0.025 0 0.051-0.051 0.051-0.127zM6.791 23.771c0.064-0.28 0.026-0.319-0.293-0.319-0.204 0-0.37 0.051-0.37 0.115 0 0.561 0.574 0.727 0.663 0.204zM10.921 23.771c0.051-0.229 0.166-0.319 0.395-0.319 0.293 0 0.306-0.038 0.28-0.701-0.025-0.484-0.089-0.701-0.204-0.701-0.089 0-0.166-0.051-0.166-0.127 0-0.064-0.089-0.127-0.191-0.127s-0.191-0.051-0.191-0.127c0-0.064-0.089-0.127-0.204-0.127s-0.153 0.064-0.102 0.166c0.051 0.076-0.025 0.051-0.166-0.064-0.14-0.127-0.459-0.229-0.714-0.229s-0.497-0.051-0.535-0.127c-0.038-0.064-0.331-0.127-0.65-0.127-0.306 0-0.561 0.064-0.561 0.127 0 0.076-0.051 0.127-0.127 0.127-0.064 0-0.242 0.115-0.382 0.255-0.255 0.255-0.331 0.905-0.178 1.466 0.076 0.306 1.249 0.701 2.052 0.701 0.293 0 0.574 0.064 0.612 0.127 0.038 0.076 0.28 0.127 0.51 0.127 0.37 0 0.459-0.051 0.523-0.319zM18.327 23.643c0.242-0.102 0.586-0.191 0.752-0.191 0.178 0 0.306-0.076 0.306-0.191 0-0.102 0.076-0.153 0.178-0.115 0.191 0.076 0.586-0.268 0.586-0.51 0-0.089-0.166-0.37-0.382-0.599-0.204-0.242-0.382-0.472-0.382-0.523 0-0.064-0.089-0.102-0.191-0.102s-0.191-0.064-0.191-0.14c0-0.102-0.064-0.102-0.191 0.013-0.115 0.102-0.357 0.127-0.637 0.076-0.497-0.102-0.548-0.166-0.229-0.395 0.191-0.14 0.191-0.166-0.089-0.14-0.178 0-0.523 0.217-0.79 0.497-0.268 0.255-0.561 0.472-0.676 0.472-0.102 0-0.293 0.051-0.421 0.115-0.115 0.064-0.319 0.153-0.433 0.191-0.357 0.102-0.306 1.045 0.064 1.428 0.242 0.268 0.395 0.306 1.275 0.306 0.599 0 1.173-0.076 1.453-0.191zM14.643 19.513l-0.051-0.777h0.867c0.828 0 0.867-0.013 0.867-0.306 0-0.217-0.089-0.331-0.319-0.382-0.178-0.051-0.319-0.14-0.319-0.204 0-0.076-0.089-0.127-0.191-0.127s-0.191-0.102-0.191-0.242c0-0.127-0.089-0.408-0.191-0.599-0.293-0.574-0.242-1.211 0.14-1.619 0.178-0.191 0.382-0.306 0.459-0.268 0.089 0.064 0.115 0.013 0.064-0.115s-0.025-0.204 0.064-0.178c0.166 0.038 0.242-0.382 0.14-0.777-0.051-0.217-0.115-0.255-0.204-0.166-0.191 0.191-0.382 0.178-0.268-0.013 0.051-0.102 0.038-0.127-0.025-0.064s-0.127 0.166-0.127 0.229c-0.013 0.064-0.025 0.178-0.038 0.242 0 0.076-0.153 0.127-0.331 0.127-0.28 0-0.319-0.051-0.319-0.51s0.038-0.51 0.319-0.51c0.178 0 0.319-0.038 0.319-0.089 0-0.064 0.038-0.229 0.076-0.37 0.14-0.51-0.79-1.058-1.16-0.701-0.076 0.076-0.382 0.14-0.688 0.166-0.319 0.025-0.586 0.102-0.612 0.191-0.025 0.076 0.127 0.319 0.331 0.535l0.395 0.408v3.441c0 2.269 0.038 3.416 0.127 3.365 0.076-0.038 0.127-0.026 0.127 0.051 0 0.153 0.535 0.255 0.688 0.127 0.064-0.051 0.089-0.446 0.051-0.867zM12.259 17.143c-0.025-0.918-0.102-1.619-0.191-1.746-0.166-0.242-0.115-0.994 0.064-0.994 0.051 0 0.127 0.217 0.153 0.484l0.051 0.472 0.013-0.472c0.025-0.395-0.038-0.51-0.357-0.701-0.204-0.115-0.382-0.293-0.382-0.382s-0.089-0.166-0.191-0.166c-0.102 0-0.191-0.051-0.191-0.127 0-0.064-0.051-0.127-0.127-0.127-0.064 0-0.127 0.178-0.127 0.382 0 0.217 0.064 0.382 0.127 0.382 0.076 0 0.127 0.115 0.127 0.255 0 0.191-0.076 0.255-0.344 0.242-0.204 0-0.28-0.038-0.191-0.076 0.268-0.102 0.166-0.319-0.127-0.268-0.217 0.025-0.306 0.14-0.331 0.395-0.025 0.191-0.102 0.319-0.166 0.28-0.064-0.051-0.115 0.013-0.115 0.115 0 0.115 0.064 0.204 0.14 0.204s0.229 0.089 0.331 0.204c0.127 0.115 0.319 0.166 0.484 0.127 0.306-0.076 0.446 0.102 0.446 0.535 0 0.191-0.025 0.191-0.127 0.026-0.089-0.153-0.127-0.102-0.127 0.191s-0.038 0.344-0.127 0.191c-0.089-0.153-0.127-0.102-0.127 0.191s-0.038 0.344-0.127 0.191c-0.102-0.153-0.127-0.14-0.127 0.102 0 0.166-0.076 0.28-0.191 0.28-0.102 0-0.191 0.089-0.191 0.191s-0.051 0.191-0.127 0.191c-0.191 0-0.153 0.612 0.038 0.676 0.076 0.026 0.446 0.026 0.79 0 0.497-0.051 0.688-0.026 0.816 0.14 0.102 0.115 0.268 0.191 0.382 0.178 0.178-0.038 0.204-0.255 0.153-1.568zM18.39 15.995c0.038-0.178 0.013-0.319-0.051-0.319s-0.076-0.064-0.026-0.153c0.051-0.076 0.038-0.102-0.038-0.064-0.076 0.051-0.268-0.051-0.433-0.217-0.268-0.28-0.752-0.319-0.752-0.064 0 0.064-0.166 0.115-0.382 0.115-0.37 0-0.446 0.102-0.382 0.51 0.051 0.331 0.446 0.497 1.224 0.51 0.739 0 0.79-0.026 0.841-0.319zM15.905 15.345c-0.038-0.038-0.153-0.051-0.242-0.013-0.102 0.038-0.064 0.076 0.076 0.076 0.14 0.013 0.217-0.025 0.166-0.064zM17.345 14.338c0-0.37-0.433-0.459-0.561-0.115-0.102 0.268 0.013 0.433 0.319 0.433 0.178 0 0.242-0.089 0.242-0.319z"></path>
<path fill="#fff" d="M19.334 26.065c0.051-0.102 0.14-0.191 0.204-0.191 0.076 0 0.064 0.076-0.026 0.191-0.089 0.102-0.178 0.191-0.204 0.191s-0.013-0.089 0.026-0.191z"></path>
<path fill="#fff" d="M19.002 25.759c0-0.076 0.051-0.166 0.127-0.204s0.089 0.013 0.051 0.115c-0.089 0.229-0.178 0.268-0.178 0.089z"></path>
<path fill="#fff" d="M22.189 20.023c0-0.217 0.472-0.688 0.548-0.561 0.038 0.064-0.064 0.242-0.242 0.408-0.166 0.166-0.306 0.229-0.306 0.153z"></path>
<path fill="#fff" d="M22.89 19.756c0.038-0.064 0.102-0.127 0.14-0.127s0.026 0.064-0.013 0.127c-0.038 0.076-0.102 0.127-0.14 0.127s-0.026-0.051 0.013-0.127z"></path>
<path fill="#fff" d="M20.914 19.501c0-0.089 0.038-0.127 0.089-0.089 0.038 0.051 0.038 0.127 0 0.178-0.051 0.038-0.089 0-0.089-0.089z"></path>
<path fill="#fff" d="M22.915 19.348c-0.204-0.102-0.204-0.14-0.026-0.395 0.115-0.153 0.191-0.548 0.191-0.918 0-0.382 0.076-0.752 0.191-0.905 0.14-0.178 0.178-0.625 0.191-1.733 0-0.854 0.051-1.517 0.127-1.568 0.229-0.14 0.127-0.523-0.217-0.841-0.178-0.166-0.293-0.229-0.242-0.153 0.064 0.115 0.026 0.14-0.089 0.089-0.268-0.102-0.37-0.561-0.14-0.65 0.217-0.076 0.255-1.823 0.038-2.039-0.306-0.306 0.28-2.46 0.752-2.753 0.076-0.051 0.153-0.306 0.153-0.535v-0.446h-1.326c-1.3 0-1.326-0.013-1.402-0.306-0.076-0.331 0.013-0.714 0.178-0.714 0.051 0 0.14-0.153 0.191-0.344 0.089-0.331 0.102-0.331 0.191-0.102 0.102 0.242 0.115 0.242 0.115-0.026 0.013-0.166-0.064-0.293-0.14-0.293-0.115 0-0.102-0.051 0.026-0.14 0.229-0.153-0.395-0.089-1.211 0.127-0.28 0.076-1.224 0.14-2.103 0.14-1.032-0.013-1.835 0.064-2.294 0.191-0.382 0.102-0.854 0.191-1.045 0.191s-0.382 0.064-0.421 0.127c-0.127 0.217-0.956 0.153-0.956-0.064 0-0.127-0.127-0.191-0.395-0.191-0.357 0-0.395-0.038-0.344-0.319 0.051-0.217 0.013-0.319-0.102-0.319-0.102 0-0.178-0.14-0.178-0.319 0-0.395-0.127-0.395-0.535-0.026-0.382 0.344-0.714 0.561-1.058 0.714-0.408 0.178-1.236 1.185-1.173 1.428 0.025 0.115-0.051 0.344-0.191 0.51-0.127 0.166-0.229 0.255-0.217 0.178 0.064-0.446-0.064-0.433-0.535 0.051-0.28 0.306-0.586 0.561-0.688 0.574s-0.293 0.178-0.446 0.37c-0.255 0.319-0.637 0.357-0.637 0.038 0-0.076-0.204-0.14-0.497-0.14-0.344 0-0.472 0.051-0.433 0.166 0.038 0.102 0 0.127-0.127 0.076-0.115-0.038-0.217 0.025-0.268 0.166-0.038 0.127-0.217 0.395-0.395 0.599s-0.319 0.446-0.319 0.548c0 0.089-0.051 0.166-0.127 0.166-0.064 0-0.127 0.064-0.127 0.127 0 0.076-0.14 0.421-0.319 0.79-0.255 0.535-0.331 0.918-0.395 2.192-0.051 0.854-0.127 1.568-0.166 1.606-0.255 0.217-0.548 1.020-0.484 1.351 0.191 0.956 0.382 1.657 0.51 1.721 0.064 0.051 0.14 0.268 0.153 0.497 0.026 0.229 0.089 0.446 0.153 0.497 0.064 0.038 0.115 0.255 0.127 0.459 0 0.217-0.013 0.28-0.051 0.166-0.026-0.127-0.166-0.229-0.293-0.229-0.191 0-0.433-0.395-0.395-0.663 0.013-0.064-0.115-0.102-0.28-0.102-0.204 0-0.229-0.038-0.115-0.115 0.14-0.076 0.127-0.127-0.064-0.204-0.127-0.064-0.268-0.089-0.319-0.089-0.064 0.013-0.102-0.166-0.102-0.395s-0.089-0.535-0.191-0.676c-0.242-0.319-0.242-1.122 0-1.364 0.102-0.102 0.204-0.37 0.217-0.574 0.013-0.217 0.076-0.357 0.127-0.331 0.051 0.038 0.102-0.14 0.102-0.395 0-0.28 0.076-0.484 0.191-0.523 0.242-0.102 0.268-1.211 0.038-1.619-0.166-0.306-0.153-0.981 0.038-1.16 0.064-0.076 0.115-0.204 0.115-0.306 0-0.14 0.676-1.122 0.905-1.3 0.051-0.038 0.102-0.178 0.127-0.319s0.191-0.319 0.344-0.395c0.166-0.076 0.293-0.178 0.293-0.229-0.038-0.319 0.013-0.459 0.153-0.459 0.076 0 0.268-0.229 0.395-0.51 0.14-0.28 0.293-0.51 0.357-0.51 0.051 0 0.102-0.076 0.102-0.166 0-0.293 0.446-0.714 0.739-0.688 0.331 0.026 0.37 0.293 0.089 0.612-0.268 0.28-0.127 0.879 0.204 0.879 0.127 0 0.229 0.038 0.229 0.102-0.038 0.255 0.038 0.268 0.28 0.038 0.166-0.153 0.28-0.446 0.319-0.777 0.026-0.306 0.102-0.612 0.178-0.701 0.064-0.076 0.089-0.191 0.038-0.229-0.038-0.051 0.076-0.089 0.255-0.089 0.191 0 0.344-0.051 0.344-0.115s0.153-0.153 0.344-0.204c0.191-0.038 0.472-0.217 0.637-0.395 0.153-0.166 0.319-0.306 0.357-0.306s0.229-0.14 0.421-0.319c0.191-0.178 0.408-0.319 0.484-0.319 0.089 0 0.178-0.089 0.229-0.191 0.038-0.102 0.178-0.191 0.319-0.191 0.127 0 0.268-0.089 0.319-0.191 0.038-0.102 0.115-0.191 0.166-0.178 0.178 0.038 1.185-0.433 1.185-0.548 0-0.051 0.115-0.102 0.255-0.102 0.331 0 1.402-0.663 1.402-0.867 0-0.089 0.064-0.127 0.127-0.089 0.076 0.038 0.166-0.013 0.204-0.115 0.051-0.115 0.217-0.204 0.421-0.191 0.178 0 0.255 0.038 0.178 0.076-0.102 0.038-0.166 0.293-0.166 0.625 0 0.306-0.051 0.561-0.115 0.561-0.166 0-0.523 0.752-0.523 1.109 0 0.268 0.051 0.293 0.574 0.293 0.395 0 0.599-0.064 0.65-0.191 0.051-0.102 0.204-0.191 0.357-0.191 0.14 0 0.382-0.089 0.51-0.191 0.14-0.102 0.357-0.191 0.484-0.191s0.229-0.051 0.229-0.127c0-0.178 0.433-0.153 0.612 0.026 0.127 0.127 0.191 0.127 0.28-0.013 0.089-0.153 0.14-0.153 0.306-0.026 0.242 0.204 2.116 0.217 2.485 0.026 0.14-0.076 0.395-0.14 0.561-0.14 0.178 0 0.382-0.089 0.472-0.191s0.306-0.191 0.472-0.191c0.217 0 0.523-0.204 0.918-0.612 0.637-0.663 1.173-1.045 1.453-1.045 0.102 0 0.255-0.089 0.344-0.191s0.293-0.191 0.446-0.191c0.153 0 0.497-0.089 0.739-0.191 0.51-0.217 1.708-0.255 1.988-0.076 0.153 0.102 0.153 0.153 0.026 0.319-0.102 0.115-0.293 0.217-0.446 0.217-0.14 0.013-0.038 0.064 0.242 0.115l0.51 0.089-0.663 0.025c-0.37 0-0.676 0.076-0.676 0.14 0 0.076-0.115 0.127-0.268 0.127-0.14 0-0.217-0.051-0.178-0.127 0.229-0.37-0.752 0.038-1.224 0.51-0.204 0.204-0.599 0.497-0.879 0.65-0.28 0.166-0.51 0.37-0.51 0.459s-0.038 0.166-0.102 0.166c-0.051 0-0.242 0.127-0.421 0.293-0.178 0.153-0.421 0.344-0.548 0.408-0.127 0.076-0.306 0.357-0.408 0.637-0.217 0.637-0.217 0.637 0 0.867 0.229 0.217 2.014 0.204 2.090-0.026 0.026-0.076 0.166-0.14 0.319-0.14s0.446-0.089 0.65-0.191c0.268-0.14 0.739-0.191 1.784-0.178 0.93 0.013 1.287 0.051 1.032 0.115-0.204 0.051-0.306 0.102-0.204 0.115s0.051 0.115-0.153 0.268c-0.382 0.306-0.472 0.319-0.472 0.064 0-0.115-0.191 0.013-0.497 0.319-0.268 0.28-0.535 0.51-0.586 0.51-0.038 0-0.166 0.076-0.255 0.153-0.421 0.37-0.574 0.484-0.676 0.484-0.064 0-0.255 0.191-0.433 0.421-0.191 0.217-0.484 0.586-0.676 0.79-0.752 0.867-0.841 1.122-0.841 2.358 0 0.739-0.038 1.122-0.127 1.071-0.064-0.038-0.089-0.28-0.051-0.535 0.038-0.331 0.026-0.421-0.064-0.28-0.204 0.319-0.14 0.816 0.14 1.058 0.242 0.217 0.293 0.217 0.79 0.025 0.676-0.255 3.046-0.229 3.097 0.038 0.013 0.089 0 0.102-0.038 0.025-0.089-0.204-0.331-0.153-0.255 0.051 0.051 0.115 0.013 0.166-0.076 0.127-0.535-0.204-2.384 1.16-2.384 1.733 0 0.14-0.051 0.255-0.115 0.255s-0.166 0.127-0.217 0.293c-0.051 0.153-0.217 0.497-0.382 0.752-0.268 0.408-0.306 0.637-0.319 1.886 0 0.777-0.051 1.389-0.089 1.338-0.089-0.076-0.535 0.79-0.535 1.045 0 0.089-0.064 0.166-0.14 0.166s-0.115-0.089-0.064-0.191c0.038-0.102 0.013-0.191-0.064-0.191-0.064 0-0.102 0.153-0.089 0.331 0.038 0.37-0.204 0.497-0.574 0.28zM23.17 19.157c-0.051-0.038-0.089 0-0.089 0.089s0.038 0.127 0.089 0.089c0.038-0.051 0.038-0.127 0-0.178zM23.463 12.401c0-0.14 0.127-0.166 0.548-0.102 0.382 0.051 0.484 0.038 0.344-0.064-0.14-0.089-0.14-0.127-0.026-0.127 0.102 0 0.064-0.102-0.102-0.28-0.255-0.268-0.28-0.28-0.433-0.076s-0.178 0.204-0.37 0c-0.204-0.191-0.217-0.191-0.217 0.013 0 0.115 0.076 0.217 0.166 0.217 0.076 0-0.013 0.115-0.204 0.242-0.242 0.153-0.306 0.255-0.191 0.293 0.306 0.102 0.484 0.064 0.484-0.115zM14.363 4.741c0.013-0.089 0-0.102-0.038-0.026-0.102 0.217-0.421 0.153-0.331-0.076 0.038-0.115 0.191-0.178 0.408-0.153 0.28 0.038 0.331-0.013 0.331-0.28 0-0.204-0.076-0.331-0.217-0.357s-0.229 0.038-0.229 0.153c0 0.14-0.115 0.204-0.395 0.204-0.306 0-0.382 0.038-0.319 0.204 0.038 0.115 0.076 0.268 0.076 0.357 0 0.217 0.676 0.191 0.714-0.026zM13.521 4.664c0-0.038-0.051-0.102-0.127-0.14-0.064-0.038-0.127-0.013-0.127 0.051 0 0.076 0.064 0.14 0.127 0.14 0.076 0 0.127-0.026 0.127-0.051z"></path>
<path fill="#fff" d="M5.746 8.794c0-0.089 0.038-0.127 0.089-0.089 0.038 0.051 0.038 0.127 0 0.178-0.051 0.038-0.089 0-0.089-0.089z"></path>
<path fill="#fff" d="M5.874 8.412c0-0.089 0.038-0.127 0.089-0.089 0.038 0.051 0.038 0.127 0 0.178-0.051 0.038-0.089 0-0.089-0.089z"></path>
<path fill="#fff" d="M29.365 4.753c0.051-0.038 0.127-0.038 0.178 0 0.038 0.051 0 0.089-0.089 0.089s-0.127-0.038-0.089-0.089z"></path>
<path fill="#fff" d="M15.879 1.911c0.038-0.064 0.102-0.127 0.14-0.127 0.026 0 0.051 0.064 0.051 0.127 0 0.076-0.064 0.127-0.14 0.127-0.064 0-0.089-0.051-0.051-0.127z"></path>
</svg>
