<!-- Generated by IcoMoon.io -->
<svg version="1.1" xmlns="http://www.w3.org/2000/svg" width="32" height="32" viewBox="0 0 32 32">
<title>treasure-weapons</title>
<path fill="#fff" d="M8.339 31.399c0.053-0.092 0.013-0.158-0.132-0.158-0.158 0-0.198-0.079-0.158-0.317 0.053-0.251 0.013-0.303-0.145-0.251-0.119 0.026-0.053-0.053 0.158-0.171 0.198-0.132 0.356-0.29 0.356-0.356s0.092-0.198 0.198-0.303c0.106-0.119 0.198-0.383 0.198-0.594s0.066-0.383 0.132-0.383c0.079 0 0.132-0.079 0.132-0.185s0.079-0.277 0.185-0.369c0.092-0.106 0.224-0.317 0.264-0.475 0.053-0.158 0.158-0.29 0.224-0.29s0.119-0.092 0.119-0.198c0-0.106 0.066-0.198 0.132-0.198 0.079 0 0.132-0.079 0.132-0.185s0.092-0.211 0.198-0.264c0.106-0.040 0.198-0.198 0.198-0.343s0.066-0.264 0.145-0.264c0.066 0 0.224-0.211 0.33-0.462 0.106-0.264 0.277-0.501 0.383-0.554 0.106-0.040 0.198-0.211 0.198-0.383 0-0.158 0.079-0.356 0.171-0.409 0.185-0.119 0.462-0.541 0.567-0.857 0.053-0.132 0.132-0.237 0.198-0.237s0.119-0.079 0.119-0.171c0-0.317 0.488-0.752 0.844-0.752 0.185 0 0.343 0.066 0.343 0.132 0 0.079 0.119 0.132 0.264 0.132s0.264 0.092 0.264 0.198c0 0.106 0.092 0.198 0.198 0.198s0.198 0.092 0.198 0.198c0 0.119 0.119 0.198 0.303 0.198 0.317 0.013 0.752 0.29 0.752 0.475 0 0.066-0.211 0.29-0.462 0.514-0.251 0.211-0.462 0.475-0.462 0.567s-0.066 0.132-0.132 0.092c-0.119-0.079-1.055 0.752-1.055 0.923 0 0.106-0.818 0.857-0.937 0.857-0.066 0-0.119 0.079-0.119 0.171 0 0.106-0.145 0.264-0.33 0.356s-0.33 0.251-0.33 0.356c0 0.092-0.092 0.171-0.198 0.171s-0.198 0.066-0.198 0.145c0 0.145-0.712 0.91-0.857 0.91-0.079 0-0.251 0.145-1.148 1.016-0.132 0.119-0.198 0.264-0.145 0.343 0.040 0.079 0.026 0.092-0.053 0.053-0.132-0.079-0.567 0.343-0.567 0.567 0 0.079-0.079 0.119-0.158 0.106-0.092-0.026-0.158 0.066-0.132 0.185 0.013 0.119-0.040 0.264-0.119 0.317-0.106 0.053-0.119 0.040-0.066-0.053z"></path>
<path fill="#fff" d="M24.907 28.682c0-0.106-0.053-0.211-0.106-0.237-0.053-0.013-0.303-0.303-0.554-0.633s-0.488-0.62-0.528-0.66c-0.040-0.040-0.277-0.33-0.514-0.633-0.58-0.752-0.857-1.068-1.688-1.965-0.383-0.409-0.699-0.791-0.699-0.844s-0.092-0.185-0.198-0.303c-0.185-0.171-0.185-0.251-0.013-0.673 0.185-0.435 0.185-0.462-0.066-0.462-0.132 0-0.251 0.066-0.251 0.132 0 0.079-0.106 0.132-0.224 0.132-0.132 0-0.383 0.158-0.554 0.33-0.171 0.185-0.356 0.33-0.422 0.33s-0.119 0.092-0.119 0.198c0 0.106-0.053 0.211-0.132 0.211-0.066 0.013-0.185 0.026-0.264 0.040-0.066 0-0.198 0.092-0.277 0.185-0.251 0.237-1.293 0.211-1.385-0.040-0.053-0.106-0.171-0.198-0.277-0.198-0.119 0-0.171-0.079-0.119-0.198 0.053-0.145-0.026-0.198-0.317-0.198-0.224 0-0.396-0.053-0.396-0.132 0-0.066-0.066-0.132-0.145-0.132s-0.224-0.079-0.33-0.185c-0.092-0.106-0.251-0.224-0.343-0.251-0.132-0.053-0.119-0.106 0.026-0.224 0.158-0.132 0.145-0.145-0.092-0.092-0.158 0.040-0.356-0.013-0.448-0.119-0.079-0.106-0.224-0.185-0.317-0.185s-0.237-0.092-0.33-0.198c-0.092-0.106-0.356-0.198-0.594-0.198-0.251 0-0.462-0.066-0.488-0.132-0.026-0.079-0.765-0.158-1.82-0.185l-1.768-0.053-0.053-0.435c-0.026-0.264 0.026-0.488 0.132-0.58 0.092-0.079 0.237-0.251 0.317-0.396s0.303-0.277 0.501-0.303c0.185-0.026 0.317-0.092 0.29-0.145-0.040-0.053 0.066-0.185 0.237-0.277 0.303-0.158 0.303-0.171 0.066-0.409-0.132-0.132-0.303-0.251-0.369-0.251-0.171 0-0.251-0.475-0.356-2.071-0.053-0.91-0.145-1.398-0.264-1.504-0.237-0.198-0.237-0.646-0.013-0.646 0.092 0 0.317-0.251 0.488-0.554s0.475-0.712 0.66-0.897c0.198-0.198 0.396-0.514 0.448-0.712s0.145-0.317 0.211-0.277c0.079 0.053 0.132-0.211 0.132-0.646 0-0.409 0.066-0.765 0.158-0.818 0.092-0.066 0.106-0.026 0.040 0.092-0.092 0.158-0.066 0.158 0.079 0.013 0.119-0.119 0.132-0.198 0.040-0.264-0.251-0.171-0.303-0.541-0.33-2.348-0.013-1.649 0.013-1.807 0.264-2.045 0.171-0.171 0.462-0.251 0.857-0.251 0.343 0 0.607-0.066 0.646-0.171 0.026-0.092 0.211-0.171 0.409-0.198 0.317-0.026 0.343 0.013 0.343 0.514 0 0.343-0.053 0.501-0.145 0.449-0.092-0.066-0.106-0.013-0.013 0.145 0.066 0.145 0.237 0.488 0.369 0.765 0.369 0.791 1.134 1.662 1.451 1.662 0.079 0 0.317 0.079 0.528 0.185s0.475 0.198 0.58 0.224c0.303 0.040 1.319-0.171 1.398-0.29 0.040-0.066 0.224-0.119 0.422-0.132 0.198 0 0.277-0.040 0.185-0.079-0.119-0.053-0.066-0.198 0.198-0.541 0.198-0.277 0.409-0.501 0.462-0.528s0.106-0.158 0.106-0.303c0-0.145 0.092-0.29 0.198-0.33 0.145-0.066 0.198-0.29 0.198-0.897 0-0.462 0.066-0.884 0.158-0.976 0.198-0.198 0.844-0.211 0.963-0.026 0.040 0.079 0.396 0.145 0.765 0.145 0.383 0.013 0.58 0.040 0.462 0.079-0.224 0.053-0.224 0.079-0.026 0.277 0.211 0.198 0.211 0.462-0.013 1.741-0.040 0.185-0.092 0.646-0.145 1.029s-0.145 0.726-0.198 0.765c-0.158 0.092-0.145 0.976 0.013 0.976 0.066 0 0.119 0.040 0.119 0.106-0.013 0.053-0.013 0.462 0 0.923 0.013 0.633 0.053 0.818 0.211 0.818 0.106 0 0.185 0.066 0.158 0.158-0.013 0.092 0.066 0.158 0.171 0.171 0.106 0 0.185 0.106 0.185 0.224-0.013 0.119 0.053 0.185 0.145 0.158 0.092-0.040 0.198 0.026 0.237 0.132 0.053 0.132 0.251 0.211 0.514 0.211 0.699 0.013 0.937 0.277 0.857 0.95-0.053 0.317-0.158 1.24-0.251 2.058-0.092 0.897-0.211 1.477-0.303 1.477-0.185 0-0.857 0.686-0.857 0.871 0 0.066 0.066 0.026 0.132-0.079 0.106-0.171 0.132-0.158 0.132 0.040 0 0.158 0.106 0.224 0.396 0.224 0.224 0 0.396 0.053 0.396 0.132 0 0.066 0.237 0.185 0.528 0.264s0.528 0.171 0.528 0.211c0 0.053-0.092 0.053-0.198 0-0.106-0.040-0.198-0.013-0.198 0.053 0 0.079 0.106 0.132 0.237 0.132 0.171 0 0.185 0.026 0.040 0.119s-0.145 0.132 0 0.198c0.106 0.040 0.026 0.053-0.158 0.013-0.185-0.026-0.448 0.026-0.594 0.132-0.132 0.106-0.356 0.198-0.475 0.198-0.251 0-1.068 0.409-1.134 0.567-0.026 0.053-0.145 0.092-0.251 0.092-0.264 0-1.134 0.884-1.042 1.042 0.053 0.066 0.211 0.092 0.383 0.066 0.198-0.040 0.171-0.013-0.079 0.092-0.277 0.106-0.422 0.106-0.528 0-0.211-0.211-0.264-0.185-0.699 0.198-0.356 0.317-0.356 0.343-0.079 0.277 0.158-0.040 0.29-0.013 0.29 0.040 0 0.158 0.369 0.079 0.554-0.106 0.092-0.092 0.264-0.158 0.409-0.158 0.264 0 1.016 0.673 1.016 0.91 0 0.079 0.066 0.145 0.145 0.145 0.185 0 0.91 0.726 0.91 0.91 0 0.079 0.066 0.145 0.132 0.145 0.079 0 0.211 0.145 0.29 0.33s0.264 0.33 0.396 0.33c0.145 0 0.211 0.066 0.171 0.132-0.040 0.079-0.013 0.132 0.053 0.132 0.079 0 0.145 0.079 0.145 0.171s0.303 0.448 0.66 0.778c0.369 0.343 0.66 0.673 0.66 0.752s0.158 0.145 0.369 0.145c0.277 0 0.317 0.026 0.158 0.132-0.132 0.079-0.145 0.132-0.026 0.132 0.092 0 0.158 0.171 0.158 0.396s-0.053 0.396-0.106 0.396c-0.066 0-0.198 0.158-0.29 0.343-0.106 0.185-0.343 0.369-0.554 0.409-0.198 0.040-0.369 0.119-0.369 0.185s-0.171 0.119-0.396 0.119c-0.251 0-0.396-0.066-0.396-0.185zM10.212 20.161c0-0.317-0.264-0.277-0.317 0.040-0.026 0.119 0.040 0.224 0.132 0.224 0.106 0 0.185-0.119 0.185-0.264zM15.475 18.974c0.040-0.066 0.013-0.132-0.053-0.132-0.079 0-0.145 0.066-0.145 0.132 0 0.079 0.026 0.132 0.053 0.132 0.040 0 0.106-0.053 0.145-0.132zM15.871 18.314c0.040-0.066 0.053-0.132 0.013-0.132s-0.106 0.066-0.145 0.132c-0.040 0.079-0.053 0.132-0.013 0.132s0.106-0.053 0.145-0.132zM16.781 17.8c0.237-0.264 0.185-0.541-0.092-0.541-0.092 0-0.079 0.053 0.040 0.132 0.158 0.092 0.132 0.158-0.119 0.383-0.171 0.158-0.264 0.277-0.185 0.277 0.066 0 0.237-0.119 0.356-0.251zM17.916 17.786c0-0.066-0.132-0.132-0.29-0.119-0.29 0-0.29 0.013-0.040 0.119 0.145 0.066 0.277 0.119 0.303 0.119 0.013 0.013 0.026-0.040 0.026-0.119zM17.243 15.583c0-0.871 0.053-1.438 0.132-1.464 0.198-0.066 0.185-1.702 0-1.768-0.106-0.040-0.026-0.264 0.211-0.607 0.356-0.541 0.356-0.554 0.119-0.91-0.132-0.211-0.224-0.409-0.211-0.462 0.013-0.066-0.198-0.106-0.488-0.106-0.462 0-0.541 0.053-0.739 0.475s-0.198 0.488-0.013 0.778c0.171 0.264 0.211 0.752 0.211 2.704 0 2.256 0.013 2.374 0.251 2.374 0.185 0 0.277-0.106 0.317-0.356 0.040-0.264 0.053-0.237 0.053 0.119-0.013 0.264-0.040 0.462-0.092 0.448-0.040-0.026-0.185 0-0.33 0.066-0.224 0.079-0.185 0.106 0.158 0.106l0.422 0.013v-1.411zM13.985 10.083c0.185-0.264 0.106-0.541-0.237-0.923-0.198-0.198-0.356-0.501-0.369-0.66-0.013-0.185-0.119-0.29-0.317-0.317-0.356-0.053-0.528 0.303-0.303 0.646 0.106 0.198 0.106 0.317-0.013 0.501-0.409 0.673 0.805 1.398 1.24 0.752zM19.235 9.291c0-0.251-0.053-0.303-0.264-0.251-0.33 0.092-0.343 0.396-0.026 0.475 0.119 0.040 0.237 0.066 0.264 0.079 0.013 0 0.026-0.132 0.026-0.303zM21.055 8.856c0.026-0.475-0.013-0.699-0.119-0.699-0.079 0-0.237-0.106-0.33-0.224-0.171-0.224-0.171-0.224-0.185 0 0 0.277-0.396 0.303-0.396 0.026 0-0.106-0.066-0.198-0.158-0.198-0.079 0-0.106 0.040-0.066 0.092 0.053 0.040-0.026 0.171-0.171 0.264-0.264 0.185-0.264 0.198 0.053 0.475 0.29 0.251 0.303 0.29 0.092 0.448-0.198 0.145-0.198 0.158 0 0.171 0.119 0 0.264 0.092 0.303 0.211 0.053 0.132 0.211 0.185 0.501 0.158 0.422-0.040 0.435-0.053 0.475-0.726zM21.451 5.413c-0.33-0.066-0.396 0.013-0.29 0.29 0.079 0.211 0.106 0.211 0.317-0.013s0.211-0.237-0.026-0.277z"></path>
<path fill="#fff" d="M20.95 21.902c0-0.066 0.092-0.119 0.198-0.119s0.198 0.053 0.198 0.119c0 0.053-0.092 0.106-0.198 0.106s-0.198-0.053-0.198-0.106z"></path>
<path fill="#fff" d="M5.463 16.401c-0.145-0.106-0.396-0.198-0.554-0.198s-0.317-0.040-0.343-0.092c-0.053-0.145-0.884-0.567-1.095-0.567-0.106 0-0.673-0.475-1.28-1.055-0.594-0.58-1.161-1.055-1.253-1.055-0.106 0-0.171-0.158-0.171-0.383 0-0.211-0.092-0.475-0.198-0.594-0.106-0.106-0.198-0.317-0.198-0.448 0-0.145-0.066-0.29-0.145-0.317s-0.171-0.33-0.211-0.673c-0.079-0.62 0.158-1.2 0.58-1.451 0.092-0.053 0.171-0.211 0.171-0.356 0-0.132 0.119-0.29 0.277-0.33 0.145-0.053 0.488-0.317 0.752-0.607 0.303-0.317 0.62-0.514 0.818-0.528 0.185 0 0.264-0.040 0.185-0.066-0.092-0.040 0.040-0.251 0.317-0.514 0.501-0.501 0.686-0.567 0.686-0.264 0 0.106-0.053 0.198-0.132 0.198-0.066 0-0.132 0.237-0.132 0.528v0.528h0.567c0.409 0 0.501 0.040 0.356 0.132-0.132 0.079-0.145 0.132-0.026 0.132 0.079 0 0.158 0.092 0.158 0.198s0.066 0.198 0.132 0.198c0.132 0 0.185-0.185 0.145-0.488-0.013-0.092 0.040-0.171 0.106-0.171 0.303 0 1.319-1.148 1.359-1.543 0.026-0.251 0.224-0.567 0.541-0.857 0.264-0.264 0.488-0.528 0.488-0.62 0-0.079 0.092-0.145 0.198-0.145s0.198-0.053 0.198-0.132c0-0.066 0.092-0.132 0.198-0.132 0.119 0 0.198 0.119 0.198 0.33 0 0.237 0.066 0.33 0.264 0.33 0.145 0 0.303-0.092 0.343-0.198 0.053-0.106 0.145-0.198 0.237-0.198 0.158 0 0.475-0.594 0.475-0.884 0-0.092 0.053-0.171 0.132-0.171 0.132 0 0.514-0.277 1.016-0.765 0.185-0.158 0.383-0.264 0.448-0.224 0.066 0.053 0.158-0.013 0.198-0.119 0.040-0.119 0.171-0.211 0.277-0.211s0.158 0.053 0.106 0.119c-0.040 0.066 0.053 0.145 0.211 0.171l0.277 0.040-0.277 0.317c-0.158 0.171-0.277 0.422-0.277 0.567 0 0.132-0.040 0.237-0.106 0.237-0.053 0-0.211 0.224-0.356 0.501-0.145 0.264-0.29 0.514-0.33 0.554s-0.264 0.356-0.488 0.699c-0.739 1.068-0.554 2.084 0.567 3.060 0.303 0.251 0.554 1.385 0.33 1.385-0.066 0-0.079 0.145-0.040 0.33 0.053 0.277 0 0.33-0.251 0.343-0.171 0-0.237 0.040-0.145 0.079 0.211 0.079 0.198 0.264-0.026 0.264-0.119 0-0.171-0.106-0.132-0.303 0.026-0.171-0.013-0.343-0.092-0.396-0.106-0.066-0.119-0.040-0.053 0.092 0.106 0.158 0.079 0.158-0.106 0-0.119-0.092-0.185-0.224-0.145-0.29s-0.026-0.119-0.132-0.119c-0.119 0-0.211-0.066-0.211-0.145 0-0.158-0.791-0.91-0.95-0.91-0.198 0-0.106-0.251 0.132-0.303 0.119-0.040-0.106-0.040-0.501 0s-0.739 0.132-0.765 0.185c-0.026 0.066-0.119 0.119-0.211 0.119-0.185 0-0.871 0.712-0.871 0.91 0 0.066-0.092 0.145-0.198 0.198-0.106 0.040-0.198 0.158-0.198 0.264s-0.066 0.211-0.145 0.237c-0.079 0.026-0.171 0.409-0.211 0.844-0.053 0.633-0.013 0.91 0.198 1.398 0.29 0.62 0.765 1.029 1.187 1.029 0.277 0 0.818 0.514 0.818 0.778 0 0.092 0.066 0.119 0.132 0.079 0.079-0.053 0.132 0.066 0.132 0.251 0 0.237 0.066 0.343 0.237 0.343s0.185 0.026 0.053 0.119c-0.145 0.092-0.145 0.119 0.013 0.185 0.132 0.040 0.171 0.185 0.132 0.409-0.079 0.356-0.435 0.488-0.435 0.145 0-0.251-0.449-0.264-0.66-0.013-0.119 0.158-0.224 0.171-0.475 0.053-0.237-0.119-0.369-0.106-0.475 0-0.224 0.224-1.042 0.185-1.345-0.040z"></path>
<path fill="#fff" d="M23.799 12.022c-0.198-0.053-0.211-0.092-0.066-0.185 0.132-0.079 0.079-0.119-0.171-0.119-0.33 0-0.435-0.119-0.383-0.448 0.013-0.066-0.079-0.079-0.198-0.026-0.171 0.066-0.198 0.026-0.145-0.185 0.040-0.145-0.013-0.356-0.119-0.448-0.211-0.224-0.251-0.528-0.053-0.409 0.079 0.053 0.132-0.106 0.132-0.383 0-0.251 0.079-0.514 0.171-0.567 0.185-0.119 0.462-0.541 0.567-0.857 0.053-0.158 0.224-0.237 0.514-0.237 0.356 0 0.448-0.053 0.488-0.33 0.040-0.185 0.026-0.33-0.040-0.33s-0.29-0.171-0.514-0.396c-0.224-0.211-0.488-0.396-0.594-0.396-0.33 0-0.224-0.488 0.211-0.91 0.396-0.409 0.646-0.514 0.646-0.29 0 0.066 0.145 0.158 0.33 0.198 0.185 0.053 0.33 0.145 0.33 0.211 0 0.079 0.092 0.132 0.198 0.132s0.198 0.079 0.198 0.171c0 0.079 0.145 0.224 0.317 0.303 0.29 0.132 0.33 0.119 0.396-0.158 0.053-0.171 0.145-0.317 0.211-0.317 0.079 0 0.132-0.092 0.132-0.198s0.053-0.198 0.119-0.198c0.066 0 0.171-0.132 0.224-0.29s0.29-0.501 0.528-0.765c0.251-0.251 0.448-0.501 0.448-0.554s0.33-0.409 0.726-0.818c0.686-0.686 0.897-1.148 0.594-1.332-0.066-0.040-0.132-0.224-0.132-0.409 0-0.171 0.066-0.317 0.132-0.317 0.079 0 0.132-0.092 0.132-0.211 0-0.132 0.079-0.185 0.198-0.132 0.106 0.040 0.277-0.013 0.383-0.119 0.237-0.237 0.699-0.251 0.91-0.026 0.092 0.079 0.303 0.383 0.488 0.646 0.185 0.277 0.448 0.514 0.58 0.528 0.396 0.066 0.422 0.369 0.040 0.369-0.198 0-0.409 0.132-0.541 0.33-0.119 0.185-0.343 0.33-0.501 0.33-0.303 0-0.963 0.66-1.108 1.095-0.066 0.224-0.29 0.488-1.134 1.425-0.211 0.224-0.369 0.462-0.369 0.528s-0.053 0.119-0.119 0.119c-0.066 0-0.145 0.106-0.198 0.237-0.040 0.119-0.185 0.409-0.33 0.62-0.277 0.435-0.356 0.857-0.145 0.857 0.079 0 0.132 0.079 0.132 0.171 0.013 0.079 0.251 0.343 0.528 0.554 0.277 0.224 0.514 0.475 0.528 0.567 0 0.079 0.066 0.158 0.145 0.158 0.251 0 0.554 0.409 0.567 0.778 0.013 0.251-0.053 0.356-0.224 0.356-0.132 0-0.211-0.066-0.171-0.158 0.066-0.158-0.356-0.58-0.62-0.594-0.079 0-0.040-0.053 0.106-0.119 0.251-0.106 0.251-0.119-0.026-0.119-0.171-0.013-0.303 0.053-0.303 0.132 0 0.066-0.053 0.092-0.132 0.053s-0.092 0.013-0.053 0.119c0.040 0.119 0.132 0.211 0.198 0.211s0.119 0.119 0.119 0.264c0 0.185 0.066 0.237 0.224 0.171 0.145-0.053 0.185-0.040 0.119 0.066-0.119 0.198-0.607 0.211-0.607 0.026 0-0.066-0.066-0.132-0.145-0.132s-0.383-0.237-0.66-0.514c-0.488-0.514-0.62-0.58-1.068-0.554-0.185 0.013-0.237 0.132-0.237 0.514 0 0.488-0.277 1.042-0.62 1.253-0.092 0.053-0.171 0.171-0.171 0.264s-0.158 0.277-0.343 0.422c-0.317 0.224-0.317 0.264-0.092 0.343 0.198 0.079 0.171 0.106-0.092 0.092-0.185 0-0.448-0.040-0.58-0.066zM26.358 8.869c0-0.026-0.145-0.040-0.317-0.026-0.185 0.013-0.303 0.066-0.264 0.119 0.053 0.092 0.58 0 0.58-0.092zM25.632 8.685c0.040-0.079-0.013-0.092-0.119-0.053-0.237 0.092-0.277 0.185-0.092 0.185 0.079 0 0.171-0.053 0.211-0.132z"></path>
<path fill="#fff" d="M12.244 2.63c0-0.066-0.158-0.145-0.356-0.171l-0.369-0.040 0.422-0.237c0.237-0.119 0.607-0.409 0.831-0.62 0.224-0.224 0.462-0.396 0.528-0.396 0.343 0 0.211 0.33-0.396 0.937-0.356 0.369-0.66 0.607-0.66 0.528z"></path>
</svg>
