<!-- Generated by IcoMoon.io -->
<svg version="1.1" xmlns="http://www.w3.org/2000/svg" width="32" height="32" viewBox="0 0 32 32">
<title>treasure-realmstone</title>
<path fill="#fff" d="M15.99 31.996c-0.116-0.026-0.245-0.193-0.284-0.374-0.052-0.168-0.142-0.309-0.206-0.309-0.077 0-0.129-0.077-0.129-0.181s-0.129-0.206-0.297-0.258c-0.155-0.039-0.413-0.181-0.567-0.335-0.155-0.142-0.322-0.258-0.348-0.258-0.155 0-0.593-0.451-0.593-0.606 0-0.090-0.116-0.168-0.271-0.168s-0.387-0.142-0.529-0.322c-0.142-0.181-0.387-0.322-0.567-0.322-0.271 0-0.309-0.052-0.309-0.516 0-0.451-0.039-0.516-0.297-0.516-0.155 0-0.361-0.116-0.451-0.258-0.090-0.155-0.297-0.322-0.451-0.387-0.49-0.219-0.748-0.426-1.857-1.534-0.851-0.851-1.044-1.109-0.928-1.251 0.142-0.168 0.116-0.567-0.077-1.16-0.052-0.155-0.013-0.348 0.090-0.451 0.090-0.103 0.193-0.297 0.206-0.438 0.026-0.142 0.181-0.516 0.348-0.838s0.335-0.709 0.387-0.864c0.039-0.168 0.142-0.297 0.206-0.297s0.116-0.116 0.116-0.258c0-0.232 0.245-0.709 0.748-1.483 0.090-0.142 0.193-0.361 0.232-0.477 0.052-0.129 0.129-0.232 0.193-0.232s0.116-0.077 0.116-0.181c0-0.103 0.077-0.271 0.168-0.361 0.193-0.193 0.4-0.632 0.361-0.787-0.013-0.064 0.039-0.077 0.116-0.026 0.064 0.039 0.129 0.026 0.129-0.026 0-0.064 0.142-0.258 0.322-0.451s0.335-0.49 0.348-0.671c0.013-0.168 0.090-0.309 0.155-0.297 0.077 0.013 0.129-0.039 0.142-0.129 0-0.077 0.155-0.322 0.361-0.542 0.193-0.219 0.348-0.451 0.348-0.516s0.090-0.181 0.193-0.271c0.103-0.090 0.193-0.271 0.193-0.4 0-0.142 0.052-0.245 0.129-0.245 0.064 0 0.155-0.142 0.206-0.322 0.039-0.181 0.129-0.284 0.193-0.245s0.116-0.013 0.116-0.116c0-0.103 0.090-0.219 0.193-0.271 0.103-0.039 0.193-0.155 0.193-0.271 0-0.193 0.077-0.322 0.49-0.774 0.077-0.090 0.155-0.258 0.155-0.374 0-0.103 0.077-0.245 0.181-0.297s0.206-0.309 0.232-0.554c0.026-0.348 0.103-0.464 0.335-0.49 0.193-0.026 0.284 0.026 0.284 0.155 0 0.116 0.090 0.206 0.206 0.206 0.155 0 0.193 0.077 0.129 0.322-0.064 0.232-0.026 0.322 0.103 0.322 0.116 0 0.219 0.193 0.271 0.516 0.052 0.284 0.142 0.542 0.206 0.593 0.064 0.039 0.116 0.309 0.116 0.606s0.090 0.658 0.193 0.787c0.103 0.142 0.193 0.413 0.193 0.619 0 0.193 0.052 0.361 0.129 0.361 0.064 0 0.168 0.232 0.206 0.516 0.052 0.284 0.142 0.554 0.193 0.593 0.064 0.039 0.116 0.258 0.116 0.49s0.090 0.529 0.193 0.67c0.103 0.129 0.193 0.4 0.193 0.58 0 0.193 0.077 0.413 0.168 0.49 0.103 0.077 0.168 0.322 0.155 0.554-0.026 0.232 0 0.49 0.039 0.554 0.103 0.155 0.155 0.374 0.245 0.941 0.039 0.219 0.142 0.413 0.219 0.413 0.090 0 0.168 0.219 0.181 0.477 0.026 0.258 0.103 0.554 0.181 0.645 0.103 0.129 0.052 0.245-0.206 0.49-0.181 0.168-0.335 0.348-0.335 0.387 0 0.052-0.077 0.168-0.155 0.258-0.387 0.426-0.49 0.58-0.49 0.696 0 0.064-0.090 0.142-0.193 0.193-0.103 0.039-0.193 0.129-0.193 0.206s-0.077 0.232-0.155 0.322c-0.335 0.374-0.49 0.567-0.49 0.632 0 0.039-0.168 0.245-0.387 0.477-0.4 0.451-0.774 1.689-0.516 1.767 0.064 0.026 0.129 0.129 0.129 0.232s0.090 0.181 0.193 0.181c0.103 0 0.193 0.064 0.193 0.155 0 0.142 0.464 0.593 1.083 1.057 0.245 0.181 0.335 0.361 0.335 0.671 0 0.529 0.103 0.542 0.567 0.116 0.193-0.181 0.4-0.322 0.477-0.322 0.142 0 0.374-0.529 0.284-0.671-0.026-0.064-0.193-0.103-0.374-0.103-0.168 0-0.309-0.052-0.309-0.129 0-0.064-0.090-0.129-0.193-0.129s-0.193-0.077-0.193-0.155c-0.013-0.090-0.245-0.322-0.516-0.516-0.284-0.206-0.503-0.438-0.49-0.516 0.026-0.103-0.116-0.181-0.309-0.206-0.322-0.039-0.348-0.077-0.219-0.297 0.168-0.335 0.593-0.761 0.748-0.761 0.064 0 0.142-0.103 0.193-0.219 0.103-0.335 0.361-0.709 0.696-1.006 0.155-0.142 0.284-0.322 0.284-0.4 0-0.064 0.232-0.361 0.516-0.632s0.516-0.593 0.529-0.709c0-0.142 0.026-0.142 0.077-0.026 0.052 0.129 0.116 0.116 0.309-0.052 0.335-0.297 0.309-0.438-0.103-0.774-0.335-0.271-0.348-0.309-0.193-0.722 0.103-0.271 0.116-0.438 0.026-0.464-0.064-0.026-0.129-0.258-0.129-0.516s-0.090-0.593-0.193-0.722c-0.103-0.142-0.193-0.413-0.193-0.606s-0.077-0.374-0.155-0.413c-0.090-0.026-0.116-0.103-0.064-0.168 0.052-0.052 0.219-0.039 0.348 0.052 0.155 0.090 0.258 0.103 0.258 0.026 0-0.064-0.129-0.155-0.297-0.193-0.361-0.090-0.735-0.735-0.735-1.251 0-0.206-0.090-0.464-0.193-0.567-0.103-0.116-0.193-0.335-0.193-0.516 0-0.168-0.052-0.309-0.116-0.309s-0.142-0.129-0.181-0.284c-0.103-0.49-0.4-1.186-0.567-1.367-0.090-0.090-0.168-0.309-0.168-0.477s-0.064-0.348-0.129-0.387c-0.064-0.039-0.129-0.206-0.129-0.374 0-0.155-0.090-0.4-0.193-0.542-0.103-0.129-0.193-0.438-0.193-0.658 0-0.232-0.052-0.426-0.116-0.426-0.155 0-0.258-0.464-0.181-0.774 0.077-0.297 0.297-0.348 0.297-0.064 0 0.103 0.181 0.361 0.387 0.554 0.219 0.206 0.387 0.503 0.387 0.658 0 0.142 0.064 0.271 0.129 0.271 0.077 0 0.129 0.064 0.129 0.155 0 0.193 0.812 1.831 0.941 1.883 0.052 0.026 0.090 0.181 0.090 0.348s0.052 0.335 0.116 0.387c0.077 0.039 0.258 0.348 0.426 0.683s0.335 0.632 0.4 0.645c0.052 0.026 0.090 0.181 0.090 0.348 0 0.155 0.090 0.361 0.193 0.451s0.193 0.245 0.193 0.335c0 0.103 0.064 0.181 0.129 0.181 0.077 0 0.129 0.090 0.129 0.193 0 0.090 0.077 0.232 0.168 0.284 0.181 0.116 0.451 0.529 0.554 0.851 0.052 0.116 0.129 0.219 0.193 0.219s0.116 0.077 0.116 0.181c0 0.090 0.090 0.245 0.193 0.335s0.193 0.258 0.193 0.387c0 0.129 0.090 0.297 0.193 0.387s0.193 0.258 0.193 0.387c0 0.129 0.090 0.271 0.206 0.309 0.103 0.039 0.155 0.129 0.116 0.206-0.039 0.064 0.026 0.129 0.155 0.129 0.193 0 0.206 0.026 0.039 0.129-0.129 0.077-0.142 0.129-0.026 0.129 0.077 0 0.155 0.116 0.155 0.245 0 0.142 0.077 0.335 0.168 0.426 0.077 0.090 0.271 0.387 0.4 0.658 0.142 0.258 0.297 0.477 0.361 0.477 0.052 0 0.103 0.297 0.103 0.645 0 0.503 0.052 0.645 0.206 0.645 0.103 0 0.168 0.052 0.116 0.116-0.039 0.077 0.039 0.181 0.155 0.258 0.129 0.077 0.155 0.142 0.077 0.142-0.090 0-0.168 0.103-0.168 0.232 0 0.116-0.632 0.838-1.393 1.586-0.761 0.761-1.56 1.586-1.792 1.831s-0.606 0.529-0.851 0.619c-0.245 0.090-0.542 0.309-0.645 0.49-0.116 0.193-0.322 0.348-0.464 0.361-0.348 0.026-0.658 0.335-0.658 0.645 0 0.129-0.103 0.348-0.219 0.49-0.168 0.206-0.193 0.219-0.129 0.039 0.142-0.4-0.142-0.245-0.761 0.413-0.335 0.361-0.683 0.645-0.787 0.645s-0.155 0.052-0.116 0.103c0.103 0.181-0.606 0.761-0.851 0.709zM16.661 30.784c0-0.142-0.052-0.232-0.129-0.181-0.064 0.039-0.090 0.155-0.039 0.258 0.090 0.271 0.168 0.245 0.168-0.077zM16.274 30.733c0-0.103-0.052-0.193-0.129-0.193-0.064 0-0.129 0.090-0.129 0.193s0.064 0.193 0.129 0.193c0.077 0 0.129-0.090 0.129-0.193zM17.048 30.436c0-0.090-0.052-0.129-0.129-0.090-0.064 0.039-0.129 0.206-0.129 0.361 0 0.232 0.026 0.245 0.129 0.090 0.064-0.103 0.129-0.271 0.129-0.361zM15.81 30.488c-0.052-0.129 0.039-0.206 0.297-0.245 0.348-0.052 0.348-0.052-0.052-0.077-0.335-0.013-0.426-0.064-0.426-0.271 0-0.258-0.013-0.258-0.309-0.039-0.348 0.258-0.335 0.438 0.039 0.335 0.155-0.039 0.258 0.026 0.309 0.206 0.039 0.155 0.103 0.271 0.142 0.271s0.039-0.077 0-0.181zM18.685 29.675c-0.052-0.039-0.090 0-0.090 0.090s0.039 0.129 0.090 0.090c0.039-0.052 0.039-0.129 0-0.181zM19.717 28.644c-0.052-0.039-0.090 0-0.090 0.090s0.039 0.129 0.090 0.090c0.039-0.052 0.039-0.129 0-0.181zM13.282 28.231c0.052-0.335 0.4-0.787 0.606-0.787 0.090 0 0.284-0.142 0.451-0.322s0.374-0.322 0.477-0.322c0.090 0 0.168-0.052 0.168-0.116s0.181-0.297 0.387-0.503c0.426-0.426 0.49-0.671 0.193-0.671-0.103 0-0.193 0.064-0.193 0.129 0 0.077-0.064 0.129-0.142 0.129s-0.206 0.077-0.297 0.168c-0.090 0.077-0.438 0.387-0.787 0.671-1.586 1.315-1.921 1.767-1.38 1.908 0.348 0.090 0.477 0.026 0.516-0.284zM20.465 27.303c0.142-0.206 0.013-0.245-0.168-0.039-0.090 0.103-0.103 0.181-0.039 0.181s0.168-0.064 0.206-0.142zM19.627 27.122c0-0.026-0.142-0.206-0.335-0.387-0.181-0.181-0.284-0.387-0.245-0.451 0.052-0.077-0.064-0.116-0.245-0.103-0.193 0.013-0.335 0.103-0.335 0.206 0 0.090 0.064 0.129 0.129 0.090 0.155-0.090 0.516 0.232 0.516 0.451 0 0.077 0.052 0.116 0.116 0.064 0.064-0.039 0.155-0.013 0.206 0.064 0.077 0.129 0.193 0.181 0.193 0.064zM18.208 26.232c0-0.039-0.064-0.103-0.155-0.155s-0.103-0.039-0.052 0.052c0.090 0.155 0.206 0.206 0.206 0.103zM15.333 25.059c0.039-0.116-0.026-0.309-0.155-0.451s-0.193-0.335-0.155-0.438c0.052-0.116 0.013-0.168-0.077-0.129-0.155 0.052-0.696-0.799-0.632-1.006 0.013-0.052-0.052-0.103-0.155-0.103-0.090 0-0.206-0.116-0.245-0.258-0.039-0.168-0.013-0.232 0.064-0.168 0.090 0.039 0.103 0.013 0.052-0.064-0.052-0.090-0.168-0.155-0.258-0.155s-0.271-0.206-0.413-0.451c-0.129-0.245-0.297-0.451-0.348-0.451-0.064 0-0.090-0.387-0.064-0.851 0.039-0.606 0.116-0.903 0.271-1.019 0.116-0.090 0.219-0.309 0.219-0.49s0.064-0.374 0.129-0.413c0.077-0.039 0.129-0.284 0.129-0.529s0.064-0.438 0.129-0.438c0.077 0 0.129-0.232 0.129-0.503 0-0.284 0.064-0.554 0.129-0.593 0.077-0.052 0.103-0.142 0.064-0.206-0.052-0.064-0.026-0.116 0.039-0.116 0.077 0 0.155-0.193 0.193-0.413 0.129-0.761 0.4-1.65 0.503-1.65 0.064 0 0.103-0.219 0.103-0.477 0-0.271 0.090-0.606 0.193-0.735 0.103-0.142 0.193-0.413 0.193-0.619 0-0.193 0.064-0.361 0.129-0.361 0.077 0 0.129-0.090 0.129-0.193s0.116-0.413 0.271-0.696c0.271-0.529 0.284-0.928 0.052-0.993-0.129-0.039-0.58 0.799-0.58 1.070 0 0.077-0.090 0.168-0.193 0.219-0.103 0.039-0.193 0.181-0.193 0.322s-0.052 0.297-0.129 0.335c-0.064 0.039-0.129 0.284-0.129 0.542 0 0.245-0.077 0.606-0.181 0.787-0.232 0.464-0.593 1.586-0.593 1.87 0 0.116-0.052 0.219-0.129 0.219-0.064 0-0.168 0.232-0.206 0.516-0.052 0.284-0.129 0.516-0.193 0.516s-0.116 0.219-0.116 0.49c0 0.258-0.090 0.593-0.193 0.722-0.103 0.142-0.193 0.413-0.193 0.619 0 0.193-0.052 0.361-0.116 0.361s-0.155 0.206-0.193 0.451c-0.052 0.245-0.142 0.451-0.206 0.451-0.077 0-0.129 0.142-0.129 0.309s-0.090 0.374-0.193 0.464c-0.116 0.090-0.181 0.335-0.168 0.567 0.026 0.438 0.309 1.109 0.477 1.109 0.052 0 0.168 0.142 0.245 0.322 0.077 0.168 0.374 0.464 0.658 0.645 0.348 0.219 0.503 0.387 0.451 0.516-0.052 0.103-0.013 0.193 0.064 0.193s0.142 0.155 0.142 0.335c0 0.245 0.052 0.322 0.181 0.271s0.232 0.026 0.284 0.206c0.090 0.297 0.529 0.735 0.722 0.735 0.064 0 0.142-0.090 0.193-0.193zM14.92 23.589c-0.039-0.064 0.039-0.155 0.155-0.181 0.142-0.039 0.103-0.064-0.116-0.077-0.258-0.013-0.335 0.039-0.284 0.181 0.052 0.103 0.129 0.193 0.206 0.193 0.064 0 0.090-0.052 0.039-0.116zM13.695 23.396c0-0.039-0.064-0.103-0.155-0.155s-0.103-0.039-0.052 0.052c0.090 0.155 0.206 0.206 0.206 0.103zM14.507 22.712c-0.090-0.026-0.245-0.026-0.322 0-0.090 0.039-0.026 0.064 0.155 0.064s0.245-0.026 0.168-0.064zM20.826 20.391c-0.090-0.039-0.181-0.181-0.181-0.335-0.013-0.206-0.039-0.181-0.103 0.103-0.090 0.413 0.090 0.671 0.309 0.426 0.090-0.090 0.077-0.155-0.026-0.193zM21.006 19.617c-0.052-0.039-0.129-0.039-0.181 0-0.039 0.052 0 0.090 0.090 0.090s0.129-0.039 0.090-0.090zM20.748 18.973c0.013-0.284-0.013-0.309-0.103-0.129-0.077 0.116-0.090 0.284-0.052 0.348 0.116 0.181 0.129 0.168 0.155-0.219zM20.31 18.096c-0.039-0.116-0.103-0.181-0.129-0.142-0.039 0.039-0.026 0.116 0.026 0.193 0.116 0.206 0.193 0.168 0.103-0.052z"></path>
<path fill="#fff" d="M19.755 30.965c0-0.116 0.155-0.361 0.348-0.516 0.309-0.271 0.413-0.297 1.341-0.219 0.825 0.077 1.070 0.052 1.328-0.129 0.193-0.116 0.593-0.206 0.98-0.206 0.361 0 0.722-0.052 0.812-0.129 0.787-0.632 1.122-0.954 1.122-1.109 0-0.103 0.039-0.181 0.103-0.181 0.155 0 0.542-0.774 0.542-1.096 0-0.168 0.090-0.658 0.206-1.083 0.142-0.593 0.181-1.289 0.155-2.811s0-2.024 0.129-2.063c0.077-0.039 0.155-0.168 0.155-0.284 0-0.129 0.142-0.4 0.322-0.606s0.361-0.503 0.4-0.658c0.052-0.168 0.129-0.297 0.193-0.297s0.116-0.181 0.116-0.413c0-0.297-0.129-0.516-0.516-0.89-0.284-0.271-0.516-0.554-0.516-0.632 0-0.064-0.052-0.129-0.129-0.129-0.064 0-0.129-0.116-0.129-0.245 0-0.142-0.052-0.297-0.129-0.335-0.064-0.039-0.129-0.181-0.129-0.297 0-0.193 0.026-0.193 0.142-0.026 0.090 0.142 0.116 0.026 0.090-0.438-0.013-0.413 0.026-0.658 0.129-0.696 0.090-0.026 0.155-0.155 0.155-0.297s0.090-0.284 0.193-0.322c0.103-0.052 0.193-0.168 0.193-0.271s0.064-0.142 0.142-0.103c0.077 0.052 0.168-0.026 0.206-0.168 0.039-0.155 0.245-0.361 0.464-0.464 0.645-0.322 0.864-0.529 0.864-0.838 0-0.284-0.039-0.284-1.122-0.258-1.096 0.026-1.483 0.155-1.934 0.58-0.090 0.090-0.335 0.232-0.554 0.335-0.219 0.090-0.426 0.297-0.464 0.464-0.116 0.438-0.297 0.335-0.387-0.232-0.052-0.284-0.129-0.516-0.193-0.516-0.309 0 0.064-1.173 0.554-1.741 0.155-0.181 0.361-0.322 0.451-0.322s0.168-0.052 0.168-0.129c0-0.064 0.077-0.129 0.168-0.129 0.271 0 1.251-1.109 1.251-1.418 0-0.142 0.090-0.297 0.193-0.335 0.103-0.052 0.193-0.181 0.193-0.297s0.077-0.309 0.181-0.426c0.090-0.129 0.142-0.451 0.116-0.774-0.026-0.4 0-0.503 0.090-0.361s0.129 0.155 0.129 0.026c0-0.103-0.116-0.206-0.258-0.245-0.245-0.064-0.271-0.155-0.232-0.864 0.039-0.67 0.077-0.787 0.297-0.838 0.142-0.026 0.309-0.116 0.361-0.219s0.155-0.181 0.219-0.181c0.168 0 0.168 0.683 0.013 0.851-0.064 0.064-0.142 0.748-0.168 1.522-0.026 0.98-0.090 1.431-0.193 1.47-0.090 0.026-0.168 0.142-0.168 0.271 0 0.116-0.090 0.335-0.193 0.477-0.103 0.129-0.193 0.335-0.193 0.438 0 0.271-1.264 1.547-1.509 1.547-0.168 0-0.554 0.709-0.554 1.019 0 0.155 0.077 0.271 0.193 0.271 0.103 0 0.193-0.052 0.193-0.129 0-0.064 0.142-0.129 0.309-0.129s0.335-0.077 0.374-0.168c0.064-0.168 2.179-0.554 2.385-0.426 0.168 0.103 0.928-0.168 0.928-0.322 0-0.064 0.090-0.116 0.193-0.116s0.193-0.090 0.193-0.193c0-0.142 0.142-0.193 0.516-0.193 0.606 0 0.645 0.116 0.168 0.619-1.044 1.083-1.715 1.883-1.715 2.037 0 0.103-0.052 0.181-0.103 0.181-0.064 0-0.193 0.142-0.284 0.322-0.090 0.168-0.206 0.297-0.258 0.284s-0.309 0.193-0.567 0.464c-0.413 0.451-0.464 0.567-0.464 1.199 0 0.529 0.052 0.696 0.193 0.696 0.116 0 0.155 0.077 0.116 0.193-0.052 0.116 0 0.193 0.103 0.193s0.335 0.181 0.503 0.413c0.168 0.232 0.413 0.516 0.542 0.645 0.245 0.258 0.284 1.238 0.052 1.547-0.077 0.116-0.090 0.077-0.026-0.090 0.077-0.245 0.064-0.232-0.181 0.026-0.155 0.155-0.271 0.335-0.271 0.413 0 0.064-0.090 0.142-0.193 0.193-0.103 0.039-0.193 0.181-0.193 0.309 0 0.142-0.142 0.387-0.322 0.567-0.309 0.309-0.309 0.348-0.361 3.017-0.052 2.553-0.219 3.92-0.503 3.92-0.064 0-0.103 0.077-0.103 0.168s-0.116 0.232-0.258 0.322c-0.142 0.077-0.335 0.361-0.438 0.606s-0.284 0.451-0.387 0.451c-0.116 0-0.206 0.064-0.206 0.129 0 0.077-0.090 0.129-0.193 0.129s-0.193 0.052-0.193 0.103c0 0.348-1.586 0.658-3.83 0.748-1.341 0.064-1.457 0.052-1.457-0.168zM25.777 29.675c-0.052-0.039-0.090 0-0.090 0.090s0.039 0.129 0.090 0.090c0.039-0.052 0.039-0.129 0-0.181z"></path>
<path fill="#fff" d="M19.046 29.508c0.039-0.064 0.103-0.129 0.142-0.129s0.026 0.064-0.013 0.129c-0.039 0.077-0.103 0.129-0.142 0.129s-0.026-0.052 0.013-0.129z"></path>
<path fill="#fff" d="M7.996 28.063c-0.297-0.271-0.735-0.49-0.98-0.49-0.129 0-0.348-0.090-0.49-0.193-0.129-0.103-0.348-0.193-0.477-0.193s-0.258-0.090-0.297-0.193c-0.052-0.103-0.193-0.193-0.322-0.193-0.258 0-2.437-2.063-2.437-2.308 0-0.077-0.052-0.142-0.129-0.142-0.064 0-0.155-0.142-0.206-0.322-0.039-0.181-0.142-0.322-0.232-0.322-0.168 0-0.464-0.593-0.464-0.928 0-0.129-0.077-0.232-0.155-0.232-0.116 0-0.103-0.052 0.026-0.129 0.168-0.103 0.155-0.129-0.026-0.129-0.155 0-0.232-0.103-0.232-0.309 0-0.181-0.052-0.361-0.129-0.4-0.064-0.039-0.129-0.232-0.129-0.426s-0.090-0.464-0.193-0.593c-0.271-0.361-0.271-3.507 0-3.868 0.103-0.142 0.193-0.387 0.193-0.542 0-0.168 0.064-0.335 0.129-0.374 0.077-0.039 0.129-0.181 0.129-0.297 0-0.129 0.116-0.322 0.258-0.451 0.142-0.116 0.258-0.309 0.258-0.426 0-0.129 0.064-0.181 0.206-0.129 0.129 0.052 0.232-0.039 0.335-0.309 0.077-0.232 0.219-0.387 0.361-0.387 0.129 0 0.258-0.090 0.309-0.193 0.039-0.103 0.181-0.193 0.322-0.193 0.129 0 0.271-0.090 0.322-0.193 0.039-0.103 0.181-0.193 0.322-0.193s0.297-0.052 0.335-0.129c0.142-0.219 0.451-0.142 0.451 0.116 0 0.322-0.374 1.032-0.696 1.328-0.387 0.361-0.98 1.496-0.98 1.895 0 0.116-0.090 0.322-0.193 0.451-0.103 0.142-0.193 0.387-0.193 0.542s-0.090 0.309-0.193 0.361c-0.129 0.039-0.193 0.245-0.193 0.58 0 0.284-0.052 0.554-0.129 0.593s-0.129 0.232-0.129 0.413c0 0.193-0.064 0.542-0.155 0.774-0.129 0.348-0.129 0.49 0 0.683 0.090 0.142 0.155 0.503 0.155 0.825 0 0.335 0.077 0.619 0.181 0.722 0.103 0.077 0.155 0.232 0.116 0.335s0.013 0.181 0.129 0.181c0.116 0 0.245 0.052 0.284 0.129s-0.013 0.090-0.116 0.052c-0.219-0.090-0.284 0.142-0.077 0.271 0.077 0.039 0.129 0.193 0.129 0.335 0 0.129 0.052 0.245 0.116 0.245s0.168 0.129 0.219 0.284c0.039 0.155 0.155 0.348 0.232 0.438 0.077 0.077 0.232 0.284 0.335 0.438 0.103 0.168 0.361 0.451 0.567 0.632s0.451 0.413 0.542 0.503c0.090 0.077 0.219 0.155 0.297 0.155s0.142 0.039 0.142 0.103c0 0.129 0.748 0.542 0.98 0.542 0.090 0 0.554 0.232 1.019 0.516s0.967 0.516 1.135 0.516c0.426 0 0.864 0.142 0.864 0.271 0 0.181-1.251 0.142-1.444-0.039z"></path>
<path fill="#fff" d="M17.215 26.838c0.052-0.039 0.129-0.039 0.181 0 0.039 0.052 0 0.090-0.090 0.090s-0.129-0.039-0.090-0.090z"></path>
<path fill="#fff" d="M6.139 25.962c-0.052-0.103-0.155-0.193-0.245-0.193-0.206 0-0.606-0.451-0.49-0.554 0.039-0.052-0.013-0.090-0.129-0.090s-0.219-0.090-0.219-0.193c0-0.103-0.077-0.193-0.181-0.193-0.090 0-0.284-0.206-0.413-0.464-0.142-0.258-0.297-0.567-0.374-0.709-0.064-0.129-0.181-0.245-0.258-0.245-0.064 0-0.039-0.064 0.064-0.129 0.168-0.103 0.155-0.129-0.026-0.129-0.168 0-0.232-0.103-0.232-0.361 0-0.193-0.077-0.438-0.155-0.529-0.271-0.258-0.181-3.095 0.103-3.752 0.129-0.284 0.271-0.516 0.335-0.516 0.052 0 0.103-0.116 0.103-0.245 0-0.696 0.967-1.818 1.573-1.818 0.206 0 0.4-0.090 0.438-0.193 0.052-0.103 0.219-0.193 0.387-0.193s0.309-0.052 0.309-0.129c0-0.064 0.103-0.129 0.245-0.129 0.129 0 0.309-0.090 0.4-0.193s0.271-0.193 0.413-0.193c0.129 0 0.335-0.077 0.451-0.155 0.567-0.464 0.941-0.877 0.941-1.057 0-0.116 0.052-0.206 0.129-0.206 0.064 0 0.155-0.206 0.206-0.451 0.039-0.245 0.129-0.49 0.193-0.529 0.155-0.090 0.142-1.56-0.013-1.663-0.168-0.103-0.168-0.928 0-1.032 0.077-0.039 0.129-0.335 0.129-0.645 0-0.529 0.426-1.612 0.671-1.715 0.052-0.026 0.103-0.129 0.103-0.232s0.077-0.168 0.168-0.142c0.077 0.013 0.142-0.039 0.129-0.129-0.013-0.077 0.142-0.181 0.348-0.232 0.219-0.052 0.387-0.142 0.387-0.219 0-0.193 0.348-0.49 0.58-0.49 0.103 0 0.232-0.077 0.271-0.168 0.026-0.090 0.297-0.181 0.606-0.206 0.297-0.013 0.567-0.077 0.58-0.155 0.064-0.155 1.663-0.155 1.767 0.013 0.129 0.206 2.334 0.168 2.553-0.064 0.103-0.103 0.219-0.155 0.258-0.116 0.116 0.116 0.864-0.374 0.864-0.554 0-0.090 0.090-0.168 0.193-0.168s0.193-0.103 0.193-0.232c0-0.142 0.103-0.438 0.219-0.683 0.245-0.503 1.483-1.792 1.728-1.792 0.077 0 0.219-0.077 0.297-0.181 0.142-0.193 0.761-0.258 2.308-0.219 0.49 0 0.851 0.064 0.812 0.129-0.142 0.232 1.032-0.193 1.289-0.464 0.155-0.168 0.335-0.297 0.426-0.297 0.077 0 0.142-0.064 0.142-0.129 0-0.258 0.49-0.67 0.735-0.619 0.309 0.052 0.361 0.503 0.116 0.993-0.116 0.206-0.206 0.567-0.206 0.787 0 0.206-0.052 0.387-0.129 0.387-0.064 0-0.155 0.142-0.206 0.309-0.039 0.168-0.206 0.374-0.387 0.464-0.168 0.103-0.309 0.245-0.309 0.348 0 0.090-0.090 0.168-0.193 0.168s-0.193 0.090-0.193 0.193c0 0.103-0.090 0.193-0.193 0.193-0.116 0-0.271 0.064-0.361 0.129-0.58 0.49-0.787 0.645-0.864 0.645-0.142 0-0.787 0.683-0.916 0.967-0.064 0.142-0.168 0.348-0.219 0.451-0.387 0.67-0.464 0.954-0.542 2.128-0.052 0.709-0.064 1.328-0.039 1.393 0.090 0.155 0.4 0.103 0.477-0.103 0.052-0.155 0.322-0.193 1.238-0.193 0.683 0 1.16-0.052 1.16-0.129 0-0.064 0.077-0.129 0.181-0.129 0.181 0 1.173-0.89 1.173-1.044 0-0.052 0.039-0.142 0.090-0.193 0.181-0.181 0.258 0.335 0.090 0.554-0.129 0.155-0.129 0.193-0.013 0.116 0.297-0.181 0.155 0.052-0.374 0.58-0.413 0.413-0.49 0.554-0.361 0.645 0.129 0.077 0.077 0.116-0.168 0.116-0.181 0-0.361 0.064-0.387 0.155-0.039 0.116-0.297 0.116-1.109-0.013-1.006-0.142-1.083-0.142-1.431 0.103-0.193 0.142-0.4 0.232-0.438 0.193s-0.168 0.064-0.284 0.245c-0.297 0.464-0.709 0.322-0.709-0.245 0-0.232 0.064-0.464 0.129-0.503 0.181-0.103 0.168-1.057-0.013-1.173-0.077-0.052-0.116-0.271-0.064-0.554 0.039-0.258 0.103-0.722 0.155-1.044 0.077-0.554 0.735-1.676 0.98-1.676 0.052 0 0.103-0.090 0.103-0.193s0.077-0.193 0.181-0.193c0.103 0 0.206-0.090 0.258-0.193 0.039-0.103 0.155-0.193 0.271-0.193s0.335-0.142 0.503-0.322c0.168-0.181 0.413-0.322 0.567-0.322 0.142 0 0.284-0.090 0.335-0.193 0.039-0.103 0.155-0.193 0.271-0.193 0.103 0 0.348-0.232 0.529-0.516 0.193-0.284 0.4-0.516 0.451-0.516 0.064 0 0.116-0.090 0.116-0.193s0.064-0.193 0.129-0.193c0.077 0 0.129-0.142 0.129-0.322 0-0.4-0.129-0.4-0.529-0.052-0.168 0.155-0.451 0.322-0.619 0.387-0.516 0.206-2.398 0.077-2.269-0.155 0.090-0.129-0.322-0.052-0.658 0.116-0.142 0.064-0.4 0.206-0.606 0.297-0.193 0.090-0.387 0.284-0.426 0.438-0.090 0.361-0.155 0.735-0.168 0.941-0.013 0.077-0.052 0.142-0.103 0.142-0.271-0.039-0.4 0.052-0.658 0.503-0.142 0.271-0.387 0.593-0.542 0.735-0.142 0.129-0.258 0.284-0.258 0.348s-0.064 0.181-0.129 0.271c-0.077 0.090-0.284 0.335-0.451 0.542-0.322 0.387-0.322 0.387-1.689 0.387-1.148 0-1.38-0.039-1.483-0.219s-0.271-0.206-1.057-0.155c-0.503 0.039-1.070 0.116-1.251 0.181s-0.464 0.142-0.645 0.181c-0.181 0.039-0.58 0.297-0.877 0.593-0.309 0.284-0.632 0.477-0.696 0.438-0.077-0.052-0.387 0.181-0.696 0.516-0.477 0.529-0.567 0.722-0.632 1.341-0.052 0.413-0.142 0.864-0.219 1.006-0.090 0.193-0.090 0.361 0.013 0.542 0.181 0.335 0.181 1.277 0.013 1.38-0.064 0.039-0.129 0.374-0.129 0.722 0 0.451-0.052 0.658-0.193 0.709-0.103 0.052-0.193 0.193-0.193 0.322s-0.052 0.245-0.129 0.245c-0.064 0-0.129 0.064-0.129 0.142 0 0.193-0.645 0.941-0.825 0.967-0.348 0.039-0.387 0.077-0.142 0.181 0.219 0.090 0.206 0.116-0.129 0.129-0.206 0.013-0.542 0.013-0.735 0-0.206-0.013-0.361 0.039-0.361 0.116 0 0.064-0.258 0.168-0.58 0.219-0.322 0.039-0.58 0.129-0.58 0.181s-0.193 0.129-0.413 0.181c-0.297 0.064-0.374 0.116-0.258 0.193 0.142 0.090 0.129 0.129-0.039 0.193-0.309 0.116-0.348 0.103-0.245-0.077 0.052-0.090 0.039-0.103-0.052-0.052-0.219 0.129-0.193 0.335 0.026 0.335 0.103 0 0.232 0.064 0.284 0.155 0.052 0.077 0.039 0.116-0.026 0.064-0.064-0.039-0.129 0.168-0.129 0.451-0.013 0.284-0.090 0.58-0.168 0.658s-0.142 0.348-0.142 0.606c0 0.271-0.090 0.671-0.206 0.903-0.181 0.348-0.206 0.658-0.142 1.65 0.052 0.683 0.142 1.289 0.219 1.367 0.064 0.064 0.129 0.258 0.129 0.426s0.052 0.297 0.129 0.297c0.064 0 0.155 0.142 0.206 0.322 0.039 0.181 0.129 0.322 0.193 0.322s0.116 0.090 0.116 0.193c0 0.103 0.077 0.193 0.181 0.193s0.219 0.142 0.258 0.322c0.052 0.181 0.142 0.322 0.206 0.322 0.077 0 0.129 0.077 0.129 0.181s0.064 0.206 0.129 0.232c0.077 0.026 0.013 0.116-0.129 0.206-0.219 0.129-0.271 0.129-0.335-0.039zM5.829 25.588c0-0.039-0.064-0.103-0.155-0.155s-0.103-0.039-0.052 0.052c0.090 0.155 0.206 0.206 0.206 0.103z"></path>
<path fill="#fff" d="M17.473 25.936c0.052-0.039 0.129-0.039 0.181 0 0.039 0.052 0 0.090-0.090 0.090s-0.129-0.039-0.090-0.090z"></path>
<path fill="#fff" d="M3.16 23.357c0.052-0.039 0.129-0.039 0.181 0 0.039 0.052 0 0.090-0.090 0.090s-0.129-0.039-0.090-0.090z"></path>
<path fill="#fff" d="M3.315 22.931c-0.039-0.064-0.013-0.129 0.052-0.129 0.077 0 0.142 0.064 0.142 0.129 0 0.077-0.026 0.129-0.052 0.129-0.039 0-0.103-0.052-0.142-0.129z"></path>
<path fill="#fff" d="M7.673 16.136c0.052-0.039 0.129-0.039 0.181 0 0.039 0.052 0 0.090-0.090 0.090s-0.129-0.039-0.090-0.090z"></path>
<path fill="#fff" d="M28.201 15.066c0.039-0.064 0.103-0.129 0.142-0.129 0.026 0 0.052 0.064 0.052 0.129 0 0.077-0.064 0.129-0.142 0.129-0.064 0-0.090-0.052-0.052-0.129z"></path>
<path fill="#fff" d="M22.592 10.94c0-0.090 0.039-0.129 0.090-0.090 0.039 0.052 0.039 0.129 0 0.181-0.052 0.039-0.090 0-0.090-0.090z"></path>
<path fill="#fff" d="M22.721 10.553c0-0.090 0.039-0.129 0.090-0.090 0.039 0.052 0.039 0.129 0 0.181-0.052 0.039-0.090 0-0.090-0.090z"></path>
<path fill="#fff" d="M11.671 7.883c0.052-0.039 0.129-0.039 0.181 0 0.039 0.052 0 0.090-0.090 0.090s-0.129-0.039-0.090-0.090z"></path>
</svg>
