<!-- Generated by IcoMoon.io -->
<svg version="1.1" xmlns="http://www.w3.org/2000/svg" width="32" height="32" viewBox="0 0 32 32">
<title>twists-fate</title>
<path fill="#fff" d="M13.497 31.886c-0.135-0.068-0.203-0.248-0.203-0.507 0-0.225-0.079-0.473-0.169-0.564-0.090-0.101-0.169-0.271-0.169-0.395 0-0.113-0.045-0.214-0.113-0.214-0.056 0-0.113-0.113-0.113-0.259s-0.079-0.361-0.169-0.485c-0.090-0.113-0.169-0.316-0.169-0.451 0-0.124-0.079-0.327-0.169-0.451-0.090-0.113-0.169-0.349-0.169-0.53 0-0.293-0.034-0.395-0.316-0.936-0.068-0.135-0.158-0.428-0.192-0.654-0.045-0.225-0.124-0.406-0.169-0.406-0.056 0-0.124-0.147-0.169-0.338-0.045-0.18-0.124-0.361-0.18-0.395-0.056-0.045-0.101-0.169-0.101-0.282 0-0.124-0.147-0.372-0.338-0.564-0.18-0.192-0.338-0.44-0.338-0.564 0-0.113-0.056-0.225-0.113-0.248-0.068-0.023-0.135-0.147-0.147-0.293 0-0.135-0.079-0.248-0.158-0.248s-0.147-0.068-0.147-0.158c0-0.090-0.045-0.18-0.101-0.203-0.045-0.011-0.135-0.147-0.169-0.282-0.124-0.383 0.316-0.338 0.8 0.079 0.203 0.192 0.327 0.338 0.259 0.338-0.237 0 0.327 0.428 0.665 0.507 0.192 0.045 0.349 0.124 0.349 0.18s0.124 0.101 0.271 0.101c0.192 0 0.293-0.079 0.338-0.282 0.079-0.327-0.034-1.161-0.169-1.251-0.147-0.079-0.124-1.736 0.011-1.736 0.068 0 0.113-0.147 0.113-0.327s0.079-0.383 0.169-0.462c0.090-0.079 0.169-0.214 0.169-0.293 0-0.090 0.045-0.158 0.113-0.158 0.056 0 0.135-0.124 0.18-0.282 0.034-0.158 0.113-0.282 0.158-0.282s0.113-0.090 0.158-0.192c0.101-0.316 0.316-0.62 0.665-0.936 0.18-0.158 0.519-0.462 0.744-0.688 0.53-0.507 1.263-1.003 1.961-1.33 0.293-0.147 0.53-0.293 0.53-0.349 0-0.045 0.124-0.124 0.282-0.158 0.158-0.045 0.282-0.124 0.282-0.18 0-0.068 0.045-0.113 0.101-0.113 0.090 0 0.316-0.18 1.544-1.285 0.271-0.237 0.496-0.53 0.496-0.643 0-0.124 0.045-0.214 0.113-0.214 0.056 0 0.135-0.124 0.18-0.282 0.034-0.158 0.113-0.282 0.169-0.282s0.101-0.090 0.101-0.214c0-0.113 0.079-0.271 0.169-0.349 0.113-0.090 0.169-0.338 0.169-0.688 0-0.293 0.056-0.575 0.113-0.609 0.068-0.034 0.113-0.406 0.101-0.823 0-0.53-0.034-0.688-0.101-0.53-0.079 0.18-0.101 0.192-0.101 0.034-0.011-0.225 0.237-0.417 0.304-0.225 0.045 0.158 0.248 0.18 0.248 0.023 0-0.056-0.124-0.135-0.282-0.18-0.225-0.056-0.282-0.135-0.282-0.44 0-0.203-0.079-0.428-0.169-0.507s-0.169-0.259-0.169-0.417c0-0.147-0.045-0.248-0.090-0.214-0.056 0.034-0.101-0.011-0.101-0.101 0-0.192-0.372-0.947-0.564-1.161-0.079-0.079-0.147-0.214-0.147-0.304 0-0.079-0.045-0.169-0.090-0.192-0.045-0.011-0.203-0.225-0.349-0.451-0.135-0.237-0.304-0.428-0.361-0.428s-0.101-0.079-0.101-0.169c0-0.090-0.056-0.169-0.113-0.169-0.068 0-0.259-0.124-0.428-0.282s-0.44-0.282-0.609-0.282c-0.18 0-0.316-0.045-0.316-0.113 0-0.056-0.203-0.147-0.451-0.18-0.248-0.045-0.485-0.124-0.519-0.169-0.079-0.135-3.168-0.124-3.224 0.011-0.011 0.056-0.158 0.124-0.304 0.147-0.158 0.023-0.304 0.101-0.327 0.169-0.023 0.079-0.113 0.135-0.192 0.135-0.507 0-1.86 1.206-2.615 2.345-0.338 0.507-0.44 0.767-0.406 1.003 0.034 0.214 0.023 0.271-0.056 0.169-0.079-0.124-0.113-0.113-0.18 0.034-0.113 0.304-0.079 1.837 0.045 1.916 0.068 0.034 0.113 0.372 0.113 0.744 0 0.564 0.056 0.744 0.338 1.139 0.18 0.248 0.338 0.519 0.338 0.597 0 0.068 0.124 0.203 0.282 0.282s0.282 0.214 0.282 0.304c0 0.147 0.203 0.203 0.597 0.169 0.113-0.011 0.293 0.034 0.395 0.090 0.147 0.090 0.124 0.101-0.113 0.045-0.203-0.045-0.316-0.023-0.316 0.056 0 0.068 0.192 0.124 0.44 0.124s0.485 0.056 0.519 0.113c0.090 0.135 1.747 0.147 1.747 0.011 0-0.056 0.169-0.124 0.372-0.158 0.451-0.068 1.105-0.316 1.296-0.507 0.079-0.068 0.203-0.135 0.259-0.135s0.124-0.124 0.169-0.282c0.034-0.158 0.113-0.282 0.169-0.282 0.192 0 0.113-1.33-0.090-1.578-0.237-0.271-0.372-0.293-0.372-0.056 0 0.090-0.045 0.169-0.113 0.169-0.056 0-0.113 0.192-0.113 0.44 0 0.282-0.068 0.485-0.192 0.586-0.169 0.124-0.18 0.124-0.056-0.011 0.169-0.192 0.18-0.451 0.011-0.451-0.056 0-0.090 0.034-0.056 0.090 0.135 0.237-0.665 0.812-1.15 0.812-0.169 0-0.372 0.056-0.44 0.124-0.090 0.090-0.192 0.090-0.338 0-0.124-0.056-0.428-0.124-0.688-0.135-0.248-0.023-0.451-0.056-0.44-0.101 0.011-0.034-0.101-0.192-0.237-0.338-0.519-0.541-0.699-1.060-0.699-1.939 0.011-0.541 0.068-0.902 0.169-1.037 0.090-0.124 0.169-0.304 0.169-0.406 0-0.271 0.575-0.857 0.936-0.947 0.169-0.034 0.304-0.124 0.304-0.18 0-0.068 0.169-0.113 0.372-0.113s0.428-0.056 0.496-0.124c0.090-0.090 0.147-0.090 0.192 0 0.113 0.18 0.631 0.158 0.699-0.034 0.045-0.113 0.327-0.158 1.071-0.169 0.834-0.023 1.003 0.011 1.003 0.147 0 0.101 0.056 0.18 0.124 0.18 0.135 0 0.778 0.609 0.778 0.744 0 0.045 0.113 0.192 0.259 0.327 0.462 0.451 0.643 0.936 0.643 1.747 0 0.428 0.045 0.8 0.101 0.834s0.079 0.271 0.045 0.53c-0.045 0.304-0.023 0.496 0.068 0.552 0.113 0.056 0.101 0.124-0.034 0.259-0.101 0.090-0.18 0.349-0.18 0.575 0 0.214-0.056 0.428-0.135 0.473-0.079 0.056-0.090 0.034-0.034-0.068 0.068-0.101 0.045-0.124-0.045-0.068-0.079 0.056-0.113 0.147-0.090 0.225 0.034 0.068-0.011 0.282-0.101 0.462-0.113 0.248-0.135 0.259-0.090 0.068s0.023-0.248-0.079-0.214c-0.090 0.034-0.147 0.124-0.135 0.214 0.023 0.237-1.060 1.116-1.364 1.116-0.147 0-0.293 0.079-0.338 0.169-0.034 0.090-0.135 0.169-0.225 0.169s-0.406 0.124-0.71 0.271c-0.293 0.158-0.924 0.338-1.387 0.406s-1.037 0.158-1.274 0.192c-0.225 0.034-0.485 0.011-0.564-0.056-0.068-0.056-0.485-0.147-0.924-0.192-0.62-0.068-0.834-0.135-1.037-0.349-0.135-0.147-0.271-0.271-0.304-0.271-0.101 0-1.082-1.015-1.082-1.116 0-0.056-0.079-0.124-0.169-0.169-0.090-0.034-0.169-0.147-0.169-0.248s-0.124-0.304-0.282-0.451c-0.158-0.147-0.282-0.361-0.282-0.496 0-0.124-0.045-0.225-0.113-0.225-0.056 0-0.113-0.068-0.113-0.158s-0.068-0.237-0.147-0.316c-0.090-0.079-0.192-0.349-0.237-0.597s-0.135-0.676-0.18-0.958c-0.147-0.767-0.135-3.325 0.023-3.664 0.068-0.158 0.169-0.282 0.225-0.282 0.045 0 0.090-0.101 0.090-0.225 0-0.271 0.237-0.789 0.361-0.789 0.045 0 0.090-0.101 0.090-0.225 0-0.113 0.068-0.259 0.147-0.304 0.090-0.045 0.248-0.237 0.372-0.428 0.316-0.496 1.263-1.409 1.454-1.409 0.090 0 0.169-0.045 0.169-0.101s0.124-0.135 0.282-0.169c0.158-0.045 0.282-0.124 0.282-0.18 0-0.068 0.124-0.113 0.282-0.113s0.282-0.045 0.282-0.113c0-0.056 0.203-0.147 0.451-0.18 0.248-0.045 0.451-0.113 0.451-0.169s0.124-0.101 0.271-0.101c0.147 0 0.327-0.079 0.406-0.169s0.225-0.169 0.338-0.169c0.113 0 0.349-0.079 0.519-0.169 0.214-0.113 0.654-0.169 1.308-0.169 0.541 0 1.015-0.045 1.048-0.113 0.090-0.135 1.037-0.147 1.116-0.011 0.034 0.045 0.395 0.124 0.8 0.158s0.834 0.124 0.947 0.192c0.124 0.056 0.44 0.124 0.71 0.135 0.259 0.011 0.417 0.034 0.338 0.068-0.395 0.124 0.203 0.473 0.823 0.473 0.214 0 0.395 0.045 0.395 0.113 0 0.056-0.079 0.079-0.169 0.045-0.090-0.045-0.169-0.011-0.169 0.056s0.079 0.124 0.18 0.124c0.203 0 0.733 0.383 0.721 0.53 0 0.045 0.079 0.18 0.169 0.293 0.090 0.101 0.169 0.248 0.169 0.304 0 0.068 0.045 0.113 0.101 0.113s0.147 0.113 0.18 0.248c0.045 0.124 0.203 0.349 0.349 0.485s0.271 0.293 0.271 0.349c0 0.056 0.124 0.237 0.282 0.406 0.147 0.158 0.304 0.428 0.349 0.586 0.034 0.158 0.113 0.293 0.169 0.293s0.101 0.056 0.101 0.124c0 0.068 0.079 0.192 0.169 0.282 0.090 0.101 0.169 0.282 0.169 0.428 0 0.135 0.068 0.316 0.147 0.395 0.192 0.192 0.192 4.34 0 4.723-0.079 0.147-0.147 0.507-0.147 0.8 0 0.338-0.034 0.462-0.101 0.361-0.079-0.124-0.113-0.090-0.18 0.113-0.045 0.147-0.158 0.327-0.237 0.417-0.090 0.079-0.158 0.225-0.158 0.316s-0.045 0.158-0.113 0.158c-0.056 0-0.113 0.124-0.113 0.271s-0.079 0.293-0.169 0.338c-0.090 0.034-0.169 0.135-0.169 0.237s-0.124 0.293-0.282 0.44c-0.158 0.147-0.282 0.293-0.282 0.327 0 0.101-0.688 0.755-0.8 0.755-0.056 0-0.101 0.079-0.101 0.169s-0.056 0.169-0.113 0.169c-0.068 0-0.304 0.18-0.53 0.395s-0.451 0.395-0.496 0.395c-0.045 0-0.237 0.158-0.417 0.338-0.192 0.192-0.372 0.338-0.417 0.338-0.124 0-0.789 0.71-0.755 0.823 0.011 0.045-0.023 0.056-0.090 0.023-0.079-0.045-0.158 0.023-0.192 0.158s-0.113 0.237-0.169 0.237c-0.147 0-0.428 0.293-0.428 0.44 0 0.068-0.068 0.124-0.135 0.124-0.079 0-0.259 0.147-0.395 0.316-0.135 0.18-0.383 0.462-0.541 0.631s-0.248 0.372-0.214 0.44c0.045 0.079 0.045 0.101-0.011 0.056-0.090-0.090-0.259 0.147-0.496 0.665-0.056 0.124-0.169 0.271-0.225 0.316-0.068 0.034-0.124 0.192-0.124 0.338s-0.045 0.282-0.101 0.304c-0.056 0.023-0.135 0.271-0.18 0.552-0.079 0.519-0.079 0.519 0.282 0.597 0.383 0.068 0.902-0.011 0.902-0.158 0-0.045 0.124-0.124 0.282-0.158 0.158-0.045 0.282-0.124 0.282-0.18 0-0.068 0.068-0.113 0.158-0.113s0.18-0.056 0.203-0.124c0.068-0.203 0.902-0.327 1.251-0.18 0.304 0.135 0.44 0.383 0.147 0.271-0.113-0.045-0.135 0.011-0.101 0.18s0.023 0.203-0.045 0.101c-0.079-0.101-0.158-0.079-0.338 0.113-0.135 0.147-0.395 0.406-0.586 0.586-0.248 0.237-0.349 0.428-0.349 0.699 0 0.203-0.045 0.406-0.113 0.44-0.056 0.034-0.113 0.271-0.113 0.519 0 0.237-0.045 0.44-0.113 0.44-0.214 0-0.564 0.395-0.564 0.643 0 0.135-0.045 0.282-0.113 0.316-0.056 0.034-0.113 0.304-0.113 0.597 0 0.338-0.034 0.473-0.101 0.383-0.124-0.203-0.237 0.079-0.237 0.631 0 0.282-0.034 0.372-0.101 0.259-0.068-0.101-0.124 0.034-0.18 0.428-0.045 0.316-0.113 0.575-0.169 0.575-0.045 0-0.113 0.214-0.147 0.485-0.034 0.259-0.192 0.733-0.349 1.037-0.158 0.316-0.293 0.631-0.293 0.71 0 0.158-0.101 0.169-0.361 0.011zM16.192 25.28c-0.034-0.113-0.056-0.045-0.056 0.135 0 0.192 0.023 0.271 0.056 0.203 0.023-0.079 0.023-0.237 0-0.338zM17.432 12.204c-0.045-0.034-0.113-0.034-0.158 0-0.034 0.045 0 0.079 0.079 0.079s0.113-0.034 0.079-0.079zM17.195 11.832c0-0.124-0.079-0.18-0.18-0.169-0.090 0.023-0.203 0.045-0.248 0.045-0.056 0.011-0.090 0.068-0.090 0.135 0 0.056 0.056 0.079 0.113 0.045 0.068-0.034 0.113-0.023 0.113 0.034s0.068 0.101 0.147 0.101c0.079 0 0.147-0.090 0.147-0.192zM17.465 11.268c0-0.056-0.056-0.113-0.124-0.113-0.056 0-0.079 0.056-0.045 0.113 0.034 0.068 0.090 0.113 0.124 0.113 0.023 0 0.045-0.045 0.045-0.113zM14.467 9.848c0.113-0.406-0.011-0.473-0.304-0.169-0.135 0.135-0.192 0.237-0.135 0.225 0.248-0.034 0.327 0.023 0.169 0.124-0.147 0.090-0.147 0.113 0.011 0.113 0.113 0 0.225-0.124 0.259-0.293zM18.931 1.573c0-0.056-0.023-0.113-0.045-0.113-0.034 0-0.090 0.056-0.124 0.113-0.034 0.068-0.011 0.113 0.045 0.113 0.068 0 0.124-0.045 0.124-0.113z"></path>
<path fill="#fff" d="M30.688 23.77c-0.327-0.248-0.597-0.496-0.597-0.541 0-0.056-0.113-0.124-0.248-0.169-0.147-0.034-0.406-0.192-0.586-0.349s-0.372-0.282-0.44-0.282c-0.056 0-0.203-0.124-0.327-0.282s-0.293-0.282-0.383-0.282c-0.090 0-0.158-0.068-0.158-0.147 0-0.090-0.124-0.225-0.282-0.304s-0.282-0.214-0.282-0.304c0-0.079-0.079-0.147-0.169-0.147s-0.169-0.045-0.169-0.113c0-0.056-0.124-0.135-0.282-0.18-0.158-0.034-0.282-0.113-0.282-0.169s-0.124-0.101-0.271-0.101c-0.147 0-0.327-0.079-0.406-0.169-0.090-0.101-0.338-0.169-0.631-0.169-0.271 0-0.496-0.045-0.496-0.101s-0.113-0.147-0.248-0.192c-0.147-0.045-0.282-0.101-0.316-0.147-0.147-0.18-0.8-0.462-1.082-0.462-0.44 0-1.060-0.248-1.060-0.417 0-0.135 0.372-0.203 0.767-0.158 0.068 0.011 0.135-0.034 0.135-0.101s0.079-0.203 0.169-0.293c0.090-0.101 0.169-0.248 0.169-0.327 0-0.203-0.316-0.507-0.519-0.507-0.090 0-0.158-0.045-0.158-0.101 0-0.068-0.192-0.124-0.417-0.147-0.349-0.023-0.44-0.079-0.462-0.293-0.023-0.147 0.034-0.282 0.135-0.316s0.18-0.18 0.18-0.327c0-0.147 0.079-0.282 0.169-0.327 0.090-0.034 0.169-0.147 0.169-0.248s0.124-0.304 0.282-0.451c0.158-0.147 0.282-0.316 0.282-0.383 0-0.056 0.079-0.113 0.169-0.113s0.169-0.068 0.169-0.147c0-0.079 0.101-0.203 0.225-0.282 0.203-0.124 0.271-0.101 0.552 0.18 0.18 0.169 0.349 0.428 0.395 0.564s0.135 0.248 0.192 0.248c0.056 0 0.101 0.045 0.101 0.101 0 0.169 0.597 0.8 0.755 0.8 0.079 0 0.147-0.124 0.147-0.282 0-0.327 0.395-0.733 0.654-0.654 0.203 0.056 0.586 0.767 0.586 1.082 0 0.101 0.056 0.192 0.113 0.192 0.068 0 0.113 0.068 0.113 0.147s0.158 0.304 0.338 0.507c0.192 0.203 0.338 0.417 0.338 0.485 0 0.056 0.056 0.101 0.113 0.101 0.068 0 0.113 0.124 0.113 0.271s0.079 0.327 0.169 0.406c0.090 0.079 0.169 0.237 0.169 0.349 0 0.101 0.079 0.271 0.169 0.372 0.090 0.090 0.169 0.214 0.169 0.282s0.056 0.124 0.113 0.124c0.068 0 0.113 0.124 0.113 0.271 0 0.158 0.079 0.349 0.169 0.451 0.090 0.090 0.169 0.192 0.169 0.237 0 0.034 0.124 0.18 0.271 0.316s0.304 0.417 0.338 0.609c0.045 0.203 0.203 0.462 0.361 0.586 0.147 0.113 0.271 0.271 0.271 0.338s0.056 0.124 0.113 0.124c0.068 0 0.113 0.101 0.113 0.225 0 0.237 0.372 0.676 0.564 0.676 0.068 0 0.113 0.079 0.113 0.169 0 0.101 0.101 0.169 0.282 0.169 0.225 0 0.282 0.056 0.282 0.282 0 0.44-0.496 0.361-1.206-0.18z"></path>
<path fill="#fff" d="M0.105 23.623c0-0.18 0.056-0.293 0.169-0.293 0.101 0 0.169-0.101 0.169-0.282s0.068-0.282 0.169-0.282c0.090 0 0.169-0.090 0.169-0.192 0-0.271 1.432-3.1 1.601-3.168 0.056-0.023 0.090-0.169 0.090-0.316s0.045-0.271 0.090-0.271c0.124 0 0.473-0.8 0.473-1.082 0-0.113 0.079-0.316 0.169-0.428 0.090-0.124 0.169-0.44 0.169-0.71 0-0.586 0.147-0.62 0.654-0.147 0.203 0.192 0.462 0.338 0.564 0.338 0.203 0 0.586-0.372 0.586-0.552 0-0.056 0.068-0.18 0.158-0.271 0.169-0.158 0.519-1.093 0.519-1.364 0-0.361 0.372-0.282 0.823 0.158 0.259 0.248 0.507 0.451 0.552 0.451 0.056 0 0.090 0.079 0.090 0.169 0 0.101 0.101 0.169 0.282 0.169s0.282 0.068 0.282 0.169c0 0.090 0.079 0.169 0.18 0.169 0.090 0 0.147 0.045 0.101 0.101-0.034 0.056 0.023 0.18 0.113 0.271 0.090 0.101 0.169 0.259 0.169 0.349 0 0.101 0.068 0.147 0.158 0.113s0.192 0 0.248 0.079c0.045 0.090 0.034 0.113-0.045 0.056-0.124-0.079-0.609 0.316-0.519 0.417 0.034 0.034-0.158 0.056-0.406 0.056-0.349 0.011-0.53 0.079-0.733 0.293-0.147 0.158-0.349 0.293-0.44 0.293-0.62 0-0.676 0.372-0.124 0.936 0.406 0.417 0.496 0.789 0.259 1.015-0.18 0.169-1.308 0.755-1.465 0.755-0.259 0-1.668 0.676-1.668 0.812 0 0.045-0.068 0.090-0.158 0.090s-0.237 0.068-0.316 0.147c-0.079 0.068-0.293 0.214-0.473 0.304s-0.417 0.304-0.507 0.473c-0.101 0.18-0.214 0.316-0.259 0.316-0.056 0-0.090 0.079-0.090 0.169 0 0.101-0.101 0.169-0.282 0.169-0.158 0-0.282 0.045-0.282 0.101s-0.101 0.124-0.237 0.158c-0.135 0.034-0.214 0.113-0.18 0.158 0.034 0.056-0.079 0.158-0.271 0.225-0.248 0.101-0.304 0.090-0.248 0 0.045-0.079-0.011-0.068-0.113 0.023-0.169 0.135-0.192 0.124-0.192-0.147z"></path>
<path fill="#fff" d="M8.481 17.277c0.045-0.034 0.113-0.034 0.158 0 0.034 0.045 0 0.079-0.079 0.079s-0.113-0.034-0.079-0.079z"></path>
<path fill="#fff" d="M8.797 17.175c0-0.124 0.034-0.158 0.068-0.068 0.034 0.079 0.023 0.18-0.011 0.214-0.034 0.045-0.068-0.023-0.056-0.147z"></path>
</svg>
