<!-- Generated by IcoMoon.io -->
<svg version="1.1" xmlns="http://www.w3.org/2000/svg" width="32" height="32" viewBox="0 0 32 32">
<title>twists-magical-phenomenom</title>
<path fill="#fff" d="M16.111 31.573c-0.114-0.114-0.194-0.343-0.194-0.514 0-0.16-0.046-0.332-0.114-0.366-0.057-0.034-0.114-0.183-0.114-0.332 0-0.137-0.080-0.354-0.171-0.48-0.091-0.114-0.171-0.332-0.171-0.469s-0.091-0.297-0.194-0.366c-0.194-0.103-0.194-0.114-0.011-0.183 0.103-0.046 0.217-0.194 0.252-0.354 0.046-0.149 0.126-0.274 0.183-0.274 0.069 0 0.114-0.057 0.114-0.126 0-0.080 0.126-0.252 0.274-0.389 0.16-0.149 0.251-0.286 0.229-0.32-0.034-0.034 0.046-0.114 0.172-0.183 0.217-0.126 0.229-0.137 0.046-0.354-0.114-0.126-0.263-0.229-0.343-0.229s-0.149-0.046-0.149-0.103c0-0.046-0.309-0.126-0.686-0.172s-0.709-0.126-0.743-0.183c-0.046-0.069-0.194-0.114-0.354-0.114-0.171 0-0.274-0.069-0.274-0.172 0-0.091-0.080-0.172-0.171-0.172s-0.171-0.069-0.171-0.16c0-0.091-0.080-0.194-0.183-0.229-0.149-0.057-0.183-0.194-0.137-0.72 0.034-0.354 0.114-0.674 0.183-0.697 0.080-0.023 0.137-0.114 0.137-0.194 0-0.194 0.354-0.4 0.663-0.4 0.126 0 0.252-0.080 0.297-0.172 0.034-0.091 0.171-0.172 0.297-0.172s0.229-0.046 0.229-0.114c0-0.057 0.057-0.114 0.126-0.114 0.080 0 0.206-0.091 0.297-0.194 0.091-0.114 0.137-0.149 0.103-0.069-0.046 0.069-0.023 0.16 0.046 0.206s0.114-0.057 0.114-0.217c0-0.183-0.069-0.297-0.171-0.297-0.091 0-0.171-0.091-0.171-0.206 0-0.194-0.412-0.48-0.686-0.48-0.057 0-0.274-0.149-0.48-0.343-0.206-0.183-0.412-0.343-0.469-0.343-0.137 0-0.423-0.297-0.423-0.446 0-0.057-0.080-0.194-0.183-0.297-0.149-0.149-0.171-0.332-0.103-1.029 0.069-0.732 0.103-0.857 0.297-0.857 0.149 0 0.194-0.057 0.137-0.194s-0.034-0.16 0.080-0.091c0.080 0.046 0.434 0.080 0.789 0.057 1.749-0.103 3.464-0.023 3.784 0.172 0.069 0.046 0.103 0.149 0.069 0.24-0.034 0.080 0.011 0.229 0.103 0.32s0.172 0.274 0.172 0.4c0 0.137 0.046 0.24 0.103 0.24 0.046 0 0.126 0.389 0.172 0.869s0.137 0.96 0.217 1.086c0.103 0.16 0.091 0.297-0.011 0.594-0.080 0.206-0.137 0.446-0.137 0.526s-0.149 0.343-0.332 0.572c-0.172 0.229-0.297 0.469-0.274 0.537 0.023 0.080-0.091 0.172-0.274 0.206-0.24 0.069-0.274 0.103-0.137 0.194 0.114 0.080 0.069 0.103-0.183 0.080-0.503-0.046-0.48 0.24 0.057 0.789 0.252 0.263 0.457 0.537 0.457 0.606 0 0.057 0.080 0.114 0.172 0.114 0.103 0 0.172 0.103 0.172 0.274 0 0.16 0.046 0.309 0.103 0.343 0.126 0.080-0.080 0.846-0.297 1.109-0.080 0.091-0.149 0.263-0.149 0.366s-0.126 0.217-0.286 0.263c-0.16 0.034-0.286 0.114-0.286 0.172 0 0.046-0.137 0.252-0.309 0.434-0.183 0.183-0.389 0.423-0.457 0.514-0.172 0.206-0.206 1.669-0.034 1.669 0.149 0 0.149 0.64 0 0.926-0.149 0.274-0.366 0.274-0.606 0.011zM16.602 23.731c0-0.023-0.080-0.080-0.183-0.114-0.091-0.034-0.137-0.023-0.103 0.046 0.069 0.114 0.286 0.16 0.286 0.069zM16.019 22.039c0-0.32-0.023-0.343-0.103-0.149-0.137 0.32-0.137 0.514 0 0.514 0.069 0 0.114-0.172 0.103-0.366zM16.797 22.096c-0.046-0.034-0.114-0.034-0.16 0-0.034 0.046 0 0.080 0.080 0.080s0.114-0.034 0.080-0.080zM15.951 21.525c-0.080-0.023-0.24-0.023-0.343 0-0.114 0.034-0.046 0.057 0.137 0.057 0.194 0 0.274-0.023 0.206-0.057zM14.43 20.473c0-0.057-0.080-0.126-0.16-0.16-0.114-0.046-0.149-0.011-0.103 0.103 0.069 0.172 0.263 0.217 0.263 0.057zM13.516 19.421c0-0.137-0.057-0.183-0.171-0.149-0.149 0.057-0.149 0.103-0.034 0.252 0.114 0.137 0.114 0.16 0.011 0.091-0.103-0.046-0.149-0.011-0.149 0.114 0 0.149 0.034 0.16 0.171 0.046 0.091-0.080 0.171-0.24 0.171-0.354z"></path>
<path fill="#fff" d="M9.503 31.482c-0.011-0.057-0.011-0.137 0-0.183 0-0.057-0.034-0.091-0.103-0.091-0.057 0-0.114-0.080-0.114-0.172s-0.080-0.172-0.171-0.172c-0.126 0-0.171-0.126-0.171-0.457 0-0.252-0.046-0.457-0.114-0.457-0.057 0-0.114-0.252-0.114-0.572 0-0.309 0.057-0.572 0.114-0.572 0.069 0 0.114-0.149 0.114-0.343 0-0.217 0.057-0.332 0.149-0.309 0.091 0.011 0.149-0.149 0.171-0.457 0.034-0.423-0.011-0.503-0.354-0.766-0.217-0.16-0.469-0.297-0.572-0.297-0.114 0-0.194-0.046-0.194-0.103s-0.126-0.137-0.274-0.172c-0.343-0.080-1.132-0.835-1.040-0.983 0.046-0.069-0.011-0.194-0.103-0.297-0.252-0.24-0.252-1.189-0.011-1.189 0.091 0 0.171-0.046 0.171-0.114 0-0.057 0.080-0.114 0.171-0.114s0.412-0.229 0.697-0.526c0.469-0.457 0.526-0.56 0.457-0.88-0.069-0.366-0.446-0.754-0.732-0.766-0.16 0-1.269-0.789-1.635-1.155-0.126-0.126-0.217-0.366-0.217-0.56 0-0.183-0.046-0.343-0.114-0.343-0.057 0-0.114-0.149-0.114-0.343 0-0.183 0.057-0.343 0.114-0.343 0.069 0 0.114-0.126 0.114-0.286 0-0.183 0.069-0.286 0.171-0.286 0.091 0 0.171-0.080 0.171-0.172 0-0.137 0.206-0.172 1.155-0.172 1.097 0 1.177-0.023 1.429-0.286 0.263-0.286 0.732-0.389 0.732-0.172 0 0.057 0.126 0.137 0.286 0.183s0.274 0.103 0.24 0.126c-0.023 0.034 0.126 0.286 0.343 0.572 0.217 0.274 0.389 0.583 0.389 0.674s0.057 0.16 0.114 0.16c0.069 0 0.114 0.172 0.114 0.377 0 0.194 0.080 0.469 0.171 0.583 0.24 0.32 0.24 1.852 0 2.081-0.091 0.103-0.171 0.309-0.171 0.48-0.011 0.32-0.229 0.709-0.412 0.709-0.16 0.011-0.96 1.063-0.96 1.257 0 0.286 0.606 0.869 0.857 0.823 0.171-0.023 0.183-0.011 0.080 0.069-0.126 0.080-0.091 0.16 0.149 0.354 0.297 0.229 0.309 0.297 0.309 1.12-0.011 0.503-0.069 0.903-0.137 0.926-0.057 0.023-0.114 0.114-0.114 0.206s-0.080 0.16-0.171 0.16c-0.091 0-0.171 0.057-0.171 0.126 0 0.057-0.046 0.091-0.103 0.057s-0.183 0.057-0.286 0.217c-0.137 0.217-0.183 0.56-0.171 1.452 0 0.766 0.034 1.097 0.103 0.949s0.103-0.172 0.103-0.057c0 0.194-0.32 0.674-0.343 0.503zM6.543 19.73c0-0.194-0.080-0.286-0.286-0.32-0.332-0.069-0.343-0.057-0.103 0.309s0.389 0.366 0.389 0.011z"></path>
<path fill="#fff" d="M22.981 30.156c-0.023-0.286-0.091-0.48-0.16-0.469-0.080 0.011-0.114-0.229-0.103-0.743 0.034-0.835 0.149-1.395 0.286-1.395 0.057 0 0.126-0.206 0.172-0.457 0.046-0.286 0.137-0.457 0.24-0.457 0.091 0 0.16-0.114 0.16-0.286 0-0.206-0.137-0.389-0.48-0.629-0.252-0.183-0.537-0.343-0.629-0.343-0.080 0-0.149-0.046-0.149-0.114 0-0.057-0.114-0.114-0.252-0.114-0.172 0-0.309-0.103-0.4-0.297-0.114-0.252-0.114-0.286 0.034-0.229 0.103 0.034 0.137 0.011 0.103-0.046-0.034-0.069-0.126-0.114-0.183-0.114-0.343 0-0.743-0.915-0.549-1.269 0.057-0.114 0.183-0.217 0.274-0.217s0.172-0.046 0.172-0.103c0-0.057 0.103-0.149 0.229-0.183s0.263-0.194 0.297-0.354c0.034-0.149 0.114-0.274 0.172-0.274s0.103-0.229 0.103-0.514c0-0.594-0.137-0.777-0.903-1.257-0.274-0.16-0.526-0.4-0.549-0.526-0.034-0.114-0.103-0.194-0.149-0.16-0.126 0.080-0.217-0.354-0.149-0.629 0.034-0.126 0.103-0.229 0.16-0.229s0.103-0.137 0.103-0.32c0-0.172 0.126-0.446 0.297-0.629l0.297-0.32 1.84 0.034c1.372 0.023 1.84 0.069 1.886 0.183 0.034 0.114 0.080 0.114 0.229 0 0.137-0.114 0.183-0.114 0.217 0 0.034 0.069 0.194 0.137 0.354 0.137 0.423 0.011 0.652 0.217 0.674 0.629 0.011 0.194 0 0.274-0.034 0.206-0.183-0.423-0.274-0.011-0.274 1.257v1.406l-0.514 0.537c-0.274 0.297-0.537 0.537-0.572 0.537-0.126 0-0.743 0.663-0.743 0.789 0 0.069 0.091 0.126 0.206 0.126 0.16 0 0.172 0.023 0.023 0.114s-0.137 0.114 0.034 0.114c0.114 0 0.229 0.080 0.263 0.172 0.046 0.091 0.16 0.172 0.286 0.172 0.24 0 0.446 0.32 0.446 0.709 0 0.206 0.023 0.229 0.114 0.091 0.103-0.149 0.114-0.149 0.126 0 0.034 0.48-0.046 0.983-0.183 1.052-0.080 0.046-0.206 0.252-0.297 0.457-0.080 0.206-0.172 0.4-0.206 0.434s-0.126 0.16-0.194 0.286c-0.069 0.126-0.274 0.274-0.457 0.343-0.183 0.057-0.457 0.24-0.606 0.4-0.16 0.16-0.32 0.274-0.354 0.263s-0.057 0.32-0.046 0.743c0.023 0.606 0.011 0.663-0.057 0.309l-0.080-0.457-0.137 0.754c-0.080 0.412-0.137 0.892-0.137 1.052 0 0.503-0.217 0.354-0.252-0.172zM25.005 26.978c0.034-0.057 0.046-0.114 0.011-0.114s-0.091 0.057-0.126 0.114c-0.034 0.069-0.046 0.114-0.011 0.114s0.091-0.046 0.126-0.114z"></path>
<path fill="#fff" d="M23.599 29.95c0-0.217 0.023-0.309 0.057-0.194 0.023 0.103 0.023 0.286 0 0.4-0.034 0.103-0.057 0.011-0.057-0.206z"></path>
<path fill="#fff" d="M0.175 16.826c-0.034-0.080-0.023-0.286 0.011-0.457 0.046-0.172 0.126-0.594 0.194-0.937 0.057-0.343 0.183-0.8 0.286-1.006 0.24-0.503 0.091-1.292-0.274-1.452-0.252-0.114-0.32-0.56-0.080-0.492 0.069 0.023 0.103 0.069 0.091 0.114-0.023 0.057 0.274 0.091 0.652 0.091 0.549 0 0.686-0.034 0.686-0.183 0-0.114 0.069-0.16 0.16-0.126 0.114 0.046 0.172-0.069 0.217-0.412 0.091-0.674-0.069-0.812-1.12-0.869-0.171-0.011-0.857-0.663-0.857-0.8 0-0.069-0.046-0.126-0.103-0.126s-0.046-0.126 0.023-0.286c0.091-0.183 0.229-0.286 0.4-0.286 0.137 0 0.252-0.046 0.252-0.114 0-0.057 0.149-0.114 0.332-0.114s0.412-0.080 0.514-0.171c0.091-0.091 0.217-0.171 0.286-0.171 0.206 0 0.149-0.983-0.057-1.155-0.149-0.126-0.171-0.286-0.126-0.777 0.034-0.332 0.126-0.674 0.183-0.732 0.069-0.069 0.126-0.263 0.126-0.423s0.080-0.4 0.171-0.526c0.091-0.114 0.171-0.309 0.171-0.412 0-0.114 0.057-0.206 0.114-0.206 0.069 0 0.114-0.057 0.114-0.126 0-0.126 0.686-1.052 0.835-1.109 0.046-0.023 0.080-0.114 0.080-0.194 0-0.217 1.429-1.658 1.635-1.658 0.091 0 0.194-0.069 0.229-0.16 0.057-0.149 0.389-0.252 1.28-0.377 0.252-0.034 0.56-0.137 0.686-0.217 0.126-0.091 0.412-0.16 0.652-0.16 0.332 0 0.434-0.046 0.434-0.194 0-0.137 0.034-0.16 0.091-0.069s0.149 0.103 0.252 0.034c0.091-0.069 0.72-0.114 1.406-0.114 0.732 0 1.223-0.046 1.223-0.114 0-0.149 0.652-0.149 0.743 0 0.034 0.069 0.229 0.114 0.423 0.114s0.446 0.080 0.56 0.183c0.114 0.103 0.434 0.183 0.8 0.183 0.343 0.011 0.503 0.034 0.366 0.069-0.332 0.046-0.343 0.252-0.034 0.252 0.286 0 0.766 0.297 1.086 0.652 0.126 0.149 0.297 0.263 0.377 0.263 0.171 0 0.594 0.412 0.594 0.572 0 0.069 0.126 0.24 0.286 0.389s0.286 0.32 0.286 0.4c0 0.069 0.069 0.126 0.149 0.126s0.16 0.126 0.172 0.297c0.011 0.16 0.080 0.4 0.149 0.526 0.069 0.137 0.16 0.686 0.194 1.223 0.057 0.972 0.057 0.983 0.549 1.475 0.457 0.446 0.537 0.48 1.132 0.48 0.572 0 0.674-0.034 0.983-0.366 0.183-0.206 0.332-0.412 0.332-0.457 0-0.057 0.069-0.091 0.16-0.091s0.183-0.080 0.229-0.171c0.046-0.137 0.274-0.171 1.006-0.171 0.96 0.011 1.235 0.103 1.383 0.492 0.034 0.103 0.126 0.194 0.194 0.194 0.057 0 0.114 0.080 0.114 0.171 0 0.309 0.434 0.629 0.857 0.629 0.217 0 0.4-0.046 0.4-0.114 0-0.057 0.091-0.114 0.206-0.114 0.274-0.011 0.709-0.4 0.709-0.652 0.011-0.434 0.274-0.606 0.926-0.606 0.446 0 0.572 0.034 0.446 0.114-0.114 0.069-0.126 0.114-0.023 0.114 0.069 0 0.137 0.091 0.126 0.206 0 0.137-0.023 0.149-0.069 0.034-0.126-0.309-0.492 0.686-0.492 1.338 0 0.594-0.034 0.652-0.48 1.075-0.263 0.24-0.537 0.434-0.617 0.434s-0.194 0.069-0.24 0.16c-0.046 0.091-0.194 0.171-0.32 0.194-0.137 0.034-0.24 0.16-0.263 0.309-0.034 0.24 0 0.252 0.594 0.252 0.354 0 0.64-0.046 0.64-0.103s0.114-0.126 0.263-0.171c0.137-0.034 0.457-0.229 0.709-0.446 0.32-0.263 0.617-0.412 0.972-0.457 0.274-0.034 0.526-0.126 0.549-0.183 0.057-0.16 0.446-0.16 0.537-0.011 0.034 0.069 0.297 0.114 0.572 0.114 0.286 0 0.572 0.069 0.674 0.171 0.091 0.091 0.206 0.171 0.263 0.171s0.183 0.091 0.274 0.206c0.103 0.103 0.366 0.354 0.594 0.56 0.354 0.309 0.423 0.434 0.423 0.823 0 0.572-0.194 0.686-0.766 0.48-0.492-0.183-1.155-0.194-1.326-0.023-0.069 0.069-0.217 0.126-0.343 0.126-0.286 0-0.88 0.606-0.88 0.892 0 0.137 0.229 0.412 0.56 0.686 0.48 0.366 0.686 0.457 1.269 0.514 0.446 0.057 0.777 0.16 0.926 0.297 0.137 0.126 0.309 0.194 0.377 0.171 0.103-0.034 0.149 0.137 0.172 0.606 0.011 0.354 0.069 0.709 0.114 0.777 0.16 0.194 0.103 0.503-0.137 0.709-0.126 0.114-0.194 0.137-0.149 0.069 0.057-0.114-0.149-0.149-0.926-0.16-1.783-0.023-2.835 0.034-2.869 0.137-0.057 0.137-1.932 0.137-2.023-0.011-0.103-0.172-2.641-0.149-2.915 0.023-0.172 0.114-0.297 0.114-0.606 0-0.469-0.172-1.589-0.183-1.761-0.011-0.069 0.069-0.766 0.149-1.566 0.172-0.8 0.034-1.578 0.103-1.726 0.16-0.16 0.057-0.286 0.069-0.286 0.023s-0.297-0.069-0.663-0.046c-2.801 0.137-3.338 0.137-3.338 0.034 0-0.16-1.463-0.137-1.726 0.023-0.149 0.091-0.274 0.091-0.469 0-0.149-0.080-0.48-0.172-0.743-0.206-0.354-0.057-0.549-0.16-0.72-0.4-0.286-0.4-0.286-0.434 0-0.686 0.252-0.217 0.412-0.697 0.217-0.652-0.229 0.046-0.812-0.8-0.823-1.189-0.023-0.354 0.011-0.389 0.332-0.423 0.217-0.023 0.526-0.194 0.8-0.457l0.446-0.423-0.903-0.034c-0.686-0.023-0.937 0.011-1.097 0.149-0.103 0.091-0.229 0.171-0.263 0.171-0.137 0-0.537 0.389-0.537 0.526 0 0.080-0.069 0.16-0.137 0.183-0.149 0.057 0.080 0.492 0.503 0.937 0.149 0.16 0.206 0.4 0.206 0.857 0 0.343-0.034 0.583-0.069 0.549-0.046-0.046-0.183 0.114-0.309 0.354-0.274 0.514-0.583 0.823-0.823 0.823-0.274 0-0.892-0.663-0.812-0.869 0.046-0.114 0.023-0.149-0.069-0.091s-0.103 0.023-0.057-0.103c0.046-0.126 0.011-0.194-0.091-0.194-0.091 0-0.171-0.046-0.171-0.114 0-0.057-0.046-0.114-0.114-0.114-0.149 0-0.457 0.617-0.457 0.903 0 0.354-0.332 0.469-0.949 0.332-0.514-0.103-0.537-0.137-0.606-0.56-0.069-0.377-0.114-0.446-0.343-0.446s-0.274 0.057-0.286 0.377c-0.011 0.194-0.011 0.412 0 0.457 0.011 0.057-0.034 0.069-0.103 0.023-0.057-0.034-0.114 0.011-0.114 0.114 0 0.091-0.137 0.229-0.297 0.286-0.423 0.172-2.115 0.091-2.183-0.091zM2.37 16.243c0.080-0.137-0.137-0.274-0.286-0.183-0.126 0.080-0.046 0.286 0.114 0.286 0.057 0 0.126-0.046 0.171-0.103zM6.645 15.877c-0.263-0.16-0.354 0.023-0.137 0.263 0.183 0.206 0.206 0.217 0.24 0.034 0.023-0.114-0.023-0.24-0.103-0.297zM7.8 15.317c0-0.057-0.057-0.114-0.126-0.114-0.057 0-0.080 0.057-0.046 0.114 0.034 0.069 0.091 0.114 0.126 0.114 0.023 0 0.046-0.046 0.046-0.114zM12.601 10.859c0-0.126-0.046-0.229-0.114-0.229-0.057 0-0.114 0.103-0.114 0.229s0.057 0.229 0.114 0.229c0.069 0 0.114-0.103 0.114-0.229zM15.002 10.687c0-0.091-0.046-0.171-0.114-0.171-0.057 0-0.114 0.080-0.114 0.171s0.057 0.171 0.114 0.171c0.069 0 0.114-0.080 0.114-0.171zM6.177 10.047c0.023-0.057 0.24-0.103 0.48-0.103 0.274 0 0.457-0.057 0.503-0.171 0.034-0.091 0.137-0.171 0.24-0.171 0.343 0 0.629-0.434 0.629-0.972 0-0.286-0.046-0.514-0.114-0.514-0.057 0-0.114-0.103-0.114-0.229 0-0.137-0.183-0.412-0.4-0.629s-0.492-0.4-0.629-0.4c-0.126 0-0.229-0.046-0.229-0.114 0-0.16-0.412-0.137-0.686 0.023-0.183 0.114-0.274 0.114-0.457 0.011-0.194-0.126-0.286-0.080-0.8 0.423-0.32 0.32-0.629 0.572-0.686 0.572-0.069 0-0.114 0.069-0.114 0.16 0 0.103-0.137 0.183-0.366 0.206-0.583 0.057-1.052 1.075-0.549 1.2 0.126 0.034 0.229 0.103 0.229 0.16s0.080 0.103 0.171 0.103c0.103 0 0.206 0.080 0.24 0.171 0.046 0.103 0.217 0.171 0.446 0.171 0.206 0 0.549 0.080 0.754 0.171 0.412 0.183 1.383 0.137 1.452-0.069zM3.456 4.914c0-0.057-0.023-0.114-0.046-0.114-0.034 0-0.091 0.057-0.126 0.114-0.034 0.069-0.011 0.114 0.046 0.114 0.069 0 0.126-0.046 0.126-0.114z"></path>
<path fill="#fff" d="M19.232 5.372c-0.091-0.126-0.172-0.297-0.172-0.377 0-0.297-0.229-0.229-0.286 0.091-0.069 0.412-0.274 0.446-0.32 0.057-0.023-0.16-0.091-0.332-0.16-0.4-0.091-0.080-0.103-0.046-0.046 0.114 0.069 0.183 0.057 0.206-0.057 0.091s-0.114-0.183-0.011-0.286c0.217-0.217 0.114-0.8-0.206-1.12-0.126-0.126-0.457-0.835-0.457-0.983 0-0.091-0.057-0.16-0.114-0.16-0.069 0-0.16-0.091-0.194-0.194-0.046-0.114-0.172-0.297-0.297-0.4-0.263-0.24-0.114-0.606 0.32-0.709 0.16-0.046 0.286-0.126 0.286-0.183 0-0.069 0.389-0.114 0.915-0.114 0.572 0 0.915 0.046 0.915 0.126 0 0.16 0.286 0.446 0.446 0.446 0.069 0 0.126 0.080 0.126 0.171s0.057 0.171 0.114 0.171c0.069 0 0.172 0.126 0.229 0.286 0.091 0.252 0.183 0.286 0.617 0.286 0.286 0 0.549-0.046 0.583-0.114 0.034-0.057 0.172-0.114 0.286-0.114s0.263-0.069 0.309-0.137c0.252-0.389 1.177-0.789 1.692-0.732 0.72 0.080 1.406 0.252 1.566 0.389 0.080 0.057 0.274 0.137 0.434 0.16 0.24 0.023 0.297 0.103 0.32 0.469 0.023 0.229 0.080 0.423 0.149 0.423 0.057 0 0.103 0.080 0.103 0.171 0 0.206-0.434 0.229-0.835 0.046-0.206-0.091-0.446-0.091-0.903 0-0.537 0.114-0.64 0.183-0.835 0.56-0.126 0.229-0.297 0.492-0.366 0.572-0.080 0.080-0.149 0.229-0.149 0.32 0 0.171-0.206 0.194-1.543 0.183-0.869-0.023-1.132 0.091-1.738 0.732-0.423 0.457-0.503 0.469-0.72 0.16z"></path>
</svg>
