<!-- Generated by IcoMoon.io -->
<svg version="1.1" xmlns="http://www.w3.org/2000/svg" width="32" height="32" viewBox="0 0 32 32">
<title>twists-environment</title>
<path fill="#fff" d="M15.29 26.949c-0.238-0.238-0.579-0.522-0.772-0.624s-0.318-0.227-0.284-0.284c0.045-0.068-0.023-0.113-0.136-0.125-0.114 0-0.352-0.102-0.545-0.227-0.182-0.113-0.443-0.261-0.568-0.318s-0.488-0.341-0.783-0.624c-0.306-0.284-0.59-0.522-0.624-0.522-0.045 0-0.238-0.148-0.443-0.341-0.204-0.182-0.42-0.341-0.488-0.341-0.057 0-0.102-0.045-0.102-0.102s-0.125-0.136-0.284-0.17c-0.159-0.045-0.284-0.125-0.284-0.182 0-0.068-0.125-0.113-0.284-0.113s-0.284-0.045-0.284-0.113c0-0.057-0.125-0.113-0.272-0.113-0.272 0-0.488-0.182-0.375-0.306 0.034-0.034 0.465-0.068 0.954-0.079 0.829-0.011 0.885-0.023 0.919-0.272 0.034-0.204-0.023-0.261-0.306-0.318-0.193-0.045-0.352-0.113-0.352-0.17s-0.091-0.102-0.216-0.102c-0.114 0-0.272-0.079-0.352-0.17s-0.318-0.17-0.522-0.17c-0.216 0-0.386-0.045-0.386-0.113 0-0.057-0.057-0.113-0.125-0.113-0.204 0-1.124-0.488-1.124-0.59 0-0.045-0.079-0.091-0.182-0.091s-0.306-0.102-0.465-0.227c-0.159-0.125-0.25-0.227-0.193-0.227 0.045 0-0.023-0.102-0.159-0.227-0.136-0.136-0.25-0.284-0.25-0.341 0-0.068-0.125-0.113-0.284-0.113-0.227 0-0.284 0.057-0.284 0.284 0 0.148 0.068 0.329 0.136 0.386 0.443 0.352 0.806 0.704 0.692 0.636-0.102-0.045-0.148 0.011-0.148 0.159 0 0.136-0.079 0.238-0.17 0.238s-0.17-0.057-0.17-0.125c0-0.182-0.352-0.431-0.59-0.443-0.216 0-0.92-0.352-0.976-0.477-0.023-0.057-0.136-0.091-0.261-0.091s-0.25-0.079-0.284-0.17c-0.045-0.102-0.216-0.17-0.397-0.17s-0.534-0.125-0.783-0.284c-0.25-0.159-0.522-0.284-0.613-0.284s-0.204-0.057-0.238-0.113c-0.102-0.159-1.022-0.568-1.294-0.568-0.159 0-0.261-0.102-0.306-0.284-0.091-0.386 0.011-0.624 0.284-0.624 0.125 0 0.261-0.045 0.295-0.113 0.034-0.057 0.182-0.113 0.329-0.113 0.136 0 0.352-0.079 0.477-0.17 0.113-0.091 0.329-0.17 0.454-0.17 0.136 0 0.272-0.079 0.318-0.17 0.034-0.091 0.193-0.17 0.352-0.17s0.284-0.045 0.284-0.113c0-0.057 0.159-0.113 0.352-0.113 0.341 0 0.829-0.17 1.487-0.522 0.397-0.216 0.545-0.204 0.556 0.045 0 0.159 0.023 0.159 0.102-0.034 0.079-0.182 0.102-0.148 0.102 0.193 0.011 0.329 0.045 0.409 0.182 0.363 0.091-0.045 0.17-0.114 0.17-0.182 0-0.057-0.068-0.068-0.136-0.023-0.114 0.068-0.114 0.057-0.011-0.091 0.079-0.091 0.102-0.216 0.057-0.272-0.045-0.045 0.011-0.023 0.125 0.068 0.17 0.125 0.204 0.125 0.17 0-0.023-0.091 0.045-0.17 0.136-0.17s0.159-0.068 0.148-0.148c-0.023-0.079 0.023-0.136 0.079-0.136 0.068 0 0.114-0.068 0.114-0.148 0-0.227 0.613-0.534 1.044-0.511 0.363 0.011 0.386 0.034 0.352 0.363-0.091 0.749-0.272 1.147-0.636 1.317-0.817 0.397-0.988 1.43-0.329 2.134 0.068 0.079 0.136 0.204 0.136 0.261s0.125 0.125 0.284 0.17c0.159 0.034 0.284 0.113 0.284 0.17s0.057 0.102 0.125 0.102c0.068 0 0.307 0.079 0.534 0.182 0.238 0.102 0.59 0.25 0.795 0.341s0.443 0.159 0.534 0.159c0.091 0 0.17 0.034 0.17 0.091 0 0.227 0.988 0.386 2.77 0.443 1.521 0.045 1.93 0.023 2.009-0.102 0.068-0.102 0.431-0.159 1.203-0.193 0.613-0.011 1.135-0.068 1.169-0.113 0.102-0.136 1.93-0.375 3.269-0.431 0.84-0.045 1.271-0.102 1.271-0.193 0-0.068 0.193-0.136 0.431-0.159 0.227-0.011 0.443-0.079 0.454-0.136 0.023-0.068 0.136-0.113 0.238-0.113 0.113 0 0.431-0.125 0.704-0.284s0.59-0.318 0.704-0.352c0.102-0.045 0.193-0.136 0.193-0.216s0.068-0.204 0.159-0.272c0.193-0.159 0.318-1.305 0.182-1.669-0.068-0.159-0.204-0.272-0.341-0.272-0.125 0-0.386-0.136-0.568-0.306-0.295-0.261-0.341-0.375-0.341-0.908v-0.602h0.454c0.25 0 0.454 0.045 0.454 0.102 0 0.148 0.658 0.465 1.010 0.477 0.193 0.011 0.227 0.034 0.102 0.068-0.113 0.023-0.204 0.102-0.204 0.17s0.091 0.091 0.216 0.057c0.136-0.034 0.204 0.011 0.193 0.125-0.023 0.272 0.397 0.306 0.579 0.068 0.125-0.17 0.193-0.182 0.352-0.068 0.102 0.079 0.272 0.17 0.363 0.204s0.272 0.114 0.397 0.159c0.125 0.057 0.397 0.136 0.602 0.17 0.193 0.045 0.363 0.125 0.363 0.182s0.182 0.102 0.409 0.102c0.431 0 1.555 0.329 1.612 0.488 0.023 0.045 0.159 0.079 0.306 0.079s0.306 0.057 0.341 0.113c0.034 0.068 0.193 0.113 0.352 0.113 0.148 0 0.272 0.057 0.272 0.113 0 0.068 0.125 0.17 0.284 0.227 0.341 0.125 0.386 0.454 0.068 0.454-0.352 0-0.386 0.204-0.045 0.261 0.204 0.034 0.113 0.057-0.25 0.079-0.306 0.011-0.602 0.023-0.647 0.011-0.045 0-0.113 0.113-0.159 0.272-0.034 0.159-0.113 0.261-0.159 0.227-0.057-0.034-0.17 0.023-0.261 0.113-0.113 0.102-0.386 0.17-0.692 0.17-0.284 0-0.522 0.045-0.522 0.102s-0.113 0.148-0.25 0.182c-0.125 0.045-0.352 0.204-0.488 0.352s-0.306 0.272-0.386 0.272c-0.068 0-0.341 0.216-0.602 0.477-0.272 0.261-0.534 0.465-0.579 0.454s-0.17 0.045-0.261 0.148c-0.102 0.091-0.25 0.17-0.341 0.17s-0.159 0.045-0.159 0.102c0 0.057-0.113 0.125-0.25 0.159-0.295 0.079-0.647-0.079-0.443-0.193 0.238-0.148 0.148-0.681-0.148-0.817-0.227-0.102-0.363-0.079-0.806 0.136-0.284 0.148-0.624 0.272-0.738 0.272s-0.238 0.045-0.272 0.102c-0.045 0.057-0.272 0.136-0.522 0.182s-0.454 0.113-0.454 0.159c0 0.045-0.182 0.091-0.397 0.102-0.227 0.023-0.681 0.182-1.033 0.363-0.341 0.193-0.681 0.341-0.761 0.341s-0.159 0.136-0.17 0.295l-0.023 0.284 1.033-0.023c0.624-0.011 1.078 0.034 1.147 0.102 0.091 0.091 0.068 0.148-0.091 0.204-0.522 0.17-0.534 0.204-0.102 0.272 0.454 0.079 0.454 0.079-0.136 0.102-0.329 0-0.602 0.057-0.602 0.125 0 0.057-0.079 0.079-0.17 0.045-0.113-0.045-0.17 0-0.17 0.17 0 0.159-0.057 0.216-0.17 0.17-0.102-0.045-0.17 0-0.17 0.113 0 0.102-0.079 0.182-0.159 0.182-0.25 0-1.101 0.613-1.76 1.249-0.318 0.318-0.602 0.568-0.636 0.568-0.023 0-0.227 0.182-0.443 0.397-0.227 0.216-0.375 0.397-0.352 0.397 0.034 0-0.034 0.091-0.136 0.216-0.113 0.113-0.238 0.204-0.272 0.193s-0.238 0.182-0.465 0.42c-0.216 0.227-0.443 0.42-0.499 0.42s-0.295-0.204-0.522-0.454zM10.851 22.215c-0.045-0.034-0.079 0-0.079 0.079s0.034 0.113 0.079 0.079c0.034-0.045 0.034-0.113 0-0.159zM25.609 20.172c-0.034-0.113-0.057-0.045-0.057 0.136 0 0.193 0.023 0.272 0.057 0.204 0.023-0.079 0.023-0.238 0-0.341zM5.096 18.889c0-0.057-0.045-0.113-0.114-0.113-0.057 0-0.114 0.057-0.114 0.113 0 0.068 0.057 0.113 0.114 0.113 0.068 0 0.114-0.045 0.114-0.113zM4.948 16.766c-0.045-0.034-0.079 0-0.079 0.079s0.034 0.113 0.079 0.079c0.034-0.045 0.034-0.113 0-0.159zM5.175 16.709c-0.034-0.091-0.068-0.057-0.068 0.068-0.011 0.125 0.023 0.193 0.057 0.148 0.034-0.034 0.045-0.136 0.011-0.216zM5.357 16.312c-0.079-0.023-0.216-0.023-0.284 0-0.079 0.034-0.023 0.057 0.136 0.057s0.216-0.023 0.148-0.057zM5.323 15.938c0-0.057-0.057-0.114-0.125-0.114-0.057 0-0.079 0.057-0.045 0.114 0.034 0.068 0.091 0.114 0.125 0.114 0.023 0 0.045-0.045 0.045-0.114z"></path>
<path fill="#fff" d="M14.609 19.059c-0.023-0.034-0.602-0.068-1.26-0.079l-1.215-0.011v-0.375c0-0.318-0.045-0.375-0.341-0.443-0.182-0.045-0.341-0.125-0.341-0.182s-0.363-0.102-0.795-0.102c-0.772 0-1.033-0.079-1.76-0.556-0.204-0.125-0.227-0.238-0.193-0.965 0.034-0.579 0.091-0.851 0.227-0.954 0.182-0.136 0.182-0.159 0-0.261-0.25-0.136-0.261-0.431-0.034-0.511 0.091-0.045 0.17-0.114 0.17-0.182 0-0.057 0.136-0.284 0.295-0.488 0.329-0.431 0.534-1.533 0.375-1.975-0.125-0.295-0.011-1.691 0.136-1.782 0.057-0.034 0.102-0.204 0.102-0.375 0-0.341 0.488-1.351 0.749-1.555 0.091-0.068 0.159-0.25 0.159-0.409 0-0.148 0.125-0.397 0.284-0.545s0.284-0.329 0.284-0.409c0-0.079 0.068-0.193 0.148-0.238s0.284-0.272 0.465-0.477c0.352-0.431 0.67-0.636 1.192-0.749 0.193-0.045 0.352-0.125 0.352-0.182s0.204-0.102 0.454-0.102c0.488 0 0.511-0.023 0.341-0.341-0.114-0.204-0.034-0.216 1.794-0.216 1.816 0 1.907 0.011 1.919 0.216 0.011 0.125-0.023 0.227-0.091 0.227-0.057 0-0.102-0.079-0.102-0.17s-0.079-0.17-0.182-0.17c-0.261 0-0.148 0.386 0.125 0.431 0.125 0.023 0.545 0.375 0.931 0.772 0.409 0.42 0.806 0.727 0.942 0.727 0.125 0 0.227 0.057 0.227 0.125 0 0.057-0.045 0.079-0.113 0.045-0.057-0.034-0.113-0.023-0.113 0.045 0 0.057 0.045 0.125 0.102 0.148 0.159 0.057 0.692 0.988 0.692 1.215 0 0.114 0.079 0.272 0.17 0.352 0.102 0.079 0.17 0.329 0.17 0.579 0 0.238 0.045 0.454 0.091 0.488 0.057 0.034 0.136 0.715 0.17 1.51 0.045 0.806 0.125 1.464 0.193 1.487 0.057 0.023 0.113 0.102 0.113 0.193 0 0.079 0.079 0.204 0.17 0.284 0.125 0.102 0.17 0.363 0.17 0.919s0.045 0.783 0.148 0.783c0.079 0 0.148 0.182 0.159 0.477 0.011 0.261 0.068 0.499 0.136 0.522 0.159 0.057 0.17 0.477 0.011 0.477-0.057 0-0.113 0.079-0.113 0.17s-0.068 0.17-0.148 0.17c-0.091 0-0.227 0.125-0.306 0.284-0.113 0.216-0.182 0.25-0.25 0.148-0.068-0.125-0.113-0.125-0.182 0-0.068 0.091-0.477 0.17-1.113 0.216-0.602 0.034-1.135 0.136-1.317 0.238-0.318 0.182-0.42 0.511-0.204 0.647 0.068 0.034 0.113 0.113 0.113 0.159 0 0.113-1.26 0.375-2.1 0.431-0.375 0.023-0.806 0.068-0.965 0.113-0.284 0.068-0.284 0.068 0.057 0.148 0.261 0.068 0.193 0.091-0.352 0.102-0.375 0-0.715-0.011-0.749-0.045zM15.54 18.605c0-0.091 0.034-0.159 0.091-0.159 0.352 0.057 0.704-0.034 0.704-0.182 0-0.091-0.045-0.17-0.113-0.17-0.057 0-0.136-0.136-0.182-0.306-0.102-0.477-0.42-1.056-0.579-1.056-0.238 0-0.602 0.431-0.602 0.715 0 0.136-0.079 0.352-0.17 0.465-0.227 0.306-0.216 0.715 0.034 0.783 0.443 0.125 0.817 0.079 0.817-0.091zM18.037 16.789c0.079-0.102 0.329-0.17 0.579-0.17s0.443-0.045 0.443-0.102c0-0.057 0.113-0.148 0.25-0.193 0.534-0.17 0.885-0.988 0.488-1.135-0.091-0.045-0.17-0.136-0.17-0.227 0-0.204-0.341-0.193-0.613 0.011-0.125 0.091-0.341 0.17-0.477 0.17s-0.397 0.079-0.579 0.159c-0.17 0.091-0.409 0.193-0.511 0.227-0.261 0.079-0.284 0.692-0.034 0.795 0.091 0.034 0.17 0.193 0.17 0.352 0 0.318 0.238 0.375 0.454 0.113zM13.406 16.585c0.102-0.148 0.204-0.454 0.216-0.693 0.045-0.431 0.034-0.431-0.409-0.465-0.238-0.011-0.465-0.079-0.488-0.159-0.023-0.068-0.159-0.125-0.306-0.125-0.136 0-0.284-0.079-0.329-0.17-0.034-0.091-0.159-0.17-0.272-0.17-0.125 0-0.284 0.079-0.363 0.17s-0.193 0.17-0.25 0.17c-0.114 0-0.658 0.556-0.658 0.67 0 0.125 0.454 0.465 0.613 0.465 0.079 0 0.216 0.079 0.295 0.17s0.272 0.17 0.443 0.17c0.159 0 0.375 0.057 0.465 0.113 0.306 0.204 0.84 0.125 1.044-0.148zM13.928 15.994c-0.034-0.397-0.17-0.352-0.182 0.057 0 0.193 0.034 0.318 0.102 0.284 0.057-0.034 0.091-0.193 0.079-0.341zM9.353 14.916c0.034-0.057 0.011-0.114-0.045-0.114-0.068 0-0.125 0.057-0.125 0.114 0 0.068 0.023 0.114 0.045 0.114 0.034 0 0.091-0.045 0.125-0.114z"></path>
<path fill="#fff" d="M30.332 18.356c0.045-0.034 0.113-0.034 0.159 0 0.034 0.045 0 0.079-0.079 0.079s-0.113-0.034-0.079-0.079z"></path>
<path fill="#fff" d="M5.073 15.177c0.068-0.023 0.204-0.023 0.284 0 0.068 0.034 0.011 0.057-0.148 0.057s-0.216-0.023-0.136-0.057z"></path>
</svg>
