<!-- Generated by IcoMoon.io -->
<svg version="1.1" xmlns="http://www.w3.org/2000/svg" width="32" height="32" viewBox="0 0 32 32">
<title>twists-wild-creatures</title>
<path fill="#fff" d="M20.043 31.88c0-0.080 0.034-0.114 0.080-0.080 0.034 0.046 0.034 0.114 0 0.16-0.046 0.034-0.080 0-0.080-0.080z"></path>
<path fill="#fff" d="M20.443 31.88c-0.046-0.069 0-0.251 0.103-0.4s0.183-0.377 0.183-0.514c0-0.183-0.069-0.229-0.343-0.229-0.194 0-0.377 0.069-0.411 0.16-0.069 0.183-0.377 0.114-0.526-0.091-0.069-0.091-0.126-0.069-0.194 0.046-0.137 0.206-0.091 0.263 0.286 0.274 0.469 0.023 0.446 0.24-0.023 0.274-0.217 0.011-0.503 0.080-0.617 0.137-0.263 0.137-3.783 0.149-3.555 0.011 0.217-0.137-0.091-0.217-0.983-0.263-0.389-0.011-0.674-0.069-0.652-0.114 0.034-0.057-0.217-0.091-0.549-0.091-0.366 0-0.709-0.069-0.846-0.171-0.114-0.091-0.309-0.171-0.411-0.171s-0.332-0.080-0.514-0.171c-0.171-0.091-0.492-0.229-0.686-0.309-0.206-0.080-0.377-0.217-0.377-0.286 0-0.080-0.103-0.149-0.229-0.149-0.286 0-1.006-0.446-1.486-0.914-0.194-0.183-0.423-0.343-0.514-0.343s-0.171-0.080-0.171-0.171c0-0.091-0.046-0.171-0.103-0.171-0.183 0-2.069-1.897-2.069-2.080 0-0.103-0.046-0.206-0.114-0.229-0.091-0.034-0.183-0.331-0.217-0.72-0.011-0.057-0.057-0.046-0.103 0.023-0.057 0.091-0.091-0.023-0.103-0.263-0.011-0.229-0.080-0.457-0.16-0.503-0.091-0.069-0.149-0.434-0.149-1.154l-0.011-1.063 0.606-0.011c0.469-0.011 0.594 0.011 0.594 0.16 0 0.103 0.126 0.32 0.263 0.48 0.149 0.149 0.297 0.354 0.32 0.423 0.126 0.366 2.526 2.835 2.857 2.938 0.114 0.046 0.217 0.126 0.217 0.183s0.069 0.103 0.16 0.103c0.080 0 0.217 0.080 0.297 0.171s0.183 0.137 0.24 0.103c0.057-0.034 0.194 0 0.297 0.057 0.16 0.091 0.171 0.114 0.034 0.126-0.332 0.011 1.246 0.8 1.589 0.8 0.137 0 0.24 0.057 0.24 0.114 0 0.069 0.309 0.114 0.686 0.114 0.423 0 0.686 0.046 0.686 0.126 0 0.069-0.080 0.103-0.171 0.057-0.091-0.034-0.171-0.023-0.171 0.034 0 0.137 1.36 0.24 1.68 0.114 0.149-0.057 0.492-0.103 0.743-0.103 0.514 0 1.234-0.217 1.234-0.366 0-0.046 0.080-0.091 0.171-0.091 0.137 0 0.171-0.16 0.171-0.8s0.034-0.8 0.171-0.8c0.091 0 0.171-0.057 0.171-0.126 0-0.16 0.286-0.446 0.446-0.446 0.069 0 0.126-0.080 0.126-0.171s0.057-0.171 0.126-0.171c0.080 0 0.251-0.126 0.4-0.286s0.366-0.286 0.491-0.286c0.126 0 0.263-0.057 0.309-0.137 0.057-0.080 0.034-0.091-0.069-0.034-0.091 0.057-0.126 0.046-0.080-0.023 0.046-0.057 0.537-0.126 1.097-0.126 0.812-0.011 1.052 0.023 1.166 0.171 0.149 0.171 0.137 0.171-0.103 0.046-0.149-0.080-0.354-0.126-0.457-0.091-0.114 0.023-0.023 0.091 0.24 0.171 0.24 0.069 0.526 0.091 0.629 0.057 0.171-0.069 0.171-0.057 0.034 0.114s-0.126 0.194 0.034 0.194c0.126 0 0.183-0.103 0.183-0.343 0-0.229-0.057-0.343-0.171-0.343-0.091 0-0.171-0.080-0.171-0.171 0-0.103-0.080-0.297-0.171-0.446-0.126-0.183-0.183-0.56-0.183-1.132 0-0.777 0.034-0.914 0.297-1.28 0.331-0.423 0.343-0.377-0.171-0.994-0.206-0.263-1.052-0.286-1.257-0.034-0.080 0.091-0.24 0.171-0.354 0.171-0.137 0-0.24 0.114-0.286 0.286-0.034 0.16-0.114 0.286-0.171 0.286-0.16 0-0.126 0.64 0.046 0.777 0.080 0.069 0.126 0.331 0.103 0.697-0.034 0.469-0.091 0.583-0.286 0.652-0.137 0.046-0.491 0.331-0.777 0.629-0.297 0.309-0.594 0.56-0.652 0.56-0.069 0-0.183 0.103-0.251 0.229s-0.171 0.206-0.24 0.171c-0.057-0.046-0.103 0-0.103 0.091 0 0.206-0.263 0.434-0.537 0.48-0.114 0.011-0.194 0.091-0.171 0.16 0.011 0.091-0.149 0.126-0.526 0.114-0.572-0.023-1.052 0.229-1.052 0.56 0 0.126-0.229 0.514-0.526 0.926-0.023 0.023-0.126 0-0.24-0.046-0.194-0.080-0.194-0.091 0.023-0.171 0.171-0.080 0.114-0.103-0.251-0.103-0.411-0.011-0.492-0.046-0.492-0.24 0-0.126-0.046-0.229-0.091-0.229-0.057 0-0.194-0.229-0.32-0.514-0.16-0.389-0.263-0.514-0.457-0.514-0.137 0-0.274 0.080-0.32 0.171-0.034 0.091-0.194 0.171-0.354 0.171h-0.286v-1.189c0-0.949 0.034-1.2 0.171-1.257 0.091-0.034 0.171-0.171 0.171-0.297 0-0.343 0.606-0.914 0.96-0.914 0.16 0 0.286 0.034 0.274 0.091-0.034 0.114 0.366 0.72 0.64 0.972 0.263 0.24 0.789 0.251 1.029 0.023 0.091-0.091 0.217-0.171 0.286-0.171s0.126-0.080 0.126-0.171c0-0.091 0.034-0.171 0.091-0.171 0.046 0 0.183-0.183 0.297-0.4l0.217-0.4-0.411-0.389c-0.24-0.217-0.423-0.446-0.423-0.514s-0.057-0.126-0.126-0.126c-0.217 0-1.223-1.12-1.44-1.6-0.046-0.091-0.103-0.194-0.149-0.229-0.034-0.034-0.149-0.194-0.263-0.366-0.286-0.446-0.251-0.983 0.080-1.292 0.149-0.137 0.309-0.366 0.354-0.491 0.034-0.137 0.149-0.251 0.24-0.251s0.194-0.080 0.229-0.171c0.046-0.091 0.137-0.171 0.229-0.171s0.16-0.046 0.16-0.114c0-0.057 0.069-0.114 0.16-0.114 0.080 0 0.217-0.080 0.297-0.171s0.286-0.171 0.457-0.171c0.183 0 0.343-0.057 0.366-0.126s0.286-0.149 0.583-0.183c0.297-0.034 0.572-0.114 0.606-0.16 0.034-0.057 0.194-0.103 0.366-0.103s0.56-0.091 0.857-0.194c0.697-0.251 0.686-0.503-0.034-1.029-0.286-0.206-0.56-0.423-0.629-0.469-0.411-0.297-0.766-0.48-0.972-0.48-0.194 0-0.229-0.069-0.229-0.457 0-0.251-0.046-0.457-0.114-0.457-0.057 0-0.114-0.080-0.114-0.171s0.057-0.171 0.114-0.171c0.069 0 0.114-0.183 0.114-0.4 0-0.251 0.069-0.434 0.171-0.469 0.091-0.046 0.171-0.194 0.171-0.343s0.057-0.274 0.114-0.274c0.069 0 0.114-0.126 0.114-0.286 0-0.217-0.057-0.286-0.251-0.286-0.526 0-0.892 0.56-0.892 1.36 0 0.309-0.069 0.697-0.16 0.857-0.171 0.332-0.114 1.326 0.080 1.452 0.149 0.103-0.263 0.297-0.572 0.263-0.206-0.011-0.263 0.046-0.263 0.274s0.046 0.274 0.274 0.229c0.286-0.057 0.423 0.080 0.332 0.343-0.034 0.091-0.286 0.137-0.72 0.137-0.366 0-0.709 0.057-0.743 0.114-0.034 0.069-0.263 0.114-0.503 0.114-0.229 0-0.526 0.080-0.652 0.171-0.114 0.091-0.332 0.171-0.469 0.171-0.149 0-0.263 0.046-0.263 0.103s-0.137 0.137-0.297 0.171c-0.297 0.080-0.96 0.674-0.96 0.869 0 0.069-0.034 0.114-0.091 0.114-0.091 0-0.343 0.663-0.446 1.154-0.034 0.183 0.011 0.366 0.126 0.48 0.103 0.091 0.183 0.229 0.183 0.297s0.057 0.126 0.114 0.126c0.069 0 0.114 0.069 0.114 0.16 0 0.251-0.537 0.297-0.754 0.057-0.114-0.126-0.24-0.217-0.297-0.217-0.149 0-0.434-0.297-0.434-0.446 0-0.069-0.080-0.126-0.171-0.126s-0.171-0.080-0.171-0.171c0-0.229-0.149-0.217-0.377 0.034-0.137 0.149-0.194 0.423-0.194 0.914 0 0.64-0.023 0.709-0.229 0.709-0.457 0-1.417-0.823-1.314-1.109 0.023-0.080-0.034-0.149-0.137-0.149-0.16 0-0.171-0.149-0.103-1.28 0.080-1.143 0.114-1.314 0.411-1.737 0.343-0.492 0.732-0.869 0.903-0.869 0.057 0 0.126-0.080 0.171-0.171 0.034-0.091 0.194-0.171 0.354-0.171s0.286-0.046 0.286-0.114c0-0.057 0.046-0.114 0.114-0.114 0.057 0 0.446-0.149 0.834-0.343 0.4-0.183 0.892-0.343 1.086-0.343 0.4 0 0.411-0.034 0.366-0.903-0.011-0.309 0.034-0.537 0.126-0.594 0.091-0.046 0.171-0.389 0.194-0.834 0.023-0.411 0.091-0.754 0.149-0.754s0.103-0.103 0.103-0.229c0-0.126 0.080-0.263 0.171-0.297 0.091-0.046 0.171-0.194 0.171-0.343 0-0.24-0.046-0.274-0.457-0.274-0.389 0-0.457 0.034-0.457 0.24 0 0.126-0.080 0.309-0.171 0.4-0.091 0.103-0.171 0.274-0.171 0.4 0 0.114-0.046 0.217-0.114 0.217-0.057 0-0.114 0.171-0.114 0.377 0 0.251-0.080 0.411-0.229 0.514-0.137 0.080-0.206 0.194-0.171 0.251 0.103 0.171 0.286 0.137 0.286-0.046 0-0.091 0.080-0.183 0.171-0.229 0.126-0.046 0.171 0.023 0.171 0.263 0 0.263-0.080 0.354-0.457 0.537-0.251 0.114-0.457 0.263-0.457 0.309 0 0.057-0.046 0.057-0.114 0.023-0.057-0.034-0.114-0.011-0.114 0.057s-0.057 0.091-0.114 0.057c-0.069-0.046-0.251 0-0.4 0.103s-0.4 0.183-0.549 0.183c-0.16 0-0.343 0.080-0.423 0.171s-0.183 0.137-0.24 0.103c-0.057-0.034-0.103 0.023-0.103 0.114 0 0.103-0.057 0.183-0.126 0.183-0.137 0-1.052 0.674-1.109 0.823-0.023 0.057-0.114 0.091-0.206 0.091s-0.16 0.080-0.16 0.171c0 0.091-0.080 0.171-0.171 0.171-0.103 0-0.297 0.126-0.446 0.286s-0.309 0.286-0.366 0.286c-0.057 0.011-0.229 0.16-0.389 0.343-0.149 0.194-0.343 0.343-0.434 0.343-0.080 0-0.229 0.080-0.32 0.171-0.126 0.126-0.309 0.149-0.652 0.091-0.263-0.034-0.491-0.114-0.514-0.171-0.057-0.126-0.446-0.114-0.537 0.023-0.126 0.206-0.4 0.126-0.4-0.114 0-0.217 0.366-0.686 0.526-0.686 0.171 0 0.377-0.423 0.389-0.766 0-0.263-0.057-0.377-0.183-0.377s-0.16-0.091-0.137-0.309c0.034-0.32 0.046-0.32 0.88-0.343 0.457 0 0.869-0.057 0.914-0.126 0.034-0.057 0.183-0.137 0.332-0.183 0.137-0.046 0.251-0.137 0.251-0.194s0.080-0.103 0.171-0.103c0.091 0 0.171-0.080 0.171-0.171s0.080-0.171 0.171-0.171c0.091 0 0.171-0.091 0.171-0.217 0-0.114 0.080-0.274 0.171-0.354s0.171-0.251 0.171-0.389c0-0.217-0.057-0.24-0.537-0.206-0.309 0.023-0.594 0.091-0.663 0.149-0.057 0.057-0.217 0.103-0.354 0.103s-0.309 0.080-0.389 0.171c-0.080 0.091-0.217 0.171-0.309 0.171s-0.229 0.069-0.32 0.149c-0.080 0.069-0.32 0.263-0.526 0.423s-0.434 0.354-0.514 0.434c-0.080 0.069-0.183 0.137-0.24 0.137-0.046 0-0.183 0.137-0.297 0.297-0.171 0.229-0.194 0.4-0.137 0.903l0.080 0.629h-0.354c-0.24 0-0.354-0.057-0.354-0.171 0-0.103-0.103-0.171-0.274-0.171-0.16 0-0.32-0.057-0.354-0.114-0.034-0.069-0.171-0.114-0.286-0.114-0.229 0-0.434-0.457-0.297-0.663 0.034-0.046-0.046-0.183-0.16-0.286-0.206-0.171-0.206-0.537 0-0.537 0.046 0 0.114-0.114 0.16-0.263 0.034-0.137 0.24-0.377 0.469-0.526 0.217-0.149 0.4-0.309 0.4-0.366s0.080-0.103 0.171-0.103c0.149 0 0.194-0.16 0.16-0.537-0.011-0.137-0.48-0.046-0.572 0.103-0.057 0.080-0.16 0.069-0.343-0.069-0.149-0.103-0.206-0.183-0.126-0.183 0.069 0 0.137-0.126 0.137-0.274s0.080-0.332 0.171-0.411c0.103-0.080 0.171-0.332 0.171-0.617 0-0.332 0.034-0.423 0.103-0.309 0.091 0.137 0.126 0.103 0.183-0.137 0.046-0.171 0.114-0.309 0.171-0.309 0.046 0 0.171-0.194 0.297-0.423 0.206-0.411 0.263-0.492 0.594-0.88 0.069-0.091 0.137-0.251 0.137-0.354 0-0.091 0.046-0.171 0.103-0.171s0.229-0.194 0.366-0.423c0.149-0.24 0.377-0.56 0.514-0.709s0.32-0.4 0.411-0.56c0.183-0.354 1.074-1.28 1.234-1.28 0.057 0 0.114-0.057 0.114-0.126 0-0.080 0.114-0.24 0.263-0.377s0.297-0.332 0.343-0.446c0.046-0.114 0.171-0.229 0.274-0.274 0.114-0.046 0.251-0.137 0.297-0.229 0.183-0.286 0.514-0.16 0.777 0.309 0.171 0.297 0.343 0.457 0.492 0.457 0.251 0 1.394-0.537 1.646-0.777 0.080-0.069 0.229-0.137 0.32-0.137s0.16-0.046 0.16-0.114c0-0.057 0.080-0.114 0.171-0.114s0.171-0.080 0.171-0.171c0-0.103 0.103-0.171 0.286-0.171 0.16 0 0.286-0.046 0.286-0.091 0-0.137 0.834-0.48 1.166-0.48 0.16 0 0.32-0.080 0.366-0.171 0.034-0.091 0.16-0.171 0.286-0.171s0.263-0.046 0.297-0.114c0.080-0.137 1.349-0.16 1.475-0.034s0.343 0.114 0.434-0.011c0.034-0.057 0.183-0.126 0.32-0.149 0.251-0.034 0.251-0.034 0.069 0.251-0.32 0.492-0.206 0.686 0.389 0.652 0.286-0.023 0.56-0.091 0.629-0.149 0.057-0.057 0.263-0.103 0.457-0.103s0.411-0.057 0.48-0.126c0.194-0.194 1.737-0.251 2.492-0.103 0.377 0.080 1.017 0.137 1.429 0.137s0.652 0.023 0.549 0.057c-0.114 0.023-0.206 0.080-0.206 0.114s0.091 0.137 0.206 0.217c0.343 0.263 0.034 0.56-0.617 0.594-0.812 0.046-0.96 0.114-0.686 0.32 0.126 0.091 0.183 0.16 0.114 0.16-0.057 0.011 0.057 0.091 0.24 0.206 0.251 0.137 0.743 0.217 1.829 0.263 1.669 0.091 2.16 0.171 2.355 0.4 0.069 0.091 0.297 0.16 0.491 0.16 0.251 0 0.309 0.034 0.194 0.103-0.126 0.080-0.103 0.114 0.091 0.183 0.217 0.069 0.926 0.686 0.926 0.812 0 0.206-0.4 0.389-0.846 0.389-0.572 0-0.743 0.137-0.48 0.411 0.103 0.091 0.183 0.251 0.183 0.343s0.057 0.16 0.114 0.16c0.069 0 0.114 0.069 0.114 0.149 0.011 0.194 0.537 0.766 0.72 0.766 0.080 0 0.251 0.080 0.377 0.171 0.114 0.091 0.331 0.171 0.48 0.171 0.137 0 0.251 0.057 0.251 0.114 0 0.069 0.091 0.114 0.217 0.114 0.114 0 0.274 0.069 0.343 0.16 0.080 0.091 0.263 0.194 0.411 0.229 0.16 0.046 0.286 0.126 0.286 0.183 0 0.069 0.069 0.114 0.149 0.114s0.274 0.126 0.446 0.286c0.171 0.16 0.343 0.286 0.377 0.286 0.149 0 0.514 0.48 0.514 0.686 0 0.343-0.469 0.526-0.903 0.343-0.183-0.069-0.4-0.103-0.457-0.057-0.16 0.091-0.16 1.2-0.011 1.2 0.057 0 0.137 0.126 0.183 0.286 0.034 0.16 0.114 0.286 0.171 0.286s0.103 0.114 0.103 0.263c0 0.251 0.354 0.652 0.583 0.652 0.057 0 0.091 0.046 0.057 0.103s0.046 0.126 0.171 0.16c0.137 0.034 0.206 0.114 0.171 0.171-0.126 0.194 0.034 0.423 0.457 0.652 0.274 0.149 0.354 0.24 0.251 0.309-0.114 0.069-0.114 0.091 0 0.091 0.069 0 0.137 0.080 0.137 0.171s0.080 0.171 0.171 0.171c0.091 0 0.171 0.080 0.171 0.171s0.080 0.171 0.183 0.171c0.091 0 0.137 0.057 0.103 0.114-0.034 0.069 0.011 0.114 0.103 0.114s0.206 0.046 0.24 0.114c0.034 0.069-0.011 0.080-0.103 0.046-0.194-0.080-0.251 0.126-0.069 0.24 0.149 0.091 0.149 0.629-0.011 0.629-0.057 0-0.080-0.069-0.034-0.137 0.069-0.114 0.046-0.114-0.091 0-0.149 0.114-0.24 0.103-0.526-0.057-0.343-0.194-0.366-0.194-0.526 0.023-0.194 0.251-0.24 0.743-0.080 0.743 0.057 0 0.137 0.263 0.183 0.572 0.046 0.32 0.126 0.572 0.183 0.572s0.103 0.274 0.103 0.606c0 0.32 0.069 0.72 0.149 0.88s0.16 0.491 0.183 0.743c0.011 0.24 0.114 0.514 0.217 0.606 0.114 0.080 0.137 0.126 0.057 0.091-0.080-0.046-0.114 0.057-0.091 0.331 0.023 0.217 0 0.4-0.046 0.4s-0.069 0.149-0.034 0.32c0.034 0.309 0.023 0.32-0.446 0.354-0.274 0.011-0.514 0.046-0.549 0.069-0.023 0.034-0.034 0.674-0.023 1.429 0.023 1.086-0.011 1.429-0.149 1.623-0.103 0.137-0.183 0.377-0.183 0.514 0 0.149-0.046 0.263-0.114 0.263-0.057 0-0.114 0.16-0.114 0.343 0 0.194-0.046 0.343-0.114 0.343-0.057 0-0.103-0.069-0.080-0.137 0.011-0.080-0.091-0.16-0.229-0.183-0.149-0.023-0.263-0.114-0.263-0.206s-0.046-0.16-0.103-0.16c-0.183 0-0.812 0.583-0.812 0.754 0 0.091-0.046 0.16-0.091 0.16-0.057 0-0.194 0.206-0.32 0.457-0.114 0.251-0.286 0.457-0.354 0.457-0.080 0-0.149 0.080-0.149 0.171s-0.046 0.171-0.103 0.171c-0.057 0-0.126 0.137-0.149 0.32-0.023 0.171-0.091 0.297-0.171 0.286-0.069-0.023-0.24 0.103-0.354 0.251-0.126 0.16-0.286 0.286-0.354 0.286-0.183 0-1.474 1.337-1.554 1.612-0.046 0.114-0.194 0.251-0.354 0.286-0.149 0.034-0.274 0.114-0.274 0.171s-0.080 0.103-0.171 0.103c-0.091 0-0.171 0.046-0.171 0.103s-0.114 0.149-0.251 0.194c-0.149 0.034-0.331 0.126-0.423 0.206-0.091 0.069-0.366 0.126-0.617 0.137-0.263 0-0.491 0.069-0.514 0.137-0.023 0.080-0.183 0.137-0.366 0.137s-0.4 0.080-0.503 0.171c-0.194 0.194-0.48 0.229-0.583 0.057zM26.981 27.8c-0.046-0.034-0.080 0-0.080 0.080s0.034 0.114 0.080 0.080c0.034-0.046 0.034-0.114 0-0.16zM21.586 27.171c0.069-0.046 0.023-0.091-0.080-0.091-0.114 0-0.206 0.080-0.206 0.194 0 0.103 0.034 0.137 0.091 0.080 0.046-0.057 0.137-0.137 0.194-0.183zM21.838 27.343c-0.046-0.034-0.114-0.034-0.16 0-0.034 0.046 0 0.080 0.080 0.080s0.114-0.034 0.080-0.080zM21.929 26.6c0.069-0.046 0.023-0.091-0.080-0.091-0.114 0-0.206 0.080-0.206 0.194 0 0.103 0.034 0.137 0.091 0.080 0.046-0.057 0.137-0.137 0.194-0.183zM23.129 26.805c0-0.023-0.126-0.069-0.286-0.091-0.149-0.034-0.251-0.011-0.217 0.034 0.057 0.103 0.503 0.149 0.503 0.057zM22.375 26.325c0.034-0.091 0.023-0.137-0.046-0.103s-0.114 0.114-0.114 0.183c0 0.16 0.080 0.126 0.16-0.080zM22.409 25.857c-0.046-0.034-0.114-0.034-0.16 0-0.034 0.046 0 0.080 0.080 0.080s0.114-0.034 0.080-0.080zM22.158 25.617c-0.034-0.034-0.126 0-0.206 0.080-0.103 0.114-0.091 0.126 0.069 0.057 0.114-0.034 0.171-0.103 0.137-0.137zM17.586 25.022c0.034-0.057 0.046-0.114 0.011-0.114s-0.091 0.057-0.126 0.114c-0.034 0.069-0.046 0.114-0.011 0.114s0.091-0.046 0.126-0.114zM8.122 17.398c-0.046-0.034-0.080 0-0.080 0.080s0.034 0.114 0.080 0.080c0.034-0.046 0.034-0.114 0-0.16zM10.293 17.376c-0.011-0.137-0.091-0.194-0.251-0.183-0.354 0.046-0.354 0.057-0.126 0.229 0.297 0.229 0.4 0.217 0.377-0.046zM12.099 14.621c0.034-0.057 0.046-0.114 0.011-0.114s-0.091 0.057-0.126 0.114c-0.034 0.069-0.046 0.114-0.011 0.114s0.091-0.046 0.126-0.114zM30.73 14.175c-0.023-0.206-0.24-0.297-0.343-0.137-0.091 0.16 0.011 0.32 0.206 0.32 0.091 0 0.16-0.080 0.137-0.183zM15.048 13.935c0.034-0.126 0.011-0.206-0.046-0.16-0.057 0.034-0.103 0.137-0.103 0.229 0 0.229 0.080 0.194 0.149-0.069zM10.728 11.306c0.034-0.057 0.046-0.114 0.011-0.114s-0.091 0.057-0.126 0.114c-0.034 0.069-0.046 0.114-0.011 0.114s0.091-0.046 0.126-0.114zM10.293 11.009c-0.034-0.034-0.137-0.046-0.217-0.011-0.091 0.034-0.057 0.069 0.069 0.069 0.126 0.011 0.194-0.023 0.149-0.057zM6.613 10.072c-0.034-0.034-0.126 0-0.206 0.080-0.103 0.114-0.091 0.126 0.069 0.057 0.114-0.034 0.171-0.103 0.137-0.137zM5.504 9.215c0.183-0.034 0.114-0.046-0.171-0.046-0.389 0.011-0.469 0.046-0.434 0.217 0.080 0.4 0.229 0.503 0.263 0.183 0.023-0.229 0.114-0.32 0.343-0.354zM5.23 8.723c0.034-0.091 0.023-0.137-0.046-0.103s-0.114 0.114-0.114 0.183c0 0.16 0.080 0.126 0.16-0.080zM4.921 8.426c-0.034-0.091-0.069-0.057-0.069 0.069-0.011 0.126 0.023 0.194 0.057 0.149 0.034-0.034 0.046-0.137 0.011-0.217zM5.218 8.197c-0.32-0.16-0.332-0.332-0.023-0.8 0.137-0.206 0.206-0.286 0.171-0.171s-0.023 0.183 0.046 0.137c0.057-0.034 0.103-0.194 0.091-0.343-0.023-0.217-0.091-0.286-0.297-0.286-0.297 0-0.937 0.332-0.937 0.48 0 0.046-0.080 0.091-0.171 0.091s-0.171 0.080-0.171 0.171c0 0.091-0.046 0.171-0.114 0.171-0.057 0-0.114 0.080-0.114 0.171 0 0.080-0.091 0.217-0.194 0.274-0.171 0.103-0.16 0.114 0.114 0.126 0.183 0 0.4-0.069 0.492-0.16 0.080-0.091 0.251-0.149 0.354-0.137 0.114 0.023 0.24-0.023 0.286-0.091 0.057-0.069 0.091-0.023 0.091 0.126 0 0.137 0.091 0.274 0.206 0.297 0.354 0.091 0.434 0.069 0.171-0.057zM6.064 6.311c-0.046-0.034-0.114-0.034-0.16 0-0.034 0.046 0 0.080 0.080 0.080s0.114-0.034 0.080-0.080zM5.916 6.060c0.034-0.057-0.011-0.137-0.114-0.171-0.251-0.103-0.274-0.091-0.274 0.103 0 0.183 0.286 0.24 0.389 0.069zM24.238 4.425c-0.034-0.091-0.069-0.057-0.069 0.069-0.011 0.126 0.023 0.194 0.057 0.149 0.034-0.034 0.046-0.137 0.011-0.217zM19.277 2.334c-0.034-0.103-0.091-0.16-0.114-0.126-0.034 0.034-0.023 0.103 0.023 0.171 0.103 0.183 0.171 0.149 0.091-0.046zM19.769 2.162c-0.011-0.377-0.091-0.423-0.286-0.183-0.091 0.114-0.103 0.183-0.011 0.24 0.069 0.034 0.091 0.126 0.057 0.183-0.046 0.057 0 0.103 0.091 0.103 0.103 0 0.16-0.114 0.149-0.343z"></path>
<path fill="#fff" d="M19.62 31.572c0.046-0.034 0.114-0.034 0.16 0 0.034 0.046 0 0.080-0.080 0.080s-0.114-0.034-0.080-0.080z"></path>
<path fill="#fff" d="M5.756 22.050c-0.137-0.091-0.114-0.114 0.091-0.114 0.149 0 0.229 0.046 0.194 0.114-0.080 0.137-0.069 0.137-0.286 0z"></path>
<path fill="#fff" d="M5.333 20.153c-0.274-0.286-0.492-0.594-0.492-0.674 0-0.24-0.354-0.629-0.572-0.629-0.343 0-0.629 0.48-0.629 1.063 0 0.297-0.034 0.549-0.080 0.572-0.034 0.011-0.229-0.091-0.411-0.229-0.354-0.263-0.354-0.251-0.594-2.355-0.149-1.303-0.057-1.406 1.12-1.406 0.492 0 0.88-0.057 0.96-0.137s0.206-0.137 0.286-0.137c0.251 0 0.606 0.377 0.606 0.652 0 0.149 0.046 0.354 0.103 0.469 0.069 0.103 0.149 0.434 0.183 0.743 0.046 0.297 0.114 0.514 0.183 0.48 0.057-0.046 0.103 0.137 0.103 0.4s0.080 0.617 0.183 0.8c0.126 0.194 0.16 0.423 0.114 0.617-0.114 0.446-0.503 0.366-1.063-0.229zM5.527 19.422c0-0.057-0.023-0.114-0.046-0.114-0.034 0-0.091 0.057-0.126 0.114-0.034 0.069-0.011 0.114 0.046 0.114 0.069 0 0.126-0.046 0.126-0.114zM5.447 19.044c0.034-0.091-0.011-0.16-0.091-0.16s-0.126 0.069-0.091 0.16c0.034 0.080 0.069 0.149 0.091 0.149s0.057-0.069 0.091-0.149z"></path>
<path fill="#fff" d="M21.758 0.905c0-0.057 0.057-0.114 0.126-0.114 0.057 0 0.080 0.057 0.046 0.114-0.034 0.069-0.091 0.114-0.126 0.114-0.023 0-0.046-0.046-0.046-0.114z"></path>
</svg>
