<!-- Generated by IcoMoon.io -->
<svg version="1.1" xmlns="http://www.w3.org/2000/svg" width="32" height="32" viewBox="0 0 32 32">
<title>twists-psychology</title>
<path fill="#fff" d="M13.191 31.887c0.034-0.056 0.023-0.113-0.045-0.113-0.056 0-0.203-0.146-0.316-0.338-0.192-0.338-0.428-0.439-0.507-0.214-0.068 0.192-0.62-0.079-0.71-0.349-0.045-0.135-0.023-0.304 0.045-0.372 0.146-0.146 0.169-1.386 0.023-1.476-0.045-0.034-0.124-0.394-0.169-0.811-0.045-0.406-0.135-0.811-0.214-0.901-0.259-0.293-0.372-0.439-0.451-0.608-0.214-0.473-1.228-1.577-1.442-1.577-0.056 0-0.192-0.045-0.304-0.113-0.101-0.056-0.439-0.214-0.732-0.338s-0.507-0.282-0.473-0.338c0.045-0.068-0.124-0.113-0.383-0.113s-0.462-0.045-0.462-0.113c0-0.056-0.135-0.113-0.293-0.113-0.169 0-0.552-0.146-0.856-0.338-0.293-0.18-0.597-0.338-0.654-0.338-0.068 0-0.113-0.045-0.113-0.113 0-0.056-0.101-0.113-0.214-0.113s-0.237-0.079-0.282-0.169c-0.068-0.192-0.969-0.248-0.969-0.056 0 0.068-0.124 0.113-0.282 0.113-0.203 0-0.282-0.056-0.282-0.214 0-0.192 0.214-0.744 0.439-1.138 0.147-0.259 0.361-1.127 0.428-1.69 0.023-0.282 0.090-0.608 0.146-0.732s0.124-1.386 0.146-2.806c0.034-1.577 0.101-2.603 0.169-2.648 0.068-0.034 0.158-0.811 0.203-1.758 0.034-0.935 0.113-1.735 0.158-1.803 0.045-0.056 0.113-0.316 0.146-0.563 0.113-0.924 0.316-1.915 0.428-2.017 0.056-0.068 0.101-0.237 0.101-0.383s0.068-0.406 0.158-0.563c0.237-0.462 0.383-0.834 0.451-1.172 0.045-0.18 0.124-0.316 0.18-0.316 0.068 0 0.113-0.068 0.113-0.146 0-0.282 2.648-3.008 2.93-3.008 0.068 0 0.113-0.056 0.113-0.124 0-0.18 0.349-0.428 0.597-0.439 0.113 0 0.225-0.079 0.259-0.169 0.045-0.113 0.146-0.147 0.282-0.113 0.135 0.045 0.237 0.011 0.282-0.101 0.034-0.101 0.192-0.18 0.338-0.18 0.169 0 0.27-0.068 0.27-0.169s0.101-0.169 0.237-0.169c0.124 0 0.304-0.079 0.394-0.169 0.101-0.090 0.27-0.169 0.394-0.169 0.113 0 0.214-0.045 0.214-0.113 0-0.135 7.234-0.158 7.527-0.011 0.101 0.045 0.394 0.192 0.642 0.304 0.608 0.282 1.566 0.856 1.611 0.969 0.023 0.045 0.090 0.090 0.146 0.090s0.203 0.090 0.316 0.203c0.654 0.597 0.789 0.699 0.958 0.699 0.101 0 0.18 0.045 0.18 0.101s0.192 0.225 0.428 0.361c0.53 0.338 0.811 0.575 0.811 0.699 0 0.056 0.124 0.259 0.282 0.462 0.158 0.214 0.282 0.518 0.282 0.721s0.045 0.361 0.101 0.361c0.056 0 0.135 0.169 0.18 0.361 0.090 0.473 0.428 1.296 0.834 2.006 0.394 0.699 0.597 1.724 0.654 3.425 0.034 0.89 0.011 1.363-0.079 1.42-0.068 0.045-0.135 0.71-0.158 1.758-0.045 1.634-0.011 2.231 0.146 2.141 0.034-0.023 0.090 0.259 0.101 0.642 0.023 0.372 0.113 0.789 0.203 0.913s0.158 0.316 0.158 0.428c0 0.101 0.124 0.428 0.282 0.721s0.282 0.597 0.282 0.676c0 0.090 0.068 0.158 0.146 0.158s0.158 0.146 0.169 0.338c0.023 0.237-0.023 0.338-0.146 0.338-0.113 0-0.169 0.113-0.169 0.338 0 0.383-0.316 0.958-0.665 1.194-0.124 0.090-0.237 0.259-0.248 0.361 0 0.113-0.034 0.135-0.068 0.056-0.034-0.101-0.169-0.068-0.462 0.124-0.225 0.135-0.507 0.282-0.62 0.327s-0.18 0.113-0.158 0.158c0.034 0.056-0.248 0.101-0.631 0.101-0.394 0.011-0.71 0.068-0.732 0.146-0.023 0.068-0.113 0.124-0.214 0.124-0.687 0-2.107 1.577-1.735 1.949 0.192 0.192 0.158 0.541-0.045 0.462-0.101-0.045-0.169 0-0.169 0.101 0 0.090-0.034 0.192-0.079 0.214-0.169 0.068-0.485 0.89-0.485 1.217 0 0.192-0.045 0.338-0.090 0.338-0.192 0-0.62 2.186-0.586 3.020 0.011 0.552-0.169 0.811-0.597 0.811-0.203 0-0.428-0.056-0.507-0.135-0.101-0.101-0.203-0.090-0.417 0.023-0.237 0.124-0.338 0.124-0.507 0.023-0.124-0.068-0.417-0.169-0.676-0.203-0.248-0.045-0.485-0.124-0.518-0.169-0.034-0.056-0.485-0.101-1.014-0.101s-0.935 0.045-0.901 0.090c0.034 0.056 0 0.101-0.079 0.101-0.079 0.011-0.62 0.045-1.206 0.068-0.586 0.034-1.104 0.068-1.149 0.068-0.034 0.011-0.135 0.192-0.203 0.406-0.101 0.304-0.192 0.394-0.406 0.394-0.158 0-0.248-0.045-0.214-0.113zM14.262 30.4c0-0.237-0.192-0.462-0.316-0.383-0.158 0.090-0.034 0.518 0.158 0.518 0.090 0 0.158-0.068 0.158-0.135zM19.107 30.422c0.135-0.090 0.124-0.113-0.079-0.113-0.146 0-0.259 0.056-0.259 0.113 0 0.146 0.124 0.146 0.338 0zM18.217 29.938c-0.113-0.101-0.124-0.090-0.056 0.068 0.034 0.113 0.101 0.169 0.135 0.135s0-0.124-0.079-0.203zM19.4 30.039c0.225-0.225 0.203-0.293-0.113-0.293-0.214 0-0.259 0.045-0.214 0.225 0.068 0.27 0.113 0.282 0.327 0.068zM18.735 29.397c0.011-0.214 0.011-0.225-0.045-0.045-0.034 0.124-0.113 0.27-0.192 0.316-0.079 0.068-0.068 0.079 0.045 0.045 0.090-0.023 0.18-0.158 0.192-0.316zM19.817 29.217c-0.079-0.023-0.214-0.023-0.282 0-0.079 0.034-0.023 0.056 0.135 0.056s0.214-0.023 0.146-0.056zM19.107 29.138c0-0.034-0.056-0.090-0.135-0.135s-0.090-0.034-0.045 0.045c0.079 0.135 0.18 0.18 0.18 0.090zM18.96 27.752c-0.045-0.034-0.113-0.034-0.158 0-0.034 0.045 0 0.079 0.079 0.079s0.113-0.034 0.079-0.079zM19.22 27.38c0.090-0.169 0.090-0.225-0.034-0.225-0.079 0-0.146 0.101-0.146 0.225s0.011 0.225 0.034 0.225c0.011 0 0.079-0.101 0.146-0.225zM18.96 27.188c0-0.113-0.056-0.27-0.124-0.361-0.101-0.135-0.090-0.146 0.079-0.090 0.124 0.045 0.18 0.034 0.135-0.034-0.034-0.068-0.124-0.113-0.192-0.113s-0.214-0.113-0.327-0.248c-0.169-0.192-0.214-0.417-0.214-1.183 0-0.507-0.045-0.935-0.101-0.935s-0.124-0.135-0.158-0.304c-0.034-0.18-0.124-0.53-0.203-0.789-0.135-0.451-0.135-0.485 0.158-0.777 0.327-0.327 0.372-0.439 0.192-0.552-0.056-0.034-0.113-0.282-0.113-0.53 0-0.856-0.338-1.645-0.901-2.107-0.282-0.225-0.631-0.518-0.789-0.654-0.158-0.146-0.316-0.259-0.361-0.259-0.056 0-0.090-0.079-0.090-0.169s-0.079-0.169-0.169-0.169c-0.192 0-0.586-0.203-0.823-0.417-0.079-0.079-0.203-0.146-0.259-0.146s-0.248-0.124-0.417-0.282c-0.169-0.158-0.372-0.282-0.451-0.282s-0.169-0.079-0.203-0.169c-0.045-0.090-0.135-0.169-0.225-0.169s-0.158-0.045-0.158-0.113c0-0.056-0.068-0.113-0.158-0.113s-0.237-0.068-0.316-0.146c-0.079-0.079-0.225-0.18-0.316-0.225-0.338-0.158-0.631-0.372-1.037-0.777-0.237-0.237-0.473-0.428-0.541-0.428-0.056 0-0.113-0.045-0.113-0.101s-0.113-0.146-0.248-0.192c-0.293-0.090-1.442-1.194-1.442-1.386 0-0.068-0.045-0.124-0.101-0.124s-0.146-0.113-0.192-0.248c-0.045-0.146-0.113-0.282-0.146-0.316-0.146-0.101-0.304-1.679-0.18-1.735 0.056-0.023 0.023-0.056-0.079-0.056-0.259-0.011-0.27-0.53-0.034-0.98 0.090-0.18 0.169-0.518 0.169-0.744 0-0.237 0.045-0.428 0.101-0.428s0.124-0.203 0.169-0.451c0.034-0.248 0.124-0.451 0.18-0.451 0.068 0 0.113-0.090 0.113-0.203 0-0.101 0.124-0.327 0.282-0.496s0.282-0.383 0.282-0.485c0-0.101 0.079-0.203 0.169-0.237 0.090-0.045 0.169-0.135 0.169-0.225s0.056-0.158 0.113-0.158c0.146 0 0.789-0.642 0.789-0.789 0-0.056 0.068-0.079 0.158-0.045 0.079 0.034 0.225-0.011 0.316-0.101s0.27-0.203 0.406-0.237c0.146-0.045 0.214-0.135 0.18-0.203-0.045-0.079-0.023-0.090 0.045-0.045s0.214-0.023 0.327-0.158c0.113-0.124 0.316-0.225 0.451-0.225 0.146 0 0.259-0.045 0.259-0.113s0.304-0.113 0.676-0.113c0.518 0 0.687-0.045 0.777-0.203 0.056-0.101 0.135-0.18 0.169-0.158 0.034 0.011 0.451 0.023 0.913 0.023 0.631 0 0.823-0.034 0.777-0.147-0.034-0.101 0.068-0.135 0.406-0.101 0.248 0.023 0.485 0.090 0.518 0.147s0.507 0.101 1.070 0.101c0.575 0 1.003 0.045 1.003 0.113 0 0.056-0.090 0.079-0.192 0.045-0.192-0.045 0.023 0.056 0.642 0.327 0.496 0.225 1.577 1.070 1.431 1.127-0.101 0.045-0.101 0.090-0.011 0.158 0.068 0.045 0.158 0.203 0.203 0.349 0.045 0.135 0.135 0.248 0.192 0.248s0.101 0.068 0.101 0.158c0 0.090 0.090 0.327 0.192 0.541 0.101 0.203 0.225 0.462 0.282 0.563 0.124 0.27 0.113 1.859-0.011 1.949-0.056 0.034-0.146 0.225-0.192 0.417-0.034 0.203-0.135 0.462-0.203 0.586-0.192 0.338-1.465 1.6-1.375 1.363 0.068-0.192 0.056-0.203-0.124-0.045-0.259 0.225-0.98 0.552-1.194 0.552-0.101 0-0.214 0.045-0.248 0.113-0.090 0.135-1.375 0.146-1.454 0.011-0.034-0.045-0.203-0.124-0.372-0.169-0.18-0.034-0.406-0.135-0.518-0.225-0.203-0.158-0.203-0.18-0.023-0.563 0.124-0.259 0.27-0.406 0.417-0.406 0.113 0 0.361-0.135 0.552-0.316 0.394-0.372 0.642-1.476 0.439-2.006-0.146-0.383-1.183-1.397-1.442-1.408-0.158 0-0.158-0.023 0.034-0.113 0.158-0.068 0-0.090-0.507-0.045-0.406 0.034-0.744 0.113-0.766 0.169-0.023 0.068-0.135 0.113-0.248 0.113-0.101 0-0.259 0.079-0.338 0.169s-0.214 0.169-0.293 0.169c-0.090 0-0.158 0.056-0.158 0.113 0 0.068-0.068 0.113-0.135 0.113-0.18 0-0.834 0.597-1.296 1.194-0.259 0.327-0.372 0.597-0.372 0.868 0 0.214-0.068 0.417-0.135 0.451-0.101 0.023-0.146 0.327-0.146 0.98s0.045 0.958 0.146 0.992c0.068 0.023 0.135 0.146 0.135 0.27 0 0.225 0.518 0.992 0.676 0.992 0.045 0 0.27 0.18 0.507 0.394 0.225 0.225 0.451 0.372 0.485 0.349 0.034-0.034 0.124 0.034 0.214 0.158 0.079 0.113 0.327 0.248 0.541 0.293 0.225 0.034 0.428 0.113 0.462 0.169s0.192 0.101 0.361 0.101c0.169 0 0.406 0.079 0.518 0.169 0.124 0.090 0.383 0.169 0.586 0.169s0.394 0.045 0.439 0.101c0.079 0.146 1.386 0.135 1.465 0 0.045-0.056 0.192-0.101 0.349-0.101s0.304-0.079 0.338-0.169c0.045-0.113 0.225-0.169 0.552-0.169 0.293 0 0.53-0.068 0.62-0.169 0.079-0.090 0.237-0.169 0.349-0.169 0.124 0 0.214-0.045 0.214-0.113 0-0.056 0.079-0.113 0.169-0.113s0.169-0.079 0.169-0.169c0-0.090 0.079-0.169 0.169-0.169s0.169-0.034 0.169-0.090c0-0.045 0.18-0.18 0.394-0.293 0.214-0.124 0.394-0.27 0.394-0.338s0.158-0.192 0.338-0.27c0.203-0.090 0.338-0.237 0.338-0.361 0-0.113 0.045-0.248 0.113-0.282 0.056-0.034 0.192-0.259 0.282-0.485 0.101-0.225 0.259-0.563 0.338-0.755 0.18-0.406 0.439-2.231 0.439-3.155 0-0.935-0.248-2.321-0.439-2.535-0.090-0.101-0.169-0.248-0.169-0.316 0-0.079-0.045-0.135-0.113-0.135-0.056 0-0.113-0.079-0.113-0.169 0-0.214-1.51-1.747-2.085-2.107-1.025-0.642-1.792-0.992-2.186-0.992-0.237 0-0.485-0.068-0.563-0.147-0.192-0.192-4.913-0.18-5.104 0.011-0.079 0.079-0.327 0.135-0.552 0.135s-0.608 0.090-0.845 0.192c-0.248 0.101-0.507 0.18-0.575 0.158-0.079-0.011-0.146 0.023-0.146 0.079 0 0.068-0.124 0.147-0.282 0.18-0.158 0.045-0.282 0.124-0.282 0.18 0 0.068-0.101 0.113-0.237 0.113-0.293 0-0.665 0.203-0.665 0.361 0 0.068-0.124 0.237-0.282 0.383s-0.282 0.293-0.282 0.338c0 0.045-0.113 0.18-0.259 0.316-0.304 0.282-0.98 1.33-0.98 1.51 0 0.079-0.045 0.135-0.113 0.135-0.056 0-0.135 0.124-0.18 0.282-0.034 0.158-0.113 0.282-0.169 0.282s-0.101 0.124-0.101 0.27c0 0.146-0.079 0.293-0.169 0.338-0.101 0.034-0.169 0.214-0.169 0.462 0 0.214-0.045 0.394-0.090 0.394s-0.169 0.338-0.282 0.766c-0.214 0.834-0.27 2.896-0.079 3.008 0.068 0.045 0.090 0.113 0.068 0.158-0.192 0.304 0.766 2.377 1.104 2.377 0.034 0 0.417 0.349 0.845 0.789 0.439 0.428 0.834 0.789 0.89 0.789s0.485 0.372 0.947 0.823c0.935 0.901 2.456 1.769 3.11 1.769 0.192 0 0.361 0.045 0.361 0.101s-0.113 0.079-0.248 0.034c-0.158-0.034-0.214-0.023-0.158 0.068 0.045 0.079 0.169 0.135 0.282 0.135s0.27 0.079 0.349 0.169c0.079 0.090 0.203 0.169 0.282 0.169 0.090 0 0.169 0.034 0.192 0.090 0.023 0.045 0.248 0.225 0.518 0.394s0.507 0.383 0.552 0.473c0.034 0.090 0.113 0.169 0.192 0.169 0.068 0 0.214 0.316 0.327 0.71 0.124 0.383 0.237 0.777 0.27 0.868s0.079 0.451 0.090 0.789c0.023 0.608 0.023 0.62-0.282 0.631-0.225 0.011-0.304-0.034-0.259-0.135 0.034-0.090-0.023-0.158-0.124-0.158s-0.18 0.079-0.18 0.169c0 0.090-0.045 0.169-0.113 0.169-0.056 0-0.113 0.113-0.113 0.259s-0.056 0.316-0.124 0.383c-0.101 0.101-0.101 0.27-0.011 0.62 0.135 0.575 0.090 1.544-0.079 1.87-0.158 0.304-0.158 0.732 0.011 0.901 0.18 0.18 1.465 0.169 1.927-0.011 0.485-0.192 0.71-0.169 0.665 0.068-0.023 0.135 0.068 0.214 0.316 0.259 0.18 0.045 0.338 0.113 0.338 0.169s0.045 0.101 0.090 0.101c0.056 0 0.101-0.090 0.101-0.192zM18.656 24.112c0-0.056-0.045-0.113-0.113-0.113-0.056 0-0.113 0.056-0.113 0.113 0 0.068 0.056 0.113 0.113 0.113 0.068 0 0.113-0.045 0.113-0.113zM18.972 23.2c0.034-0.135 0.023-0.135-0.068 0-0.068 0.090-0.169 0.113-0.248 0.068-0.101-0.056-0.124-0.045-0.068 0.045 0.113 0.169 0.316 0.113 0.383-0.113zM18.96 22.805c-0.034-0.034-0.135-0.045-0.214-0.011-0.090 0.034-0.056 0.068 0.068 0.068 0.124 0.011 0.192-0.023 0.146-0.056zM12.065 22.197c0.034-0.124 0.192-0.259 0.349-0.293 0.146-0.034 0.27-0.135 0.27-0.225s0.079-0.158 0.169-0.158c0.090 0 0.169-0.045 0.169-0.090 0-0.056 0.124-0.158 0.282-0.225 0.169-0.079 0.282-0.225 0.282-0.361 0-0.124 0.068-0.214 0.146-0.192 0.214 0.034 0.248-0.868 0.034-1.082-0.101-0.101-0.18-0.225-0.18-0.293 0-0.056-0.237-0.146-0.53-0.18-0.631-0.079-1.183-0.27-1.296-0.439-0.056-0.079-0.124-0.079-0.225 0.023-0.18 0.18-0.654 0.169-0.868-0.023-0.563-0.496-1.476-0.789-1.645-0.518-0.034 0.068-0.192 0.113-0.327 0.113-0.169 0-0.372 0.135-0.552 0.383-0.259 0.327-0.293 0.485-0.293 1.228 0 0.71 0.045 0.89 0.248 1.138 0.146 0.158 0.338 0.293 0.451 0.293 0.101 0 0.192 0.056 0.192 0.113 0 0.068 0.113 0.113 0.259 0.113 0.135 0 0.349 0.079 0.462 0.169 0.124 0.090 0.304 0.169 0.417 0.169 0.101 0 0.338 0.079 0.507 0.169 0.18 0.090 0.439 0.169 0.586 0.169 0.135 0 0.248 0.056 0.248 0.113 0 0.068 0.169 0.113 0.383 0.113 0.293 0 0.406-0.056 0.462-0.225zM22.713 21.622c0.214-0.090 0.417-0.18 0.451-0.214 0.056-0.056 0.654-0.349 1.273-0.608 0.811-0.349 1.037-0.473 1.228-0.654 0.113-0.113 0.203-0.248 0.203-0.293s0.146-0.169 0.316-0.27c0.293-0.18 0.316-0.237 0.282-0.732-0.034-0.327-0.169-0.732-0.349-1.014-0.248-0.394-0.361-0.485-0.642-0.485-0.18 0.011-0.439 0.079-0.552 0.169-0.124 0.090-0.361 0.169-0.541 0.169-0.169 0-0.316 0.056-0.316 0.113 0 0.068-0.18 0.113-0.406 0.113-0.406 0-1.33 0.361-1.454 0.563-0.034 0.056-0.214 0.113-0.394 0.113s-0.349 0.045-0.383 0.101c-0.034 0.045-0.27 0.124-0.518 0.169-0.248 0.034-0.451 0.124-0.451 0.18 0 0.068-0.090 0.113-0.192 0.113-0.304 0-0.71 0.552-0.71 0.98 0 0.462 0.338 1.116 0.755 1.465 0.282 0.225 0.417 0.259 1.161 0.225 0.462-0.023 1.025-0.113 1.239-0.203zM6.487 16.879c0-0.045-0.101-0.090-0.225-0.090-0.237 0-0.27 0.090-0.146 0.406 0.068 0.18 0.079 0.18 0.225-0.023 0.079-0.113 0.146-0.237 0.146-0.293z"></path>
</svg>
