<!-- Generated by IcoMoon.io -->
<svg version="1.1" xmlns="http://www.w3.org/2000/svg" width="32" height="32" viewBox="0 0 32 32">
<title>weapons-blast</title>
<path fill="#fff" d="M19.308 30.058q-0.191-0.095-0.223-0.382v-0.095q-0.032-0.318-0.382-0.286-0.127 0-0.286 0.095-0.573 0.318-0.827 0.573l-0.032 0.064q-0.318 0.35-0.573 0.413-0.318 0-0.413 0.445-0.064 0.223-0.254 0.509l-0.064 0.095q-0.223 0.382-0.541 0.413t-0.668-0.286q-0.891-0.891-2.481-1.972-0.318-0.159-0.636-0.048t-0.064 0.525q0.159 0.223 0.143 0.286t-0.207 0.318q-0.573-0.573-1.909-1.495l-0.413-0.318q-0.413-0.286-0.7-0.604-0.541-0.541-1.622-0.954-0.127-0.032-0.382-0.159-0.477-0.254-0.763-0.254-0.095 0-0.191-0.191-0.064-0.127-0.016-0.207t0.175-0.095 0.35 0.064 0.318 0.048l0.604-0.223q0.191-0.064 0.573-0.095 0.286 0 0.413-0.032l0.127-0.032q0.35-0.095 0.509-0.175t0.414-0.366q0.095-0.127 0.286-0.191 0.127 0 0.223 0.254 0.064 0.127 0.318 0.143t0.286-0.111q0.159-0.35 0.445-0.668 0.159-0.191 0.541-0.541l0.636-0.668q0.636-0.636 0.859-1.050 0.032-0.064 0.159-0.175t0.159-0.191 0.191-0.143 0.159-0.223q0.223-0.095 0.477-0.413l0.191-0.286q0.127-0.191 0.191-0.254l0.159-0.191q0.191-0.286 0.318-0.382t0.111-0.175-0.080-0.207l-0.032-0.064q-0.032-0.095-0.191-0.223l-0.095-0.095q-0.064-0.095-0.27-0.254t-0.302-0.318-0.382-0.413l-0.795-0.732q-0.032-0.064-0.159-0.159l-0.064-0.064q-0.064-0.095-0.111-0.302t-0.095-0.302-0.223-0.159-0.334-0.318-0.286-0.35q-0.191-0.127-0.509-0.477l-0.159-0.159q-0.032-0.191 0.191-0.35 0.286-0.191 0.843-0.684t0.907-0.684q0.127-0.095 0.35-0.318 0.286-0.35 0.509-0.414 0.35-0.382 1.193-1.034t1.193-1.066q0.127-0.159 0.111-0.27t-0.143-0.27l-0.191-0.159q-0.223-0.159-0.254-0.286t-0.223-0.254q-0.127-0.032-0.159-0.095-0.127-0.254-0.525-0.652t-0.525-0.684l-0.064-0.223q-0.127-0.318-0.254-0.477l-0.35-0.477q-0.413-0.541-0.636-0.763-0.382-0.413-0.795-0.668-0.032-0.032-0.032-0.095t0.064-0.127q0.763-0.35 1.145-0.986 0.095-0.159 0.35-0.382l0.223-0.223q0.223-0.254 0.382-0.334t0.318-0.302l0.159-0.191q0.573-0.7 0.922-0.986 0.477-0.382 0.827-0.604 0.636-0.382 1.145-1.145l0.191-0.191q0.159-0.159 0.223-0.286 0.095 0.223 0.064 0.445-0.032 0.127-0.159 0.366t-0.159 0.366q-0.223 0.159-0.509 0.636l-0.223 0.35q-0.35 0.604-0.827 1.209-0.413 0.668-0.604 1.527-0.064 0.477 0.048 0.811t0.429 0.62q0.064 0.064 0.159 0.191 0.127 0.223 0.239 0.27t0.286 0.207 0.27 0.207 0.239 0.223 0.27 0.207 0.286 0.191 0.286 0.207 0.318 0.254 0.318 0.239q0.191 0.064 0.509 0.382l0.064 0.064q0.127 0.127 0.413 0.254t0.382 0.286q0.064 0.095 0.223 0.064h0.604q0.064 0 0.095 0.095t0 0.191q-0.032 0.191-0.254 0.35l-0.223 0.223q-0.954 1.018-1.336 1.59-0.032 0.064-0.159 0.191-0.286 0.254-0.763 0.827-0.413 0.509-0.636 0.732-0.064 0.064-0.191 0.254-0.191 0.286-0.302 0.35t-0.254 0.254-0.27 0.254q-0.223 0.159-0.207 0.557t0.239 0.557q0.127 0.064 0.254 0.27t0.223 0.27q0.159 0.095 0.413 0.382l1.145 1.145q0.286 0.286 0.382 0.477 0.286 0.445 0.636 0.668t0.366 0.652-0.302 0.747q-0.064 0.095-0.223 0.223l-0.095 0.095q-0.159 0.223-0.27 0.27t-0.27-0.143l-0.064-0.064q-0.064-0.064-0.127 0l-0.032 0.095q-0.095 0.064 0 0.127l0.032 0.032q0.127 0.095 0.127 0.207t-0.080 0.175-0.111 0.127q-0.445 0.541-1.304 1.622l-0.541 0.7q-0.095 0.127-0.191 0.445l-0.095 0.223-0.032 0.032q-0.159 0.127-0.064 0.223 0.032 0.032 0.064 0.159t0.095 0.159q0.159 0.064 0.429 0.286t0.461 0.286l0.064 0.032q0.318 0.127 0.445 0.064 0.477-0.159 1.368-0.095h0.668q0.127 0 0.382-0.064 0.413-0.095 0.652-0.064t0.747 0h0.35q0.382 0.032 1.145 0.191l0.382 0.064q0.318 0.095 0.095 0.318-0.127 0.159-0.413 0.286t-0.382 0.254q-0.382 0.445-0.732 0.7-0.127 0.127-0.429 0.334t-0.461 0.334l-0.732 0.732q-0.318 0.254-0.604 0.382-0.223 0.064-0.573 0.445zM11.197 28.913q0.127-0.127 0.127-0.191t-0.064-0.127-0.111-0.064-0.111 0.064-0.064 0.095q0.064 0.095 0.223 0.223zM3.276 15.744h0.7v-0.35q0-0.318 0.286-0.445 0.7-0.318 0.954-0.636 0.095 0.032 0.127 0t0.064-0.127l0.032-0.095q0.159-0.159 0.35-0.541 0.159-0.35 0.286-0.477 0.286-0.445 0.254-0.922-0.064-0.35-0.318-0.891-0.254-0.413-0.795-1.177l-0.286-0.445q-0.318-0.254-0.763-0.922-0.35-0.509-0.557-0.716t-0.525-0.652l-0.254-0.318q-0.127-0.095-0.127-0.254v-0.127q0-0.159 0.080-0.191t0.27 0.159l0.159 0.159q0.191 0.223 0.366 0.254t0.286 0.302 0.398 0.461 0.827 0.732l0.35 0.35q0.604 0.604 1.272 0.954 0.159 0.064 0.382 0.318l0.191 0.191q0.159-0.064 0.286 0.095t0.223 0.159q0.445 0.477 0.986 0.795t0.922 0.922q0.095 0.159 0.35 0.286l0.095 0.064q0.223 0.127 0.254 0.254t-0.032 0.366-0.382 0.429q-0.191 0.095-0.254 0.191-0.254 0.032-0.636 0.382-0.286 0.286-0.445 0.35t-0.175 0.302 0.080 0.366l0.286 0.382 0.223 0.318q0.159 0.223 0.541 0.541l0.223 0.191q0.668 0.573 0.859 0.986 0 0.095 0.191 0.191t0.382 0.286q0.127 0.127 0.318 0.382 0.254 0.35 0.429 0.509t0.334 0.509q0.064 0.223 0.127 0.318 0.127 0.127 0.143 0.223t0.143 0.191 0.095 0.191q-0.127 0.318-0.35 0.35-0.127 0.064-0.318 0.254l-0.318 0.286q-0.191 0.159-0.286 0.286-0.159 0.254-0.7 0.636-0.35 0.286-0.509 0.445-0.191 0-0.35 0.254-0.095 0.159-0.191 0.223-0.191 0.095-0.445 0.573l-0.032 0.064q-0.032 0.064-0.095 0.095t-0.095 0q-0.064-0.095-0.239-0.095t-0.207-0.064q-0.064-0.127-0.35-0.223t-0.366-0.239-0.223-0.254-0.286-0.095-0.191-0.175-0.175-0.159q-0.604-0.509-1.877-1.336l-0.095-0.095q-0.095-0.095-0.159-0.127-0.254-0.159-0.159-0.445 0.064-0.095 0.191-0.095t0.223 0.064q0.223 0.127 0.7 0.095 0.286-0.032 0.398 0t0.27 0.032q0.318-0.032 0.445 0.095 0.095 0.032 0.239 0t0.27-0.127q0.254-0.159 0.302-0.398t-0.175-0.366q-0.159-0.095-0.445-0.318-0.509-0.382-0.827-0.477-0.032 0-0.032-0.032l-0.032-0.032q-0.064-0.254-0.445-0.541-0.223-0.191-0.318-0.286l-0.095-0.127q-0.095-0.159-0.175-0.239t-0.239-0.048q0-0.127-0.064-0.191t-0.207-0.127-0.207-0.127l-0.095-0.127q-0.159-0.318-0.35-0.382l-0.032-0.064t-0.095-0.095q-0.223-0.127-0.541-0.636zM7.475 18.893q0-0.095-0.016-0.127t-0.111-0.064q-0.254-0.064-0.398-0.207t-0.223 0.032-0.032 0.254 0.207 0.143 0.159 0.159 0.032 0.111 0.095-0.016l0.095-0.064q0.127-0.064 0.175-0.095t0.016-0.127zM7.221 11.832q-0.095 0.064-0.159 0.127-0.127 0.095-0.032 0.382h0.095q0.127-0.032 0.095-0.223v-0.286zM22.234 24.491q-0.095 0-0.286-0.064-0.573-0.095-0.859-0.064-0.382 0.032-1.081 0.223-0.35 0.064-0.986 0.064h-0.604q-0.159 0-0.191-0.159t0.095-0.286q0.318-0.35 0.541-0.732 0.064-0.127 0.27-0.318t0.27-0.382q0-0.095 0.159-0.223l0.127-0.095 2.545-2.545q0.254-0.254 0.254-0.461t-0.35-0.429-1.050-0.763q-0.827-0.573-1.272-0.859-0.127-0.064-0.191-0.207t-0.016-0.239 0.095-0.27 0.127-0.302 0.239-0.191 0.334-0.223 0.239-0.35q0.032-0.095 0.127-0.191 0.35-0.286 0.922-0.986 0.509-0.604 0.811-0.859t0.318-0.366 0.175-0.175q0.095-0.032 0.111-0.064t-0.016-0.127l0.191-0.127q0.35-0.223 0.461-0.398t0.366-0.493l0.127-0.127q0.191-0.159 0.318-0.223 0.064 0 0.127-0.095 0.127-0.159 0.254-0.127 0.032 0 0.064-0.095l0.032-0.064q0.127-0.064 0.318-0.302t0.35-0.334q0.254-0.127 0.573-0.604l0.064-0.095q0.064-0.095 0.382-0.254 0.191-0.127 0.509-0.509l0.286-0.286q0.127-0.095 0.175-0.032t0.032 0.239-0.239 0.398l-0.064 0.064q-0.223 0.286-0.573 0.891-0.254 0.445-0.398 0.636t-0.334 0.573q-0.254 0.477-0.445 0.668-0.064 0.064-0.095 0.254-0.032 0.254-0.159 0.382l-0.064 0.064q-0.318 0.223-0.35 0.477-0.223 0.127-0.382 0.541-0.095 0.286-0.191 0.382t-0.223 0.35l-0.127 0.191-0.064 0.191q-0.127 0.286-0.254 0.414-0.191 0.286-0.143 0.557t0.302 0.461q0.35 0.254 1.018 0.795l0.795 0.604q0.318 0.223 0.795 0.732 0.318 0.318 0.509 0.477 0.064 0.064 0.064 0.127t-0.064 0.159q-0.032 0-0.095 0.064-0.318 0.254-0.859 0.859-0.477 0.509-0.732 0.732-0.223 0.159-0.223 0.382 0.032 0.127-0.127 0.223-0.064 0.095-0.095 0.127-0.382 0.318-0.986 1.113-0.477 0.604-0.732 0.859-0.095 0.095-0.159 0.334t-0.127 0.334q-0.095 0.286-0.382 0.223-0.032-0.032-0.095-0.064h-0.191zM22.393 23.823q0.032 0 0.064-0.032l-0.095-0.064-0.032 0.064q0.032 0.032 0.064 0.032zM0.127 21.915q0.159 0.159 0.588 0.143t0.588 0.111q0.095-0.032 0.27 0.048t0.27 0.064 0.35 0.016h0.159q0.254-0.032 0.732 0.095l0.159 0.032q0.064 0 0.143 0.080t0.143 0.080q0.223-0.032 0.668 0.064l0.254 0.064h0.127q0.064 0 0.223-0.064 0.318-0.127 0.477-0.032l0.159 0.159 0.382 0.286 0.35 0.286q0.318 0.286 0.509 0.429t0.668 0.366l0.318 0.127 0.286 0.223q0.064 0.032 0.080 0.111t-0.016 0.143q0 0.127-0.191 0.302t-0.223 0.334q0 0.064-0.191 0.032h-0.064l-0.159 0.032q-0.254 0-0.413 0.095t-0.382 0q-0.127-0.064-0.35-0.223l-0.032-0.032q-0.35-0.286-0.668-0.413-0.127-0.032-0.318-0.207t-0.35-0.175q-0.159-0.159-0.588-0.27t-0.588-0.302q-0.064-0.064-0.191-0.064h-0.064q-0.223 0.032-0.382-0.159-0.223-0.35-0.7-0.413-0.159-0.064-0.493-0.223t-0.541-0.223-0.588-0.254q-0.254-0.159-0.398-0.254t-0.143-0.254v-0.032q0-0.127 0.127-0.127zM24.429 24.778q-0.127-0.318 0-0.668 0.064-0.191 0.318-0.541l0.127-0.223q0.064-0.127 0.254-0.35 0.254-0.318 0.35-0.509 0.064-0.127 0.286-0.35t0.286-0.382q0.191-0.254 0.445 0l0.032 0.032q0.127 0.127 0.207 0.143t0.207-0.111q0.032-0.032 0.095 0h0.032q0.668 0.064 1.145-0.254h0.223q0.223 0.032 0.636-0.080t0.604-0.080q0.064 0 0.159-0.080t0.143-0.064 0.111-0.048 0.127-0.032q0.318 0.064 0.891-0.191l0.159-0.064q0.223-0.095 0.398-0.095t0.334 0.159q-0.095 0.064-0.302 0.175t-0.302 0.207l-0.127 0.064q-0.127-0.064-0.239-0.016t-0.27 0.175-0.286 0.127q-0.191 0-0.541 0.254l-0.127 0.095q-0.445 0.35-1.368 0.763l-0.445 0.191q-0.127 0.064-0.366 0.223t-0.366 0.207-0.366 0.175-0.366 0.191q-0.223 0.095-0.604 0.286l-0.286 0.159-0.095 0.064-0.064 0.064q-0.127 0.159-0.318 0.223-0.095 0.032-0.35 0.080t-0.382 0.080z"></path>
</svg>
