<!-- Generated by IcoMoon.io -->
<svg version="1.1" xmlns="http://www.w3.org/2000/svg" width="32" height="32" viewBox="0 0 32 32">
<title>weapons-mace</title>
<path fill="#fff" d="M12.867 11.29q0.192-0.192 0.609-0.321l0.257-0.096q0.289-0.064 0.353-0.305t-0.257-0.433l-0.417-0.289q-1.603-1.122-2.485-1.571t-1.427-0.93q0.096-0.224 0.385-0.16 1.315 0.128 3.88 0.064h1.475q0.449 0 0.545-0.481 0.224-0.673 0.353-1.571 0.064-0.513 0.192-1.571l0.032-0.385q0.128-0.705 0.321-2.18 0.064-0.192 0.256-0.577l0.128-0.192 0.096 0.16q0.385 0.737 0.449 1.122 0.192 0.898 0.898 2.276 0.192 0.385 0.513 1.090 0.128 0.224 0.256 0.273t0.353-0.080l0.032-0.032q0.064-0.032 0.064-0.064 0.353-0.353 1.186-0.962 0.609-0.481 0.93-0.737 0.481-0.449 0.834-0.898 0.192-0.289 0.705-0.737l0.128-0.128q1.058-0.994 1.603-1.475 0.16-0.16 0.256-0.064 0.064 0.032 0.064 0.224-0.16 0.289-0.353 0.898-0.256 0.77-0.481 1.090-0.834 1.411-1.347 3.11l-0.481 1.507q-0.289 0.898 0.641 0.898h2.918q0.256 0 0.737-0.128l0.417-0.096q0.417-0.032 0.657 0.064t0.497 0.385q-0.321 0.192-0.93 0.577-0.673 0.449-1.058 0.641-1.635 0.737-3.046 1.635-0.449 0.257-0.192 0.802l0.834 1.411q0.513 0.994 1.058 1.796 0.128 0.224 0.128 0.481 0 0.16-0.064 0.449t-0.064 0.401-0.112 0.128-0.24-0.048l-0.449-0.224q-0.673-0.289-0.93-0.545-0.513-0.481-1.699-1.186-0.705-0.417-1.058-0.673-0.128-0.128-0.289-0.128-0.289-0.096-0.433 0.016t-0.048 0.401q0.064 0.192 0.128 0.577l0.096 0.449q0.096 0.257-0.032 0.353l-0.096 0.096q-0.289 0.321-0.465 0.385t-0.273-0.128l-0.032-0.032q-0.192-0.353-0.866-0.834l-0.096-0.064q-0.289-0.16-0.465-0.128t-0.401 0.289q-0.545 0.737-1.507 2.276l-0.449 0.737q-0.128 0.16-0.096 0.417 0 0.16 0.096 0.481 0.128 0.481 0.048 0.609t-0.529 0.321l-0.417 0.192q-0.641 0.289-0.898 0.481-0.449 0.353-0.609 0.866-0.064 0.256-0.417 0.673l-0.096 0.096q-0.77 0.994-1.86 2.854-0.128 0.224-0.449 0.641-0.449 0.577-0.609 0.898-0.257 0.545-0.962 1.571-0.481 0.673-0.705 1.026-0.545 0.898-1.828 2.629l-0.064 0.128q-0.096 0.128-0.16 0.192t-0.176-0.016-0.080-0.16 0.16-0.208l0.096-0.128q0.256-0.385 0.737-1.122l0.449-0.641q0.064-0.064 0.064-0.096l0.032-0.096q0.064-0.128 0.080-0.224t-0.112-0.192-0.208-0.048-0.208 0.208l-0.032 0.032q-0.224 0.224-0.449 0.321-0.449 0.096-0.802 0.481-0.096 0.224-0.353 0.128-0.128-0.064-0.128-0.289v-0.064l0.449-1.539q0.128-0.289-0.032-0.385-0.256-0.096-0.417 0.192 0 0.064-0.096 0.16-0.128 0.192-0.321 0.144t-0.385 0.048q-0.128 0.032-0.321 0.16l-0.192 0.128q-0.224 0.16-0.353 0.032-0.096-0.064-0.080-0.16t0.112-0.192q0.256-0.289 0.641-0.962 0.289-0.545 0.449-0.77 0.321-0.417 0.673-0.673 0.289-0.192 0.705-0.866l0.16-0.256q0.417-0.705 1.411-2.084 0.737-1.058 1.090-1.603 0.898-1.411 1.379-2.020 0.609-0.866 0.096-1.763-0.096-0.192-0.048-0.305t0.208-0.273q0.224-0.192 0.77-0.192 0.802 0 1.411-0.705 0.962-1.282 1.507-2.373 0.128-0.257 0.321-0.866l0.032-0.096q0.032-0.224-0.128-0.385-0.481-0.577-1.058-0.802-0.032 0-0.128-0.064zM13.861 15.811q-0.417-0.064-0.545 0.257-0.032 0.096-0.16 0.16l-0.096 0.096q-0.257 0.256-0.289 0.385t0.16 0.449q0.032 0.096 0.192 0.289l0.128 0.128q0.16 0.192 0.417 0.256 0.16 0.032 0.449 0.064h0.224q0.16 0 0.224-0.16 0.064-0.096 0.128-0.385l0.064-0.192q0.16-0.289 0-0.673-0.128-0.641-0.898-0.673zM14.598 15.042q0-0.224-0.257-0.224-0.16 0-0.24 0.032t-0.048 0.192q0.032 0.257 0.321 0.224 0.096 0 0.16-0.064t0.064-0.16zM16.907 6.321q-0.032-0.128-0.064-0.16t-0.128 0q-0.289 0.064-0.289 0.353 0 0.192 0.224 0.192 0.256-0.096 0.256-0.385z"></path>
</svg>
