<!-- Generated by IcoMoon.io -->
<svg version="1.1" xmlns="http://www.w3.org/2000/svg" width="1024" height="1024" viewBox="0 0 1024 1024">
<title>weapon-hook</title>
<path fill="#fff" d="M511.109 3.909c-2.169 2.169-3.689 4.989-3.689 6.074s11.932 20.393 26.684 42.522c14.536 22.345 30.373 46.644 35.146 54.237 4.773 7.376 10.63 16.705 13.017 20.393s8.678 13.451 13.667 21.695c5.207 8.244 14.752 21.695 21.261 30.156 18.006 23.43 19.96 35.797 5.858 35.797-5.858 0-41.871 29.071-41.871 33.844 0 1.519 1.519 4.122 3.254 6.074 1.735 1.735 3.254 4.122 3.254 5.424 0 1.085-11.282 10.63-25.166 21.261-43.173 32.542-96.325 81.79-113.248 104.786-8.895 12.149-24.949 28.203-28.203 28.203-1.519 0-8.461-4.339-15.186-9.546s-17.79-11.715-24.299-14.752c-29.939-13.451-69.641-27.769-83.525-30.156-37.532-6.074-44.474-5.424-44.474 4.339 0 4.773 2.387 8.028 9.546 14.102 5.424 4.339 19.743 18.006 32.108 30.373 39.051 39.268 57.926 65.302 54.888 75.282-0.868 2.387-7.376 10.847-14.752 18.875-7.376 8.244-21.261 24.082-30.807 35.362-9.546 11.065-19.308 22.345-21.695 24.732s-8.895 9.763-14.319 16.488c-5.641 6.508-16.705 19.308-24.949 28.203-8.244 9.112-29.071 32.977-46.427 53.152s-41.437 47.078-53.587 59.878c-12.367 12.8-22.345 24.299-22.345 25.6s1.519 2.82 3.254 3.471c1.735 0.65 6.943 6.943 11.715 14.102 22.562 33.844 77.884 84.393 92.42 84.393 1.735 0 5.207-4.122 7.81-9.112 2.604-5.207 6.943-12.367 9.546-16.054 2.82-3.689 5.858-10.413 6.726-15.186 1.952-10.413 6.508-21.695 9.546-23.647 1.302-0.65 5.424-6.508 9.546-12.583 4.122-6.291 15.621-20.61 25.817-31.892s18.006-21.261 17.573-22.129c-0.65-1.085-3.037-1.735-5.424-1.735-6.074 0-5.207-2.169 6.943-15.186 5.858-6.508 13.234-15.621 16.054-19.96 3.037-4.339 11.065-13.667 17.79-20.61 6.943-6.943 17.139-17.573 22.562-23.43 5.207-6.074 24.082-24.949 41.655-42.088 34.277-33.41 33.627-32.977 42.305-21.261 10.847 14.319 18.223 15.621 28.638 4.773 4.122-4.122 8.461-7.593 9.763-7.593 3.689 0 11.932-9.546 11.932-13.451 0-1.952 2.82-5.641 6.291-8.028 5.858-4.339 21.912-31.892 21.912-37.966 0-1.519-2.82-5.424-6.508-8.895s-6.508-7.159-6.508-8.244c0-1.085 3.689-6.291 8.244-11.282 4.339-5.207 9.98-11.498 12.367-14.319 6.726-7.81 60.963-58.576 76.582-71.376l13.451-11.282 4.122 9.546c3.471 7.593 3.905 12.149 2.604 24.949-0.868 9.112-2.82 17.139-4.773 19.525-1.952 2.169-4.122 6.508-4.989 9.546-0.868 3.689-3.689 6.726-8.028 8.461-3.689 1.735-9.112 5.207-12.149 8.244-3.905 3.905-5.858 4.556-8.028 2.82s-4.339-1.085-8.678 3.037c-9.98 9.112-6.726 14.319 10.847 17.356 4.989 0.65 10.847 3.037 13.017 5.207 2.387 1.952 7.81 5.858 12.367 8.678 4.339 2.604 8.895 6.508 9.763 8.461 2.169 4.773 1.302 48.163-1.085 50.333-3.037 2.82-22.129 8.678-28.421 8.678-3.471 0-7.159 1.085-8.244 2.169-1.302 1.302-12.149 2.82-24.299 3.689-12.149 0.65-22.129 1.735-22.129 2.387 0 3.254 14.102 12.8 23.647 16.271 12.367 4.339 18.658 11.715 17.139 19.96-1.302 6.074 3.037 10.63 11.932 12.8 5.424 1.302 6.074 2.169 5.424 9.546-0.65 6.943-2.169 8.895-12.583 16.271-28.638 19.743-47.946 37.966-62.481 59.010-12.149 17.573-27.553 49.464-31.892 66.387-5.207 20.176-6.508 52.502-3.254 79.403 3.254 29.071 6.726 41.437 15.186 55.105 3.471 5.858 6.508 11.065 6.508 11.498 0 1.952 16.488 25.166 25.166 35.362 22.129 25.817 56.841 46.21 96.542 56.841 21.912 5.858 28.203 6.726 54.672 6.726 21.044 0 31.675-0.868 35.797-3.037 3.254-1.519 13.667-5.641 23.214-8.895 20.61-6.943 36.447-16.054 59.878-33.844 17.79-13.451 22.345-14.752 17.139-5.207-6.291 11.932 5.424 9.546 19.525-3.905 5.424-4.989 15.186-15.621 21.912-23.214 13.667-15.837 16.705-24.515 21.695-63.349 2.169-16.488 2.169-21.695 0-24.299-1.519-1.735-3.471-11.932-4.556-22.78-1.735-14.969-3.689-22.997-8.678-32.759-3.471-7.159-6.508-13.885-6.508-14.969 0-1.302-4.556-9.112-10.197-17.356-8.895-13.667-16.271-19.96-19.308-16.922-0.65 0.434 0 8.678 1.302 18.006 5.207 37.966 5.207 50.766 0.217 67.037-6.291 20.176-12.367 30.156-27.336 44.474-6.943 6.508-21.478 21.044-32.542 32.108-18.441 18.658-23.43 21.695-32.325 20.176-4.122-0.868-9.763 2.387-11.065 6.291-1.302 4.339-14.319 9.112-32.977 11.932-12.8 1.952-47.512-2.82-59.227-8.028-5.424-2.604-13.667-6.291-18.441-8.244-14.752-6.291-30.59-24.515-42.305-48.813-11.932-24.515-16.271-43.173-14.102-61.396 2.82-23.647 27.336-59.010 57.491-83.091 11.498-9.112 20.176-13.667 37.966-20.176 17.79-6.291 26.468-11.932 29.288-18.441 1.085-3.037 2.604-18.875 3.037-34.929s1.302-30.807 2.169-32.759c0.868-1.952 7.593-6.074 14.969-9.546 7.376-3.254 14.969-6.726 16.705-7.593s3.471-4.122 3.905-7.376c0.65-6.074-2.604-9.763-23.43-27.119-7.159-6.074-8.895-8.678-8.028-12.8 0.65-3.254-0.65-8.244-3.037-12.149-3.254-5.424-4.122-10.847-3.905-28.421 0-11.932 0.65-25.6 1.519-30.156 1.519-7.81 2.169-8.678 12.367-11.498 6.074-1.735 11.715-4.122 13.017-5.207 1.085-1.085 4.122-1.952 6.726-1.952 7.159 0 11.065-5.207 10.63-13.885-0.65-10.197-3.689-13.234-14.752-16.271-5.207-1.302-11.282-4.339-13.451-6.726s-5.424-4.339-7.376-4.339c-5.207-0.217-9.763-4.556-13.885-13.017-2.82-5.641-4.122-15.186-4.989-38.183l-1.085-30.807 6.726-7.593c4.339-4.989 6.508-9.763 6.508-14.319 0-12.583 11.282-10.63 27.553 4.773 3.905 3.689 7.593 6.291 8.244 5.641 0.434-0.434 8.028-7.81 16.705-16.054 8.678-8.461 19.96-18.875 25.166-23.43 11.715-10.197 18.006-26.684 13.451-35.146-1.519-2.82-2.169-6.508-1.519-8.028 0.434-1.519 18.223-11.498 39.051-21.912 20.827-10.63 41.22-22.129 45.125-25.6 6.291-5.641 7.159-7.593 7.376-18.006 0-9.763 0.868-12.367 5.424-16.054 4.989-3.905 5.207-5.424 4.556-21.044-0.217-10.197-2.169-20.393-4.556-26.034-2.169-5.207-4.773-13.017-5.641-17.356-1.735-9.763-9.763-19.525-20.393-24.949-6.943-3.471-8.244-5.424-9.328-13.234-0.65-4.989-2.604-10.63-4.556-12.367-4.989-4.989-17.573-0.434-37.749 13.667-9.112 6.508-20.61 13.885-25.383 16.488-10.63 5.858-45.559 31.458-62.048 45.776-6.726 5.641-13.667 10.413-15.186 10.413-1.735-0.217-11.282-9.112-21.478-19.96-31.892-34.277-52.502-53.803-71.593-68.122-32.977-24.515-36.231-26.901-37.749-26.901-0.868 0-4.773-2.387-8.461-5.207-3.905-2.82-11.065-7.376-16.054-10.197-4.773-2.82-16.705-9.763-26.468-15.621-9.546-5.641-18.223-10.197-19.308-10.197s-3.471 1.735-5.424 3.905z"></path>
</svg>
