<!-- Generated by IcoMoon.io -->
<svg version="1.1" xmlns="http://www.w3.org/2000/svg" width="32" height="32" viewBox="0 0 32 32">
<title>weapons-claws</title>
<path fill="#fff" d="M21.521 25.462h-0.53q-0.717-0.031-1.075 0t-0.701-0.125q-0.249-0.125-0.655-0.374l-0.187-0.125-0.468-0.343q-0.811-0.655-1.309-0.873-0.249-0.094-0.686-0.468l-0.312-0.249q-0.312-0.218-0.546-0.187t-0.358 0.281q-0.094 0.187-0.203 0.234t-0.296 0.047h-0.156q-0.499 0-0.717 0.094v0q-0.592 0.312-0.764 0.483t-0.421 0.795l-0.031 0.094q-0.062 0.094-0.062 0.156 0.062 0.312-0.062 0.623-0.062 0.218-0.249 0.561l-0.187 0.374q-0.031 0.094-0.156 0.249l-0.094 0.094q-0.125 0.156-0.281 0.171t-0.343-0.047l-0.842-0.374q-0.281-0.125-0.717-0.016t-0.561 0.358q-0.249 0.53-0.904 1.527l-0.405 0.655q-0.343 0.561-0.312 1.153 0.031 0.374-0.249 0.655-0.187 0.187-0.312 0.156-0.343-0.062-0.655 0.327t-0.592 0.078l-0.218-0.281q-0.312-0.343-0.436-0.561-0.062-0.094-0.249-0.218-0.904-0.468-2.276-0.312-0.218 0-0.623 0.343l-0.062 0.062q-0.156 0.156-0.561 0.405l-0.249 0.125q-0.125 0.062-0.234 0.047t-0.171-0.109-0.031-0.218q0.343-1.091 0.468-2.151 0.031-0.249 0.187-0.717l0.125-0.499q0.125-0.686 0.156-1.029 0-0.561-0.249-1.153l-0.062-0.187q-0.125-0.281-0.156-0.405-0.031-0.249 0.062-0.468t-0.062-0.468q-0.031-0.125 0.016-0.218t0.203-0.125 0.281 0q0.312 0.031 0.623-0.156 0.249-0.125 0.468-0.094t0.436-0.094q0.156-0.094 0.374-0.343l0.125-0.125q0.374-0.312 0.452-0.592t0.031-0.405l-0.14-0.374q-0.156-0.405-0.358-0.592t-0.125-0.39 0.452-0.203h0.094q0.218-0.031 0.281 0.031 0.125 0.125 0.249 0.109t0.312-0.109l0.062-0.031q0.904-0.312 1.247-1.029l0.062-0.094q0.187-0.374 0.249-0.561 0.094-0.343 0.062-0.623-0.031-0.405 0.062-1.216 0.062-0.592 0.062-0.904 0-1.153-0.436-2.556-0.405-1.247-1.559-2.525-0.312-0.343-0.436-1.060-0.031-0.281 0.218-0.53 0.094-0.094 0.281-0.031h0.031q1.216 0.343 2.276 0.062 0.156-0.031 0.499-0.031h0.374q0.748 0 1.278-0.53 0.249-0.281 0.062-0.546t-0.468-0.171l-0.156 0.062q-0.187 0.031-0.249 0.094-0.281 0.156-0.873 0.249-0.374 0.031-0.592 0.094t-0.343-0.031q-0.187-0.156-0.405-0.094t-0.436 0q-0.125-0.031-0.39-0.14t-0.39-0.14q-0.249-0.094-0.249-0.561-0.031-0.249 0.156-0.748 0.156-0.374 0.171-0.608t0.296-0.733q0.156-0.312 0.218-0.468 0.125-0.343 0.53-0.904 0.281-0.374 0.405-0.561 0.156-0.281 0.499-0.53 0.187-0.156 0.623-0.436l0.312-0.187q0.935-0.592 2.245-0.779 0.156-0.031 0.436-0.125l0.156-0.062q0.249-0.156 0.811-0.296t0.811-0.265q0.062-0.031 0.249 0h2.4q0.094 0 0.281 0.062l0.218 0.031q0.592 0.156 1.091 0.187 0.935 0.094 1.808 0.623 0.125 0.062 0.094 0.249v0.062q0 0.187-0.187 0.187-0.094 0-0.265 0.078t-0.265 0.047q-0.249-0.031-0.748 0.094l-0.374 0.094q-0.842 0.125-1.247 0.312l-0.281 0.125q-0.499 0.187-0.717 0.281-1.091 0.374-2.276 1.153-0.218 0.156-0.53 0.483t-0.499 0.452q-0.249 0.156-0.405 0.468-0.281 0.499-0.281 1.060v0.218q0.031 0.405-0.062 0.608t0.125 0.483 0.483 0.312 0.452 0.187q0.125 0.125 0.312 0.374 0.374 0.561 0.499 1.122 0.094 0.312 0.078 0.546t-0.171 0.483l-0.281 0.468q-0.281 0.561-0.468 0.811-0.343 0.436-0.125 1.122l0.218 0.717q0.031 0.436 0.592 0.343 0.249-0.062 0.592-0.343l0.249-0.187q0.53-0.405 0.904-1.091 0.281-0.468 0.561-1.309 0.094-0.405 0-0.748-0.094-0.218-0.016-0.358t0.265-0.296q0.436-0.312 0.717 0 0.062 0.062 0.187 0.094t0.156 0.062q0.218 0.125 0.296-0.094t0.265-0.312q0.436-0.187 0.436-0.779v-0.312q0-0.436-0.094-0.639t-0.062-0.639l0.031-0.281q0-0.156 0.156-0.249 0.686-0.686 0.904-1.122 0.094-0.156 0.249-0.249 0.094-0.094 0.187-0.031l0.031 0.031q0.094 0.094 0.187 0.312l0.094 0.187q0.187 0.405 0.468 1.216l0.125 0.312q0.062 0.218 0.156 0.281 0.249 0.094 0.561 0.436 0.187 0.187 0.281 0.249 0.53 0.405 0.873 0.561 0.53 0.249 1.029 0.218h0.094q0.374-0.062 0.53 0.062 0.031 0.031 0.187 0.047t0.218 0.109-0.016 0.218-0.047 0.187 0.047 0.218 0.078 0.249q0.717 0.842 0.156 1.902-0.281 0.53-0.686 0.966l-0.156 0.156q-0.312 0.374-0.499 0.53-0.281 0.249-0.592 0.374l-0.281 0.125q-0.281 0.156-0.468 0.187-0.312 0.062-0.452 0.265t-0.234 0.514q-0.125 0.748-0.405 1.278-0.343 0.592-0.935 0.935-0.249 0.156-0.218 0.436t0.312 0.436q0.156 0.094 0.218 0.094 0.218 0 0.655 0.031 0.686 0.031 0.998-0.062t0.421-0.016 0.14 0.327v0.312q0 0.249 0.249 0.312 0.655 0.156 1.029 0.125 0.53 0 0.935-0.343l0.156-0.094q0.436-0.249 0.623-0.436 0.125-0.125 0.296-0.109t0.234 0.14l0.031 0.062q0.156 0.249 0.156 0.405v0.156q0.031 0.187 0 0.281-0.062 0.374 0.094 0.748 0.094 0.218 0.374 0.592l0.281 0.374q0.281 0.343 0.436 0.561 0.405 0.623 0.935 0.748 0.156 0 0.234 0.094t0.156 0.249 0.125 0.203 0.047 0.094-0.031 0.047q-0.094 0.094-0.218 0.343-0.281 0.499-0.514 0.608t-0.577 0.421q-0.405 0.343-0.686 0.436l-0.343 0.125q-0.717 0.312-1.153 0.312-0.343-0.031-0.998-0.031zM10.797 25.961q0.031 0 0.062 0.016t0.062-0.016q0.343-0.187 0.499-0.748l-0.031-0.094q-0.062-0.062-0.156-0.031-0.281 0.249-0.53 0.53-0.125 0.125-0.078 0.234t0.171 0.109zM4.406 20.63q0-0.125-0.125-0.125t-0.187 0.078-0.078 0.187 0.171 0.109h0.031q0.187 0 0.187-0.249zM15.847 10.592q-0.094-0.125-0.281-0.062-0.094 0.062-0.031 0.094l0.062 0.062q0.062 0.094 0.125 0 0.094 0 0.125-0.094zM16.626 17.669q-0.062-0.125-0.156-0.125t-0.094 0.094 0.047 0.125 0.109 0q0.156 0 0.094-0.094zM31.247 14.115q-0.343-0.374-0.405-1.216l-0.031-0.156q-0.062-0.592-0.156-0.873-0.125-0.499-0.405-0.842-0.062-0.062-0.109-0.218t-0.078-0.218q-0.468-0.779-1.59-1.247-0.998-0.499-1.527-0.655l-0.405-0.125q-0.468-0.156-0.717-0.187-0.374-0.031-1.122 0h-0.592q-0.125 0-0.312 0.094l-0.094 0.031q-0.592 0.249-1.122 0.094-0.156-0.062-0.468-0.062-0.436-0.031-0.623-0.156-0.094-0.062-0.187 0-0.561 0.031-1.029-0.343-1.060-0.717-1.465-1.902-0.062-0.125-0.125-0.436-0.125-0.53-0.312-0.748-0.031-0.094 0-0.156 0.156-0.405 0.577-0.592t1.263-0.468l0.405-0.156q0.312-0.125 0.966-0.249l0.281-0.062q0.312-0.031 0.951-0.047t0.951-0.078 0.686-0.031q0.249 0.031 0.686 0.156l0.436 0.094q0.592 0.125 1.621 0.655 0.561 0.312 0.842 0.436l0.156 0.094q1.309 1.216 2.12 2.338l0.094 0.125q0.468 0.779 0.623 1.153 0.062 0.094 0.078 0.343t0.047 0.343q0.218 0.623 0.218 1.59l-0.031 0.468q-0.031 0.779 0.047 1.122t0.078 0.998q0 0.499 0.031 0.717-0.031 0.218-0.249 0.374zM26.882 17.544h0.904q0.218 0.094 0.701 0.249t0.701 0.249q0.405 0.187 0.655 0.468l0.187 0.187q1.029 1.091 1.434 1.746 0.499 0.779 0.53 1.621 0.031 0.436-0.156 1.34-0.094 0.623-0.125 0.935 0 0.156-0.218 0.374l-0.031 0.062q-0.156 0.374-0.125 0.592 0.031 0.436-0.281 0.873-0.405 0.623-0.655 1.185-0.094 0.187-0.374 0.499l-0.343 0.405q-0.312 0.374-0.499 0.499t-0.561 0.405l-0.156 0.094q-0.53 0.343-0.966 0.686-0.156 0.094-0.281-0.031l-0.031-0.031q-0.094-0.125 0-0.249 0.249-0.312 0.655-0.998l0.405-0.655q0.249-0.405 0.592-1.372 0.218-0.592 0.343-0.904v-0.374q0-0.717-0.031-1.091-0.031-0.623-0.218-1.091l-0.031-0.062q-0.031-0.094-0.094-0.156l-0.281-0.187q-0.312-0.218-0.468-0.281-0.312-0.156-0.592-0.094-0.779 0.031-1.34-0.623-0.717-0.873-1.278-1.933-0.343-0.623-0.281-1.465 0-0.436 0.499-0.592 1.029-0.405 1.808-0.281z"></path>
</svg>
