<!-- Generated by IcoMoon.io -->
<svg version="1.1" xmlns="http://www.w3.org/2000/svg" width="32" height="32" viewBox="0 0 32 32">
<title>weapons-hammer</title>
<path fill="#fff" d="M4.133 31.784c-0.366-0.073-0.658-0.329-0.658-0.512s-0.11-0.293-0.293-0.219c-0.146 0.037-0.695-0.329-1.17-0.805-0.512-0.475-0.658-0.731-0.366-0.585 0.329 0.183 0.439 0.183 0.256-0.037-0.183-0.183-0.695-0.329-1.097-0.329-0.475 0-0.805-0.219-0.805-0.549 0-0.293 0.256-0.512 0.549-0.475 0.329 0.037 1.353-1.134 2.56-2.999 1.097-1.719 2.121-3.108 2.304-3.108 0.146 0 0.256-0.183 0.256-0.402s0.731-1.061 1.609-1.865c1.536-1.353 6.436-8.228 6.436-9.069 0-0.183 0.146-0.366 0.366-0.366 0.183 0 0.439-0.402 0.585-0.914 0.11-0.512 0.366-0.805 0.549-0.695s0.329-0.073 0.329-0.366c0-0.768 0.402-0.731 1.792 0.073 0.622 0.329 1.134 0.914 1.134 1.243 0 0.512-1.828 3.511-3.182 5.23-0.768 0.951-3.767 5.997-3.767 6.327 0 0.183-0.219 0.549-0.512 0.768-0.256 0.219-0.585 0.878-0.695 1.463-0.146 0.585-0.695 1.609-1.243 2.304-1.499 1.792-2.633 3.73-3.182 5.522-0.183 0.622-0.549 0.695-1.755 0.366z"></path>
<path fill="#fff" d="M22.747 15.51c-2.011-1.499-2.487-2.194-1.719-2.67 0.219-0.11 0.366-0.695 0.366-1.317 0-0.841-0.329-1.28-1.536-2.194-3.035-2.158-3.547-2.633-3.364-2.926 0.11-0.183-0.073-0.329-0.402-0.329-0.293 0-0.658-0.256-0.805-0.585-0.146-0.439-0.293-0.475-0.475-0.11-0.183 0.219-0.549 0.329-0.914 0.219-0.329-0.146-0.475-0.402-0.366-0.622 0.11-0.183 0.037-0.366-0.219-0.366s-1.317-0.658-2.377-1.499c-1.865-1.426-1.902-1.536-1.317-2.158 0.439-0.475 1.207-0.695 2.633-0.731 4.096-0.11 5.522 0 5.266 0.402-0.11 0.219 0.146 0.768 0.658 1.207 0.475 0.402 0.622 0.622 0.293 0.402-0.475-0.329-0.475-0.293-0.037 0.256 0.622 0.805 1.134 0.512 1.134-0.622 0-0.475 0.256-1.134 0.585-1.463 0.549-0.512 0.658-0.512 1.39 0 0.402 0.293 1.353 0.951 2.121 1.463 1.902 1.243 2.011 1.609 0.805 2.596-1.134 0.914-1.938 1.17-1.317 0.439 0.293-0.366 0.11-0.512-0.768-0.549l-1.17-0.073 0.914 0.695c1.28 0.987 2.926 1.097 3.913 0.256 0.951-0.841 1.719-0.622 3.328 0.805 0.622 0.622 1.17 1.024 1.17 0.914s0.329 0 0.731 0.219c0.402 0.219 0.731 0.658 0.731 0.951 0 0.731-5.412 8.119-6.253 8.594-0.841 0.439-0.622 0.512-2.999-1.207zM19.748 8.27c-0.11-0.183-0.512-0.366-0.841-0.329-0.512 0-0.475 0.073 0.11 0.329 0.987 0.402 0.987 0.402 0.731 0zM21.028 3.515c0-0.183-0.293-0.366-0.622-0.366-0.549 0-0.585 0.073-0.11 0.366 0.695 0.439 0.731 0.439 0.731 0z"></path>
</svg>
