<!-- Generated by IcoMoon.io -->
<svg version="1.1" xmlns="http://www.w3.org/2000/svg" width="32" height="32" viewBox="0 0 32 32">
<title>weapons-unarmed</title>
<path fill="#fff" d="M2.83 19.324q-0.028-0.11-0.221-0.083l-0.028 0.028 0.028 0.055h0.028q0.11 0.028 0.193 0zM23.766 14.11q0-0.221-0.276-0.331-0.138 0-0.193 0.055 0 0.11 0.097 0.262t0.207 0.207q0.166 0 0.166-0.193zM20.842 18.607q0-0.083-0.11-0.193-0.138 0-0.193 0.166 0.083 0.138 0.248 0.138 0.055-0.028 0.055-0.11zM13.146 17.338q0.138 0.138 0.248 0.138l0.055-0.055q-0.083-0.331-0.441-0.497-0.028 0.028-0.041 0.124t0.097 0.207zM4.126 10.607q0.717 0.359 1.683 0.634 0.552 0.193 1.683 0.469 0.965 0.248 1.434 0.386 0.165 0.055 0.303-0.055h0.303q-0.055-0.221-0.248-0.331-0.11-0.083-0.359-0.165-0.359-0.11-0.496-0.248-0.634-0.221-1.324-0.634-0.414-0.221-1.186-0.772l-0.276-0.193q-0.359-0.221-1.131-0.607-0.276-0.11-0.51-0.014t-0.372 0.372q-0.193 0.414-0.055 0.662 0.11 0.331 0.552 0.496zM19.463 3.436q0.055 0.166 0.166 0.552l0.028 0.193q0 0.138 0.083 0.303l0.055 0.414q0.083 0.552 0.11 0.827v0.11q0.055 0.855-0.11 1.627l-0.028 0.055q-0.028 0.138-0.083 0.193 0.028 0.055 0 0.165l-0.055 0.248q-0.083 0.193-0.083 0.441v0.165l0.028 0.165q0.055 0.11 0.138 0.11h0.028l0.055 0.11v-0.138l0.083-0.083q0.028-0.11 0.028-0.331v-0.414l0.11-0.552q0.028-0.055 0.138-0.165 0.028-0.028 0-0.083v-0.028q0-0.441 0.221-1.269 0.11-0.441 0.138-0.662l0.083-0.331q0.11-0.469 0.083-0.69l-0.028-0.221q0.055-0.138 0.083-0.331v-0.193l0.055-0.11q0.083-0.193 0.055-0.414-0.028-0.138-0.138-0.386 0-0.028-0.083-0.11t-0.083-0.138v-0.083q-0.028-0.11-0.055-0.152t-0.138-0.041q-0.221 0-0.317 0.069t-0.207 0.207l-0.055 0.055-0.11 0.221-0.11 0.166q-0.193 0.138-0.055 0.414-0.055 0.055-0.028 0.11zM16.125 19.544q0.138 0.414 0.579 0.731t0.855 0.29q0.055 0 0.138-0.055l0.055-0.028q0.138-0.055 0.207-0.166t0.041-0.193-0.11-0.193l-0.055-0.055q-0.386-0.497-1.324-0.8-0.11-0.055-0.276 0.055l-0.083 0.055q-0.055 0.028-0.055 0.152t0.028 0.207zM22.607 17.779q0.138-0.083 0.276-0.276l0.221-0.441q0.055-0.055 0.138-0.221l0.083-0.138q0.138-0.221 0.414-0.717 0.331-0.469 0.469-0.883t0.11-0.662q0.028-0.414-0.166-0.676t-0.69-0.4l-0.083-0.028q-0.193-0.028-0.276-0.083-0.166-0.055-0.234-0.207t-0.372-0.29l-0.166-0.083q-0.359-0.221-0.717-0.538t-0.745-1.090q-0.193-0.496-0.607-0.717-0.386-0.193-0.883-0.165-0.883 0-1.71 0.552-0.055 0.028-0.11 0.083l-0.331 0.11-0.193 0.028q-0.331 0.083-0.497 0.165h-0.083q-0.331-0.055-0.69 0.028-0.248 0.055-0.69 0.193l-0.276 0.083q-1.021 0.276-2.069 0.855-0.138 0.083-0.414 0.152t-0.414 0.152l-0.579 0.359q-1.214 0.8-1.876 1.103l-0.276 0.11q-0.248 0.11-0.331 0.165l-2.069 1.214q-1.296 0.745-1.903 1.186-0.165 0.11-0.469 0.303-0.497 0.276-0.717 0.469-0.469 0.386-1.241 0.883-0.221 0.166-0.579 0.524-0.248 0.248-0.386 0.359-0.055 0.055-0.069 0.152t0.041 0.152l0.028 0.028q0.055 0.055 0.083 0.097t0.193 0.124l0.083 0.028q0.248 0.138 0.441 0.083t0.414-0.248q0.193-0.055 0.303-0.166 0-0.028 0.055-0.083h0.414q0.166 0 0.276 0.041t0.179 0.179 0.041 0.248l-0.221 0.276q-0.386 0.497-0.634 0.69-0.11 0.138-0.359 0.359l-0.193 0.193q-0.166 0.138-0.359 0.359l-0.083 0.083q-0.303 0.248-0.303 0.524v0.11l-0.359 1.159q-0.221 0.497-0.248 0.8 0 0.055-0.028 0.055l-0.165 0.331q-0.193 0.359-0.165 0.524-0.276 0.828-0.469 1.214l-0.276 0.717q-0.083 0.221-0.097 0.455t0.069 0.262v0.028h0.055q0.386-0.11 0.496-0.607 0.055-0.303 0.152-0.483t0.317-0.483l0.276-0.441q0.083-0.11 0.262-0.303t0.262-0.303q0.276-0.248 0.938-0.634 0.221-0.083 0.386-0.221l0.055-0.055q0.883-0.579 2.51-1.103 0.662-0.221 0.869 0.497t0.207 1.572v0.138q-0.028 0.166-0.014 0.262t0.124 0.152h0.028l0.138 0.055q0.138 0 0.193-0.028 0.11-0.028 0.193-0.193l0.028-0.055q0.11-0.221 0.138-0.331l0.028-0.138q0.165-0.469 0.248-0.69l0.359-0.607 0.496-0.828q0.11-0.166 0.317-0.497t0.317-0.469l0.083-0.221q0.524-0.772 0.965-1.241 0.221-0.221 0.607-0.717l0.276-0.248q0.248-0.221 0.359-0.359l0.055-0.028q0.193-0.11 0.276-0.331l0.11-0.303q0.055-0.083 0.055-0.166t-0.055-0.221q-0.138-0.303-0.331-0.883l-0.248-0.662q-0.028-0.11-0.028-0.166l0.083-0.138q0.138-0.083 0.262-0.028t0.179 0.166q0.11 0.221 0.414 0.607 0.414 0.497 0.496 0.828 0.11 0.441 0.372 0.607t0.731 0.11q0.524-0.055 0.938-0.248l0.221-0.138q0.248-0.166 0.386-0.221 0.193-0.083 0.359 0.028 0.276 0.193 0.896 0.441t0.896 0.414q0.441 0.276 0.717 0.662 0.359 0.497 0.717 0.51t0.91-0.372l0.055-0.055q0.221-0.166 0.331-0.276l0.11-0.083q0.303-0.303 0.441-0.497 0.138-0.138 0.166-0.248 0.11-0.221 0.083-0.303t-0.221-0.303q-0.028-0.028-0.083-0.11l-0.055-0.083q-0.441-0.579-0.965-1.131-0.166-0.193-0.662-0.497-0.276-0.166-0.386-0.248-0.248-0.165-0.276-0.303t0.166-0.386q0.083-0.083 0.166-0.276t0.138-0.276q0.166-0.303 0.028-0.469-0.166-0.221-0.193-0.496-0.028-0.193-0.028-0.552v-0.165q0-0.386 0.083-0.496 0.193-0.193 0.662-0.303l0.028 0.331q0.055 0.579 0 0.883l-0.028 0.083q-0.138 0.221-0.055 0.469 0 0.579 0.331 0.828 0.193 0.248 0.469 0.248 0.221 0.055 0.359 0.055h0.717q0.276 0 0.331 0.11t-0.055 0.303l-0.303 0.303q-0.11 0.11-0.166 0.4t0.055 0.4v0q0.028 0.193 0.152 0.372t0.372 0.428q0.248 0.193 0.372 0.234t0.179 0.041 0.138-0.055zM23.297 13.835q0.028-0.055 0.193-0.055 0.276 0.083 0.276 0.303t-0.166 0.221q-0.11-0.055-0.207-0.207t-0.097-0.262zM13.422 17.393q0 0.055-0.083 0.055t-0.221-0.138l-0.055-0.055q-0.165-0.138-0.138-0.248l0.028-0.11q0.441 0.166 0.469 0.497zM2.581 19.269l0.028-0.028q0.138-0.028 0.221 0.083-0.028 0.028-0.11 0h-0.11zM20.566 18.551q0-0.138 0.193-0.166l0.028 0.055q0.055 0.083 0.055 0.152t-0.055 0.097-0.124-0.014-0.097-0.124zM17.449 22.165q-0.276-0.166-0.69-0.607-0.497-0.524-0.828-0.662-0.248-0.083-0.193-0.276 0-0.028 0.028-0.055 0.055-0.083 0.11-0.221l0.028-0.055q0.083-0.083 0.083-0.221l-0.69-0.828q-0.138-0.193-0.359-0.11-0.083 0.055-0.083 0.221v0.055q-0.055 0.11 0.083 0.386l0.083 0.193q0.083 0.303 0 0.414-0.028 0.083-0.11 0.083t-0.248-0.11q-0.579-0.248-1.49-0.055-0.303 0.055-0.91 0.331-0.441 0.193-0.69 0.276-0.028 0-0.055 0.083l-0.11 0.138 0.165-0.028 0.028 0.028q0.083 0.055 0.138 0.055h0.11q0.193 0 0.276-0.028 0.634-0.276 1.352-0.138 0.552 0.11 1.296 0.497l0.138 0.083q0.772 0.414 1.103 0.69 0.11 0.11 0.359 0.303l0.166 0.138q0.469 0.469 0.607 0.772 0.441 0.772 0.359 1.71l-0.166 0.772q-0.138 0.441-0.386 0.965l-0.083 0.138q-0.662 0.965-1.131 1.379-0.028 0-0.055 0.041t0 0.097l0.055 0.028q0.138 0 0.221-0.055t0.193-0.11q0.717-0.386 1.214-0.993l0.166-0.166 0.166-0.193q0.193-0.193 0.276-0.414l0.028-0.11q0.11-0.221 0.193-0.469l0.11-0.221q0.083-0.166 0.083-0.276v-0.414q0.028-0.579 0-0.883-0.055-0.469-0.248-0.814t-0.524-1.034zM9.422 9.118q0.11 0.938 1.131 1.269 0.193 0.083 0.579 0.165l0.11 0.028 0.552 0.083q1.021 0.165 2.014 0 0.165 0 0.552-0.11 1.048-0.359 1.876-1.076 0.083-0.055 0.193-0.193l0.248-0.248q0.221-0.193 0.317-0.303t0.097-0.248v-0.138l0.055-0.11q0.055-0.11 0.11-0.331v-0.028h0.028q0.166-0.359 0.221-0.883 0.028-0.331-0.055-0.717-0.028-0.248-0.166-0.69l-0.11-0.441-0.028-0.165q0-0.193-0.055-0.276-0.303-0.552-0.91-1.076-0.11-0.055-0.166 0.028-0.028 0.028-0.028 0.083t0.083 0.138q0 0.055 0.028 0.138l0.028 0.028q0.441 0.524 0.524 1.462-0.028 0.165 0 0.248 0 0.028 0.028 0.055 0.055 1.214-0.497 2.234-0.414 0.524-0.69 0.8-0.441 0.414-0.938 0.634-1.352 0.579-2.4 0.552h-0.634q-0.331 0.028-0.883-0.165l-0.193-0.055q-0.276-0.11-0.428-0.276t-0.179-0.441q-0.028-0.11-0.179-0.234t-0.179-0.014l-0.055 0.028q-0.083 0.083-0.028 0.138 0 0.055 0.028 0.11zM23.628 12.042q0.055 0.028 0.193 0.138 0.221 0.138 0.331 0.193 0.193 0.083 0.386 0.055 0.386 0.165 0.828 0.248 0.745 0.138 1.448-0.041t1.255-0.703l0.055-0.055q0.138-0.138 0.166-0.221t0.028-0.276v-0.165q-0.166 0.083-0.441 0.234t-0.414 0.207l-0.11 0.055q-0.138 0.083-0.221 0.055-0.248-0.028-0.786 0t-0.814 0q-0.441-0.055-0.8-0.221l-0.193-0.11q-0.414-0.221-0.607-0.359-0.276-0.248-0.386-0.579l-0.055-0.165q-0.221-0.579-0.303-0.855-0.303-1.269-0.083-2.124 0.055-0.165 0.221-0.552 0.138-0.138 0.207-0.345t0.124-0.29l0.552-0.91 0.083-0.083q0.221-0.138 0.083-0.414-0.11 0.055-0.303 0.165-0.303 0.138-0.414 0.248l-0.414 0.524q-0.359 0.441-0.524 0.69l-0.055 0.083q-0.193 0.276-0.248 0.414-0.11 0.248-0.11 0.441v0.11q-0.055 0.221-0.055 0.331-0.138 1.048 0.083 1.958t0.745 1.6q0.166 0.331 0.552 0.717zM27.6 17.614q-0.138 0-0.441-0.028-0.607-0.055-0.883 0.028l-0.497 0.166q-0.717 0.248-1.048 0.414-0.497 0.276-0.662 0.579l-0.11 0.193q-0.303 0.303-0.69 0.965l-0.083 0.11q-0.248 0.469-0.359 0.745-0.166 0.414-0.166 0.8-0.138 0.772-0.11 1.434 0 0.497 0.138 0.993 0.028 0.138 0.152 0.455t0.29 0.565q0.386 0.552 1.076 1.131l0.11 0.083q0.193 0.166 0.303 0.083 0.138 0 0.179-0.083t-0.041-0.193q-0.028-0.028-0.055-0.11t-0.055-0.11q-0.248-0.083-0.414-0.303-0.11-0.138-0.276-0.441l-0.193-0.331q-0.248-0.386-0.303-0.662-0.11-0.386 0.083-0.772 0.028-0.083 0-0.248v-0.552q0-0.221 0.055-0.662 0.055-0.221 0.193-0.634 0.221-0.634 0.276-0.965 0.028-0.138 0.193-0.414 0.083-0.083 0.193-0.248l0.11-0.138q0.083-0.138 0.303-0.303l0.028-0.028q0.276-0.248 0.828-0.634h0.028v-0.028q0.11-0.055 0.276-0.166l0.221-0.138q0.414-0.193 0.883-0.359 0.221 0 0.359 0.028 0.083 0 0.138-0.041t0.083-0.11-0.11-0.069zM31.986 14.414q-0.028-0.193-0.166-0.331t-0.303-0.138h-0.11q-0.441 0-0.69 0.124t-0.772 0.152q-0.441 0.028-0.662 0.11h-0.166q-0.083 0-0.11-0.028-0.248-0.165-0.579-0.11-0.193 0-0.579 0.138l-0.221 0.055q-0.193 0.083-0.303 0.055-0.248-0.028-0.497 0.028-0.166 0.028-0.552 0.165v0q0.028 0.055 0.11 0.11l0.055 0.055v0.028l0.469 0.11q1.6 0.303 2.4 0.496h0.083q0.055 0.028 0.166 0.028l1.131 0.221q0.552 0.083 1.048-0.579 0.193-0.11 0.248-0.303 0.028-0.11 0-0.386v0zM21.173 27.958q-0.055-0.055 0-0.303 0.055-0.8-0.303-1.324-0.083-0.138-0.083-0.331 0-0.276-0.11-0.414t-0.138-0.359q-0.028-0.11-0.028-0.359v-0.221q0.028-0.276 0-0.414-0.083-0.662-0.414-1.241l-0.055 0.055v0.055l-0.028 0.248q-0.055 0.138-0.028 0.193 0.055 0.883 0.055 1.296l-0.028 1.186q-0.028 0.11-0.028 0.303v0.11l-0.055 0.607v0.138q-0.055 1.021 0.248 1.683 0.028 0.083 0.083 0.317t0.083 0.345q0.083 0.166 0.193 0.193l0.028 0.028q0.083 0.055 0.152 0.055t0.097-0.11v-0.055q0.138-0.11 0.303-0.579 0.138-0.276 0.166-0.538t-0.11-0.565zM24.648 4.677q0-0.028-0.014-0.014l-0.041 0.041h0.028v0.028z"></path>
</svg>
