<?xml version="1.0" encoding="UTF-8" standalone="no"?>
<svg
   version="1.1"
   viewBox="0 0 256 256"
   id="svg19"
   sodipodi:docname="aos_stats_4.svg"
   inkscape:version="1.4.2 (ebf0e940d0, 2025-05-08)"
   xmlns:inkscape="http://www.inkscape.org/namespaces/inkscape"
   xmlns:sodipodi="http://sodipodi.sourceforge.net/DTD/sodipodi-0.dtd"
   xmlns:xlink="http://www.w3.org/1999/xlink"
   xmlns="http://www.w3.org/2000/svg"
   xmlns:svg="http://www.w3.org/2000/svg"
   xmlns:rdf="http://www.w3.org/1999/02/22-rdf-syntax-ns#"
   xmlns:cc="http://creativecommons.org/ns#"
   xmlns:dc="http://purl.org/dc/elements/1.1/">
  <defs
     id="defs19" />
  <sodipodi:namedview
     id="namedview19"
     pagecolor="#ffffff"
     bordercolor="#000000"
     borderopacity="0.25"
     inkscape:showpageshadow="2"
     inkscape:pageopacity="0.0"
     inkscape:pagecheckerboard="0"
     inkscape:deskcolor="#d1d1d1"
     inkscape:zoom="4.2929688"
     inkscape:cx="128"
     inkscape:cy="90.729754"
     inkscape:window-width="1623"
     inkscape:window-height="1080"
     inkscape:window-x="215"
     inkscape:window-y="467"
     inkscape:window-maximized="0"
     inkscape:current-layer="g19" />
  <metadata
     id="metadata1">
    <rdf:RDF>
      <cc:Work
         rdf:about="">
        <dc:format>image/svg+xml</dc:format>
        <dc:type
           rdf:resource="http://purl.org/dc/dcmitype/StillImage" />
        <dc:title />
      </cc:Work>
    </rdf:RDF>
  </metadata>
  <g
     id="g19">
    <circle
       cx="128.5"
       cy="129"
       r="116"
       fill="#f9f9f9"
       stroke="#d1c89a"
       stroke-width="10"
       id="circle1" />
    <path
       d="m124.73 11h11.547l-5.7735-10z"
       fill="#d1c89a"
       id="path1" />
    <path
       d="m124.7 246h11.547l-5.7735 10z"
       fill="#d1c89a"
       id="path2" />
    <path
       d="m246.58 125.73v7l10-3.5z"
       fill="#d1c89a"
       id="path3" />
    <path
       d="m10 125.62v7l-10-3.5z"
       fill="#d1c89a"
       id="path4" />
    <path
       d="m131.59 124.24-7.0711 7.0711 88.388 81.317z"
       fill="#d1c89a"
       id="path5" />
    <path
       d="m124.47 131.7 7.0711-7.0711-88.388-81.317z"
       fill="#d1c89a"
       id="path6" />
    <path
       d="m130.13 132.94-7.0711-7.0711-81.317 88.388z"
       fill="#d1c89a"
       id="path7" />
    <path
       d="m124.3 124.91 7.0711 7.0711 81.317-88.388z"
       fill="#d1c89a"
       id="path8" />
    <path
       d="m234.1 184.54-3.5 6.0622 10.41 1.9689z"
       fill="#d1c89a"
       id="path9" />
    <path
       d="m192.13 228.79-6.0622 3.5 8.0311 6.9103z"
       fill="#d1c89a"
       id="path10" />
    <path
       d="m22.556 76.585 3.5-6.0622-10.41-1.9689z"
       fill="#d1c89a"
       id="path11" />
    <path
       d="m67.268 28.747 6.0622-3.5-8.0311-6.9103z"
       fill="#d1c89a"
       id="path12" />
    <path
       d="m229.23 67.141 3.5 6.0622 6.9103-8.0311z"
       fill="#d1c89a"
       id="path13" />
    <path
       d="m67.375 228.79 6.0622 3.5-8.0311 6.9103z"
       fill="#d1c89a"
       id="path14" />
    <path
       d="m24.84 184.82 3.5 6.0622-10.41 1.9689z"
       fill="#d1c89a"
       id="path15" />
    <path
       d="m190.66 29.28-6.0622-3.5 8.0311-6.9103z"
       fill="#d1c89a"
       id="path16" />
    <path
       id="d"
       d="m98.412 38.687a93.587 93.587 0 0 1 117.46 60.997 93.587 93.587 0 0 1-60.997 117.46 93.587 93.587 0 0 1-117.46-60.997 93.587 93.587 0 0 1 60.997-117.46z"
       fill="none" />
    <text
       fill="#000000"
       font-family="sans-serif"
       font-size="18.667px"
       letter-spacing="0px"
       stroke-width="1px"
       word-spacing="0px"
       style="font-feature-settings:normal;font-variant-caps:normal;font-variant-ligatures:normal;font-variant-numeric:normal;line-height:125%"
       xml:space="preserve"
       id="text16"><textPath
         xlink:href="#d"
         id="textPath16"><tspan
           id="tspan16">MOVE</tspan></textPath></text>
    <text
       fill="#000000"
       font-family="sans-serif"
       font-size="18.667px"
       letter-spacing="0px"
       stroke-width="1px"
       word-spacing="0px"
       style="line-height:125%;font-variant-ligatures:normal;font-variant-caps:normal;font-variant-numeric:normal;font-feature-settings:normal"
       xml:space="preserve"
       id="text17"><textPath
         xlink:href="#a"
         id="textPath17">CONTROL</textPath></text>
    <text
       fill="#000000"
       font-family="sans-serif"
       font-size="18.667px"
       letter-spacing="0px"
       stroke-width="1px"
       word-spacing="0px"
       style="line-height:125%;font-variant-ligatures:normal;font-variant-caps:normal;font-variant-numeric:normal;font-feature-settings:normal"
       xml:space="preserve"
       id="text18"><textPath
         xlink:href="#b"
         id="textPath18">  HEALTH</textPath></text>
    <text
       fill="#000000"
       font-family="sans-serif"
       font-size="18.667px"
       letter-spacing="0px"
       stroke-width="1px"
       word-spacing="0px"
       style="font-feature-settings:normal;font-variant-caps:normal;font-variant-ligatures:normal;font-variant-numeric:normal;line-height:125%"
       xml:space="preserve"
       id="text19"><textPath
         xlink:href="#c"
         id="textPath19"><tspan
           id="tspan19">SAVE</tspan></textPath></text>
    <path
       id="c"
       d="m218.99 109.56a94.291 90.628 0 0 1-69.467 109.4 94.291 90.628 0 0 1-113.82-66.769 94.291 90.628 0 0 1 69.467-109.4 94.291 90.628 0 0 1 113.82 66.769z"
       display="none"
       fill="none" />
    <path
       id="b"
       d="m43.8 171.45a93.587 93.587 0 0 1 39.304-126.38 93.587 93.587 0 0 1 126.38 39.304 93.587 93.587 0 0 1-39.304 126.38 93.587 93.587 0 0 1-126.38-39.304z"
       display="none"
       fill="none" />
    <path
       id="a"
       d="m87.44 230.52a109.33 109.32 3.6554 0 0 142.09-60.958 109.33 109.32 3.6554 0 0-60.959-142.08 109.33 109.32 3.6554 0 0-142.09 60.958 109.33 109.32 3.6554 0 0 60.959 142.08z"
       fill="none" />
  </g>
</svg>
